<?xml version="1.0" standalone="no"?>
<!DOCTYPE svg PUBLIC "-//W3C//DTD SVG 20010904//EN"
 "http://www.w3.org/TR/2001/REC-SVG-20010904/DTD/svg10.dtd">
<svg version="1.0" xmlns="http://www.w3.org/2000/svg"
 width="1404.000000pt" height="1872.000000pt" viewBox="0 0 1404.000000 1872.000000"
 preserveAspectRatio="xMidYMid meet">

<g transform="translate(0.000000,1872.000000) scale(0.100000,-0.100000)"
fill="#000000" stroke="none">
<path d="M2282 17843 l-2 -873 -1137 -3 -1138 -2 1138 -3 1137 -2 0 -305 0
-305 -1142 -3 -1143 -2 1143 -3 1142 -2 0 -305 0 -305 -1142 -3 -1143 -2 1143
-3 1142 -2 0 -305 0 -305 -1142 -3 -1143 -2 1143 -3 1142 -2 0 -305 0 -305
-1142 -3 -1143 -2 1143 -3 1142 -2 0 -305 0 -305 -1142 -3 -1143 -2 1143 -3
1142 -2 0 -305 0 -305 -1142 -3 -1143 -2 1143 -3 1142 -2 0 -305 0 -305 -1142
-3 -1143 -2 1143 -3 1142 -2 0 -305 0 -305 -1142 -3 -1143 -2 1143 -3 1142 -2
0 -305 0 -305 -1142 -3 -1143 -2 1143 -3 1142 -2 0 -305 0 -305 -1142 -3
-1143 -2 1143 -3 1142 -2 0 -305 0 -305 -1142 -3 -1143 -2 1143 -3 1142 -2 0
-305 0 -305 -1142 -3 -1143 -2 1143 -3 1142 -2 0 -305 0 -305 -1142 -3 -1143
-2 1143 -3 1142 -2 0 -305 0 -305 -1142 -3 -1143 -2 1143 -3 1142 -2 0 -305 0
-305 -1142 -3 -1143 -2 1143 -3 1142 -2 0 -305 0 -305 -1142 -3 -1143 -2 1143
-3 1142 -2 0 -305 0 -305 -1142 -3 -1143 -2 1143 -3 1142 -2 0 -305 0 -305
-1142 -3 -1143 -2 1143 -3 1142 -2 0 -305 0 -305 -1142 -3 -1143 -2 1143 -3
1142 -2 0 -305 0 -305 -1142 -3 -1143 -2 1143 -3 1142 -2 0 -305 0 -305 -1142
-3 -1143 -2 1143 -3 1142 -2 0 -305 0 -305 -1142 -3 -1143 -2 1143 -3 1142 -2
0 -305 0 -305 -1142 -3 -1143 -2 1143 -3 1142 -2 0 -305 0 -305 -1142 -3
-1143 -2 1143 -3 1142 -2 0 -305 0 -305 -1142 -3 -1143 -2 1143 -3 1142 -2 0
-305 0 -305 -1142 -3 -1143 -2 1142 -3 1143 -2 3 -417 2 -418 3 418 2 417 55
0 55 0 3 -418 2 -417 3 417 2 418 5813 3 5812 2 -5812 3 -5813 2 0 305 0 305
5813 3 5812 2 -5812 3 -5813 2 0 305 0 305 5813 3 5812 2 -5812 3 -5813 2 0
305 0 305 5813 3 5812 2 -5812 3 -5813 2 0 305 0 305 5813 3 5812 2 -5812 3
-5813 2 0 305 0 305 1511 0 c1436 -1 1519 -2 1668 -20 125 -16 221 -20 486
-20 514 -1 846 -22 1420 -90 88 -10 195 -22 237 -26 l77 -6 3 -42 c4 -58 32
-57 36 2 2 23 7 42 13 42 5 0 9 7 9 15 0 8 -4 15 -10 15 -6 0 -10 28 -10 65
l0 65 3093 3 3092 2 -3094 3 -3094 2 6 147 c5 130 29 376 43 440 l4 23 3068 3
3067 2 -3067 3 c-2037 1 -3068 5 -3068 12 0 6 13 10 28 10 34 0 43 7 35 26 -3
8 -18 14 -34 14 -23 0 -29 4 -29 23 0 43 -12 67 -32 67 -18 0 -20 -5 -16 -44
l5 -44 -271 -6 c-149 -3 -629 -11 -1066 -16 -835 -10 -941 -13 -1188 -32 -117
-9 -155 -9 -164 0 -15 15 -48 16 -48 2 0 -7 -458 -10 -1355 -10 l-1355 0 0
305 0 305 905 0 905 0 -7 -27 c-20 -79 12 -97 36 -21 l15 48 838 0 838 0 0
-30 c0 -29 -2 -30 -42 -30 -24 0 -60 5 -81 11 -31 8 -42 7 -55 -4 -14 -11 -52
-12 -232 -4 -148 6 -330 5 -585 -3 -747 -25 -715 -23 -715 -55 0 -19 18 -29
33 -17 7 5 91 12 187 15 96 3 308 11 470 17 269 11 719 7 796 -6 25 -5 33 -12
38 -35 8 -43 48 -79 88 -79 42 0 94 32 116 71 l17 30 240 -8 c319 -11 1291 -7
1690 6 521 18 831 31 985 41 80 6 340 19 579 30 239 11 527 27 640 35 167 12
557 15 2066 17 l1860 3 -1770 5 c-1433 4 -1758 7 -1706 17 70 13 92 26 75 43
-8 8 -25 8 -55 1 -82 -19 -83 -19 -76 52 3 34 29 153 57 264 27 110 50 208 50
217 0 15 153 16 1718 19 l1717 2 -1717 3 -1718 2 0 34 c0 45 -17 57 -92 61
-87 5 -602 -12 -898 -31 -367 -23 -1441 -29 -2650 -15 -1099 13 -1190 12
-1655 -29 -60 -6 -311 -13 -557 -17 l-448 -6 0 22 c0 17 -5 22 -22 19 -15 -2
-22 -9 -22 -21 2 -16 -49 -17 -927 -17 l-929 0 0 305 0 305 903 0 c671 0 906
-3 915 -12 8 -8 15 -8 25 0 18 15 5557 17 5557 3 0 -42 15 -41 -519 -41 -298
0 -742 -8 -1081 -20 -316 -10 -845 -24 -1175 -30 -330 -6 -773 -15 -985 -20
-708 -18 -884 -14 -1335 35 -114 12 -161 12 -253 3 -102 -10 -117 -9 -143 6
-16 9 -34 14 -39 11 -20 -12 -9 -36 25 -52 30 -15 48 -15 152 -5 95 9 143 9
248 -3 438 -48 638 -53 1345 -35 212 5 655 14 985 20 330 6 859 20 1175 30
337 12 783 20 1078 20 l502 0 0 -25 c0 -23 -4 -25 -42 -25 -118 0 -190 -108
-158 -239 15 -65 48 -101 93 -101 73 0 115 62 127 187 8 88 12 99 30 88 8 -5
8 -11 -1 -21 -6 -7 -9 -21 -5 -30 5 -13 10 -13 36 6 41 29 38 54 -8 76 -32 17
-37 23 -34 50 l3 31 285 6 c180 3 290 9 298 16 9 8 22 7 44 -5 17 -8 74 -20
126 -26 78 -9 95 -14 99 -29 7 -25 28 -24 34 1 3 11 12 20 19 20 20 0 30 30
14 40 -8 5 -10 18 -5 39 l7 31 1641 3 1642 2 -1643 3 -1642 2 5 23 c15 65 35
299 35 419 0 82 4 139 10 143 6 4 8 11 5 16 -4 5 616 10 1612 11 l1618 3
-1725 5 c-949 3 -1656 6 -1572 8 142 2 152 3 152 21 0 19 -17 19 -692 15 -381
-2 -873 -10 -1093 -19 -296 -11 -640 -14 -1325 -12 -509 1 -981 -2 -1049 -6
l-124 -9 7 47 c7 42 6 46 -11 43 -12 -2 -21 -17 -27 -46 l-10 -42 -1153 0
c-736 0 -1153 4 -1153 10 0 6 -9 10 -20 10 -11 0 -20 -4 -20 -10 0 -7 -308
-10 -905 -10 l-905 0 0 305 0 305 990 0 990 0 0 -68 c0 -59 3 -72 23 -90 13
-12 29 -22 35 -22 17 0 15 37 -3 44 -11 4 -15 22 -15 71 l0 65 721 0 c653 0
721 -1 715 -16 -3 -9 -6 -22 -6 -29 0 -11 -6 -11 -30 -2 -44 17 -80 0 -104
-50 l-21 -42 -235 0 c-129 -1 -325 6 -436 14 -183 13 -508 14 -522 1 -2 -3 1
-12 7 -20 11 -13 48 -15 219 -13 114 0 272 -4 352 -11 80 -6 250 -12 378 -12
l232 0 0 -27 c0 -16 9 -47 20 -71 28 -62 52 -55 99 28 l37 65 84 7 c341 27
1458 36 2245 17 319 -7 571 -7 915 2 388 10 535 9 800 -2 438 -18 515 -18 515
1 0 28 -347 42 -975 39 -920 -4 -980 -4 -1815 5 -744 9 -1245 3 -1647 -20 -81
-4 -98 -2 -98 9 0 8 6 20 14 26 8 7 12 20 9 31 -3 11 -2 31 1 45 l6 25 2308 0
2307 0 0 -108 c0 -111 12 -152 42 -152 12 0 14 6 9 28 -12 50 -19 160 -12 196
l7 36 1732 3 1732 2 -1731 3 -1731 2 25 118 c20 97 24 148 26 304 l1 188 1705
2 1705 3 -1707 3 -1706 2 -7 63 c-17 137 -3 368 31 524 l4 23 1693 3 1692 2
-1692 3 -1693 2 0 23 c0 12 -9 28 -21 35 -17 11 -25 11 -46 -3 -32 -21 -517
-43 -1023 -46 -1184 -7 -5155 13 -5169 27 -8 7 -41 -17 -36 -27 4 -5 -356 -9
-969 -9 l-976 0 0 305 0 305 1093 0 1092 0 2 -26 c1 -33 26 -59 48 -50 13 5
15 9 6 20 -6 7 -9 20 -6 28 9 24 102 28 530 22 478 -7 1017 -6 1350 2 171 4
266 2 300 -6 28 -6 210 -15 405 -20 211 -5 404 -15 475 -24 73 -9 280 -20 527
-26 418 -11 571 -6 818 25 252 31 323 35 469 25 80 -6 183 -16 230 -24 47 -8
134 -18 194 -22 103 -6 107 -6 107 14 0 18 -9 20 -111 27 -62 4 -144 13 -183
20 -69 13 -65 13 135 14 l206 1 7 -39 c6 -42 49 -101 72 -101 20 0 17 30 -6
55 -11 11 -23 35 -26 53 l-6 32 1948 3 1949 2 -1947 3 c-1752 2 -1948 4 -1948
18 0 8 15 77 34 152 20 80 37 177 41 232 3 52 8 114 11 138 4 33 2 42 -10 42
-25 0 -33 -29 -40 -151 -4 -82 -16 -155 -41 -254 -19 -77 -35 -148 -35 -157 0
-17 -32 -18 -557 -17 -366 1 -560 4 -564 11 -4 6 3 38 14 72 19 60 19 63 2 89
-25 39 -62 36 -108 -11 -47 -48 -58 -95 -27 -112 15 -8 30 -9 50 -1 28 9 29 8
27 -20 l-2 -29 -376 0 c-353 0 -377 1 -375 18 1 13 -8 18 -41 20 -23 2 -47 10
-55 19 -8 11 -9 14 -1 10 15 -9 72 14 96 38 33 33 -1 85 -56 85 -32 0 -83 -47
-93 -85 -7 -29 21 -83 49 -95 15 -6 -15 -9 -90 -9 l-113 -1 0 38 c0 100 45
159 112 148 33 -5 38 -4 38 13 0 45 -90 38 -138 -12 -42 -43 -76 -121 -68
-158 l6 -29 -333 1 c-182 0 -326 3 -319 6 6 2 12 14 12 25 0 16 -4 19 -22 13
-56 -17 -68 -17 -68 -3 0 18 20 80 29 90 4 4 40 12 81 18 78 11 102 22 84 40
-7 7 -32 7 -71 2 l-61 -8 38 50 c82 109 105 185 70 229 -21 26 -53 36 -64 19
-3 -5 6 -19 20 -31 20 -18 24 -28 19 -49 -11 -44 -32 -83 -85 -154 -36 -49
-56 -68 -72 -68 -33 0 -52 -15 -45 -35 5 -11 13 -14 27 -10 19 6 19 5 5 -29
-18 -43 -19 -78 -2 -95 10 -11 -5 -12 -88 -7 -55 3 -125 10 -155 16 -36 6
-255 7 -625 2 -313 -4 -622 -5 -685 -2 -63 3 -287 6 -497 5 -211 0 -383 2
-383 5 0 3 17 62 39 130 50 160 70 264 73 368 l1 82 1996 -2 c1208 -1 1941 -5
1856 -10 -77 -4 -554 -10 -1060 -12 -807 -4 -941 -6 -1095 -23 -143 -15 -249
-18 -578 -17 -373 1 -404 3 -416 19 -12 17 -14 17 -27 -3 -13 -18 -20 -19 -94
-12 -44 5 -100 16 -125 25 -38 14 -64 16 -160 9 -63 -4 -145 -7 -181 -6 -52 2
-72 -2 -89 -16 -26 -21 -19 -48 9 -36 9 5 48 9 86 9 39 1 117 5 175 9 87 7
113 5 150 -9 25 -9 85 -20 133 -25 49 -5 91 -11 94 -14 8 -8 -26 -113 -73
-227 -48 -119 -63 -182 -45 -203 8 -10 39 -13 118 -12 91 1 108 4 111 17 2 13
-9 18 -56 23 -33 4 -78 4 -101 0 l-42 -7 7 39 c4 21 22 73 39 114 34 77 85
231 85 254 0 11 73 13 403 12 329 -1 434 2 582 18 159 16 280 19 1055 21 548
1 974 7 1140 15 210 10 324 11 545 2 403 -17 781 -23 845 -15 38 6 56 13 58
24 3 15 -16 16 -170 15 -95 0 -189 2 -208 6 -19 4 -42 8 -50 10 -8 2 971 5
2175 8 1399 3 92 6 -3622 8 l-5813 2 0 305 0 305 2323 -2 c1277 -1 2279 -3
2227 -5 -52 -2 -219 -10 -370 -18 -266 -15 -969 -33 -1508 -38 -254 -3 -263
-2 -277 18 -14 20 -15 20 -30 1 -21 -27 -19 -33 13 -49 21 -11 80 -13 287 -11
526 7 1264 24 1415 34 338 21 1009 40 1663 47 l687 6 0 -23 c0 -19 -4 -22 -27
-17 -55 10 -118 -34 -147 -105 -23 -54 -32 -144 -16 -163 47 -56 175 41 207
158 14 49 20 57 40 57 29 0 31 30 3 37 -13 3 -20 14 -20 29 l0 24 214 0 215 0
-19 -42 c-29 -68 -34 -112 -15 -131 9 -10 20 -17 25 -17 16 0 22 20 11 34 -11
13 2 70 29 129 12 25 17 27 76 27 35 0 66 5 69 10 4 7 777 11 2278 12 l2272 3
-2335 5 c-1284 3 -2335 7 -2335 8 0 1 12 64 27 140 15 75 39 210 54 300 l27
162 2281 2 2281 3 -2276 2 c-2266 3 -2277 3 -2282 23 -7 26 -27 26 -34 0 -5
-20 -13 -20 -827 -19 l-821 1 310 23 c664 50 1260 59 1793 29 222 -13 296 -14
304 -6 8 8 8 15 3 21 -19 17 -588 41 -965 41 -417 0 -640 -9 -1155 -45 -632
-44 -753 -48 -1395 -40 -490 5 -653 3 -860 -9 -211 -13 -526 -16 -1837 -16
l-1583 0 0 305 0 305 1114 0 c981 0 1115 -2 1120 -15 3 -8 12 -15 21 -15 8 0
15 7 15 15 0 13 102 15 861 15 737 0 860 -2 850 -14 -9 -11 -6 -18 15 -35 15
-12 34 -21 44 -21 23 0 70 38 70 56 0 12 29 14 167 14 91 0 195 -5 231 -11 47
-8 67 -8 75 0 7 7 91 11 265 11 l253 0 -7 -22 c-9 -32 -43 -98 -50 -98 -3 0
-14 5 -25 11 -12 6 -28 8 -37 4 -15 -6 -13 -10 11 -31 l28 -24 -373 5 c-1175
16 -1086 13 -1653 56 -77 5 -185 14 -240 19 -55 5 -175 9 -268 10 -116 0 -173
4 -187 13 -17 10 -22 9 -30 -3 -6 -8 -9 -22 -7 -30 2 -13 41 -16 252 -21 138
-4 295 -11 350 -18 55 -6 177 -15 270 -21 94 -6 224 -15 290 -21 66 -5 451
-14 855 -19 763 -10 1100 -23 1625 -65 465 -37 732 -48 1018 -42 250 5 257 4
257 -15 0 -13 6 -18 18 -16 13 2 17 13 17 43 0 34 -3 40 -20 38 -11 -1 -82 -5
-159 -9 l-139 -7 7 67 c3 36 9 95 12 131 l6 65 2352 3 2351 2 -2353 3 -2354 2
6 28 c22 115 38 476 23 544 l-8 38 2343 3 2343 2 -2401 3 c-2269 2 -2402 3
-2400 19 2 26 -47 31 -379 38 -221 6 -357 3 -570 -9 -347 -21 -793 -21 -1115
-1 -646 40 -624 39 -1058 26 -229 -7 -588 -16 -797 -21 -209 -5 -416 -14 -459
-20 -60 -7 -83 -7 -93 2 -12 10 -18 8 -31 -10 l-17 -21 -1152 -1 -1153 0 0
305 0 305 1715 0 1716 0 -3 -39 c-4 -75 -72 -70 865 -66 l842 3 250 31 c138
17 291 39 340 48 83 16 306 18 2995 23 l2905 5 -2887 3 c-1977 1 -2888 5
-2888 12 0 20 -44 29 -62 13 -11 -10 -41 -15 -85 -16 l-68 -2 -3 50 c-2 28 4
91 12 140 9 50 25 151 36 225 11 74 23 147 26 163 l6 27 2956 2 2957 3 -2955
5 -2955 5 0 40 c0 29 -4 40 -15 40 -10 0 -17 -13 -20 -40 l-5 -40 -49 -3 c-41
-3 -48 -1 -38 11 18 21 -4 37 -37 26 -83 -28 -405 -32 -2953 -36 l-2598 -4 0
306 0 305 501 0 501 0 -7 -37 c-3 -21 -17 -70 -31 -109 -33 -95 -45 -166 -32
-181 15 -18 23 -10 63 66 45 84 83 122 132 130 25 4 39 12 41 24 3 14 -4 17
-34 17 -40 0 -94 -29 -120 -63 -15 -20 -16 -20 -9 -2 4 11 14 50 23 87 l17 68
1006 0 1006 0 11 -25 c12 -26 36 -33 47 -15 4 6 1 17 -5 25 -11 13 19 15 232
15 176 0 247 -3 256 -12 9 -9 15 -9 24 0 8 8 62 12 176 12 160 0 165 -1 194
-25 l30 -25 -124 0 c-106 0 -251 14 -370 35 -39 6 -69 -8 -51 -26 6 -6 78 -20
159 -31 168 -22 375 -21 944 7 168 8 432 20 587 26 l283 11 18 -22 c19 -24 42
-21 42 6 0 11 15 14 65 14 51 0 65 3 65 15 0 13 342 15 2993 18 l2992 2 -3062
3 c-2099 1 -3063 5 -3063 12 0 6 21 99 46 208 31 131 48 229 51 294 l6 98
3011 3 3011 2 -3014 3 -3015 2 -25 30 -26 30 -70 -11 c-42 -7 -285 -12 -600
-14 -346 -2 -611 -9 -765 -19 -344 -23 -1707 -24 -1724 0 -12 15 -46 10 -46
-7 0 -5 -490 -9 -1170 -9 l-1170 0 0 305 0 305 1131 0 1131 0 -8 -42 c-11 -66
-10 -72 7 -76 12 -2 21 12 35 55 l19 58 4655 5 c2560 3 4225 6 3698 8 -951 2
-956 2 -951 22 4 16 0 20 -22 20 -22 0 -26 -4 -22 -20 5 -20 0 -20 -3672 -20
l-3677 0 21 68 22 67 50 6 c58 7 86 21 107 51 54 77 -55 163 -117 93 -12 -14
-37 -40 -54 -57 -25 -24 -33 -40 -33 -67 0 -20 -12 -64 -27 -98 l-27 -63
-1133 0 -1133 0 0 305 0 305 308 0 307 -1 -54 -19 c-59 -22 -81 -36 -81 -56 0
-23 19 -25 47 -5 16 11 41 23 57 27 24 6 27 4 23 -12 -3 -11 -8 -46 -12 -78
-8 -74 -20 -106 -39 -106 -7 0 -19 -7 -26 -15 -10 -12 -8 -21 8 -47 l20 -33
-24 -90 c-38 -145 -38 -145 -21 -145 22 0 31 20 56 119 11 46 23 86 26 89 3 3
37 -17 75 -44 88 -61 137 -87 150 -79 20 13 9 34 -24 45 -19 6 -40 18 -47 27
-13 15 -122 89 -141 95 -6 2 -5 13 0 28 9 22 20 27 82 38 102 17 178 56 196
98 19 45 18 83 -5 127 l-19 37 4459 0 4459 0 -17 -35 c-12 -26 -14 -38 -6 -46
17 -17 43 -3 43 23 0 13 7 31 14 41 12 16 69 17 912 19 l899 3 -893 2 -893 3
26 37 c23 34 28 37 65 34 37 -2 46 2 86 42 58 58 60 93 8 135 l-37 30 23 36
c12 20 26 36 32 36 5 0 8 10 6 22 -5 40 -32 31 -63 -21 -29 -49 -31 -50 -76
-49 -51 1 -72 -7 -66 -25 2 -7 -2 -19 -10 -28 -7 -9 -16 -32 -19 -51 -5 -27
-1 -40 20 -65 l27 -32 -37 -51 -36 -50 -4894 0 -4894 1 0 304 0 305 840 0
c711 0 840 -2 840 -14 0 -8 6 -16 13 -19 19 -7 41 8 33 22 -5 8 100 11 386 11
l393 -1 -32 -28 c-34 -28 -41 -45 -23 -56 14 -9 77 40 85 65 6 20 19 20 3269
20 3257 0 3264 0 3269 -20 3 -12 14 -20 27 -20 17 0 21 4 17 20 -5 19 0 20
173 20 172 0 178 -1 183 -21 7 -26 53 -23 51 4 -2 16 55 17 1050 19 l1051 3
-1044 2 -1045 3 29 30 c22 23 38 30 65 30 41 0 123 48 142 83 14 27 13 74 -2
92 -10 12 -6 23 19 54 17 21 31 46 31 55 0 29 -35 15 -65 -26 l-30 -41 -79 -1
c-56 -1 -81 -5 -84 -14 -2 -7 5 -16 16 -19 20 -5 20 -6 -5 -41 -18 -28 -24
-47 -21 -77 3 -35 -2 -47 -33 -83 l-36 -42 -98 0 c-88 0 -97 2 -79 14 14 11
16 18 8 26 -19 19 -49 7 -48 -18 1 -21 -3 -22 -73 -22 l-73 0 6 28 c15 67 45
162 53 166 5 3 12 23 16 43 4 21 13 49 20 63 8 16 10 32 5 40 -14 22 -37 -4
-55 -63 -9 -29 -23 -66 -31 -83 -7 -17 -23 -68 -35 -113 l-22 -81 -2854 0
-2854 0 31 59 c27 50 37 60 65 65 44 9 107 56 136 102 26 43 28 87 5 132 -15
29 -15 34 1 67 9 19 20 35 25 35 4 0 8 14 8 30 0 51 -31 38 -58 -23 l-22 -52
-43 3 c-33 3 -52 -3 -90 -28 -83 -53 -112 -160 -63 -233 l24 -35 -31 -61 -32
-61 -388 0 -388 0 -6 30 c-7 39 -37 37 -41 -3 l-3 -27 -390 0 c-214 0 -389 2
-389 5 0 2 7 23 16 45 14 34 19 38 34 30 51 -27 155 8 189 64 33 53 37 109 12
152 -21 35 -21 39 -7 76 20 49 20 94 1 102 -17 6 -20 0 -29 -55 -4 -19 -12
-44 -20 -54 -11 -16 -18 -17 -38 -8 -29 13 -47 5 -96 -41 -52 -48 -75 -101
-69 -155 4 -33 0 -62 -16 -103 l-22 -58 -837 0 -838 0 -3 873 -2 872 -3 -872
-2 -873 -55 0 -55 0 -3 873 -2 872 -3 -872z m3652 -520 c-10 -16 -38 -62 -62
-103 -55 -93 -51 -89 -68 -66 -31 44 -6 133 48 166 21 13 36 16 42 10 15 -15
36 -12 36 5 0 8 5 15 11 15 7 0 4 -11 -7 -27z m60 -49 c11 -35 -82 -144 -112
-132 -5 1 13 41 40 87 49 81 59 88 72 45z m-1634 -65 c0 -38 -29 -89 -62 -109
-35 -21 -93 -27 -103 -10 -4 6 24 49 61 97 l67 86 19 -23 c10 -12 18 -31 18
-41z m-131 38 c8 -11 1 -26 -29 -67 -37 -50 -40 -52 -40 -27 0 22 44 107 55
107 1 0 8 -6 14 -13z m7820 -97 c-43 -51 -56 -57 -45 -22 11 34 46 72 67 72
17 0 14 -8 -22 -50z m99 8 c-2 -25 -13 -39 -44 -61 -65 -45 -73 -29 -18 36 27
31 53 57 57 57 5 0 7 -14 5 -32z m-9748 -503 l0 -305 -55 0 -55 0 0 305 0 305
55 0 55 0 0 -305z m9935 -82 c-9 -21 -23 -49 -32 -62 -15 -23 -16 -24 -29 -6
-28 38 -9 85 31 78 18 -4 25 -1 25 11 0 9 5 16 10 16 6 0 4 -16 -5 -37z m95
-41 c0 -21 -59 -72 -84 -72 -22 0 -22 1 9 64 l30 64 23 -21 c12 -11 22 -27 22
-35z m-10030 -497 l0 -305 -55 0 -55 0 0 305 0 305 55 0 55 0 0 -305z m849
259 c25 -31 27 -81 6 -111 -18 -26 -100 -58 -174 -68 -49 -7 -53 -6 -47 12 5
15 25 149 26 175 0 10 36 15 107 17 55 1 64 -2 82 -25z m1656 -315 c9 -29 -21
-58 -68 -66 -34 -5 -37 -4 -31 13 25 67 85 99 99 53z m-2505 -564 l0 -305 -55
0 -55 0 0 305 0 305 55 0 55 0 0 -305z m5540 -295 c0 -5 -21 -9 -47 -8 l-48 1
45 7 c25 4 46 8 48 8 1 1 2 -2 2 -8z m-5540 -325 l0 -305 -55 0 -55 0 0 305 0
305 55 0 55 0 0 -305z m2324 238 c-7 -38 -18 -114 -24 -170 l-12 -103 -29 0
c-59 0 -148 -116 -133 -175 8 -31 43 -50 77 -41 33 8 84 51 102 85 7 15 23
110 34 212 12 101 26 201 31 222 l11 37 628 0 c593 0 629 -1 627 -17 -1 -15 6
-18 50 -15 l51 4 -2 -84 c-3 -88 -28 -180 -99 -368 -20 -52 -36 -103 -36 -112
0 -17 -18 -18 -240 -18 -132 0 -240 3 -240 8 0 21 56 132 68 132 7 0 30 9 52
20 23 12 61 20 92 21 70 1 102 11 106 32 3 16 -3 17 -72 11 -67 -6 -76 -5 -70
9 3 8 -7 33 -21 56 -26 38 -27 44 -18 106 8 57 7 67 -8 81 -32 28 -67 -4 -38
-33 17 -17 2 -103 -17 -103 -9 0 -35 -12 -60 -26 -35 -21 -47 -35 -61 -76 -18
-50 -18 -50 -56 -45 -28 4 -40 1 -44 -10 -9 -22 16 -34 67 -32 25 1 55 -3 67
-7 l22 -9 -24 -54 c-14 -29 -25 -59 -25 -67 0 -12 -89 -14 -577 -13 -318 0
-571 3 -563 5 70 23 100 38 100 49 0 24 -15 25 -69 5 -53 -21 -87 -25 -115
-14 -21 8 -21 24 0 24 8 0 29 13 45 30 24 23 30 37 27 62 -6 64 -75 44 -114
-34 -27 -53 -22 -84 18 -112 21 -15 -8 -16 -376 -16 l-398 0 7 37 c4 21 21 71
37 111 23 54 28 76 20 84 -8 8 -15 8 -24 0 -8 -6 -28 -10 -45 -10 -37 1 -58
-13 -79 -53 -31 -61 -8 -119 37 -91 27 17 27 16 16 -33 l-10 -45 -504 0 -503
0 0 305 0 305 1163 0 1163 0 -12 -67z m3229 53 c29 -22 21 -112 -28 -331 -25
-110 -48 -215 -52 -232 l-6 -33 -281 1 c-154 1 -273 3 -263 6 9 2 17 14 17 25
0 17 -4 19 -27 14 -93 -21 -93 -21 -92 10 0 16 6 47 12 69 14 45 31 52 119 54
67 1 88 8 88 28 0 12 -15 14 -85 12 -47 -2 -85 -3 -85 -1 0 2 16 38 36 80 67
143 75 192 33 192 -15 0 -19 -7 -19 -31 0 -37 -84 -228 -108 -246 -9 -7 -37
-13 -62 -13 -51 0 -61 -5 -53 -26 3 -9 21 -14 54 -14 l49 0 -8 -32 c-4 -18 -7
-54 -7 -80 l0 -48 -172 0 c-95 0 -173 2 -173 5 0 3 9 24 20 47 23 48 19 58
-21 58 -31 0 -51 -26 -31 -39 9 -5 9 -15 0 -39 l-12 -32 -84 0 -83 0 45 56
c26 31 46 64 46 73 0 17 55 41 94 41 21 0 21 29 0 37 -8 3 -34 0 -57 -7 -23
-7 -64 -17 -92 -22 -27 -5 -65 -11 -83 -15 -24 -4 -32 -10 -30 -22 3 -12 15
-16 55 -16 28 0 54 -3 58 -7 4 -4 -16 -32 -45 -62 l-53 -56 -73 0 c-70 0 -74
1 -87 28 -43 83 -24 162 60 252 51 56 163 150 177 150 3 0 -6 -25 -21 -55 -21
-42 -24 -58 -15 -67 26 -26 132 61 132 110 0 41 -22 72 -51 72 -48 0 -190
-105 -269 -201 -77 -93 -95 -178 -55 -271 7 -17 -5 -18 -159 -18 -140 0 -166
2 -166 15 0 8 18 61 39 117 67 178 92 269 98 359 l6 86 251 15 c343 21 1493
24 1519 4z m-1253 -164 c0 -10 -7 -27 -15 -38 -13 -17 -13 -15 -3 19 12 41 18
47 18 19z m-1110 -152 c0 -15 -24 -64 -35 -72 -5 -4 -20 -8 -33 -8 -20 0 -22
4 -16 23 9 29 24 47 49 57 27 12 35 12 35 0z m64 -53 c-3 -9 -15 -17 -25 -17
-22 0 -22 0 -9 36 10 24 13 26 26 13 8 -9 12 -23 8 -32z m-998 -12 c-3 -8 2
-18 10 -23 15 -8 15 -12 1 -39 -25 -47 -86 -79 -102 -53 -8 13 18 71 48 103
28 29 53 36 43 12z m-1206 -43 c0 -5 -11 -19 -25 -32 -28 -26 -33 -16 -9 18
15 22 34 30 34 14z m834 -35 c-3 -8 -12 -18 -20 -21 -10 -4 -13 -2 -8 7 21 37
41 47 28 14z m-1884 -452 l0 -305 -55 0 -55 0 0 305 0 305 55 0 55 0 0 -305z
m4127 299 c-3 -3 -22 -6 -42 -6 -20 0 -39 3 -42 6 -4 3 15 6 42 6 27 0 46 -3
42 -6z m858 0 c-42 -5 -720 -34 -780 -34 l-50 0 30 20 c28 19 48 19 430 18
220 -1 387 -3 370 -4z m-4985 -919 l0 -305 -55 0 -55 0 0 305 0 305 55 0 55 0
0 -305z m4585 293 c-49 -4 -290 -10 -533 -12 -464 -3 -461 -3 -462 -45 0 -10
7 -11 28 -6 15 4 209 9 432 10 250 2 487 9 620 18 206 16 483 30 844 44 l168
6 -6 -29 c-19 -92 -69 -431 -73 -501 l-6 -83 -1059 0 -1060 0 5 23 c3 12 11
72 16 132 6 61 16 164 23 230 16 164 16 180 -2 180 -18 0 -26 -39 -40 -185
-21 -229 -32 -335 -37 -357 l-5 -23 -1714 0 -1714 0 0 305 0 305 2333 -1
c1380 -1 2295 -5 2242 -11z m-4585 -913 l0 -305 -55 0 -55 0 0 305 0 305 55 0
55 0 0 -305z m5585 300 c-5 -2 -111 -16 -235 -31 -223 -26 -233 -27 -1005 -30
-429 -3 -798 -2 -821 1 -37 5 -41 8 -41 35 l0 30 1056 -1 c581 0 1052 -2 1046
-4z m-1210 -576 c88 -6 212 -14 275 -18 66 -5 -336 -8 -935 -8 -834 0 -979 2
-705 9 190 4 451 12 580 16 350 13 606 13 785 1z m2270 -19 c73 -4 -58 -6
-330 -6 -247 0 -405 3 -350 6 138 8 535 9 680 0z m-6645 -325 l0 -305 -55 0
-55 0 0 305 0 305 55 0 55 0 0 -305z m2245 286 c-8 -26 12 -37 33 -17 39 35
39 2 0 -174 -44 -201 -61 -321 -52 -367 l6 -33 -1111 0 -1111 0 0 305 0 305
1121 0 c1099 0 1120 0 1114 -19z m4665 4 c-10 -12 -10 -18 1 -32 10 -12 14
-47 13 -132 -1 -110 -19 -345 -30 -403 l-6 -28 -133 0 -134 0 24 25 c30 29 31
50 5 90 -23 35 -12 55 30 55 30 0 56 23 45 40 -18 30 -125 -13 -133 -54 -2
-10 5 -31 17 -47 27 -36 26 -45 -5 -66 -26 -17 -27 -16 -55 18 -25 31 -28 32
-35 15 -5 -12 -1 -30 9 -48 l16 -28 -321 0 -320 0 6 23 c3 12 6 29 6 38 0 12
13 18 50 22 96 11 131 63 111 159 -14 61 -26 78 -56 78 -28 0 -83 -52 -91 -87
-4 -13 -18 -29 -31 -34 -21 -8 -24 -14 -20 -36 3 -18 0 -31 -11 -39 -13 -10
-14 -15 -4 -27 11 -12 11 -24 1 -56 l-12 -41 -611 0 c-402 0 -633 4 -676 11
-78 14 -130 39 -160 76 -47 59 -5 183 96 289 53 55 77 64 116 43 15 -8 23 -8
32 1 8 9 5 16 -13 31 -48 39 -101 19 -181 -68 -61 -67 -98 -140 -107 -212 -7
-65 9 -105 60 -142 l40 -29 -150 0 c-125 0 -152 3 -157 15 -3 8 -14 15 -24 15
-11 0 -25 -7 -32 -15 -11 -13 -124 -15 -910 -15 l-898 0 -6 33 c-8 44 6 150
49 352 46 217 41 203 78 214 19 5 942 9 2281 10 1986 1 2247 -1 2236 -14z
m-877 -363 c12 -59 -7 -94 -56 -105 -21 -5 -41 -7 -44 -4 -8 9 26 103 49 132
27 34 41 28 51 -23z m-6033 -547 l0 -305 -55 0 -55 0 0 305 0 305 55 0 55 0 0
-305z m4080 296 c0 -15 -30 -21 -51 -11 -27 15 -24 20 16 20 19 0 35 -4 35 -9z
m1755 -16 c-3 -14 -7 -36 -10 -49 -3 -14 1 -29 11 -37 14 -11 18 -10 31 6 7
11 19 39 25 63 l10 42 495 0 495 0 -6 -65 c-3 -36 -9 -95 -12 -132 l-7 -66
-241 6 c-254 7 -382 15 -766 47 -129 10 -343 24 -475 30 -132 6 -254 13 -272
16 l-32 5 34 65 c19 36 35 72 35 80 0 12 54 14 345 14 l345 0 -5 -25z m-5835
-900 l0 -305 -55 0 -55 0 0 305 0 305 55 0 55 0 0 -305z m2530 208 c-25 -131
-67 -321 -80 -359 -6 -18 -10 -56 -8 -85 2 -42 7 -55 21 -57 15 -3 17 5 17 56
0 33 6 77 14 99 7 21 28 111 47 198 18 88 34 162 37 165 2 3 56 8 120 11 64 4
194 14 287 23 423 39 647 43 2373 45 1426 1 1672 0 1672 -12 0 -16 -60 -356
-87 -492 l-18 -90 -115 -2 -115 -3 37 20 c43 23 50 31 39 48 -6 10 -20 6 -60
-13 -61 -31 -85 -29 -89 5 -2 21 4 28 40 43 80 33 107 69 81 107 -12 18 -22
21 -46 16 -77 -16 -142 -141 -107 -207 10 -18 7 -19 -49 -19 l-60 0 -3 102 -3
103 -38 3 c-21 1 -47 -2 -58 -8 -50 -27 -78 -128 -42 -149 19 -10 58 1 85 26
17 15 18 13 18 -30 l0 -47 -324 0 -324 0 -7 28 c-3 16 -2 48 4 71 11 51 -7 65
-42 34 -12 -10 -30 -25 -39 -32 -29 -22 -23 9 13 63 29 42 30 49 17 63 -14 13
-18 12 -34 -12 -49 -70 -136 -164 -164 -176 -28 -13 -34 -22 -31 -41 0 -5 -76
-8 -169 -8 -206 0 -215 3 -226 86 -5 45 -10 54 -27 54 -18 0 -19 -4 -14 -47 4
-27 9 -58 13 -70 l6 -23 -2541 0 -2541 0 0 305 0 305 1269 0 1268 0 -17 -97z
m390 86 c-36 -4 -127 -11 -202 -15 -124 -6 -138 -5 -138 10 0 14 20 16 203 14
152 -1 186 -3 137 -9z m3790 -408 c0 -5 -16 -18 -35 -30 -19 -11 -35 -16 -35
-11 0 6 15 19 33 30 37 23 37 23 37 11z m-290 -28 c0 -17 -37 -63 -52 -63 -15
0 -8 27 13 54 23 30 39 34 39 9z m-770 -93 c0 -13 46 -13 71 0 14 8 19 7 19
-2 0 -7 3 -23 6 -35 6 -23 5 -23 -87 -23 l-93 0 34 35 c34 35 50 43 50 25z
m-5650 -385 l0 -305 -55 0 -55 0 0 305 0 305 55 0 55 0 0 -305z m6430 191 c0
-40 -36 -109 -76 -145 -59 -56 -79 -55 -71 3 10 68 37 126 69 146 30 18 78 16
78 -4z m-6430 -811 l0 -305 -55 0 -55 0 0 305 0 305 55 0 55 0 0 -305z m2312
228 c-4 -109 -25 -217 -72 -366 -22 -71 -40 -138 -40 -148 0 -19 -26 -19
-1095 -19 l-1095 0 0 305 0 305 1153 0 1152 0 -3 -77z m4883 67 c-7 -11 -207
-11 -380 0 -91 5 -67 7 138 8 163 1 246 -1 242 -8z m-625 -454 c0 -15 -77 -72
-86 -63 -3 3 7 22 23 41 28 36 63 48 63 22z m-815 -6 c4 -6 -11 -18 -32 -26
-21 -9 -41 -21 -45 -28 -6 -8 -8 -8 -8 0 0 38 68 81 85 54z m-5755 -455 l0
-305 -55 0 -55 0 0 305 0 305 55 0 55 0 0 -305z m6625 289 c-204 -29 -383 -35
-785 -25 -344 9 -596 24 -609 37 -2 2 331 3 740 3 653 -2 733 -3 654 -15z
m1578 -591 c-7 -2 -19 -2 -25 0 -7 3 -2 5 12 5 14 0 19 -2 13 -5z m-8203 -318
l0 -305 -55 0 -55 0 0 305 0 305 55 0 55 0 0 -305z m4073 293 l1427 -2 0 -41
c0 -22 -10 -93 -22 -157 -21 -116 -22 -118 -49 -118 -55 0 -89 -12 -89 -31 0
-17 6 -19 54 -13 l53 6 -13 -63 c-19 -90 -18 -119 4 -119 14 0 20 15 30 80 17
107 19 110 56 110 41 0 76 23 55 36 -7 4 -29 7 -48 5 -31 -3 -33 -1 -28 21 6
20 16 80 43 257 l5 33 627 -8 c345 -5 748 -8 896 -8 l268 2 -6 -46 c-3 -24 -6
-62 -6 -82 0 -23 -9 -51 -26 -75 -29 -43 -26 -65 11 -65 18 0 25 5 25 19 0 10
7 35 15 54 8 20 16 58 16 84 1 26 4 62 8 78 l6 30 250 11 c138 7 323 12 413
13 l162 1 -5 -22 c-34 -157 -47 -375 -31 -520 l8 -68 -415 0 c-386 0 -415 1
-413 17 1 13 -10 19 -47 24 -60 9 -91 33 -76 60 6 13 21 19 42 19 18 0 42 6
53 14 30 23 7 51 -40 50 -42 -1 -45 8 -11 41 30 31 65 33 65 5 0 -26 26 -26
40 0 8 16 6 24 -11 41 -48 48 -159 -18 -159 -95 0 -19 -7 -47 -17 -63 -15 -27
-15 -31 2 -57 11 -16 33 -35 50 -42 25 -11 -395 -13 -2537 -14 l-2568 0 0 45
0 44 35 -20 c35 -21 128 -28 179 -13 74 21 207 146 241 227 34 83 10 165 -62
210 -58 36 -99 48 -208 58 -55 5 -109 10 -120 11 -27 4 -32 -28 -6 -37 11 -3
66 -10 123 -14 260 -21 323 -154 154 -325 -54 -54 -139 -106 -153 -92 -13 13
-4 124 17 214 23 98 26 165 6 181 -20 17 -37 -9 -30 -47 3 -17 -3 -73 -15
-129 -11 -54 -22 -125 -23 -158 -2 -33 -7 -63 -12 -66 -16 -12 -69 10 -102 42
-31 30 -32 35 -44 157 -11 110 -10 138 4 212 10 54 12 88 6 94 -14 14 -51 -23
-48 -48 1 -12 -1 -55 -6 -96 -4 -46 -3 -110 4 -165 6 -49 14 -134 17 -187 l6
-98 -1047 0 -1046 0 0 306 0 305 1318 -5 c724 -3 1959 -6 2745 -8z m-4073
-913 l0 -305 -55 0 -55 0 0 305 0 305 55 0 55 0 0 -305z m2100 278 c0 -52 -29
-208 -65 -346 -19 -76 -35 -150 -35 -165 0 -15 -3 -37 -6 -49 l-6 -23 -989 0
-989 0 0 305 0 305 1045 0 1045 0 0 -27z m6086 -30 c15 -120 -13 -406 -52
-535 -5 -17 -124 -18 -2316 -18 -2104 0 -2310 1 -2304 16 14 37 19 154 6 169
-10 12 -10 15 5 15 31 0 12 35 -21 38 -38 4 -78 -26 -104 -79 -36 -70 -19
-106 45 -96 29 5 35 3 35 -13 0 -53 47 -50 -731 -50 -395 0 -719 2 -719 4 0
24 38 205 60 290 16 61 35 156 42 213 l12 103 3017 0 3018 0 7 -57z m-4701
-388 c-1 -34 -25 -64 -52 -65 -16 0 -16 5 -2 33 10 18 49 67 54 67 1 0 1 -16
0 -35z m-3485 -480 l0 -305 -55 0 -55 0 0 305 0 305 55 0 55 0 0 -305z m3430
215 c12 -6 16 -17 13 -30 -4 -16 -14 -20 -49 -20 -48 0 -52 5 -28 38 16 24 35
27 64 12z m-42 -136 c-20 -40 -24 -43 -35 -28 -7 10 -13 30 -13 46 0 25 3 28
35 28 l35 0 -22 -46z m4324 -381 c-40 -2 -103 -2 -140 0 -37 2 -4 3 73 3 77 0
107 -2 67 -3z m-7712 -318 l0 -305 -55 0 -55 0 0 305 0 305 55 0 55 0 0 -305z
m1820 291 c0 -10 13 -16 38 -18 37 -3 37 -3 40 -50 5 -76 -26 -225 -66 -323
-28 -68 -37 -104 -37 -147 l1 -58 -893 0 -893 0 0 305 0 305 905 0 c781 0 905
-2 905 -14z m2055 3 c-44 -4 -401 -12 -793 -18 -639 -10 -722 -9 -790 5 -42 9
-79 18 -81 20 -2 2 389 3 870 2 481 -1 838 -5 794 -9z m4473 -191 c-5 -178
-17 -311 -33 -385 l-5 -23 -425 0 c-234 0 -425 2 -425 6 0 3 9 26 21 51 26 57
29 96 8 101 -11 2 -19 -10 -28 -38 -8 -28 -20 -44 -37 -50 -33 -13 -101 -13
-109 0 -11 18 4 45 34 63 l29 17 11 -30 c11 -34 41 -41 41 -10 0 31 -28 80
-46 80 -45 0 -114 -64 -114 -106 0 -36 44 -64 101 -64 27 0 49 -4 49 -10 0 -6
-45 -10 -115 -10 -63 0 -115 1 -115 3 0 2 9 22 20 45 25 52 25 73 -1 106 -39
50 -85 30 -150 -66 -29 -42 -38 -63 -30 -71 14 -14 32 2 71 63 34 53 55 66 76
49 18 -15 18 -19 -8 -78 l-23 -51 -487 0 c-314 0 -489 4 -493 10 -3 6 -19 10
-35 10 -62 0 -73 20 -46 85 13 30 20 35 49 35 34 0 64 20 50 33 -3 4 -28 7
-55 7 -44 0 -50 -3 -68 -32 -25 -41 -34 -101 -20 -127 l11 -21 -2097 0 c-1985
0 -2098 1 -2110 18 -21 27 -17 64 17 147 43 109 69 216 76 323 l6 92 88 0 c53
0 137 -10 213 -25 l125 -25 703 10 c387 5 757 14 823 20 66 5 152 12 191 15
l71 6 -24 -113 c-14 -62 -27 -118 -28 -124 -2 -6 -35 -14 -74 -18 -60 -6 -71
-10 -71 -26 0 -22 37 -37 53 -21 6 6 27 11 47 11 l36 0 -7 -52 c-14 -95 -11
-130 8 -126 14 2 20 18 25 63 15 126 12 121 73 134 45 10 55 16 55 33 0 21
-10 21 -77 2 -29 -8 -29 1 0 131 l22 100 75 8 c41 4 602 9 1247 10 644 1 1175
5 1179 10 4 4 379 7 833 7 l826 0 -7 -202z m-8348 -723 l0 -305 -55 0 -55 0 0
305 0 305 55 0 55 0 0 -305z m8304 278 c-4 -16 -9 -32 -12 -37 -6 -11 -147 3
-200 20 -23 8 -47 12 -53 9 -5 -4 -142 -9 -303 -12 l-294 -6 5 27 5 26 429 0
429 0 -6 -27z m-930 -230 c-9 -129 -44 -192 -100 -181 -42 8 -66 114 -40 181
19 50 56 76 108 77 l38 0 -6 -77z m730 -299 c9 -3 16 -12 16 -20 0 -17 22 -18
38 -2 9 9 12 7 12 -10 l0 -22 -717 2 c-395 1 -677 3 -628 5 50 1 225 10 390
19 269 15 584 28 797 32 42 1 83 -1 92 -4z m-3165 -50 c2 -2 -373 -3 -835 -2
-461 1 -801 5 -754 9 85 6 1581 0 1589 -7z m-4939 -319 l0 -305 -55 0 -55 0 0
305 0 305 55 0 55 0 0 -305z m1878 241 c7 -35 12 -82 12 -104 0 -44 -33 -291
-51 -384 l-12 -58 -908 0 -909 0 0 305 0 305 928 0 929 0 11 -64z m102 60 c0
-2 -16 -6 -35 -8 -19 -2 -35 0 -35 4 0 4 16 8 35 8 19 0 35 -2 35 -4z m378 -3
c-32 -2 -84 -2 -115 0 -32 2 -6 3 57 3 63 0 89 -1 58 -3z m5812 -8 c0 -8 -23
-103 -50 -212 -28 -109 -53 -230 -57 -270 l-6 -72 -51 -5 c-307 -33 -520 -36
-2469 -36 l-1955 0 -4 93 c-3 66 -1 96 9 108 16 19 17 51 2 66 -14 14 -39 6
-39 -13 0 -10 -7 -13 -24 -8 -29 7 -56 -26 -59 -72 -2 -23 3 -30 21 -32 13 -2
30 2 38 8 12 11 14 1 14 -69 l0 -81 -836 0 -836 0 6 23 c18 74 57 402 54 461
l-3 69 60 14 c37 9 83 12 120 9 33 -4 94 -9 136 -12 68 -6 76 -8 72 -25 -5
-18 2 -19 102 -19 100 0 106 -1 100 -19 -3 -11 -1 -22 5 -26 15 -9 12 -55 -11
-161 -11 -52 -19 -107 -17 -122 4 -35 32 -36 36 -2 1 14 12 72 23 129 13 63
19 118 15 142 -3 22 -4 39 -1 39 15 0 63 -31 86 -57 39 -41 49 -66 49 -117 0
-36 -8 -56 -43 -108 -52 -75 -90 -103 -162 -118 -71 -15 -137 -4 -171 27 -28
26 -69 28 -69 3 0 -22 61 -58 122 -70 65 -14 150 -2 210 29 43 21 113 105 138
164 25 60 20 126 -15 180 -49 78 -141 126 -245 128 l-50 1 65 14 c36 7 130 14
210 15 80 1 179 5 220 9 41 4 1242 7 2668 8 2262 2 2592 0 2592 -13z m-8170
-910 l0 -305 -55 0 -55 0 0 305 0 305 55 0 55 0 0 -305z m7015 294 c-93 -5
-287 -15 -430 -24 -279 -16 -555 -28 -1085 -46 -404 -14 -1507 -17 -1713 -5
l-147 8 26 20 c38 30 16 45 -36 24 -51 -20 -50 -21 -50 9 l0 25 1803 -1 c1076
-1 1734 -5 1632 -10z m-3485 -108 c0 -17 -61 -61 -85 -61 -13 0 -31 10 -39 22
-29 41 -21 48 54 48 39 0 70 -4 70 -9z m1930 -481 c0 -7 -164 -9 -477 -8
l-478 3 340 5 c187 3 402 6 478 8 86 1 137 -2 137 -8z m-5460 -325 l0 -305
-55 0 -55 0 0 305 0 305 55 0 55 0 0 -305z m2630 290 c-7 -8 -10 -22 -6 -30 6
-17 41 -20 51 -5 3 6 15 10 26 10 13 0 19 -7 19 -22 -1 -53 -32 -163 -84 -296
-31 -79 -59 -161 -62 -182 -5 -30 -11 -40 -26 -40 -10 0 -21 -7 -24 -15 -5
-13 -155 -15 -1260 -15 l-1254 0 0 305 0 305 1316 0 c1164 0 1315 -2 1304 -15z
m720 -2 c-47 -31 -197 -188 -217 -228 -11 -22 -26 -64 -32 -93 -25 -119 -6
-194 60 -241 l34 -23 -40 6 c-90 14 -278 26 -407 26 -120 0 -138 2 -138 16 0
9 27 86 60 171 54 140 90 269 90 321 0 24 16 27 190 42 138 12 212 15 340 18
82 1 84 0 60 -15z m1520 10 c1 -5 5 -28 10 -53 5 -27 4 -67 -1 -100 -10 -56
-95 -306 -111 -326 -19 -25 22 -84 60 -84 13 0 51 14 85 32 121 65 157 176 63
194 -46 8 -74 -2 -107 -39 l-28 -31 28 77 c51 135 64 218 48 300 l-8 37 275 0
276 0 -5 -27 c-18 -104 -37 -292 -42 -425 l-6 -158 -1091 1 c-600 1 -1068 5
-1041 9 106 15 192 85 182 147 l-6 33 52 -2 c41 -2 52 0 52 12 0 27 -94 36
-172 16 -75 -18 -93 -30 -75 -48 9 -9 20 -9 49 0 31 9 40 9 52 -3 40 -39 -64
-115 -159 -115 -40 0 -56 5 -81 28 -27 24 -33 37 -37 83 -6 83 20 170 72 238
87 113 260 237 243 174 -17 -60 -17 -92 -1 -107 14 -15 19 -15 38 -3 11 7 29
29 38 47 15 29 15 37 3 67 l-14 33 680 0 c373 0 679 -3 679 -7z m-1377 -68
c-7 -21 -13 -19 -13 6 0 11 4 18 10 14 5 -3 7 -12 3 -20z m1493 -320 c10 -24
-42 -83 -96 -110 -46 -23 -80 -32 -80 -20 0 8 90 118 108 133 22 17 61 15 68
-3z m-4986 -530 l0 -305 -55 0 -55 0 0 305 0 305 55 0 55 0 0 -305z m5410 244
l0 -61 -77 7 c-43 3 -150 15 -238 25 -300 36 -680 71 -850 79 -122 6 17 8 498
9 l667 2 0 -61z m-5410 -864 l0 -305 -55 0 -55 0 0 305 0 305 55 0 55 0 0
-305z m0 -620 l0 -305 -55 0 -55 0 0 305 0 305 55 0 55 0 0 -305z m0 -620 l0
-305 -55 0 -55 0 0 305 0 305 55 0 55 0 0 -305z m0 -620 l0 -305 -55 0 -55 0
0 305 0 305 55 0 55 0 0 -305z"/>
<path d="M2977 14986 c-46 -17 -62 -30 -98 -79 l-28 -38 6 54 c4 36 2 57 -6
61 -21 13 -41 -15 -39 -53 2 -49 -29 -244 -51 -324 -19 -66 -16 -92 11 -82 15
6 29 45 44 124 l6 34 17 -48 c19 -58 54 -83 121 -87 35 -2 45 0 45 12 0 10
-18 19 -50 27 -60 15 -85 42 -85 93 0 45 24 78 88 122 78 53 152 128 152 154
0 43 -59 56 -133 30z m77 -48 c-38 -44 -194 -165 -194 -151 0 5 15 35 33 68
37 65 94 105 150 105 l30 0 -19 -22z"/>
<path d="M3986 14824 c-11 -28 -7 -35 17 -32 29 4 38 48 9 48 -11 0 -23 -7
-26 -16z"/>
<path d="M4108 14755 c-27 -15 -47 -43 -93 -132 -15 -29 -31 -53 -36 -53 -5 0
-9 -7 -9 -15 0 -10 10 -15 29 -15 30 0 45 13 46 40 0 28 55 120 82 137 25 17
26 17 41 -5 15 -23 52 -30 52 -10 0 18 -51 68 -69 68 -9 -1 -28 -7 -43 -15z"/>
<path d="M3152 14735 c-24 -30 -45 -102 -40 -140 2 -23 11 -32 40 -43 56 -22
138 -1 125 31 -5 13 -12 14 -40 5 -19 -6 -48 -7 -63 -3 l-29 7 30 15 c75 38
92 79 54 127 -26 33 -52 33 -77 1z m52 -32 c4 -10 -1 -24 -13 -37 -26 -26 -34
-17 -20 22 12 36 24 41 33 15z"/>
<path d="M3635 14703 c-3 -10 -10 -37 -14 -60 -9 -48 3 -66 52 -78 25 -7 35
-1 88 54 56 58 69 83 51 95 -5 3 -24 -11 -43 -30 -70 -73 -83 -84 -93 -81 -12
4 -13 49 -2 90 7 23 5 27 -12 27 -11 0 -23 -8 -27 -17z"/>
<path d="M3900 14655 c0 -41 4 -57 16 -62 25 -9 32 8 25 62 -4 36 -11 51 -23
53 -15 3 -18 -5 -18 -53z"/>
<path d="M6932 14743 c2 -10 14 -19 26 -21 19 -3 23 1 20 15 -2 10 -14 19 -26
21 -19 3 -23 -1 -20 -15z"/>
<path d="M6512 13673 c-46 -26 -102 -82 -102 -103 0 -24 18 -37 86 -60 69 -24
104 -45 104 -64 0 -30 -141 -61 -177 -38 -6 4 -11 16 -10 27 2 24 -31 33 -39
11 -3 -9 -4 -27 0 -39 17 -71 212 -58 261 17 16 24 16 28 0 52 -16 25 -105 74
-136 74 -8 0 -23 6 -34 13 -17 13 -15 16 30 50 33 26 58 37 81 37 19 0 34 -4
34 -10 0 -13 27 -13 35 0 3 5 1 19 -5 30 -14 26 -82 27 -128 3z"/>
<path d="M6860 13649 c-71 -42 -75 -67 -24 -138 58 -82 64 -151 11 -151 -23 0
-69 39 -66 56 4 25 -3 35 -23 32 -41 -5 -35 -44 12 -89 37 -35 47 -40 83 -37
37 3 44 7 60 40 23 47 12 96 -39 162 -20 26 -33 53 -30 61 3 8 20 21 37 31 26
13 36 14 52 4 26 -16 43 1 28 29 -15 27 -55 27 -101 0z"/>
<path d="M7126 13621 c-4 -5 -3 -16 0 -25 7 -18 -23 -125 -41 -146 -14 -17
-19 -118 -6 -139 5 -8 16 -11 25 -8 11 5 14 14 10 36 -4 17 -3 42 0 56 6 24
10 26 59 23 l52 -3 -4 -40 c-7 -80 -6 -90 8 -90 17 0 47 96 62 200 6 44 16 85
20 91 13 16 -18 41 -32 27 -6 -6 -15 -42 -21 -80 l-11 -70 -51 5 c-28 2 -52 5
-53 6 -1 1 5 27 14 58 17 60 12 108 -12 108 -7 0 -16 -4 -19 -9z"/>
<path d="M6243 12493 c-18 -2 -33 -8 -33 -12 0 -5 -9 -11 -20 -14 -17 -4 -20
-14 -20 -61 0 -44 -3 -56 -15 -56 -22 0 -31 -31 -13 -44 14 -10 13 -20 -8 -91
-29 -98 -30 -118 -6 -113 12 2 24 27 41 91 23 80 27 88 45 82 49 -16 95 -16
129 0 49 23 87 81 87 131 0 50 -19 69 -80 83 -46 11 -50 11 -107 4z m133 -50
c8 -3 14 -20 14 -40 0 -46 -54 -103 -98 -103 -46 0 -94 20 -88 37 3 8 6 32 6
54 0 35 4 42 33 54 30 14 95 13 133 -2z"/>
<path d="M5925 12465 c-38 -13 -93 -24 -121 -24 -55 -1 -65 -6 -57 -27 3 -9
21 -14 53 -14 l48 0 -4 -37 c-3 -20 -14 -64 -25 -97 -11 -34 -23 -85 -26 -115
-5 -48 -4 -53 12 -49 14 2 22 19 31 68 19 97 69 241 86 251 9 5 40 15 70 23
32 8 53 19 53 27 0 22 -44 20 -120 -6z"/>
<path d="M8650 12476 c0 -7 7 -19 15 -26 19 -16 41 1 32 24 -8 20 -47 21 -47
2z"/>
<path d="M8041 12433 c-5 -21 -12 -54 -16 -73 -4 -19 -18 -60 -32 -91 -24 -55
-25 -56 -65 -55 -48 1 -62 -19 -24 -34 33 -12 33 -18 -5 -59 -32 -36 -32 -61
0 -61 13 0 26 12 36 33 25 51 49 74 83 79 27 4 32 1 36 -21 3 -14 5 -35 3 -46
-1 -11 5 -21 14 -23 19 -4 33 39 23 70 -4 15 0 26 16 38 22 17 21 40 -3 40 -9
0 -11 22 -9 77 5 109 -4 163 -28 163 -14 0 -22 -11 -29 -37z m9 -203 c-6 -11
-17 -20 -26 -20 -12 0 -11 7 6 40 11 21 21 47 22 57 1 10 3 1 5 -19 2 -20 -1
-46 -7 -58z"/>
<path d="M5057 12449 c-9 -6 -15 -14 -13 -18 8 -13 -12 -143 -40 -258 -20 -82
-25 -116 -17 -124 14 -14 33 -3 33 20 0 9 7 40 15 68 14 47 18 52 74 77 56 25
81 32 81 21 0 -3 -9 -32 -21 -65 -24 -71 -22 -105 6 -105 14 0 19 6 18 20 -1
11 6 47 17 80 25 76 70 253 70 272 0 9 -8 13 -22 11 -16 -2 -23 -10 -25 -28
-1 -14 -7 -50 -15 -80 -13 -51 -15 -55 -51 -62 -21 -4 -51 -15 -67 -23 -38
-19 -43 -19 -35 4 3 10 10 47 15 82 5 35 12 76 16 92 7 29 -6 35 -39 16z"/>
<path d="M5655 12433 c-27 -7 -93 -15 -145 -18 -52 -2 -98 -4 -102 -4 -5 -1
-8 -7 -8 -15 0 -17 31 -26 88 -26 41 0 42 -1 36 -27 -3 -16 -21 -72 -40 -126
-39 -112 -41 -130 -17 -125 19 3 72 137 94 233 l11 51 67 12 c72 14 101 32 79
48 -9 7 -30 6 -63 -3z"/>
<path d="M7218 12444 c-19 -19 -7 -34 28 -34 71 0 94 -36 94 -146 0 -94 -22
-139 -81 -170 -29 -14 -62 -23 -81 -22 -27 3 -33 -1 -33 -17 0 -47 135 -16
188 43 29 32 46 91 47 162 0 123 -32 178 -112 187 -24 3 -46 1 -50 -3z"/>
<path d="M8944 12403 c-3 -10 -13 -34 -21 -55 -8 -20 -12 -41 -9 -47 13 -21
32 -11 45 24 7 20 22 44 33 55 11 10 17 23 13 29 -10 18 -55 13 -61 -6z"/>
<path d="M7037 12345 c-43 -15 -40 -13 -56 -42 -16 -30 -5 -51 40 -74 32 -16
39 -25 39 -48 0 -31 -14 -41 -61 -41 -37 0 -82 41 -72 65 8 21 -17 38 -34 23
-17 -14 -16 -32 2 -68 19 -37 63 -60 114 -60 102 0 129 115 39 161 -39 20 -41
22 -23 35 25 19 52 18 63 -2 10 -17 43 -16 49 2 4 11 -41 64 -54 64 -4 -1 -25
-7 -46 -15z"/>
<path d="M8574 12319 c-3 -6 -4 -13 -1 -16 3 -2 -5 -34 -19 -69 -27 -74 -30
-106 -10 -123 23 -20 79 -24 100 -8 28 21 11 39 -29 31 -20 -3 -35 -1 -40 5
-3 6 3 41 15 76 18 54 26 66 48 71 39 10 44 14 32 29 -12 15 -87 18 -96 4z"/>
<path d="M5361 11262 c-6 -10 -7 -28 -4 -40 9 -35 -26 -171 -68 -265 -21 -48
-39 -92 -39 -98 0 -7 10 -9 24 -7 18 4 22 1 19 -12 -2 -8 5 -24 16 -34 27 -24
101 -17 176 18 106 48 110 104 11 170 -67 45 -69 36 27 103 52 36 81 84 73
118 -4 15 -22 29 -55 44 -62 26 -81 26 -115 0 l-26 -20 0 20 c0 26 -26 28 -39
3z m159 -38 c22 -9 40 -22 40 -28 0 -27 -128 -126 -162 -126 -22 0 -22 4 -2
66 20 59 50 104 69 104 8 0 33 -7 55 -16z m-70 -246 c74 -48 86 -63 69 -84
-21 -26 -87 -55 -140 -61 -53 -6 -61 3 -30 31 23 21 17 49 -9 41 -17 -6 -17
-2 2 59 24 73 21 72 108 14z"/>
<path d="M6306 11258 c-3 -7 -7 -32 -9 -55 -3 -24 -26 -89 -52 -145 -66 -145
-69 -153 -62 -172 9 -24 38 -8 110 63 l58 56 -21 -54 c-12 -32 -19 -65 -15
-78 6 -24 49 -48 66 -37 14 8 10 34 -5 34 -27 0 -27 20 -1 86 48 119 18 146
-69 64 l-55 -52 44 104 c48 111 61 198 30 198 -9 0 -17 -6 -19 -12z"/>
<path d="M7595 11070 c-8 -14 3 -30 21 -30 8 0 14 9 14 20 0 21 -24 28 -35 10z"/>
<path d="M6004 11060 c-16 -5 -40 -20 -53 -34 -21 -22 -22 -26 -8 -53 8 -15
24 -37 36 -47 28 -25 27 -40 -5 -61 -19 -12 -29 -14 -39 -5 -19 16 -35 4 -35
-25 0 -31 25 -38 66 -19 34 16 84 67 84 85 0 5 -16 27 -36 49 -43 48 -37 62
32 79 28 7 44 16 41 24 -5 15 -43 18 -83 7z"/>
<path d="M5704 11018 c-77 -71 -96 -133 -50 -163 19 -13 32 -14 59 -7 31 9 38
7 57 -13 22 -24 50 -24 50 0 0 7 -7 15 -15 19 -22 8 -19 21 15 68 37 50 37 65
5 80 -14 6 -25 16 -24 22 6 52 -38 49 -97 -6z m70 -27 c16 -18 16 -22 2 -50
-18 -33 -38 -47 -76 -52 -16 -3 -26 1 -28 12 -3 16 63 109 77 109 4 0 16 -9
25 -19z"/>
<path d="M7335 11049 c-4 -5 -4 -21 -1 -34 4 -16 -5 -54 -25 -105 -33 -87 -34
-115 -4 -115 14 0 20 7 21 25 1 14 11 50 23 80 26 62 34 129 19 148 -13 15
-25 15 -33 1z"/>
<path d="M6982 11014 c-59 -29 -102 -83 -102 -126 0 -35 35 -59 93 -65 52 -6
151 13 167 32 19 23 -7 28 -75 14 -73 -14 -138 -4 -143 22 -5 25 43 75 90 94
23 9 60 15 82 13 35 -3 41 0 41 17 0 17 -8 20 -50 23 -38 2 -63 -4 -103 -24z"/>
<path d="M8370 11033 c-28 -10 -50 -36 -50 -57 0 -12 13 -38 30 -58 l30 -36
-32 -15 c-23 -11 -36 -13 -45 -6 -16 14 -33 3 -33 -21 0 -40 60 -36 118 7 40
30 40 43 0 89 -31 35 -31 37 -13 50 10 8 31 14 46 14 25 0 45 21 32 34 -8 7
-62 7 -83 -1z"/>
<path d="M8530 10954 c-90 -77 -74 -181 22 -141 24 10 39 12 46 5 15 -15 29
-2 35 34 3 18 8 48 11 65 10 64 -56 85 -114 37z m80 -20 c0 -29 -82 -106 -97
-91 -9 10 9 50 35 74 23 21 62 32 62 17z"/>
<path d="M6541 8842 c-48 -33 -81 -77 -81 -109 0 -14 29 -53 76 -103 73 -78
111 -140 99 -161 -12 -18 -84 -49 -115 -49 -46 0 -115 67 -115 112 0 39 -29
52 -40 18 -10 -32 2 -65 37 -105 39 -45 77 -65 123 -65 36 0 105 29 138 58 39
34 8 108 -92 214 -83 89 -84 101 -19 149 45 32 69 35 143 15 34 -9 54 -10 62
-4 19 16 7 25 -51 42 -79 23 -117 20 -165 -12z"/>
<path d="M6890 8863 c-12 -3 -16 -19 -17 -71 -1 -37 -10 -101 -20 -142 -18
-73 -19 -75 -56 -83 -27 -7 -37 -14 -37 -29 0 -17 5 -19 30 -13 l29 6 3 -93
c2 -75 6 -93 18 -93 12 0 16 19 20 95 l5 95 63 3 c53 3 63 6 60 20 -2 13 -16
18 -56 20 -28 2 -52 8 -52 14 0 5 7 36 15 68 8 33 17 84 19 114 2 30 7 59 10
64 8 13 -15 29 -34 25z"/>
<path d="M5452 8738 c-7 -35 -17 -80 -23 -102 -9 -34 -13 -37 -37 -33 -35 7
-52 -1 -52 -24 0 -15 7 -19 36 -19 32 0 36 -2 31 -22 -15 -63 -19 -149 -7
-163 17 -21 30 -9 30 27 0 17 5 60 11 94 11 62 11 63 48 69 47 8 116 47 116
65 0 19 -18 17 -82 -11 -29 -13 -55 -21 -57 -18 -3 2 6 46 20 98 13 51 24 95
24 97 0 2 -10 4 -23 4 -21 0 -25 -7 -35 -62z"/>
<path d="M5741 8561 c-12 -16 -21 -35 -21 -43 0 -7 -10 -1 -21 15 -30 39 -60
35 -103 -15 -44 -51 -47 -84 -8 -99 15 -6 45 -9 67 -7 34 4 44 0 68 -25 23
-24 30 -27 42 -17 14 12 13 15 -5 35 -26 27 -25 41 5 90 45 73 23 132 -24 66z
m-42 -66 c21 12 11 -14 -11 -29 -26 -19 -78 -21 -78 -4 0 6 10 22 22 35 20 21
23 22 39 7 10 -9 23 -13 28 -9z"/>
<path d="M5112 8553 c-55 -27 -109 -145 -81 -179 18 -21 74 -12 105 17 l24 22
0 -24 c0 -31 14 -53 31 -47 8 3 13 28 15 74 1 38 4 85 6 104 2 30 0 35 -17 33
-10 -1 -26 2 -35 7 -10 5 -28 3 -48 -7z m50 -59 c-5 -29 -65 -94 -87 -94 -10
0 -12 7 -5 30 16 56 44 90 75 90 19 0 21 -4 17 -26z"/>
<path d="M8970 8559 c-69 -28 -77 -70 -23 -129 26 -30 33 -44 25 -52 -15 -15
-42 -2 -42 21 0 26 -15 34 -30 16 -18 -21 1 -68 32 -79 34 -12 98 18 98 47 0
11 -18 37 -41 58 -45 41 -46 57 -6 77 22 11 30 10 52 -4 23 -15 25 -15 32 1 4
12 -1 24 -16 37 -26 20 -44 22 -81 7z"/>
<path d="M7030 8532 c-30 -31 -46 -93 -35 -142 8 -34 17 -43 39 -34 18 7 22
34 5 34 -14 0 -5 80 12 112 9 17 17 19 49 14 45 -7 63 10 35 31 -31 22 -74 16
-105 -15z"/>
<path d="M7246 8511 c-18 -42 -95 -113 -140 -131 -15 -5 -26 -16 -24 -23 8
-21 43 -19 80 7 34 23 36 23 41 5 9 -36 74 -14 119 40 l25 29 -4 -42 c-4 -30
-1 -45 10 -55 9 -7 20 -11 24 -8 6 4 9 123 4 160 -3 19 -31 3 -76 -43 -27 -27
-53 -50 -57 -50 -5 0 6 27 23 61 16 34 28 67 25 75 -10 26 -32 14 -50 -25z"/>
<path d="M8080 8496 c-16 -29 -30 -58 -30 -63 0 -17 -66 -73 -86 -73 -29 0
-64 -28 -58 -45 9 -23 57 -18 98 10 36 25 36 25 56 5 11 -11 25 -20 30 -20 22
0 68 30 98 64 l31 36 -6 -51 c-5 -46 -4 -51 12 -48 14 3 22 20 31 64 31 148 7
172 -65 66 -37 -54 -91 -97 -105 -84 -13 13 -5 45 24 103 34 68 36 76 15 83
-9 4 -24 -11 -45 -47z"/>
<path d="M8409 8525 c-29 -16 -41 -64 -29 -120 10 -52 33 -36 45 30 l10 60 52
0 c59 0 76 11 49 31 -25 18 -93 17 -127 -1z"/>
<path d="M8650 8514 c-46 -39 -89 -134 -72 -160 11 -17 48 -34 74 -34 35 0
148 57 148 75 0 22 -23 19 -80 -10 -52 -26 -76 -30 -98 -16 -17 10 -13 14 68
68 72 47 75 54 44 81 -32 28 -46 28 -84 -4z m50 -17 c0 -2 -10 -12 -22 -23
l-23 -19 19 23 c18 21 26 27 26 19z"/>
<path d="M7476 8509 c-38 -30 -59 -75 -51 -110 9 -42 45 -62 110 -61 60 0 75
6 75 27 0 11 -14 14 -59 13 -91 -2 -113 25 -64 82 23 28 31 32 65 27 43 -6 60
9 33 30 -28 19 -79 16 -109 -8z"/>
<path d="M5496 8180 c-34 -31 -49 -58 -146 -265 -52 -113 -81 -151 -121 -160
-32 -7 -48 -30 -32 -46 31 -31 122 43 163 131 l23 50 63 0 62 0 -9 -37 c-14
-63 -12 -95 8 -91 12 2 20 17 25 48 15 88 15 89 55 92 27 2 39 8 41 21 3 14
-4 17 -34 17 l-37 0 9 73 c4 39 8 99 9 132 0 54 -2 60 -22 63 -13 2 -35 -9
-57 -28z m31 -150 l-13 -95 -52 -3 c-30 -2 -52 1 -52 7 0 23 73 168 98 194 35
37 37 25 19 -103z"/>
<path d="M9593 8162 c-6 -4 -15 -30 -18 -58 -6 -39 -4 -53 9 -63 24 -20 50 3
33 29 -9 16 -7 25 11 49 22 30 22 30 3 41 -23 12 -23 12 -38 2z"/>
<path d="M6923 8139 c-7 -7 -9 -24 -6 -40 3 -17 -12 -95 -38 -198 -32 -127
-40 -174 -32 -182 8 -8 17 -4 35 17 91 109 101 112 76 20 -9 -36 -9 -48 2 -61
26 -31 41 10 44 120 1 46 -1 50 -23 53 -13 2 -36 -5 -51 -17 l-28 -20 8 32 c4
18 17 67 29 110 31 110 22 204 -16 166z"/>
<path d="M5723 8093 c0 -27 -15 -93 -33 -148 -37 -113 -46 -220 -20 -220 11 0
17 15 21 55 3 30 20 98 37 151 17 53 32 121 34 150 3 48 1 54 -18 57 -18 3
-20 -3 -21 -45z"/>
<path d="M6785 8118 c-2 -7 -6 -49 -8 -93 -3 -46 -14 -104 -27 -137 l-21 -57
-67 -3 c-52 -2 -67 -6 -67 -18 0 -11 14 -16 58 -18 51 -3 58 -5 51 -20 -4 -9
-9 -32 -12 -50 -4 -28 -1 -33 13 -30 11 2 23 20 32 50 11 39 18 47 41 50 32 4
45 38 14 38 -19 0 -19 1 0 56 23 68 38 220 24 234 -14 14 -26 13 -31 -2z"/>
<path d="M6505 7980 c-9 -15 4 -30 26 -30 12 0 19 7 19 20 0 21 -33 29 -45 10z"/>
<path d="M7691 7958 c-40 -11 -116 -61 -130 -85 -11 -21 6 -57 43 -92 30 -28
25 -44 -10 -35 -23 6 -25 4 -22 -17 4 -32 45 -37 81 -9 15 12 27 26 27 31 0 5
-19 30 -42 55 l-43 46 35 29 c22 19 46 29 67 29 21 0 36 6 42 19 15 28 -6 40
-48 29z"/>
<path d="M7190 7901 c-18 -14 -29 -17 -42 -10 -26 14 -36 4 -36 -33 0 -18 -10
-55 -22 -82 -11 -27 -19 -55 -16 -63 10 -26 34 -12 50 30 17 45 84 132 94 122
3 -3 -5 -27 -18 -54 -22 -49 -22 -81 1 -81 7 0 41 30 76 68 34 37 63 62 63 55
0 -7 -5 -35 -11 -63 -12 -56 -2 -80 32 -80 24 0 36 22 18 33 -12 8 -13 20 -5
69 16 95 -15 122 -77 68 l-36 -31 -3 33 c-4 40 -31 48 -68 19z"/>
<path d="M6058 7880 c-26 -16 -58 -74 -58 -107 0 -38 27 -63 68 -63 40 0 112
65 112 102 0 28 -28 58 -53 58 -9 0 -19 5 -22 10 -8 12 -25 12 -47 0z m82 -68
c0 -17 -57 -62 -78 -62 -42 0 -22 73 23 82 22 5 55 -8 55 -20z"/>
<path d="M6280 7861 c-16 -4 -41 -30 -68 -70 -44 -66 -52 -106 -19 -106 13 0
27 19 47 65 26 59 31 65 62 68 45 5 58 19 34 38 -11 8 -22 14 -25 13 -3 -1
-17 -4 -31 -8z"/>
<path d="M6417 7793 c-4 -3 -7 -15 -7 -25 0 -10 -6 -27 -12 -38 -15 -23 0 -44
24 -35 18 7 28 35 28 78 0 25 -17 36 -33 20z"/>
<path d="M9205 6968 c-2 -7 -18 -65 -36 -128 -28 -104 -74 -238 -83 -248 -3
-2 -13 1 -25 7 -27 15 -62 -2 -84 -39 -20 -33 -22 -81 -5 -98 27 -27 86 -6
113 41 10 18 22 34 25 37 15 11 130 382 130 419 0 23 -28 30 -35 9z m-145
-423 c0 -17 -35 -55 -50 -55 -13 0 -13 26 0 51 13 22 50 26 50 4z"/>
<path d="M4830 6910 c-100 -13 -171 -65 -220 -159 -57 -112 -45 -192 33 -230
100 -49 272 -62 272 -21 0 11 -15 15 -60 16 -108 1 -214 35 -235 74 -25 47 22
162 93 227 53 49 102 60 226 51 42 -4 53 18 16 32 -42 16 -67 18 -125 10z"/>
<path d="M5166 6908 c-2 -7 -9 -47 -15 -88 -6 -41 -23 -121 -37 -178 -38 -149
-25 -166 62 -77 l54 56 0 -60 c0 -51 3 -62 21 -72 27 -14 48 3 31 24 -6 7 -12
46 -14 87 -4 94 -17 99 -82 33 -37 -38 -45 -43 -38 -23 5 14 20 79 32 145 13
66 27 125 32 132 5 7 7 17 3 23 -9 14 -45 13 -49 -2z"/>
<path d="M8145 6903 c-11 -3 -58 -16 -105 -29 -92 -26 -114 -29 -105 -14 3 6
-1 13 -11 17 -21 8 -53 -32 -54 -67 0 -14 -12 -61 -26 -105 -27 -87 -41 -212
-26 -234 12 -17 44 -7 36 12 -4 11 5 13 47 9 37 -3 73 2 128 18 82 26 104 37
95 51 -8 14 -40 11 -101 -11 -65 -23 -131 -26 -156 -7 -15 10 -16 19 -6 67
l11 55 81 3 c118 4 201 23 205 46 4 17 -1 18 -44 12 -115 -16 -217 -26 -222
-21 -3 3 1 26 9 52 13 43 19 49 49 54 19 4 79 18 134 33 54 14 117 26 140 26
47 0 57 5 49 26 -5 14 -81 18 -128 7z"/>
<path d="M7001 6725 c-30 -26 -101 -157 -101 -188 0 -10 8 -17 18 -17 17 0 25
14 61 105 13 32 61 85 77 85 8 0 23 -9 34 -20 23 -23 40 -19 40 9 0 19 -53 51
-83 51 -9 0 -29 -11 -46 -25z"/>
<path d="M6728 6715 c-14 -8 -36 -32 -49 -52 -12 -21 -29 -43 -37 -50 -12 -10
-12 -17 4 -51 21 -49 47 -64 100 -60 57 4 53 31 -6 38 -32 4 -46 10 -48 23 -2
9 1 17 7 17 24 0 103 44 117 65 18 28 9 52 -27 70 -33 18 -28 18 -61 0z m52
-44 c0 -12 -21 -28 -53 -40 -30 -12 -30 -4 1 32 16 18 52 24 52 8z"/>
<path d="M9398 6723 c-24 -6 -23 -30 3 -44 25 -13 43 0 37 27 -3 19 -14 24
-40 17z"/>
<path d="M10153 6689 c-25 -12 -43 -28 -43 -38 0 -9 23 -39 50 -66 28 -27 50
-54 50 -61 0 -6 -9 -19 -19 -29 -19 -16 -21 -16 -49 4 -23 16 -28 26 -24 46 6
32 -25 35 -37 3 -12 -32 -3 -56 32 -80 39 -28 81 -27 112 2 40 38 34 74 -23
131 l-48 48 29 11 c42 14 58 13 73 -7 17 -23 37 -5 32 28 -3 21 -9 24 -48 27
-30 2 -59 -4 -87 -19z"/>
<path d="M5645 6668 c-15 -18 -37 -52 -48 -75 -19 -40 -20 -44 -5 -59 24 -25
45 -11 58 38 20 72 29 88 49 88 15 0 21 -8 23 -32 2 -22 9 -34 21 -36 14 -3
17 4 17 33 0 54 -15 75 -54 75 -26 0 -41 -8 -61 -32z"/>
<path d="M5419 6638 c-77 -84 -89 -138 -32 -138 16 0 45 9 66 20 32 17 37 18
37 4 0 -9 7 -14 17 -12 12 2 22 20 29 53 17 72 16 82 -8 105 -34 31 -57 24
-109 -32z m81 -18 c-11 -20 -80 -80 -92 -80 -16 0 -7 19 32 63 25 28 46 44 55
41 11 -5 12 -11 5 -24z"/>
<path d="M5843 6645 c-33 -23 -65 -81 -61 -112 4 -38 39 -42 89 -9 25 17 39
22 39 13 0 -23 30 -56 45 -51 17 7 21 34 5 34 -6 0 -10 26 -10 59 0 33 -3 62
-8 65 -24 15 -79 16 -99 1z m47 -38 c0 -13 -32 -46 -57 -61 -21 -12 -14 11 13
43 27 33 44 40 44 18z"/>
<path d="M6088 6633 c-26 -30 -48 -81 -48 -112 0 -33 30 -61 65 -61 33 1 105
38 105 55 0 19 -27 19 -60 0 -37 -21 -70 -19 -70 5 0 39 32 90 57 90 16 0 23
6 23 20 0 26 -50 28 -72 3z"/>
<path d="M8214 6607 c5 -24 0 -51 -14 -86 -25 -64 -25 -71 -1 -71 11 0 39 22
63 50 l43 50 5 -47 c4 -38 9 -48 23 -48 16 0 19 9 20 80 1 95 -11 104 -64 52
l-34 -33 0 40 c0 36 -3 41 -24 44 -22 3 -23 1 -17 -31z"/>
<path d="M8756 6595 c-12 -13 -31 -43 -41 -66 -24 -53 -13 -73 44 -77 34 -3
46 2 70 25 24 25 29 37 29 80 0 49 -2 51 -30 57 -45 9 -47 8 -72 -19z m64 -66
c0 -16 -33 -39 -56 -39 l-24 0 20 41 c21 39 22 40 41 23 10 -9 19 -21 19 -25z"/>
<path d="M9308 6614 c-3 -3 -4 -22 -1 -43 3 -23 1 -41 -6 -45 -16 -10 -14 -56
3 -56 15 0 46 52 46 77 0 7 6 22 13 33 10 17 9 22 -3 30 -17 11 -44 13 -52 4z"/>
<path d="M7848 5705 c-3 -4 -4 -50 -1 -103 3 -67 1 -109 -9 -137 -12 -37 -16
-40 -58 -45 -58 -6 -63 -33 -8 -38 l37 -3 -20 -57 c-19 -56 -19 -82 1 -82 11
0 20 18 54 111 15 42 20 47 71 63 30 9 55 21 55 27 0 16 -28 22 -59 11 l-29
-10 5 91 c6 121 -11 199 -39 172z"/>
<path d="M6825 5686 c-26 -19 -13 -51 14 -36 30 16 94 12 188 -12 91 -23 123
-43 123 -81 0 -44 -90 -104 -179 -121 l-34 -6 5 105 c4 80 2 105 -8 109 -22 8
-28 -14 -32 -116 l-4 -98 -29 0 c-40 0 -80 17 -112 48 -23 22 -29 24 -37 12
-22 -35 48 -87 130 -97 l52 -6 -6 -41 c-20 -133 -20 -136 1 -136 17 0 22 9 27
48 20 144 13 129 70 143 66 15 141 55 172 92 38 45 28 117 -19 147 -38 23
-189 60 -248 60 -31 0 -63 -6 -74 -14z"/>
<path d="M7540 5655 c0 -7 7 -18 15 -23 15 -8 12 -42 -20 -178 -4 -18 -15 -23
-64 -28 -37 -4 -61 -12 -65 -21 -8 -21 8 -26 61 -19 l48 6 0 -84 c0 -67 3 -83
15 -83 12 0 16 17 20 77 3 42 10 81 15 87 6 5 26 11 45 13 24 2 36 9 38 21 3
14 -4 17 -32 17 -20 0 -36 5 -36 11 0 6 7 52 17 102 15 86 15 91 -2 104 -25
17 -55 17 -55 -2z"/>
<path d="M5752 5568 c-20 -20 -14 -40 11 -36 14 2 23 11 25 26 4 24 -16 30
-36 10z"/>
<path d="M5188 5485 c-64 -43 -75 -143 -21 -185 28 -22 94 -27 138 -10 43 16
25 35 -30 32 -63 -4 -91 3 -97 26 -4 15 3 21 36 30 49 13 116 66 116 91 0 21
-39 41 -78 41 -15 0 -44 -11 -64 -25z m76 -35 c-21 -22 -84 -44 -84 -30 0 16
53 50 79 50 l25 0 -20 -20z"/>
<path d="M5500 5470 c-25 -25 -25 -26 5 -79 14 -23 25 -45 25 -47 0 -2 -18 -9
-41 -15 -36 -11 -42 -11 -51 4 -15 28 -40 21 -36 -10 4 -36 39 -49 95 -34 22
6 51 19 63 29 l23 19 -27 45 c-33 56 -33 66 1 70 17 2 29 10 31 21 5 25 -61
24 -88 -3z"/>
<path d="M8823 5471 c-69 -43 -72 -97 -8 -157 25 -23 45 -44 45 -48 0 -9 -52
-7 -67 2 -6 4 -17 20 -22 35 -7 19 -17 27 -28 25 -51 -10 5 -94 69 -105 44 -7
88 17 88 46 0 11 -20 38 -45 62 -50 47 -55 67 -25 94 15 14 34 18 79 16 36 -1
62 3 66 9 12 19 -7 29 -65 35 -45 5 -61 2 -87 -14z"/>
<path d="M6108 5449 c-10 -5 -18 -20 -18 -32 0 -12 -7 -44 -15 -72 -25 -80 1
-102 51 -42 l27 32 -7 -28 c-10 -43 8 -67 52 -67 42 0 79 21 68 39 -5 7 -21 9
-48 4 -35 -5 -40 -4 -35 10 3 8 9 33 13 54 4 21 10 45 15 54 6 11 4 21 -6 29
-12 10 -20 6 -45 -20 -26 -28 -30 -30 -30 -12 0 11 5 22 12 24 12 4 4 38 -9
38 -4 0 -16 -5 -25 -11z"/>
<path d="M8585 5442 c-16 -10 -47 -39 -68 -65 -20 -25 -47 -47 -59 -49 -18 -2
-24 -12 -30 -47 -4 -24 -5 -48 -2 -52 10 -16 31 -9 41 14 13 27 113 150 119
145 2 -2 -3 -26 -11 -53 -30 -98 -15 -139 47 -133 41 4 46 32 6 36 -36 4 -36
25 -3 122 19 55 22 76 14 87 -15 17 -18 17 -54 -5z"/>
<path d="M5718 5438 c-24 -20 -44 -104 -28 -123 15 -18 42 -2 34 19 -6 15 13
68 28 77 12 8 4 39 -10 39 -4 0 -15 -6 -24 -12z"/>
<path d="M8312 5416 c-29 -38 -65 -144 -58 -173 9 -32 40 -27 44 7 2 14 6 32
9 40 3 8 7 26 9 38 5 41 32 72 63 72 34 0 44 9 30 27 -19 22 -75 16 -97 -11z"/>
<path d="M8016 5409 c-15 -12 -38 -39 -52 -60 -52 -83 -17 -139 85 -139 61 0
106 20 81 35 -8 5 -35 7 -62 6 -58 -3 -88 5 -88 25 0 9 10 14 29 14 32 0 94
38 99 60 3 21 -35 80 -52 80 -7 0 -25 -10 -40 -21z m47 -43 c3 -8 -5 -18 -19
-25 -38 -17 -46 -13 -28 14 18 28 39 33 47 11z"/>
<path d="M7126 5394 c-14 -15 -30 -43 -36 -62 -19 -69 36 -106 93 -62 l25 20
7 -40 c7 -43 21 -58 37 -42 6 6 6 35 -3 87 -11 73 -14 78 -50 101 -21 13 -40
24 -42 24 -3 0 -16 -12 -31 -26z m54 -40 c11 -13 9 -19 -13 -42 -34 -34 -51
-20 -32 26 16 36 26 40 45 16z"/>
<path d="M6837 4522 c-10 -11 -23 -59 -33 -127 -9 -60 -29 -154 -46 -209 -29
-97 -31 -152 -5 -143 6 2 15 19 18 38 4 19 18 73 32 120 14 47 31 124 37 170
6 46 16 99 22 117 13 42 -1 60 -25 34z"/>
<path d="M6577 4474 c-3 -4 -4 -19 0 -34 3 -18 -6 -64 -25 -122 -46 -143 -53
-263 -13 -256 11 2 16 14 16 43 2 107 -3 100 78 115 39 7 83 17 96 22 21 8 23
11 10 23 -10 11 -24 12 -54 6 -22 -5 -57 -12 -77 -15 l-36 -7 25 83 c14 46 30
92 35 102 8 15 6 23 -8 33 -19 14 -37 17 -47 7z"/>
<path d="M6303 4424 c5 -28 -2 -65 -25 -140 l-32 -101 -49 -12 c-26 -6 -57
-11 -68 -11 -23 0 -37 -29 -19 -40 7 -4 36 -2 66 5 l53 12 -15 -30 c-22 -41
-24 -122 -4 -122 9 0 16 11 18 25 1 14 12 51 24 82 20 51 26 58 58 65 41 10
47 37 9 41 l-27 3 30 92 c33 102 31 158 -6 165 -17 4 -18 0 -13 -34z"/>
<path d="M6040 4254 c0 -18 27 -43 48 -44 7 0 12 12 12 30 0 27 -3 30 -30 30
-21 0 -30 -5 -30 -16z"/>
<path d="M7055 4177 c-3 -6 -9 -31 -14 -55 -12 -58 -33 -86 -77 -107 -51 -24
-70 -11 -67 44 1 23 9 56 17 73 18 36 14 48 -20 48 -19 0 -24 -5 -24 -24 0
-14 -5 -47 -12 -75 -14 -61 -1 -93 43 -111 38 -16 86 1 126 43 39 41 49 61 57
118 6 37 4 48 -9 53 -9 3 -18 0 -20 -7z"/>
<path d="M5990 4106 c-24 -64 -31 -108 -19 -122 18 -22 42 -18 36 7 -6 24 10
77 30 101 18 20 9 38 -18 38 -11 0 -23 -10 -29 -24z"/>
<path d="M4804 17483 c-27 -5 -119 -93 -126 -121 -4 -13 1 -31 11 -43 17 -21
16 -23 -30 -66 -48 -45 -89 -116 -89 -153 0 -12 11 -32 25 -46 21 -21 31 -24
58 -19 51 11 106 55 138 110 33 56 36 83 14 125 -14 28 -14 29 21 49 33 19 84
103 84 139 0 23 -52 36 -106 25z m54 -60 c-18 -42 -49 -73 -82 -82 -62 -16
-73 9 -26 54 17 16 30 23 30 17 0 -7 9 -12 20 -12 13 0 20 7 20 18 0 23 8 32
31 32 16 0 17 -3 7 -27z m-78 -200 c0 -27 -41 -93 -73 -117 -68 -52 -114 -30
-81 39 20 43 76 102 108 115 22 9 46 -10 46 -37z"/>
<path d="M6206 17462 c-2 -4 -10 -39 -17 -78 -13 -80 -49 -171 -91 -232 -30
-43 -34 -77 -9 -77 14 0 37 36 88 138 25 50 53 147 53 182 0 12 5 26 12 33 8
8 8 15 -2 27 -14 17 -26 19 -34 7z"/>
<path d="M3965 17431 c-69 -40 -169 -136 -161 -156 9 -24 21 -18 80 40 57 55
142 112 152 102 31 -31 -144 -254 -248 -316 -63 -38 -98 -101 -62 -115 22 -8
47 7 88 56 l36 42 0 -36 c0 -20 3 -43 6 -52 8 -21 53 -21 84 0 40 27 100 87
100 100 0 21 -22 28 -34 11 -17 -23 -96 -87 -108 -87 -7 0 -8 20 -3 58 5 45
14 66 43 100 98 115 142 187 142 232 0 23 -26 50 -48 50 -9 0 -39 -13 -67 -29z"/>
<path d="M6374 17440 c-41 -26 -69 -79 -60 -113 9 -36 54 -59 94 -48 l30 9
-35 -103 c-38 -111 -38 -149 -2 -160 28 -9 35 1 19 30 -11 21 -8 37 29 141 26
73 52 129 72 151 21 24 29 43 27 61 -3 31 -38 45 -38 16 0 -15 -5 -13 -28 9
-33 32 -66 34 -108 7z m80 -36 c15 -40 6 -62 -31 -77 -70 -28 -96 11 -44 64
32 32 65 38 75 13z"/>
<path d="M4547 17434 c-4 -4 -7 -23 -7 -43 0 -33 -14 -77 -80 -258 -24 -67
-22 -93 9 -93 16 0 20 6 20 33 -1 17 18 79 42 137 32 80 42 119 43 164 1 54
-10 77 -27 60z"/>
<path d="M5545 17402 c-27 -15 -56 -39 -65 -54 -14 -25 -13 -28 5 -42 26 -20
40 -15 40 15 0 17 11 29 40 46 49 28 55 28 55 5 0 -24 -90 -173 -110 -182
-112 -52 -190 -112 -190 -145 0 -24 26 -18 103 26 44 25 73 36 75 29 2 -6 14
-23 26 -36 19 -23 24 -24 51 -14 38 15 61 36 80 73 16 33 19 63 7 71 -13 8
-27 -7 -41 -42 -8 -18 -25 -42 -40 -53 l-26 -20 -13 29 c-13 27 -12 32 21 78
76 108 113 190 101 226 -8 27 -60 22 -119 -10z"/>
<path d="M12425 17322 c-49 -30 -153 -150 -171 -199 -23 -58 -12 -92 39 -116
82 -41 172 31 123 99 -11 14 -26 19 -65 19 -28 0 -51 3 -51 6 0 4 18 28 39 55
42 52 89 91 133 111 19 8 26 17 22 27 -8 21 -32 20 -69 -2z m-37 -254 c5 -26
-36 -42 -71 -29 -15 6 -27 17 -27 25 0 29 93 33 98 4z"/>
<path d="M11466 17291 c-15 -22 -26 -50 -26 -61 0 -11 -11 -50 -25 -87 -30
-79 -30 -118 0 -118 15 0 19 6 17 22 -2 13 16 71 38 130 23 60 43 117 44 127
2 35 -23 28 -48 -13z"/>
<path d="M12622 17107 c-12 -13 -22 -27 -22 -32 0 -5 -10 -19 -22 -32 -17 -18
-19 -26 -10 -35 9 -9 19 -5 43 18 44 42 62 79 45 93 -9 8 -18 5 -34 -12z"/>
<path d="M12841 16776 c-7 -8 -10 -20 -6 -26 3 -5 2 -10 -4 -10 -17 0 -61 -73
-61 -100 0 -14 7 -35 15 -47 14 -19 13 -21 -10 -27 -14 -4 -25 -13 -25 -21 0
-8 -6 -18 -12 -22 -23 -15 -40 -42 -48 -78 -7 -30 -4 -40 13 -61 20 -22 27
-24 66 -18 30 5 57 18 83 42 42 37 48 68 23 112 -21 37 -18 55 15 88 36 37 41
91 11 121 -11 11 -21 27 -23 37 -4 23 -22 28 -37 10z m27 -112 c7 4 12 1 12
-8 0 -9 -14 -23 -30 -31 -28 -14 -31 -14 -36 0 -4 9 -1 28 5 42 11 24 13 25
25 8 7 -10 18 -15 24 -11z m-34 -156 c9 -12 16 -30 16 -40 0 -21 -45 -53 -87
-63 -32 -6 -33 -5 -33 24 0 32 51 101 75 101 8 0 21 -10 29 -22z"/>
<path d="M11987 16698 c-63 -34 -82 -57 -72 -88 9 -27 24 -25 35 5 9 24 106
82 118 71 21 -22 -91 -161 -155 -193 -66 -33 -113 -71 -113 -94 0 -18 10 -23
39 -19 8 1 37 19 66 41 28 21 56 39 62 39 5 0 19 -13 31 -30 30 -40 70 -40
111 0 34 35 48 67 33 82 -14 14 -55 -9 -48 -27 6 -15 -24 -45 -46 -45 -8 0
-21 11 -28 25 -7 14 -18 25 -24 25 -5 0 4 15 21 33 44 45 93 127 93 153 0 64
-35 70 -123 22z"/>
<path d="M12646 16680 c-3 -22 -31 -92 -62 -155 -30 -64 -54 -123 -52 -132 4
-24 27 -28 34 -6 4 10 28 63 54 118 70 147 85 215 47 215 -9 0 -17 -15 -21
-40z"/>
<path d="M3890 16286 c-11 -30 -40 -221 -40 -265 0 -25 -4 -31 -21 -31 -54 0
-113 -65 -125 -136 -5 -35 -3 -45 15 -63 26 -26 45 -26 87 -1 45 28 71 89 78
185 10 125 36 278 51 301 16 24 11 34 -17 34 -10 0 -23 -11 -28 -24z m-50
-356 c0 -57 -66 -138 -92 -112 -16 16 0 68 32 102 33 35 60 39 60 10z"/>
<path d="M9254 16282 c-28 -18 -38 -64 -44 -207 -8 -161 -13 -184 -55 -233
-34 -40 -85 -46 -85 -9 1 27 68 103 104 116 34 14 35 41 1 41 -29 0 -118 -77
-141 -122 -39 -76 57 -130 132 -73 59 45 76 97 83 269 4 83 11 157 15 164 4 7
16 12 27 12 25 0 25 26 0 40 -23 12 -23 12 -37 2z"/>
<path d="M10126 16248 c-21 -110 -81 -335 -94 -351 -10 -13 0 -51 17 -61 5 -4
12 -2 16 4 4 6 27 8 59 4 68 -8 121 15 144 63 15 31 15 37 1 61 -25 46 -85 42
-144 -9 -19 -17 -35 -27 -35 -21 0 5 12 50 26 98 39 131 54 210 41 223 -17 17
-26 13 -31 -11z m111 -305 c3 -7 -7 -24 -21 -38 -19 -19 -35 -25 -68 -25 l-43
1 43 40 c42 40 80 49 89 22z"/>
<path d="M10926 16190 c-3 -22 -24 -93 -47 -158 -40 -117 -47 -181 -21 -190 7
-2 19 11 27 30 7 19 21 40 29 48 14 11 17 8 22 -19 11 -54 90 -101 151 -89 35
6 20 33 -22 39 -57 7 -82 24 -90 59 -10 43 -1 60 60 119 52 50 71 91 42 91 -7
0 -42 -30 -77 -66 -100 -101 -103 -100 -64 21 39 121 43 155 15 155 -14 0 -20
-10 -25 -40z"/>
<path d="M7315 16179 c-123 -33 -245 -51 -260 -39 -25 20 -38 1 -31 -46 8 -60
-9 -139 -44 -207 -32 -62 -38 -97 -16 -97 12 0 86 136 86 159 0 4 30 11 68 14
84 7 142 24 142 42 0 21 -20 23 -75 9 -27 -8 -66 -14 -87 -14 l-36 0 5 43 c3
23 7 43 8 45 1 1 29 7 61 12 33 5 112 22 177 37 89 21 117 32 115 43 -4 21
-33 21 -113 -1z"/>
<path d="M7999 16108 c-24 -67 -29 -73 -52 -70 -17 2 -29 -4 -36 -16 -12 -22
-5 -32 20 -32 16 0 16 -3 2 -40 -20 -51 -9 -105 28 -132 23 -17 31 -18 67 -9
23 7 44 16 48 22 12 19 -11 29 -44 19 -18 -5 -39 -7 -47 -4 -23 9 -27 58 -9
103 13 33 21 41 43 41 64 0 101 12 101 33 0 18 -4 19 -50 13 -31 -4 -50 -3
-50 3 0 6 9 34 20 62 12 29 19 58 16 66 -12 30 -33 9 -57 -59z"/>
<path d="M5946 16153 c-8 -27 -9 -76 -2 -93 5 -13 -7 -15 -76 -17 -46 0 -119
-5 -163 -10 -73 -7 -80 -10 -83 -31 -3 -21 -1 -23 25 -18 15 3 79 10 141 17
92 9 118 9 138 -1 22 -12 23 -15 9 -30 -13 -15 -13 -20 1 -49 18 -37 51 -40
46 -4 -4 28 23 43 117 63 80 17 105 37 82 64 -7 8 -29 18 -50 22 -53 10 -107
40 -133 74 -25 34 -44 38 -52 13z"/>
<path d="M11956 16081 c-21 -22 -28 -42 -34 -91 l-7 -64 -43 -2 c-71 -4 -162
-80 -162 -136 0 -43 87 -62 154 -34 54 23 73 60 91 181 9 59 18 112 21 116 2
4 20 13 39 19 46 15 47 40 2 40 -24 0 -41 -8 -61 -29z m-58 -232 c-14 -42 -54
-69 -99 -69 -50 0 -55 11 -22 50 31 38 75 59 108 52 21 -4 22 -7 13 -33z"/>
<path d="M4081 15990 c-30 -71 -47 -158 -33 -172 14 -14 42 7 42 30 0 26 50
90 87 112 20 11 37 19 39 17 3 -2 -3 -21 -11 -42 -32 -76 1 -86 65 -20 24 25
48 45 52 45 4 0 8 -15 8 -33 0 -34 32 -77 44 -59 11 18 -11 115 -30 129 -24
18 -27 17 -55 -13 l-24 -25 -11 33 c-6 18 -17 34 -25 36 -8 1 -38 -13 -67 -32
-50 -34 -57 -32 -24 6 16 20 8 38 -17 38 -13 0 -26 -16 -40 -50z"/>
<path d="M3330 15984 c-37 -59 -41 -121 -9 -150 20 -18 21 -18 56 2 20 12 45
36 56 56 19 31 19 38 6 81 -7 26 -18 47 -24 47 -5 0 -20 3 -32 6 -18 5 -27 -2
-53 -42z m72 -29 c12 -28 -6 -66 -42 -85 -18 -10 -20 -8 -20 20 0 34 25 90 40
90 6 0 15 -11 22 -25z"/>
<path d="M8678 16000 c-51 -27 -78 -65 -78 -111 0 -45 35 -79 82 -79 45 0 130
40 126 59 -4 19 -18 18 -79 -5 -36 -14 -52 -16 -70 -7 -24 10 -24 10 11 25 48
20 100 66 100 87 0 19 -30 51 -46 51 -5 -1 -25 -10 -46 -20z m52 -29 c0 -9
-61 -51 -74 -51 -14 0 7 22 38 41 36 22 36 22 36 10z"/>
<path d="M10349 15990 c-37 -36 -35 -68 3 -90 22 -12 33 -12 58 -3 29 11 31
10 47 -24 17 -36 35 -49 52 -38 7 4 3 19 -9 43 -11 20 -20 49 -20 63 0 31 -50
79 -82 79 -11 0 -33 -13 -49 -30z m70 -24 c10 -12 8 -17 -8 -25 -22 -12 -51
-15 -51 -4 0 9 32 43 40 43 4 0 13 -6 19 -14z"/>
<path d="M3535 15996 c-45 -20 -76 -59 -82 -103 -7 -56 13 -71 67 -50 l39 15
-5 -26 c-9 -45 19 -67 79 -63 27 2 17 36 -11 37 -12 1 -25 4 -28 7 -7 7 14 84
32 119 13 25 13 29 -11 52 -29 29 -38 31 -80 12z m49 -35 c8 -12 -26 -53 -63
-74 -30 -18 -31 -18 -31 1 0 11 16 34 35 51 37 32 50 37 59 22z"/>
<path d="M11300 15984 c-25 -14 -49 -32 -53 -40 -4 -8 -16 -14 -25 -14 -23 0
-42 -19 -42 -43 0 -14 5 -18 19 -14 13 3 22 -3 29 -18 15 -33 74 -57 135 -53
38 2 52 7 52 18 0 11 -16 17 -62 21 -96 9 -122 40 -51 60 80 21 118 65 86 97
-18 18 -38 15 -88 -14z"/>
<path d="M10601 15975 c-35 -30 -43 -82 -15 -110 22 -22 139 -18 139 5 0 11
-14 16 -57 18 -54 3 -58 5 -58 28 0 19 8 28 36 40 19 8 34 20 31 27 -7 22 -44
18 -76 -8z"/>
<path d="M4505 15959 c-29 -26 -35 -38 -33 -63 2 -25 8 -32 30 -34 15 -2 38 4
52 13 23 16 25 15 28 -7 2 -15 10 -23 23 -23 15 0 20 7 22 30 0 17 3 43 6 58
3 20 -1 32 -17 42 -33 24 -72 18 -111 -16z m75 -13 c0 -3 -14 -14 -31 -26 -36
-27 -54 -17 -19 10 23 18 50 26 50 16z"/>
<path d="M7717 15965 c-19 -17 -35 -23 -50 -20 -19 5 -26 -2 -50 -50 -39 -81
-21 -102 34 -40 34 39 56 47 39 14 -15 -26 -6 -65 17 -73 23 -9 39 9 25 27
-10 11 -5 27 19 75 44 85 26 120 -34 67z"/>
<path d="M8867 15973 c-3 -5 -8 -24 -12 -43 -4 -19 -16 -50 -27 -68 -18 -29
-18 -33 -3 -38 11 -5 31 10 67 50 28 31 52 55 55 52 2 -2 -5 -23 -17 -45 -16
-32 -18 -46 -10 -61 12 -23 29 -26 34 -7 2 6 11 35 20 62 24 73 22 105 -7 105
-12 0 -33 -7 -45 -16 -20 -14 -22 -14 -22 0 0 16 -25 22 -33 9z"/>
<path d="M11561 15947 c-20 -21 -39 -33 -50 -30 -31 8 -74 -123 -44 -134 6 -2
26 18 44 44 63 95 114 132 64 48 -28 -48 -30 -90 -5 -90 8 0 16 9 19 20 2 11
14 39 28 62 16 27 23 54 21 75 -4 47 -34 48 -77 5z"/>
<path d="M7280 15942 c-50 -51 -61 -162 -16 -162 21 0 30 19 16 35 -9 11 -9
22 -1 47 17 47 40 68 77 68 36 0 54 17 33 31 -30 19 -80 10 -109 -19z"/>
<path d="M7443 15963 c-7 -3 -13 -11 -13 -18 0 -7 -16 -29 -35 -48 -57 -57
-40 -107 38 -107 51 0 117 47 117 84 0 35 -78 99 -107 89z m61 -76 c9 -15 6
-21 -14 -37 -24 -19 -90 -28 -90 -13 0 15 65 73 79 71 7 -2 19 -11 25 -21z"/>
<path d="M8280 15939 c0 -10 -3 -24 -6 -33 -9 -24 24 -32 40 -10 11 14 31 19
85 22 50 3 71 8 71 17 0 20 -25 25 -112 23 -67 -1 -78 -4 -78 -19z"/>
<path d="M9478 15925 c-13 -30 -4 -57 17 -49 8 3 15 12 15 18 0 10 26 12 105
8 91 -4 105 -2 111 12 4 9 5 18 3 20 -2 2 -57 6 -122 9 -117 6 -118 6 -129
-18z"/>
<path d="M9814 9965 c10 -39 -11 -102 -59 -180 -79 -130 -89 -161 -60 -185 18
-15 46 1 123 74 l53 50 -22 -57 c-25 -66 -20 -103 17 -117 33 -13 71 5 54 25
-6 8 -17 12 -25 9 -25 -10 -26 16 -4 82 16 49 20 71 12 83 -20 31 -43 23 -108
-40 -36 -34 -65 -57 -65 -51 0 7 24 51 54 99 79 127 99 233 45 233 -18 0 -20
-4 -15 -25z"/>
<path d="M6212 9837 c-47 -27 -97 -131 -85 -177 10 -39 37 -19 45 33 9 65 51
121 84 113 17 -5 26 -2 31 10 11 31 -34 43 -75 21z"/>
<path d="M5716 9789 c-78 -92 -51 -189 54 -189 19 0 41 4 49 9 23 15 2 31 -43
31 -70 0 -93 43 -28 54 20 3 50 16 67 30 27 22 29 26 20 62 -9 35 -13 39 -46
42 -32 3 -41 -2 -73 -39z m84 -13 c0 -18 -38 -46 -63 -46 -16 0 -16 3 5 30 23
31 58 41 58 16z"/>
<path d="M6444 9796 c-17 -8 -48 -29 -69 -47 -32 -28 -36 -30 -26 -10 9 17 10
26 2 34 -16 16 -34 -7 -59 -76 -41 -111 -21 -116 73 -18 65 67 125 105 125 78
0 -7 -18 -38 -40 -71 -22 -32 -40 -62 -40 -67 0 -11 34 -29 54 -29 9 0 16 9
16 20 0 11 -5 20 -10 20 -6 0 5 24 25 52 63 94 37 152 -51 114z"/>
<path d="M8392 9786 c-19 -6 -38 -20 -44 -29 -13 -23 -1 -73 28 -119 l24 -38
-24 0 c-14 0 -32 7 -40 16 -18 18 -36 11 -36 -15 0 -31 78 -53 124 -35 23 9
20 44 -7 84 -30 44 -41 86 -25 96 6 4 31 7 55 6 66 -1 72 30 8 41 -16 3 -45 0
-63 -7z"/>
<path d="M8663 9780 c-64 -39 -95 -148 -53 -190 18 -18 31 -20 88 -18 52 2 67
6 67 18 0 11 -16 16 -64 20 -68 5 -92 24 -44 34 40 9 123 63 123 80 0 28 -13
47 -41 61 -36 19 -38 19 -76 -5z m56 -61 c-13 -10 -36 -23 -51 -28 -39 -14
-37 9 3 43 25 22 34 24 51 15 21 -11 21 -11 -3 -30z"/>
<path d="M5941 9733 c-17 -21 -31 -48 -31 -60 0 -28 34 -47 71 -39 15 3 31 1
34 -4 14 -22 35 -9 35 20 0 17 7 42 16 55 20 31 11 59 -16 52 -11 -3 -23 -1
-26 4 -13 21 -54 8 -83 -28z m68 -17 c9 -10 6 -17 -13 -30 -25 -16 -46 -21
-46 -11 0 11 32 55 40 55 4 0 13 -6 19 -14z"/>
<path d="M7416 9717 c-58 -55 -69 -83 -41 -111 37 -37 112 -31 145 11 24 31
25 40 4 104 -21 64 -37 63 -108 -4z m76 -33 c11 -23 10 -29 -12 -46 -25 -21
-71 -21 -78 0 -4 13 53 72 69 72 5 0 15 -12 21 -26z"/>
<path d="M9207 9751 c-20 -5 -48 -18 -61 -30 -31 -29 -70 -115 -62 -136 10
-27 29 -12 58 47 15 31 33 60 40 65 7 4 40 13 73 18 42 7 60 15 60 25 0 17
-49 22 -108 11z"/>
<path d="M9461 9701 c-48 -68 -50 -119 -5 -140 21 -9 37 -9 83 5 68 19 85 32
71 50 -9 10 -22 9 -68 -7 -31 -11 -62 -17 -70 -14 -15 6 -9 36 15 73 13 22 16
22 32 8 39 -35 58 -3 21 34 -28 28 -55 25 -79 -9z"/>
</g>
</svg>
