<?xml version="1.0" standalone="no"?>
<!DOCTYPE svg PUBLIC "-//W3C//DTD SVG 20010904//EN"
 "http://www.w3.org/TR/2001/REC-SVG-20010904/DTD/svg10.dtd">
<svg version="1.0" xmlns="http://www.w3.org/2000/svg"
 width="1404.000000pt" height="1872.000000pt" viewBox="0 0 1404.000000 1872.000000"
 preserveAspectRatio="xMidYMid meet">

<g transform="translate(0.000000,1872.000000) scale(0.100000,-0.100000)"
fill="#000000" stroke="none">
<path d="M2282 17846 l-2 -868 -22 6 c-13 3 -144 9 -293 12 -215 5 -297 3
-403 -10 -109 -13 -266 -16 -845 -18 l-712 -3 545 -5 545 -5 2 -40 c1 -22 5
-132 8 -245 6 -207 15 -270 40 -270 21 0 26 15 16 43 -6 14 -12 122 -14 240
l-5 215 92 7 c50 3 150 16 221 28 114 19 168 22 440 21 171 0 327 -3 348 -7
36 -8 37 -9 37 -50 l0 -42 -68 -1 c-90 -2 -112 -14 -112 -62 0 -45 22 -73 75
-100 l40 -21 -44 -1 c-27 0 -51 6 -62 16 -22 20 -49 12 -49 -15 0 -24 51 -41
126 -41 91 0 98 48 14 94 -33 18 -52 36 -56 52 -8 33 -2 37 49 37 31 0 50 -6
65 -21 21 -21 22 -30 22 -225 l0 -204 -207 -7 c-256 -8 -774 -7 -866 3 -38 4
-70 4 -73 -1 -3 -4 -260 -9 -572 -10 l-567 -3 563 -2 c557 -3 562 -3 562 -23
0 -27 29 -38 45 -17 13 18 43 21 83 10 20 -5 23 -10 18 -38 -7 -36 9 -132 25
-152 18 -20 36 1 31 36 -3 20 5 47 24 80 23 43 32 51 55 51 26 0 27 -2 18 -28
-5 -16 -25 -44 -44 -62 -36 -35 -46 -70 -20 -70 9 0 15 -9 15 -25 0 -25 18
-33 35 -16 12 10 450 36 605 36 58 -1 142 -7 188 -14 l82 -13 0 -184 0 -184
-915 0 -915 0 0 30 c0 35 -29 97 -56 121 -57 50 -127 65 -199 45 -71 -21 -126
-74 -151 -143 -10 -29 -25 -54 -34 -57 -12 -3 -11 -4 3 -5 13 -1 17 -10 17
-44 0 -58 36 -125 86 -160 49 -34 140 -47 198 -27 79 26 136 103 136 185 l0
45 710 0 c391 0 710 -2 710 -5 0 -3 -12 -10 -26 -15 -35 -14 -26 -30 27 -47
45 -15 279 -19 367 -7 l42 6 0 -62 c0 -56 -3 -65 -30 -90 -38 -36 -38 -68 0
-106 28 -27 29 -33 30 -111 0 -69 -3 -83 -16 -83 -29 0 -54 21 -54 45 0 18 -5
25 -20 25 -21 0 -27 -30 -14 -65 8 -19 55 -45 84 -45 15 0 20 -6 20 -25 l0
-25 -196 0 -196 0 6 28 c16 76 26 204 20 257 -10 108 -40 169 -70 144 -11 -9
-11 -15 2 -34 34 -52 38 -223 8 -367 l-6 -28 -627 0 -628 0 -36 78 c-21 46
-44 120 -55 178 -14 75 -23 100 -35 102 -12 3 -17 -4 -17 -23 0 -53 32 -182
65 -257 l33 -78 -277 -2 -276 -3 275 -2 c151 -2 278 -7 282 -11 4 -4 18 -47
32 -97 13 -49 36 -126 49 -170 19 -62 67 -298 67 -330 0 -3 -159 -6 -352 -7
l-353 -3 354 -5 355 -5 22 -110 c23 -107 108 -447 120 -479 6 -14 -34 -16
-422 -18 l-429 -3 429 -5 430 -5 19 -75 c10 -41 42 -176 71 -300 l53 -225
-501 -5 -501 -5 502 -3 c468 -2 502 -3 507 -19 3 -10 28 -137 56 -283 27 -146
53 -275 55 -287 l5 -23 -562 -3 -563 -2 562 -3 563 -2 4 -22 c20 -94 96 -555
96 -583 0 -3 -276 -6 -613 -8 l-612 -2 612 -3 c573 -2 612 -3 617 -19 7 -23
53 -405 61 -510 l6 -83 -648 -3 -648 -2 646 -3 647 -2 7 -72 c4 -40 17 -165
31 -278 13 -113 24 -217 24 -232 l0 -28 -677 -3 -678 -2 683 -3 c562 -2 682
-4 682 -15 0 -21 39 -485 46 -544 l5 -53 -708 -3 -708 -2 707 -3 707 -2 5 -52
c3 -29 10 -129 16 -223 5 -93 13 -207 16 -252 l7 -83 -729 -3 -729 -2 730 -3
731 -2 28 -257 c15 -142 30 -279 33 -305 l6 -48 -764 -3 -764 -2 765 -3 765
-2 23 -163 c20 -143 56 -339 77 -419 l7 -28 -818 -3 -819 -2 823 -3 822 -2 0
-24 c0 -17 -13 -34 -42 -57 -85 -65 -106 -90 -118 -141 -7 -27 -19 -52 -26
-55 -15 -5 -20 -43 -6 -43 14 0 34 -71 35 -121 1 -41 4 -49 20 -49 10 0 27 -5
37 -10 29 -15 14 -40 -24 -40 -24 0 -41 -9 -66 -35 l-34 -35 -710 -2 -711 -3
703 -2 c386 -2 702 -6 702 -9 0 -9 -39 -62 -92 -127 -72 -87 -106 -166 -82
-190 11 -11 34 5 34 25 0 28 27 76 74 133 23 28 60 76 82 107 l39 58 413 0
412 0 0 -305 0 -305 -1142 -3 -1143 -2 1142 -3 1141 -2 1 -129 c0 -104 -3
-130 -14 -135 -20 -7 -19 -70 0 -86 12 -10 15 -38 15 -136 l0 -124 -1142 -3
-1143 -2 1143 -3 1142 -2 0 -305 0 -305 -1142 -3 -1143 -2 1143 -3 1142 -2 0
-305 0 -305 -1142 -3 -1143 -2 1143 -3 1142 -2 0 -305 0 -305 -1142 -3 -1143
-2 1143 -3 1142 -2 0 -305 0 -305 -1142 -3 -1143 -2 1143 -3 1142 -2 0 -305 0
-305 -1142 -3 -1143 -2 1143 -3 1142 -2 0 -305 0 -305 -1142 -3 -1143 -2 1143
-3 1142 -2 0 -305 0 -305 -1142 -3 -1143 -2 1143 -3 1142 -2 0 -305 0 -305
-1142 -3 -1143 -2 1143 -3 1142 -2 0 -305 0 -305 -1142 -3 -1143 -2 1142 -3
1143 -2 3 -417 2 -418 3 418 2 417 55 0 55 0 3 -418 2 -417 3 418 2 417 671 0
671 0 -3 -137 c-4 -125 -2 -138 14 -141 9 -2 17 -10 17 -17 0 -23 18 -27 62
-11 32 10 92 14 233 14 105 -1 282 7 395 17 238 21 674 24 845 6 80 -8 378 -9
1088 -4 898 6 977 5 977 -10 0 -9 10 -22 22 -28 18 -10 24 -8 35 7 7 10 13 20
13 23 0 3 291 6 647 6 569 0 648 2 648 15 0 13 -79 16 -630 21 -346 3 -631 6
-632 7 -2 1 -3 7 -3 13 0 6 9 8 21 4 25 -8 59 19 59 47 0 21 -41 44 -64 35 -9
-4 -25 -21 -36 -39 -24 -39 -24 -33 -5 47 8 33 14 75 15 93 l0 32 595 0 594 0
6 -32 c2 -18 6 -53 7 -78 2 -35 7 -46 22 -48 17 -4 18 2 14 77 l-5 81 2666 3
2666 2 -2671 3 -2671 2 -11 88 c-7 48 -16 170 -22 272 -6 102 -15 200 -20 217
l-8 33 397 0 398 0 7 -53 c3 -28 6 -93 6 -143 0 -69 4 -95 15 -104 24 -20 28
10 22 161 l-5 139 216 0 217 0 23 -36 c20 -31 23 -45 18 -88 -3 -28 -2 -57 3
-65 13 -20 35 -8 36 20 4 79 4 79 28 69 12 -5 41 -14 65 -20 31 -8 45 -18 53
-36 11 -31 33 -27 37 8 4 32 -11 44 -93 71 -66 21 -98 47 -81 64 4 4 66 10
138 12 l131 3 -17 -23 c-20 -29 -20 -52 -1 -89 27 -51 155 -81 163 -37 3 13
-3 17 -26 17 -32 0 -92 18 -92 28 0 4 18 15 40 24 31 13 42 23 46 47 l7 31 70
0 70 0 -20 -22 c-44 -49 -36 -88 18 -88 l29 0 0 -90 0 -90 -29 0 c-36 0 -77
-32 -85 -66 l-7 -27 -427 6 c-235 3 -441 10 -459 15 -26 9 -34 7 -49 -9 -34
-38 -68 -35 503 -45 l433 -7 15 -23 c23 -36 71 -33 93 6 l17 30 190 0 c105 1
251 5 325 10 74 5 320 14 545 20 424 12 936 40 1180 65 77 8 163 14 191 15
l51 0 9 -52 c6 -37 14 -53 24 -53 12 0 14 11 12 51 -2 45 0 52 18 57 26 7 26
27 0 34 -19 5 -20 14 -20 134 l0 129 478 3 477 2 -477 3 -478 2 -1 38 c-13
336 -14 357 -29 357 -8 0 -19 -9 -25 -20 -9 -18 -16 -19 -75 -13 -140 17 -763
24 -1320 17 -322 -5 -914 -9 -1316 -10 -766 -2 -776 -3 -760 -45 4 -11 11 -14
24 -8 9 4 319 9 687 11 369 2 965 7 1325 11 630 8 1179 2 1343 -14 67 -6 80
-10 86 -28 5 -12 11 -83 15 -158 l7 -138 -973 0 c-744 0 -977 3 -986 12 -9 9
-15 9 -24 0 -15 -15 -204 -17 -213 -2 -8 13 -62 13 -70 0 -3 -5 -88 -9 -204
-9 -163 0 -201 2 -211 14 -16 19 -64 19 -80 0 -9 -11 -35 -15 -108 -15 l-96 0
41 35 c61 52 85 96 81 147 -4 57 -30 71 -118 64 -73 -5 -180 -41 -180 -60 0
-34 58 -50 67 -17 5 22 95 45 153 39 30 -3 35 -7 38 -31 6 -50 -67 -131 -135
-152 -22 -6 -23 -4 -23 59 0 36 -5 68 -11 72 -21 13 -33 -17 -31 -76 2 -54 0
-60 -17 -60 -11 0 -23 -4 -26 -10 -4 -6 -90 -10 -224 -10 l-218 0 -7 52 c-11
92 -7 246 6 250 21 7 0 40 -24 36 -23 -3 -23 -4 -22 -170 l1 -168 -626 2
c-349 1 -582 5 -526 9 55 3 151 7 213 8 102 1 113 3 110 19 -3 14 -16 18 -68
20 -83 4 -394 -13 -673 -38 -120 -11 -285 -20 -365 -20 l-148 0 -11 83 c-6 45
-26 125 -43 177 -29 85 -33 108 -34 220 l-1 125 1688 3 c1658 2 1687 2 1687
-17 0 -11 3 -26 6 -35 6 -14 -20 -16 -247 -15 -140 1 -410 4 -600 7 -320 6
-349 8 -368 26 -23 21 -54 14 -49 -11 8 -42 45 -47 433 -54 426 -8 884 -10
1000 -3 443 24 1311 46 1615 40 348 -6 897 9 914 25 5 5 4 14 -4 24 -11 13 24
15 346 17 l359 3 -354 2 -354 3 7 106 c4 58 12 128 18 157 6 29 10 118 10 199
l0 148 336 3 337 2 -336 3 -337 2 -6 24 c-3 13 -3 37 0 53 5 25 2 30 -28 41
-62 22 -122 24 -316 13 -144 -9 -202 -9 -234 0 -31 8 -43 8 -46 0 -3 -8 -98
-11 -315 -11 -172 0 -400 -5 -507 -10 -107 -5 -310 -14 -450 -20 -140 -6 -462
-21 -715 -35 -484 -25 -792 -35 -1192 -36 -134 -1 -246 -5 -249 -10 -3 -5
-308 -9 -728 -9 l-723 0 -11 37 c-21 73 -31 170 -38 371 l-7 202 1021 0 c875
0 1029 -2 1079 -15 31 -8 76 -15 99 -15 26 0 62 -10 92 -26 63 -33 146 -40
236 -21 63 13 73 13 115 -3 103 -40 233 -32 348 21 121 55 52 52 1713 58
l1535 6 -1495 3 c-1286 3 -1490 5 -1457 17 78 29 179 89 211 126 78 92 72 206
-18 299 -40 41 -44 50 -49 107 l-5 63 1406 3 1407 2 -1411 3 -1410 2 -24 32
c-18 24 -23 45 -24 90 -1 57 -1 58 27 58 39 0 33 33 -7 40 -19 3 -30 12 -32
24 -6 43 -44 45 -44 2 l0 -22 -152 4 c-164 5 -199 14 -257 68 -36 34 -84 47
-151 42 -69 -5 -114 -32 -156 -94 -28 -41 -31 -43 -94 -49 -36 -3 -132 -16
-215 -27 -82 -12 -163 -22 -180 -22 -25 -1 -30 -5 -33 -30 -3 -26 -1 -28 20
-22 30 9 188 36 208 36 28 -1 -16 -20 -112 -49 -108 -32 -141 -29 -146 12 -4
36 -42 39 -42 3 0 -20 -6 -24 -46 -30 -25 -3 -76 -19 -114 -36 l-68 -30 -205
0 -205 0 -15 39 c-61 151 -62 310 -2 514 l16 57 2437 2 2437 3 -2432 2 c-1338
2 -2433 5 -2433 8 0 3 30 81 66 173 59 149 85 243 109 394 l6 38 2342 3 2342
2 -2343 3 -2343 2 8 78 c19 185 4 420 -32 514 -7 17 111 18 2356 21 l2364 2
-2365 3 -2365 2 -30 57 c-81 156 -191 233 -311 218 -56 -7 -81 -28 -53 -46 19
-12 59 -11 59 1 0 18 53 11 105 -14 57 -26 117 -89 158 -165 l28 -51 -463 2
c-255 1 -440 3 -413 5 97 6 281 24 363 35 71 10 82 14 82 31 0 18 -5 19 -47
13 -111 -16 -322 -36 -377 -36 -43 0 -65 5 -79 17 -24 23 -126 24 -382 5 -164
-13 -317 -11 -446 4 -40 5 -46 8 -42 25 5 16 0 19 -28 19 -41 0 -84 -21 -84
-40 0 -40 318 -68 585 -51 96 7 193 15 215 18 36 6 39 5 27 -10 -8 -9 -11 -21
-7 -27 4 -7 -217 -10 -718 -10 l-724 0 -96 68 c-71 49 -97 73 -97 88 0 13 8
24 20 27 21 5 25 23 11 46 -7 10 -36 16 -96 19 l-87 5 -145 93 c-80 51 -213
130 -296 176 l-151 83 230 3 231 2 224 -89 c123 -49 294 -118 379 -154 85 -36
168 -69 183 -73 19 -4 26 -11 23 -21 -7 -17 13 -101 25 -109 5 -2 20 3 35 13
17 11 49 18 85 19 l59 1 0 -52 c0 -49 17 -84 33 -68 4 3 7 81 8 172 0 91 6
189 13 216 l11 50 95 7 c52 3 145 14 205 23 175 26 488 29 788 7 198 -14 261
-22 268 -33 20 -31 31 -95 23 -139 -10 -58 -11 -130 -1 -154 14 -35 31 0 35
71 7 123 7 158 -1 196 l-8 38 59 -7 c36 -4 62 -2 66 4 15 25 -39 38 -199 48
-528 31 -500 32 1113 33 1372 0 1563 -1 1568 -14 8 -19 30 -19 38 0 5 13 163
15 1328 17 l1323 3 -1313 2 -1313 3 -35 27 -35 26 27 28 c16 17 24 34 21 43
-9 22 -20 20 -46 -8 l-23 -25 -40 50 c-28 36 -45 49 -60 47 -28 -4 -34 -25
-11 -32 10 -4 31 -24 46 -46 l28 -39 -28 -15 c-16 -7 -37 -23 -47 -35 -21 -23
-66 -29 -66 -7 0 9 -19 15 -58 19 -75 8 -87 13 -100 41 -10 22 -8 24 30 29 60
8 74 26 59 76 -10 34 -34 61 -55 61 -3 0 -21 -14 -40 -31 -58 -51 -58 -143 1
-189 l26 -20 -62 0 c-47 0 -63 4 -68 16 -3 9 4 67 16 130 18 90 21 128 15 181
-5 38 -7 81 -5 96 2 25 -1 28 -21 25 -20 -3 -23 -8 -21 -43 8 -126 4 -216 -11
-275 -8 -36 -16 -80 -16 -97 l0 -33 -2244 0 -2244 0 -63 24 c-35 13 -158 67
-274 119 -193 87 -410 177 -935 388 l-195 79 1250 0 c987 0 1254 -3 1264 -12
11 -11 14 -10 18 0 3 6 10 9 16 5 7 -4 273 -9 592 -11 903 -6 915 -6 928 7 8
8 684 12 2552 13 1397 1 2513 3 2480 5 -33 2 -1291 6 -2795 9 -4085 9 -3744 6
-3763 26 -24 24 -21 63 14 169 39 116 49 208 25 228 -24 20 -29 9 -32 -67 -1
-43 -13 -100 -33 -160 -20 -58 -31 -113 -31 -147 l0 -55 -1256 0 -1256 0 -207
99 c-390 188 -728 331 -1005 426 -275 94 -357 85 756 85 l976 0 294 -50 c597
-102 769 -146 1128 -283 36 -14 115 -39 175 -56 149 -43 140 -40 127 -53 -16
-16 -15 -67 1 -74 7 -2 46 7 86 21 41 14 89 25 107 25 42 0 52 16 25 41 -12
11 -21 26 -21 34 0 8 -12 22 -27 32 -16 10 -32 23 -36 30 -4 7 -14 13 -21 13
-8 0 -16 9 -19 20 -9 33 -25 23 -52 -34 l-26 -54 -92 25 c-51 14 -190 60 -309
104 -244 88 -476 149 -783 203 -110 20 -222 40 -250 45 -31 5 349 9 1028 10
l1077 1 10 -25 c12 -32 43 -32 68 0 l20 25 498 -1 c389 -2 473 -4 379 -11 -66
-5 -191 -7 -277 -4 -120 4 -159 2 -167 -8 -6 -7 -8 -16 -5 -19 9 -9 -29 -15
-126 -21 -47 -3 -197 -15 -335 -26 -137 -11 -283 -20 -324 -19 -52 1 -76 -2
-81 -12 -5 -7 -7 -16 -4 -20 8 -13 164 -9 409 11 138 11 315 25 395 31 163 12
172 13 165 31 -4 10 43 13 231 15 l236 2 -6 -33 c-5 -25 -3 -35 9 -40 22 -8
20 -161 -5 -311 -18 -115 -16 -155 10 -129 33 33 59 372 36 483 l-9 44 46 -6
c42 -6 47 -4 47 12 0 11 -6 22 -12 24 -7 3 79 6 191 6 l205 1 -102 -51 c-118
-59 -202 -130 -182 -155 11 -12 20 -8 61 31 32 30 92 66 183 110 l135 65 560
0 561 0 -5 -27 c-12 -68 -25 -188 -25 -224 0 -32 3 -39 20 -39 17 0 20 7 20
38 0 39 17 186 26 230 l4 22 308 -1 c183 -1 288 -4 261 -9 -63 -11 -106 -35
-129 -73 -27 -43 -25 -80 4 -114 24 -27 26 -28 126 -26 119 1 150 8 150 30 0
14 -12 15 -99 9 -55 -4 -111 -4 -125 0 -57 14 -38 92 29 120 50 21 73 18 77
-8 2 -13 10 -23 18 -23 11 0 15 12 15 48 l0 47 145 0 145 0 -31 -19 c-18 -11
-35 -24 -39 -30 -7 -12 35 -57 95 -104 l35 -27 -38 0 c-28 0 -44 7 -62 26 -26
28 -59 27 -53 -2 9 -49 145 -86 181 -49 27 27 21 40 -49 94 l-67 51 36 15 c48
20 55 19 59 -7 5 -40 33 -28 33 15 l0 37 135 -1 c88 -1 119 -4 90 -8 -46 -7
-110 -35 -122 -55 -12 -18 22 -45 84 -68 78 -28 57 -41 -58 -37 -86 4 -107 -5
-63 -28 53 -28 212 -9 234 27 12 19 -22 47 -87 71 -58 21 -59 23 -37 35 28 14
105 22 115 11 19 -19 36 -6 32 23 l-5 30 106 0 c96 0 107 -2 119 -21 7 -11 21
-19 30 -18 9 1 40 1 67 0 l50 -2 -60 -34 c-66 -38 -76 -58 -30 -63 48 -5 115
-33 115 -49 0 -8 -12 -25 -26 -40 -23 -23 -31 -25 -100 -21 -72 3 -84 8 -98
43 -2 6 -12 2 -22 -8 -40 -38 26 -75 134 -76 74 -1 112 17 138 64 26 49 13 80
-41 100 l-45 18 43 27 c53 33 79 59 72 71 -4 5 151 9 389 9 l395 0 -9 -27 c-5
-16 -27 -72 -49 -126 -23 -55 -38 -103 -35 -108 13 -21 34 -6 50 39 9 26 29
76 44 112 15 36 31 75 35 87 l6 23 387 3 387 2 -386 3 -386 2 22 88 c30 116
46 267 34 321 -20 89 -67 154 -97 135 -28 -18 -25 -33 17 -74 43 -43 46 -55
42 -155 -3 -62 -26 -194 -46 -263 l-16 -52 -468 0 c-408 0 -470 2 -475 15 -7
19 -40 19 -56 0 -11 -13 -111 -15 -794 -15 l-781 0 2 252 c2 139 3 272 3 294
0 30 5 44 18 50 9 5 771 11 1692 14 l1675 5 -1565 4 c-953 2 -1547 7 -1520 12
121 24 2296 37 2398 14 28 -6 32 -5 32 13 0 14 -9 22 -32 27 -56 12 -1265 16
-1818 6 -448 -8 -545 -13 -660 -31 -95 -14 -156 -18 -207 -14 -62 5 -74 4 -79
-10 -6 -15 -120 -16 -1330 -16 -1301 0 -1325 0 -1314 19 15 29 61 73 184 176
129 108 161 140 151 154 -11 19 -30 12 -61 -20 -16 -17 -67 -63 -114 -102
-118 -98 -168 -146 -196 -190 l-24 -37 -2735 0 -2735 0 0 305 0 305 3845 0
c2408 0 3845 -4 3845 -9 0 -6 -21 -11 -47 -13 -41 -3 -50 -7 -70 -37 -39 -58
-27 -182 19 -197 41 -13 89 50 117 153 11 39 14 42 49 45 26 2 38 8 40 21 3
14 -4 17 -32 17 -20 0 -36 4 -36 10 0 7 661 11 1948 13 l1947 2 -1949 3 -1948
2 3 138 c4 131 3 137 -16 139 -66 9 -69 8 -92 -26 -27 -40 -29 -54 -6 -76 11
-11 26 -15 45 -11 l28 6 0 -85 0 -85 -3845 0 -3845 0 0 305 0 305 2366 0 2367
0 86 -64 c203 -149 371 -237 481 -251 49 -6 58 -4 74 14 26 29 8 51 -27 32
-54 -29 -248 55 -437 188 l-114 81 3414 3 3415 2 -3422 3 -3422 2 -97 93
c-168 160 -273 302 -356 479 l-17 38 740 0 741 0 -20 -32 -20 -31 -251 0
c-186 0 -255 3 -266 13 -12 10 -18 10 -30 0 -21 -17 -15 -42 10 -48 11 -2 103
-4 205 -2 102 1 215 -1 252 -5 58 -6 67 -10 70 -29 4 -27 32 -27 36 0 l3 22
1132 0 c1363 1 2302 13 2319 30 8 8 8 15 3 21 -6 5 -267 5 -610 -1 -626 -9
-2813 -14 -2821 -5 -2 2 3 18 13 36 l18 31 2889 0 c1589 0 2892 2 2894 5 3 3
-493 5 -1102 5 -1248 0 -1143 -7 -1133 78 3 26 17 74 31 108 43 106 70 320 47
379 -5 11 -6 26 -4 33 4 9 230 12 1086 12 594 0 1078 2 1075 5 -2 3 -701 5
-1552 5 -1466 0 -1547 1 -1542 18 32 111 39 349 14 439 l-15 52 26 3 c37 4 34
32 -4 36 -16 2 -33 9 -37 15 -6 9 -12 9 -28 0 -28 -18 -30 -17 -30 17 l0 30
1588 3 1587 2 -1586 3 -1585 2 17 98 c34 190 34 345 0 367 -15 8 -39 -5 -44
-25 -5 -21 2 -35 23 -43 24 -9 -17 -8 -90 3 -36 5 -159 15 -274 21 -194 10
-702 0 -1301 -26 -66 -3 -430 -10 -809 -16 l-688 -10 -15 20 c-16 24 -51 28
-59 7 -3 -8 -14 -16 -26 -19 -12 -4 -18 -12 -16 -24 2 -13 14 -19 46 -21 l42
-3 0 -44 c0 -24 -5 -90 -11 -145 -12 -99 -7 -128 17 -112 12 7 34 176 34 257
l0 45 133 0 c72 0 175 3 228 6 92 7 97 6 108 -15 10 -18 6 -28 -39 -81 -58
-71 -67 -97 -46 -137 20 -39 33 -49 84 -63 36 -9 52 -8 91 5 60 19 116 66 130
107 11 32 10 33 -68 110 l-79 78 163 0 c135 0 164 -3 169 -15 4 -10 -5 -19
-27 -29 -38 -15 -84 -66 -104 -115 -29 -69 20 -119 129 -128 51 -5 63 -3 98
21 41 27 80 89 80 126 0 12 -24 47 -55 79 l-55 58 91 6 c51 4 147 7 213 7
l121 0 -31 -19 c-63 -39 -131 -143 -118 -184 17 -56 80 -97 150 -97 52 0 134
34 134 55 0 22 -23 23 -55 3 -18 -11 -49 -18 -78 -18 -40 0 -53 5 -84 34 -34
31 -36 36 -26 59 28 61 128 147 153 132 13 -8 13 -45 0 -45 -13 0 -13 -47 1
-55 5 -4 19 1 30 11 20 18 26 78 9 104 -16 25 9 30 164 30 l149 0 -34 -23
c-27 -18 -35 -30 -37 -60 -3 -36 -1 -39 57 -75 34 -20 64 -45 67 -55 9 -27
-14 -47 -55 -47 -51 0 -86 20 -86 50 0 34 -32 39 -40 7 -14 -53 45 -97 129
-97 55 0 96 32 96 76 0 29 -45 78 -98 106 -43 23 -42 51 2 72 19 9 42 16 51
16 16 0 16 -9 -2 -56 -7 -18 16 -27 32 -14 24 20 29 69 9 91 -17 19 -15 19 96
19 l114 0 -47 -30 c-71 -45 -62 -79 31 -111 56 -19 86 -55 77 -91 -14 -54
-155 -52 -155 2 0 13 -7 20 -20 20 -15 0 -20 -7 -20 -29 0 -58 95 -88 191 -61
32 9 37 15 43 50 7 42 -9 96 -35 117 -8 6 -38 19 -66 28 -29 10 -53 19 -53 21
0 5 85 54 94 54 3 0 11 -11 16 -25 9 -24 29 -32 43 -19 8 9 -11 57 -29 70 -10
8 48 13 233 18 250 7 531 -3 704 -25 l91 -12 -7 -76 c-6 -71 -30 -215 -41
-253 -5 -17 -154 -18 -2940 -18 l-2934 0 0 305 0 305 1329 0 c1203 0 1329 -2
1335 -16 3 -9 6 -26 6 -38 0 -46 37 -50 545 -54 259 -2 553 2 655 7 102 6 408
15 680 21 502 10 824 25 876 39 19 5 28 13 26 24 -3 16 129 17 1815 19 l1818
3 -1708 2 c-1200 2 -1706 6 -1702 14 4 5 0 18 -8 27 -13 14 -13 33 -5 122 10
107 6 254 -7 303 -7 25 -5 27 25 27 25 0 31 4 28 18 -3 15 -24 18 -203 25
-250 10 -758 2 -1145 -18 -383 -20 -1620 -37 -1638 -23 -7 6 -16 8 -19 4 -11
-10 -12 -119 -1 -132 5 -7 2 -58 -7 -120 -8 -60 -17 -129 -21 -154 -3 -25 -7
-55 -10 -67 l-4 -23 -1331 0 -1331 0 7 73 c6 61 4 75 -9 86 -22 18 -28 10 -30
-36 -1 -21 -3 -57 -4 -80 l-2 -43 -1250 0 c-1208 0 -1250 1 -1250 18 0 17 13
20 128 25 70 4 246 7 392 7 339 0 930 16 1320 35 168 9 370 15 450 14 124 -1
145 1 148 15 5 26 -39 29 -297 23 l-245 -6 37 25 c36 24 77 88 77 120 0 8 16
35 36 57 19 23 51 76 71 117 19 41 53 94 76 118 l41 42 1521 0 1520 0 0 -32
c0 -22 5 -33 14 -33 8 0 19 15 23 33 l9 32 3152 2 3152 3 -2925 5 c-1609 3
-2884 8 -2835 13 50 4 354 12 676 17 322 5 592 12 600 14 8 3 190 10 404 16
538 14 728 21 743 25 6 3 12 11 12 20 0 12 -17 15 -105 15 -104 0 -105 0 -100
23 30 139 37 199 39 324 l1 143 1745 2 1745 3 -1753 3 c-1016 1 -1751 6 -1748
11 9 14 -22 34 -41 26 -10 -3 -128 -12 -263 -20 -190 -10 -889 -13 -3138 -14
l-2892 -2 -9 23 -9 23 -886 0 -886 0 0 276 0 276 83 6 c45 4 398 7 783 7 l702
0 6 -26 c8 -32 42 -29 39 4 l-3 22 5008 3 5007 2 -5007 3 -5007 2 -1 33 c-1
17 0 91 2 162 4 189 4 314 -2 365 l-5 45 5010 5 5010 5 -4998 3 c-5265 2
-5027 0 -5027 41 0 16 -47 14 -57 -2 -12 -20 -541 -37 -1095 -37 l-448 0 0
280 0 279 33 5 c17 3 205 10 417 16 212 6 500 15 640 20 149 5 2384 9 5389 10
2824 0 5137 2 5139 5 3 3 -2294 5 -5105 5 -4462 0 -5114 2 -5139 15 -25 12
-60 13 -219 5 -105 -5 -407 -12 -672 -16 l-483 -7 0 32 c0 18 9 44 20 58 26
34 26 92 0 126 -24 31 -29 120 -6 111 24 -9 26 12 5 55 -15 32 -19 58 -17 109
l3 67 150 17 c262 29 426 38 704 38 l271 0 0 -26 c0 -14 -7 -83 -16 -152 -17
-139 -14 -212 15 -315 21 -76 24 -82 44 -74 13 5 12 15 -4 72 -29 107 -32 170
-15 320 10 77 19 148 22 158 5 16 264 17 5227 19 l5222 3 -5219 2 c-4956 3
-5219 4 -5232 21 -13 16 -15 16 -28 0 -11 -15 -27 -18 -92 -16 l-79 2 75 5
c57 5 75 10 75 21 0 12 -18 15 -105 13 -175 -3 -599 -23 -695 -33 -49 -5 -143
-10 -207 -10 l-118 0 0 179 0 180 34 -6 c35 -5 341 13 411 25 26 5 40 13 40
22 0 12 -13 14 -67 12 l-66 -3 5 43 c2 24 9 55 15 71 8 20 7 31 -2 42 -10 12
-10 18 0 30 10 12 38 15 135 15 l124 0 29 -77 c74 -193 77 -212 26 -178 -70
47 -86 26 -60 -77 10 -37 15 -77 11 -88 -4 -12 0 -26 9 -35 16 -16 46 -10 46
9 0 20 52 64 103 85 58 25 61 47 7 61 -29 8 -40 16 -40 30 0 22 -48 174 -74
232 l-16 38 593 0 594 0 6 -72 c3 -39 10 -75 16 -81 20 -20 31 6 31 79 l0 74
4858 2 4857 3 -3905 3 c-3106 2 -3900 5 -3881 15 13 6 30 21 38 33 12 19 10
24 -27 62 -22 22 -40 49 -39 59 0 10 3 13 6 6 6 -15 29 -17 38 -3 9 15 -14 50
-34 50 -23 0 -51 -31 -51 -56 0 -25 36 -83 55 -91 12 -4 13 -9 4 -19 -16 -20
-36 -17 -42 6 -5 19 -45 29 -60 14 -11 -11 12 -43 41 -58 24 -14 -36 -15 -558
-15 -522 0 -581 1 -551 14 27 12 31 18 22 29 -9 11 -19 12 -41 5 -15 -6 -48
-9 -71 -7 -37 3 -45 7 -47 26 -6 41 17 81 52 90 41 11 48 42 9 42 -76 0 -132
-114 -87 -178 l15 -22 -192 0 c-166 0 -190 2 -179 15 6 8 9 23 5 35 -4 13 0
41 10 65 13 35 22 44 43 47 38 4 35 32 -4 36 -38 4 -58 -18 -83 -88 -13 -37
-16 -62 -11 -81 l9 -29 -82 0 -82 0 35 24 c20 13 41 35 49 49 30 56 -11 157
-64 157 -12 0 -37 -11 -56 -25 -19 -13 -44 -29 -56 -34 -26 -12 -37 -28 -24
-36 6 -3 13 -27 16 -53 4 -26 9 -55 12 -64 4 -17 -14 -18 -271 -18 l-276 0 0
34 c0 18 -2 53 -5 77 -6 43 -4 45 39 79 25 19 48 41 51 49 12 30 -64 81 -121
81 -18 0 -37 -12 -60 -37 -42 -46 -43 -63 -5 -63 34 0 49 -26 19 -33 -26 -7
-20 -41 9 -45 17 -3 23 -12 28 -46 4 -24 5 -54 3 -67 l-3 -24 -300 -2 -300 -3
-21 33 c-44 68 -128 160 -182 200 -56 42 -57 43 -57 94 -1 43 -6 58 -29 82
l-27 29 37 7 c29 5 39 3 46 -9 13 -24 37 -19 44 8 12 51 10 52 -178 31 l-47
-5 -7 35 c-4 21 -2 41 5 48 8 10 6 19 -5 35 l-15 22 5692 0 c3131 0 5695 2
5697 5 3 3 -305 5 -685 5 -764 0 -703 -6 -703 64 0 30 4 34 40 45 93 28 129
100 75 151 -29 27 -30 35 -10 74 26 49 -5 64 -44 22 -16 -17 -21 -31 -16 -45
4 -15 2 -21 -8 -21 -9 0 -17 5 -19 11 -5 16 -79 -31 -107 -67 -16 -21 -21 -39
-19 -68 3 -35 8 -43 35 -55 27 -12 32 -20 35 -60 3 -25 4 -47 3 -49 -1 -1
-315 -1 -699 0 l-696 3 26 39 c26 38 27 38 75 32 61 -8 123 8 144 37 22 31 19
93 -5 117 -11 11 -24 20 -30 20 -17 0 -11 18 23 67 49 72 63 101 50 114 -14
14 -45 -19 -80 -83 -24 -45 -29 -48 -67 -49 -23 -1 -48 -2 -57 -3 -24 -2 -99
-97 -99 -125 0 -14 9 -34 20 -46 l20 -22 -30 -42 c-17 -23 -28 -46 -25 -51 7
-11 -8682 -14 -8735 -4 l-30 6 -3 867 -2 866 -3 -867 -2 -868 -55 0 -55 0 -3
868 -2 867 -3 -869z m9042 -635 c8 -12 -63 -103 -77 -98 -24 7 -18 44 12 75
29 31 55 41 65 23z m1414 -34 c3 -20 -3 -29 -27 -41 -16 -9 -32 -16 -36 -16
-11 0 -4 26 15 58 23 38 44 38 48 -1z m-1308 -36 c0 -36 -15 -49 -65 -56 -66
-10 -73 5 -29 62 38 49 40 50 67 36 20 -10 27 -21 27 -42z m1185 48 c4 -6 13
-8 21 -5 12 4 12 -1 -1 -31 -8 -19 -15 -37 -15 -40 0 -2 -10 -3 -22 -1 -27 4
-35 32 -17 64 13 26 24 30 34 13z m-11325 -239 c-97 -11 -150 -11 -150 0 0 6
41 9 108 8 101 -1 104 -1 42 -8z m1110 -300 l0 -290 -55 0 -55 0 0 290 0 290
55 0 55 0 0 -290z m210 254 c0 -17 3 -44 6 -60 5 -25 2 -30 -25 -41 -23 -8
-29 -16 -25 -28 5 -12 14 -15 30 -11 21 6 24 3 24 -20 0 -14 -13 -43 -30 -64
-38 -48 -40 -75 -5 -66 25 6 25 6 19 -51 -10 -97 35 -172 64 -108 20 43 95
140 99 128 3 -7 -17 -40 -44 -75 -26 -35 -57 -82 -67 -105 l-19 -43 -114 0
-113 0 0 288 0 287 100 1 100 0 0 -32z m110 -209 c-13 -20 -30 -35 -41 -35
-29 0 -24 36 13 81 l33 40 8 -25 c7 -20 3 -34 -13 -61z m48 -24 c-7 -12 -16
-21 -21 -21 -4 0 0 11 9 25 20 30 31 26 12 -4z m961 -52 c38 -14 39 -22 2 -48
-36 -26 -38 -26 -45 3 -3 13 -9 31 -12 40 -7 19 10 21 55 5z m-999 -4 c0 -3
-19 -30 -42 -60 -36 -47 -44 -52 -46 -34 -3 14 9 35 34 60 34 35 54 48 54 34z
m167 -107 c35 -34 80 -84 99 -110 l34 -48 -119 0 c-67 0 -122 4 -126 10 -5 9
11 169 20 198 8 23 26 12 92 -50z m1495 15 c41 -37 13 -107 -54 -132 -31 -11
-38 -1 -38 56 0 25 8 43 29 64 34 34 38 35 63 12z m-1647 -112 c-6 -48 -9 -51
-36 -51 l-29 0 21 43 c42 83 55 85 44 8z m-1122 -78 c-51 -2 -135 -2 -185 0
-51 1 -10 3 92 3 102 0 143 -2 93 -3z m490 -32 c-10 -11 -38 -44 -63 -75 -63
-77 -96 -76 -36 0 39 51 50 84 26 84 -10 0 -40 -29 -40 -38 -1 -17 -99 -114
-113 -110 -11 2 -4 17 29 61 24 31 44 64 44 71 0 15 30 21 123 24 47 2 47 2
30 -17z m110 7 c-5 -7 -30 -39 -55 -70 -26 -32 -48 -63 -50 -69 -3 -8 -12 -9
-31 -3 l-28 9 51 60 c28 33 48 65 46 72 -4 9 7 13 36 13 31 0 38 -3 31 -12z
m177 -27 c0 -23 -6 -44 -16 -52 -9 -7 -20 -24 -25 -38 -12 -31 3 -50 26 -31
13 11 15 9 15 -9 0 -20 -4 -22 -52 -19 l-53 3 -3 37 c-4 51 52 148 85 148 20
0 23 -5 23 -39z m60 36 c0 -2 -11 -14 -25 -27 l-25 -23 0 26 c0 22 5 27 25 27
14 0 25 -1 25 -3z m44 -79 c-41 -62 -51 -84 -43 -95 16 -18 28 -16 36 5 13 33
71 117 101 145 21 20 38 28 56 25 27 -3 27 -4 -32 -73 -43 -49 -57 -73 -50
-82 5 -6 15 -10 21 -7 11 5 85 90 122 139 14 19 14 18 15 -17 0 -31 -8 -46
-52 -93 l-53 -57 -81 -5 c-115 -8 -134 -2 -134 43 0 28 10 47 52 95 34 38 60
59 74 59 20 0 16 -8 -32 -82z m-708 2 c-36 -39 -66 -75 -66 -80 0 -6 -14 -10
-30 -10 -29 0 -30 2 -19 22 7 13 30 45 52 73 33 42 46 51 81 56 22 3 43 7 45
7 2 1 -26 -30 -63 -68z m100 23 c-45 -63 -91 -106 -107 -101 -8 3 11 29 49 68
34 35 62 68 62 72 0 4 7 8 15 8 11 0 5 -14 -19 -47z m360 -32 c-14 -28 -26
-57 -26 -66 0 -21 27 -19 39 3 9 15 10 14 11 -7 0 -22 -2 -23 -47 -16 -77 11
-78 15 -28 74 25 29 51 63 57 75 10 18 13 18 16 4 2 -9 -8 -39 -22 -67z m-932
54 c-4 -8 -8 -15 -10 -15 -2 0 -4 7 -4 15 0 8 4 15 10 15 5 0 7 -7 4 -15z
m369 -28 c-35 -36 -65 -91 -56 -101 4 -3 -8 -6 -26 -6 l-32 0 27 48 c49 85 53
91 81 94 40 5 40 2 6 -35z m-188 6 c-35 -55 -89 -116 -93 -105 -2 6 8 28 22
49 14 21 26 48 26 60 0 19 5 23 31 23 l31 0 -17 -27z m89 -5 c-39 -76 -76
-118 -106 -118 l-28 0 44 54 c24 30 47 64 51 75 4 14 15 21 31 21 24 0 24 0 8
-32z m1136 -119 c0 -5 -10 -9 -21 -9 -18 0 -19 2 -9 15 12 15 30 12 30 -6z
m-330 -230 l0 -179 -55 0 -55 0 0 183 0 182 55 -3 55 -4 0 -179z m-120 -203
c0 -18 -58 -26 -227 -28 -126 -3 -134 -2 -155 20 l-22 22 202 0 c167 0 202 -2
202 -14z m120 4 c0 -5 -11 -10 -24 -10 -13 0 -38 -3 -55 -6 -24 -5 -31 -3 -31
10 0 13 11 16 55 16 30 0 55 -4 55 -10z m83 3 c-13 -2 -35 -2 -50 0 -16 2 -5
4 22 4 28 0 40 -2 28 -4z m-83 -118 c0 -64 0 -64 -24 -55 -15 5 -37 5 -55 0
l-31 -9 0 59 c0 64 2 65 78 69 l32 1 0 -65z m-25 -99 c14 -10 20 -30 23 -80
l4 -67 -56 28 c-55 27 -56 28 -56 69 0 37 3 44 28 52 36 14 36 14 57 -2z m-95
-53 c0 -20 -3 -24 -11 -16 -7 7 -9 19 -6 27 10 24 17 19 17 -11z m120 -179 c0
-49 -14 -63 -66 -67 l-39 -2 -3 83 -3 82 56 -27 c54 -26 55 -28 55 -69z m0
-124 c0 -30 -1 -30 -55 -30 -51 0 -55 2 -55 24 0 18 5 23 18 20 9 -2 31 0 47
5 44 14 45 14 45 -19z m-554 -53 c-15 -11 -16 -15 -3 -25 8 -7 38 -16 67 -22
48 -9 87 -8 298 5 l72 5 0 -280 0 -280 -770 0 c-423 0 -770 3 -770 8 0 43 -56
310 -81 383 -28 83 -58 190 -59 212 0 4 284 7 632 7 522 0 629 -2 614 -13z
m431 7 c-9 -9 -306 -24 -344 -17 -18 3 -33 9 -33 14 0 5 86 9 192 9 105 0 189
-3 185 -6z m101 -1 c-15 -2 -42 -2 -60 0 -18 2 -6 4 27 4 33 0 48 -2 33 -4z
m59 1 c-3 -3 -12 -4 -19 -1 -8 3 -5 6 6 6 11 1 17 -2 13 -5z m-37 -324 l0
-280 -55 0 -55 0 0 280 0 280 55 0 55 0 0 -280z m-669 -304 c-8 -10 -8 -16 3
-25 8 -6 18 -11 22 -9 5 1 27 -1 50 -5 l41 -7 7 -137 c4 -76 9 -196 12 -268 3
-71 7 -131 9 -133 2 -3 11 -2 20 2 17 6 17 32 -1 399 l-7 137 54 0 c30 0 118
3 197 7 l142 6 0 -52 c0 -32 -15 -101 -40 -182 -22 -72 -40 -143 -40 -158 0
-41 22 -65 53 -59 26 5 27 4 27 -42 l0 -47 -177 0 c-125 0 -178 -3 -181 -11
-3 -9 -137 -12 -517 -12 -481 0 -514 1 -519 18 -17 56 -99 384 -120 480 l-24
112 500 0 c422 0 499 -2 489 -14z m109 5 c0 -4 -11 -6 -25 -3 -14 2 -25 6 -25
8 0 2 11 4 25 4 14 0 25 -4 25 -9z m335 -1 c-171 -11 -285 -11 -285 0 0 6 71
9 198 8 182 -1 189 -2 87 -8z m142 4 c-3 -3 -12 -4 -19 -1 -8 3 -5 6 6 6 11 1
17 -2 13 -5z m1660 -41 c9 -43 10 -179 3 -369 l-5 -132 -115 -6 c-63 -3 -356
-10 -650 -16 -294 -5 -595 -12 -667 -15 l-133 -6 0 274 0 274 128 6 c70 4 296
8 502 8 206 1 440 5 520 9 80 3 204 7 277 8 l132 2 8 -37z m-1577 -188 l0
-195 -32 0 c-18 0 -43 -3 -56 -6 l-23 -7 4 109 c2 60 11 133 18 163 12 48 12
54 -4 66 -22 16 -22 52 1 58 9 3 34 5 55 6 l37 1 0 -195z m-132 -216 c-34 -22
-36 3 -10 92 l17 59 3 -71 c2 -51 -1 -75 -10 -80z m132 -79 l0 -60 -55 0 -55
0 0 50 c0 56 13 68 78 69 l32 1 0 -60z m1580 -70 c0 -6 -93 -9 -262 -8 l-263
2 200 6 c110 3 228 7 263 8 36 1 62 -2 62 -8z m-1802 -27 l102 -6 0 -283 0
-283 -42 -5 c-100 -12 -348 -27 -413 -25 -38 2 -78 8 -89 13 -14 8 -20 8 -23
-1 -4 -10 -81 -13 -338 -13 l-334 0 -10 38 c-6 20 -31 127 -56 237 -25 110
-54 231 -64 268 l-20 69 592 -2 c326 -1 638 -4 695 -7z m222 -282 c0 -310 5
-291 -71 -291 l-39 0 0 285 0 285 55 0 55 0 0 -279z m602 -318 c-73 -2 -190
-2 -260 0 -70 1 -10 3 133 3 143 0 200 -2 127 -3z m1111 0 c-23 -2 -64 -2 -90
0 -26 2 -7 3 42 3 50 0 71 -1 48 -3z m-2407 -50 c-40 -228 -57 -386 -52 -475
l5 -98 -248 0 -249 0 -5 23 c-3 12 -29 141 -57 287 -28 146 -53 273 -56 283
-5 16 15 17 332 17 l337 0 -7 -37z m574 25 c0 -10 -20 -12 -76 -10 -88 4 -156
-16 -180 -53 -26 -40 -2 -73 87 -120 144 -77 169 -106 169 -200 0 -51 -2 -56
-27 -67 -16 -6 -63 -11 -106 -11 -107 -1 -133 25 -113 111 7 28 5 32 -13 32
-29 0 -44 -59 -28 -108 17 -51 61 -74 145 -76 37 0 84 3 105 7 l37 8 0 -56 0
-55 -289 0 -288 0 -7 46 c-11 81 -7 154 19 328 13 93 27 176 30 185 4 13 20
17 77 19 71 2 348 20 398 26 54 6 60 6 60 -6z m120 -293 l0 -305 -55 0 -55 0
0 56 c0 41 5 63 20 81 26 34 26 104 0 162 -18 38 -20 62 -18 178 l2 133 53 0
53 0 0 -305z m1770 264 c20 -74 15 -223 -14 -384 -15 -82 -29 -158 -32 -167
-5 -17 -48 -18 -714 -18 l-709 0 38 73 c22 39 56 112 77 160 29 70 34 91 24
97 -21 13 -34 2 -47 -38 -6 -20 -19 -55 -28 -77 -16 -38 -18 -39 -32 -20 -8
11 -24 39 -35 63 -20 44 -24 47 -46 33 -15 -9 4 -54 51 -121 l25 -35 -36 -67
-36 -68 -123 0 -123 0 0 305 0 305 875 0 874 0 11 -41z m3456 28 c-12 -9 -17
-23 -14 -42 4 -37 25 -44 37 -12 8 22 48 43 60 32 7 -8 4 -134 -9 -357 l-13
-218 -1518 0 -1518 0 23 35 c71 105 20 252 -103 293 -46 16 -114 15 -155 -2
-37 -16 -147 -137 -208 -231 -25 -38 -37 -51 -33 -35 44 209 59 411 37 508
l-10 42 1721 0 c1414 0 1718 -2 1703 -13z m552 6 c-21 -2 -55 -2 -75 0 -21 2
-4 4 37 4 41 0 58 -2 38 -4z m2327 -44 c13 -93 -25 -414 -52 -439 -4 -4 -208
-13 -452 -20 -245 -6 -448 -13 -452 -16 -4 -2 -273 -9 -596 -14 -349 -6 -661
-16 -768 -25 -210 -17 -365 -19 -365 -5 0 6 -13 10 -30 10 -31 0 -39 -17 -18
-38 9 -9 6 -12 -15 -12 -33 0 -32 -9 -13 295 7 116 11 228 8 249 l-5 39 159
-9 c201 -11 294 -10 524 5 131 8 384 10 865 6 524 -4 732 -3 905 8 124 8 241
15 262 16 l36 1 7 -51z m-8241 -34 c11 -17 16 -47 16 -101 l0 -76 -35 31 c-20
17 -66 47 -104 65 -93 47 -102 60 -59 86 24 15 50 20 99 20 60 0 68 -3 83 -25z
m-608 -561 c-10 -40 2 -67 27 -60 12 4 119 9 237 12 118 4 224 7 235 7 11 0
44 0 73 -1 l52 -2 0 -233 0 -234 -144 -6 c-79 -4 -184 -4 -234 -1 -102 8 -185
-9 -179 -36 2 -10 12 -14 27 -12 14 2 139 5 278 7 212 3 252 1 252 -11 0 -12
-77 -14 -510 -14 -280 0 -510 2 -510 4 0 30 -76 494 -95 584 l-5 22 251 0 251
0 -6 -26z m624 12 c0 -11 -27 -14 -142 -15 -79 -1 -209 -3 -290 -6 -143 -5
-148 -4 -148 15 0 20 7 20 290 20 242 0 290 -2 290 -14z m120 -1 c0 -12 -13
-15 -55 -15 -42 0 -55 3 -55 15 0 12 13 15 55 15 42 0 55 -3 55 -15z m250 11
c0 -30 -16 -36 -89 -36 -100 0 -151 9 -151 26 0 11 25 14 120 14 66 0 120 -2
120 -4z m1470 -21 c0 -20 -6 -25 -34 -31 -41 -7 -1392 -1 -1400 6 -3 3 -3 16
1 28 l5 22 714 0 714 0 0 -25z m-1720 -274 l0 -228 -37 -7 c-80 -13 -73 -33
-73 229 l0 235 55 0 55 0 0 -229z m230 210 c3 -4 286 -8 630 -10 393 -2 629
-7 637 -13 8 -6 29 -6 63 1 28 6 65 11 81 11 l31 0 -31 -39 c-98 -124 -75
-268 53 -333 29 -15 29 -15 -40 -21 -76 -7 -791 -24 -1311 -31 l-333 -4 0 228
0 228 108 -6 c59 -2 109 -8 112 -11z m7786 -28 l140 -6 -4 -58 c-4 -48 -1 -60
12 -65 18 -7 21 -80 6 -224 -6 -65 -5 -92 5 -112 l13 -28 -1468 0 -1469 0 5
38 c3 20 12 78 20 127 8 50 17 132 20 183 4 50 7 92 8 93 1 0 289 4 641 9 352
5 791 16 975 24 184 9 364 17 400 19 136 6 561 7 696 0z m-8016 -473 c0 -18
-7 -20 -55 -20 -41 0 -55 4 -55 14 0 9 13 16 33 19 71 9 77 8 77 -13z m-120
-63 l0 -33 -89 -18 c-49 -10 -97 -23 -107 -30 -21 -16 -9 -40 16 -33 25 6 28
-7 22 -76 -4 -50 -8 -60 -28 -67 -29 -11 -31 -36 -4 -50 15 -8 20 -23 22 -67
2 -46 7 -59 21 -61 15 -3 17 5 17 56 l0 59 43 7 c23 3 52 9 65 12 l22 6 0
-141 0 -141 -273 0 -273 0 -12 33 c-7 21 -8 46 -3 72 18 80 23 190 16 336 -6
131 -9 150 -24 147 -14 -3 -16 -27 -16 -218 -1 -131 -5 -233 -13 -261 -7 -30
-8 -57 -2 -78 l9 -31 -179 0 -178 0 -7 78 c-8 101 -43 413 -54 480 l-8 52 508
0 509 0 0 -33z m120 -12 c0 -44 0 -44 -26 -35 -14 6 -39 10 -55 10 -27 0 -29
3 -29 35 l0 35 55 0 55 0 0 -45z m1981 20 c-54 -31 -70 -51 -71 -87 0 -42 46
-83 133 -118 89 -37 102 -53 87 -109 -8 -32 -17 -42 -50 -55 -22 -9 -49 -16
-59 -16 -32 0 -81 22 -81 36 0 8 -9 14 -20 14 -29 0 -26 -34 5 -58 53 -42 156
-36 210 11 33 28 48 90 34 136 -10 28 -22 38 -85 67 -40 19 -77 34 -82 34 -17
0 -54 48 -50 66 5 26 77 65 113 62 25 -3 31 -8 33 -31 3 -20 8 -27 20 -25 26
5 27 47 1 74 l-22 24 206 0 207 0 0 -305 0 -305 -1250 0 -1251 0 5 188 c8 263
8 289 1 360 l-7 62 1009 0 1008 0 -44 -25z m5914 14 c-33 -4 -251 -12 -485
-18 -234 -5 -569 -16 -745 -23 -348 -14 -1333 -18 -1378 -5 -15 4 -25 12 -22
18 4 5 1 16 -5 24 -11 13 157 15 1341 14 745 -1 1327 -6 1294 -10z m-8015
-188 l0 -89 -50 -11 c-79 -17 -82 -16 -74 25 3 19 7 60 8 90 1 46 4 55 21 59
11 2 29 6 40 8 56 12 55 13 55 -82z m94 73 c18 -18 21 -76 5 -106 -9 -16 -64
-48 -84 -48 -3 0 -5 38 -5 85 l0 85 34 0 c19 0 42 -7 50 -16z m26 -319 l0
-165 -55 0 -55 0 0 143 0 144 40 12 c21 6 42 16 45 21 19 31 25 -5 25 -155z
m5860 63 c0 -13 28 -9 32 4 6 16 68 -44 68 -65 0 -23 -65 -75 -108 -86 -48
-13 -90 -2 -115 31 -20 26 -20 26 2 61 12 20 38 50 58 68 34 30 37 30 50 13 7
-10 13 -21 13 -26z m362 15 c4 -35 32 -38 36 -4 l4 23 29 -28 c38 -37 37 -55
-9 -104 -33 -34 -45 -40 -79 -40 -51 0 -101 17 -112 39 -13 24 10 71 53 109
46 40 74 42 78 5z m-6342 -284 l0 -32 -202 5 c-143 3 -203 8 -206 16 -7 23
-41 13 -48 -13 -4 -14 -4 -28 -1 -31 3 -3 107 -8 231 -11 l226 -6 0 -254 0
-253 -443 0 -443 0 -32 298 c-18 163 -33 300 -32 305 0 4 214 7 475 7 l475 0
0 -31z m120 -4 c0 -33 -2 -35 -32 -35 -60 0 -78 10 -78 41 0 28 1 29 55 29
l55 0 0 -35z m5262 9 l3 -27 145 -3 c80 -2 260 -9 400 -15 140 -6 516 -9 835
-7 566 3 1529 -7 1691 -18 80 -6 81 -6 93 -39 13 -36 39 -53 47 -31 3 8 0 24
-6 36 -13 24 -8 35 13 27 39 -15 53 -291 22 -433 l-16 -71 -1079 -2 c-594 -1
-1080 0 -1080 3 0 2 16 28 35 57 19 30 35 59 35 66 0 19 76 17 84 -2 3 -9 3
-35 0 -59 -7 -47 5 -65 28 -42 10 9 14 33 13 70 l-2 56 36 9 c20 5 45 11 56
13 11 2 21 11 23 21 4 20 -24 23 -78 7 -19 -5 -38 -6 -42 -2 -5 5 -10 50 -11
100 -1 66 -5 92 -14 92 -19 0 -55 -64 -103 -183 -24 -60 -56 -123 -72 -140
-18 -18 -28 -38 -25 -49 5 -17 -34 -18 -1035 -18 -985 0 -1039 1 -1036 18 2 9
89 85 193 169 178 141 207 171 179 180 -11 4 -353 -262 -387 -301 -10 -12 -22
-31 -27 -43 l-10 -23 -2080 0 -2080 0 0 250 0 250 278 0 c442 1 1329 18 1552
30 274 14 310 18 310 35 0 8 -3 16 -7 18 -5 3 -111 -2 -238 -9 -240 -14 -1165
-33 -1627 -34 l-268 0 0 35 0 35 2624 0 2625 0 3 -26z m3158 -2 l0 -29 -217 4
c-120 1 -468 8 -773 13 -305 6 -771 10 -1035 8 -470 -3 -966 7 -1055 22 -25 4
658 8 1518 9 l1562 1 0 -28z m-8452 -82 l32 0 0 -250 0 -250 -55 0 -55 0 0
256 0 256 23 -6 c12 -3 37 -6 55 -6z m6505 -272 c4 -47 4 -48 -23 -48 l-28 0
21 55 c12 30 23 51 24 47 1 -4 3 -28 6 -54z m-6593 -543 l0 -305 -415 0 c-228
0 -415 1 -415 3 0 1 -11 133 -25 292 -14 160 -25 296 -25 303 0 9 95 12 440
12 l440 0 0 -305z m120 0 l0 -305 -55 0 -55 0 0 305 0 305 55 0 55 0 0 -305z
m4158 206 c1 -111 34 -279 83 -420 16 -46 29 -86 29 -88 0 -1 -958 -3 -2130
-3 l-2130 0 0 305 0 305 2074 0 2074 0 0 -99z m1143 89 c-156 -3 -256 -9 -258
-15 -8 -28 18 -30 302 -24 160 4 414 3 565 -2 780 -25 1221 -21 1780 17 204
14 275 15 540 4 221 -9 313 -16 332 -26 22 -12 92 -14 355 -13 181 1 361 -3
401 -8 40 -5 75 -6 78 -2 2 4 13 5 24 2 16 -4 20 -14 20 -50 0 -80 -21 -186
-56 -292 -25 -73 -35 -117 -32 -148 l3 -43 -1514 0 c-1389 0 -1512 1 -1500 16
11 14 11 18 -4 29 -15 11 -17 25 -15 81 l3 69 75 10 c60 8 76 14 78 29 4 17
-1 18 -66 11 l-71 -7 15 48 c19 64 19 154 -1 154 -21 0 -38 -37 -30 -67 3 -14
-1 -49 -10 -79 -13 -46 -19 -54 -39 -54 -14 0 -26 5 -28 12 -9 26 -38 -2 -38
-37 0 -28 4 -35 20 -35 11 0 20 5 20 10 0 6 7 10 15 10 12 0 15 -15 15 -78 0
-54 5 -84 16 -100 l15 -22 -113 0 c-105 0 -111 1 -90 16 12 8 22 23 22 34 0
21 -54 70 -77 70 -30 0 -5 25 47 46 30 12 56 26 58 32 7 23 -23 23 -80 1 -100
-39 -111 -85 -31 -120 48 -21 49 -34 2 -44 -20 -5 -38 -1 -55 10 -33 22 -56 6
-36 -25 12 -19 9 -20 -49 -20 l-61 0 33 58 c75 130 82 152 52 151 -11 0 -28
-20 -44 -51 -14 -29 -30 -53 -36 -55 -6 -2 -16 10 -23 26 -16 40 -47 68 -61
54 -7 -7 1 -30 24 -74 28 -52 32 -68 24 -86 l-10 -23 -743 0 -743 0 -15 28
c-23 45 -64 185 -86 293 -20 98 -29 256 -15 278 4 8 205 10 678 9 432 -2 581
-4 418 -8z m2069 -2 c-220 -13 -1087 -14 -1390 -1 -219 8 -129 10 645 10 638
0 855 -3 745 -9z m2048 -13 c-9 -21 -17 -25 -37 -21 -64 13 -326 26 -426 21
-65 -3 -169 0 -255 8 l-145 15 437 1 438 1 -12 -25z m-9538 -900 l0 -305 -394
0 -393 0 -7 83 c-3 45 -10 156 -16 247 -5 91 -12 191 -15 223 l-6 57 416 0
415 0 0 -305z m120 0 l0 -305 -55 0 -55 0 0 305 0 305 55 0 55 0 0 -305z
m4332 192 c72 -140 163 -262 293 -394 l100 -103 -2357 0 -2358 0 0 305 0 305
2133 0 2132 0 57 -113z m-4452 -812 l0 -305 -360 0 c-304 0 -360 2 -360 14 0
8 -13 134 -30 281 -16 147 -30 277 -30 291 l0 24 390 0 390 0 0 -305z m120 0
l0 -305 -55 0 -55 0 0 305 0 305 55 0 55 0 0 -305z m7696 -80 c-7 -11 -21 -21
-30 -23 -14 -3 -15 0 -6 20 6 13 20 24 30 24 17 0 18 -3 6 -21z m-7816 -540
l0 -305 -304 0 -304 0 -21 93 c-26 112 -67 358 -77 450 l-7 67 357 0 356 0 0
-305z m120 0 l0 -305 -55 0 -55 0 0 305 0 305 55 0 55 0 0 -305z m7680 213
c-19 -81 -56 -140 -72 -116 -12 19 -10 93 4 123 9 19 19 25 44 25 31 0 32 -1
24 -32z m-7800 -609 l0 -80 -134 4 c-108 3 -138 7 -151 20 -9 10 -27 20 -39
23 -13 3 -33 19 -46 36 -16 22 -28 28 -43 24 -12 -3 -27 0 -34 6 -8 6 -40 12
-71 13 -79 2 -82 3 -82 20 0 13 40 15 300 15 l300 0 0 -81z m120 1 l0 -80 -55
0 -55 0 0 80 0 80 55 0 55 0 0 -80z m5467 63 c-49 -145 -87 -381 -87 -533 l0
-60 -1123 0 -1124 0 -154 30 c-85 16 -302 54 -484 84 -181 31 -397 69 -480 86
-156 32 -444 81 -577 99 -43 6 -238 24 -435 41 -327 28 -424 39 -728 84 -55 8
-137 18 -182 21 l-83 7 0 79 0 79 2731 0 c2597 0 2731 -1 2726 -17z m2713 2
c7 -8 16 -13 20 -10 10 6 13 -404 4 -507 l-7 -78 -546 0 c-619 1 -597 -4 -357
75 141 47 247 70 369 81 66 6 77 9 77 25 0 23 -18 24 -140 8 -160 -19 -391
-89 -528 -158 l-61 -31 -796 0 -795 0 0 63 c0 155 42 412 84 510 l15 37 1324
0 c1161 0 1326 -2 1337 -15z m-8851 -64 c21 -6 12 -11 -59 -39 -45 -18 -84
-31 -86 -29 -2 1 18 19 43 40 46 37 58 41 102 28z m147 -50 c5 1 28 -6 52 -17
43 -19 43 -19 24 -40 -12 -13 -59 -32 -118 -48 -54 -15 -145 -47 -203 -72
-108 -46 -131 -49 -131 -15 0 14 14 26 48 42 73 33 181 70 242 83 60 13 76 39
28 44 -24 3 -229 -62 -277 -87 -18 -10 -21 -9 -21 8 0 15 10 23 43 32 49 13
238 88 251 101 6 4 19 -1 32 -13 11 -11 25 -19 30 -18z m524 -96 c0 -24 0 -24
-40 -10 -76 27 -80 34 -17 35 54 0 57 -1 57 -25z m180 10 c69 -8 199 -25 290
-39 91 -14 305 -37 475 -51 488 -40 609 -56 1115 -154 140 -27 388 -71 550
-97 l295 -49 -958 -3 -957 -2 -118 54 c-226 103 -565 224 -807 288 -43 12 -50
17 -53 41 -4 33 -6 32 168 12z m-605 -51 c-10 -8 -54 -25 -99 -40 -45 -15
-136 -51 -204 -81 -123 -55 -152 -59 -152 -26 0 22 186 102 330 143 52 14 104
31 115 37 16 10 21 9 24 -4 2 -9 -5 -22 -14 -29z m189 17 c17 -5 50 -15 74
-21 l42 -11 0 -80 c0 -78 0 -79 -21 -68 -46 24 -164 59 -201 59 l-39 0 17 29
c15 25 16 36 6 69 -7 22 -12 42 -12 44 0 6 93 -8 134 -21z m236 -153 c0 -48
-3 -88 -6 -88 -3 0 -28 10 -55 21 l-49 21 0 83 0 82 55 -15 55 -15 0 -89z
m-390 96 c0 -3 -9 -17 -20 -31 -11 -14 -20 -33 -20 -42 0 -13 -2 -14 -9 -2 -8
12 -35 4 -158 -47 -157 -66 -213 -82 -213 -63 0 6 -1 13 -2 16 -4 8 163 82
277 122 55 19 107 39 115 44 18 10 30 11 30 3z m660 -99 c113 -40 283 -101
378 -136 l174 -64 -274 -3 -274 -2 -130 52 -129 53 -3 93 -3 93 28 -7 c15 -4
120 -39 233 -79z m-710 -10 c0 -12 -208 -106 -245 -110 l-40 -5 45 21 c59 28
223 98 233 98 4 1 7 -1 7 -4z m243 -35 l77 -32 0 -64 0 -64 -406 0 c-360 0
-405 2 -394 15 7 8 25 15 41 15 15 0 32 7 37 15 4 9 17 16 28 16 32 -1 88 -13
100 -22 23 -19 211 27 240 58 12 13 26 23 32 23 16 0 63 61 56 72 -14 22 112
0 189 -32z m195 -123 l3 -37 -55 0 -56 0 0 60 0 60 53 -23 c48 -21 52 -26 55
-60z m105 -12 l52 -24 -72 0 -73 -1 0 31 c0 35 4 34 93 -6z m-103 -340 l0
-305 -55 0 -55 0 0 305 0 305 55 0 55 0 0 -305z m276 270 c115 -46 346 -170
408 -219 78 -62 190 -172 266 -261 38 -45 70 -85 70 -89 0 -3 -121 -6 -269 -6
l-269 0 10 46 c12 55 4 97 -19 92 -12 -2 -17 -17 -18 -60 -2 -31 -6 -61 -10
-67 -4 -7 -79 -11 -221 -11 l-214 0 0 305 0 305 90 0 c80 0 100 -4 176 -35z
m706 -9 c215 -71 497 -204 912 -431 l238 -130 -524 -3 -523 -3 -45 53 c-96
113 -308 322 -371 363 -36 24 -132 78 -213 120 l-147 75 270 0 270 0 133 -44z
m856 -323 c108 -48 267 -122 352 -165 l155 -76 -60 -1 c-59 -1 -65 2 -345 154
-157 85 -292 159 -300 164 -39 25 17 4 198 -76z m3002 -64 c0 -5 -9 -9 -19 -9
-14 0 -18 5 -14 20 4 16 8 18 19 9 8 -6 14 -15 14 -20z m-4840 -494 l0 -305
-55 0 -55 0 0 121 c0 66 5 129 10 139 7 13 7 21 0 25 -5 3 -10 45 -10 92 0 67
3 88 16 98 15 10 15 13 0 27 -10 11 -16 34 -16 62 l0 46 55 0 55 0 0 -305z
m436 278 c-3 -16 -8 -44 -12 -64 l-6 -36 -41 9 c-22 5 -47 6 -55 3 -14 -5 -14
-8 0 -21 9 -9 31 -19 49 -23 34 -7 34 -7 31 -58 -4 -55 15 -106 43 -117 51
-19 175 9 175 40 0 21 -17 25 -46 9 -35 -18 -105 -20 -122 -3 -13 13 -16 68
-6 106 5 16 16 24 44 28 20 3 43 10 50 14 16 10 5 41 -12 36 -7 -3 -25 -7 -41
-10 -25 -6 -27 -4 -23 16 3 13 8 40 11 61 l6 37 277 0 277 0 110 -123 c86 -94
332 -388 398 -474 8 -10 -146 -13 -762 -13 l-771 0 0 305 0 305 216 0 216 0
-6 -27z m1749 13 c11 -7 118 -63 237 -124 214 -110 525 -278 748 -406 l115
-66 -840 0 -840 0 -160 198 c-88 108 -189 229 -225 267 -36 39 -81 87 -99 108
l-35 37 540 0 c438 0 543 -3 559 -14z m675 -183 c491 -200 586 -241 820 -347
l145 -66 -230 0 -230 0 -150 86 c-256 147 -551 307 -760 413 -109 56 -202 104
-205 107 -3 3 29 4 70 1 70 -4 106 -17 540 -194z m5773 -243 c4 -15 -1 -22
-18 -26 -38 -9 -47 -2 -30 24 20 27 41 28 48 2z m297 -155 c11 -13 6 -15 -36
-15 -45 1 -48 2 -30 15 25 19 50 19 66 0z m-8930 -330 l0 -305 -55 0 -55 0 0
305 0 305 55 0 55 0 0 -305z m1646 215 c83 -83 124 -109 124 -78 0 7 -35 46
-77 88 l-78 75 843 3 844 2 141 -77 c150 -81 327 -185 414 -244 l52 -35 -632
-17 c-681 -19 -1116 -34 -1267 -42 -52 -3 -90 -2 -83 2 8 6 10 25 4 67 -10 76
-3 157 16 178 16 18 10 38 -11 38 -7 0 -35 -11 -62 -25 -27 -14 -56 -25 -64
-25 -8 0 -31 -10 -50 -22 -19 -12 -42 -21 -50 -20 -19 3 -72 -46 -65 -59 4 -5
25 -9 49 -9 26 0 50 -7 62 -17 11 -10 41 -29 67 -43 27 -14 57 -35 68 -46 l20
-21 -143 -7 c-79 -4 -195 -12 -258 -17 -63 -5 -142 -7 -176 -3 -46 4 -69 2
-91 -10 -27 -14 -31 -21 -36 -75 -3 -33 -8 -64 -12 -70 -4 -8 -188 -11 -596
-11 l-589 0 0 305 0 305 773 0 773 0 90 -90z m3749 83 c-22 -1 -112 -13 -200
-24 -99 -13 -182 -19 -217 -15 -55 5 -58 5 -72 -22 -20 -38 -36 -133 -36 -209
0 -41 -4 -62 -10 -58 -6 4 -8 10 -5 14 2 5 -16 23 -40 40 -25 18 -45 38 -45
45 0 17 -36 49 -48 42 -5 -3 -15 -26 -21 -51 -6 -25 -13 -45 -16 -45 -2 0 -71
27 -152 61 -81 33 -238 97 -348 141 -110 44 -202 82 -204 84 -2 2 324 3 725 2
401 -1 711 -3 689 -5z m-585 -348 c0 -8 -9 -15 -20 -15 -22 0 -27 15 -7 23 21
9 27 7 27 -8z m-772 -91 l62 -46 0 -59 0 -59 -190 0 -190 0 6 59 c8 71 -6 86
-44 47 -24 -23 -25 -27 -10 -38 12 -9 15 -22 11 -40 l-5 -28 -493 0 c-426 0
-494 2 -505 15 -17 20 -125 20 -164 0 -43 -22 -701 -22 -710 0 -7 20 -117 20
-223 0 -45 -9 -134 -15 -212 -15 l-134 0 7 38 c3 20 6 46 6 57 0 18 7 20 73
21 39 0 122 6 184 12 194 19 1827 77 2274 81 l195 1 62 -46z m49 39 c-4 -3 -1
-13 6 -21 9 -11 4 -11 -15 2 -34 22 -35 26 -6 26 12 0 18 -3 15 -7z m119 -163
l57 -40 -61 0 -62 0 0 40 c0 22 2 40 5 40 2 0 30 -18 61 -40z m1677 3 c-13 -2
-33 -2 -45 0 -13 2 -3 4 22 4 25 0 35 -2 23 -4z m-5883 -358 l0 -305 -55 0
-55 0 0 305 0 305 55 0 55 0 0 -305z m1186 288 c-11 -39 -35 -171 -41 -228 -3
-33 -11 -97 -16 -143 -12 -87 -7 -132 14 -132 9 0 19 55 35 193 12 105 29 222
38 260 l16 67 44 0 c36 0 42 -3 37 -16 -9 -25 9 -30 94 -23 43 3 84 1 90 -4 9
-6 13 -52 15 -145 3 -129 4 -137 23 -137 18 0 19 6 16 131 -3 130 -2 131 24
160 l27 29 440 3 c435 3 439 3 429 -17 -16 -29 -13 -78 6 -107 9 -15 41 -44
70 -65 62 -47 67 -71 24 -118 -38 -40 -71 -40 -105 -1 -26 31 -42 89 -33 114
3 8 0 20 -8 26 -11 9 -16 7 -24 -9 -36 -67 35 -201 106 -201 64 0 133 66 133
129 0 34 -11 47 -93 114 -35 29 -47 45 -47 66 0 48 21 64 90 69 60 4 62 4 59
-19 -2 -13 0 -30 5 -37 11 -19 36 4 36 34 l0 24 496 0 497 0 -7 -52 c-9 -66
-10 -68 -52 -68 -27 0 -34 -4 -34 -20 0 -16 7 -20 31 -20 28 0 31 -3 25 -22
-39 -137 4 -198 108 -154 39 16 53 33 38 48 -6 6 -20 4 -42 -7 -38 -20 -74
-16 -78 7 -2 10 2 42 8 72 l11 53 71 7 c76 7 105 20 88 40 -7 9 -25 10 -69 2
-34 -5 -63 -7 -67 -4 -3 4 -3 31 1 62 l7 56 193 0 192 0 6 -123 c6 -108 -5
-339 -18 -374 -2 -6 0 -24 4 -40 l8 -28 -211 0 c-116 0 -400 -6 -631 -13
-1004 -31 -1189 -32 -1680 -16 -394 13 -475 18 -502 31 -26 14 -37 15 -57 5
-32 -14 -33 -30 -3 -42 13 -5 -176 -9 -495 -9 l-518 -1 0 305 0 305 591 0
c558 0 590 -1 585 -17z m3204 -61 c159 -107 318 -222 430 -312 52 -41 109 -85
125 -97 l30 -22 -22 -16 c-35 -25 -29 -45 13 -45 23 0 42 -7 50 -17 13 -17 15
-17 27 -2 12 16 15 15 47 -2 35 -18 29 -18 -387 -19 -316 0 -422 3 -420 12 3
15 -36 26 -98 27 l-51 1 3 48 c2 26 7 98 13 161 5 63 7 170 3 238 l-6 123 64
0 c64 0 66 -1 179 -78z m2503 25 c37 -117 46 -332 21 -509 l-7 -48 -295 0
c-252 0 -293 2 -283 14 29 34 6 35 -479 6 -354 -22 -655 -26 -645 -10 3 5 1
19 -5 30 -9 16 -8 25 1 36 9 11 9 17 -1 29 -7 8 -10 21 -7 29 3 8 0 19 -7 25
-10 9 -29 3 -74 -23 -57 -32 -60 -33 -65 -14 -4 14 -11 18 -25 14 -14 -5 -48
16 -128 79 -60 46 -201 151 -314 232 -113 81 -209 150 -214 155 -6 4 557 8
1250 8 l1260 0 17 -53z m-2900 -554 c-57 -2 -149 -2 -205 0 -57 1 -11 3 102 3
113 0 159 -2 103 -3z m-3993 -318 l0 -305 -55 0 -55 0 0 305 0 305 55 0 55 0
0 -305z m1625 290 c335 -12 492 -13 775 -4 195 6 936 12 1645 14 1154 3 1276
2 1160 -11 -77 -8 -206 -13 -317 -11 -193 2 -218 -2 -204 -38 4 -12 10 -14 23
-7 15 9 66 7 121 -4 31 -6 29 -57 -4 -170 -38 -126 -53 -193 -56 -242 -2 -30
-8 -44 -20 -48 -22 -7 -23 -24 -3 -50 14 -17 16 -17 28 -3 11 14 60 15 502 7
878 -16 737 -25 -422 -26 l-1122 -2 5 32 c7 41 -10 88 -32 88 -14 0 -15 -7
-10 -43 13 -85 142 -77 -1208 -76 -730 0 -1189 4 -1171 10 51 15 362 58 535
74 212 19 1191 65 1560 73 244 6 285 9 285 22 0 30 -263 26 -1240 -20 -653
-31 -1054 -73 -1200 -127 l-70 -26 -587 -4 -588 -4 0 306 0 305 598 0 c328 0
786 -7 1017 -15z m4655 -43 c0 -39 -15 -110 -46 -217 -26 -92 -48 -191 -51
-234 l-6 -74 -81 7 c-254 22 -395 28 -811 34 -253 4 -465 11 -472 15 -16 10
-6 72 34 212 20 66 38 148 40 183 l6 62 85 0 c46 0 159 7 251 16 268 26 692
51 879 53 l172 1 0 -58z m623 16 c-13 -109 -47 -230 -110 -392 l-68 -176 -246
0 c-216 0 -248 2 -253 16 -15 38 -4 127 30 244 54 187 64 229 64 293 l0 57
294 0 294 0 -5 -42z m-6903 -883 l0 -305 -55 0 -55 0 0 305 0 305 55 0 55 0 0
-305z m1116 288 c-14 -49 -37 -215 -51 -363 -8 -91 -17 -180 -21 -197 l-6 -33
-514 0 -514 0 0 305 0 305 556 0 c524 0 555 -1 550 -17z m2574 11 c0 -4 -8
-12 -17 -19 -14 -11 -15 -16 -4 -28 10 -13 10 -35 0 -116 -7 -56 -16 -101 -22
-101 -5 0 -46 -36 -92 -80 -84 -82 -131 -157 -142 -226 l-6 -34 -1165 0 -1164
0 6 33 c4 17 13 104 21 192 21 226 43 349 61 335 15 -13 34 -5 34 14 0 36 -7
36 1257 36 678 0 1233 -3 1233 -6z m1770 -18 c17 -33 9 -177 -24 -395 -14 -95
-26 -177 -26 -182 0 -5 -260 -9 -597 -9 l-598 0 0 89 c0 85 -2 91 -31 128 -46
56 -98 83 -164 82 -30 0 -68 -6 -85 -13 -27 -11 -32 -10 -47 10 -26 32 -98 64
-144 64 l-40 0 9 83 c4 45 10 101 13 125 l5 42 858 0 858 0 13 -24z m1255 6
c-31 -81 -49 -196 -49 -317 -1 -114 3 -139 25 -202 l25 -73 -633 0 c-348 0
-633 3 -633 8 0 4 13 99 30 212 16 113 30 247 30 297 l0 93 606 0 c571 0 606
-1 599 -18z m2006 -423 c8 -12 13 -69 7 -69 -2 0 -21 7 -43 15 -22 8 -65 15
-95 15 -46 1 -60 6 -90 31 l-35 31 124 -5 c90 -3 125 -8 132 -18z m-868 -26
c-7 -2 -21 -2 -30 0 -10 3 -4 5 12 5 17 0 24 -2 18 -5z m-7853 -458 l0 -305
-55 0 -55 0 0 305 0 305 55 0 55 0 0 -305z m1030 288 c0 -9 -7 -24 -16 -34 -9
-10 -13 -22 -10 -27 11 -18 138 -31 466 -48 565 -29 1807 -21 1923 12 9 3 17
13 17 22 0 11 7 6 19 -13 36 -61 152 -134 211 -135 18 -1 33 -12 52 -40 97
-140 312 -97 358 72 7 23 32 59 70 97 32 33 66 71 76 85 l16 26 600 0 600 0
-6 -37 c-10 -65 -35 -333 -41 -455 l-7 -118 -2674 0 -2674 0 0 305 0 305 510
0 c470 0 510 -1 510 -17z m2380 0 c-1 -10 -16 -28 -35 -40 -30 -19 -60 -24
-217 -35 -266 -19 -1292 -16 -1688 6 -383 20 -410 23 -404 42 2 8 6 21 9 29 4
13 143 15 1170 15 1103 0 1165 -1 1165 -17z m3341 -44 c37 -69 95 -124 141
-133 40 -8 133 -8 141 1 17 16 -19 33 -69 33 -65 0 -97 12 -130 47 -23 25 -64
94 -64 108 0 3 86 5 192 5 190 0 191 0 173 -20 -10 -11 -26 -20 -35 -20 -24 0
-30 -20 -30 -94 0 -55 -4 -68 -30 -101 -72 -91 -63 -206 23 -282 48 -42 97
-57 166 -49 124 13 129 12 163 -16 l33 -27 -1013 -1 -1014 0 7 118 c6 122 31
390 41 455 l6 37 633 0 634 0 32 -61z m-6751 -864 l0 -305 -55 0 -55 0 0 305
0 305 55 0 55 0 0 -305z m5364 98 c6 -182 23 -338 42 -387 6 -14 -18 -16 -255
-16 l-261 0 5 25 c3 14 7 36 10 50 3 14 3 30 1 34 -9 14 -56 0 -56 -16 0 -13
-8 -14 -47 -7 -67 12 -406 13 -743 2 -157 -5 -656 -10 -1110 -11 -454 -2 -928
-7 -1055 -11 -126 -4 -302 -9 -390 -11 -205 -4 -194 -2 -207 -31 l-11 -24
-639 0 -638 0 0 305 0 305 2673 0 2674 0 7 -207z m5505 -309 c26 -5 31 -11 31
-35 0 -15 5 -31 10 -34 6 -3 10 -10 10 -16 0 -5 -524 -8 -1382 -8 -1467 2
-1493 3 -703 39 138 6 396 17 575 26 179 8 494 15 700 15 206 0 422 3 480 8
140 11 241 12 279 5z m-6063 -49 c44 -6 51 -9 47 -26 -5 -19 -40 -19 -1757
-18 -1097 0 -1740 4 -1721 10 17 5 89 9 160 8 72 -1 234 2 360 6 127 5 606 10
1065 12 459 2 936 7 1060 11 261 9 712 7 786 -3z m-4806 -360 l0 -305 -55 0
-55 0 0 305 0 305 55 0 55 0 0 -305z m4836 93 c-3 -117 -9 -255 -13 -305 l-6
-93 -248 0 -249 0 0 33 c0 21 7 36 20 45 25 15 26 54 3 93 -26 43 -55 36 -68
-18 l-10 -42 -24 18 c-28 21 -22 56 10 64 28 7 19 31 -13 35 -30 4 -47 -15
-55 -61 -4 -29 -1 -38 23 -61 16 -15 39 -29 52 -32 17 -5 22 -13 22 -40 l0
-34 -805 0 c-443 0 -805 2 -805 5 0 3 7 17 16 30 12 18 15 42 11 97 -2 40 -7
83 -12 95 -8 24 -6 24 78 38 22 4 37 11 37 20 0 22 -11 24 -74 14 -67 -11 -76
-5 -76 47 0 35 52 114 74 114 8 0 27 -5 42 -10 21 -9 31 -8 42 4 14 14 12 16
-11 25 -15 6 -27 15 -27 21 0 5 -11 10 -25 10 -28 0 -99 -59 -120 -101 -18
-33 -16 -169 2 -169 17 0 33 -57 33 -122 0 -52 -3 -63 -29 -89 -28 -28 -34
-29 -116 -29 -79 0 -86 2 -80 18 4 9 10 54 13 99 l4 82 37 3 c50 4 49 32 -2
36 -37 3 -37 4 -32 40 2 20 7 66 10 102 8 86 38 155 62 145 66 -28 73 -29 84
-18 14 14 3 33 -19 33 -10 0 -25 9 -35 20 -22 26 -29 25 -65 -5 -39 -33 -61
-89 -67 -178 -10 -120 -14 -137 -34 -137 -21 0 -44 -23 -34 -33 3 -4 17 -7 30
-7 21 0 23 -4 23 -56 0 -30 -5 -75 -11 -100 l-11 -44 -533 0 -532 0 -7 217
c-5 150 -4 219 3 221 17 6 13 27 -8 46 -40 37 -43 17 -36 -240 l8 -244 -637 0
-636 0 0 305 0 305 2417 0 2416 0 -7 -212z m608 135 c40 -102 117 -230 167
-275 79 -72 216 -107 424 -108 77 -1 146 -1 153 0 21 0 13 27 -10 34 -13 3
-81 6 -151 6 -208 0 -340 40 -416 127 -36 41 -128 212 -146 271 l-6 22 720 0
721 0 0 -21 c0 -12 8 -23 18 -26 14 -3 22 -24 35 -86 20 -98 21 -190 3 -311
-13 -83 -10 -135 7 -136 4 0 11 0 16 0 4 0 9 26 9 58 0 31 5 77 11 102 6 25
11 81 11 126 0 87 -32 263 -50 274 -20 12 931 20 2455 20 l1502 0 6 -95 c4
-52 2 -130 -4 -173 -22 -167 -29 -239 -29 -289 l0 -53 -87 0 -88 0 43 20 c54
25 56 53 5 104 -38 38 -37 52 6 58 32 4 38 24 11 38 -17 9 -28 7 -58 -8 -47
-25 -46 -52 5 -104 20 -21 35 -39 32 -41 -17 -16 -54 -27 -88 -27 -49 0 -71
-8 -71 -26 0 -12 -164 -14 -1085 -14 -984 0 -1085 1 -1085 16 0 12 9 15 42 12
33 -2 43 1 46 13 3 17 -24 29 -69 29 -23 0 -29 8 -49 60 -20 53 -21 61 -7 75
35 35 29 116 -6 87 -8 -7 -27 -9 -45 -6 -24 5 -36 1 -56 -19 -14 -15 -26 -35
-26 -46 0 -24 43 -56 64 -48 9 4 21 -10 35 -45 27 -66 27 -68 -13 -68 -46 0
-95 -19 -107 -41 -9 -19 -51 -19 -1696 -19 l-1686 0 6 93 c4 50 10 188 13 305
l7 212 266 0 266 0 29 -77z m2896 -298 c0 -16 -27 -32 -37 -21 -7 7 16 36 28
36 5 0 9 -7 9 -15z m-4023 -117 c-3 -8 -6 -5 -6 6 -1 11 2 17 5 13 3 -3 4 -12
1 -19z m4073 -108 c0 -6 -26 -10 -57 -10 -41 0 -54 3 -43 10 20 13 100 13 100
0z m-8390 -325 l0 -305 -55 0 -55 0 0 305 0 305 55 0 55 0 0 -305z m1284 289
c3 -9 6 -73 6 -142 0 -143 15 -328 30 -368 6 -14 16 -24 23 -21 13 4 13 7 -2
167 -6 63 -12 175 -13 248 l-3 132 528 0 528 0 -11 -21 c-7 -11 -9 -27 -6 -35
8 -21 33 -7 46 27 12 29 14 29 91 29 64 0 79 -3 79 -15 0 -19 13 -19 50 0 25
13 134 15 842 13 l813 -3 3 -32 3 -33 -55 0 c-68 0 -80 -17 -74 -97 4 -42 11
-60 31 -81 26 -25 27 -26 60 -10 38 18 67 69 67 117 0 28 3 31 31 31 24 0 30
4 27 18 -2 9 -13 18 -25 20 -16 2 -22 12 -25 38 l-4 34 246 0 245 0 1 -133 c1
-120 4 -140 31 -217 34 -96 59 -220 50 -244 -6 -14 -65 -16 -604 -13 -403 2
-631 7 -700 16 -82 10 -133 10 -255 0 -88 -7 -401 -14 -739 -16 l-587 -4 -5
43 c-3 24 -9 66 -13 95 -6 49 -5 51 15 46 56 -14 111 28 111 86 0 57 -27 86
-78 84 -52 -2 -80 -17 -88 -47 -3 -13 -16 -33 -30 -45 l-24 -21 25 -56 c18
-41 25 -74 25 -120 l0 -64 -298 0 c-218 0 -301 3 -310 12 -9 9 -15 9 -24 0 -9
-9 -169 -12 -660 -12 l-648 0 0 305 0 305 634 0 c569 0 634 -2 640 -16z m7106
8 c0 -16 -45 -50 -76 -56 -27 -6 -32 -4 -38 16 -12 45 -9 48 54 48 33 0 60 -4
60 -8z m2405 -4 c-60 -5 -351 -9 -645 -9 -361 1 -711 -6 -1075 -19 -297 -11
-568 -20 -602 -20 l-61 0 11 30 11 30 1236 -2 c847 -1 1200 -4 1125 -10z
m-6518 -140 c-4 -28 -14 -49 -28 -61 -22 -18 -24 -18 -36 -1 -7 10 -13 37 -13
61 l0 43 41 0 42 0 -6 -42z m-2197 -189 c0 -22 -7 -32 -27 -42 -21 -9 -27 -9
-31 1 -2 6 -10 12 -17 12 -8 0 -12 11 -10 33 2 26 7 33 31 38 37 7 54 -6 54
-42z m-2080 -584 l0 -305 -55 0 -55 0 0 305 0 305 55 0 55 0 0 -305z m1317
288 c23 -15 65 -19 292 -25 146 -4 280 -9 296 -12 17 -3 219 -8 450 -11 438
-6 457 -5 795 41 161 21 435 22 585 1 66 -9 224 -21 350 -27 127 -6 287 -13
356 -16 119 -6 271 7 400 35 32 7 36 5 31 -11 -6 -25 27 -36 43 -15 10 14 31
17 116 17 57 0 201 9 319 20 159 15 295 20 521 20 l307 0 15 -32 c11 -23 19
-94 27 -228 6 -107 15 -224 20 -260 5 -36 10 -71 10 -77 0 -10 -125 -13 -590
-13 l-590 0 0 119 0 119 -47 0 c-55 -1 -76 -15 -104 -70 -23 -45 -24 -81 -4
-98 13 -10 24 -8 65 13 l50 26 0 -54 0 -55 -1092 0 -1093 0 0 92 c0 103 1 105
88 107 31 1 38 4 35 19 -3 14 -14 17 -65 15 l-61 -3 -4 108 c-3 59 -1 112 4
118 14 18 -16 35 -51 28 -34 -7 -41 -28 -13 -43 15 -8 17 -25 17 -123 l0 -113
-42 -9 c-32 -8 -43 -15 -43 -29 0 -17 5 -19 44 -13 40 6 44 5 50 -16 3 -13 6
-43 6 -68 0 -26 5 -51 12 -58 9 -9 -76 -12 -385 -12 l-397 0 -1 23 c-1 12 -1
74 -1 136 1 92 5 117 17 123 25 15 18 38 -12 38 -16 0 -34 4 -41 9 -20 12 23
20 153 27 129 7 137 8 129 29 -5 12 -23 15 -88 14 -44 0 -103 -5 -131 -10 -27
-6 -90 -12 -140 -14 -114 -5 -137 -11 -133 -32 3 -15 16 -17 98 -14 74 2 92 0
83 -9 -14 -15 -6 -40 13 -40 12 0 13 -22 10 -122 -2 -68 1 -131 6 -140 8 -17
-9 -18 -302 -18 l-310 0 0 188 0 189 25 11 c27 13 33 30 12 38 -21 8 -107 -33
-107 -51 0 -8 7 -15 15 -15 13 0 15 -27 15 -180 l0 -180 -670 0 -670 0 0 305
0 305 640 0 c591 0 643 -1 667 -17z m633 8 c0 -8 -171 -4 -195 4 -5 2 36 4 93
4 56 1 102 -3 102 -8z m945 -7 c-82 -11 -194 -13 -445 -10 -184 3 -359 5 -387
6 -29 0 -53 5 -53 10 0 7 172 10 498 9 474 -1 492 -2 387 -15z m1758 -1 c-80
-13 -125 -13 -380 0 l-288 14 380 1 c370 0 378 -1 288 -15z m3285 -1 c3 -11
-56 -48 -64 -39 -2 2 5 16 17 31 21 27 39 30 47 8z m388 -24 l-22 -42 24 -36
c41 -61 94 -75 172 -44 28 11 40 22 40 36 0 15 -5 19 -17 15 -84 -28 -102 -30
-128 -19 l-26 12 46 43 c25 24 45 51 45 60 0 15 13 17 89 17 l89 0 11 -31 c17
-48 15 -53 -34 -87 -25 -17 -45 -36 -45 -42 0 -14 30 -25 39 -14 3 5 20 19 37
31 l31 22 24 -37 c26 -40 59 -55 59 -27 0 9 -9 28 -20 42 -27 35 -25 44 15 72
19 13 35 28 35 33 0 19 -31 19 -59 -1 -25 -18 -30 -19 -35 -5 -18 46 -69 44
969 44 l975 0 0 -130 0 -130 -52 0 c-29 -1 -116 -7 -193 -15 -246 -25 -758
-53 -1180 -65 -225 -6 -471 -15 -545 -20 -74 -5 -196 -9 -271 -10 -135 0 -136
0 -147 24 -6 14 -23 32 -37 42 -24 16 -25 19 -25 129 0 62 3 127 6 144 l7 31
72 0 73 0 -22 -42z m69 2 c-16 -16 -31 -28 -33 -25 -9 9 29 55 45 55 13 0 10
-7 -12 -30z m-248 -15 c-4 -8 -11 -15 -17 -15 -7 0 -7 6 0 21 13 23 26 19 17
-6z m-17 -290 c0 -14 -29 -35 -49 -35 -12 0 -2 32 13 42 18 12 36 9 36 -7z
m74 -1 c21 -21 20 -24 -9 -24 -18 0 -25 5 -25 20 0 24 13 26 34 4z m-3184 -94
c-11 -21 -58 -60 -72 -60 -14 0 1 42 24 66 24 27 63 22 48 -6z m3085 20 c-3
-5 -12 -10 -18 -10 -7 0 -6 4 3 10 19 12 23 12 15 0z m-3075 -227 c0 -29 -34
-191 -41 -197 -2 -2 -445 -6 -984 -10 -709 -4 -1010 -3 -1090 5 -169 18 -607
15 -845 -5 -217 -19 -640 -27 -640 -12 0 4 -12 5 -26 2 -22 -6 -25 -4 -20 9 3
9 6 66 6 126 l0 109 1820 0 1820 0 0 -27z"/>
<path d="M3200 14238 c-25 -13 -46 -30 -48 -40 -2 -9 11 -32 27 -51 17 -19 31
-37 31 -40 0 -12 -92 -19 -103 -8 -19 19 -39 13 -35 -11 5 -34 45 -44 117 -28
33 7 68 18 78 25 14 11 12 17 -27 59 -24 25 -41 48 -39 50 16 14 53 26 79 26
25 0 31 4 28 18 -5 26 -56 26 -108 0z"/>
<path d="M2963 14240 c-52 -21 -51 -81 2 -116 42 -27 28 -54 -30 -54 -22 0
-50 22 -40 32 3 3 -1 10 -9 17 -21 18 -50 -13 -36 -39 31 -57 114 -68 161 -20
26 26 28 32 18 51 -6 13 -25 34 -41 47 -26 22 -28 26 -14 40 13 13 20 13 42 3
40 -18 58 3 25 30 -25 21 -44 23 -78 9z"/>
<path d="M2552 14142 c-33 -33 -38 -43 -34 -75 12 -101 128 -116 239 -31 33
25 44 54 21 54 -7 0 -38 -16 -68 -35 -57 -37 -115 -46 -138 -23 -21 21 -14 38
16 38 35 0 56 45 38 81 -17 35 -32 33 -74 -9z"/>
<path d="M2517 13204 c-4 -4 -7 -56 -7 -115 l0 -108 -41 -11 c-41 -11 -59 -34
-42 -51 6 -6 20 -4 39 6 16 8 33 15 38 15 5 0 6 -42 2 -98 -5 -80 -4 -101 8
-111 21 -18 25 -4 33 112 6 114 8 116 71 117 17 0 22 5 20 18 -3 13 -13 17
-45 16 l-42 -1 -3 105 c-3 97 -11 126 -31 106z"/>
<path d="M2996 13133 c16 -87 9 -221 -15 -306 -25 -88 -23 -107 14 -107 18 0
25 5 25 20 0 11 -4 20 -8 20 -4 0 2 39 14 88 37 141 26 322 -20 330 -17 4 -18
0 -10 -45z"/>
<path d="M3598 12986 c-120 -43 -125 -89 -16 -136 63 -27 53 -39 -38 -46 -57
-5 -76 -2 -109 15 -43 23 -68 15 -49 -17 18 -27 91 -44 166 -38 84 7 118 22
118 51 0 27 -20 45 -84 77 l-48 25 49 21 c27 11 59 19 70 16 22 -6 41 12 27
26 -18 16 -50 19 -86 6z"/>
<path d="M3285 12939 c-4 -5 1 -19 10 -29 32 -36 -9 -120 -58 -120 -36 0 -47
19 -47 81 0 44 -4 58 -17 63 -26 10 -31 -4 -26 -71 4 -47 11 -69 29 -88 62
-67 174 7 174 114 0 45 -47 81 -65 50z"/>
<path d="M8965 13178 c-12 -30 -16 -50 -31 -145 -4 -30 -8 -33 -38 -33 -35 0
-62 -21 -51 -40 4 -6 20 -8 42 -4 l36 7 -7 -37 c-14 -73 43 -141 102 -120 39
14 36 40 -5 36 -45 -3 -66 30 -57 87 l7 41 59 0 c43 0 60 -4 64 -15 4 -8 13
-15 21 -15 10 0 13 9 11 33 l-3 32 -71 3 -71 3 9 62 c4 34 13 74 19 89 11 27
6 48 -12 48 -6 0 -16 -15 -24 -32z"/>
<path d="M8683 13124 c-8 -21 23 -52 38 -37 8 8 8 17 0 32 -14 25 -29 27 -38
5z"/>
<path d="M8035 13102 c-16 -10 -36 -30 -43 -44 -20 -37 4 -77 82 -138 35 -28
67 -58 71 -68 8 -21 -28 -52 -61 -52 -29 0 -64 33 -64 60 0 24 -29 38 -40 20
-23 -37 48 -120 102 -120 52 0 108 47 108 90 0 15 -69 88 -103 109 -18 11 -40
33 -50 50 -17 29 -17 30 9 50 33 26 50 26 93 0 23 -14 37 -17 44 -10 13 13 -6
37 -44 57 -37 19 -68 18 -104 -4z"/>
<path d="M9390 13094 c-43 -19 -73 -46 -111 -101 -50 -73 -38 -118 43 -154 71
-31 261 -41 271 -15 9 22 0 24 -113 28 -113 5 -190 32 -190 68 0 32 60 110
101 131 32 16 39 17 49 4 14 -17 36 -20 45 -5 6 10 -38 60 -52 60 -4 -1 -24
-8 -43 -16z"/>
<path d="M9726 13049 c-52 -41 -25 -99 68 -146 41 -21 41 -20 26 -38 -16 -19
-84 -20 -104 0 -23 23 -48 19 -44 -7 4 -33 44 -49 105 -45 59 4 93 27 93 62 0
25 -16 41 -82 79 -27 15 -48 33 -48 39 0 37 68 52 77 17 3 -12 14 -20 25 -20
17 0 19 4 13 27 -4 16 -11 34 -17 40 -17 20 -82 16 -112 -8z"/>
<path d="M9993 13045 c-17 -7 -39 -25 -48 -39 -17 -25 -16 -27 9 -61 17 -21
41 -39 66 -46 73 -22 72 -45 -2 -63 -22 -5 -28 -3 -28 10 0 21 -34 14 -38 -9
-2 -10 2 -25 9 -33 23 -28 137 4 158 45 14 26 -18 66 -67 82 -42 13 -72 36
-72 54 0 20 54 37 94 30 28 -6 36 -4 36 7 0 38 -57 49 -117 23z"/>
<path d="M8297 12993 c-10 -16 10 -141 26 -166 35 -53 111 -42 154 22 27 40
32 121 8 141 -23 19 -36 2 -29 -36 8 -44 -1 -79 -28 -104 -50 -47 -88 -9 -88
87 0 56 -2 63 -19 63 -11 0 -22 -3 -24 -7z"/>
<path d="M8596 12933 c-3 -10 -8 -39 -11 -65 -6 -41 -4 -48 14 -58 12 -6 26
-8 31 -5 13 8 13 35 -1 35 -15 0 0 63 17 73 8 4 14 15 14 22 0 22 -57 20 -64
-2z"/>
<path d="M8593 12354 c-3 -9 3 -25 16 -37 21 -21 23 -21 35 -4 9 11 26 17 52
17 l39 -1 -75 -39 c-41 -21 -78 -39 -82 -40 -4 0 -2 14 4 30 11 32 5 60 -12
60 -11 0 -30 -43 -62 -135 -23 -69 -18 -162 9 -172 17 -7 35 15 26 32 -3 5 0
4 8 -2 40 -38 239 22 239 72 0 13 -55 65 -70 65 -4 0 -25 7 -46 16 l-39 16 60
30 c72 36 95 55 95 78 0 25 -20 30 -111 30 -63 0 -81 -3 -86 -16z m65 -174
c83 -30 95 -46 50 -64 -61 -26 -88 -29 -115 -15 -22 12 -27 11 -37 -4 -25 -34
-36 22 -16 80 13 36 27 36 118 3z"/>
<path d="M9322 12348 c-6 -7 -13 -53 -17 -103 -3 -49 -13 -107 -22 -128 -15
-34 -15 -39 -1 -54 19 -18 38 -10 38 18 0 11 4 28 10 38 5 10 10 46 11 80 1
34 6 64 11 67 4 3 8 -2 8 -10 0 -24 37 -56 65 -56 17 0 42 18 81 58 31 31 53
49 50 39 -3 -10 -9 -49 -12 -86 -6 -61 -4 -69 17 -94 14 -17 36 -29 53 -30 40
-3 45 21 7 36 -41 15 -45 33 -30 133 8 57 9 88 2 95 -17 17 -62 -8 -113 -63
-29 -31 -53 -49 -62 -46 -12 5 -23 32 -44 106 -2 6 -12 12 -22 12 -11 0 -24
-6 -30 -12z"/>
<path d="M8909 12318 c0 -2 -2 -30 -5 -63 -2 -33 -9 -82 -15 -110 -8 -43 -7
-51 8 -62 9 -7 13 -13 9 -13 -5 0 -3 -7 4 -15 10 -12 15 -12 33 -1 23 15 111
29 187 30 34 1 46 5 48 18 5 25 -49 31 -148 14 -47 -8 -88 -12 -92 -9 -5 2 -8
17 -8 34 0 28 2 29 53 31 28 1 71 1 95 -1 33 -1 42 1 42 14 0 24 -43 35 -115
28 l-66 -6 3 54 c2 44 0 54 -14 57 -10 2 -18 2 -19 0z"/>
<path d="M8995 12301 c-16 -3 -31 -13 -33 -22 -3 -15 10 -17 97 -15 86 1 101
3 101 17 0 9 -7 20 -16 23 -19 7 -109 6 -149 -3z"/>
<path d="M4030 11964 c-103 -44 -92 -145 22 -200 32 -15 66 -36 75 -46 21 -24
20 -85 -1 -107 -23 -22 -120 -21 -143 1 -15 16 -15 19 1 43 9 14 14 30 11 35
-12 20 -32 9 -51 -25 -17 -32 -18 -38 -4 -63 20 -35 85 -57 145 -48 83 13 125
91 87 164 -14 27 -36 46 -86 72 -37 20 -71 42 -76 50 -19 30 -11 60 23 80 39
24 66 25 82 3 14 -19 35 -9 35 17 0 39 -59 50 -120 24z"/>
<path d="M3565 11918 c-111 -58 -178 -150 -177 -244 1 -108 60 -150 209 -148
73 1 88 4 129 30 56 35 74 58 57 75 -9 9 -20 5 -48 -19 -44 -39 -71 -47 -160
-47 -79 1 -129 21 -141 57 -29 93 31 199 146 258 49 25 53 25 40 1 -5 -11 -10
-34 -10 -51 0 -41 27 -51 53 -19 15 19 18 33 13 68 -9 67 -39 77 -111 39z"/>
<path d="M3085 11868 c-2 -7 -6 -42 -10 -78 -12 -127 -14 -132 -49 -128 -25 2
-31 -1 -31 -17 0 -15 8 -21 33 -23 31 -3 32 -4 26 -40 -6 -43 10 -96 29 -89 6
2 11 15 10 28 -4 44 8 109 20 109 31 0 87 22 87 35 0 19 -20 23 -58 13 -19 -5
-35 -8 -36 -6 -2 2 1 42 7 90 5 48 7 94 3 103 -7 18 -25 20 -31 3z"/>
<path d="M2737 11636 c-83 -22 -86 -45 -17 -95 45 -33 39 -47 -16 -37 -30 6
-34 4 -34 -13 0 -29 43 -38 94 -20 57 20 59 47 6 82 -22 15 -40 31 -40 36 0
10 86 25 98 17 4 -2 14 0 22 5 13 8 12 12 -4 24 -24 18 -45 18 -109 1z"/>
<path d="M2515 11616 c-38 -17 -72 -54 -80 -87 -14 -55 85 -92 136 -50 28 22
30 72 5 120 -19 35 -20 35 -61 17z m39 -69 c10 -39 -35 -62 -74 -37 -12 8 -10
14 14 39 31 32 51 32 60 -2z"/>
<path d="M7100 11299 c-41 -10 -88 -17 -103 -14 -57 10 -42 -28 61 -156 17
-23 32 -45 32 -50 0 -5 8 -9 19 -9 20 0 46 49 39 72 -3 7 13 42 35 77 31 49
38 67 30 80 -14 22 -27 22 -113 0z m-14 -121 c23 -45 11 -44 -19 1 -18 27 -22
38 -12 34 9 -3 23 -19 31 -35z"/>
<path d="M7579 11243 c-42 -97 -60 -249 -43 -356 5 -28 11 -37 23 -35 14 3 16
18 13 108 -3 82 1 123 17 184 12 44 26 83 32 87 14 8 8 51 -8 57 -8 2 -22 -16
-34 -45z"/>
<path d="M8045 11166 c-40 -18 -105 -79 -105 -99 0 -23 36 -44 95 -57 59 -13
95 -34 95 -56 0 -9 -9 -29 -21 -45 -16 -23 -28 -29 -59 -29 -63 0 -90 17 -90
57 0 27 -4 34 -17 31 -14 -2 -18 -13 -18 -43 0 -33 5 -43 34 -62 36 -25 100
-31 145 -13 26 9 66 75 66 107 -1 40 -49 75 -127 93 -29 7 -53 16 -53 21 0 14
81 69 102 69 28 0 58 -18 58 -36 0 -24 35 -12 38 13 6 44 -86 75 -143 49z"/>
<path d="M8533 11133 c-39 -50 -105 -124 -109 -120 -2 1 -5 17 -9 34 -9 52
-24 83 -39 83 -23 0 -27 -13 -38 -123 -5 -56 -15 -115 -22 -132 -14 -34 -11
-55 9 -55 17 0 33 41 45 115 5 33 10 62 10 64 0 2 9 -4 19 -13 33 -30 70 -4
148 100 l22 29 0 -40 c1 -22 -6 -69 -15 -105 -21 -89 -6 -150 37 -150 23 0 24
13 3 45 -15 23 -15 31 0 96 27 118 18 209 -19 209 -8 0 -27 -16 -42 -37z"/>
<path d="M10048 11144 c-31 -13 -38 -21 -38 -43 0 -34 14 -52 68 -85 41 -26
42 -27 42 -81 0 -37 -4 -57 -13 -61 -23 -8 -71 15 -99 49 -20 24 -30 29 -38
21 -31 -31 43 -101 118 -111 53 -7 72 19 72 100 0 73 -8 88 -65 121 -51 31
-56 42 -19 56 34 13 37 13 31 -4 -3 -8 0 -19 7 -25 22 -18 42 14 30 47 -11 33
-43 38 -96 16z"/>
<path d="M9727 11106 c-59 -54 -52 -69 53 -120 64 -30 65 -32 64 -69 -3 -100
-104 -102 -160 -2 -11 21 -34 13 -34 -12 0 -48 76 -103 144 -103 42 0 82 42
92 97 12 62 -3 84 -84 123 l-73 36 24 22 c33 32 65 29 69 -5 5 -41 32 -36 36
7 7 68 -69 83 -131 26z"/>
<path d="M9276 11090 c-86 -26 -140 -154 -102 -243 23 -56 69 -73 159 -58 91
15 197 60 197 84 0 23 -6 22 -92 -12 -40 -16 -99 -32 -130 -36 -53 -7 -59 -5
-84 20 -24 24 -26 31 -20 78 10 70 34 108 79 126 35 13 39 12 69 -11 33 -25
58 -27 58 -5 -1 16 -69 67 -89 66 -9 0 -29 -5 -45 -9z"/>
<path d="M7551 10669 c-18 -30 -19 -35 -5 -50 13 -14 12 -26 -6 -100 -11 -46
-20 -103 -20 -127 0 -47 44 -188 66 -211 28 -30 28 20 -1 101 -32 91 -31 138
5 280 12 44 20 92 18 107 -4 39 -34 39 -57 0z"/>
<path d="M11365 10578 c-31 -16 -95 -86 -95 -103 0 -25 36 -53 82 -65 87 -21
113 -46 85 -84 -20 -27 -76 -26 -95 2 -16 24 -42 19 -42 -9 0 -27 47 -54 94
-53 31 1 46 8 68 33 55 62 30 111 -72 141 -38 11 -72 24 -75 29 -2 5 13 25 35
45 43 39 83 48 78 19 -2 -10 4 -19 14 -21 26 -5 37 47 13 65 -22 16 -62 17
-90 1z"/>
<path d="M10579 10522 c-146 -93 -177 -237 -64 -292 74 -36 230 -24 270 20 29
32 6 44 -40 20 -54 -28 -177 -28 -221 -1 -34 21 -48 60 -33 99 25 65 118 142
172 142 18 0 27 -7 31 -25 6 -24 29 -34 40 -16 3 5 1 22 -5 39 -17 50 -82 56
-150 14z"/>
<path d="M11045 10526 c-87 -40 -84 -68 13 -119 38 -20 76 -45 86 -56 18 -19
17 -21 -8 -45 -28 -29 -79 -34 -135 -15 -36 13 -38 17 -13 35 26 19 3 38 -31
25 -53 -20 -29 -76 42 -100 83 -28 169 0 190 62 16 44 -7 72 -92 117 -37 19
-67 38 -67 41 0 8 48 29 67 29 9 0 21 -7 28 -17 15 -21 45 -10 45 16 0 25 -7
29 -56 36 -24 3 -51 0 -69 -9z"/>
<path d="M7954 10484 c-27 -14 -60 -36 -74 -50 -40 -39 -25 -52 135 -126 75
-35 69 -88 -13 -104 -26 -5 -36 -1 -61 23 -22 22 -28 36 -24 53 5 18 2 21 -18
18 -52 -7 -18 -97 47 -124 102 -42 216 71 140 139 -13 12 -57 36 -97 52 -40
17 -74 35 -76 40 -5 15 91 65 126 65 17 0 31 -4 31 -10 0 -5 11 -10 25 -10 31
0 32 16 3 41 -32 26 -86 24 -144 -7z"/>
<path d="M9590 10444 c0 -28 3 -35 18 -32 11 2 18 14 20 36 3 27 0 32 -17 32
-17 0 -21 -6 -21 -36z"/>
<path d="M9784 10404 c-59 -21 -89 -56 -89 -106 0 -57 29 -78 106 -78 95 0
231 53 204 79 -6 6 -37 0 -80 -14 -38 -14 -94 -25 -123 -25 -46 0 -54 3 -64
25 -9 21 -8 28 8 46 30 34 64 43 80 22 13 -17 15 -17 29 1 19 26 19 52 -1 60
-20 8 -20 7 -70 -10z"/>
<path d="M9331 10353 l-54 -45 -11 33 c-9 28 -17 35 -44 37 -30 3 -34 0 -50
-37 -9 -22 -24 -42 -33 -44 -25 -7 -41 -61 -23 -84 13 -17 15 -16 43 17 16 19
34 52 40 72 16 51 31 48 31 -7 0 -25 5 -45 10 -45 20 0 71 31 111 67 l39 35
-14 -33 c-16 -39 -6 -69 24 -69 14 0 19 7 19 33 0 17 3 51 7 75 6 39 5 42 -17
41 -13 0 -48 -21 -78 -46z"/>
<path d="M8927 10371 c-65 -43 -81 -116 -34 -157 46 -39 182 -42 182 -3 0 11
-12 13 -48 11 -51 -3 -117 13 -117 29 0 5 11 9 24 9 31 0 86 46 86 71 0 21
-33 59 -52 59 -7 0 -26 -8 -41 -19z m37 -56 c-10 -8 -28 -14 -39 -14 -18 0
-17 3 9 25 20 18 32 22 39 15 8 -8 5 -15 -9 -26z"/>
<path d="M9534 10313 c-21 -49 -23 -86 -4 -90 17 -4 56 99 45 117 -12 19 -26
10 -41 -27z"/>
<path d="M10220 7968 c0 -62 -5 -96 -22 -136 -17 -41 -20 -57 -11 -70 14 -22
73 -19 86 4 12 21 105 64 140 64 62 0 41 56 -38 101 -29 16 -70 50 -90 75 -55
66 -65 60 -65 -38z m40 -122 c0 -13 -6 -26 -14 -29 -11 -5 -12 0 -3 24 14 35
17 36 17 5z"/>
<path d="M2490 6831 c-19 -11 -42 -21 -50 -24 -22 -7 -23 -362 0 -362 18 0 29
54 29 153 l1 72 31 0 c21 0 40 10 61 30 28 28 30 35 26 82 -7 71 -33 84 -98
49z m60 -53 c0 -52 -43 -86 -70 -53 -16 20 -5 47 27 67 39 24 43 23 43 -14z"/>
<path d="M5528 5715 c-3 -3 -3 -15 -1 -26 7 -27 48 -22 48 6 0 19 -33 33 -47
20z"/>
<path d="M5717 5670 c-14 -11 -29 -30 -32 -41 -4 -11 -14 -18 -23 -17 -14 3
-17 -7 -18 -57 0 -33 -6 -93 -13 -133 -9 -50 -10 -77 -3 -84 18 -18 29 0 48
81 18 75 21 80 42 74 28 -7 67 18 92 60 54 88 -17 177 -93 117z m71 -43 c5
-27 -18 -76 -41 -88 -26 -14 -52 10 -43 39 19 59 76 92 84 49z"/>
<path d="M4348 5642 c-16 -9 -28 -20 -28 -24 0 -3 -8 -14 -17 -24 -17 -16 -23
-41 -23 -89 0 -11 0 -57 -1 -102 0 -70 2 -83 16 -83 19 0 22 8 30 80 5 51 9
57 46 78 43 25 79 74 79 108 0 28 -37 74 -58 74 -9 0 -29 -8 -44 -18z m58 -47
c7 -28 -4 -45 -49 -77 l-30 -22 6 45 c4 28 14 50 27 61 30 24 38 23 46 -7z"/>
<path d="M4494 5614 c-40 -41 -44 -79 -14 -117 25 -31 78 -50 116 -41 41 10
94 43 94 60 0 19 -19 18 -65 -6 -45 -23 -58 -24 -87 -9 -20 11 -20 12 9 25 27
14 63 60 63 82 0 19 -31 42 -57 42 -16 0 -38 -13 -59 -36z m64 -26 c-9 -13
-26 -25 -39 -26 l-24 -4 24 26 c32 34 60 37 39 4z"/>
<path d="M4174 5570 c-33 -75 -52 -75 -78 -2 -17 48 -37 65 -50 44 -8 -13 29
-103 52 -127 l21 -21 -59 -90 c-65 -97 -78 -139 -45 -139 12 0 21 8 23 20 2
11 32 63 67 115 73 111 125 211 125 240 0 40 -29 19 -56 -40z"/>
<path d="M5152 5614 c-53 -37 -70 -130 -30 -158 12 -9 36 -16 53 -15 44 1 100
23 100 40 0 15 -11 15 -82 3 -48 -7 -60 6 -49 50 9 36 31 54 60 49 32 -6 36
21 7 37 -26 13 -33 13 -59 -6z"/>
<path d="M5347 5609 c-37 -28 -53 -93 -32 -125 16 -25 39 -31 50 -13 4 5 0 18
-9 28 -13 15 -14 23 -5 50 11 30 14 32 52 29 53 -4 61 17 13 37 -44 18 -38 19
-69 -6z"/>
<path d="M5493 5554 c-3 -9 -1 -19 4 -23 6 -3 10 -17 9 -31 -1 -19 4 -25 19
-25 13 0 20 7 21 21 1 12 4 26 8 32 3 6 -4 18 -16 26 -28 20 -37 20 -45 0z"/>
<path d="M7937 5046 c-48 -18 -77 -43 -77 -69 0 -11 27 -48 59 -82 64 -66 79
-100 61 -134 -24 -46 -104 5 -98 63 2 25 -1 31 -17 31 -42 0 -23 -110 23 -133
30 -16 83 -22 102 -12 10 5 24 26 30 45 17 52 -2 98 -66 158 -30 27 -54 56
-54 62 0 7 17 20 38 28 31 13 38 13 45 1 4 -8 15 -14 22 -14 22 0 19 47 -4 60
-23 12 -17 12 -64 -4z"/>
<path d="M7417 5013 c-11 -18 9 -32 58 -40 44 -7 52 -12 67 -43 9 -19 19 -72
23 -117 l6 -82 -26 -7 c-37 -9 -99 20 -92 44 2 9 6 23 8 31 2 8 -4 17 -13 19
-23 4 -43 -38 -34 -71 8 -35 85 -71 133 -64 61 10 66 20 58 121 -3 50 -11 104
-17 119 -6 15 -8 31 -4 34 4 4 35 8 69 9 54 1 62 4 62 20 0 17 -9 19 -100 19
-55 0 -121 4 -146 8 -27 5 -49 5 -52 0z"/>
<path d="M4580 4475 c-25 -7 -98 -25 -162 -40 l-117 -27 -6 -41 c-4 -23 -15
-76 -26 -119 -18 -74 -25 -168 -13 -181 3 -3 12 -3 20 0 10 3 14 22 14 58 0
67 14 107 34 99 18 -7 237 34 251 47 5 6 5 13 -3 21 -8 8 -39 6 -123 -11 -61
-13 -115 -19 -119 -14 -5 4 -6 31 -3 60 l5 51 62 12 c149 28 291 68 291 81 0
19 -49 21 -105 4z"/>
<path d="M4785 4433 c5 -28 -2 -60 -23 -118 -17 -44 -39 -123 -51 -176 -22
-103 -18 -151 14 -158 15 -3 17 2 12 32 -7 43 21 173 62 289 41 114 41 168 0
168 -17 0 -18 -5 -14 -37z"/>
<path d="M5344 4175 c-3 -13 -12 -29 -20 -35 -8 -7 -11 -23 -8 -38 5 -31 -9
-58 -25 -48 -6 4 -11 18 -11 32 0 39 -28 41 -62 5 -31 -33 -82 -64 -91 -55 -3
4 3 29 14 56 19 50 18 68 -4 68 -17 0 -60 -111 -51 -133 12 -33 41 -39 87 -19
23 10 48 26 56 36 13 15 15 15 25 -6 17 -34 59 -35 85 -2 11 15 21 37 21 49 0
12 7 39 15 59 9 20 13 41 10 46 -11 19 -35 10 -41 -15z"/>
<path d="M4917 4162 c-23 -10 -57 -66 -57 -97 0 -50 58 -77 109 -51 36 19 48
55 29 88 -7 12 -13 32 -13 43 0 22 -35 30 -68 17z m35 -69 c23 -21 23 -30 -1
-43 -39 -20 -69 18 -39 48 15 15 18 15 40 -5z"/>
<path d="M4305 2670 c-4 -6 -2 -16 4 -23 8 -10 3 -12 -22 -9 -45 5 -96 -41
-167 -148 -70 -108 -88 -165 -71 -229 16 -63 41 -94 87 -109 79 -28 212 7 225
59 13 51 -22 70 -39 21 -8 -23 -20 -32 -56 -42 -97 -27 -167 6 -182 86 -9 50
8 99 65 185 64 98 112 143 143 136 21 -6 23 -11 20 -52 -3 -36 0 -46 13 -52
31 -11 47 24 40 85 -5 44 -4 56 11 66 9 7 14 18 10 24 -9 15 -73 16 -81 2z"/>
<path d="M5664 2639 c-10 -17 6 -25 80 -38 93 -16 135 -40 182 -103 67 -89 87
-127 80 -152 -18 -71 -250 -141 -305 -92 -21 19 -56 15 -49 -6 2 -6 16 -21 31
-32 62 -46 244 -8 323 68 64 61 59 90 -34 219 -62 86 -90 106 -189 131 -71 19
-109 20 -119 5z"/>
<path d="M5801 2541 c-11 -7 -11 -15 -1 -45 9 -28 9 -52 0 -104 -15 -83 -11
-137 10 -137 17 0 33 102 34 220 1 72 -9 88 -43 66z"/>
<path d="M6512 2408 c5 -34 38 -37 38 -4 0 20 -5 26 -21 26 -15 0 -20 -5 -17
-22z"/>
<path d="M6097 2362 c-70 -73 -22 -182 79 -182 34 0 29 34 -6 38 -14 2 -31 9
-38 15 -10 8 -2 15 37 30 67 24 77 44 48 88 -32 47 -81 52 -120 11z m87 -28
c8 -20 11 -17 -41 -42 -39 -18 -43 -19 -43 -3 0 47 69 84 84 45z"/>
<path d="M6344 2355 c-5 -29 -1 -43 21 -75 15 -21 24 -44 20 -49 -8 -14 -65
-14 -65 -1 0 13 -27 13 -35 -1 -4 -5 1 -19 11 -31 15 -16 27 -19 61 -15 77 8
93 46 48 107 -33 45 -32 58 8 62 20 2 32 8 32 18 0 11 -13 16 -47 18 -47 3
-47 3 -54 -33z"/>
<path d="M4542 2327 c-26 -30 -43 -87 -32 -106 12 -24 72 -45 100 -36 34 11
53 49 44 87 -5 18 -9 40 -9 48 0 21 -87 27 -103 7z m72 -62 c6 -16 -2 -45 -13
-45 -65 2 -69 52 -5 59 7 0 14 -6 18 -14z"/>
<path d="M6817 2253 c-7 -90 5 -104 56 -62 20 17 34 24 31 16 -8 -22 22 -84
44 -91 24 -8 92 18 92 34 0 17 -24 22 -54 11 -24 -10 -28 -8 -36 14 -6 16 -4
42 5 80 18 69 19 65 -3 65 -10 0 -33 -21 -53 -47 l-34 -48 -5 45 c-3 31 -10
46 -21 48 -13 2 -17 -10 -22 -65z"/>
<path d="M4273 2294 c-25 -9 -43 -22 -43 -31 0 -13 7 -14 43 -7 23 4 65 8 94
9 52 0 86 16 64 30 -25 15 -117 14 -158 -1z"/>
<path d="M6502 2263 c-18 -7 -33 -39 -26 -57 8 -21 33 -20 41 2 4 9 11 20 16
23 11 8 2 39 -10 38 -4 0 -14 -3 -21 -6z"/>
<path d="M11437 2673 c-4 -3 -7 -17 -7 -30 0 -26 28 -43 39 -24 10 15 265 -2
313 -22 38 -16 68 -51 68 -80 0 -26 -78 -58 -148 -60 -55 -2 -57 -1 -56 23 0
14 3 32 5 40 2 9 -4 16 -17 18 -18 2 -23 -3 -28 -33 -6 -29 -11 -35 -24 -30
-30 11 -36 10 -40 -7 -2 -12 7 -22 31 -31 41 -17 47 -40 47 -163 0 -79 1 -84
21 -84 21 0 21 4 17 110 l-3 110 31 0 c40 0 151 34 182 55 28 21 29 68 2 113
-33 54 -90 73 -253 83 -77 5 -148 11 -157 14 -9 3 -19 2 -23 -2z"/>
<path d="M12336 2634 c-3 -9 -6 -30 -6 -48 0 -18 -3 -54 -6 -79 -6 -40 -10
-46 -33 -49 -32 -4 -35 -32 -3 -36 19 -3 22 -8 18 -30 -12 -63 -16 -148 -7
-161 19 -29 34 -5 38 62 3 66 20 159 22 124 1 -24 29 -18 48 10 14 21 13 23
-13 35 -16 7 -30 13 -32 14 -2 1 2 30 8 64 6 35 9 74 6 86 -7 27 -31 32 -40 8z"/>
<path d="M9655 2610 c-11 -18 4 -27 55 -32 67 -7 126 -48 162 -113 31 -56 36
-106 13 -129 -17 -16 -105 -46 -137 -46 -15 0 -19 6 -17 28 1 15 1 69 1 120
-2 86 -3 92 -23 92 -20 0 -20 -4 -17 -120 l3 -121 -25 6 c-14 4 -32 13 -41 21
-23 21 -41 17 -37 -7 2 -12 18 -30 38 -41 29 -16 49 -19 110 -15 131 8 200 52
200 126 0 52 -50 151 -93 184 -62 47 -175 75 -192 47z"/>
<path d="M12099 2538 c-1 -7 0 -26 1 -41 1 -15 -1 -45 -5 -66 -5 -30 -10 -38
-23 -34 -26 6 -72 -14 -72 -33 0 -14 7 -15 40 -10 l40 6 1 -67 c2 -89 11 -128
29 -128 13 0 14 16 11 93 l-3 94 38 -4 c30 -2 39 1 42 14 2 12 -6 19 -30 23
l-34 6 1 77 c0 65 -3 77 -17 80 -10 2 -18 -2 -19 -10z"/>
<path d="M10582 2483 c3 -31 32 -43 41 -18 9 23 -3 45 -25 45 -15 0 -19 -6
-16 -27z"/>
<path d="M10082 2440 c-39 -24 -55 -60 -44 -103 6 -26 18 -37 62 -59 64 -32
103 -36 98 -12 -2 10 -26 26 -57 37 l-53 20 35 19 c62 31 86 87 48 108 -29 15
-52 12 -89 -10z m48 -45 c-13 -14 -33 -25 -44 -25 -19 1 -19 3 7 25 39 35 69
34 37 0z"/>
<path d="M10894 2393 c3 -21 6 -55 6 -75 0 -53 19 -49 81 17 60 63 74 62 107
-9 24 -50 39 -63 55 -47 23 23 -68 151 -109 151 -8 0 -32 -16 -54 -36 -35 -32
-40 -34 -40 -16 0 34 -11 52 -32 52 -18 0 -20 -4 -14 -37z"/>
<path d="M10337 2402 c-9 -10 -17 -26 -17 -35 0 -17 45 -57 65 -57 7 0 18 -6
25 -14 9 -12 6 -16 -23 -21 -20 -4 -49 -4 -65 0 -35 7 -50 -8 -31 -31 18 -22
121 -15 149 11 37 34 20 68 -47 95 -48 18 -40 30 18 30 43 0 50 3 47 18 -5 26
-98 30 -121 4z"/>
<path d="M8615 2390 c-3 -5 -5 -46 -4 -92 1 -46 -4 -96 -10 -113 -10 -25 -10
-31 5 -42 25 -18 34 -17 76 12 20 14 44 25 52 25 8 0 16 3 18 8 2 4 20 15 41
24 20 10 37 24 37 31 0 16 -77 82 -108 91 -12 4 -35 20 -51 37 -31 30 -46 36
-56 19z m55 -170 c0 -5 -4 -10 -10 -10 -5 0 -10 5 -10 10 0 6 5 10 10 10 6 0
10 -4 10 -10z"/>
<path d="M12467 2379 c-21 -11 -41 -27 -44 -34 -3 -8 -11 -15 -19 -15 -44 0
14 -102 72 -126 35 -15 96 -19 107 -7 13 12 -16 33 -45 33 -33 0 -88 25 -88
40 0 6 14 10 30 10 17 0 39 9 50 20 26 26 26 76 1 90 -24 12 -18 13 -64 -11z
m41 -41 c-3 -7 -15 -14 -29 -16 -23 -2 -23 -2 -5 13 24 18 39 20 34 3z"/>
<path d="M12680 2376 c-4 -13 -12 -56 -16 -95 -3 -39 -11 -74 -15 -77 -5 -3
-9 -14 -9 -25 0 -14 6 -19 18 -17 22 4 68 96 55 109 -5 5 -7 26 -3 47 5 33 9
37 33 34 21 -2 27 2 27 17 0 38 -75 44 -90 7z"/>
<path d="M10569 2341 c-1 -17 -2 -37 -3 -43 -1 -7 7 -14 16 -16 12 -2 19 5 24
22 8 35 1 60 -19 64 -13 3 -17 -4 -18 -27z"/>
<path d="M11811 2311 c-73 -68 -15 -137 82 -96 14 6 20 1 30 -24 11 -31 30
-40 42 -21 8 12 -33 100 -46 100 -4 0 -6 6 -3 14 3 8 1 24 -6 35 -16 31 -61
27 -99 -8z m74 -28 c11 -14 10 -20 -4 -30 -20 -16 -61 -17 -61 -1 0 14 30 48
43 48 5 0 15 -8 22 -17z"/>
<path d="M12823 2298 c-24 -17 -44 -40 -44 -50 -4 -56 -1 -68 15 -68 8 0 18
10 22 23 9 29 43 77 55 77 5 0 9 -15 9 -32 1 -34 19 -68 38 -68 17 0 25 20 14
33 -6 7 -12 35 -14 62 -3 45 -5 50 -28 52 -15 2 -42 -10 -67 -29z"/>
<path d="M4894 1939 c-4 -7 0 -17 10 -24 17 -13 42 -128 31 -145 -3 -5 -28
-12 -56 -16 -54 -7 -67 -17 -49 -39 15 -18 44 -19 69 -3 32 20 48 4 54 -58 6
-59 17 -81 37 -69 10 6 8 56 -6 122 -5 24 3 28 82 38 l51 6 11 -42 c7 -28 8
-47 1 -55 -6 -7 -5 -15 4 -23 11 -8 18 -6 32 9 15 17 16 25 6 64 -14 59 -15
56 17 56 15 0 33 4 41 9 23 15 2 31 -39 31 -43 0 -43 -2 -58 95 -6 41 -11 51
-30 53 -24 4 -43 -25 -24 -37 9 -5 32 -91 32 -116 0 -1 -19 -5 -42 -9 -24 -3
-53 -8 -65 -12 -19 -5 -22 -1 -28 38 -4 24 -7 64 -8 88 -2 43 -4 45 -34 48
-17 2 -34 -2 -39 -9z"/>
<path d="M5873 1819 c-66 -19 -67 -74 -2 -147 40 -46 47 -66 28 -77 -17 -11
-70 17 -80 42 -10 27 -32 26 -37 -1 -8 -39 82 -96 128 -81 27 8 43 41 36 71
-4 14 -22 41 -40 62 -46 51 -54 80 -25 91 16 5 28 4 37 -5 18 -19 21 -18 31 9
16 42 -11 55 -76 36z"/>
<path d="M5248 1761 c-13 -11 -32 -37 -42 -59 -17 -37 -17 -42 -2 -64 9 -14
44 -39 77 -56 49 -25 65 -29 81 -21 15 8 17 13 7 25 -6 8 -18 14 -26 14 -9 0
-33 10 -54 22 l-39 22 30 12 c19 8 30 20 30 33 0 11 5 23 10 26 17 10 11 44
-9 55 -27 14 -35 13 -63 -9z m30 -46 c-10 -23 -28 -34 -28 -18 0 7 31 43 36
43 2 0 -2 -11 -8 -25z"/>
<path d="M5442 1755 c-28 -36 -38 -122 -16 -146 33 -36 46 -24 39 35 -10 76
-1 100 36 92 32 -6 46 8 29 29 -20 24 -66 18 -88 -10z"/>
<path d="M5623 1755 c-31 -22 -75 -166 -54 -179 16 -10 41 5 41 25 0 34 22
119 30 119 10 0 16 -19 25 -83 6 -44 26 -70 42 -54 11 12 -16 149 -33 168 -21
23 -24 23 -51 4z"/>
<path d="M4608 1723 c-9 -10 -21 -29 -28 -42 -10 -20 -9 -26 7 -42 16 -16 24
-17 56 -8 30 8 40 7 53 -5 17 -18 40 -21 49 -7 3 5 -2 17 -11 25 -13 13 -14
20 -4 31 10 13 7 17 -23 30 -20 8 -38 19 -42 25 -10 16 -40 12 -57 -7z m42
-33 c0 -5 -10 -15 -22 -21 -23 -12 -23 -12 -4 10 21 23 26 26 26 11z"/>
<path d="M6000 1318 c-25 -4 -101 -10 -169 -13 -69 -3 -128 -8 -133 -11 -4 -3
-8 -12 -8 -20 0 -13 18 -14 138 -8 75 4 192 8 259 8 67 1 124 4 127 7 23 23
-134 50 -214 37z"/>
<path d="M6555 1249 c-4 -5 -1 -24 6 -40 9 -22 10 -60 5 -137 -4 -59 -8 -120
-9 -137 -2 -24 2 -31 20 -33 19 -3 27 7 50 52 15 31 31 56 35 56 4 0 12 -18
18 -40 12 -45 46 -73 82 -68 33 4 37 38 5 38 -29 0 -43 14 -53 55 -4 17 -11
36 -17 43 -15 20 -54 14 -74 -11 -18 -23 -18 -21 -16 92 2 98 0 118 -14 129
-21 15 -30 15 -38 1z"/>
<path d="M5920 1240 c-13 -8 -13 -13 -2 -31 7 -11 18 -78 23 -147 13 -158 21
-197 39 -197 18 0 18 10 2 199 -8 100 -9 143 -1 152 23 28 -25 47 -61 24z"/>
<path d="M7147 1233 c-22 -6 -19 -36 4 -41 25 -5 69 16 69 33 0 15 -32 19 -73
8z"/>
<path d="M8230 1173 c-34 -13 -60 -47 -60 -80 0 -35 22 -56 72 -68 14 -4 36
-17 48 -30 22 -23 22 -23 2 -34 -32 -17 -59 -13 -76 10 -15 22 -46 21 -46 -1
0 -22 49 -60 77 -60 43 1 113 36 113 58 0 26 -58 79 -105 95 -73 25 -55 69 32
77 43 4 58 9 58 20 0 11 -13 16 -50 17 -27 1 -57 -1 -65 -4z"/>
<path d="M7710 1116 c0 -14 5 -28 10 -31 16 -10 12 -113 -5 -145 -21 -40 -43
-38 -61 5 -17 41 -18 79 -3 107 9 17 7 24 -9 40 -11 11 -25 18 -30 14 -14 -9
-8 -155 8 -189 33 -69 104 -62 134 13 20 51 21 142 1 180 -19 37 -45 40 -45 6z"/>
<path d="M4828 1109 c-30 -22 -36 -55 -15 -81 6 -8 34 -30 61 -48 l49 -33 -24
-18 c-30 -23 -65 -24 -77 -2 -13 22 -44 10 -35 -14 22 -64 104 -54 181 22 11
10 -26 51 -74 81 -30 19 -54 38 -54 42 0 22 26 29 91 24 60 -4 69 -2 69 12 0
20 -8 23 -85 30 -51 5 -64 2 -87 -15z"/>
<path d="M4605 1112 c-27 -19 -55 -68 -55 -96 0 -43 34 -95 73 -111 44 -18
130 -2 125 23 -4 17 -18 18 -70 8 -18 -3 -35 2 -53 16 l-26 20 33 20 c68 41
95 87 66 116 -13 13 -77 16 -93 4z m37 -62 c-47 -44 -69 -39 -36 8 9 14 25 22
42 22 l27 -1 -33 -29z"/>
<path d="M6173 1100 c-57 -34 -67 -78 -32 -140 24 -42 54 -60 100 -60 42 0 37
34 -6 38 -45 5 -79 42 -40 42 25 0 65 50 65 81 0 28 -22 59 -43 59 -7 0 -26
-9 -44 -20z m38 -58 c-12 -22 -51 -36 -51 -19 0 17 12 32 35 45 23 13 31 1 16
-26z"/>
<path d="M7904 1096 c-12 -8 -29 -36 -39 -62 -15 -39 -16 -52 -6 -86 17 -56
43 -78 91 -78 74 0 135 51 128 108 -4 36 -32 36 -36 0 -5 -39 -47 -70 -90 -66
-36 3 -69 36 -45 45 6 2 30 17 52 34 34 24 41 35 41 62 0 18 -5 38 -12 45 -16
16 -59 15 -84 -2z m56 -41 c0 -16 -47 -51 -57 -42 -9 10 26 57 42 57 8 0 15
-7 15 -15z"/>
<path d="M6393 1090 c-27 -11 -63 -66 -63 -97 0 -37 21 -71 52 -84 35 -14 87
-14 101 0 17 17 -3 29 -53 33 -38 3 -46 7 -54 31 -13 35 18 80 60 87 36 6 39
34 4 37 -14 1 -35 -2 -47 -7z"/>
<path d="M6929 1062 c-13 -10 -36 -23 -51 -30 -26 -11 -40 -42 -19 -42 6 0 11
-17 13 -37 4 -49 26 -49 43 -1 7 21 20 49 29 63 31 47 49 28 56 -60 4 -48 9
-60 24 -63 17 -4 18 2 14 72 -7 108 -47 144 -109 98z"/>
<path d="M7151 1066 c-18 -22 -11 -161 9 -161 12 0 16 17 18 79 3 81 -6 108
-27 82z"/>
<path d="M12970 17329 c-25 -31 -31 -46 -24 -57 7 -10 3 -42 -12 -98 -18 -67
-20 -85 -9 -94 19 -16 30 4 55 110 13 52 29 107 36 122 34 67 3 78 -46 17z"/>
<path d="M13198 17324 c-60 -47 -78 -86 -58 -123 8 -16 8 -21 -3 -21 -22 0
-76 -64 -83 -98 -15 -73 36 -108 143 -99 59 4 71 9 95 36 15 17 28 40 28 51 0
36 -28 90 -52 99 l-23 8 22 7 c12 4 37 25 57 46 29 32 34 44 27 62 -5 13 -21
27 -39 32 -17 4 -33 17 -35 27 -7 26 -14 24 -79 -27z m58 -35 c3 -6 17 -8 30
-5 36 9 30 -17 -10 -48 -70 -53 -141 -21 -78 36 35 30 47 34 58 17z m-21 -163
c20 5 26 1 35 -21 22 -57 -11 -85 -96 -85 -55 0 -84 14 -84 41 0 56 95 121
112 77 6 -14 14 -17 33 -12z"/>
<path d="M11735 17337 c-104 -60 -125 -78 -160 -142 -46 -81 -43 -125 7 -151
56 -29 148 0 148 45 0 9 -7 27 -16 40 -15 21 -22 23 -71 18 l-53 -6 22 41 c31
54 85 99 113 92 16 -4 26 2 39 21 17 25 16 56 -1 54 -4 0 -17 -5 -28 -12z
m-45 -236 c0 -17 -29 -32 -56 -29 -32 4 -43 24 -17 31 32 8 73 7 73 -2z"/>
<path d="M10845 17318 c-2 -7 -8 -43 -14 -80 -6 -37 -25 -92 -41 -123 -34 -65
-37 -85 -12 -85 35 1 102 182 102 278 0 23 -28 31 -35 10z"/>
<path d="M12301 17312 c-37 -20 -42 -26 -60 -82 -11 -35 -2 -58 18 -45 6 3 21
25 32 48 25 48 35 57 67 57 16 0 22 -6 22 -20 0 -26 -27 -52 -123 -118 -115
-78 -100 -105 56 -100 74 2 92 6 92 18 0 12 -18 16 -83 20 l-83 5 76 49 c76
49 105 85 105 128 0 35 -13 48 -51 54 -23 3 -45 -1 -68 -14z"/>
<path d="M10696 17243 c-39 -105 -67 -195 -73 -231 -5 -28 -3 -33 12 -30 13 2
32 46 70 160 29 87 50 160 47 163 -16 16 -33 -2 -56 -62z"/>
<path d="M10917 17098 c-23 -18 -27 -61 -5 -66 10 -2 19 5 23 17 3 12 13 21
21 21 20 0 14 34 -6 38 -9 1 -23 -3 -33 -10z"/>
<path d="M11830 17074 c-11 -28 -6 -44 15 -44 14 0 25 21 25 51 0 28 -29 23
-40 -7z"/>
<path d="M1868 16810 c-29 -16 -38 -27 -38 -46 0 -28 46 -78 81 -89 31 -10 17
-30 -24 -33 -32 -3 -37 0 -43 23 -4 17 -12 25 -23 23 -26 -5 -24 -36 3 -63 48
-48 153 -22 144 37 -2 12 -23 35 -47 53 -25 17 -46 36 -48 41 -4 12 37 31 77
36 14 2 25 9 25 18 0 23 -64 23 -107 0z"/>
<path d="M1448 16783 c-44 -30 -97 -108 -104 -155 -15 -87 113 -134 253 -93
58 17 85 41 63 55 -8 5 -25 3 -43 -6 -46 -24 -155 -29 -201 -10 -36 15 -38 18
-32 47 8 43 41 94 76 119 31 22 34 20 44 -22 8 -36 27 -35 49 1 47 79 -22 121
-105 64z"/>
<path d="M5454 16596 c-53 -24 -58 -65 -13 -112 36 -38 31 -64 -7 -39 -14 9
-29 13 -34 10 -21 -13 -9 -37 26 -51 32 -14 38 -13 60 1 35 23 32 66 -6 98
-16 14 -30 30 -30 36 0 16 35 31 58 24 17 -4 22 -1 22 15 0 11 -7 23 -16 26
-21 8 -24 8 -60 -8z"/>
<path d="M5670 16602 c-31 -5 -60 -30 -60 -51 0 -9 9 -33 20 -54 12 -22 18
-47 15 -58 -7 -22 -45 -26 -45 -4 0 19 -36 20 -43 1 -8 -20 35 -56 65 -56 31
0 68 41 68 74 0 12 -6 30 -14 41 -7 11 -17 31 -21 43 -7 23 -5 24 37 20 31 -2
43 1 43 11 0 20 -36 38 -65 33z"/>
<path d="M6013 16548 c-18 -13 -37 -34 -43 -48 -15 -36 0 -104 24 -108 17 -4
18 1 12 45 -7 57 9 80 66 92 42 9 44 35 3 39 -19 2 -42 -6 -62 -20z"/>
<path d="M3981 16539 c-23 -24 -37 -95 -27 -134 9 -34 47 -48 95 -35 54 14
131 68 131 91 0 26 -15 24 -54 -6 -43 -32 -101 -56 -120 -49 -9 3 -16 16 -16
29 0 18 4 22 18 18 23 -6 82 42 82 66 0 44 -74 57 -109 20z m55 -34 c-22 -17
-36 -19 -36 -7 0 14 12 22 34 22 21 -1 21 -1 2 -15z"/>
<path d="M3835 16531 c-44 -27 -71 -84 -57 -116 12 -26 38 -42 49 -31 4 3 6
26 4 50 -1 36 2 47 21 60 12 9 32 16 44 16 23 0 48 23 37 33 -13 13 -69 7 -98
-12z"/>
<path d="M4716 16521 c-20 -22 -32 -88 -22 -125 5 -21 12 -26 39 -26 69 0 126
111 79 153 -25 23 -75 21 -96 -2z m74 -49 c0 -20 -35 -62 -50 -62 -15 0 -12
68 3 73 27 11 47 7 47 -11z"/>
<path d="M5194 16530 c-55 -21 -73 -109 -31 -148 27 -25 92 -30 122 -9 24 19
3 32 -45 29 l-35 -3 33 20 c48 31 42 84 -13 113 -5 3 -20 2 -31 -2z m36 -55
c0 -12 -28 -35 -44 -35 -11 0 -6 26 6 38 17 17 38 15 38 -3z"/>
<path d="M5809 16519 c-40 -15 -55 -102 -23 -133 18 -19 18 -19 66 -6 68 19
91 90 42 129 -29 23 -45 25 -85 10z m55 -35 c34 -13 15 -54 -31 -68 -21 -7
-23 -4 -23 28 0 24 5 36 18 39 9 3 18 5 19 6 1 0 8 -2 17 -5z"/>
<path d="M3145 15393 c-92 -48 -84 -100 18 -119 77 -14 49 -70 -31 -61 -46 5
-61 -5 -42 -28 24 -29 131 -11 150 25 26 49 -5 94 -71 105 -53 9 -57 21 -13
40 42 17 74 20 74 5 0 -16 30 -12 36 5 16 42 -62 60 -121 28z"/>
<path d="M2930 15374 c-38 -33 -35 -62 12 -111 39 -40 33 -66 -14 -61 -27 2
-33 7 -33 28 0 29 -22 34 -38 8 -17 -26 6 -65 42 -73 48 -10 90 3 105 33 17
33 12 47 -32 96 -33 38 -34 40 -16 53 11 8 29 11 43 8 26 -7 43 9 34 32 -9 23
-69 15 -103 -13z"/>
<path d="M2584 15334 c-66 -70 -32 -130 56 -100 22 8 43 10 46 5 2 -5 8 -31
11 -59 5 -39 10 -50 22 -48 21 4 30 57 14 88 -7 14 -13 40 -13 58 0 22 -5 32
-15 32 -8 0 -15 6 -15 14 0 21 -28 46 -52 46 -11 0 -36 -16 -54 -36z m79 -18
c15 -11 15 -15 3 -25 -22 -19 -76 -32 -76 -18 0 11 40 57 49 57 3 0 14 -7 24
-14z"/>
<path d="M9261 9416 c-9 -11 -7 -37 9 -114 22 -110 25 -162 10 -162 -5 0 -10
5 -10 11 0 6 -12 9 -27 7 -50 -6 -89 -95 -67 -152 10 -27 66 -20 96 12 30 31
58 107 58 155 0 34 -24 170 -35 200 -4 10 -3 17 4 17 6 0 11 9 11 20 0 24 -31
27 -49 6z m-1 -345 c-22 -45 -50 -55 -50 -18 0 27 28 70 40 62 5 -3 12 0 16 7
5 8 9 9 11 1 2 -6 -5 -30 -17 -52z"/>
<path d="M9727 9384 c-4 -4 -7 -29 -7 -56 0 -27 -7 -87 -17 -133 -17 -90 -10
-150 17 -150 11 0 14 10 12 35 -2 19 4 73 13 120 23 120 14 215 -18 184z"/>
<path d="M8617 9343 c-4 -3 -4 -41 -1 -84 7 -84 11 -78 -59 -93 -20 -5 -27
-12 -25 -24 4 -17 18 -19 63 -8 24 6 25 5 25 -39 0 -38 3 -45 20 -45 17 0 20
7 20 50 0 33 4 50 13 50 6 0 22 3 33 6 21 6 22 4 12 -40 -8 -38 -7 -51 7 -72
9 -14 22 -24 28 -22 7 3 29 30 51 62 21 31 40 55 42 53 3 -2 8 -31 12 -63 5
-42 11 -59 22 -59 20 0 25 69 8 120 -11 35 -17 40 -43 40 -25 0 -35 -9 -63
-50 -36 -54 -37 -49 -6 59 8 27 14 76 14 108 0 55 -1 58 -24 58 -30 0 -42 -16
-26 -36 11 -12 10 -99 -1 -108 -2 -2 -20 -6 -40 -10 l-36 -6 -6 67 c-6 63 -24
102 -40 86z"/>
<path d="M10320 9291 c0 -11 4 -22 9 -25 12 -8 34 21 26 34 -11 17 -35 11 -35
-9z"/>
<path d="M8190 9245 c-15 -16 -27 -22 -35 -15 -10 9 -101 8 -108 -1 -10 -13
-37 -179 -31 -192 14 -37 38 -14 68 63 14 36 25 60 26 54 1 -27 30 -20 65 14
l38 37 -7 -40 c-4 -22 -9 -52 -12 -66 -7 -35 15 -53 50 -39 29 11 34 28 10 37
-13 5 -15 16 -10 57 7 54 -3 107 -20 113 -6 2 -21 -8 -34 -22z"/>
<path d="M10713 9250 c-52 -32 -41 -85 24 -119 l37 -19 -44 -22 c-36 -18 -47
-20 -63 -10 -23 14 -41 1 -35 -26 6 -31 87 -25 133 10 61 47 60 53 -27 118
-23 17 -23 18 -4 33 11 8 33 15 49 15 22 0 28 4 25 18 -5 25 -56 26 -95 2z"/>
<path d="M8368 9213 c-23 -27 -48 -79 -48 -102 0 -33 21 -68 47 -80 51 -23
153 -7 153 24 0 13 -10 15 -63 9 -52 -5 -66 -3 -80 11 -23 23 -21 35 6 35 28
0 67 39 67 67 0 23 -29 53 -52 53 -8 0 -22 -8 -30 -17z m42 -38 c0 -8 -7 -15
-16 -15 -14 0 -14 3 -4 15 7 8 14 15 16 15 2 0 4 -7 4 -15z"/>
<path d="M10443 9196 c-47 -40 -58 -76 -37 -121 9 -20 28 -41 41 -46 33 -12
99 -1 126 22 33 28 6 39 -50 21 -31 -10 -51 -12 -61 -5 -26 16 -25 32 1 42 33
13 69 60 65 85 -5 32 -49 32 -85 2z"/>
<path d="M9410 9170 c-24 -24 -27 -86 -4 -118 17 -24 51 -29 77 -9 25 19 46
78 36 104 -16 44 -76 56 -109 23z m64 -67 c-12 -35 -44 -44 -44 -12 0 29 30
63 44 49 6 -6 7 -19 0 -37z"/>
<path d="M10245 9180 c-3 -5 -3 -15 1 -22 4 -6 6 -30 6 -53 -2 -30 2 -45 13
-48 20 -8 27 6 27 58 1 55 -28 96 -47 65z"/>
<path d="M9816 9145 c-30 -28 -35 -75 -9 -100 25 -26 107 -15 140 18 68 67
-60 148 -131 82z m104 -30 c11 -13 10 -18 -6 -30 -10 -8 -34 -15 -51 -15 -27
0 -33 4 -33 20 0 34 67 52 90 25z"/>
<path d="M8959 9116 c-36 -82 14 -131 96 -94 33 15 41 50 21 92 -17 36 -33 46
-72 46 -20 0 -29 -9 -45 -44z m77 -26 c24 0 15 -29 -10 -36 -32 -8 -45 1 -39
27 4 12 11 18 20 15 8 -3 21 -6 29 -6z"/>
<path d="M12144 8153 c-3 -10 -10 -26 -15 -36 -11 -21 -4 -37 17 -37 10 0 14
-12 14 -40 0 -31 -4 -40 -17 -40 -27 0 -80 -36 -88 -59 -10 -34 20 -78 58 -85
53 -10 87 7 87 44 0 17 4 29 9 25 11 -6 31 26 31 50 0 9 -9 19 -20 22 -16 4
-20 15 -22 57 -1 28 -3 60 -4 71 -1 11 -2 26 -3 33 -2 19 -41 14 -47 -5z m16
-228 c0 -39 -21 -47 -56 -20 -19 15 -19 15 5 35 35 30 51 26 51 -15z"/>
<path d="M10834 8137 c-6 -18 12 -57 27 -57 5 0 12 7 16 16 7 19 65 14 153
-12 105 -31 133 -105 64 -170 -52 -50 -54 -49 -69 51 -13 85 -25 115 -45 115
-24 0 -24 2 -6 -69 8 -31 17 -77 20 -103 l6 -48 -63 -1 c-100 -2 -102 -2 -102
-24 0 -19 6 -20 75 -17 97 5 144 17 196 52 50 35 69 75 61 133 -11 81 -98 130
-254 144 -60 5 -74 3 -79 -10z"/>
<path d="M12332 8058 c-16 -16 -15 -45 2 -51 17 -7 46 23 46 46 0 20 -30 23
-48 5z"/>
<path d="M12809 8041 c-45 -14 -68 -31 -84 -61 -28 -55 -16 -124 24 -138 36
-13 198 15 205 35 9 22 -17 25 -95 11 -86 -16 -109 -14 -109 12 0 13 10 20 38
25 20 3 57 15 80 26 42 18 43 20 37 51 -4 18 -9 36 -12 41 -5 9 -50 8 -84 -2z
m55 -40 c6 -9 -28 -25 -77 -36 -37 -8 -26 12 17 31 37 16 53 17 60 5z"/>
<path d="M12586 7997 c-9 -24 -29 -56 -45 -71 l-29 -27 -11 32 c-6 17 -11 40
-11 50 0 28 -29 23 -41 -7 -7 -20 -6 -31 4 -43 7 -9 18 -28 25 -43 15 -35 41
-36 81 -3 34 29 86 128 76 144 -13 22 -33 9 -49 -32z"/>
<path d="M11289 7987 c-14 -7 -42 -26 -63 -43 l-38 -32 26 -41 c31 -49 71 -71
126 -71 34 0 41 3 38 18 -2 12 -16 19 -46 23 -23 3 -50 12 -58 21 -14 14 -12
16 23 21 76 13 104 56 63 97 -22 22 -34 24 -71 7z m36 -54 c-22 -16 -59 -18
-50 -2 9 14 48 28 59 21 5 -3 1 -11 -9 -19z"/>
<path d="M11475 7967 c-18 -18 -38 -31 -45 -29 -16 6 -31 -19 -21 -36 14 -25
114 -75 139 -70 9 2 18 11 20 19 2 12 -7 19 -34 24 l-38 7 42 18 c47 21 56 54
24 83 -27 25 -50 21 -87 -16z m63 -19 c-3 -7 -15 -14 -29 -16 -24 -4 -24 -3
-4 12 24 19 38 20 33 4z"/>
<path d="M11757 7950 c-34 -29 -35 -29 -40 -9 -3 12 -11 19 -18 17 -20 -7 -30
-61 -27 -141 4 -87 24 -98 46 -25 15 45 16 46 48 41 71 -12 115 31 99 94 -15
62 -55 70 -108 23z m71 -40 c4 -25 -12 -40 -45 -40 -33 0 -35 14 -8 45 29 30
48 29 53 -5z"/>
<path d="M12318 7946 c-22 -17 -25 -76 -3 -76 15 0 45 49 45 75 0 18 -19 19
-42 1z"/>
<path d="M8412 7443 c-37 -19 -51 -55 -31 -80 8 -9 38 -31 67 -50 28 -18 52
-38 52 -43 0 -15 -70 -33 -106 -27 -40 7 -55 -10 -28 -30 42 -32 163 4 172 51
5 22 -26 56 -84 92 -24 15 -44 31 -44 34 0 11 49 30 76 30 14 0 35 -5 46 -11
29 -16 48 5 26 27 -24 24 -105 28 -146 7z"/>
<path d="M8163 7418 c-18 -13 -35 -29 -38 -36 -3 -7 18 -38 47 -68 28 -30 49
-57 46 -59 -3 -3 -28 -8 -56 -12 -45 -5 -50 -4 -49 13 3 31 -31 29 -39 -2 -10
-41 17 -57 87 -51 110 9 126 47 53 123 -43 44 -45 48 -28 61 21 15 50 17 59 3
10 -17 35 -11 35 8 0 46 -65 57 -117 20z"/>
<path d="M1087 7423 c-4 -3 -7 -17 -7 -30 0 -13 -7 -58 -16 -100 -19 -94 -11
-107 47 -74 26 15 65 25 105 29 44 3 64 9 64 18 0 7 -24 32 -54 54 -30 23 -66
57 -81 76 -25 33 -44 42 -58 27z m98 -123 c3 -5 -1 -10 -9 -10 -9 0 -16 5 -16
10 0 6 4 10 9 10 6 0 13 -4 16 -10z"/>
<path d="M7794 7390 c-34 -14 -84 -78 -84 -109 0 -49 70 -91 165 -98 66 -5
115 8 115 32 0 13 -11 14 -68 9 -57 -5 -76 -3 -115 14 -58 26 -65 42 -38 81
25 35 83 51 113 32 21 -13 38 -7 38 14 0 30 -76 45 -126 25z"/>
<path d="M12820 7300 c-69 -4 -267 -11 -440 -14 -555 -12 -1102 -44 -1458 -86
-48 -6 -169 -13 -270 -17 -137 -5 -185 -10 -194 -20 -6 -8 -7 -17 -2 -22 14
-12 324 5 609 33 417 41 772 60 1315 71 168 4 371 10 450 14 133 8 147 7 169
-10 25 -20 41 -17 41 6 0 18 -53 55 -77 53 -10 0 -74 -4 -143 -8z"/>
<path d="M1635 7005 c-52 -28 -75 -56 -75 -92 0 -46 19 -79 79 -137 48 -47 50
-51 34 -68 -18 -20 -63 -24 -80 -7 -7 7 -9 25 -6 40 4 22 2 29 -10 29 -22 0
-40 -37 -33 -66 8 -29 53 -54 100 -54 26 0 40 7 60 31 14 17 26 37 26 46 0 8
-20 34 -45 57 -87 79 -103 125 -60 166 25 24 58 28 113 15 26 -6 32 -4 32 8 0
35 -89 56 -135 32z"/>
<path d="M615 6980 c-12 -20 11 -32 71 -39 l57 -6 24 -70 c31 -89 34 -162 8
-181 -26 -19 -48 -17 -79 7 -33 26 -33 37 -1 49 29 11 34 40 6 40 -44 0 -71
-19 -71 -48 0 -66 86 -118 150 -92 17 7 36 22 42 33 17 32 12 115 -11 187 -11
35 -19 66 -17 68 2 2 13 -2 25 -10 27 -17 51 3 31 27 -24 29 -220 59 -235 35z"/>
<path d="M11520 6913 c-15 -73 -30 -401 -19 -430 21 -55 110 -54 166 2 46 46
47 102 2 139 -37 31 -81 34 -109 6 l-20 -20 0 90 c0 50 7 125 16 167 16 79 14
103 -9 103 -9 0 -19 -21 -27 -57z m132 -328 c18 -41 0 -78 -47 -93 -21 -7 -45
-10 -52 -8 -20 8 -15 43 12 86 31 49 69 55 87 15z"/>
<path d="M10547 6875 c-21 -8 -44 -12 -52 -9 -7 3 -18 -3 -24 -15 -18 -32 -13
-44 14 -39 13 3 22 2 20 -3 -3 -4 -1 -18 4 -31 6 -15 4 -56 -4 -111 -14 -93
-8 -142 16 -142 10 0 14 16 16 64 1 35 6 68 11 73 11 11 143 38 185 38 22 0
28 4 25 18 -2 9 -14 19 -28 20 -20 3 -104 -9 -161 -24 -12 -3 -15 6 -16 43 -1
27 -3 54 -4 62 -6 21 58 35 102 22 47 -14 49 -14 49 7 0 11 -12 22 -33 30 -42
15 -72 14 -120 -3z"/>
<path d="M1175 6846 c-11 -8 -20 -28 -21 -51 -4 -50 -9 -53 -29 -16 -15 30
-38 40 -49 23 -6 -11 55 -114 71 -119 16 -6 41 45 46 90 2 20 9 43 16 51 12
15 8 36 -8 36 -4 0 -16 -6 -26 -14z"/>
<path d="M896 6835 c-20 -21 -39 -92 -32 -121 8 -32 51 -42 87 -22 24 14 28
14 43 0 12 -13 19 -13 28 -4 9 9 9 15 0 24 -7 7 -12 29 -12 49 0 30 -6 41 -34
63 -40 30 -58 32 -80 11z m64 -60 c0 -18 -31 -55 -46 -55 -17 0 -18 16 -3 58
9 27 13 30 30 19 10 -6 19 -16 19 -22z"/>
<path d="M2095 6843 c-31 -6 -63 -24 -69 -39 -9 -23 15 -122 31 -128 20 -8 25
15 14 65 -11 50 -7 58 33 61 36 3 53 24 29 36 -10 4 -27 7 -38 5z"/>
<path d="M1261 6811 c-14 -25 -14 -77 -1 -102 13 -23 56 -25 68 -2 9 15 12 14
33 -5 27 -26 69 -29 69 -7 0 9 -11 20 -23 24 -14 5 -29 24 -36 43 -22 57 -27
63 -64 66 -27 2 -38 -2 -46 -17z m48 -51 c-6 -16 -13 -30 -15 -30 -2 0 -4 14
-4 30 0 20 5 30 14 30 12 0 13 -6 5 -30z"/>
<path d="M1858 6813 c-55 -63 -56 -122 -4 -154 47 -29 130 -22 124 10 -3 12
-13 15 -44 13 -28 -2 -47 2 -63 15 -22 18 -23 19 -5 56 14 30 22 35 40 31 29
-7 42 15 19 33 -25 18 -49 16 -67 -4z"/>
<path d="M12012 6668 c-9 -9 -8 -16 2 -27 7 -9 18 -29 23 -46 9 -26 7 -33 -15
-51 -18 -15 -23 -26 -18 -42 9 -27 32 -29 39 -2 5 19 37 29 37 11 0 -15 49
-61 65 -61 22 0 19 16 -10 54 -14 18 -25 36 -25 39 0 4 23 18 50 32 35 18 50
31 50 45 0 26 -6 25 -72 -10 l-55 -30 -13 41 c-15 44 -40 65 -58 47z"/>
<path d="M11810 6647 c-29 -14 -60 -70 -60 -109 0 -41 42 -69 94 -62 79 12
101 43 76 109 -11 29 -57 75 -74 75 -6 0 -22 -6 -36 -13z m30 -47 c0 -6 12
-15 26 -20 18 -7 25 -16 22 -32 -2 -18 -12 -24 -43 -29 -22 -4 -44 -5 -49 -2
-10 7 0 61 15 80 14 15 29 17 29 3z"/>
<path d="M11809 6308 c0 -7 0 -39 1 -70 2 -74 -6 -98 -32 -98 -29 0 -78 -38
-78 -61 0 -25 22 -24 45 1 31 34 45 26 39 -24 -5 -35 -2 -52 17 -86 34 -60 99
-89 99 -44 0 8 -7 14 -14 14 -8 0 -27 16 -42 35 -22 29 -26 42 -21 76 3 22 8
43 10 46 3 3 59 9 124 15 65 5 120 11 122 13 2 2 1 11 -3 20 -5 14 -18 15 -88
10 -46 -3 -96 -8 -113 -10 l-30 -5 0 87 c0 75 -2 88 -17 91 -10 2 -18 -2 -19
-10z"/>
<path d="M11184 6286 c-4 -9 -3 -29 1 -44 4 -15 8 -63 9 -107 l1 -80 -35 -5
c-49 -7 -56 -40 -8 -40 l33 0 -3 -71 c-3 -64 -2 -70 15 -67 14 2 19 14 21 53
4 93 6 95 65 95 52 0 100 20 85 36 -5 4 -35 6 -68 5 l-60 -2 0 68 c-1 111 -36
211 -56 159z"/>
<path d="M8280 6257 c-41 -21 -120 -133 -120 -170 0 -18 4 -37 8 -44 13 -20
61 -33 123 -33 51 0 64 4 86 26 20 20 24 32 19 55 -5 27 -3 29 23 29 31 0 59
24 41 35 -19 12 -134 2 -152 -13 -21 -18 -7 -42 23 -42 24 0 33 -18 19 -35
-13 -15 -103 -21 -134 -9 -27 10 -18 48 24 105 48 63 90 88 90 53 0 -21 34
-14 38 9 8 41 -38 59 -88 34z"/>
<path d="M10647 6252 c-28 -12 -53 -63 -60 -121 -4 -34 -14 -62 -27 -76 -21
-22 -27 -79 -10 -90 6 -3 10 -22 10 -41 0 -43 15 -74 36 -74 13 0 15 7 10 34
l-6 34 81 -19 c44 -11 88 -23 98 -28 10 -6 23 -6 31 -1 33 20 -38 56 -152 75
-46 7 -51 15 -43 66 7 39 10 42 74 71 36 16 87 43 114 60 38 24 47 35 47 59 0
17 -7 32 -18 38 -25 13 -162 23 -185 13z m117 -38 c26 -4 45 -11 43 -17 -3
-11 -130 -81 -167 -92 -22 -7 -23 -6 -12 8 8 9 12 26 11 39 -2 13 3 33 9 46
14 24 35 27 116 16z"/>
<path d="M7669 6223 c-75 -39 -75 -64 4 -115 31 -21 57 -43 57 -48 0 -13 -42
-40 -62 -40 -10 0 -27 9 -38 20 -36 36 -63 16 -36 -25 39 -60 176 -24 176 45
0 24 -40 64 -90 90 l-35 18 45 21 c55 25 69 26 86 4 9 -14 16 -15 24 -7 17 17
3 51 -23 58 -37 10 -51 7 -108 -21z"/>
<path d="M7901 6196 c-22 -26 80 -195 111 -184 14 6 45 94 48 138 4 50 0 62
-17 58 -14 -2 -19 -17 -24 -61 -10 -87 -22 -90 -59 -13 -37 76 -43 81 -59 62z"/>
<path d="M12042 6055 c-21 -9 -38 -27 -47 -49 -13 -31 -13 -37 10 -85 29 -59
47 -66 136 -58 83 7 162 58 133 87 -6 6 -22 1 -47 -17 -44 -31 -146 -45 -172
-23 -26 21 -16 44 26 64 47 21 69 57 49 81 -15 19 -45 19 -88 0z m34 -40 c-11
-8 -25 -15 -30 -15 -6 0 -2 7 8 15 11 8 25 15 30 15 6 0 2 -7 -8 -15z"/>
<path d="M11385 6019 c-79 -70 -39 -137 59 -99 20 7 26 6 26 -4 0 -22 40 -66
61 -66 24 0 25 21 0 42 -15 13 -18 25 -14 62 5 38 2 49 -18 71 -33 34 -70 32
-114 -6z m78 -30 c4 -15 -1 -23 -21 -30 -14 -5 -35 -9 -46 -7 -20 3 -20 4 6
31 32 32 54 35 61 6z"/>
<path d="M10896 6009 c-32 -37 -35 -97 -8 -122 25 -23 75 -21 97 3 16 18 17
25 6 63 -30 99 -49 111 -95 56z m49 -59 c20 -38 19 -40 -10 -40 -21 0 -25 5
-25 28 0 25 7 42 16 42 2 0 10 -13 19 -30z"/>
<path d="M10584 5646 c-59 -27 -84 -57 -84 -102 0 -40 49 -114 101 -149 85
-60 105 -131 40 -147 -26 -7 -43 -4 -80 14 -58 29 -77 63 -55 96 12 18 13 27
5 35 -16 16 -43 -3 -52 -34 -22 -86 92 -173 196 -149 49 11 65 32 65 84 0 37
-6 46 -85 122 -84 82 -107 122 -88 153 14 22 83 61 110 61 20 0 21 -3 12 -32
-26 -92 2 -147 48 -94 30 35 30 83 0 127 -29 43 -64 47 -133 15z"/>
<path d="M11414 5638 c-12 -19 -6 -305 6 -329 23 -41 35 -15 31 62 -3 41 -5
119 -5 173 -1 66 -5 101 -13 103 -6 2 -15 -2 -19 -9z"/>
<path d="M11617 5480 c-16 -5 -35 -17 -43 -27 -14 -19 -19 -101 -6 -118 4 -6
32 -23 62 -38 53 -26 57 -27 108 -13 82 21 126 74 87 106 -19 16 -37 3 -33
-23 3 -18 -6 -25 -51 -40 -51 -17 -54 -17 -84 0 -44 26 -43 39 4 54 55 18 69
40 49 77 -17 29 -46 36 -93 22z m53 -45 c-1 -11 -70 -38 -70 -27 0 12 15 29
30 35 21 8 41 4 40 -8z"/>
<path d="M10857 5430 c-30 -24 -51 -81 -43 -115 8 -31 54 -55 106 -55 33 0 40
3 40 20 0 16 -7 20 -38 20 -55 0 -76 18 -67 58 10 48 58 69 70 32 7 -22 31
-27 38 -7 2 6 0 24 -6 40 -7 22 -15 27 -42 27 -18 0 -44 -9 -58 -20z"/>
<path d="M11073 5401 c-40 -25 -51 -62 -29 -97 27 -40 55 -48 106 -30 39 13
46 13 60 1 32 -29 64 -8 37 23 -8 9 -19 31 -24 47 -5 17 -16 30 -24 30 -8 0
-19 9 -24 20 -14 27 -63 30 -102 6z m67 -39 c0 -10 5 -23 12 -30 8 -8 5 -14
-15 -21 -51 -20 -86 20 -47 51 28 23 50 23 50 0z"/>
</g>
</svg>
