<?xml version="1.0" standalone="no"?>
<!DOCTYPE svg PUBLIC "-//W3C//DTD SVG 20010904//EN"
 "http://www.w3.org/TR/2001/REC-SVG-20010904/DTD/svg10.dtd">
<svg version="1.0" xmlns="http://www.w3.org/2000/svg"
 width="1214.000000pt" height="1618.000000pt" viewBox="0 0 1214.000000 1618.000000"
 preserveAspectRatio="xMidYMid meet">

<g transform="translate(0.000000,1618.000000) scale(0.100000,-0.100000)"
fill="#000000" stroke="none">
<path d="M260 13490 l0 -2050 2780 0 2780 0 0 2050 0 2050 -2780 0 -2780 0 0
-2050z m5550 0 l0 -2040 -2770 0 -2770 0 0 2040 0 2040 2770 0 2770 0 0 -2040z"/>
<path d="M4796 15368 c-2 -7 -19 -60 -37 -118 l-34 -105 -45 -10 c-30 -7 -46
-17 -48 -29 -3 -16 2 -18 37 -14 23 2 41 3 41 3 0 0 -16 -38 -35 -84 -40 -95
-45 -131 -16 -131 13 0 21 9 26 30 6 29 64 175 78 196 4 7 36 20 72 29 65 18
83 38 45 48 -12 3 -35 1 -53 -4 -17 -5 -35 -9 -39 -9 -4 0 4 31 17 69 33 97
36 141 10 141 -9 0 -17 -6 -19 -12z"/>
<path d="M3330 15354 c-52 -23 -99 -72 -131 -139 -75 -156 9 -308 156 -281 45
9 95 50 79 66 -9 9 -20 7 -45 -6 -80 -41 -147 -11 -170 77 -11 40 -10 53 4 90
35 92 89 147 160 164 26 7 27 6 27 -38 0 -67 31 -83 59 -30 17 34 13 62 -14
88 -28 29 -72 32 -125 9z"/>
<path d="M1320 15340 c-42 -7 -133 -35 -151 -46 -12 -7 1 -34 17 -34 19 0 19
2 -18 -140 -17 -69 -29 -134 -25 -144 6 -16 16 -17 94 -11 49 4 104 8 123 9
28 1 35 6 35 21 0 19 -6 20 -102 17 -116 -4 -112 -7 -88 76 l16 52 67 2 c37 1
78 2 92 2 18 1 25 7 25 21 0 18 -7 20 -88 20 -70 0 -86 2 -82 13 3 8 5 28 5
46 0 32 2 33 55 45 31 7 79 14 107 15 31 2 54 8 56 16 10 28 -43 36 -138 20z"/>
<path d="M1904 15285 c-9 -23 5 -35 42 -35 37 0 58 25 33 41 -22 14 -69 10
-75 -6z"/>
<path d="M4339 15293 c-1 -5 -1 -17 0 -29 1 -11 -18 -74 -43 -141 -48 -127
-64 -197 -49 -206 18 -11 31 9 56 88 14 44 40 121 58 172 17 50 29 98 26 107
-6 16 -46 23 -48 9z"/>
<path d="M1655 15215 c-48 -24 -159 -141 -151 -160 3 -9 11 -13 17 -9 14 8 6
-49 -16 -125 -12 -40 -14 -56 -5 -65 25 -24 70 67 70 142 0 34 9 39 42 21 48
-26 126 53 135 135 5 37 2 46 -18 60 -28 20 -36 20 -74 1z m55 -44 c0 -38 -51
-111 -77 -111 -25 0 -10 79 18 101 26 20 59 25 59 10z"/>
<path d="M2047 15165 c-54 -40 -71 -73 -57 -109 12 -32 39 -46 88 -46 57 0
102 18 102 41 0 21 -29 26 -61 9 -29 -16 -89 -2 -89 21 0 19 74 75 100 74 8 0
15 9 15 20 0 34 -44 29 -98 -10z"/>
<path d="M1865 15180 c-3 -5 -4 -13 -1 -18 2 -4 -4 -25 -14 -47 -24 -49 -24
-50 -5 -69 21 -20 45 -9 45 20 0 14 7 41 15 61 9 20 13 43 11 50 -6 15 -42 17
-51 3z"/>
<path d="M3723 15148 c-13 -16 -43 -150 -36 -160 6 -10 43 -10 43 0 0 4 14 25
32 46 30 37 32 37 39 17 11 -28 36 -27 81 4 20 14 39 25 42 25 2 0 2 -18 -1
-39 -4 -32 -2 -41 14 -49 27 -15 48 0 35 24 -5 11 -6 28 -1 39 13 34 10 75 -7
82 -9 3 -32 -3 -52 -13 -21 -10 -40 -20 -44 -22 -5 -2 -8 5 -8 17 0 34 -20 35
-66 2 -37 -26 -43 -27 -34 -10 18 32 -15 65 -37 37z"/>
<path d="M2608 15139 c-35 -20 -20 -36 39 -42 31 -3 60 -4 65 -1 20 12 5 34
-29 43 -46 13 -53 13 -75 0z"/>
<path d="M3532 15131 c-41 -21 -52 -37 -52 -77 0 -41 27 -64 75 -64 30 0 44 7
71 36 39 40 43 75 14 104 -24 24 -63 24 -108 1z m77 -58 c-33 -45 -72 -57 -83
-27 -10 26 13 44 56 44 37 0 39 -2 27 -17z"/>
<path d="M4118 15131 c-59 -47 -86 -79 -104 -126 -10 -27 -19 -52 -19 -55 -1
-3 -11 -37 -24 -77 -23 -70 -23 -103 -1 -103 6 0 30 39 53 88 39 82 44 87 70
84 51 -6 101 48 121 132 15 62 -44 97 -96 57z m39 -88 c-20 -37 -53 -67 -66
-58 -24 14 -10 53 32 91 39 36 42 37 45 17 2 -12 -3 -34 -11 -50z"/>
<path d="M4463 15111 c-54 -43 -92 -113 -73 -135 5 -7 7 -16 3 -19 -3 -4 2
-16 12 -27 15 -16 28 -19 86 -17 73 4 107 20 86 41 -9 11 -23 10 -71 -1 -64
-15 -76 -10 -76 33 0 16 8 23 31 28 17 3 49 23 70 45 33 33 38 43 30 62 -13
37 -43 34 -98 -10z"/>
<path d="M4953 15110 c-49 -22 -92 -81 -100 -137 -4 -32 0 -45 22 -71 40 -48
82 -51 160 -13 64 32 88 62 66 84 -8 8 -17 5 -33 -10 -52 -47 -129 -68 -156
-41 -7 7 -12 24 -12 38 0 22 6 29 39 38 57 18 91 48 91 82 0 43 -26 53 -77 30z
m37 -35 c0 -2 -13 -11 -30 -20 -38 -19 -40 -11 -2 9 31 17 32 18 32 11z"/>
<path d="M1252 14638 c-27 -34 -129 -239 -121 -244 5 -3 9 -2 9 3 0 4 4 2 9
-6 6 -10 23 13 60 80 l51 94 -5 -94 c-3 -52 -7 -97 -9 -99 -2 -2 -29 -6 -60
-9 -39 -4 -56 -2 -56 6 0 30 -22 2 -74 -91 -31 -57 -54 -109 -51 -115 11 -30
35 -8 74 66 l41 79 56 7 c31 4 58 4 61 1 5 -4 -2 -55 -23 -168 -5 -23 -2 -28
14 -28 29 0 39 33 56 180 30 251 16 396 -32 338z"/>
<path d="M1731 14627 c-5 -13 -23 -91 -40 -175 -37 -181 -49 -217 -50 -154 -1
26 -5 41 -11 37 -5 -3 -10 -1 -10 4 0 6 5 11 10 11 16 0 12 77 -6 94 -11 12
-20 13 -34 6 -30 -16 -73 -77 -64 -92 4 -7 3 -9 -1 -5 -5 4 -19 -11 -32 -35
l-23 -43 7 141 c5 123 4 142 -10 147 -9 3 -26 -3 -39 -13 -21 -18 -21 -21 -7
-32 9 -7 15 -24 14 -38 -1 -14 -4 -88 -6 -165 -4 -135 -3 -140 17 -143 22 -3
50 41 38 60 -4 6 -2 8 3 5 6 -4 23 18 39 51 16 31 36 67 45 79 15 21 17 21 23
5 3 -9 9 -23 12 -31 4 -9 2 -11 -5 -7 -14 9 -15 -62 -1 -98 7 -20 17 -26 39
-26 15 0 33 6 39 13 12 15 35 105 63 252 11 60 25 118 30 128 7 13 7 23 -2 33
-16 20 -28 17 -38 -9z"/>
<path d="M1933 14628 c-17 -4 -41 -20 -52 -34 -34 -43 -26 -90 25 -144 72 -78
62 -200 -17 -200 -30 0 -56 21 -70 57 -10 27 -49 32 -49 7 0 -31 43 -86 78
-101 130 -54 205 133 101 251 -44 51 -53 82 -29 106 28 28 74 26 104 -6 38
-42 65 -9 29 35 -22 27 -77 40 -120 29z"/>
<path d="M2995 14600 c-3 -5 -1 -27 5 -48 11 -44 -4 -156 -41 -294 -26 -95
-23 -123 11 -123 22 0 25 4 23 32 -2 17 9 80 23 140 30 128 40 237 25 276 -10
27 -34 36 -46 17z"/>
<path d="M3404 14588 c-5 -7 -9 -29 -9 -48 -1 -19 -2 -72 -3 -117 l-2 -82 -42
-6 c-24 -3 -50 -7 -58 -8 -30 -5 -42 -18 -29 -33 8 -10 25 -12 67 -7 l55 6 -8
-49 c-13 -80 -12 -89 10 -89 17 0 22 11 32 75 6 41 12 76 12 78 1 1 15 2 32 2
41 0 37 33 -4 38 l-29 3 8 87 c12 134 11 156 -8 160 -9 2 -20 -3 -24 -10z"/>
<path d="M3574 14445 c-8 -19 3 -35 26 -35 22 0 33 23 17 39 -15 15 -37 14
-43 -4z"/>
<path d="M2193 14423 c-26 -5 -36 -28 -19 -42 8 -7 24 -7 45 -1 18 5 46 6 63
3 34 -7 54 13 36 34 -10 12 -76 16 -125 6z"/>
<path d="M2597 14395 c-10 -9 -17 -17 -17 -18 0 -1 9 -33 20 -72 20 -71 19
-105 -4 -105 -7 0 -18 11 -24 25 -13 28 -39 33 -48 10 -7 -18 30 -72 56 -80
66 -21 99 58 65 155 -18 50 -15 56 15 40 18 -10 24 -9 31 1 12 19 11 25 -4 38
-26 21 -73 24 -90 6z"/>
<path d="M4133 14350 c-40 -24 -40 -33 -8 -112 14 -34 25 -63 25 -65 0 -10
-25 -1 -35 14 -14 19 -35 10 -35 -16 0 -37 56 -55 101 -31 25 14 24 30 -7 97
-14 31 -23 61 -20 68 2 7 19 15 36 18 23 5 31 12 28 24 -5 26 -47 27 -85 3z"/>
<path d="M2761 14333 c-31 -25 -41 -122 -17 -158 23 -36 77 -35 105 2 44 55
37 113 -19 151 -40 27 -42 27 -69 5z m67 -75 c4 -33 -13 -68 -33 -68 -20 0
-30 46 -16 76 15 33 45 28 49 -8z"/>
<path d="M3844 14308 c-5 -7 -9 -47 -9 -88 0 -60 3 -75 16 -78 9 -1 20 8 26
21 6 14 26 41 44 61 39 45 57 36 39 -19 -15 -45 -6 -85 19 -85 16 0 20 11 25
71 11 112 -28 151 -93 90 -30 -29 -31 -29 -31 -6 0 29 -24 51 -36 33z"/>
<path d="M3075 14281 c-8 -38 3 -101 23 -123 21 -25 54 -22 80 5 41 44 57 129
26 141 -25 9 -34 -2 -34 -42 0 -41 -25 -86 -42 -76 -5 3 -8 31 -6 63 3 51 1
56 -19 59 -16 2 -23 -3 -28 -27z"/>
<path d="M3670 14263 c-35 -55 -38 -95 -10 -123 23 -23 48 -25 85 -8 42 19 69
90 47 124 -7 11 -77 54 -88 54 -2 0 -18 -21 -34 -47z m75 -27 c18 -13 18 -15
2 -40 -17 -25 -50 -35 -61 -18 -6 10 21 72 32 72 4 0 17 -6 27 -14z"/>
<path d="M3537 14233 c-3 -38 -1 -72 3 -77 16 -16 39 14 45 59 9 53 -1 85 -24
85 -15 0 -19 -11 -24 -67z"/>
<path d="M2243 14012 c-6 -4 -18 -58 -28 -120 -10 -63 -23 -115 -29 -117 -6
-1 -29 -7 -51 -11 -30 -7 -40 -14 -40 -29 0 -21 7 -22 62 -10 l31 7 -6 -43
c-4 -24 -7 -69 -7 -99 0 -48 2 -55 20 -55 14 0 19 6 18 20 -1 11 3 53 9 93 9
59 13 72 27 68 50 -15 69 -17 76 -6 11 17 -13 39 -51 46 -19 3 -34 11 -34 18
0 6 9 58 20 116 11 58 20 108 20 111 0 11 -26 18 -37 11z"/>
<path d="M2941 13986 c-7 -8 -11 -20 -10 -28 4 -21 -24 -128 -35 -136 -6 -3
-33 -6 -61 -7 -43 0 -50 -3 -50 -20 0 -17 8 -20 57 -23 l57 -3 -6 -62 c-3 -34
0 -88 6 -119 20 -95 72 -117 189 -83 41 13 52 20 52 37 0 17 -4 19 -27 14
-136 -30 -149 -29 -164 11 -5 13 -9 67 -9 119 l0 94 49 0 c60 0 101 14 101 35
0 13 -11 15 -70 10 l-71 -6 7 28 c3 15 13 50 21 76 8 26 12 54 9 62 -7 19 -30
19 -45 1z"/>
<path d="M4377 13966 c-3 -8 -2 -30 4 -48 5 -18 9 -43 9 -56 0 -23 -3 -24 -62
-21 -52 3 -63 1 -66 -12 -4 -21 45 -39 103 -39 48 0 49 -2 61 -103 7 -57 26
-89 44 -71 6 6 5 35 0 74 -16 107 -21 100 70 100 65 0 82 3 87 16 9 25 -12 31
-97 26 -79 -5 -80 -4 -90 22 -5 15 -10 44 -10 65 0 37 -14 61 -36 61 -6 0 -14
-6 -17 -14z"/>
<path d="M1976 13885 c-3 -9 1 -18 10 -22 19 -7 39 11 30 26 -10 16 -33 13
-40 -4z"/>
<path d="M1675 13880 c-3 -5 -7 -44 -9 -87 -1 -43 -11 -104 -20 -135 -28 -87
-3 -118 46 -59 l24 28 17 -28 c21 -38 61 -57 82 -39 12 10 13 16 4 26 -6 8
-17 14 -23 14 -7 0 -22 18 -35 40 -14 26 -29 40 -43 40 -17 0 -19 5 -14 38 14
86 16 145 5 158 -13 16 -25 18 -34 4z"/>
<path d="M1305 13762 c-45 -29 -63 -53 -85 -117 -24 -69 -25 -101 -6 -108 21
-8 32 10 45 73 15 70 33 98 79 118 40 18 49 45 17 50 -11 1 -33 -6 -50 -16z"/>
<path d="M2348 13717 c-52 -40 -72 -77 -64 -121 7 -39 28 -59 79 -81 33 -14
41 -14 72 -1 37 16 54 41 38 57 -6 6 -20 4 -40 -7 -26 -15 -34 -16 -61 -5 -37
16 -50 41 -21 41 45 0 109 51 109 87 0 69 -45 81 -112 30z m62 -31 c0 -13 -57
-47 -77 -46 -10 1 58 60 69 60 4 0 8 -6 8 -14z"/>
<path d="M2602 13717 c-25 -26 -52 -88 -52 -117 0 -12 13 -35 29 -51 27 -26
35 -29 95 -28 46 1 66 5 66 14 0 22 -29 37 -62 32 -70 -10 -95 24 -66 87 8 20
16 24 33 20 26 -6 57 28 48 52 -8 23 -67 17 -91 -9z"/>
<path d="M1038 13701 c-13 -11 -33 -38 -43 -61 -23 -51 -13 -90 28 -104 22 -8
33 -6 57 13 l31 22 20 -25 c11 -14 27 -26 34 -26 23 0 28 20 11 39 -9 10 -16
35 -16 60 0 85 -63 128 -122 82z m62 -37 c0 -35 -51 -96 -68 -80 -9 10 9 56
30 76 26 24 38 25 38 4z"/>
<path d="M3585 13701 c-69 -41 -86 -118 -37 -163 49 -47 90 -61 155 -55 66 6
72 9 63 33 -5 13 -15 15 -59 10 -43 -5 -59 -2 -91 16 -54 31 -64 50 -46 84 20
35 54 51 75 34 13 -11 18 -11 31 1 12 13 12 18 -6 37 -25 27 -46 28 -85 3z"/>
<path d="M4095 13705 c-16 -7 -42 -24 -57 -37 l-27 -23 19 -55 c13 -39 24 -56
38 -58 25 -4 31 20 17 71 -8 34 -7 41 10 53 10 8 33 14 51 14 40 0 54 18 29
37 -23 16 -42 16 -80 -2z"/>
<path d="M1918 13698 c-19 -16 -30 -46 -18 -53 5 -3 5 -18 0 -35 -5 -17 -6
-30 -3 -30 3 0 -2 -9 -12 -20 -21 -23 -13 -50 15 -50 26 0 40 35 40 99 0 26 5
52 12 59 19 19 -12 47 -34 30z"/>
<path d="M1443 13690 c-30 -12 -43 -41 -43 -93 0 -74 47 -115 101 -87 31 17
24 40 -11 35 -37 -4 -55 22 -45 71 5 32 8 34 45 34 42 0 54 9 44 34 -7 18 -54
21 -91 6z"/>
<path d="M3806 13665 c-78 -84 1 -191 136 -183 38 2 53 7 53 18 0 9 -13 15
-40 18 -56 4 -100 20 -118 40 -15 17 -14 18 19 14 66 -8 98 52 51 96 -31 30
-72 28 -101 -3z m79 -34 c3 -5 2 -12 -3 -15 -13 -8 -53 5 -46 15 7 12 41 12
49 0z"/>
<path d="M1095 13151 c-35 -16 -67 -58 -72 -98 -5 -36 -1 -44 33 -79 22 -21
59 -55 84 -75 86 -69 142 -198 105 -239 -52 -57 -195 -9 -195 66 0 21 -4 25
-22 22 -33 -4 -35 -42 -4 -83 31 -40 100 -75 150 -75 50 0 110 32 125 68 28
68 -38 195 -157 300 -57 50 -72 69 -72 91 0 52 56 76 115 49 14 -6 25 -17 25
-24 0 -18 27 -25 40 -9 36 44 -91 114 -155 86z"/>
<path d="M1565 13120 c-27 -5 -79 -10 -115 -13 -59 -4 -65 -6 -68 -27 -4 -23
-3 -23 77 -16 62 5 81 4 81 -6 0 -7 6 -56 14 -108 8 -52 17 -134 21 -182 7
-86 19 -114 43 -99 9 6 7 51 -10 204 -12 108 -20 199 -17 202 3 3 39 7 80 8
66 3 74 5 74 23 0 17 -8 19 -65 21 -36 0 -87 -3 -115 -7z"/>
<path d="M2047 13078 c-14 -11 -15 -19 -7 -47 15 -53 25 -311 12 -311 -23 0
-112 122 -176 241 -29 54 -48 71 -69 63 -14 -5 -16 -26 -16 -132 0 -70 -5
-143 -11 -162 -16 -54 -13 -80 8 -80 26 0 42 76 42 198 l1 97 33 -55 c105
-170 174 -239 215 -213 14 9 16 32 16 154 -1 225 -10 274 -48 247z"/>
<path d="M2707 13063 c-8 -15 -27 -66 -42 -113 -16 -47 -35 -90 -44 -97 -13
-9 -14 -16 -5 -30 9 -15 7 -32 -12 -83 -24 -67 -23 -80 4 -80 12 0 24 21 42
76 25 78 41 94 91 94 17 0 19 -8 19 -84 0 -61 4 -87 15 -96 26 -22 33 -2 27
85 -3 62 -1 93 9 111 9 17 10 27 3 32 -6 4 -14 40 -17 79 -7 86 -24 127 -54
131 -16 2 -26 -5 -36 -25z m46 -115 l6 -67 -30 -6 c-17 -4 -33 -5 -36 -2 -5 6
22 98 39 130 13 25 14 22 21 -55z"/>
<path d="M3453 13070 c-32 -13 -56 -55 -49 -85 4 -16 40 -52 95 -95 94 -74
116 -108 115 -171 -2 -51 -20 -79 -51 -79 -28 0 -111 56 -143 97 -20 26 -50
26 -50 -1 0 -8 24 -36 54 -63 56 -52 110 -83 143 -83 49 0 93 66 93 137 -1 69
-31 116 -125 189 -98 77 -107 102 -43 118 30 7 43 5 73 -13 29 -17 40 -19 51
-10 11 9 12 15 2 26 -31 38 -112 54 -165 33z"/>
<path d="M3267 13033 c-3 -5 -8 -60 -12 -123 -7 -124 -29 -223 -48 -218 -20 6
-58 94 -66 153 -13 96 -51 101 -81 9 -19 -61 -47 -104 -54 -83 -14 48 -46 187
-46 200 0 26 -37 66 -49 53 -8 -7 -3 -44 18 -130 16 -65 33 -137 38 -159 7
-30 14 -41 31 -43 17 -3 30 9 60 56 l38 59 23 -57 c27 -70 61 -110 95 -110 28
0 40 17 62 90 15 50 37 287 28 302 -6 10 -31 11 -37 1z"/>
<path d="M2325 12881 c-48 -8 -65 -17 -65 -36 0 -21 12 -24 55 -14 22 5 52 11
68 14 18 4 27 12 27 25 0 22 -12 23 -85 11z"/>
<path d="M6312 13493 l3 -2048 2778 -3 2777 -2 0 1263 0 1264 30 41 c16 22 43
51 60 63 32 25 38 44 16 52 -8 3 -34 -12 -60 -34 l-46 -41 0 746 0 746 -2780
0 -2780 0 2 -2047z m5548 1290 l0 -748 -25 -49 -25 -49 0 66 c0 53 3 67 15 67
8 0 15 8 15 19 0 14 -10 21 -36 26 -46 8 -56 -2 -44 -45 6 -19 8 -55 5 -80
-11 -85 50 -152 82 -90 10 20 13 -208 13 -1212 l0 -1238 -2770 0 -2770 0 0
2040 0 2040 2770 0 2770 0 0 -747z m-63 -818 c0 -8 -4 -15 -9 -15 -10 0 -11
14 -1 23 9 10 10 9 10 -8z"/>
<path d="M8835 15292 c-49 -24 -114 -88 -157 -154 -51 -81 -41 -185 24 -244
59 -54 190 -84 223 -51 14 15 14 17 -4 27 -11 5 -40 10 -66 10 -134 0 -210
130 -139 236 68 102 155 162 215 149 30 -7 31 -8 24 -51 -5 -36 -3 -45 10 -50
25 -10 36 8 42 68 7 65 3 68 -75 74 -43 4 -67 0 -97 -14z"/>
<path d="M10312 15297 c-5 -7 -12 -45 -16 -86 -3 -40 -9 -77 -12 -82 -3 -5
-36 -9 -75 -9 -62 0 -69 -2 -69 -19 0 -16 9 -21 45 -27 25 -3 54 -4 65 -1 11
3 20 4 20 3 0 -2 -9 -29 -20 -62 -21 -61 -20 -84 3 -84 15 0 25 21 53 108 14
44 20 52 40 52 17 0 24 6 24 20 0 14 -7 20 -21 20 -17 0 -20 5 -15 28 15 73
16 140 2 145 -8 3 -19 0 -24 -6z"/>
<path d="M6924 15285 c-4 -8 -14 -15 -24 -15 -29 0 -35 -21 -11 -39 l22 -17
-22 -89 c-11 -50 -22 -111 -23 -137 -1 -39 -5 -49 -24 -58 -48 -22 -19 -35 79
-35 52 -1 104 -5 117 -9 18 -7 22 -5 22 12 0 30 -32 43 -105 44 -61 0 -63 1
-55 22 5 11 11 37 15 57 l5 36 92 7 c51 4 94 9 96 11 3 2 2 12 -2 21 -5 13
-19 15 -92 13 -81 -4 -85 -3 -79 16 3 11 8 35 12 53 8 43 32 54 109 50 60 -3
64 -2 64 18 0 15 -8 24 -25 28 -14 4 -30 4 -34 1 -5 -2 -24 -7 -43 -9 -26 -4
-39 0 -51 15 -20 23 -36 24 -43 4z"/>
<path d="M9874 15262 c-6 -4 -14 -27 -17 -52 -3 -25 -22 -96 -42 -158 -40
-127 -42 -165 -7 -170 20 -3 22 1 22 36 0 21 11 70 23 108 13 38 32 102 42
142 15 63 16 76 4 87 -8 8 -19 11 -25 7z"/>
<path d="M7517 15183 c-4 -3 -7 -15 -7 -25 0 -13 8 -18 29 -18 35 0 48 15 31
35 -13 16 -42 20 -53 8z"/>
<path d="M7216 15076 c-19 -20 -44 -36 -55 -36 -24 0 -29 -35 -7 -43 17 -7 14
-42 -15 -157 -16 -64 -17 -76 -5 -88 23 -23 33 -7 52 78 18 79 19 81 45 75 60
-13 159 62 159 120 0 44 -37 76 -94 82 -43 5 -49 3 -80 -31z m128 -39 c16 -26
-53 -90 -92 -85 -33 4 -38 24 -18 73 15 34 18 36 57 33 27 -2 46 -9 53 -21z"/>
<path d="M7645 15082 c-38 -23 -50 -40 -59 -75 -6 -23 -1 -34 26 -61 57 -57
218 -75 218 -26 0 18 -7 20 -62 20 -74 0 -131 24 -136 57 -4 30 37 56 82 52
45 -4 64 12 41 35 -22 21 -73 20 -110 -2z"/>
<path d="M10457 15086 c-55 -20 -65 -32 -78 -92 -21 -94 13 -128 125 -122 56
3 61 6 70 31 14 38 2 43 -55 23 -40 -15 -56 -16 -75 -7 -33 15 -33 51 0 51 84
0 139 76 84 114 -26 19 -23 19 -71 2z m43 -46 c0 -11 -42 -30 -63 -30 -17 1
32 40 49 40 8 0 14 -5 14 -10z"/>
<path d="M7452 15077 c-22 -28 -33 -148 -14 -154 15 -6 38 46 47 108 5 37 4
47 -8 52 -9 3 -20 0 -25 -6z"/>
<path d="M9950 15077 c-46 -16 -82 -70 -78 -117 2 -29 9 -38 38 -52 46 -22
102 -23 130 0 19 15 20 19 7 30 -11 9 -22 10 -42 2 -15 -6 -37 -8 -48 -4 -16
5 -11 10 29 23 46 15 49 18 52 53 4 44 -12 78 -36 77 -9 0 -33 -5 -52 -12z
m44 -52 c4 -11 -3 -19 -20 -25 -48 -19 -62 -4 -22 24 28 20 34 20 42 1z"/>
<path d="M9595 15050 c-50 -20 -71 -64 -110 -228 -20 -83 -19 -92 6 -92 21 0
53 58 65 120 6 25 11 31 27 26 27 -7 90 27 112 61 50 76 -14 149 -100 113z
m59 -36 c25 -10 19 -40 -15 -68 -37 -31 -49 -33 -49 -6 0 11 -5 20 -10 20 -7
0 -7 7 0 21 9 16 23 25 57 38 1 1 8 -2 17 -5z"/>
<path d="M9040 15020 c-27 -27 -28 -110 -1 -134 31 -28 82 -31 114 -6 38 30
37 78 -4 125 -36 41 -77 47 -109 15z m88 -58 c22 -28 10 -47 -28 -47 -29 0
-36 4 -38 23 -6 38 5 54 30 47 13 -4 29 -14 36 -23z"/>
<path d="M9265 15029 c-3 -4 -7 -26 -10 -49 -2 -22 -6 -48 -10 -59 -6 -21 15
-43 32 -33 6 4 18 23 26 42 15 33 16 34 22 13 9 -28 36 -30 60 -3 25 28 35 25
35 -9 0 -31 23 -48 38 -28 4 7 10 30 11 53 3 52 -18 72 -55 55 -32 -14 -31
-14 -37 8 -4 15 -14 19 -56 19 -28 0 -54 -4 -56 -9z"/>
<path d="M8130 14995 c-20 -24 -2 -34 69 -37 68 -3 95 14 49 31 -53 20 -104
23 -118 6z"/>
<path d="M8472 14529 c-51 -66 -61 -99 -30 -99 20 1 121 138 114 155 -10 28
-31 14 -84 -56z"/>
<path d="M8065 14558 c-2 -7 -3 -22 -2 -33 1 -11 -2 -62 -7 -112 l-8 -93 -47
0 c-71 0 -121 -17 -121 -41 0 -21 9 -21 128 -3 17 3 32 1 32 -3 -1 -26 -29
-201 -35 -214 -7 -19 16 -41 33 -30 13 8 27 72 37 178 8 81 6 79 111 88 66 6
74 10 74 37 0 19 -4 20 -52 14 -29 -4 -68 -9 -86 -13 l-32 -5 6 58 c3 33 10
83 15 113 5 29 6 57 3 62 -8 13 -44 11 -49 -3z"/>
<path d="M6934 14438 c-38 -41 -72 -89 -108 -151 -16 -29 -32 -45 -37 -40 -11
11 -29 105 -29 153 0 43 -22 69 -43 51 -20 -16 -35 -74 -61 -229 -25 -144 -22
-187 12 -180 13 2 17 14 19 48 3 70 26 220 34 220 3 0 9 -17 13 -38 6 -43 45
-86 72 -80 10 2 39 37 64 79 25 42 53 87 63 100 l19 24 -6 -30 c-13 -71 -28
-255 -22 -270 3 -9 14 -15 23 -13 13 2 18 14 19 43 1 22 7 81 12 130 27 226
27 215 5 215 -10 0 -33 -15 -49 -32z"/>
<path d="M9375 14436 l-40 -13 1 -94 c1 -93 1 -94 25 -92 111 12 133 0 131
-72 0 -54 -41 -122 -77 -131 -28 -7 -91 24 -129 64 -29 32 -56 33 -56 3 0 -37
117 -111 176 -111 63 0 134 92 134 174 0 79 -43 126 -114 126 -36 0 -46 15
-46 72 0 22 6 29 28 34 15 3 33 7 40 10 7 2 29 -3 49 -11 47 -20 63 -19 63 3
0 24 -60 52 -108 51 -20 -1 -55 -7 -77 -13z"/>
<path d="M9025 14418 c-2 -13 -11 -67 -19 -122 -7 -54 -19 -102 -26 -106 -7
-4 -10 -15 -7 -24 4 -9 3 -16 -2 -16 -9 0 -6 -133 4 -149 4 -7 14 -11 23 -9
12 2 16 17 18 64 1 33 6 69 11 79 9 16 13 15 44 -13 34 -30 34 -30 34 -123 0
-75 3 -94 17 -103 9 -6 20 -7 24 -4 4 4 6 51 5 105 -2 103 -11 129 -58 166
-22 18 -32 50 -14 45 13 -4 141 148 141 167 0 23 -36 18 -53 -7 -8 -13 -27
-36 -42 -53 -14 -16 -38 -45 -52 -63 -14 -18 -27 -31 -29 -29 -2 2 3 45 12 97
8 52 12 100 10 107 -8 21 -35 15 -41 -9z"/>
<path d="M9983 14430 c-37 -15 -63 -80 -63 -160 l0 -70 56 0 c62 0 118 -26
129 -60 9 -27 -13 -100 -32 -107 -9 -4 -54 6 -100 22 -62 21 -87 25 -95 17
-19 -19 6 -36 101 -67 87 -27 90 -28 116 -11 53 35 73 141 35 189 -24 31 -96
67 -133 67 -34 0 -45 36 -25 88 19 51 60 71 99 48 36 -21 59 -20 59 2 0 39
-90 65 -147 42z"/>
<path d="M9790 14420 c-8 -5 -22 -11 -31 -13 -9 -3 -19 -18 -22 -34 -4 -16
-40 -63 -87 -112 -44 -46 -80 -90 -80 -98 0 -22 23 -25 63 -8 20 8 48 15 63
15 l26 0 -6 -67 c-4 -38 -9 -85 -12 -105 -5 -30 -2 -39 11 -44 28 -11 34 7 41
119 7 106 14 123 42 95 9 -9 15 -9 24 0 17 17 -1 46 -31 50 -18 3 -21 10 -21
56 0 45 4 56 30 81 42 40 34 90 -10 65z m-67 -174 c-3 -16 -13 -26 -30 -29
l-24 -4 27 28 c15 16 29 29 29 29 1 0 0 -11 -2 -24z"/>
<path d="M10615 14370 c-32 -13 -95 -87 -89 -105 9 -22 54 -20 54 3 0 19 46
69 55 61 6 -7 -61 -135 -93 -179 -15 -19 -48 -56 -74 -82 -51 -49 -58 -68 -32
-89 13 -11 21 -6 54 29 21 23 40 42 43 42 4 0 17 -11 31 -25 14 -14 32 -25 41
-25 19 0 20 34 0 50 -8 7 -15 19 -15 27 0 7 -7 16 -15 19 -12 5 -10 12 9 37
32 43 106 190 106 211 0 12 -41 40 -53 35 -1 0 -11 -4 -22 -9z"/>
<path d="M10972 14358 c-16 -16 -15 -57 3 -108 20 -56 20 -57 -13 -65 -15 -3
-42 -14 -60 -25 -27 -17 -32 -26 -32 -59 0 -63 65 -120 107 -93 6 4 25 25 42
46 35 44 39 83 18 155 -9 28 -11 60 -6 90 6 37 4 49 -9 59 -20 15 -35 15 -50
0z m38 -226 c0 -10 -13 -33 -29 -52 l-30 -35 -23 23 c-28 28 -17 51 33 69 46
16 49 16 49 -5z"/>
<path d="M8430 14261 c-33 -9 -37 -43 -11 -96 25 -50 19 -81 -20 -101 -37 -18
-59 -8 -88 42 -20 33 -24 36 -37 22 -14 -14 -14 -19 0 -46 34 -65 89 -87 146
-57 62 32 78 99 38 163 l-21 35 46 -7 c52 -8 63 6 29 37 -19 18 -40 20 -82 8z"/>
<path d="M7232 14241 c-8 -21 27 -41 72 -41 l41 0 -50 -28 c-111 -62 -136 -82
-133 -105 3 -19 12 -23 73 -33 39 -6 87 -18 107 -28 45 -22 68 -15 68 19 0 18
-5 25 -20 25 -11 0 -41 5 -67 11 -102 25 -101 20 -12 69 83 45 131 92 113 109
-5 5 -49 11 -98 13 -69 2 -90 0 -94 -11z"/>
<path d="M7072 14243 c-37 -15 -54 -111 -26 -151 23 -33 60 -28 101 13 30 30
35 40 29 67 -11 58 -58 90 -104 71z m56 -74 c3 -29 -20 -54 -43 -45 -18 6 -19
29 -4 57 14 27 43 20 47 -12z"/>
<path d="M7718 14216 c-25 -22 -28 -32 -28 -90 0 -36 5 -68 10 -71 21 -13 40
17 40 60 0 24 3 50 6 59 8 20 38 21 54 1 18 -22 50 -19 50 5 0 23 -34 47 -76
55 -22 4 -36 -1 -56 -19z"/>
<path d="M7520 14202 c-47 -23 -74 -77 -59 -120 14 -41 34 -47 75 -21 l34 21
10 -26 c11 -30 32 -41 56 -32 15 6 14 9 -2 34 -11 16 -18 46 -18 77 -1 34 -5
49 -13 48 -7 -2 -13 3 -13 11 0 8 -7 17 -16 20 -20 8 -13 9 -54 -12z m50 -40
c0 -4 -16 -23 -35 -42 -32 -31 -35 -32 -35 -12 0 25 33 62 55 62 8 0 15 -4 15
-8z"/>
<path d="M10701 14185 c-4 -5 -16 -29 -26 -53 -14 -32 -15 -46 -7 -54 8 -8 23
-1 56 30 25 23 48 42 52 42 3 0 4 -28 2 -62 -3 -56 -1 -63 17 -66 11 -2 17 -1
13 3 -4 5 -2 15 4 23 16 19 16 116 0 135 -15 17 -99 19 -111 2z"/>
<path d="M11357 14165 c-20 -14 -37 -30 -37 -34 0 -5 -9 -11 -20 -14 -13 -3
-20 -14 -20 -29 0 -13 -7 -33 -15 -44 -18 -24 -19 -64 -2 -64 18 0 40 25 65
75 11 22 32 51 47 65 l28 25 -7 -35 c-9 -44 -11 -51 -20 -72 -8 -18 -1 -38 14
-38 5 0 32 20 60 45 28 25 57 45 65 45 26 0 16 -28 -22 -63 -24 -24 -34 -40
-30 -51 8 -20 27 -12 71 29 18 16 26 20 22 10 -8 -21 8 -51 35 -65 47 -26 139
35 139 91 0 34 -47 119 -66 119 -7 0 -28 -18 -48 -40 -39 -43 -46 -47 -46 -27
0 19 -33 47 -54 47 -10 0 -31 -9 -47 -21 l-30 -21 6 25 c8 31 -10 67 -33 67
-10 0 -34 -11 -55 -25z m333 -120 c0 -18 -48 -55 -71 -55 -23 0 -24 12 -3 53
29 57 36 62 56 37 10 -12 18 -28 18 -35z"/>
<path d="M10283 13960 c-28 -34 -39 -57 -36 -70 7 -25 31 -26 40 -2 4 9 19 32
35 50 28 33 34 62 12 69 -5 2 -29 -19 -51 -47z"/>
<path d="M6824 13739 c-38 -11 -72 -46 -80 -84 -6 -32 -5 -33 88 -155 49 -63
62 -101 56 -161 -3 -31 -6 -34 -39 -37 -33 -3 -39 1 -76 50 -22 29 -43 61 -46
71 -8 21 -35 23 -43 3 -3 -8 3 -27 12 -43 83 -130 154 -165 215 -104 55 56 34
150 -61 273 -65 83 -72 108 -38 132 37 26 74 20 95 -14 20 -34 53 -41 53 -10
0 26 -49 77 -80 83 -14 3 -39 1 -56 -4z"/>
<path d="M11346 13685 c-9 -9 -16 -26 -16 -38 0 -12 -10 -50 -22 -84 l-22 -63
-52 0 c-47 0 -52 -2 -58 -25 -4 -14 -4 -30 -1 -35 9 -15 32 -12 39 5 3 8 16
15 29 15 l23 0 -15 -75 c-17 -82 -10 -110 25 -110 16 0 19 6 16 43 -2 24 1 65
8 91 l11 48 61 7 c69 7 73 9 64 32 -5 14 -15 16 -55 11 l-50 -6 16 37 c30 69
43 140 28 152 -9 8 -17 6 -29 -5z"/>
<path d="M7757 13683 c-11 -10 -8 -43 3 -43 6 0 10 -24 10 -54 l0 -53 -52 -14
c-34 -9 -53 -20 -53 -29 0 -19 37 -25 76 -11 16 5 29 7 29 3 0 -7 -16 -113
-25 -168 -4 -24 -1 -33 12 -38 10 -4 14 -4 10 0 -4 4 2 13 12 20 15 11 20 32
26 112 l7 99 64 31 c46 23 62 36 58 47 -8 20 -27 19 -74 -5 l-40 -20 0 27 c0
51 -20 103 -39 103 -10 0 -21 -3 -24 -7z"/>
<path d="M8505 13630 c-8 -14 3 -30 21 -30 8 0 14 9 14 20 0 21 -24 28 -35 10z"/>
<path d="M9169 13617 c-48 -32 -107 -121 -114 -171 -7 -45 11 -104 43 -139 46
-51 136 -63 236 -31 60 19 74 35 50 59 -14 14 -19 13 -50 -5 -47 -30 -131 -37
-172 -16 -38 20 -62 62 -62 111 0 42 39 115 78 145 l26 21 10 -33 c20 -60 86
-46 86 18 0 62 -68 83 -131 41z"/>
<path d="M9799 13589 c-31 -33 -45 -84 -35 -124 6 -24 4 -25 -35 -25 -33 0
-40 -3 -37 -17 2 -13 15 -19 46 -21 47 -3 53 -16 26 -57 -12 -19 -25 -25 -51
-25 -27 0 -34 -4 -31 -17 2 -10 16 -22 31 -27 22 -8 32 -6 55 11 15 11 32 31
39 44 36 76 36 75 18 103 -33 50 -13 136 32 136 16 0 17 22 1 38 -18 18 -27
15 -59 -19z"/>
<path d="M11081 13561 c-7 -13 -6 -23 3 -36 12 -16 13 -16 29 0 9 9 17 25 17
36 0 25 -36 25 -49 0z"/>
<path d="M7279 13491 c-20 -16 -25 -16 -37 -4 -26 26 -37 -1 -36 -87 2 -114
24 -129 54 -35 19 60 39 95 54 95 20 0 26 -23 26 -97 0 -61 1 -64 23 -61 21 3
22 8 22 80 0 67 -3 80 -24 102 -29 31 -51 33 -82 7z"/>
<path d="M8662 13470 c-26 -25 -32 -27 -42 -15 -16 20 -39 19 -47 -1 -4 -10 1
-22 12 -30 16 -12 17 -18 7 -40 -26 -55 17 -61 52 -6 26 41 63 78 71 70 3 -3
1 -17 -5 -32 -16 -42 -12 -74 10 -86 21 -11 28 -3 28 30 0 8 3 36 7 62 13 80
-36 105 -93 48z"/>
<path d="M7078 13479 c-38 -15 -62 -78 -48 -130 12 -43 33 -59 80 -59 77 0
108 96 54 168 -26 33 -41 37 -86 21z m56 -58 c36 -30 -3 -109 -42 -85 -21 13
-27 56 -13 83 12 21 31 22 55 2z"/>
<path d="M8495 13467 c-3 -12 -5 -52 -3 -87 3 -57 5 -65 22 -65 18 0 20 8 23
74 3 70 -6 101 -28 101 -5 0 -11 -10 -14 -23z"/>
<path d="M7492 13454 c-39 -16 -72 -76 -55 -102 11 -18 58 -21 101 -7 16 5 22
3 22 -6 0 -19 47 -69 65 -69 27 0 27 22 1 49 -15 16 -29 45 -33 67 -10 67 -46
92 -101 68z m36 -46 c-6 -16 -48 -43 -48 -30 0 13 28 42 42 42 5 0 8 -5 6 -12z"/>
<path d="M7953 13456 c-33 -24 -59 -100 -45 -131 13 -29 56 -34 88 -10 24 18
34 19 34 1 0 -22 40 -46 78 -46 26 0 33 4 30 17 -2 10 -12 19 -23 21 -39 8
-48 23 -42 79 6 60 -1 69 -58 78 -28 4 -46 2 -62 -9z m67 -56 c0 -17 -39 -50
-60 -50 -16 0 -12 25 10 53 22 28 50 27 50 -3z"/>
<path d="M10067 13448 c-22 -35 -29 -114 -12 -128 22 -18 32 -5 37 50 6 57 13
69 30 52 22 -22 40 -14 36 16 -3 23 -8 27 -40 30 -30 3 -40 -1 -51 -20z"/>
<path d="M10557 13458 c-28 -22 -33 -72 -8 -97 23 -23 60 -28 78 -10 14 14 19
-5 27 -108 l6 -73 -40 0 c-51 0 -103 -21 -123 -50 -34 -49 32 -145 99 -143 36
1 94 43 94 68 0 7 9 22 20 35 23 26 26 68 6 76 -12 5 -27 133 -30 264 l-1 45
-55 3 c-34 1 -62 -3 -73 -10z m53 -42 c0 -16 -18 -31 -27 -22 -8 8 5 36 17 36
5 0 10 -6 10 -14z m45 -328 c-7 -37 -38 -68 -65 -68 -20 0 -60 44 -60 66 0 21
31 33 83 34 l49 0 -7 -32z"/>
<path d="M9922 13430 c-49 -46 -33 -122 25 -128 45 -4 88 37 78 76 -8 33 -43
72 -65 72 -9 0 -26 -9 -38 -20z m56 -55 c5 -22 -18 -37 -35 -23 -9 7 -10 15
-2 30 12 23 32 19 37 -7z"/>
<path d="M10772 13417 c-60 -64 24 -161 111 -128 32 12 77 61 77 82 0 32 -28
28 -55 -7 -21 -27 -33 -34 -60 -34 -43 0 -64 30 -39 54 17 17 16 47 -2 53 -5
2 -20 -7 -32 -20z"/>
<path d="M11475 13429 c-37 -10 -105 -65 -105 -84 0 -23 30 -45 61 -45 24 0
29 -4 29 -24 0 -25 23 -56 41 -56 16 0 22 29 10 44 -8 10 -6 26 11 67 12 30
26 56 30 57 14 6 8 40 -8 46 -19 7 -31 7 -69 -5z m15 -53 c0 -14 -57 -43 -66
-33 -4 3 9 15 27 26 40 25 39 25 39 7z"/>
<path d="M11044 13416 c-3 -8 -6 -36 -7 -63 -3 -65 21 -65 40 0 11 38 11 52 2
63 -15 18 -28 18 -35 0z"/>
<path d="M11706 13421 c-3 -4 -16 -6 -29 -4 -31 6 -42 -10 -61 -83 -21 -80
-20 -94 4 -94 20 0 44 32 33 44 -3 3 0 6 9 6 8 0 25 20 37 45 12 24 26 47 31
50 17 10 41 -8 47 -36 7 -38 23 -47 40 -24 19 27 16 39 -16 74 -29 30 -82 43
-95 22z"/>
<path d="M8201 12897 c-6 -8 -15 -58 -21 -113 -6 -54 -20 -153 -31 -219 -13
-84 -16 -122 -8 -130 17 -16 49 31 49 74 1 20 8 87 18 148 l17 113 28 -45 c35
-55 64 -59 101 -14 14 17 26 34 26 38 0 4 12 23 26 42 l26 34 -6 -85 c-3 -47
-10 -108 -14 -137 -9 -55 1 -97 20 -91 7 3 16 29 20 59 3 30 11 88 16 129 6
41 14 105 17 143 6 62 5 67 -13 67 -24 0 -103 -83 -131 -139 -12 -22 -25 -41
-30 -41 -16 0 -41 49 -52 102 -16 73 -34 94 -58 65z"/>
<path d="M6833 12885 c-65 -28 -61 -70 12 -131 58 -48 94 -116 101 -191 7 -73
-8 -97 -61 -97 -45 0 -75 31 -75 75 0 35 -27 40 -39 7 -21 -56 33 -118 108
-126 46 -4 53 -2 82 27 31 31 31 33 27 109 -6 98 -37 162 -110 226 -58 50 -56
66 10 66 26 0 35 -5 42 -25 11 -28 20 -31 38 -13 48 48 -59 106 -135 73z"/>
<path d="M7299 12886 c-2 -3 -22 -7 -44 -10 -22 -3 -76 -13 -120 -23 -62 -14
-81 -22 -83 -37 -4 -17 0 -18 49 -12 30 3 69 9 86 12 l33 6 -3 -183 c-2 -173
-1 -184 16 -184 17 0 19 14 23 185 3 101 8 188 11 193 3 4 24 7 47 6 52 -2 76
8 76 32 0 16 -7 19 -43 19 -24 0 -46 -2 -48 -4z"/>
<path d="M7667 12883 c-4 -8 -23 -146 -36 -268 l-7 -70 -22 42 c-12 23 -22 49
-22 56 0 18 -89 195 -102 203 -20 13 -38 -24 -53 -110 -9 -49 -18 -93 -21 -97
-3 -5 -11 -40 -18 -79 -11 -56 -11 -72 -1 -80 19 -16 45 15 45 52 0 16 9 64
19 106 11 43 21 88 23 102 3 22 6 20 30 -25 14 -28 31 -68 37 -90 16 -58 45
-102 81 -120 50 -26 60 -10 60 101 0 51 7 130 16 174 9 44 14 87 10 95 -6 16
-32 21 -39 8z"/>
<path d="M8602 12793 c-35 -56 -44 -82 -44 -128 0 -51 28 -93 77 -117 40 -20
47 -20 82 -7 75 28 106 149 56 218 -20 26 -78 63 -119 75 -18 5 -27 -2 -52
-41z m128 -50 c29 -37 27 -103 -3 -139 -20 -23 -28 -26 -60 -20 -64 12 -85 95
-42 162 21 32 78 31 105 -3z"/>
<path d="M10254 12824 c-63 -23 -83 -50 -75 -102 5 -39 10 -45 41 -57 88 -32
92 -34 85 -58 -15 -48 -65 -60 -131 -32 -40 17 -54 13 -54 -14 0 -22 67 -44
132 -44 56 0 98 44 98 103 0 40 -1 41 -60 67 -53 22 -60 29 -60 53 0 33 16 42
88 45 55 2 84 17 67 34 -19 17 -89 20 -131 5z"/>
<path d="M9725 12821 l-60 -6 0 -65 c-1 -91 0 -93 51 -85 60 9 84 -6 84 -53 0
-61 -9 -67 -69 -47 -28 9 -53 21 -56 26 -9 14 -32 11 -38 -5 -11 -29 4 -56 32
-56 14 0 46 -7 70 -15 48 -17 75 -13 86 13 16 36 22 107 13 134 -13 35 -35 48
-87 48 -34 0 -41 3 -41 19 0 43 10 51 66 51 46 0 54 3 54 19 0 17 -21 34 -38
29 -4 -1 -34 -4 -67 -7z"/>
<path d="M9306 12804 c-3 -9 -3 -21 1 -27 5 -7 6 -71 4 -143 -3 -112 -1 -133
14 -147 25 -26 34 -12 32 49 -2 61 11 78 53 69 29 -7 80 -61 80 -87 0 -9 4
-19 9 -23 10 -5 41 20 41 34 0 17 -63 93 -91 110 l-31 19 65 49 c72 53 82 66
63 82 -10 9 -33 -4 -97 -53 l-84 -65 -5 62 c-3 34 -9 68 -13 75 -11 17 -34 15
-41 -4z"/>
<path d="M8880 12785 c-24 -29 5 -44 83 -43 119 1 119 1 107 -22 -6 -10 -42
-38 -80 -60 -48 -28 -79 -54 -97 -83 -15 -23 -38 -54 -51 -69 -41 -45 -27 -54
105 -63 178 -12 243 -4 243 29 0 22 -14 26 -51 15 -20 -6 -77 -7 -141 -3
l-107 6 26 42 c30 47 39 55 109 95 63 37 104 84 104 121 0 36 -13 41 -126 39
-51 -1 -97 2 -102 5 -5 3 -15 -1 -22 -9z"/>
<path d="M10037 12793 c-4 -3 -7 -13 -7 -22 0 -9 -30 -43 -67 -77 -42 -38 -64
-65 -59 -72 4 -7 28 -12 54 -12 76 0 88 -6 88 -46 0 -40 18 -64 35 -47 6 6 13
57 16 112 4 91 3 104 -17 136 -22 35 -31 41 -43 28z m23 -111 l0 -38 -40 4
-41 4 38 34 c21 18 39 33 41 34 1 0 2 -17 2 -38z"/>
<path d="M7860 12693 c-110 -22 -110 -22 -110 -44 0 -20 4 -21 48 -14 92 13
140 26 146 40 9 25 -18 31 -84 18z"/>
<path d="M6691 11411 c-43 -5 -59 -13 -82 -39 -55 -61 -38 -100 86 -202 81
-66 98 -96 69 -117 -24 -18 -85 -16 -112 2 -12 9 -25 30 -30 48 -6 22 -14 32
-28 32 -46 0 -12 -88 48 -125 44 -27 97 -25 139 3 27 18 35 30 37 61 3 34 -2
42 -45 84 -27 26 -69 64 -94 84 -26 20 -49 46 -52 57 -7 30 22 61 64 67 34 6
36 4 51 -35 19 -49 41 -53 63 -11 39 75 1 105 -114 91z"/>
<path d="M7466 11349 c-3 -34 -6 -78 -6 -98 0 -46 -27 -152 -43 -168 -9 -9
-24 10 -67 88 -30 55 -63 110 -72 122 l-18 22 -19 -22 c-10 -13 -23 -54 -31
-100 -7 -43 -19 -91 -27 -106 -16 -33 -11 -57 12 -57 20 0 41 50 54 130 6 34
12 64 13 66 2 1 28 -41 58 -94 50 -88 59 -97 87 -100 39 -4 55 18 77 103 16
65 35 242 28 263 -2 6 -12 12 -22 12 -14 0 -18 -12 -24 -61z"/>
<path d="M10582 11388 c-7 -7 -12 -26 -12 -43 0 -17 -9 -47 -20 -68 -26 -49
-19 -60 35 -51 56 8 82 -1 100 -36 21 -41 19 -55 -10 -68 -39 -18 -56 -15 -86
14 -28 27 -59 27 -59 2 0 -17 58 -63 89 -71 35 -9 108 26 123 57 23 53 -43
146 -105 146 -29 0 -29 1 -23 42 4 23 9 44 12 47 2 3 19 0 37 -6 17 -6 50 -10
72 -8 34 2 40 6 40 26 0 22 -3 23 -91 26 -59 2 -94 -1 -102 -9z"/>
<path d="M898 11379 c-35 -20 -22 -66 34 -125 44 -47 51 -60 52 -97 1 -38 -1
-42 -25 -45 -27 -3 -31 1 -82 71 -23 32 -47 25 -47 -13 0 -21 11 -37 44 -64
64 -52 97 -56 136 -18 49 50 34 117 -47 203 -38 41 -43 50 -28 55 11 5 25 -2
42 -20 14 -15 30 -25 36 -23 42 14 -13 87 -65 87 -18 0 -41 -5 -50 -11z"/>
<path d="M6985 11365 c-38 -14 -77 -22 -86 -20 -19 6 -44 -19 -34 -35 4 -7 27
-10 53 -9 l45 3 -2 -79 c-1 -44 -4 -103 -7 -131 -4 -38 -2 -53 10 -63 19 -16
36 -6 36 22 -1 64 10 270 14 274 11 11 84 22 114 17 24 -5 32 -3 32 8 0 44
-71 50 -175 13z"/>
<path d="M10263 11295 c-51 -50 -93 -99 -93 -107 0 -11 10 -16 34 -16 62 0 98
-12 91 -30 -4 -10 -9 -34 -12 -54 -4 -29 -2 -39 11 -44 23 -9 48 15 41 38 -11
33 14 87 43 94 59 15 63 55 4 46 -29 -4 -29 -4 -25 45 3 30 12 56 25 70 23 25
18 54 -9 52 -10 -1 -60 -43 -110 -94z m44 -82 c-3 -2 -20 -3 -39 -1 l-33 3 35
22 c35 22 35 22 38 2 2 -11 1 -23 -1 -26z"/>
<path d="M2238 11363 c-61 -70 -176 -299 -159 -316 14 -14 38 -2 53 29 12 26
40 40 111 58 l28 7 -2 -66 c-2 -66 9 -94 31 -80 10 6 11 50 7 179 -7 201 -4
171 -23 190 -20 20 -27 20 -46 -1z m22 -116 l0 -63 -42 -11 c-24 -6 -45 -10
-47 -8 -4 5 79 145 85 145 2 0 4 -28 4 -63z"/>
<path d="M1305 11364 c-11 -2 -55 -6 -97 -9 -68 -6 -78 -9 -78 -26 0 -16 7
-19 45 -19 29 0 48 -5 51 -14 3 -7 0 -50 -5 -96 -8 -62 -8 -87 1 -97 24 -29
40 10 47 113 l6 99 48 0 c49 0 70 15 60 42 -5 12 -30 15 -78 7z"/>
<path d="M1645 11358 c-2 -7 -5 -54 -8 -104 -2 -49 -10 -101 -17 -114 -12 -22
-14 -20 -50 56 -64 133 -108 159 -122 74 -4 -25 -15 -76 -24 -114 -11 -47 -13
-71 -5 -79 18 -18 38 10 51 76 21 99 25 101 60 22 37 -81 56 -105 82 -105 25
0 56 54 63 110 3 25 9 71 13 102 5 31 4 64 0 72 -11 19 -37 21 -43 4z"/>
<path d="M8275 11304 c-79 -68 -94 -71 -95 -18 0 28 -46 76 -68 72 -27 -5 -58
-110 -71 -242 -12 -124 -8 -143 25 -132 17 5 19 18 21 107 2 59 9 126 19 158
15 52 17 54 26 31 33 -83 38 -90 63 -90 18 0 42 16 76 50 57 57 89 78 89 58 0
-7 -7 -45 -15 -83 -17 -82 -19 -178 -5 -206 6 -10 19 -19 29 -19 16 0 17 8 13
83 -3 54 2 111 13 166 31 153 2 169 -120 65z"/>
<path d="M9827 11364 c-2 -5 -6 -40 -8 -79 l-4 -70 68 0 c66 0 69 -1 98 -35
42 -51 36 -82 -18 -94 -34 -7 -48 -5 -68 8 -14 9 -25 23 -25 32 0 21 -44 14
-48 -7 -2 -9 8 -30 22 -45 22 -27 30 -29 94 -29 61 0 74 3 96 24 44 41 29 100
-39 160 -28 25 -45 31 -79 31 -40 0 -44 3 -49 27 -5 29 9 46 31 38 8 -3 38 -8
68 -11 45 -6 55 -4 60 10 4 10 3 21 -2 26 -12 12 -190 25 -197 14z"/>
<path d="M2829 11346 c-14 -9 -32 -29 -39 -46 -11 -26 -10 -34 6 -57 9 -16 26
-34 37 -42 25 -18 77 -100 77 -121 0 -25 -35 -53 -57 -46 -10 3 -28 22 -41 41
-22 34 -45 45 -57 25 -9 -15 53 -100 82 -111 80 -30 142 66 97 153 -9 17 -37
53 -62 80 -53 57 -50 81 12 86 33 3 38 0 47 -28 13 -35 42 -38 47 -4 8 57 -90
103 -149 70z"/>
<path d="M9545 11314 c-22 -19 -59 -45 -81 -58 l-41 -23 -17 53 c-13 41 -22
54 -37 54 -24 0 -24 -20 -3 -77 16 -41 16 -44 -2 -64 -15 -17 -16 -23 -5 -40
8 -14 10 -38 5 -75 -5 -45 -4 -54 9 -54 21 0 33 24 42 84 l8 48 48 -4 c79 -8
108 -49 73 -103 -17 -27 -13 -55 8 -55 7 0 19 10 27 22 52 83 21 156 -76 176
l-37 8 50 32 c73 48 117 89 110 101 -12 19 -40 11 -81 -25z"/>
<path d="M2696 11332 c-3 -5 -8 -40 -11 -78 -9 -101 -15 -134 -25 -134 -9 0
-17 42 -25 129 -6 72 -38 94 -60 41 -5 -13 -24 -53 -41 -89 l-30 -65 -20 95
c-18 84 -22 94 -43 97 -21 3 -23 1 -18 -25 4 -15 16 -73 27 -128 11 -55 25
-104 30 -109 17 -17 40 4 74 71 33 67 34 67 41 38 15 -68 28 -96 48 -110 19
-13 23 -13 39 1 9 9 22 31 28 49 11 35 28 196 22 214 -4 13 -29 15 -36 3z"/>
<path d="M8925 11322 c-3 -3 -5 -13 -5 -23 0 -22 59 -33 144 -27 31 1 56 1 56
-2 0 -3 -39 -34 -86 -70 -47 -36 -97 -77 -111 -92 -25 -26 -25 -29 -10 -46 27
-30 112 -44 216 -36 50 4 94 11 97 16 15 23 -19 32 -118 29 -57 -1 -114 2
-126 6 -22 8 -16 15 78 88 105 81 120 98 120 136 0 21 -2 22 -77 16 -43 -3
-99 -2 -125 2 -27 4 -50 6 -53 3z"/>
<path d="M8636 11299 c-32 -25 -70 -83 -80 -121 -14 -60 49 -141 121 -154 26
-5 46 -2 70 12 91 48 107 157 36 252 -21 28 -29 32 -72 32 -34 0 -56 -6 -75
-21z m116 -46 c14 -14 22 -39 26 -73 4 -46 2 -54 -24 -81 -38 -40 -85 -40
-125 0 -16 16 -29 40 -29 52 0 26 44 105 65 116 25 14 65 7 87 -14z"/>
<path d="M1885 11240 c-11 -5 -32 -9 -47 -9 -22 -1 -28 -6 -28 -22 0 -21 3
-21 72 -14 86 8 91 10 78 36 -11 20 -41 24 -75 9z"/>
<path d="M7685 11241 c-31 -5 -40 -10 -40 -26 0 -18 7 -20 89 -20 64 0 90 4
94 13 2 7 1 17 -4 21 -13 12 -92 19 -139 12z"/>
<path d="M3443 10943 c-39 -118 -48 -133 -75 -133 -36 0 -103 -60 -118 -106
-11 -33 -6 -74 9 -74 4 0 15 -6 25 -13 17 -12 16 -16 -8 -70 l-27 -57 -1492
-2 -1492 -3 1490 -5 c1482 -5 1490 -5 1490 -25 0 -13 7 -20 20 -20 13 0 20 7
20 20 0 20 8 20 383 23 377 2 383 2 372 -17 -14 -28 -12 -58 4 -64 10 -4 22 9
36 39 l22 44 525 0 c496 0 525 -1 517 -17 -4 -10 -9 -35 -12 -56 -4 -33 -2
-38 14 -35 11 2 23 21 33 53 l16 50 315 5 315 5 -307 3 -307 2 13 32 c8 18 18
33 23 34 4 1 20 5 35 8 15 4 43 20 63 37 46 40 48 87 8 126 -24 22 -28 33 -28
82 0 49 -2 56 -19 56 -16 0 -20 -8 -22 -43 -3 -53 -5 -56 -37 -41 -21 9 -30 9
-42 -1 -18 -15 -20 -36 -2 -44 6 -4 2 -4 -9 -2 -25 4 -40 -21 -50 -84 -5 -33
-3 -42 20 -65 30 -30 31 -37 10 -70 l-16 -25 -520 0 c-286 0 -518 3 -516 8 31
64 44 80 74 91 72 26 102 101 70 176 -11 25 -10 35 3 65 8 19 26 48 39 64 17
22 20 31 11 42 -18 21 -42 2 -77 -63 -17 -32 -32 -50 -32 -40 0 23 -31 22 -73
-3 -77 -45 -99 -189 -36 -233 18 -13 18 -15 -11 -60 l-30 -47 -380 0 c-209 0
-380 2 -380 5 0 3 11 27 24 54 24 46 27 48 77 54 70 9 99 36 99 93 0 35 -6 48
-32 73 l-32 30 28 69 c16 39 25 75 22 81 -11 17 -36 13 -43 -6z m749 -182 c-3
-7 1 -17 9 -23 11 -8 11 -9 -2 -5 -13 4 -21 -6 -33 -37 -9 -23 -16 -47 -16
-54 0 -23 -30 -12 -36 14 -8 30 1 91 16 108 14 18 69 15 62 -3z m-822 -11 c0
-26 -46 -100 -60 -98 -25 5 -23 43 5 77 26 30 55 41 55 21z m90 -52 c0 -26
-36 -58 -65 -58 l-25 0 27 55 c25 51 28 54 45 38 10 -9 18 -24 18 -35z m1788
33 c10 -6 8 -20 -12 -64 -14 -32 -30 -57 -35 -57 -17 0 -13 55 6 95 18 37 21
39 41 26z m-1008 -25 c0 -24 -34 -75 -44 -66 -6 6 30 90 39 90 3 0 5 -11 5
-24z m1094 -54 c-6 -9 -26 -26 -44 -36 l-32 -19 7 23 c4 13 14 39 22 58 l14
35 22 -22 c17 -17 19 -25 11 -39z"/>
<path d="M3620 10859 c-35 -14 -60 -39 -60 -61 0 -24 25 -23 50 2 11 11 27 20
36 20 14 0 16 -7 11 -39 -6 -51 -61 -129 -101 -146 -38 -16 -70 -50 -61 -64 9
-16 30 -13 69 8 33 19 35 19 50 2 9 -10 16 -22 16 -28 0 -6 7 -14 15 -17 25
-9 30 24 9 63 l-20 36 30 48 c20 32 31 65 34 101 4 47 2 55 -19 70 -27 18 -25
18 -59 5z"/>
<path d="M5465 10850 c-3 -6 -6 -25 -4 -43 1 -17 -1 -43 -5 -57 -3 -14 -8 -38
-10 -55 -7 -48 -34 -137 -45 -148 -18 -18 -13 -47 7 -47 26 0 48 28 56 70 3
19 14 76 24 125 23 113 23 159 0 163 -9 2 -19 -2 -23 -8z"/>
<path d="M4420 10830 c-24 -24 -34 -62 -26 -94 7 -30 28 -38 62 -25 26 9 27 9
20 -28 -14 -85 -16 -139 -7 -153 21 -31 26 -13 75 274 2 12 -55 44 -81 45 -13
1 -32 -8 -43 -19z m60 -38 c0 -11 -39 -47 -44 -41 -9 9 15 49 29 49 8 0 15 -4
15 -8z"/>
<path d="M5640 10832 c-52 -17 -63 -65 -29 -121 17 -29 18 -35 6 -50 -26 -30
-28 -66 -6 -95 26 -34 62 -34 88 0 26 33 26 54 1 87 -13 16 -16 28 -10 32 6 4
7 11 4 17 -4 6 -3 9 2 5 5 -3 29 14 53 38 49 49 54 87 12 93 -30 5 -48 -12
-33 -31 9 -10 3 -22 -29 -53 -33 -32 -41 -36 -49 -24 -9 13 -10 22 -10 48 0 4
10 7 23 7 12 0 23 7 25 17 4 19 -26 38 -48 30z m22 -244 c-15 -15 -27 14 -17
40 6 15 8 15 18 -6 7 -16 7 -26 -1 -34z"/>
<path d="M4955 10818 c-23 -13 -35 -28 -35 -46 0 -22 28 -24 49 -3 25 25 39
27 47 6 15 -38 -37 -121 -78 -127 -27 -4 -68 -62 -68 -94 0 -32 30 -31 60 1
30 32 36 31 54 -2 8 -16 15 -24 16 -19 0 6 6 1 14 -9 8 -11 19 -16 30 -12 22
9 20 34 -3 46 -23 13 -48 70 -35 79 29 20 56 76 56 114 -1 67 -51 98 -107 66z"/>
<path d="M3774 10605 c-17 -26 -12 -45 11 -45 14 0 35 29 35 48 0 22 -31 20
-46 -3z"/>
<path d="M4572 10588 c-17 -17 -15 -48 4 -55 19 -7 44 21 44 49 0 21 -30 24
-48 6z"/>
<path d="M7702 10483 c764 -2 2012 -2 2775 0 764 1 139 2 -1387 2 -1526 0
-2151 -1 -1388 -2z"/>
<path d="M8921 10398 c2 -21 -10 -56 -29 -93 -17 -33 -31 -54 -32 -47 -1 26
-48 11 -88 -27 -55 -54 -64 -99 -28 -145 23 -30 25 -38 14 -60 -10 -23 -17
-26 -65 -26 -30 0 -52 4 -49 9 3 4 -5 18 -19 31 -13 12 -27 35 -30 51 -4 15
-13 33 -21 39 -12 11 -11 16 5 39 23 32 51 98 51 120 -1 46 -50 57 -122 27
-44 -19 -54 -32 -38 -51 17 -21 42 -19 63 5 9 11 24 20 33 20 40 0 -28 -124
-83 -150 -44 -21 -83 -66 -83 -96 0 -36 30 -30 75 16 48 49 71 51 80 9 4 -17
16 -40 26 -50 19 -19 13 -19 -316 -19 -184 0 -335 2 -335 5 0 3 4 13 10 23 22
40 54 118 53 129 0 7 2 11 6 8 11 -6 63 115 57 132 -4 9 -14 13 -25 10 -14 -3
-21 2 -25 19 -10 38 -57 32 -106 -12 -79 -72 -33 -147 61 -99 l29 16 -42 -80
c-24 -48 -42 -95 -42 -116 l-1 -35 -193 0 c-206 0 -202 -1 -159 47 14 16 27
21 47 16 36 -7 101 28 123 67 20 33 21 62 3 112 -13 36 -12 39 20 87 19 28 34
57 34 66 0 31 -34 10 -71 -43 -26 -37 -38 -48 -43 -37 -15 41 -111 1 -139 -58
-21 -43 -22 -116 -3 -142 13 -18 10 -24 -26 -67 l-40 -48 -355 0 -355 0 31 26
c17 14 31 34 31 45 0 10 5 19 10 19 6 0 10 14 10 31 0 21 -9 39 -29 58 -28 26
-28 27 -11 51 9 14 30 49 45 78 23 42 26 55 16 65 -10 9 -18 6 -37 -17 -14
-16 -23 -34 -20 -42 3 -7 1 -14 -3 -16 -4 -2 -19 -21 -34 -43 -15 -22 -27 -34
-27 -28 0 7 -9 17 -20 23 -30 16 -56 -3 -84 -59 -31 -61 -39 -120 -21 -155 11
-21 11 -28 2 -31 -7 -3 -77 -6 -157 -8 l-145 -3 147 -2 148 -2 -18 -37 c-9
-21 -23 -44 -29 -51 -17 -18 -27 -58 -19 -78 5 -13 9 -14 21 -4 8 7 15 16 15
20 0 4 18 39 41 78 l41 71 400 1 399 1 -17 -30 c-19 -33 -12 -64 13 -59 12 2
18 13 18 31 -1 15 5 27 11 27 7 0 14 7 18 15 5 13 84 15 626 15 l620 0 -20
-40 c-24 -48 -27 -100 -5 -100 9 0 18 8 21 18 3 9 16 41 27 69 l22 53 1540 2
1540 3 -1225 5 c-674 3 -1217 8 -1206 13 16 7 18 16 14 91 -4 83 -4 84 23 100
46 27 90 85 87 113 -4 37 -30 50 -69 36 -21 -8 -36 -9 -47 -2 -23 14 -88 -14
-97 -41 -3 -11 3 -40 15 -67 22 -50 23 -49 -32 -79 -59 -31 -48 -107 22 -141
l44 -23 -132 0 c-110 0 -132 2 -132 15 0 8 16 54 36 101 42 102 55 188 31 197
-20 7 -22 3 -31 -48 -9 -50 -27 -104 -60 -178 -14 -32 -26 -64 -26 -72 0 -13
-24 -15 -145 -15 -143 0 -145 0 -133 20 8 12 24 20 41 20 63 0 137 61 137 113
0 19 -37 61 -61 69 -11 4 -9 16 14 62 34 72 38 146 7 146 -17 0 -20 -6 -19
-32z m572 -89 c16 2 17 -1 8 -18 -12 -21 -63 -61 -78 -61 -10 0 -33 43 -33 60
0 12 62 29 75 21 6 -3 18 -4 28 -2z m-1520 -23 c4 -9 -7 -20 -29 -31 -45 -21
-55 -12 -24 20 26 28 45 32 53 11z m-333 -53 c0 -7 -4 -13 -10 -13 -5 0 -22
-18 -36 -40 -28 -42 -44 -44 -44 -5 0 50 15 70 54 70 22 0 36 -5 36 -12z m48
-53 c-3 -36 -44 -75 -71 -68 -12 2 -8 15 21 60 39 60 56 62 50 8z m1099 34
c-3 -3 -12 -4 -19 -1 -8 3 -5 6 6 6 11 1 17 -2 13 -5z m41 -33 c-2 -3 -10 -23
-18 -43 -17 -44 -27 -48 -36 -12 -9 35 12 73 37 67 11 -3 18 -8 17 -12z m86
-7 c41 -16 3 -74 -59 -90 l-27 -7 26 52 c27 52 32 56 60 45z m-2138 -83 c-16
-30 -68 -65 -87 -59 -8 3 -1 20 35 83 27 48 27 48 48 27 19 -18 19 -21 4 -51z
m-86 52 c0 -5 -11 -26 -25 -48 l-24 -40 -1 32 c0 44 9 63 31 63 10 0 19 -3 19
-7z m2718 -46 c3 -50 -2 -54 -42 -36 -38 18 -41 41 -9 66 15 13 33 21 38 20 6
-2 11 -25 13 -50z"/>
<path d="M7021 10324 c-51 -25 -71 -41 -71 -55 0 -26 19 -24 74 7 26 15 49 24
52 21 3 -3 -7 -30 -22 -61 -25 -52 -102 -135 -149 -162 -28 -15 -13 -49 18
-38 12 4 54 7 94 6 76 -2 101 10 68 35 -11 7 -35 13 -54 13 l-35 0 36 38 c39
39 98 153 98 188 0 19 -17 44 -31 44 -3 0 -38 -16 -78 -36z"/>
<path d="M7201 10101 c-21 -14 -5 -43 21 -39 29 4 39 48 11 48 -10 0 -24 -4
-32 -9z"/>
<path d="M8093 10103 c-7 -2 -13 -13 -13 -24 0 -23 32 -26 50 -4 20 25 -3 42
-37 28z"/>
<path d="M1652 9993 c762 -2 2013 -2 2780 0 766 1 142 2 -1387 2 -1529 0
-2156 -1 -1393 -2z"/>
<path d="M1652 9503 c762 -2 2013 -2 2780 0 766 1 142 2 -1387 2 -1529 0
-2156 -1 -1393 -2z"/>
<path d="M7692 9503 c762 -2 2013 -2 2780 0 766 1 142 2 -1387 2 -1529 0
-2156 -1 -1393 -2z"/>
<path d="M1652 9003 c762 -2 2013 -2 2780 0 766 1 142 2 -1387 2 -1529 0
-2156 -1 -1393 -2z"/>
<path d="M7702 9003 c764 -2 2012 -2 2775 0 764 1 139 2 -1387 2 -1526 0
-2151 -1 -1388 -2z"/>
<path d="M260 5560 l0 -2050 465 0 465 0 -22 -35 c-19 -29 -29 -35 -58 -35
-69 0 -105 -17 -129 -60 -28 -49 -38 -138 -22 -178 11 -26 9 -36 -18 -91 l-31
-61 -323 -2 -322 -3 319 -2 318 -3 -6 -25 c-3 -14 -9 -36 -12 -50 -8 -32 13
-60 32 -44 8 6 12 14 9 18 -2 4 2 25 10 47 10 29 10 41 2 46 -7 4 228 8 520 8
l533 0 -10 -26 c-15 -37 -12 -90 5 -104 21 -18 37 -2 30 30 -4 16 0 43 9 64
l15 36 590 0 590 0 -15 -35 c-17 -40 -19 -121 -3 -131 18 -11 31 12 34 59 2
25 11 59 19 76 l17 31 1277 2 1277 3 -1028 2 -1027 3 20 40 c22 43 26 100 8
118 -8 8 -5 22 13 56 27 52 21 86 -23 119 -24 18 -30 18 -58 7 -38 -16 -70
-55 -70 -86 0 -12 12 -36 26 -53 l25 -30 -45 -44 c-58 -56 -59 -62 -2 -105
l29 -22 -207 0 c-113 0 -206 3 -206 6 0 20 24 44 46 44 98 0 157 103 90 158
-18 15 -33 68 -16 57 11 -7 44 111 36 130 -8 22 -41 15 -42 -10 -1 -11 -9 -46
-18 -77 -16 -52 -19 -57 -37 -48 -10 6 -19 15 -19 20 0 17 -46 11 -62 -7 -41
-51 -51 -144 -19 -184 17 -22 18 -26 3 -56 -14 -30 -20 -33 -59 -33 -33 0 -41
3 -37 14 4 10 -6 20 -28 29 -18 8 -48 28 -67 44 l-34 29 35 60 c88 145 67 207
-44 132 -47 -32 -64 -68 -32 -68 8 0 31 12 51 27 l35 27 -16 -37 c-22 -53 -75
-127 -91 -127 -20 0 -66 -60 -63 -83 5 -32 23 -31 61 2 l34 30 53 -39 54 -40
-523 0 -523 0 20 31 c12 19 35 37 56 44 47 16 61 28 80 70 13 26 14 43 7 76
-9 38 -6 52 31 141 l41 98 1768 0 1769 0 0 2050 0 2050 -2780 0 -2780 0 0
-2050z m5550 0 l0 -2040 -2268 0 -2269 0 1 23 c1 33 -37 35 -58 3 l-16 -26
-465 0 -465 0 0 2040 0 2040 2770 0 2770 0 0 -2040z m-3584 -2067 c-49 -132
-49 -132 -72 -116 -19 12 -29 12 -63 2 -58 -17 -74 -40 -79 -109 -3 -47 0 -68
17 -100 l21 -41 -26 -39 -27 -40 -518 0 c-286 0 -519 2 -519 5 0 3 12 27 28
55 21 40 32 50 53 50 30 0 84 34 111 70 30 42 38 83 21 119 -15 30 -14 32 27
96 l42 65 495 0 c467 0 495 -1 489 -17z m-1159 -139 c11 -10 8 -21 -24 -67
-21 -31 -41 -56 -45 -57 -21 -1 6 114 34 148 10 12 13 12 16 1 2 -8 11 -19 19
-25z m2703 -19 c15 -19 5 -64 -17 -72 -10 -4 -23 2 -35 17 -18 23 -18 23 3 47
26 27 32 28 49 8z m-2645 -62 c-11 -21 -36 -46 -55 -57 l-34 -20 24 39 c40 67
64 94 75 83 6 -6 3 -22 -10 -45z m1021 43 c6 -16 -54 -136 -68 -136 -5 0 -13
12 -18 26 -25 64 0 124 51 124 17 0 32 -6 35 -14z m1169 -42 l24 -15 -25 -50
c-27 -53 -39 -60 -49 -28 -6 19 12 109 22 109 2 0 14 -7 28 -16z m-1160 -76
c-10 -13 -14 -16 -11 -8 3 8 9 24 13 35 4 11 8 14 11 7 2 -6 -4 -22 -13 -34z
m1243 -1 c3 -21 -3 -30 -22 -39 -36 -16 -43 -4 -23 38 20 40 40 41 45 1z m368
-21 c6 -26 -20 -86 -37 -86 -17 0 -49 20 -49 31 0 11 60 75 72 78 4 0 10 -10
14 -23z"/>
<path d="M1195 7404 c-44 -14 -98 -26 -120 -27 -22 -2 -46 -6 -53 -11 -15 -9
-16 -46 -1 -46 14 0 5 -98 -11 -114 -5 -5 -10 -25 -10 -44 0 -44 -28 -142 -47
-164 -11 -13 -13 -24 -6 -45 12 -35 33 -36 50 -3 10 21 28 29 115 50 74 19
104 30 106 42 5 24 -23 25 -110 4 -43 -11 -80 -17 -83 -14 -3 3 1 29 8 58 13
51 16 54 58 65 89 24 129 38 129 48 0 5 7 7 15 3 22 -8 18 12 -5 24 -15 8 -33
5 -77 -10 -72 -25 -96 -26 -89 -2 3 9 8 38 11 63 l7 46 106 29 c59 15 120 27
135 26 24 -1 28 2 25 21 -4 31 -53 32 -153 1z"/>
<path d="M3975 7350 c-3 -5 -3 -15 0 -21 4 -6 6 -45 5 -87 -7 -256 0 -330 32
-320 12 4 18 385 7 416 -9 23 -33 30 -44 12z"/>
<path d="M4387 7344 c-3 -4 -4 -49 0 -100 l6 -94 -57 0 c-43 0 -58 -4 -63 -16
-8 -22 16 -35 57 -29 59 8 65 -2 54 -90 -7 -57 -7 -81 2 -93 10 -14 14 -14 28
-2 10 7 16 23 15 34 0 12 -1 49 0 84 l1 62 48 0 c56 0 77 11 68 35 -5 13 -16
16 -58 13 l-53 -3 -2 83 c-3 97 -21 141 -46 116z"/>
<path d="M2949 7320 c-37 -11 -94 -51 -120 -84 -31 -40 -35 -94 -11 -173 32
-105 92 -153 213 -168 43 -5 58 -4 68 9 19 23 4 36 -42 36 -111 0 -169 42
-197 142 -26 93 -18 117 54 170 46 33 120 39 141 11 14 -19 45 -11 45 12 0 8
-15 24 -32 35 -34 21 -74 24 -119 10z"/>
<path d="M1680 7305 c-10 -11 -10 -19 -2 -27 15 -15 44 -2 40 19 -4 23 -22 27
-38 8z"/>
<path d="M1812 7189 c-46 -23 -82 -62 -82 -89 0 -47 71 -92 145 -92 43 0 103
22 110 40 12 32 -25 43 -59 17 -25 -19 -67 -19 -111 -1 -43 18 -44 37 -4 70
31 26 82 35 94 16 9 -15 35 -12 42 5 9 24 -26 55 -61 55 -17 0 -50 -10 -74
-21z"/>
<path d="M1403 7174 c-50 -25 -80 -78 -103 -187 -12 -54 -28 -117 -36 -140
-15 -43 -8 -64 19 -54 13 5 48 104 59 162 3 15 10 19 32 17 15 -2 40 1 55 8
42 17 121 129 121 170 0 15 -56 40 -87 40 -15 0 -42 -8 -60 -16z m97 -39 c0
-32 -91 -130 -113 -122 -7 2 -13 18 -15 36 -5 48 38 91 90 91 21 0 38 -2 38
-5z"/>
<path d="M1624 7100 c-9 -33 -21 -60 -25 -60 -15 0 -10 -27 7 -40 21 -18 37 1
58 73 19 61 16 87 -8 87 -10 0 -21 -21 -32 -60z"/>
<path d="M2370 7131 c-40 -4 -56 -10 -58 -23 -4 -20 33 -44 44 -27 3 6 27 9
56 7 40 -2 53 1 62 15 12 19 -6 38 -34 35 -8 -1 -40 -4 -70 -7z"/>
<path d="M3410 7130 c-9 -6 -14 -35 -14 -97 -1 -81 1 -88 19 -88 13 0 21 9 25
30 8 35 35 91 50 100 12 7 33 -43 26 -62 -7 -18 4 -43 19 -43 7 0 23 17 36 38
l22 37 9 -41 c5 -23 17 -49 27 -58 16 -15 19 -15 31 -1 9 10 9 19 2 28 -5 6
-13 33 -17 59 -9 58 -34 85 -64 68 -12 -6 -21 -15 -21 -21 0 -5 -13 5 -29 23
-26 29 -31 31 -55 20 -14 -6 -26 -8 -26 -3 0 13 -25 20 -40 11z"/>
<path d="M3191 7116 c-41 -49 -31 -127 20 -171 40 -33 64 -32 100 4 33 33 38
75 14 121 -25 49 -108 77 -134 46z m95 -71 c33 -51 -25 -103 -60 -53 -15 21
-21 59 -12 69 14 14 59 4 72 -16z"/>
<path d="M3760 7103 c-13 -10 -34 -17 -45 -18 -14 0 -19 -6 -18 -20 5 -38 4
-60 -3 -141 -8 -97 -1 -134 25 -134 25 0 31 19 31 91 0 57 1 58 23 50 32 -12
64 3 87 41 28 46 26 93 -5 123 -28 29 -61 32 -95 8z m75 -53 c7 -23 -20 -80
-39 -80 -7 0 -21 9 -30 19 -16 18 -16 21 -1 50 18 37 60 43 70 11z"/>
<path d="M4131 7101 c-40 -40 -54 -81 -42 -121 18 -60 52 -84 116 -83 29 1 63
7 75 13 26 14 22 46 -5 42 -11 -1 -36 -5 -56 -8 -41 -7 -74 7 -81 34 -4 15 0
17 23 14 45 -7 74 5 88 34 15 35 6 61 -29 79 -39 20 -66 19 -89 -4z m76 -54
c-3 -11 -67 -20 -67 -9 0 3 7 14 16 23 13 14 21 16 36 8 11 -6 17 -16 15 -22z"/>
<path d="M4605 7101 c-58 -35 -68 -55 -63 -117 4 -47 10 -62 32 -81 35 -30 70
-38 115 -27 27 7 37 15 39 32 3 22 2 23 -47 16 -42 -5 -55 -3 -71 11 -29 26
-25 42 13 49 88 17 123 74 71 115 -33 26 -50 26 -89 2z m60 -40 c7 -13 -27
-31 -57 -31 l-23 0 25 20 c28 22 46 25 55 11z"/>
<path d="M5299 6693 c0 -10 0 -52 1 -93 1 -96 -17 -251 -37 -315 -33 -105 -96
-149 -123 -86 -9 23 -9 38 0 65 14 42 35 56 73 49 22 -4 27 -2 27 15 0 72
-108 41 -139 -41 -25 -66 3 -150 54 -163 112 -28 191 174 183 471 -3 95 -5
110 -20 113 -12 2 -18 -3 -19 -15z"/>
<path d="M3412 6598 c-17 -29 -42 -88 -57 -130 -15 -43 -32 -78 -36 -78 -5 0
-9 -9 -9 -21 0 -30 -30 -128 -41 -134 -18 -12 -10 -45 11 -45 22 0 41 31 60
103 9 35 17 46 27 43 8 -4 30 -6 49 -6 l34 0 0 -49 c0 -31 -5 -53 -15 -61 -20
-17 -19 -37 4 -49 14 -8 22 -7 30 3 6 7 8 16 4 19 -3 4 2 9 11 13 14 6 16 15
10 60 -5 44 -4 54 9 54 31 0 28 49 -4 50 -3 0 -3 53 -1 118 5 127 -4 162 -38
162 -12 0 -29 -18 -48 -52z m43 -135 c-7 -99 -9 -101 -62 -87 l-21 6 19 56
c10 30 19 61 19 68 0 7 10 28 23 47 28 43 31 31 22 -90z"/>
<path d="M2875 6596 c-15 -22 -17 -41 -12 -106 l5 -79 -29 -6 c-54 -12 -80
-107 -44 -161 20 -31 60 -47 84 -35 47 26 52 62 32 239 -6 62 -7 102 0 119 7
20 6 30 -5 41 -12 12 -16 11 -31 -12z m3 -288 c-3 -45 -6 -53 -22 -53 -25 0
-40 43 -27 78 7 17 18 27 31 27 19 0 21 -5 18 -52z"/>
<path d="M3704 6573 c13 -85 18 -163 12 -187 -6 -23 -9 -24 -30 -15 -36 17
-60 -2 -95 -73 -34 -68 -39 -109 -15 -132 26 -26 55 -18 99 27 76 80 108 236
74 366 -10 39 -17 51 -32 51 -17 0 -18 -5 -13 -37z m-17 -251 c24 -15 -48
-131 -76 -121 -18 7 36 129 57 129 4 0 12 -4 19 -8z"/>
<path d="M1454 6475 c-35 -37 -52 -101 -50 -180 2 -52 13 -70 32 -54 9 8 14
33 14 78 0 46 6 77 19 101 16 31 23 35 57 35 29 0 38 4 36 15 -12 51 -62 53
-108 5z"/>
<path d="M941 6464 c-17 -14 -31 -35 -31 -47 0 -60 82 -158 149 -177 51 -14
122 33 93 62 -7 7 -18 5 -35 -7 -34 -22 -66 -12 -110 33 -85 88 -62 130 61
107 36 -6 42 -5 42 9 0 21 -57 46 -104 46 -22 0 -45 -9 -65 -26z"/>
<path d="M3991 6451 c-7 -16 -13 -35 -15 -42 -5 -32 -58 -158 -71 -169 -11 -9
-17 -2 -30 43 -8 29 -14 69 -13 88 3 28 0 34 -17 34 -18 0 -20 -6 -19 -70 1
-93 31 -158 72 -153 35 4 64 48 97 149 15 43 31 79 36 79 5 0 9 16 9 35 0 28
-4 35 -19 35 -11 0 -23 -12 -30 -29z"/>
<path d="M1274 6453 c-31 -6 -54 -35 -65 -83 -18 -78 37 -133 108 -109 54 17
67 63 36 122 -9 18 -17 36 -18 41 0 15 -39 33 -61 29z m41 -94 c13 -24 14 -34
4 -45 -26 -32 -69 -9 -69 37 0 25 8 32 42 38 4 0 15 -13 23 -30z"/>
<path d="M1652 6416 c-23 -27 -32 -47 -32 -72 0 -39 42 -119 70 -134 50 -27
165 5 165 45 0 23 -12 23 -78 -2 l-49 -18 -25 30 c-24 28 -25 30 -7 33 52 8
65 15 79 42 30 57 10 92 -61 106 -26 5 -35 1 -62 -30z m82 -22 c27 -10 0 -44
-34 -44 -33 0 -35 3 -20 31 11 20 27 23 54 13z"/>
<path d="M2383 6408 c-72 -19 -105 -107 -62 -163 20 -24 26 -26 65 -20 29 4
44 2 44 -4 0 -16 36 -13 50 4 10 12 10 21 2 38 -6 12 -10 41 -9 64 3 36 -1 44
-27 65 -26 20 -37 23 -63 16z m41 -61 c16 -26 -12 -71 -47 -75 -20 -3 -27 1
-28 15 -2 35 2 48 23 66 24 20 37 18 52 -6z"/>
<path d="M2600 6373 c-17 -12 -25 -13 -28 -5 -2 7 -13 12 -24 12 -18 0 -20 -4
-14 -38 4 -26 1 -45 -10 -60 -8 -12 -12 -27 -9 -32 13 -22 41 -7 70 38 42 65
59 62 65 -13 4 -52 8 -60 25 -60 23 0 28 24 19 93 -5 43 -32 82 -57 82 -7 0
-23 -8 -37 -17z"/>
<path d="M4108 6369 c-25 -14 -68 -91 -68 -120 0 -52 58 -66 103 -25 l26 24 6
-28 c7 -30 32 -47 48 -31 6 6 3 28 -7 59 -9 27 -16 54 -15 58 3 21 -2 34 -14
34 -7 0 -20 9 -30 20 -19 23 -25 24 -49 9z m36 -58 c7 -10 -41 -71 -55 -71
-14 0 -11 12 11 48 20 32 34 40 44 23z"/>
<path d="M4375 6370 c-3 -5 -18 -7 -34 -4 -27 6 -29 3 -55 -70 -15 -42 -24
-81 -21 -86 13 -20 35 -9 54 28 26 50 85 106 105 99 21 -8 20 -39 -4 -107 -14
-40 -16 -58 -8 -68 36 -42 89 141 58 199 -8 14 -21 19 -50 19 -21 0 -42 -4
-45 -10z"/>
<path d="M4600 6348 c-45 -30 -80 -83 -80 -120 0 -36 40 -78 73 -78 14 0 38
-3 56 -6 24 -5 32 -2 37 11 9 22 -11 35 -56 35 -41 0 -60 15 -60 45 0 31 27
63 68 83 20 9 37 24 37 32 0 24 -38 23 -75 -2z"/>
<path d="M4821 6343 c-86 -45 -110 -112 -65 -181 9 -13 31 -30 51 -38 31 -13
41 -13 91 2 51 15 54 18 32 25 -22 6 -22 7 -5 10 11 1 26 2 33 2 9 -1 10 3 2
12 -9 11 -18 11 -52 -1 -22 -8 -51 -14 -64 -14 -29 0 -64 33 -64 59 0 16 4 17
39 8 32 -9 44 -7 71 9 18 10 42 32 54 47 19 26 19 30 5 55 -21 38 -62 40 -128
5z m89 -32 c0 -15 -42 -41 -67 -41 -34 0 -37 17 -6 34 32 17 73 21 73 7z"/>
<path d="M2658 5993 c-6 -16 -13 -67 -16 -115 -4 -78 -7 -87 -26 -92 -34 -9
-75 -7 -95 6 -20 12 -51 5 -51 -11 0 -25 51 -44 114 -42 l63 1 7 -107 c7 -109
14 -132 36 -118 9 6 11 38 5 126 l-7 119 29 2 c15 0 40 0 55 -1 29 -2 46 15
30 31 -6 6 -30 12 -54 15 -24 2 -49 6 -55 8 -17 6 -16 58 2 129 8 32 13 62 9
67 -11 18 -35 8 -46 -18z"/>
<path d="M1543 5983 c-19 -7 -16 -39 13 -128 26 -82 42 -222 30 -269 -9 -36
-57 -36 -93 0 -21 21 -25 32 -20 66 6 46 34 81 59 75 20 -6 43 17 33 33 -7 11
-65 13 -80 2 -28 -19 -56 -75 -57 -111 0 -51 20 -90 61 -118 66 -45 123 -23
140 54 12 58 -1 179 -29 275 -11 36 -20 75 -20 86 0 23 -20 41 -37 35z"/>
<path d="M3290 5901 c-15 -29 -12 -41 9 -41 28 0 47 26 31 45 -17 20 -27 19
-40 -4z"/>
<path d="M3697 5913 c-14 -13 -7 -43 11 -43 27 0 46 16 39 34 -6 16 -38 22
-50 9z"/>
<path d="M902 5836 c-8 -19 -8 -27 3 -36 10 -8 11 -18 4 -36 -5 -14 -9 -46 -9
-72 0 -26 -5 -64 -11 -85 -7 -28 -7 -42 1 -52 14 -17 40 -9 40 13 0 56 85 202
117 202 6 0 10 -42 9 -102 0 -114 14 -161 51 -166 23 -3 24 4 5 51 -7 16 -12
77 -12 136 0 70 -4 111 -12 119 -21 21 -53 13 -98 -25 l-43 -37 6 36 c7 48 -1
78 -23 78 -9 0 -22 -11 -28 -24z"/>
<path d="M1790 5793 c-45 -17 -83 -78 -82 -134 1 -80 54 -127 130 -116 55 7
152 53 152 71 0 17 -39 22 -55 8 -6 -5 -36 -17 -68 -26 -53 -17 -59 -17 -82
-2 -33 21 -32 33 3 41 36 7 98 58 117 94 12 25 12 31 -1 50 -12 16 -25 21 -57
20 -23 0 -49 -3 -57 -6z m47 -77 c-34 -30 -87 -53 -87 -37 0 3 9 21 20 39 17
28 25 32 62 32 l43 -1 -38 -33z"/>
<path d="M1230 5775 c0 -8 -4 -15 -10 -15 -23 0 -44 -71 -41 -138 2 -40 44
-72 94 -72 50 0 88 24 113 72 18 35 13 64 -17 103 -37 47 -139 84 -139 50z
m70 -50 c54 -28 64 -72 25 -110 -29 -30 -68 -32 -94 -6 -17 17 -18 25 -8 63 9
35 29 66 45 68 2 0 16 -7 32 -15z"/>
<path d="M2831 5742 l-40 -37 0 -88 c0 -100 11 -140 36 -135 14 3 17 17 18 93
2 132 38 194 69 120 19 -45 42 -41 39 6 -2 35 -40 79 -68 79 -7 0 -31 -17 -54
-38z"/>
<path d="M3285 5722 c-6 -4 -11 -51 -13 -104 -3 -91 -1 -98 17 -98 26 0 31 18
31 110 0 76 -12 108 -35 92z"/>
<path d="M3690 5723 c0 -5 -5 -39 -11 -78 -12 -84 -4 -155 17 -155 20 0 21 8
28 133 6 102 5 107 -14 107 -11 0 -20 -3 -20 -7z"/>
<path d="M4180 5719 c-47 -13 -70 -43 -70 -89 0 -76 27 -100 86 -75 21 8 39
14 41 12 2 -2 19 -47 38 -100 l34 -97 -25 0 c-43 0 -95 -31 -112 -66 -14 -31
-14 -36 3 -73 32 -71 91 -110 136 -88 32 16 59 73 59 125 0 41 1 42 28 35 36
-10 72 -7 84 5 16 16 -1 32 -35 32 -73 1 -86 15 -132 145 -24 66 -51 147 -62
179 -10 33 -22 61 -28 62 -5 1 -26 -2 -45 -7z m30 -67 c0 -20 -27 -62 -40 -62
-13 0 -22 37 -15 60 8 26 55 28 55 2z m115 -342 c8 -26 -3 -93 -19 -115 -9
-12 -19 -15 -35 -10 -24 7 -61 60 -61 86 0 45 102 79 115 39z"/>
<path d="M3394 5702 c-14 -9 -26 -179 -13 -188 16 -9 37 15 44 49 25 127 73
121 94 -12 12 -72 14 -76 36 -68 19 8 19 46 0 116 -18 70 -49 103 -92 99 -17
-1 -35 1 -39 5 -9 9 -16 9 -30 -1z"/>
<path d="M3818 5703 c-24 -6 -21 -176 4 -181 20 -4 28 8 34 55 4 36 28 73 46
73 14 0 30 -52 33 -105 1 -42 5 -50 22 -53 31 -5 37 41 16 112 -21 70 -58 105
-91 87 -16 -8 -21 -7 -26 4 -5 15 -9 16 -38 8z"/>
<path d="M3035 5678 c-47 -41 -53 -132 -11 -167 18 -15 69 -7 87 15 16 20 26
18 32 -7 7 -28 44 -22 38 6 -2 11 -5 47 -6 80 -2 33 -4 62 -4 65 -1 6 -83 30
-101 30 -5 0 -21 -10 -35 -22z m80 -65 c-20 -48 -33 -63 -56 -63 -15 0 -19 7
-19 31 0 49 16 69 55 69 l35 0 -15 -37z"/>
<path d="M1695 5006 c-124 -41 -266 -59 -280 -36 -11 18 -45 11 -45 -9 0 -32
73 -54 141 -43 l55 8 -13 -65 c-24 -127 -8 -266 32 -266 14 0 19 6 17 20 -22
139 -6 325 28 325 10 0 51 11 91 24 56 18 74 29 74 42 0 26 -20 26 -100 0z"/>
<path d="M1068 4983 c-66 -60 -98 -110 -98 -155 0 -33 5 -41 33 -58 17 -11 57
-27 87 -36 73 -20 158 -77 166 -109 20 -78 -139 -112 -231 -49 -43 29 -65 31
-65 4 0 -44 154 -98 225 -79 47 13 98 50 113 83 27 55 -21 115 -133 166 -33
16 -74 31 -91 34 -18 4 -40 16 -49 26 -15 17 -16 24 -5 50 12 30 103 120 121
120 14 0 49 -38 49 -54 0 -7 7 -19 15 -26 12 -10 18 -10 30 0 26 22 18 56 -22
89 -53 43 -91 42 -145 -6z"/>
<path d="M2034 4955 c-8 -19 -1 -57 20 -112 9 -24 19 -67 22 -97 6 -46 3 -59
-15 -85 -12 -17 -26 -31 -30 -31 -4 0 -24 33 -46 73 -21 39 -56 99 -77 131
-21 33 -38 65 -38 71 0 18 -25 26 -39 12 -6 -6 -11 -20 -11 -31 0 -12 -7 -42
-14 -68 -13 -41 -19 -122 -17 -211 1 -23 5 -28 23 -25 22 3 22 7 20 83 -2 46
3 99 10 124 l14 45 30 -50 c17 -27 47 -79 67 -115 20 -36 43 -72 52 -79 22
-18 56 -1 91 46 24 31 28 44 26 92 -3 57 -21 133 -42 171 -9 17 -8 21 5 21 20
0 19 36 -1 44 -26 10 -44 7 -50 -9z"/>
<path d="M3675 4935 c-33 -14 -72 -25 -87 -25 -37 0 -48 -24 -32 -69 18 -49
17 -62 -3 -76 -17 -13 -17 -14 1 -34 15 -16 17 -29 12 -66 -6 -38 -4 -46 11
-52 16 -6 15 -8 -7 -13 -16 -4 -25 -13 -25 -25 0 -17 6 -20 35 -17 19 1 58 -4
85 -13 28 -8 66 -15 85 -15 39 0 80 23 80 46 0 16 -18 18 -55 4 -19 -7 -44 -5
-93 6 -37 9 -70 20 -74 23 -3 3 -2 30 4 59 10 50 12 52 42 52 18 0 37 -5 44
-12 9 -9 15 -9 23 -1 26 26 -19 63 -77 63 -26 0 -29 5 -37 55 -5 29 -3 31 60
58 37 16 78 27 95 25 36 -3 46 13 23 36 -22 21 -39 20 -110 -9z"/>
<path d="M2605 4919 c-12 -18 -22 -312 -12 -342 12 -36 43 -33 40 3 -1 14 0
76 4 139 7 134 8 134 81 -19 24 -52 51 -102 59 -111 23 -27 49 -11 68 38 33
86 -1 303 -47 303 -24 0 -34 -26 -18 -45 16 -19 40 -112 40 -157 0 -20 -5 -49
-11 -65 -11 -28 -11 -28 -40 37 -39 86 -131 230 -146 230 -6 0 -15 -5 -18 -11z"/>
<path d="M2984 4877 c-56 -57 -78 -128 -63 -199 14 -64 29 -86 64 -98 58 -19
130 26 166 105 36 77 16 156 -50 201 -48 32 -79 30 -117 -9z m141 -97 c18 -82
-99 -201 -144 -146 -21 26 -25 103 -7 151 16 41 21 45 51 45 19 0 37 5 40 11
10 15 53 -28 60 -61z"/>
<path d="M3274 4882 c-23 -3 -23 3 -10 -194 2 -32 0 -61 -5 -64 -35 -21 25
-64 91 -64 101 0 137 62 109 189 -15 71 -62 122 -119 130 -25 3 -55 5 -66 3z
m110 -75 c42 -55 55 -160 22 -186 -21 -17 -72 -23 -83 -9 -12 14 -18 81 -15
171 2 53 4 57 26 57 16 0 34 -11 50 -33z"/>
<path d="M2335 4739 c-16 -5 -48 -8 -70 -7 -31 2 -40 -1 -43 -14 -6 -28 43
-43 96 -29 23 6 51 11 62 11 27 0 36 21 15 37 -21 15 -19 15 -60 2z"/>
<path d="M1338 3384 c-33 -17 -48 -31 -48 -44 0 -26 20 -25 65 1 20 12 39 18
43 15 13 -13 -42 -98 -87 -134 -56 -45 -70 -62 -71 -83 0 -31 29 -29 67 4 26
23 38 28 41 18 8 -25 42 -51 66 -51 29 0 77 39 58 46 -6 3 -10 10 -6 15 7 12
-3 11 -25 -3 -50 -31 -76 30 -37 88 42 64 51 100 32 129 -20 31 -38 31 -98 -1z"/>
<path d="M1584 3169 c-8 -14 21 -43 35 -35 6 4 11 16 11 27 0 21 -34 27 -46 8z"/>
<path d="M6317 7603 c-4 -3 -7 -926 -7 -2050 l0 -2043 1155 0 1155 0 -10 -24
c-5 -13 -7 -26 -4 -28 2 -3 -5 -31 -16 -63 -27 -77 -47 -295 -28 -306 25 -16
38 12 38 86 0 71 27 231 49 288 6 16 9 33 5 38 -6 10 474 13 500 3 22 -9 20
-38 -10 -119 -24 -67 -74 -246 -74 -267 0 -5 10 -8 22 -6 15 2 24 13 30 35 10
37 60 83 92 83 22 0 23 -2 13 -45 -8 -34 -7 -49 1 -57 18 -18 32 2 47 64 8 29
14 45 14 35 1 -27 31 -66 63 -83 29 -15 60 -12 86 9 20 16 -5 37 -36 31 -20
-4 -33 1 -51 20 -20 21 -21 26 -8 26 25 0 85 32 92 48 8 21 -13 79 -31 86 -28
11 -98 -37 -113 -78 -9 -23 -13 -25 -30 -14 -16 10 -30 10 -63 1 -24 -6 -44
-10 -46 -9 -1 2 11 41 28 87 17 46 32 101 33 121 l2 38 1328 0 1327 0 0 2050
0 2050 -2773 0 c-1526 0 -2777 -3 -2780 -7z m5543 -2043 l0 -2040 -1330 0
c-880 0 -1330 3 -1330 10 0 6 -11 10 -25 10 -14 0 -25 -4 -25 -10 0 -7 -478
-10 -1415 -10 l-1415 0 0 2040 0 2040 2770 0 2770 0 0 -2040z m-2470 -2254 c0
-8 -15 -19 -32 -25 l-33 -11 28 25 c32 29 37 30 37 11z"/>
<path d="M6880 7355 c-30 -7 -67 -14 -82 -14 -16 -1 -28 -6 -28 -12 0 -5 -4
-8 -9 -5 -5 3 -15 -1 -22 -10 -11 -14 -10 -18 5 -30 16 -11 18 -21 12 -66 -4
-29 -12 -58 -18 -66 -6 -7 -13 -54 -15 -104 -2 -72 -7 -93 -20 -104 -30 -21
-1 -36 79 -42 65 -4 83 -1 156 28 45 17 82 35 82 40 0 4 -6 13 -13 19 -11 8
-29 5 -77 -15 -34 -14 -84 -28 -110 -31 -39 -5 -48 -2 -54 13 -7 19 2 114 12
131 11 15 160 66 176 60 23 -9 40 18 22 36 -17 17 -51 12 -130 -18 -25 -10
-48 -16 -51 -14 -2 3 -1 36 3 74 l7 70 90 17 c50 9 105 17 123 18 26 0 33 4
30 18 -4 22 -88 26 -168 7z"/>
<path d="M10247 7363 c-4 -3 -7 -25 -7 -48 0 -23 -3 -69 -6 -102 l-7 -60 -68
-12 c-69 -13 -101 -33 -82 -52 7 -7 30 -6 71 2 34 7 64 10 67 7 3 -3 -1 -41
-8 -84 -9 -49 -11 -83 -5 -91 20 -25 36 0 47 75 19 122 18 120 72 98 21 -9 34
21 18 40 -6 8 -24 14 -40 14 -16 0 -29 3 -29 8 0 4 5 45 10 90 8 58 7 88 0
102 -11 21 -22 25 -33 13z"/>
<path d="M8702 7319 c-82 -41 -164 -161 -178 -261 -13 -94 57 -217 135 -238
61 -16 151 14 151 50 0 23 -15 25 -50 5 -122 -70 -238 99 -171 250 39 87 96
146 160 165 l31 9 -3 -54 c-3 -81 29 -98 67 -34 13 21 15 38 10 62 -4 18 -8
39 -8 47 -1 25 -92 24 -144 -1z"/>
<path d="M7345 7260 c-4 -7 -3 -16 3 -22 14 -14 45 -2 40 15 -6 16 -34 21 -43
7z"/>
<path d="M9797 7253 c-4 -3 -7 -25 -7 -47 0 -23 -7 -81 -14 -131 -15 -93 -17
-165 -3 -165 4 0 14 0 22 0 11 0 15 12 15 48 0 26 7 97 15 157 19 141 19 145
-3 145 -10 0 -22 -3 -25 -7z"/>
<path d="M7212 7152 c-12 -2 -37 -19 -56 -38 -18 -19 -43 -34 -56 -34 -20 0
-22 -4 -17 -33 3 -18 0 -55 -7 -83 -14 -57 -12 -194 4 -224 13 -24 35 -26 44
-4 3 9 6 39 6 67 0 29 3 69 7 90 5 34 9 38 28 33 60 -15 160 174 113 211 -19
14 -40 19 -66 15z m32 -64 c-11 -38 -42 -94 -58 -107 -13 -11 -19 -11 -31 -1
-23 19 -18 43 21 88 40 47 80 58 68 20z"/>
<path d="M7346 7114 c-14 -13 -15 -28 -10 -78 8 -70 10 -76 29 -76 10 0 14 20
17 76 3 83 -8 107 -36 78z"/>
<path d="M7535 7123 c-59 -9 -94 -67 -73 -122 5 -15 23 -41 41 -58 28 -30 36
-33 90 -33 61 0 97 12 97 33 0 8 -3 8 -9 -1 -6 -11 -10 -10 -15 3 -5 14 -14
16 -56 10 -46 -6 -52 -5 -80 23 -31 32 -39 72 -17 89 6 6 32 13 56 16 47 6 67
19 57 36 -7 11 -33 12 -91 4z"/>
<path d="M9228 7093 c-21 -20 -30 -24 -40 -15 -25 21 -35 -2 -34 -83 1 -71 4
-80 20 -80 14 0 23 14 36 52 9 28 25 64 36 80 l18 28 9 -45 c13 -67 25 -92 44
-88 9 2 21 12 27 23 33 59 35 60 33 10 -1 -36 3 -50 17 -61 11 -7 22 -11 27
-9 10 7 -1 157 -14 173 -18 23 -46 13 -66 -25 l-19 -37 -7 34 c-8 37 -31 70
-49 70 -6 0 -23 -12 -38 -27z"/>
<path d="M10447 7096 c-50 -18 -64 -31 -77 -71 -15 -45 2 -107 36 -134 14 -11
45 -23 70 -27 26 -4 44 -12 44 -19 0 -29 31 -24 50 8 11 17 20 35 20 39 0 15
-26 21 -81 19 -47 -2 -61 1 -78 18 -12 12 -21 27 -21 34 0 7 34 26 76 42 42
16 78 35 81 41 2 7 -3 24 -12 38 -20 30 -49 33 -108 12z"/>
<path d="M9933 7085 c-72 -31 -92 -165 -27 -181 25 -6 121 21 142 41 11 10 10
14 -1 23 -11 9 -24 9 -57 -3 -48 -17 -80 -19 -80 -6 0 5 11 12 25 15 35 9 94
46 105 66 13 25 -15 60 -48 60 -15 -1 -41 -7 -59 -15z m31 -50 c-25 -19 -40
-19 -24 0 7 8 20 15 28 15 13 0 12 -3 -4 -15z"/>
<path d="M8943 7046 c-43 -66 -42 -110 1 -161 20 -23 33 -29 61 -28 98 3 114
112 28 190 -45 42 -62 41 -90 -1z m79 -53 c39 -44 29 -93 -18 -93 -41 0 -57
55 -26 89 22 25 26 25 44 4z"/>
<path d="M9560 7050 c-8 -5 -22 -7 -31 -5 -25 8 -36 -13 -54 -109 -19 -104
-13 -166 15 -166 15 0 20 10 26 46 4 30 11 44 19 40 26 -10 125 66 151 116 19
36 18 44 -6 68 -22 22 -93 28 -120 10z m87 -47 c5 -13 -56 -75 -91 -95 -15 -8
-18 -7 -13 5 3 8 1 19 -4 24 -14 14 8 58 35 72 27 13 68 10 73 -6z"/>
<path d="M8074 7018 c-11 -18 12 -28 78 -35 80 -7 118 1 118 25 0 17 -10 19
-95 19 -53 1 -98 -3 -101 -9z"/>
<path d="M9084 6584 c-4 -15 -2 -29 4 -33 5 -3 13 -49 16 -101 4 -52 9 -118
12 -147 l5 -52 -33 -3 c-29 -3 -36 -10 -62 -62 -31 -63 -29 -98 6 -120 31 -19
100 12 121 56 17 35 17 46 2 238 -9 112 -21 213 -25 226 -12 32 -38 30 -46 -2z
m36 -413 c0 -34 -23 -61 -51 -61 -23 0 -24 12 -3 56 21 44 54 47 54 5z"/>
<path d="M6780 6515 c0 -23 -4 -25 -40 -25 -153 0 -177 -127 -44 -234 80 -64
104 -100 104 -154 0 -32 -6 -49 -25 -67 -13 -14 -31 -25 -39 -25 -32 0 -66 56
-66 111 0 23 -4 29 -21 29 -20 0 -21 -4 -17 -55 5 -64 30 -103 75 -122 25 -10
35 -9 63 5 52 26 73 62 74 125 1 69 -29 117 -113 181 -73 57 -96 106 -63 138
25 25 115 37 127 17 6 -9 4 -11 -8 -6 -14 5 -17 -1 -17 -39 0 -58 23 -70 57
-28 23 29 32 88 14 98 -5 3 -12 22 -15 41 -5 26 -12 35 -26 35 -15 0 -20 -7
-20 -25z"/>
<path d="M8034 6483 c4 -16 6 -114 6 -218 -1 -186 7 -251 31 -243 14 5 21 445
8 471 -5 9 -19 17 -31 17 -17 0 -19 -4 -14 -27z"/>
<path d="M11126 6429 c-3 -17 -6 -84 -6 -148 0 -64 -5 -134 -10 -156 -7 -31
-6 -43 5 -54 13 -13 17 -10 31 25 13 29 18 80 22 202 4 157 4 162 -15 162 -15
0 -22 -9 -27 -31z"/>
<path d="M7610 6395 c-15 -18 -6 -45 14 -45 22 0 38 34 24 48 -16 16 -23 15
-38 -3z"/>
<path d="M9702 6314 c-8 -14 -14 -15 -41 -6 -42 15 -73 0 -100 -48 -26 -46
-27 -91 -3 -113 25 -23 50 -21 105 6 l46 24 7 -31 c11 -49 20 -196 13 -207 -4
-6 -26 -7 -65 -1 -68 11 -96 3 -120 -33 -30 -47 6 -188 55 -215 62 -33 140 28
162 127 7 32 19 62 26 66 17 10 17 33 -1 40 -9 4 -15 39 -20 129 -14 231 -19
273 -38 276 -9 2 -21 -5 -26 -14z m-33 -55 c17 -6 31 -14 31 -18 0 -13 -34
-40 -72 -55 -53 -22 -62 -5 -28 52 22 36 24 36 69 21z m5 -365 c45 -7 46 -8
46 -41 0 -73 -58 -145 -99 -124 -24 13 -41 62 -41 116 0 59 3 61 94 49z"/>
<path d="M10633 6318 c-12 -6 -31 -33 -44 -62 -12 -28 -28 -56 -36 -62 -13 -9
-13 -14 -2 -32 22 -35 41 -22 67 46 18 46 27 61 35 53 16 -16 23 -14 42 16 17
25 17 27 -1 40 -21 15 -31 15 -61 1z"/>
<path d="M10412 6281 c-25 -26 -48 -41 -63 -41 -33 0 -52 -19 -38 -37 7 -7 18
-13 25 -13 8 0 14 -7 14 -15 0 -48 43 -85 100 -85 53 0 47 33 -8 45 -28 6 -52
29 -52 50 0 3 20 14 45 25 47 20 68 58 48 88 -17 28 -32 24 -71 -17z"/>
<path d="M9859 6279 c-31 -31 -51 -87 -44 -120 8 -36 49 -69 84 -69 15 0 33
-6 40 -12 10 -11 16 -8 32 11 28 34 19 46 -30 43 -58 -3 -81 11 -81 51 1 27 2
29 11 15 14 -24 21 -23 79 13 75 46 65 89 -22 89 -35 0 -54 -6 -69 -21z m80
-23 c-2 -2 -20 -11 -39 -21 l-35 -18 19 22 c11 11 28 21 39 21 11 0 18 -2 16
-4z"/>
<path d="M10160 6282 c-26 -13 -43 -33 -67 -82 -36 -71 -38 -95 -8 -95 15 0
25 14 41 54 28 70 47 91 84 91 26 0 30 -4 30 -26 0 -14 -8 -55 -17 -90 -13
-50 -15 -66 -5 -76 19 -19 30 0 52 86 22 86 19 119 -13 141 -28 20 -54 19 -97
-3z"/>
<path d="M8613 6268 c-28 -34 -74 -142 -71 -166 4 -36 46 -42 89 -12 29 21 31
21 43 5 7 -10 18 -15 23 -12 14 9 14 110 0 119 -6 4 -30 -14 -54 -40 -23 -25
-45 -43 -48 -40 -3 3 6 31 21 61 22 44 33 57 53 59 15 2 26 9 26 18 0 20 -68
26 -82 8z"/>
<path d="M8790 6259 c-19 -10 -38 -27 -42 -37 -11 -27 -9 -87 3 -99 19 -19 39
-3 39 32 0 34 42 91 60 80 6 -3 10 -38 10 -77 0 -61 2 -69 15 -58 11 9 15 9
15 1 0 -7 4 -10 8 -7 15 9 13 113 -2 150 -12 29 -20 36 -43 35 -15 0 -44 -9
-63 -20z"/>
<path d="M6936 6230 c-19 -17 -40 -46 -46 -65 -13 -38 -5 -264 10 -279 5 -5
16 -6 26 -2 15 6 16 17 10 91 l-7 85 34 0 c38 0 84 30 97 64 8 18 9 17 9 -11
1 -38 29 -68 72 -77 35 -7 131 12 141 27 13 21 -3 25 -73 20 -74 -5 -99 4 -99
37 0 15 6 17 38 13 28 -4 45 1 72 19 19 13 36 31 38 39 5 25 -31 62 -60 62
-31 0 -97 -44 -115 -75 -12 -23 -12 -22 -13 8 0 38 -36 74 -73 74 -15 0 -41
-13 -61 -30z m89 -39 c8 -25 -10 -68 -34 -80 -30 -17 -43 -13 -36 9 3 11 2 28
-4 37 -7 13 -5 23 6 35 21 24 60 23 68 -1z m180 10 c3 -5 -5 -13 -17 -17 -44
-15 -53 -13 -28 6 28 22 36 24 45 11z"/>
<path d="M10782 6227 c-32 -34 -38 -77 -14 -107 19 -23 21 -23 60 -11 33 11
44 11 56 2 19 -16 36 -6 36 19 0 36 -49 48 -103 25 -30 -13 -17 37 13 52 32
16 32 37 0 41 -17 2 -33 -5 -48 -21z"/>
<path d="M7366 6197 c-31 -53 -33 -100 -6 -127 18 -18 31 -20 88 -18 53 2 67
7 70 19 3 14 -7 17 -54 18 -73 0 -93 16 -74 60 9 23 19 31 37 31 25 0 42 25
27 40 -5 5 -21 12 -36 15 -23 6 -29 2 -52 -38z"/>
<path d="M7746 6218 c-20 -28 -20 -61 -1 -98 16 -31 46 -39 75 -20 10 6 20 4
32 -7 9 -8 24 -13 33 -9 14 5 14 9 0 35 -9 19 -12 41 -8 62 8 41 -14 59 -73
59 -33 0 -46 -5 -58 -22z m72 -45 c-4 -36 -38 -45 -38 -10 0 27 7 37 27 37 10
0 13 -9 11 -27z"/>
<path d="M7608 6168 c-2 -13 -1 -44 0 -70 3 -40 7 -48 23 -48 18 0 20 6 17 67
-2 54 -6 68 -20 71 -11 2 -18 -5 -20 -20z"/>
<path d="M8557 5773 c-4 -4 -5 -21 -1 -39 4 -23 -5 -66 -33 -151 -21 -65 -42
-121 -48 -125 -5 -4 -22 -8 -36 -8 -31 0 -39 -7 -32 -26 3 -8 18 -14 34 -14
l28 0 3 -97 c3 -90 5 -98 23 -98 16 0 20 6 18 30 -1 17 0 63 3 102 l6 73 49
14 c66 20 72 24 54 42 -9 10 -23 13 -37 9 -13 -4 -31 -9 -40 -11 -14 -4 -10
15 24 116 22 66 38 126 35 133 -2 6 -5 17 -7 22 -5 26 -30 42 -43 28z"/>
<path d="M7697 5571 c-4 -48 -9 -95 -12 -102 -3 -8 -31 -23 -62 -35 -31 -11
-58 -24 -60 -29 -6 -20 14 -37 36 -30 12 3 19 9 17 13 -2 4 9 8 25 9 35 3 37
-11 9 -69 -20 -42 -19 -58 5 -58 17 0 49 59 60 108 6 30 10 33 38 30 44 -4 51
28 9 43 l-30 10 5 100 c6 94 5 99 -14 99 -18 0 -21 -9 -26 -89z"/>
<path d="M7225 5628 c-2 -7 -6 -67 -8 -133 -3 -81 -12 -146 -27 -199 -20 -70
-20 -80 -7 -94 22 -21 49 -8 42 20 -3 13 1 46 10 73 18 57 42 303 32 328 -7
20 -36 23 -42 5z"/>
<path d="M8296 5585 c-20 -20 -20 -29 -1 -45 12 -10 18 -10 32 1 9 8 19 13 22
12 3 -2 6 7 6 20 0 28 -35 35 -59 12z"/>
<path d="M6768 5541 c-25 -16 -53 -39 -62 -52 l-16 -23 0 31 c0 35 -9 46 -29
33 -11 -6 -12 -23 -7 -70 4 -34 11 -71 15 -82 4 -11 -1 -65 -11 -122 -22 -125
-22 -126 0 -126 29 0 61 108 63 211 1 48 -2 92 -5 98 -4 6 -4 11 1 9 4 -1 25
15 46 35 26 25 48 37 68 37 33 0 41 -18 37 -89 -3 -51 16 -67 32 -26 18 46 12
120 -10 140 -19 17 -20 17 -21 -1 0 -16 -1 -16 -9 4 -12 30 -37 28 -92 -7z"/>
<path d="M7894 5535 c-4 -9 -2 -21 4 -27 15 -15 44 -1 40 19 -4 23 -36 29 -44
8z"/>
<path d="M8113 5428 c-6 -7 -20 -44 -32 -83 -13 -38 -28 -81 -34 -94 -11 -22
-13 -19 -24 35 -7 33 -12 73 -13 90 0 18 -6 34 -14 37 -29 12 -34 -16 -20
-106 22 -139 60 -174 100 -94 33 63 76 197 70 213 -7 17 -20 18 -33 2z"/>
<path d="M7404 5403 c-31 -32 -74 -106 -74 -130 0 -31 35 -49 67 -34 20 9 25
8 29 -7 11 -36 22 -47 49 -50 16 -2 25 0 21 6 -3 6 0 12 6 14 8 3 4 9 -10 17
-25 13 -28 40 -8 79 7 15 17 42 21 60 6 30 4 33 -29 47 -45 19 -51 19 -72 -2z
m56 -41 c0 -4 -18 -26 -40 -47 -46 -45 -52 -37 -15 18 23 33 55 50 55 29z"/>
<path d="M8870 5410 c0 -5 0 -12 0 -15 1 -11 -31 -62 -58 -93 l-28 -32 -21 22
c-11 13 -26 33 -32 46 -12 23 -35 29 -46 12 -8 -12 17 -60 44 -84 28 -25 27
-39 -8 -89 -83 -121 -174 -328 -153 -349 14 -14 42 -3 42 17 0 47 119 281 174
345 12 14 34 43 49 65 15 22 39 55 52 74 31 43 34 91 5 91 -11 0 -20 -4 -20
-10z"/>
<path d="M6943 5388 c-28 -31 -38 -54 -53 -116 -10 -45 -10 -56 4 -77 14 -22
24 -25 75 -25 45 0 62 4 76 20 27 30 7 46 -36 31 -69 -24 -107 -6 -49 24 47
24 100 75 100 96 0 27 -44 69 -73 69 -13 0 -33 -10 -44 -22z m67 -42 c0 -11
-52 -56 -64 -56 -7 0 12 51 25 67 12 14 39 6 39 -11z"/>
<path d="M8255 5388 c-2 -7 -3 -35 -2 -63 2 -44 5 -50 25 -53 21 -3 22 0 22
56 0 45 -4 61 -16 66 -22 8 -24 8 -29 -6z"/>
<path d="M7839 5369 c-20 -38 -27 -75 -17 -93 8 -13 13 -15 24 -5 8 6 14 19
14 28 0 9 7 27 16 39 18 26 12 52 -10 52 -9 0 -20 -10 -27 -21z"/>
<path d="M6714 4661 c-17 -10 -36 -32 -43 -49 -18 -43 -1 -69 64 -97 107 -48
166 -128 148 -202 -7 -32 -13 -39 -37 -41 -41 -5 -82 16 -121 60 -36 42 -68
48 -72 13 -4 -34 137 -124 194 -125 12 0 34 10 49 23 22 19 28 34 32 79 4 47
0 64 -22 105 -30 53 -88 102 -153 128 -24 10 -43 23 -43 30 0 19 49 55 74 55
25 0 86 -35 86 -50 0 -13 37 -13 45 0 11 17 -15 49 -55 70 -49 25 -106 26
-146 1z"/>
<path d="M7185 4670 c-27 -4 -81 -17 -120 -28 -38 -11 -82 -23 -97 -26 -19 -4
-28 -13 -28 -26 0 -24 16 -25 90 -5 30 8 57 11 61 7 13 -15 31 -138 28 -201
-2 -48 -8 -72 -22 -88 -35 -40 4 -60 40 -20 28 30 35 127 16 240 -8 49 -12 91
-9 95 4 3 43 7 88 8 86 2 108 15 72 41 -19 14 -41 15 -119 3z"/>
<path d="M7546 4613 c-3 -4 -3 -71 0 -150 6 -129 5 -143 -10 -143 -18 0 -66
71 -110 162 -27 58 -58 80 -79 59 -7 -7 -15 -58 -18 -114 -4 -56 -12 -121 -19
-145 -10 -32 -10 -46 -2 -54 30 -30 60 60 65 192 l2 64 34 -67 c39 -76 92
-143 122 -152 54 -18 76 61 60 215 -6 53 -7 96 -2 98 5 2 7 12 4 22 -5 19 -33
27 -47 13z"/>
<path d="M8178 4601 c-89 -23 -148 -75 -99 -88 11 -3 22 -14 25 -25 4 -19 -9
-231 -18 -269 -5 -24 9 -43 27 -36 11 4 17 28 22 84 7 92 14 133 22 133 13 0
73 -52 85 -73 25 -47 55 -146 47 -159 -10 -17 9 -38 27 -31 29 11 34 48 13 89
-10 21 -19 44 -19 52 0 18 -29 73 -52 98 l-20 22 36 12 c37 12 91 66 107 107
22 57 -22 104 -98 102 -21 0 -68 -8 -105 -18z m160 -59 c2 -15 -8 -34 -31 -57
-28 -28 -43 -35 -73 -35 -62 0 -82 9 -87 38 -2 15 -6 33 -8 41 -6 21 64 40
136 38 54 -2 60 -4 63 -25z"/>
<path d="M8580 4549 c-39 -14 -67 -18 -98 -14 l-44 6 7 -65 c5 -48 4 -70 -5
-81 -10 -12 -10 -21 -2 -38 7 -12 13 -47 14 -77 l3 -55 -30 0 c-23 0 -30 -4
-30 -20 0 -28 37 -30 133 -10 91 20 108 23 145 24 21 1 27 6 27 22 0 20 -4 21
-57 16 -32 -3 -74 -9 -94 -13 l-36 -6 -13 50 c-6 28 -9 55 -6 60 3 5 37 14 76
21 76 14 91 25 67 48 -11 11 -20 12 -33 5 -11 -5 -40 -13 -66 -16 l-47 -7 1
43 c0 40 3 44 28 46 15 1 53 11 84 22 31 10 56 16 56 13 0 -3 6 0 14 7 20 16
9 40 -18 39 -11 0 -46 -9 -76 -20z"/>
<path d="M8814 4549 c-3 -6 -9 -78 -11 -159 -4 -141 -4 -149 16 -169 16 -16
26 -19 39 -13 9 5 61 12 116 15 98 6 125 15 111 37 -5 8 -43 11 -121 9 -63 -1
-117 0 -120 4 -3 3 -1 60 5 127 8 84 8 127 1 140 -12 22 -25 26 -36 9z"/>
<path d="M7756 4439 c-14 -11 -26 -27 -26 -35 0 -22 31 -30 42 -11 14 25 58
21 89 -9 27 -26 49 -26 49 1 0 7 -16 27 -35 44 -42 37 -81 40 -119 10z"/>
<path d="M6371 3476 c-8 -10 -8 -16 1 -24 20 -16 107 -40 170 -47 57 -6 58 -7
68 -45 6 -21 9 -94 8 -162 -3 -117 -2 -123 17 -123 19 0 20 7 20 150 0 83 -4
157 -8 166 -7 13 0 17 41 22 80 9 154 37 150 56 -4 20 -33 19 -108 -4 -70 -21
-246 -16 -302 9 -45 19 -43 19 -57 2z"/>
<path d="M9587 3473 c-3 -10 -9 -47 -12 -83 -8 -81 -50 -278 -66 -313 l-12
-27 -549 0 -548 0 6 28 c3 15 14 56 25 92 55 193 61 304 16 287 -10 -4 -15
-22 -16 -59 -1 -65 -2 -70 -37 -198 -2 -8 -12 -45 -22 -82 l-17 -68 -548 0
-547 0 16 26 c17 25 16 26 -27 70 -31 32 -40 47 -32 55 8 8 13 8 17 0 10 -16
56 -14 56 3 0 17 -47 56 -67 56 -22 0 -63 -47 -63 -71 0 -13 17 -38 40 -61 39
-36 40 -38 16 -38 -14 0 -28 5 -31 10 -3 6 -15 10 -26 10 -24 0 -25 -28 -1
-46 14 -11 -54 -13 -417 -14 -239 0 -432 -2 -429 -5 2 -3 719 -5 1592 -5 1578
0 1588 0 1593 -20 3 -13 13 -20 27 -19 11 0 15 3 9 6 -10 3 -10 8 1 19 10 9
36 14 76 14 l62 0 -2 -62 c-3 -84 -2 -88 16 -88 8 0 24 20 36 46 16 38 18 48
7 55 -11 7 -11 9 2 9 9 0 19 9 22 20 5 19 14 20 131 20 l126 0 -15 -23 c-10
-16 -14 -45 -13 -97 2 -69 -10 -136 -30 -167 -6 -10 -15 -10 -39 -1 -43 16
-80 -1 -99 -47 -27 -65 -12 -125 31 -125 30 0 126 107 156 176 24 55 43 249
26 271 -7 10 179 13 914 16 l924 2 -1052 3 c-1000 2 -1051 3 -1046 20 3 14 12
17 41 14 48 -5 78 19 126 98 45 76 52 103 32 119 -26 22 -81 4 -150 -49 -36
-26 -67 -46 -70 -42 -9 9 -46 -29 -46 -48 0 -9 -7 -37 -16 -63 l-16 -47 -59 0
c-32 0 -59 1 -59 3 0 1 5 18 10 37 46 155 71 387 43 397 -6 2 -14 -4 -16 -14z
m353 -224 c0 -5 -4 -7 -10 -4 -5 3 -16 -7 -22 -22 -22 -48 -70 -103 -91 -103
-22 0 -51 26 -42 39 4 7 34 33 67 57 58 42 98 56 98 33z m-30 -546 c0 -3 -12
-22 -26 -41 -19 -24 -29 -30 -34 -21 -9 13 -3 36 13 57 10 12 47 17 47 5z"/>
<path d="M6847 3433 c-3 -5 -1 -31 4 -58 13 -67 13 -174 0 -207 -20 -54 13
-79 43 -33 9 14 25 25 36 25 16 0 20 -7 20 -34 0 -21 6 -36 15 -40 19 -7 35
23 35 63 0 36 -38 66 -72 58 -22 -6 -23 -4 -25 81 -2 48 -6 101 -11 117 -8 29
-35 45 -45 28z"/>
<path d="M2373 3375 c-35 -15 -53 -41 -53 -77 0 -32 18 -48 52 -48 33 0 34 -5
9 -92 -16 -55 -17 -69 -6 -78 14 -12 45 11 45 33 0 7 12 63 26 124 26 109 27
114 9 133 -21 23 -38 24 -82 5z m47 -45 c0 -13 -49 -44 -57 -36 -9 8 27 46 44
46 7 0 13 -4 13 -10z"/>
<path d="M7052 3368 c-19 -19 -15 -58 6 -58 20 0 46 45 37 61 -8 13 -29 11
-43 -3z"/>
<path d="M3567 3364 c-4 -4 -7 -14 -7 -22 0 -8 -18 -52 -41 -98 -22 -46 -41
-98 -41 -114 -1 -17 -5 -33 -9 -36 -12 -7 1 -34 16 -34 22 0 45 34 38 58 -4
15 8 50 36 107 46 91 56 137 31 142 -9 2 -19 1 -23 -3z"/>
<path d="M8260 3351 c0 -26 17 -36 35 -21 18 15 8 40 -16 40 -12 0 -19 -7 -19
-19z"/>
<path d="M7928 3283 c-52 -20 -68 -30 -68 -45 0 -18 4 -19 37 -13 21 4 50 13
65 21 27 14 58 19 58 8 0 -3 -18 -35 -40 -71 -44 -74 -48 -91 -23 -100 11 -4
27 5 50 30 38 42 43 44 43 18 0 -55 35 -79 80 -56 57 30 90 116 55 145 -26 22
-47 5 -40 -34 6 -27 2 -39 -14 -55 -26 -26 -41 -19 -41 19 0 38 -9 60 -25 60
-10 0 -11 7 -5 31 21 72 -20 85 -132 42z"/>
<path d="M8268 3223 c-13 -15 -48 -109 -48 -127 0 -3 11 -6 24 -6 20 0 26 7
36 47 6 26 16 53 22 60 11 14 4 43 -10 43 -5 0 -16 -8 -24 -17z"/>
<path d="M7050 3206 c-5 -14 -12 -48 -16 -76 -6 -46 -5 -50 14 -50 35 0 57
137 25 147 -7 3 -17 -7 -23 -21z m30 -16 c0 -5 -2 -10 -4 -10 -3 0 -8 5 -11
10 -3 6 -1 10 4 10 6 0 11 -4 11 -10z"/>
<path d="M2523 3164 c-3 -8 -1 -20 5 -26 16 -16 42 -2 42 22 0 24 -38 28 -47
4z"/>
<path d="M10766 3022 c-2 -4 -9 -35 -15 -69 -19 -103 -41 -163 -87 -239 -47
-78 -54 -104 -26 -104 16 1 79 77 74 93 -1 4 3 7 10 7 6 0 20 7 30 17 31 28
31 7 -2 -57 -21 -42 -30 -70 -26 -86 l6 -24 -104 0 -104 0 15 43 c32 97 56
147 70 147 10 0 14 7 10 20 -3 11 5 50 18 87 13 38 25 86 27 108 3 34 0 40
-16 40 -15 0 -22 -12 -32 -60 -7 -33 -19 -78 -27 -100 l-14 -40 -81 -7 c-86
-7 -122 -20 -122 -43 0 -18 -1 -18 95 -4 42 6 79 8 82 6 2 -3 -3 -20 -12 -37
-24 -46 -55 -143 -49 -152 3 -4 -245 -8 -550 -8 -634 0 -572 -11 -536 95 29
86 27 103 -15 111 -51 9 -117 -32 -139 -87 -16 -39 -16 -43 0 -60 19 -21 46
-24 75 -9 15 8 19 7 19 -4 0 -44 -7 -46 -140 -46 l-127 0 19 38 c10 22 26 78
35 125 18 92 22 96 88 97 17 0 37 5 45 10 26 16 -5 33 -59 32 l-51 -2 -1 58
c-2 84 -2 86 -21 90 -16 3 -18 -5 -18 -70 0 -40 -4 -78 -8 -84 -10 -15 -38
-24 -91 -30 -53 -6 -55 -8 -48 -29 7 -17 55 -20 103 -6 l31 9 -9 -47 c-16 -87
-38 -151 -57 -160 -10 -6 -21 -7 -25 -4 -3 3 -6 -1 -6 -10 0 -16 -36 -17 -439
-17 l-439 0 27 28 c41 40 72 133 78 233 7 104 0 139 -27 139 -27 0 -32 -13
-20 -64 6 -26 7 -71 4 -101 -6 -51 -8 -54 -24 -40 -21 19 -59 19 -86 1 -44
-31 -55 -163 -16 -186 12 -7 0 -9 -45 -10 -60 0 -63 1 -63 24 0 13 7 52 16 86
14 57 14 63 -1 80 -19 21 -57 14 -105 -20 -32 -23 -36 -20 -19 12 8 16 8 24
-4 35 -23 24 -34 9 -41 -58 -5 -38 -15 -72 -29 -90 -16 -22 -18 -32 -9 -41 8
-8 17 -7 36 6 15 9 26 21 26 27 0 13 48 62 83 84 32 20 32 17 11 -64 -8 -34
-12 -66 -9 -71 4 -7 -197 -10 -594 -10 l-601 0 0 49 c0 27 3 63 6 81 6 26 11
31 27 26 29 -7 51 12 36 30 -6 8 -18 14 -25 14 -20 0 -17 23 13 116 27 84 26
118 -4 112 -11 -2 -20 -16 -24 -38 -3 -19 -16 -68 -29 -108 -20 -66 -25 -73
-44 -68 -74 22 -110 19 -100 -8 5 -12 55 -28 99 -30 6 -1 8 -20 5 -46 -2 -25
-5 -64 -5 -87 l0 -43 -180 -2 -180 -3 180 -2 c157 -3 182 -6 200 -22 28 -25
46 -30 74 -20 15 6 21 14 17 24 -5 13 144 15 1275 15 817 0 1288 -4 1299 -10
13 -7 21 -7 25 0 3 5 11 10 16 10 6 0 3 -7 -6 -17 -31 -30 -64 -90 -87 -159
-23 -68 -24 -69 -61 -72 -33 -3 -38 -6 -35 -25 2 -17 10 -22 35 -22 35 0 35 3
12 -85 -5 -19 -9 -50 -9 -67 l0 -33 -82 0 c-66 1 -79 3 -63 12 31 16 45 39 45
70 0 42 -25 95 -51 109 -20 10 -25 8 -47 -17 -65 -79 -76 -120 -42 -154 20
-20 20 -20 -280 -20 l-301 0 37 68 c21 37 44 75 52 85 11 13 13 20 4 29 -18
18 -37 3 -77 -66 l-39 -66 -21 42 c-25 49 -55 63 -55 26 0 -13 4 -28 9 -33 5
-6 14 -27 19 -47 l10 -38 -120 0 c-66 0 -118 3 -116 8 54 114 73 140 108 151
21 6 47 11 59 11 14 0 21 6 21 20 0 17 -6 22 -30 22 -3 1 -19 -2 -36 -5 l-30
-6 18 72 c22 84 20 140 -3 145 -13 2 -18 -9 -23 -50 -12 -90 -38 -178 -55
-187 -9 -5 -38 -12 -64 -16 -49 -8 -69 -27 -49 -47 8 -8 23 -8 51 0 23 5 41 8
41 5 0 -3 -15 -32 -32 -64 l-33 -59 -95 1 c-52 0 -89 3 -82 6 7 3 12 23 12 47
0 29 7 52 21 69 16 21 18 31 9 47 -6 11 -15 20 -20 20 -15 0 -51 -79 -52 -113
0 -18 -6 -38 -12 -46 -9 -12 -8 -13 4 -7 8 4 6 0 -4 -8 -28 -23 -401 -24 -393
-1 4 8 2 17 -3 20 -6 4 -10 28 -10 54 0 41 -5 52 -34 80 -27 26 -40 32 -59 27
-34 -8 -97 -80 -97 -111 0 -52 71 -57 122 -8 l28 26 -2 -36 c-1 -20 5 -43 12
-52 11 -13 -10 -15 -204 -15 l-216 0 0 56 c0 30 5 64 10 75 13 22 -4 63 -23
56 -7 -2 -17 9 -24 25 -19 44 -61 39 -108 -13 -50 -55 -81 -125 -65 -145 17
-19 57 -17 109 6 23 11 46 18 50 16 4 -3 8 -21 9 -40 l3 -36 -318 -2 -318 -3
313 -2 312 -3 -1 -43 c0 -23 -3 -60 -7 -81 -7 -38 -9 -40 -61 -52 -86 -19 -98
-51 -56 -141 20 -44 29 -53 50 -53 30 0 59 42 76 108 14 51 20 56 54 40 22
-10 28 -9 35 2 10 16 -7 43 -21 34 -5 -3 -9 0 -9 5 0 6 -7 11 -16 11 -13 0
-15 7 -10 33 3 17 8 56 12 85 l7 52 524 0 c454 0 523 -2 513 -15 -6 -8 -9 -19
-5 -25 11 -17 41 -11 69 15 26 24 33 25 148 25 96 0 119 -3 115 -13 -3 -8 -37
-67 -76 -133 -71 -118 -80 -146 -50 -152 10 -2 23 15 40 50 13 29 31 61 39 71
16 19 61 93 87 144 l17 33 894 0 894 0 30 -25 c37 -31 43 -31 93 0 l40 24 750
3 750 3 -760 5 c-418 3 -749 6 -734 8 28 2 49 19 49 39 0 21 -29 15 -75 -17
-24 -16 -55 -30 -68 -30 -20 0 -25 6 -31 38 -12 75 -10 79 37 80 34 1 48 8 75
37 42 46 42 71 -3 92 -34 16 -35 16 -75 -12 -65 -45 -85 -81 -83 -145 2 -30 6
-62 9 -72 5 -16 -1 -18 -38 -17 -24 1 -36 3 -27 6 21 5 29 33 29 104 0 68 -16
94 -54 87 -20 -4 -26 -2 -22 9 8 21 46 213 46 233 0 23 -18 36 -31 23 -5 -5
-11 -25 -13 -44 -2 -19 -6 -41 -9 -49 -3 -8 -14 -53 -25 -100 -11 -47 -34
-116 -52 -152 -30 -62 -34 -98 -11 -98 6 0 28 24 49 53 72 97 84 95 75 -12
l-6 -61 -418 0 c-358 0 -419 2 -419 14 0 8 7 45 15 83 9 37 17 77 20 89 3 12
19 26 40 34 44 17 45 47 1 42 -25 -3 -27 -1 -21 20 13 44 46 112 62 130 15 16
17 17 28 1 18 -25 38 -6 33 33 l-4 34 712 0 c620 0 713 -2 724 -15 16 -19 57
-19 90 0 20 12 104 15 455 17 l430 3 -420 2 c-381 3 -417 5 -397 19 24 17 29
40 10 47 -7 2 -24 -4 -38 -13 -14 -10 -39 -25 -57 -34 -29 -14 -33 -14 -47 0
-23 22 -21 73 2 71 23 -1 101 45 137 83 l30 31 -25 19 c-14 11 -35 20 -46 20
-21 0 -134 -76 -150 -101 -4 -7 -7 -41 -6 -76 l1 -63 -49 0 c-27 0 -52 5 -55
10 -3 6 -1 10 5 10 6 0 9 3 6 8 -2 4 11 39 30 77 37 75 42 106 19 125 -12 10
-22 10 -39 2 l-24 -11 18 67 c44 169 45 182 15 182 -8 0 -16 -3 -19 -8z m229
-288 c-11 -9 -29 -20 -40 -26 -16 -8 -15 -5 5 15 14 14 32 26 40 26 11 0 10
-4 -5 -15z m-2841 -55 c-17 -46 -50 -83 -65 -73 -14 8 -11 90 4 102 10 9 66
21 75 16 2 -1 -5 -21 -14 -45z m1186 6 c-39 -40 -68 -48 -50 -14 12 21 71 62
79 53 2 -2 -11 -20 -29 -39z m1000 -414 c0 -13 -21 -27 -50 -34 l-25 -6 28 25
c29 25 47 31 47 15z m-3422 -78 c-12 -15 -77 -37 -85 -29 -7 6 20 50 51 84
l21 23 11 -33 c7 -21 8 -37 2 -45z m452 20 c0 -12 -43 -53 -57 -53 -19 0 -16
10 9 37 20 22 48 31 48 16z m1721 -40 c9 -24 7 -30 -11 -45 -17 -14 -26 -15
-41 -7 -16 8 -17 13 -8 32 29 55 45 60 60 20z m-2111 -127 c0 -11 -19 -15 -25
-6 -3 5 1 10 9 10 9 0 16 -2 16 -4z m-80 -235 c-4 -15 -13 -39 -20 -51 l-12
-23 -14 24 c-14 26 -18 62 -7 72 3 4 19 7 34 7 26 0 27 -2 19 -29z"/>
<path d="M8375 2826 c-58 -18 -91 -42 -109 -81 -15 -31 -15 -38 1 -87 16 -48
22 -54 59 -67 35 -12 49 -12 88 -1 49 13 69 36 46 50 -7 4 -32 1 -56 -7 -33
-11 -48 -12 -64 -3 -22 12 -40 48 -40 81 0 19 0 19 19 0 26 -26 65 -16 107 27
40 41 50 68 34 87 -15 18 -32 18 -85 1z m15 -61 c-13 -14 -34 -25 -47 -25 -31
0 -21 18 21 36 46 20 52 17 26 -11z"/>
<path d="M8624 2830 c-30 -12 -83 -79 -94 -120 -15 -53 -13 -127 4 -133 19 -7
38 16 30 36 -8 22 33 141 56 162 13 12 27 15 49 10 23 -5 33 -3 37 9 14 36
-33 56 -82 36z"/>
<path d="M7614 2792 c-81 -57 -66 -214 19 -214 36 0 61 23 92 85 28 58 32 92
10 101 -17 6 -45 -29 -45 -58 0 -28 -42 -87 -59 -84 -18 4 -32 54 -25 85 4 13
15 28 25 34 11 5 19 18 19 28 0 20 -21 33 -36 23z"/>
<path d="M8797 2793 c-15 -14 -5 -37 33 -85 31 -40 38 -54 29 -64 -18 -21 -41
-17 -64 13 -23 28 -45 25 -45 -6 0 -24 48 -71 72 -71 27 0 74 26 82 45 12 31
6 52 -25 91 l-31 39 28 5 c17 3 30 13 32 23 3 14 -5 17 -51 17 -29 0 -57 -3
-60 -7z"/>
<path d="M9568 2764 c-15 -8 -32 -23 -38 -34 -6 -11 -17 -20 -25 -20 -8 0 -16
-6 -17 -12 0 -7 -2 -17 -3 -23 0 -5 -9 -25 -18 -43 -19 -35 -16 -52 12 -52 10
0 25 17 38 43 26 53 72 109 84 101 5 -3 9 -31 9 -62 1 -58 19 -100 39 -87 14
8 14 99 1 147 -6 21 -19 42 -30 48 -23 12 -19 12 -52 -6z"/>
<path d="M6866 2738 c-43 -62 7 -168 80 -168 43 0 88 51 79 89 -11 46 -45 72
-122 95 -16 5 -26 1 -37 -16z m92 -54 c26 -18 26 -51 0 -68 -13 -8 -22 -6 -36
8 -20 17 -34 61 -24 71 10 10 38 5 60 -11z"/>
<path d="M1652 2553 c762 -2 2013 -2 2780 0 766 1 142 2 -1387 2 -1529 0
-2156 -1 -1393 -2z"/>
<path d="M9943 2498 c-4 -7 -21 -53 -38 -103 -25 -75 -34 -91 -52 -93 -13 -2
-23 -8 -23 -15 0 -8 -3 -8 -12 1 -15 15 -48 16 -48 1 0 -6 -7 -3 -16 6 -21 21
-49 15 -49 -10 0 -18 8 -20 78 -23 89 -3 88 -1 62 -107 -14 -62 -10 -80 18
-70 15 7 37 81 37 130 0 16 9 28 28 37 30 15 44 58 18 58 -9 0 -16 3 -16 8 0
17 42 137 51 149 6 7 9 20 5 28 -7 18 -32 20 -43 3z"/>
<path d="M8013 2434 c-3 -8 -1 -20 5 -26 16 -16 42 -2 42 22 0 24 -38 28 -47
4z"/>
<path d="M7676 2279 c-15 -17 -34 -45 -43 -63 -18 -36 -43 -66 -54 -66 -14 0
-21 64 -10 92 7 20 7 29 -4 38 -21 17 -45 -26 -45 -82 0 -35 6 -54 23 -74 33
-38 67 -28 104 32 15 25 43 66 61 90 18 25 30 49 27 54 -11 18 -33 10 -59 -21z"/>
<path d="M7146 2260 c-43 -51 -62 -155 -30 -167 23 -9 36 10 41 63 5 58 18 84
43 84 25 0 35 17 20 35 -19 23 -46 18 -74 -15z"/>
<path d="M1652 2063 c762 -2 2013 -2 2780 0 766 1 142 2 -1387 2 -1529 0
-2156 -1 -1393 -2z"/>
<path d="M8806 2012 c-3 -5 0 -25 6 -45 8 -27 8 -55 -2 -111 -7 -42 -17 -76
-22 -76 -4 0 -17 6 -28 13 -17 10 -22 9 -29 -2 -13 -20 -2 -40 25 -47 27 -7
28 -18 13 -83 -6 -29 -6 -48 0 -54 16 -16 41 18 47 67 10 69 19 76 107 83 72
6 78 8 75 27 -3 18 -10 21 -48 21 -25 0 -59 -4 -77 -8 l-32 -8 9 32 c12 42 15
125 6 167 -7 31 -37 45 -50 24z"/>
<path d="M8017 1983 c-4 -3 -7 -27 -7 -52 0 -25 -8 -75 -18 -111 l-19 -65 -49
-5 c-64 -7 -69 -33 -7 -40 l42 -5 -21 -47 c-11 -27 -24 -48 -29 -48 -5 0 -9
-9 -9 -20 0 -11 7 -20 15 -20 24 0 52 35 72 89 15 44 21 51 45 51 15 0 30 -4
33 -10 3 -5 17 -10 30 -10 24 0 35 17 35 52 0 19 -4 20 -55 15 -30 -3 -55 -4
-55 -3 0 1 6 25 14 52 22 77 29 154 15 170 -13 15 -22 18 -32 7z"/>
<path d="M9140 1905 c-16 -20 -1 -39 26 -33 27 5 32 48 6 48 -11 0 -25 -7 -32
-15z"/>
<path d="M7761 1861 c-19 -12 -6 -41 18 -41 20 0 31 17 24 38 -5 14 -22 15
-42 3z"/>
<path d="M9501 1813 c-10 -21 -26 -64 -35 -95 -9 -31 -21 -60 -26 -63 -13 -8
-13 -42 1 -51 6 -3 46 30 90 75 44 44 84 81 88 81 5 0 3 -18 -5 -40 -17 -48
-6 -85 28 -93 29 -8 133 41 133 63 0 20 -29 24 -47 7 -8 -8 -29 -18 -46 -22
-38 -8 -40 1 -12 64 11 24 20 52 20 63 0 18 -5 20 -36 15 -19 -3 -57 -22 -85
-41 -27 -20 -49 -34 -49 -31 0 2 7 20 16 39 31 64 -3 91 -35 29z"/>
<path d="M7538 1814 c-33 -17 -34 -28 -9 -60 30 -39 46 -117 29 -151 -17 -35
-48 -37 -65 -3 -9 18 -9 28 -1 38 17 20 -7 40 -30 25 -12 -7 -17 -23 -16 -53
1 -52 29 -80 78 -80 79 1 107 83 67 198 l-18 52 23 0 c29 0 39 16 24 35 -16
19 -47 18 -82 -1z"/>
<path d="M9226 1775 c-43 -47 -56 -168 -20 -182 19 -7 96 40 128 78 32 38 33
79 3 107 -32 31 -82 29 -111 -3z m83 -34 c17 -11 2 -41 -35 -70 -39 -30 -47
-27 -39 17 11 58 37 76 74 53z"/>
<path d="M9060 1750 c-35 -35 -72 -124 -64 -154 9 -38 44 -36 44 3 0 32 24 96
40 106 22 13 30 43 15 55 -11 9 -18 7 -35 -10z"/>
<path d="M8524 1711 c-50 -23 -71 -66 -48 -100 18 -25 51 -27 81 -6 21 15 23
14 36 -17 8 -18 22 -39 31 -47 15 -12 19 -12 33 1 14 15 14 18 -6 39 -11 13
-21 28 -21 34 0 7 -9 20 -20 30 -14 13 -17 22 -10 29 15 15 12 43 -6 50 -22 8
-24 8 -70 -13z m33 -51 c-14 -11 -30 -20 -36 -20 -16 0 -2 28 17 33 38 10 43
6 19 -13z"/>
<path d="M8200 1705 c-9 -11 -10 -26 0 -67 17 -74 34 -98 70 -98 46 0 73 18
107 68 37 56 46 82 34 101 -13 20 -37 7 -45 -25 -9 -35 -42 -81 -67 -95 -31
-16 -49 5 -49 60 0 62 -23 88 -50 56z"/>
<path d="M7685 1629 c-19 -36 -16 -73 6 -77 12 -2 21 11 32 45 9 26 13 51 11
55 -11 17 -34 6 -49 -23z"/>
<path d="M1652 1063 c762 -2 2013 -2 2780 0 766 1 142 2 -1387 2 -1529 0
-2156 -1 -1393 -2z"/>
<path d="M7692 1063 c762 -2 2013 -2 2780 0 766 1 142 2 -1387 2 -1529 0
-2156 -1 -1393 -2z"/>
<path d="M6792 1030 c-10 -11 -36 -53 -58 -95 -32 -61 -43 -75 -63 -75 -31 0
-87 -43 -107 -82 -20 -39 -20 -112 0 -143 14 -21 14 -24 -2 -30 -14 -5 -14 -7
-2 -15 20 -13 25 -12 -125 -20 l-130 -6 113 -2 c63 -1 112 -5 110 -9 -2 -5
-18 -37 -36 -72 -18 -34 -31 -66 -28 -69 3 -3 1 -12 -6 -19 -9 -11 -9 -17 3
-24 20 -13 32 -6 39 22 4 13 23 56 43 96 l36 72 438 0 c300 1 443 -3 453 -10
13 -9 13 -10 -2 -6 -22 7 -35 -9 -79 -102 -26 -53 -34 -80 -27 -88 14 -17 29
-1 68 77 18 35 44 79 59 97 l26 33 143 0 142 0 0 -24 c0 -14 5 -28 10 -31 15
-9 40 14 40 36 0 18 15 19 370 19 l369 0 -24 -36 c-25 -37 -45 -93 -45 -127 0
-37 32 -11 54 44 12 31 33 70 45 88 l22 31 149 0 c145 0 148 0 154 -22 l6 -23
19 22 19 23 1439 3 1438 2 -1437 3 -1438 2 10 22 c5 13 14 57 20 98 6 41 20
103 31 137 23 70 22 106 -3 111 -12 2 -19 -5 -23 -25 -3 -15 -15 -59 -25 -98
-11 -38 -20 -79 -19 -90 0 -25 -17 -114 -26 -138 -6 -15 -24 -17 -157 -17
-109 0 -149 3 -146 12 2 6 23 17 47 24 98 29 151 133 96 188 -14 14 -14 17 0
33 44 48 86 115 83 131 -4 23 -28 22 -42 -2 -6 -11 -19 -29 -29 -40 -10 -12
-25 -36 -34 -53 -13 -27 -21 -33 -48 -33 -33 0 -89 -35 -80 -50 3 -5 1 -11 -3
-14 -18 -11 -34 -90 -24 -116 7 -18 5 -33 -4 -52 l-15 -28 -368 0 -369 0 20
52 c21 56 68 225 68 246 0 6 -9 12 -19 12 -11 0 -23 5 -26 10 -3 6 -22 10 -41
10 -30 0 -38 -6 -64 -47 -36 -57 -37 -70 -6 -85 20 -9 31 -7 60 10 20 12 36
19 36 17 0 -15 -64 -202 -72 -213 -8 -9 -50 -12 -157 -10 -105 1 -128 3 -83 7
86 8 106 31 100 113 -3 42 -10 64 -27 82 -19 20 -20 24 -7 29 20 8 21 37 2 37
-8 0 -18 5 -22 11 -4 7 -1 10 7 7 9 -3 24 18 43 60 25 53 27 65 15 73 -23 14
-25 12 -60 -65 -32 -71 -35 -74 -72 -80 -24 -4 -50 -18 -68 -36 -25 -25 -29
-36 -29 -85 0 -32 7 -72 16 -91 28 -60 17 -64 -177 -64 -166 0 -168 0 -171 23
-2 14 -11 23 -27 25 -21 3 -23 0 -19 -22 5 -25 4 -26 -43 -26 -42 0 -49 3 -49
20 0 18 -7 20 -56 20 l-55 0 45 58 c24 31 63 77 86 102 31 35 40 52 38 75 -2
24 -8 31 -33 36 -16 3 -43 2 -59 -3 -40 -10 -95 -49 -102 -72 -11 -35 17 -35
63 0 25 19 56 34 71 34 l25 0 -23 -25 c-13 -14 -21 -25 -18 -25 3 0 -13 -19
-36 -43 -22 -23 -66 -73 -96 -110 l-55 -67 -98 0 c-95 0 -97 1 -87 20 6 11 21
20 34 20 31 0 99 51 136 102 16 22 30 45 30 50 0 10 -32 43 -56 56 -18 10 -18
12 4 50 21 38 21 41 5 45 -15 4 -14 5 3 6 20 1 50 45 45 66 -2 6 1 7 5 3 10
-11 34 11 34 32 0 27 -27 32 -48 10z m1088 -180 c0 -9 -32 -30 -46 -30 -4 0 1
9 11 20 19 21 35 26 35 10z m-341 -140 c-20 -60 -25 -68 -30 -49 -14 50 -9 99
12 120 37 37 43 9 18 -71z m-918 14 c-29 -56 -30 -57 -31 -27 0 41 18 81 39
86 9 2 17 2 19 1 2 -1 -10 -28 -27 -60z m118 42 c9 -11 2 -23 -33 -60 -25 -25
-50 -46 -56 -46 -6 0 3 27 20 60 30 60 48 72 69 46z m1954 -35 c-15 -28 -29
-48 -31 -47 -7 8 11 56 29 75 32 34 32 25 2 -28z m-1056 -38 c4 -29 1 -44 -12
-56 -19 -19 -70 -23 -81 -5 -4 6 -3 8 3 5 13 -8 24 18 17 38 -4 8 -2 15 4 15
6 0 16 16 22 36 11 32 14 34 27 21 8 -8 17 -32 20 -54z m1104 -16 c-17 -17
-33 -28 -36 -25 -8 7 15 57 40 85 l20 22 3 -26 c3 -18 -5 -35 -27 -56z m239
-91 c0 -3 -4 -8 -10 -11 -5 -3 -10 -1 -10 4 0 6 5 11 10 11 6 0 10 -2 10 -4z"/>
<path d="M8461 965 c-78 -54 -111 -84 -111 -101 0 -25 21 -25 51 0 17 14 37
26 45 26 8 0 17 6 20 14 3 8 17 22 31 32 25 16 25 16 -7 -41 -18 -31 -43 -68
-56 -82 -13 -14 -21 -29 -19 -34 3 -4 -4 -13 -15 -19 -27 -14 -102 -130 -96
-146 11 -28 36 -12 76 46 22 33 44 60 49 60 9 0 31 -45 31 -65 0 -20 44 -47
64 -39 22 9 20 35 -4 41 -11 3 -20 13 -20 23 0 9 -11 32 -23 51 l-24 34 29 36
c44 57 85 143 84 175 -2 43 -30 40 -105 -11z"/>
<path d="M9221 914 c-35 -29 -42 -76 -16 -104 14 -16 12 -20 -20 -44 -32 -25
-35 -31 -35 -81 0 -44 4 -57 22 -69 35 -25 67 -19 104 18 28 28 34 41 34 78 0
23 -4 49 -9 56 -5 9 10 30 46 67 57 56 63 78 24 83 -27 4 -54 -16 -46 -36 3
-9 0 -12 -9 -9 -10 4 -16 -2 -18 -21 -2 -21 -8 -27 -27 -27 -13 0 -29 7 -34
17 -16 24 9 51 40 43 28 -7 42 17 23 40 -18 22 -44 18 -79 -11z m43 -170 c12
-30 6 -55 -18 -79 -31 -31 -56 -23 -56 17 0 19 9 38 26 53 31 29 40 31 48 9z"/>
<path d="M8002 628 c-16 -16 -15 -35 3 -42 25 -9 45 4 45 30 0 26 -27 33 -48
12z"/>
<path d="M1652 563 c762 -2 2013 -2 2780 0 766 1 142 2 -1387 2 -1529 0 -2156
-1 -1393 -2z"/>
</g>
</svg>
