<?xml version="1.0" standalone="no"?>
<!DOCTYPE svg PUBLIC "-//W3C//DTD SVG 20010904//EN"
 "http://www.w3.org/TR/2001/REC-SVG-20010904/DTD/svg10.dtd">
<svg version="1.0" xmlns="http://www.w3.org/2000/svg"
 width="1214.000000pt" height="1618.000000pt" viewBox="0 0 1214.000000 1618.000000"
 preserveAspectRatio="xMidYMid meet">

<g transform="translate(0.000000,1618.000000) scale(0.100000,-0.100000)"
fill="#000000" stroke="none">
<path d="M260 13490 l0 -2050 2109 0 c2100 0 2109 0 2114 -20 3 -11 13 -20 22
-20 9 0 19 9 22 20 5 20 14 20 354 20 l349 0 -10 -26 c-15 -38 -12 -54 8 -54
13 0 24 13 35 40 l15 40 271 0 271 0 0 59 c0 33 5 72 10 86 7 19 7 39 -1 66
-12 39 -12 39 35 83 39 36 47 49 44 72 -3 27 -6 29 -43 29 l-40 0 -3 1853 -2
1852 -2780 0 -2780 0 0 -2050z m5550 203 l-1 -1838 -42 -20 c-54 -26 -69 -63
-43 -108 18 -31 17 -32 -7 -52 -52 -43 -54 -88 -7 -135 22 -22 69 -27 88 -8 9
9 12 2 12 -35 l0 -47 -261 0 c-143 0 -259 3 -257 8 3 4 11 22 18 40 10 22 21
32 37 32 28 0 87 51 103 90 10 24 9 38 -5 83 -16 53 -16 54 9 117 20 48 23 66
15 77 -18 20 -35 0 -60 -71 -18 -51 -26 -62 -41 -58 -23 6 -83 -40 -109 -82
-26 -42 -25 -96 3 -126 l21 -23 -23 -43 -23 -44 -354 0 c-352 0 -354 0 -343
20 6 11 8 25 5 30 -3 6 -2 10 3 10 5 0 15 13 22 29 11 26 15 28 51 24 26 -4
47 0 64 11 66 44 87 148 40 204 l-24 29 44 68 c41 62 52 85 41 85 -2 0 -11 3
-19 6 -10 3 -28 -16 -56 -60 -22 -36 -41 -70 -41 -76 0 -5 -17 -10 -38 -10
-39 0 -75 -27 -101 -77 -16 -31 -14 -95 5 -121 14 -20 14 -25 0 -53 -8 -16
-12 -37 -9 -45 3 -7 0 -14 -6 -14 -6 0 -17 -13 -26 -30 l-16 -30 -2104 0
-2105 0 0 2040 0 2040 2770 0 2770 0 0 -1837z m0 -1922 c0 -35 -21 -56 -38
-39 -13 13 -16 51 -5 61 3 4 15 7 25 7 13 0 18 -8 18 -29z m29 15 c9 -10 8
-15 -4 -20 -10 -4 -15 1 -15 14 0 24 4 25 19 6z m-1232 -82 c-32 -64 -36 -67
-42 -43 -9 35 18 97 47 108 13 5 24 7 26 6 2 -2 -12 -34 -31 -71z m98 12 c5
-22 1 -44 -10 -65 -17 -35 -60 -60 -74 -45 -11 11 58 156 70 148 5 -2 11 -20
14 -38z m632 -62 c-17 -35 -36 -63 -42 -61 -17 6 -12 61 7 81 10 11 18 25 18
30 0 6 11 12 24 12 l25 2 -32 -64z m56 -42 c-29 -39 -48 -41 -29 -4 20 38 20
46 1 38 -8 -3 -15 0 -15 5 0 6 9 9 20 6 13 -3 22 1 27 17 7 19 8 18 11 -8 2
-18 -4 -39 -15 -54z m391 32 c10 -27 7 -52 -10 -69 -15 -15 -18 -15 -35 1 -24
22 -24 33 3 61 25 27 34 29 42 7z"/>
<path d="M1635 15355 c-22 -8 -61 -14 -87 -14 -25 -1 -53 -4 -62 -7 -18 -7
-22 -40 -6 -46 14 -4 -49 -261 -66 -271 -21 -12 -17 -37 9 -46 12 -5 26 -6 30
-4 12 7 150 6 185 -2 36 -7 51 10 29 32 -12 12 -38 16 -101 17 -95 1 -95 1
-80 74 5 27 11 31 53 37 25 3 79 16 119 27 55 17 72 26 72 40 0 23 -36 24 -86
3 -19 -8 -58 -18 -86 -21 -47 -6 -51 -6 -44 12 4 10 10 37 13 61 5 37 9 43 37
48 125 24 166 38 166 56 0 23 -34 24 -95 4z"/>
<path d="M4740 15324 c-53 -23 -70 -43 -70 -84 0 -39 29 -75 85 -103 17 -8 39
-25 50 -37 18 -19 18 -24 5 -47 -8 -14 -25 -33 -38 -41 -21 -14 -24 -12 -56
22 -28 31 -35 35 -45 22 -17 -20 -6 -51 26 -76 49 -38 114 -17 152 50 34 60 9
104 -86 154 -18 9 -38 26 -44 38 -10 19 -8 25 17 46 l28 25 9 -29 c20 -60 36
-66 72 -29 30 29 32 58 5 85 -24 24 -62 25 -110 4z"/>
<path d="M3515 15279 c-115 -24 -186 -30 -203 -16 -7 6 -35 11 -62 11 -43 1
-53 -3 -84 -33 -23 -23 -36 -44 -36 -61 0 -29 36 -68 85 -93 39 -20 75 -54 75
-71 0 -18 -60 -46 -99 -46 -17 0 -40 6 -51 12 -14 9 -23 9 -30 2 -31 -31 42
-71 108 -59 50 9 110 50 118 80 8 34 -14 66 -72 101 -25 16 -58 39 -71 52
l-25 23 23 25 c21 22 30 24 80 21 31 -2 62 -8 68 -12 7 -4 40 -4 73 0 l61 7
-7 -64 c-3 -36 -13 -90 -21 -121 -16 -61 -11 -90 13 -85 19 4 39 84 48 193 4
39 11 75 16 82 10 12 74 25 133 27 23 1 30 6 30 21 0 27 -53 29 -170 4z"/>
<path d="M4449 15272 c-57 -37 -99 -112 -106 -190 -5 -52 -3 -59 22 -82 50
-46 182 -27 219 33 20 32 -12 39 -53 11 -47 -32 -125 -34 -141 -3 -32 59 58
209 126 209 30 0 23 -17 -13 -31 -31 -12 -25 -33 11 -37 51 -6 83 44 60 91
-19 37 -65 36 -125 -1z"/>
<path d="M2150 15255 c-10 -12 -10 -19 -1 -28 14 -14 46 2 46 24 0 20 -30 23
-45 4z"/>
<path d="M3870 15232 c-27 -27 -29 -34 -20 -53 21 -39 -18 -199 -48 -199 -10
0 -66 120 -83 178 -15 52 -33 69 -53 52 -14 -10 -51 -108 -60 -156 -2 -10 -13
-44 -23 -75 -20 -61 -20 -79 3 -79 16 0 42 53 48 97 2 16 7 36 11 45 4 10 13
37 19 60 l13 42 22 -59 c39 -104 73 -155 103 -155 33 0 64 43 80 110 47 195
47 194 33 209 -12 12 -18 9 -45 -17z"/>
<path d="M1867 15104 c-4 -4 -21 -7 -39 -8 -22 -1 -32 -5 -30 -15 1 -7 -6 -32
-17 -55 -23 -47 -37 -113 -45 -208 -5 -61 -3 -68 13 -68 14 0 25 19 45 73 14
39 26 78 26 85 0 9 5 10 19 2 11 -5 28 -10 37 -10 27 0 98 80 113 128 13 38
13 44 -4 62 -13 15 -31 20 -65 20 -26 0 -50 -3 -53 -6z m80 -50 c3 -9 -7 -33
-24 -57 -48 -69 -99 -51 -79 27 10 39 90 63 103 30z"/>
<path d="M2225 15080 c-20 -21 -29 -42 -33 -79 -4 -44 -2 -51 21 -66 60 -39
227 -26 227 17 0 19 -4 20 -47 12 -63 -11 -131 -8 -150 7 -17 15 -10 55 15 83
13 14 27 17 59 13 28 -3 46 0 54 9 19 23 0 34 -60 34 -50 0 -61 -4 -86 -30z"/>
<path d="M2075 15070 c-8 -16 -18 -50 -22 -76 -6 -44 -5 -46 18 -42 19 2 25
11 31 47 4 24 13 49 19 57 9 11 8 18 -1 29 -18 22 -28 19 -45 -15z"/>
<path d="M4081 15067 c-90 -37 -74 -73 19 -42 27 9 64 16 82 15 51 -3 58 -1
58 14 0 36 -86 43 -159 13z"/>
<path d="M2790 15071 c-53 -8 -70 -17 -70 -37 0 -13 14 -14 88 -8 92 7 108 13
99 38 -7 17 -35 19 -117 7z"/>
<path d="M3815 11900 c-41 -71 -49 -79 -60 -64 -9 13 -21 16 -49 11 -51 -8
-64 -21 -82 -83 -15 -53 -14 -77 8 -120 8 -17 5 -29 -17 -62 -15 -23 -24 -45
-21 -50 3 -6 -1 -12 -9 -16 -8 -3 -15 -17 -15 -31 0 -43 28 -28 60 33 40 76
54 94 73 86 26 -10 84 15 112 47 29 36 34 93 8 121 -19 22 -12 43 44 125 35
51 39 83 10 83 -8 0 -36 -36 -62 -80z m-86 -109 c12 -8 8 -19 -22 -65 -21 -31
-40 -56 -43 -56 -4 0 -4 22 -2 50 7 69 30 94 67 71z m66 -61 c11 -35 -28 -80
-69 -80 -14 0 -14 3 -4 22 7 12 21 31 31 42 9 11 17 23 17 28 0 16 19 7 25
-12z"/>
<path d="M3959 11848 c-61 -43 -73 -63 -44 -74 8 -3 31 8 52 25 46 38 78 42
67 9 -11 -38 -68 -112 -96 -126 -35 -16 -80 -70 -76 -91 6 -30 37 -22 82 19
l45 42 7 -41 c9 -54 33 -76 68 -60 35 16 36 53 1 47 -22 -5 -25 -2 -25 21 0
15 -6 36 -14 46 -12 16 -9 25 20 74 72 118 18 185 -87 109z"/>
<path d="M5120 11852 c-38 -11 -110 -65 -110 -82 0 -33 18 -31 65 5 52 39 58
41 74 21 9 -11 9 -22 -3 -48 -22 -49 -37 -63 -83 -76 -48 -14 -103 -73 -103
-109 0 -36 37 -29 95 17 l50 40 3 -48 c3 -69 10 -90 31 -102 20 -10 51 -4 51
11 0 4 -9 17 -20 27 -17 15 -19 29 -17 93 2 49 9 83 20 100 32 48 37 84 17
117 -18 30 -43 42 -70 34z"/>
<path d="M4374 11836 c-3 -8 -3 -19 -1 -24 3 -4 -9 -57 -27 -117 -34 -110 -36
-145 -9 -145 13 0 13 3 3 15 -10 12 -10 15 2 15 17 0 81 197 76 237 -3 31 -34
44 -44 19z"/>
<path d="M5556 11791 c-4 -5 -3 -16 0 -24 3 -8 -6 -44 -20 -79 -40 -100 -52
-156 -38 -170 18 -18 34 3 48 60 6 26 23 76 37 112 17 46 22 71 16 88 -8 22
-33 30 -43 13z"/>
<path d="M4167 11593 c-13 -12 -7 -51 8 -57 17 -6 39 29 31 50 -6 15 -28 19
-39 7z"/>
<path d="M4795 11580 c-4 -6 -1 -17 5 -26 10 -11 16 -12 26 -3 11 9 11 15 3
25 -14 17 -25 18 -34 4z"/>
<path d="M6312 13493 l3 -2048 318 -3 317 -2 0 -29 c0 -33 33 -71 123 -140 60
-47 100 -92 111 -128 6 -17 1 -29 -20 -48 -22 -21 -37 -25 -86 -25 -52 0 -63
3 -89 29 -32 33 -36 52 -14 71 8 7 15 19 15 26 0 20 -34 17 -53 -4 -39 -43 -3
-129 66 -157 99 -40 227 14 227 95 0 41 -52 112 -125 171 -98 78 -115 96 -115
119 0 18 6 20 75 20 l75 0 -6 -40 c-5 -33 -4 -40 9 -40 19 0 37 29 37 59 0 20
6 21 95 21 l95 0 0 -100 c0 -55 -3 -100 -8 -100 -4 0 -23 4 -41 10 -41 11 -69
-3 -50 -26 12 -15 45 -19 52 -6 2 4 2 2 1 -5 -2 -6 9 -13 24 -15 27 -3 27 -4
32 -98 5 -98 12 -120 35 -120 17 0 25 23 14 41 -5 8 -9 49 -9 92 l0 77 28 0
c15 0 43 -3 63 -6 l36 -6 -8 -51 c-5 -32 -5 -55 2 -63 20 -24 37 -3 41 52 6
66 28 95 58 76 11 -6 24 -12 30 -12 14 0 13 33 -2 48 -19 19 -76 14 -97 -7
-12 -12 -21 -15 -23 -9 -2 6 -30 14 -62 19 -32 4 -59 9 -61 11 -1 2 -5 47 -7
101 l-5 97 851 0 c612 0 855 -3 863 -11 6 -6 33 -15 59 -20 39 -7 51 -6 66 8
10 9 18 11 18 5 0 -6 -6 -13 -12 -16 -7 -3 33 -4 89 -2 l102 4 6 -37 c3 -21 0
-61 -10 -96 -19 -73 -20 -185 -2 -185 8 0 8 -3 -2 -9 -17 -11 -7 -41 13 -41
20 0 25 20 25 112 0 46 5 99 11 118 5 19 10 58 10 87 l0 52 38 6 c20 3 48 9
62 12 14 4 30 5 35 3 25 -8 65 -7 65 1 0 5 448 9 1085 9 l1085 0 0 2050 0
2050 -2780 0 -2780 0 2 -2047z m5548 -3 l0 -2040 -1092 4 c-601 3 -1118 6
-1148 7 -30 1 -137 -2 -236 -6 -123 -5 -192 -4 -213 3 -19 7 -33 7 -36 1 -9
-13 -1725 -12 -1725 1 0 6 -9 10 -20 10 -11 0 -20 -4 -20 -10 0 -6 -38 -10
-94 -10 -94 0 -95 0 -112 29 -37 63 -120 80 -173 36 -16 -14 -33 -35 -36 -45
-6 -19 -17 -20 -321 -20 l-314 0 0 2040 0 2040 2770 0 2770 0 0 -2040z m-4753
-2015 l28 -24 -67 -1 c-71 0 -83 9 -46 34 31 22 52 20 85 -9z"/>
<path d="M9822 15341 c-22 -17 -43 -39 -47 -51 -9 -28 16 -64 64 -94 42 -27
86 -75 96 -105 7 -23 -19 -79 -41 -88 -40 -15 -96 46 -90 100 4 36 -31 38 -40
2 -18 -74 70 -169 140 -151 31 8 76 81 76 123 0 39 -49 111 -97 143 -39 25
-62 49 -63 63 0 4 14 16 32 27 37 22 58 13 58 -26 0 -29 16 -40 35 -24 22 18
18 45 -11 79 -32 39 -60 39 -112 2z"/>
<path d="M6824 15340 c-34 -10 -94 -23 -133 -30 -68 -13 -71 -14 -71 -41 0
-15 -7 -56 -16 -91 -9 -35 -17 -81 -18 -103 -1 -23 -5 -45 -8 -51 -4 -5 -3
-16 2 -24 7 -11 24 -10 104 8 52 12 120 22 150 22 43 0 56 4 56 15 0 42 -95
42 -242 -1 -14 -4 -18 1 -18 20 0 33 31 179 40 189 8 9 154 45 209 52 38 4 55
23 39 42 -13 16 -19 16 -94 -7z"/>
<path d="M10557 15344 c-1 -1 -33 -4 -70 -7 -69 -4 -95 -16 -82 -37 5 -9 27
-11 71 -7 36 2 67 1 69 -4 3 -4 -4 -53 -15 -109 -12 -55 -19 -109 -15 -119 7
-25 34 -35 51 -20 17 14 18 36 2 41 -13 5 -12 14 24 181 10 47 10 47 42 41 37
-6 56 15 32 35 -11 10 -100 13 -109 5z"/>
<path d="M10074 15289 c4 -29 10 -64 13 -80 5 -26 3 -28 -33 -31 -50 -4 -54
-32 -6 -36 l32 -3 0 -68 c0 -50 4 -72 15 -81 25 -21 34 -1 37 84 l3 80 55 14
c65 16 88 33 67 50 -10 8 -25 8 -62 -3 -26 -8 -51 -15 -55 -15 -4 0 -11 21
-15 48 -11 81 -16 92 -37 92 -19 0 -20 -4 -14 -51z"/>
<path d="M8386 15320 c-48 -15 -78 -50 -72 -84 8 -40 39 -71 108 -108 31 -16
66 -41 79 -54 l22 -24 -36 -15 c-72 -30 -177 -9 -177 35 0 24 -35 28 -44 4
-13 -35 42 -86 105 -98 47 -8 131 10 164 35 14 12 25 31 25 44 0 27 -60 85
-122 116 -103 51 -106 101 -8 111 31 3 35 0 40 -26 11 -60 70 -56 70 4 0 57
-72 84 -154 60z"/>
<path d="M9117 15303 c-2 -5 -7 -37 -11 -73 -13 -124 -18 -150 -32 -150 -29 0
-65 46 -82 105 -14 46 -23 60 -37 60 -12 0 -21 -8 -23 -20 -1 -11 -17 -64 -33
-118 -25 -80 -28 -101 -18 -113 10 -12 14 -13 24 -2 13 14 45 111 45 136 0 8
10 0 23 -19 46 -69 106 -91 146 -54 14 13 45 230 35 246 -6 11 -31 12 -37 2z"/>
<path d="M8585 15266 c-12 -8 -16 -19 -12 -30 7 -18 14 -18 95 1 18 4 22 1 23
-18 1 -13 0 -28 -1 -34 -29 -140 -29 -175 0 -175 19 0 24 19 36 159 l7 74 53
-6 c57 -6 85 8 62 31 -18 18 -238 16 -263 -2z"/>
<path d="M7282 15248 c2 -15 11 -24 26 -26 20 -3 23 0 20 20 -2 15 -11 24 -26
26 -20 3 -23 0 -20 -20z"/>
<path d="M6817 15243 c-21 -3 -41 -11 -44 -19 -4 -10 -9 -11 -17 -5 -19 16
-71 -2 -71 -25 0 -21 -2 -21 127 -2 47 7 90 17 95 21 9 10 -25 38 -41 35 -6
-1 -28 -3 -49 -5z"/>
<path d="M7050 15187 c-14 -12 -34 -33 -45 -47 -11 -14 -29 -25 -40 -25 -17 0
-21 -9 -26 -70 -4 -38 -16 -96 -26 -127 -20 -58 -17 -85 10 -75 14 5 67 124
67 152 0 11 12 15 44 15 37 0 48 5 69 30 42 50 46 111 9 153 -20 22 -32 21
-62 -6z m25 -113 c-15 -23 -44 -32 -58 -18 -9 9 10 43 42 77 l26 29 3 -32 c2
-17 -4 -42 -13 -56z"/>
<path d="M10282 15187 c-12 -13 -19 -26 -16 -30 4 -4 2 -12 -4 -19 -21 -26
-34 -102 -23 -131 16 -42 47 -32 43 12 -3 37 23 137 37 146 5 3 22 -6 39 -20
21 -18 32 -21 40 -13 8 8 8 17 0 32 -27 50 -81 61 -116 23z"/>
<path d="M7480 15174 c-47 -20 -100 -73 -100 -99 0 -73 138 -111 217 -59 23
14 24 18 10 31 -11 12 -19 12 -35 4 -30 -16 -104 -13 -130 5 -23 16 -23 17 -5
36 27 30 65 47 94 41 32 -6 45 19 23 42 -19 18 -29 18 -74 -1z"/>
<path d="M11113 15178 c-40 -19 -56 -105 -27 -146 20 -29 62 -29 106 2 l35 23
29 -66 c16 -36 29 -70 29 -74 0 -5 -17 -15 -38 -22 -102 -35 -103 -108 -2
-136 51 -14 80 6 97 68 l14 48 69 7 c80 9 118 23 112 41 -4 13 -26 14 -132 3
l-70 -8 -27 64 c-15 35 -33 86 -39 113 -13 54 -31 81 -48 71 -6 -4 -12 -17
-12 -29 -1 -20 -2 -21 -6 -2 -12 48 -46 64 -90 43z m42 -64 c0 -13 7 -19 23
-18 12 0 22 -1 22 -3 0 -5 -64 -43 -72 -43 -10 0 -10 74 -1 84 12 11 28 0 28
-20z m145 -268 c0 -44 -29 -58 -71 -35 -22 11 -17 26 15 39 32 13 56 12 56 -4z"/>
<path d="M9429 15165 c-31 -8 -78 -13 -105 -12 -43 2 -49 0 -49 -18 0 -18 7
-20 65 -22 91 -4 175 16 175 42 0 25 -16 27 -86 10z"/>
<path d="M10688 15166 c-15 -8 -40 -16 -55 -18 -23 -2 -28 -8 -29 -33 -1 -16
-4 -41 -8 -55 -4 -16 -2 -32 7 -44 20 -27 47 -14 47 23 0 42 44 91 81 91 30 0
38 17 17 38 -16 16 -27 15 -60 -2z m-58 -40 c0 -3 -4 -8 -10 -11 -5 -3 -10 -1
-10 4 0 6 5 11 10 11 6 0 10 -2 10 -4z"/>
<path d="M7231 15134 c-20 -25 -29 -93 -15 -107 12 -12 34 6 34 28 0 12 9 34
21 49 22 28 20 56 -5 56 -8 0 -24 -12 -35 -26z"/>
<path d="M10900 15140 c-19 -10 -45 -23 -56 -29 -20 -9 -30 -36 -37 -96 -4
-34 30 -30 49 7 23 46 64 88 86 88 14 0 18 -8 18 -35 0 -19 -6 -44 -12 -55
-18 -29 7 -44 38 -23 21 13 22 21 18 76 -2 34 -7 64 -12 68 -19 17 -59 16 -92
-1z"/>
<path d="M7910 15113 c-74 -5 -89 -13 -64 -37 14 -15 29 -16 98 -10 44 4 84
12 88 18 9 13 -20 37 -41 34 -9 -1 -45 -3 -81 -5z"/>
<path d="M9495 12127 c-6 -7 -35 -48 -64 -92 -29 -44 -58 -83 -65 -87 -6 -5
-29 -5 -52 -2 -37 5 -43 3 -67 -26 -37 -44 -40 -104 -8 -149 18 -24 17 -25
-21 -100 -21 -41 -38 -84 -36 -96 3 -22 38 -34 38 -14 0 8 17 48 37 91 32 66
41 78 62 78 40 0 108 47 136 94 31 54 32 81 0 110 l-24 22 43 65 c24 35 50 70
59 77 9 8 13 20 10 28 -6 17 -34 18 -48 1z m-67 -229 c22 -22 -53 -118 -92
-118 -5 0 33 78 58 118 9 15 19 15 34 0z m-95 -27 c-4 -3 -17 -23 -27 -43 -15
-30 -22 -36 -33 -27 -15 13 -17 53 -3 79 9 16 14 17 41 8 17 -6 27 -13 22 -17z"/>
<path d="M11252 12025 c-35 -71 -46 -85 -66 -85 -32 0 -86 -62 -86 -98 0 -15
7 -37 15 -48 13 -19 12 -28 -12 -87 -29 -74 -26 -117 8 -117 17 0 20 4 15 24
-3 14 3 44 15 74 l21 50 65 4 c57 4 69 8 90 32 30 35 24 58 -27 110 l-38 39
20 47 c12 29 28 50 40 53 16 5 19 13 16 44 -5 66 -29 53 -76 -42z m35 -218
c-6 -15 -83 -34 -95 -23 -3 4 4 27 17 53 l22 46 31 -30 c18 -19 28 -37 25 -46z
m-118 56 c0 -5 -4 -17 -9 -28 -8 -18 -9 -17 -9 8 -1 15 4 27 9 27 6 0 10 -3 9
-7z"/>
<path d="M10427 12021 c-19 -21 -40 -48 -46 -60 -10 -19 -13 -19 -47 -5 -35
15 -54 12 -54 -8 0 -5 -20 -32 -44 -59 -56 -62 -66 -101 -37 -140 13 -17 17
-30 11 -34 -20 -12 -70 -110 -70 -136 0 -15 7 -29 16 -33 21 -8 36 2 33 22 -7
46 62 152 98 152 32 0 98 35 117 62 18 26 21 80 6 109 -12 21 6 54 59 112 22
25 23 29 10 43 -14 13 -19 11 -52 -25z m-83 -127 c3 -7 1 -13 -4 -11 -4 1 -26
-22 -47 -52 -43 -62 -63 -74 -63 -39 0 28 79 127 97 121 6 -3 14 -11 17 -19z
m36 -54 c0 -20 -44 -70 -61 -70 -14 0 -11 9 19 51 30 43 42 49 42 19z"/>
<path d="M11625 11983 c-22 -24 -26 -36 -24 -80 2 -42 -2 -59 -24 -90 -34 -50
-35 -96 -2 -128 29 -30 47 -31 100 -6 54 24 69 44 60 78 -13 49 -8 83 14 106
35 38 23 87 -33 125 -42 29 -60 28 -91 -5z m97 -67 c12 -18 -14 -37 -46 -34
-24 2 -32 9 -34 26 -2 13 2 29 8 37 10 12 16 12 38 -3 15 -9 30 -21 34 -26z
m-42 -122 c0 -14 4 -23 9 -20 4 3 6 -5 4 -18 -8 -39 -84 -63 -97 -30 -9 25 -8
31 18 61 32 38 66 41 66 7z"/>
<path d="M9588 11988 c-18 -6 -28 -17 -28 -29 0 -21 16 -24 56 -9 15 6 29 9
31 6 2 -2 -5 -22 -16 -45 -12 -22 -21 -52 -21 -66 0 -19 -5 -26 -17 -24 -26 4
-116 -81 -103 -96 12 -15 151 -8 162 8 11 18 -1 27 -39 27 l-35 0 36 48 c45
58 86 135 86 161 0 10 -7 22 -16 25 -25 9 -56 7 -49 -4 3 -5 2 -10 -4 -10 -5
0 -11 4 -13 9 -1 4 -15 4 -30 -1z"/>
<path d="M10901 11974 c-35 -29 -43 -74 -13 -74 9 0 22 10 27 22 9 20 55 45
55 30 0 -17 -95 -125 -123 -140 -48 -26 -101 -77 -93 -90 12 -19 35 -14 83 18
l45 30 30 -25 c34 -29 71 -30 76 -3 2 12 -5 19 -23 24 -49 12 -48 35 6 109 27
37 49 75 49 84 0 47 -71 56 -119 15z"/>
<path d="M11449 11973 c-6 -16 -15 -55 -20 -88 -6 -32 -19 -76 -31 -96 -21
-38 -19 -74 5 -67 34 10 103 234 82 268 -11 18 -25 11 -36 -17z"/>
<path d="M10092 11868 c-42 -139 -44 -158 -12 -158 14 0 20 7 20 23 0 12 16
67 34 122 19 55 32 103 29 108 -2 4 -12 7 -22 7 -14 0 -25 -23 -49 -102z"/>
<path d="M10434 11765 c-12 -29 15 -45 45 -26 12 8 12 12 2 25 -17 20 -40 21
-47 1z"/>
<path d="M9730 11736 c-21 -23 -23 -57 -3 -56 21 1 65 49 60 64 -9 23 -30 20
-57 -8z"/>
<path d="M2619 11408 c0 -2 -1 -35 -3 -74 -2 -46 -8 -79 -19 -95 -10 -13 -17
-18 -17 -11 0 9 -12 12 -37 10 -54 -4 -51 -30 4 -42 l43 -10 -6 -70 c-4 -39
-11 -77 -17 -84 -7 -9 -6 -17 2 -25 22 -22 46 6 52 64 13 122 16 127 62 140
23 6 48 13 55 15 31 9 3 29 -39 29 l-45 -1 1 75 c0 64 -3 76 -17 79 -10 2 -18
2 -19 0z"/>
<path d="M8406 11392 c-2 -4 -5 -42 -5 -83 0 -41 0 -80 0 -87 -1 -16 -54 -8
-89 14 -26 17 -42 11 -42 -16 0 -24 35 -43 66 -37 13 2 24 1 24 -3 0 -4 10
-10 21 -13 21 -6 22 -10 17 -107 -5 -98 -4 -101 16 -98 22 3 22 1 25 169 1 30
20 39 70 31 32 -4 33 -6 28 -43 -3 -26 0 -42 9 -50 17 -14 18 -14 47 42 36 67
59 61 72 -20 11 -67 23 -82 45 -56 10 12 10 27 2 70 -19 92 -51 122 -102 95
-17 -9 -18 -4 -18 74 0 88 -13 129 -36 120 -10 -4 -12 -25 -8 -95 4 -82 3 -89
-14 -89 -11 0 -36 -3 -57 -7 l-39 -6 6 64 c3 35 3 79 -2 98 -7 34 -25 50 -36
33z"/>
<path d="M4700 11342 c-52 -54 -90 -141 -90 -206 0 -66 33 -107 104 -130 57
-19 59 -19 104 0 34 14 47 25 47 39 0 22 -14 23 -61 4 -62 -25 -135 8 -150 68
-9 32 16 111 53 167 l25 39 14 -31 c15 -37 23 -39 57 -12 35 28 42 56 23 85
-28 42 -71 34 -126 -23z"/>
<path d="M3679 11271 c-44 -89 -58 -110 -78 -113 -31 -4 -40 -28 -13 -34 19
-6 19 -6 1 -54 -20 -52 -16 -83 9 -78 22 4 45 87 29 108 -11 13 -10 13 6 1 15
-12 17 -11 17 2 0 10 13 20 33 25 29 8 32 6 35 -15 2 -14 -1 -38 -7 -55 -15
-41 -14 -68 2 -68 20 0 47 59 47 105 0 24 5 47 11 51 6 3 8 17 5 30 -4 14 -7
65 -7 114 0 80 -2 90 -18 90 -13 0 -33 -31 -72 -109z m41 -55 c0 -25 -5 -35
-20 -39 -11 -3 -20 -3 -20 -1 0 6 34 74 37 74 2 0 3 -15 3 -34z"/>
<path d="M5018 11370 c-36 -11 -85 -46 -98 -71 -19 -34 14 -83 86 -130 73 -47
104 -81 104 -114 0 -46 -69 -75 -105 -45 -11 9 -14 22 -9 46 5 26 2 35 -11 40
-22 9 -35 -11 -35 -53 0 -45 9 -62 41 -78 61 -32 138 -2 159 61 20 61 -4 102
-95 164 -58 39 -95 70 -95 81 0 5 10 17 22 28 l21 20 23 -24 c42 -46 89 -25
78 34 -4 17 -15 36 -25 41 -20 11 -24 11 -61 0z"/>
<path d="M2190 11368 c-1 -2 -3 -52 -6 -113 -2 -60 -9 -135 -14 -165 -6 -30
-11 -61 -12 -67 -1 -7 -5 -13 -9 -13 -5 0 -6 -7 -3 -15 9 -22 39 -18 52 8 17
31 42 339 29 355 -8 10 -36 18 -37 10z"/>
<path d="M1242 11339 c-42 -12 -107 -80 -122 -125 -23 -68 15 -155 81 -189 43
-23 159 -32 159 -14 0 10 2 11 8 2 10 -17 36 1 29 20 -4 11 -23 15 -76 15 -77
1 -119 17 -145 56 -35 55 -9 142 55 180 41 24 72 20 102 -14 29 -32 52 -38 60
-16 7 18 -61 83 -93 90 -14 2 -40 0 -58 -5z"/>
<path d="M9987 11334 c-33 -18 -31 -39 4 -40 14 0 30 -3 37 -8 14 -8 25 14 20
41 -4 23 -26 26 -61 7z"/>
<path d="M4087 11333 c-3 -4 -8 -37 -12 -73 -3 -36 -15 -93 -26 -127 -21 -64
-18 -85 15 -113 13 -10 21 -9 42 5 19 12 37 15 65 11 31 -5 40 -3 49 13 7 14
7 22 -2 27 -21 13 -72 15 -101 3 -15 -7 -30 -10 -32 -7 -3 3 2 29 11 59 20 65
24 200 7 206 -6 2 -13 0 -16 -4z"/>
<path d="M10380 11315 c0 -29 33 -51 48 -32 15 18 -4 57 -28 57 -15 0 -20 -7
-20 -25z"/>
<path d="M3891 11317 c-6 -8 -9 -16 -6 -19 3 -3 -8 -65 -25 -138 -36 -161 -35
-162 59 -154 36 3 70 9 75 14 14 14 -2 42 -21 36 -10 -3 -34 -6 -53 -8 -42 -3
-42 -2 -7 149 15 64 20 108 15 118 -11 19 -22 19 -37 2z"/>
<path d="M6447 11233 c-21 -177 -18 -203 18 -189 13 5 16 15 13 43 -3 20 1 61
8 90 7 29 11 61 9 71 -2 9 -4 20 -4 25 -1 4 -10 7 -20 7 -15 0 -20 -9 -24 -47z"/>
<path d="M2014 11241 c-17 -10 -35 -32 -41 -47 -16 -41 -27 -87 -24 -101 1 -7
-7 -43 -19 -79 -15 -51 -17 -70 -9 -80 6 -8 15 -14 20 -14 11 0 36 59 45 104
5 29 11 35 40 40 19 4 47 21 64 39 24 26 30 41 30 79 0 37 -5 50 -22 62 -29
21 -46 20 -84 -3z m66 -55 c0 -28 -35 -76 -56 -76 -8 0 -14 4 -14 9 0 5 -2 16
-5 23 -8 20 32 68 56 68 13 0 19 -7 19 -24z"/>
<path d="M620 11222 c0 -15 -5 -43 -10 -62 -6 -19 -13 -55 -16 -80 -5 -40 -3
-46 14 -47 11 -1 23 5 26 13 4 9 2 12 -5 8 -7 -4 -7 0 -1 12 5 11 20 52 32 92
20 63 22 75 9 83 -29 18 -49 10 -49 -19z"/>
<path d="M9632 11234 c-27 -12 -33 -19 -32 -47 0 -17 -2 -56 -6 -84 -6 -45 -4
-54 11 -59 26 -10 45 22 45 75 0 25 5 53 10 61 10 17 41 20 52 5 4 -5 10 -1
14 9 5 14 1 25 -15 38 -27 21 -35 21 -79 2z"/>
<path d="M2289 11189 c-41 -40 -50 -55 -45 -72 9 -29 14 -50 15 -60 2 -14 69
-37 108 -36 53 0 107 21 111 41 3 15 -5 17 -80 11 -67 -4 -86 -3 -96 9 -11 13
-5 16 38 22 65 9 95 36 86 79 -15 76 -66 78 -137 6z m91 -8 c0 -20 -18 -31
-51 -31 -16 0 -17 3 -7 19 7 11 15 18 19 15 4 -2 10 0 14 6 10 17 25 11 25 -9z"/>
<path d="M8920 11225 c-8 -10 -10 -19 -4 -25 16 -16 193 -28 211 -15 28 21 5
32 -79 38 -46 3 -90 8 -99 12 -9 3 -22 -1 -29 -10z"/>
<path d="M10595 11228 c-11 -6 -33 -22 -48 -37 -15 -14 -38 -26 -50 -26 -19 0
-22 -6 -25 -43 -2 -33 1 -44 14 -49 11 -4 20 -1 22 7 3 7 23 34 46 58 l41 45
5 -64 c4 -54 8 -64 24 -64 16 0 19 10 22 79 2 49 0 84 -7 93 -14 16 -18 16
-44 1z"/>
<path d="M7723 11202 c-12 -9 -29 -34 -38 -55 -15 -36 -15 -39 5 -67 12 -17
29 -31 38 -32 9 0 22 -2 29 -2 6 -1 15 -5 19 -9 4 -4 25 -7 46 -7 26 0 38 4
38 14 0 20 -13 27 -60 29 -22 1 -40 4 -40 8 0 4 -8 9 -17 12 -16 3 -16 5 2 12
34 14 85 55 85 70 0 41 -67 59 -107 27z m57 -27 c0 -2 -10 -10 -22 -16 -21
-11 -22 -11 -9 4 13 16 31 23 31 12z"/>
<path d="M2782 11193 c-41 -20 -82 -68 -82 -97 0 -51 61 -96 130 -96 52 0 123
35 118 58 -4 20 -17 19 -79 -4 -40 -15 -50 -16 -78 -4 -17 7 -37 22 -42 33 -8
14 -8 17 0 13 12 -8 107 18 127 35 21 17 17 46 -8 63 -28 20 -44 20 -86 -1z
m45 -39 c-3 -3 -12 -4 -19 -1 -8 3 -5 6 6 6 11 1 17 -2 13 -5z"/>
<path d="M7917 11203 c-4 -3 -7 -30 -7 -59 0 -29 -4 -64 -9 -78 -7 -18 -6 -28
4 -36 17 -14 28 -2 60 65 19 41 24 46 24 25 1 -29 18 -50 39 -50 10 0 12 11 7
48 -11 80 -14 84 -46 80 -17 -3 -32 -1 -35 4 -6 10 -28 11 -37 1z"/>
<path d="M10755 11186 c-32 -32 -34 -87 -4 -117 18 -18 29 -21 70 -16 l49 6 0
-48 c0 -45 -2 -50 -30 -59 -71 -25 -96 -84 -69 -161 13 -38 45 -42 77 -8 24
25 61 104 62 128 0 20 20 26 123 35 43 4 84 13 92 20 7 7 15 10 19 7 3 -4 6 2
6 12 0 16 -8 17 -92 11 -51 -4 -103 -10 -114 -13 -20 -4 -22 0 -26 43 -2 33 2
60 14 83 25 49 24 91 -2 91 -14 0 -27 -15 -45 -51 -26 -49 -27 -50 -68 -47
-28 2 -43 8 -44 18 -4 23 13 43 38 44 17 1 24 7 24 21 0 32 -49 32 -80 1z
m105 -286 c0 -6 -10 -30 -21 -53 -20 -39 -22 -40 -30 -19 -10 26 -2 52 20 69
20 15 31 16 31 3z"/>
<path d="M8106 11169 c-50 -59 -22 -134 48 -131 20 1 45 6 55 11 25 14 30 7
37 -51 4 -31 13 -52 22 -56 12 -4 11 -7 -6 -13 -12 -5 -22 -17 -22 -27 0 -16
-10 -20 -52 -25 -63 -8 -88 -32 -88 -87 0 -75 72 -136 117 -98 21 17 63 107
63 133 0 16 6 21 27 20 35 0 41 22 9 35 -25 9 -26 13 -26 79 0 38 -5 82 -11
98 -6 15 -13 37 -15 48 -9 48 -27 77 -45 72 -10 -3 -23 1 -30 9 -19 23 -55 16
-83 -17z m94 -39 c0 -15 -5 -31 -12 -38 -17 -17 -55 -15 -62 4 -10 26 17 59
48 59 21 0 26 -5 26 -25z m29 -322 c-12 -46 -29 -76 -46 -82 -17 -7 -48 55
-40 78 7 18 41 34 74 35 20 1 21 -2 12 -31z"/>
<path d="M9809 11192 c-28 -9 -49 -36 -49 -62 0 -38 22 -54 65 -46 l35 7 0
-38 c0 -44 12 -67 31 -61 9 3 13 27 14 79 2 107 -26 142 -96 121z m31 -52
c-20 -13 -43 -13 -35 0 3 6 16 10 28 10 18 0 19 -2 7 -10z"/>
<path d="M9981 11186 c-18 -21 -27 -161 -11 -171 27 -17 35 11 43 149 2 33
-14 44 -32 22z"/>
<path d="M10154 11181 c-19 -12 -41 -17 -58 -14 l-28 6 7 -49 c12 -87 26 -98
50 -40 13 30 61 76 79 76 11 0 6 -35 -9 -64 -20 -37 -19 -56 3 -56 38 0 71 99
46 138 -18 27 -49 28 -90 3z"/>
<path d="M1480 11180 c0 -5 0 -12 -1 -15 0 -2 -14 -19 -30 -36 -25 -27 -30
-39 -25 -63 6 -32 38 -66 61 -66 28 0 65 20 80 44 21 32 12 99 -18 127 -22 20
-67 26 -67 9z m48 -92 c-2 -28 -8 -34 -30 -36 -22 -3 -28 1 -28 17 0 23 25 51
46 51 11 0 14 -9 12 -32z"/>
<path d="M1730 11170 c-8 -5 -22 -7 -30 -5 -23 7 -35 -6 -54 -60 -23 -68 -24
-79 -3 -83 11 -2 23 7 35 28 9 18 24 41 33 52 15 20 15 19 11 -14 -5 -49 17
-55 64 -17 37 29 37 29 56 9 42 -45 57 -18 29 53 -12 32 -33 34 -71 7 l-28
-20 5 21 c4 12 0 25 -8 30 -18 11 -21 11 -39 -1z"/>
<path d="M10360 11180 c-8 -21 -26 -147 -23 -152 9 -16 30 -7 41 17 14 31 16
129 3 121 -5 -4 -12 0 -14 6 -3 7 -6 11 -7 8z"/>
<path d="M6527 11068 c-19 -10 -23 -33 -7 -43 13 -8 50 13 50 29 0 19 -22 26
-43 14z"/>
<path d="M694 11035 c-4 -9 -2 -21 4 -27 15 -15 44 -1 40 19 -4 23 -36 29 -44
8z"/>
<path d="M3466 10901 c-4 -6 -8 -38 -10 -73 -2 -35 -9 -75 -15 -90 -9 -25 -15
-28 -60 -28 -81 0 -81 -36 -1 -47 l42 -6 -6 -51 c-4 -28 -9 -66 -12 -83 l-6
-33 -69 0 c-57 0 -67 3 -63 15 4 8 1 22 -6 30 -8 10 -10 30 -6 60 6 40 5 45
-12 45 -10 0 -27 -9 -36 -19 -19 -21 -56 -34 -56 -20 0 5 16 19 35 31 40 23
41 41 4 46 -17 2 -35 -8 -59 -33 -34 -35 -34 -37 -19 -63 12 -22 22 -27 52
-26 25 1 37 -3 37 -12 0 -8 9 -23 20 -34 l20 -20 -105 0 -105 0 4 93 c3 50 8
101 12 111 6 15 4 17 -7 11 -12 -7 -12 -6 -1 7 7 9 18 45 24 80 16 95 16 103
-8 106 -19 3 -22 -7 -44 -143 -23 -148 -25 -174 -18 -232 l4 -33 -55 0 c-48 0
-53 2 -36 13 24 18 12 36 -23 35 -37 -1 -75 12 -89 31 -18 24 -16 28 20 35 51
10 97 42 97 69 0 32 -18 47 -59 47 -27 0 -42 -8 -73 -40 -31 -34 -38 -48 -38
-81 0 -33 6 -47 30 -69 17 -16 43 -31 58 -33 15 -2 -236 -5 -557 -6 -552 -1
-583 0 -576 17 31 70 7 111 -70 120 -57 6 -64 17 -28 45 15 12 41 34 57 50 16
15 32 27 36 27 3 0 16 9 28 21 24 22 21 39 -6 39 -16 0 -138 -94 -191 -146
-13 -14 -26 -23 -28 -21 -2 2 1 28 7 57 14 72 13 90 -5 97 -22 8 -27 0 -32
-49 -2 -24 -18 -91 -36 -150 l-31 -108 -566 -3 -565 -2 572 -3 c369 -1 574 -6
578 -12 4 -7 12 -7 25 0 12 7 766 11 2202 12 1588 2 1919 4 1213 8 -533 3
-962 8 -952 12 20 9 51 75 61 131 6 31 4 37 -11 37 -17 1 -17 1 0 11 13 8 17
24 17 72 0 35 5 68 11 74 15 15 4 43 -15 43 -24 0 -34 -29 -38 -115 l-3 -80
-40 -6 c-47 -8 -85 -48 -85 -90 0 -16 5 -29 11 -29 5 0 7 -5 4 -11 -4 -5 1
-19 11 -30 17 -19 15 -19 -77 -18 -76 0 -89 3 -66 11 36 13 33 44 -3 41 -59
-6 -73 -5 -81 8 -13 21 -11 32 7 25 20 -8 90 29 104 55 15 27 -11 69 -44 69
-32 0 -86 -39 -109 -77 -16 -28 -17 -38 -7 -68 6 -19 21 -42 33 -50 20 -14 15
-15 -62 -15 -75 0 -82 2 -75 18 4 9 9 40 11 67 6 87 9 92 54 99 31 5 40 10 37
24 -3 13 -12 16 -37 14 -24 -2 -32 1 -29 10 17 46 31 151 22 166 -13 20 -30
26 -38 13z m-620 -236 c-20 -15 -36 -19 -36 -10 0 5 38 23 50 24 3 0 -4 -6
-14 -14z m818 -23 c-13 -12 -64 -33 -64 -27 0 8 64 45 69 39 3 -2 0 -8 -5 -12z
m241 -61 c-8 -27 -34 -53 -46 -46 -16 10 -10 67 9 81 23 17 47 -5 37 -35z
m-2319 20 c-3 -5 12 -11 34 -15 42 -7 44 -11 34 -65 l-6 -31 -99 0 c-106 0
-108 1 -93 55 6 24 47 45 85 45 15 0 31 5 34 10 3 6 8 10 11 10 3 0 3 -4 0 -9z"/>
<path d="M4592 10867 c-10 -23 -27 -66 -36 -94 -17 -51 -18 -52 -49 -46 -18 3
-40 10 -51 15 -12 7 -22 6 -28 0 -19 -19 1 -41 47 -53 25 -6 45 -12 45 -13 0
0 -6 -21 -14 -47 -11 -36 -11 -51 -1 -75 17 -41 40 -57 71 -50 31 8 29 40 -4
44 -29 4 -36 37 -19 87 13 37 17 40 58 45 31 4 45 10 47 23 4 19 -26 36 -37
20 -3 -5 -14 -12 -23 -16 -15 -5 -15 -2 -2 44 8 27 24 70 34 95 11 25 18 50
14 55 -12 21 -34 6 -52 -34z"/>
<path d="M9641 10887 c-8 -10 -6 -19 10 -35 11 -12 15 -22 10 -22 -6 0 -10
-10 -9 -23 1 -12 -4 -44 -12 -71 l-13 -48 -53 5 c-38 4 -56 2 -64 -8 -19 -23
-2 -35 50 -35 l49 0 -2 -80 -2 -80 -342 0 -343 0 0 25 c0 14 -5 25 -11 25 -8
0 -8 4 1 15 14 17 22 85 12 102 -4 7 -18 14 -30 16 -12 2 -25 6 -28 10 -11 11
-83 8 -106 -4 -28 -15 -53 -76 -37 -95 18 -22 51 -17 102 16 26 17 49 30 51
30 2 0 6 -24 8 -52 3 -29 7 -60 9 -68 4 -13 -62 -15 -537 -18 l-541 -2 -1 44
c0 51 -5 61 -49 109 -34 37 -32 47 15 62 14 4 22 13 20 23 -5 25 -34 26 -73 2
-46 -28 -47 -65 -5 -105 37 -35 57 -73 52 -97 -5 -25 -38 -22 -56 3 -21 30
-50 18 -42 -16 l6 -25 -133 0 -133 0 -12 48 c-8 29 -10 70 -6 105 7 56 6 57
-19 57 -14 0 -29 5 -32 10 -3 6 -19 10 -34 10 -67 0 -121 -129 -73 -173 24
-22 40 -21 78 2 l32 19 5 -21 c2 -12 8 -30 12 -39 7 -17 -2 -18 -98 -18 -94 0
-105 2 -103 18 1 14 -10 18 -62 22 -40 3 -66 10 -72 20 -15 23 -12 28 18 35
16 3 44 21 61 39 28 29 32 39 26 65 -13 59 -73 46 -120 -27 -11 -17 -28 -34
-37 -37 -10 -4 -18 -12 -18 -19 0 -22 32 -80 54 -98 20 -17 19 -18 -51 -18
-83 0 -75 -14 -73 125 1 57 -3 86 -14 100 -20 27 -40 14 -86 -53 l-35 -51 -5
37 c-3 20 -9 43 -13 50 -11 17 -42 15 -58 -4 -11 -14 -13 -14 -21 0 -9 16 -37
22 -39 9 -1 -5 -2 -44 -4 -88 -4 -133 7 -125 -157 -125 -78 0 -139 -2 -136 -5
3 -3 121 -6 263 -6 231 0 260 -2 272 -17 12 -16 14 -16 27 1 13 17 39 18 437
13 233 -2 431 -4 439 -4 270 5 1105 4 1080 -1 -65 -13 -115 -51 -104 -80 2 -8
0 -18 -7 -21 -27 -17 24 -120 60 -120 32 0 92 74 106 132 5 19 14 28 33 30 35
4 39 25 8 39 -14 7 -26 16 -26 21 0 4 665 9 1478 10 l1477 3 -1125 5 c-619 3
-1120 6 -1114 8 7 1 15 23 18 50 15 107 11 102 72 102 52 0 54 -1 49 -23 -14
-55 71 -103 136 -77 60 25 64 68 10 122 -36 36 -42 38 -63 27 -13 -7 -24 -12
-25 -11 -11 7 -23 -1 -24 -15 0 -14 -2 -15 -6 -3 -9 24 -25 30 -76 30 -43 0
-47 2 -38 18 16 30 23 125 12 155 -11 29 -32 35 -50 14z m-2566 -237 c-10 -11
-20 -18 -23 -15 -3 3 3 14 13 25 10 11 20 18 23 15 3 -3 -3 -14 -13 -25z m253
18 c18 -18 15 -32 -13 -62 -48 -52 -74 -22 -35 42 21 35 30 38 48 20z m-621
-80 c-2 -60 1 -73 15 -76 16 -3 81 79 81 103 0 6 10 18 21 26 21 16 21 16 21
-67 l0 -84 -97 0 c-54 0 -98 4 -98 8 0 18 50 162 56 162 2 0 2 -32 1 -72z
m2103 57 c0 -2 -9 -9 -20 -15 -12 -6 -20 -7 -20 -1 0 5 8 12 18 14 9 3 18 5
20 6 1 0 2 -1 2 -4z m1083 -19 c16 -12 16 -14 1 -27 -18 -14 -62 -14 -78 1
-13 13 13 40 38 40 11 0 29 -7 39 -14z m-1033 -211 c0 -14 -33 -81 -47 -97
-12 -14 -19 -15 -30 -7 -19 17 -17 79 5 95 16 13 72 20 72 9z"/>
<path d="M2680 10763 c-14 -10 -36 -18 -50 -18 -24 0 -25 -4 -32 -70 -15 -134
-15 -130 9 -133 22 -3 29 10 47 103 4 17 17 44 30 60 20 25 26 27 39 16 20
-16 37 -7 37 20 0 12 -10 23 -26 29 -31 12 -25 13 -54 -7z"/>
<path d="M758 10739 c-21 -11 -38 -23 -38 -27 0 -4 -14 -13 -31 -19 -21 -8
-30 -17 -27 -30 5 -30 43 -27 76 6 65 66 59 30 -15 -86 -53 -83 -29 -112 40
-48 21 19 46 35 55 35 9 0 30 -16 45 -36 40 -50 74 -45 105 16 27 53 31 137 7
147 -26 9 -28 5 -33 -88 -1 -14 -8 -33 -15 -43 -12 -17 -16 -15 -49 18 -20 20
-45 36 -56 36 -20 0 -20 1 4 55 14 31 23 62 20 70 -7 20 -44 18 -88 -6z"/>
<path d="M2201 10711 c-9 -6 -11 -18 -7 -35 5 -19 2 -28 -9 -32 -20 -8 -43 12
-47 39 -2 12 -10 23 -19 25 -21 4 -119 -74 -119 -94 0 -29 30 -27 61 4 l32 31
29 -30 c35 -34 56 -36 92 -8 26 20 34 57 20 93 -7 18 -13 19 -33 7z"/>
<path d="M9073 10713 c-7 -2 -13 -11 -13 -18 0 -7 -6 -15 -14 -18 -23 -9 -30
-64 -12 -91 16 -26 62 -39 87 -25 39 20 32 114 -10 146 -17 13 -20 14 -38 6z
m27 -84 c0 -28 -13 -39 -25 -19 -8 13 5 61 16 54 5 -3 9 -18 9 -35z"/>
<path d="M1223 10678 c-17 -18 -33 -40 -36 -48 -5 -13 -6 -13 -6 1 -1 23 -44
59 -69 59 -41 0 -85 -107 -62 -149 13 -24 48 -37 63 -22 6 6 18 11 26 11 8 0
23 8 34 18 11 9 17 11 13 4 -12 -20 4 -52 25 -52 14 0 19 7 19 25 0 46 22 126
36 132 8 3 21 -2 28 -12 10 -14 14 -15 24 -2 10 11 8 20 -9 41 -27 34 -49 33
-86 -6z m-83 -83 c0 -21 -17 -35 -41 -35 -12 0 -11 37 2 61 8 16 13 18 25 8 8
-6 14 -22 14 -34z"/>
<path d="M7520 10693 c-14 -10 -31 -18 -39 -18 -17 0 -25 -16 -41 -80 -18 -72
-18 -89 3 -93 13 -3 25 13 49 65 53 113 82 117 83 10 1 -55 3 -62 20 -62 17 0
20 8 23 60 4 105 -40 159 -98 118z"/>
<path d="M4732 10660 c-52 -50 -60 -79 -35 -122 17 -29 25 -33 58 -32 42 2 69
28 80 76 7 28 -29 108 -50 115 -6 2 -30 -15 -53 -37z m56 -59 c3 -22 -22 -61
-39 -61 -19 0 -21 51 -3 71 21 24 38 20 42 -10z"/>
<path d="M1765 10378 c-2 -7 -11 -58 -20 -113 -9 -55 -22 -122 -30 -150 -8
-27 -13 -65 -11 -82 l2 -33 -268 0 c-235 0 -267 2 -262 15 4 8 0 23 -7 32 -9
10 -13 35 -11 68 4 58 -12 75 -50 54 -20 -11 -20 -9 -12 27 5 22 9 68 9 104 0
51 -3 65 -15 65 -11 0 -18 -22 -28 -90 -7 -49 -17 -103 -22 -119 -27 -79 -1
-110 51 -60 l27 26 -5 -40 c-4 -32 -1 -44 16 -61 l21 -21 -119 0 c-106 0 -119
2 -117 17 1 12 -9 19 -28 23 -42 7 -55 33 -35 68 12 21 22 26 43 24 64 -7 72
32 9 44 -48 9 -79 -11 -99 -61 -14 -39 -14 -45 0 -73 9 -17 21 -32 28 -35 7
-3 -20 -6 -60 -6 l-73 -1 15 22 c23 32 20 49 -14 99 -16 24 -30 48 -30 52 0 4
23 5 50 1 46 -6 50 -5 50 13 0 15 -9 22 -31 27 -114 22 -150 -23 -83 -103 48
-57 7 -97 -46 -46 -17 17 -35 25 -44 22 -25 -10 -19 -34 15 -59 l31 -23 -174
-5 c-95 -3 1078 -6 2607 -5 1743 0 2048 1 818 2 -1080 2 -1963 7 -1963 11 0 4
5 13 12 20 9 9 9 15 0 24 -16 16 -43 1 -57 -30 -8 -18 -18 -22 -52 -22 -38 0
-43 3 -49 27 -4 15 2 69 15 127 25 115 39 207 33 224 -5 16 -31 15 -37 0z"/>
<path d="M7140 10250 c-7 -4 -10 -17 -7 -29 3 -12 1 -19 -3 -16 -5 3 -17 -19
-26 -50 -10 -30 -21 -55 -24 -55 -4 0 -12 18 -19 41 -7 22 -19 43 -27 46 -7 3
-12 9 -9 13 3 4 -2 13 -11 20 -20 18 -38 -1 -29 -30 4 -12 10 -19 13 -16 3 4
14 -21 24 -54 11 -34 25 -63 32 -66 8 -3 11 -15 8 -30 -4 -22 -9 -24 -57 -24
l-53 0 -6 48 c-8 53 -25 102 -36 102 -4 0 -13 14 -20 31 -16 38 -52 63 -80 54
-31 -10 -70 -68 -68 -100 3 -35 52 -85 82 -85 12 0 31 7 42 15 29 22 34 18 34
-25 l0 -40 -297 -3 -298 -2 303 -3 c193 -1 302 -6 302 -12 0 -6 -26 -10 -57
-10 -73 0 -127 -25 -131 -60 -4 -34 55 -130 95 -153 30 -17 34 -17 63 -2 32
17 60 66 60 106 0 11 8 37 17 57 12 26 14 37 5 40 -7 2 -12 10 -12 18 0 10 14
14 50 14 50 0 50 0 44 -27 -12 -50 -25 -78 -47 -101 -22 -23 -22 -24 -2 -38
17 -12 21 -12 35 1 13 14 13 17 0 26 -13 9 -12 10 2 5 20 -6 43 27 32 45 -4 6
-2 14 3 18 6 3 14 20 20 36 l10 30 2384 5 2384 5 -2382 3 c-1330 1 -2383 6
-2383 11 0 4 16 51 36 102 20 52 38 103 41 115 5 23 -16 37 -37 24z m-287 -92
c18 -32 18 -33 -4 -51 -23 -19 -24 -19 -46 8 -22 24 -22 27 -7 50 22 33 35 31
57 -7z m45 -279 c-6 -56 -33 -94 -60 -84 -23 9 -70 83 -66 103 3 17 40 28 102
31 28 1 29 1 24 -50z"/>
<path d="M7465 10233 c-13 -15 -33 -39 -44 -53 l-20 -25 -1 26 c0 15 -7 33
-16 40 -14 11 -22 10 -55 -9 -21 -12 -49 -22 -63 -22 -20 0 -27 -8 -40 -48 -9
-26 -17 -65 -19 -87 -2 -34 1 -40 18 -40 12 0 21 8 24 20 4 25 50 92 84 123
l24 23 -10 -51 c-19 -95 20 -90 100 11 l48 62 5 -54 c6 -65 14 -79 43 -79 31
0 87 36 87 56 0 13 -6 15 -27 9 -15 -3 -30 -11 -33 -16 -3 -5 -13 0 -22 11
-11 12 -13 20 -5 23 8 2 8 17 2 53 -12 61 -42 72 -80 27z m65 -53 c0 -5 -4
-10 -10 -10 -5 0 -10 5 -10 10 0 6 5 10 10 10 6 0 10 -4 10 -10z"/>
<path d="M1495 10174 c-65 -27 -94 -95 -56 -133 27 -27 101 -29 126 -4 24 24
15 96 -16 127 -22 21 -27 22 -54 10z m40 -75 c8 -23 -7 -39 -37 -39 -22 0 -31
15 -23 40 9 28 52 27 60 -1z"/>
<path d="M1279 10166 c-21 -10 -24 -19 -24 -70 1 -46 5 -61 20 -73 25 -18 71
-10 101 18 42 39 39 129 -4 127 -9 0 -29 2 -43 5 -15 3 -37 0 -50 -7z m85 -44
c9 -15 -19 -57 -40 -60 -26 -4 -38 22 -24 49 11 19 54 27 64 11z"/>
<path d="M1652 9503 c762 -2 2013 -2 2780 0 766 1 142 2 -1387 2 -1529 0
-2156 -1 -1393 -2z"/>
<path d="M7692 9503 c762 -2 2013 -2 2780 0 766 1 142 2 -1387 2 -1529 0
-2156 -1 -1393 -2z"/>
<path d="M1652 9003 c762 -2 2013 -2 2780 0 766 1 142 2 -1387 2 -1529 0
-2156 -1 -1393 -2z"/>
<path d="M7702 9003 c764 -2 2012 -2 2775 0 764 1 139 2 -1387 2 -1526 0
-2151 -1 -1388 -2z"/>
<path d="M260 5560 l0 -2050 583 0 583 0 -51 -53 c-78 -81 -129 -204 -114
-276 10 -47 38 -82 90 -108 l44 -22 -395 -1 c-217 0 -390 4 -384 8 15 9 28 62
45 172 6 47 18 95 26 107 13 19 12 22 -8 28 -35 11 -47 -13 -63 -130 -8 -61
-19 -123 -25 -137 -7 -20 -7 -29 2 -35 7 -4 -64 -10 -158 -13 -162 -5 643 -9
2220 -11 468 0 734 -4 742 -10 8 -7 18 -7 32 0 26 14 216 14 243 0 14 -8 23
-8 31 0 13 13 1028 16 1043 2 19 -17 61 -21 80 -6 16 12 100 15 509 17 487 3
488 3 165 8 -179 3 -319 9 -312 13 6 5 12 15 12 23 0 13 -13 14 -85 8 -70 -6
-89 -4 -110 10 -14 9 -25 20 -25 25 0 14 33 23 40 12 8 -15 76 5 100 29 21 21
17 50 -8 73 -38 34 -88 25 -134 -25 -55 -60 -52 -124 7 -156 16 -9 4 -11 -57
-12 l-78 0 0 28 c0 15 -14 47 -31 72 -21 32 -26 46 -17 49 54 16 38 53 -18 41
-20 -5 -38 -11 -41 -13 -8 -8 16 -73 36 -99 37 -49 31 -89 -9 -53 -22 20 -55
13 -46 -10 4 -12 -7 -15 -63 -15 l-69 0 -4 38 c-3 20 -2 46 2 57 16 45 -23 64
-40 20 -5 -14 -9 -29 -9 -33 1 -4 1 -24 0 -44 l-1 -38 -416 0 c-245 0 -413 4
-410 9 3 5 -11 23 -32 40 l-37 31 44 40 c29 26 41 45 37 56 -9 22 -45 9 -77
-29 l-26 -31 -12 22 c-7 13 -9 32 -6 42 8 27 -21 38 -42 17 -15 -14 -15 -20 2
-63 17 -44 17 -48 1 -59 -9 -7 -16 -19 -16 -28 0 -26 22 -32 40 -10 l16 20 27
-23 c15 -13 27 -26 27 -29 0 -3 -52 -5 -116 -5 -65 0 -113 4 -110 9 10 15 -22
21 -113 21 l-87 0 10 77 11 78 45 7 c88 14 185 45 185 59 0 22 -45 22 -126 0
-40 -12 -77 -21 -82 -21 -9 0 -2 88 8 98 3 4 20 12 38 18 26 9 36 19 54 53 1
1 7 0 13 -4 8 -5 8 -11 -1 -21 -9 -11 -2 -10 37 2 27 9 71 19 97 21 50 5 73
27 46 44 -26 16 -59 10 -69 -13 -7 -19 -9 -20 -9 -4 -1 13 -6 16 -18 12 -10
-4 -51 -16 -93 -27 -41 -11 -87 -25 -103 -32 -31 -14 -37 -30 -62 -182 -9 -55
-21 -121 -27 -147 l-10 -48 -240 0 c-191 0 -238 3 -230 13 28 35 56 333 33
361 -27 32 -36 7 -38 -102 -1 -59 -9 -140 -17 -181 -9 -40 -13 -78 -10 -82 3
-5 -26 -9 -65 -9 -68 0 -70 1 -75 28 -4 15 -4 49 -2 75 4 43 2 49 -19 59 -30
14 -77 -4 -105 -40 -36 -45 -22 -82 36 -91 20 -3 39 -12 42 -19 3 -9 -53 -12
-256 -12 l-259 0 10 55 c15 89 -21 148 -75 125 -35 -14 -78 -54 -82 -76 -2
-10 -7 -31 -11 -45 -4 -15 -2 -30 3 -33 18 -11 41 5 47 33 8 36 49 86 63 77
13 -8 16 -56 6 -105 l-6 -31 -236 0 -236 0 52 26 c29 14 65 41 80 60 l28 34
-4 -34 c-3 -25 2 -39 19 -55 27 -25 84 -28 115 -6 12 8 24 11 28 8 3 -3 6 1 6
10 0 24 -17 30 -55 17 -56 -18 -62 -1 -11 32 51 33 59 63 28 91 -27 24 -47 21
-87 -14 -19 -17 -35 -26 -35 -21 0 20 -32 42 -61 42 -16 0 -29 -5 -29 -11 0
-5 -6 -7 -12 -3 -17 11 -98 11 -105 1 -2 -4 1 -15 8 -24 11 -12 26 -14 81 -9
38 3 68 2 68 -3 0 -18 -41 -59 -74 -75 -90 -43 -194 8 -196 96 -1 68 81 211
143 248 26 16 87 28 87 18 0 -2 -7 -25 -15 -52 -21 -70 -20 -96 6 -96 30 0 73
98 65 146 l-7 34 1261 0 1261 0 -31 -45 c-43 -62 -64 -115 -51 -128 15 -15 38
-1 45 29 4 14 25 53 47 85 l40 59 375 0 374 0 -15 -36 c-22 -52 -20 -84 5 -84
11 0 20 6 20 14 0 8 9 35 20 60 l19 46 361 0 c356 0 360 0 348 -20 -10 -15
-10 -22 -1 -31 18 -18 63 5 63 31 0 17 6 20 50 20 49 0 50 0 50 31 0 17 9 42
20 56 23 30 26 80 5 107 -13 17 -12 23 5 52 11 17 19 38 17 45 -2 8 -2 10 1 6
7 -13 31 26 32 51 0 38 -42 25 -52 -15 -5 -18 -13 -35 -18 -38 -7 -4 -10 511
-10 1490 l0 1497 33 -3 c18 -2 39 1 46 5 10 6 12 5 7 -2 -4 -7 -1 -12 8 -12 8
0 18 5 21 10 11 19 -16 40 -50 40 -70 0 -65 -28 -65 396 l0 384 -2780 0 -2780
0 0 -2050z m5549 1683 c-1 -327 -2 -350 -13 -268 -16 116 -26 135 -72 135 -44
0 -78 -32 -95 -88 -10 -35 -10 -45 5 -67 20 -30 40 -31 83 -6 37 23 43 16 43
-55 0 -43 -1 -44 -31 -44 -41 0 -95 -53 -104 -103 -15 -77 20 -156 63 -143 28
9 73 75 100 146 l21 55 0 -1518 c1 -1491 1 -1517 -18 -1505 -43 27 -151 -39
-151 -92 0 -28 19 -72 41 -96 17 -18 18 -25 8 -48 l-12 -26 -359 0 c-199 0
-358 4 -358 9 0 13 22 27 54 35 16 4 44 23 62 42 28 28 34 42 34 78 0 25 -6
51 -14 58 -11 12 -8 23 20 72 34 56 36 76 9 76 -12 0 -71 -88 -68 -101 2 -6
-23 -2 -76 12 -20 6 -90 -98 -98 -144 -5 -30 -1 -45 16 -68 14 -19 20 -37 16
-49 -6 -19 -16 -20 -238 -19 -149 0 -224 4 -209 9 12 5 22 17 22 26 0 14 -7
16 -47 10 l-46 -6 62 63 c133 135 134 178 5 161 -56 -7 -78 -24 -56 -46 8 -8
23 -8 54 0 23 6 44 9 46 7 2 -2 -35 -44 -83 -94 -67 -69 -86 -95 -82 -111 5
-19 1 -20 -96 -20 -88 0 -98 2 -82 14 11 8 33 12 54 9 43 -6 101 29 115 68 11
31 1 93 -18 112 -12 12 -10 21 15 60 16 26 26 47 22 47 -5 0 -3 4 4 8 18 11
63 81 63 97 0 8 -8 15 -17 15 -16 0 -84 -91 -105 -139 -4 -9 -7 -11 -7 -3 -2
31 -89 4 -126 -40 -43 -50 -62 -118 -32 -118 8 0 8 -3 -2 -9 -12 -8 -12 -14
-2 -39 11 -26 10 -34 -4 -56 l-17 -26 -1263 0 c-1113 0 -1264 2 -1269 15 -7
18 -33 20 -38 3 -4 -10 -142 -14 -636 -16 l-632 -3 0 2041 0 2040 2770 0 2770
0 -1 -357z m-74 -200 c-7 -29 -37 -63 -55 -63 -17 0 -11 36 11 64 28 36 53 35
44 -1z m15 -258 c0 -32 -53 -125 -71 -125 -5 0 -9 14 -9 30 0 24 -4 30 -22 31
-19 0 -20 2 -5 7 9 4 26 22 37 40 21 34 70 46 70 17z m-1521 -3049 c9 -11 5
-25 -19 -65 -18 -28 -36 -49 -41 -45 -17 10 -9 64 13 94 25 34 31 36 47 16z
m788 -8 c-4 -27 -59 -128 -69 -128 -16 0 -25 36 -17 66 17 61 95 116 86 62z
m727 -9 c26 -12 43 -49 22 -49 -7 0 -19 -11 -26 -25 -16 -30 -26 -31 -40 -6
-14 26 -13 64 2 79 15 15 12 14 42 1z m-683 -62 c-6 -14 -19 -31 -31 -37 -20
-10 -19 -8 6 42 28 52 45 49 25 -5z m-771 -6 c0 -42 -11 -56 -53 -66 -32 -8
-33 -4 -10 32 13 19 14 28 5 31 -6 2 -12 11 -12 20 0 13 2 13 14 -3 13 -18 14
-18 25 3 18 33 31 26 31 -17z m1520 -5 c0 -13 -7 -27 -16 -30 -24 -9 -29 0
-10 19 9 9 14 21 11 26 -4 5 -1 9 4 9 6 0 11 -11 11 -24z m0 -101 c0 -22 -4
-25 -40 -25 -22 0 -40 3 -40 8 0 15 16 30 35 35 39 9 45 7 45 -18z m-736 -352
c-21 -15 -64 -17 -64 -3 0 5 9 14 20 20 11 6 18 16 14 22 -4 5 6 2 21 -8 25
-17 26 -19 9 -31z m-3364 2 c0 -2 -10 -10 -22 -16 -21 -11 -22 -11 -9 4 13 16
31 23 31 12z m773 -50 c-20 -27 -43 -33 -43 -10 0 15 26 34 48 35 9 0 8 -7 -5
-25z"/>
<path d="M4238 7403 c-31 -33 -70 -108 -61 -117 4 -3 2 -6 -4 -6 -6 0 -21 -28
-33 -62 -13 -35 -43 -103 -67 -151 -42 -85 -46 -107 -20 -107 15 0 47 35 47
53 1 6 9 27 19 46 17 31 21 33 74 35 46 1 57 -2 61 -16 2 -10 0 -18 -5 -18
-14 0 -11 -46 5 -59 23 -19 36 10 38 91 2 42 6 74 9 72 4 -2 10 41 14 95 11
156 -17 208 -77 144z m32 -152 c-5 -51 -10 -94 -12 -95 -46 -29 -55 -33 -76
-25 -29 11 -27 20 35 148 54 113 66 107 53 -28z"/>
<path d="M1190 7374 c-36 -7 -86 -13 -111 -13 -38 -1 -50 -6 -63 -26 -9 -13
-16 -37 -16 -53 0 -55 -12 -90 -31 -95 -20 -5 -27 -43 -9 -49 5 -2 4 -32 -4
-78 -17 -99 -15 -104 48 -96 185 22 213 29 208 49 -4 15 -2 18 8 12 8 -5 11
-4 6 3 -6 11 -62 7 -131 -8 -22 -5 -53 -10 -69 -10 -28 0 -29 0 -24 52 3 31
12 56 22 63 8 7 13 15 9 18 -3 4 -1 7 5 7 7 0 12 -5 12 -10 0 -13 168 -11 176
2 15 23 -19 33 -106 30 l-89 -2 2 45 c1 25 5 45 10 45 4 0 7 11 7 23 0 22 7
25 108 41 59 10 119 19 134 20 34 3 42 10 34 31 -7 18 -37 18 -136 -1z"/>
<path d="M4847 7373 c-4 -3 -7 -22 -7 -42 0 -20 -10 -94 -21 -166 -11 -71 -23
-143 -25 -158 -3 -24 1 -30 33 -43 33 -14 40 -14 75 2 50 23 99 84 100 125 2
57 -56 85 -113 55 -23 -12 -27 -11 -38 5 -9 15 -8 18 1 17 14 -3 25 51 29 133
3 67 -11 96 -34 72z m113 -283 c0 -25 -65 -90 -90 -90 -11 0 -20 2 -20 5 0 11
32 70 48 88 21 24 62 23 62 -3z"/>
<path d="M2736 7337 c-47 -47 -37 -79 49 -161 41 -40 75 -78 75 -84 0 -7 -11
-24 -25 -38 -46 -46 -111 -2 -101 68 3 22 1 40 -6 44 -17 11 -38 -26 -38 -69
0 -31 7 -46 34 -73 76 -76 191 -14 172 91 -6 28 -21 46 -71 87 -52 41 -65 57
-65 80 0 27 2 28 45 28 32 0 45 -4 45 -14 0 -19 23 -36 36 -28 6 4 14 17 18
29 9 29 -25 52 -92 60 -45 5 -53 3 -76 -20z"/>
<path d="M5203 7353 c-7 -2 -13 -11 -13 -18 0 -18 -33 -22 -95 -13 -64 10 -97
3 -93 -20 3 -14 19 -18 92 -24 48 -3 90 -8 92 -11 2 -2 -16 -72 -41 -156 -25
-83 -43 -156 -40 -162 4 -5 14 -9 22 -7 17 3 67 163 57 180 -4 7 -2 8 4 4 8
-4 12 1 13 13 1 12 2 24 4 29 1 4 8 28 15 53 l13 45 95 17 c99 17 118 26 109
50 -4 11 -15 12 -61 4 -31 -6 -56 -14 -56 -18 0 -14 -74 4 -90 22 -8 9 -21 15
-27 12z"/>
<path d="M1694 7326 c-8 -21 3 -36 27 -36 15 0 20 6 17 22 -4 27 -35 37 -44
14z"/>
<path d="M3187 7322 c-38 -13 -52 -13 -67 -4 -15 9 -22 8 -35 -5 -13 -12 -28
-14 -75 -10 -44 5 -59 3 -63 -7 -9 -23 15 -36 70 -36 29 0 53 -3 53 -7 0 -5
-14 -54 -31 -110 -31 -100 -33 -133 -6 -133 9 0 20 22 30 58 40 149 54 186 73
193 10 4 45 14 77 23 44 13 57 21 57 37 0 23 -17 23 -83 1z"/>
<path d="M3512 7298 c-15 -32 -40 -115 -48 -163 -4 -22 -14 -58 -22 -80 l-16
-40 -8 35 c-5 19 -11 46 -14 60 -22 111 -54 164 -85 144 -18 -11 -120 -228
-117 -249 5 -32 36 -31 44 2 4 15 25 66 47 112 46 97 46 97 75 -48 23 -116 58
-134 106 -52 24 41 57 191 42 191 -6 0 -3 5 7 11 9 5 17 17 17 24 0 8 6 15 14
15 20 0 29 16 21 40 -9 28 -49 26 -63 -2z"/>
<path d="M1423 7205 c-17 -7 -42 -28 -56 -46 -26 -35 -50 -106 -41 -120 2 -5
0 -16 -5 -26 -6 -10 -18 -65 -27 -123 -9 -58 -19 -117 -21 -132 -4 -23 -2 -28
15 -28 16 0 24 10 32 43 6 23 18 69 27 102 8 33 17 65 18 72 3 8 13 9 33 4 40
-12 82 8 115 56 33 47 35 98 8 151 -25 49 -57 64 -98 47z m52 -55 c12 -13 18
-36 18 -65 0 -36 -5 -50 -27 -70 -17 -15 -37 -25 -50 -23 -19 3 -21 9 -21 68
-1 54 3 69 22 88 27 27 35 27 58 2z"/>
<path d="M4382 7190 c-31 -19 -62 -66 -62 -95 0 -8 -4 -15 -10 -15 -5 0 -10
-9 -10 -20 0 -12 7 -20 16 -20 9 0 27 -9 41 -20 29 -23 103 -28 103 -7 1 7 6
5 14 -5 24 -33 44 -22 52 28 8 54 44 102 82 106 41 5 35 32 -9 36 -28 2 -42
-3 -67 -27 -18 -16 -35 -43 -38 -60 -8 -37 -8 -37 -59 -46 l-40 -7 33 34 c33
35 41 73 22 107 -15 28 -34 31 -68 11z m38 -53 c0 -17 -38 -52 -47 -44 -10 11
15 57 32 57 8 0 15 -6 15 -13z"/>
<path d="M1657 7183 c-2 -5 -12 -43 -22 -85 -14 -61 -15 -81 -6 -92 18 -21 41
-8 41 23 1 14 7 51 14 83 10 40 11 59 3 67 -13 13 -24 14 -30 4z"/>
<path d="M1875 7173 c-11 -2 -30 -6 -42 -9 -52 -10 -79 -76 -52 -126 35 -66
235 -78 247 -15 3 13 -4 17 -27 17 -16 0 -33 -5 -37 -11 -4 -7 -23 -8 -53 -4
-55 8 -77 19 -91 45 -8 16 -6 24 11 41 19 19 29 21 80 15 54 -5 59 -4 59 14 0
13 -10 24 -26 30 -26 10 -35 11 -69 3z"/>
<path d="M4641 7131 c-26 -26 -36 -84 -21 -120 15 -36 59 -57 88 -42 61 32 84
126 40 155 -43 26 -85 29 -107 7z m89 -60 c0 -10 -8 -29 -18 -42 -26 -31 -52
-20 -52 23 0 31 3 33 35 35 29 3 35 -1 35 -16z"/>
<path d="M3615 7130 c-3 -5 -2 -15 1 -24 5 -13 21 -16 80 -15 77 1 94 9 74 35
-9 10 -32 14 -82 13 -37 -1 -71 -5 -73 -9z"/>
<path d="M5287 7110 c-20 -16 -57 -88 -63 -120 0 -3 -6 -17 -14 -32 -15 -32
-7 -61 17 -56 10 2 26 32 45 83 34 94 41 103 63 81 27 -27 45 -20 45 18 0 26
-5 35 -22 40 -35 9 -43 7 -71 -14z"/>
<path d="M2210 7102 c-30 -24 -18 -45 19 -37 15 3 46 2 69 -3 30 -7 44 -6 51
2 16 19 -1 34 -49 45 -61 14 -64 14 -90 -7z"/>
<path d="M5486 7097 c-10 -8 -29 -12 -41 -9 -18 3 -23 -2 -28 -28 -4 -17 -16
-45 -28 -61 -22 -31 -20 -59 5 -59 8 0 29 20 45 44 17 25 43 54 58 66 35 27
45 12 37 -57 -6 -48 -5 -53 14 -53 21 0 32 33 32 94 0 63 -50 95 -94 63z"/>
<path d="M4832 3868 c-7 -7 -12 -19 -12 -27 0 -9 -7 -36 -16 -61 -10 -30 -12
-46 -5 -48 6 -2 11 -8 11 -13 0 -4 -6 -6 -14 -3 -26 10 -49 -99 -25 -123 13
-13 49 -5 49 11 0 6 -4 17 -9 25 -5 8 4 48 26 109 33 94 38 132 18 139 -6 2
-16 -2 -23 -9z"/>
<path d="M5403 3804 c-38 -16 -43 -42 -14 -68 23 -20 41 -14 41 14 0 21 40 37
60 25 15 -9 8 -25 -40 -89 -30 -40 -41 -62 -38 -83 3 -28 4 -28 71 -27 68 1
96 12 82 34 -5 9 -24 10 -62 6 -61 -7 -61 -8 -2 64 47 58 55 84 35 115 -13 20
-24 25 -59 24 -23 0 -57 -7 -74 -15z"/>
<path d="M5206 3575 c-7 -19 21 -32 42 -19 21 14 16 29 -11 32 -15 2 -27 -3
-31 -13z"/>
<path d="M4664 3569 c-8 -13 24 -41 41 -36 5 2 10 12 10 23 0 22 -39 32 -51
13z"/>
<path d="M6317 7603 c-4 -3 -7 -849 -7 -1878 0 -1633 -2 -1876 -15 -1902 -19
-38 -112 -84 -126 -62 -14 23 -10 39 10 39 26 0 48 27 33 42 -8 8 -23 9 -49 2
-35 -8 -38 -12 -41 -46 -2 -21 1 -45 7 -55 7 -13 4 -25 -11 -46 -22 -30 -26
-83 -10 -114 15 -27 75 -58 97 -49 15 5 17 15 12 74 -3 37 -7 75 -9 86 -2 13
10 24 50 41 l52 24 0 -125 0 -124 1297 0 1296 0 -56 -41 c-32 -22 -57 -43 -57
-47 0 -4 -16 -24 -34 -46 -56 -62 -81 -122 -81 -194 0 -59 2 -66 30 -88 49
-40 134 -24 222 42 32 24 32 24 38 3 12 -36 115 -67 115 -34 0 8 5 15 11 15 6
0 9 -7 5 -15 -7 -20 18 -20 34 0 18 22 7 28 -51 31 -72 3 -80 17 -22 39 26 10
54 22 61 28 20 16 14 55 -12 72 -30 20 -62 9 -109 -40 -31 -32 -37 -34 -61
-25 -35 13 -133 13 -141 0 -12 -20 17 -40 57 -40 34 0 39 -2 28 -14 -17 -21
-106 -49 -130 -41 -25 8 -43 50 -35 82 3 13 1 23 -5 23 -5 0 -10 7 -10 16 0
10 6 14 14 11 10 -4 18 2 22 16 23 75 146 196 215 212 l26 7 -13 -53 c-18 -69
-18 -98 1 -105 37 -15 90 76 82 143 l-5 43 187 0 c128 0 191 -4 199 -12 8 -8
15 -8 25 1 11 8 129 11 450 9 l435 -3 -28 -41 c-18 -28 -25 -46 -19 -55 12
-20 39 -1 70 52 l25 44 398 3 397 2 -31 -45 c-31 -45 -36 -75 -14 -82 15 -5
67 75 58 89 -4 7 -3 8 4 4 6 -3 16 3 22 14 11 21 17 21 243 20 128 -1 271 -2
320 -1 l87 1 0 2050 0 2050 -2773 0 c-1526 0 -2777 -3 -2780 -7z m5543 -2043
l0 -2040 -68 0 -69 0 5 30 c2 16 -3 48 -12 70 l-16 39 57 33 c76 45 86 63 51
92 -16 12 -28 28 -28 35 0 20 -70 4 -98 -23 -16 -15 -24 -36 -25 -67 -2 -29
-11 -56 -25 -74 -24 -30 -29 -83 -12 -116 10 -18 7 -19 -54 -19 -36 0 -67 3
-69 7 -6 9 42 109 96 202 40 68 45 106 14 106 -13 0 -23 -12 -32 -37 -7 -21
-31 -69 -54 -107 -22 -38 -41 -73 -41 -78 0 -5 -9 -25 -19 -45 -11 -19 -17
-39 -14 -42 4 -3 -39 -6 -95 -6 -56 0 -102 2 -102 4 0 19 16 36 34 36 41 0
122 48 141 84 19 36 17 51 -17 97 -9 13 -7 22 10 47 27 38 38 87 22 97 -18 11
-40 -17 -43 -52 -1 -17 -5 -29 -9 -27 -4 3 -12 -5 -18 -17 -10 -18 -18 -20
-48 -15 -33 5 -41 1 -80 -36 -65 -61 -79 -111 -41 -149 19 -19 19 -22 4 -45
l-15 -24 -395 0 -394 0 17 29 c14 25 20 28 40 20 53 -20 98 15 122 99 11 33
11 50 1 83 -12 40 -11 43 20 88 18 25 39 51 47 56 17 14 5 47 -16 43 -9 -2
-37 -33 -62 -70 -38 -55 -48 -64 -63 -56 -10 5 -28 6 -40 2 -34 -10 -76 -54
-70 -72 4 -10 2 -13 -5 -8 -26 16 -33 -63 -9 -109 13 -27 13 -31 -12 -66 l-26
-38 -437 -1 c-241 0 -438 3 -438 8 0 4 11 24 24 43 20 28 22 39 13 49 -9 10
-9 11 2 5 9 -5 19 -2 26 8 7 10 25 18 41 18 37 2 94 21 94 31 0 4 4 7 9 5 22
-6 51 47 51 92 0 48 -24 96 -42 85 -12 -8 12 32 65 104 29 40 36 57 28 65 -15
15 -41 -1 -61 -38 -8 -16 -24 -39 -35 -51 -11 -13 -26 -31 -34 -40 -13 -15
-15 -15 -23 0 -13 23 -25 20 -60 -11 -69 -64 -100 -142 -74 -190 14 -28 13
-31 -30 -98 -24 -37 -44 -72 -44 -76 0 -5 -697 -9 -1550 -9 l-1550 0 0 119 c0
66 5 132 10 147 8 19 8 30 0 38 -7 7 -10 606 -10 1893 l0 1883 2770 0 2770 0
0 -2040z m-2269 -1758 c-11 -17 -21 -33 -21 -36 0 -4 -9 -16 -20 -28 l-20 -22
0 28 c0 26 31 82 54 98 23 15 28 -12 7 -40z m95 3 c9 -36 -3 -73 -28 -86 -31
-17 -78 -29 -78 -20 0 13 82 131 91 131 5 0 11 -11 15 -25z m2079 -25 c-3 -5
-1 -10 4 -10 22 0 10 -16 -29 -37 -35 -19 -40 -19 -40 -5 0 25 12 40 40 51 32
13 32 13 25 1z m-1303 -80 c-39 -62 -52 -67 -52 -20 0 37 44 90 69 83 17 -4
16 -10 -17 -63z m74 -24 c-7 -37 -37 -69 -60 -64 -12 2 -7 16 21 62 37 61 50
61 39 2z m768 7 c-37 -68 -49 -79 -68 -64 -8 7 -12 20 -9 29 12 35 63 79 95
81 4 1 -4 -20 -18 -46z m-799 27 c3 -5 -1 -10 -10 -10 -9 0 -13 5 -10 10 3 6
8 10 10 10 2 0 7 -4 10 -10z m885 -27 c0 -20 -39 -63 -57 -63 -10 0 -10 6 -1
28 24 56 58 76 58 35z m-5220 -47 c0 -19 6 -36 13 -39 6 -2 9 -8 5 -12 -5 -5
-17 0 -28 10 -27 25 -26 75 2 75 4 0 8 -15 8 -34z m5520 -77 c0 -5 -6 -9 -14
-9 -16 0 -26 32 -19 61 5 19 7 18 19 -11 8 -18 14 -36 14 -41z m-2610 -323 c0
-2 -7 -7 -16 -10 -8 -3 -12 -2 -9 4 6 10 25 14 25 6z"/>
<path d="M7004 7437 c-23 -7 -50 -19 -60 -27 -10 -9 -15 -10 -10 -2 4 7 1 12
-9 12 -8 0 -20 -10 -25 -22 -7 -18 -9 -19 -9 -5 -1 18 -11 20 -60 11 -20 -4
-31 -12 -31 -23 0 -9 -4 -21 -9 -26 -4 -6 -18 -66 -31 -135 -12 -69 -26 -133
-31 -142 -24 -47 3 -110 34 -79 6 6 23 11 37 11 14 0 53 8 85 17 33 9 80 17
105 18 41 1 45 3 48 28 3 24 0 27 -25 27 -15 0 -60 -9 -98 -20 -85 -24 -150
-27 -142 -6 3 8 9 30 12 50 7 34 9 35 61 42 30 3 54 11 54 16 0 6 6 8 13 5 21
-8 41 9 33 28 -4 12 -13 15 -29 11 -12 -4 -33 -9 -47 -12 -14 -2 -35 -7 -48
-9 -19 -5 -23 -2 -18 12 3 10 10 45 15 77 6 33 12 60 13 61 2 1 42 9 90 18
116 23 163 39 163 57 0 19 -29 22 -81 7z"/>
<path d="M9669 7362 c-115 -74 -168 -199 -119 -280 40 -65 126 -74 193 -22 61
48 42 90 -40 90 -51 0 -54 -2 -51 -22 2 -18 11 -24 38 -28 l35 -5 -30 -12
c-58 -22 -63 -22 -89 2 -41 38 -44 72 -9 135 44 83 159 163 132 93 -12 -32 -4
-73 14 -73 8 0 24 11 36 24 20 21 22 32 18 73 -3 26 -6 49 -6 51 -1 1 -18 2
-39 2 -25 0 -54 -10 -83 -28z"/>
<path d="M9045 7328 c-2 -7 -10 -44 -18 -83 -18 -79 -43 -145 -56 -145 -12 0
-41 74 -41 104 0 33 -23 50 -48 37 -23 -12 -62 -71 -62 -92 0 -8 -12 -32 -26
-53 -19 -28 -23 -41 -15 -49 23 -23 51 8 87 98 11 26 18 35 21 25 18 -51 45
-99 59 -104 27 -11 50 -7 66 12 23 26 78 200 78 247 0 18 -39 20 -45 3z"/>
<path d="M8580 7321 c-26 -4 -35 -11 -35 -26 0 -18 6 -20 48 -17 44 4 48 2 44
-15 -3 -10 -16 -51 -27 -91 -22 -71 -21 -102 0 -102 13 0 23 23 55 133 27 88
27 88 58 86 52 -3 67 0 67 15 0 8 -7 17 -16 20 -19 7 -146 6 -194 -3z"/>
<path d="M7453 7313 c-7 -2 -13 -14 -13 -25 0 -14 6 -19 23 -16 14 2 22 10 22
22 0 21 -12 28 -32 19z"/>
<path d="M8394 7296 c-28 -13 -55 -29 -59 -36 -13 -22 5 -59 44 -87 35 -25 79
-80 69 -87 -33 -29 -88 -34 -88 -8 0 10 -5 23 -12 30 -25 25 -51 -31 -30 -65
25 -39 114 -32 159 13 23 23 23 25 8 61 -8 21 -36 57 -62 79 l-47 42 34 17
c27 14 37 15 56 5 24 -13 54 -8 54 10 0 9 -57 50 -70 50 -3 0 -28 -11 -56 -24z"/>
<path d="M7209 7227 c-23 -11 -49 -33 -58 -49 -9 -15 -21 -28 -28 -28 -17 0
-20 -7 -37 -100 -8 -47 -18 -100 -22 -117 -6 -29 -4 -33 14 -33 17 0 25 13 44
73 21 66 25 72 48 69 34 -3 83 29 120 79 32 45 38 76 18 101 -21 25 -55 27
-99 5z m61 -46 c0 -25 -62 -91 -84 -91 -11 0 -14 4 -9 13 4 6 6 19 5 28 -3 18
51 69 74 69 8 0 14 -9 14 -19z"/>
<path d="M7570 7180 c-103 -54 -58 -160 67 -160 53 0 113 27 113 52 0 22 -12
22 -68 3 -49 -17 -99 -9 -116 19 -17 27 27 59 70 51 24 -4 33 -2 38 12 8 21
-18 43 -48 43 -12 -1 -37 -9 -56 -20z"/>
<path d="M7388 7173 c-28 -32 -39 -62 -32 -88 9 -37 32 -30 44 14 5 21 17 44
25 51 12 10 13 16 4 26 -15 18 -23 18 -41 -3z"/>
<path d="M9843 7170 c-18 -11 -33 -27 -33 -35 0 -8 -4 -15 -10 -15 -25 0 -7
-40 26 -59 30 -18 39 -19 52 -9 12 10 14 10 8 1 -7 -13 15 -19 27 -7 11 11 -5
34 -24 34 -28 0 -23 13 11 33 31 19 38 45 18 65 -17 17 -38 15 -75 -8z"/>
<path d="M9248 7170 c-55 -10 -68 -16 -68 -35 0 -20 18 -22 85 -10 71 14 85
20 85 41 0 16 -26 17 -102 4z"/>
<path d="M10023 7165 c-11 -8 -28 -35 -36 -59 -13 -38 -13 -47 -2 -56 20 -17
33 -5 45 41 10 37 14 40 36 35 29 -8 43 16 24 39 -16 19 -40 19 -67 0z"/>
<path d="M10681 7165 c-18 -8 -41 -15 -50 -15 -11 0 -25 -19 -39 -52 -19 -44
-20 -54 -8 -66 11 -12 15 -12 24 0 55 66 76 88 94 94 29 9 35 -7 32 -79 -2
-59 -1 -62 21 -63 31 -2 34 8 26 95 -5 55 -12 77 -26 87 -23 17 -31 17 -74 -1z"/>
<path d="M10152 7138 c-45 -34 -61 -63 -44 -80 8 -8 19 -6 36 6 14 9 32 16 40
16 9 0 30 9 47 19 36 22 59 18 59 -10 0 -10 9 -23 20 -29 45 -24 34 58 -12 93
-21 16 -29 17 -48 7 -16 -9 -25 -9 -33 -1 -16 16 -19 15 -65 -21z"/>
<path d="M10426 7139 c-14 -17 -26 -41 -26 -54 0 -27 24 -50 44 -42 10 4 16
-2 18 -16 5 -35 32 -26 42 14 12 51 2 73 -29 65 -34 -9 -32 0 5 19 19 10 27
20 24 30 -10 25 -50 17 -78 -16z"/>
<path d="M8000 7120 c0 -19 14 -25 50 -22 8 1 28 -4 43 -10 39 -15 58 3 32 32
-14 15 -31 20 -72 20 -46 0 -53 -2 -53 -20z"/>
<path d="M9838 3869 c-25 -13 -38 -26 -38 -40 0 -22 18 -20 74 8 19 10 32 11
38 5 16 -16 -18 -53 -104 -117 -65 -48 -78 -62 -78 -86 0 -48 48 -62 115 -33
34 14 36 17 23 31 -12 12 -23 13 -52 5 -20 -6 -36 -7 -36 -3 0 8 72 69 111 94
29 19 63 63 73 94 9 29 -25 63 -61 63 -16 -1 -45 -10 -65 -21z"/>
<path d="M10267 3763 c-37 -65 -77 -146 -77 -159 0 -1 7 -10 16 -19 12 -12 19
-13 29 -5 8 6 12 17 9 25 -6 15 21 70 72 151 28 44 33 58 23 70 -6 8 -15 14
-19 14 -4 0 -28 -35 -53 -77z"/>
<path d="M11015 3830 c-3 -5 -14 -10 -24 -10 -10 0 -34 -16 -54 -36 -30 -30
-34 -40 -26 -55 14 -27 23 -24 52 15 25 32 87 65 87 46 0 -43 -61 -117 -137
-166 -35 -23 -53 -40 -51 -51 5 -26 22 -25 62 2 43 29 67 31 107 8 22 -13 31
-15 41 -5 9 9 6 17 -12 37 -13 14 -30 25 -38 25 -9 0 -4 12 16 34 42 48 67
118 53 145 -12 22 -64 30 -76 11z"/>
<path d="M9870 3662 c0 -5 9 -12 21 -15 13 -3 19 -1 16 6 -5 15 -37 22 -37 9z"/>
<path d="M10645 3650 c-8 -13 13 -40 30 -40 18 0 26 25 12 39 -14 14 -34 14
-42 1z"/>
<path d="M10013 3633 c-15 -5 -17 -39 -4 -47 15 -9 61 18 61 37 0 17 -28 22
-57 10z"/>
<path d="M5995 3828 c-16 -54 -36 -124 -51 -183 -9 -38 -24 -83 -31 -99 -20
-38 -2 -58 27 -31 21 19 57 122 46 132 -3 4 -1 12 4 19 6 6 12 28 14 46 2 19
6 40 10 47 4 6 4 11 1 11 -4 0 1 7 9 16 12 12 13 20 6 35 -12 22 -29 25 -35 7z"/>
<path d="M7245 3408 c-2 -7 -9 -33 -15 -58 -6 -25 -27 -94 -47 -153 -19 -59
-33 -117 -30 -127 5 -19 -5 -20 -421 -23 -235 -1 824 -2 2353 -2 1529 0 2328
1 1776 2 l-1004 3 25 23 c57 52 119 93 103 67 -21 -34 72 -83 115 -60 11 6 20
13 20 16 0 16 -32 34 -59 34 -29 0 -31 3 -31 34 0 47 -23 53 -72 21 -45 -30
-58 -27 -39 9 8 13 10 29 7 35 -13 21 -34 11 -45 -21 -7 -18 -23 -54 -37 -79
-13 -26 -24 -54 -24 -63 0 -15 -99 -16 -1111 -16 -956 0 -1110 2 -1100 14 18
21 -2 29 -75 30 -74 1 -92 14 -78 52 7 21 17 27 47 30 77 7 106 35 93 90 -8
31 -35 31 -84 0 -100 -63 -132 -143 -76 -193 l25 -23 -56 0 c-46 0 -60 4 -74
21 -14 18 -27 21 -74 20 -31 0 -57 2 -57 5 0 4 18 63 39 133 48 152 53 184 28
189 -9 2 -19 -2 -22 -10z"/>
<path d="M4621 3376 c-9 -11 -8 -18 4 -30 9 -9 21 -16 26 -16 16 0 22 29 9 45
-15 19 -24 19 -39 1z"/>
<path d="M6550 3365 c-6 -8 -9 -23 -5 -35 4 -11 0 -39 -9 -63 -20 -55 -28
-128 -17 -146 17 -27 41 -4 41 39 0 22 12 74 26 115 21 61 24 78 14 90 -16 19
-34 19 -50 0z"/>
<path d="M8106 3284 c-22 -13 -30 -13 -36 -4 -5 7 -15 10 -23 7 -16 -6 -74
-105 -69 -119 1 -4 -2 -8 -6 -8 -5 0 -14 -12 -21 -26 -11 -25 -2 -54 18 -54 4
0 27 27 52 61 37 51 99 111 99 96 0 -2 -7 -24 -15 -47 -8 -23 -15 -55 -15 -70
0 -35 31 -64 59 -55 27 8 27 35 0 42 -11 3 -18 11 -16 17 2 6 12 41 22 78 14
55 15 70 5 83 -15 18 -18 18 -54 -1z"/>
<path d="M7873 3258 c-25 -28 -52 -100 -55 -148 -2 -25 1 -35 14 -38 18 -4 48
51 46 85 0 10 5 31 11 47 11 27 13 28 30 12 26 -24 46 0 31 38 -12 33 -49 35
-77 4z"/>
<path d="M2067 3225 c-58 -56 -61 -122 -7 -150 55 -29 130 -15 116 21 -6 16
-8 16 -16 4 -6 -8 -10 -10 -10 -4 0 6 -10 9 -22 7 -13 -2 -32 3 -43 11 -19 14
-19 15 -2 16 31 0 75 32 88 62 10 24 9 32 -6 48 -26 29 -57 24 -98 -15z m46
-37 c-13 -12 -25 -19 -28 -16 -3 3 1 13 10 22 9 9 22 16 28 16 6 0 2 -10 -10
-22z"/>
<path d="M3825 3248 c-34 -19 -44 -41 -45 -90 0 -40 4 -50 31 -72 25 -21 41
-26 89 -26 67 0 90 7 90 25 0 22 -13 25 -68 16 -45 -7 -54 -5 -79 15 l-28 23
27 1 c32 0 98 54 98 79 0 9 -5 22 -12 29 -15 15 -77 15 -103 0z m46 -48 c-26
-22 -41 -25 -41 -10 0 6 10 15 23 20 36 14 44 11 18 -10z"/>
<path d="M9255 3250 c-46 -21 -66 -47 -80 -105 -9 -40 -10 -64 -4 -72 18 -21
35 -4 48 46 17 66 36 91 71 91 30 0 48 16 34 30 -16 14 -48 19 -69 10z"/>
<path d="M4073 3242 c-45 -7 -84 -88 -69 -147 7 -26 34 -34 41 -12 2 6 6 33
10 59 7 54 29 67 80 48 38 -14 56 2 31 29 -18 20 -54 29 -93 23z"/>
<path d="M9432 3225 c-20 -17 -32 -21 -40 -13 -16 16 -31 0 -38 -42 -4 -22
-13 -45 -20 -51 -8 -6 -14 -20 -14 -30 0 -36 35 -19 78 37 42 54 65 68 42 24
-12 -22 -7 -50 9 -50 5 0 31 18 57 40 27 22 52 40 56 40 5 0 6 -17 2 -37 -3
-25 -1 -44 9 -57 18 -24 37 -13 37 21 0 26 0 26 20 8 17 -16 25 -17 56 -7 33
10 39 9 54 -10 21 -26 44 -15 36 17 -3 12 -1 36 5 53 28 81 -74 110 -138 40
-18 -20 -18 -20 -23 8 -7 40 -33 41 -82 2 -31 -24 -40 -28 -35 -14 8 20 -8 46
-28 46 -8 0 -27 -11 -43 -25z m297 -41 c-7 -8 -25 -22 -41 -30 -25 -13 -28
-13 -28 0 0 18 38 46 63 46 17 0 17 -2 6 -16z"/>
<path d="M7658 3223 c-39 -45 -50 -101 -23 -123 14 -12 30 -11 66 4 11 5 18 1
22 -13 5 -19 37 -30 37 -13 1 4 3 33 5 65 4 48 2 59 -13 64 -9 4 -21 12 -25
20 -11 19 -51 16 -69 -4z m40 -55 c-22 -33 -41 -36 -27 -4 7 14 19 26 27 26
13 0 13 -3 0 -22z"/>
<path d="M4279 3207 c-61 -41 -63 -115 -2 -138 40 -15 138 -8 138 11 0 11 -15
16 -55 20 -64 6 -80 14 -80 39 0 33 46 54 101 47 53 -7 75 8 44 31 -30 21
-107 16 -146 -10z"/>
<path d="M2251 3201 c-18 -14 -25 -31 -29 -70 -4 -47 -3 -51 16 -51 24 0 46
34 38 57 -10 25 12 43 45 36 21 -4 30 -1 35 12 14 36 -63 48 -105 16z"/>
<path d="M6636 3154 c-20 -20 -20 -33 0 -41 20 -8 49 21 41 41 -8 20 -21 20
-41 0z"/>
<path d="M723 3133 c-7 -3 -13 -13 -13 -24 0 -23 35 -26 43 -5 7 17 -13 35
-30 29z"/>
<path d="M1652 2553 c762 -2 2013 -2 2780 0 766 1 142 2 -1387 2 -1529 0
-2156 -1 -1393 -2z"/>
<path d="M7692 2553 c762 -2 2013 -2 2780 0 766 1 142 2 -1387 2 -1529 0
-2156 -1 -1393 -2z"/>
<path d="M1652 2063 c762 -2 2013 -2 2780 0 766 1 142 2 -1387 2 -1529 0
-2156 -1 -1393 -2z"/>
<path d="M7702 2063 c764 -2 2012 -2 2775 0 764 1 139 2 -1387 2 -1526 0
-2151 -1 -1388 -2z"/>
<path d="M1652 1063 c762 -2 2013 -2 2780 0 766 1 142 2 -1387 2 -1529 0
-2156 -1 -1393 -2z"/>
<path d="M7692 1063 c762 -2 2013 -2 2780 0 766 1 142 2 -1387 2 -1529 0
-2156 -1 -1393 -2z"/>
<path d="M1652 563 c762 -2 2013 -2 2780 0 766 1 142 2 -1387 2 -1529 0 -2156
-1 -1393 -2z"/>
<path d="M7692 563 c762 -2 2013 -2 2780 0 766 1 142 2 -1387 2 -1529 0 -2156
-1 -1393 -2z"/>
</g>
</svg>
