<?xml version="1.0" standalone="no"?>
<!DOCTYPE svg PUBLIC "-//W3C//DTD SVG 20010904//EN"
 "http://www.w3.org/TR/2001/REC-SVG-20010904/DTD/svg10.dtd">
<svg version="1.0" xmlns="http://www.w3.org/2000/svg"
 width="1214.000000pt" height="1618.000000pt" viewBox="0 0 1214.000000 1618.000000"
 preserveAspectRatio="xMidYMid meet">

<g transform="translate(0.000000,1618.000000) scale(0.100000,-0.100000)"
fill="#000000" stroke="none">
<path d="M260 13490 l0 -2050 2780 0 2780 0 0 1739 0 1740 23 3 c27 4 30 33 2
33 -19 0 -20 8 -23 293 l-2 292 -2780 0 -2780 0 0 -2050z m5550 1755 l0 -285
-31 0 -31 0 7 60 c6 52 5 61 -10 67 -22 8 -46 -7 -61 -36 -22 -43 -34 -48 -34
-14 0 41 -23 60 -53 44 -34 -18 -53 -51 -35 -62 10 -7 10 -9 -3 -9 -9 0 -21
11 -27 25 -12 26 -37 34 -45 13 -2 -7 1 -23 6 -35 7 -16 7 -31 -2 -50 -10 -21
-9 -29 2 -41 13 -12 18 -10 41 15 15 15 37 44 49 63 l22 35 3 -52 c5 -80 42
-75 87 11 l16 31 -6 -29 c-9 -42 17 -74 65 -82 l40 -7 0 -1728 0 -1729 -2770
0 -2770 0 0 2040 0 2040 2770 0 2770 0 0 -285z"/>
<path d="M5037 15283 c-4 -3 -7 -39 -7 -79 0 -39 -7 -106 -16 -149 -9 -42 -13
-83 -10 -91 9 -24 36 -16 54 17 32 59 54 82 63 67 5 -7 9 -27 9 -44 0 -37 22
-70 40 -59 9 5 10 22 6 57 -12 90 -41 122 -86 98 -21 -11 -21 -10 -14 61 5 56
4 70 -5 64 -8 -5 -7 3 3 23 8 16 12 32 9 36 -8 8 -38 8 -46 -1z"/>
<path d="M4337 15270 c-49 -9 -87 -30 -87 -47 0 -19 27 -28 44 -14 7 6 34 14
59 17 59 8 79 -5 67 -45 -19 -67 -58 -104 -123 -116 -35 -7 -37 -6 -37 20 0
35 -17 65 -36 65 -20 0 -64 -40 -64 -59 0 -8 12 -27 26 -43 26 -26 27 -29 15
-84 -14 -74 -14 -74 9 -74 20 0 40 49 40 103 0 23 4 27 30 27 21 0 28 -4 24
-14 -4 -10 18 -37 57 -74 l63 -59 -53 -97 c-29 -54 -50 -104 -47 -112 10 -25
35 -15 50 20 25 59 138 259 176 311 36 50 41 75 14 75 -12 0 -74 -77 -110
-136 -9 -15 -17 -11 -68 38 l-58 55 31 13 c65 27 122 125 107 185 -6 24 -58
58 -83 54 -4 -1 -25 -5 -46 -9z"/>
<path d="M1455 15239 c-47 -14 -205 -38 -219 -33 -6 2 -20 -2 -30 -9 -16 -12
-17 -16 -5 -34 11 -18 8 -41 -20 -154 -30 -122 -31 -134 -16 -145 9 -7 17 -16
18 -21 2 -8 60 -10 82 -4 27 9 75 0 75 -13 0 -21 15 -28 45 -20 31 8 32 22 0
53 -23 21 -32 23 -106 19 l-81 -3 7 40 c3 22 10 44 15 49 5 5 43 11 84 14 77
5 93 16 61 42 -10 8 -33 10 -76 5 -57 -7 -61 -6 -55 11 3 11 8 31 11 47 3 15
7 38 10 52 4 18 13 25 38 29 154 26 220 40 232 53 30 30 -6 41 -70 22z"/>
<path d="M3410 15234 c-41 -7 -99 -13 -127 -13 -39 -1 -53 -5 -53 -15 0 -22
18 -29 67 -28 l43 0 -4 -46 c-17 -158 -17 -182 0 -189 24 -9 31 10 38 111 11
138 8 133 77 140 40 5 62 12 66 23 5 13 -13 35 -27 32 -3 -1 -39 -7 -80 -15z"/>
<path d="M3050 15213 c-31 -12 -70 -57 -70 -82 0 -17 21 -52 60 -99 63 -77 71
-96 44 -106 -31 -12 -54 -6 -70 19 -21 32 -44 32 -44 2 0 -57 89 -89 144 -53
51 33 41 76 -39 166 -61 69 -59 98 8 114 17 4 27 2 27 -5 0 -5 10 -9 23 -7 16
2 22 10 22 28 0 23 -4 25 -45 27 -25 1 -52 -1 -60 -4z"/>
<path d="M3707 15213 c-3 -5 -8 -35 -12 -68 -9 -74 -41 -179 -58 -194 -17 -13
-26 2 -65 109 -22 59 -32 76 -49 78 -24 4 -45 -28 -58 -88 -4 -19 -14 -55 -22
-79 -13 -38 -13 -45 0 -58 13 -14 17 -13 30 8 8 13 18 40 20 59 3 19 10 49 15
65 l9 30 15 -35 c8 -19 20 -51 27 -71 15 -48 53 -83 80 -74 21 6 67 72 58 82
-3 3 0 11 7 18 14 15 50 201 41 215 -7 12 -32 13 -38 3z"/>
<path d="M4823 15210 c-81 -19 -142 -102 -143 -192 0 -82 63 -131 168 -129 82
2 111 13 91 37 -8 10 -25 12 -64 8 -91 -11 -155 25 -155 86 1 43 36 106 72
128 23 14 52 22 80 22 46 0 76 19 63 40 -7 11 -64 12 -112 0z"/>
<path d="M1865 15114 c-19 -19 -10 -32 25 -36 31 -4 39 26 11 41 -15 9 -23 7
-36 -5z"/>
<path d="M5344 15109 c-57 -16 -100 -106 -78 -164 11 -26 56 -43 120 -44 66 0
90 9 81 32 -4 11 -18 14 -62 10 -41 -3 -63 0 -81 12 -26 17 -32 45 -10 45 8 0
17 6 19 13 4 10 6 10 6 0 1 -19 19 -16 52 8 35 25 40 72 10 89 -11 5 -21 10
-23 9 -2 0 -17 -5 -34 -10z m22 -54 c-26 -19 -42 -19 -26 0 7 8 20 15 29 15
13 -1 13 -3 -3 -15z"/>
<path d="M1609 15056 c-13 -7 -23 -18 -22 -24 2 -6 -4 -9 -11 -6 -9 3 -17 -3
-21 -16 -4 -11 -18 -28 -31 -37 -18 -11 -24 -22 -20 -37 5 -20 -9 -114 -34
-224 -8 -37 -9 -57 -2 -64 23 -23 48 19 57 95 9 75 35 189 49 216 20 37 53 64
71 58 42 -17 -11 -149 -58 -144 -16 1 -23 -4 -25 -20 -4 -29 31 -40 63 -19 23
15 72 76 60 76 -3 0 2 11 11 25 41 62 -25 153 -87 121z"/>
<path d="M3929 15065 c-3 -2 -38 -9 -79 -16 -83 -12 -93 -17 -80 -39 7 -12 21
-12 91 -2 82 12 118 29 105 51 -7 11 -29 15 -37 6z"/>
<path d="M2048 14994 c-88 -27 -115 -100 -56 -149 29 -25 37 -27 105 -23 47 2
77 8 82 17 5 7 12 11 17 9 5 -1 10 7 12 20 2 12 -1 22 -7 22 -6 0 -11 -3 -11
-7 0 -9 -46 -16 -112 -17 -51 -1 -83 19 -73 46 8 20 69 48 105 48 36 0 49 19
25 37 -23 16 -27 16 -87 -3z"/>
<path d="M2596 14969 c-78 -21 -96 -33 -79 -50 9 -9 26 -9 70 1 32 7 73 15 91
17 35 6 45 36 16 47 -18 7 -11 8 -98 -15z"/>
<path d="M1779 14947 c-21 -35 -25 -72 -9 -82 12 -8 42 13 35 24 -2 4 5 22 16
40 11 18 17 36 14 39 -16 16 -38 7 -56 -21z"/>
<path d="M3620 12064 c-18 -41 -33 -81 -33 -88 0 -8 -11 -11 -29 -8 -15 2 -34
0 -41 -6 -6 -5 -29 -15 -49 -21 -65 -21 -88 -46 -88 -97 0 -51 20 -96 52 -118
l22 -16 -36 -67 c-49 -94 -64 -143 -47 -154 15 -9 39 7 39 25 0 7 18 49 40 94
36 76 41 82 70 82 46 0 92 23 129 65 29 33 32 43 28 77 -3 21 -17 54 -31 73
-14 18 -26 38 -26 44 0 6 18 49 39 95 21 47 36 87 33 90 -3 3 -13 6 -22 6 -12
0 -28 -24 -50 -76z m-60 -140 c0 -5 -79 -166 -84 -171 -1 -1 -13 8 -27 20 -30
27 -37 78 -14 100 9 9 34 21 55 27 22 6 40 15 40 20 0 6 7 10 15 10 8 0 15 -2
15 -6z m73 -100 c0 -34 -52 -84 -88 -84 l-24 0 20 46 c10 26 27 60 36 75 17
29 18 29 36 10 11 -10 20 -32 20 -47z"/>
<path d="M4555 12073 c-3 -15 -17 -51 -30 -80 l-24 -51 -36 11 c-33 10 -38 9
-61 -16 -58 -62 -71 -151 -29 -193 24 -24 24 -26 10 -54 -9 -17 -16 -33 -16
-37 -1 -5 -4 -13 -6 -20 -8 -20 1 -48 16 -48 7 0 19 16 26 35 31 86 31 87 76
93 77 10 124 67 103 125 -7 19 -16 26 -29 24 -16 -3 -17 -1 -8 8 8 9 9 17 1
30 -8 13 -5 29 15 71 14 30 28 71 32 92 6 33 5 37 -13 37 -13 0 -22 -9 -27
-27z m-82 -170 c8 -13 -46 -133 -59 -133 -23 0 -26 40 -8 90 14 40 23 50 40
50 13 0 25 -3 27 -7z m65 -98 c-2 -22 -10 -32 -30 -39 -15 -5 -30 -7 -33 -4
-3 2 5 29 17 58 20 48 23 51 35 34 8 -11 13 -32 11 -49z"/>
<path d="M5191 12078 c-5 -13 -14 -45 -20 -73 -10 -40 -22 -58 -61 -92 -62
-55 -85 -113 -63 -163 11 -28 11 -40 1 -65 -6 -16 -14 -32 -18 -35 -11 -10
-30 -62 -30 -84 0 -32 23 -51 39 -32 6 7 9 20 6 28 -3 8 8 40 25 71 17 31 27
57 23 57 -22 1 26 20 49 20 16 0 41 12 59 28 41 37 45 83 13 139 -20 35 -22
46 -13 70 7 19 7 29 0 31 -6 2 -11 8 -11 13 0 4 6 6 14 3 13 -5 22 21 29 81 3
29 -31 32 -42 3z m-82 -255 c-24 -56 -29 -63 -29 -37 0 18 35 84 44 84 3 0 -4
-21 -15 -47z m78 -25 c-6 -22 -44 -54 -53 -45 -2 2 6 28 18 57 19 47 23 51 31
32 5 -11 7 -31 4 -44z"/>
<path d="M3815 11968 c-32 -18 -65 -50 -65 -65 0 -26 30 -26 55 0 14 13 37 27
50 29 21 4 25 1 25 -17 0 -27 -63 -111 -90 -120 -23 -7 -60 -56 -60 -79 0 -29
30 -30 59 -2 l28 27 7 -25 c7 -27 43 -43 71 -32 23 8 18 34 -7 38 -13 2 -25
14 -30 30 -8 23 -4 34 26 74 64 83 58 154 -12 154 -20 0 -46 -6 -57 -12z"/>
<path d="M4892 11963 c-45 -22 -95 -70 -90 -85 7 -21 57 -22 65 -1 8 24 44 53
67 53 40 0 -4 -78 -88 -159 -20 -19 -36 -41 -36 -47 0 -23 20 -25 49 -5 l28
20 31 -34 c32 -37 59 -45 68 -21 3 8 -11 30 -35 52 l-40 38 25 29 c32 38 64
101 64 126 0 26 -26 51 -53 51 -12 0 -37 -8 -55 -17z"/>
<path d="M5382 11967 c-6 -7 -20 -53 -31 -102 -11 -50 -27 -109 -35 -132 -12
-33 -12 -44 -2 -52 9 -8 17 -7 28 2 16 13 82 273 72 288 -7 13 -20 11 -32 -4z"/>
<path d="M4287 11964 c-4 -4 -7 -20 -7 -36 0 -15 -16 -67 -36 -114 -35 -85
-35 -115 -2 -101 18 7 91 198 86 228 -3 23 -27 37 -41 23z"/>
<path d="M5507 11955 c-14 -13 -13 -22 3 -76 l19 -62 -24 -29 c-19 -22 -25
-41 -25 -75 0 -95 60 -155 103 -102 17 21 19 34 14 104 l-6 80 41 30 c55 41
75 76 62 112 -9 27 -12 28 -91 31 -61 1 -85 -2 -96 -13z m133 -45 c11 -7 7
-15 -19 -39 -19 -18 -38 -30 -44 -28 -13 4 -38 73 -29 81 7 7 70 -3 92 -14z
m-84 -255 c-9 -25 -24 -9 -31 34 -4 25 -2 48 6 63 13 22 14 20 23 -29 5 -28 6
-59 2 -68z"/>
<path d="M4007 11803 c-11 -10 -8 -41 3 -48 15 -9 40 14 40 36 0 19 -29 27
-43 12z"/>
<path d="M4590 11742 c-15 -12 -21 -25 -17 -35 8 -22 19 -21 46 4 38 36 12 64
-29 31z"/>
<path d="M6310 13496 c0 -1211 4 -2047 9 -2050 5 -3 649 -6 1432 -6 1331 0
1424 -1 1442 -17 18 -17 19 -17 29 0 9 17 41 18 516 17 279 0 873 -1 1320 0
l812 0 0 1830 c0 1526 2 1830 13 1830 8 0 22 9 32 20 18 20 18 21 -1 14 -19
-7 -19 -7 0 14 19 22 19 22 -2 22 -12 0 -22 -4 -22 -10 0 -5 -4 -10 -10 -10
-6 0 -10 72 -10 195 l0 195 -2780 0 -2780 0 0 -2044z m5550 1842 l0 -193 -41
-19 c-41 -20 -68 -58 -62 -87 5 -19 44 -39 78 -39 l25 0 0 -1775 0 -1775 -805
0 c-683 0 -805 2 -805 14 0 8 16 46 37 85 35 68 38 71 72 71 20 0 51 9 69 20
27 17 32 26 32 57 0 21 -10 53 -21 72 -19 31 -20 39 -8 75 7 23 14 46 15 51 1
6 10 27 19 49 17 40 9 64 -18 53 -11 -4 -48 -106 -51 -139 -2 -18 -37 -47 -51
-42 -28 11 -63 -6 -84 -40 -27 -43 -27 -93 0 -122 l22 -23 -28 -48 c-16 -26
-34 -66 -40 -88 l-12 -40 -487 -3 c-320 -1 -486 1 -486 8 0 5 21 39 47 75 42
59 50 65 82 65 47 0 115 34 129 65 13 27 8 46 -20 87 -19 27 -19 28 7 70 14
24 39 62 56 85 30 40 32 63 4 63 -7 0 -39 -38 -71 -85 -32 -47 -61 -85 -65
-85 -5 0 -17 10 -29 22 l-20 22 -25 -24 c-54 -51 -84 -157 -53 -188 8 -8 -1
-30 -40 -88 -29 -42 -52 -80 -52 -85 0 -5 -210 -9 -505 -9 -475 0 -505 1 -502
18 1 9 27 54 56 100 44 68 57 82 79 82 37 1 100 32 140 68 41 40 44 87 6 132
l-26 31 38 57 c47 69 72 123 67 140 -9 25 -33 11 -55 -32 -13 -24 -36 -66 -52
-93 -29 -47 -30 -48 -80 -48 -105 0 -176 -68 -161 -155 4 -21 17 -49 30 -62
l24 -24 -48 -75 c-26 -41 -52 -88 -58 -104 l-10 -30 -901 -3 -902 -2 0 2040 0
2040 2770 0 2770 0 0 -192z m-4 -295 c-3 -3 -18 -2 -33 2 l-28 7 30 24 30 24
3 -26 c2 -14 1 -28 -2 -31z m-3517 -3235 c-17 -29 -40 -66 -51 -81 -19 -27
-21 -27 -39 -11 -19 17 -25 66 -13 99 9 22 59 44 101 45 l32 0 -30 -52z m101
-27 c0 -9 -9 -24 -20 -34 -25 -21 -92 -58 -97 -53 -2 2 14 32 36 66 23 35 41
68 41 74 1 18 40 -35 40 -53z m1893 -56 c-25 -50 -29 -54 -40 -39 -7 10 -13
23 -13 30 0 21 41 64 61 64 18 0 17 -4 -8 -55z m-958 34 c4 -5 0 -18 -8 -27
-8 -9 -12 -23 -10 -29 3 -7 -2 -13 -11 -13 -9 0 -16 -7 -16 -15 0 -8 -7 -15
-15 -15 -21 0 -19 37 6 76 21 34 42 43 54 23z m1045 -55 c0 -15 -38 -44 -57
-44 -9 0 -6 14 9 46 20 40 24 43 35 28 7 -10 13 -23 13 -30z m-972 -21 c-13
-16 -68 -43 -88 -43 -7 0 -7 5 2 13 7 7 24 29 37 49 24 34 25 34 43 16 16 -16
17 -22 6 -35z"/>
<path d="M10874 15367 c-81 -36 -70 -80 50 -198 42 -40 76 -79 76 -85 0 -19
-58 -37 -101 -31 -46 6 -69 22 -69 48 0 27 -36 25 -43 -3 -14 -51 44 -88 135
-88 72 1 122 26 126 64 3 24 -10 42 -87 121 -50 51 -91 99 -91 107 0 14 56 46
64 37 1 -2 13 -19 25 -36 24 -35 55 -43 65 -17 6 15 -30 92 -43 95 -30 7 -70
2 -107 -14z"/>
<path d="M6702 15253 l-103 -35 7 -32 c4 -17 6 -60 5 -96 -3 -62 -3 -126 0
-198 0 -19 7 -36 15 -39 8 -3 53 4 100 16 47 12 89 19 93 17 4 -3 17 1 27 9
17 12 18 15 3 30 -10 11 -24 13 -47 9 -17 -4 -30 -9 -28 -13 2 -3 -8 -6 -22
-7 -15 0 -44 -4 -64 -8 l-38 -8 0 50 0 49 53 22 c28 12 71 25 95 28 45 6 55
25 22 43 -15 8 -36 5 -90 -13 l-70 -23 0 53 c0 30 -4 52 -9 49 -5 -4 -7 3 -4
13 4 14 31 29 101 53 65 22 97 38 97 48 0 25 -34 21 -143 -17z"/>
<path d="M10413 15269 c-7 -7 -9 -25 -6 -40 5 -26 3 -29 -20 -29 -35 0 -76
-35 -60 -51 9 -9 19 -9 44 0 18 6 33 10 34 9 1 -2 6 -30 11 -63 7 -45 13 -59
24 -57 11 2 11 -1 -2 -11 -23 -18 -23 -47 0 -47 28 0 43 33 32 72 -6 18 -10
51 -10 74 l0 41 62 7 c66 6 85 16 73 36 -6 9 -28 11 -77 7 -60 -5 -69 -4 -64
9 6 16 -9 54 -22 54 -5 0 -13 -5 -19 -11z"/>
<path d="M9766 15251 c-11 -18 1 -28 38 -33 19 -2 33 -1 30 3 -2 4 0 10 6 14
14 8 13 -18 -1 -32 -9 -9 -8 -16 5 -28 19 -20 23 -174 5 -192 -22 -22 -2 -43
40 -43 105 0 201 81 201 169 0 44 -49 96 -117 121 -66 25 -197 38 -207 21z
m196 -65 c59 -22 92 -60 83 -96 -9 -35 -55 -79 -101 -95 -35 -12 -40 -11 -45
3 -3 9 -1 28 4 43 7 18 7 49 0 95 -10 66 -8 97 6 77 3 -5 27 -17 53 -27z"/>
<path d="M11325 15250 c-3 -6 -3 -20 0 -33 7 -22 7 -22 -9 -2 -12 16 -15 17
-16 5 0 -19 19 -40 36 -40 6 0 19 12 29 26 13 20 14 28 4 40 -13 16 -35 18
-44 4z"/>
<path d="M9177 15244 c-4 -4 -7 -41 -7 -83 0 -73 -12 -146 -24 -159 -8 -8 -74
56 -91 89 -19 35 -61 62 -85 54 -18 -6 -20 -16 -20 -96 0 -87 0 -89 24 -89 26
0 40 22 25 37 -6 6 -9 30 -7 53 l3 43 40 -53 c48 -64 106 -100 132 -84 26 16
42 83 45 192 3 81 0 97 -12 100 -9 1 -19 0 -23 -4z"/>
<path d="M11165 15223 c-33 -8 -75 -54 -75 -83 0 -30 31 -63 74 -80 41 -15 61
5 28 28 -12 10 -33 25 -45 35 l-22 17 22 19 c13 11 32 17 46 14 28 -6 44 21
26 43 -12 14 -19 15 -54 7z"/>
<path d="M8865 15209 c-35 -11 -171 -40 -200 -42 -13 -1 -20 -9 -20 -22 0 -18
7 -20 54 -20 52 0 55 -1 63 -30 4 -16 8 -60 7 -98 -2 -72 2 -83 26 -74 12 5
15 24 15 91 0 47 -4 95 -9 108 -8 23 -6 25 48 37 87 19 91 21 91 42 0 21 -24
24 -75 8z"/>
<path d="M11625 15176 c-30 -30 -41 -71 -25 -91 16 -20 53 -1 46 23 -3 9 -1
24 5 32 8 11 9 -2 4 -47 -6 -59 -5 -63 14 -63 43 0 53 138 11 160 -26 14 -28
13 -55 -14z"/>
<path d="M8426 15159 c-42 -49 -35 -75 39 -146 36 -34 65 -66 65 -71 0 -5 -13
-15 -28 -21 -22 -9 -35 -9 -55 0 -30 14 -57 -1 -57 -31 0 -14 10 -18 58 -19
68 -1 116 23 126 65 7 25 0 34 -64 94 -65 61 -71 69 -61 89 13 23 37 28 43 10
5 -16 45 -2 52 18 10 25 -13 43 -54 43 -30 0 -44 -6 -64 -31z"/>
<path d="M11485 15145 c-24 -24 -31 -57 -19 -90 7 -18 54 -45 79 -45 26 0 17
36 -12 50 -28 12 -28 12 -6 21 31 11 46 44 33 69 -14 27 -46 25 -75 -5z"/>
<path d="M7211 15137 c-8 -10 -7 -19 4 -33 13 -18 15 -18 31 -2 18 18 13 48
-9 48 -8 0 -20 -6 -26 -13z"/>
<path d="M10581 15131 c-11 -11 -27 -34 -36 -51 -15 -29 -15 -34 0 -56 19 -29
50 -31 89 -4 l30 19 18 -30 c10 -16 22 -29 28 -29 19 0 23 32 8 59 -9 14 -13
31 -11 38 5 15 -14 53 -28 53 -5 0 -13 -10 -18 -23 -9 -24 -51 -57 -71 -57 -7
0 -8 6 0 19 6 13 17 17 30 14 16 -4 20 0 20 19 0 24 -16 48 -32 48 -4 0 -17
-9 -27 -19z"/>
<path d="M10163 15122 c-25 -19 -45 -65 -37 -86 9 -23 51 -37 81 -25 29 11 43
0 43 -33 0 -22 38 -25 46 -4 3 8 1 23 -5 35 -8 13 -8 28 -1 46 8 21 6 31 -11
54 -25 34 -81 40 -116 13z m75 -34 c-6 -17 -55 -44 -64 -35 -11 11 26 47 48
47 11 0 18 -5 16 -12z"/>
<path d="M9402 15093 c-57 -13 -85 -34 -69 -50 11 -11 159 21 165 35 4 12 -14
33 -28 31 -3 0 -33 -7 -68 -16z"/>
<path d="M7391 15069 c-52 -31 -70 -59 -71 -105 0 -89 94 -113 213 -53 24 13
37 26 37 39 0 25 -11 25 -62 -1 -53 -27 -126 -31 -142 -6 -16 25 10 67 62 95
23 13 42 30 42 38 0 21 -40 17 -79 -7z"/>
<path d="M11305 15077 c-8 -20 13 -69 28 -64 20 6 15 71 -6 75 -9 2 -19 -3
-22 -11z"/>
<path d="M6993 15060 c-18 -11 -33 -24 -33 -29 0 -6 -11 -21 -25 -34 -25 -23
-26 -25 -15 -90 6 -37 8 -77 5 -90 -9 -34 11 -79 33 -75 14 3 17 15 17 83 l0
80 42 -3 c36 -3 47 1 79 31 30 28 38 42 38 70 0 72 -70 100 -141 57z m85 -32
c19 -19 14 -37 -14 -63 -20 -19 -33 -23 -53 -18 -34 8 -33 5 -21 40 15 43 64
65 88 41z"/>
<path d="M7935 15052 c-87 -3 -105 -9 -105 -33 0 -19 5 -20 85 -16 90 4 121
17 95 40 -9 7 -38 11 -75 9z"/>
<path d="M7216 15012 c-2 -4 -7 -24 -11 -45 -6 -33 -5 -37 13 -37 14 0 24 10
32 35 6 19 9 39 5 45 -7 12 -32 13 -39 2z"/>
<path d="M8608 11904 c-39 -28 -49 -60 -22 -71 9 -3 21 3 30 16 8 11 24 26 36
32 20 11 21 9 15 -20 -11 -51 -90 -145 -157 -186 -64 -39 -90 -61 -90 -76 0
-24 34 -18 88 15 33 20 66 36 74 36 7 0 19 -14 25 -30 8 -21 16 -28 27 -24 22
8 20 47 -3 75 -18 23 -18 23 25 82 50 68 73 130 57 155 -17 28 -64 26 -105 -4z"/>
<path d="M10060 11909 c-19 -12 -45 -33 -58 -47 -20 -23 -21 -27 -7 -41 13
-13 18 -12 47 16 37 34 78 58 78 45 0 -13 -54 -94 -91 -136 -20 -23 -59 -50
-97 -67 -35 -16 -77 -38 -93 -50 -31 -22 -38 -53 -14 -63 17 -6 82 24 131 61
36 27 52 29 60 8 4 -8 11 -12 17 -8 6 3 7 1 3 -5 -4 -6 3 -21 14 -32 17 -17
24 -19 35 -10 11 9 12 16 2 31 -6 10 -15 19 -19 19 -5 0 -8 6 -8 14 0 7 -7 19
-15 26 -13 10 -9 19 29 64 64 75 100 149 86 175 -14 27 -55 27 -100 0z"/>
<path d="M10626 11908 c-3 -7 -7 -26 -9 -43 -3 -16 -8 -41 -12 -55 -5 -19 -4
-22 4 -10 6 8 11 11 11 6 0 -6 -9 -19 -19 -30 -31 -33 -63 -124 -51 -145 5
-10 6 -22 2 -26 -4 -4 -1 -6 7 -3 18 5 112 255 109 288 -3 27 -35 41 -42 18z"/>
<path d="M9190 11890 c0 -17 -2 -23 -33 -94 -54 -127 -70 -207 -46 -222 16 -9
32 11 35 45 4 37 40 143 65 193 26 51 25 88 -1 88 -11 0 -20 -4 -20 -10z"/>
<path d="M10787 11880 c-16 -5 -35 -14 -43 -21 -20 -17 -17 -69 7 -108 l21
-35 -41 -34 c-23 -18 -41 -41 -41 -51 0 -60 91 -84 131 -33 17 22 19 35 14 70
-4 24 -3 42 2 39 16 -9 128 67 131 90 3 23 -30 53 -59 53 -9 0 -19 9 -22 20
-6 22 -47 26 -100 10z m49 -52 c-1 -19 4 -23 31 -23 49 0 49 -11 -1 -40 -50
-29 -59 -28 -82 16 -17 35 -8 55 29 62 12 2 22 5 23 6 0 0 0 -9 0 -21z m-44
-186 c3 -24 0 -28 -21 -30 -49 -4 -41 27 15 57 1 1 4 -12 6 -27z"/>
<path d="M8747 11653 c-11 -10 -8 -41 4 -49 16 -9 43 21 36 40 -7 16 -28 21
-40 9z"/>
<path d="M9546 11645 c-28 -28 -14 -52 25 -40 13 5 19 14 17 28 -4 27 -22 32
-42 12z"/>
<path d="M11983 15108 c-40 -42 -55 -81 -44 -112 10 -24 42 -39 67 -29 21 8
17 34 -6 40 -27 7 -25 28 3 30 33 3 68 48 58 76 -12 34 -42 32 -78 -5z"/>
<path d="M3438 11361 c-36 -42 -98 -159 -98 -185 0 -7 -7 -16 -15 -20 -16 -6
-39 -53 -36 -73 1 -7 -4 -32 -11 -55 -7 -24 -13 -47 -14 -53 0 -5 -5 -19 -9
-30 -4 -11 -14 -35 -22 -54 -12 -30 -11 -37 0 -49 12 -12 17 -10 35 15 11 15
30 61 42 101 18 60 25 72 39 66 62 -27 117 -11 157 47 75 109 70 318 -7 327
-21 2 -34 -6 -61 -37z m76 -102 c0 -80 -25 -149 -65 -184 -36 -30 -49 -31 -80
-6 l-23 18 24 59 c35 89 66 148 96 183 25 30 28 31 38 14 5 -10 10 -48 10 -84z"/>
<path d="M1096 11353 c-28 -30 -33 -57 -14 -69 6 -4 21 5 34 21 l22 28 4 -29
c2 -16 -5 -69 -14 -117 -18 -91 -14 -127 16 -127 15 0 66 55 66 71 0 5 5 9 10
9 6 0 10 -7 10 -15 0 -29 39 -92 60 -98 46 -12 126 100 137 193 5 44 4 50 -12
50 -16 0 -17 2 -3 18 17 18 14 77 -4 88 -23 14 -32 -18 -29 -100 3 -90 -8
-128 -52 -181 l-24 -29 -15 29 c-9 17 -18 46 -22 67 -9 52 -34 57 -71 15 l-30
-35 14 90 c13 80 13 94 0 117 -20 36 -52 38 -83 4z"/>
<path d="M4526 11368 c-2 -7 -23 -74 -46 -148 -29 -89 -39 -135 -31 -138 6 -2
9 -8 5 -13 -3 -5 1 -9 9 -9 9 0 24 33 41 93 16 50 35 111 43 133 8 23 13 52
11 64 -3 26 -26 39 -32 18z"/>
<path d="M1956 11338 c-3 -13 -10 -54 -16 -93 -7 -38 -21 -104 -31 -147 -10
-42 -19 -83 -19 -92 0 -31 35 -15 62 29 14 24 40 51 57 60 62 32 122 -16 87
-69 -33 -52 -8 -87 31 -42 39 46 26 132 -24 155 -13 6 -34 11 -46 11 -19 1
-17 5 18 35 22 19 45 35 51 35 16 0 44 34 44 53 0 44 -80 -3 -166 -99 l-42
-46 19 99 c10 54 18 106 19 116 0 26 -39 22 -44 -5z"/>
<path d="M561 11302 c-17 -32 -32 -152 -25 -198 5 -33 11 -44 24 -44 15 0 18
14 24 98 3 53 7 110 9 126 2 34 -17 45 -32 18z"/>
<path d="M3745 11128 l-46 -83 5 57 c3 44 1 58 -11 62 -21 8 -53 7 -53 -1 1
-5 7 -46 14 -93 l13 -85 -40 -80 c-49 -98 -57 -124 -46 -152 10 -29 39 -20 39
12 0 29 18 72 71 165 23 41 41 83 41 93 0 9 3 15 7 13 12 -8 85 139 78 157
-11 30 -25 18 -72 -65z"/>
<path d="M3950 11193 c-17 -12 -25 -13 -28 -5 -7 22 -32 12 -38 -15 -3 -16
-15 -48 -26 -72 -10 -24 -17 -50 -14 -57 9 -23 36 -16 49 14 16 37 67 92 67
72 0 -8 -4 -21 -9 -29 -11 -17 -3 -41 12 -41 6 0 29 21 52 47 l41 46 0 -54
c-1 -48 1 -54 21 -57 19 -3 22 2 22 40 1 24 2 61 4 83 3 48 -20 58 -62 27 -27
-20 -28 -20 -39 -1 -15 23 -21 24 -52 2z"/>
<path d="M1518 11193 c-45 -12 -69 -113 -33 -139 27 -20 62 -17 85 6 16 16 20
32 19 68 -3 67 -17 80 -71 65z m32 -82 c0 -13 -26 -32 -33 -24 -14 13 -6 33
13 33 11 0 20 -4 20 -9z"/>
<path d="M1670 11172 c-35 -36 -54 -100 -40 -136 16 -44 53 -23 43 24 -7 40
21 90 52 90 32 0 43 20 20 37 -28 19 -43 16 -75 -15z"/>
<path d="M2597 11182 c-26 -29 -49 -93 -42 -119 13 -52 79 -44 125 14 25 31
20 65 -12 101 -26 27 -49 28 -71 4z m53 -59 c0 -18 -28 -53 -42 -53 -12 0 -10
44 4 58 17 17 38 15 38 -5z"/>
<path d="M4212 11188 c-7 -7 -12 -16 -12 -21 0 -5 -7 -15 -16 -24 -8 -9 -13
-22 -10 -29 3 -8 0 -13 -7 -11 -7 1 -13 -13 -15 -35 -2 -29 1 -39 18 -48 51
-27 150 31 150 88 0 48 -80 108 -108 80z m57 -67 c8 -14 5 -23 -13 -40 -21
-20 -66 -29 -66 -14 0 15 46 73 57 73 7 0 17 -8 22 -19z"/>
<path d="M2739 11153 c-6 -16 -12 -32 -13 -38 -1 -5 -10 -24 -19 -42 -36 -68
14 -87 58 -22 16 22 41 49 55 59 l27 19 -2 -32 c-2 -18 -6 -40 -10 -51 -8 -18
10 -39 30 -33 14 5 26 64 23 115 -3 40 -6 47 -26 50 -13 2 -34 -4 -48 -12 -21
-15 -24 -15 -24 -1 0 27 -40 17 -51 -12z"/>
<path d="M656 11058 c-17 -25 -13 -38 14 -38 18 0 30 18 30 46 0 21 -27 17
-44 -8z"/>
<path d="M4424 11036 c-9 -37 -1 -61 21 -61 16 0 20 7 21 35 2 50 -31 70 -42
26z"/>
<path d="M8807 10999 c-8 -13 -18 -35 -22 -49 -3 -14 -15 -50 -26 -82 -19 -51
-24 -57 -57 -63 -59 -11 -72 -45 -18 -45 l34 0 -18 -48 c-10 -27 -20 -66 -22
-88 -3 -33 0 -39 17 -39 15 0 21 11 30 55 6 31 20 74 31 95 15 33 24 40 44 37
14 -1 31 2 39 7 17 11 6 45 -12 38 -35 -13 -37 10 -7 94 25 71 27 86 16 98
-12 11 -16 10 -29 -10z"/>
<path d="M7335 10990 c-16 -12 -45 -28 -63 -37 -41 -20 -94 -82 -127 -147 -75
-151 31 -281 202 -246 53 11 75 32 56 51 -6 6 -20 6 -39 -2 -39 -15 -109 -12
-150 7 -33 16 -54 54 -54 98 0 29 41 115 74 153 24 28 126 93 147 93 4 0 7
-26 6 -57 -2 -52 0 -58 19 -61 42 -6 58 80 24 136 -23 38 -51 41 -95 12z"/>
<path d="M8348 10989 c-12 -7 -18 -22 -18 -45 0 -20 -22 -90 -50 -157 -53
-129 -60 -161 -34 -171 22 -8 24 -6 35 45 6 24 25 77 43 119 51 115 70 190 54
206 -9 9 -18 10 -30 3z"/>
<path d="M4931 10938 c-4 -13 -11 -44 -15 -70 -4 -26 -20 -86 -36 -133 -16
-47 -27 -85 -25 -85 2 0 -2 -17 -9 -37 -7 -21 -11 -57 -8 -80 l3 -43 -123 1
c-101 1 -116 3 -81 10 47 11 72 34 55 51 -7 7 -20 7 -43 -1 -17 -6 -43 -11
-55 -11 -36 0 -33 50 4 72 72 43 101 100 67 128 -23 19 -57 0 -93 -53 -61 -91
-65 -157 -11 -184 19 -10 -117 -13 -688 -13 l-713 0 26 58 c14 31 32 68 40 81
11 16 13 26 6 33 -18 18 -41 1 -64 -47 -18 -37 -24 -42 -30 -28 -3 10 -7 32
-7 48 -1 17 -6 37 -11 45 -8 13 -11 13 -26 -2 -16 -16 -16 -21 0 -80 29 -108
32 -103 -53 -106 l-74 -3 26 30 c14 17 31 47 38 68 11 34 10 38 -11 55 -14 11
-39 18 -66 18 -24 0 -44 2 -44 4 0 7 40 191 46 214 6 21 4 23 -17 20 -27 -4
-47 -59 -51 -144 -2 -29 -7 -49 -12 -46 -5 3 -6 -5 -3 -17 3 -13 3 -20 0 -17
-10 10 -54 -128 -50 -156 l4 -28 -294 0 c-161 0 -293 3 -293 6 0 4 7 12 15 18
8 6 22 45 32 86 l18 75 49 0 c36 0 52 5 60 18 16 25 -6 36 -57 29 l-40 -5 7
34 c17 83 18 119 6 134 -18 22 -40 1 -38 -39 1 -17 -4 -54 -11 -83 -12 -48
-15 -51 -49 -57 -20 -3 -49 -6 -64 -6 -34 0 -45 -17 -24 -38 13 -13 24 -14 65
-6 l48 10 -8 -29 c-5 -17 -6 -33 -4 -38 3 -4 1 -10 -5 -14 -5 -3 -10 -15 -10
-25 0 -10 -6 -23 -13 -27 -8 -4 -16 -16 -20 -25 -5 -15 -19 -18 -86 -18 -69 0
-79 2 -77 18 1 15 -7 17 -58 14 -63 -3 -96 14 -96 49 0 24 53 51 84 43 28 -7
43 11 26 31 -29 35 -128 2 -152 -51 -10 -22 -9 -32 9 -65 l21 -39 -183 0 -182
0 -14 88 c-11 64 -18 87 -29 87 -16 0 -19 -46 -10 -130 l5 -40 -300 -3 c-165
-1 -305 0 -312 2 -17 7 4 66 23 66 33 0 124 106 109 129 -2 5 2 12 11 15 11 4
14 16 12 42 -3 42 -24 60 -59 51 -33 -8 -71 -45 -63 -60 4 -7 3 -9 -1 -5 -24
22 -88 -99 -110 -209 l-7 -33 -246 -3 -247 -2 248 -3 c227 -2 247 -3 248 -19
2 -26 2 -22 -5 -96 -6 -56 -4 -68 9 -73 23 -9 27 -2 50 94 l22 87 306 3 307 2
0 -25 c0 -14 -7 -42 -15 -62 -12 -29 -13 -38 -3 -46 10 -6 9 -8 -2 -4 -9 2
-25 -10 -38 -30 -26 -38 -37 -41 -45 -14 -3 14 -11 18 -26 14 -24 -6 -25 -12
-9 -48 6 -14 23 -28 36 -32 45 -11 121 94 143 197 l11 51 795 -2 c438 0 802
-3 809 -6 15 -6 7 -33 -11 -33 -6 0 -26 -31 -44 -70 -27 -57 -30 -73 -21 -90
15 -28 33 -21 41 16 3 16 20 57 38 92 17 34 29 62 25 62 -3 0 1 7 10 15 13 13
139 15 1018 15 779 0 1007 -3 1016 -12 10 -10 17 -10 32 0 28 17 291 17 284 0
-2 -7 -23 -21 -45 -31 -54 -26 -88 -73 -96 -136 -14 -118 64 -105 129 22 16
32 18 45 9 59 -15 25 -14 33 4 18 12 -10 16 -9 21 3 3 9 30 23 60 32 30 9 53
19 50 23 -4 8 -1 8 119 20 74 8 76 9 26 10 -43 2 -52 5 -43 14 17 17 15 38 -3
38 -9 0 -38 -11 -65 -25 -27 -14 -65 -25 -85 -25 l-36 0 6 48 c3 26 2 67 -2
92 -8 41 -11 45 -36 44 -15 -1 -27 2 -27 7 0 15 -63 -18 -97 -51 -27 -27 -33
-40 -30 -68 4 -61 54 -68 116 -16 l31 26 0 -41 0 -41 -130 0 c-71 0 -130 2
-130 3 0 2 9 30 20 61 38 111 8 168 -64 121 -31 -21 -120 -151 -111 -164 13
-22 33 -10 69 43 20 29 46 62 58 72 l21 19 -6 -38 c-3 -21 -14 -55 -24 -75
l-18 -37 -150 0 -150 0 -3 46 c-2 32 8 81 31 155 60 189 72 264 42 264 -9 0
-19 -10 -24 -22z m-3991 -241 c-21 -45 -70 -100 -70 -79 0 7 -7 12 -16 12 -13
0 -13 4 3 31 23 39 96 106 100 92 2 -6 -5 -31 -17 -56z m4533 -85 c-23 -31
-69 -60 -79 -49 -9 9 22 45 61 68 37 23 44 16 18 -19z m-2485 -7 c10 -8 -33
-67 -58 -80 -33 -17 -40 -18 -58 -6 -18 11 12 75 42 89 18 8 62 6 74 -3z m202
-11 c0 -8 -5 -12 -10 -9 -6 4 -8 11 -5 16 9 14 15 11 15 -7z m2256 -246 c-20
-40 -44 -73 -50 -67 -10 10 8 61 31 85 31 33 39 25 19 -18z"/>
<path d="M9620 10939 c-85 -24 -120 -42 -120 -62 0 -22 14 -21 85 7 124 48
255 -17 255 -127 0 -94 -84 -198 -182 -225 -20 -5 -39 -8 -41 -6 -3 3 -1 22 3
42 4 20 10 61 13 90 6 53 6 53 -21 50 -22 -2 -26 -7 -24 -28 2 -14 0 -45 -3
-68 -5 -37 -10 -43 -25 -39 -23 6 -38 -29 -21 -46 6 -6 11 -17 11 -24 0 -10
-43 -13 -204 -13 -195 0 -204 1 -209 20 -3 11 -10 20 -16 20 -6 0 -15 -9 -21
-20 -11 -20 -21 -20 -570 -20 -308 0 -560 3 -560 8 1 4 9 32 20 62 18 53 20
55 50 52 28 -3 39 3 79 46 59 63 85 113 77 145 -14 56 -101 29 -161 -49 -25
-34 -43 -48 -56 -46 -17 3 -19 -3 -19 -50 0 -31 -10 -76 -23 -108 l-22 -55
-800 -5 -800 -5 798 -3 c523 -1 797 -5 797 -12 0 -5 9 -10 20 -10 11 0 20 5
20 10 0 6 123 10 350 10 193 0 350 -2 350 -5 0 -3 -5 -14 -12 -24 -12 -19 -5
-51 11 -51 11 0 44 50 44 67 0 10 44 13 199 13 l198 0 -20 -42 c-12 -24 -28
-55 -36 -70 -15 -27 -15 -28 11 -28 22 0 30 9 58 69 l32 70 1359 1 c748 0
1362 2 1364 5 3 3 -483 5 -1079 5 l-1084 0 46 29 c108 68 171 208 134 297 -26
65 -135 146 -155 115 -5 -10 -9 -9 -13 3 -7 18 -34 19 -87 5z m-1470 -161 c0
-13 -77 -118 -88 -119 -4 0 -15 -2 -25 -4 -16 -3 -16 -2 0 27 21 35 91 108
104 108 5 0 9 -5 9 -12z"/>
<path d="M4507 10913 c-2 -5 -10 -33 -16 -63 -17 -77 -53 -181 -71 -204 -66
-86 -125 -102 -99 -27 6 17 26 40 45 52 34 20 47 59 21 59 -29 0 -95 -59 -107
-94 -16 -48 -10 -75 21 -98 24 -18 29 -18 61 -5 40 17 89 73 118 135 35 73 71
223 59 239 -13 15 -26 17 -32 6z"/>
<path d="M10650 10904 c-25 -9 -54 -24 -64 -35 -43 -41 -10 -136 70 -203 29
-24 44 -45 44 -60 0 -29 -14 -41 -66 -56 -34 -10 -46 -10 -70 2 -16 8 -28 20
-26 26 1 7 -3 12 -9 12 -5 0 -7 5 -4 10 3 6 -1 10 -9 10 -8 0 -19 -8 -24 -17
-23 -41 40 -93 112 -93 44 0 109 31 130 62 13 17 16 19 16 6 0 -28 50 -59 89
-56 49 4 48 30 -1 42 -21 5 -38 13 -38 17 0 14 54 50 82 56 47 9 64 53 20 53
-31 -1 -107 -40 -129 -68 -23 -27 -23 -27 -23 -4 0 15 -22 46 -59 85 -117 124
-109 163 36 183 55 7 105 -8 70 -21 -9 -4 -24 -2 -32 5 -31 26 -48 -19 -21
-56 15 -19 15 -19 60 5 54 28 63 47 38 81 -17 22 -27 25 -83 27 -38 2 -82 -4
-109 -13z"/>
<path d="M10165 10860 c-3 -6 -8 -29 -10 -53 -11 -110 -14 -117 -50 -117 -19
0 -37 -5 -40 -10 -12 -19 13 -37 44 -32 29 4 29 3 22 -30 -4 -18 -13 -43 -19
-55 -16 -29 8 -51 32 -28 14 15 36 75 36 103 0 7 15 12 40 12 l40 0 -16 -25
c-22 -34 -11 -59 24 -52 15 3 36 8 48 12 16 5 24 -1 39 -29 20 -37 39 -46 47
-23 8 20 -32 99 -53 104 -10 3 -19 12 -19 19 0 20 -27 29 -45 14 -12 -10 -15
-9 -15 4 0 12 -10 16 -40 16 l-41 0 3 86 c2 59 -1 88 -9 91 -6 2 -14 -1 -18
-7z"/>
<path d="M6587 10853 c-4 -3 -7 -21 -7 -38 0 -18 -7 -51 -15 -74 -8 -23 -16
-70 -17 -104 -3 -53 -1 -62 16 -65 11 -3 16 0 12 7 -4 6 -2 11 3 11 6 0 11 17
11 38 0 20 9 70 20 110 14 52 17 80 10 97 -9 25 -21 31 -33 18z"/>
<path d="M5104 10795 c-8 -32 1 -43 24 -29 22 14 22 48 0 52 -12 2 -19 -5 -24
-23z"/>
<path d="M1470 10781 c0 -26 17 -36 36 -21 11 10 12 16 3 26 -17 20 -39 17
-39 -5z"/>
<path d="M8419 10754 c-15 -8 -34 -29 -43 -48 -26 -54 1 -95 62 -96 37 0 46
28 11 37 -18 5 -16 8 18 27 46 26 54 57 21 80 -26 19 -34 19 -69 0z"/>
<path d="M8924 10751 c-64 -39 -93 -103 -59 -131 17 -14 89 -17 125 -5 13 4
20 13 18 23 -3 14 -14 17 -58 15 -43 -2 -50 -1 -32 7 12 5 22 14 22 19 0 5 9
13 20 16 28 9 45 42 29 61 -15 19 -28 18 -65 -5z"/>
<path d="M11043 10763 c-20 -8 -15 -51 7 -63 17 -9 22 -7 30 15 13 35 13 42
-6 49 -9 3 -16 6 -17 5 -1 0 -8 -3 -14 -6z"/>
<path d="M3863 10739 c-7 -7 -24 -12 -39 -13 -15 -1 -30 -8 -35 -16 -76 -146
-90 -190 -59 -190 5 0 28 29 51 65 22 35 55 76 72 91 32 27 32 27 35 5 2 -12
-10 -44 -28 -71 -17 -27 -29 -54 -25 -60 13 -21 37 -9 62 33 25 39 103 107
103 89 0 -4 -7 -36 -15 -71 -17 -72 -15 -91 12 -91 15 0 21 14 31 65 25 131
11 171 -49 141 -18 -9 -33 -15 -34 -14 -1 2 -8 13 -14 26 -13 24 -49 30 -68
11z"/>
<path d="M1056 10717 c-27 -27 -62 -127 -53 -151 7 -19 36 -21 42 -3 2 6 6 29
10 50 3 21 11 37 18 36 32 -4 49 2 44 15 -3 7 -1 18 5 24 12 12 4 28 -23 42
-15 9 -24 6 -43 -13z"/>
<path d="M7713 10723 c-3 -10 -14 -38 -24 -62 -11 -24 -19 -50 -19 -57 0 -26
33 -14 65 24 l33 37 7 -27 c9 -37 30 -41 63 -13 28 23 28 23 41 3 25 -40 55
24 35 76 -6 16 -44 23 -44 9 0 -5 -12 -16 -26 -27 -26 -18 -26 -18 -20 1 9 28
-16 48 -42 34 -15 -8 -21 -7 -26 4 -8 21 -35 19 -43 -2z"/>
<path d="M7512 10714 c-44 -30 -66 -106 -40 -132 24 -24 74 -14 102 19 31 37
33 67 5 103 -24 30 -36 32 -67 10z m28 -88 c-11 -15 -40 -22 -40 -11 0 2 5 16
12 30 10 23 13 24 26 11 13 -12 13 -18 2 -30z"/>
<path d="M11691 10695 c-52 -47 -65 -98 -39 -149 16 -32 22 -35 46 -30 56 14
62 48 9 56 -15 2 -23 11 -25 28 -2 14 1 20 5 14 12 -17 46 -32 61 -27 6 3 12
13 12 23 0 11 5 31 12 45 13 30 -2 75 -27 75 -8 0 -32 -16 -54 -35z"/>
<path d="M1240 10710 c-7 -4 -10 -14 -8 -21 3 -8 -6 -22 -18 -32 -13 -10 -28
-34 -33 -55 -28 -98 97 -115 129 -17 10 30 9 41 -11 79 -23 48 -38 59 -59 46z
m14 -131 c-9 -10 -21 -19 -26 -19 -17 0 -7 41 15 63 l22 22 3 -23 c2 -13 -4
-32 -14 -43z"/>
<path d="M1646 10702 c-15 -9 -37 -36 -47 -59 -16 -38 -16 -45 -4 -71 26 -52
49 -65 110 -63 61 1 102 24 74 42 -19 12 -29 11 -29 -2 0 -7 -14 -8 -42 -4
-59 10 -69 22 -38 45 70 53 80 63 80 79 0 23 -31 51 -56 51 -10 0 -32 -8 -48
-18z m34 -52 c-37 -29 -50 -24 -16 6 15 14 31 22 35 19 3 -4 -5 -15 -19 -25z"/>
<path d="M4151 10706 c-19 -22 -26 -123 -11 -141 20 -24 59 -18 91 14 36 36
37 70 3 110 -28 33 -64 40 -83 17z m62 -82 c-3 -8 -14 -19 -24 -25 -16 -8 -19
-6 -19 11 0 12 5 31 11 42 11 20 12 21 25 4 7 -10 10 -24 7 -32z"/>
<path d="M11161 10673 c-41 -49 -59 -106 -41 -128 16 -19 84 -20 99 -1 15 18
-4 32 -36 27 -37 -4 -26 17 20 40 58 30 66 43 45 71 -27 34 -54 31 -87 -9z"/>
<path d="M11531 10631 c-61 -72 -51 -121 23 -121 34 0 33 23 -1 39 l-28 13 53
50 c54 51 58 68 17 68 -16 0 -36 -16 -64 -49z"/>
<path d="M4989 10608 c-41 -65 -46 -90 -16 -96 11 -2 21 6 27 24 6 15 24 47
40 71 17 25 28 49 25 54 -14 22 -38 5 -76 -53z"/>
<path d="M11383 10648 c-13 -6 -23 -15 -23 -19 0 -5 -11 -4 -24 1 -21 8 -24 5
-30 -22 -18 -89 5 -105 58 -42 44 52 58 56 46 12 -7 -21 -6 -36 2 -45 16 -19
33 -1 48 52 10 36 10 48 0 60 -14 17 -45 18 -77 3z"/>
<path d="M8477 10629 c4 -13 9 -17 15 -11 11 11 3 32 -12 32 -4 0 -6 -9 -3
-21z"/>
<path d="M9894 10616 c-19 -19 -34 -41 -34 -49 0 -22 30 -49 46 -43 8 3 20 9
28 12 8 3 16 -3 19 -16 7 -28 29 -21 38 11 10 40 -8 62 -44 55 -32 -5 -32 -5
-9 11 26 18 29 38 6 47 -10 4 -28 -6 -50 -28z"/>
<path d="M11002 10598 c-15 -20 -37 -87 -29 -94 13 -13 37 6 52 43 21 50 5 86
-23 51z"/>
<path d="M6643 10589 c-23 -9 -31 -33 -13 -44 17 -11 60 7 60 25 0 22 -18 30
-47 19z"/>
<path d="M3372 10408 c-5 -7 -12 -29 -14 -48 -11 -82 -63 -256 -80 -268 -20
-15 -24 -62 -6 -80 9 -9 -74 -12 -375 -12 l-387 0 0 33 c0 18 9 67 19 108 18
67 25 122 22 172 -1 13 -7 17 -23 15 -20 -3 -23 -8 -20 -40 2 -21 -6 -75 -18
-120 -12 -46 -22 -102 -22 -125 l-1 -43 -60 0 -59 0 4 62 c2 53 0 63 -14 66
-9 2 -22 -6 -28 -17 -12 -24 -50 -47 -50 -31 0 5 9 18 20 27 27 24 25 43 -4
43 -33 0 -70 -52 -62 -85 6 -25 43 -42 70 -32 8 3 16 -2 19 -14 5 -18 -1 -19
-84 -19 -63 0 -88 3 -86 12 1 6 -15 20 -35 30 -33 16 -68 52 -68 69 0 11 69
32 85 26 7 -3 19 0 25 8 9 11 7 16 -9 24 -45 24 -143 -5 -149 -44 -3 -25 44
-100 72 -114 15 -7 -69 -10 -276 -10 -178 -1 -298 3 -298 8 0 5 10 11 22 13
13 2 24 11 26 23 4 22 40 65 55 65 5 0 7 -9 4 -21 -7 -28 9 -69 27 -69 8 0 24
16 36 35 24 38 40 38 40 -1 0 -29 20 -31 43 -6 19 20 22 42 8 42 -5 0 -15 15
-21 34 -15 47 -35 52 -62 16 l-21 -30 -11 23 c-15 29 -49 33 -83 9 -16 -10
-36 -22 -45 -25 -13 -5 -18 -17 -18 -44 l0 -38 -45 -1 c-43 -1 -45 0 -30 16
23 25 36 79 25 101 -23 43 -96 25 -125 -31 -20 -39 -19 -62 6 -94 l21 -27
-273 3 c-239 3 -278 5 -306 21 -35 19 -52 60 -36 86 5 9 24 26 41 37 17 12 28
25 24 29 -4 5 -1 5 6 1 18 -10 52 3 52 20 0 24 -26 27 -72 6 -69 -32 -98 -65
-98 -115 0 -23 7 -53 16 -65 l15 -22 -218 -2 -218 -2 235 -6 c171 -4 244 -9
267 -20 29 -12 34 -12 51 3 17 15 191 17 2507 17 1369 0 2491 2 2493 5 3 3
-537 5 -1200 5 l-1205 0 54 53 c42 42 53 61 53 85 0 63 -65 91 -131 56 -29
-15 -30 -14 -25 3 23 78 47 195 42 208 -7 18 -20 19 -34 3z m97 -252 c9 -11 9
-20 2 -34 -13 -25 -78 -82 -94 -82 -7 0 -23 -3 -37 -6 -14 -3 -21 -2 -15 3 6
4 20 28 33 53 21 42 62 79 88 80 6 0 17 -6 23 -14z m-2079 -38 c-1 -14 -34
-58 -44 -58 -12 0 -5 39 10 54 19 19 34 21 34 4z"/>
<path d="M4150 10360 c0 -6 10 -24 22 -40 15 -21 23 -49 26 -92 l5 -62 -28 22
c-15 12 -32 22 -36 22 -18 0 -93 -76 -106 -108 -21 -51 -4 -74 50 -68 23 3 43
5 45 5 1 1 2 13 2 27 0 23 3 25 24 20 54 -13 107 99 86 182 -18 72 -37 102
-65 102 -14 0 -25 -5 -25 -10z m-10 -251 c-35 -30 -70 -43 -70 -27 0 5 16 26
35 45 30 30 37 33 51 22 15 -12 13 -16 -16 -40z"/>
<path d="M6607 10363 c-4 -3 -7 -14 -7 -23 0 -14 10 -17 55 -18 30 0 58 -3 64
-6 5 -4 3 -28 -5 -61 -16 -62 -23 -187 -12 -226 l8 -26 -197 -2 c-109 -1 -199
-4 -202 -6 -2 -3 63 -5 145 -5 145 0 150 -1 159 -22 15 -35 74 -36 132 -4 l46
26 269 0 269 0 -3 -27 c-4 -34 -13 -45 -54 -62 -61 -24 -95 -157 -46 -176 21
-8 76 52 94 102 10 28 17 33 45 33 37 0 47 28 13 37 -23 6 -24 17 -9 62 l11
32 719 -2 c395 -1 717 -4 715 -8 -2 -3 -23 -37 -46 -76 -44 -72 -63 -146 -41
-160 18 -11 40 13 39 44 -1 31 -3 28 60 129 l45 72 1496 2 c823 2 1198 4 835
5 l-662 3 8 36 c11 47 50 155 63 172 5 6 17 12 27 12 25 0 45 26 28 36 -7 5
-20 7 -29 6 -14 -2 -15 2 -6 38 8 29 8 43 0 51 -21 21 -40 2 -45 -46 -3 -25
-8 -49 -12 -52 -3 -4 -27 -8 -52 -9 -82 -5 -86 -47 -5 -47 l40 0 -21 -51 c-36
-90 -40 -106 -35 -126 5 -20 -4 -20 -809 -20 l-814 0 31 58 c18 31 59 103 92
160 33 56 57 105 54 108 -19 19 -53 -18 -117 -130 -38 -68 -70 -126 -70 -130
0 -4 -10 -20 -22 -36 -21 -29 -23 -30 -114 -30 -74 0 -93 3 -98 16 -5 12 -19
15 -73 12 -64 -3 -68 -2 -71 20 -2 14 7 33 27 53 26 25 36 29 64 24 29 -6 35
-3 45 20 15 33 15 58 0 73 -17 17 18 27 48 13 34 -15 44 -14 44 7 0 29 -21 42
-67 42 -84 0 -147 -45 -123 -89 8 -17 5 -23 -20 -38 -38 -22 -74 -94 -66 -128
l6 -25 -529 0 c-357 0 -532 3 -536 10 -4 6 -2 17 4 24 6 7 16 47 23 89 14 94
7 107 -56 102 -56 -6 -85 -17 -124 -50 -78 -65 1 -125 98 -75 22 11 40 19 40
18 -1 -2 -7 -28 -14 -58 l-12 -55 -140 -2 c-80 -1 -130 2 -119 6 11 5 23 7 26
5 4 -2 12 2 18 10 9 10 7 16 -4 26 -12 10 -24 10 -54 1 -50 -14 -61 -14 -61 3
0 7 22 27 50 44 31 20 52 40 56 57 7 27 -9 55 -32 55 -21 0 -97 -80 -114 -119
-12 -30 -12 -37 3 -62 l16 -29 -92 0 -92 0 38 31 c51 42 87 106 87 155 0 74
-88 147 -209 173 -59 12 -104 14 -114 4z m68 -23 c3 -5 1 -10 -4 -10 -6 0 -11
5 -11 10 0 6 2 10 4 10 3 0 8 -4 11 -10z m193 -107 c20 -30 34 -73 23 -73 -3
0 -15 -16 -26 -36 -21 -39 -102 -107 -116 -98 -15 9 -10 154 7 215 l16 58 38
-19 c21 -11 47 -32 58 -47z m482 -63 c0 -14 -81 -51 -93 -43 -11 7 0 18 38 37
35 18 55 20 55 6z m-663 -186 c-3 -3 -12 -4 -19 -1 -8 3 -5 6 6 6 11 1 17 -2
13 -5z m609 -136 c4 -7 3 -9 -1 -5 -5 4 -17 -7 -27 -25 -9 -18 -17 -26 -18
-18 0 14 26 60 35 60 2 0 7 -6 11 -12z"/>
<path d="M1003 10322 c-5 -4 -13 -16 -17 -27 -12 -32 -46 -266 -40 -276 11
-18 40 -8 56 19 9 15 26 36 37 46 19 17 20 17 35 -13 21 -40 37 -47 119 -56
64 -7 69 -6 65 11 -2 14 -18 22 -63 31 -49 10 -65 18 -88 47 -29 35 -68 48
-82 26 -28 -46 -28 53 1 135 7 22 14 43 14 46 0 11 -26 18 -37 11z"/>
<path d="M1874 10265 c-7 -18 3 -35 21 -35 15 0 28 27 19 41 -8 14 -34 11 -40
-6z"/>
<path d="M4395 10266 c-71 -31 -69 -67 6 -122 27 -20 54 -45 60 -55 9 -17 6
-19 -21 -19 -20 0 -40 9 -56 25 -14 14 -31 25 -39 25 -24 0 -17 -39 11 -65 21
-20 38 -25 78 -25 58 0 76 12 76 49 0 18 -18 42 -61 82 l-61 57 36 12 c20 6
50 9 66 5 23 -5 32 -3 36 10 4 10 1 21 -7 26 -21 13 -89 10 -124 -5z"/>
<path d="M7935 10226 c-13 -13 -29 -42 -36 -65 -11 -39 -11 -44 9 -63 23 -24
58 -26 117 -6 25 8 41 20 43 32 4 20 6 20 -98 1 l-35 -7 30 17 c35 19 45 32
45 61 0 20 -28 54 -44 54 -4 0 -18 -11 -31 -24z"/>
<path d="M9379 10232 c-31 -20 -111 -107 -127 -138 -17 -32 6 -49 36 -28 12 8
22 21 22 27 0 7 20 33 45 57 40 39 45 42 45 22 0 -31 22 -27 48 8 27 36 27 46
3 60 -27 14 -42 13 -72 -8z"/>
<path d="M9882 10238 c-18 -6 -48 -28 -67 -50 -60 -66 -42 -139 40 -158 51
-12 78 -12 71 -1 -4 5 0 12 6 14 21 9 -12 27 -49 27 -33 0 -63 22 -63 45 0 7
12 27 26 44 25 30 62 43 129 45 23 1 30 6 30 21 0 17 -7 20 -45 22 -25 1 -60
-3 -78 -9z"/>
<path d="M7750 10227 c-27 -21 -68 -81 -75 -110 -5 -18 -2 -36 10 -53 15 -23
22 -26 57 -21 45 6 75 28 63 47 -7 11 -30 9 -69 -6 -11 -4 -16 -1 -16 10 0 10
15 23 38 33 49 20 72 41 72 68 0 41 -46 59 -80 32z"/>
<path d="M7552 10210 c-21 -13 -35 -31 -39 -50 -3 -17 -10 -33 -14 -36 -5 -3
-9 -16 -9 -30 0 -17 6 -24 18 -24 18 0 42 37 42 64 0 19 33 46 66 55 16 4 30
14 32 22 4 23 -57 22 -96 -1z"/>
<path d="M10120 10223 c-17 -7 -33 -19 -71 -55 -33 -30 -38 -71 -13 -106 14
-20 23 -23 77 -20 47 2 62 7 62 18 0 11 -14 16 -50 18 -44 3 -64 13 -65 34 0
3 23 12 50 19 52 13 90 40 90 62 0 30 -40 45 -80 30z"/>
<path d="M10338 10213 c-20 -23 -58 -98 -58 -116 0 -19 20 -36 36 -30 8 3 21
29 30 59 12 42 20 54 35 54 24 0 37 29 18 41 -22 14 -45 11 -61 -8z"/>
<path d="M3860 10185 c-20 -15 -41 -23 -52 -19 -12 3 -20 -1 -24 -13 -3 -10
-15 -37 -27 -61 -18 -36 -20 -44 -8 -51 20 -13 34 -5 54 29 10 15 35 43 57 60
46 36 49 29 24 -46 -16 -48 -9 -72 19 -61 18 7 51 138 42 166 -9 29 -43 27
-85 -4z"/>
<path d="M3615 10173 c-42 -42 -66 -101 -52 -130 5 -12 17 -24 26 -25 9 0 23
-2 31 -3 26 -2 85 32 99 58 16 31 8 73 -21 105 -28 29 -49 28 -83 -5z m62 -34
c23 -23 -16 -79 -54 -79 -30 0 -29 15 3 57 27 36 34 39 51 22z"/>
<path d="M9072 10148 c-26 -33 -32 -49 -30 -77 3 -34 5 -36 40 -39 29 -2 43 3
66 25 46 42 49 67 13 103 -16 17 -35 30 -43 29 -7 0 -28 -19 -46 -41z m68 -33
c0 -16 -47 -51 -57 -42 -9 10 26 57 42 57 8 0 15 -7 15 -15z"/>
<path d="M1840 10133 c-28 -36 -25 -98 5 -98 16 0 20 7 20 32 1 17 9 41 19 52
19 21 15 41 -9 41 -7 0 -23 -12 -35 -27z"/>
<path d="M8535 9820 c-20 -40 -23 -55 -15 -70 14 -26 40 -26 40 0 0 12 9 38
19 59 15 29 17 41 8 50 -18 18 -26 13 -52 -39z"/>
<path d="M1652 9503 c762 -2 2013 -2 2780 0 766 1 142 2 -1387 2 -1529 0
-2156 -1 -1393 -2z"/>
<path d="M7692 9503 c762 -2 2013 -2 2780 0 766 1 142 2 -1387 2 -1529 0
-2156 -1 -1393 -2z"/>
<path d="M1652 9003 c762 -2 2013 -2 2780 0 766 1 142 2 -1387 2 -1529 0
-2156 -1 -1393 -2z"/>
<path d="M7702 9003 c764 -2 2012 -2 2775 0 764 1 139 2 -1387 2 -1526 0
-2151 -1 -1388 -2z"/>
<path d="M260 5560 l0 -2050 1625 0 c894 0 1625 -2 1625 -4 0 -3 -4 -16 -10
-30 -5 -15 -6 -28 0 -31 15 -9 48 17 55 42 l5 23 366 0 c343 0 365 -1 360 -17
-19 -64 -19 -75 0 -71 26 4 43 28 44 61 l0 27 345 0 c223 0 345 -4 345 -10 0
-13 37 -13 45 0 8 14 135 13 135 -1 0 -6 -5 -19 -10 -30 -20 -36 -28 -108 -15
-125 18 -25 31 -10 38 40 4 24 14 62 23 85 l16 41 284 0 284 0 0 130 c0 103 3
132 14 136 18 7 40 59 31 73 -9 15 -32 14 -38 -1 -3 -7 -6 836 -6 1875 l-1
1887 -2780 0 -2780 0 0 -2050z m5550 147 c0 -1859 0 -1894 -19 -1911 -11 -10
-17 -25 -14 -34 4 -14 3 -14 -5 -3 -8 12 -13 12 -25 2 -12 -10 -20 -10 -36 1
-33 20 -36 46 -10 74 18 19 20 27 11 36 -15 15 -37 3 -66 -35 -19 -26 -19 -28
-3 -62 9 -20 24 -38 32 -41 12 -5 7 -16 -24 -50 -51 -55 -60 -87 -34 -122 16
-21 30 -28 65 -30 37 -2 49 1 71 24 37 36 43 70 25 121 -15 41 -15 43 8 58
l24 15 0 -115 0 -115 -277 1 c-176 1 -254 4 -214 9 66 7 101 31 101 68 0 27
-41 102 -62 113 -19 10 -18 12 10 62 16 29 27 58 24 66 -2 8 0 11 5 8 14 -9
37 38 29 58 -12 32 -31 8 -95 -117 -56 -109 -63 -128 -52 -142 12 -14 12 -16
-1 -11 -9 4 -19 -3 -26 -17 -10 -22 -11 -22 -11 8 -1 17 9 44 24 64 26 35 20
65 -11 53 -16 -6 -40 -43 -36 -55 1 -5 -2 -8 -7 -8 -18 0 -22 -69 -6 -105 9
-18 14 -39 10 -44 -3 -6 -35 -11 -70 -11 -62 0 -65 1 -71 28 -9 43 -23 72 -34
72 -5 0 10 26 34 58 48 61 62 98 52 137 -8 30 -45 42 -76 25 -18 -10 -20 -14
-9 -22 11 -8 10 -9 -4 -4 -12 4 -27 -3 -43 -19 -27 -27 -30 -45 -12 -63 14
-14 42 -16 33 -2 -3 6 -1 10 6 10 7 0 9 3 6 7 -8 7 31 53 45 53 18 0 7 -43
-21 -84 -17 -24 -62 -71 -100 -105 -39 -35 -71 -69 -71 -77 0 -12 -46 -14
-272 -14 -262 0 -271 1 -255 18 10 10 17 24 17 30 0 6 7 18 16 26 14 14 18 14
46 0 21 -11 46 -15 74 -11 50 5 108 43 100 64 -3 8 -1 11 4 8 14 -8 28 33 28
80 0 29 -7 46 -29 68 l-29 29 51 73 c34 48 49 79 45 90 -10 27 -26 14 -80 -65
-56 -81 -71 -92 -79 -59 -9 33 -26 19 -80 -65 -39 -60 -51 -89 -52 -121 -1
-25 -9 -51 -19 -60 -9 -9 -30 -36 -47 -61 l-30 -44 -359 0 c-260 0 -361 3
-366 12 -4 6 -3 9 2 5 5 -3 19 10 32 29 12 19 18 34 12 34 -5 0 -10 7 -10 15
0 9 6 12 15 9 8 -4 17 1 21 9 3 8 20 18 39 21 19 4 52 24 79 49 56 53 61 89
18 130 -16 15 -31 25 -33 22 -3 -2 10 27 29 66 18 39 31 77 28 85 -8 20 -36
17 -42 -3 -3 -10 -15 -40 -27 -66 -19 -43 -24 -48 -47 -43 -60 14 -143 24
-156 19 -24 -9 -11 -37 20 -43 l29 -5 -26 -14 c-34 -18 -69 -88 -60 -121 8
-35 41 -68 74 -75 16 -4 29 -9 29 -12 0 -3 -16 -32 -36 -64 l-37 -59 -1623 0
-1624 0 0 2040 0 2040 2770 0 2770 0 0 -1893z m-2171 -1887 c9 0 23 6 30 13
12 10 13 8 6 -8 -4 -11 -8 -26 -8 -32 0 -7 -3 -13 -7 -13 -4 0 -15 -18 -25
-40 -26 -57 -36 -63 -73 -40 -34 21 -40 46 -21 81 13 25 73 62 77 49 2 -6 11
-10 21 -10z m117 -60 c1 -16 -2 -27 -7 -24 -5 3 -23 -5 -40 -16 -16 -12 -32
-20 -35 -18 -2 3 8 31 22 62 24 53 28 57 43 42 8 -9 16 -30 17 -46z m741 35
c0 -8 -4 -12 -9 -9 -5 3 -6 10 -3 15 9 13 12 11 12 -6z m90 -31 c19 -26 9 -72
-24 -106 -31 -32 -69 -43 -108 -28 -26 10 -27 12 -11 29 10 11 14 25 10 36 -6
13 -4 16 5 10 15 -9 60 40 61 67 0 22 49 17 67 -8z m-107 12 c0 -2 -7 -9 -15
-16 -13 -11 -14 -10 -9 4 5 14 24 23 24 12z m1260 -142 c0 -37 -29 -67 -62
-62 -38 5 -35 43 7 85 41 41 55 35 55 -23z m-370 -28 c0 -19 -7 -25 -36 -31
-20 -3 -38 -4 -41 -2 -2 3 4 28 14 57 l18 51 23 -26 c12 -14 22 -37 22 -49z
m-340 44 c-8 -5 -19 -10 -25 -10 -5 0 -3 5 5 10 8 5 20 10 25 10 6 0 3 -5 -5
-10z m-5 -90 c10 -31 -2 -40 -53 -40 l-47 1 35 29 c40 35 56 37 65 10z"/>
<path d="M900 7399 c-36 -11 -85 -23 -110 -27 l-44 -7 -13 -95 c-7 -52 -16
-128 -19 -167 -4 -40 -11 -73 -15 -73 -20 0 -7 -38 16 -50 22 -12 27 -11 38 2
12 15 149 58 186 58 11 0 23 5 26 11 4 6 13 8 21 5 17 -6 31 21 18 34 -10 9
-91 -6 -188 -34 -32 -10 -60 -15 -62 -13 -2 2 -1 31 2 65 6 58 8 61 38 68 17
4 56 17 86 31 30 13 63 22 72 20 10 -3 23 2 30 10 10 12 9 18 -6 29 -22 16
-49 11 -121 -23 -74 -34 -81 -32 -77 27 l4 49 56 17 c32 9 89 25 127 34 45 11
70 22 70 31 0 22 -61 21 -135 -2z"/>
<path d="M4752 7400 c-32 -20 -106 -154 -98 -176 3 -7 -4 -16 -14 -19 -15 -5
-19 -14 -16 -37 3 -28 -7 -60 -35 -111 -7 -13 -7 -23 1 -32 20 -25 39 -4 62
66 l22 69 58 0 58 0 -7 -47 c-3 -27 -13 -53 -21 -59 -8 -6 -12 -16 -8 -22 4
-7 2 -12 -4 -12 -6 0 -8 -4 -5 -10 11 -17 31 -11 45 15 7 13 16 22 20 20 10
-6 31 112 36 205 5 85 -15 155 -46 163 -10 3 -32 -3 -48 -13z m49 -92 c12 -76
4 -98 -36 -98 -19 0 -40 -7 -48 -15 -13 -13 -16 -13 -21 2 -12 29 74 187 92
169 3 -3 9 -29 13 -58z"/>
<path d="M4959 7408 c-2 -62 -14 -163 -30 -263 -24 -150 -24 -155 1 -155 11 0
20 4 20 8 0 4 9 57 19 117 11 61 22 154 25 208 5 92 4 97 -14 97 -11 0 -20 -6
-21 -12z"/>
<path d="M3317 7383 c-4 -4 -5 -68 -1 -144 7 -146 3 -160 -38 -138 -29 16 -46
38 -83 113 -22 43 -37 62 -52 64 -25 4 -25 3 -41 -118 -5 -41 -13 -83 -17 -92
-5 -12 -2 -20 10 -25 26 -9 43 21 51 89 l7 60 30 -52 c36 -62 78 -92 127 -88
31 3 36 7 48 42 18 57 4 289 -18 294 -9 1 -19 -1 -23 -5z"/>
<path d="M2593 7368 c-29 -7 -73 -49 -73 -69 0 -15 54 -72 107 -111 67 -49 84
-80 59 -107 -21 -23 -60 -34 -87 -26 -25 8 -40 44 -27 68 6 11 5 17 -2 17 -6
0 -8 5 -4 11 4 7 -1 10 -12 7 -20 -4 -36 -51 -28 -85 13 -52 93 -80 147 -52
99 51 89 115 -32 213 -39 31 -71 61 -71 67 0 20 47 31 94 21 36 -7 48 -7 57 5
7 8 8 17 3 22 -16 16 -98 28 -131 19z"/>
<path d="M1433 7354 c-3 -9 3 -24 14 -35 16 -16 22 -18 30 -7 14 17 -2 58 -22
58 -9 0 -18 -7 -22 -16z"/>
<path d="M3976 7355 c-3 -9 -1 -24 6 -34 8 -14 1 -46 -36 -159 -38 -112 -45
-145 -37 -161 13 -24 43 -34 79 -27 15 3 47 6 72 7 55 3 76 15 58 36 -9 12
-28 13 -90 8 -50 -5 -78 -4 -78 3 0 6 16 57 36 114 45 127 52 221 18 226 -13
2 -24 -4 -28 -13z"/>
<path d="M2924 7349 c-4 -7 -23 -9 -49 -6 -32 5 -46 2 -56 -9 -17 -21 -2 -32
51 -36 45 -3 45 -3 48 -43 2 -23 -1 -66 -6 -96 -9 -62 -1 -99 23 -99 8 0 15 3
15 8 5 78 11 156 16 190 l5 42 45 0 c70 0 136 19 132 39 -4 17 -12 18 -119 6
-46 -5 -68 -4 -73 4 -9 14 -23 14 -32 0z"/>
<path d="M4192 7317 c-13 -16 11 -57 32 -57 21 0 26 25 10 49 -17 24 -27 26
-42 8z"/>
<path d="M1191 7278 c-22 -11 -43 -28 -46 -37 -3 -10 -18 -24 -33 -32 -38 -20
-42 -27 -42 -89 0 -30 -9 -82 -21 -116 -23 -64 -20 -114 5 -114 24 0 48 52 53
114 l5 62 33 -4 c29 -3 40 2 77 39 48 48 78 103 78 142 0 47 -51 64 -109 35z
m65 -42 c6 -16 -49 -96 -78 -115 -19 -12 -48 -5 -48 13 0 6 6 23 14 38 11 20
11 28 3 32 -7 2 -4 5 6 5 11 1 30 10 44 21 30 24 51 26 59 6z"/>
<path d="M1583 7250 c-53 -32 -69 -83 -35 -112 25 -23 75 -31 142 -23 46 5 59
11 63 26 5 18 0 19 -71 17 -43 -1 -83 1 -90 6 -24 15 -11 37 33 57 25 11 45
26 45 34 0 22 -49 19 -87 -5z"/>
<path d="M1380 7210 c-24 -47 -24 -103 0 -108 25 -4 57 137 33 145 -7 2 -21
-14 -33 -37z"/>
<path d="M3520 7209 c-14 -6 -41 -12 -60 -13 -28 -1 -35 -5 -35 -21 0 -15 8
-21 30 -23 43 -3 150 31 150 49 0 18 -50 22 -85 8z"/>
<path d="M2083 7184 c-7 -18 15 -36 34 -29 16 6 74 -15 68 -24 -12 -20 29 -4
42 16 21 32 11 39 -70 46 -56 5 -69 4 -74 -9z"/>
<path d="M5072 7194 c-24 -10 -44 -65 -37 -100 11 -64 74 -75 121 -23 18 20
19 20 29 -28 6 -26 8 -68 5 -93 -5 -43 -7 -45 -42 -51 -54 -8 -68 -24 -68 -76
0 -74 40 -130 84 -119 26 6 42 38 54 106 6 33 13 46 27 48 51 10 65 57 15 50
-29 -4 -30 -4 -30 38 0 24 -5 44 -12 47 -10 4 -10 6 0 6 17 1 15 44 -7 126
l-18 70 -54 2 c-30 1 -60 -1 -67 -3z m67 -43 c16 -11 0 -45 -29 -61 -27 -15
-30 -13 -30 20 0 37 30 59 59 41z m36 -326 c-3 -14 -7 -36 -10 -50 -3 -14 -9
-25 -14 -25 -11 0 -31 47 -31 75 0 21 5 25 30 25 27 0 30 -3 25 -25z"/>
<path d="M4287 7163 c-4 -3 -7 -14 -7 -23 0 -8 -9 -33 -20 -55 -43 -84 -13
-91 60 -14 31 33 64 59 74 59 15 0 17 -6 11 -54 -8 -60 7 -84 32 -51 16 23 17
117 1 133 -15 15 -63 16 -90 1 -14 -8 -23 -8 -31 0 -13 13 -21 14 -30 4z"/>
<path d="M4170 7114 c-13 -34 -13 -91 1 -100 15 -9 32 10 34 38 2 13 6 38 10
56 7 28 5 32 -14 32 -14 0 -25 -9 -31 -26z"/>
<path d="M3878 3904 c-48 -24 -61 -49 -33 -60 8 -3 28 4 45 16 l30 21 -2 -25
c-1 -14 -8 -26 -15 -26 -7 0 -13 -6 -13 -14 0 -7 -7 -19 -15 -26 -9 -7 -14
-19 -11 -27 3 -8 2 -11 -4 -8 -5 3 -34 -27 -66 -66 -50 -62 -55 -73 -42 -86
13 -12 19 -11 47 13 37 31 62 22 40 -14 -10 -17 -10 -23 0 -36 16 -19 41 -21
41 -4 0 6 7 19 16 29 14 16 14 20 0 48 -9 16 -24 34 -33 39 -15 9 -12 14 18
50 47 56 104 164 96 185 -9 24 -44 20 -99 -9z"/>
<path d="M4295 3870 c-3 -6 -3 -19 0 -31 4 -13 1 -25 -8 -32 -19 -15 -68 -140
-75 -189 -3 -29 -1 -39 12 -44 24 -9 34 4 38 56 1 25 6 47 9 50 6 5 52 118 64
159 9 30 -24 56 -40 31z"/>
<path d="M5487 3794 c-12 -12 -8 -54 6 -54 6 0 4 -5 -5 -11 -10 -5 -18 -18
-18 -28 0 -10 -7 -35 -16 -56 -19 -47 -21 -94 -4 -105 19 -12 30 -3 30 25 0
13 8 46 19 72 25 65 32 156 11 161 -9 1 -19 0 -23 -4z"/>
<path d="M4636 3649 c-24 -19 -26 -24 -14 -36 16 -16 48 -8 48 12 0 7 5 15 11
17 7 2 6 8 -3 16 -12 10 -20 8 -42 -9z"/>
<path d="M3960 3615 c-10 -11 -10 -19 -2 -27 15 -15 44 -2 40 19 -4 23 -22 27
-38 8z"/>
<path d="M6317 7603 c-4 -3 -7 -926 -7 -2050 l0 -2043 1540 0 1540 0 0 -32 c0
-17 -9 -66 -21 -109 l-21 -77 -46 -6 c-26 -3 -56 -5 -67 -3 -14 1 -20 -4 -20
-18 0 -17 8 -20 58 -23 l58 -3 -6 -37 c-4 -20 -13 -54 -21 -75 -15 -41 -12
-57 11 -57 15 0 45 59 45 89 0 9 5 32 10 52 10 36 12 37 70 43 34 4 58 11 55
16 -3 6 1 7 10 3 13 -4 16 -1 13 13 -4 21 -26 23 -89 11 l-37 -8 15 52 c13 43
13 53 2 60 -11 7 -11 9 2 9 19 0 34 56 23 84 -6 15 89 16 1215 16 l1221 0 0
2050 0 2050 -2773 0 c-1526 0 -2777 -3 -2780 -7z m5543 -193 l0 -190 -22 0
c-36 -1 -105 -36 -118 -60 -8 -16 -9 -29 -1 -48 5 -15 13 -43 16 -62 l6 -35
-50 0 c-63 0 -96 -25 -69 -51 15 -15 18 -15 38 -1 19 13 27 14 60 2 34 -12 40
-12 54 4 12 13 13 27 6 76 -5 33 -12 69 -15 81 -7 21 7 31 73 49 l22 6 0
-1830 0 -1831 -2770 0 -2770 0 0 2040 0 2040 2770 0 2770 0 0 -190z"/>
<path d="M6763 7419 c-131 -25 -208 -62 -174 -83 5 -4 3 -26 -5 -53 -19 -62
-18 -93 5 -158 11 -31 15 -57 10 -60 -5 -4 -9 -13 -9 -21 0 -12 17 -15 98 -14
126 2 194 16 190 38 -4 19 -5 19 -153 7 l-90 -8 -1 34 c-1 19 -5 50 -9 70 -9
45 0 49 120 62 24 2 39 23 29 38 -4 7 -21 9 -48 4 -111 -19 -101 -21 -101 19
0 22 5 36 13 36 6 0 12 4 12 9 0 5 25 15 55 22 30 7 53 15 51 18 -2 3 21 7 51
8 63 2 86 15 63 36 -13 12 -30 11 -107 -4z"/>
<path d="M9660 7385 c0 -24 26 -35 82 -35 57 0 58 0 58 -29 0 -16 -14 -67 -30
-112 -32 -85 -36 -134 -12 -134 15 0 81 177 89 238 l5 37 59 1 c80 2 82 2 86
16 7 19 -8 21 -179 26 -113 2 -158 0 -158 -8z"/>
<path d="M8429 7363 c-75 -39 -76 -58 -4 -134 65 -68 68 -92 16 -123 -32 -18
-34 -18 -62 -2 -46 27 -66 3 -29 -34 55 -55 195 21 176 96 -4 14 -29 50 -56
79 -28 28 -50 55 -50 58 0 18 62 37 100 31 33 -5 40 -4 40 9 0 15 -47 47 -68
47 -4 0 -33 -12 -63 -27z"/>
<path d="M11314 7382 c-6 -4 -17 -30 -23 -59 -12 -50 -14 -52 -54 -60 -33 -7
-43 -13 -45 -32 -3 -22 -1 -23 37 -16 26 4 41 3 41 -4 0 -6 -11 -44 -24 -85
-23 -74 -21 -104 6 -93 12 4 36 68 64 170 4 12 16 17 40 17 23 0 37 6 41 16 7
19 -13 34 -44 34 -26 0 -30 21 -13 66 12 30 -5 60 -26 46z"/>
<path d="M8770 7360 c-25 -5 -71 -9 -102 -9 -52 -1 -58 -3 -58 -22 0 -18 5
-20 38 -18 61 3 82 0 82 -15 0 -7 -13 -57 -30 -110 -27 -88 -30 -126 -10 -126
19 0 33 37 77 201 l15 56 56 9 c40 6 57 13 57 24 0 18 -56 22 -125 10z"/>
<path d="M9129 7333 c-64 -170 -93 -233 -102 -230 -15 4 -53 80 -67 135 -9 35
-15 43 -31 40 -16 -2 -31 -27 -60 -96 -40 -94 -46 -137 -20 -137 8 0 18 11 22
25 4 14 18 49 31 79 24 54 25 54 31 25 8 -43 70 -128 95 -132 13 -2 26 6 37
21 19 29 115 266 115 285 0 24 -40 13 -51 -15z"/>
<path d="M7279 7294 c-9 -11 -10 -20 -2 -32 16 -25 38 -20 41 9 4 31 -20 45
-39 23z"/>
<path d="M10210 7254 c-11 -25 -20 -50 -20 -55 0 -5 -18 -9 -41 -9 -33 0 -40
-3 -37 -17 2 -10 13 -19 26 -21 20 -3 22 -7 16 -38 -8 -46 2 -81 28 -95 55
-30 135 -16 107 18 -7 8 -18 12 -26 9 -7 -3 -24 -1 -38 4 -19 7 -25 17 -25 39
0 50 9 61 49 61 55 0 81 10 81 31 0 16 -8 19 -46 19 -40 0 -45 2 -39 18 4 9 9
32 12 50 9 51 -23 42 -47 -14z"/>
<path d="M11459 7222 c-34 -31 -42 -46 -46 -84 -5 -40 -2 -50 20 -72 26 -26
67 -35 67 -16 0 6 5 10 11 10 5 0 7 -6 3 -12 -5 -10 -4 -10 6 -1 17 15 6 30
-29 38 -16 3 -32 13 -35 22 -4 9 -5 16 -4 17 2 1 14 10 27 21 14 11 21 14 17
7 -7 -11 -4 -12 12 -3 32 17 44 75 20 99 -18 18 -25 15 -69 -26z"/>
<path d="M11027 7232 c-24 -27 -21 -53 13 -98 35 -46 38 -64 9 -57 -17 5 -20
2 -17 -17 4 -31 54 -39 74 -13 21 28 17 45 -21 98 -30 44 -33 51 -20 65 11 13
12 19 3 28 -16 16 -22 15 -41 -6z"/>
<path d="M7051 7203 c-17 -21 -32 -44 -32 -53 -1 -8 -4 -1 -8 15 -4 21 -12 30
-26 30 -17 0 -20 -6 -18 -40 10 -206 16 -281 23 -289 5 -5 16 -6 25 -2 14 5
16 17 12 66 -7 86 -1 102 34 95 42 -9 84 17 109 70 26 53 21 85 -17 121 -37
34 -66 31 -102 -13z m83 -34 c13 -19 13 -25 -2 -55 -16 -34 -50 -53 -71 -39
-18 11 -12 54 11 85 26 35 42 38 62 9z"/>
<path d="M9982 7233 c-20 -3 -38 -13 -49 -29 -15 -23 -14 -27 15 -74 33 -53
29 -58 -28 -39 -42 15 -61 -7 -29 -33 25 -21 108 -25 127 -6 18 18 15 30 -17
79 -16 24 -27 47 -24 52 3 5 19 8 37 7 49 -3 56 -1 56 15 0 12 -45 40 -53 33
-1 0 -17 -3 -35 -5z"/>
<path d="M11604 7183 c-9 -32 -17 -74 -18 -93 -1 -29 3 -35 19 -35 16 0 21 10
27 50 12 74 18 98 25 92 3 -3 11 0 18 6 17 16 0 37 -31 37 -20 0 -26 -9 -40
-57z"/>
<path d="M7453 7210 c-27 -11 -63 -66 -63 -96 0 -12 9 -32 19 -45 17 -21 28
-24 90 -24 44 0 75 5 83 13 20 20 -8 32 -75 30 -68 -2 -83 11 -62 53 10 18 26
30 52 36 47 11 52 37 8 40 -16 1 -40 -2 -52 -7z"/>
<path d="M10744 7186 c-60 -60 -39 -116 42 -116 24 0 44 -4 44 -10 0 -5 9 -14
21 -21 30 -16 48 4 31 32 -11 18 -11 24 4 40 17 19 13 49 -6 49 -6 0 -9 4 -5
9 9 16 -37 51 -68 51 -20 0 -40 -11 -63 -34z m89 -20 c33 -25 23 -40 -36 -51
-33 -6 -37 -5 -37 13 0 11 10 27 23 35 27 19 28 20 50 3z"/>
<path d="M10445 7199 c-4 -5 -17 -14 -30 -19 -15 -6 -25 -20 -28 -42 -3 -18
-9 -48 -13 -66 -6 -31 -5 -33 17 -30 18 2 28 15 42 53 24 66 37 82 49 60 5 -9
7 -28 3 -44 -4 -19 -1 -32 10 -41 13 -10 22 -5 60 36 l45 49 -6 -41 c-5 -31
-2 -45 11 -58 16 -16 19 -16 34 -2 11 11 12 19 4 27 -7 7 -8 23 -3 46 10 41 5
59 -17 67 -18 7 -83 -22 -83 -38 -1 -6 -7 4 -15 22 -11 26 -20 32 -44 32 -16
0 -33 -5 -36 -11z"/>
<path d="M8028 7185 c-4 -4 -72 -12 -130 -15 -11 0 -10 -38 1 -44 10 -6 168
18 177 27 12 11 -5 37 -24 37 -10 0 -21 -2 -24 -5z"/>
<path d="M9204 7181 c-2 -2 -4 -13 -4 -23 0 -16 9 -18 78 -18 77 0 128 17 109
37 -9 8 -175 12 -183 4z"/>
<path d="M7256 7158 c-11 -35 -15 -84 -7 -97 17 -26 41 -4 43 39 0 22 1 46 2
52 1 17 -33 23 -38 6z"/>
<path d="M9736 4145 c-9 -9 -17 -21 -17 -26 -1 -5 -2 -12 -3 -16 0 -5 -13 -24
-27 -43 -14 -19 -32 -50 -39 -68 -14 -35 -28 -38 -82 -17 -12 5 -25 -8 -51
-47 -19 -29 -38 -63 -41 -75 -8 -24 12 -71 38 -92 14 -12 13 -17 -9 -43 -35
-42 -57 -87 -51 -104 9 -23 36 -16 47 13 6 15 25 47 42 70 25 33 39 42 62 43
57 0 115 53 115 104 0 7 -11 30 -25 50 l-25 37 28 57 c16 31 40 78 55 103 23
39 25 48 13 58 -11 9 -17 8 -30 -4z m-126 -241 c0 -25 -52 -115 -64 -111 -6 2
-15 15 -20 30 -8 21 -5 33 15 61 26 38 69 50 69 20z m60 -71 c0 -21 -25 -43
-49 -43 -6 0 -1 20 11 45 22 46 38 45 38 -2z"/>
<path d="M10640 4108 c-11 -18 -20 -38 -20 -44 0 -6 -9 -19 -19 -28 -11 -10
-25 -31 -31 -46 -10 -24 -15 -28 -30 -20 -15 8 -28 3 -62 -23 -23 -18 -48 -44
-55 -57 -19 -37 -16 -84 6 -104 20 -18 19 -19 -17 -92 -31 -64 -35 -76 -22
-84 8 -5 18 -10 22 -10 3 0 23 35 43 78 36 78 37 79 77 80 45 2 95 33 108 67
9 23 3 65 -9 65 -3 0 -12 13 -19 29 -12 26 -11 35 9 73 12 24 34 61 49 83 15
22 25 46 23 53 -8 22 -33 13 -53 -20z m-119 -210 c-17 -44 -46 -88 -56 -84
-17 6 -7 58 16 82 29 31 52 32 40 2z m79 -49 c0 -20 -36 -49 -62 -49 -15 0
-14 6 9 52 24 48 27 50 39 33 8 -10 14 -27 14 -36z"/>
<path d="M8842 4098 c-17 -23 -61 -115 -56 -120 2 -3 -2 -11 -10 -17 -11 -9
-20 -10 -35 -2 -51 28 -122 4 -167 -55 -46 -59 -33 -126 28 -146 6 -2 -5 -24
-26 -52 -28 -37 -36 -57 -34 -80 4 -41 29 -41 40 0 4 17 15 37 23 44 8 7 15
17 15 23 0 21 55 55 99 62 113 17 164 93 101 150 -19 17 -18 20 21 97 37 74
44 108 21 108 -5 0 -14 -6 -20 -12z m-109 -185 c4 -2 2 -14 -5 -26 -7 -12 -11
-25 -10 -29 1 -5 -3 -8 -8 -8 -6 0 -23 -14 -39 -32 -28 -31 -29 -32 -55 -15
-30 20 -33 38 -10 73 30 44 85 61 127 37z m65 -61 c2 -15 -6 -25 -28 -37 -46
-24 -54 -15 -23 28 28 40 46 43 51 9z"/>
<path d="M10985 4036 c-24 -17 -22 -67 4 -110 12 -18 21 -36 21 -38 0 -3 -18
-13 -40 -23 -22 -10 -37 -21 -35 -25 3 -5 -2 -10 -10 -14 -25 -9 -17 -46 17
-78 30 -28 37 -30 87 -26 46 4 59 10 83 37 32 35 31 60 -2 95 -18 19 -18 20
28 41 71 34 104 81 76 110 -9 8 -28 15 -44 15 -15 0 -41 7 -56 15 -36 19 -104
19 -129 1z m88 -53 c-35 -14 -42 -30 -18 -40 13 -4 51 7 119 36 5 2 6 -2 2 -8
-8 -12 -99 -61 -113 -61 -10 0 -53 63 -53 77 0 14 34 20 70 14 25 -4 24 -5 -7
-18z m3 -158 c21 -32 8 -50 -41 -59 -49 -9 -75 7 -72 45 2 25 6 30 24 26 12
-2 28 0 35 4 22 14 37 10 54 -16z"/>
<path d="M10833 4033 c-7 -3 -13 -18 -13 -35 0 -16 -8 -42 -18 -56 -30 -43
-65 -139 -58 -157 6 -17 41 -17 42 0 2 35 21 86 46 123 34 50 46 103 26 119
-7 6 -19 8 -25 6z"/>
<path d="M9003 4018 c-13 -6 -23 -14 -23 -17 0 -4 -9 -7 -21 -8 -25 -2 -49
-21 -49 -38 0 -16 25 -26 36 -15 5 4 30 17 56 28 41 18 46 18 41 4 -16 -44
-58 -95 -117 -143 -35 -30 -65 -60 -65 -67 -1 -19 22 -24 54 -12 22 8 31 7 46
-6 19 -17 60 -16 67 3 2 7 -8 17 -21 22 -41 16 -42 30 -3 70 20 20 36 42 36
49 0 7 4 12 8 12 11 0 42 66 42 88 0 39 -41 52 -87 30z m47 -88 c0 -5 -5 -10
-11 -10 -5 0 -7 5 -4 10 3 6 8 10 11 10 2 0 4 -4 4 -10z"/>
<path d="M9417 4024 c-4 -4 -7 -14 -7 -22 0 -8 -13 -42 -30 -76 -38 -79 -53
-145 -35 -153 22 -8 32 4 44 53 7 26 26 74 43 107 23 44 29 64 21 75 -11 19
-27 25 -36 16z"/>
<path d="M10185 4007 c-78 -31 -115 -63 -99 -88 9 -16 30 -10 54 16 21 23 103
45 116 32 8 -8 -25 -68 -55 -100 -14 -16 -43 -37 -63 -48 -47 -24 -72 -57 -56
-76 8 -11 17 -9 44 8 l33 20 29 -21 c39 -29 87 -32 87 -5 0 12 -8 21 -20 23
-11 2 -28 11 -37 19 -17 15 -16 18 17 54 70 77 87 151 39 169 -32 12 -51 12
-89 -3z"/>
<path d="M9112 3778 c-18 -18 -14 -38 7 -38 22 0 45 25 36 40 -8 13 -28 13
-43 -2z"/>
<path d="M9790 3775 c-15 -18 -6 -45 14 -45 22 0 38 34 24 48 -16 16 -23 15
-38 -3z"/>
<path d="M8146 3478 c-3 -7 -4 -22 -4 -33 1 -11 1 -48 0 -81 l-2 -61 -50 -7
c-42 -6 -50 -10 -50 -28 0 -19 4 -20 49 -15 l49 6 -10 -42 c-5 -23 -18 -70
-29 -104 l-21 -63 -81 0 c-77 0 -80 1 -59 16 32 22 27 49 -18 85 -44 36 -41
52 10 63 21 4 30 11 30 26 0 48 -112 -1 -118 -52 -2 -20 5 -32 32 -53 43 -33
37 -49 -14 -41 -43 7 -53 0 -39 -25 9 -18 -12 -19 -753 -21 -469 -2 -665 -5
-508 -8 140 -3 250 -7 244 -8 -19 -4 -39 -87 -86 -357 -2 -14 3 -20 17 -20 26
0 38 37 60 180 18 118 18 121 30 148 4 9 5 26 2 37 -5 19 16 19 2192 20 l2197
0 -1 -27 c0 -37 21 -40 40 -4 l16 31 297 2 c163 1 249 4 190 5 l-107 4 25 36
c13 20 27 48 31 62 3 14 11 32 17 40 6 7 11 37 12 65 1 28 14 87 28 131 31 97
31 95 6 95 -24 0 -34 -21 -64 -144 -19 -75 -26 -91 -47 -98 -13 -5 -34 -19
-46 -30 -18 -17 -23 -18 -23 -6 0 52 -75 41 -141 -21 -43 -42 -51 -81 -22
-113 15 -17 13 -18 -65 -18 -45 0 -82 4 -82 9 0 5 9 37 19 72 10 35 22 76 25
92 6 25 10 27 57 27 43 0 50 3 47 18 -2 12 -15 18 -45 20 l-42 3 15 51 c11 35
12 54 5 61 -17 17 -38 -9 -51 -62 -11 -45 -14 -49 -58 -62 -37 -11 -48 -19
-50 -38 -6 -36 17 -51 35 -23 15 21 43 31 43 14 0 -5 -6 -30 -14 -55 -8 -26
-13 -47 -11 -47 1 0 -3 -17 -10 -37 l-13 -38 -157 -3 -157 -3 6 23 c8 28 47
189 49 203 1 6 6 13 10 16 5 4 10 18 10 33 1 14 8 28 15 31 6 2 12 11 12 19 0
8 9 21 20 29 24 17 17 47 -10 47 -16 0 -32 -14 -36 -30 0 -3 -15 -35 -32 -72
-18 -37 -44 -119 -59 -183 l-28 -115 -883 0 -883 0 20 26 c12 15 21 39 21 54
0 27 -21 55 -33 45 -4 -3 -5 -2 -2 2 3 4 -7 19 -22 35 -25 27 -26 28 -6 28 28
0 58 29 44 43 -15 15 -79 -1 -95 -25 -19 -26 -8 -51 40 -91 41 -34 42 -41 8
-72 -21 -19 -30 -22 -45 -14 -22 11 -39 4 -39 -17 0 -10 -13 -14 -53 -14 -49
0 -53 2 -66 31 -11 26 -11 36 4 75 12 33 14 48 6 58 -6 7 -8 16 -4 19 11 12
-19 37 -44 37 -35 0 -75 -24 -112 -65 -34 -39 -40 -79 -17 -110 12 -17 37 -18
94 -3 8 1 18 -7 23 -19 l8 -23 -239 0 c-132 0 -240 3 -240 8 0 17 62 112 82
126 27 19 34 8 20 -32 -20 -58 9 -68 60 -21 51 47 93 75 86 58 -32 -87 -33
-89 -15 -106 20 -21 34 -10 40 32 2 17 11 47 20 67 39 86 -33 96 -119 16 l-21
-19 5 27 c9 47 -39 59 -91 22 -18 -13 -33 -22 -34 -20 -12 11 -26 -9 -54 -78
l-33 -80 -89 0 c-88 0 -89 0 -83 23 4 12 17 59 29 103 l21 82 50 6 c87 10 90
46 3 46 l-52 0 0 87 c0 76 -2 88 -18 91 -9 2 -19 -2 -21 -10z m3129 -218 c3
-5 1 -10 -4 -10 -6 0 -11 5 -11 10 0 6 2 10 4 10 3 0 8 -4 11 -10z m-2430 -71
c-23 -44 -92 -80 -102 -53 -5 15 45 74 71 84 36 13 47 2 31 -31z m2825 -9 c0
-18 -27 -65 -46 -81 -16 -13 -17 -11 -11 20 7 34 32 71 49 71 4 0 8 -5 8 -10z
m-98 -75 c-3 -49 -6 -55 -26 -55 -11 0 -27 9 -34 20 -7 11 -21 20 -32 20 -36
0 -21 16 38 43 31 14 57 26 57 26 0 1 -2 -24 -3 -54z"/>
<path d="M2820 3425 c-14 -36 -13 -65 2 -65 9 0 9 -3 0 -12 -7 -7 -12 -26 -12
-43 0 -25 -4 -31 -22 -32 -49 -4 -69 -14 -66 -31 3 -13 13 -16 47 -14 l43 3
-6 -55 c-5 -38 -4 -56 5 -62 30 -18 54 76 27 105 -10 11 -10 13 0 7 7 -4 12
-1 12 9 0 11 6 14 24 9 13 -3 27 -1 31 6 9 15 -13 40 -36 40 -11 0 -19 7 -19
16 0 8 -4 12 -10 9 -15 -9 -12 1 4 18 8 7 15 36 17 63 3 40 1 49 -13 52 -12 2
-21 -6 -28 -23z"/>
<path d="M7520 3430 c-25 -4 -112 -10 -194 -13 -82 -4 -154 -11 -160 -17 -13
-13 -29 -13 -21 0 4 6 -13 10 -44 10 -51 0 -72 -13 -52 -33 8 -8 50 -11 122
-10 l110 1 -7 -31 c-4 -18 -19 -71 -35 -119 -37 -115 -40 -153 -15 -153 12 0
22 9 26 25 20 77 21 80 5 80 -8 0 -15 4 -15 10 0 5 6 7 14 4 18 -7 21 -2 49
97 28 95 29 96 138 98 90 2 150 13 156 28 5 13 -13 34 -27 32 -3 -1 -25 -5
-50 -9z"/>
<path d="M2395 3418 c-5 -15 -41 -204 -50 -265 -4 -24 -11 -43 -16 -43 -19 0
-21 -31 -3 -45 17 -13 8 -14 -78 -15 -63 0 -98 4 -98 11 0 6 8 8 20 4 44 -14
112 47 131 118 16 59 -7 117 -46 117 -22 0 -77 -51 -71 -67 3 -8 1 -11 -4 -8
-5 3 -19 -14 -31 -37 -12 -24 -24 -45 -28 -48 -3 -3 -7 -18 -9 -35 -5 -56 -1
-55 -156 -55 l-145 0 14 41 c22 61 26 63 43 27 20 -38 46 -47 72 -23 17 16 19
15 30 -4 13 -25 60 -29 60 -6 0 8 -5 15 -11 15 -6 0 -9 14 -7 33 3 27 0 32
-21 35 -13 2 -36 -6 -52 -17 -15 -12 -34 -21 -41 -21 -10 0 -10 2 1 9 9 6 11
18 7 35 -7 30 -28 42 -53 31 -10 -5 -28 -7 -40 -6 -20 2 -23 -2 -23 -31 0 -19
-7 -43 -15 -54 -8 -10 -15 -29 -15 -41 0 -22 -4 -23 -71 -23 l-72 0 27 21 c29
23 32 42 12 82 -13 24 -13 27 0 27 25 0 11 34 -19 48 -56 27 -137 -29 -137
-94 0 -29 35 -72 63 -77 12 -2 -9 -5 -47 -6 -53 -1 -72 3 -80 15 -13 17 -77
33 -137 34 -64 0 -134 27 -147 55 -19 41 -14 88 14 131 55 84 123 104 202 58
30 -18 47 -23 54 -16 18 18 2 37 -56 66 -43 22 -65 27 -93 23 -51 -9 -107 -51
-145 -110 -39 -60 -43 -125 -11 -179 20 -35 81 -65 143 -70 19 -1 -197 -5
-480 -8 l-515 -5 746 -3 c563 -1 748 -5 757 -14 9 -9 15 -9 24 0 8 8 58 12
159 12 l147 0 -1 -82 c-2 -77 -1 -83 18 -83 17 0 20 8 23 60 1 33 4 70 7 83
l5 22 1290 0 c912 0 1290 -3 1290 -11 0 -7 28 -8 88 -4 48 3 294 9 547 13
l460 7 -452 3 c-447 2 -452 2 -458 23 -4 11 -27 43 -51 70 -24 27 -44 55 -44
62 1 32 37 44 82 26 33 -13 60 -5 52 15 -9 23 -61 39 -105 33 -47 -6 -79 -31
-79 -61 0 -25 34 -83 66 -113 39 -36 31 -45 -35 -41 -33 1 -63 0 -67 -5 -4 -4
-22 -7 -41 -7 l-33 0 35 33 c42 38 64 97 37 98 -11 0 -12 2 -4 6 15 6 16 35 0
51 -17 17 -70 15 -94 -3 -29 -22 -34 -18 -34 26 0 59 -30 139 -52 139 -22 0
-23 -25 -3 -73 19 -47 19 -118 0 -164 -18 -43 -14 -63 13 -63 10 0 24 -11 30
-25 l12 -25 -1126 0 -1126 0 20 33 c11 17 22 57 26 87 6 57 7 63 30 170 7 36
11 70 9 77 -7 17 -32 17 -38 1z m-135 -198 c0 -38 -24 -86 -49 -100 -52 -27
-54 5 -6 78 41 59 55 65 55 22z m2440 -41 c0 -30 -33 -84 -53 -85 -10 -1 -24
11 -33 29 -16 29 -15 31 7 49 29 23 61 37 72 31 4 -2 7 -13 7 -24z m-3080 -60
c0 -17 -6 -20 -32 -17 -33 3 -46 23 -34 53 8 21 66 -10 66 -36z"/>
<path d="M6482 3388 c-7 -7 -12 -18 -12 -26 0 -7 -14 -56 -31 -109 -33 -100
-39 -170 -18 -184 21 -12 29 -1 29 39 0 20 16 87 36 148 34 102 39 144 16 144
-4 0 -13 -5 -20 -12z"/>
<path d="M604 3339 c-4 -6 -7 -52 -6 -100 0 -49 -3 -102 -8 -118 -9 -33 12
-63 31 -44 12 12 25 118 24 203 0 52 -3 65 -17 68 -9 2 -19 -2 -24 -9z"/>
<path d="M10035 3286 c-13 -10 -20 -28 -22 -62 -1 -27 -2 -53 -3 -59 0 -5 -5
-17 -10 -25 -8 -13 -11 -12 -24 5 -13 18 -16 19 -31 4 -14 -14 -14 -18 5 -42
28 -35 52 -34 84 4 21 25 26 41 26 86 l0 55 40 -7 c36 -6 40 -5 40 13 0 13
-10 24 -31 31 -41 14 -51 14 -74 -3z"/>
<path d="M9530 3259 c-69 -40 -97 -110 -65 -156 30 -43 151 -55 143 -15 -2 12
-17 19 -51 23 -44 5 -72 23 -62 39 2 4 23 13 45 20 23 8 50 25 61 38 17 22 18
28 5 46 -18 28 -35 30 -76 5z"/>
<path d="M10539 3249 c-16 -17 -29 -40 -29 -50 0 -11 -6 -35 -14 -54 -13 -30
-13 -35 1 -47 13 -10 18 -9 33 10 10 12 21 40 25 62 9 51 29 72 61 64 17 -4
26 -1 30 10 9 22 1 28 -41 33 -31 3 -41 -1 -66 -28z"/>
<path d="M10708 3260 c-15 -11 -38 -41 -53 -67 -22 -41 -24 -51 -14 -75 15
-36 45 -58 81 -58 26 0 29 3 28 38 0 4 -8 7 -18 8 -37 2 -42 4 -42 17 0 8 18
22 41 32 57 26 75 55 57 92 -17 35 -46 40 -80 13z m32 -45 c-7 -8 -17 -15 -22
-15 -6 0 -5 7 2 15 7 8 17 15 22 15 6 0 5 -7 -2 -15z"/>
<path d="M3064 3260 c-29 -11 -56 -57 -57 -95 -2 -74 68 -117 161 -99 37 7 47
13 47 29 0 18 -6 20 -66 17 -51 -3 -70 0 -82 13 -24 23 -22 27 25 50 58 28 70
51 39 76 -25 21 -35 22 -67 9z"/>
<path d="M2514 3252 c-6 -4 -16 -17 -23 -29 -33 -63 9 -115 91 -112 93 5 106
49 15 50 -42 0 -47 2 -29 9 29 12 37 35 24 66 -12 24 -53 33 -78 16z"/>
<path d="M3846 3248 c-7 -23 -25 -102 -30 -135 -5 -32 11 -58 29 -45 18 13 65
91 65 108 0 10 3 14 6 11 4 -4 19 2 34 13 16 11 31 20 34 20 4 0 5 -22 4 -49
-2 -27 -6 -47 -9 -45 -11 7 -21 -48 -10 -59 17 -17 38 0 45 35 16 73 18 129 6
143 -21 25 -66 18 -104 -16 l-35 -30 2 28 c1 19 -3 28 -16 31 -9 2 -19 -2 -21
-10z"/>
<path d="M4136 3224 c-41 -41 -53 -75 -40 -113 13 -35 50 -53 102 -48 74 8
102 59 68 125 -14 27 -67 72 -85 72 -5 0 -25 -16 -45 -36z m94 -67 c6 -18 7
-34 2 -39 -14 -14 -69 -13 -87 2 -20 16 -19 22 5 52 27 35 65 27 80 -15z"/>
<path d="M9744 3245 c-36 -19 -57 -53 -73 -119 -10 -39 -9 -51 0 -57 7 -4 17
-5 22 -2 11 7 30 53 33 83 2 14 14 35 28 46 20 18 31 20 65 14 28 -5 44 -3 51
5 26 32 -75 56 -126 30z"/>
<path d="M7414 3235 c-26 -18 -54 -74 -54 -109 0 -61 72 -85 136 -45 41 25 54
47 54 89 0 64 -82 103 -136 65z m91 -54 c6 -16 -20 -57 -47 -74 -40 -26 -67
35 -32 74 19 22 71 22 79 0z"/>
<path d="M7665 3231 c-70 -43 -103 -111 -70 -144 23 -23 57 -21 90 4 20 17 29
19 35 10 10 -18 46 -9 40 10 -2 8 -4 35 -3 62 1 33 -2 47 -12 47 -7 0 -15 7
-19 15 -7 20 -25 19 -61 -4z m28 -62 c-10 -18 -28 -38 -40 -47 -21 -13 -23
-13 -23 6 0 20 52 72 72 72 5 0 2 -14 -9 -31z"/>
<path d="M11032 3200 c-23 -17 -42 -33 -42 -38 1 -23 20 -34 53 -30 33 4 34 3
27 -23 -5 -15 -6 -30 -2 -33 14 -15 30 -2 51 42 21 45 21 49 6 80 -20 40 -40
40 -93 2z"/>
<path d="M6589 3139 c-38 -38 -3 -64 40 -29 25 21 23 50 -4 50 -8 0 -24 -9
-36 -21z"/>
<path d="M664 3105 c-9 -23 3 -45 25 -45 22 0 34 33 18 49 -16 16 -37 14 -43
-4z"/>
<path d="M946 3021 c-4 -5 -11 -58 -16 -118 -17 -173 -29 -265 -40 -305 l-11
-38 -306 0 c-169 0 -304 -2 -301 -5 3 -3 513 -5 1133 -5 998 0 1130 -2 1145
-15 15 -14 18 -14 30 0 18 21 210 22 210 1 0 -26 23 -30 41 -8 17 21 24 22
217 22 l200 0 4 -30 c6 -39 -1 -48 -36 -45 -38 5 -75 -14 -82 -41 -11 -45 54
-134 98 -134 19 0 58 66 58 99 0 11 9 22 20 26 23 7 27 33 5 41 -10 4 -15 20
-15 45 l0 39 1263 2 1262 3 -1060 5 c-583 3 -1053 6 -1045 8 19 3 49 29 78 66
35 45 26 116 -15 116 -7 0 -29 -15 -49 -32 l-37 -33 7 113 c7 128 2 162 -25
162 -22 0 -26 -38 -8 -71 8 -15 7 -24 -2 -35 -8 -10 -13 -59 -15 -136 -2 -66
-8 -126 -14 -133 -5 -6 -7 -15 -3 -19 4 -3 -74 -5 -173 -4 l-179 3 -1 65 c-1
59 -3 65 -23 64 -11 0 -19 2 -16 4 12 12 -20 32 -51 32 -23 0 -44 -9 -66 -29
-32 -28 -32 -29 -15 -55 13 -20 26 -26 52 -26 18 0 37 5 41 12 10 15 34 -19
34 -49 0 -22 -3 -23 -86 -23 l-86 0 7 98 c9 130 6 243 -6 258 -20 24 -40 4
-33 -33 3 -18 3 -99 -1 -178 l-7 -145 -88 0 -87 0 -6 62 c-6 68 -3 78 15 60
15 -15 45 -15 54 0 4 6 -1 17 -11 25 -22 15 -39 17 -30 3 3 -5 2 -10 -4 -10
-21 0 -39 47 -46 120 -9 92 -19 120 -42 120 -28 -1 -75 -72 -149 -225 -37 -77
-73 -143 -78 -147 -6 -4 -334 -8 -728 -8 l-718 0 0 28 c0 31 33 108 57 135 24
25 3 46 -30 28 -25 -14 -66 -106 -70 -158 l-2 -33 -67 0 c-38 0 -68 2 -68 4 0
2 7 37 15 77 17 86 39 365 30 379 -8 13 -22 13 -29 1z m1834 -196 c0 -25 4
-45 8 -45 5 0 7 -13 4 -30 -4 -29 -6 -30 -53 -30 -27 0 -49 2 -49 5 0 4 7 19
15 35 9 17 11 30 5 30 -5 0 -10 5 -10 10 0 6 6 10 14 10 8 0 23 14 33 30 24
42 33 38 33 -15z m989 -157 c-7 -12 -12 -27 -10 -33 1 -5 -1 -7 -5 -3 -4 4
-13 3 -21 -4 -30 -24 -24 5 7 37 37 38 49 40 29 3z m-1024 8 c53 7 53 6 57
-22 2 -16 1 -44 -1 -61 l-3 -33 -94 0 c-52 0 -94 2 -94 5 0 3 10 25 21 48 24
46 52 79 57 66 2 -5 28 -6 57 -3z m470 5 c-6 -5 -23 -12 -40 -16 -29 -6 -29
-6 -11 9 21 17 67 23 51 7z m35 -261 c0 -18 -23 -70 -31 -70 -9 0 -39 52 -39
69 0 11 38 19 58 13 6 -2 12 -7 12 -12z"/>
<path d="M9846 2878 c-15 -33 -38 -100 -51 -147 -13 -47 -30 -105 -37 -128
l-12 -43 -53 0 c-48 0 -53 2 -53 23 0 12 7 33 16 45 8 12 14 32 12 45 -2 17
-10 22 -34 22 -17 0 -38 6 -47 14 -14 11 -22 10 -54 -6 -69 -36 -46 -94 28
-73 47 14 51 13 39 -9 -5 -11 -10 -29 -10 -40 0 -21 -3 -21 -297 -20 -164 1
-284 4 -268 8 61 15 138 69 161 112 22 43 18 75 -13 99 -41 32 -88 22 -135
-29 -20 -21 -45 -38 -55 -37 -15 1 -18 -7 -20 -48 -1 -27 -7 -61 -14 -77 l-11
-29 -439 0 -438 0 -3 38 c-3 35 5 109 13 116 2 2 32 6 67 9 l63 4 -30 -31
c-53 -55 -36 -86 47 -86 102 0 161 25 146 64 -7 18 -96 66 -122 66 -12 0 -24
5 -27 10 -3 6 -35 10 -71 10 l-65 0 16 29 c8 17 12 36 9 44 -3 8 -1 18 5 22 7
3 8 0 5 -9 -3 -9 -3 -16 0 -16 10 0 33 64 28 78 -10 29 -35 7 -67 -62 l-35
-75 -47 -3 c-40 -3 -48 -6 -48 -23 0 -14 7 -20 25 -22 14 0 30 -1 36 -2 7 -1
11 -29 10 -81 l-1 -80 -839 0 -838 0 6 25 c5 18 2 27 -9 32 -25 9 -36 -9 -41
-73 -5 -67 -31 -118 -61 -122 -26 -4 -38 -41 -16 -49 41 -16 107 58 119 133
l6 44 835 0 c740 0 836 -2 850 -15 14 -14 17 -14 32 0 15 13 73 15 444 15 235
0 427 -2 427 -4 0 -2 -9 -25 -20 -51 -11 -26 -18 -51 -14 -56 13 -21 35 -5 70
51 l37 60 1425 0 c784 0 1427 2 1430 5 3 3 -94 5 -216 5 -215 0 -222 1 -222
20 0 11 -7 20 -15 20 -8 0 -19 -9 -25 -20 -8 -16 -21 -20 -59 -20 -46 0 -49 1
-55 31 -10 52 -7 91 14 168 14 48 18 77 11 84 -20 20 -37 -2 -54 -69 -28 -113
-31 -149 -14 -183 l15 -31 -725 0 c-687 0 -725 1 -718 18 3 9 12 33 18 54 15
47 60 64 149 54 75 -7 85 -16 63 -49 -19 -29 -17 -62 4 -62 7 0 24 21 38 47
19 37 22 51 14 67 -11 19 -58 38 -111 43 -23 3 -20 6 23 31 26 15 47 33 47 39
0 6 3 9 6 5 10 -10 64 22 64 39 0 29 -28 25 -91 -13 -35 -22 -90 -53 -121 -71
l-57 -31 16 52 c8 28 24 69 35 89 12 20 18 43 15 52 -12 32 -35 15 -61 -46z
m-696 -169 c-7 -13 -22 -32 -34 -42 -30 -25 -97 -59 -104 -53 -10 11 32 88 62
112 17 13 36 28 41 33 6 6 17 2 29 -9 15 -15 16 -21 6 -41z m-855 -38 c11 -6
-34 -18 -78 -20 -25 -1 -26 1 -15 19 10 16 19 19 48 14 19 -4 40 -9 45 -13z"/>
<path d="M1147 2894 c-16 -16 -7 -44 14 -44 15 0 20 5 17 22 -3 22 -19 33 -31
22z"/>
<path d="M11115 2803 c-46 -120 -46 -233 0 -233 8 0 12 21 11 73 0 57 5 85 27
134 32 73 34 103 10 103 -13 0 -26 -22 -48 -77z"/>
<path d="M6890 2782 c-59 -57 -67 -75 -61 -132 4 -28 50 -60 89 -60 56 0 78 9
91 37 11 24 10 25 -15 19 -87 -22 -124 -14 -124 27 0 23 20 62 20 40 0 -22 30
-14 76 19 51 37 67 74 39 95 -32 23 -54 15 -115 -45z m70 4 c0 -2 -8 -10 -17
-17 -16 -13 -17 -12 -4 4 13 16 21 21 21 13z"/>
<path d="M8834 2829 c-17 -5 -39 -18 -49 -29 -17 -19 -18 -22 -2 -55 9 -19 28
-42 42 -51 14 -9 25 -20 25 -24 0 -15 -50 -20 -70 -8 -17 11 -22 10 -30 -1
-12 -21 6 -51 33 -52 37 -2 61 2 90 17 39 21 35 53 -13 97 -22 19 -40 40 -40
46 0 17 51 25 73 12 28 -18 44 0 29 34 -12 27 -33 30 -88 14z"/>
<path d="M7393 2800 c-12 -5 -26 -17 -31 -27 -6 -10 -19 -18 -29 -18 -17 0
-24 -24 -36 -120 -4 -40 28 -19 58 36 40 75 53 89 81 89 28 0 34 34 8 44 -19
7 -23 7 -51 -4z"/>
<path d="M10883 2790 c-67 -41 -87 -117 -41 -160 18 -17 33 -20 78 -18 41 2
55 7 55 18 0 11 -12 15 -47 15 -25 0 -44 3 -42 7 2 3 -1 8 -8 10 -7 3 6 17 30
33 46 30 60 61 42 94 -13 26 -26 26 -67 1z"/>
<path d="M7118 2758 c-59 -64 -46 -117 23 -91 26 10 29 9 29 -11 0 -12 -5 -27
-10 -32 -18 -18 14 -38 39 -24 22 11 24 18 21 63 -1 15 6 39 15 53 19 30 13
54 -14 54 -10 0 -21 7 -25 15 -10 26 -38 16 -78 -27z m62 -12 c0 -2 -7 -9 -15
-16 -13 -11 -14 -10 -9 4 5 14 24 23 24 12z"/>
<path d="M9321 2773 c-32 -16 -61 -62 -61 -97 0 -21 46 -65 75 -71 14 -3 36
-7 49 -10 16 -3 26 0 30 11 9 22 -1 34 -29 34 -85 0 -101 75 -22 103 27 10 20
-2 -8 -13 -27 -10 -33 -37 -11 -46 18 -7 68 21 84 47 9 15 9 24 0 39 -16 25
-60 26 -107 3z"/>
<path d="M3389 2767 c-23 -9 -28 -18 -33 -69 -6 -47 -4 -65 9 -85 15 -23 22
-25 70 -21 55 5 90 22 79 40 -4 6 -28 8 -61 4 l-54 -6 3 37 c3 35 5 38 46 46
32 6 42 13 42 27 0 35 -48 48 -101 27z"/>
<path d="M3854 2766 c-3 -8 -4 -47 -2 -88 3 -68 5 -73 27 -76 24 -4 24 -3 18
66 l-7 69 30 -3 c22 -3 30 1 30 11 0 29 -86 48 -96 21z"/>
<path d="M1275 2750 c-26 -28 -64 -112 -58 -127 11 -28 35 -10 60 45 l26 57 8
-30 c5 -16 8 -47 7 -68 -1 -20 3 -42 9 -48 22 -22 33 3 33 72 0 61 -3 73 -25
94 -29 30 -37 31 -60 5z"/>
<path d="M1470 2740 c-15 -16 -33 -30 -38 -30 -20 0 -23 -19 -12 -62 17 -61
35 -78 84 -77 63 2 91 12 91 34 0 16 -5 19 -30 16 -71 -10 -90 -7 -93 16 -2
15 4 23 20 28 55 17 78 74 39 95 -28 14 -30 14 -61 -20z"/>
<path d="M1900 2758 c-19 -5 -41 -17 -47 -26 -18 -23 -17 -118 1 -125 22 -9
37 17 30 52 -10 50 14 69 82 66 41 -2 57 1 61 12 12 31 -53 42 -127 21z"/>
<path d="M10497 2750 c-56 -22 -77 -37 -77 -56 0 -15 31 -19 46 -5 15 13 74
31 74 21 0 -4 -16 -27 -35 -49 -49 -60 -24 -98 36 -53 13 10 36 23 51 29 22
10 26 10 22 -2 -5 -13 28 -55 44 -55 16 0 60 56 64 80 2 14 -4 30 -12 37 -13
11 -13 12 3 13 10 0 17 6 15 13 -3 6 -13 12 -24 12 -15 0 -20 -9 -25 -42 -6
-45 -19 -67 -26 -45 -8 20 -34 43 -44 37 -18 -12 -29 6 -16 25 9 15 9 25 1 38
-15 24 -41 25 -97 2z"/>
<path d="M4050 2718 c-53 -57 -51 -110 4 -116 15 -2 42 6 61 16 32 20 33 20
38 1 11 -41 117 -46 125 -6 3 14 -5 17 -41 17 -41 0 -45 2 -53 32 -13 44 -37
46 -81 7 -23 -20 -39 -27 -41 -20 -6 17 27 51 42 45 9 -3 13 4 12 23 -1 40
-30 41 -66 1z"/>
<path d="M7503 2735 c-12 -8 -28 -13 -35 -10 -25 10 -49 -29 -51 -81 -3 -64
12 -63 61 1 54 71 70 71 68 -1 -1 -43 3 -59 16 -67 24 -16 47 5 30 26 -8 9
-10 31 -6 59 11 77 -28 111 -83 73z"/>
<path d="M1642 2704 c-18 -12 -22 -24 -20 -51 4 -45 27 -62 66 -47 21 8 31 8
41 -3 23 -25 36 -8 37 46 1 66 -18 78 -53 32 -13 -17 -31 -31 -39 -31 -19 0
-18 10 3 25 9 7 14 19 10 29 -8 20 -17 20 -45 0z"/>
<path d="M1652 2063 c762 -2 2013 -2 2780 0 766 1 142 2 -1387 2 -1529 0
-2156 -1 -1393 -2z"/>
<path d="M7702 2063 c764 -2 2012 -2 2775 0 764 1 139 2 -1387 2 -1526 0
-2151 -1 -1388 -2z"/>
<path d="M1652 1063 c762 -2 2013 -2 2780 0 766 1 142 2 -1387 2 -1529 0
-2156 -1 -1393 -2z"/>
<path d="M7692 1063 c762 -2 2013 -2 2780 0 766 1 142 2 -1387 2 -1529 0
-2156 -1 -1393 -2z"/>
<path d="M1652 563 c762 -2 2013 -2 2780 0 766 1 142 2 -1387 2 -1529 0 -2156
-1 -1393 -2z"/>
<path d="M7692 563 c762 -2 2013 -2 2780 0 766 1 142 2 -1387 2 -1529 0 -2156
-1 -1393 -2z"/>
</g>
</svg>
