<?xml version="1.0" standalone="no"?>
<!DOCTYPE svg PUBLIC "-//W3C//DTD SVG 20010904//EN"
 "http://www.w3.org/TR/2001/REC-SVG-20010904/DTD/svg10.dtd">
<svg version="1.0" xmlns="http://www.w3.org/2000/svg"
 width="1214.000000pt" height="1618.000000pt" viewBox="0 0 1214.000000 1618.000000"
 preserveAspectRatio="xMidYMid meet">

<g transform="translate(0.000000,1618.000000) scale(0.100000,-0.100000)"
fill="#000000" stroke="none">
<path d="M260 13490 l0 -2050 846 0 c617 0 843 -3 838 -11 -3 -6 -2 -14 4 -18
6 -3 11 -26 12 -51 3 -80 4 -79 -34 -73 -40 6 -78 -11 -70 -32 4 -10 21 -15
54 -15 l49 0 -6 -88 c-5 -72 -3 -90 10 -101 29 -23 37 -2 37 94 l0 94 38 6
c60 11 72 16 72 30 0 18 -27 26 -66 19 l-34 -6 0 43 c0 24 -4 59 -9 77 l-10
32 230 0 229 0 -1 -87 c0 -49 -4 -131 -8 -183 -4 -52 -5 -105 -3 -117 7 -35
36 -28 51 12 11 32 53 75 73 75 4 0 7 -25 6 -55 -4 -90 33 -104 46 -17 5 34 4
42 -6 36 -9 -5 -9 -3 1 9 23 29 0 67 -42 67 -41 0 -85 -28 -66 -42 11 -8 11
-9 -1 -5 -12 3 -14 22 -12 108 1 57 5 125 8 152 l6 47 727 0 c575 0 728 -3
728 -12 0 -7 4 -52 8 -100 l8 -87 -57 -16 c-43 -13 -56 -21 -54 -33 4 -21 20
-22 77 -6 l44 13 -7 -65 c-4 -35 -11 -75 -16 -88 -10 -27 -5 -36 21 -36 23 0
29 20 36 117 l6 82 41 14 c58 19 55 43 -6 39 l-47 -3 -3 91 -3 90 499 0 499 0
-7 -46 c-3 -26 -6 -76 -6 -111 l0 -64 -63 7 c-56 6 -65 4 -71 -11 -4 -11 -1
-22 6 -27 20 -12 66 -9 71 5 4 9 6 9 6 0 1 -7 12 -13 25 -13 21 0 25 -6 31
-42 11 -63 30 -93 71 -113 42 -20 69 -11 69 21 0 14 -7 19 -29 19 -35 1 -66
36 -66 76 l0 29 74 0 c79 0 103 13 70 37 -14 11 -35 13 -81 8 l-63 -7 0 116 0
116 390 0 390 0 0 2050 0 2050 -2780 0 -2780 0 0 -2050z m5550 0 l0 -2040
-379 0 -378 0 -7 39 c-7 46 -27 57 -57 33 -19 -16 -20 -19 -5 -31 51 -43 144
-41 -2349 -41 l-2365 0 0 2040 0 2040 2770 0 2770 0 0 -2040z"/>
<path d="M1190 15349 c-25 -6 -71 -7 -103 -4 -48 5 -58 3 -64 -11 -4 -10 0
-22 10 -29 19 -13 16 -51 -14 -245 -13 -81 -25 -128 -35 -133 -19 -11 -18 -35
4 -41 9 -3 60 -10 112 -16 52 -6 98 -16 102 -23 5 -9 11 -6 22 8 9 11 16 23
16 27 0 15 -41 28 -92 28 -29 0 -64 3 -77 7 -23 6 -23 8 -17 74 3 37 8 73 11
81 4 9 28 13 89 13 46 0 88 -3 92 -7 13 -13 22 -9 29 12 4 11 10 18 15 15 4
-3 7 3 6 12 -3 19 0 19 -138 11 -36 -1 -69 0 -73 4 -4 3 -4 40 0 81 l7 75 119
18 c98 14 119 21 117 33 -4 19 -71 24 -138 10z"/>
<path d="M1783 15244 c-9 -24 38 -47 51 -25 10 16 -5 41 -25 41 -11 0 -22 -7
-26 -16z"/>
<path d="M2895 15241 c-92 -41 -85 -89 30 -201 99 -95 104 -105 66 -125 -17
-8 -41 -15 -54 -15 -36 0 -87 20 -84 33 1 6 -8 13 -21 15 -20 3 -23 0 -20 -25
6 -58 136 -85 206 -43 67 41 56 77 -53 183 -99 96 -105 117 -45 141 56 22 78
21 82 -6 2 -15 10 -23 23 -23 24 0 34 48 14 71 -16 20 -95 18 -144 -5z"/>
<path d="M3279 15243 c-1 -5 -1 -15 0 -23 1 -12 -17 -20 -71 -30 -52 -11 -73
-19 -73 -30 0 -17 69 -20 119 -5 l29 8 -6 -137 c-5 -116 -4 -138 9 -143 8 -3
18 -3 21 1 4 4 10 68 13 143 l5 137 40 9 c22 5 63 6 91 3 40 -5 53 -3 58 9 9
25 -31 37 -110 33 -63 -3 -74 -1 -78 14 -4 17 -45 26 -47 11z"/>
<path d="M3737 15243 c-7 -12 -25 -107 -41 -213 -8 -52 -20 -108 -26 -125
l-12 -30 -17 21 c-9 11 -23 23 -31 27 -10 3 -11 6 -2 6 8 1 3 20 -17 59 -16
32 -33 75 -36 95 -9 49 -39 86 -55 71 -7 -7 -19 -59 -27 -115 -8 -57 -23 -124
-34 -148 -25 -57 -12 -106 19 -68 18 21 52 135 52 171 0 27 3 34 15 30 8 -4
13 -9 11 -13 -7 -12 79 -164 101 -178 19 -13 24 -12 41 5 29 29 48 93 67 222
10 63 22 123 27 133 11 22 1 57 -17 57 -8 0 -16 -3 -18 -7z"/>
<path d="M4868 15243 c-10 -3 -18 -12 -18 -20 0 -9 8 -22 18 -29 15 -11 17
-34 19 -190 2 -175 7 -200 37 -191 11 4 10 353 -1 370 -4 7 -8 18 -10 26 -3
21 -26 38 -45 34z"/>
<path d="M4257 15181 c-38 -25 -84 -81 -102 -125 -45 -107 9 -203 144 -256 56
-22 175 -28 187 -9 12 20 -13 31 -77 32 -115 3 -229 82 -229 157 1 39 34 101
74 140 32 30 45 36 99 40 46 4 62 9 62 20 0 25 -122 26 -158 1z"/>
<path d="M1473 15155 c-18 -8 -33 -18 -33 -23 0 -5 -13 -22 -30 -38 -16 -16
-30 -39 -30 -51 0 -12 -5 -34 -11 -50 -6 -15 -13 -53 -15 -83 -2 -30 -10 -77
-18 -103 -16 -53 -12 -77 11 -77 17 0 38 48 48 108 4 27 13 45 23 49 63 20
122 57 145 91 38 55 40 117 5 156 -30 32 -56 38 -95 21z m67 -54 c18 -34 11
-69 -20 -104 -29 -33 -85 -65 -96 -55 -3 3 -2 28 2 56 11 86 86 154 114 103z"/>
<path d="M1929 15113 c-34 -29 -68 -94 -69 -131 0 -13 13 -37 29 -53 25 -25
37 -29 83 -28 84 0 131 12 134 31 4 28 -12 31 -81 17 -111 -22 -147 20 -90
104 21 31 30 36 50 31 33 -8 47 23 20 42 -27 20 -39 18 -76 -13z"/>
<path d="M1713 15114 c-3 -9 0 -19 6 -24 10 -5 10 -17 2 -46 -6 -21 -11 -54
-13 -71 -1 -19 -8 -33 -15 -33 -7 0 -10 -7 -7 -15 9 -22 39 -18 52 8 16 33 44
175 37 187 -10 16 -55 12 -62 -6z"/>
<path d="M2385 15036 c-33 -24 -7 -34 95 -38 78 -2 95 0 95 12 0 26 -161 48
-190 26z"/>
<path d="M3955 15025 c-22 -7 -56 -14 -76 -14 -39 -1 -57 -22 -36 -39 27 -23
190 18 185 46 -4 22 -23 23 -73 7z"/>
<path d="M5015 15009 c-68 -19 -85 -128 -29 -180 23 -22 34 -24 106 -22 59 1
85 6 97 18 25 25 -1 34 -85 28 -87 -7 -104 2 -104 57 0 48 19 64 65 56 31 -6
35 -4 35 13 0 11 -9 25 -19 31 -22 11 -25 11 -66 -1z"/>
<path d="M4579 14971 c-53 -53 -31 -141 35 -141 18 0 41 6 51 14 18 13 21 11
37 -15 32 -53 62 -24 34 34 -8 19 -18 51 -20 71 -3 21 -6 39 -8 40 -11 6 -77
26 -87 26 -7 0 -26 -13 -42 -29z m76 -42 c7 -20 -18 -59 -36 -59 -18 0 -30 40
-19 60 14 26 47 26 55 -1z"/>
<path d="M3956 12218 c-8 -18 -22 -52 -31 -75 -18 -44 -52 -62 -94 -48 -24 7
-77 -18 -91 -44 -16 -32 -11 -99 11 -143 l21 -41 -41 -92 c-45 -103 -54 -165
-22 -165 14 0 20 9 24 39 3 22 20 72 38 111 25 55 36 69 48 64 9 -4 32 -9 51
-11 43 -5 103 28 94 52 -4 9 0 15 9 15 9 0 22 18 32 44 20 52 9 110 -29 145
-24 22 -24 24 -9 60 8 20 22 51 29 69 8 18 12 38 9 43 -12 19 -36 8 -49 -23z
m-101 -182 l29 19 -33 -57 c-18 -32 -29 -58 -25 -58 4 0 -1 -7 -12 -14 -17
-14 -20 -13 -31 12 -17 38 -16 78 3 97 15 14 17 14 28 -1 12 -15 15 -15 41 2z
m115 -58 c0 -72 -72 -144 -119 -118 -12 6 -21 12 -21 14 0 2 18 35 40 72 22
38 40 74 40 81 0 21 25 21 43 1 9 -11 17 -34 17 -50z"/>
<path d="M3012 12174 c-12 -8 -22 -26 -22 -39 0 -13 -8 -40 -17 -60 -16 -33
-19 -35 -50 -29 -47 9 -78 -22 -94 -93 -11 -47 -10 -62 5 -106 17 -52 17 -52
-8 -107 -52 -114 -59 -200 -17 -200 16 0 19 7 19 43 0 23 12 73 27 112 l28 70
56 0 c88 0 151 57 151 136 0 34 -55 99 -84 99 -21 0 -21 -2 13 72 40 88 41 95
27 107 -9 7 -19 6 -34 -5z m18 -64 c0 -5 -5 -10 -11 -10 -5 0 -7 5 -4 10 3 6
8 10 11 10 2 0 4 -4 4 -10z m-125 -186 c-29 -70 -34 -73 -35 -19 0 46 2 50 25
51 24 2 24 1 10 -32z m120 11 c30 -29 31 -40 5 -82 -27 -45 -120 -68 -120 -29
0 6 13 39 30 74 32 69 48 75 85 37z"/>
<path d="M4901 12098 c-5 -13 -15 -38 -21 -55 -9 -24 -19 -33 -34 -33 -48 0
-92 -84 -75 -144 8 -29 4 -45 -26 -115 -40 -90 -45 -153 -12 -159 12 -3 17 3
17 21 0 25 14 70 45 140 13 32 19 37 30 27 22 -18 84 -14 114 7 56 43 67 115
26 176 -14 20 -30 37 -35 37 -15 0 -12 22 10 64 10 22 17 43 14 47 -10 18 -45
9 -53 -13z m-67 -160 c-9 -18 -19 -35 -22 -38 -8 -9 10 45 20 58 18 22 19 13
2 -20z m95 -4 c28 -35 26 -69 -4 -99 -26 -27 -64 -32 -82 -14 -9 9 -8 19 3 41
8 16 12 33 9 38 -3 5 1 12 8 17 7 4 16 16 20 26 9 24 22 21 46 -9z"/>
<path d="M4104 12063 c-19 -19 -44 -74 -44 -97 0 -29 31 -48 68 -43 29 5 33 4
27 -11 -4 -9 -10 -37 -13 -62 -3 -25 -11 -54 -19 -66 -17 -27 -7 -54 19 -54
18 0 19 2 7 18 -7 9 -9 14 -5 10 13 -11 35 23 36 52 0 20 30 136 57 222 7 23
-27 37 -40 17 -8 -13 -13 -12 -33 8 -28 28 -37 28 -60 6z m46 -76 c-35 -32
-45 -30 -36 6 4 19 12 24 36 23 l31 -1 -31 -28z"/>
<path d="M5360 12065 c0 -9 -6 -12 -16 -8 -12 4 -15 1 -12 -13 2 -11 13 -20
26 -22 29 -4 28 -13 -8 -47 l-29 -28 -20 24 c-12 15 -16 28 -10 34 27 27 -13
55 -51 35 -29 -15 -25 -36 15 -83 l35 -40 -20 -32 c-11 -18 -20 -49 -20 -70 0
-68 94 -134 130 -90 9 11 8 28 -5 82 -9 37 -21 75 -25 83 -6 10 5 29 36 62 48
52 52 66 28 103 -18 27 -54 34 -54 10z m-35 -237 c4 -18 9 -41 11 -50 8 -26
-13 -22 -32 7 -10 16 -14 34 -10 50 9 35 23 31 31 -7z"/>
<path d="M3173 12037 c-37 -34 -38 -57 -4 -57 10 0 24 7 31 15 20 24 29 8 19
-36 -13 -55 -36 -99 -53 -99 -20 0 -66 -57 -66 -81 0 -27 24 -34 53 -14 24 15
26 15 51 -9 14 -15 35 -26 47 -26 30 0 109 39 116 57 10 26 -19 33 -53 12 -77
-47 -113 -8 -75 81 41 95 37 190 -9 190 -11 0 -37 -15 -57 -33z"/>
<path d="M4556 12039 c-29 -23 -34 -54 -10 -63 20 -8 34 1 34 20 0 8 7 14 15
14 22 0 19 -48 -6 -108 -17 -41 -27 -52 -50 -57 -35 -8 -89 -59 -89 -85 0 -16
18 -30 40 -30 5 0 29 16 55 35 l46 36 41 -36 c23 -19 49 -35 58 -35 32 0 17
36 -31 72 l-48 38 20 47 c13 31 19 60 15 81 -3 21 -1 30 6 26 12 -8 1 34 -14
54 -15 18 -52 15 -82 -9z"/>
<path d="M5069 12038 c-1 -6 -1 -274 0 -290 1 -11 9 -18 22 -18 19 0 20 5 18
70 -1 39 1 73 4 77 11 10 8 108 -3 137 -5 14 -16 26 -25 26 -8 0 -15 -1 -16
-2z"/>
<path d="M3493 11823 c-20 -7 -16 -43 5 -43 27 0 46 16 39 34 -6 16 -21 19
-44 9z"/>
<path d="M4271 11786 c-27 -28 -27 -56 -2 -56 20 0 51 34 51 56 0 22 -28 22
-49 0z"/>
<path d="M6312 13493 l3 -2048 1042 -3 1043 -2 -6 -78 c-7 -85 -11 -93 -48
-97 -34 -4 -46 -13 -46 -36 0 -21 23 -25 64 -9 22 8 26 6 31 -13 25 -117 31
-132 49 -135 17 -4 18 1 13 44 -4 27 -9 66 -13 87 l-7 38 62 -7 c41 -4 61 -3
61 4 0 21 -45 42 -87 42 -43 0 -43 0 -43 36 0 19 5 55 11 80 l11 44 1709 0
1709 0 0 2050 0 2050 -2780 0 -2780 0 2 -2047z m5548 -3 l0 -2040 -1702 0
c-1521 0 -1703 2 -1719 15 -15 14 -18 14 -32 0 -14 -13 -130 -15 -1051 -15
l-1036 0 0 2040 0 2040 2770 0 2770 0 0 -2040z"/>
<path d="M10642 15313 c-19 -8 -39 -53 -46 -109 -5 -45 -2 -77 20 -176 6 -27
6 -27 -25 -15 -26 9 -34 9 -47 -5 -24 -24 -8 -39 37 -36 46 2 54 -6 63 -66 9
-52 31 -86 57 -86 29 0 35 27 10 48 -12 10 -23 35 -27 61 -7 44 -7 44 20 37
19 -5 28 -2 32 9 9 21 -12 43 -44 47 -20 2 -26 8 -24 21 2 10 -4 56 -13 102
-20 99 -12 125 37 125 17 0 39 -7 49 -16 20 -18 53 -12 47 9 -13 37 -102 68
-146 50z"/>
<path d="M10905 15294 c-38 -41 -64 -210 -42 -270 7 -19 3 -23 -30 -31 -28 -6
-38 -14 -38 -28 0 -20 9 -22 64 -14 23 4 27 -2 50 -78 19 -60 31 -83 42 -83
27 0 28 21 3 95 -13 39 -24 73 -24 77 0 4 24 8 53 10 38 2 52 7 52 18 0 11
-15 16 -60 18 l-61 3 -1 42 c-4 126 -2 160 9 184 20 41 40 48 78 30 49 -25 68
-5 30 33 -30 30 -94 27 -125 -6z"/>
<path d="M7145 15235 c-33 -8 -102 -19 -154 -26 -84 -11 -95 -10 -103 5 -10
19 -39 21 -55 5 -9 -9 -9 -16 0 -29 8 -14 6 -43 -7 -117 -10 -54 -20 -133 -22
-177 -2 -43 -6 -81 -9 -84 -3 -3 -5 -12 -5 -20 0 -13 12 -14 83 -7 45 5 110 8
144 8 45 -1 63 2 67 13 13 33 -84 41 -229 19 -22 -4 -35 -3 -29 2 7 4 15 35
19 68 11 97 0 90 132 92 133 1 169 5 184 20 20 20 -15 27 -120 24 -57 -1 -120
0 -141 4 l-37 6 9 47 c6 26 15 52 22 59 6 6 43 14 81 17 101 9 248 37 264 52
16 15 6 34 -17 33 -9 -1 -44 -7 -77 -14z"/>
<path d="M9573 15238 c-4 -7 -7 -86 -5 -175 3 -186 4 -183 -74 -130 -35 23
-56 48 -79 92 -32 63 -52 76 -78 51 -25 -26 -43 -255 -20 -263 20 -7 33 33 40
127 l6 90 17 -37 c27 -61 136 -143 189 -143 42 0 48 28 45 217 -2 148 -5 179
-17 181 -8 2 -19 -3 -24 -10z"/>
<path d="M10254 15235 c-4 -8 1 -33 10 -55 11 -27 16 -71 16 -134 l0 -94 -42
5 c-52 5 -85 -11 -115 -56 -28 -42 -29 -71 -2 -105 26 -33 59 -34 114 -1 63
37 94 117 95 245 0 125 -52 258 -76 195z m16 -330 c0 -8 -14 -30 -31 -50 -38
-43 -89 -50 -89 -12 0 40 26 66 73 70 23 2 43 4 45 5 1 1 2 -5 2 -13z"/>
<path d="M8810 15202 c-94 -47 -109 -76 -64 -123 16 -17 52 -42 80 -55 28 -13
70 -38 93 -55 52 -37 52 -65 1 -93 -30 -16 -47 -18 -105 -11 -57 6 -73 12 -95
35 -29 31 -57 27 -46 -7 15 -48 80 -74 183 -74 78 0 134 35 148 94 7 24 2 34
-37 70 -24 23 -73 56 -109 74 -109 52 -112 72 -18 113 52 22 90 23 96 3 3 -7
-3 -10 -15 -7 -10 3 -25 -2 -32 -11 -12 -15 -12 -19 3 -30 9 -7 17 -17 17 -23
0 -15 22 -20 47 -11 61 23 22 149 -46 149 -14 0 -60 -17 -101 -38z"/>
<path d="M9210 15189 c0 -8 -22 -9 -74 -4 -60 5 -74 4 -79 -9 -7 -16 15 -38
35 -35 7 1 37 1 66 0 53 -1 54 -1 48 -28 -3 -16 -8 -64 -11 -108 -4 -44 -7
-91 -8 -104 -2 -26 11 -35 32 -22 11 7 24 106 30 248 1 8 24 13 64 15 47 2 62
7 62 18 0 11 -15 16 -60 18 -33 2 -64 7 -69 13 -14 13 -36 11 -36 -2z"/>
<path d="M7627 15176 c-6 -15 22 -46 42 -46 8 0 11 11 9 28 -3 30 -41 44 -51
18z"/>
<path d="M10457 15183 c-11 -11 -8 -58 5 -71 24 -24 48 21 32 62 -6 16 -26 21
-37 9z"/>
<path d="M7317 15040 c-14 -11 -39 -45 -56 -76 -25 -47 -31 -70 -35 -150 -4
-64 -12 -110 -26 -141 -15 -33 -17 -49 -9 -59 26 -32 60 28 80 144 11 62 11
62 45 62 45 0 110 57 124 111 25 92 -55 162 -123 109z m71 -42 c23 -23 14 -68
-23 -105 -39 -39 -68 -40 -73 -4 -5 33 4 64 29 94 22 29 48 34 67 15z"/>
<path d="M9803 15024 c-10 -26 9 -33 95 -35 86 -2 98 1 89 24 -11 29 -173 39
-184 11z"/>
<path d="M11145 15016 c-59 -26 -84 -104 -49 -154 16 -24 61 -30 94 -12 18 10
19 7 12 -57 -3 -38 -7 -120 -7 -183 0 -111 1 -115 22 -118 22 -3 88 33 112 62
15 18 119 79 140 83 24 3 36 22 23 35 -23 23 -108 -18 -217 -106 -19 -16 -38
-26 -42 -22 -4 3 -1 72 6 154 26 295 27 270 -5 303 -31 32 -45 34 -89 15z m57
-48 c5 -13 -27 -74 -43 -84 -13 -8 -39 15 -39 34 0 38 72 81 82 50z"/>
<path d="M7722 14985 c-40 -34 -46 -55 -28 -100 18 -42 64 -65 128 -64 56 1
112 21 116 42 4 20 -13 21 -86 7 -64 -12 -110 2 -118 35 -8 31 1 44 43 61 39
17 39 37 1 42 -16 2 -37 -7 -56 -23z"/>
<path d="M7539 14973 c-21 -53 -23 -102 -5 -109 9 -3 13 -11 9 -18 -3 -6 -2
-7 3 -3 9 9 34 95 37 132 3 32 -31 31 -44 -2z"/>
<path d="M10408 14988 c-8 -25 7 -151 19 -155 21 -7 30 30 24 97 -5 49 -10 66
-22 68 -9 2 -18 -3 -21 -10z"/>
<path d="M8180 14945 c-6 -8 -9 -18 -6 -23 3 -5 51 -15 106 -22 87 -12 103
-11 110 1 14 21 3 26 -98 43 -110 19 -97 19 -112 1z"/>
<path d="M8014 11415 c-3 -8 -4 -18 -1 -22 3 -4 -1 -39 -9 -78 -21 -109 -18
-197 7 -229 39 -49 64 -27 34 30 -19 37 -19 76 1 190 9 51 14 99 11 108 -8 20
-36 21 -43 1z"/>
<path d="M6797 11385 c-60 -22 -152 -82 -186 -121 -50 -57 -35 -145 33 -189
38 -25 217 -59 239 -46 13 9 17 8 17 -4 0 -8 6 -15 14 -15 8 0 16 -4 18 -9 7
-22 31 -15 35 11 4 30 -3 36 -44 42 -107 16 -229 43 -254 57 -21 11 -49 59
-49 83 0 28 57 81 129 119 64 35 77 38 119 33 91 -12 117 -12 117 3 0 14 -93
50 -130 50 -11 0 -37 -7 -58 -14z"/>
<path d="M1217 11314 l-45 -77 -20 45 c-40 92 -63 73 -86 -72 -10 -58 -20
-117 -23 -132 -4 -20 -1 -30 11 -34 9 -4 19 -4 22 -1 9 9 33 120 34 155 0 37
10 41 28 11 21 -33 53 -20 89 36 l33 50 0 -112 c0 -125 4 -143 31 -143 18 0
19 9 18 148 -1 81 -4 158 -8 172 -13 47 -36 35 -84 -46z"/>
<path d="M3600 11345 c-11 -13 -9 -20 10 -40 27 -29 48 -16 42 27 -5 31 -31
38 -52 13z"/>
<path d="M9189 11308 c-3 -59 7 -71 102 -124 82 -45 100 -70 75 -108 -21 -33
-52 -40 -101 -24 -28 10 -39 19 -37 30 1 9 -7 22 -19 28 -17 10 -24 9 -37 -4
-15 -14 -14 -18 4 -43 41 -56 128 -79 190 -51 15 7 35 29 45 52 30 69 3 107
-131 179 -29 16 -50 30 -48 33 3 2 28 0 57 -6 58 -11 73 -7 64 15 -8 22 -61
42 -115 44 -44 2 -48 0 -49 -21z"/>
<path d="M644 11308 c-4 -6 -13 -48 -20 -92 -18 -111 -1 -186 39 -170 12 4 14
11 6 31 -12 33 -11 86 4 159 7 34 11 66 9 73 -5 14 -29 14 -38 -1z"/>
<path d="M5304 11306 c-9 -24 4 -48 23 -44 12 2 18 12 18 28 0 29 -32 41 -41
16z"/>
<path d="M9535 11290 c-7 -11 20 -60 33 -60 4 0 13 4 21 9 12 8 12 13 -3 35
-17 27 -40 34 -51 16z"/>
<path d="M2964 11262 c-7 -4 -19 -45 -28 -91 -8 -46 -18 -86 -21 -89 -7 -7
-35 63 -35 86 0 25 -22 43 -39 33 -11 -7 -11 -17 0 -60 7 -28 17 -51 21 -51 5
0 7 -4 4 -8 -9 -16 33 -72 54 -72 25 0 32 17 58 141 16 72 18 97 9 106 -7 7
-17 9 -23 5z"/>
<path d="M3107 11215 c-85 -93 -88 -97 -73 -114 8 -9 18 -34 22 -55 15 -81 71
-104 164 -69 60 23 83 43 69 60 -9 10 -16 10 -38 -1 -14 -8 -46 -19 -69 -26
-38 -10 -47 -9 -63 6 -31 28 -24 61 16 80 39 18 85 67 85 90 0 20 -45 64 -66
64 -9 0 -30 -16 -47 -35z m63 -29 c0 -15 -46 -56 -62 -56 -12 0 11 42 31 57
21 16 31 16 31 -1z"/>
<path d="M8636 11224 c-91 -85 -69 -214 37 -214 57 0 146 27 154 47 11 27 -18
31 -81 10 -75 -24 -113 -18 -122 19 -5 18 -1 30 15 45 11 11 21 15 21 9 0 -17
39 -11 60 10 25 25 26 62 2 83 -26 24 -53 21 -86 -9z m59 -35 c-4 -5 -13 -9
-22 -9 -13 0 -13 3 -3 15 13 15 35 11 25 -6z"/>
<path d="M10755 11228 c-51 -29 -37 -63 46 -108 37 -20 65 -43 67 -54 4 -17
-1 -18 -52 -12 -90 9 -86 -33 5 -48 69 -11 111 30 88 85 -8 21 -29 39 -71 60
-33 17 -58 33 -55 36 4 3 21 8 39 12 19 4 33 13 33 21 0 19 -72 25 -100 8z"/>
<path d="M1653 11220 c-32 -13 -29 -26 17 -76 22 -24 40 -50 40 -59 0 -19 -4
-19 -41 0 -31 17 -49 13 -49 -10 0 -16 27 -33 71 -45 21 -6 33 -4 44 6 21 22
19 77 -5 107 -20 25 -20 25 0 30 27 7 25 34 -2 42 -45 13 -53 13 -75 5z"/>
<path d="M4125 11196 c-23 -34 -34 -81 -30 -118 5 -40 54 -87 93 -90 49 -2 87
4 94 15 12 20 -10 31 -55 28 -31 -2 -50 3 -67 17 l-24 20 36 40 c27 30 35 46
31 64 -13 53 -52 65 -78 24z"/>
<path d="M4533 11208 c-40 -20 -69 -143 -38 -168 22 -18 35 -3 35 40 0 63 15
90 50 90 31 0 39 17 18 38 -14 14 -35 14 -65 0z"/>
<path d="M5599 11213 c0 -4 -2 -21 -4 -38 -17 -141 -17 -135 2 -135 11 0 27
17 42 45 l24 46 13 -38 c17 -48 47 -73 89 -73 35 0 85 33 85 56 0 18 -29 18
-54 -1 -45 -34 -76 -5 -76 71 0 59 -14 69 -57 39 -20 -14 -22 -14 -25 7 -3 21
-37 40 -39 21z"/>
<path d="M1385 11200 c-3 -5 -8 -37 -11 -72 -8 -95 31 -159 89 -145 46 12 86
132 57 177 -8 13 -12 12 -31 -6 -16 -17 -19 -26 -11 -40 13 -24 -10 -84 -32
-84 -24 0 -39 71 -26 120 6 22 8 45 5 50 -8 13 -32 13 -40 0z"/>
<path d="M2665 11173 c-41 -60 -26 -111 29 -101 19 4 27 -2 40 -29 10 -22 23
-33 37 -33 18 0 20 4 14 23 -4 12 -10 41 -12 64 -7 58 -26 73 -58 43 -14 -13
-25 -19 -25 -13 0 6 11 21 25 34 32 31 32 49 0 49 -17 0 -32 -11 -50 -37z"/>
<path d="M7760 11200 c-8 -5 -22 -7 -31 -5 -25 8 -45 -21 -29 -40 13 -15 9
-137 -6 -222 -5 -29 -3 -33 15 -33 14 0 22 8 27 28 22 100 24 102 53 102 35 0
91 58 91 93 0 27 -32 64 -67 78 -30 11 -34 11 -53 -1z m58 -52 c17 -17 15 -42
-5 -60 -38 -33 -61 -9 -48 50 6 24 33 30 53 10z"/>
<path d="M8110 11164 c-31 -44 -31 -46 -17 -82 8 -20 25 -44 38 -53 28 -20
109 -34 109 -19 0 5 -7 10 -15 10 -8 0 -15 5 -15 10 0 7 13 8 36 4 27 -5 35
-4 30 5 -4 6 -29 11 -56 11 -31 0 -54 6 -64 16 -20 20 -14 30 23 37 35 7 47
36 30 69 -28 53 -60 50 -99 -8z m60 -14 c0 -5 -5 -10 -11 -10 -5 0 -7 5 -4 10
3 6 8 10 11 10 2 0 4 -4 4 -10z"/>
<path d="M4306 11168 c-46 -44 -53 -79 -23 -114 19 -22 31 -26 69 -26 l46 1 7
-67 c3 -37 8 -77 11 -89 4 -20 0 -22 -38 -21 -47 0 -68 -19 -68 -63 0 -80 37
-141 85 -141 38 0 61 30 70 93 6 41 10 49 24 44 55 -23 64 10 10 39 l-36 20
-11 110 c-6 61 -9 131 -7 156 4 55 -2 70 -26 70 -13 0 -20 -10 -25 -35 -3 -20
-4 -39 0 -42 9 -9 -26 -32 -51 -33 -30 0 -40 36 -17 61 9 10 23 19 29 19 21 0
36 25 23 38 -19 19 -36 14 -72 -20z m114 -395 c-1 -102 -43 -112 -64 -15 -9
41 -2 52 35 52 27 0 29 -3 29 -37z"/>
<path d="M5418 11193 c0 -5 -2 -12 -3 -18 -1 -5 -9 -25 -17 -44 -17 -38 -14
-62 12 -86 24 -21 64 -11 86 23 14 22 15 30 4 61 -7 19 -22 43 -34 53 -22 18
-45 23 -48 11z m42 -88 c0 -15 -18 -30 -27 -22 -2 3 -2 15 2 26 7 23 25 19 25
-4z"/>
<path d="M7367 11193 c-3 -5 -7 -42 -9 -83 -2 -62 0 -75 12 -75 8 0 20 14 25
32 10 30 42 73 54 73 4 0 12 -13 18 -30 14 -37 32 -38 72 -4 l31 26 0 -24 c0
-28 17 -48 41 -48 26 0 33 19 16 38 -8 9 -12 22 -10 29 7 19 -16 53 -36 53
-10 0 -30 -9 -44 -20 -30 -24 -37 -25 -37 -5 0 22 -46 38 -72 24 -17 -9 -23
-8 -30 5 -10 17 -24 21 -31 9z"/>
<path d="M3567 11183 c-2 -5 -2 -43 1 -85 4 -68 7 -78 23 -78 17 0 19 8 19 69
0 38 -3 76 -6 85 -6 16 -30 22 -37 9z"/>
<path d="M3709 11148 c-40 -44 -56 -79 -44 -97 12 -20 24 -11 57 39 38 59 48
52 48 -38 0 -48 4 -64 16 -69 20 -7 39 11 28 28 -4 7 -6 37 -5 67 3 66 -14
112 -41 112 -11 0 -38 -19 -59 -42z"/>
<path d="M9706 11165 c-25 -23 -26 -23 -26 -4 0 15 -6 20 -22 17 -24 -3 -24
-5 -31 -122 -3 -46 18 -41 58 14 37 50 38 51 49 28 15 -30 40 -34 65 -9 28 28
31 27 31 -8 0 -47 17 -81 40 -81 17 0 19 5 15 28 -3 15 -8 45 -11 67 -13 78
-31 91 -78 54 -25 -19 -26 -20 -26 -2 0 19 -17 43 -31 43 -3 0 -18 -11 -33
-25z"/>
<path d="M10435 11180 c-4 -6 -2 -33 5 -59 6 -27 11 -55 10 -62 -4 -29 1 -39
19 -39 13 0 20 9 24 29 4 17 19 45 35 62 l30 33 6 -31 c4 -17 13 -34 21 -37
18 -7 36 16 25 33 -4 8 -6 20 -3 27 8 21 -16 54 -41 54 -12 0 -36 -13 -52 -29
l-29 -29 -12 29 c-12 30 -27 37 -38 19z"/>
<path d="M4683 11160 c-56 -34 -74 -103 -31 -119 26 -9 60 -3 52 10 -3 5 2 6
10 3 9 -3 16 -10 16 -16 0 -17 53 -58 76 -58 50 0 33 50 -18 53 -23 2 -24 4
-16 51 4 27 3 56 -2 66 -5 10 -6 20 -3 24 15 15 -55 4 -84 -14z m25 -57 c-15
-15 -30 -24 -34 -21 -8 8 32 48 48 48 7 0 0 -12 -14 -27z"/>
<path d="M7085 11141 c-22 -51 -14 -103 22 -131 31 -24 54 -25 93 -5 50 26 50
96 1 153 -14 16 -30 22 -59 22 -36 0 -40 -3 -57 -39z m94 -25 c7 -8 11 -27 9
-43 -3 -24 -8 -28 -33 -28 -26 0 -30 4 -33 28 -2 16 -1 35 2 43 7 18 40 18 55
0z"/>
<path d="M10027 11156 c-17 -18 -27 -22 -39 -15 -10 6 -19 4 -25 -4 -13 -16
-1 -119 14 -124 6 -2 21 14 34 36 l22 40 18 -22 19 -22 20 24 c15 17 20 19 20
8 0 -9 11 -29 24 -44 19 -22 27 -25 37 -16 9 9 5 25 -18 70 -16 33 -35 57 -42
55 -8 -2 -20 6 -28 18 -18 26 -29 25 -56 -4z"/>
<path d="M10227 11164 c-4 -4 -7 -18 -7 -31 0 -17 6 -23 21 -23 17 0 20 -5 16
-21 -10 -36 12 -67 51 -74 31 -6 40 -3 58 19 15 17 20 33 17 48 -9 34 -32 67
-51 72 -40 11 -98 16 -105 10z m101 -76 c18 -18 15 -28 -8 -28 -13 0 -20 7
-20 20 0 23 10 26 28 8z"/>
<path d="M5284 11146 c-3 -9 -4 -23 0 -31 3 -8 1 -15 -4 -15 -6 0 -10 -13 -10
-30 0 -20 5 -30 15 -30 18 0 32 31 37 81 2 25 -1 34 -15 37 -9 2 -20 -4 -23
-12z"/>
<path d="M9506 11120 c-20 -50 -20 -67 -1 -86 20 -20 30 -12 33 28 2 18 9 43
17 55 21 32 19 43 -9 43 -19 0 -27 -9 -40 -40z"/>
<path d="M743 11054 c-8 -21 13 -42 28 -27 13 13 5 43 -11 43 -6 0 -13 -7 -17
-16z"/>
<path d="M3447 10993 c-8 -14 -5 -68 5 -80 9 -12 -7 -221 -18 -232 -2 -3 -10
4 -17 13 -19 25 -63 23 -93 -4 -18 -18 -24 -34 -24 -64 0 -39 29 -100 45 -96
4 1 11 -4 16 -11 6 -11 14 -9 36 7 33 25 68 92 83 159 18 81 25 268 11 293
-11 22 -35 29 -44 15z m-57 -333 c9 -6 19 -5 29 3 12 10 13 8 6 -13 -4 -14
-17 -40 -28 -59 l-20 -34 -19 23 c-21 26 -23 61 -6 78 14 14 18 15 38 2z"/>
<path d="M3003 10908 c-24 -29 -32 -297 -12 -371 7 -28 15 -37 27 -35 15 3 16
13 12 68 -3 36 -5 101 -5 145 0 44 2 107 5 139 5 60 -6 81 -27 54z"/>
<path d="M6837 10906 c-101 -37 -182 -150 -181 -252 0 -66 30 -109 98 -140
l51 -24 -245 -2 c-135 -2 61 -4 436 -6 374 -1 684 -5 687 -9 4 -3 3 -11 -2
-17 -5 -6 -12 -25 -15 -42 -5 -23 -3 -33 8 -37 19 -7 31 8 47 61 l12 42 823 0
823 0 3 -22 c2 -13 10 -23 18 -23 8 0 16 10 18 23 l3 22 1221 0 c672 0 1219 2
1216 5 -2 3 -414 6 -914 6 -500 1 -890 5 -866 9 45 7 68 22 58 38 -7 12 -64 6
-82 -9 -10 -8 -14 -8 -14 -1 0 6 -9 14 -20 17 -30 10 -26 37 4 29 34 -8 65 12
82 53 27 63 -7 104 -63 77 -44 -22 -73 -57 -83 -99 -11 -50 3 -83 42 -100 33
-14 33 -14 -32 -15 l-65 0 5 70 c7 98 0 114 -49 107 -35 -4 -38 -3 -33 15 4
16 0 19 -19 16 -19 -2 -29 -15 -46 -58 -29 -75 -33 -113 -11 -118 12 -2 21 5
27 21 11 27 69 79 83 75 6 -2 11 -32 12 -66 l1 -62 -222 0 c-123 0 -223 3
-223 8 0 4 12 48 25 97 14 50 30 110 36 135 21 88 20 87 129 95 106 8 126 14
116 40 -6 17 -34 17 -121 1 -41 -8 -309 -8 -340 0 -18 4 -27 1 -31 -11 -11
-27 6 -33 117 -42 l107 -8 -30 -105 c-16 -58 -35 -129 -44 -157 l-15 -53 -689
0 c-453 0 -690 3 -690 10 0 6 4 10 8 10 5 0 14 37 20 83 21 150 12 247 -23
247 -21 0 -29 -24 -16 -49 8 -15 8 -51 0 -133 -7 -62 -13 -125 -13 -140 l-1
-28 -85 0 c-78 0 -86 2 -86 19 0 14 4 17 12 10 15 -12 52 24 61 58 9 37 -16
84 -54 99 -39 17 -63 8 -89 -32 -11 -17 -20 -21 -28 -15 -7 6 -18 6 -26 1 -11
-7 -11 -16 -2 -47 6 -21 8 -50 5 -65 l-5 -28 -334 0 c-277 0 -334 2 -334 14 0
10 -22 15 -88 18 -194 9 -268 98 -194 233 38 70 109 117 171 113 39 -3 46 -6
51 -28 8 -32 44 -35 48 -4 8 57 -85 97 -161 70z m3228 -265 c-4 -15 -15 -21
-33 -21 l-27 1 30 24 c33 27 40 26 30 -4z m-2238 -27 c13 -20 12 -24 -9 -48
-13 -14 -36 -28 -51 -32 -28 -6 -28 -5 -25 27 3 38 35 81 56 77 8 -2 21 -13
29 -24z"/>
<path d="M757 10904 c-11 -11 -8 -62 3 -66 14 -4 40 -103 40 -150 0 -33 -3
-38 -24 -38 -13 0 -38 -13 -55 -29 -30 -28 -37 -52 -32 -108 l2 -23 -213 -2
-213 -2 225 -8 c124 -4 241 -7 260 -7 820 8 1270 8 1270 0 0 -6 -9 -15 -21
-21 -27 -15 -22 -54 9 -58 18 -3 26 5 43 42 l20 46 188 0 c171 0 189 -2 187
-17 -2 -28 50 -32 374 -32 168 -1 315 -3 326 -5 17 -3 23 1 27 20 l4 24 -161
2 c-88 2 507 5 1324 8 l1485 5 -1876 3 -1875 2 7 53 c8 60 5 67 -22 67 -18 0
-24 -11 -20 -34 1 -5 -1 -27 -4 -48 l-7 -38 -605 0 c-572 0 -605 1 -598 17 32
86 30 190 -9 319 -21 73 -40 97 -59 78z m40 -331 c-11 -68 -67 -96 -67 -34 0
38 26 67 64 70 5 1 6 -16 3 -36z m1926 -100 c-7 -2 -19 -2 -25 0 -7 3 -2 5 12
5 14 0 19 -2 13 -5z"/>
<path d="M8557 10904 c-4 -4 -7 -20 -7 -35 0 -15 -5 -50 -11 -77 l-10 -50 -58
-6 c-54 -6 -59 -9 -57 -31 1 -23 4 -24 41 -19 22 3 46 8 54 10 9 3 11 -1 7
-12 -14 -36 -25 -149 -16 -158 15 -15 52 24 46 47 -3 11 0 44 6 74 l11 55 54
-7 c49 -6 53 -5 53 14 0 14 -6 21 -19 21 -11 0 -23 5 -26 10 -3 6 -15 10 -26
10 -18 0 -19 4 -12 53 11 81 10 101 -7 105 -9 1 -19 0 -23 -4z"/>
<path d="M10267 10864 c-4 -4 -4 -23 -1 -43 3 -23 -5 -81 -24 -158 -24 -101
-27 -125 -16 -134 7 -6 17 -8 23 -5 5 3 22 -1 37 -9 37 -19 87 -19 123 0 34
17 41 33 41 90 0 35 -5 48 -26 64 -35 28 -66 26 -102 -4 -17 -14 -32 -25 -35
-25 -3 0 1 28 9 62 19 79 15 162 -6 166 -9 1 -19 0 -23 -4z m143 -263 c0 -36
-20 -53 -65 -54 -61 -2 -66 18 -18 64 36 34 46 38 63 29 13 -7 20 -21 20 -39z"/>
<path d="M3194 10806 c-9 -24 4 -48 23 -44 12 2 18 12 18 28 0 29 -32 41 -41
16z"/>
<path d="M2548 10794 c-14 -14 -8 -39 21 -96 17 -32 33 -73 37 -93 5 -31 4
-35 -15 -35 -11 0 -30 13 -43 30 -24 33 -45 39 -55 14 -8 -23 54 -82 94 -90
68 -13 83 64 34 166 l-29 60 28 0 c32 0 48 16 32 32 -13 13 -94 23 -104 12z"/>
<path d="M4900 10767 c-42 -21 -38 -53 15 -103 31 -28 45 -49 41 -59 -12 -32
-60 -4 -68 40 -5 32 -33 24 -36 -10 -6 -64 99 -118 134 -70 8 10 14 34 14 51
0 26 -8 40 -40 65 -22 18 -40 36 -40 41 0 4 16 8 35 8 23 0 38 6 42 16 12 32
-49 45 -97 21z"/>
<path d="M4653 10750 c-56 -34 -78 -106 -51 -165 9 -19 19 -25 43 -25 18 0 38
7 45 15 19 23 30 18 30 -14 0 -33 16 -49 32 -33 17 17 18 160 2 197 -20 49
-50 57 -101 25z m57 -59 c0 -19 -11 -41 -31 -62 l-32 -34 -9 24 c-11 30 -3 56
25 81 30 28 47 25 47 -9z"/>
<path d="M953 10701 c-45 -41 -46 -89 -2 -126 25 -21 38 -25 63 -19 44 9 56
22 56 58 -1 34 -47 109 -70 114 -8 1 -30 -11 -47 -27z m67 -67 c13 -34 13 -34
-14 -34 -28 0 -51 24 -42 45 9 25 45 18 56 -11z"/>
<path d="M2802 10718 c-14 -14 -16 -38 -2 -38 6 0 6 -9 0 -26 -27 -70 0 -137
53 -132 64 6 86 119 35 183 -21 27 -65 34 -86 13z m68 -98 c0 -57 -23 -81 -34
-36 -7 29 10 80 24 71 5 -3 10 -19 10 -35z"/>
<path d="M8715 10712 c-17 -11 -39 -31 -49 -46 -39 -61 4 -106 105 -109 51 -2
64 1 64 13 0 11 -18 18 -62 25 -84 14 -97 28 -39 45 56 15 85 44 70 68 -15 24
-54 26 -89 4z"/>
<path d="M10525 10708 c-32 -25 -57 -80 -48 -105 18 -52 67 -68 111 -37 24 16
23 18 26 -38 1 -9 5 -20 9 -24 4 -5 5 0 1 11 -7 20 -7 20 14 1 19 -17 22 -17
28 -3 3 9 1 32 -6 51 -9 28 -9 43 1 71 15 40 4 57 -32 48 -10 -3 -19 -1 -19 4
0 5 -13 16 -29 26 -28 16 -30 16 -56 -5z m55 -90 c-47 -43 -79 -17 -44 37 15
23 16 23 45 7 l30 -17 -31 -27z"/>
<path d="M1170 10702 c-32 -26 -18 -44 27 -36 l35 7 -16 -31 c-9 -17 -20 -34
-26 -37 -12 -8 -13 -42 -1 -49 4 -3 22 0 39 6 28 11 34 10 55 -10 73 -69 190
42 131 126 -20 29 -30 28 -51 -4 -16 -25 -16 -27 2 -40 21 -16 14 -38 -19 -58
-14 -9 -21 -7 -34 9 -9 12 -25 24 -34 28 -20 7 -23 22 -8 32 6 3 10 17 10 30
0 44 -69 60 -110 27z"/>
<path d="M10762 10703 c-29 -56 -19 -143 18 -163 48 -26 130 41 130 105 0 38
-26 50 -36 18 -20 -63 -54 -94 -80 -73 -16 14 -10 51 13 88 7 12 11 27 8 32
-10 16 -44 11 -53 -7z"/>
<path d="M10976 10639 c-31 -65 -36 -83 -25 -89 10 -7 32 10 77 58 35 37 60
58 57 47 -14 -41 -17 -83 -7 -89 6 -3 23 5 39 18 37 31 104 76 113 76 4 0 0
-20 -9 -45 -14 -41 -14 -46 1 -61 20 -20 58 -10 58 16 0 10 -5 20 -11 22 -8 3
-7 14 5 35 20 40 21 79 0 87 -18 7 -72 -14 -115 -44 l-29 -21 0 31 c0 35 -23
49 -51 32 -11 -7 -20 -8 -24 -2 -17 28 -42 5 -79 -71z"/>
<path d="M8203 10695 c-48 -21 -93 -68 -93 -98 0 -15 9 -35 21 -46 25 -23 105
-32 121 -14 15 19 2 30 -38 31 -73 3 -63 30 16 47 35 7 70 31 70 47 0 13 -39
48 -52 48 -7 -1 -27 -7 -45 -15z"/>
<path d="M1537 10694 c-4 -4 -7 -19 -7 -34 0 -15 -12 -49 -26 -75 -22 -42 -23
-50 -11 -62 13 -13 16 -13 28 2 8 9 26 28 41 42 15 14 25 30 21 36 -4 6 -1 7
6 3 7 -5 21 0 33 11 21 18 21 18 9 -4 -6 -12 -11 -40 -11 -62 0 -31 4 -41 20
-46 23 -7 55 1 88 22 18 11 21 17 12 28 -9 10 -18 11 -41 3 -17 -6 -32 -8 -34
-6 -3 2 3 27 12 55 13 42 14 55 4 67 -14 17 -52 7 -83 -21 -15 -13 -18 -14
-19 -2 -1 8 -2 21 -3 29 -1 16 -28 25 -39 14z"/>
<path d="M7413 10676 c-16 -12 -35 -25 -43 -28 -21 -8 -46 -106 -32 -120 14
-14 42 7 42 32 0 9 8 25 19 34 18 16 19 16 25 -9 9 -34 48 -34 70 0 14 21 20
23 43 14 22 -8 30 -7 40 7 16 22 16 31 1 40 -17 11 -80 5 -95 -8 -10 -8 -13
-3 -13 20 0 39 -23 47 -57 18z"/>
<path d="M7100 10666 c-19 -36 -6 -96 26 -125 31 -26 83 -24 115 5 39 35 9
101 -58 129 -50 21 -68 19 -83 -9z m110 -77 c0 -31 -58 -26 -70 6 -5 14 -7 31
-4 39 8 21 74 -19 74 -45z"/>
<path d="M9584 10672 c-49 -39 -57 -95 -19 -136 22 -24 31 -26 84 -25 51 2 59
5 58 20 -1 15 -10 19 -42 19 -43 0 -80 17 -57 27 49 20 98 53 101 68 8 42 -83
62 -125 27z m56 -32 c-8 -5 -19 -10 -25 -10 -5 0 -3 5 5 10 8 5 20 10 25 10 6
0 3 -5 -5 -10z"/>
<path d="M3160 10640 c-19 -36 -23 -95 -6 -109 28 -23 34 -9 48 98 4 29 -28
38 -42 11z"/>
<path d="M11418 10652 c-20 -2 -28 -9 -28 -23 0 -15 7 -19 39 -19 21 0 52 -5
69 -11 25 -8 35 -7 57 7 45 29 29 47 -45 48 -36 0 -77 0 -92 -2z"/>
<path d="M3184 10455 c-3 -8 -3 -19 1 -25 9 -15 325 -12 344 3 10 8 13 8 8 1
-8 -14 42 -23 79 -16 25 5 32 26 13 38 -17 10 -194 4 -197 -7 -3 -6 -8 -6 -15
-1 -7 5 -61 12 -120 15 -87 5 -109 3 -113 -8z"/>
<path d="M1557 10413 c-2 -4 2 -47 11 -94 20 -114 18 -118 -49 -108 -60 10
-83 -1 -58 -27 9 -8 39 -17 68 -19 29 -2 54 -5 56 -7 1 -1 5 -38 7 -80 l5 -78
-666 -2 -666 -3 664 -2 c578 -3 667 -5 681 -18 15 -14 18 -14 30 0 11 13 52
15 276 15 l263 0 10 -37 c9 -36 25 -175 26 -218 0 -16 -8 -21 -45 -25 -31 -3
-45 -10 -45 -20 0 -11 13 -16 48 -18 l47 -3 0 -50 c0 -28 5 -49 11 -49 6 0 7
-5 2 -12 -4 -7 -6 -21 -5 -30 3 -16 -7 -18 -87 -18 l-89 0 -7 33 c-4 17 -16
46 -26 64 -17 28 -18 33 -5 46 14 13 14 16 1 27 -12 10 -21 10 -45 0 -38 -16
-38 -30 0 -82 17 -22 30 -53 30 -67 -1 -25 -1 -25 -15 -7 -14 19 -45 16 -45
-4 0 -5 -20 -10 -44 -10 l-43 0 23 47 c27 53 30 81 10 108 -21 29 -49 12 -41
-25 8 -38 -11 -90 -42 -114 -30 -22 -43 -10 -43 39 0 41 -25 75 -56 75 l-24 0
0 144 c0 122 -2 145 -16 150 -9 3 -20 3 -25 0 -9 -5 -86 -120 -106 -158 -9
-16 -12 -15 -30 15 -12 19 -24 54 -28 79 -11 73 -15 81 -38 78 -21 -3 -22 -10
-29 -148 -4 -80 -12 -172 -17 -205 -6 -39 -5 -64 1 -72 8 -10 -39 -13 -229
-13 l-240 0 5 25 c3 21 0 25 -18 25 -18 0 -21 -4 -18 -25 5 -24 4 -25 -52 -25
-51 0 -58 2 -53 18 6 23 -33 42 -87 42 -22 0 -40 2 -40 5 0 3 21 31 46 62 44
53 74 108 74 133 0 18 -48 60 -69 60 -24 0 -91 -56 -91 -76 0 -27 30 -27 55 0
28 31 55 34 55 7 0 -18 -31 -64 -107 -157 -18 -23 -33 -48 -33 -58 0 -17 0
-17 90 -21 121 -5 69 -10 -170 -15 -152 -3 33 -6 483 -8 725 -2 728 -2 757
-23 l28 -22 35 22 c47 29 127 29 145 1 16 -26 57 -26 79 0 16 19 33 19 537 20
516 0 520 0 542 -21 23 -22 44 -19 44 7 0 21 33 17 48 -6 16 -26 48 -26 62 1
11 19 18 20 83 15 40 -4 90 -6 112 -5 289 6 2080 7 2092 0 11 -5 -3 -9 -40 -9
-31 0 -65 -3 -76 -7 -79 -25 33 -181 115 -161 37 10 57 59 52 127 l-4 58 110
4 111 3 -116 2 -116 2 -14 83 c-12 70 -17 82 -35 85 -11 2 -28 -6 -39 -18 -24
-26 -37 -26 -33 3 2 17 11 23 38 27 27 4 35 10 35 25 0 17 -6 20 -45 18 -56
-3 -72 -22 -68 -82 4 -57 26 -73 68 -49 24 14 30 14 30 3 0 -7 7 -21 17 -30
13 -13 14 -18 3 -25 -7 -4 -10 -15 -7 -24 6 -15 -33 -16 -413 -16 l-420 0 0
43 c0 23 3 59 6 79 6 35 10 39 66 59 64 24 76 35 59 52 -9 9 -24 7 -60 -6 -27
-9 -51 -17 -53 -17 -2 0 -1 34 3 75 12 121 41 184 69 150 16 -19 40 -3 40 26
0 18 17 19 492 19 270 0 489 2 486 5 -3 3 -777 5 -1720 5 -1701 0 -1716 1
-1721 20 -5 21 -31 27 -42 10 -3 -5 -15 -10 -27 -10 -22 0 -78 30 -78 41 0 4
21 18 46 30 58 29 70 50 46 79 -12 15 -33 24 -63 27 -41 5 -48 2 -67 -22 -30
-38 -29 -92 3 -139 l24 -36 -33 0 c-30 0 -36 5 -54 43 -11 23 -23 56 -27 73
-7 37 -39 74 -63 74 -10 0 -26 -9 -35 -21 l-18 -20 -20 25 c-11 14 -27 26 -35
26 -25 0 -28 -30 -5 -51 21 -20 23 -25 25 -89 1 -23 6 -35 15 -35 15 0 20 7
47 73 9 23 22 41 27 39 6 -2 20 -33 32 -70 l21 -67 -117 0 c-100 0 -118 2
-113 15 3 8 -5 36 -18 62 -12 27 -23 57 -23 68 0 13 -9 21 -32 26 -38 7 -43 4
-67 -42 -25 -47 -15 -84 27 -109 l32 -20 -71 0 -71 0 -7 46 c-3 26 -6 64 -6
85 0 36 1 38 38 41 29 2 37 7 37 23 0 17 -6 20 -48 19 -35 -2 -45 1 -39 10 10
12 -4 150 -17 176 -9 17 -37 25 -44 13z m707 -259 c15 -6 15 -8 -1 -20 -10 -7
-27 -14 -37 -14 -18 0 -18 1 -1 20 21 23 18 22 39 14z m-456 -100 c-4 -3 -16
-3 -27 1 -14 4 -21 15 -21 33 l0 27 27 -27 c15 -15 24 -30 21 -34z m716 -98
c-5 -29 -3 -36 10 -36 9 0 16 4 16 9 0 5 9 13 20 16 11 3 20 15 20 26 0 18 8
19 105 19 l105 0 12 -27 c20 -49 22 -211 3 -328 -14 -89 -14 -109 -3 -116 7
-5 -109 -9 -264 -9 l-276 0 -4 83 c-2 45 -1 85 2 89 3 5 21 10 39 12 39 4 56
19 48 40 -7 18 -34 20 -71 6 -19 -7 -26 -6 -26 3 0 16 -18 172 -25 212 l-5 30
151 3 150 3 -7 -35z m2214 27 c-29 -56 -42 -103 -52 -187 -11 -94 -13 -101
-33 -98 -12 2 -24 -1 -27 -7 -10 -16 5 -41 25 -41 16 0 18 -8 16 -70 l-2 -70
-554 0 c-536 0 -554 1 -538 18 10 10 17 23 17 29 0 17 -27 23 -39 9 -6 -7 -29
-21 -52 -32 l-41 -18 -20 24 c-24 30 -22 86 4 82 50 -8 90 53 63 95 -26 39
-63 28 -103 -32 -31 -45 -33 -54 -27 -100 3 -27 11 -55 17 -62 8 -10 -2 -13
-49 -13 l-60 0 23 87 c23 86 21 112 -8 100 -8 -2 -22 -39 -32 -82 -10 -42 -21
-73 -25 -68 -4 4 -16 37 -27 72 -19 62 -36 83 -55 64 -6 -6 -4 -26 6 -54 9
-24 20 -61 24 -81 8 -36 7 -38 -15 -38 -30 0 -42 29 -36 88 3 35 1 42 -13 42
-10 0 -15 5 -12 14 7 19 -12 36 -40 36 -37 0 -73 -46 -73 -92 0 -64 15 -81 61
-74 24 4 39 2 39 -4 0 -6 -30 -10 -71 -10 -65 0 -70 1 -58 17 18 21 13 119 -7
151 -15 23 -58 30 -69 12 -3 -5 -11 -10 -17 -10 -7 0 -9 25 -6 78 5 72 -2 157
-18 210 l-6 22 947 0 c521 0 945 -3 943 -7z m-3099 -236 c-1 -65 4 -131 12
-157 20 -72 42 -89 59 -47 8 21 9 21 9 -5 l1 -28 -157 0 c-97 0 -153 4 -144 9
13 8 29 134 31 240 l0 34 30 -41 c45 -63 56 -58 120 51 19 31 36 57 37 57 2 0
3 -51 2 -113z m1831 -66 c0 -5 -7 -11 -14 -14 -10 -4 -13 -1 -9 9 6 15 23 19
23 5z m-535 -81 c3 -29 7 -61 10 -71 6 -17 0 -19 -53 -19 l-60 0 25 53 c24 50
62 101 70 93 2 -2 6 -27 8 -56z m143 4 c-14 -24 -24 -32 -31 -25 -16 16 8 61
32 61 20 0 20 0 -1 -36z m2489 -181 c9 -22 -14 -63 -36 -63 -18 0 -71 52 -71
70 0 22 98 16 107 -7z"/>
<path d="M4555 9940 c-3 -5 -5 -24 -5 -42 0 -18 -2 -96 -6 -173 -7 -151 2
-199 34 -193 12 3 16 11 13 28 -6 48 -6 285 1 320 4 19 5 43 2 53 -6 18 -29
23 -39 7z"/>
<path d="M4130 9866 c-6 -20 -9 -49 -5 -64 3 -15 2 -73 -4 -128 -5 -55 -7
-112 -4 -127 8 -41 39 -35 58 10 16 39 52 83 67 83 4 0 8 -20 8 -44 0 -48 20
-76 38 -53 6 7 9 26 7 42 -2 17 -4 40 -4 52 -1 27 -26 53 -53 53 -11 0 -33
-14 -50 -32 -28 -30 -29 -30 -23 -7 3 13 6 73 8 134 2 95 0 110 -15 113 -11 2
-20 -8 -28 -32z"/>
<path d="M4345 9684 c-48 -52 -41 -124 13 -124 16 0 33 5 40 12 9 9 12 7 12
-9 0 -23 22 -37 36 -23 14 14 5 140 -11 140 -7 0 -15 7 -19 15 -9 23 -44 18
-71 -11z m43 -48 c-25 -39 -33 -39 -24 -2 3 13 14 27 24 29 9 3 18 5 20 6 1 0
-8 -14 -20 -33z"/>
<path d="M8041 10397 c-8 -11 -8 -34 0 -92 6 -42 7 -95 4 -116 l-7 -38 -28 21
c-37 27 -74 18 -100 -25 -24 -39 -26 -104 -3 -129 16 -17 7 -18 -256 -18 -215
0 -270 3 -264 13 4 6 8 39 9 72 0 33 4 90 8 126 9 70 -2 109 -29 109 -12 0
-15 -13 -14 -57 2 -83 -12 -233 -22 -233 -5 0 -9 -7 -9 -15 0 -11 -12 -15 -47
-15 -43 0 -45 1 -31 18 15 16 40 175 40 250 0 39 -21 66 -44 57 -25 -10 -31
-38 -13 -52 15 -10 16 -21 5 -105 -7 -51 -18 -104 -25 -118 -7 -14 -10 -31 -8
-37 4 -10 -40 -13 -195 -13 -151 0 -201 3 -204 13 -3 6 -3 30 0 53 4 40 5 41
60 58 60 18 102 46 102 67 0 7 3 9 6 6 13 -12 44 42 44 76 0 52 -32 73 -125
83 -83 9 -160 -35 -110 -64 23 -12 2 -108 -26 -115 -23 -6 -24 -20 -4 -41 11
-11 13 -28 9 -75 l-7 -61 -226 -3 c-124 -1 1025 -2 2554 -2 1636 0 1980 1 835
3 -1891 2 -1944 3 -1915 20 67 42 96 159 78 316 -8 70 -20 88 -42 63z m-1072
-102 c20 -12 11 -41 -21 -72 -58 -55 -135 -83 -125 -45 3 9 11 44 18 78 l12
60 53 -7 c29 -4 58 -10 63 -14z m1032 -168 c13 -6 25 -20 26 -30 0 -10 -1 -16
-4 -13 -3 3 -19 -6 -35 -19 -35 -29 -44 -31 -52 -9 -10 27 13 84 34 84 4 0 18
-6 31 -13z"/>
<path d="M2484 10315 c-13 -33 16 -42 161 -49 77 -3 235 -12 350 -21 116 -8
226 -15 245 -15 19 0 104 -2 188 -6 92 -4 152 -3 152 3 0 5 -6 16 -12 24 -11
13 -26 14 -78 9 -36 -4 -59 -8 -52 -8 6 -1 12 -7 12 -14 0 -6 -10 -2 -22 9
-21 18 -41 21 -188 27 -91 3 -176 8 -190 10 -14 2 -81 7 -150 11 -69 4 -136 9
-149 12 -17 4 -22 2 -17 -6 4 -6 2 -11 -3 -11 -6 0 -11 4 -11 9 0 4 -45 11
-100 15 -56 4 -107 9 -115 13 -9 3 -18 -2 -21 -12z"/>
<path d="M1266 10281 c-57 -11 -44 -33 87 -147 55 -48 66 -89 20 -78 -24 5
-67 30 -119 69 -9 6 -17 6 -24 -1 -28 -28 91 -114 156 -114 39 0 54 16 54 58
0 46 -11 63 -80 120 l-60 51 37 3 c30 2 39 8 41 24 3 19 -2 21 -40 21 -24 -1
-56 -3 -72 -6z"/>
<path d="M3658 10263 c-77 -4 -85 -7 -70 -30 10 -16 194 -21 200 -5 6 18 -17
42 -37 40 -9 -1 -51 -4 -93 -5z"/>
<path d="M663 10224 c-22 -22 -25 -32 -20 -71 2 -24 9 -49 15 -55 13 -13 60
-15 84 -4 13 6 19 2 24 -19 8 -31 58 -57 91 -49 28 8 22 38 -8 42 -36 5 -43
17 -49 80 -4 48 -8 57 -25 57 -12 0 -21 -8 -23 -20 -8 -43 -54 -71 -65 -41
-11 28 5 56 37 64 17 5 32 16 34 25 6 29 -63 23 -95 -9z"/>
<path d="M7052 10180 c-58 -55 -21 -154 51 -136 36 9 50 39 42 87 -5 30 -14
43 -35 54 -36 19 -32 19 -58 -5z m47 -59 c8 -14 7 -22 -3 -30 -16 -14 -26 -4
-26 26 0 28 15 30 29 4z"/>
<path d="M7739 10170 c-26 -25 -30 -36 -27 -72 3 -45 30 -62 36 -23 8 54 14
66 38 76 19 6 31 6 40 -2 11 -9 18 -8 29 1 14 12 14 15 -1 31 -27 30 -80 25
-115 -11z"/>
<path d="M7529 10152 c-29 -30 -37 -44 -32 -61 7 -27 41 -42 65 -30 13 7 20 4
28 -11 12 -22 54 -27 66 -9 4 7 -2 19 -14 28 -15 11 -20 25 -18 49 2 18 6 35
9 39 12 11 -15 33 -40 33 -16 0 -40 -14 -64 -38z m51 -22 c0 -5 -10 -15 -22
-21 -23 -12 -23 -12 -4 10 21 23 26 26 26 11z"/>
<path d="M5646 9903 c-4 -21 -2 -81 4 -133 5 -52 10 -105 10 -117 0 -18 6 -23
26 -23 25 0 26 2 20 33 -6 25 -16 199 -16 266 0 6 -9 11 -19 11 -14 0 -21 -9
-25 -37z"/>
<path d="M5823 9768 c-32 -23 -46 -47 -57 -101 -10 -43 50 -127 91 -127 25 0
103 64 103 86 0 28 -23 24 -62 -12 l-41 -37 -19 23 c-24 30 -23 35 12 50 37
15 50 37 50 82 0 34 -14 58 -35 58 -5 0 -25 -10 -42 -22z m16 -69 c-19 -12
-24 -2 -8 17 9 11 14 13 17 4 3 -7 -2 -16 -9 -21z"/>
<path d="M5041 9734 c-25 -32 -37 -107 -22 -140 12 -27 58 -34 67 -9 9 22 21
18 20 -6 -1 -35 22 -33 44 3 14 23 20 50 20 93 l0 60 -40 13 c-56 17 -66 15
-89 -14z m67 -58 c-14 -28 -39 -56 -50 -56 -8 0 -3 35 13 78 8 19 11 21 28 10
16 -10 18 -16 9 -32z"/>
<path d="M5232 9716 c-36 -41 -46 -69 -38 -102 12 -47 56 -17 56 39 0 30 33
62 56 53 14 -5 16 -16 11 -62 -4 -44 -3 -56 9 -61 23 -9 32 6 39 67 6 48 4 58
-15 78 -33 35 -81 30 -118 -12z"/>
<path d="M5685 9610 c-3 -5 -1 -10 4 -10 6 0 11 5 11 10 0 6 -2 10 -4 10 -3 0
-8 -4 -11 -10z"/>
<path d="M7692 9503 c762 -2 2013 -2 2780 0 766 1 142 2 -1387 2 -1529 0
-2156 -1 -1393 -2z"/>
<path d="M800 9427 c-23 -12 -25 -18 -24 -75 0 -34 7 -68 14 -77 11 -13 7 -15
-31 -15 -52 0 -74 -12 -66 -34 5 -12 18 -16 52 -14 25 0 47 -1 50 -4 7 -6 7
-96 1 -123 -2 -11 -5 -32 -5 -47 l-1 -28 -262 0 c-144 0 -259 -2 -256 -5 2 -3
461 -5 1019 -5 715 -1 1025 -4 1052 -12 28 -9 41 -8 49 0 16 16 439 17 455 1
8 -8 17 -8 31 0 13 7 88 11 195 11 146 0 176 -2 181 -15 3 -8 12 -15 20 -15 7
0 16 7 20 15 4 12 30 15 141 15 l135 0 0 -141 0 -141 -44 6 c-38 6 -46 4 -55
-13 -30 -55 5 -161 53 -161 65 0 90 83 91 297 l0 153 467 0 c447 0 467 -1 473
-19 6 -20 0 -90 -9 -98 -3 -3 -1 -15 5 -26 7 -13 7 -17 1 -13 -11 7 -16 -7
-27 -66 -5 -35 -8 -38 -40 -38 -18 0 -41 -7 -49 -16 -33 -32 -11 -52 33 -29
38 19 44 9 31 -51 -12 -52 -8 -74 13 -74 16 0 34 59 33 102 -1 15 2 24 6 22 4
-3 8 0 8 7 0 7 10 9 29 6 36 -7 67 13 58 38 -6 13 -16 16 -42 13 -41 -5 -41
-6 -20 92 8 39 14 74 14 78 -1 4 -1 22 0 40 l1 32 551 0 c324 0 558 -4 568 -9
22 -12 99 6 98 22 -1 11 12 62 33 129 4 16 5 30 0 33 -4 3 -11 22 -14 42 -11
59 -39 147 -50 155 -28 19 -34 -26 -13 -88 29 -83 28 -98 -6 -114 -38 -18 -66
-70 -67 -122 0 -34 -3 -38 -25 -38 -19 0 -23 4 -18 17 4 10 2 14 -4 10 -6 -4
-13 -3 -15 2 -1 6 -29 11 -61 12 -57 2 -68 8 -80 42 -9 24 34 67 65 66 18 0
16 -3 -12 -13 -47 -17 -47 -41 1 -40 79 2 120 69 58 94 -41 18 -99 -1 -134
-42 -34 -40 -29 -91 10 -125 l26 -23 -42 0 c-33 0 -39 3 -30 13 18 22 -8 37
-67 37 l-54 0 36 50 c47 65 50 90 13 108 -54 26 -163 -16 -129 -50 8 -8 22 -6
51 5 54 22 60 8 21 -51 -38 -58 -48 -91 -29 -103 8 -5 -254 -9 -618 -9 l-631
0 7 28 c5 15 16 45 26 67 17 38 18 39 24 16 8 -31 24 -36 44 -17 14 14 17 11
29 -27 11 -34 18 -43 41 -45 29 -4 37 14 15 36 -7 7 -17 47 -23 90 -9 65 -14
77 -29 77 -13 0 -24 -12 -32 -35 -7 -19 -13 -28 -13 -19 -1 9 -8 23 -17 30
-14 11 -20 9 -41 -15 -13 -16 -25 -27 -27 -25 -2 2 -9 14 -15 27 -6 12 -16 22
-21 22 -15 0 -22 -38 -10 -60 10 -19 12 -47 7 -122 l-2 -28 -352 0 -353 0 0
29 c0 15 3 50 7 76 5 40 10 49 35 57 15 5 28 16 28 24 0 14 -10 17 -46 15 -18
-2 -23 7 -34 59 -13 63 -25 79 -42 62 -7 -7 -7 -29 0 -69 5 -32 8 -60 5 -63
-3 -3 -26 -5 -51 -5 -40 0 -47 -3 -47 -20 0 -17 7 -20 53 -20 28 0 53 -2 53
-5 2 -8 2 -41 1 -92 l-2 -48 -179 0 c-199 0 -196 -1 -180 66 4 22 9 54 9 72 0
29 3 33 23 30 16 -2 22 2 22 17 0 30 -56 33 -95 5 -26 -19 -30 -27 -30 -68 0
-26 4 -64 9 -84 l9 -38 -219 0 c-214 0 -219 0 -219 20 0 32 -36 95 -64 114
-42 27 -29 56 24 56 26 0 35 19 18 36 -16 16 -63 6 -105 -21 -32 -21 -24 -46
32 -105 49 -52 67 -87 35 -70 -10 5 -22 15 -25 20 -3 6 -13 10 -21 10 -17 0
-19 -31 -2 -48 18 -18 -82 -16 -119 3 -38 19 -44 32 -33 80 10 45 3 67 -19 62
-9 -2 -33 5 -54 15 -48 24 -78 20 -95 -12 -15 -30 -11 -112 8 -135 16 -19 59
-19 87 0 20 14 23 14 33 -5 10 -19 8 -20 -95 -20 -89 0 -105 2 -105 16 0 8 5
58 11 111 13 108 5 151 -36 199 -19 22 -27 26 -37 16 -9 -9 -7 -21 11 -53 24
-42 26 -67 16 -184 -2 -27 -4 -62 -5 -77 l0 -28 -81 0 c-79 0 -81 1 -61 18 21
17 26 39 24 100 -2 31 -24 53 -40 37 -4 -4 -7 -27 -7 -52 0 -33 -5 -49 -18
-57 -15 -9 -22 -7 -38 14 -10 14 -23 30 -27 35 -5 6 -4 18 2 28 8 14 8 20 -4
27 -22 14 -35 7 -38 -24 -2 -16 0 -26 5 -23 4 3 8 -10 9 -29 0 -22 8 -40 24
-54 l23 -20 -59 0 c-41 0 -55 3 -44 10 13 8 13 13 1 32 -7 12 -19 42 -25 67
-12 52 -39 64 -80 37 -22 -14 -24 -13 -34 10 -14 29 -24 30 -63 7 -33 -20 -43
-46 -44 -115 l0 -48 -228 0 c-213 0 -228 1 -223 18 3 9 7 54 8 99 3 71 5 83
21 83 9 0 17 -4 17 -9 0 -14 38 -20 48 -7 20 24 -5 54 -51 61 l-45 7 -10 54
c-14 69 -10 79 35 82 43 3 53 8 53 28 0 18 -75 19 -110 1z m1110 -231 c0 -3
-4 -8 -10 -11 -5 -3 -10 -1 -10 4 0 6 5 11 10 11 6 0 10 -2 10 -4z m151 -66
l24 -20 -28 -25 c-39 -35 -47 -32 -47 20 0 51 13 57 51 25z m3733 -27 c-8 -35
-31 -73 -44 -73 -10 0 -5 32 11 78 13 34 41 29 33 -5z m-4424 -9 c0 -28 30
-27 60 1 l29 27 10 -40 c18 -64 10 -72 -74 -72 l-73 0 8 33 c17 63 22 77 31
71 5 -3 9 -12 9 -20z m2189 -430 c8 -7 -13 -57 -26 -61 -16 -6 -35 34 -28 58
5 15 12 18 28 13 12 -3 24 -8 26 -10z"/>
<path d="M5124 9296 c-7 -19 3 -36 22 -36 10 0 14 8 12 22 -4 26 -26 36 -34
14z"/>
<path d="M4341 9239 c-35 -14 -50 -39 -51 -84 0 -64 33 -99 109 -116 39 -9 61
3 61 32 0 16 -8 19 -43 19 -39 0 -89 22 -77 33 3 2 26 14 53 25 58 26 63 53
15 82 -37 22 -35 22 -67 9z m34 -49 c-3 -5 -13 -10 -21 -10 -8 0 -12 5 -9 10
3 6 13 10 21 10 8 0 12 -4 9 -10z"/>
<path d="M1135 9210 c-21 -40 -21 -168 0 -176 8 -4 23 0 31 7 14 11 15 26 11
82 -6 68 -6 69 13 52 19 -18 50 -15 50 5 0 6 -7 13 -15 16 -8 4 -13 10 -10 15
6 9 -27 29 -49 29 -9 0 -22 -13 -31 -30z"/>
<path d="M3413 9213 c-90 -97 -34 -212 89 -183 51 13 73 31 65 55 -5 13 -10
13 -41 0 -50 -21 -93 -19 -106 4 -14 28 -12 44 4 38 16 -7 73 29 90 55 8 13 6
22 -8 37 -26 29 -62 26 -93 -6z"/>
<path d="M980 9221 c0 -5 -12 -21 -26 -35 -24 -22 -26 -29 -22 -77 6 -58 24
-79 69 -79 31 0 69 40 69 74 0 12 -15 43 -32 70 -32 48 -58 69 -58 47z m34
-87 c17 -44 -6 -82 -31 -49 -20 28 -17 65 6 65 10 0 22 -7 25 -16z"/>
<path d="M4511 9208 c-16 -44 -20 -136 -7 -154 16 -21 36 -11 36 19 1 12 7 36
15 52 l13 30 1 -32 c1 -41 23 -43 56 -5 l23 27 7 -30 c11 -44 33 -75 55 -75
28 0 32 15 10 40 -11 13 -20 33 -20 44 0 38 -29 69 -59 63 -20 -4 -30 0 -39
14 -9 13 -19 18 -32 14 -10 -3 -21 -1 -25 5 -10 17 -25 11 -34 -12z"/>
<path d="M3019 9203 c-1 -5 -3 -24 -5 -43 -2 -19 -6 -40 -9 -47 -7 -20 15 -72
35 -83 48 -26 110 5 110 53 0 27 -64 107 -86 107 -8 0 -14 5 -14 10 0 11 -29
14 -31 3z m63 -80 c21 -19 24 -49 4 -56 -20 -8 -36 13 -36 45 0 32 6 35 32 11z"/>
<path d="M4946 9191 c-38 -42 -28 -151 14 -151 18 0 20 5 18 58 -3 51 -1 57
17 57 37 1 48 15 29 36 -22 24 -56 24 -78 0z"/>
<path d="M4778 9172 c-16 -27 -13 -76 7 -125 9 -21 53 -33 74 -20 36 23 30
107 -11 150 -28 30 -50 29 -70 -5z m62 -79 c0 -13 -4 -23 -9 -23 -10 0 -19 40
-13 59 6 19 22 -7 22 -36z"/>
<path d="M5104 9126 c-3 -8 -4 -27 -2 -43 2 -20 9 -29 26 -31 20 -3 22 1 22
36 0 27 -5 42 -16 46 -22 8 -24 8 -30 -8z"/>
<path d="M5911 9081 c-19 -12 -6 -41 19 -41 16 0 21 5 18 22 -3 25 -17 32 -37
19z"/>
<path d="M7702 9003 c764 -2 2012 -2 2775 0 764 1 139 2 -1387 2 -1526 0
-2151 -1 -1388 -2z"/>
<path d="M2304 8938 c-4 -6 -6 -38 -5 -71 l3 -60 -37 7 c-34 7 -36 6 -33 -16
2 -17 11 -24 31 -26 23 -3 27 -8 28 -35 0 -18 6 -52 12 -77 9 -34 17 -45 32
-45 16 0 19 6 17 25 -2 14 -6 49 -9 78 l-5 52 32 0 c33 0 65 23 55 40 -3 5
-23 10 -43 10 l-37 0 3 44 c5 62 -23 109 -44 74z"/>
<path d="M1412 8851 c-22 -48 -47 -91 -56 -94 -8 -3 -14 -18 -14 -34 1 -16
-10 -47 -22 -69 -24 -41 -22 -74 2 -74 7 1 28 32 46 71 33 70 55 89 103 89 14
0 19 -7 19 -30 0 -16 6 -35 13 -42 8 -6 12 -21 9 -33 -4 -23 21 -50 38 -40 14
9 13 41 -2 57 -7 7 -14 28 -14 46 -2 25 2 32 15 30 24 -4 20 35 -5 46 -17 8
-23 21 -27 60 -3 28 -11 63 -18 79 -22 49 -43 34 -87 -62z m56 -63 c-14 -9
-38 -11 -38 -3 0 2 8 24 17 47 l17 43 8 -39 c6 -29 5 -42 -4 -48z"/>
<path d="M4173 8919 c-6 -6 -9 -27 -6 -47 3 -21 1 -53 -4 -72 -8 -31 -13 -36
-49 -40 -56 -7 -53 -34 4 -38 l43 -3 -7 -58 c-4 -38 -2 -61 4 -65 16 -10 39
32 46 85 5 36 12 48 28 52 24 7 19 31 -8 35 -18 3 -20 11 -19 79 0 75 -9 95
-32 72z"/>
<path d="M768 8905 c-3 -4 -29 -8 -58 -10 -58 -4 -76 -15 -66 -40 4 -12 14
-15 43 -10 35 6 37 5 19 -9 -25 -20 -15 -59 24 -88 30 -22 38 -50 21 -77 -7
-11 -24 -13 -71 -8 -49 4 -62 2 -67 -10 -9 -22 9 -33 65 -40 61 -7 108 9 116
40 14 53 6 93 -23 121 l-30 28 44 37 c52 43 59 71 17 71 -16 0 -31 -2 -34 -5z"/>
<path d="M1638 8903 c-1 -5 -2 -28 -3 -53 -5 -127 -19 -236 -32 -252 -18 -20
-9 -38 17 -38 25 0 44 35 46 86 1 22 5 84 9 138 5 70 4 101 -5 111 -13 16 -29
20 -32 8z"/>
<path d="M3376 8903 c-11 -12 -6 -41 9 -53 21 -17 39 1 31 28 -7 21 -30 35
-40 25z"/>
<path d="M1734 8876 c-3 -9 -4 -67 -2 -129 3 -88 8 -118 22 -139 10 -16 22
-28 27 -28 18 0 22 33 8 54 -10 15 -14 54 -14 136 0 101 -2 115 -18 118 -9 2
-20 -4 -23 -12z"/>
<path d="M4800 8875 c-10 -11 -10 -19 -2 -27 15 -15 44 -2 40 19 -4 23 -22 27
-38 8z"/>
<path d="M4303 8854 c-15 -7 -17 -40 -3 -49 13 -8 62 25 57 39 -4 12 -35 18
-54 10z"/>
<path d="M2650 8831 c0 -26 17 -36 35 -21 18 15 8 40 -16 40 -12 0 -19 -7 -19
-19z"/>
<path d="M2480 8796 c-16 -21 -37 -104 -36 -146 1 -28 5 -35 21 -35 17 0 21 9
28 63 8 59 10 62 26 48 29 -26 42 -2 23 45 -16 41 -40 51 -62 25z"/>
<path d="M3679 8761 c-37 -37 -51 -71 -28 -71 5 0 7 -5 4 -10 -4 -6 -11 -8
-16 -5 -12 8 -11 0 5 -39 17 -40 42 -50 101 -42 53 8 78 26 66 45 -8 12 -16
13 -51 2 -52 -16 -80 -7 -80 25 0 19 5 24 25 24 14 0 28 7 31 15 4 8 12 15 19
15 31 0 27 53 -6 70 -26 14 -28 14 -70 -29z"/>
<path d="M5230 8777 c-17 -9 -26 -22 -28 -44 -3 -32 6 -45 63 -87 19 -14 19
-16 4 -31 -16 -16 -18 -16 -42 0 -27 18 -47 13 -47 -10 0 -17 47 -55 69 -55
22 0 81 61 81 82 0 9 -20 33 -45 54 -25 20 -45 40 -45 45 0 5 18 9 40 9 28 0
43 5 47 16 12 32 -49 45 -97 21z"/>
<path d="M3328 8693 c-20 -82 -12 -113 29 -113 30 1 63 20 63 39 0 6 5 11 11
11 8 0 8 5 -1 15 -11 13 -15 12 -38 -6 -31 -24 -37 -14 -23 38 16 57 14 83 -7
83 -14 0 -22 -15 -34 -67z"/>
<path d="M4935 8750 c-28 -11 -61 -50 -69 -81 -4 -19 1 -35 16 -54 20 -25 25
-27 72 -22 73 9 126 26 133 43 10 26 -6 28 -83 10 -47 -11 -79 -15 -85 -9 -16
16 1 43 30 49 81 18 101 26 101 39 0 30 -68 45 -115 25z"/>
<path d="M2753 8744 c-7 -3 -13 -19 -13 -35 0 -42 39 -79 85 -79 30 0 35 -3
35 -24 0 -13 3 -37 6 -53 6 -29 5 -31 -39 -37 -46 -7 -87 -36 -87 -63 0 -27
44 -94 71 -108 14 -8 35 -11 47 -8 24 6 52 68 52 113 0 25 4 30 25 30 14 0 28
7 32 15 7 19 2 24 -27 30 -31 6 -30 4 -37 79 -3 40 -13 76 -23 88 l-17 21 -20
-22 c-12 -13 -26 -19 -36 -15 -23 8 -21 24 2 24 23 0 37 18 24 31 -11 11 -64
20 -80 13z m120 -276 c-11 -52 -25 -88 -33 -88 -12 0 -50 50 -50 66 0 8 12 16
28 19 15 4 34 10 42 15 8 5 16 9 17 9 0 1 -1 -9 -4 -21z"/>
<path d="M3921 8741 c-7 -5 -21 -6 -31 -4 -22 6 -31 -7 -52 -82 -11 -40 -13
-64 -7 -72 12 -14 39 -6 39 11 0 7 15 34 33 62 l32 49 5 -60 c4 -53 8 -60 28
-63 24 -4 45 29 24 36 -7 2 -12 26 -12 62 0 44 -4 59 -16 64 -20 8 -26 7 -43
-3z"/>
<path d="M4752 8698 c-6 -7 -18 -32 -27 -56 -16 -39 -16 -45 -2 -59 21 -21 33
-10 42 34 4 21 11 44 17 50 11 14 4 43 -10 43 -5 0 -14 -6 -20 -12z"/>
<path d="M2614 8655 c-24 -59 12 -80 40 -23 21 42 20 58 -5 58 -14 0 -25 -11
-35 -35z"/>
<path d="M4304 8676 c-10 -27 1 -51 24 -54 21 -3 23 0 20 30 -3 35 -33 52 -44
24z"/>
<path d="M894 8615 c-8 -19 3 -35 26 -35 19 0 34 25 24 41 -8 14 -44 10 -50
-6z"/>
<path d="M260 5560 l0 -2050 1245 0 c1179 0 1245 -1 1245 -17 0 -19 -13 -80
-31 -146 -9 -33 -13 -37 -37 -35 -21 2 -27 -1 -27 -17 0 -14 6 -20 21 -19 24
0 24 0 -11 -100 -15 -40 -15 -50 -4 -57 24 -15 32 -5 56 73 l23 76 44 6 c51 8
74 27 53 44 -9 8 -24 9 -45 2 -38 -10 -39 -10 -11 90 11 41 21 81 21 88 1 9
130 12 610 12 334 0 608 -2 608 -5 0 -3 -9 -24 -19 -46 -23 -46 -18 -71 12
-67 16 2 23 13 29 41 17 84 -16 77 393 77 l363 0 -20 -71 c-14 -50 -17 -74 -9
-82 17 -17 38 9 51 66 23 96 -29 87 488 87 456 0 458 0 459 -21 3 -33 23 -52
40 -38 10 9 11 14 2 19 -8 6 -8 13 0 28 6 11 11 30 11 41 0 11 7 38 16 60 12
31 22 40 47 45 17 4 46 21 64 38 44 43 46 98 5 147 -27 33 -28 35 -16 90 6 31
17 68 24 83 14 30 8 58 -14 58 -14 0 -37 -58 -51 -130 -10 -50 -13 -52 -46
-35 l-29 16 0 1539 c0 1466 1 1540 18 1540 27 0 90 47 107 81 37 70 15 142
-53 176 -36 18 -37 19 -30 58 4 22 5 52 2 68 -6 27 -5 27 50 27 57 0 76 11 56
34 -8 10 -31 13 -80 11 l-70 -2 0 83 0 84 -2780 0 -2780 0 0 -2050z m5549
1755 c0 -157 -4 -285 -8 -285 -17 0 -41 36 -30 47 7 7 5 14 -7 24 -14 12 -19
10 -35 -10 -11 -13 -19 -28 -19 -33 0 -18 58 -68 79 -68 l21 0 0 -1535 0
-1536 -24 -22 c-27 -25 -56 -95 -56 -135 0 -31 31 -86 57 -103 18 -11 18 -14
-2 -75 l-20 -64 -294 0 c-245 0 -292 2 -288 14 3 7 2 17 -3 22 -5 5 0 40 11
79 57 194 63 225 51 237 -8 8 -22 1 -57 -31 -26 -24 -49 -40 -52 -37 -8 8 25
56 43 63 19 7 18 43 -2 43 -42 0 -84 -52 -84 -107 -1 -24 -2 -25 -11 -10 -5 9
-17 17 -25 17 -8 0 -13 4 -9 9 3 5 -10 15 -29 22 -34 12 -34 12 -20 45 8 18
14 42 14 53 0 11 14 33 32 50 27 25 30 32 19 45 -21 25 -44 4 -80 -73 -23 -50
-36 -68 -47 -64 -8 3 -30 2 -48 -1 -29 -6 -39 -15 -60 -58 -35 -71 -35 -135 0
-177 l26 -31 -22 -55 -22 -55 -364 0 c-317 0 -364 2 -364 15 0 11 12 15 46 15
59 0 102 26 149 89 82 113 88 208 13 229 l-26 7 44 93 c25 51 42 97 39 103 -9
13 -45 11 -45 -2 0 -7 -20 -54 -45 -107 l-45 -95 -60 6 c-44 4 -62 1 -71 -9
-6 -8 -8 -14 -3 -14 4 0 -11 -19 -33 -42 -23 -24 -47 -56 -53 -72 -15 -40 -2
-93 32 -132 19 -22 28 -40 24 -51 -4 -9 -1 -20 6 -24 7 -5 -841 -9 -1884 -9
l-1898 0 0 2040 0 2040 2770 0 2770 0 -1 -285z m80 -121 c33 -28 37 -44 20
-92 -9 -27 -61 -72 -83 -72 -3 0 -6 43 -6 95 0 87 2 95 19 95 11 0 33 -12 50
-26z m-79 -3416 c-1 -75 -2 -81 -15 -64 -18 24 -19 85 -3 121 6 14 13 25 15
25 1 0 3 -37 3 -82z m60 42 c0 -9 -3 -20 -7 -24 -5 -4 -16 -28 -25 -54 l-16
-47 -1 82 -1 83 25 -12 c14 -6 25 -19 25 -28z m-969 10 c19 -10 20 -26 4 -65
-4 -11 -14 -35 -21 -53 -8 -18 -18 -31 -23 -27 -20 12 -23 70 -6 113 19 47 18
46 46 32z m-721 -15 c0 -9 -10 -29 -21 -44 -12 -16 -18 -34 -15 -40 4 -6 2
-11 -3 -11 -6 0 -23 -23 -37 -52 l-26 -52 -24 27 c-32 37 -31 78 3 118 48 57
123 90 123 54z m109 -4 c7 -12 6 -31 -1 -57 -7 -21 -11 -42 -10 -46 1 -5 -2
-8 -6 -8 -5 0 -23 -20 -40 -44 -31 -43 -94 -78 -110 -61 -4 3 15 48 42 99 27
51 46 98 42 104 -4 8 -2 10 7 6 8 -3 17 2 20 10 9 22 44 20 56 -3z m712 -11
c5 0 18 -9 29 -20 19 -19 19 -22 5 -58 -17 -40 -50 -71 -77 -72 -9 0 -19 -6
-21 -12 -8 -18 -29 12 -23 32 26 83 53 140 64 135 8 -3 18 -5 23 -5z m927 -12
c21 -21 13 -55 -19 -83 -17 -14 -34 -24 -36 -21 -6 6 29 116 37 116 3 0 11 -5
18 -12z m-749 -43 c-6 -19 -7 -40 -4 -45 3 -6 2 -10 -4 -10 -16 0 -44 -108
-37 -141 l6 -29 -140 0 c-153 0 -157 2 -122 57 14 24 24 28 64 30 31 1 58 9
78 23 33 23 70 87 70 119 0 17 5 20 29 15 16 -3 37 -1 48 5 10 6 19 11 20 11
1 0 -3 -16 -8 -35z m-354 -35 c3 -5 1 -10 -4 -10 -6 0 -11 5 -11 10 0 6 2 10
4 10 3 0 8 -4 11 -10z m-2055 -260 c0 -5 -2 -10 -4 -10 -3 0 -8 5 -11 10 -3 6
-1 10 4 10 6 0 11 -4 11 -10z"/>
<path d="M3239 7456 c-2 -3 -22 -6 -44 -9 -22 -2 -53 -10 -70 -16 -16 -7 -52
-18 -80 -25 -38 -10 -51 -18 -53 -35 -4 -25 7 -26 77 -5 29 8 54 14 56 12 1
-2 -6 -37 -16 -78 -9 -41 -20 -101 -24 -132 -6 -54 -5 -58 13 -58 14 0 22 8
25 28 3 15 16 80 28 144 l23 117 38 6 c20 4 46 4 57 0 21 -6 47 26 36 45 -6
10 -58 14 -66 6z"/>
<path d="M1125 7434 c-33 -8 -75 -12 -93 -9 -28 5 -33 2 -42 -20 -6 -15 -10
-42 -10 -61 0 -18 -12 -92 -26 -164 -14 -71 -24 -137 -20 -145 6 -17 42 -21
48 -5 4 12 140 33 184 28 25 -3 34 0 37 14 3 9 2 19 -1 22 -9 9 -133 6 -177
-4 -22 -5 -41 -8 -42 -6 -2 1 2 28 8 59 10 48 15 57 33 57 11 0 55 7 96 16 41
9 85 18 98 20 26 5 30 32 6 41 -9 3 -49 -1 -88 -11 -39 -9 -83 -16 -97 -16
l-25 0 10 65 c9 65 9 65 42 65 18 0 63 7 101 15 37 9 78 18 91 20 12 3 22 12
22 20 0 19 -69 18 -155 -1z"/>
<path d="M5274 7432 c-27 -26 -79 -112 -104 -170 -13 -31 -28 -51 -35 -48 -22
8 -41 -12 -29 -31 8 -13 5 -33 -11 -82 -13 -36 -20 -72 -17 -79 11 -30 36 -3
58 62 12 38 27 72 31 76 4 5 26 11 49 15 l40 6 -4 -62 c-3 -44 -1 -64 9 -70
16 -10 42 9 35 27 -2 6 0 43 5 81 17 123 27 244 22 263 -7 26 -30 32 -49 12z
m0 -140 c-7 -62 -15 -71 -66 -72 -15 0 -13 8 12 50 17 28 30 53 30 56 0 6 24
33 28 30 1 -2 -1 -30 -4 -64z"/>
<path d="M2840 7424 c-51 -22 -90 -63 -90 -94 0 -32 29 -61 92 -90 25 -12 54
-30 63 -40 15 -17 16 -22 4 -36 -16 -19 -86 -54 -109 -54 -8 0 -21 4 -29 9
-12 8 -13 12 -1 26 10 12 10 19 1 28 -17 17 -45 -4 -49 -37 -10 -85 123 -90
211 -8 51 48 26 103 -69 151 -60 29 -78 49 -63 68 28 33 109 58 109 33 0 -5 9
-10 20 -10 28 0 26 35 -2 54 -28 20 -43 19 -88 0z"/>
<path d="M3521 7388 c-11 -24 -33 -78 -51 -120 -18 -43 -36 -78 -40 -78 -5 0
-18 42 -30 94 -13 57 -27 97 -36 100 -18 7 -40 -27 -53 -85 -11 -49 -45 -127
-75 -172 -15 -22 -16 -30 -6 -42 7 -8 16 -15 20 -15 10 0 100 177 101 199 0 9
8 -12 18 -47 17 -58 43 -102 62 -102 18 0 39 36 84 142 26 62 52 116 57 119
15 10 5 43 -15 47 -12 3 -23 -9 -36 -40z"/>
<path d="M4002 7405 c-43 -20 -52 -28 -47 -44 9 -31 -75 -248 -104 -265 -4 -3
-8 -18 -9 -35 0 -25 4 -30 31 -34 18 -3 50 -8 72 -12 47 -7 117 24 148 66 38
52 31 159 -10 159 -11 0 -5 12 21 40 44 48 54 85 35 119 -20 36 -69 38 -137 6z
m98 -35 c0 -32 -30 -69 -73 -91 -28 -15 -42 -18 -50 -10 -8 8 -6 15 5 23 9 7
18 24 20 38 2 17 14 31 38 42 46 23 60 23 60 -2z m-42 -171 c26 -10 28 -26 8
-74 -18 -41 -64 -67 -114 -63 -43 4 -52 26 -30 73 9 16 21 42 28 57 11 23 17
26 49 21 20 -3 46 -10 59 -14z"/>
<path d="M4315 7421 c-3 -6 -22 -42 -42 -80 -35 -69 -37 -71 -73 -71 -25 0
-40 -5 -44 -16 -9 -24 3 -36 30 -30 l23 6 -15 -42 c-19 -52 -21 -142 -4 -163
18 -22 55 -19 84 8 19 16 23 26 16 37 -8 13 -13 13 -40 -3 l-30 -18 0 45 c0
62 33 136 60 136 12 0 30 5 41 11 16 8 18 13 8 25 -6 8 -18 14 -25 14 -10 0
-5 17 18 59 18 34 29 65 25 75 -7 18 -23 21 -32 7z"/>
<path d="M1697 7364 c-13 -13 -7 -42 10 -48 23 -9 40 10 27 31 -12 20 -27 26
-37 17z"/>
<path d="M5618 7258 c-64 -63 -99 -136 -123 -258 -23 -116 -23 -115 0 -115 15
0 26 15 45 62 23 58 27 63 57 63 39 0 90 41 110 89 35 82 35 181 0 203 -22 14
-35 8 -89 -44z m61 -105 c-16 -58 -44 -93 -76 -93 -22 0 -24 3 -19 26 4 15 10
39 13 55 3 16 24 50 47 76 l41 47 3 -34 c2 -19 -2 -53 -9 -77z"/>
<path d="M1436 7281 c-45 -30 -77 -97 -108 -231 -44 -184 -44 -180 -20 -180
23 0 45 53 63 152 12 64 13 67 38 62 52 -11 120 61 137 143 5 24 1 36 -15 52
-26 26 -57 27 -95 2z m64 -56 c0 -31 -55 -94 -80 -92 -24 2 -25 9 -4 50 23 45
44 67 66 67 12 0 18 -7 18 -25z"/>
<path d="M3755 7289 c-16 -3 -54 -7 -82 -8 -46 -1 -53 -4 -53 -21 0 -18 7 -20
78 -20 64 0 82 3 96 19 22 24 2 40 -39 30z"/>
<path d="M4665 7246 c-28 -22 -31 -23 -48 -8 -24 21 -32 9 -47 -68 -28 -145
-7 -168 50 -57 39 75 94 127 113 108 8 -8 6 -30 -6 -83 -12 -47 -14 -75 -8
-81 37 -37 81 136 51 194 -15 27 -68 25 -105 -5z"/>
<path d="M4491 7221 c-12 -16 -21 -34 -21 -39 0 -6 -4 -12 -9 -14 -5 -1 -20
-28 -34 -58 l-26 -55 -7 33 c-3 18 -11 35 -15 38 -5 3 -4 14 2 25 7 15 7 24
-1 34 -20 24 -40 6 -40 -34 0 -43 26 -137 40 -146 25 -15 53 10 80 70 15 34
42 82 59 105 24 33 28 46 20 56 -17 20 -25 17 -48 -15z"/>
<path d="M5416 7226 c-13 -12 -31 -26 -39 -29 -15 -6 -47 -99 -68 -197 -6 -30
-16 -63 -21 -73 -11 -22 7 -48 28 -40 7 3 24 37 36 77 22 67 24 71 51 68 32
-4 79 40 103 96 19 47 18 74 -6 100 -27 28 -55 28 -84 -2z m56 -57 c-3 -30
-52 -91 -75 -95 -20 -3 -21 4 -6 43 13 34 59 85 74 80 5 -3 9 -15 7 -28z"/>
<path d="M1789 7201 c-53 -54 -35 -138 36 -161 42 -14 129 -5 145 15 18 21 -8
30 -77 26 -56 -2 -63 -1 -77 22 -12 18 -14 31 -7 49 12 31 34 40 67 28 42 -16
61 10 27 36 -32 24 -82 17 -114 -15z"/>
<path d="M4970 7200 c-8 -6 -34 -9 -57 -8 -47 2 -58 -4 -50 -27 5 -11 21 -15
60 -15 59 0 94 18 84 44 -7 18 -16 20 -37 6z"/>
<path d="M1610 7136 c-12 -32 -2 -68 18 -64 16 3 35 65 26 80 -10 16 -35 7
-44 -16z"/>
<path d="M2302 7137 c-25 -8 -32 -15 -30 -31 2 -15 9 -20 23 -18 11 2 33 5 48
6 41 4 57 24 33 42 -22 16 -28 16 -74 1z"/>
<path d="M5585 3931 c-43 -27 -88 -78 -81 -90 12 -19 37 -12 58 14 20 26 56
50 64 43 2 -3 -7 -32 -20 -66 -26 -66 -63 -121 -83 -121 -24 -2 -83 -63 -83
-87 0 -33 30 -32 70 2 l31 27 35 -42 c26 -30 43 -41 64 -41 42 0 60 10 60 32
0 18 -5 20 -35 15 -29 -5 -38 -1 -54 19 -34 43 -34 59 -2 106 41 57 71 169 52
192 -18 21 -39 20 -76 -3z"/>
<path d="M4397 3889 c-39 -32 -50 -69 -20 -69 9 0 30 12 46 28 l30 27 -6 -54
c-4 -29 -17 -72 -31 -95 -22 -37 -38 -55 -105 -117 -21 -19 -19 -49 4 -49 7 0
24 9 38 20 32 25 35 25 96 -6 41 -22 53 -24 66 -14 20 17 14 23 -49 55 l-55
28 24 31 c38 50 55 100 55 164 0 89 -28 104 -93 51z"/>
<path d="M4624 3655 c-4 -9 -2 -21 4 -27 15 -15 44 -1 40 19 -4 23 -36 29 -44
8z"/>
<path d="M5268 3609 c-24 -14 -23 -49 1 -49 24 0 45 25 37 45 -6 17 -14 18
-38 4z"/>
<path d="M6317 7603 c-4 -3 -7 -95 -7 -204 l0 -197 -39 -34 c-26 -22 -48 -54
-66 -98 -15 -36 -32 -77 -38 -92 -8 -21 -8 -31 0 -39 17 -17 28 -5 73 84 23
45 48 89 56 97 12 12 14 9 14 -28 0 -23 -8 -58 -17 -78 -17 -34 -17 -37 0 -49
16 -11 17 -101 17 -1504 l0 -1492 -37 -49 c-36 -48 -52 -51 -53 -11 0 21 49
81 66 81 7 0 14 9 14 20 0 30 -41 25 -73 -8 -15 -15 -27 -33 -27 -40 0 -7 -4
-12 -10 -12 -13 0 -13 -66 1 -105 10 -26 8 -37 -11 -75 -13 -26 -25 -71 -28
-109 -5 -58 -3 -65 19 -81 21 -16 26 -17 51 -4 62 32 95 167 55 228 -17 25
-17 27 5 57 l23 31 3 -191 2 -191 2780 0 2780 0 0 2050 0 2050 -2773 0 c-1526
0 -2777 -3 -2780 -7z m5543 -2043 l0 -2040 -2770 0 -2770 0 0 196 0 196 29 37
c45 58 53 78 41 102 -14 25 -46 21 -43 -6 1 -10 -5 -28 -13 -39 -12 -18 -14
179 -14 1468 l0 1489 34 61 c36 65 71 104 83 92 4 -4 0 -35 -10 -69 -13 -51
-14 -64 -3 -75 18 -18 39 9 39 49 0 16 4 29 9 29 4 0 8 23 8 50 0 44 -3 52
-25 62 -22 10 -30 8 -57 -12 l-31 -23 7 27 c9 36 -10 69 -35 61 -18 -6 -19 0
-19 189 l0 196 2770 0 2770 0 0 -2040z m-5533 1578 c-3 -8 -6 -5 -6 6 -1 11 2
17 5 13 3 -3 4 -12 1 -19z m-77 -3409 c0 -43 -18 -87 -46 -110 -16 -13 -17
-10 -12 36 6 60 34 129 48 120 5 -3 10 -24 10 -46z"/>
<path d="M7060 7383 c-26 -10 -70 -56 -70 -74 0 -31 20 -31 49 0 46 49 122 54
120 8 -2 -56 -85 -214 -137 -260 -67 -60 -82 -77 -82 -96 0 -35 38 -25 77 19
20 22 40 40 44 40 4 0 31 -18 60 -40 30 -22 63 -40 74 -40 29 0 65 28 65 51 0
20 -24 26 -35 9 -13 -20 -51 -8 -93 30 l-43 38 37 57 c54 85 74 135 74 187 0
37 -5 50 -22 62 -22 15 -87 20 -118 9z"/>
<path d="M6831 7178 c-5 -13 -12 -39 -16 -58 -4 -19 -18 -55 -30 -79 l-22 -45
-12 50 c-6 27 -13 67 -15 88 -4 43 -27 64 -46 41 -9 -10 -9 -23 -1 -47 5 -18
15 -61 22 -96 6 -35 20 -73 29 -85 16 -19 20 -20 35 -7 40 33 105 208 91 245
-8 22 -25 18 -35 -7z"/>
<path d="M6558 7163 c-50 -57 -69 -157 -36 -189 22 -22 75 -20 107 4 33 24 57
95 45 131 -5 15 -27 35 -49 48 -50 27 -49 27 -67 6z m75 -75 c11 -42 -41 -103
-73 -83 -13 8 -13 46 0 79 13 34 65 37 73 4z"/>
<path d="M7037 6692 c-10 -4 -18 -11 -18 -15 2 -18 0 -21 -7 -10 -6 10 -29 7
-101 -12 -51 -14 -103 -25 -116 -25 -28 0 -41 -16 -36 -47 2 -23 -79 -307
-101 -351 -17 -32 4 -52 30 -29 11 10 50 21 98 27 128 16 195 32 201 47 10 26
-11 32 -72 18 -33 -7 -90 -16 -127 -20 l-67 -6 20 73 c11 40 23 76 27 79 4 3
45 11 92 18 47 7 89 16 95 19 5 4 26 7 45 7 28 0 36 4 38 21 2 12 -3 24 -11
27 -12 5 -100 -13 -157 -31 -8 -2 -32 -6 -54 -8 -30 -3 -37 -1 -33 10 3 8 11
32 18 54 10 36 16 41 68 57 31 10 65 22 76 26 11 5 34 11 50 14 63 11 120 33
120 46 0 16 -49 22 -78 11z m-113 -58 c3 -8 2 -12 -4 -9 -6 3 -10 10 -10 16 0
14 7 11 14 -7z"/>
<path d="M10190 6620 c0 -12 9 -33 20 -48 11 -15 28 -53 39 -85 l20 -57 -38 6
c-49 8 -79 -8 -96 -50 -28 -66 17 -136 85 -136 30 0 78 27 91 51 27 51 -1 184
-60 291 -27 50 -61 65 -61 28z m90 -260 c0 -33 -10 -47 -41 -59 -47 -17 -82
24 -63 73 5 13 18 16 55 14 45 -3 49 -5 49 -28z"/>
<path d="M7401 6602 c-8 -15 -7 -23 2 -30 18 -15 59 4 55 25 -5 26 -44 29 -57
5z"/>
<path d="M8817 6491 c-5 -101 -22 -191 -36 -191 -10 0 -79 113 -97 160 -23 60
-31 68 -50 49 -9 -10 -18 -48 -24 -100 -5 -46 -12 -108 -16 -137 -7 -53 -6
-54 17 -50 20 2 25 10 31 48 3 25 7 67 7 94 l1 49 48 -74 c57 -87 74 -103 101
-94 25 8 46 76 61 200 13 106 7 155 -19 155 -16 0 -19 -13 -24 -109z"/>
<path d="M8520 6574 c-41 -7 -99 -10 -127 -7 -49 5 -53 4 -53 -15 0 -18 8 -22
51 -28 l51 -7 -6 -51 c-19 -155 -19 -195 -2 -202 9 -4 19 -4 22 -1 3 2 10 61
16 131 13 141 4 129 107 145 71 12 76 14 68 36 -7 17 -24 17 -127 -1z"/>
<path d="M9338 6548 c-38 -24 -68 -49 -68 -56 0 -22 28 -25 57 -5 15 11 33 23
40 27 7 3 -4 -28 -23 -70 -44 -95 -53 -141 -30 -150 11 -4 27 3 47 22 l29 28
28 -26 c25 -25 70 -48 92 -48 26 0 81 65 95 113 17 58 20 193 5 202 -22 14
-41 -17 -35 -56 8 -49 -13 -153 -37 -184 -27 -34 -52 -31 -95 11 -23 24 -42
34 -54 31 -26 -7 -24 -1 17 86 57 122 39 142 -68 75z"/>
<path d="M9887 6573 c-2 -5 -5 -50 -6 -102 -1 -51 -6 -102 -11 -112 -6 -10
-10 -25 -10 -33 0 -44 105 -84 172 -65 46 12 60 30 65 79 3 32 -1 45 -21 65
-30 30 -68 32 -118 6 l-37 -18 6 78 c4 56 2 83 -7 94 -14 16 -27 19 -33 8z
m161 -205 c42 -42 -27 -83 -105 -62 -32 9 -28 25 10 52 35 24 76 29 95 10z"/>
<path d="M8135 6551 c-11 -5 -28 -18 -39 -29 -29 -32 -14 -66 50 -115 109 -82
110 -83 95 -101 -10 -12 -26 -16 -55 -14 -40 3 -41 4 -44 41 -2 28 -8 37 -22
37 -36 0 -40 -57 -7 -95 46 -55 153 -39 176 27 12 35 -7 60 -94 123 -36 25
-65 52 -65 59 0 15 42 36 74 36 12 0 31 -6 41 -14 11 -8 25 -12 32 -9 20 8 16
41 -6 53 -23 12 -107 12 -136 1z"/>
<path d="M7158 6510 c-20 -11 -49 -40 -65 -64 -15 -25 -33 -45 -39 -46 -5 0
-16 -34 -23 -75 -7 -42 -23 -94 -36 -116 -25 -45 -23 -79 5 -79 11 0 25 17 39
49 11 27 21 54 21 59 0 5 11 7 24 5 52 -10 166 144 166 224 0 22 -7 37 -22 47
-27 19 -25 20 -70 -4z m52 -42 c0 -25 -48 -114 -78 -146 -39 -41 -54 -35 -40
16 14 51 26 72 61 110 32 33 57 42 57 20z"/>
<path d="M7502 6479 c-47 -30 -86 -100 -77 -139 10 -47 44 -64 116 -57 64 6
86 17 74 37 -5 8 -24 10 -62 5 -92 -11 -110 30 -43 97 33 33 44 39 66 34 33
-9 59 10 43 30 -17 21 -79 17 -117 -7z"/>
<path d="M7315 6396 c-15 -41 -25 -82 -22 -91 13 -32 35 -13 56 48 28 79 31
110 10 115 -12 2 -24 -16 -44 -72z"/>
<path d="M9089 6460 c-9 -5 -36 -14 -60 -19 -36 -8 -47 -7 -62 6 -16 15 -19
15 -33 1 -13 -12 -14 -20 -5 -37 9 -17 21 -21 59 -21 46 0 123 28 136 48 9 15
-17 32 -35 22z"/>
<path d="M9705 6454 c-39 -20 -74 -53 -91 -86 -34 -66 -6 -98 87 -98 82 0 111
8 107 29 -3 13 -16 15 -80 13 -53 -3 -78 0 -84 9 -5 9 -2 10 10 6 19 -8 99 24
128 50 24 21 23 48 -2 73 -24 24 -36 25 -75 4z m45 -39 c0 -8 -63 -45 -75 -45
-14 1 47 50 63 50 6 0 12 -2 12 -5z"/>
<path d="M10900 6435 c0 -22 4 -25 35 -25 22 0 35 5 35 13 0 20 -22 37 -47 37
-18 0 -23 -6 -23 -25z"/>
<path d="M10440 6439 c-40 -11 -80 -51 -80 -81 0 -30 35 -73 74 -92 36 -17
132 -21 155 -7 8 5 11 16 8 25 -6 14 -16 16 -55 10 -37 -5 -59 -2 -87 12 l-37
17 53 16 c46 14 54 21 57 43 2 17 -4 34 -17 47 -23 23 -22 23 -71 10z m35 -49
c-3 -5 -16 -10 -28 -10 -18 0 -19 2 -7 10 20 13 43 13 35 0z"/>
<path d="M10845 6445 c-5 -2 -36 -11 -69 -20 -58 -16 -58 -16 -52 -48 5 -27 4
-29 -6 -12 -17 31 -60 75 -74 75 -15 0 -26 -28 -14 -35 6 -4 28 -33 50 -65 42
-62 71 -80 96 -59 15 12 15 40 -1 80 -5 13 7 20 54 33 63 18 69 24 49 44 -12
12 -16 13 -33 7z"/>
<path d="M7833 6420 c-58 -12 -83 -27 -83 -50 0 -22 29 -27 47 -9 5 5 37 13
69 16 68 7 90 19 73 39 -13 15 -42 16 -106 4z"/>
<path d="M10494 4039 c-14 -22 -28 -47 -31 -55 -3 -8 -12 -14 -20 -14 -29 0
-105 -44 -134 -78 -38 -43 -39 -89 -3 -131 l26 -31 -32 -50 c-32 -50 -34 -80
-5 -80 9 0 18 8 22 18 4 9 19 36 35 60 24 35 35 42 61 42 60 0 130 61 129 112
-2 56 -10 89 -27 108 -17 19 -17 21 9 60 30 45 33 65 11 74 -10 4 -24 -8 -41
-35z m-90 -176 c-14 -32 -28 -64 -31 -70 -8 -19 -31 -16 -43 6 -21 40 24 96
97 120 2 1 -9 -25 -23 -56z m90 31 c11 -29 6 -69 -12 -90 -17 -22 -53 -44 -70
-44 -10 0 59 150 69 150 4 0 10 -7 13 -16z"/>
<path d="M8596 4003 c-9 -16 -28 -43 -44 -62 -25 -29 -31 -32 -50 -22 -31 16
-77 13 -94 -6 -41 -47 -65 -147 -43 -182 3 -6 -15 -39 -40 -73 -43 -59 -55
-103 -29 -103 7 0 31 29 55 65 39 57 48 65 76 65 17 0 35 3 39 8 11 11 26 9
19 -3 -3 -5 1 -10 9 -10 9 0 16 4 16 10 0 5 7 7 15 4 20 -8 79 30 93 61 21 46
15 81 -19 108 l-32 25 42 57 c22 32 41 64 41 72 0 24 -39 14 -54 -14z m-116
-128 c10 -12 4 -23 -31 -63 -40 -45 -44 -47 -47 -26 -5 35 34 103 59 104 4 0
12 -7 19 -15z m89 -49 c24 -26 20 -48 -13 -75 -21 -17 -77 -29 -99 -22 -15 6
-11 15 30 63 26 31 51 57 54 57 3 1 16 -10 28 -23z"/>
<path d="M9376 3978 c-22 -35 -30 -55 -23 -60 20 -12 -20 -20 -42 -9 -39 21
-79 13 -122 -26 -73 -66 -83 -111 -38 -174 18 -25 18 -29 3 -64 -17 -41 -9
-59 22 -53 11 2 19 12 20 24 2 34 13 45 34 34 48 -26 170 11 156 47 -3 8 -1
11 4 8 15 -9 32 46 25 82 -3 18 -17 46 -30 62 l-25 29 41 61 c38 57 45 91 19
91 -5 0 -25 -24 -44 -52z m-97 -122 c9 -11 6 -20 -14 -42 -14 -15 -35 -43 -46
-61 -20 -32 -22 -33 -35 -16 -23 30 -16 63 20 99 37 37 57 42 75 20z m91 -91
c0 -46 -50 -89 -94 -81 -16 4 -32 8 -34 11 -4 4 33 62 83 132 15 21 45 -21 45
-62z"/>
<path d="M10722 3998 c-7 -7 -12 -16 -12 -21 0 -5 -25 -68 -56 -138 -31 -71
-53 -136 -50 -144 11 -31 33 -13 58 48 14 34 42 102 63 150 34 81 39 117 17
117 -4 0 -13 -5 -20 -12z"/>
<path d="M10090 3942 c-30 -15 -56 -36 -58 -45 -4 -19 26 -35 37 -20 7 11 37
28 76 43 23 9 25 8 16 -8 -15 -28 -119 -122 -135 -122 -28 0 -86 -41 -86 -61
0 -25 20 -24 80 2 29 12 59 19 72 16 28 -7 70 -45 63 -56 -8 -15 19 -31 35
-21 8 6 11 10 5 10 -5 0 -4 4 4 9 12 8 12 13 -3 36 -10 15 -33 36 -52 47 l-35
20 46 47 c101 102 59 168 -65 103z"/>
<path d="M10907 3952 c-15 -9 -37 -36 -49 -60 -17 -36 -19 -48 -9 -69 10 -22
9 -28 -10 -41 -28 -19 -51 -76 -43 -106 7 -28 57 -56 99 -56 39 0 90 35 109
74 22 46 21 50 -14 79 -28 24 -29 26 -10 32 11 3 29 18 40 32 62 79 -26 169
-113 115z m89 -43 c17 -29 -37 -79 -86 -79 -30 0 -26 36 9 70 28 28 62 32 77
9z m-29 -175 c3 -8 -4 -26 -18 -40 -19 -20 -31 -24 -64 -22 -32 2 -41 7 -43
24 -5 33 24 54 74 54 31 0 46 -5 51 -16z"/>
<path d="M8755 3919 c-69 -36 -80 -48 -60 -68 12 -13 17 -12 33 2 22 20 112
61 119 54 8 -9 -24 -61 -59 -93 -18 -17 -59 -50 -90 -72 -31 -23 -60 -47 -63
-53 -15 -23 21 -38 109 -45 82 -6 88 -6 84 12 -3 20 -34 31 -88 33 l-35 2 30
22 c54 39 126 111 141 139 17 33 18 70 2 86 -20 20 -60 14 -123 -19z"/>
<path d="M9561 3915 c-33 -37 -37 -51 -22 -74 9 -14 72 -18 92 -5 6 3 3 -10
-5 -30 -9 -20 -23 -52 -32 -72 -18 -42 -15 -89 5 -89 8 0 19 15 24 35 5 19 22
64 38 99 17 35 27 71 25 78 -3 8 -2 11 3 8 12 -7 25 31 16 45 -3 5 -13 10 -21
10 -8 0 -13 6 -11 13 1 8 -13 13 -39 15 -36 3 -45 -1 -73 -33z m99 -10 c0 -7
-57 -35 -71 -35 -7 0 -5 8 6 20 16 17 65 29 65 15z"/>
<path d="M9750 3704 c-11 -12 -10 -18 4 -32 16 -16 18 -16 31 2 11 14 12 23 4
33 -15 17 -24 16 -39 -3z"/>
<path d="M8945 3676 c-16 -12 -17 -16 -6 -29 16 -21 61 -2 61 25 0 22 -28 24
-55 4z"/>
<path d="M6071 7427 c-22 -22 1 -37 55 -37 62 0 62 0 30 -85 -19 -51 -28 -62
-57 -72 -19 -7 -47 -12 -62 -12 -22 -1 -28 -5 -25 -18 4 -22 62 -30 84 -12 21
18 18 5 -28 -92 -30 -65 -38 -93 -30 -101 20 -20 37 0 76 92 40 95 56 111 87
92 14 -9 22 -7 40 7 32 26 19 51 -26 51 -19 0 -35 1 -35 3 0 2 11 32 25 67 32
81 32 108 3 114 -51 11 -128 12 -137 3z"/>
<path d="M6077 3993 c-4 -3 -7 -27 -7 -52 0 -25 -9 -80 -21 -121 -11 -41 -29
-108 -39 -149 -11 -41 -28 -83 -37 -93 -13 -14 -14 -21 -5 -30 17 -17 66 13
70 44 2 13 21 91 43 174 21 82 39 164 39 180 0 39 -25 66 -43 47z"/>
<path d="M2406 3488 c-3 -7 -7 -34 -10 -60 -5 -41 -3 -47 12 -42 13 4 12 2 -4
-13 -12 -11 -25 -30 -29 -44 -4 -13 -25 -66 -47 -118 -38 -94 -42 -121 -15
-121 13 0 62 106 102 220 34 98 36 190 3 190 -5 0 -10 -6 -12 -12z"/>
<path d="M1303 3477 c-99 -37 -166 -133 -166 -237 0 -110 54 -160 180 -168 69
-4 75 -3 71 14 -3 15 -16 21 -63 26 -112 14 -145 44 -145 130 1 91 68 175 158
198 37 9 53 8 92 -6 82 -30 111 1 34 36 -51 22 -112 25 -161 7z"/>
<path d="M8693 3474 c-3 -8 -1 -20 4 -25 10 -10 6 -45 -17 -131 -10 -41 -16
-47 -45 -52 -18 -4 -39 -4 -46 -1 -21 7 -43 -11 -35 -30 5 -13 16 -16 55 -13
l48 3 -8 -27 c-7 -26 -12 -78 -10 -106 1 -8 8 -12 18 -10 11 2 20 22 30 68 18
92 17 90 68 90 39 0 46 3 43 18 -2 12 -15 18 -42 20 -33 3 -37 6 -33 25 34
147 33 187 -4 187 -11 0 -22 -7 -26 -16z"/>
<path d="M9720 3455 c-25 -8 -66 -16 -92 -19 -25 -2 -56 -9 -67 -15 -23 -13
-28 -37 -10 -43 13 -4 -30 -188 -44 -188 -5 0 -7 7 -3 15 7 20 -47 21 -63 2
-15 -19 -4 -27 36 -27 38 0 38 3 17 -72 l-17 -58 -229 0 c-126 0 -227 4 -224
8 2 4 1 14 -4 21 -6 11 -17 12 -53 2 -63 -15 -103 -14 -121 5 -24 24 -20 29
24 29 30 1 47 8 70 30 27 25 44 75 21 61 -5 -3 -8 2 -7 12 1 14 -7 17 -43 16
-38 -1 -49 -6 -83 -42 -40 -43 -49 -83 -28 -123 10 -18 6 -19 -139 -19 -125 0
-149 2 -145 14 9 22 -9 26 -75 15 -47 -7 -68 -7 -88 3 -39 19 -38 33 1 34 44
1 112 47 119 80 5 30 -26 74 -54 74 -81 0 -165 -132 -129 -201 10 -18 7 -19
-50 -19 l-60 0 0 38 c0 20 12 73 26 117 33 100 39 221 12 239 -14 8 -21 7 -35
-7 -17 -17 -17 -19 1 -32 23 -18 17 -66 -25 -204 -18 -57 -28 -107 -25 -123
l6 -28 -78 0 -78 0 46 48 c58 60 82 132 54 163 -9 11 -28 19 -41 19 -31 0
-102 -36 -110 -56 -3 -8 -12 -13 -21 -9 -24 9 -42 -14 -35 -46 3 -15 2 -49 -1
-74 l-7 -45 -222 1 c-138 0 -211 4 -194 9 62 19 72 51 35 110 -12 19 -21 43
-19 53 4 26 -26 32 -65 13 -73 -34 -79 -136 -11 -170 l32 -16 -51 0 c-43 0
-53 3 -57 20 -4 14 -14 20 -35 20 -44 0 -168 27 -200 44 -15 8 -38 26 -51 39
-19 21 -22 32 -17 60 9 46 75 120 132 147 45 22 56 23 169 8 12 -2 21 4 23 14
8 41 -139 53 -209 17 -96 -48 -177 -158 -164 -220 11 -48 86 -105 167 -126
l70 -18 -448 -5 c-400 -5 -364 -6 329 -8 733 -2 777 -3 777 -19 -1 -10 -7 -29
-14 -42 -26 -47 8 -72 37 -27 9 13 19 35 23 49 5 21 13 27 47 32 23 3 242 3
487 1 245 -2 450 -4 455 -4 255 7 1182 5 1195 -2 13 -7 21 -7 25 0 8 13 572
12 580 -1 4 -5 14 -5 25 1 12 6 229 11 582 12 310 1 508 4 442 5 -113 3 -122
5 -117 22 4 14 -10 29 -55 60 -34 22 -64 46 -68 53 -5 7 16 33 55 70 42 38 61
63 57 73 -3 8 -9 15 -14 15 -28 0 -91 -38 -140 -83 -33 -31 -52 -44 -48 -32 4
11 14 46 23 77 13 47 14 60 3 73 -16 19 -40 3 -40 -27 0 -10 -11 -54 -24 -96
-14 -42 -27 -86 -30 -98 -3 -11 0 -29 8 -40 15 -18 16 -18 53 21 l38 40 30
-28 c17 -16 51 -42 78 -59 26 -16 47 -32 47 -34 0 -2 -139 -4 -309 -4 l-308 0
4 82 c3 59 0 84 -9 90 -25 15 -67 8 -97 -18 -52 -44 -34 -101 29 -92 25 4 30
1 30 -17 0 -11 5 -26 12 -33 9 -9 -13 -12 -101 -12 -113 0 -113 0 -107 23 3
12 14 57 23 99 l18 77 35 3 c27 2 35 7 35 23 0 14 -8 21 -25 23 -48 6 -50 9
-35 39 19 36 19 89 0 96 -19 8 -20 5 -36 -75 -12 -66 -13 -68 -43 -68 -41 0
-61 -14 -52 -35 5 -14 14 -16 41 -12 34 6 35 5 29 -21 -10 -47 -13 -56 -29
-114 l-16 -58 -71 0 c-63 0 -69 2 -63 18 21 54 16 130 -7 116 -7 -4 -8 -3 -4
5 4 6 1 23 -8 36 -22 33 -20 38 10 32 28 -5 44 17 26 35 -17 17 -84 12 -99 -8
-11 -15 -8 -25 17 -69 39 -68 41 -155 4 -124 -17 14 -51 3 -64 -22 -10 -17
-23 -19 -160 -19 -113 0 -150 3 -150 13 0 6 9 46 20 87 11 41 23 112 26 158 7
79 6 82 -15 82 -17 0 -21 -6 -21 -34 0 -30 -23 -152 -49 -258 -5 -20 -6 -39
-3 -42 3 -4 -20 -6 -50 -6 l-56 0 10 43 c5 23 20 78 34 121 14 44 24 86 23 95
-1 9 1 24 6 34 10 24 -2 49 -22 45 -13 -2 -20 -17 -24 -54 -4 -28 -14 -74 -23
-101 -9 -27 -19 -58 -21 -69 -3 -10 -10 -40 -17 -66 l-11 -48 -44 0 c-44 0
-44 0 -29 22 20 28 20 68 3 93 -20 26 -38 10 -35 -31 1 -19 -3 -39 -9 -45 -14
-14 -44 -8 -53 11 -4 8 -12 26 -19 39 -7 13 -8 20 -2 17 6 -4 13 5 17 19 5 20
1 31 -16 47 -19 18 -29 19 -95 13 l-73 -7 9 44 c26 116 26 116 72 123 23 4 73
16 112 26 38 10 82 19 97 19 16 0 28 5 28 11 0 6 -15 9 -34 8 -19 -2 -38 0
-42 4 -11 10 -43 8 -94 -8z m-10 -36 c0 -6 -4 -7 -10 -4 -5 3 -10 11 -10 16 0
6 5 7 10 4 6 -3 10 -11 10 -16z m-1664 -210 c-7 -38 -38 -82 -76 -109 l-29
-21 -7 25 c-8 33 21 84 66 113 44 31 54 29 46 -8z m384 2 c0 -15 -51 -51 -71
-51 -10 0 -21 6 -25 13 -4 6 -4 9 0 5 5 -4 20 4 34 18 27 24 62 33 62 15z
m481 -35 c-15 -18 -53 -28 -48 -13 4 13 49 38 56 32 2 -3 -1 -11 -8 -19z
m2028 -2 c-6 -8 -18 -14 -27 -14 -13 0 -12 3 4 19 21 21 41 17 23 -5z m-1257
3 c14 -7 23 -17 21 -23 -2 -5 3 -31 11 -57 l14 -47 -99 0 c-73 0 -99 3 -99 13
0 26 31 111 43 119 19 12 82 9 109 -5z m-2236 -22 c19 -29 12 -55 -14 -55 -24
0 -42 19 -42 45 0 42 31 48 56 10z"/>
<path d="M3641 3443 c-14 -12 -18 -22 -12 -32 7 -11 15 -11 45 -1 21 7 40 10
43 7 3 -3 -18 -30 -46 -60 -35 -37 -49 -60 -45 -71 3 -9 10 -16 14 -16 4 0 28
-16 54 -35 57 -45 61 -73 12 -110 -42 -32 -104 -44 -120 -23 -6 8 -19 17 -29
21 -13 5 -16 11 -9 24 5 10 7 24 5 31 -3 6 0 12 5 12 13 0 30 45 61 166 5 18
5 38 1 44 -16 25 -37 1 -49 -56 -7 -33 -30 -100 -52 -149 -47 -108 -48 -119
-13 -112 18 3 33 -2 45 -14 19 -19 13 -19 -293 -19 l-313 0 43 20 c44 20 62
44 45 61 -7 7 -22 3 -44 -10 -38 -23 -91 -27 -107 -8 -6 6 -13 28 -17 47 -6
33 -4 35 20 36 39 3 68 33 60 63 -12 48 -53 55 -91 14 -14 -15 -22 -33 -19
-40 2 -8 1 -12 -4 -9 -13 8 -13 -86 1 -118 6 -16 25 -34 42 -42 27 -11 -25
-13 -364 -14 -358 0 -392 1 -372 15 27 20 92 150 92 185 0 37 -32 64 -65 56
-14 -4 -25 -11 -25 -16 0 -6 -6 -10 -14 -10 -7 0 -21 -11 -30 -25 -10 -14 -28
-30 -42 -35 -15 -6 -24 -17 -24 -32 0 -13 -9 -34 -20 -48 -11 -14 -20 -33 -20
-42 0 -51 56 -48 -869 -50 l-856 -3 852 -2 c469 -2 853 -5 853 -7 0 -2 -7 -22
-15 -45 -30 -86 14 -96 48 -11 l22 55 1900 5 c1418 4 1660 6 955 8 -520 2
-939 6 -932 9 6 2 12 13 12 23 0 16 -6 18 -54 13 -36 -4 -56 -2 -61 6 -15 25
6 57 55 83 54 30 65 59 31 78 -30 15 -66 -6 -101 -58 -34 -51 -39 -105 -13
-134 15 -17 13 -18 -68 -18 l-84 1 36 19 c41 21 89 74 89 96 0 28 -30 72 -70
104 l-41 32 46 49 c46 49 55 75 33 97 -18 18 -92 15 -117 -5z m-1446 -193 c3
-5 1 -10 -4 -10 -6 0 -11 -5 -11 -11 0 -5 -12 -35 -27 -66 -19 -39 -37 -60
-60 -71 -18 -9 -36 -12 -40 -8 -10 10 35 94 76 139 33 37 54 46 66 27z m825
-139 c0 -6 -4 -13 -10 -16 -5 -3 -10 1 -10 9 0 9 5 16 10 16 6 0 10 -4 10 -9z"/>
<path d="M4302 3448 c-5 -7 -10 -24 -10 -38 0 -14 -7 -47 -16 -73 -9 -26 -16
-56 -16 -67 0 -21 -36 -50 -63 -50 -23 0 -34 -29 -16 -41 8 -4 24 -6 36 -2 28
6 30 -11 8 -63 -13 -31 -13 -36 0 -41 25 -9 44 16 56 75 9 49 16 61 49 84 l38
26 -10 -36 c-6 -20 -17 -54 -25 -74 -30 -75 11 -94 52 -24 32 55 60 80 80 72
13 -5 15 -13 9 -38 -19 -81 4 -120 31 -54 21 50 19 102 -5 126 -23 23 -42 25
-72 9 -19 -10 -20 -9 -14 12 29 101 32 159 7 159 -6 0 -26 -24 -44 -52 -43
-67 -72 -94 -83 -77 -4 7 -3 10 3 6 9 -6 43 119 43 158 0 18 -24 20 -38 3z"/>
<path d="M5443 3428 c-34 -42 -37 -88 -8 -88 11 0 55 74 55 93 0 12 -37 8 -47
-5z"/>
<path d="M6516 3371 c-3 -5 -7 -30 -8 -57 -2 -27 -7 -52 -12 -56 -5 -3 -10
-48 -10 -100 -1 -76 2 -93 14 -93 11 0 17 24 26 100 6 55 17 120 23 144 7 23
10 49 7 57 -6 16 -32 19 -40 5z"/>
<path d="M537 3343 c-9 -15 -19 -191 -12 -212 4 -12 15 -21 27 -21 17 0 19 5
14 38 -3 20 -3 62 2 92 9 70 4 110 -13 110 -8 0 -16 -3 -18 -7z"/>
<path d="M2461 3285 c-52 -45 -64 -123 -24 -167 11 -12 31 -18 57 -18 48 0 71
12 63 33 -4 10 -17 13 -51 10 -41 -5 -46 -3 -46 16 0 14 11 25 34 35 52 22 71
69 40 100 -22 22 -38 20 -73 -9z m39 -34 c0 -5 -7 -12 -16 -15 -14 -5 -15 -4
-4 9 14 17 20 19 20 6z"/>
<path d="M5030 3288 c-46 -32 -71 -68 -77 -114 -4 -30 -1 -43 12 -54 35 -29
135 -3 135 36 0 12 -6 15 -25 10 -14 -3 -36 -9 -50 -12 -40 -10 -33 27 9 50
19 10 45 29 56 41 18 19 20 27 11 44 -15 27 -30 26 -71 -1z"/>
<path d="M4897 3282 c-9 -10 -23 -35 -32 -55 -18 -45 -35 -40 -35 9 0 31 -3
35 -22 32 -34 -5 -30 -54 12 -138 14 -30 36 -14 70 52 20 38 41 73 48 80 7 7
12 18 12 25 0 19 -34 16 -53 -5z"/>
<path d="M5510 3277 c-34 -17 -35 -37 -5 -69 14 -15 25 -34 25 -42 0 -19 -28
-35 -51 -29 -23 7 -36 -22 -19 -42 28 -34 81 -7 107 55 11 26 3 63 -17 75 -8
5 -8 11 1 21 11 14 6 44 -8 44 -4 0 -19 -6 -33 -13z"/>
<path d="M4041 3258 c-55 -67 -58 -74 -54 -108 6 -41 26 -60 64 -60 59 0 104
43 60 58 -8 3 -11 1 -8 -4 7 -11 -59 -12 -70 0 -4 4 10 23 31 41 42 35 43 55
7 74 -15 8 -23 8 -30 -1z"/>
<path d="M5171 3234 c-25 -31 -55 -120 -47 -139 11 -28 35 -15 71 40 21 30 41
58 46 61 5 3 9 -17 9 -44 0 -58 17 -79 45 -58 13 9 16 19 10 32 -5 10 -11 42
-14 69 -6 49 -7 50 -38 49 -18 -1 -33 2 -33 7 0 18 -29 8 -49 -17z"/>
<path d="M11149 3237 c-28 -24 -44 -57 -28 -57 6 0 7 -5 4 -11 -9 -14 24 -49
62 -65 42 -18 59 -18 67 1 4 10 -9 22 -42 37 -54 26 -64 58 -22 68 16 4 25 13
25 25 0 28 -35 29 -66 2z"/>
<path d="M1513 3228 c-17 -24 -16 -88 3 -109 24 -27 70 -24 99 6 32 32 31 41
-7 81 -34 35 -77 45 -95 22z m77 -68 c0 -6 -11 -10 -25 -10 -23 0 -34 18 -19
33 9 8 44 -11 44 -23z"/>
<path d="M1683 3228 c-13 -20 -40 -123 -35 -136 8 -24 33 -11 65 34 l32 46 5
-33 c3 -18 10 -34 16 -36 6 -2 33 17 59 43 52 53 70 48 60 -17 -5 -25 -2 -39
9 -48 13 -11 17 -9 26 14 36 95 -31 175 -96 114 l-22 -21 -7 21 c-7 23 -49 29
-61 10 -5 -8 -10 -6 -16 5 -11 19 -24 21 -35 4z"/>
<path d="M4622 3217 c-36 -38 -24 -87 25 -105 57 -19 100 27 72 80 -27 51 -64
61 -97 25z m56 -51 c3 -12 -1 -17 -10 -14 -7 3 -15 13 -16 22 -3 12 1 17 10
14 7 -3 15 -13 16 -22z"/>
<path d="M7620 3198 c-17 -19 -20 -20 -20 -4 0 12 -6 16 -22 14 -20 -3 -23 -9
-24 -63 -2 -87 21 -110 55 -54 11 18 22 26 25 20 12 -20 42 -12 71 19 48 50
62 37 40 -37 -7 -21 21 -35 35 -18 19 23 26 105 9 116 -21 13 -73 11 -88 -3
-10 -11 -16 -9 -28 10 -19 28 -27 28 -53 0z"/>
<path d="M666 3143 c-14 -15 -5 -43 14 -43 13 0 20 7 20 19 0 19 -23 35 -34
24z"/>
<path d="M6573 3119 c-15 -15 -5 -39 17 -39 19 0 34 25 24 41 -7 12 -28 11
-41 -2z"/>
<path d="M1029 2979 c-31 -3 -61 -9 -68 -13 -23 -15 -9 -63 46 -159 53 -93 78
-172 66 -204 -7 -18 -55 -30 -91 -22 -19 4 -46 19 -62 34 -28 27 -46 76 -26
72 6 -1 12 8 14 21 3 20 0 23 -20 20 -28 -4 -48 -43 -41 -81 3 -15 19 -41 35
-57 l30 -30 -324 -2 -323 -2 350 -8 c447 -9 396 -9 714 -3 198 4 283 3 303 -6
21 -8 31 -9 42 0 9 8 156 10 527 9 l514 -3 -3 -30 c-8 -89 -8 -90 13 -90 20 0
24 10 41 103 l4 22 453 -2 c300 -1 458 -5 469 -12 13 -8 21 -7 30 2 9 9 249
13 1057 14 700 2 839 4 421 5 l-625 3 3 56 c4 61 -11 111 -37 117 -9 3 -32 4
-51 3 -33 -1 -35 -3 -47 -56 -10 -45 -10 -57 2 -69 11 -11 17 -7 39 27 38 61
44 59 48 -13 l3 -65 -62 0 c-49 0 -63 3 -63 15 0 8 -17 24 -37 34 -71 37 -70
34 -26 87 78 93 108 184 78 230 -14 22 -22 25 -51 21 -46 -8 -124 -63 -124
-87 0 -29 29 -24 70 10 19 17 43 30 53 30 17 0 19 -5 14 -41 -9 -67 -92 -172
-160 -204 -41 -19 -73 -57 -62 -75 11 -17 49 -11 80 14 25 21 32 22 45 11 8
-8 29 -21 45 -29 28 -15 7 -16 -287 -16 l-316 0 26 60 c25 56 29 60 68 66 53
8 69 18 60 39 -5 13 -14 16 -36 11 -17 -3 -30 -2 -30 2 0 4 20 47 45 96 25 48
42 93 39 98 -8 12 -234 2 -247 -11 -5 -5 -7 -16 -4 -25 6 -14 44 -15 155 -1
17 2 32 2 32 -1 0 -3 -18 -43 -40 -89 l-40 -84 -64 6 c-64 6 -81 -1 -71 -29 4
-10 23 -15 52 -17 26 -1 49 -3 51 -6 3 -2 -6 -29 -19 -60 l-24 -55 -98 0 -97
0 20 37 c24 45 25 74 5 114 -16 30 -88 89 -110 89 -12 0 -28 77 -19 92 8 13
67 9 98 -7 45 -24 86 -17 68 12 -16 25 -73 43 -134 43 -102 0 -126 -13 -94
-49 8 -9 16 -39 17 -66 2 -55 13 -77 34 -68 18 6 82 -32 95 -57 34 -63 -9
-120 -89 -120 -51 0 -64 6 -74 33 -3 9 -13 17 -22 17 -21 0 -31 -29 -16 -51
11 -18 3 -19 -244 -19 -163 0 -255 4 -255 10 0 6 10 10 23 10 29 1 51 18 75
62 33 59 38 102 13 127 -39 39 -76 27 -130 -43 -25 -31 -31 -48 -31 -87 0 -86
41 -79 -441 -79 l-429 0 0 78 c0 78 0 78 31 89 39 15 37 49 -3 45 -21 -2 -26
3 -32 29 -3 17 -6 48 -6 68 0 43 -17 66 -36 50 -9 -7 -11 -30 -7 -80 l6 -69
-30 6 c-34 7 -53 -10 -34 -29 12 -12 16 -13 46 -16 11 -1 15 -13 15 -43 0 -24
4 -49 9 -57 5 -7 4 -25 -2 -42 -11 -27 -15 -29 -69 -29 -71 0 -104 25 -93 68
12 46 11 56 -10 60 -11 3 -25 11 -31 20 -9 12 -17 13 -44 3 -19 -6 -42 -19
-52 -28 -21 -18 -24 -63 -6 -81 14 -14 53 -16 78 -2 15 8 19 5 22 -15 5 -25 5
-25 -66 -24 -39 0 -65 3 -58 6 17 7 15 28 -5 44 -9 8 -22 29 -30 47 -16 38
-38 50 -64 34 -15 -9 -20 -8 -27 5 -6 10 -16 14 -26 10 -14 -6 -16 -18 -14
-69 4 -79 25 -89 59 -28 l23 41 18 -35 c10 -19 26 -40 35 -45 13 -8 -7 -10
-74 -11 -93 0 -93 0 -93 25 0 14 -13 39 -30 57 -35 36 -35 37 -13 53 14 11 15
15 4 29 -12 14 -16 14 -51 -4 -49 -25 -67 -68 -53 -121 10 -37 9 -39 -14 -39
-20 0 -22 3 -13 19 26 50 3 137 -68 256 -24 38 -41 76 -40 85 2 10 19 17 53
20 35 4 51 10 53 21 4 22 -13 26 -79 18z m1821 -269 c0 -31 -43 -90 -66 -90
-21 0 -17 40 7 80 35 58 59 62 59 10z m-1240 -35 c0 -6 -62 -45 -72 -45 -20 0
-4 23 25 35 35 15 47 18 47 10z m-403 -57 c24 -23 30 -38 13 -38 -13 0 -50 37
-50 50 0 16 12 12 37 -12z"/>
<path d="M4766 2963 c-3 -4 -6 -63 -6 -132 0 -103 -4 -134 -20 -168 -20 -45
-45 -56 -55 -24 -6 20 13 71 27 71 4 0 8 9 8 20 0 32 -37 25 -61 -12 -25 -40
-21 -114 7 -135 41 -30 82 -7 118 65 33 64 33 303 1 315 -7 3 -16 3 -19 0z"/>
<path d="M7990 2955 c-9 -11 -11 -43 -7 -115 5 -97 5 -99 -15 -89 -11 6 -31 8
-44 5 -27 -7 -74 -71 -74 -102 0 -30 41 -64 77 -64 33 0 83 33 83 55 0 8 6 18
14 22 11 7 12 29 4 122 -6 77 -5 118 2 125 15 15 12 43 -6 50 -21 8 -20 8 -34
-9z m-22 -257 c26 -33 -35 -86 -64 -56 -13 12 -12 18 6 41 23 29 42 34 58 15z"/>
<path d="M7215 2908 c-3 -13 -7 -55 -8 -94 -1 -40 -4 -70 -7 -67 -6 5 -29 -94
-30 -129 0 -18 5 -28 14 -28 8 0 16 -7 20 -15 4 -12 -6 -15 -62 -15 -43 0 -62
4 -53 9 23 15 5 44 -22 37 -57 -17 -119 -19 -128 -5 -14 22 -11 26 19 34 91
23 119 81 61 129 -37 32 -42 32 -73 2 -48 -44 -71 -139 -46 -187 10 -18 7 -19
-57 -19 -61 0 -65 2 -43 13 13 7 31 24 39 39 14 24 14 32 0 70 -19 51 -44 61
-61 23 -11 -24 -10 -29 9 -45 18 -14 20 -20 10 -32 -20 -25 -45 -28 -70 -7
-16 12 -23 26 -20 38 3 11 -3 27 -15 39 -13 13 -16 24 -11 34 12 22 26 91 22
106 -9 24 -50 11 -122 -39 -47 -34 -71 -57 -69 -67 5 -28 33 -24 68 8 41 38
70 55 70 40 0 -6 -11 -32 -25 -59 -13 -27 -21 -51 -18 -55 4 -3 2 -6 -4 -6
-11 0 -33 -43 -33 -65 0 -25 35 -17 65 15 l29 30 14 -30 c8 -17 26 -33 41 -38
14 -4 -73 -9 -194 -12 l-220 -6 325 -3 c179 -1 388 -4 465 -6 77 -2 163 -4
190 -4 28 0 461 2 963 5 501 2 912 0 912 -4 0 -4 -9 -39 -19 -77 -11 -39 -21
-88 -23 -110 -3 -34 0 -40 16 -40 14 0 24 14 38 55 21 61 32 111 32 153 1 30
7 33 36 15 15 -10 26 -10 53 0 25 9 337 13 1303 14 766 2 985 4 552 5 l-718 3
20 33 c11 17 23 53 26 80 l7 47 77 0 c81 0 92 3 83 26 -4 10 -25 14 -80 14
-73 0 -75 1 -69 23 3 12 9 42 13 66 5 39 4 43 -13 39 -14 -2 -23 -19 -34 -61
-9 -32 -22 -62 -30 -67 -8 -6 -38 -10 -67 -10 -56 0 -72 -12 -52 -36 10 -12
25 -14 71 -9 l59 7 -7 -28 c-4 -16 -12 -43 -19 -59 -6 -17 -11 -38 -9 -48 2
-15 -8 -17 -93 -17 l-94 0 2 83 c2 45 -1 88 -5 95 -11 18 -38 15 -87 -11 -32
-17 -47 -33 -55 -58 -21 -63 16 -69 60 -9 17 22 33 40 37 40 4 0 7 -31 6 -70
l-1 -70 -98 0 c-91 0 -98 1 -98 20 0 17 -7 20 -49 20 -31 0 -53 5 -61 15 -11
13 -8 15 18 15 45 0 79 19 93 51 16 39 -9 79 -50 79 -78 0 -143 -128 -91 -180
l20 -20 -185 0 -185 0 14 23 c7 12 19 39 25 59 7 20 19 42 27 48 12 11 14 4
14 -48 0 -39 4 -62 13 -65 6 -3 33 16 60 41 38 38 47 43 47 26 0 -28 28 -64
50 -64 28 0 34 19 15 40 -14 16 -17 30 -12 70 3 27 2 52 -3 55 -13 8 -60 -22
-97 -64 -28 -31 -32 -33 -33 -16 -6 89 -9 94 -65 98 l-38 2 -14 -55 c-7 -30
-15 -62 -16 -70 -1 -8 -10 -22 -20 -33 -10 -10 -16 -25 -13 -33 4 -11 -6 -14
-50 -14 l-55 0 30 38 c40 49 48 91 25 131 -36 60 -96 62 -145 4 -20 -24 -28
-27 -41 -19 -26 16 -33 1 -38 -77 l-5 -72 -227 -3 -228 -2 3 22 c2 19 -3 24
-32 26 -19 2 -44 10 -55 18 -20 14 -20 14 5 14 29 0 73 30 90 62 17 31 -7 68
-42 68 -45 0 -77 -17 -94 -49 -34 -66 -8 -136 56 -151 19 -4 -258 -8 -615 -9
l-649 -1 19 23 c32 38 41 61 37 97 -10 98 -76 109 -167 29 l-38 -33 8 50 c4
27 8 74 8 104 1 33 6 58 14 63 21 14 14 37 -13 37 -17 0 -26 -7 -30 -22z
m-217 -180 c17 -17 15 -23 -13 -36 -40 -18 -47 -14 -30 18 17 33 25 36 43 18z
m1682 -8 c0 -14 -49 -44 -58 -35 -4 3 4 15 17 26 26 21 41 24 41 9z m668 -2
c22 -22 13 -63 -23 -102 -30 -33 -38 -37 -65 -31 -22 5 -30 3 -28 -5 2 -7 -2
-14 -8 -17 -16 -6 -10 57 6 67 7 4 9 13 5 20 -5 9 -4 11 3 6 7 -4 12 -3 12 3
0 5 12 23 26 40 27 33 52 39 72 19z m-1964 -14 c14 -38 6 -72 -25 -98 -17 -14
-41 -29 -54 -32 -26 -7 -65 11 -65 29 1 28 97 117 126 117 7 0 15 -7 18 -16z
m2542 -20 c-23 -16 -46 -19 -46 -5 0 6 10 17 22 25 30 21 52 2 24 -20z m-2656
-4 c0 -5 -2 -10 -4 -10 -3 0 -8 5 -11 10 -3 6 -1 10 4 10 6 0 11 -4 11 -10z
m1925 -50 c3 -5 1 -10 -4 -10 -6 0 -11 5 -11 10 0 6 2 10 4 10 3 0 8 -4 11
-10z"/>
<path d="M8889 2923 c-1 -4 -3 -28 -4 -53 -1 -25 -6 -79 -11 -120 -12 -94 -6
-135 20 -135 17 0 20 9 23 85 9 222 9 224 -9 228 -10 2 -19 0 -19 -5z"/>
<path d="M8462 2837 c-28 -29 -42 -77 -42 -139 0 -27 -3 -48 -6 -48 -10 0 -30
25 -37 45 -22 74 -36 100 -54 100 -11 0 -19 -8 -20 -20 -4 -29 78 -179 100
-183 36 -7 54 24 60 101 6 84 15 110 32 103 7 -2 21 2 32 9 14 11 16 18 7 32
-16 27 -47 27 -72 0z"/>
<path d="M5661 2826 c-7 -8 -22 -53 -33 -102 -20 -78 -23 -84 -30 -58 -5 16
-9 42 -11 59 -2 20 -9 31 -21 33 -31 6 -36 -11 -20 -73 19 -74 38 -105 64
-105 24 0 31 17 60 132 11 45 25 87 30 92 16 16 11 36 -9 36 -10 0 -24 -6 -30
-14z"/>
<path d="M8137 2799 c-46 -27 -77 -153 -45 -185 8 -9 36 -15 66 -16 28 -1 50
-5 49 -8 -1 -3 3 -6 8 -8 6 -1 11 7 13 18 4 27 -17 54 -32 41 -6 -5 -26 -6
-43 -4 -24 4 -33 11 -33 24 0 11 6 19 13 19 8 0 33 14 55 30 43 31 54 64 30
88 -15 15 -57 15 -81 1z m43 -37 c0 -4 -10 -13 -22 -21 -23 -14 -23 -14 -4 8
20 22 26 25 26 13z"/>
<path d="M5135 2780 c-13 -15 -21 -17 -31 -9 -20 17 -30 5 -43 -54 -6 -30 -18
-63 -25 -73 -8 -10 -12 -24 -9 -31 10 -26 33 -12 68 42 19 30 37 55 39 55 3 0
4 -12 3 -27 -3 -39 24 -40 66 -4 19 17 37 31 40 31 3 0 -1 -22 -9 -50 -19 -64
-6 -95 34 -85 34 8 52 23 52 42 0 11 -7 14 -25 11 -14 -3 -25 -5 -25 -4 0 0 7
23 15 50 22 71 20 116 -4 116 -11 0 -22 -4 -26 -10 -3 -5 -20 -19 -37 -32 -17
-12 -29 -17 -25 -11 10 16 -10 63 -26 63 -8 0 -22 -9 -32 -20z"/>
<path d="M2558 2764 c-53 -28 -64 -86 -24 -124 14 -12 32 -20 40 -17 8 3 16 1
18 -5 8 -22 55 1 68 32 11 26 10 37 -5 71 -17 37 -41 60 -62 59 -4 -1 -20 -7
-35 -16z m36 -54 c28 -10 35 -44 11 -53 -21 -9 -58 25 -50 46 8 20 7 20 39 7z"/>
<path d="M8995 2733 c-24 -27 -45 -79 -45 -114 0 -23 33 -49 63 -49 15 0 45 7
67 16 42 17 54 39 46 84 -2 14 -5 28 -5 31 -1 3 -12 18 -26 33 -31 34 -67 34
-100 -1z m78 -63 c27 0 19 -28 -13 -45 -43 -22 -60 -19 -60 11 0 14 5 34 11
45 10 19 12 19 28 5 10 -9 25 -16 34 -16z"/>
<path d="M5380 2731 c-5 -11 -18 -27 -27 -36 -24 -25 -20 -85 7 -107 49 -40
120 -7 120 57 0 38 -44 105 -70 105 -11 0 -24 -9 -30 -19z m52 -67 c10 -22 10
-28 -6 -39 -35 -26 -58 3 -36 46 15 26 28 24 42 -7z"/>
<path d="M1970 2727 c-14 -7 -26 -22 -28 -34 -4 -30 34 -66 61 -59 14 3 29 -2
43 -15 28 -26 79 -31 79 -6 0 9 -2 16 -5 15 -3 -1 -15 4 -28 11 -19 10 -22 18
-17 40 8 36 -16 48 -41 20 -9 -10 -24 -19 -33 -18 -10 0 -7 4 7 10 15 5 22 16
20 26 -4 23 -26 26 -58 10z"/>
<path d="M2339 2533 c-1 -5 -1 -56 1 -114 2 -106 2 -106 -22 -111 -14 -3 -35
-1 -48 4 -16 6 -28 5 -36 -4 -21 -21 0 -40 50 -45 l46 -6 0 -67 c0 -85 6 -100
36 -100 30 0 43 28 21 45 -17 12 -26 102 -13 123 4 7 25 12 46 12 44 0 58 13
39 36 -9 11 -23 14 -46 11 -33 -6 -33 -5 -34 36 -1 23 0 68 1 100 1 34 -3 64
-10 72 -13 16 -29 20 -31 8z"/>
<path d="M662 2507 c-33 -35 -42 -78 -32 -149 5 -34 7 -64 6 -66 -2 -2 -23 2
-45 9 -30 9 -45 9 -52 2 -17 -17 -3 -30 51 -48 55 -18 55 -20 51 -110 -2 -27
-8 -56 -13 -62 -8 -9 -60 -14 -187 -15 l-176 -2 168 -3 c129 -3 174 -7 191
-18 20 -14 25 -14 35 -1 11 13 95 15 587 16 556 0 574 0 574 -19 0 -10 3 -33
6 -50 6 -31 6 -31 -35 -31 -77 0 -98 -50 -65 -161 19 -64 40 -91 68 -87 27 4
63 77 71 141 4 26 10 45 16 42 5 -4 18 -8 29 -10 32 -6 25 31 -10 52 -27 16
-30 22 -30 70 l0 53 1978 3 1977 2 -1982 3 -1983 2 0 28 c-1 15 -7 44 -14 65
-12 33 -12 39 0 44 8 3 14 14 14 25 0 18 -5 19 -42 13 -24 -3 -51 -9 -61 -11
-18 -6 -47 -53 -47 -77 0 -26 37 -50 70 -45 16 3 30 1 30 -3 0 -4 3 -14 6 -23
6 -14 -32 -16 -385 -16 l-391 0 -4 23 c-15 73 -13 88 13 98 14 6 33 8 42 6 24
-6 43 8 36 27 -12 30 -115 17 -140 -18 -4 -6 -5 -39 -2 -73 l7 -63 -35 0 -34
0 10 40 c9 33 8 47 -9 86 -10 26 -24 49 -30 51 -18 6 -74 -52 -80 -85 -3 -17
-2 -45 4 -62 l11 -30 -76 0 -76 0 7 46 c3 26 6 65 6 87 l0 40 45 -6 c27 -4 47
-2 51 4 11 19 -24 43 -64 44 l-37 0 -9 63 c-11 80 1 128 31 124 26 -4 37 11
28 38 -9 27 -46 26 -73 -3z m-82 -211 c0 -2 -7 -6 -15 -10 -8 -3 -15 -1 -15 4
0 6 7 10 15 10 8 0 15 -2 15 -4z m310 -153 c0 -33 -14 -51 -25 -32 -10 15 -12
78 -3 73 5 -3 8 1 8 8 0 9 3 9 10 -2 5 -8 10 -29 10 -47z m903 37 c-7 -26 -22
-35 -35 -22 -6 6 -2 15 13 26 29 20 28 20 22 -4z m30 -307 c-3 -27 -12 -64
-20 -83 l-15 -35 -13 35 c-14 38 -19 112 -8 123 3 4 19 7 34 7 28 0 29 -1 22
-47z"/>
<path d="M8456 2475 c-37 -13 -56 -29 -56 -49 0 -5 42 -50 93 -100 84 -82 95
-96 107 -144 11 -50 11 -56 -7 -80 -26 -36 -45 -38 -97 -12 -30 14 -50 32 -61
56 -11 23 -22 34 -33 32 -26 -5 -25 -31 2 -71 l25 -37 -77 0 c-73 0 -80 2
-105 28 -17 17 -27 39 -27 58 0 50 -10 70 -45 88 -58 32 -102 2 -120 -81 -6
-28 -2 -37 23 -63 l30 -30 -76 0 c-66 1 -75 3 -60 14 37 28 66 184 38 201 -22
14 -38 -17 -42 -80 -2 -36 -8 -69 -14 -75 -14 -14 -74 73 -81 116 -6 37 -26
50 -44 28 -21 -26 14 -102 80 -176 l25 -28 -183 0 c-170 0 -183 1 -176 18 27
67 9 215 -36 291 l-20 34 52 -7 c35 -5 57 -14 69 -28 20 -25 40 -16 40 18 0
36 -50 54 -147 53 -107 -2 -138 -9 -138 -34 0 -17 6 -20 37 -17 30 2 40 -2 57
-27 53 -74 73 -220 38 -274 -46 -71 -131 14 -140 142 -2 19 -8 26 -22 26 -32
0 -23 -76 20 -177 7 -17 -11 -18 -288 -18 -335 0 -308 -8 -306 87 2 58 -9 78
-48 88 -46 11 -83 -13 -109 -72 -28 -63 -30 -83 -8 -83 20 0 43 28 44 51 0 9
9 28 21 43 16 21 24 24 39 16 16 -9 19 -21 19 -70 l-1 -60 -104 0 -105 0 7 68
c4 48 11 72 25 84 11 9 17 23 13 32 -7 19 -6 19 -39 4 -26 -12 -32 -24 -39
-88 -3 -19 -8 -50 -12 -67 l-6 -33 -86 0 c-47 0 -83 -2 -80 -5 3 -3 246 -5
541 -5 522 0 537 0 575 -20 42 -22 81 -20 103 6 18 21 899 20 940 -2 37 -18
99 -18 127 1 18 13 53 15 219 12 109 -3 203 -5 208 -5 6 0 50 2 99 5 62 3 91
1 96 -7 6 -9 13 -9 28 -1 11 6 35 11 52 11 l31 0 -2 -55 c-2 -60 9 -82 36 -71
13 4 15 13 11 32 -4 14 -4 40 0 59 l6 34 1231 1 c677 0 1233 2 1235 5 3 3
-451 5 -1009 5 -658 0 -1009 4 -999 10 11 7 8 10 -15 10 -21 0 -42 11 -65 33
-33 31 -35 35 -30 87 5 58 14 64 65 45 16 -5 17 -5 5 4 -12 9 -10 11 13 11 20
0 27 5 27 20 0 17 -7 20 -49 20 -49 0 -50 0 -42 28 11 42 3 72 -20 72 -15 0
-19 -7 -19 -32 0 -50 -11 -61 -53 -53 -29 6 -38 4 -43 -9 -8 -21 -2 -27 38
-35 28 -6 33 -11 34 -36 3 -104 5 -114 30 -144 l26 -31 -177 0 -177 0 7 43 c4
23 9 44 10 46 2 1 14 -4 27 -13 28 -20 51 -20 89 0 78 40 36 144 -60 144 -34
0 -65 -35 -95 -105 -9 -22 -15 -30 -13 -19 6 30 -7 48 -28 40 -15 -6 -17 -15
-11 -71 l7 -65 -31 0 c-25 0 -33 5 -41 30 -7 20 -18 30 -31 30 -17 0 -20 -5
-16 -30 l5 -30 -77 0 -77 0 -27 40 c-36 55 -44 97 -20 102 11 2 27 -1 36 -6
29 -17 46 8 23 34 -25 28 -70 26 -100 -4 -28 -28 -26 -68 6 -122 11 -17 19
-34 19 -38 0 -3 -27 -6 -61 -6 -50 0 -60 3 -56 15 8 19 -9 29 -52 32 -37 2
-81 37 -81 64 0 13 9 19 33 21 40 4 43 29 5 42 -37 13 -76 -6 -84 -41 -10 -38
22 -94 66 -115 l35 -18 -88 0 c-87 0 -88 0 -76 21 21 41 -2 147 -44 199 -7 8
-43 42 -81 74 -58 51 -66 61 -50 67 46 18 81 10 117 -28 30 -31 38 -34 51 -24
14 12 13 17 -10 45 -56 66 -94 77 -168 51z m1054 -243 c28 -23 18 -52 -19 -52
-19 0 -32 9 -44 29 -16 28 -16 30 0 34 33 8 41 7 63 -11z m-1347 -43 c8 -13 6
-24 -6 -43 -33 -50 -70 -22 -47 35 14 32 36 35 53 8z m37 -104 c11 -13 7 -15
-26 -15 -35 0 -37 1 -18 15 24 18 29 18 44 0z"/>
<path d="M6537 2444 c-11 -11 -8 -52 4 -60 6 -3 18 1 27 10 13 12 14 21 6 33
-12 20 -27 26 -37 17z"/>
<path d="M2166 2371 c-7 -11 3 -41 13 -41 14 0 29 23 24 36 -6 16 -29 19 -37
5z"/>
<path d="M2843 2290 c-38 -9 -63 -27 -63 -45 0 -7 -8 -23 -19 -36 -15 -19 -16
-28 -7 -58 19 -66 48 -60 53 10 4 53 18 77 50 85 18 5 28 2 35 -10 7 -12 13
-14 29 -6 30 17 24 46 -12 59 -18 6 -32 11 -33 10 -1 -1 -16 -5 -33 -9z"/>
<path d="M2530 2270 c-26 -26 -26 -70 1 -104 23 -29 46 -33 75 -11 27 20 33
19 44 -11 7 -17 16 -24 28 -22 22 5 18 45 -8 73 -11 12 -20 31 -20 43 0 14
-11 27 -30 37 -39 20 -66 19 -90 -5z m68 -52 c-5 -34 -38 -37 -38 -4 0 20 5
26 21 26 15 0 20 -5 17 -22z"/>
<path d="M9156 2282 c-13 -22 39 -49 60 -31 11 9 11 15 3 25 -12 15 -55 19
-63 6z"/>
<path d="M1926 2243 c-8 -26 9 -91 30 -114 42 -47 133 1 120 64 -7 34 -22 48
-43 40 -10 -4 -12 -14 -8 -33 4 -18 1 -31 -10 -40 -23 -19 -36 -1 -42 54 -4
36 -10 46 -24 46 -10 0 -20 -8 -23 -17z"/>
<path d="M2152 2173 c3 -50 6 -58 23 -58 20 0 21 7 16 98 -1 10 -9 17 -21 17
-18 0 -20 -6 -18 -57z"/>
<path d="M7669 2209 c-36 -36 -1 -93 56 -87 20 2 36 -4 52 -19 39 -40 82 -21
46 20 -12 13 -18 33 -17 50 2 24 -2 31 -31 43 -48 20 -81 18 -106 -7z m79 -28
c10 -6 7 -10 -12 -13 -26 -5 -41 3 -29 16 9 8 25 7 41 -3z"/>
<path d="M1652 1063 c762 -2 2013 -2 2780 0 766 1 142 2 -1387 2 -1529 0
-2156 -1 -1393 -2z"/>
<path d="M7692 1063 c762 -2 2013 -2 2780 0 766 1 142 2 -1387 2 -1529 0
-2156 -1 -1393 -2z"/>
<path d="M1652 563 c762 -2 2013 -2 2780 0 766 1 142 2 -1387 2 -1529 0 -2156
-1 -1393 -2z"/>
<path d="M7692 563 c762 -2 2013 -2 2780 0 766 1 142 2 -1387 2 -1529 0 -2156
-1 -1393 -2z"/>
</g>
</svg>
