<?xml version="1.0" standalone="no"?>
<!DOCTYPE svg PUBLIC "-//W3C//DTD SVG 20010904//EN"
 "http://www.w3.org/TR/2001/REC-SVG-20010904/DTD/svg10.dtd">
<svg version="1.0" xmlns="http://www.w3.org/2000/svg"
 width="1618.000000pt" height="1214.000000pt" viewBox="0 0 1618.000000 1214.000000"
 preserveAspectRatio="xMidYMid meet">

<g transform="translate(0.000000,1214.000000) scale(0.100000,-0.100000)"
fill="#000000" stroke="none">
<path d="M567 11203 c-11 -10 -8 -5731 2 -5737 5 -3 2106 -6 4669 -6 l4660 0
5 -21 c4 -15 11 -20 21 -16 29 11 18 -44 -45 -240 -35 -105 -35 -146 -2 -151
15 -2 30 8 50 34 49 64 85 104 93 104 4 0 10 -27 12 -61 5 -63 21 -87 45 -67
7 6 11 14 8 18 -2 4 -7 34 -10 66 -7 68 -17 84 -54 84 -27 0 -68 -36 -104 -90
-22 -31 -21 -26 2 43 34 98 71 244 69 269 l-3 23 1351 3 1352 2 -9 -38 c-4
-20 -24 -88 -44 -151 -19 -62 -35 -121 -35 -131 0 -38 23 -34 59 10 20 24 45
55 57 68 l20 24 -4 -66 c-4 -56 -2 -66 12 -66 18 0 19 1 35 80 19 96 19 100
-1 111 -20 11 -31 7 -65 -24 -13 -11 -25 -19 -27 -16 -2 2 8 48 22 101 l27 98
302 0 302 0 -14 -47 c-8 -25 -14 -49 -13 -52 1 -3 -6 -23 -16 -43 -9 -21 -18
-50 -20 -65 -2 -16 -11 -45 -20 -67 -20 -44 -18 -91 3 -91 14 0 47 95 104 293
l20 72 112 0 113 0 -15 -75 c-14 -74 -31 -132 -32 -107 -1 14 -61 17 -61 2 0
-6 -3 -9 -7 -9 -20 3 -33 -3 -62 -33 -23 -24 -31 -41 -31 -69 0 -52 9 -69 42
-84 88 -36 146 50 194 288 l17 87 279 0 280 0 -8 -32 c-14 -68 -86 -262 -100
-273 -8 -6 -16 -29 -17 -55 -2 -44 -1 -45 34 -54 20 -5 49 -6 65 -2 57 15 124
114 124 185 0 34 -42 48 -85 28 l-34 -16 14 40 c8 22 24 71 35 109 l21 70 647
2 647 3 0 2870 0 2870 -7491 3 c-4120 1 -7494 -1 -7497 -5z m14983 -2868 l0
-2865 -641 0 -641 0 5 33 c6 44 -8 77 -32 77 -24 0 -32 -19 -19 -43 5 -11 7
-30 4 -43 l-6 -24 -281 0 -282 0 7 59 c5 47 4 60 -8 64 -20 8 -31 -15 -40 -75
l-7 -48 -108 0 c-90 0 -111 3 -122 17 -8 9 -9 14 -3 10 17 -10 27 23 13 40
-18 21 -33 10 -39 -28 l-5 -34 -303 -3 -302 -2 6 39 c7 44 -4 56 -42 47 -24
-6 -34 -41 -13 -48 5 -2 7 -11 4 -21 -7 -16 -86 -17 -1355 -17 -1186 0 -1349
2 -1360 15 -7 8 -18 15 -25 15 -7 0 -15 7 -19 15 -5 13 -25 14 -128 10 -81 -3
-125 -9 -130 -18 -6 -9 -8 -9 -8 1 0 6 -11 12 -25 12 -14 0 -25 -3 -25 -7 0
-5 -56 -7 -124 -5 -115 3 -127 1 -145 -17 l-21 -21 -4380 0 -4380 0 0 2865 0
2865 7490 0 7490 0 0 -2865z m-5635 -2855 c-4 -6 -55 -9 -128 -8 l-122 2 125
6 c69 3 126 7 128 8 2 1 0 -2 -3 -8z m3639 -252 c-17 -56 -54 -108 -78 -108
-23 0 -43 46 -30 68 16 24 74 62 96 62 15 0 18 -5 12 -22z m706 -37 c-12 -42
-48 -88 -81 -101 -65 -27 -53 27 20 93 51 46 73 49 61 8z"/>
<path d="M4766 11083 c-20 -167 -56 -303 -80 -303 -22 1 -77 101 -92 170 -36
158 -74 109 -159 -205 -24 -87 -23 -90 5 -90 21 0 25 6 33 45 4 25 22 95 40
155 31 109 31 110 39 70 5 -25 19 -49 36 -63 20 -17 22 -21 7 -15 -20 7 -20 7
-1 -22 49 -78 67 -95 97 -95 26 0 33 6 54 53 14 28 25 64 25 79 0 15 5 39 11
55 6 15 15 59 20 97 5 38 13 74 19 81 12 14 -6 35 -31 35 -14 0 -19 -11 -23
-47z"/>
<path d="M8834 11122 c-6 -4 -14 -14 -17 -22 -4 -12 -6 -11 -6 3 -1 17 -9 18
-98 12 -54 -4 -136 -11 -183 -16 -47 -5 -114 -11 -149 -12 -41 -1 -66 -7 -68
-14 -6 -18 46 -35 87 -29 19 3 42 6 50 7 8 0 69 5 135 10 66 6 145 12 175 14
160 12 180 16 180 36 0 11 -7 19 -16 19 -8 0 -12 -4 -9 -10 3 -5 1 -10 -4 -10
-6 0 -11 5 -11 10 0 12 -50 13 -66 2z"/>
<path d="M5206 11085 c-22 -22 -38 -136 -26 -187 13 -58 12 -69 -5 -33 -11 25
-14 27 -14 9 -3 -68 -55 -165 -80 -149 -25 15 -2 90 30 98 21 6 26 32 7 40
-41 15 -92 -49 -90 -111 2 -52 18 -72 57 -72 63 0 94 52 122 202 13 76 14 91
2 98 -11 7 -10 10 4 16 9 3 17 17 17 29 0 13 5 27 10 30 15 9 12 32 -5 39 -8
3 -21 -1 -29 -9z"/>
<path d="M12636 11078 c-2 -7 -12 -41 -21 -75 -16 -54 -16 -65 -4 -80 13 -16
12 -17 -2 -5 -15 11 -19 3 -40 -69 -18 -63 -29 -84 -47 -92 -18 -8 -22 -17
-19 -36 3 -15 -1 -42 -9 -60 -17 -39 -11 -66 11 -57 8 3 27 1 41 -4 14 -6 31
-7 37 -3 6 4 20 8 30 8 26 2 85 63 96 99 10 34 9 64 -3 84 -9 15 -60 16 -87 2
-10 -6 -19 -7 -19 -2 0 5 18 68 40 141 21 72 37 138 34 146 -7 18 -33 20 -38
3z m37 -324 c11 -11 -15 -64 -45 -89 -26 -22 -78 -35 -78 -19 0 18 45 75 73
93 35 22 41 24 50 15z"/>
<path d="M13636 11058 c-16 -82 -72 -232 -122 -326 -30 -57 -54 -112 -54 -123
0 -23 32 -26 51 -3 7 9 25 14 43 13 78 -6 136 34 136 93 0 61 -39 85 -91 57
-19 -10 -20 -9 -9 12 23 41 90 253 90 281 0 42 -35 39 -44 -4z m10 -356 c-7
-20 -56 -47 -76 -40 -6 2 6 20 26 41 38 39 62 38 50 -1z"/>
<path d="M8850 11050 c-21 -16 -23 -22 -14 -37 14 -23 -10 -178 -45 -291 -13
-40 -20 -79 -17 -87 9 -23 30 -18 48 13 17 29 109 124 115 119 2 -2 -2 -29 -8
-61 -9 -42 -9 -60 -1 -68 27 -27 52 41 56 152 1 33 -1 35 -28 33 -16 -1 -41
-13 -55 -26 -59 -53 -61 -53 -46 -4 7 24 16 71 20 103 4 33 12 67 17 78 7 13
6 21 -3 27 -9 5 -10 9 -3 9 18 0 26 31 13 46 -15 18 -19 17 -49 -6z"/>
<path d="M8604 11004 c-8 -20 -13 -48 -9 -61 3 -13 -10 -83 -30 -162 -20 -76
-33 -145 -29 -155 12 -31 39 -13 45 29 3 22 23 104 43 183 40 151 42 195 13
200 -12 3 -22 -7 -33 -34z"/>
<path d="M11897 11033 c-4 -3 -7 -13 -7 -21 0 -8 -16 -58 -35 -111 -19 -53
-36 -106 -38 -116 -2 -11 -10 -33 -17 -50 -19 -44 -19 -140 0 -140 10 0 17 15
22 45 3 25 25 100 47 166 23 68 39 130 35 140 -5 15 -4 16 4 5 8 -11 12 -6 17
22 10 51 -5 83 -28 60z"/>
<path d="M1875 10995 c-49 -13 -93 -24 -97 -24 -9 -1 -39 -62 -34 -70 2 -3 -3
-40 -11 -81 -18 -96 -31 -179 -39 -256 -8 -75 -2 -79 107 -64 144 20 179 30
179 51 0 23 -13 24 -105 4 -39 -8 -85 -15 -103 -15 l-33 0 3 70 c2 38 6 70 11
70 4 0 7 6 7 13 0 13 170 64 250 74 43 6 61 26 41 46 -6 6 -11 7 -11 2 0 -6
-24 -10 -53 -10 -28 -1 -67 -9 -86 -18 -19 -9 -44 -17 -57 -17 -12 0 -34 -4
-48 -10 -21 -8 -26 -6 -26 6 0 17 31 157 35 162 7 8 192 52 218 52 15 0 27 5
27 11 0 5 -4 7 -10 4 -5 -3 -10 -2 -10 4 0 5 6 12 13 14 38 16 -92 1 -168 -18z"/>
<path d="M11730 10878 c-81 -217 -96 -292 -66 -317 20 -17 30 3 32 64 0 28 6
61 12 75 43 100 112 295 108 306 -15 39 -36 7 -86 -128z"/>
<path d="M14206 10988 c-20 -65 -68 -184 -113 -281 -52 -114 -62 -156 -36
-165 12 -3 17 4 44 77 14 38 72 70 125 71 43 0 58 -21 50 -69 -7 -44 6 -61 29
-38 38 38 19 127 -31 144 -25 8 -25 9 18 39 24 17 65 56 92 87 40 47 46 60 36
72 -7 8 -15 15 -19 15 -4 0 -26 -26 -50 -57 -29 -38 -70 -75 -118 -105 -40
-26 -73 -45 -73 -42 0 2 7 21 16 42 28 65 73 206 68 214 -8 12 -34 9 -38 -4z"/>
<path d="M3541 10923 c-82 -43 -151 -137 -151 -208 0 -69 51 -124 145 -155 56
-18 187 -19 209 -1 17 14 17 16 1 28 -10 7 -25 9 -34 5 -41 -20 -169 4 -227
41 -65 42 -66 100 -4 185 44 61 180 120 180 78 0 -19 21 -26 43 -14 43 22 -2
68 -68 68 -25 0 -62 -11 -94 -27z"/>
<path d="M5374 10901 c-64 -39 -89 -148 -44 -196 23 -25 29 -27 95 -23 73 5
135 29 135 52 0 21 -21 24 -49 10 -38 -20 -128 -29 -146 -14 -25 20 -17 36 26
56 61 27 89 52 89 79 0 52 -51 70 -106 36z m45 -52 c-13 -10 -33 -20 -44 -23
-15 -4 -12 2 13 25 18 16 38 27 44 23 7 -4 2 -14 -13 -25z"/>
<path d="M4866 10879 c-14 -17 -26 -36 -27 -42 0 -7 -2 -28 -5 -48 -10 -79 73
-119 130 -63 32 33 33 70 3 115 -13 19 -26 42 -30 52 -10 26 -42 20 -71 -14z
m62 -51 c20 -20 14 -66 -10 -79 -18 -10 -24 -8 -35 7 -17 23 -16 35 3 62 17
25 25 27 42 10z"/>
<path d="M2473 10885 c-6 -18 23 -55 44 -55 16 0 17 24 3 51 -13 23 -38 25
-47 4z"/>
<path d="M10372 10878 c-16 -16 -15 -45 3 -52 18 -7 47 21 43 43 -4 20 -30 25
-46 9z"/>
<path d="M11612 10878 c-7 -7 -12 -20 -12 -29 0 -29 22 -34 42 -9 14 17 16 26
7 36 -14 17 -22 17 -37 2z"/>
<path d="M9103 10864 c-10 -26 38 -47 52 -24 8 14 -13 40 -32 40 -7 0 -16 -7
-20 -16z"/>
<path d="M12838 10803 c-37 -40 -68 -94 -68 -121 0 -13 11 -34 25 -47 19 -20
34 -25 77 -25 61 0 84 11 74 35 -4 13 -13 15 -36 10 -38 -8 -90 3 -90 20 0 7
16 23 35 36 41 28 58 57 53 90 -5 35 -38 36 -70 2z"/>
<path d="M9850 10775 c-19 -19 -41 -35 -50 -35 -13 0 -16 -10 -13 -56 2 -56
17 -89 34 -78 5 3 9 0 9 -5 0 -17 127 -14 137 2 4 8 16 17 26 20 27 10 15 31
-18 35 -18 2 -31 -2 -37 -12 -9 -16 -61 -22 -92 -10 -23 9 -20 45 4 51 11 3
20 10 20 15 0 6 10 8 22 5 28 -8 57 8 68 39 26 69 -52 89 -110 29z m53 -29
c-10 -13 -20 -20 -21 -15 -5 12 17 39 30 39 5 0 1 -11 -9 -24z"/>
<path d="M11165 10772 c-80 -43 -90 -52 -70 -71 11 -12 22 -9 70 18 32 18 56
29 54 24 -39 -89 -42 -104 -26 -120 15 -15 20 -15 61 1 24 9 50 24 57 32 10
12 13 11 23 -8 17 -35 62 -36 98 -2 35 34 68 132 47 144 -22 14 -39 -1 -45
-41 -11 -66 -64 -115 -64 -59 0 28 -36 35 -68 12 -15 -10 -37 -24 -49 -31 -22
-11 -21 -9 7 50 47 100 22 113 -95 51z"/>
<path d="M2185 10767 c-18 -18 -41 -56 -51 -85 -13 -36 -24 -52 -36 -52 -24 0
-25 -58 -2 -67 16 -6 16 -7 1 -18 -10 -7 -18 -30 -19 -57 -2 -25 -7 -44 -11
-41 -5 3 -7 -15 -5 -39 2 -35 7 -43 23 -43 17 0 22 11 33 75 8 41 15 76 16 78
2 1 13 5 26 7 61 12 112 78 130 168 10 50 9 62 -4 83 -23 34 -61 31 -101 -9z
m59 -87 c-19 -65 -71 -126 -90 -107 -13 13 29 128 59 160 28 30 30 31 37 12 4
-11 1 -40 -6 -65z"/>
<path d="M2640 10793 c-23 -9 -60 -45 -76 -75 -19 -36 -18 -93 2 -112 17 -17
80 -20 124 -6 24 8 24 8 3 9 -13 1 -23 6 -23 12 0 7 12 9 35 5 21 -4 35 -3 35
3 0 31 -87 20 -100 -13 -6 -15 -9 -16 -9 -5 -1 9 -10 19 -21 22 -11 3 -20 14
-20 24 0 28 48 93 69 93 23 0 34 23 18 39 -12 12 -14 12 -37 4z"/>
<path d="M9176 10769 c-36 -42 -34 -78 5 -110 28 -22 30 -28 20 -47 -6 -12
-15 -22 -20 -22 -9 0 -31 45 -31 65 0 19 -24 19 -39 1 -10 -11 -8 -23 8 -55
36 -69 81 -77 114 -20 29 52 20 90 -31 118 -15 9 -15 12 6 40 43 59 15 86 -32
30z"/>
<path d="M10164 10790 c-12 -5 -31 -22 -43 -39 -12 -16 -31 -31 -43 -33 -19
-3 -26 -20 -60 -158 -27 -113 -34 -156 -25 -162 18 -11 31 6 66 91 23 57 39
82 55 87 57 18 116 86 131 152 12 55 -27 84 -81 62z m32 -73 c-7 -25 -65 -92
-73 -84 -10 10 18 75 44 103 28 30 40 22 29 -19z"/>
<path d="M14485 10789 c-11 -6 -39 -32 -62 -56 l-43 -46 23 -40 c28 -52 76
-81 117 -72 41 9 41 39 0 42 -34 2 -70 19 -70 33 0 5 18 19 40 30 48 24 76 71
60 100 -12 22 -34 25 -65 9z m15 -53 c0 -2 -7 -7 -16 -10 -8 -3 -12 -2 -9 4 6
10 25 14 25 6z"/>
<path d="M4176 10769 c-26 -21 -56 -68 -56 -89 0 -6 11 -22 25 -35 27 -28 95
-35 114 -11 14 17 -9 39 -33 30 -9 -3 -24 -3 -33 0 -14 6 -12 10 13 25 48 29
59 48 46 76 -14 30 -41 32 -76 4z"/>
<path d="M13929 10778 c-27 -23 -69 -97 -69 -122 0 -29 29 -49 63 -44 32 5 67
63 67 112 0 59 -27 82 -61 54z m11 -88 c-7 -16 -19 -30 -27 -30 -14 0 -14 2
17 47 20 30 26 20 10 -17z"/>
<path d="M14735 10781 c-3 -6 -19 -11 -35 -11 -20 0 -35 -8 -47 -26 -10 -14
-29 -39 -42 -55 -24 -30 -23 -59 3 -59 8 0 19 6 23 13 9 15 103 92 103 85 0
-3 -5 -19 -11 -36 -8 -22 -7 -36 1 -53 11 -20 18 -21 71 -16 66 6 118 32 101
49 -8 8 -28 8 -68 -1 -32 -6 -60 -9 -62 -6 -3 3 3 22 12 44 23 50 18 75 -16
79 -14 2 -29 -2 -33 -7z"/>
<path d="M4024 10770 c-28 -11 -30 -15 -39 -77 -6 -44 -4 -54 9 -59 23 -9 29
-1 35 49 4 31 11 42 23 42 10 0 23 6 30 13 11 11 9 16 -6 28 -22 16 -23 16
-52 4z"/>
<path d="M13775 10747 c-35 -35 -51 -76 -41 -103 9 -24 23 -14 48 35 17 33 32
47 58 55 45 14 46 40 2 44 -26 3 -39 -3 -67 -31z"/>
<path d="M3853 10762 c-15 -10 -43 -68 -43 -91 0 -30 11 -51 26 -51 8 0 14 -4
14 -10 0 -16 63 -12 88 6 33 23 30 76 -5 103 -16 12 -32 24 -38 29 -21 17 -31
20 -42 14z m63 -83 c3 -6 -1 -18 -10 -27 -12 -13 -21 -14 -33 -6 -24 15 -27
32 -6 37 31 8 42 7 49 -4z"/>
<path d="M10510 10761 c0 -5 -9 -11 -19 -14 -21 -5 -91 -103 -91 -128 0 -40
85 -73 129 -50 39 22 26 41 -29 41 -38 0 -50 4 -50 15 0 21 45 73 94 108 11 8
16 19 12 25 -8 14 -46 16 -46 3z"/>
<path d="M3010 10753 c-59 -5 -82 -16 -73 -38 4 -11 22 -13 86 -9 112 7 129
11 125 32 -3 18 -40 22 -138 15z"/>
<path d="M9038 10733 c-17 -43 -17 -138 1 -138 13 0 29 52 44 145 4 28 -32 23
-45 -7z"/>
<path d="M2409 10729 c-11 -7 -12 -12 -2 -28 8 -13 9 -22 3 -26 -11 -7 -13
-55 -4 -79 8 -22 44 -20 45 2 1 17 1 111 0 123 -1 12 -28 17 -42 8z"/>
<path d="M11537 10733 c-2 -4 -8 -29 -11 -56 -6 -39 -4 -48 9 -53 25 -10 36 8
38 62 2 38 -2 49 -15 52 -9 2 -18 -1 -21 -5z"/>
<path d="M10313 10708 c-15 -20 -43 -96 -43 -118 0 -22 38 -29 44 -7 2 6 11
34 19 61 19 62 7 99 -20 64z"/>
<path d="M10777 10433 c-3 -5 -8 -24 -12 -43 -17 -85 -64 -241 -79 -262 -9
-12 -16 -17 -16 -10 0 16 -52 15 -75 -1 -27 -21 -9 -37 41 -37 49 0 51 -4 29
-65 -19 -51 -19 -71 -1 -78 21 -8 31 10 50 89 l18 72 61 12 c73 15 98 26 94
43 -1 7 4 11 12 9 12 -3 12 0 1 12 -15 19 -41 21 -58 4 -16 -16 -81 -37 -87
-28 -2 4 2 34 11 66 58 221 59 224 29 224 -8 0 -16 -3 -18 -7z"/>
<path d="M8410 10350 c-11 -22 -25 -67 -31 -98 -19 -103 -29 -132 -47 -132
-25 0 -82 -57 -103 -104 -35 -78 -20 -136 35 -136 41 0 68 28 90 92 20 59 62
230 71 285 4 23 16 54 28 69 15 19 18 31 10 42 -17 29 -32 24 -53 -18z m-96
-361 c-21 -57 -39 -78 -56 -61 -14 14 6 74 40 114 22 26 28 29 30 14 2 -9 -4
-40 -14 -67z"/>
<path d="M3238 10369 c-29 -17 -75 -92 -92 -150 -11 -38 -15 -76 -11 -129 4
-49 2 -71 -4 -65 -6 6 -38 8 -73 5 -54 -4 -63 -8 -63 -24 0 -18 7 -19 73 -17
71 2 103 -9 95 -34 -1 -6 6 -36 16 -69 19 -60 46 -90 57 -62 7 19 -23 115 -45
140 -9 11 -10 16 -3 12 7 -4 12 -1 12 8 0 12 10 16 40 16 44 0 42 6 44 -99 2
-101 46 -63 46 40 l0 50 33 -3 c26 -2 32 0 32 17 0 16 -8 21 -35 23 -19 2 -40
8 -46 13 -6 5 -39 6 -74 2 l-63 -6 5 95 c3 87 7 99 37 146 32 51 39 56 72 53
18 -2 33 25 23 40 -7 12 -55 11 -76 -2z"/>
<path d="M13617 10333 c-3 -5 -8 -24 -12 -43 -4 -19 -20 -70 -37 -112 l-29
-77 -47 -3 c-39 -3 -47 -6 -47 -23 0 -17 6 -20 38 -18 l39 3 -33 -58 c-52 -91
-61 -111 -54 -122 11 -18 35 -11 44 13 5 12 27 54 50 92 l40 70 53 0 c46 0 53
3 53 20 0 16 -8 21 -43 23 -29 2 -42 7 -39 15 25 66 66 210 62 218 -7 11 -32
12 -38 2z"/>
<path d="M6517 10300 c-48 -17 -93 -30 -98 -30 -24 0 -36 -31 -44 -115 -5 -50
-9 -115 -9 -145 l-1 -55 40 -2 c23 -2 83 1 135 5 76 6 95 10 98 23 2 13 -8 18
-40 23 -24 3 -54 4 -68 1 -14 -3 -48 -8 -75 -11 l-50 -6 5 57 5 58 80 28 c44
16 89 27 100 24 27 -6 49 9 42 29 -9 23 -74 21 -137 -4 -67 -26 -70 -26 -70
13 0 32 2 34 73 57 39 13 88 26 107 29 26 5 35 11 35 26 0 30 -29 29 -128 -5z"/>
<path d="M11989 10282 c-84 -56 -109 -78 -109 -96 0 -27 27 -18 97 33 37 28
69 48 71 46 6 -6 -24 -56 -77 -130 -67 -94 -75 -102 -124 -109 -32 -5 -51 -17
-83 -52 -48 -51 -57 -76 -39 -101 16 -22 42 -11 107 46 25 22 49 41 52 41 3 0
6 -11 6 -24 0 -47 59 -67 125 -41 32 12 45 22 45 36 0 21 -29 26 -47 8 -6 -6
-26 -9 -44 -7 -31 3 -34 6 -37 39 -3 32 6 49 67 130 135 180 130 275 -10 181z"/>
<path d="M2632 10277 c-18 -18 -32 -43 -32 -55 0 -42 53 -233 61 -220 4 7 11
9 15 5 4 -3 1 -13 -5 -21 -7 -8 -12 -36 -11 -63 2 -91 -19 -132 -67 -133 -30
0 -53 37 -53 87 0 45 11 58 50 58 18 0 25 5 25 19 0 26 -35 36 -72 21 -25 -10
-34 -23 -43 -54 -23 -87 24 -175 93 -175 88 0 135 113 103 244 -9 36 -19 76
-22 90 -3 14 -9 41 -14 60 -15 55 -12 92 11 116 20 21 21 54 1 54 -4 0 -22
-15 -40 -33z"/>
<path d="M4904 10281 c-18 -11 -39 -30 -48 -42 -34 -50 -20 -71 117 -178 86
-67 96 -85 67 -116 -30 -32 -81 -55 -123 -55 -38 0 -63 20 -46 37 7 7 5 14 -5
22 -24 20 -58 -4 -54 -37 7 -60 123 -84 195 -41 92 55 114 100 73 152 -11 14
-61 58 -110 97 -79 62 -89 73 -80 90 19 35 89 55 105 30 3 -5 15 -10 26 -10
29 0 23 33 -10 53 -38 22 -69 21 -107 -2z"/>
<path d="M10144 10215 c-8 -20 4 -35 26 -35 25 0 35 17 20 35 -16 19 -39 19
-46 0z"/>
<path d="M13254 10215 c-7 -18 3 -35 21 -35 18 0 26 25 12 39 -15 15 -27 14
-33 -4z"/>
<path d="M1285 10200 c-4 -6 -2 -25 3 -43 6 -17 13 -64 17 -103 6 -72 6 -72
-25 -94 -25 -18 -34 -19 -45 -10 -21 18 -42 -2 -56 -53 -20 -73 9 -167 51
-167 24 0 71 78 101 169 19 55 21 77 15 155 -6 80 -10 123 -15 149 -2 11 -39
9 -46 -3z m-9 -322 c-42 -100 -56 -113 -56 -50 0 31 6 41 33 59 17 12 33 22
35 22 1 1 -4 -14 -12 -31z"/>
<path d="M6972 10188 c4 -30 43 -37 51 -9 5 20 -9 31 -40 31 -9 0 -13 -8 -11
-22z"/>
<path d="M7163 10179 c-59 -17 -101 -112 -73 -164 7 -13 26 -29 41 -36 38 -15
138 -3 146 17 7 19 -15 43 -25 29 -4 -6 -29 -10 -56 -10 -39 0 -52 5 -68 25
-12 15 -15 26 -9 28 6 2 11 10 11 17 0 18 48 55 71 55 24 0 33 18 19 35 -14
17 -13 17 -57 4z"/>
<path d="M6776 10161 c-54 -36 -69 -74 -82 -205 -8 -92 -8 -124 1 -134 21 -23
38 13 46 101 4 45 8 82 8 83 1 0 14 -1 29 -4 23 -3 35 5 70 42 30 32 42 54 42
75 0 58 -57 79 -114 42z m58 -70 c-21 -35 -41 -46 -59 -31 -6 5 -15 6 -20 2
-4 -4 -3 2 3 13 12 24 41 50 62 57 26 9 33 -9 14 -41z"/>
<path d="M12803 10135 c-12 -8 -31 -32 -44 -52 -12 -21 -27 -42 -33 -48 -15
-13 -48 -133 -41 -146 4 -5 2 -9 -3 -9 -12 0 -84 -179 -77 -190 21 -34 55 17
115 170 10 25 24 45 31 46 8 0 22 2 31 2 20 2 84 56 98 83 17 31 24 128 10
144 -16 19 -60 19 -87 0z m57 -42 c0 -42 -23 -94 -51 -117 -39 -33 -59 -33
-59 -1 0 14 4 25 9 25 5 0 13 12 19 28 10 28 58 82 73 82 5 0 9 -8 9 -17z"/>
<path d="M6946 10108 c-21 -35 -28 -78 -15 -94 19 -23 28 -16 40 29 6 23 15
47 21 54 5 7 7 17 3 23 -11 17 -34 11 -49 -12z"/>
<path d="M8530 10119 c0 -6 -18 -31 -40 -56 -52 -60 -67 -109 -41 -143 24 -33
54 -36 96 -10 47 29 69 72 60 119 -12 63 -32 101 -54 101 -12 0 -21 -5 -21
-11z m32 -99 c4 -25 -1 -36 -29 -61 -58 -51 -74 -10 -23 60 34 46 45 46 52 1z"/>
<path d="M12549 10107 c-75 -40 -84 -91 -23 -130 19 -12 34 -25 34 -29 0 -4
-13 -14 -30 -23 -24 -12 -33 -13 -50 -3 -28 18 -46 -1 -31 -31 15 -27 59 -28
111 -1 63 32 63 80 0 117 -17 9 -30 22 -30 28 0 17 55 45 89 45 24 0 31 4 31
19 0 37 -40 40 -101 8z"/>
<path d="M13023 10116 c-37 -21 -63 -52 -88 -108 -21 -46 -24 -62 -15 -73 20
-25 47 0 60 55 14 59 47 90 96 90 37 0 51 14 34 35 -12 15 -61 16 -87 1z"/>
<path d="M8755 10109 c-16 -5 -41 -18 -55 -28 -20 -16 -22 -22 -11 -34 11 -14
16 -13 47 5 19 11 34 17 34 14 0 -4 -16 -31 -36 -60 -37 -56 -40 -82 -13 -99
13 -8 28 -3 65 20 l49 30 18 -23 c21 -28 63 -32 107 -9 29 15 33 23 45 99 4
21 12 47 18 58 10 15 9 20 -3 28 -25 16 -52 -22 -58 -80 -4 -40 -10 -55 -28
-67 -31 -20 -52 -11 -56 24 -5 41 -31 40 -84 -3 l-46 -38 31 49 c22 35 28 52
20 61 -8 9 -5 11 9 7 23 -6 38 23 21 43 -13 16 -30 16 -74 3z"/>
<path d="M9095 10090 c-9 -16 -13 -30 -10 -30 3 0 -4 -10 -15 -22 -30 -32 -52
-77 -46 -94 12 -31 51 -13 115 51 36 36 66 63 67 62 2 -2 -4 -22 -12 -46 -13
-39 -13 -46 1 -67 8 -13 19 -24 23 -25 4 0 16 -2 27 -4 34 -7 65 6 65 26 0 15
-7 19 -40 19 -49 0 -51 11 -15 83 28 55 27 77 -5 77 -29 0 -58 -16 -99 -54
-32 -29 -34 -20 -3 16 17 20 8 38 -18 38 -12 0 -26 -13 -35 -30z"/>
<path d="M1870 10095 c-17 -20 -8 -49 16 -53 16 -2 23 4 28 23 11 43 -17 62
-44 30z"/>
<path d="M10928 10098 c-3 -7 5 -26 17 -43 32 -43 35 -57 20 -93 -15 -35 -56
-52 -80 -32 -22 18 -18 44 11 79 42 51 8 72 -38 24 -34 -37 -42 -76 -24 -112
15 -28 46 -49 46 -31 0 6 5 10 10 10 6 0 9 -6 8 -12 -4 -17 39 -12 69 7 38 26
55 68 44 116 -15 68 -70 125 -83 87z"/>
<path d="M10346 10050 c-31 -27 -59 -50 -61 -50 -2 0 1 16 7 36 7 28 7 39 -4
45 -7 4 -17 4 -22 -1 -12 -12 -46 -118 -46 -142 0 -24 35 -23 58 0 23 23 83
65 85 61 2 -2 9 -13 17 -24 14 -19 14 -19 -4 -5 -18 14 -19 13 -13 -3 4 -10 7
-25 7 -33 0 -40 104 -61 140 -29 27 24 15 37 -25 29 -18 -3 -43 -3 -55 1 -19
6 -21 12 -16 53 11 94 11 105 0 109 -6 2 -36 -19 -68 -47z"/>
<path d="M5411 10063 c-12 -16 -25 -33 -30 -39 -9 -11 -24 -152 -25 -239 -1
-39 3 -50 16 -53 19 -4 38 49 38 106 0 27 4 32 24 32 49 0 136 85 136 132 0
11 -15 35 -34 54 -45 45 -95 47 -125 7z m87 -29 c30 -21 28 -50 -7 -85 -31
-30 -67 -40 -58 -15 3 7 1 18 -5 24 -13 13 -3 55 18 76 19 20 24 20 52 0z"/>
<path d="M5682 10065 c-37 -31 -43 -53 -26 -94 16 -39 72 -65 116 -56 42 10
34 39 -12 43 -58 6 -67 22 -22 42 47 21 59 46 36 71 -23 26 -57 24 -92 -6z"/>
<path d="M10050 10027 c-38 -74 -37 -111 2 -140 25 -19 30 -19 65 -6 54 21 50
44 -7 44 -58 0 -61 16 -16 83 31 46 33 54 20 67 -9 8 -19 15 -23 15 -5 0 -23
-28 -41 -63z"/>
<path d="M5893 10063 c-29 -24 -39 -76 -19 -93 26 -21 47 -5 40 30 -6 30 -6
30 35 30 34 0 41 3 41 20 0 12 -7 20 -17 20 -10 0 -27 3 -39 6 -12 3 -29 -2
-41 -13z"/>
<path d="M7448 10073 c-20 -3 -28 -10 -28 -24 0 -16 7 -19 39 -19 22 0 43 -4
46 -10 7 -12 65 -14 65 -2 0 14 -40 52 -55 52 -7 0 -19 2 -27 3 -7 2 -25 2
-40 0z"/>
<path d="M13686 10049 c-34 -27 -33 -49 4 -84 33 -32 37 -68 8 -73 -12 -2 -21
6 -28 23 -12 32 -34 28 -38 -7 -7 -58 78 -81 117 -32 29 37 26 65 -9 99 -35
34 -37 41 -10 50 26 8 27 45 1 45 -10 0 -30 -9 -45 -21z"/>
<path d="M13290 10042 c-38 -21 -103 -98 -94 -113 7 -12 44 -12 44 1 0 14 71
80 86 80 10 0 8 -12 -8 -45 -16 -33 -19 -48 -11 -56 17 -17 32 -2 59 55 20 44
22 53 10 71 -18 27 -44 29 -86 7z"/>
<path d="M3830 10033 c-14 -9 -37 -27 -52 -41 l-28 -26 0 32 c0 27 -4 32 -24
32 -14 0 -31 -9 -40 -21 -8 -12 -21 -19 -29 -16 -29 11 -37 -7 -29 -69 9 -73
28 -78 58 -15 18 39 21 42 26 23 9 -33 31 -27 89 23 29 25 56 45 60 45 4 0 10
-18 14 -40 4 -24 14 -44 25 -50 21 -11 53 -3 44 12 -4 6 2 8 16 3 18 -6 21 -3
18 12 -3 13 -11 17 -30 15 -25 -2 -44 20 -33 38 3 5 1 20 -5 34 -11 31 -43 34
-80 9z"/>
<path d="M2102 10018 c-23 -30 -41 -78 -48 -127 -4 -28 -10 -53 -14 -56 -4 -2
-12 20 -19 49 -12 53 -34 77 -54 57 -17 -17 41 -174 67 -179 28 -6 37 9 60
110 21 90 23 93 48 90 37 -4 44 15 17 44 -25 27 -42 30 -57 12z"/>
<path d="M5160 9993 c0 -42 28 -96 59 -112 40 -22 101 32 101 89 0 15 -6 20
-25 20 -20 0 -25 -5 -25 -24 0 -13 -7 -30 -16 -37 -14 -11 -18 -10 -30 6 -14
18 -16 27 -18 70 -1 13 -9 21 -23 23 -20 3 -23 -1 -23 -35z"/>
<path d="M13106 10008 c-23 -32 -21 -68 3 -68 13 0 23 11 31 35 18 53 -5 75
-34 33z"/>
<path d="M3451 9989 c-36 -49 -42 -82 -20 -118 16 -26 25 -31 57 -31 50 0 77
27 67 67 -7 31 -54 104 -70 110 -6 2 -21 -11 -34 -28z m45 -56 c18 -23 18 -53
0 -53 -21 0 -38 27 -31 50 8 25 14 25 31 3z"/>
<path d="M2273 9958 c-16 -24 -31 -44 -35 -46 -4 -2 -4 -10 -1 -18 3 -9 -1
-14 -13 -14 -17 -1 -17 -2 -4 -13 9 -7 22 -27 30 -45 7 -19 23 -40 36 -48 38
-26 124 -18 124 11 0 16 -25 26 -45 19 -28 -11 -62 5 -75 36 -7 17 -11 32 -9
33 2 1 18 9 34 17 31 16 41 44 31 86 -10 38 -42 30 -73 -18z"/>
<path d="M1459 9967 c-76 -66 -79 -172 -5 -202 34 -14 58 -12 84 8 16 13 -3
38 -24 30 -8 -3 -25 -2 -39 1 -36 9 -35 53 2 67 63 24 83 74 41 103 -28 20
-28 20 -59 -7z"/>
<path d="M1678 9970 c-24 -18 -68 -119 -68 -154 0 -9 8 -16 20 -16 17 0 36 38
44 90 1 3 5 11 9 18 5 6 5 12 0 12 -22 1 26 20 49 20 28 0 46 16 32 30 -22 19
-62 19 -86 0z"/>
<path d="M4360 9976 c-23 -8 -35 -19 -35 -32 0 -21 3 -22 58 -10 30 7 42 5 58
-10 15 -14 22 -15 32 -5 9 9 8 18 -3 39 -18 32 -56 38 -110 18z"/>
<path d="M1834 9906 c-13 -53 -10 -90 8 -94 19 -4 29 22 31 80 2 41 -29 53
-39 14z"/>
<path d="M13950 9871 c0 -41 -5 -53 -32 -80 -17 -17 -40 -33 -50 -37 -22 -7
-24 -32 -3 -40 19 -8 79 30 103 64 37 52 37 142 1 142 -16 0 -19 -8 -19 -49z"/>
<path d="M5933 9739 c-8 -8 -9 -18 0 -36 8 -18 6 -45 -8 -116 -25 -126 -29
-135 -62 -139 -38 -4 -40 -43 -3 -44 51 -1 57 -4 38 -15 -33 -19 -19 -198 15
-186 8 2 13 35 15 107 1 57 4 105 6 108 3 2 16 5 29 6 17 1 23 6 19 15 -4 11
-1 13 13 8 14 -6 16 -5 6 6 -6 8 -22 12 -35 10 l-23 -5 26 125 c25 123 25 126
7 146 -22 24 -28 25 -43 10z"/>
<path d="M3764 9718 c-13 -20 -10 -119 4 -130 24 -20 39 8 36 67 -2 30 -6 60
-9 65 -8 13 -22 13 -31 -2z"/>
<path d="M10626 9628 c-2 -7 -11 -40 -19 -73 -9 -34 -25 -82 -36 -108 -18 -41
-24 -47 -49 -47 -32 0 -58 -22 -47 -41 4 -6 18 -9 31 -6 28 5 28 5 9 -69 -8
-31 -12 -61 -9 -65 12 -20 33 -7 44 29 30 99 41 120 58 115 26 -6 72 14 72 33
0 14 -7 16 -39 11 l-39 -5 29 82 c36 103 41 149 16 154 -9 2 -19 -2 -21 -10z"/>
<path d="M7137 9624 c-4 -4 -7 -28 -7 -53 0 -25 -5 -100 -12 -166 -13 -132 -5
-197 25 -203 14 -3 17 4 17 37 0 23 -5 41 -11 41 -5 0 -7 5 -3 12 8 12 9 20
19 135 6 58 5 73 -6 73 -11 0 -12 2 -1 9 9 5 12 25 10 61 -3 50 -15 70 -31 54z"/>
<path d="M8866 9584 c-3 -9 -6 -22 -6 -31 0 -28 -53 -148 -102 -230 -72 -119
-55 -170 29 -92 21 19 50 43 65 53 27 18 27 18 33 -11 13 -57 24 -73 47 -70
28 5 33 20 13 37 -8 7 -15 22 -15 34 0 32 -28 66 -54 66 -13 0 -35 -9 -50 -21
-30 -23 -32 -29 27 92 32 68 56 141 57 177 0 18 -37 15 -44 -4z"/>
<path d="M3107 9566 c-33 -31 -41 -61 -41 -161 -1 -77 -2 -80 -28 -92 -34 -15
-68 -68 -68 -106 0 -59 91 -112 128 -75 8 8 12 65 12 190 0 177 0 179 25 204
27 27 34 64 11 64 -7 0 -25 -11 -39 -24z m-37 -345 c0 -59 -11 -70 -39 -39
-21 22 -20 48 1 76 23 28 38 13 38 -37z"/>
<path d="M6987 9578 c-2 -7 -1 -20 3 -28 4 -8 4 -40 0 -70 -4 -30 -8 -92 -9
-136 -2 -67 1 -83 14 -88 9 -3 21 -4 25 -1 11 7 0 116 -14 134 -9 12 -8 13 5
9 14 -5 17 5 23 62 8 86 0 130 -24 130 -10 0 -20 -6 -23 -12z"/>
<path d="M11554 9565 c-8 -20 4 -35 26 -35 25 0 35 17 20 35 -16 19 -39 19
-46 0z"/>
<path d="M5713 9563 c-7 -3 -13 -13 -13 -23 0 -10 6 -20 13 -23 15 -5 47 10
47 23 0 13 -32 28 -47 23z"/>
<path d="M14017 9554 c-4 -4 -7 -18 -7 -30 0 -13 -9 -46 -20 -74 -11 -28 -18
-55 -15 -60 3 -5 2 -10 -3 -12 -4 -1 -20 -37 -36 -78 -17 -41 -33 -79 -37 -83
-10 -12 1 -45 16 -51 15 -5 40 19 32 31 -3 4 2 23 12 42 20 42 76 65 136 56
54 -8 74 -20 57 -37 -18 -18 -15 -36 9 -48 28 -16 49 3 49 45 0 39 -24 62 -80
79 l-41 12 49 27 c96 52 179 147 129 147 -17 0 -61 -46 -50 -52 4 -3 2 -3 -4
-2 -7 2 -26 -8 -42 -21 -16 -14 -31 -25 -34 -25 -3 0 -32 -16 -64 -35 -32 -19
-61 -35 -65 -35 -4 0 6 37 23 82 16 45 29 91 27 102 -3 21 -28 33 -41 20z"/>
<path d="M4337 9544 c-3 -3 -3 -20 0 -38 4 -26 -11 -171 -32 -298 -3 -21 1
-30 16 -39 31 -16 43 1 31 43 -5 19 -6 41 -2 49 21 37 41 253 26 277 -8 13
-29 16 -39 6z"/>
<path d="M10190 9511 c0 -22 21 -33 40 -21 18 11 4 40 -20 40 -13 0 -20 -7
-20 -19z"/>
<path d="M12540 9503 c-45 -19 -90 -62 -90 -85 0 -22 35 -25 44 -3 13 34 106
72 106 43 0 -20 -124 -133 -161 -147 -108 -40 -151 -76 -136 -115 9 -23 17
-21 87 25 34 22 69 39 78 37 8 -2 22 -22 30 -46 17 -53 62 -81 98 -62 27 15
21 40 -11 40 -26 0 -39 14 -50 50 -4 14 -14 32 -22 42 -13 14 -12 17 2 26 36
19 113 104 130 142 15 32 15 42 5 55 -16 19 -64 18 -110 -2z"/>
<path d="M1057 9504 c-12 -12 -8 -52 6 -57 10 -4 10 -7 0 -18 -7 -7 -13 -26
-13 -42 0 -16 -9 -82 -21 -148 -26 -151 -24 -154 68 -153 60 1 68 3 68 20 0
15 -11 21 -53 28 -53 10 -54 11 -49 40 3 17 13 82 23 143 13 81 15 123 8 149
-9 37 -23 51 -37 38z"/>
<path d="M2603 9484 c-3 -9 -1 -25 5 -35 7 -10 17 -51 24 -91 6 -40 18 -79 27
-85 13 -12 13 -13 -2 -13 -11 0 -17 -8 -17 -23 0 -31 -27 -67 -50 -67 -28 0
-82 78 -115 167 -29 76 -49 103 -64 87 -5 -5 -14 -49 -20 -99 -6 -49 -15 -111
-20 -138 -9 -54 5 -85 34 -74 12 5 16 14 11 29 -6 24 14 148 24 148 3 0 15
-19 27 -43 27 -55 70 -106 99 -117 33 -13 82 7 98 39 17 33 30 111 19 111 -5
0 -7 16 -5 35 10 89 -52 229 -75 169z"/>
<path d="M9542 9455 c-33 -14 -62 -60 -62 -97 0 -13 9 -34 20 -48 22 -28 25
-40 10 -40 -6 0 -15 11 -20 25 -11 28 -20 31 -38 13 -50 -50 52 -106 109 -59
l23 18 -32 48 c-26 40 -30 51 -20 69 16 30 29 36 66 30 27 -5 32 -3 32 14 0
29 -47 44 -88 27z"/>
<path d="M6741 9409 c-53 -72 -52 -127 1 -155 33 -17 84 -11 72 8 -5 8 -2 9
10 5 18 -7 56 20 56 40 0 19 -59 17 -66 -2 -4 -8 -15 -15 -25 -15 -14 0 -7 10
26 41 46 42 53 65 35 100 -8 13 -21 19 -45 19 -29 0 -40 -7 -64 -41z m58 -35
c-7 -8 -21 -20 -31 -25 -17 -9 -18 -8 -9 9 17 33 45 56 49 43 2 -6 -2 -19 -9
-27z"/>
<path d="M9995 9416 c-22 -19 -53 -59 -70 -90 -26 -49 -28 -58 -15 -71 13 -12
19 -12 48 7 29 18 32 24 27 50 -8 36 21 72 72 89 40 13 42 42 3 47 -17 2 -38
-8 -65 -32z"/>
<path d="M6371 9385 c-36 -35 -58 -62 -54 -71 9 -24 27 -16 73 31 24 25 48 45
52 45 4 0 1 -19 -7 -41 -29 -82 -13 -125 39 -101 18 8 26 5 44 -15 19 -21 28
-24 55 -19 18 4 45 20 62 36 27 27 29 35 27 92 -3 67 -13 88 -44 88 -16 0 -19
-4 -13 -22 3 -13 9 -43 12 -68 4 -37 1 -48 -15 -63 -32 -29 -56 -18 -60 26 -4
41 -15 46 -51 21 -23 -16 -23 -16 -15 7 5 13 9 42 9 64 0 36 -3 40 -28 43 -22
3 -39 -8 -86 -53z"/>
<path d="M8082 9404 c-86 -56 -117 -150 -66 -201 23 -22 31 -25 73 -20 62 7
101 26 101 49 0 21 0 21 -65 4 -57 -15 -85 -11 -85 13 0 11 17 22 49 34 93 33
139 106 89 141 -30 21 -35 20 -96 -20z m66 -26 c-3 -7 -19 -23 -36 -34 -17
-12 -28 -25 -24 -29 4 -4 0 -6 -8 -3 -24 8 -17 26 20 52 39 28 54 32 48 14z"/>
<path d="M9753 9404 c-40 -28 -57 -48 -78 -96 -15 -33 -25 -68 -22 -79 3 -10
2 -19 -3 -19 -4 0 -10 -17 -14 -37 -3 -21 -17 -64 -30 -95 -13 -31 -20 -60
-17 -65 25 -35 59 21 92 152 16 64 24 83 31 71 34 -60 158 59 158 152 0 58
-47 65 -117 16z m68 -47 c-16 -47 -56 -84 -74 -69 -8 7 -18 8 -22 4 -11 -10 4
16 29 51 20 27 67 60 74 52 2 -2 -1 -19 -7 -38z"/>
<path d="M3800 9409 c-63 -28 -80 -47 -80 -85 0 -19 -11 -49 -25 -70 -48 -70
-40 -135 21 -183 30 -23 60 -26 117 -10 38 10 42 15 28 37 -6 10 -18 11 -51 3
-83 -19 -125 41 -85 119 13 25 22 30 54 30 27 0 44 7 60 24 32 34 19 48 -35
40 -61 -9 -58 18 4 50 26 13 37 15 47 6 32 -26 47 16 17 43 -23 21 -17 21 -72
-4z"/>
<path d="M11701 9420 c-47 -11 -64 -32 -64 -79 0 -33 -4 -41 -18 -41 -20 0
-33 -29 -23 -54 8 -20 55 -46 84 -46 26 0 37 27 22 51 -6 10 -15 37 -18 60 -8
50 9 69 63 69 26 0 33 4 33 19 0 10 -7 22 -16 25 -18 7 -17 7 -63 -4z m-47
-156 c3 -8 2 -12 -4 -9 -6 3 -10 10 -10 16 0 14 7 11 14 -7z"/>
<path d="M14415 9420 c-47 -10 -75 -29 -75 -51 0 -11 21 -40 46 -64 25 -25 44
-51 42 -57 -7 -20 -45 -21 -80 -4 -42 21 -50 20 -46 -6 7 -49 121 -70 160 -30
15 14 19 27 14 45 -7 31 -55 89 -66 82 -6 -4 -20 16 -20 30 0 10 54 14 66 4
18 -15 37 1 32 26 -4 23 -35 33 -73 25z"/>
<path d="M10281 9385 c-21 -19 -46 -35 -55 -35 -9 0 -19 -8 -23 -17 -3 -10
-15 -28 -26 -40 -19 -21 -16 -43 5 -43 6 0 42 27 79 60 l68 61 3 -58 c2 -44 7
-58 18 -58 12 0 16 15 18 69 3 104 -21 121 -87 61z"/>
<path d="M13079 9395 c-53 -17 -78 -40 -61 -57 7 -7 24 -5 56 7 26 10 49 16
52 13 2 -3 -18 -30 -46 -61 -27 -30 -50 -60 -50 -66 0 -27 33 -21 74 13 51 41
66 45 66 15 0 -23 18 -60 34 -71 40 -27 87 12 135 111 37 76 39 94 10 89 -14
-2 -27 -19 -41 -53 -26 -61 -66 -117 -79 -110 -5 4 -12 24 -15 46 -4 22 -14
45 -23 52 -11 7 -17 25 -16 47 0 30 -3 35 -25 37 -14 1 -46 -4 -71 -12z"/>
<path d="M8560 9375 c-40 -29 -80 -90 -80 -121 0 -34 31 -54 84 -54 29 0 45 4
41 10 -3 6 -1 10 5 10 6 0 8 5 5 10 -3 6 -24 10 -45 10 -21 0 -41 4 -44 9 -9
14 36 73 74 99 19 13 35 29 35 35 0 22 -40 18 -75 -8z"/>
<path d="M11456 9373 c-55 -58 -79 -101 -72 -128 8 -30 26 -40 62 -31 29 8 30
42 1 40 -28 -3 -20 20 24 70 38 42 40 49 27 63 -14 13 -18 12 -42 -14z"/>
<path d="M4524 9375 c-47 -32 -69 -129 -39 -171 31 -46 122 -56 160 -18 31 31
-1 39 -76 18 -18 -5 -59 30 -59 51 0 8 7 15 16 15 29 0 94 45 101 69 11 44
-58 69 -103 36z m56 -30 c0 -2 -10 -10 -22 -16 -21 -11 -22 -11 -9 4 13 16 31
23 31 12z"/>
<path d="M4954 9371 c-62 -38 -88 -171 -33 -171 16 0 19 8 19 46 0 37 5 51 28
72 15 15 36 32 47 38 21 12 13 34 -13 34 -9 0 -31 -9 -48 -19z"/>
<path d="M5640 9358 c-31 -50 -34 -76 -16 -115 22 -45 75 -69 114 -51 15 7 28
22 30 32 4 16 0 18 -33 12 -62 -12 -97 41 -60 90 19 25 19 64 0 64 -8 0 -24
-15 -35 -32z"/>
<path d="M8296 9344 c-46 -37 -64 -70 -52 -99 8 -23 35 -30 68 -17 26 10 30 8
38 -13 10 -27 47 -42 63 -26 7 7 6 16 -7 29 -14 16 -15 24 -5 46 7 14 16 26
20 26 5 0 16 14 24 31 13 24 14 34 4 45 -18 21 -26 17 -54 -25 -25 -37 -88
-81 -100 -69 -7 6 31 47 60 64 12 6 16 16 12 27 -9 24 -18 22 -71 -19z"/>
<path d="M13464 9346 c-71 -71 -19 -173 84 -164 29 2 37 7 37 23 0 16 -6 19
-26 17 -36 -3 -79 14 -79 32 0 10 -6 13 -17 10 -15 -5 -16 -4 -3 5 8 6 24 11
36 11 24 0 74 42 74 63 0 7 -5 18 -12 25 -22 22 -59 13 -94 -22z"/>
<path d="M13715 9364 c-16 -8 -39 -24 -50 -34 -11 -10 -29 -20 -40 -22 -27 -4
-31 -35 -7 -43 11 -3 23 -16 26 -29 10 -41 86 -59 141 -34 50 23 25 56 -30 38
-25 -8 -40 -8 -55 0 -28 15 -25 27 8 35 63 15 92 61 60 93 -15 15 -17 15 -53
-4z"/>
<path d="M4717 9344 c-66 -71 -27 -160 51 -120 26 14 31 14 42 1 14 -17 46
-20 55 -4 4 5 -1 19 -11 30 -15 17 -16 25 -6 52 13 35 5 51 -31 54 -12 1 -34
5 -48 8 -21 5 -32 1 -52 -21z m61 -36 c9 -9 8 -16 -5 -30 -21 -23 -43 -23 -43
0 0 17 18 42 30 42 3 0 11 -5 18 -12z"/>
<path d="M5074 9327 c-51 -36 -77 -88 -54 -111 12 -11 23 -1 60 54 8 12 23 26
33 32 15 8 18 6 17 -9 -5 -43 2 -64 26 -79 25 -17 26 -16 57 14 32 32 30 55
-3 34 -14 -9 -20 -9 -23 1 -4 9 -6 9 -6 -1 -1 -7 -5 -11 -11 -7 -6 4 -6 15 1
32 6 15 8 38 4 50 -8 33 -43 29 -101 -10z"/>
<path d="M3257 9312 c-15 -15 -32 -42 -38 -60 -16 -47 14 -102 65 -119 43 -15
110 -7 132 14 16 16 19 48 4 38 -5 -3 -10 -1 -10 6 0 8 -6 6 -18 -4 -26 -24
-94 -22 -116 2 -16 18 -16 19 11 26 61 15 92 74 57 109 -23 24 -57 19 -87 -12z
m52 -38 c-6 -8 -18 -14 -27 -14 -13 0 -12 3 3 20 20 22 43 17 24 -6z"/>
<path d="M10076 9306 c-20 -37 -16 -66 9 -66 14 0 45 58 45 86 0 27 -36 14
-54 -20z"/>
<path d="M1719 9302 c-29 -26 -33 -36 -37 -91 -4 -57 -3 -63 13 -59 13 2 22
19 30 56 14 61 20 69 55 74 17 2 25 9 25 23 0 33 -47 32 -86 -3z"/>
<path d="M2814 9312 c-14 -10 -54 -94 -54 -116 0 -39 19 -56 64 -56 55 0 85
23 93 72 5 33 2 41 -30 73 -35 35 -52 41 -73 27z m66 -92 c0 -16 -31 -40 -51
-40 -24 0 -26 36 -2 69 l16 24 19 -23 c10 -12 18 -26 18 -30z"/>
<path d="M1262 9243 c-44 -51 -48 -58 -32 -68 6 -3 10 -17 10 -30 0 -46 82
-85 149 -70 20 4 28 11 24 21 -4 10 0 12 11 8 9 -3 16 -1 16 4 0 19 -20 24
-56 12 -27 -9 -42 -9 -64 0 -35 14 -46 39 -22 46 78 24 110 67 77 104 -31 34
-66 25 -113 -27z m64 -18 c-21 -16 -32 -13 -21 4 3 6 14 11 23 11 15 -1 15 -2
-2 -15z"/>
<path d="M1866 9271 c-9 -10 -25 -17 -35 -14 -14 4 -19 -6 -28 -54 -10 -56 -5
-83 18 -83 5 0 18 22 30 49 17 41 57 94 60 80 0 -2 2 -20 5 -38 8 -65 61 -109
78 -65 10 25 7 32 -14 39 -13 4 -20 15 -20 31 0 13 -5 24 -11 24 -5 0 -7 5 -4
10 10 16 -14 40 -40 40 -12 0 -30 -9 -39 -19z"/>
<path d="M1492 9273 c-18 -7 -42 -57 -42 -87 0 -36 38 -60 74 -46 24 9 30 7
45 -12 25 -30 57 -19 39 14 -6 13 -11 34 -10 48 2 27 -20 57 -56 78 -23 13
-29 13 -50 5z m43 -63 c0 -15 -31 -37 -40 -28 -4 3 -1 16 5 28 12 22 35 23 35
0z"/>
<path d="M14583 9213 c-16 -6 -17 -39 -2 -49 6 -3 18 1 27 10 14 14 14 18 2
30 -8 7 -21 12 -27 9z"/>
<path d="M13467 8978 c-8 -13 -41 -75 -75 -138 -33 -63 -76 -142 -96 -174 -39
-65 -42 -76 -24 -94 12 -12 43 -1 63 23 6 7 35 31 65 55 66 51 75 40 35 -49
-26 -58 -30 -91 -10 -93 16 -2 77 130 78 169 2 68 -43 74 -121 15 l-36 -27 21
35 c60 102 74 130 67 141 -4 7 -3 9 3 6 10 -6 33 33 33 54 0 6 9 24 21 40 20
29 20 59 0 59 -6 0 -17 -10 -24 -22z"/>
<path d="M3697 8916 l6 -63 -39 -6 c-22 -3 -91 -6 -154 -7 -63 0 -239 -5 -390
-10 -492 -18 -940 -30 -1162 -30 -199 0 -217 -1 -211 -17 5 -13 3 -15 -13 -7
-10 5 -127 9 -259 10 -132 1 -267 4 -300 9 -112 14 -230 17 -309 6 -70 -8 -81
-8 -93 7 -12 16 -14 16 -28 -2 -41 -54 -7 -67 125 -50 101 14 148 13 318 -6
41 -4 134 -9 208 -9 131 -2 135 -1 144 21 7 18 9 19 9 5 1 -16 22 -17 374 -12
446 7 1000 21 1342 36 267 12 1871 14 2540 3 396 -6 1085 7 1360 26 77 5 222
14 323 20 199 12 242 21 222 45 -10 12 -28 14 -84 10 -644 -50 -898 -57 -2106
-55 -602 2 -1106 3 -1120 5 -14 1 -168 3 -342 3 l-317 2 5 29 c9 42 -13 101
-36 101 -18 0 -19 -6 -13 -64z m-2680 -132 c-3 -3 -12 -4 -19 -1 -8 3 -5 6 6
6 11 1 17 -2 13 -5z"/>
<path d="M9226 8928 c-3 -7 -4 -20 -4 -28 0 -35 -34 -226 -53 -295 -11 -41
-17 -79 -14 -85 13 -21 34 -9 58 33 14 23 44 60 66 82 l41 39 0 -55 c0 -41 5
-60 18 -72 22 -20 46 -22 61 -4 12 15 -3 37 -26 37 -8 0 -13 20 -15 61 -4 83
-20 94 -79 51 -23 -18 -44 -31 -45 -29 -1 1 7 57 18 125 11 68 17 130 14 138
-7 17 -35 19 -40 2z"/>
<path d="M11277 8914 c-4 -4 -7 -17 -7 -28 0 -11 -14 -48 -32 -82 -33 -64 -49
-74 -113 -74 -25 0 -41 -25 -22 -37 6 -4 27 -6 45 -5 29 2 33 0 27 -15 -15
-39 -27 -123 -21 -147 9 -35 33 -56 65 -56 30 0 51 16 51 38 0 11 -8 13 -30 8
-25 -5 -32 -2 -39 16 -15 41 18 158 44 158 10 0 13 5 9 13 -6 10 -4 10 7 0 19
-19 59 -16 66 5 4 9 11 20 16 23 6 4 7 14 4 23 -8 20 -56 21 -63 1 -4 -8 -12
-15 -20 -15 -9 0 -2 20 22 65 19 35 34 75 32 87 -3 23 -27 35 -41 22z"/>
<path d="M12543 8851 c-6 -32 -36 -113 -67 -179 -59 -127 -62 -137 -46 -147
17 -11 34 16 89 135 72 156 90 250 48 250 -9 0 -17 -21 -24 -59z"/>
<path d="M12710 8888 c-5 -13 -35 -84 -66 -158 -41 -98 -57 -148 -58 -185 -2
-75 23 -67 44 15 9 36 40 120 68 186 29 67 52 131 52 143 0 28 -28 27 -40 -1z
m-10 -122 c0 -3 -4 -8 -10 -11 -5 -3 -10 -1 -10 4 0 6 5 11 10 11 6 0 10 -2
10 -4z"/>
<path d="M12374 8806 c-10 -25 0 -61 18 -64 19 -4 32 29 23 58 -7 23 -33 27
-41 6z"/>
<path d="M10813 8794 c-3 -8 -1 -20 6 -27 14 -14 47 15 37 32 -10 16 -36 13
-43 -5z"/>
<path d="M13944 8764 c-12 -11 -32 -51 -45 -90 -18 -53 -24 -63 -27 -44 -2 14
-9 28 -16 32 -8 6 -8 8 2 8 18 0 15 59 -4 67 -24 9 -31 -11 -33 -101 -2 -65 1
-86 14 -96 14 -11 21 -8 50 20 20 20 41 55 51 84 27 86 38 96 93 96 30 0 53 6
60 14 18 21 -4 31 -69 31 -42 0 -60 -5 -76 -21z"/>
<path d="M14194 8747 c-97 -57 -131 -134 -78 -176 22 -17 40 -21 103 -20 98 2
135 10 139 31 3 15 -8 17 -102 15 -138 -3 -152 9 -59 54 51 26 69 40 71 57 7
45 -31 64 -74 39z"/>
<path d="M11985 8728 c-44 -12 -116 -56 -123 -75 -7 -24 26 -24 65 0 21 13 48
26 61 30 23 5 23 5 -4 -31 -16 -20 -31 -39 -35 -42 -3 -3 -16 -20 -27 -39 -16
-26 -18 -39 -11 -53 14 -25 30 -23 77 12 49 35 62 37 62 11 0 -78 141 -62 174
19 20 50 12 100 -16 100 -16 0 -19 -6 -17 -32 3 -48 -18 -85 -53 -92 -39 -8
-48 -1 -48 33 0 16 -7 34 -15 41 -13 11 -23 9 -58 -10 l-42 -24 48 54 c51 59
58 84 28 100 -11 5 -21 10 -23 9 -2 -1 -21 -6 -43 -11z"/>
<path d="M8464 8720 c-30 -12 -80 -78 -94 -126 -21 -71 22 -124 103 -126 47
-2 113 9 137 22 27 15 20 36 -11 32 -13 -2 -57 -4 -97 -5 -55 -2 -75 2 -82 13
-17 27 -11 36 34 48 73 19 130 104 94 140 -14 14 -53 15 -84 2z m44 -46 c-4
-21 -52 -58 -67 -53 -7 3 2 18 20 37 34 35 52 41 47 16z"/>
<path d="M8952 8709 c-40 -26 -72 -78 -72 -117 0 -60 91 -104 150 -72 33 18
13 39 -34 37 -44 -2 -76 15 -76 38 0 20 50 75 77 86 28 10 30 25 5 38 -13 7
-26 4 -50 -10z"/>
<path d="M13579 8705 c-69 -51 -84 -88 -49 -120 20 -18 22 -18 69 2 l48 20 9
-21 c11 -25 41 -33 58 -16 8 9 8 14 -1 17 -17 6 -16 33 2 57 22 30 18 50 -14
69 -41 24 -81 21 -122 -8z m81 -25 c0 -11 -89 -65 -96 -58 -2 3 11 19 31 37
35 30 65 40 65 21z"/>
<path d="M10389 8701 c-13 -10 -32 -41 -42 -68 -24 -68 -67 -306 -57 -317 21
-21 39 6 57 84 l18 81 52 29 c54 31 103 90 103 125 0 11 -9 35 -20 53 -16 26
-26 32 -54 32 -18 0 -44 -8 -57 -19z m75 -37 c13 -33 5 -53 -36 -90 -40 -36
-43 -37 -46 -17 -2 12 2 31 7 42 6 11 11 29 11 40 0 34 53 55 64 25z"/>
<path d="M8690 8684 c-32 -28 -60 -73 -60 -98 0 -22 28 -46 55 -46 13 0 37 11
53 25 l29 24 11 -24 c7 -14 20 -25 30 -25 16 0 18 8 16 63 -2 34 -3 65 -3 70
-1 4 -9 7 -18 7 -10 0 -27 7 -37 15 -27 21 -40 19 -76 -11z m64 -33 c5 -8 -57
-71 -69 -71 -12 0 -3 30 16 54 21 26 43 34 53 17z"/>
<path d="M10576 8685 c-22 -23 -46 -85 -46 -117 0 -21 24 -40 43 -32 21 8 30
34 17 49 -21 25 24 93 53 82 20 -8 41 9 34 27 -10 26 -74 21 -101 -9z"/>
<path d="M10080 8678 c-34 -17 -46 -30 -48 -49 -3 -23 3 -29 47 -48 27 -11 56
-21 63 -21 8 0 23 -6 34 -14 18 -14 16 -16 -30 -37 -39 -17 -53 -19 -68 -10
-27 17 -48 13 -48 -9 0 -46 79 -53 151 -13 89 48 77 92 -35 127 -57 18 -68 29
-40 40 24 9 52 7 73 -6 19 -12 51 -5 51 11 0 13 -64 51 -87 51 -10 0 -39 -10
-63 -22z"/>
<path d="M10878 8665 c-20 -14 -41 -25 -45 -25 -12 0 -51 -73 -46 -87 8 -23
25 -14 74 37 29 30 57 50 70 50 14 0 19 -5 16 -14 -3 -7 -9 -34 -12 -60 -6
-38 -4 -47 10 -52 26 -11 39 12 42 77 6 97 -35 125 -109 74z"/>
<path d="M10690 8644 c-6 -14 -10 -31 -10 -38 0 -6 -5 -17 -11 -23 -17 -17 -7
-58 15 -58 15 0 23 14 37 64 10 35 16 68 13 73 -11 17 -35 7 -44 -18z"/>
<path d="M12276 8638 c-3 -13 -7 -45 -8 -73 -2 -39 0 -50 12 -50 18 0 42 68
38 110 -4 38 -35 47 -42 13z"/>
<path d="M13951 8311 c-20 -20 -43 -114 -80 -320 -11 -63 -27 -121 -35 -129
-17 -17 -64 -5 -79 20 -14 22 0 65 25 79 18 9 24 8 34 -6 14 -19 44 -14 44 7
0 19 -12 33 -37 47 -30 15 -77 -8 -103 -52 -29 -46 -25 -74 14 -113 27 -27 42
-34 74 -34 72 0 81 19 117 233 29 175 40 214 67 244 35 38 -4 61 -41 24z"/>
<path d="M9845 8274 c-8 -20 -15 -42 -15 -48 -1 -23 -66 -166 -73 -160 -4 4
-7 1 -7 -7 0 -9 -3 -10 -8 -3 -4 6 -23 9 -45 6 -28 -3 -37 -8 -35 -21 3 -12
14 -16 45 -16 41 1 43 -3 28 -40 -13 -28 -11 -83 2 -96 18 -18 33 -1 33 36 0
19 7 52 16 74 15 39 17 40 87 51 40 7 83 16 96 21 20 8 21 12 10 25 -13 16
-29 16 -118 -2 -40 -8 -40 -15 8 115 17 46 28 87 25 92 -12 20 -35 7 -49 -27z"/>
<path d="M11420 8236 c-58 -46 -126 -131 -162 -203 -32 -65 -31 -65 -118 -76
-8 -1 -15 -9 -15 -17 0 -11 13 -16 47 -18 l46 -3 8 -52 c4 -29 6 -62 5 -74 -2
-19 3 -23 24 -23 l26 0 -6 79 c-8 90 -7 92 69 98 56 5 72 14 63 37 -4 11 -15
14 -37 11 -16 -3 -44 -7 -60 -10 l-30 -5 26 53 c15 28 56 82 92 120 64 66 67
67 82 48 22 -30 48 -12 35 25 -16 45 -47 48 -95 10z"/>
<path d="M13466 8163 c-25 -109 -73 -236 -104 -277 -15 -19 -30 -35 -33 -36
-15 -1 -29 59 -35 157 -4 60 -11 118 -15 131 -13 35 -38 26 -59 -22 -18 -40
-50 -159 -53 -198 -1 -10 -4 -18 -7 -18 -9 0 -40 -67 -40 -85 0 -31 50 -13 56
20 1 6 13 39 27 75 14 36 28 85 33 110 8 43 9 40 15 -47 7 -94 25 -144 61
-167 47 -29 127 100 181 289 18 67 32 126 29 133 -2 7 -11 12 -21 12 -13 0
-21 -18 -35 -77z"/>
<path d="M9510 8129 c-39 -16 -70 -50 -70 -78 0 -19 14 -39 51 -72 32 -28 49
-50 45 -57 -12 -20 -73 -14 -95 9 -22 23 -41 18 -41 -11 0 -47 110 -70 164
-35 48 32 34 69 -54 137 l-35 28 24 20 c28 25 64 26 102 3 22 -13 32 -14 40
-6 15 15 -1 36 -44 58 -34 17 -52 18 -87 4z"/>
<path d="M8078 8045 c-40 -27 -88 -99 -88 -132 0 -45 60 -59 120 -28 18 9 35
25 37 36 3 10 11 19 19 19 24 0 29 51 8 89 -24 45 -48 49 -96 16z m62 -54 c0
-17 -5 -33 -11 -37 -8 -4 -7 -9 2 -16 11 -8 11 -9 -2 -5 -8 3 -26 -1 -40 -9
-13 -7 -32 -13 -42 -14 -16 0 -16 2 -2 31 9 17 30 38 46 47 16 10 29 20 29 25
0 4 5 7 10 7 6 0 10 -13 10 -29z"/>
<path d="M10238 8037 c-18 -18 -46 -59 -63 -90 -28 -52 -29 -58 -13 -73 18
-18 38 -11 38 13 0 19 57 114 78 129 9 6 23 9 32 7 13 -3 17 1 16 19 -2 39
-47 36 -88 -5z"/>
<path d="M8244 8043 c-3 -10 -18 -46 -35 -81 -53 -114 -31 -123 68 -27 37 35
69 62 71 60 2 -2 -1 -20 -8 -40 -15 -46 -6 -85 20 -85 16 0 20 7 20 34 0 18 5
47 11 65 26 73 -19 106 -78 57 l-29 -24 1 26 c0 32 -32 44 -41 15z"/>
<path d="M8540 8037 c-19 -12 -42 -37 -53 -54 -16 -28 -17 -36 -5 -60 7 -16
32 -37 59 -51 74 -36 199 -36 199 1 0 10 -17 14 -65 15 -41 1 -80 8 -107 21
-33 15 -38 20 -20 20 40 2 92 29 103 55 10 20 9 30 -5 51 -21 32 -61 33 -106
2z m70 -31 c0 -15 -67 -43 -77 -33 -5 6 56 47 70 47 4 0 7 -6 7 -14z"/>
<path d="M10020 8025 c0 -8 -16 -19 -38 -25 -44 -11 -68 -33 -77 -72 -6 -21
-2 -30 19 -43 33 -22 85 -13 126 21 33 28 35 40 19 97 -7 26 -15 37 -29 37
-11 0 -20 -7 -20 -15z m4 -71 c4 -10 -4 -19 -27 -29 -32 -13 -47 -12 -47 6 0
7 43 32 66 39 1 0 5 -7 8 -16z"/>
<path d="M10533 8023 c-4 -10 -27 -49 -52 -86 -41 -62 -46 -67 -58 -51 -7 10
-13 32 -13 50 0 37 -24 64 -42 46 -14 -14 6 -115 27 -132 15 -13 1 -38 -86
-154 -21 -27 -35 -55 -32 -62 3 -8 0 -14 -6 -14 -5 0 -15 -9 -22 -21 -9 -17
-7 -25 10 -43 25 -27 26 -60 5 -155 l-16 -71 -44 0 c-32 0 -46 -5 -51 -16 -8
-22 16 -36 53 -30 l32 4 -24 -76 c-29 -94 -31 -135 -7 -130 12 2 26 33 48 108
l30 105 40 5 c48 7 65 16 65 37 0 13 -9 15 -45 11 -25 -3 -45 -3 -45 1 0 3 7
38 15 76 19 92 19 121 -3 143 -18 18 -17 19 2 55 12 20 48 74 82 119 34 46 85
118 115 161 30 43 58 84 63 92 7 9 5 19 -3 29 -17 21 -30 20 -38 -1z"/>
<path d="M14105 8021 c-57 -26 -98 -77 -91 -112 10 -51 34 -97 59 -114 21 -13
32 -14 71 -4 25 6 51 17 57 25 6 8 17 14 23 14 18 0 66 53 66 73 0 19 -35 41
-51 32 -5 -4 -7 -14 -4 -24 6 -21 -28 -53 -75 -69 -53 -19 -70 -15 -85 21
l-14 32 52 25 c40 20 53 32 60 57 11 36 4 63 -15 63 -7 0 -31 -9 -53 -19z"/>
<path d="M12944 7991 c-48 -22 -74 -54 -74 -93 0 -31 41 -77 70 -79 50 -3 55
-2 52 11 -2 10 0 11 11 2 15 -13 27 -6 27 15 0 9 -13 13 -39 13 -42 0 -71 8
-71 19 0 4 22 15 49 25 82 29 114 85 58 100 -32 8 -38 7 -83 -13z"/>
<path d="M11643 7976 c-25 -12 -35 -25 -49 -69 -18 -58 -15 -87 10 -87 10 0
19 16 26 43 18 74 32 84 113 86 31 1 38 4 35 19 -4 22 -90 28 -135 8z"/>
<path d="M12281 7982 c-13 -2 -43 -23 -67 -48 -38 -37 -44 -49 -44 -85 0 -74
86 -130 119 -78 16 26 1 41 -39 37 -38 -4 -50 40 -22 80 28 39 76 59 97 42 12
-10 19 -10 28 -1 25 25 -23 61 -72 53z"/>
<path d="M12723 7968 c-25 -27 -73 -121 -73 -142 0 -8 4 -17 9 -20 14 -9 41 5
41 20 0 8 11 37 25 64 24 48 45 71 45 51 0 -17 30 -13 36 4 8 21 -14 45 -40
45 -13 0 -32 -10 -43 -22z"/>
<path d="M13533 7975 c-13 -9 -23 -22 -23 -30 0 -7 -6 -15 -12 -17 -21 -7 -16
-92 6 -117 42 -46 147 -12 145 47 0 15 -8 50 -17 77 -15 44 -21 50 -47 53 -16
1 -40 -4 -52 -13z m67 -111 c0 -17 -7 -25 -24 -30 -14 -3 -30 -3 -35 1 -19 11
-12 74 10 96 l22 22 13 -33 c8 -18 14 -43 14 -56z"/>
<path d="M11420 7967 c0 -7 -13 -26 -30 -42 -40 -39 -53 -77 -33 -105 12 -17
21 -20 46 -15 74 16 128 76 112 124 -11 36 -95 69 -95 38z m50 -61 c0 -19 -24
-43 -51 -51 -33 -11 -34 2 -1 35 33 32 52 38 52 16z"/>
<path d="M12459 7919 c-34 -37 -37 -61 -9 -89 43 -43 154 -22 160 30 8 57 -22
90 -81 90 -33 0 -47 -6 -70 -31z m108 -35 c7 -20 -13 -34 -49 -34 -32 0 -44
15 -28 35 17 20 69 19 77 -1z"/>
<path d="M14404 7819 c-3 -6 2 -19 12 -30 24 -23 49 -11 39 20 -7 22 -39 29
-51 10z"/>
<path d="M11680 7712 c-68 -31 -100 -84 -121 -197 -6 -38 -15 -86 -18 -105
l-7 -35 -76 -11 c-83 -11 -115 -28 -98 -50 8 -9 19 -10 38 -4 15 5 49 11 75
14 l48 6 -27 -50 c-31 -56 -58 -85 -82 -85 -25 0 -26 -32 -3 -45 17 -9 27 -5
60 25 21 20 54 65 73 100 33 64 33 65 76 65 47 0 48 -1 27 -34 -40 -60 -36
-128 8 -142 23 -7 67 14 67 33 0 7 5 13 10 13 6 0 10 -7 10 -15 0 -8 8 -15 18
-15 14 0 23 15 37 60 25 82 54 113 103 108 31 -2 37 0 37 17 0 27 -54 37 -94
18 -30 -15 -81 -73 -81 -92 0 -6 -4 -11 -10 -11 -5 0 -12 22 -16 50 -6 49 -7
49 -49 56 -24 3 -57 3 -75 -1 l-31 -7 6 39 c4 21 13 69 21 106 8 38 14 70 14
72 0 3 14 20 31 40 22 25 43 37 70 41 29 5 39 11 39 25 0 15 -7 19 -32 18 -18
0 -40 -3 -48 -7z m33 -481 c9 -12 9 -13 -1 -7 -7 4 -19 2 -27 -4 -28 -23 -34
-5 -13 40 l22 45 4 -30 c2 -16 9 -36 15 -44z"/>
<path d="M8625 7700 c-99 -18 -283 -43 -307 -41 -22 1 -28 -3 -28 -18 0 -13 8
-21 23 -23 42 -6 356 37 371 52 10 10 1 41 -11 39 -4 -1 -26 -5 -48 -9z"/>
<path d="M12773 7672 c-7 -4 -17 -29 -23 -55 -5 -26 -26 -88 -44 -138 -19 -50
-32 -98 -29 -107 4 -9 2 -13 -4 -9 -6 4 -14 0 -17 -9 -3 -8 -2 -12 4 -9 6 3
10 1 10 -4 0 -6 -7 -11 -15 -11 -8 0 -15 -6 -15 -14 0 -7 -7 -27 -15 -42 -8
-16 -15 -44 -15 -61 0 -49 29 -42 81 19 l44 52 10 -36 c5 -20 13 -40 17 -44
11 -10 39 16 31 29 -3 5 -6 33 -7 61 -1 43 -4 51 -22 54 -12 2 -34 -10 -54
-29 -22 -22 -31 -26 -25 -13 41 100 46 117 33 127 -10 6 -8 7 4 3 14 -4 23 14
53 106 40 123 39 156 -2 130z"/>
<path d="M8709 7668 c0 -2 -2 -37 -3 -78 -1 -50 -14 -125 -41 -227 -29 -115
-36 -156 -28 -164 18 -18 39 -4 62 44 12 24 30 52 41 62 20 18 20 17 20 -44 0
-47 4 -63 16 -68 26 -10 36 10 25 55 -5 25 -5 44 0 48 20 12 2 94 -21 94 -5 0
-25 -14 -45 -31 -20 -18 -39 -29 -42 -25 -3 3 -1 6 5 6 7 0 12 16 12 39 0 22
4 41 10 43 14 5 38 160 31 204 -4 26 -12 40 -24 42 -9 2 -17 2 -18 0z"/>
<path d="M12612 7662 c-7 -5 -21 -40 -32 -78 -22 -78 -69 -204 -69 -189 -1 11
-56 35 -79 35 -7 0 -12 -9 -12 -19 0 -13 13 -24 40 -35 45 -18 46 -20 26 -67
-7 -19 -14 -69 -15 -111 -2 -71 -1 -78 17 -78 17 0 20 10 25 83 7 106 26 153
67 162 22 5 30 12 30 28 0 16 -3 18 -9 9 -6 -11 -10 -10 -19 1 -8 10 -3 38 22
114 18 56 38 108 44 116 9 10 9 16 0 25 -14 14 -19 14 -36 4z"/>
<path d="M9806 7651 c-3 -5 -3 -16 0 -24 6 -16 -19 -120 -41 -172 -10 -25 -36
-96 -40 -115 -10 -38 -18 -42 -71 -35 -46 5 -54 4 -54 -9 0 -17 24 -30 73 -41
15 -3 25 -10 22 -15 -12 -19 8 -102 29 -127 28 -33 73 -34 98 -3 10 12 18 28
18 36 0 19 -36 18 -44 -1 -8 -21 -33 -19 -46 4 -5 11 -10 40 -10 65 l0 45 60
7 c49 5 60 10 60 25 0 26 -15 31 -57 20 -20 -6 -39 -9 -41 -6 -2 2 12 51 32
109 45 129 48 140 50 196 1 34 -3 45 -16 48 -9 2 -19 -1 -22 -7z"/>
<path d="M8499 7612 c-1 -4 -1 -10 0 -14 0 -5 -2 -8 -7 -8 -4 0 -6 -17 -5 -37
2 -21 -12 -114 -31 -208 -33 -167 -33 -192 -1 -182 15 5 74 303 74 378 1 51
-3 68 -14 73 -8 3 -16 2 -16 -2z"/>
<path d="M10764 7571 c4 -5 2 -21 -4 -36 -18 -48 -80 -340 -80 -378 0 -29 4
-37 19 -37 15 0 20 10 25 48 6 47 57 287 74 347 11 41 4 65 -19 65 -11 0 -18
-4 -15 -9z"/>
<path d="M14055 7470 c-10 -16 18 -42 37 -35 9 4 15 14 14 23 -3 20 -41 28
-51 12z"/>
<path d="M12955 7457 c-21 -16 -13 -37 15 -37 22 0 53 28 45 41 -9 13 -38 11
-60 -4z"/>
<path d="M8973 7408 c-12 -13 -33 -45 -47 -72 -14 -27 -34 -55 -43 -62 -17
-13 -15 -16 22 -49 66 -59 108 -68 167 -37 18 9 34 17 36 18 1 1 0 9 -4 18 -7
19 -38 21 -55 3 -15 -15 -74 -10 -89 8 -8 10 1 24 39 60 55 51 66 89 35 119
-21 22 -37 20 -61 -6z m27 -47 c-5 -11 -15 -23 -21 -27 -6 -3 -3 5 6 20 20 30
30 35 15 7z"/>
<path d="M13769 7376 c-34 -23 -77 -76 -63 -76 4 0 -1 -9 -10 -19 -10 -11 -15
-24 -12 -30 3 -5 2 -11 -4 -13 -14 -4 -93 -227 -86 -244 12 -32 35 -9 78 79
26 50 49 102 53 114 5 19 10 21 32 12 46 -17 113 17 156 81 59 86 -50 160
-144 96z m105 -29 c23 -17 12 -42 -35 -81 -37 -31 -53 -32 -79 -6 -24 24 -18
39 30 75 38 28 58 31 84 12z"/>
<path d="M13060 7348 c-25 -27 -25 -55 -1 -92 22 -33 19 -46 -10 -46 -17 0
-24 11 -20 33 1 5 -6 7 -16 5 -30 -6 -24 -59 9 -77 24 -14 30 -14 62 2 31 14
36 22 36 51 0 18 -7 39 -15 46 -8 7 -15 21 -15 32 0 10 7 21 15 24 8 4 15 15
15 25 0 26 -34 25 -60 -3z"/>
<path d="M13481 7349 c-95 -33 -122 -80 -86 -148 19 -37 66 -56 140 -56 52 0
60 2 60 19 0 16 -9 19 -56 21 -61 3 -93 16 -108 43 -8 15 -3 17 42 19 40 1 55
6 69 23 25 31 33 67 18 85 -15 18 -12 18 -79 -6z m25 -48 c-6 -9 -56 -22 -56
-14 0 4 40 21 53 22 5 1 6 -3 3 -8z"/>
<path d="M13958 7305 c-17 -36 -35 -68 -39 -71 -18 -11 -9 -44 11 -44 16 0 29
18 56 75 34 70 39 105 14 105 -6 0 -24 -29 -42 -65z"/>
<path d="M14174 7345 c-37 -22 -74 -74 -74 -104 0 -26 41 -51 84 -51 78 0 165
51 127 75 -10 6 -61 -14 -61 -24 0 -3 -20 -7 -45 -9 -33 -2 -47 1 -51 12 -9
23 26 63 69 80 23 9 37 20 35 28 -8 22 -41 19 -84 -7z"/>
<path d="M10527 7323 c-11 -11 -17 -13 -17 -5 0 25 -40 10 -68 -25 -55 -71
-65 -109 -37 -133 13 -11 22 -10 49 3 l33 15 16 -34 c18 -36 23 -39 47 -24 12
8 13 13 3 30 -17 27 -16 70 2 125 21 61 8 84 -28 48z m-38 -67 c-7 -14 -16
-26 -21 -26 -5 0 -7 -4 -4 -8 3 -5 -1 -9 -9 -9 -15 0 -13 6 18 50 23 34 32 30
16 -7z"/>
<path d="M9944 7315 c-4 -8 -3 -22 0 -30 3 -9 1 -39 -5 -67 -22 -100 32 -132
104 -63 39 38 53 93 21 81 -14 -5 -15 -4 -5 8 11 13 4 21 -43 51 -63 40 -65
40 -72 20z m70 -71 c23 -9 19 -37 -9 -64 l-25 -23 0 30 c0 29 8 63 15 63 2 0
10 -3 19 -6z"/>
<path d="M12848 7269 c-14 -23 -15 -35 -8 -50 15 -26 35 -24 48 6 17 36 15 55
-5 55 -15 0 -16 2 -3 10 13 9 13 10 0 10 -8 0 -23 -14 -32 -31z"/>
<path d="M9062 7071 c-7 -4 -16 -29 -21 -57 -8 -42 -56 -184 -129 -384 -27
-74 -34 -112 -23 -129 14 -21 41 -5 41 24 0 14 12 58 26 98 67 185 144 413
144 428 0 19 -21 30 -38 20z"/>
<path d="M14426 7006 c-14 -19 -26 -42 -26 -51 0 -8 -14 -46 -31 -83 -49 -105
-79 -189 -94 -261 -12 -57 -12 -68 1 -81 21 -22 34 -2 44 73 9 63 65 207 132
344 43 86 26 126 -26 59z"/>
<path d="M9267 6948 c-65 -63 -98 -119 -126 -212 -28 -90 -28 -169 -1 -198 39
-42 119 -21 179 47 35 40 40 74 13 98 -26 24 -51 21 -115 -13 l-55 -29 14 61
c8 34 27 84 42 112 28 53 112 146 131 146 6 0 11 9 11 20 0 35 -37 22 -93 -32z
m31 -320 c-34 -52 -114 -84 -125 -51 -6 16 84 73 115 73 23 0 24 -1 10 -22z"/>
<path d="M10486 6913 c-6 -64 -29 -169 -39 -180 -3 -2 -38 -12 -78 -21 -56
-13 -75 -22 -77 -36 -4 -17 1 -18 51 -13 30 4 62 10 71 13 10 4 16 1 16 -9 0
-23 -50 -150 -66 -168 -13 -14 -13 -18 1 -29 13 -11 19 -10 35 5 10 9 19 20
18 24 -1 3 6 22 14 41 9 19 24 61 34 92 l17 57 61 13 c46 10 62 18 64 32 4 17
-1 18 -53 12 -51 -6 -56 -5 -51 11 13 41 26 129 26 174 0 41 -3 49 -19 49 -15
0 -19 -11 -25 -67z"/>
<path d="M12836 6958 c-2 -7 -9 -40 -16 -73 -7 -33 -21 -89 -33 -124 l-21 -63
-54 6 c-30 4 -62 11 -72 16 -13 7 -21 6 -29 -4 -18 -21 11 -44 67 -51 26 -3
53 -7 59 -8 8 -1 -1 -30 -27 -82 -43 -87 -47 -107 -27 -124 15 -12 37 3 37 26
0 6 18 52 41 101 32 71 46 90 70 99 20 8 29 18 29 33 0 18 -4 21 -21 17 -16
-4 -19 -2 -14 11 21 54 46 167 43 194 -3 32 -25 50 -32 26z"/>
<path d="M12991 6921 c-6 -11 -11 -36 -11 -55 0 -25 -21 -77 -70 -170 -88
-169 -93 -181 -75 -196 10 -9 28 4 84 59 62 62 91 83 91 66 0 -3 -7 -22 -15
-42 -21 -50 -19 -65 7 -61 17 2 26 15 39 58 18 60 16 76 -12 91 -14 7 -29 4
-60 -12 l-42 -21 48 89 c41 75 48 96 49 147 1 62 -14 83 -33 47z"/>
<path d="M8241 6846 c-18 -21 -5 -36 30 -36 26 0 30 3 27 23 -4 27 -39 35 -57
13z"/>
<path d="M10030 6771 c0 -18 35 -35 52 -25 14 9 9 31 -8 38 -28 11 -44 6 -44
-13z"/>
<path d="M13227 6773 c-15 -14 -7 -43 12 -43 23 0 34 23 18 39 -13 13 -21 14
-30 4z"/>
<path d="M8341 6729 c-41 -41 -40 -71 4 -105 35 -26 46 -54 22 -54 -19 0 -37
21 -37 43 0 28 -34 17 -38 -13 -4 -34 16 -58 56 -70 30 -8 37 -6 59 16 30 30
25 57 -19 98 -36 33 -30 59 15 64 14 2 28 10 31 18 17 45 -50 47 -93 3z"/>
<path d="M9653 6729 c-18 -12 -33 -25 -33 -30 0 -5 -13 -9 -30 -9 -16 0 -30
-5 -30 -12 0 -6 -7 -20 -17 -30 -14 -15 -14 -22 -4 -42 11 -20 8 -39 -26 -146
-23 -68 -38 -132 -35 -147 4 -23 27 -41 38 -30 14 13 63 150 69 191 6 39 11
46 36 51 86 19 168 172 114 211 -26 19 -44 17 -82 -7z m57 -41 c0 -40 -87
-135 -106 -115 -10 10 16 65 46 97 28 30 60 40 60 18z"/>
<path d="M8175 6700 c-7 -11 -8 -19 -19 -135 -7 -69 6 -102 28 -73 11 15 20
71 29 188 2 26 -25 41 -38 20z"/>
<path d="M14698 6678 c-38 -50 -69 -115 -62 -132 9 -23 44 -20 44 3 0 24 38
92 60 106 8 6 26 10 40 10 18 0 25 5 25 20 0 16 -8 21 -41 23 -36 3 -44 -1
-66 -30z"/>
<path d="M15124 6691 c-68 -42 -85 -109 -37 -151 33 -29 115 -61 131 -51 6 3
10 17 9 29 -1 17 -8 22 -32 22 -16 1 -41 7 -54 14 -23 13 -23 13 25 37 34 16
50 31 52 47 2 13 -2 22 -10 22 -10 0 -10 2 1 9 12 8 12 12 2 25 -18 21 -49 20
-87 -3z m56 -39 c0 -10 -45 -32 -63 -32 -17 1 32 40 49 40 8 0 14 -4 14 -8z"/>
<path d="M14470 6669 c-25 -17 -51 -38 -57 -47 -20 -25 -15 -60 10 -77 22 -14
45 -12 100 10 13 5 17 2 17 -13 0 -11 7 -28 16 -37 15 -14 19 -15 31 -2 12 12
13 19 3 37 -7 14 -9 39 -5 66 6 40 4 44 -14 44 -11 0 -28 -11 -37 -24 -14 -23
-79 -54 -90 -44 -8 9 72 73 92 73 12 0 19 7 19 20 0 32 -36 29 -85 -6z"/>
<path d="M15382 6673 c-11 -10 -34 -45 -51 -79 -32 -62 -33 -98 -3 -92 16 3
18 7 53 86 21 50 24 52 61 52 42 0 53 22 19 40 -29 15 -56 12 -79 -7z"/>
<path d="M9842 6658 c-6 -6 -12 -19 -12 -28 0 -9 -4 -20 -9 -25 -5 -6 -12 -24
-16 -42 -8 -40 24 -78 58 -68 54 16 78 77 50 132 -19 40 -49 53 -71 31z m24
-106 c-15 -15 -16 -15 -16 4 0 28 24 52 28 28 2 -9 -3 -24 -12 -32z"/>
<path d="M10623 6650 c-48 -29 -45 -67 8 -125 44 -48 36 -59 -22 -29 -31 16
-59 13 -59 -6 0 -20 65 -50 107 -50 86 0 97 30 32 88 -59 53 -65 68 -34 88 21
14 30 15 52 5 19 -9 29 -9 40 1 13 11 12 14 -7 30 -29 24 -77 23 -117 -2z"/>
<path d="M11945 6604 c-68 -70 -78 -136 -25 -164 22 -12 49 -2 88 33 l22 20 0
-21 c0 -35 40 -30 42 6 2 39 4 52 13 96 7 34 5 41 -16 57 -41 32 -75 24 -124
-27z m85 -22 c0 -21 -71 -102 -88 -102 -20 0 -13 34 13 70 38 52 75 68 75 32z"/>
<path d="M10143 6616 c-37 -31 -68 -88 -60 -110 12 -30 37 -17 57 28 10 25 29
50 41 56 21 12 22 11 17 -32 -9 -80 36 -84 49 -4 12 75 -47 110 -104 62z"/>
<path d="M12355 6630 c-11 -18 -7 -110 6 -126 15 -19 34 -18 66 3 l26 17 -28
-44 c-15 -25 -44 -70 -64 -100 -44 -66 -63 -108 -56 -121 12 -18 36 -9 48 19
6 15 41 72 76 127 72 113 115 200 106 215 -14 23 -52 8 -95 -36 l-45 -45 -5
47 c-5 46 -21 66 -35 44z"/>
<path d="M14951 6626 c-7 -8 -20 -12 -31 -9 -43 11 -121 -64 -106 -103 5 -14
15 -16 56 -11 57 7 56 9 44 -90 l-7 -53 -54 0 c-44 0 -58 -5 -78 -25 -14 -13
-25 -34 -25 -47 0 -77 58 -166 99 -153 29 9 80 89 88 137 5 33 10 38 39 44 63
12 65 52 3 45 l-27 -2 5 73 c2 40 11 96 19 125 8 28 14 58 14 67 0 20 -23 21
-39 2z m-35 -61 c-26 -19 -42 -19 -26 0 7 8 20 15 29 15 13 -1 13 -3 -3 -15z
m-21 -277 c-8 -38 -45 -108 -57 -108 -14 0 -38 58 -38 94 0 38 8 44 63 45 38
1 39 1 32 -31z"/>
<path d="M12204 6605 c-15 -14 -35 -25 -44 -25 -10 0 -27 -19 -43 -49 -22 -43
-24 -51 -11 -62 13 -10 25 -2 73 52 33 35 62 61 67 56 4 -4 2 -30 -5 -57 -12
-48 -9 -70 9 -70 27 0 58 126 40 160 -15 28 -53 25 -86 -5z"/>
<path d="M13248 6578 c-30 -32 -48 -60 -46 -72 5 -36 27 -28 60 23 28 42 63
69 75 57 2 -2 -4 -22 -12 -46 -16 -45 -13 -60 11 -60 21 0 46 64 42 108 -3 35
-5 37 -42 40 -35 3 -43 -1 -88 -50z"/>
<path d="M13586 6608 c-9 -12 -16 -17 -16 -10 0 24 -37 11 -85 -31 -35 -31
-47 -48 -42 -60 12 -30 36 -30 98 0 l60 30 -5 -36 c-3 -20 -8 -62 -12 -94 -4
-34 -11 -57 -18 -56 -72 9 -130 -37 -146 -115 -16 -80 1 -136 43 -136 24 0 77
47 77 67 0 8 4 12 9 9 8 -5 28 33 50 96 l10 27 60 -20 c55 -19 62 -19 76 -5
14 14 13 17 -17 29 -18 8 -50 20 -71 26 -37 13 -38 14 -33 50 19 122 27 207
22 228 -8 30 -40 30 -60 1z m-26 -311 c-1 -38 -69 -147 -92 -147 -14 0 -9 78
8 117 14 32 22 38 50 40 22 2 34 -1 34 -10z"/>
<path d="M9990 6603 c0 -10 -3 -42 -6 -70 -6 -44 -4 -53 9 -53 9 0 19 5 23 12
14 23 22 103 12 116 -15 18 -38 15 -38 -5z"/>
<path d="M13110 6563 c-22 -50 -23 -74 -2 -81 14 -4 67 102 57 118 -14 22 -35
8 -55 -37z"/>
<path d="M10930 6443 c0 -34 -31 -103 -53 -122 -20 -16 -23 -51 -4 -51 38 0
97 101 97 165 0 28 -4 35 -20 35 -15 0 -20 -7 -20 -27z"/>
<path d="M8277 6313 c-4 -3 -7 -13 -7 -22 0 -9 -23 -81 -51 -161 l-50 -146
-47 -2 c-26 -1 -48 -6 -50 -12 -2 -6 -8 -7 -14 -4 -6 4 -9 1 -6 -7 3 -9 23
-15 55 -17 l51 -3 -9 -32 c-26 -92 -1 -165 67 -193 44 -18 118 -18 133 0 16
19 -4 31 -45 27 -42 -3 -99 22 -114 50 -10 18 -10 37 0 90 l12 68 53 11 c58
12 79 28 66 49 -7 11 -15 11 -41 2 -62 -21 -62 -19 -9 135 28 80 48 152 45
160 -6 15 -28 19 -39 7z"/>
<path d="M8471 6311 c-9 -6 -12 -22 -9 -45 2 -20 1 -36 -2 -36 -4 0 -14 -44
-23 -97 -9 -54 -32 -145 -51 -203 -24 -74 -32 -110 -25 -122 8 -16 39 -15 39
1 0 3 18 26 41 51 l40 45 -5 -48 c-5 -38 -2 -49 10 -54 21 -8 31 10 39 74 10
81 -22 103 -79 54 -18 -15 -19 -15 -12 4 37 98 80 359 62 374 -7 6 -18 6 -25
2z"/>
<path d="M11170 6224 c-15 -38 -27 -99 -35 -173 l-7 -63 -39 5 c-25 3 -42 0
-49 -9 -17 -19 -3 -34 30 -34 16 0 31 -4 34 -8 8 -14 -21 -110 -38 -128 -22
-22 -15 -38 17 -42 23 -3 27 2 41 48 9 28 18 67 22 85 6 31 9 33 59 40 58 7
92 25 81 43 -5 8 -25 10 -63 6 l-55 -7 5 29 c3 16 9 52 12 79 4 28 13 69 21
93 8 24 12 48 9 53 -12 18 -36 9 -45 -17z"/>
<path d="M9743 6220 c-62 -14 -117 -68 -162 -157 -26 -52 -27 -77 -2 -102 19
-19 19 -20 -5 -68 -27 -55 -30 -102 -9 -142 28 -55 107 -46 175 21 58 57 61
103 13 189 -2 4 10 12 27 19 42 17 90 75 90 108 0 15 -9 47 -20 71 -11 24 -20
49 -20 57 0 15 -34 17 -87 4z m66 -74 c17 -20 17 -72 1 -91 -20 -24 -85 -55
-115 -55 -14 0 -34 -5 -44 -12 -15 -9 -23 -9 -35 1 -14 12 -13 17 5 54 35 69
67 105 97 110 56 8 80 7 91 -7z m-91 -226 c34 -32 29 -79 -11 -118 -69 -67
-132 -46 -107 36 18 56 52 102 76 102 11 0 30 -9 42 -20z"/>
<path d="M12083 6114 c-8 -21 13 -42 28 -27 13 13 5 43 -11 43 -6 0 -13 -7
-17 -16z"/>
<path d="M10710 6071 c0 -27 19 -36 37 -18 18 18 9 37 -18 37 -12 0 -19 -7
-19 -19z"/>
<path d="M14155 6030 c-9 -15 4 -30 26 -30 12 0 19 7 19 20 0 21 -33 29 -45
10z"/>
<path d="M10274 6001 c-23 -16 -51 -45 -63 -64 -12 -19 -28 -38 -36 -41 -8 -3
-15 -15 -15 -26 0 -11 -18 -87 -40 -167 -22 -81 -38 -153 -36 -160 16 -40 50
10 97 139 20 57 37 88 46 88 24 0 93 42 93 57 0 7 6 13 14 13 17 0 60 85 53
104 -3 7 -1 18 3 22 6 6 4 20 -3 34 -19 37 -63 38 -113 1z m76 -38 c0 -32 -40
-98 -73 -120 -43 -29 -49 -29 -37 3 6 14 10 38 10 55 0 22 9 35 41 59 43 30
59 31 59 3z"/>
<path d="M12284 6006 c-28 -13 -44 -33 -44 -56 0 -5 14 -25 31 -45 31 -34 31
-36 14 -55 -21 -24 -43 -26 -51 -5 -8 19 -40 19 -48 0 -6 -16 26 -51 56 -61
23 -7 83 31 97 62 7 16 5 29 -9 52 -10 16 -23 33 -29 36 -19 12 -12 26 17 37
18 7 32 7 44 0 20 -12 43 10 34 34 -7 19 -69 19 -112 1z"/>
<path d="M10822 5984 c-40 -27 -112 -108 -118 -132 -4 -13 -1 -29 6 -35 9 -9
16 -6 28 13 9 14 38 48 64 75 l48 50 -3 -42 c-1 -24 -5 -43 -8 -43 -3 0 -6
-15 -5 -32 1 -21 7 -34 16 -36 22 -4 57 162 40 184 -16 18 -40 18 -68 -2z"/>
<path d="M11358 5979 c-39 -29 -37 -69 4 -108 27 -26 30 -32 18 -46 -16 -19
-76 -17 -72 3 4 21 -30 27 -44 7 -31 -42 45 -87 111 -65 62 21 73 76 24 126
-28 29 -29 32 -14 48 9 9 23 16 31 16 23 0 12 35 -11 37 -11 2 -32 -7 -47 -18z"/>
<path d="M10460 5965 c-6 -8 -9 -23 -5 -34 3 -12 -3 -38 -15 -62 -23 -49 -25
-70 -8 -87 20 -20 44 -14 80 21 62 57 74 104 37 151 -23 29 -69 35 -89 11z
m70 -62 c0 -15 -40 -73 -50 -73 -6 0 -1 18 10 40 18 35 40 53 40 33z"/>
<path d="M13878 5930 c-26 -27 -48 -45 -48 -40 0 6 -9 10 -19 10 -16 0 -21 -9
-26 -57 -3 -32 -15 -85 -26 -118 -33 -93 -33 -94 -14 -102 24 -8 52 27 68 84
8 33 16 43 32 43 83 2 189 151 148 209 -25 36 -61 27 -115 -29z m72 -41 c-20
-46 -100 -110 -100 -79 0 18 48 87 77 109 32 26 41 14 23 -30z"/>
<path d="M14328 5964 c-52 -16 -112 -70 -123 -111 -5 -23 -1 -32 21 -51 25
-22 35 -24 105 -20 83 3 111 16 90 42 -9 11 -19 12 -45 4 -41 -13 -126 -2
-126 16 0 38 107 99 135 76 30 -25 48 16 19 44 -18 19 -16 19 -76 0z"/>
<path d="M8649 5932 c-38 -39 -56 -80 -45 -107 4 -12 16 -15 45 -11 37 4 40 3
46 -25 5 -20 13 -29 26 -29 10 0 19 3 20 8 0 4 2 25 3 47 2 22 7 50 11 62 11
35 -19 40 -56 9 -41 -35 -55 -33 -29 4 12 17 28 30 35 30 21 0 28 19 15 35
-18 22 -29 19 -71 -23z"/>
<path d="M8840 5951 c0 -10 -12 -53 -26 -96 -25 -74 -26 -105 -4 -105 10 0 56
47 62 64 3 9 65 76 70 76 2 0 2 -20 0 -45 -4 -40 -2 -45 17 -45 21 0 33 37 35
110 1 31 -2 35 -26 38 -19 2 -36 -6 -62 -33 -36 -36 -41 -36 -27 0 10 24 -4
55 -24 55 -8 0 -15 -8 -15 -19z"/>
<path d="M13604 5951 c-99 -45 -120 -146 -44 -203 47 -35 168 -21 153 18 -5
12 -15 14 -55 9 -37 -5 -55 -3 -73 9 -36 24 -31 40 18 53 68 19 114 84 82 117
-21 20 -31 20 -81 -3z m34 -43 c-3 -7 -20 -18 -39 -25 l-34 -13 30 25 c32 27
49 32 43 13z"/>
<path d="M10635 5928 c-2 -7 -7 -26 -9 -42 -3 -15 -12 -39 -21 -52 -19 -30
-19 -50 0 -58 28 -10 73 89 63 140 -4 22 -26 30 -33 12z"/>
<path d="M12023 5920 c-3 -11 -10 -20 -15 -20 -5 0 -18 -20 -29 -45 -20 -45
-20 -47 -2 -83 15 -32 23 -37 55 -40 32 -3 40 1 50 23 17 37 -3 56 -32 30 -18
-16 -23 -17 -30 -5 -6 8 -10 21 -10 28 0 20 38 90 52 94 17 6 2 38 -18 38 -9
0 -18 -9 -21 -20z"/>
<path d="M12872 5893 c-62 -58 -71 -84 -42 -113 16 -16 30 -21 53 -17 35 5 71
-9 62 -23 -3 -6 1 -7 9 -4 10 4 16 19 16 40 0 18 5 43 10 56 7 14 8 38 3 63
-13 60 -46 60 -111 -2z m68 -19 c0 -8 -14 -29 -31 -46 -23 -24 -33 -28 -42
-19 -9 10 -4 20 25 47 42 38 48 41 48 18z"/>
<path d="M14089 5893 c-5 -16 -20 -47 -32 -70 -16 -32 -19 -45 -10 -54 6 -6
16 -8 22 -4 19 11 73 126 67 141 -9 23 -36 16 -47 -13z"/>
<path d="M13054 5873 c-3 -10 -16 -41 -30 -70 -25 -51 -25 -73 -1 -73 7 0 35
23 62 50 60 61 75 63 75 11 0 -40 14 -61 30 -45 4 5 11 33 15 61 6 50 5 53
-18 64 -18 8 -34 9 -56 1 -23 -8 -32 -7 -42 4 -16 19 -29 18 -35 -3z"/>
<path d="M14545 5787 c-21 -16 -13 -37 14 -37 22 0 45 25 36 40 -9 14 -28 13
-50 -3z"/>
<path d="M9706 5438 c-9 -28 -35 -192 -32 -196 2 -2 13 2 24 9 15 9 24 31 31
74 16 88 14 125 -4 125 -9 0 -17 -6 -19 -12z"/>
<path d="M11541 5396 c-9 -11 -8 -18 4 -30 22 -22 55 -21 55 2 0 36 -37 54
-59 28z"/>
<path d="M9196 5338 c-7 -13 -16 -42 -20 -65 -5 -38 -3 -44 19 -59 23 -15 27
-15 50 0 49 32 58 92 15 103 -11 3 -20 14 -20 24 0 26 -27 24 -44 -3z"/>
<path d="M12376 5349 c-61 -17 -61 -59 0 -134 47 -58 50 -76 14 -95 -15 -8
-21 -8 -24 2 -13 42 -17 49 -29 46 -6 -3 -13 -21 -15 -41 -3 -31 1 -38 25 -51
31 -16 49 -10 91 27 35 32 29 76 -18 130 -22 25 -40 53 -40 62 0 15 7 17 48
11 93 -12 97 -12 97 4 0 29 -95 54 -149 39z"/>
<path d="M11278 5315 c-14 -8 -37 -32 -49 -52 -13 -21 -29 -43 -36 -48 -12 -9
-40 -137 -47 -212 -2 -12 -7 -28 -13 -35 -15 -19 -24 -81 -14 -97 5 -8 15 -11
23 -8 17 6 47 93 55 160 6 46 7 48 31 42 21 -5 34 3 82 53 35 35 61 72 65 90
9 44 -10 97 -41 111 -29 13 -23 14 -56 -4z m50 -76 c2 -27 -4 -43 -33 -77 -20
-23 -42 -42 -49 -42 -16 0 -14 57 2 87 7 12 11 26 10 32 -2 5 1 9 5 10 4 0 15
7 24 16 22 23 38 13 41 -26z"/>
<path d="M14450 5319 c-85 -33 -130 -163 -77 -224 31 -37 97 -50 143 -29 48
23 46 49 -3 39 -64 -12 -79 -9 -103 15 -28 28 -26 60 3 60 12 1 40 13 62 28
33 23 40 34 40 61 0 42 -28 64 -65 50z m30 -45 c0 -8 -25 -29 -53 -45 -16 -9
-17 -8 -8 10 15 27 61 54 61 35z"/>
<path d="M10985 5291 c-45 -20 -92 -70 -101 -107 -9 -35 19 -71 67 -85 33 -10
51 -10 97 2 38 9 57 19 57 29 0 12 -14 14 -76 12 -59 -3 -78 -1 -88 12 -10 11
-10 16 -2 16 7 0 17 5 24 10 7 6 32 21 56 33 54 26 71 50 55 75 -15 24 -42 25
-89 3z"/>
<path d="M10210 5275 c-10 -11 -10 -19 -2 -27 15 -15 44 -2 40 19 -4 23 -22
27 -38 8z"/>
<path d="M11627 5260 c-39 -31 -70 -101 -58 -133 18 -48 65 -59 126 -30 59 28
39 62 -22 36 -61 -25 -79 3 -42 63 14 23 28 34 44 34 28 0 38 12 29 34 -8 22
-46 20 -77 -4z"/>
<path d="M12882 5248 c-70 -34 -95 -95 -57 -138 20 -22 74 -27 105 -10 29 15
42 67 29 109 -7 20 -13 42 -15 49 -4 16 -11 15 -62 -10z m34 -63 c8 -31 -12
-57 -40 -53 -29 4 -31 32 -5 57 29 27 37 26 45 -4z"/>
<path d="M11450 5214 c-21 -49 -26 -94 -10 -94 11 0 60 92 60 114 0 7 -7 17
-15 20 -12 4 -21 -7 -35 -40z"/>
<path d="M13135 5239 c-8 -24 -54 -79 -66 -79 -4 0 -7 17 -6 38 3 50 -22 50
-41 0 -13 -33 -13 -40 2 -63 9 -14 25 -25 36 -25 35 0 120 90 120 128 0 5 -9
12 -20 15 -13 3 -21 -1 -25 -14z"/>
<path d="M9678 5233 c-11 -3 -19 -15 -20 -31 0 -15 -3 -38 -5 -52 -16 -105
-15 -118 5 -129 26 -14 29 -8 31 49 0 25 5 69 11 99 15 78 16 74 -22 64z"/>
<path d="M10316 5209 c-37 -29 -35 -71 4 -99 31 -22 41 -60 15 -60 -8 0 -15 6
-15 14 0 22 -19 30 -35 16 -37 -30 -7 -80 47 -80 71 0 89 67 34 127 l-34 38
24 18 c14 10 21 23 18 32 -8 21 -27 19 -58 -6z"/>
<path d="M10147 5183 c-2 -4 -10 -39 -17 -76 -11 -61 -11 -71 4 -85 10 -10 19
-13 25 -7 15 15 18 167 4 172 -6 2 -13 0 -16 -4z"/>
<path d="M11802 4873 c-15 -16 -44 -54 -65 -85 -34 -52 -41 -58 -72 -58 -34 0
-35 1 -35 39 0 52 -8 71 -31 71 -24 0 -49 -38 -52 -79 l-2 -31 -558 0 -557 0
7 28 c5 15 8 50 8 77 0 38 -4 50 -15 50 -8 0 -15 -9 -16 -20 -1 -11 -3 -27 -6
-35 -3 -8 -10 -33 -14 -55 l-9 -40 -456 -3 -457 -2 14 40 c8 22 20 49 26 61
11 17 10 22 -6 34 -21 16 -46 5 -46 -19 0 -7 -7 -36 -15 -64 l-16 -52 -215 0
-216 0 7 40 c6 36 5 40 -14 40 -14 0 -22 -8 -27 -27 -3 -16 -7 -34 -10 -40 -3
-10 -855 -13 -4196 -16 l-4193 -2 4193 -3 c2305 -1 4192 -5 4192 -9 -1 -21
-33 -144 -50 -189 -18 -49 -22 -114 -7 -114 4 0 12 0 17 0 6 0 10 6 10 14 0 7
13 56 29 109 16 52 27 104 24 116 -3 12 -1 21 5 21 6 0 12 10 14 23 3 22 4 22
217 25 193 2 213 1 207 -14 -3 -9 -9 -26 -12 -39 -6 -23 -41 -35 -107 -35 -28
0 -47 -24 -31 -40 5 -5 35 -5 67 -1 50 7 57 6 53 -8 -19 -64 -17 -112 4 -156
23 -48 50 -62 92 -50 33 11 48 25 48 46 0 23 -13 24 -47 2 -25 -16 -26 -16
-45 8 -18 20 -20 34 -15 94 6 76 14 105 29 105 5 0 6 -4 3 -10 -8 -13 1 -13
28 1 34 19 60 47 52 58 -10 17 -53 13 -64 -6 -14 -26 -23 -10 -12 21 l11 26
455 0 c251 0 454 -4 451 -9 -13 -21 -56 -210 -56 -248 0 -50 15 -93 32 -93 7
0 46 34 85 75 57 59 73 82 73 105 0 60 -74 61 -122 1 -24 -30 -24 -32 13 92
l23 77 558 0 558 0 -5 -42 c-16 -121 -27 -177 -42 -219 -18 -51 -12 -82 14
-77 18 3 49 111 58 208 6 57 25 95 25 49 0 -28 17 -49 38 -49 22 0 82 68 76
85 -4 9 0 15 9 15 8 0 17 7 21 15 3 10 19 15 42 15 25 0 35 -4 31 -13 -20 -51
-67 -211 -67 -226 0 -22 25 -45 40 -36 5 3 10 20 10 37 0 17 15 78 32 135 l33
103 347 0 348 0 -26 -67 c-53 -135 -70 -189 -69 -218 0 -50 30 -44 96 21 50
50 59 55 64 38 18 -57 41 -89 68 -92 19 -2 27 1 27 13 0 8 -7 18 -14 21 -8 3
-23 29 -32 57 -31 95 -48 99 -117 25 l-48 -53 21 55 c12 30 34 88 48 127 l27
73 336 0 336 0 -5 -25 c-3 -20 0 -25 15 -25 11 0 30 11 43 25 23 24 60 34 60
16 0 -48 -70 -168 -107 -182 -29 -11 -113 -118 -106 -135 8 -23 35 -16 68 16
l32 31 19 -41 c25 -52 67 -73 118 -59 26 7 36 15 34 27 -2 13 -12 16 -45 14
-39 -3 -44 -1 -63 30 -28 47 -25 73 16 123 19 24 46 75 59 112 l24 68 170 3
170 2 -43 -77 -43 -78 -54 -5 c-46 -4 -54 -8 -54 -25 0 -16 8 -21 37 -23 l38
-3 -15 -28 c-19 -39 -45 -112 -45 -132 0 -9 6 -22 14 -28 18 -15 31 3 39 52 3
21 18 62 33 91 l27 53 70 6 c76 7 82 9 74 32 -5 11 -21 15 -58 15 -28 0 -49 4
-47 8 2 5 19 38 38 75 l35 67 875 2 875 3 -867 2 c-478 2 -868 6 -868 11 1 4
7 18 15 32 36 62 4 81 -95 55 -35 -9 -87 -15 -114 -13 -46 3 -51 1 -54 -19 -2
-13 0 -23 5 -24 4 0 23 -2 41 -5 19 -2 63 3 99 11 36 9 68 14 70 11 2 -2 -2
-15 -8 -30 l-12 -26 -173 0 -173 0 -3 33 c-4 46 -34 47 -92 3 l-46 -36 -350 0
-350 0 6 28 c10 42 10 43 -9 55 -22 15 -37 -4 -37 -50 l0 -33 -342 0 -343 0
-1 55 c0 30 3 55 7 55 14 0 -4 41 -22 51 -15 7 -24 4 -47 -18z m20 -104 c-7
-29 -13 -34 -42 -37 -34 -4 -34 -3 -17 16 14 15 15 21 5 25 -9 4 -7 6 4 6 20
1 41 34 30 46 -4 5 -1 5 6 1 7 -4 13 -2 13 6 1 7 4 3 6 -8 2 -12 0 -37 -5 -55z
m-158 -88 c-21 -28 -31 -35 -40 -27 -7 6 -8 13 -3 14 5 2 9 15 9 28 0 20 5 24
31 24 l30 0 -27 -39z m-1236 -181 c-23 -27 -44 -47 -47 -45 -4 5 47 76 63 87
29 21 23 3 -16 -42z m-1513 -20 c3 -5 -1 -10 -10 -10 -9 0 -13 5 -10 10 3 6 8
10 10 10 2 0 7 -4 10 -10z"/>
<path d="M7836 4603 c-43 -32 -76 -88 -76 -133 0 -74 61 -129 120 -109 35 13
39 46 5 42 -41 -5 -63 7 -74 40 -14 41 -7 62 32 105 36 37 46 39 70 12 9 -11
21 -20 26 -20 17 0 19 28 3 51 -32 48 -52 50 -106 12z"/>
<path d="M8698 4596 c-16 -8 -34 -18 -40 -23 -7 -4 -20 -6 -30 -5 -22 4 -28
-8 -38 -81 -5 -34 -21 -98 -35 -141 -23 -69 -24 -81 -11 -94 21 -21 31 -9 52
62 18 63 19 64 50 59 25 -4 38 1 69 28 73 64 93 158 42 194 -26 18 -26 18 -59
1z m42 -70 c0 -25 -9 -44 -34 -70 -40 -43 -52 -45 -60 -10 -7 27 -2 37 43 87
34 37 51 35 51 -7z"/>
<path d="M9656 4589 c-70 -55 -74 -152 -8 -195 49 -32 187 -13 180 25 -2 9
-12 15 -23 13 -11 -1 -42 -5 -68 -8 -41 -6 -51 -4 -72 16 -33 31 -32 49 1 42
18 -3 33 3 55 24 67 64 8 141 -65 83z m36 -51 c-12 -12 -25 -18 -29 -14 -4 4
3 16 17 26 32 24 40 16 12 -12z"/>
<path d="M9095 4575 c-94 -78 -108 -115 -60 -159 34 -32 135 -51 135 -26 0 6
8 10 18 8 10 -2 17 3 17 12 0 12 -14 15 -58 16 -45 1 -63 6 -79 21 l-20 21 41
7 c74 12 107 56 81 106 -14 26 -39 24 -75 -6z m45 -30 c0 -2 -10 -9 -22 -15
-22 -11 -22 -10 -4 4 21 17 26 19 26 11z"/>
<path d="M12164 4586 c-33 -15 -74 -64 -74 -89 0 -37 -19 -24 -22 14 -4 51
-24 62 -39 22 -11 -30 -47 -73 -61 -73 -21 0 -4 46 28 76 36 35 38 54 3 54
-48 0 -103 -107 -80 -157 14 -30 49 -30 86 -1 38 30 72 30 80 1 3 -14 13 -23
25 -23 15 0 19 7 18 39 0 47 26 89 61 97 40 10 54 24 40 40 -14 17 -25 17 -65
0z"/>
<path d="M8017 4562 c-28 -30 -49 -92 -42 -123 14 -61 103 -90 161 -53 25 17
54 72 54 104 0 44 -76 100 -95 70 -4 -6 -12 -4 -21 5 -20 20 -37 19 -57 -3z
m68 -33 c4 -6 13 -8 20 -5 37 14 47 -55 13 -91 -36 -38 -98 -24 -98 23 0 54
46 105 65 73z"/>
<path d="M8427 4546 c-35 -24 -37 -24 -37 -6 0 24 -32 27 -50 5 -9 -11 -17
-12 -32 -4 -24 13 -51 -6 -43 -30 2 -9 -4 -29 -15 -46 -46 -69 -7 -96 50 -35
29 31 39 37 43 25 10 -25 35 -17 81 25 24 22 45 40 48 40 2 0 2 -16 0 -35 -5
-41 14 -71 33 -55 7 6 13 25 14 43 1 18 2 46 3 62 3 27 0 30 -27 33 -20 2 -44
-6 -68 -22z"/>
<path d="M10601 4551 c-11 -7 -11 -18 -1 -61 13 -55 27 -68 58 -51 27 14 28
71 1 71 -10 0 -19 6 -19 14 0 20 -24 36 -39 27z"/>
<path d="M10686 4454 c-31 -58 -54 -110 -51 -115 4 -5 0 -9 -7 -9 -19 0 -98
-150 -98 -184 0 -44 30 -28 52 28 10 27 27 61 37 75 34 49 161 283 161 297 0
8 -9 14 -19 14 -14 0 -34 -28 -75 -106z"/>
<path d="M12298 4543 c-46 -53 -51 -111 -12 -150 21 -21 32 -24 61 -20 38 7
73 32 73 54 0 15 -36 18 -45 3 -10 -16 -65 -12 -72 6 -7 20 13 64 38 82 16 11
17 17 8 28 -15 19 -33 18 -51 -3z"/>
<path d="M13849 4393 c-1 -5 -3 -30 -5 -57 -5 -51 -23 -81 -55 -91 -24 -8 -24
-31 -1 -44 29 -15 89 51 98 106 8 52 -1 93 -21 93 -8 0 -15 -3 -16 -7z"/>
<path d="M8780 4139 c-17 -29 -36 -62 -41 -75 -8 -24 -10 -24 -159 -24 -149 0
-156 2 -151 33 1 5 -8 24 -20 44 -18 29 -25 34 -48 28 -14 -3 -49 -28 -76 -56
l-51 -49 -3834 -2 -3835 -3 3828 -2 c3312 -3 3827 -5 3827 -17 0 -16 34 -31
50 -21 5 3 10 13 10 21 0 10 13 14 50 14 l49 0 -12 -27 c-25 -57 -66 -111
-101 -131 -38 -23 -105 -107 -106 -134 0 -36 24 -28 80 27 l57 57 8 -48 c9
-60 57 -114 103 -114 36 0 50 25 22 40 -10 5 -26 10 -34 10 -25 0 -44 40 -51
105 -6 57 -5 63 30 115 19 30 38 65 41 78 6 21 11 22 107 22 96 0 99 -1 80
-17 -31 -28 -55 -71 -47 -84 4 -8 3 -9 -4 -5 -9 5 -12 -9 -12 -47 0 -44 5 -62
31 -96 l30 -42 -45 -95 c-39 -81 -44 -99 -34 -117 10 -19 9 -20 -4 -9 -13 10
-17 9 -22 -10 -11 -42 -7 -58 14 -58 12 0 20 7 20 17 0 9 25 72 56 139 l56
123 36 -1 c20 -1 38 4 40 10 2 6 9 9 16 6 19 -7 56 43 56 75 0 15 -14 49 -31
76 l-31 49 21 43 21 43 90 0 90 0 -6 -27 c-4 -16 -11 -36 -15 -45 -13 -24 -11
-28 9 -29 14 0 13 -2 -4 -9 -23 -9 -31 -32 -40 -114 -6 -57 6 -96 31 -96 21 0
26 16 14 44 -13 28 5 122 43 224 l19 52 61 0 c54 0 59 -2 52 -17 -15 -32 -9
-88 13 -119 l21 -29 -30 -72 c-22 -57 -27 -80 -20 -105 12 -46 34 -57 74 -35
39 21 97 73 121 107 25 37 22 92 -7 119 -23 22 -24 25 -9 47 9 15 14 39 11 64
l-4 40 3141 2 3140 3 -3145 5 c-2979 5 -3146 6 -3171 23 -29 19 -80 15 -100
-9 -17 -20 -135 -19 -143 1 -3 8 -12 15 -21 15 -9 0 -18 -7 -21 -15 -5 -12
-25 -15 -95 -15 -54 0 -89 4 -89 10 0 6 16 35 36 65 20 29 33 59 29 64 -13 22
-34 9 -65 -40z m-400 -69 c0 -29 -2 -30 -42 -30 l-42 0 29 30 c16 17 35 30 42
30 8 0 13 -12 13 -30z m410 26 c0 -3 -4 -8 -10 -11 -5 -3 -10 -1 -10 4 0 6 5
11 10 11 6 0 10 -2 10 -4z m-80 -87 c-9 -16 -14 -18 -26 -8 -21 17 -17 29 11
29 23 0 24 -2 15 -21z m528 9 c18 -18 14 -52 -9 -82 -34 -43 -79 -29 -79 24 0
51 57 89 88 58z m-576 -51 c-1 -8 2 -18 7 -22 10 -5 -31 -131 -49 -149 -5 -4
-16 6 -25 24 -24 45 -15 104 21 141 29 30 51 33 46 6z m73 -116 c23 -45 -1
-81 -53 -81 -19 0 -19 1 1 55 11 30 24 55 28 55 5 0 15 -13 24 -29z m525 -6
c16 -20 6 -53 -28 -90 -26 -28 -75 -65 -87 -65 -15 0 -1 59 26 111 33 62 62
76 89 44z"/>
<path d="M9400 3698 c1 -20 26 -48 43 -48 25 0 31 20 11 41 -19 21 -54 26 -54
7z"/>
<path d="M4312 3343 c2062 -2 5434 -2 7495 0 2062 1 375 2 -3747 2 -4122 0
-5809 -1 -3748 -2z"/>
<path d="M4312 1953 c2062 -2 5434 -2 7495 0 2062 1 375 2 -3747 2 -4122 0
-5809 -1 -3748 -2z"/>
<path d="M4312 1263 c2060 -2 5435 -2 7500 0 2064 1 378 2 -3747 2 -4125 0
-5814 -1 -3753 -2z"/>
<path d="M4312 573 c2060 -2 5435 -2 7500 0 2064 1 378 2 -3747 2 -4125 0
-5814 -1 -3753 -2z"/>
</g>
</svg>
