<?xml version="1.0" standalone="no"?>
<!DOCTYPE svg PUBLIC "-//W3C//DTD SVG 20010904//EN"
 "http://www.w3.org/TR/2001/REC-SVG-20010904/DTD/svg10.dtd">
<svg version="1.0" xmlns="http://www.w3.org/2000/svg"
 width="1618.000000pt" height="1214.000000pt" viewBox="0 0 1618.000000 1214.000000"
 preserveAspectRatio="xMidYMid meet">

<g transform="translate(0.000000,1214.000000) scale(0.100000,-0.100000)"
fill="#000000" stroke="none">
<path d="M15096 11683 c-14 -21 -26 -41 -26 -46 0 -17 -29 -37 -55 -37 -18 0
-41 -14 -70 -42 -65 -64 -83 -128 -45 -163 19 -17 19 -18 -2 -59 -12 -22 -24
-54 -28 -71 l-6 -30 -400 -3 c-347 -2 -401 0 -401 12 0 9 3 13 7 11 3 -2 14 9
24 26 9 16 14 29 10 29 -3 0 -2 6 3 13 29 36 17 114 -22 147 -14 11 -10 16 33
41 48 27 68 52 56 70 -8 13 -68 11 -82 -3 -10 -10 -17 -10 -32 0 -24 14 -53 5
-46 -15 3 -8 6 -17 6 -19 0 -2 7 -4 15 -4 24 0 18 -19 -10 -32 -26 -12 -35
-48 -11 -48 7 0 26 -10 41 -22 25 -19 27 -25 20 -67 -3 -25 -7 -57 -7 -71 0
-14 -3 -19 -5 -12 -4 10 -9 10 -23 -3 -10 -9 -24 -14 -29 -10 -13 8 -14 38 -2
51 6 5 4 14 -4 21 -11 10 -18 8 -34 -13 -22 -28 -20 -57 5 -85 17 -18 13 -19
-132 -19 l-149 0 32 26 c18 14 37 32 41 41 8 14 11 13 23 -2 51 -61 66 -67 93
-39 20 20 12 34 -20 34 -14 0 -24 6 -24 14 0 7 -6 19 -14 25 -15 13 -13 20 32
91 26 42 27 46 5 54 -19 8 -52 -28 -53 -55 0 -9 -7 -19 -15 -23 -8 -3 -15 -10
-15 -16 0 -6 -11 -21 -25 -34 -13 -13 -22 -26 -18 -30 4 -4 1 -5 -7 -1 -18 6
-80 -47 -80 -69 0 -14 -37 -16 -320 -16 l-321 0 26 37 c14 21 25 42 25 48 0 6
27 10 63 10 140 1 201 105 117 198 l-27 31 28 39 c32 44 38 91 14 101 -21 8
-61 -32 -46 -47 17 -17 -26 -70 -52 -63 -55 14 -167 -99 -167 -170 0 -16 9
-40 19 -51 20 -21 19 -21 -15 -77 l-36 -56 -2536 -2 -2537 -3 2532 -2 2532 -3
3 -22 c2 -13 11 -24 22 -26 21 -4 38 16 31 36 -6 17 1845 18 1863 0 9 -9 15
-9 24 0 9 9 102 13 343 14 l330 3 -329 2 -328 3 5 28 c3 15 17 48 32 74 19 34
34 48 55 53 17 4 30 10 30 14 0 4 6 8 13 8 23 0 68 35 83 66 18 34 12 72 -17
103 -19 20 -19 21 11 63 31 42 36 71 13 78 -6 2 -23 -13 -37 -34z m-1856 -68
c0 -9 -6 -12 -15 -9 -8 4 -12 10 -9 15 8 14 24 10 24 -6z m1846 -80 c12 -31
-6 -65 -47 -86 -27 -13 -39 -16 -35 -7 3 7 9 21 12 31 4 9 12 17 19 17 7 0 15
14 19 30 6 32 23 40 32 15z m-1936 -20 c11 -13 10 -14 -3 -9 -16 6 -20 1 -83
-102 -9 -15 -15 -16 -24 -8 -17 17 -4 49 37 95 38 42 54 47 73 24z m1823 -40
c-29 -59 -38 -66 -46 -36 -6 23 37 91 58 91 11 0 9 -13 -12 -55z m-1745 -15
c15 -42 -5 -72 -58 -87 -81 -24 -84 -17 -33 69 44 72 48 77 64 62 10 -9 22
-28 27 -44z"/>
<path d="M15269 11623 c-6 -20 -26 -64 -44 -97 -18 -34 -45 -83 -60 -111 -15
-27 -38 -65 -52 -84 -26 -33 -24 -59 4 -68 12 -4 173 280 192 340 7 20 10 41
6 47 -13 21 -34 9 -46 -27z"/>
<path d="M15505 11650 c-3 -5 -12 -10 -20 -10 -19 0 -94 -69 -112 -104 -8 -16
-12 -39 -9 -53 5 -18 -2 -35 -31 -70 -21 -26 -32 -43 -25 -39 8 4 12 1 12 -9
0 -11 -5 -15 -15 -11 -11 4 -15 -2 -15 -24 0 -61 77 -67 166 -15 91 55 108 78
101 143 -4 40 -2 61 10 78 21 33 20 94 -3 111 -21 15 -50 17 -59 3z m30 -80
c-6 -19 -112 -77 -122 -66 -17 17 54 81 97 88 32 5 33 4 25 -22z m-20 -120 c9
-29 -9 -54 -63 -89 -55 -35 -106 -49 -117 -32 -11 18 62 99 108 120 54 25 64
25 72 1z"/>
<path d="M13398 11598 c-37 -21 -49 -50 -28 -63 6 -3 22 3 37 15 37 29 40 12
9 -49 -32 -63 -96 -131 -124 -131 -11 0 -30 -12 -42 -27 -42 -54 -3 -83 54
-39 35 26 67 26 94 -1 18 -17 31 -16 39 2 6 18 -23 55 -44 55 -19 0 -17 8 16
49 61 78 88 157 64 190 -18 26 -29 26 -75 -1z"/>
<path d="M14719 11610 c-48 -13 -69 -30 -69 -55 0 -36 18 -40 45 -11 13 14 29
26 35 26 26 0 -72 -106 -153 -165 -44 -32 -49 -71 -9 -69 12 0 63 1 112 2 71
2 92 5 97 17 9 25 -3 29 -82 27 l-74 -3 65 63 c36 34 74 77 85 95 33 54 8 89
-52 73z m51 -54 c0 -3 -4 -8 -10 -11 -5 -3 -10 -1 -10 4 0 6 5 11 10 11 6 0
10 -2 10 -4z"/>
<path d="M13770 11579 c-19 -11 -44 -29 -54 -39 -19 -19 -19 -19 -1 -26 17 -7
34 0 93 37 17 11 26 11 40 3 16 -11 19 -22 11 -54 -6 -23 34 -19 48 5 17 28
16 39 -6 64 -28 32 -86 36 -131 10z"/>
<path d="M14347 11324 c-23 -47 -21 -52 8 -24 25 24 32 45 17 54 -5 3 -16 -11
-25 -30z"/>
<path d="M13475 11280 c-9 -15 4 -30 26 -30 12 0 19 7 19 20 0 21 -33 29 -45
10z"/>
<path d="M630 6040 l0 -5190 3310 0 3310 0 0 1693 0 1694 30 26 c39 35 39 70
0 99 -24 17 -30 29 -30 59 0 42 18 53 58 35 27 -11 48 4 39 28 -5 11 -20 16
-52 16 l-45 0 0 210 c0 178 2 210 15 210 9 0 20 21 31 58 22 76 31 83 39 29
12 -75 44 -67 83 21 l19 44 8 -59 c8 -66 20 -93 40 -93 28 0 28 27 -2 120 -3
8 -6 35 -8 58 -3 49 -16 68 -40 58 -14 -5 -27 -29 -49 -90 -6 -16 -9 -14 -29
15 -20 30 -28 34 -65 34 l-42 0 0 177 c0 110 4 178 10 178 5 0 21 22 35 49 30
60 41 69 50 39 14 -52 28 -78 41 -78 23 0 26 20 9 71 -20 59 -53 86 -84 69
-12 -6 -21 -15 -21 -20 0 -6 -9 -5 -20 2 -19 12 -20 24 -20 238 l0 226 40 -4
c30 -3 41 0 46 12 9 25 -15 101 -48 151 -32 49 -30 65 8 65 16 0 23 4 18 11
-4 7 1 7 15 -1 30 -15 58 4 39 27 -11 14 -54 15 -98 2 -13 -4 -15 100 -18 886
-1 670 1 896 10 913 9 17 9 25 0 34 -9 9 -12 153 -12 565 0 526 1 553 18 553
10 0 23 5 29 11 17 17 4 39 -23 39 l-24 0 0 206 0 206 74 72 c96 92 126 154
126 261 0 68 -31 200 -50 215 -4 3 -12 22 -19 42 -17 53 -64 113 -100 128
l-31 12 0 379 0 379 -3310 0 -3310 0 0 -5190z m6610 4461 c0 -710 0 -719 -20
-724 -24 -6 -37 -34 -22 -49 8 -8 15 -8 27 2 13 11 15 -10 15 -198 0 -184 -2
-211 -15 -206 -9 4 -15 19 -15 40 0 39 -19 45 -60 17 -14 -9 -19 -10 -12 -3 6
8 12 21 12 29 0 11 -4 10 -15 -5 -13 -18 -14 -18 -8 5 9 37 -18 22 -42 -23
-19 -36 -19 -38 -2 -51 13 -9 27 -11 50 -4 39 11 37 11 37 -3 0 -19 31 -48 52
-48 17 0 18 -22 18 -555 l0 -555 -40 0 c-49 0 -113 -25 -108 -42 7 -20 40 -35
45 -20 3 6 15 12 28 12 13 0 35 4 49 10 l26 10 0 -244 0 -244 -22 -6 c-13 -3
-46 -6 -74 -6 l-51 0 -5 65 c-6 67 -20 97 -42 89 -8 -3 -12 -28 -12 -76 l1
-72 -45 -9 c-46 -9 -70 -22 -70 -39 0 -18 29 -19 64 -3 19 9 40 14 45 10 7 -4
11 -48 11 -110 0 -110 10 -155 35 -155 13 0 15 15 11 98 -2 53 -2 112 1 130
l5 32 74 0 74 0 0 -644 c0 -560 -2 -645 -15 -656 -19 -16 -19 -44 0 -60 10 -8
15 -31 15 -66 0 -30 -2 -54 -4 -54 -16 0 -36 14 -36 26 0 18 -46 18 -53 0 -7
-17 28 -51 65 -65 l27 -10 0 -784 1 -784 -40 -12 c-27 -8 -45 -21 -55 -40 -13
-26 -13 -31 4 -53 11 -13 35 -33 55 -43 45 -24 51 -69 12 -79 -29 -7 -52 0
-60 20 -7 19 -32 18 -40 -2 -10 -27 38 -64 84 -64 l40 0 0 -1685 0 -1685
-3300 0 -3300 0 0 5180 0 5180 3300 0 3300 0 0 -719z m50 -103 c27 -28 67
-105 92 -178 20 -56 40 -201 29 -210 -3 -3 -16 -26 -28 -52 -23 -50 -83 -122
-115 -139 -17 -9 -18 2 -18 296 0 188 4 305 10 305 5 0 19 -10 30 -22z m0
-4285 c0 -6 -8 -9 -20 -6 -17 4 -20 13 -19 52 l1 46 19 -40 c10 -22 19 -45 19
-52z m-50 -1693 c0 -35 -2 -36 -36 -14 -19 13 -22 20 -13 30 6 8 20 14 30 14
14 0 19 -7 19 -30z m25 -99 c3 -5 1 -12 -5 -16 -5 -3 -10 1 -10 9 0 18 6 21
15 7z"/>
<path d="M4227 11134 c-4 -4 -7 -15 -7 -24 0 -14 -7 -17 -40 -13 -29 4 -40 1
-40 -9 0 -10 -2 -10 -9 2 -10 14 -70 18 -90 5 -12 -7 -15 -35 -3 -35 64 -2
165 -9 168 -13 3 -3 5 -77 5 -164 0 -161 5 -190 31 -180 12 4 15 35 16 158 1
83 -3 159 -8 168 -7 14 2 17 73 19 76 2 104 12 91 34 -3 4 -38 8 -78 8 -69 0
-73 1 -72 22 1 22 -23 36 -37 22z"/>
<path d="M5014 11105 c-3 -14 -10 -25 -14 -25 -4 0 -11 -11 -14 -25 -7 -28
-43 -47 -74 -38 -55 14 -105 -66 -91 -143 5 -25 15 -55 23 -66 14 -19 13 -25
-4 -57 -29 -54 -58 -134 -53 -148 9 -26 40 -14 47 17 3 17 17 55 32 86 20 43
30 55 45 51 10 -3 38 0 63 5 78 16 135 108 93 150 -8 7 -12 18 -10 24 2 6 -8
25 -21 41 l-26 30 25 49 c30 59 31 74 5 74 -13 0 -22 -9 -26 -25z m-104 -155
c20 -20 20 -20 -2 -65 -25 -51 -33 -55 -42 -22 -8 31 -7 52 4 81 11 31 14 32
40 6z m115 -40 c18 -40 18 -41 -2 -68 -19 -25 -86 -53 -98 -40 -9 9 64 160 73
154 5 -3 17 -23 27 -46z m-85 -130 c0 -5 -5 -10 -11 -10 -5 0 -7 5 -4 10 3 6
8 10 11 10 2 0 4 -4 4 -10z"/>
<path d="M2257 11113 c-2 -4 -5 -50 -6 -102 -1 -52 -6 -116 -11 -144 -6 -27
-8 -52 -6 -56 2 -3 -2 -12 -9 -18 -11 -10 -32 7 -112 92 -54 58 -103 105 -109
105 -18 0 -24 -25 -24 -99 0 -37 -7 -91 -16 -120 -16 -55 -10 -79 18 -68 17 6
38 86 40 153 l1 50 89 -88 c88 -87 115 -101 137 -75 29 36 54 268 36 337 -5
20 -4 22 5 10 9 -13 11 -12 8 5 -3 20 -32 33 -41 18z"/>
<path d="M3271 11090 c-14 -12 -18 -20 -10 -21 8 0 4 -4 -9 -9 -13 -6 -32 -29
-42 -52 -11 -24 -20 -38 -20 -31 0 17 -39 26 -55 13 -13 -11 -12 -16 5 -37 26
-33 25 -41 -2 -45 -15 -2 -24 -11 -26 -25 -3 -19 1 -23 23 -23 24 0 25 -2 19
-35 -9 -52 3 -107 24 -103 13 3 18 18 23 73 3 38 10 70 16 72 5 2 34 18 64 36
83 49 125 150 81 190 -25 22 -62 21 -91 -3z m61 -47 c5 -25 -29 -75 -69 -101
-39 -26 -44 -13 -17 41 34 66 78 97 86 60z"/>
<path d="M3475 11093 c-35 -9 -45 -24 -45 -68 0 -25 5 -45 13 -48 9 -4 9 -8 1
-14 -7 -4 -15 -42 -18 -83 -9 -94 -13 -117 -34 -158 -17 -33 -16 -34 7 -53 34
-28 54 -9 49 48 -2 24 0 44 3 45 6 3 17 82 19 131 0 22 18 1 93 -105 49 -70
78 -94 103 -84 20 8 17 34 -5 41 -10 3 -43 41 -73 84 -46 65 -52 77 -34 74 12
-3 33 5 49 17 23 19 27 28 27 76 0 73 -28 105 -92 103 -24 -1 -52 -4 -63 -6z
m99 -49 c18 -17 22 -79 6 -89 -6 -4 -32 -4 -58 0 l-48 6 4 37 c7 57 60 82 96
46z"/>
<path d="M1780 11074 c-29 -10 -65 -13 -102 -10 -53 5 -58 4 -58 -14 0 -20 20
-29 70 -33 33 -2 49 -24 50 -69 0 -20 5 -40 10 -43 6 -3 10 -12 10 -18 0 -9
-3 -8 -8 1 -13 20 -13 -100 -1 -131 15 -35 45 -33 41 3 -11 86 -16 269 -7 276
6 5 27 10 48 10 41 1 63 16 53 33 -10 15 -52 13 -106 -5z"/>
<path d="M5254 11075 c-38 -16 -98 -80 -90 -94 13 -21 43 -11 75 24 77 85 85
9 11 -107 -27 -43 -50 -83 -50 -88 0 -6 -11 -10 -24 -10 -29 0 -72 -33 -91
-70 -13 -25 -13 -30 0 -44 19 -19 41 -12 81 26 l32 30 12 -37 c19 -57 73 -105
118 -105 48 0 75 19 108 76 31 53 41 127 16 122 -8 -2 -22 -23 -31 -48 -46
-129 -114 -143 -166 -34 -14 29 -25 56 -25 60 0 4 25 46 56 95 62 98 75 146
51 182 -20 31 -47 38 -83 22z"/>
<path d="M2896 11039 c-14 -17 -26 -38 -26 -46 0 -9 33 -48 74 -87 86 -83 97
-103 60 -116 -64 -25 -158 0 -126 32 21 21 14 48 -13 48 -36 0 -58 -46 -40
-81 19 -35 91 -62 142 -54 52 9 94 26 88 35 -3 5 -1 11 5 15 5 3 10 18 10 33
0 19 -19 45 -75 100 -41 41 -75 77 -75 81 0 3 8 11 19 18 15 9 23 8 40 -3 11
-8 26 -12 31 -9 19 12 10 42 -15 53 -43 20 -71 14 -99 -19z"/>
<path d="M1395 11043 c-16 -8 -45 -29 -62 -46 -61 -57 -37 -104 72 -143 110
-40 124 -62 81 -119 -33 -43 -78 -62 -112 -46 -15 7 -24 18 -22 29 4 29 -10
44 -33 32 -43 -23 -7 -90 58 -109 34 -10 84 7 121 42 27 25 62 88 62 112 0 27
-61 74 -126 95 -33 11 -70 27 -80 34 -18 14 -18 15 1 36 31 34 70 51 104 44
23 -5 32 -2 37 10 16 41 -45 59 -101 29z"/>
<path d="M3777 11053 c-3 -5 -8 -46 -11 -93 -9 -123 -17 -180 -27 -186 -19
-11 -8 -34 15 -34 31 0 32 2 40 73 12 103 19 107 50 34 32 -76 89 -147 117
-147 43 0 58 90 44 263 -7 82 -9 88 -29 85 -23 -3 -22 5 -10 -148 3 -47 2
-101 -3 -120 l-10 -35 -30 47 c-17 26 -43 81 -59 123 -16 41 -32 75 -36 75 -4
0 -5 6 -2 14 12 30 -34 75 -49 49z"/>
<path d="M2539 10926 c-86 -15 -142 -51 -110 -71 6 -3 37 4 70 15 33 11 79 20
101 20 33 0 40 4 40 19 0 26 -23 29 -101 17z"/>
<path d="M4486 10880 c-70 -22 -84 -33 -67 -54 10 -12 19 -12 66 5 30 10 61
19 69 19 22 0 38 24 24 38 -15 15 -19 14 -92 -8z"/>
<path d="M4013 10499 c-42 -45 -47 -62 -20 -67 12 -3 20 4 24 17 3 12 11 21
18 21 14 0 45 32 45 47 0 28 -32 20 -67 -18z"/>
<path d="M2233 10444 c4 -33 10 -69 13 -81 6 -22 3 -23 -41 -23 -42 0 -46 -2
-43 -22 3 -20 8 -22 51 -19 l48 3 -2 -61 c-3 -70 9 -91 36 -65 13 14 16 30 13
75 l-4 57 44 7 c33 5 42 10 40 23 -3 13 -14 17 -50 16 l-46 0 -14 70 c-10 55
-18 72 -32 74 -18 4 -19 -1 -13 -54z"/>
<path d="M3291 10471 c-8 -14 -6 -27 5 -50 9 -18 13 -40 9 -52 -6 -17 -12 -20
-36 -15 -22 4 -31 1 -36 -10 -7 -20 9 -36 40 -37 16 -1 23 -7 19 -16 -3 -7 1
-17 9 -22 12 -7 12 -9 -1 -9 -11 -1 -10 -4 5 -17 16 -12 16 -14 3 -10 -15 5
-17 -1 -17 -48 1 -41 5 -55 16 -55 8 0 11 -4 8 -10 -3 -6 1 -7 9 -4 9 3 16 10
16 14 0 17 -12 40 -19 35 -4 -2 -8 2 -8 10 0 8 4 12 9 9 8 -5 9 4 12 81 1 34
2 34 53 41 39 5 52 11 56 25 5 17 -1 19 -44 19 l-49 0 0 44 c0 81 -34 125 -59
77z"/>
<path d="M2846 10462 c-2 -4 2 -30 9 -58 18 -69 20 -95 11 -122 -6 -17 -3 -27
11 -37 17 -13 17 -13 -1 -12 -13 1 -22 -8 -31 -32 -14 -44 -28 -49 -43 -16
-16 35 -15 65 3 70 8 3 22 7 30 10 23 7 6 35 -21 35 -37 0 -74 -28 -74 -57 0
-13 4 -22 9 -19 5 4 7 -2 4 -13 -5 -21 17 -70 42 -91 35 -29 85 24 105 115 6
27 5 44 -3 54 -9 12 -9 13 1 7 7 -4 12 -1 12 8 0 9 -6 16 -12 16 -9 0 -10 2
-2 8 16 10 9 123 -8 133 -16 11 -35 11 -42 1z"/>
<path d="M1543 10414 c-3 -9 -1 -26 6 -36 7 -12 8 -17 2 -13 -7 4 -11 -3 -11
-18 0 -16 -7 -26 -20 -30 -25 -6 -26 -27 -2 -34 14 -3 22 -21 31 -71 13 -72
33 -112 56 -112 23 0 26 16 9 49 -8 17 -18 56 -21 87 l-6 56 54 -3 c63 -4 86
5 68 27 -7 9 -31 14 -64 14 -48 0 -53 2 -59 25 -4 14 -4 30 0 36 6 11 -13 39
-28 39 -5 0 -11 -7 -15 -16z"/>
<path d="M3938 10408 c-34 -52 -78 -138 -92 -179 -22 -61 -20 -148 3 -202 24
-55 79 -120 97 -113 8 3 14 -1 14 -8 0 -14 38 -29 52 -20 13 8 -4 30 -48 62
-76 55 -110 159 -84 254 6 21 10 41 10 44 -1 4 2 10 7 13 18 13 94 152 88 161
-10 17 -32 11 -47 -12z m-68 -198 c0 -5 -2 -10 -4 -10 -3 0 -8 5 -11 10 -3 6
-1 10 4 10 6 0 11 -4 11 -10z"/>
<path d="M4584 10366 l-39 -65 -51 30 c-54 31 -93 37 -96 17 -3 -26 -5 -34
-26 -78 -25 -52 -28 -107 -9 -153 8 -18 12 -38 10 -44 -3 -7 0 -13 6 -13 6 0
11 -4 11 -9 0 -5 -10 -7 -22 -4 -13 3 -20 3 -16 -2 4 -4 -3 -17 -16 -29 -37
-35 -82 -110 -78 -128 7 -35 28 -17 89 76 55 84 64 93 87 89 32 -6 102 33 145
82 34 40 42 93 16 115 -21 17 -20 19 26 90 22 34 38 69 35 76 -11 29 -35 12
-72 -50z m-95 -140 c-16 -22 -29 -46 -29 -53 0 -7 -5 -13 -11 -13 -6 0 -19
-10 -28 -22 l-18 -21 -6 33 c-7 31 4 92 20 116 19 26 47 33 75 16 l27 -16 -30
-40z m78 -12 c3 -8 -4 -29 -16 -45 -12 -16 -19 -35 -15 -41 4 -7 3 -8 -5 -4
-6 4 -23 0 -37 -9 -45 -29 -44 -11 4 53 48 65 59 72 69 46z"/>
<path d="M1304 10391 c-22 -10 -50 -31 -62 -46 -20 -25 -21 -31 -9 -49 8 -11
35 -25 61 -32 46 -12 76 -29 76 -44 0 -15 -71 -16 -91 -2 -23 16 -49 9 -49
-12 0 -20 28 -34 80 -41 87 -11 128 27 93 86 -16 27 -75 59 -108 59 -41 0 1
33 68 54 22 7 19 40 -3 43 -8 2 -33 -6 -56 -16z"/>
<path d="M6645 10380 c-4 -6 -8 -25 -10 -44 -6 -70 -61 -127 -79 -81 -11 30
-43 15 -85 -42 -37 -49 -42 -63 -37 -92 5 -32 46 -81 68 -81 4 0 -5 -26 -20
-57 -16 -32 -35 -74 -42 -93 -8 -19 -20 -41 -27 -48 -18 -19 -7 -32 28 -32 24
0 29 4 29 23 0 13 20 64 44 113 40 84 46 91 84 102 24 7 54 28 76 53 42 45 41
65 -2 112 -22 23 -25 31 -14 47 20 32 32 103 20 117 -13 16 -25 17 -33 3z
m-64 -189 c-12 -8 -13 -12 -1 -25 11 -14 10 -16 -3 -10 -12 4 -21 -5 -33 -35
-18 -45 -18 -45 -45 -31 -32 18 -25 67 14 90 17 11 43 20 57 20 19 0 21 -3 11
-9z m73 -24 c11 -17 -11 -49 -47 -69 -29 -15 -30 -4 -5 46 23 47 34 52 52 23z"/>
<path d="M5691 10355 c-24 -8 -54 -24 -67 -36 -13 -12 -27 -20 -30 -16 -8 8
-76 -20 -86 -35 -10 -18 18 -59 63 -91 66 -47 87 -97 41 -97 -14 0 -14 -2 -3
-9 8 -5 -5 -7 -35 -4 -27 3 -57 13 -67 21 -23 21 -47 1 -31 -26 21 -34 62 -46
118 -33 116 26 123 70 24 163 l-61 57 27 11 c15 5 36 10 47 10 11 0 22 7 25
15 7 18 107 49 140 42 25 -4 50 15 40 32 -9 14 -92 11 -145 -4z"/>
<path d="M6865 10351 c-3 -6 -4 -23 -3 -38 1 -20 -13 -53 -44 -103 -72 -116
-94 -168 -80 -182 18 -18 42 0 57 46 8 21 36 76 64 122 48 79 59 112 45 148
-7 18 -29 21 -39 7z"/>
<path d="M6993 10311 c-64 -50 -89 -101 -75 -149 10 -31 8 -38 -16 -68 -15
-19 -27 -37 -26 -41 0 -5 -6 -14 -13 -21 -19 -20 -16 -59 7 -82 56 -56 236 19
279 116 12 25 21 50 21 55 0 15 -44 49 -64 49 -18 0 -18 1 -3 13 19 14 47 77
47 105 0 26 -28 48 -71 56 -32 6 -43 2 -86 -33z m107 -36 c0 -38 -57 -94 -102
-102 -35 -5 -38 -4 -38 18 1 31 25 58 75 86 52 29 65 29 65 -2z m20 -165 c0
-46 -69 -102 -160 -130 l-56 -17 -2 24 c-4 51 44 110 100 123 48 11 118 12
118 0z"/>
<path d="M2000 10323 c-42 -15 -53 -75 -22 -113 26 -33 43 -18 36 30 l-6 39
38 3 c31 2 39 7 39 23 0 16 -7 20 -35 22 -19 1 -42 -1 -50 -4z"/>
<path d="M6223 10305 c-27 -17 -43 -33 -43 -46 0 -29 30 -36 49 -11 17 22 75
49 69 32 -8 -25 -133 -160 -148 -160 -54 0 -155 -108 -120 -130 19 -12 42 -2
97 40 l51 38 32 -40 c60 -74 128 -86 128 -22 0 30 -18 40 -46 25 -18 -9 -25
-5 -52 29 l-32 41 49 57 c69 80 85 107 81 139 -3 24 -8 28 -38 31 -24 1 -49
-6 -77 -23z"/>
<path d="M1775 10294 c-68 -73 -24 -145 59 -96 l34 20 13 -24 c15 -28 55 -42
72 -25 9 10 6 17 -15 33 -22 15 -28 28 -28 58 0 21 -5 42 -11 45 -5 4 -27 -11
-48 -34 -35 -38 -61 -52 -61 -33 0 14 24 32 43 32 13 0 18 6 15 23 -5 33 -42
34 -73 1z"/>
<path d="M3060 10310 c0 -5 -7 -7 -15 -4 -13 6 -20 -6 -16 -28 0 -5 -5 -7 -11
-5 -21 4 -22 -67 -2 -83 14 -12 22 -11 57 9 26 15 38 18 35 10 -6 -15 16 -42
26 -32 3 4 6 0 6 -8 0 -9 11 -16 30 -17 17 -1 30 0 30 2 0 3 -13 19 -30 36
-20 20 -30 41 -30 60 0 20 -5 30 -15 30 -8 0 -15 6 -15 14 0 8 -7 17 -16 20
-23 9 -34 7 -34 -4z m22 -57 c-8 -14 -42 -29 -42 -18 0 17 16 35 32 35 15 0
17 -4 10 -17z"/>
<path d="M3490 10310 c-14 -4 -24 -12 -22 -19 1 -7 -2 -10 -7 -7 -12 8 -34
-20 -29 -36 3 -7 -4 -20 -15 -28 -17 -14 -18 -20 -8 -58 12 -43 34 -62 71 -62
13 0 19 4 14 12 -5 7 -3 8 7 2 20 -12 51 -16 45 -5 -3 5 3 7 14 4 13 -4 27 1
36 13 9 11 12 12 8 4 -6 -12 -4 -13 7 -2 7 6 20 12 29 12 23 0 38 19 33 40 -4
16 -7 17 -36 2 -18 -8 -36 -21 -40 -29 -4 -7 -13 -13 -20 -13 -7 0 -6 4 3 10
8 5 11 10 6 10 -5 0 -18 -8 -29 -17 -11 -10 -17 -13 -13 -6 9 15 -65 5 -77
-11 -6 -7 -7 -5 -4 6 3 9 3 19 -1 22 -13 14 -9 34 7 31 49 -8 99 57 78 102
-12 27 -24 32 -57 23z m24 -54 c-3 -7 -16 -18 -29 -24 -23 -11 -24 -10 -13 13
12 26 52 36 42 11z m141 -96 c-3 -5 -12 -10 -18 -10 -7 0 -6 4 3 10 19 12 23
12 15 0z"/>
<path d="M5255 10306 c-38 -16 -58 -40 -53 -63 5 -24 36 -29 45 -6 14 39 63
47 63 10 0 -37 -52 -100 -106 -128 -56 -29 -86 -71 -66 -91 11 -11 20 -9 51 8
l38 21 14 -40 c8 -22 21 -45 30 -50 22 -14 125 20 162 53 25 22 27 28 14 38
-11 10 -19 8 -38 -6 -33 -26 -110 -55 -119 -45 -5 4 -10 28 -12 53 -3 37 0 50
19 70 53 57 70 142 35 173 -22 20 -37 21 -77 3z"/>
<path d="M4757 10280 c-31 -19 -47 -37 -47 -50 0 -27 16 -25 62 6 21 15 41 24
45 20 16 -15 -99 -166 -127 -166 -20 -1 -50 -24 -71 -56 -35 -54 7 -73 60 -28
l30 25 32 -36 c24 -27 39 -35 58 -33 18 2 26 9 26 23 0 13 -6 19 -17 17 -9 -1
-27 12 -41 30 l-25 32 43 50 c72 85 100 157 73 184 -19 19 -51 14 -101 -18z"/>
<path d="M4905 10059 c-8 -11 13 -59 30 -71 13 -9 45 20 39 36 -8 21 -62 48
-69 35z"/>
<path d="M5791 10034 c-22 -16 -28 -39 -11 -49 12 -7 59 25 60 41 0 19 -26 23
-49 8z"/>
<path d="M1830 9656 c0 -60 -7 -109 -25 -170 -30 -102 -31 -116 -7 -116 10 1
33 26 57 65 22 36 42 65 46 65 3 0 11 -18 18 -40 14 -47 37 -62 77 -51 22 6
33 4 47 -9 34 -33 100 -30 114 5 8 23 -13 43 -29 27 -17 -17 -47 -15 -54 3 -4
9 12 35 40 66 26 29 45 57 43 63 -11 33 -77 3 -77 -36 0 -10 -3 -17 -7 -16 -5
1 -23 -12 -42 -30 -41 -39 -60 -38 -75 4 -6 17 -18 42 -27 55 -16 23 -16 23
-44 5 -15 -10 -24 -13 -21 -7 9 14 16 153 9 179 -3 13 -13 22 -24 22 -17 0
-19 -8 -19 -84z"/>
<path d="M2930 9703 c-14 -9 -31 -25 -39 -36 -7 -10 -24 -23 -38 -28 -15 -6
-23 -15 -20 -23 3 -8 -3 -42 -14 -77 -11 -34 -21 -74 -22 -89 -2 -14 -7 -31
-11 -38 -4 -7 -5 -26 -1 -42 8 -36 40 -41 48 -8 l6 22 23 -21 c56 -50 110 -57
156 -18 17 14 33 39 37 56 9 41 -22 99 -69 125 -36 20 -36 21 -16 39 11 10 20
22 20 27 0 5 7 16 15 24 20 21 30 64 18 82 -14 23 -64 25 -93 5z m44 -55 c-19
-38 -51 -76 -76 -89 -37 -20 -19 33 26 77 53 53 73 58 50 12z m-52 -142 c76
-18 115 -98 63 -132 -27 -18 -52 -13 -86 17 -13 11 -31 18 -40 16 -14 -4 -17
1 -16 22 1 14 5 28 9 31 7 5 15 36 17 64 1 5 7 4 14 -1 6 -6 24 -13 39 -17z"/>
<path d="M3871 9678 c-21 -46 -78 -110 -126 -140 -16 -10 -32 -18 -35 -18 -5
0 -3 75 3 150 2 20 -3 25 -21 25 -23 0 -24 -3 -26 -91 -2 -50 -6 -96 -10 -103
-5 -7 -20 -9 -41 -5 -20 3 -35 1 -40 -6 -11 -18 15 -40 51 -40 33 0 33 0 36
-52 2 -39 7 -53 18 -53 11 0 16 15 18 63 l3 63 42 18 c23 10 58 35 78 56 l37
37 -5 -86 c-7 -106 6 -119 64 -59 l38 38 3 -30 c6 -66 11 -75 41 -75 31 0 57
23 46 40 -4 7 -16 10 -26 7 -15 -4 -18 2 -21 47 -3 44 -6 51 -25 54 -13 2 -36
-6 -53 -18 -16 -12 -30 -17 -30 -12 0 6 9 54 20 109 25 121 25 123 0 123 -15
0 -26 -13 -39 -42z"/>
<path d="M5799 9697 c-27 -14 -52 -37 -63 -59 -30 -55 -11 -89 85 -150 69 -44
98 -73 85 -85 -23 -23 -155 -35 -141 -13 10 16 -25 31 -67 28 -97 -7 -28 -72
90 -84 109 -12 198 51 158 111 -15 23 -115 95 -132 95 -12 0 -44 43 -44 60 0
17 31 50 64 67 10 6 36 7 59 2 46 -8 57 -5 57 16 0 24 -32 35 -48 17 -13 -16
-13 -16 -8 1 8 25 -40 22 -95 -6z m126 -317 c3 -5 1 -10 -4 -10 -6 0 -11 5
-11 10 0 6 2 10 4 10 3 0 8 -4 11 -10z"/>
<path d="M1343 9652 c-9 -22 5 -26 108 -30 86 -4 99 -6 94 -21 -58 -185 -65
-233 -42 -266 23 -31 37 -9 33 55 -1 33 0 60 4 60 4 0 13 21 20 48 29 115 43
132 101 132 32 0 76 27 53 32 -5 1 -89 2 -188 2 -137 1 -180 -2 -183 -12z"/>
<path d="M6900 9635 c-7 -8 -12 -45 -12 -85 -1 -54 -4 -70 -15 -70 -27 0 -52
-20 -46 -36 4 -11 14 -14 33 -10 27 5 28 3 36 -52 6 -40 13 -57 24 -57 11 0
16 15 18 63 3 56 5 62 25 62 43 0 67 12 67 32 0 19 -4 20 -51 14 l-51 -7 2 68
c1 37 2 74 1 81 -1 16 -16 15 -31 -3z"/>
<path d="M4346 9532 c-9 -32 -16 -70 -16 -85 0 -14 -5 -38 -11 -54 l-11 -28
-23 53 c-25 54 -51 75 -65 51 -6 -8 -2 -25 9 -44 10 -16 22 -41 26 -55 10 -34
34 -60 56 -60 21 0 59 74 59 114 0 15 5 47 11 71 l11 44 30 -15 c32 -17 68
-11 68 12 0 8 -8 17 -17 20 -10 3 -31 12 -46 20 -51 26 -63 19 -81 -44z"/>
<path d="M4585 9506 c-42 -26 -77 -66 -89 -104 -5 -16 -1 -28 18 -47 21 -20
35 -25 79 -25 82 0 181 60 128 78 -8 3 -11 1 -8 -4 3 -5 -5 -10 -16 -10 -12
-1 -41 -7 -64 -14 -48 -14 -93 -7 -93 15 0 16 1 16 36 20 12 1 38 15 58 30 29
22 36 34 34 54 -4 35 -33 37 -83 7z"/>
<path d="M4090 9483 c-27 -45 -28 -88 -4 -114 25 -28 52 -33 81 -14 23 15 25
22 20 64 -9 73 -23 101 -51 101 -17 0 -30 -11 -46 -37z m54 -45 c9 -36 7 -48
-8 -48 -21 0 -29 17 -22 46 8 30 22 31 30 2z"/>
<path d="M4798 9502 c-20 -23 -48 -97 -48 -127 0 -40 33 -31 74 20 21 25 42
45 47 45 5 0 9 -18 9 -40 0 -51 36 -93 77 -88 38 4 40 26 4 39 -33 12 -39 25
-43 94 -3 33 -7 41 -25 43 -12 2 -33 -4 -46 -13 -24 -15 -24 -15 -20 9 6 30
-10 41 -29 18z"/>
<path d="M3180 9481 c-53 -52 -34 -130 35 -147 29 -7 55 10 55 37 0 24 -18 33
-36 18 -12 -10 -18 -9 -31 4 -15 15 -14 16 9 22 15 4 37 18 49 31 18 20 21 29
13 42 -19 30 -61 27 -94 -7z"/>
<path d="M3415 9490 c-9 -10 -20 -39 -22 -64 -5 -39 -2 -46 20 -60 28 -19 83
-14 106 9 21 21 4 36 -34 29 -49 -9 -63 5 -26 27 29 17 34 40 16 69 -10 16
-41 11 -60 -10z"/>
<path d="M6043 9489 c-9 -9 -8 -16 3 -27 13 -13 13 -16 -7 -26 -58 -30 -56
-96 3 -96 32 0 74 21 90 44 17 24 6 55 -27 85 -39 34 -46 36 -62 20z m38 -89
c-30 -26 -50 -26 -25 -1 10 11 26 20 34 20 10 0 8 -6 -9 -19z"/>
<path d="M6275 9471 c-3 -6 -19 -11 -34 -11 -21 0 -31 -8 -44 -36 -10 -19 -15
-40 -12 -45 8 -12 45 -12 45 1 0 12 37 50 48 50 5 0 14 -18 21 -39 13 -46 27
-53 76 -40 26 7 35 15 33 27 -3 12 -13 16 -34 15 -27 -2 -32 1 -40 28 -10 35
-48 67 -59 50z"/>
<path d="M6520 9451 c-27 -51 0 -85 54 -70 43 13 43 13 50 -26 8 -39 43 -69
70 -59 22 8 20 31 -3 39 -13 4 -22 20 -28 53 -7 41 -12 47 -35 50 -15 2 -32
10 -38 18 -18 20 -57 17 -70 -5z"/>
<path d="M1619 9150 c-69 -4 -135 -12 -146 -18 -21 -12 -24 -23 -39 -139 -3
-29 -10 -56 -15 -59 -6 -4 -6 -11 1 -18 5 -7 11 -53 12 -102 2 -73 6 -92 22
-107 29 -26 49 -4 37 43 -5 19 -12 59 -15 88 l-7 52 41 0 c22 0 41 1 43 1 1 1
33 7 72 13 54 9 71 16 73 30 4 16 -3 17 -85 11 -153 -13 -138 -16 -135 35 2
25 8 61 13 81 8 34 12 37 55 43 26 3 84 6 128 6 53 0 89 5 101 13 20 16 12 38
-13 35 -9 0 -73 -4 -143 -8z"/>
<path d="M3063 9073 c-8 -3 -13 -24 -13 -56 0 -97 -30 -235 -56 -262 -23 -23
-54 -19 -54 6 0 23 34 59 57 59 19 0 16 37 -3 44 -20 8 -81 -37 -96 -70 -15
-33 0 -74 34 -93 24 -14 30 -14 62 1 39 19 57 49 75 122 8 32 9 52 2 59 -6 6
-5 15 5 24 8 9 14 34 14 64 0 27 6 58 13 69 10 17 9 22 -3 30 -16 11 -19 11
-37 3z"/>
<path d="M2514 8995 c-66 -33 -113 -80 -96 -97 9 -9 17 -9 26 -3 51 39 113 75
129 75 17 0 17 -2 -4 -40 -33 -58 -78 -110 -96 -110 -35 0 -158 -112 -149
-135 10 -26 41 -16 109 37 l37 30 0 -31 c0 -45 25 -98 49 -106 26 -8 124 44
129 69 5 22 -26 20 -67 -5 -18 -11 -39 -18 -46 -15 -7 2 -14 29 -17 63 -5 56
-4 60 33 101 43 49 79 118 79 150 0 21 -26 42 -52 42 -8 0 -37 -11 -64 -25z"/>
<path d="M6192 8980 c-33 -15 -42 -24 -42 -45 0 -14 5 -25 11 -25 5 0 8 -4 5
-9 -3 -5 1 -14 9 -21 38 -32 4 -75 -57 -73 -35 2 -39 0 -36 -20 2 -18 11 -23
41 -25 20 -2 37 1 37 6 0 5 13 12 29 15 52 11 61 70 19 130 -11 14 -10 19 2
27 8 5 25 10 38 10 27 0 30 25 4 39 -13 7 -30 4 -60 -9z"/>
<path d="M1021 8949 c-41 -41 -51 -71 -29 -85 7 -4 27 11 51 39 l39 47 40 -45
c43 -49 74 -57 100 -27 24 27 49 82 43 92 -13 21 -35 8 -55 -31 -21 -40 -22
-41 -42 -22 -11 10 -26 30 -34 45 -22 43 -62 38 -113 -13z"/>
<path d="M5396 8940 l-46 -42 -10 26 c-7 20 -16 26 -39 26 -16 0 -33 -5 -36
-10 -4 -6 -14 -10 -23 -9 -34 3 -41 -2 -47 -33 -4 -18 -16 -55 -28 -81 -13
-31 -17 -51 -10 -58 17 -17 37 0 66 55 16 29 39 64 53 77 l24 22 0 -47 c0 -70
22 -72 82 -7 44 48 48 50 48 27 0 -28 54 -96 75 -96 27 0 27 22 1 49 -17 18
-28 43 -32 74 -10 71 -25 76 -78 27z"/>
<path d="M5654 8935 c-20 -27 -33 -35 -48 -31 -12 3 -28 1 -36 -4 -13 -8 -13
-11 1 -26 13 -12 15 -23 8 -46 -11 -41 26 -81 74 -76 42 4 42 29 0 42 -18 5
-33 14 -33 20 0 19 30 56 45 56 20 0 47 45 43 71 -5 35 -24 33 -54 -6z"/>
<path d="M6510 8931 c0 -7 -4 -9 -10 -6 -6 4 -10 -8 -10 -29 0 -38 -36 -76
-71 -76 -28 0 -29 46 -1 66 17 13 10 44 -11 44 -23 0 -48 -36 -54 -78 -4 -33
-2 -42 21 -60 27 -21 77 -22 84 -1 2 5 7 7 11 4 15 -8 59 50 66 86 5 26 2 39
-9 48 -12 10 -16 10 -16 2z"/>
<path d="M6663 8928 c-6 -7 -23 -36 -38 -65 -28 -53 -28 -88 0 -77 17 7 50 63
42 71 -10 9 28 39 44 35 22 -5 34 15 19 33 -15 18 -54 19 -67 3z"/>
<path d="M4333 8918 c-26 -12 -31 -36 -22 -98 5 -32 3 -52 -8 -68 -21 -34 -36
-22 -53 43 -25 98 -63 80 -41 -20 14 -62 46 -97 79 -88 15 3 21 11 18 20 -3 8
-1 11 5 8 15 -10 39 14 32 32 -5 12 -3 14 7 8 11 -7 12 5 6 58 -6 62 -5 67 13
67 11 0 23 -4 26 -10 3 -5 15 -10 26 -10 13 0 19 7 19 23 0 19 -8 26 -39 35
-44 14 -40 14 -68 0z"/>
<path d="M5832 8886 c-30 -32 -39 -50 -35 -65 9 -34 36 -43 81 -28 36 12 40
12 51 -5 13 -21 54 -24 70 -5 14 17 -5 38 -26 30 -13 -5 -13 -2 -4 15 6 11 16
24 21 27 13 8 13 42 0 50 -5 3 -29 -10 -54 -29 -46 -35 -83 -52 -93 -43 -3 3
7 16 22 29 55 46 58 50 43 59 -23 15 -35 10 -76 -35z"/>
<path d="M6835 8911 c-41 -24 -85 -78 -85 -102 0 -34 41 -64 106 -78 74 -16
99 -12 99 14 0 16 -8 21 -35 23 -70 5 -81 10 -68 32 7 10 15 18 19 17 13 -4
69 54 69 71 0 43 -53 55 -105 23z m15 -60 c-45 -39 -65 -47 -39 -15 14 17 69
54 79 54 3 0 -15 -18 -40 -39z"/>
<path d="M3700 8908 c-14 -5 -42 -25 -62 -46 -35 -33 -38 -34 -38 -14 0 15 -6
22 -19 22 -14 0 -24 -17 -43 -77 -14 -43 -23 -84 -21 -90 9 -24 32 -13 61 30
31 44 113 129 119 123 2 -2 -5 -26 -16 -54 -17 -44 -18 -52 -5 -62 11 -10 22
-5 58 28 24 22 53 45 64 51 21 11 21 10 16 -33 -6 -39 -4 -46 18 -60 26 -17
68 -11 68 10 0 7 -11 16 -25 20 -14 3 -25 7 -25 8 0 1 7 24 16 50 15 43 15 49
1 63 -13 13 -20 12 -63 -8 -27 -13 -51 -24 -55 -26 -3 -2 -3 12 -1 30 4 39
-10 49 -48 35z"/>
<path d="M3995 8846 c-46 -57 -56 -105 -25 -136 25 -25 56 -22 103 12 43 30
59 75 41 110 -12 23 -59 58 -78 58 -2 0 -21 -20 -41 -44z m74 -30 c20 -24 -20
-76 -58 -76 -17 0 -13 39 7 65 20 28 35 31 51 11z"/>
<path d="M2692 8804 c-42 -36 -56 -74 -27 -74 9 0 32 17 53 37 35 36 37 36 40
15 2 -13 -1 -36 -6 -52 -8 -22 -7 -32 4 -41 20 -16 30 -4 45 52 11 41 10 50
-4 73 -24 36 -55 33 -105 -10z"/>
<path d="M4524 8725 c-11 -27 11 -40 42 -27 31 15 27 36 -9 40 -18 2 -29 -2
-33 -13z"/>
<path d="M1886 8718 c-2 -7 -8 -31 -12 -53 -7 -31 -16 -43 -41 -55 -40 -19
-45 -50 -7 -50 16 0 39 13 61 35 31 31 34 39 31 81 -3 45 -23 72 -32 42z"/>
<path d="M5311 8534 c-23 -29 -30 -101 -9 -88 7 4 8 3 4 -5 -4 -6 7 -46 24
-89 39 -94 49 -185 27 -229 -16 -31 -92 -83 -121 -83 -18 0 -21 35 -6 74 9 24
13 26 50 20 33 -5 40 -4 40 10 0 21 -59 47 -87 40 -23 -6 -50 -58 -59 -113 -5
-32 -2 -43 16 -61 28 -28 66 -21 137 26 102 66 117 164 50 316 -45 101 -50
137 -23 167 9 9 16 23 16 29 0 22 -38 12 -59 -14z"/>
<path d="M2737 8468 c-21 -16 -27 -96 -8 -107 9 -6 10 -17 3 -44 -5 -19 -7
-55 -5 -80 l5 -46 -78 2 c-69 2 -79 0 -82 -17 -5 -22 15 -46 26 -31 4 6 34 9
68 7 l61 -4 -10 -61 c-5 -34 -13 -66 -18 -71 -14 -15 -11 -43 5 -49 23 -9 36
16 54 102 16 78 17 81 45 81 38 0 34 34 -4 38 -26 3 -26 4 -33 117 -4 63 -4
119 -1 125 4 7 19 9 35 5 32 -7 48 9 30 30 -15 18 -70 20 -93 3z m-17 -298 c0
-5 -5 -10 -11 -10 -5 0 -7 5 -4 10 3 6 8 10 11 10 2 0 4 -4 4 -10z"/>
<path d="M6952 8334 c-24 -16 -29 -48 -10 -60 6 -4 17 1 25 12 12 17 25 19
113 16 95 -3 100 -2 100 17 0 16 -6 21 -24 21 -13 0 -31 3 -39 6 -8 3 -21 -1
-28 -9 -15 -15 -43 -12 -33 4 9 15 -80 10 -104 -7z"/>
<path d="M1607 8330 c-42 -13 -57 -29 -57 -61 0 -21 9 -34 41 -56 22 -15 53
-38 67 -50 l27 -22 -37 -15 c-46 -20 -48 -20 -48 -1 0 19 -15 19 -45 -1 -63
-41 2 -78 85 -49 85 30 104 75 50 117 -80 61 -91 71 -87 82 2 6 21 13 43 16
31 4 40 10 42 28 3 18 -1 22 -25 21 -15 0 -41 -5 -56 -9z"/>
<path d="M1700 8321 c0 -23 59 -39 71 -19 12 19 -10 38 -42 38 -22 0 -29 -5
-29 -19z"/>
<path d="M6037 8323 c-15 -14 -5 -44 38 -114 56 -91 71 -134 55 -154 -7 -8
-19 -15 -26 -15 -8 0 -44 -13 -79 -29 -48 -22 -65 -35 -65 -50 0 -27 21 -31
48 -10 13 10 49 28 80 39 78 29 102 46 102 73 0 13 -20 61 -45 107 -25 47 -53
102 -62 123 -15 35 -31 45 -46 30z"/>
<path d="M6803 8263 c-29 -10 -13 -54 38 -103 l52 -49 -34 -20 c-41 -25 -51
-26 -47 -4 5 28 -27 26 -42 -2 -28 -52 20 -80 82 -49 82 41 97 82 48 129 -17
16 -28 35 -26 41 11 27 -40 67 -71 57z"/>
<path d="M4345 8250 c-3 -5 -5 -36 -4 -68 2 -59 -4 -82 -21 -82 -13 0 -37 49
-45 93 -6 31 -11 38 -29 35 -28 -4 -24 -45 12 -118 33 -66 63 -77 102 -35 21
22 25 36 25 87 l-1 60 53 -7 c44 -5 54 -4 59 10 4 10 1 21 -7 26 -19 12 -136
11 -144 -1z"/>
<path d="M1902 8232 c-22 -15 -61 -75 -55 -85 3 -6 1 -7 -4 -4 -6 4 -14 0 -17
-9 -29 -76 52 -141 127 -103 65 33 74 95 24 161 -34 44 -53 54 -75 40z m41
-70 c26 -29 25 -62 -3 -83 -57 -43 -96 16 -49 75 24 31 31 32 52 8z"/>
<path d="M3775 8225 c-38 -19 -75 -73 -75 -108 0 -46 57 -87 120 -87 15 0 30
7 33 15 7 18 -8 29 -29 21 -9 -3 -12 -1 -9 4 3 6 -5 10 -19 10 -24 0 -56 23
-56 40 0 5 12 23 26 40 21 24 32 30 51 25 28 -7 42 17 23 40 -15 19 -27 19
-65 0z"/>
<path d="M4770 8222 c-39 -32 -44 -173 -7 -180 14 -3 17 4 17 47 0 59 15 105
33 98 6 -3 20 -8 29 -12 12 -5 20 -2 24 10 8 21 -4 33 -44 44 -25 7 -36 6 -52
-7z"/>
<path d="M4570 8191 c-33 -22 -56 -47 -58 -59 -2 -12 1 -22 7 -22 6 0 11 -6
11 -13 0 -21 34 -47 62 -47 53 0 89 12 86 29 -3 12 -15 16 -53 16 -38 0 -50 4
-53 16 -2 12 7 19 35 24 46 8 93 32 93 46 0 6 -5 19 -10 30 -16 30 -59 23
-120 -20z"/>
<path d="M3101 8206 c-18 -21 -10 -121 9 -121 11 0 16 13 18 43 3 37 6 42 23
37 10 -3 28 -8 39 -11 15 -4 20 -1 20 15 0 14 -11 25 -36 36 -45 19 -58 19
-73 1z"/>
<path d="M2896 8170 c-24 -22 -46 -51 -48 -65 -10 -49 38 -60 87 -21 l30 24
17 -29 c12 -20 26 -29 43 -29 30 0 33 20 5 45 -11 10 -20 29 -20 42 0 33 -28
73 -51 73 -11 0 -39 -18 -63 -40z m44 -24 c0 -2 -8 -10 -17 -17 -16 -13 -17
-12 -4 4 13 16 21 21 21 13z"/>
<path d="M3997 8181 c-21 -36 -22 -95 -1 -115 32 -32 124 -9 124 31 0 9 -14
38 -31 65 -37 57 -66 63 -92 19z m64 -31 c-12 -7 -12 -11 -2 -24 14 -17 7 -36
-14 -36 -36 0 -30 65 7 67 17 2 19 0 9 -7z"/>
<path d="M4997 8192 c-34 -23 -77 -80 -77 -103 0 -30 39 -69 70 -69 41 0 46
17 10 35 -38 20 -35 36 11 48 43 11 69 34 69 62 0 45 -37 57 -83 27z"/>
<path d="M5724 8196 c-7 -18 14 -49 27 -40 5 3 42 0 81 -6 52 -8 74 -8 82 0
16 17 -16 37 -72 44 -26 4 -62 10 -79 13 -25 4 -34 1 -39 -11z"/>
<path d="M5735 8111 c-30 -16 -38 -32 -22 -47 4 -4 18 -1 32 6 21 11 33 12 68
1 84 -25 87 -25 87 -3 0 14 -12 25 -42 37 -60 24 -89 25 -123 6z"/>
<path d="M5911 8064 c0 -11 3 -14 6 -6 3 7 2 16 -1 19 -3 4 -6 -2 -5 -13z"/>
<path d="M5007 7873 c-33 -5 -47 -31 -24 -47 14 -11 14 -18 1 -71 -8 -33 -15
-95 -15 -139 l-1 -79 -73 7 c-53 5 -80 3 -95 -6 -37 -23 -23 -35 45 -37 39 -1
65 2 65 9 0 5 5 10 11 10 5 0 7 -4 4 -10 -4 -6 5 -10 19 -10 23 0 26 -4 28
-37 3 -62 -1 -106 -12 -117 -5 -5 -10 -18 -10 -29 0 -13 6 -18 23 -15 29 4 46
53 46 134 1 61 1 62 33 68 40 8 42 5 23 -30 -19 -38 -19 -98 1 -118 44 -45
114 6 114 82 0 38 -50 87 -79 77 -13 -4 -21 -2 -21 5 0 6 -5 8 -12 4 -8 -5 -9
-2 -5 9 5 14 0 17 -28 17 l-35 0 0 52 c0 86 20 177 45 204 l23 24 32 -30 c35
-33 58 -38 66 -15 8 19 -40 70 -79 84 -29 11 -39 11 -90 4z m137 -429 c9 -22
-22 -70 -36 -56 -13 13 0 72 17 72 7 0 16 -7 19 -16z"/>
<path d="M6556 7791 c-3 -4 -10 -20 -15 -35 -10 -23 -8 -26 13 -26 23 0 52 42
41 61 -8 11 -32 12 -39 0z"/>
<path d="M4195 7780 c-23 -37 -47 -186 -49 -292 -1 -104 1 -119 20 -145 23
-31 64 -40 108 -23 40 15 27 35 -23 35 -34 0 -45 5 -55 23 -18 34 -10 187 15
294 20 85 20 118 0 118 -5 0 -13 -5 -16 -10z"/>
<path d="M1402 7688 c-5 -7 -13 -34 -17 -59 l-7 -47 -56 29 c-62 31 -87 36
-98 17 -10 -16 50 -64 100 -81 38 -13 41 -16 38 -48 -2 -19 -10 -41 -17 -49
-7 -8 -13 -26 -12 -40 0 -14 -3 -42 -7 -62 -7 -31 -5 -39 10 -45 24 -9 48 29
49 79 1 30 7 45 26 59 35 27 50 20 88 -39 21 -32 41 -52 52 -52 27 0 24 21
-12 92 l-31 62 28 20 c15 12 37 23 48 26 12 4 21 14 21 25 0 18 -6 20 -67 17
l-66 -3 -7 33 c-8 37 -31 78 -44 78 -5 0 -13 -6 -19 -12z"/>
<path d="M6510 7641 c0 -19 18 -31 46 -31 19 0 18 36 -2 44 -28 11 -44 6 -44
-13z"/>
<path d="M5940 7603 c-58 -21 -65 -77 -20 -156 31 -55 37 -82 21 -91 -16 -10
-41 5 -41 25 0 23 -27 36 -42 21 -17 -17 0 -61 33 -81 35 -22 74 -17 94 12 22
31 19 51 -21 128 -40 77 -39 101 3 99 45 -3 53 -1 53 15 0 9 -12 20 -26 25
-28 11 -32 11 -54 3z"/>
<path d="M6172 7584 c-45 -32 -71 -87 -77 -170 -4 -44 -14 -105 -21 -137 -23
-90 -1 -189 38 -175 15 6 28 90 28 180 0 30 4 37 22 40 13 2 35 22 52 46 40
57 48 150 17 200 -24 37 -28 38 -59 16z m32 -60 c12 -31 6 -77 -16 -115 -29
-52 -44 -45 -40 21 5 78 39 137 56 94z"/>
<path d="M5270 7580 c0 -5 -10 -19 -22 -30 -20 -18 -23 -31 -23 -98 0 -70 2
-77 20 -77 21 0 22 4 24 93 1 33 5 45 19 48 23 7 43 49 29 63 -14 14 -47 14
-47 1z"/>
<path d="M6723 7575 c-24 -17 -77 -134 -71 -161 7 -37 33 -19 53 36 27 75 40
94 55 85 22 -14 50 -89 50 -136 0 -32 5 -49 15 -53 46 -17 36 117 -16 198 -30
49 -50 56 -86 31z"/>
<path d="M6345 7547 c-49 -41 -41 -162 10 -162 13 0 21 8 23 23 2 12 -1 22 -7
22 -6 0 -11 18 -11 40 0 42 18 60 60 60 16 0 20 4 16 16 -3 9 -6 18 -6 20 0
14 -63 0 -85 -19z"/>
<path d="M2445 7529 c-59 -13 -85 -28 -85 -49 0 -24 24 -26 60 -5 56 32 60 21
24 -62 -24 -57 -30 -80 -22 -90 15 -19 20 -17 65 22 23 19 43 35 45 35 3 0 25
-20 50 -45 25 -25 54 -45 64 -45 11 0 39 23 63 51 43 50 43 51 32 90 -7 22
-10 43 -7 48 3 5 0 14 -8 20 -11 9 -18 8 -30 -4 -19 -20 -19 -20 -4 -62 11
-30 10 -35 -16 -62 -16 -16 -37 -29 -46 -28 -10 1 -18 4 -17 7 1 3 -7 18 -18
33 -22 35 -52 47 -82 36 l-22 -8 19 42 c28 62 3 92 -65 76z"/>
<path d="M1916 7506 c-23 -25 -24 -25 -29 -6 -5 19 -37 29 -37 13 -1 -12 -10
-144 -13 -173 -2 -30 30 -41 39 -13 17 49 64 143 72 143 15 0 22 -40 16 -100
-7 -65 8 -113 34 -108 15 3 17 14 14 103 -5 145 -42 199 -96 141z"/>
<path d="M2183 7514 c-18 -9 -41 -34 -54 -59 -21 -39 -22 -47 -10 -85 16 -55
54 -90 97 -90 46 0 64 9 64 32 0 18 -4 19 -35 14 -29 -6 -39 -3 -60 18 -30 30
-32 46 -6 46 25 0 81 65 81 93 0 24 -17 47 -34 47 -6 0 -25 -7 -43 -16z m17
-59 c-7 -8 -17 -15 -23 -15 -5 0 -2 9 8 20 21 23 35 19 15 -5z"/>
<path d="M3844 7518 c-46 -22 -58 -92 -19 -110 22 -10 30 -8 55 10 29 22 29
22 40 3 13 -26 47 -36 66 -20 13 11 11 16 -16 40 -16 15 -30 35 -30 44 0 12
-58 48 -72 44 -2 0 -13 -5 -24 -11z"/>
<path d="M3392 7505 c-37 -16 -62 -64 -62 -118 0 -62 51 -77 100 -29 l29 29
15 -70 c23 -103 24 -101 -32 -93 -56 7 -108 -8 -123 -36 -31 -58 59 -198 128
-198 24 0 57 34 51 52 -3 7 2 18 9 23 8 6 17 29 20 52 5 40 7 41 31 32 14 -5
31 -8 39 -5 25 10 13 34 -22 46 -29 10 -35 17 -40 48 -11 66 -37 176 -50 209
-11 26 -11 32 1 37 7 3 11 12 8 21 -8 19 -58 19 -102 0z m38 -45 c0 -26 -30
-80 -44 -80 -19 0 -20 9 -5 47 13 36 49 60 49 33z m57 -294 c9 -9 -13 -92 -32
-119 -14 -20 -15 -19 -49 15 -36 36 -53 77 -42 104 5 13 17 16 61 12 30 -3 58
-8 62 -12z"/>
<path d="M3616 7488 c-23 -33 -20 -81 7 -106 44 -41 93 -22 103 40 5 30 2 41
-19 62 -32 32 -71 34 -91 4z m64 -53 c0 -25 -23 -35 -35 -15 -10 16 2 40 20
40 9 0 15 -9 15 -25z"/>
<path d="M6476 7435 c-6 -16 7 -60 21 -68 20 -12 32 10 26 46 -4 26 -11 37
-23 37 -10 0 -20 -7 -24 -15z"/>
<path d="M3985 7050 c-33 -4 -83 -5 -111 -2 -55 5 -75 -8 -54 -33 8 -9 37 -15
86 -17 l74 -3 -60 -50 c-78 -64 -76 -80 9 -80 59 0 65 -2 87 -31 20 -26 22
-35 14 -63 -5 -19 -16 -43 -24 -56 -33 -51 -186 -34 -186 21 0 35 -37 33 -46
-3 -6 -22 -2 -31 26 -55 41 -34 82 -43 156 -33 70 8 97 33 114 103 15 64 10
87 -29 130 -22 23 -39 32 -61 32 l-32 0 29 23 c15 13 50 38 76 56 31 21 47 39
45 49 -4 20 -29 22 -113 12z"/>
<path d="M6700 6983 c-29 -11 -50 -36 -50 -60 0 -22 19 -44 110 -122 l35 -30
-31 -1 c-17 0 -48 11 -69 26 -25 17 -41 22 -48 15 -39 -39 100 -107 167 -81
51 19 32 53 -87 159 -15 13 -27 29 -27 36 0 17 57 27 81 14 15 -7 21 -6 25 6
12 31 -4 45 -48 44 -24 0 -50 -3 -58 -6z"/>
<path d="M6044 6921 c-42 -26 -61 -79 -45 -131 13 -44 42 -73 65 -64 22 8 20
26 -4 47 -42 36 -14 127 34 112 39 -12 50 -10 54 8 2 12 -7 22 -32 32 -43 18
-35 19 -72 -4z"/>
<path d="M6292 6903 c-45 -40 -80 -133 -50 -133 6 0 19 -7 29 -15 20 -19 140
-39 176 -30 l26 6 -33 20 c-20 12 -46 19 -66 17 -18 -1 -39 3 -46 10 -9 9 -9
12 4 12 9 0 33 15 52 34 26 24 34 39 30 52 -21 59 -73 70 -122 27z m78 -32 c0
-9 -60 -51 -72 -51 -3 0 -5 11 -5 25 0 13 3 22 8 20 4 -3 10 -1 14 5 8 13 55
13 55 1z"/>
<path d="M2767 6883 c-4 -3 -7 -17 -7 -29 0 -13 -5 -26 -11 -30 -25 -15 13
-167 41 -162 12 3 16 20 18 80 2 68 5 76 20 71 9 -4 25 -16 34 -28 14 -16 19
-17 27 -6 7 11 9 11 14 0 4 -10 6 -9 6 3 1 10 -24 37 -56 63 -57 44 -73 51
-86 38z"/>
<path d="M5540 6883 c-32 -13 -31 -33 5 -117 20 -46 14 -54 -28 -37 -47 19
-61 18 -65 -2 -3 -12 9 -23 40 -37 50 -23 79 -25 96 -8 18 18 14 74 -8 118
l-20 40 30 -6 c25 -6 30 -3 30 13 0 11 -11 25 -25 31 -28 13 -32 13 -55 5z"/>
<path d="M1480 6862 c-68 -37 -121 -165 -91 -220 16 -29 56 -48 116 -56 69 -8
120 4 120 29 0 18 -6 20 -62 17 -79 -5 -131 12 -139 43 -7 28 24 103 56 135
17 17 30 20 66 17 38 -4 44 -2 44 13 0 22 -5 25 -45 34 -20 4 -41 0 -65 -12z"/>
<path d="M2154 6865 c-7 -17 0 -116 12 -174 12 -57 -14 -27 -58 65 -21 46 -42
84 -46 84 -4 0 -14 -4 -22 -10 -12 -7 -11 -15 9 -54 12 -26 27 -43 33 -40 6 4
8 -1 4 -13 -4 -13 4 -33 24 -61 37 -52 65 -68 87 -50 13 10 14 26 10 83 -4 38
-9 87 -13 108 l-7 38 44 -3 c38 -3 44 0 44 17 0 17 -8 20 -58 23 -45 2 -59 0
-63 -13z"/>
<path d="M2409 6841 c-32 -32 -39 -46 -39 -78 0 -31 7 -45 33 -70 43 -42 127
-69 176 -57 59 15 47 38 -24 45 -105 10 -149 39 -90 59 63 21 82 82 39 124
-25 26 -54 19 -95 -23z m71 -31 c0 -13 -9 -22 -25 -26 -35 -9 -42 1 -20 26 23
26 45 26 45 0z"/>
<path d="M5864 6833 c17 -66 18 -84 6 -98 -18 -21 -67 -18 -91 6 -19 19 -19
29 -2 75 2 6 -2 16 -10 23 -20 16 -38 -9 -44 -62 -5 -39 -2 -46 27 -70 44 -38
123 -40 153 -5 34 40 15 158 -26 158 -16 0 -18 -5 -13 -27z"/>
<path d="M1840 6821 c-55 -16 -83 -128 -42 -172 15 -16 33 -22 62 -22 76 0
119 56 99 127 -15 56 -63 83 -119 67z m18 -63 c10 -10 17 -10 31 -1 16 10 20
9 25 -3 20 -52 -8 -88 -62 -82 -29 3 -39 29 -28 74 7 27 16 30 34 12z m102
-38 c0 -5 -4 -10 -9 -10 -6 0 -13 5 -16 10 -3 6 1 10 9 10 9 0 16 -4 16 -10z"/>
<path d="M4620 6817 c-9 -7 -24 -23 -33 -37 -9 -13 -17 -19 -17 -12 0 6 -8 12
-19 12 -16 0 -20 -10 -24 -62 -3 -35 -7 -72 -9 -83 -2 -12 3 -21 14 -23 13 -2
28 17 58 77 22 45 43 81 46 81 4 0 3 -25 -1 -55 -5 -47 -4 -56 11 -62 13 -5
28 5 55 36 39 46 47 44 58 -12 8 -38 33 -56 55 -38 14 12 14 16 1 34 -8 11
-22 44 -31 73 -24 76 -38 77 -88 9 -15 -20 -15 -19 -16 5 0 25 -25 70 -38 70
-4 0 -14 -6 -22 -13z"/>
<path d="M4918 6775 c-46 -41 -59 -65 -38 -65 6 0 10 -7 10 -16 0 -9 15 -31
34 -50 26 -26 43 -34 69 -34 39 0 67 23 45 36 -7 5 -21 7 -31 6 -20 -4 -67 23
-67 38 0 6 9 10 20 10 29 0 68 20 72 39 3 9 1 31 -4 49 -13 47 -50 43 -110
-13z m72 -10 c0 -8 -7 -15 -16 -15 -14 0 -14 3 -4 15 7 8 14 15 16 15 2 0 4
-7 4 -15z"/>
<path d="M5208 6790 c-29 -22 -53 -73 -45 -94 10 -27 41 -36 69 -22 24 13 27
12 37 -10 15 -33 51 -47 71 -27 13 13 13 16 -6 32 -18 15 -21 25 -17 63 5 44
4 47 -25 62 -40 21 -54 20 -84 -4z m32 -55 c-27 -29 -37 -27 -20 4 6 12 18 21
27 21 13 0 12 -5 -7 -25z"/>
<path d="M6445 6760 c3 -5 11 -10 16 -10 6 0 7 5 4 10 -3 6 -11 10 -16 10 -6
0 -7 -4 -4 -10z"/>
<path d="M3360 6523 c-36 -14 -39 -62 -10 -173 11 -41 20 -80 20 -87 0 -7 -16
-15 -36 -19 -21 -4 -41 -16 -50 -30 -36 -53 -25 -162 18 -185 49 -26 92 13
113 104 13 56 12 86 -4 157 -29 124 -39 175 -35 181 2 4 13 5 23 2 30 -8 37
18 11 39 -24 19 -26 20 -50 11z m17 -357 c-15 -106 -62 -133 -62 -36 0 48 3
56 25 67 39 20 43 16 37 -31z"/>
<path d="M6045 6458 c-34 -73 -44 -82 -65 -63 -24 22 -91 47 -107 41 -9 -4
-13 -14 -10 -26 3 -11 -5 -32 -18 -50 -31 -41 -39 -94 -26 -164 l10 -57 -64
-124 c-69 -132 -82 -185 -45 -185 25 0 62 57 56 84 -5 19 13 61 61 143 24 41
26 42 46 28 31 -22 72 -18 116 9 83 53 102 115 58 192 -30 51 -39 84 -23 84
17 0 78 105 74 127 -7 39 -33 23 -63 -39z m-100 -88 c3 -5 13 -7 23 -4 10 4
13 2 7 -3 -5 -4 -10 -12 -10 -18 0 -16 -86 -145 -96 -145 -5 0 -9 25 -9 55 0
47 4 59 31 90 32 36 44 42 54 25z m86 -131 c11 -34 10 -42 -11 -73 -27 -39
-82 -61 -112 -45 -23 13 -23 17 7 60 13 20 21 39 18 43 -4 3 -1 6 5 6 5 0 20
16 32 35 26 42 43 35 61 -26z"/>
<path d="M6491 6493 c-21 -17 -21 -19 -6 -63 9 -25 19 -71 24 -103 l8 -57 -38
-10 c-73 -20 -114 -104 -85 -174 16 -40 48 -60 77 -51 24 8 85 128 74 145 -4
6 -2 16 3 23 8 10 10 112 2 127 -1 3 -2 14 -1 25 1 11 -5 39 -13 61 -10 29
-11 45 -4 52 12 12 4 42 -11 42 -5 0 -18 -8 -30 -17z m22 -293 c3 -11 2 -20
-3 -20 -4 0 -10 -9 -13 -20 -3 -11 -1 -20 4 -20 5 0 9 -4 9 -10 0 -5 -4 -9 -9
-7 -4 1 -18 -9 -29 -23 -18 -21 -23 -23 -32 -10 -18 28 -11 79 15 105 29 30
51 32 58 5z"/>
<path d="M2473 6392 c2 -21 1 -74 -3 -118 -8 -74 -7 -80 13 -97 16 -13 17 -16
5 -11 -15 5 -18 0 -18 -24 0 -69 55 -75 99 -11 26 38 41 48 41 28 0 -24 43
-69 73 -77 36 -10 67 1 67 24 0 9 -7 14 -17 13 -38 -6 -61 13 -87 66 -14 31
-32 55 -41 55 -8 0 -30 -22 -47 -50 -18 -27 -37 -50 -42 -50 -5 0 -6 52 -3
123 8 139 3 167 -25 167 -18 0 -20 -5 -15 -38z"/>
<path d="M5631 6413 c-13 -26 -19 -163 -6 -163 6 0 5 -3 -1 -8 -14 -9 -40
-182 -31 -206 4 -10 15 -16 24 -14 14 3 18 15 19 60 1 31 5 61 8 66 3 6 9 54
12 109 4 54 11 108 15 121 5 13 9 30 9 38 0 20 -37 18 -49 -3z"/>
<path d="M4684 6375 c-26 -34 -32 -60 -33 -137 l-1 -38 -56 0 c-61 0 -94 -13
-94 -36 0 -13 13 -15 76 -12 l76 3 -7 -58 c-3 -32 -11 -69 -17 -82 -6 -13 -8
-31 -4 -40 11 -30 43 1 56 56 11 47 11 54 -4 65 -10 7 -13 15 -7 18 5 3 12 0
14 -6 3 -7 6 2 6 20 1 32 2 33 31 27 23 -5 32 -3 36 10 8 20 -11 35 -45 35
-23 0 -24 2 -18 59 5 63 32 115 53 107 8 -4 20 -9 28 -12 22 -9 28 34 6 46
-37 20 -68 11 -96 -25z"/>
<path d="M1626 6319 c-14 -11 -34 -35 -43 -52 -9 -18 -23 -37 -32 -43 -13 -10
-12 -17 10 -60 16 -31 32 -48 42 -48 10 1 17 -4 17 -11 0 -16 32 -25 95 -25
101 0 105 42 5 44 -68 2 -110 17 -110 40 0 7 13 16 28 19 51 10 77 40 75 87
-3 70 -36 89 -87 49z m44 -48 c0 -20 -14 -34 -42 -44 -16 -6 -16 -4 -1 28 18
38 43 47 43 16z"/>
<path d="M1915 6285 c-46 -45 -20 -105 47 -105 18 0 29 -6 33 -20 6 -19 52
-50 75 -50 5 0 10 7 10 16 0 9 5 12 13 8 8 -5 8 -2 -2 9 -7 9 -22 17 -32 17
-21 0 -36 37 -20 53 19 19 12 55 -15 76 -36 28 -79 27 -109 -4z m90 -36 c8
-12 -31 -30 -49 -23 -19 7 -20 16 -5 31 11 11 46 6 54 -8z"/>
<path d="M7009 6235 c-16 -36 -28 -68 -27 -72 3 -15 -26 -63 -36 -60 -6 2 -21
38 -34 80 -18 62 -27 77 -43 77 -10 0 -19 -4 -19 -10 0 -24 25 -100 33 -100 4
0 6 -4 2 -10 -8 -13 21 -79 39 -86 11 -4 7 -22 -22 -92 -21 -48 -52 -113 -69
-144 -37 -65 -41 -88 -15 -88 28 0 135 215 182 365 7 22 23 64 36 93 13 29 24
57 24 62 0 6 5 10 10 10 6 0 10 9 10 20 0 14 -7 20 -21 20 -15 0 -27 -16 -50
-65z"/>
<path d="M2177 6259 c-43 -33 -61 -75 -47 -110 19 -44 49 -33 41 15 -6 33 43
76 87 76 20 0 36 23 25 34 -14 14 -80 4 -106 -15z"/>
<path d="M6670 6231 c-42 -46 -56 -95 -36 -126 21 -32 56 -32 95 1 21 18 31
21 31 12 0 -22 47 -61 64 -55 22 9 20 26 -5 46 -15 12 -23 32 -26 68 -5 46 -8
51 -42 64 -20 8 -39 15 -44 17 -4 2 -20 -10 -37 -27z m59 -30 c12 -8 12 -13
-2 -35 -23 -34 -57 -53 -57 -30 0 17 31 74 40 74 3 0 11 -4 19 -9z"/>
<path d="M3591 6213 c-45 -55 -55 -89 -31 -113 16 -16 24 -18 50 -9 16 6 32
15 35 19 3 4 20 -7 39 -26 35 -35 59 -43 72 -22 4 7 -6 22 -25 38 -28 24 -32
33 -32 83 -1 48 -4 56 -23 61 -40 11 -55 6 -85 -31z m54 -43 c-33 -35 -44 -38
-42 -11 0 11 5 17 9 15 5 -3 11 2 14 10 3 9 16 16 27 16 19 0 19 -2 -8 -30z"/>
<path d="M3953 6238 c-5 -7 -22 -34 -37 -60 -15 -27 -29 -48 -32 -48 -13 0
-53 38 -47 44 3 3 -4 6 -16 6 -12 0 -19 4 -16 10 4 6 11 8 16 5 5 -4 5 3 0 17
-11 30 -51 38 -51 9 0 -27 39 -91 72 -119 21 -18 27 -30 23 -50 -3 -15 -2 -21
1 -14 4 9 9 10 19 2 10 -8 17 -3 29 21 9 18 16 38 16 46 0 7 16 35 35 63 20
28 32 56 29 65 -7 18 -28 20 -41 3z"/>
<path d="M4979 6203 c-24 -6 -39 -47 -39 -103 0 -39 4 -52 19 -60 25 -13 35 2
26 37 -3 14 -3 39 0 55 7 28 10 29 48 26 33 -2 42 1 45 14 5 27 -50 45 -99 31z"/>
<path d="M4805 6176 c-50 -50 -40 -132 20 -168 61 -35 103 5 84 79 -12 41 -56
113 -71 113 -5 0 -20 -11 -33 -24z m55 -84 c16 -47 11 -59 -19 -42 -16 8 -21
20 -21 51 0 52 20 48 40 -9z"/>
<path d="M2264 6139 c-4 -6 -20 -8 -39 -5 -25 5 -34 3 -39 -10 -9 -23 1 -31
55 -38 38 -6 48 -3 63 13 10 11 16 27 13 36 -7 17 -43 20 -53 4z"/>
<path d="M3826 5939 c-17 -71 -9 -125 17 -117 17 6 21 66 6 84 -10 12 -10 15
0 12 10 -2 37 57 41 88 0 1 -11 2 -24 2 -23 0 -26 -7 -40 -69z"/>
<path d="M1389 5883 c-11 -12 -13 -48 -11 -156 l3 -140 -56 6 c-66 7 -108 -5
-103 -30 2 -13 18 -17 82 -20 43 -1 80 -4 82 -6 2 -2 6 -53 8 -114 3 -116 7
-133 33 -133 13 0 15 17 10 129 l-5 129 56 11 c96 19 94 21 92 -56 -4 -118 -2
-125 21 -121 14 2 29 22 48 65 l27 63 18 -56 c17 -55 38 -76 58 -56 6 6 5 19
-5 38 -8 16 -18 50 -22 76 -12 80 -49 88 -85 20 l-17 -32 -7 38 c-8 52 -8 64
4 57 7 -4 9 12 6 47 -3 29 -5 77 -5 106 -1 42 -4 52 -18 53 -15 0 -15 2 -3 7
10 5 15 21 15 47 0 39 -3 41 -36 37 -8 -2 -9 -43 -4 -142 l8 -140 -34 -1 c-35
-1 -56 -4 -95 -13 -19 -5 -22 -1 -28 37 -12 80 -9 202 5 225 12 20 12 24 -1
32 -21 13 -25 12 -41 -7z"/>
<path d="M5140 5848 c0 -20 -60 -142 -66 -135 -3 3 -7 13 -8 24 -7 45 -72 20
-102 -39 -16 -31 -19 -115 -4 -152 7 -20 3 -39 -21 -92 -20 -44 -29 -78 -27
-102 4 -50 30 -49 40 1 4 21 17 60 28 86 l21 48 53 -5 c58 -5 108 14 126 47
24 47 3 117 -48 156 -10 8 -7 21 17 65 37 66 41 110 11 110 -11 0 -20 -6 -20
-12z m-101 -178 c10 0 -31 -89 -41 -90 -10 0 -10 62 -2 85 4 9 13 14 21 11 8
-3 18 -6 22 -6z m90 -46 c27 -34 26 -50 -4 -79 -24 -25 -78 -34 -90 -15 -5 9
26 81 47 108 15 18 24 15 47 -14z"/>
<path d="M4789 5775 c-3 -2 -48 -6 -100 -7 -93 -2 -112 -8 -102 -35 4 -9 26
-13 76 -13 l71 0 -32 -29 c-52 -48 -40 -101 24 -101 50 0 64 -9 64 -42 0 -61
-95 -120 -164 -102 -21 5 -25 11 -20 29 8 30 -13 41 -37 19 -54 -49 3 -100
103 -91 157 14 235 203 93 226 -21 3 -38 11 -38 16 -1 6 21 25 49 42 95 63 96
63 83 79 -11 13 -60 20 -70 9z"/>
<path d="M5720 5725 c0 -19 3 -35 8 -35 4 0 8 -45 9 -100 2 -60 -1 -100 -7
-100 -25 0 -7 -53 31 -95 86 -93 174 -77 194 37 20 106 -75 180 -145 113 l-27
-26 -7 91 c-10 129 -15 150 -37 150 -15 0 -19 -7 -19 -35z m174 -211 c25 -24
29 -58 12 -98 -18 -43 -48 -48 -90 -15 -34 27 -33 46 5 92 33 40 49 45 73 21z"/>
<path d="M7097 5725 c-9 -21 28 -63 43 -49 16 16 2 64 -20 64 -10 0 -20 -7
-23 -15z"/>
<path d="M3795 5653 c-42 -22 -65 -44 -65 -62 0 -8 21 -46 46 -84 51 -75 53
-94 6 -46 -31 32 -52 32 -52 -1 0 -24 55 -70 85 -70 69 0 72 34 10 126 -25 36
-45 68 -45 70 0 2 18 15 41 29 60 39 38 72 -26 38z"/>
<path d="M1842 5628 c4 -27 33 -36 42 -13 8 22 -1 35 -25 35 -15 0 -20 -6 -17
-22z"/>
<path d="M3564 5621 c-18 -11 -35 -25 -39 -32 -6 -8 -13 -5 -25 11 -28 37 -39
17 -37 -68 2 -68 4 -77 22 -77 13 0 21 10 27 32 10 38 72 107 90 101 9 -3 13
-27 14 -72 0 -37 6 -72 12 -78 22 -22 32 4 32 87 0 114 -25 139 -96 96z"/>
<path d="M2823 5614 c-7 -3 -22 -21 -34 -41 l-22 -35 -14 31 c-20 40 -51 50
-73 23 -11 -13 -24 -18 -41 -15 -24 4 -24 4 -23 -82 1 -47 4 -88 7 -91 9 -9
37 4 41 18 23 85 38 128 45 128 5 0 12 -20 15 -45 10 -62 34 -60 77 7 l33 52
13 -64 c15 -71 24 -86 48 -76 12 4 15 13 11 29 -4 12 -11 47 -17 77 -17 84
-28 99 -66 84z"/>
<path d="M6483 5601 c-49 -30 -52 -59 -11 -95 19 -17 50 -40 69 -51 l34 -19
-28 -4 c-16 -2 -38 3 -50 11 -27 17 -47 12 -47 -12 0 -33 78 -55 135 -40 63
18 53 62 -23 105 -71 41 -74 44 -61 61 8 9 22 11 44 7 40 -7 54 10 29 37 -22
24 -50 24 -91 0z"/>
<path d="M3271 5575 c-36 -41 -39 -65 -11 -90 19 -17 53 -17 92 -1 11 5 18 1
22 -12 8 -24 35 -37 50 -22 7 7 7 16 -2 30 -6 11 -12 33 -12 50 0 19 -7 33
-20 40 -11 6 -20 17 -20 25 0 10 -11 15 -34 15 -26 0 -41 -8 -65 -35z m89 -20
c0 -19 -56 -49 -65 -34 -9 14 24 49 47 49 10 0 18 -7 18 -15z"/>
<path d="M7115 5601 c-3 -6 -4 -15 -1 -20 4 -5 7 -35 7 -66 1 -40 6 -58 16
-62 21 -8 32 14 27 51 -3 17 -6 47 -7 66 -3 35 -28 53 -42 31z"/>
<path d="M3047 5582 c-10 -10 -17 -24 -17 -31 0 -6 -6 -11 -12 -10 -28 3 -38
-2 -38 -21 0 -15 7 -20 25 -20 14 0 29 -8 35 -20 13 -25 109 -90 132 -90 37 0
23 23 -46 74 l-40 30 35 11 c27 9 35 18 37 40 3 19 -2 33 -14 42 -26 19 -78
16 -97 -5z m53 -32 c-20 -13 -33 -13 -25 0 3 6 14 10 23 10 15 0 15 -2 2 -10z"/>
<path d="M6245 5588 c-30 -17 -34 -27 -29 -74 6 -64 21 -96 42 -92 17 4 18 7
6 84 -7 47 8 60 52 44 35 -14 40 -13 41 10 3 35 -69 52 -112 28z"/>
<path d="M1993 5570 c-41 -25 -41 -41 0 -87 52 -59 78 -101 68 -107 -5 -4 -22
9 -37 29 -29 39 -54 46 -54 15 0 -29 68 -100 96 -100 59 0 50 87 -16 163 -35
40 -38 47 -24 55 9 5 25 7 34 5 23 -6 35 14 20 32 -17 21 -49 19 -87 -5z"/>
<path d="M6052 5565 c-30 -13 -52 -47 -52 -81 0 -9 14 -29 30 -46 28 -27 36
-30 76 -25 43 4 45 4 64 -32 24 -49 47 -68 62 -53 9 9 5 24 -14 59 -14 27 -29
69 -32 94 -10 71 -73 110 -134 84z m60 -52 c39 -35 11 -77 -38 -55 -26 12 -32
40 -12 60 16 16 28 15 50 -5z"/>
<path d="M1815 5499 c-10 -15 6 -153 18 -161 11 -7 37 13 30 24 -2 4 -6 35 -8
69 -3 33 -7 65 -11 70 -7 12 -21 11 -29 -2z"/>
<path d="M6817 5282 c-9 -10 -28 -44 -42 -76 -17 -40 -30 -56 -40 -53 -49 20
-145 -57 -165 -133 -13 -48 -8 -69 32 -133 l30 -47 -41 -86 c-41 -86 -49 -118
-32 -128 14 -9 42 4 39 18 -2 6 15 49 36 96 38 85 39 86 71 82 19 -2 50 1 70
8 29 10 34 14 24 26 -7 8 -9 18 -5 21 4 4 11 1 16 -7 21 -33 80 60 80 126 0
32 -7 45 -50 86 l-51 49 27 59 c14 32 32 61 40 64 20 8 17 23 -5 35 -14 8 -22
6 -34 -7z m-117 -282 c-43 -119 -44 -120 -69 -79 -26 42 -27 85 -3 124 16 25
26 30 60 31 l41 1 -29 -77z m133 28 c24 -32 16 -75 -19 -118 -25 -29 -92 -56
-106 -42 -4 4 10 53 30 109 35 96 38 101 57 89 10 -7 28 -24 38 -38z"/>
<path d="M5110 5265 c-13 -15 -11 -70 6 -174 6 -39 6 -40 -27 -43 -38 -3 -79
-53 -79 -95 0 -42 27 -93 57 -104 92 -35 122 61 88 281 -10 67 -11 98 -3 107
13 16 3 43 -15 43 -8 0 -20 -7 -27 -15z m20 -299 c0 -27 -7 -52 -18 -66 -17
-21 -19 -21 -35 -5 -35 34 -15 115 28 115 23 0 25 -4 25 -44z"/>
<path d="M4257 5181 c-58 -61 -66 -78 -45 -99 13 -13 38 1 38 22 0 7 16 27 35
46 38 37 43 29 20 -34 -7 -21 -11 -46 -8 -55 4 -12 2 -13 -4 -3 -7 9 -15 2
-28 -27 -10 -22 -26 -43 -36 -46 -51 -17 -101 -137 -63 -152 13 -5 26 4 51 32
18 21 31 40 29 44 -2 3 2 11 9 18 11 10 19 5 40 -22 14 -19 35 -40 46 -45 22
-12 59 -5 59 11 0 16 -24 36 -37 32 -6 -2 -25 15 -41 39 l-30 43 30 59 c30 60
49 144 41 177 -10 36 -48 22 -106 -40z"/>
<path d="M4618 5223 c-8 -10 -22 -31 -32 -47 -16 -25 -22 -28 -56 -22 -43 7
-58 -5 -83 -72 -22 -55 -21 -90 2 -146 11 -24 16 -46 11 -48 -13 -4 -38 -132
-32 -163 4 -26 27 -44 39 -32 3 3 6 32 8 64 3 79 12 107 33 97 10 -4 41 -8 70
-8 48 -1 57 2 82 31 16 18 34 52 41 75 15 57 -9 136 -52 172 l-30 26 20 29
c24 33 27 61 8 61 -8 0 -21 -8 -29 -17z m-78 -127 c0 -2 -13 -33 -30 -68 -18
-38 -31 -55 -31 -43 -5 63 -3 82 11 98 12 15 50 25 50 13z m102 -36 c51 -101
-27 -219 -108 -165 -29 19 -28 24 23 133 39 83 57 90 85 32z"/>
<path d="M6455 5223 c-44 -22 -93 -72 -122 -122 -34 -56 -39 -180 -10 -224 41
-63 136 -88 177 -47 30 30 25 67 -14 106 -30 30 -40 34 -85 34 -50 0 -51 1
-51 30 0 66 54 146 122 181 35 18 44 19 70 8 23 -9 32 -9 41 0 9 10 7 17 -12
32 -28 23 -75 24 -116 2z m-7 -309 c28 -19 26 -58 -3 -62 -21 -2 -85 32 -85
45 0 9 37 30 55 32 6 0 21 -6 33 -15z"/>
<path d="M1635 5220 c-4 -6 -9 -35 -12 -65 -5 -47 -3 -55 11 -55 9 0 16 -4 16
-10 0 -5 -7 -7 -17 -3 -14 6 -15 -1 -11 -54 5 -55 4 -63 -17 -81 -27 -24 -42
-101 -25 -132 17 -31 75 -54 101 -39 19 10 20 16 13 57 -4 26 -8 63 -9 82 0
19 -4 40 -7 46 -13 20 -20 159 -10 202 9 37 8 44 -8 52 -13 7 -21 7 -25 0z m4
-404 c-9 -8 -10 -8 -5 1 3 6 2 14 -4 18 -12 7 -14 68 -2 79 4 4 11 -14 15 -40
6 -33 4 -50 -4 -58z"/>
<path d="M3068 5212 c-25 -29 9 -37 154 -36 107 1 142 4 149 15 4 8 5 17 1 21
-4 4 -72 8 -150 10 -109 2 -146 0 -154 -10z"/>
<path d="M3195 5120 c-10 -16 6 -270 17 -270 5 0 3 -7 -6 -15 -10 -10 -35 -15
-80 -15 -59 0 -66 -2 -66 -20 0 -14 7 -20 23 -21 37 0 301 -1 315 0 17 1 15
28 -4 35 -9 3 -45 6 -80 6 -43 0 -66 4 -69 13 -3 6 -6 75 -7 152 -3 121 -5
140 -20 143 -9 2 -19 -2 -23 -8z"/>
<path d="M5617 5116 c-9 -9 -21 -42 -27 -74 -19 -90 -24 -93 -59 -36 -39 64
-49 74 -66 74 -23 0 -18 -20 22 -88 28 -48 44 -65 65 -69 23 -5 26 -8 14 -17
-8 -6 -24 -47 -36 -91 -12 -44 -26 -93 -31 -109 -5 -16 -9 -42 -9 -57 0 -23 5
-29 21 -29 19 0 21 4 15 30 -3 18 -2 29 3 25 5 -3 15 21 21 52 6 32 18 76 25
98 21 60 46 154 50 186 2 16 11 43 19 61 14 27 14 34 3 46 -12 11 -17 11 -30
-2z"/>
<path d="M5834 5110 c-28 -11 -74 -67 -74 -91 0 -12 18 -32 45 -51 25 -18 45
-35 45 -40 0 -4 -18 -8 -39 -8 -37 0 -55 11 -56 34 0 19 -24 16 -39 -5 -21
-31 -5 -56 46 -69 51 -14 99 -6 123 20 24 26 9 61 -40 92 -19 13 -35 29 -35
36 0 11 47 46 75 55 6 2 4 11 -4 20 -15 19 -17 19 -47 7z"/>
<path d="M5293 5065 c-28 -19 -53 -93 -42 -123 11 -30 53 -29 85 3 29 29 34
30 34 11 0 -25 34 -57 49 -47 13 8 12 15 -2 48 -9 21 -20 54 -25 73 -6 26 -14
35 -30 35 -11 0 -24 4 -28 8 -10 10 -17 9 -41 -8z m30 -65 c-16 -28 -33 -39
-33 -22 0 13 31 52 41 52 6 0 2 -13 -8 -30z"/>
<path d="M2336 5020 c-60 -18 -60 -48 -1 -106 29 -28 45 -52 45 -68 0 -22 -2
-23 -37 -16 -20 5 -45 19 -54 31 -10 14 -22 20 -33 16 -66 -25 73 -115 143
-92 46 14 33 97 -26 157 l-37 38 38 0 c33 0 37 3 34 23 -3 25 -27 31 -72 17z"/>
<path d="M3468 4980 c-21 -30 -23 -30 -30 -10 -5 13 -15 20 -25 18 -15 -3 -18
-13 -15 -63 6 -119 28 -127 73 -27 l31 67 24 -47 c13 -26 28 -49 34 -53 6 -4
8 -11 5 -16 -4 -5 8 -9 24 -9 24 0 31 4 31 20 0 11 -7 23 -15 27 -9 3 -29 32
-46 64 -34 68 -56 75 -91 29z"/>
<path d="M2141 4983 c-10 -20 -36 -134 -33 -146 2 -5 -2 -6 -8 -2 -6 3 -8 10
-6 14 3 4 -8 22 -24 39 -16 18 -27 32 -24 32 2 0 -3 11 -12 25 -18 28 -42 33
-50 11 -7 -18 72 -127 96 -133 19 -5 34 -40 20 -45 -17 -6 -41 -179 -27 -196
17 -22 31 4 44 81 12 75 56 275 68 315 6 18 4 22 -13 22 -12 0 -25 -8 -31 -17z"/>
<path d="M1791 4954 c-22 -28 -27 -69 -12 -93 6 -10 20 -12 45 -8 32 5 38 2
53 -23 19 -34 55 -55 77 -47 23 9 20 31 -6 42 -13 6 -32 29 -43 53 -21 45 -37
51 -73 26 -24 -17 -27 -13 -11 17 8 16 17 19 39 14 39 -9 53 1 40 26 -17 30
-83 26 -109 -7z"/>
<path d="M2580 4791 c0 -23 28 -35 46 -20 19 15 6 39 -22 39 -17 0 -24 -6 -24
-19z"/>
<path d="M3487 4639 c-23 -13 -22 -64 3 -159 11 -41 20 -77 20 -80 0 -4 -15
-4 -33 -2 -45 5 -78 -32 -84 -95 -4 -39 -1 -53 17 -75 40 -51 117 -31 146 38
11 27 12 48 4 99 -6 35 -12 70 -15 77 -17 44 -33 153 -25 169 13 23 -9 41 -33
28z m31 -339 c-2 -26 -10 -38 -31 -50 -26 -14 -29 -14 -43 5 -16 21 -13 68 6
91 8 9 18 9 41 1 26 -10 30 -16 27 -47z"/>
<path d="M6035 4551 c-3 -6 -1 -27 3 -49 6 -23 6 -46 0 -55 -10 -18 -12 -252
-3 -267 3 -6 14 -10 23 -10 15 0 17 18 17 183 0 100 -4 188 -8 195 -10 14 -24
16 -32 3z"/>
<path d="M6466 4517 c-62 -62 -73 -105 -66 -265 3 -63 12 -70 95 -67 73 2 122
26 131 62 14 55 -39 85 -109 61 -77 -27 -72 -30 -71 44 0 55 5 74 28 108 25
38 29 40 61 34 32 -6 35 -4 35 18 0 28 -17 48 -42 48 -10 0 -38 -19 -62 -43z
m105 -267 c-23 -20 -91 -28 -91 -12 0 14 43 31 80 31 l35 0 -24 -19z"/>
<path d="M2860 4535 c-8 -2 -32 -6 -52 -10 -29 -5 -38 -11 -38 -26 0 -19 4
-20 55 -14 30 4 55 5 55 2 0 -2 -18 -16 -40 -31 -23 -15 -37 -31 -34 -39 2 -7
32 -19 66 -27 95 -21 128 -66 96 -135 -9 -21 -18 -25 -52 -25 -56 0 -86 10
-86 26 0 19 -39 18 -47 -1 -18 -48 127 -97 188 -65 19 11 51 63 47 77 -1 4 1
18 6 30 14 44 -32 102 -98 123 l-39 13 24 18 c13 10 33 19 44 21 11 2 21 11
23 21 6 28 -65 53 -118 42z"/>
<path d="M2529 4505 c-32 -17 -59 -57 -59 -85 0 -18 5 -21 33 -18 26 2 32 7
32 26 0 40 59 70 71 37 9 -24 -102 -200 -151 -241 -55 -45 -75 -88 -51 -112
16 -16 19 -15 50 19 18 20 35 42 38 49 2 8 15 2 38 -19 66 -61 126 -81 161
-53 28 24 17 43 -20 36 -34 -7 -75 13 -114 54 l-28 29 60 98 c73 118 82 152
51 177 -26 21 -75 23 -111 3z"/>
<path d="M4203 4475 c-37 -16 -57 -47 -48 -75 4 -11 26 -33 49 -50 37 -25 56
-47 56 -66 0 -3 -12 -9 -26 -14 -36 -14 -64 3 -64 40 0 36 -24 41 -40 9 -24
-44 24 -99 86 -99 35 0 81 26 89 49 9 28 -18 74 -65 111 -33 26 -38 35 -29 46
8 10 22 12 45 8 25 -5 34 -3 34 7 -1 38 -41 54 -87 34z"/>
<path d="M3827 4453 c-4 -3 -7 -14 -7 -23 0 -19 74 -139 97 -157 13 -10 9 -28
-27 -138 -41 -128 -47 -170 -21 -170 15 0 63 141 111 327 34 133 36 158 15
158 -15 0 -34 -36 -40 -75 -1 -11 -6 -28 -10 -38 -7 -17 -10 -16 -31 10 -13
15 -33 47 -43 71 -19 40 -30 49 -44 35z"/>
<path d="M5104 4399 c-9 -18 -13 -41 -10 -55 4 -13 3 -24 -2 -24 -10 0 0 -89
11 -108 11 -16 34 -15 40 1 3 8 1 20 -4 28 -12 19 -11 106 1 130 10 17 13 18
34 4 25 -16 36 -11 36 16 0 22 -29 39 -64 39 -18 0 -30 -9 -42 -31z"/>
<path d="M3647 4405 c-39 -38 -35 -105 5 -119 23 -8 34 -6 59 13 26 19 33 21
40 10 22 -38 37 -52 52 -46 15 5 14 12 -8 59 -27 59 -55 85 -101 94 -22 4 -36
1 -47 -11z m49 -63 c-21 -21 -35 -12 -25 17 8 20 12 21 25 11 13 -12 13 -15 0
-28z"/>
<path d="M4933 4383 c-40 -5 -63 -35 -63 -85 0 -54 15 -85 50 -103 27 -14 33
-14 60 0 84 43 87 170 5 187 -11 3 -35 3 -52 1z m65 -80 c4 -36 -28 -76 -55
-71 -18 3 -36 54 -27 80 5 16 33 27 64 24 9 -1 16 -14 18 -33z"/>
<path d="M1717 4324 c-28 -30 -39 -77 -30 -129 3 -20 1 -41 -6 -49 -17 -20 -2
-48 23 -44 19 3 21 10 24 88 2 46 8 90 14 97 14 17 43 16 58 -2 16 -20 26 -19
35 2 8 23 -37 63 -70 63 -13 0 -35 -12 -48 -26z"/>
<path d="M1479 4303 c-20 -53 -23 -156 -5 -190 28 -55 94 -57 116 -3 11 27 9
36 -14 84 -14 29 -23 61 -20 70 9 22 -22 66 -46 66 -13 0 -24 -10 -31 -27z
m56 -122 c9 -22 15 -48 11 -57 -11 -30 -37 7 -44 61 -6 56 6 55 33 -4z"/>
<path d="M6182 4240 c-17 -29 -15 -48 8 -55 28 -9 39 1 35 33 -2 15 -4 30 -4
35 -2 15 -27 6 -39 -13z"/>
<path d="M4300 3710 c-8 -5 -10 -15 -6 -26 11 -28 35 -278 28 -285 -4 -4 -36
-12 -71 -18 -67 -11 -103 -33 -85 -51 6 -6 34 -5 82 5 40 9 77 13 81 10 5 -2
12 -39 16 -80 6 -64 10 -76 23 -73 14 3 17 16 15 80 l-2 77 37 3 c26 2 38 8
40 21 3 14 -4 17 -37 17 -22 0 -42 3 -45 8 -2 4 -9 61 -16 127 -6 66 -13 134
-16 152 -6 34 -23 46 -44 33z"/>
<path d="M2874 3574 c-11 -7 -62 -16 -114 -19 -123 -8 -158 -19 -166 -52 -8
-32 10 -51 78 -78 52 -21 53 -22 48 -56 -17 -118 9 -255 58 -304 45 -46 90
-26 118 52 15 44 18 151 5 187 -11 27 -65 86 -96 103 -18 10 -18 13 -5 38 8
15 41 47 72 72 58 44 74 73 39 70 -10 0 -27 -7 -37 -13z m-84 -67 c0 -2 -10
-17 -23 -34 l-22 -30 -53 20 c-58 22 -65 34 -24 40 34 5 122 8 122 4z m54
-191 c22 -29 25 -42 22 -102 -2 -40 -10 -83 -20 -102 -16 -32 -19 -33 -35 -18
-29 26 -51 111 -51 195 0 43 3 80 6 84 9 9 50 -20 78 -57z"/>
<path d="M3854 3465 c-8 -20 2 -44 21 -52 25 -9 37 10 26 40 -11 29 -38 36
-47 12z"/>
<path d="M4579 3417 c-22 -15 -35 -32 -37 -50 -4 -30 14 -61 29 -51 5 3 6 -1
3 -9 -3 -9 11 -22 40 -38 43 -22 76 -62 63 -75 -3 -4 -22 -3 -42 0 -26 5 -39
14 -45 32 -11 29 -43 29 -48 0 -8 -40 87 -97 134 -80 32 12 54 36 54 59 0 21
-18 40 -122 128 -32 27 -33 27 -13 43 11 8 32 18 48 21 18 4 27 12 27 24 0 27
-48 25 -91 -4z"/>
<path d="M3401 3384 c-35 -29 -51 -55 -62 -99 -5 -24 -7 -25 -8 -7 -1 17 -7
22 -27 22 -22 0 -26 -4 -21 -22 34 -146 39 -185 39 -301 0 -70 4 -129 8 -132
5 -3 16 3 26 12 15 15 16 34 12 158 l-6 141 59 -4 c56 -4 60 -3 94 31 30 30
35 42 35 81 0 83 -42 146 -96 146 -13 0 -36 -12 -53 -26z m83 -43 c10 -11 20
-37 23 -59 5 -34 1 -45 -20 -66 -31 -31 -82 -35 -95 -8 -14 28 -7 100 11 120
9 10 15 21 12 23 -2 3 8 6 24 7 17 1 35 -5 45 -17z"/>
<path d="M3987 3355 c-15 -14 -57 -140 -57 -168 0 -9 4 -19 10 -22 12 -7 46
10 42 22 -4 11 18 103 30 126 8 15 12 16 25 5 21 -17 53 -93 53 -125 0 -19 4
-24 16 -19 9 3 18 6 20 6 11 0 2 63 -15 104 -34 78 -87 109 -124 71z"/>
<path d="M3641 3294 c-29 -37 -27 -89 5 -120 28 -29 59 -27 104 5 50 36 32 92
-38 122 -24 11 -45 19 -47 19 -2 0 -13 -12 -24 -26z m83 -57 c12 -19 -4 -37
-36 -37 -18 0 -33 33 -23 50 10 16 46 8 59 -13z"/>
<path d="M3838 3274 c-10 -9 3 -78 18 -94 24 -25 39 2 28 52 -8 39 -30 59 -46
42z"/>
<path d="M4537 2714 c-4 -4 -64 -6 -134 -6 -75 1 -122 -2 -115 -7 8 -5 -8 -6
-40 -3 -51 5 -52 4 -38 -14 14 -18 14 -18 -6 -1 -20 17 -94 24 -94 10 0 -5
-27 -6 -61 -5 -82 5 -129 -4 -129 -25 0 -15 -1 -15 -13 1 -12 16 -21 16 -161
2 -82 -9 -169 -16 -193 -16 -36 0 -44 -3 -40 -15 4 -8 2 -17 -4 -20 -5 -4 -12
1 -16 11 -7 18 15 18 -420 -8 -168 -10 -203 -15 -203 -27 0 -11 -3 -11 -13 3
-12 17 -24 18 -102 12 -94 -6 -112 -14 -101 -41 5 -13 13 -16 34 -11 15 4 86
9 157 11 202 8 658 35 775 46 58 6 172 16 254 23 102 8 151 16 154 24 3 10 7
10 18 2 10 -9 64 -9 211 0 109 6 285 11 391 11 105 -1 192 2 192 6 -1 28 -22
34 -156 39 -77 2 -143 2 -147 -2z m-17 -24 c12 -8 11 -10 -7 -10 -12 0 -25 5
-28 10 -8 13 15 13 35 0z m150 0 c0 -5 -5 -10 -11 -10 -5 0 -7 5 -4 10 3 6 8
10 11 10 2 0 4 -4 4 -10z m-1420 -74 c0 -3 -4 -8 -10 -11 -5 -3 -10 -1 -10 4
0 6 5 11 10 11 6 0 10 -2 10 -4z"/>
<path d="M4302 2404 c-12 -8 -22 -11 -22 -6 0 5 -33 10 -74 11 -57 1 -75 -2
-79 -13 -4 -9 -2 -18 3 -21 5 -3 127 -4 271 -3 251 3 262 4 270 23 7 19 8 19
8 -1 1 -21 7 -22 114 -26 117 -5 147 3 113 28 -24 17 -77 18 -95 2 -9 -8 -12
-9 -7 -1 9 16 -65 23 -234 22 -93 -1 -148 -6 -152 -13 -5 -8 -8 -7 -8 2 0 18
-81 15 -108 -4z"/>
<path d="M3940 2403 c-30 -1 -143 -7 -250 -13 -107 -6 -196 -15 -198 -20 -2
-5 -11 -5 -21 2 -14 9 -29 8 -64 -4 -26 -8 -44 -11 -40 -5 4 7 -23 8 -78 4
-46 -4 -135 -9 -196 -13 -94 -5 -136 -9 -150 -13 -2 -1 -53 -3 -115 -6 -62 -3
-140 -10 -173 -15 -33 -6 -72 -13 -87 -15 -68 -10 -93 -56 -40 -76 42 -17 277
17 293 42 4 7 9 5 12 -5 10 -26 45 -20 49 9 l3 26 129 5 c71 3 133 7 137 9 3
3 58 7 120 10 63 3 186 10 274 15 88 6 232 13 320 15 217 7 245 11 245 36 0
20 -11 21 -170 12z m-160 -23 c0 -5 -5 -10 -11 -10 -5 0 -7 5 -4 10 3 6 8 10
11 10 2 0 4 -4 4 -10z m-1140 -90 c0 -5 -2 -10 -4 -10 -3 0 -8 5 -11 10 -3 6
-1 10 4 10 6 0 11 -4 11 -10z"/>
<path d="M12636 10980 c-46 -14 -87 -60 -146 -165 -30 -52 -38 -160 -17 -227
l15 -48 -2306 -3 -2307 -2 2310 -3 2310 -2 29 -44 c42 -62 166 -141 166 -105
0 5 5 7 10 4 6 -4 7 -12 3 -18 -4 -7 0 -6 10 2 9 7 17 17 17 20 0 4 -25 17
-55 30 -32 13 -69 39 -92 64 l-38 42 140 3 c116 2 140 0 147 -13 11 -19 37
-19 44 0 5 13 124 15 980 15 859 0 974 -2 974 -15 0 -8 9 -15 20 -15 11 0 20
7 20 15 0 13 47 15 353 17 l352 3 -347 2 c-212 2 -348 7 -348 13 0 5 8 25 17
45 12 25 23 35 38 34 47 -3 66 3 96 29 23 21 32 37 31 58 -3 50 -8 66 -26 79
-16 12 -15 17 13 70 33 62 38 84 20 102 -18 18 -39 4 -39 -26 -1 -14 -16 -51
-34 -81 -32 -53 -34 -55 -73 -52 -34 2 -43 -2 -57 -22 -20 -31 -20 -68 -1
-105 13 -26 12 -32 -5 -67 -11 -21 -17 -46 -14 -56 5 -17 -38 -18 -976 -18
l-981 0 38 55 c21 30 46 54 56 55 32 0 85 28 102 53 14 22 14 29 2 65 -13 38
-13 44 6 74 11 18 31 46 44 62 16 20 21 32 14 39 -12 12 -61 -6 -61 -23 0 -6
-12 -27 -27 -48 -24 -32 -32 -37 -53 -31 -49 14 -70 10 -79 -14 -5 -13 -16
-29 -24 -36 -9 -7 -21 -28 -28 -48 -10 -31 -9 -38 11 -65 l22 -29 -38 -55 -37
-54 -149 0 -149 0 -17 38 c-22 51 -21 166 3 212 10 19 33 56 52 82 19 26 32
51 30 55 -3 5 18 9 46 11 59 3 76 14 57 37 -14 17 -30 18 -74 5z m374 -185 c0
-15 -66 -104 -75 -101 -9 2 -10 32 -3 72 1 6 12 9 25 6 15 -3 25 1 29 12 6 15
24 23 24 11z m24 -82 c-31 -23 -36 -14 -12 19 20 28 23 30 26 14 3 -11 -4 -26
-14 -33z m1896 40 c-1 -5 -7 -19 -14 -32 -12 -21 -13 -22 -18 -5 -3 11 -3 25
-1 32 5 13 33 17 33 5z m88 -22 c4 -27 -30 -60 -60 -61 -16 0 -16 4 4 45 24
50 51 57 56 16z"/>
<path d="M15613 10963 c-20 -8 -15 -27 17 -72 17 -23 38 -56 46 -74 11 -22 23
-33 40 -35 13 -1 24 1 24 4 0 15 -105 186 -113 183 -1 0 -8 -3 -14 -6z"/>
<path d="M15373 10883 c-4 -10 -17 -32 -30 -49 -13 -17 -23 -41 -23 -54 0 -13
-8 -32 -17 -43 -26 -28 -26 -120 -1 -152 25 -33 88 -35 119 -4 17 17 18 23 7
36 -11 14 -10 15 9 9 18 -6 26 -1 43 26 21 34 27 83 11 92 -16 10 -19 58 -6
90 20 48 5 66 -56 66 -38 0 -51 -4 -56 -17z m65 -45 c-15 -22 -58 -44 -58 -28
0 11 49 50 63 50 5 0 3 -10 -5 -22z m11 -158 c-14 -29 -72 -80 -90 -80 -56 0
-46 119 11 126 14 1 36 7 50 12 22 8 26 7 31 -17 3 -14 2 -33 -2 -41z"/>
<path d="M13283 10879 c-40 -12 -94 -64 -86 -84 8 -22 21 -18 60 15 18 17 40
30 49 30 37 0 -51 -111 -106 -134 -20 -8 -44 -24 -54 -35 -32 -35 2 -71 36
-38 18 16 74 47 86 47 5 0 15 -13 22 -30 8 -18 20 -30 31 -30 27 0 25 45 -4
74 l-23 23 33 47 c36 53 44 109 17 120 -18 7 -19 7 -61 -5z"/>
<path d="M15245 10863 c-3 -15 -27 -68 -51 -118 -49 -99 -60 -157 -32 -163 12
-2 19 5 24 25 3 15 28 75 54 133 59 126 63 144 34 148 -16 2 -23 -4 -29 -25z"/>
<path d="M14140 10861 c-45 -7 -100 -45 -100 -71 0 -6 9 -25 21 -41 14 -21 19
-38 15 -55 -9 -34 -34 -42 -53 -15 -11 17 -18 19 -28 11 -29 -24 14 -80 62
-80 35 0 66 52 61 103 -3 23 -8 49 -11 57 -12 27 8 40 73 51 75 12 81 15 73
34 -5 16 -34 17 -113 6z"/>
<path d="M13775 10835 c-41 -22 -59 -41 -51 -54 10 -16 56 -14 62 3 3 8 14 16
24 19 50 13 -40 -91 -122 -141 -23 -14 -38 -31 -38 -43 0 -15 7 -19 38 -19 20
0 50 -7 66 -15 30 -16 81 -21 72 -7 -3 5 4 8 16 8 22 -1 47 28 35 40 -4 5 -23
2 -42 -5 -28 -10 -39 -9 -64 3 l-30 16 54 50 c57 54 79 94 73 132 -4 29 -49
36 -93 13z"/>
<path d="M14624 10835 c-8 -19 10 -35 39 -35 34 0 16 -30 -44 -70 -102 -70
-104 -120 -4 -120 54 0 115 16 115 30 0 22 -60 29 -112 14 -29 -9 -21 10 13
30 89 53 119 104 81 139 -29 26 -80 33 -88 12z"/>
<path d="M15705 10750 c6 -20 -14 -67 -46 -109 -10 -13 -16 -27 -13 -32 3 -5
1 -8 -4 -7 -6 2 -24 -16 -41 -39 -17 -24 -36 -43 -41 -43 -16 0 -12 -27 5 -34
28 -10 45 6 115 111 52 79 70 113 70 139 0 30 -3 34 -26 34 -21 0 -24 -4 -19
-20z"/>
<path d="M13483 10684 c-3 -8 -1 -20 5 -26 16 -16 42 -2 42 22 0 24 -38 28
-47 4z"/>
<path d="M14233 10643 c-24 -16 -31 -53 -10 -53 24 1 58 35 51 53 -7 21 -12
21 -41 0z"/>
<path d="M9797 9843 c1057 -2 2789 -2 3850 0 1060 1 196 2 -1922 2 -2117 0
-2985 -1 -1928 -2z"/>
<path d="M7915 9660 c-4 -6 -10 -8 -15 -5 -5 3 -18 -3 -30 -15 -11 -11 -24
-20 -29 -20 -15 0 -81 -41 -81 -50 0 -4 7 -14 16 -21 14 -11 18 -11 28 1 6 8
34 27 63 42 l51 28 -9 -42 c-11 -44 -35 -84 -83 -136 -26 -27 -35 -31 -63 -26
-42 8 -82 -20 -114 -80 -41 -78 6 -88 94 -21 27 21 52 32 61 29 11 -4 16 0 16
13 0 11 14 32 31 49 65 61 109 152 109 223 0 23 -35 47 -45 31z m-155 -312 c0
-7 -5 -6 -13 1 -8 6 -18 7 -22 3 -5 -4 -5 -2 -1 5 8 14 36 6 36 -9z"/>
<path d="M8187 9610 c-67 -9 -87 -21 -67 -45 15 -18 41 -20 57 -4 6 6 21 9 34
7 21 -3 17 -7 -29 -37 -64 -40 -78 -63 -56 -85 19 -20 33 -20 40 -2 5 12 9 11
25 -5 10 -10 31 -19 47 -19 37 0 92 -35 92 -59 0 -24 -33 -49 -77 -57 -18 -3
-33 -11 -33 -17 0 -6 -7 -2 -15 9 -8 10 -15 31 -15 46 0 32 -16 44 -36 27 -16
-13 -11 -62 8 -86 34 -43 147 -26 193 29 58 69 3 137 -125 156 l-51 7 75 53
c42 29 76 57 76 62 0 12 -44 31 -68 29 -9 -1 -43 -5 -75 -9z"/>
<path d="M8920 9601 c0 -27 19 -36 37 -18 18 18 9 37 -18 37 -12 0 -19 -7 -19
-19z"/>
<path d="M9075 9455 c-26 -43 -28 -75 -5 -75 6 0 19 13 28 30 21 36 30 38 38
6 8 -35 51 -73 65 -59 7 7 9 18 5 25 -65 132 -89 145 -131 73z"/>
<path d="M8886 9475 c-7 -20 4 -104 16 -111 21 -13 37 19 35 70 -2 43 -5 51
-23 54 -12 2 -24 -4 -28 -13z"/>
<path d="M7780 9330 c0 -29 42 -90 66 -96 43 -11 174 50 174 81 0 22 -22 19
-71 -10 -58 -32 -84 -31 -121 5 -30 31 -48 38 -48 20z"/>
<path d="M9802 9153 c1054 -2 2782 -2 3840 0 1058 1 195 2 -1917 2 -2112 0
-2977 -1 -1923 -2z"/>
<path d="M8320 9048 c-88 -105 -109 -132 -105 -138 3 -5 -1 -10 -9 -13 -8 -3
-13 1 -12 11 2 26 -66 20 -108 -9 -69 -47 -79 -108 -26 -153 16 -13 25 -27 20
-32 -22 -25 -71 -127 -66 -140 9 -24 43 5 67 56 30 63 47 80 84 80 45 0 102
26 110 49 8 27 -3 66 -26 87 -23 21 -18 31 56 116 30 34 55 70 55 80 0 28 -19
31 -40 6z m-150 -148 c0 -5 -2 -10 -4 -10 -3 0 -8 5 -11 10 -3 6 -1 10 4 10 6
0 11 -4 11 -10z m-13 -48 c9 -6 6 -17 -13 -45 -26 -39 -42 -45 -62 -25 -38 38
28 100 75 70z m68 -62 c0 -18 -7 -26 -29 -31 -17 -5 -31 -7 -32 -6 -2 1 6 17
18 35 23 37 43 37 43 2z"/>
<path d="M10025 9040 c-8 -16 -26 -46 -40 -66 -14 -20 -22 -40 -19 -45 3 -5 0
-9 -7 -9 -6 0 -18 -8 -26 -17 -10 -13 -16 -15 -19 -5 -7 15 -87 16 -115 2 -14
-8 -18 -17 -13 -34 4 -16 0 -25 -10 -29 -8 -3 -24 -24 -35 -45 -18 -35 -18
-41 -5 -61 8 -11 23 -21 32 -21 12 0 10 -4 -8 -13 -13 -7 -52 -46 -87 -87 -47
-56 -59 -77 -51 -87 16 -20 23 -17 62 34 21 26 59 71 86 99 43 45 56 52 100
58 68 9 118 40 128 79 9 34 6 57 -9 57 -21 0 -6 45 36 108 46 68 58 112 30
112 -8 0 -21 -13 -30 -30z m-175 -235 c-62 -62 -90 -73 -65 -25 16 31 80 80
104 80 9 0 -9 -24 -39 -55z m106 -2 c-7 -21 -45 -43 -74 -43 -11 0 -5 12 23
40 39 40 63 41 51 3z"/>
<path d="M7765 8977 c-92 -43 -171 -171 -143 -232 17 -37 88 -61 88 -29 0 8 5
12 10 9 6 -4 7 -11 4 -17 -11 -17 57 -1 86 21 14 10 29 33 34 51 8 27 7 35 -9
46 -24 17 -47 18 -112 1 l-52 -14 20 38 c28 55 83 94 133 94 37 0 41 2 41 25
0 35 -36 37 -100 7z m45 -192 c0 -9 -47 -36 -71 -40 -54 -11 -73 16 -25 35 22
9 96 13 96 5z"/>
<path d="M9478 8990 c-10 -6 -18 -20 -18 -31 0 -22 28 -38 39 -21 10 17 75 19
101 2 13 -9 13 -11 0 -20 -8 -5 -31 -10 -51 -10 -37 0 -63 -18 -51 -35 4 -6
24 -23 45 -38 28 -21 37 -35 37 -58 0 -55 -61 -59 -131 -8 -9 7 -24 9 -33 6
-13 -5 -15 -11 -6 -27 15 -28 68 -53 121 -56 39 -3 50 1 70 22 33 36 34 108 1
135 l-23 18 25 7 c61 15 72 79 19 103 -39 18 -124 24 -145 11z"/>
<path d="M10985 8988 c-2 -7 -6 -35 -9 -61 -2 -27 -6 -50 -8 -52 -5 -5 -92 -6
-185 -1 -90 5 -118 -7 -88 -38 17 -17 38 -20 117 -17 46 2 118 -25 133 -49 7
-11 3 -14 -103 -101 -34 -28 -65 -62 -68 -75 -11 -42 34 -72 64 -42 9 9 8 15
-3 28 -13 14 -10 20 32 55 l46 39 -7 -30 c-18 -74 -18 -84 -3 -84 22 0 33 19
52 85 25 87 35 95 80 61 20 -15 46 -43 58 -62 21 -33 50 -44 62 -25 3 5 -11
43 -30 84 -19 40 -35 76 -35 80 0 10 114 77 133 77 21 0 34 27 19 42 -10 10
-106 -14 -125 -32 -17 -15 -56 14 -62 46 -6 34 -40 84 -56 84 -5 0 -12 -6 -14
-12z m49 -54 c3 -8 2 -12 -4 -9 -6 3 -10 10 -10 16 0 14 7 11 14 -7z m-11 -49
c-3 -9 -8 -14 -10 -11 -3 3 -2 9 2 15 9 16 15 13 8 -4z m13 -66 c3 -6 0 -15
-7 -20 -22 -14 -29 -11 -29 11 0 21 24 27 36 9z"/>
<path d="M12698 8995 c-3 -3 -3 -26 0 -50 2 -24 1 -73 -2 -108 l-7 -64 -48 5
c-50 4 -66 -4 -55 -32 4 -11 11 -13 30 -6 15 6 24 6 24 0 0 -6 11 -10 24 -10
22 0 25 -5 30 -52 4 -29 7 -73 9 -98 1 -32 6 -45 17 -45 12 0 16 19 20 95 l5
95 68 -4 c56 -2 67 0 67 13 0 9 5 16 11 16 6 0 9 -6 6 -12 -8 -24 22 -66 68
-94 25 -16 45 -32 45 -36 0 -4 -21 -10 -46 -14 -40 -6 -47 -4 -61 15 -12 17
-18 20 -29 10 -20 -16 -17 -47 5 -59 28 -15 106 -12 146 5 65 27 56 57 -36
116 -27 17 -49 35 -49 39 0 4 28 14 61 21 69 15 96 30 85 47 -10 16 -46 15
-97 -4 -48 -17 -239 -20 -249 -4 -3 5 -3 39 0 77 6 88 -1 137 -20 141 -9 1
-19 0 -22 -3z"/>
<path d="M9300 8941 c0 -12 5 -29 11 -39 9 -15 4 -36 -25 -109 -20 -50 -36
-98 -36 -107 0 -17 39 -23 41 -6 3 19 5 25 28 75 35 79 46 128 35 166 -12 40
-54 56 -54 20z"/>
<path d="M13776 8948 c-9 -29 -19 -149 -21 -253 -3 -154 22 -178 119 -113 76
49 107 116 67 138 -29 15 -57 12 -103 -10 l-40 -19 6 77 c14 155 13 186 -7
190 -9 2 -19 -2 -21 -10z m117 -292 c-21 -29 -74 -61 -92 -55 -22 8 54 79 83
79 27 0 27 0 9 -24z"/>
<path d="M14565 8880 c-8 -14 13 -50 30 -50 21 0 27 17 15 40 -11 21 -35 27
-45 10z"/>
<path d="M8714 8825 c-4 -9 -4 -18 -1 -22 10 -9 288 -12 282 -2 -3 5 1 6 10 2
13 -4 16 -1 13 13 -3 17 -15 19 -151 22 -126 2 -148 0 -153 -13z"/>
<path d="M11590 8802 c-68 -33 -44 -78 78 -142 78 -41 89 -68 34 -84 -42 -12
-150 7 -166 29 -16 22 -48 9 -44 -18 7 -47 180 -75 253 -40 76 36 54 90 -62
155 -42 24 -76 48 -76 53 1 6 15 14 32 19 26 8 35 5 56 -14 25 -24 45 -20 45
9 0 48 -82 66 -150 33z"/>
<path d="M12277 8814 c-4 -4 -7 -16 -7 -26 0 -15 6 -19 28 -16 19 2 27 9 27
23 0 20 -33 33 -48 19z"/>
<path d="M14717 8780 c-32 -25 -65 -106 -49 -122 16 -16 38 -3 45 29 4 15 14
37 22 48 14 17 17 18 25 5 5 -8 10 -32 10 -52 0 -46 24 -72 59 -63 54 12 82
28 79 44 -4 17 -16 18 -59 7 -24 -7 -26 -5 -38 48 -17 75 -47 93 -94 56z"/>
<path d="M14064 8770 c-27 -11 -55 -69 -47 -98 7 -29 51 -52 114 -59 44 -5 49
-4 49 14 0 16 -9 22 -42 27 -24 4 -38 10 -32 14 37 24 36 91 -1 106 -9 3 -17
6 -18 5 -1 0 -11 -4 -23 -9z m16 -65 c-7 -9 -15 -13 -18 -10 -3 2 1 11 8 20 7
9 15 13 18 10 3 -2 -1 -11 -8 -20z"/>
<path d="M11949 8735 c-20 -13 -39 -31 -42 -39 -3 -8 -18 -20 -33 -28 -28 -13
-28 -14 -29 -113 -1 -55 -5 -114 -9 -131 -9 -40 8 -87 32 -82 25 5 44 73 40
141 -4 49 -2 57 14 57 9 0 36 17 58 38 70 63 88 119 51 160 -24 28 -38 28 -82
-3z m51 -52 c0 -17 -12 -41 -31 -60 -35 -38 -45 -41 -52 -14 -3 13 7 34 30 60
41 48 53 51 53 14z"/>
<path d="M14299 8742 c-43 -22 -69 -65 -53 -89 9 -14 25 -18 72 -17 l60 1 9
-58 9 -58 -45 6 c-67 8 -129 -12 -137 -43 -11 -45 43 -80 119 -77 15 1 25 -3
22 -8 -8 -12 0 -11 40 5 18 8 39 25 46 38 7 12 21 29 31 36 15 11 16 17 7 28
-6 8 -17 14 -25 14 -8 0 -15 16 -19 38 -3 20 -10 55 -16 77 -5 22 -13 53 -17
69 -11 44 -58 61 -103 38z m51 -47 c0 -16 -46 -32 -58 -20 -8 8 26 35 45 35 7
0 13 -7 13 -15z m50 -230 c0 -21 -46 -29 -90 -16 -65 19 -57 31 19 31 56 0 71
-3 71 -15z"/>
<path d="M14542 8738 c-16 -16 -15 -90 1 -113 22 -28 35 -10 36 49 0 58 -16
85 -37 64z"/>
<path d="M12087 8722 c-40 -44 -26 -143 21 -150 23 -3 32 21 12 33 -5 3 -10
24 -10 45 0 34 4 41 24 46 14 3 30 3 36 -1 16 -10 41 20 27 34 -18 18 -92 14
-110 -7z"/>
<path d="M12436 8717 c-13 -9 -17 -21 -13 -36 3 -11 1 -21 -4 -21 -5 0 -9 8
-9 17 0 9 -14 -5 -31 -31 -32 -51 -34 -79 -8 -84 11 -2 25 15 45 53 37 74 59
86 73 42 6 -17 13 -49 15 -71 6 -45 10 -51 32 -42 14 5 16 15 11 57 -13 104
-60 153 -111 116z"/>
<path d="M12229 8623 c-25 -65 -19 -113 14 -100 12 5 18 25 29 102 5 32 -30
31 -43 -2z"/>
<path d="M9567 8482 c-20 -21 -37 -43 -37 -49 0 -19 20 -26 36 -13 12 11 12
14 -3 27 -16 13 -16 13 4 4 30 -15 33 -14 33 9 0 11 7 20 15 20 19 0 19 14 2
29 -10 8 -22 2 -50 -27z"/>
<path d="M7530 8330 c0 -6 -4 -9 -8 -6 -15 9 -119 -92 -141 -137 -42 -88 10
-157 119 -157 92 0 148 50 104 94 -24 25 -59 29 -115 16 -37 -9 -53 -18 -57
-32 -4 -15 -7 -17 -13 -6 -26 41 19 116 101 169 31 20 50 39 48 48 -4 18 -38
28 -38 11z m40 -239 c0 -10 -34 -21 -67 -21 -16 0 -21 4 -17 15 7 16 84 22 84
6z"/>
<path d="M8048 8309 c-34 -25 -37 -69 -9 -137 11 -26 24 -60 29 -77 l9 -30 93
1 c79 0 95 3 106 19 21 28 17 63 -11 90 -28 29 -72 32 -116 9 -49 -25 -57 -15
-48 61 11 92 1 104 -53 64z m180 -165 c31 -21 19 -34 -34 -34 -49 0 -56 11
-22 34 28 20 28 20 56 0z"/>
<path d="M11900 8271 c-25 -9 -64 -30 -88 -45 -36 -22 -43 -32 -40 -54 2 -22
18 -35 87 -72 93 -52 120 -80 121 -127 0 -56 -62 -78 -152 -53 -50 14 -62 38
-42 79 16 31 13 61 -4 61 -5 0 -21 -18 -36 -39 -26 -37 -27 -40 -12 -74 18
-44 45 -62 117 -77 100 -22 174 22 174 104 0 60 -38 105 -130 156 -42 23 -72
46 -69 52 8 12 103 58 122 58 7 0 17 -12 22 -26 13 -34 44 -29 48 8 4 30 -28
68 -55 68 -10 -1 -38 -9 -63 -19z"/>
<path d="M8878 8269 c-40 -23 -10 -68 54 -84 15 -4 32 -13 39 -21 9 -12 5 -14
-29 -14 -23 0 -44 5 -47 10 -11 18 -45 11 -45 -10 0 -25 22 -36 91 -45 45 -6
59 -4 72 10 10 9 17 22 17 28 0 24 -33 60 -74 78 l-41 20 45 -3 c39 -3 45 0
45 17 0 17 -7 20 -55 22 -30 2 -63 -2 -72 -8z"/>
<path d="M8641 8253 c-46 -37 -35 -163 15 -163 22 0 28 27 9 46 -12 12 -15 26
-11 47 8 39 9 40 59 46 28 4 42 11 42 21 0 24 -86 26 -114 3z"/>
<path d="M12519 8241 c-22 -17 -24 -26 -22 -90 2 -38 7 -91 13 -118 9 -37 8
-49 -1 -52 -45 -15 -74 -82 -47 -109 15 -15 94 -16 103 -2 10 17 14 104 5 115
-11 14 -30 120 -30 171 0 34 5 46 27 62 28 20 25 42 -6 42 -11 0 -29 -9 -42
-19z m11 -321 c0 -13 -7 -20 -20 -20 -18 0 -19 3 -10 20 6 11 15 20 20 20 6 0
10 -9 10 -20z"/>
<path d="M14426 8253 c-15 -4 -16 -7 -5 -14 8 -5 9 -9 3 -9 -14 0 -8 -74 12
-144 18 -63 19 -95 2 -78 -32 32 -94 -1 -127 -66 -13 -24 -6 -62 13 -74 40
-27 137 7 157 54 17 40 14 129 -7 190 -8 27 -14 69 -12 95 3 47 -2 54 -36 46z
m24 -289 c0 -22 -35 -52 -69 -59 -33 -7 -34 -7 -27 21 4 15 14 33 23 39 20 15
73 14 73 -1z"/>
<path d="M8450 8243 c-29 -11 -70 -57 -70 -80 0 -32 31 -45 81 -34 36 8 46 6
70 -11 29 -22 59 -19 59 6 0 8 -8 17 -18 20 -12 4 -18 16 -17 34 0 17 -5 27
-15 27 -8 0 -17 9 -20 20 -6 20 -41 29 -70 18z m34 -52 c3 -5 -4 -11 -17 -15
-35 -9 -40 -7 -27 9 14 17 36 20 44 6z"/>
<path d="M13243 8030 c-40 -16 -23 -68 41 -129 36 -35 47 -62 24 -60 -27 1
-49 16 -61 39 -15 29 -64 43 -53 15 3 -9 6 -20 6 -23 0 -19 51 -63 78 -68 105
-21 120 58 28 144 -36 34 -39 58 -6 49 25 -6 44 8 37 27 -7 18 -57 21 -94 6z"/>
<path d="M10953 8008 c-45 -49 -64 -114 -44 -146 4 -8 26 -16 48 -19 35 -5 44
-1 77 31 33 31 38 40 33 66 -9 43 -47 90 -72 90 -12 0 -31 -10 -42 -22z m50
-53 c25 -18 18 -42 -15 -63 -38 -23 -50 -7 -31 41 17 41 20 43 46 22z"/>
<path d="M12155 8010 c-4 -6 0 -22 9 -35 21 -32 20 -61 -1 -69 -23 -9 -43 19
-43 62 0 29 -3 33 -22 30 -17 -2 -22 -9 -20 -23 2 -11 5 -36 7 -55 4 -39 27
-60 65 -60 44 0 70 26 70 71 0 61 -44 113 -65 79z"/>
<path d="M12691 7993 c-42 -52 -39 -115 5 -135 20 -9 32 -8 61 6 32 15 37 15
53 1 35 -32 60 -10 34 30 -9 14 -14 34 -11 46 7 26 -1 49 -18 49 -7 0 -15 7
-19 15 -3 10 -19 15 -45 15 -31 0 -44 -6 -60 -27z m83 -19 c24 -9 19 -30 -10
-53 -34 -27 -54 -27 -54 0 0 46 26 68 64 53z"/>
<path d="M12904 7973 c4 -21 9 -46 12 -56 6 -20 60 -51 74 -42 14 8 13 0 -7
-56 l-18 -49 -2540 -2 -2540 -3 2539 -2 2539 -3 -5 -45 c-4 -30 -1 -48 8 -56
20 -17 36 -1 33 35 -2 17 1 39 7 48 9 17 83 18 1284 21 l1275 2 -1277 3 -1277
2 19 56 c11 31 32 81 47 110 21 42 24 57 15 66 -9 9 -22 2 -60 -35 -44 -43
-71 -58 -73 -39 -5 53 -20 82 -41 82 -18 0 -19 -4 -14 -37z"/>
<path d="M11130 7971 c0 -16 -3 -43 -6 -60 -6 -26 -3 -31 13 -31 10 0 27 13
36 30 23 39 41 39 32 0 -9 -41 11 -100 35 -100 16 0 17 9 14 86 -3 99 -11 113
-51 95 -19 -9 -29 -9 -31 -2 -2 6 -12 11 -23 11 -14 0 -19 -7 -19 -29z"/>
<path d="M12247 7982 c-31 -34 -19 -102 17 -102 16 0 24 9 31 32 14 46 33 47
37 1 3 -33 7 -38 31 -41 22 -3 27 1 27 17 0 12 -4 21 -10 21 -5 0 -10 15 -10
33 0 18 -5 38 -12 45 -15 15 -55 16 -63 2 -5 -8 -11 -8 -19 -1 -9 8 -18 6 -29
-7z"/>
<path d="M8704 7976 c-12 -32 6 -35 182 -34 141 2 177 5 182 16 2 8 -1 18 -9
23 -20 13 -186 11 -211 -2 -15 -8 -19 -8 -14 0 4 7 -1 11 -13 11 -12 0 -21 -5
-21 -11 0 -7 -4 -8 -12 -2 -23 16 -78 16 -84 -1z"/>
<path d="M13913 7974 c-39 -20 -63 -51 -63 -84 0 -37 46 -58 94 -43 28 9 35 7
45 -8 6 -11 20 -19 31 -19 23 0 41 31 22 38 -9 3 -10 15 -6 38 5 26 2 35 -10
40 -9 3 -16 12 -16 19 0 30 -54 40 -97 19z m53 -52 c4 -21 -13 -32 -51 -32
l-30 1 33 30 c35 31 44 31 48 1z"/>
<path d="M14129 7979 c-29 -11 -55 -51 -45 -68 12 -18 34 -13 48 12 12 21 13
20 18 -17 6 -46 39 -76 59 -52 9 11 8 17 -4 29 -8 9 -15 31 -15 49 0 19 -5 39
-12 46 -14 14 -14 14 -49 1z"/>
<path d="M8666 7873 c-3 -6 1 -16 7 -22 16 -13 80 -11 89 3 5 7 17 7 41 -2 51
-18 176 -16 184 3 3 9 3 18 0 21 -2 3 -75 6 -161 7 -112 1 -157 -1 -160 -10z"/>
<path d="M7678 7733 c12 -2 30 -2 40 0 9 3 -1 5 -23 4 -22 0 -30 -2 -17 -4z"/>
<path d="M7380 7539 c-34 -14 -60 -39 -60 -58 0 -9 17 -40 37 -69 29 -42 34
-57 26 -70 -14 -23 -47 -26 -63 -7 -14 17 -50 21 -50 4 0 -23 21 -47 51 -58
25 -9 38 -8 66 6 60 28 63 75 8 147 -29 38 -31 52 -9 60 30 12 52 6 57 -15 7
-27 31 -20 35 10 7 48 -42 72 -98 50z"/>
<path d="M14667 7533 c-15 -14 -6 -63 23 -134 41 -98 46 -188 13 -221 -17 -16
-26 -19 -34 -11 -13 13 16 63 37 63 19 0 18 24 -1 40 -13 10 -19 9 -36 -6 -28
-25 -57 -85 -51 -104 15 -48 76 -53 118 -9 27 29 29 35 28 112 -1 67 -6 93
-28 142 -15 33 -28 71 -30 86 -5 42 -22 60 -39 42z"/>
<path d="M12303 7508 c-29 -14 -36 -52 -28 -143 7 -70 6 -78 -18 -113 -14 -20
-28 -47 -31 -58 -15 -51 40 -112 90 -100 25 7 26 9 23 79 -2 40 0 78 4 84 5 7
1 23 -7 35 -11 16 -16 46 -16 100 l0 78 34 0 c25 0 35 5 39 19 7 29 -46 40
-90 19z m-6 -365 c-12 -11 -27 9 -27 36 0 43 14 47 24 6 4 -20 6 -39 3 -42z"/>
<path d="M14054 7512 c3 -5 -8 -6 -25 -4 -35 5 -79 -21 -79 -48 0 -20 10 -29
92 -81 49 -31 88 -83 88 -114 0 -37 -24 -83 -51 -99 -31 -18 -110 -21 -126 -5
-9 9 -9 16 0 30 9 14 9 21 -1 31 -17 17 -52 -18 -52 -53 0 -41 40 -64 111 -64
43 0 65 5 86 21 78 58 96 149 44 221 -26 36 -112 103 -133 103 -5 0 -6 5 -3
10 8 14 88 13 102 -1 15 -15 33 -3 33 21 0 13 -11 22 -37 29 -46 13 -56 14
-49 3z m6 -127 c0 -5 -5 -3 -10 5 -5 8 -10 20 -10 25 0 6 5 3 10 -5 5 -8 10
-19 10 -25z"/>
<path d="M15403 7330 c-32 -13 -40 -56 -18 -97 11 -19 27 -39 37 -44 19 -10
24 -44 9 -54 -5 -3 -29 1 -52 9 -24 8 -46 13 -51 10 -19 -12 -6 -36 27 -50 48
-20 91 -18 115 6 30 30 25 65 -15 107 -43 45 -43 76 -2 81 15 2 27 -1 27 -7 0
-17 30 -13 36 4 15 37 -54 59 -113 35z"/>
<path d="M15186 7275 c-22 -19 -43 -35 -48 -35 -4 0 -8 14 -8 30 0 22 -5 30
-18 30 -13 0 -20 -14 -30 -52 -12 -54 -5 -78 25 -78 11 0 9 -9 -9 -42 l-23
-43 -1893 -3 -1892 -2 -58 45 c-68 53 -122 69 -122 37 0 -13 10 -23 28 -30 15
-5 38 -19 52 -30 l25 -21 -682 -1 -682 0 -3 48 c-3 39 -6 47 -23 47 -17 0 -20
-8 -23 -47 l-3 -48 -285 0 c-267 0 -284 1 -284 18 0 10 -6 27 -14 37 -12 16
-16 17 -29 6 -12 -9 -14 -19 -7 -37 l9 -24 -657 -3 -657 -2 659 -3 659 -2 -6
-47 c-25 -199 -17 -308 21 -301 11 2 16 12 15 28 -5 51 -3 187 3 253 l7 67
284 0 285 0 -6 -37 c-17 -99 -12 -92 -74 -95 -43 -2 -57 -7 -57 -18 0 -11 14
-16 58 -18 51 -3 57 -5 52 -22 -3 -10 -2 -21 3 -24 5 -3 7 -17 5 -30 -5 -24
24 -86 39 -86 4 0 17 -9 28 -20 26 -26 67 -26 75 0 9 28 -3 43 -30 36 -34 -9
-67 33 -75 94 l-6 50 72 0 c70 0 97 11 77 31 -5 5 -37 12 -71 15 l-62 7 3 58
2 59 700 -1 700 0 60 -48 c68 -54 85 -80 85 -134 0 -53 -25 -91 -93 -142 -48
-37 -63 -43 -90 -38 -41 6 -67 -17 -42 -37 9 -7 18 -10 22 -7 3 4 14 2 25 -4
16 -9 32 -3 89 35 170 113 183 249 34 360 -18 14 187 15 1862 16 l1882 0 -10
-29 c-16 -45 -8 -86 16 -86 14 0 19 6 18 20 -1 11 3 37 9 58 l11 37 226 2 226
3 -217 2 c-120 2 -218 6 -218 9 0 14 38 75 82 132 27 36 47 69 45 76 -7 22
-32 15 -71 -19z m-5436 -355 c0 -5 -2 -10 -4 -10 -3 0 -8 5 -11 10 -3 6 -1 10
4 10 6 0 11 -4 11 -10z"/>
<path d="M7643 7293 c-18 -6 -16 -38 2 -53 19 -16 35 -5 35 25 0 24 -16 35
-37 28z"/>
<path d="M11803 7279 c-24 -12 -54 -35 -69 -51 -59 -71 0 -122 141 -123 73 0
80 2 80 20 0 17 -8 20 -75 22 -87 4 -107 16 -56 33 20 6 43 18 51 27 22 21 19
70 -4 83 -25 13 -19 14 -68 -11z m33 -44 c-11 -8 -25 -15 -30 -15 -6 0 -2 7 8
15 11 8 25 15 30 15 6 0 2 -7 -8 -15z"/>
<path d="M13140 7283 c-14 -10 -36 -18 -50 -18 -22 0 -25 -5 -28 -43 -4 -57
19 -67 56 -23 l27 33 1 -31 c2 -57 41 -76 99 -49 52 23 14 55 -39 33 -18 -8
-19 -5 -13 40 5 30 3 53 -4 61 -15 18 -20 18 -49 -3z"/>
<path d="M12005 7278 c-9 -26 -25 -104 -25 -126 0 -38 26 -37 61 2 37 43 46
44 54 9 3 -16 14 -39 24 -53 16 -20 22 -22 34 -11 14 11 13 18 -9 61 -13 26
-24 62 -24 79 0 45 -27 52 -56 16 l-22 -28 -4 28 c-3 30 -25 46 -33 23z"/>
<path d="M14483 7277 c-41 -23 -86 -96 -76 -124 9 -26 34 -12 55 32 30 62 49
67 46 12 -3 -36 0 -42 17 -42 16 0 21 10 28 53 12 75 -14 101 -70 69z"/>
<path d="M14894 7280 c-25 -10 -74 -66 -74 -85 0 -20 29 -45 51 -45 11 0 33 7
48 15 28 14 29 14 34 -14 6 -30 34 -48 50 -32 5 5 4 17 -3 30 -6 12 -10 43 -8
69 3 41 1 47 -17 47 -11 0 -26 6 -33 13 -15 14 -19 14 -48 2z m56 -44 c0 -3
-19 -15 -41 -27 -36 -18 -41 -19 -35 -4 3 9 6 20 6 24 0 4 16 8 35 9 19 2 35
0 35 -2z"/>
<path d="M12894 7226 c-50 -49 -53 -62 -23 -100 24 -31 75 -35 114 -10 19 12
25 25 25 53 0 42 -33 101 -56 101 -9 0 -36 -20 -60 -44z m70 -32 c10 -25 7
-33 -13 -44 -22 -11 -51 -4 -51 13 0 15 31 47 45 47 7 0 16 -7 19 -16z"/>
<path d="M14247 7253 c-4 -3 -7 -28 -7 -55 0 -59 24 -88 73 -88 48 0 71 29 64
76 -4 21 -11 42 -17 48 -16 16 -32 -13 -25 -47 3 -19 0 -30 -11 -34 -21 -8
-32 6 -38 49 -6 52 -20 70 -39 51z"/>
<path d="M7500 7064 c-14 -10 -42 -33 -62 -52 -29 -27 -35 -39 -27 -49 9 -10
7 -13 -10 -13 -33 0 -72 -95 -79 -187 -4 -60 -1 -79 18 -117 35 -74 138 -134
163 -95 17 27 2 49 -31 43 -62 -13 -121 88 -107 185 9 65 57 159 105 206 36
35 43 38 61 27 11 -7 24 -10 29 -7 14 9 12 49 -2 63 -16 16 -29 15 -58 -4z"/>
<path d="M10133 7014 c-15 -7 -18 -54 -3 -54 24 0 61 25 58 39 -3 16 -33 24
-55 15z"/>
<path d="M10430 6987 c-22 -11 -26 -20 -31 -90 -4 -43 -9 -81 -13 -84 -3 -3
-17 19 -31 50 -18 42 -30 57 -45 57 -26 0 -25 -9 8 -83 31 -67 63 -103 85 -94
19 7 37 75 37 140 0 70 18 85 74 62 36 -15 51 -9 40 18 -12 33 -80 46 -124 24z"/>
<path d="M10673 6930 c-18 -11 -33 -24 -33 -29 0 -6 -11 -21 -25 -33 -23 -21
-24 -26 -13 -60 6 -21 23 -49 38 -63 35 -34 154 -55 134 -24 -7 12 3 11 25 -3
24 -15 86 1 86 22 0 12 -18 15 -96 15 -81 0 -100 3 -118 19 -30 27 -26 39 9
31 61 -13 115 55 88 112 -17 35 -52 40 -95 13z m47 -65 c-7 -8 -24 -15 -39
-15 l-26 1 35 31 c30 27 35 29 38 15 2 -10 -2 -24 -8 -32z"/>
<path d="M8847 6904 c-21 -21 5 -123 39 -155 45 -43 111 -15 134 58 15 43 4
95 -18 91 -12 -2 -19 -17 -22 -51 -13 -111 -89 -93 -94 23 -1 33 -22 51 -39
34z"/>
<path d="M9436 6889 c-28 -22 -56 -68 -56 -94 0 -8 11 -20 24 -27 20 -9 32 -7
66 11 l40 21 12 -24 c12 -27 56 -50 84 -44 31 6 26 27 -10 42 -25 10 -37 23
-42 43 -13 59 -17 65 -50 79 -42 17 -36 18 -68 -7z m54 -38 c0 -10 -50 -45
-56 -39 -2 2 3 14 12 26 15 22 44 30 44 13z"/>
<path d="M7939 6875 c-86 -63 -117 -156 -64 -191 20 -13 48 -16 127 -15 102 1
133 10 111 32 -8 8 -42 11 -91 10 -145 -4 -164 17 -88 97 37 38 50 46 82 47
51 1 69 12 53 31 -19 24 -90 17 -130 -11z"/>
<path d="M8534 6876 c-10 -8 -29 -12 -40 -10 -18 5 -22 0 -27 -28 -7 -40 4
-100 20 -105 7 -3 22 18 34 46 24 57 33 63 36 25 0 -15 8 -33 16 -42 14 -13
20 -10 58 32 23 25 45 46 49 46 4 0 21 -23 39 -51 25 -38 38 -49 55 -47 37 5
27 27 -56 119 -14 16 -31 29 -37 29 -6 0 -26 -14 -46 -31 -25 -22 -35 -27 -35
-16 0 16 -26 47 -39 47 -4 0 -16 -6 -27 -14z"/>
<path d="M8235 6870 c-29 -47 -21 -121 15 -140 27 -14 75 -12 116 5 58 24 76
101 30 130 -21 13 -41 -12 -25 -32 33 -39 -62 -98 -99 -61 -15 15 -16 50 -1
65 7 7 9 19 6 27 -7 18 -33 21 -42 6z"/>
<path d="M10111 6843 c-19 -66 -11 -103 20 -103 16 0 19 8 21 50 1 28 2 58 2
67 1 10 -7 19 -16 21 -12 2 -20 -7 -27 -35z"/>
<path d="M14307 6853 c-4 -7 -34 -123 -42 -162 -2 -9 -15 -59 -29 -113 -14
-53 -26 -105 -26 -117 0 -47 67 -8 85 50 6 17 8 18 22 3 11 -11 26 -14 50 -10
18 3 48 9 66 12 40 7 65 -13 74 -57 7 -37 27 -54 41 -36 16 19 -4 83 -35 115
-23 23 -29 24 -94 18 -78 -7 -76 -10 -24 61 17 23 53 54 82 70 56 30 72 63 31
63 -29 -1 -119 -58 -175 -111 -24 -22 -43 -38 -43 -34 0 3 12 52 26 108 40
157 39 147 16 147 -12 0 -23 -3 -25 -7z"/>
<path d="M11887 6794 c-13 -13 -7 -42 10 -48 23 -9 40 10 27 31 -12 20 -27 26
-37 17z"/>
<path d="M12909 6731 c-58 -39 -113 -97 -105 -110 13 -20 35 -12 78 29 74 70
104 74 57 8 -18 -25 -19 -32 -8 -40 11 -8 11 -9 -2 -5 -10 3 -29 -8 -50 -30
-19 -19 -47 -40 -64 -47 -43 -19 -124 -94 -131 -122 l-6 -24 -2402 -3 c-1320
-1 -668 -2 1449 -2 2118 0 3262 1 2543 2 -1119 3 -1308 5 -1308 17 0 8 6 16
13 19 9 4 9 7 -1 18 -11 12 -14 12 -21 0 -7 -11 -9 -11 -13 0 -4 12 -7 12 -21
0 -15 -11 -18 -10 -27 14 -16 43 -12 64 21 98 42 44 99 132 99 154 -1 52 -43
62 -101 24z m-76 -339 c-18 -2 -49 -2 -68 0 l-34 3 51 43 52 43 16 -43 16 -43
-33 -3z"/>
<path d="M13472 6685 c-59 -26 -92 -55 -92 -81 0 -26 24 -33 37 -11 4 8 20 22
36 32 39 25 36 1 -8 -61 -34 -47 -45 -84 -25 -84 5 0 26 11 46 25 21 14 42 24
48 22 6 -2 13 -21 16 -43 3 -21 9 -45 13 -51 14 -23 44 -14 71 21 33 44 42 67
50 139 7 52 6 57 -12 57 -21 0 -32 -25 -32 -73 0 -32 -26 -87 -40 -87 -6 0
-10 12 -10 26 0 36 -17 64 -39 64 -18 0 -18 3 -6 43 8 28 10 49 3 60 -11 20
-13 20 -56 2z"/>
<path d="M13986 6631 c-57 -38 -74 -113 -36 -151 33 -33 170 -24 170 10 0 6
-29 10 -64 10 -68 0 -96 14 -48 23 38 8 82 44 82 68 0 24 -34 59 -57 59 -10 0
-31 -9 -47 -19z m54 -39 c0 -8 -43 -32 -57 -32 -3 0 2 9 12 20 18 20 45 27 45
12z"/>
<path d="M13757 6581 c-50 -56 -53 -87 -9 -121 29 -23 87 -26 108 -6 20 21 18
26 -15 26 -38 0 -84 17 -76 29 3 5 18 12 34 16 39 8 57 30 42 49 -8 10 -9 15
-1 18 17 5 0 38 -20 38 -10 0 -38 -22 -63 -49z"/>
<path d="M11793 6565 c-17 -36 -8 -65 16 -50 17 10 43 64 36 75 -13 20 -36 9
-52 -25z"/>
<path d="M11993 6588 c-24 -30 -64 -118 -61 -135 6 -31 41 -26 77 11 l34 36
19 -30 c18 -30 28 -34 83 -30 40 3 65 17 65 37 0 13 -9 14 -55 8 -60 -7 -58
-9 -59 55 -1 28 -5 36 -23 38 -14 2 -26 -4 -33 -17 -6 -12 -16 -21 -22 -21 -7
0 -6 6 2 16 11 12 11 18 -2 30 -12 12 -17 13 -25 2z"/>
<path d="M11750 6495 c-13 -35 -13 -39 8 -58 19 -18 53 -22 66 -9 4 4 11 7 14
8 23 3 42 19 42 35 0 23 -18 24 -56 4 -28 -14 -29 -14 -34 12 -7 36 -28 40
-40 8z"/>
<path d="M9864 6206 c-8 -20 -1 -49 12 -53 14 -5 47 44 39 57 -9 15 -45 12
-51 -4z"/>
<path d="M10323 6212 c-17 -11 -37 -106 -23 -110 8 -3 8 -8 0 -17 -6 -7 -13
-36 -17 -64 -6 -56 -11 -59 -87 -65 -50 -4 -73 -17 -61 -35 4 -7 30 -10 70 -7
55 4 62 3 59 -12 -2 -9 -13 -55 -24 -101 -10 -46 -17 -88 -14 -93 3 -4 -451
-8 -1008 -8 l-1013 0 -33 40 -33 39 26 51 c14 28 23 55 20 60 -14 23 -37 6
-61 -44 -24 -52 -26 -53 -75 -59 -58 -7 -103 -31 -118 -63 -5 -12 -20 -24 -33
-27 l-23 -4 23 -2 c19 -1 22 -5 17 -21 -4 -11 -2 -20 4 -20 6 0 8 -7 5 -15 -3
-8 3 -30 15 -48 l20 -33 -20 -54 c-11 -29 -18 -59 -15 -67 11 -28 38 -7 54 42
l17 50 59 1 c40 1 67 8 84 21 30 22 64 83 66 118 l1 25 3674 0 c2021 0 3677 2
3679 5 3 3 -859 5 -1915 5 -1698 0 -1922 2 -1927 15 -3 8 -12 15 -21 15 -9 0
-18 -7 -21 -15 -5 -13 -93 -15 -709 -15 l-702 0 26 115 c24 106 28 115 49 115
32 0 62 18 62 36 0 13 -9 15 -39 12 l-39 -3 3 50 c1 27 5 57 7 65 21 63 26
106 15 117 -7 7 -17 9 -24 5z m-2253 -480 c0 -18 -26 -32 -60 -32 -27 0 -36 4
-36 18 0 13 10 18 48 20 26 1 48 -1 48 -6z m74 -17 c4 -10 -1 -15 -14 -15 -20
0 -26 11 -13 23 10 11 20 8 27 -8z m-132 -69 c-24 -40 -28 -43 -39 -29 -7 9
-13 29 -13 45 0 26 3 28 40 28 l39 0 -27 -44z m152 28 c9 -23 7 -36 -4 -29 -5
3 -10 -1 -10 -10 0 -31 -46 -65 -90 -65 -38 0 -52 12 -29 25 6 4 8 13 5 21 -3
8 0 14 7 14 7 0 21 14 32 30 15 23 28 30 51 30 20 0 34 -6 38 -16z"/>
<path d="M11340 6118 c0 -13 -12 -66 -26 -118 -44 -156 -33 -270 26 -270 23 0
25 17 5 44 -22 29 -18 98 14 226 16 63 26 120 24 127 -9 23 -43 15 -43 -9z"/>
<path d="M7637 6098 c-2 -7 0 -21 5 -31 13 -25 2 -65 -29 -105 -20 -26 -30
-32 -48 -28 -28 7 -52 -16 -33 -31 33 -26 60 -25 89 3 58 56 84 137 59 185
-12 21 -36 25 -43 7z"/>
<path d="M9720 5888 c-40 -70 -46 -103 -25 -134 9 -14 23 -28 31 -31 23 -8 64
14 64 35 0 10 5 23 10 28 8 8 6 15 -4 23 -13 11 -20 8 -41 -13 -23 -23 -25
-24 -25 -5 0 29 35 92 59 106 26 16 17 43 -15 43 -18 0 -31 -12 -54 -52z"/>
<path d="M10689 5925 c-28 -15 -58 -74 -62 -120 -2 -24 2 -31 21 -33 18 -3 22
1 22 25 0 32 34 92 52 94 7 1 25 0 41 -1 17 -1 27 3 27 12 0 37 -53 49 -101
23z"/>
<path d="M11528 5923 c-26 -7 -22 -35 13 -105 31 -61 31 -61 7 -55 -12 4 -29
7 -36 7 -7 0 -17 12 -22 26 -12 31 -34 27 -38 -7 -5 -46 67 -81 132 -65 32 8
34 36 6 97 -25 56 -25 66 3 65 16 -1 23 5 25 22 3 20 -1 22 -35 21 -21 -1 -46
-3 -55 -6z"/>
<path d="M9965 5898 c-20 -15 -30 -18 -33 -10 -8 26 -33 10 -57 -38 -52 -103
-25 -124 56 -44 l59 58 0 -47 c0 -53 13 -87 34 -87 20 0 40 27 26 35 -5 3 -10
31 -10 61 0 92 -23 113 -75 72z"/>
<path d="M10445 5860 c-25 -39 -34 -87 -15 -75 5 3 7 0 4 -9 -3 -9 5 -21 20
-32 49 -32 184 0 143 34 -9 8 -24 9 -51 1 -20 -6 -46 -7 -57 -4 -20 7 -19 8 9
25 36 22 47 51 32 80 -18 34 -56 26 -85 -20z"/>
<path d="M10906 5868 c-8 -13 -20 -35 -27 -51 -16 -35 -29 -30 -54 22 -21 43
-47 52 -53 18 -4 -21 61 -125 84 -134 21 -8 39 11 55 59 7 24 24 53 36 66 13
13 21 28 18 33 -11 17 -44 9 -59 -13z"/>
<path d="M11037 5850 c-74 -58 -21 -128 63 -85 25 13 30 13 30 1 0 -19 30 -29
46 -15 12 10 12 15 -1 36 -9 13 -13 28 -10 34 10 15 -14 38 -34 32 -10 -3 -22
0 -25 6 -11 17 -41 13 -69 -9z m39 -45 c-21 -16 -32 -13 -21 4 3 6 14 11 23
11 15 -1 15 -2 -2 -15z"/>
<path d="M7806 5751 c-3 -5 -9 -53 -12 -107 -6 -91 -5 -101 14 -124 19 -23 22
-24 38 -8 14 14 15 19 3 36 -10 14 -13 41 -8 103 5 78 -1 109 -22 109 -4 0
-10 -4 -13 -9z"/>
<path d="M8995 5291 c-22 -10 -46 -25 -54 -34 -22 -28 4 -73 65 -113 30 -18
54 -41 54 -49 0 -22 -40 -19 -66 6 -23 21 -54 20 -54 -1 0 -18 46 -59 74 -66
63 -15 111 29 88 80 -6 14 -36 43 -66 66 -31 22 -56 44 -56 49 0 14 50 31 90
31 33 0 40 4 40 19 0 35 -52 41 -115 12z"/>
<path d="M8466 5219 c-21 -24 -26 -41 -26 -84 0 -55 13 -105 27 -105 28 1 33
17 23 73 -13 67 -2 97 35 97 29 0 36 34 9 44 -29 11 -42 6 -68 -25z"/>
<path d="M8638 5199 c-62 -32 -88 -116 -52 -167 l15 -22 -205 0 -206 0 0 25
c0 31 -26 85 -41 85 -6 0 -9 17 -7 42 2 35 -1 43 -16 46 -42 9 -43 -40 -1
-123 29 -56 31 -75 10 -75 -8 0 -15 6 -15 14 0 24 -31 29 -37 6 -5 -18 -12
-21 -52 -18 -46 3 -46 3 -49 43 -5 64 -40 87 -52 34 -6 -23 -53 -50 -66 -36
-3 3 2 23 12 43 17 32 24 37 57 39 43 2 52 8 44 30 -10 25 -89 20 -114 -7 -30
-33 -43 -63 -43 -96 0 -39 17 -51 79 -59 28 -3 54 -10 57 -14 7 -12 44 -11 44
1 0 6 18 10 39 10 30 0 41 -5 46 -19 9 -28 40 -52 59 -45 9 4 23 19 32 35 l14
29 3682 0 c2025 0 3684 2 3686 5 3 3 -1524 5 -3394 5 l-3399 0 38 25 c37 26
47 48 26 60 -5 4 -18 0 -27 -8 -41 -35 -135 -65 -158 -49 -6 4 -16 17 -22 28
-11 20 -9 22 23 28 41 8 95 51 95 76 0 54 -36 64 -102 29z m38 -44 c-11 -8
-25 -15 -30 -15 -6 0 -2 7 8 15 11 8 25 15 30 15 6 0 2 -7 -8 -15z"/>
<path d="M8345 5189 c-4 -5 -1 -23 5 -39 18 -42 6 -80 -25 -80 -20 0 -26 7
-36 43 -14 48 -32 72 -48 63 -13 -8 -15 -46 -2 -46 5 0 9 -11 9 -25 0 -28 26
-73 48 -82 21 -8 62 5 84 27 25 25 28 111 4 134 -18 19 -30 20 -39 5z"/>
<path d="M7640 5147 c-40 -20 -72 -76 -64 -112 14 -63 72 -115 129 -115 43 0
97 27 93 47 -2 12 -11 17 -23 15 -80 -15 -100 -13 -124 9 l-23 22 33 14 c18 8
41 21 51 30 25 23 23 68 -4 87 -27 19 -36 19 -68 3z m50 -47 c0 -10 -59 -44
-66 -38 -2 2 3 14 12 26 15 22 54 31 54 12z"/>
<path d="M8257 4773 c-3 -5 -1 -33 4 -63 4 -30 8 -80 8 -111 l1 -56 -62 -9
c-48 -7 -64 -13 -66 -26 -3 -15 4 -18 41 -18 59 0 77 8 70 28 -4 15 -3 15 6 2
6 -9 11 -63 11 -127 0 -110 8 -139 32 -115 6 6 11 58 12 119 l1 108 57 3 c57
3 86 20 73 43 -5 7 -27 9 -71 4 l-64 -7 0 79 c0 112 -9 153 -31 153 -10 0 -20
-3 -22 -7z"/>
<path d="M7837 4583 c-13 -12 -7 -31 12 -36 23 -6 42 10 34 29 -5 15 -35 19
-46 7z"/>
<path d="M8544 4569 c-70 -20 -70 -68 1 -112 54 -35 90 -76 76 -90 -5 -5 -40
-11 -78 -12 -61 -2 -68 -5 -71 -24 -3 -20 1 -21 65 -21 73 0 136 23 141 51 4
23 -39 80 -90 119 -52 38 -53 55 -1 47 41 -7 58 17 28 39 -21 16 -27 16 -71 3z"/>
<path d="M8012 4487 c-12 -13 -22 -26 -22 -30 0 -4 -20 -28 -45 -54 -49 -50
-57 -88 -20 -88 13 0 31 18 53 50 61 94 74 108 84 91 5 -9 12 -48 15 -87 6
-69 21 -95 43 -73 13 13 -7 163 -25 190 -20 31 -55 31 -83 1z"/>
<path d="M7651 4460 c-35 -36 -40 -73 -15 -125 18 -39 38 -50 55 -29 9 11 9
18 -3 32 -23 26 -27 58 -11 82 12 17 21 19 49 14 30 -5 34 -4 34 14 0 24 -4
27 -46 36 -27 6 -36 2 -63 -24z"/>
<path d="M7453 4462 c-38 -25 -50 -125 -43 -372 1 -53 13 -69 38 -54 14 10 17
26 16 96 l-1 85 32 17 c42 23 65 65 65 119 0 76 -62 139 -107 109z m64 -98 c4
-30 0 -45 -17 -66 -37 -48 -52 -37 -45 33 3 34 10 70 16 81 10 18 13 19 26 6
8 -9 17 -33 20 -54z"/>
<path d="M7814 4387 c-10 -27 0 -72 16 -72 11 0 15 11 15 39 0 40 -20 61 -31
33z"/>
<path d="M9802 3613 c1054 -2 2782 -2 3840 0 1058 1 195 2 -1917 2 -2112 0
-2977 -1 -1923 -2z"/>
<path d="M9797 2923 c1058 -2 2788 -2 3845 0 1058 1 193 2 -1922 2 -2115 0
-2980 -1 -1923 -2z"/>
<path d="M9797 2233 c1057 -2 2789 -2 3850 0 1060 1 196 2 -1922 2 -2117 0
-2985 -1 -1928 -2z"/>
<path d="M9797 1543 c1058 -2 2788 -2 3845 0 1058 1 193 2 -1922 2 -2115 0
-2980 -1 -1923 -2z"/>
<path d="M9802 853 c1054 -2 2782 -2 3840 0 1058 1 195 2 -1917 2 -2112 0
-2977 -1 -1923 -2z"/>
</g>
</svg>
