<?xml version="1.0" standalone="no"?>
<!DOCTYPE svg PUBLIC "-//W3C//DTD SVG 20010904//EN"
 "http://www.w3.org/TR/2001/REC-SVG-20010904/DTD/svg10.dtd">
<svg version="1.0" xmlns="http://www.w3.org/2000/svg"
 width="1618.000000pt" height="1214.000000pt" viewBox="0 0 1618.000000 1214.000000"
 preserveAspectRatio="xMidYMid meet">

<g transform="translate(0.000000,1214.000000) scale(0.100000,-0.100000)"
fill="#000000" stroke="none">
<path d="M630 6040 l0 -5190 3310 0 3310 0 0 3612 c0 3438 1 3610 18 3596 30
-26 54 -29 102 -13 69 23 123 73 122 112 -1 42 -15 66 -46 83 l-26 14 27 28
c35 36 36 83 2 132 -13 20 -29 38 -36 40 -41 16 -138 -146 -114 -193 6 -11 -1
-30 -20 -61 l-29 -44 0 1537 0 1537 -3310 0 -3310 0 0 -5190z m6610 0 l0
-5180 -3300 0 -3300 0 0 5180 0 5180 3300 0 3300 0 0 -5180z m188 2313 c-3
-32 -9 -41 -40 -58 -45 -24 -55 -16 -38 27 18 45 39 68 62 68 16 0 19 -6 16
-37z m6 -164 c16 -15 18 -22 9 -42 -12 -27 -86 -67 -121 -67 -45 0 -41 58 9
114 28 32 33 34 57 24 15 -7 36 -20 46 -29z"/>
<path d="M5744 11062 c-19 -12 -34 -49 -34 -84 0 -18 12 -90 26 -160 22 -104
25 -130 14 -143 -13 -16 -57 -20 -78 -6 -22 14 -10 54 17 61 29 7 37 23 18 38
-10 9 -22 9 -45 1 -24 -8 -34 -20 -43 -49 -15 -51 5 -84 61 -101 35 -11 46
-10 76 4 55 27 58 48 23 207 -33 147 -33 188 1 197 29 8 26 43 -2 43 -13 0
-28 -4 -34 -8z"/>
<path d="M4700 11015 c0 -2 9 -9 20 -15 16 -9 18 -8 14 5 -5 13 -34 22 -34 10z"/>
<path d="M5115 10980 c-4 -6 6 -85 21 -176 14 -90 24 -167 21 -170 -9 -10 -81
34 -122 74 -23 22 -54 64 -69 94 -16 29 -36 61 -44 71 -23 26 -51 21 -58 -9
-9 -33 4 -226 16 -259 15 -39 50 -30 40 10 -4 14 -18 199 -15 202 1 2 8 -9 16
-25 7 -15 35 -55 62 -89 36 -47 63 -69 109 -92 54 -28 64 -30 82 -17 29 19 30
59 7 206 -16 96 -17 127 -8 138 9 11 7 18 -12 33 -26 22 -37 24 -46 9z"/>
<path d="M2355 10900 c-3 -5 1 -23 10 -39 8 -17 15 -47 15 -68 0 -21 4 -53 9
-71 6 -19 6 -43 2 -55 -27 -69 -45 -107 -51 -107 -4 0 -28 23 -54 50 -41 44
-77 107 -99 173 -8 21 -43 22 -51 1 -13 -34 -6 -73 14 -79 11 -4 29 -23 39
-43 27 -51 125 -152 149 -152 46 0 92 96 92 195 0 49 -3 65 -10 55 -6 -9 -10
-10 -10 -3 0 6 4 14 8 17 13 8 -3 117 -19 127 -18 12 -36 11 -44 -1z"/>
<path d="M2947 10843 c-34 -32 -62 -62 -62 -68 0 -5 11 -12 24 -13 18 -3 34 8
66 42 40 44 75 60 75 34 0 -7 -11 -37 -25 -66 -13 -29 -26 -55 -27 -59 -7 -16
-47 -60 -111 -121 -80 -77 -93 -97 -77 -117 18 -22 62 5 107 65 21 28 41 50
45 50 4 0 8 -17 8 -37 0 -47 32 -100 64 -109 39 -9 122 23 150 59 28 35 19 62
-12 39 -55 -40 -80 -52 -108 -52 -36 0 -44 12 -50 80 -3 25 -7 51 -9 59 -3 7
8 34 24 60 58 89 78 170 49 199 -27 27 -67 13 -131 -45z"/>
<path d="M1923 10868 c-6 -7 -12 -18 -14 -25 -3 -9 -19 -7 -59 7 -31 11 -59
15 -64 10 -17 -17 3 -39 46 -51 24 -6 49 -13 56 -15 8 -2 12 -25 12 -69 0 -59
2 -67 23 -75 18 -7 19 -9 4 -9 -16 -1 -17 -6 -12 -33 10 -47 23 -68 41 -68 13
0 15 7 10 33 -13 74 -28 208 -24 213 3 2 40 9 83 13 78 9 103 20 90 40 -4 8
-30 10 -79 5 -69 -6 -73 -5 -79 15 -6 24 -20 27 -34 9z"/>
<path d="M1588 10841 c-83 -53 -77 -92 25 -157 81 -52 111 -80 121 -112 4 -12
12 -22 17 -22 5 0 1 -9 -8 -20 -21 -24 -69 -26 -118 -6 -36 15 -48 40 -43 86
4 36 -27 39 -40 3 -41 -119 175 -212 237 -102 16 29 10 69 -15 93 -8 9 -12 16
-8 16 16 0 -35 46 -97 86 -37 23 -70 48 -75 55 -11 19 44 62 73 56 30 -6 58
15 50 37 -10 26 -67 20 -119 -13z"/>
<path d="M5983 10830 c-64 -39 -85 -136 -39 -179 59 -55 231 -52 252 4 12 30
-10 36 -51 15 -47 -24 -105 -26 -146 -4 -37 18 -33 35 9 46 53 14 98 91 72
123 -17 21 -59 19 -97 -5z m48 -49 c-6 -10 -22 -21 -36 -23 -31 -6 -31 -4 -3
22 29 26 53 27 39 1z"/>
<path d="M4559 10777 c-19 -12 -38 -36 -44 -52 -5 -17 -16 -35 -23 -40 -10 -8
-6 -19 18 -52 17 -22 38 -44 48 -48 46 -18 149 -15 137 5 -3 5 1 10 7 13 9 3
10 8 3 16 -8 8 -20 8 -46 -1 -25 -7 -45 -7 -65 0 l-29 10 30 11 c74 30 97 90
50 136 -30 31 -43 31 -86 2z m66 -44 c7 -21 -27 -53 -56 -53 -25 0 -24 25 1
50 25 25 46 26 55 3z m42 -145 c-3 -8 -6 -5 -6 6 -1 11 2 17 5 13 3 -3 4 -12
1 -19z"/>
<path d="M5376 10767 c-15 -11 -18 -21 -12 -48 17 -86 51 -118 99 -93 51 27
61 77 25 119 -28 31 -85 43 -112 22z m84 -52 c10 -13 10 -19 -5 -35 -21 -23
-30 -20 -43 20 -10 28 -9 30 12 30 13 0 29 -7 36 -15z"/>
<path d="M4316 10738 c-18 -28 -38 -132 -29 -154 3 -8 13 -14 22 -12 11 2 18
20 24 63 11 74 18 84 62 80 19 -2 38 1 41 7 5 7 2 8 -6 3 -10 -6 -12 -4 -7 9
4 9 3 14 -2 11 -5 -3 -12 -1 -16 5 -3 5 -22 10 -40 10 -25 0 -39 -6 -49 -22z"/>
<path d="M4095 10733 c-31 -8 -38 -18 -42 -73 -5 -64 11 -114 44 -140 34 -26
73 -26 80 0 3 11 9 17 14 15 4 -3 15 9 24 26 30 57 0 130 -67 163 -17 9 -32
15 -32 15 -1 -1 -10 -3 -21 -6z m70 -76 c26 -37 15 -97 -20 -111 -10 -4 -22 5
-35 27 -22 36 -24 54 -11 91 12 29 43 26 66 -7z"/>
<path d="M3823 10710 c-35 -21 -63 -66 -63 -103 0 -54 117 -111 154 -75 21 21
1 38 -45 38 -43 0 -62 18 -57 57 2 21 13 33 42 48 21 11 38 23 37 28 0 4 -1
12 -1 17 0 16 -32 11 -67 -10z"/>
<path d="M3380 10698 c-25 -5 -51 -16 -59 -23 -21 -21 -3 -38 33 -31 17 4 52
10 79 15 51 8 73 23 63 40 -8 13 -54 13 -116 -1z"/>
<path d="M2128 10651 c-4 -89 -5 -101 -18 -116 -15 -18 -6 -45 14 -45 25 0 39
40 40 119 1 64 -2 76 -16 79 -15 3 -18 -4 -20 -37z"/>
<path d="M2600 10678 c-41 -5 -76 -11 -79 -13 -2 -2 -1 -12 3 -21 5 -13 17
-15 76 -10 84 8 120 20 120 41 0 17 -8 17 -120 3z"/>
<path d="M2340 10167 c0 -7 40 -54 89 -104 126 -129 147 -202 91 -318 -36 -74
-166 -195 -205 -192 -34 3 -26 -37 8 -41 34 -4 77 26 158 110 76 79 111 152
108 230 -3 86 -34 143 -130 243 -77 78 -119 104 -119 72z m155 -127 c3 -5 2
-10 -4 -10 -5 0 -13 5 -16 10 -3 6 -2 10 4 10 5 0 13 -4 16 -10z"/>
<path d="M3874 10155 c-4 -8 -1 -43 5 -78 6 -35 11 -79 11 -98 0 -35 -1 -36
-52 -45 -43 -7 -53 -13 -53 -29 0 -21 13 -23 73 -10 l32 8 0 -69 c0 -89 15
-146 38 -142 27 5 26 36 -2 79 -15 21 -22 39 -17 39 6 0 15 -8 21 -17 11 -17
11 -16 5 1 -3 11 -3 39 1 63 l6 43 55 0 c46 0 54 3 51 17 -2 13 -17 20 -50 24
-26 4 -51 10 -56 13 -5 3 -12 41 -16 86 -7 86 -19 130 -36 130 -6 0 -13 -7
-16 -15z"/>
<path d="M1790 10143 c-34 -13 -92 -68 -110 -103 -27 -53 -50 -161 -50 -234 0
-129 50 -220 136 -250 46 -16 94 -8 94 14 0 6 -4 8 -10 5 -5 -3 -10 -1 -10 4
0 6 -12 11 -27 11 -102 0 -158 129 -132 300 19 125 70 202 139 211 17 3 25 10
25 24 0 21 -26 29 -55 18z"/>
<path d="M2070 10093 c-24 -9 -74 -53 -87 -77 -29 -51 1 -126 52 -126 17 0 17
-1 2 -18 -9 -10 -23 -37 -32 -61 -12 -36 -13 -51 -3 -84 16 -54 60 -74 127
-57 50 12 111 63 111 91 0 10 5 19 11 21 9 3 9 13 0 40 -14 41 -68 88 -103 88
-23 1 -23 1 -3 18 51 43 74 115 40 128 -8 4 -13 10 -10 14 6 9 -49 30 -74 29
-9 0 -23 -3 -31 -6z m78 -73 c4 -32 -41 -77 -85 -86 -25 -5 -33 -2 -42 14 -23
43 35 104 94 99 24 -1 31 -7 33 -27z m52 -190 c16 -30 12 -47 -17 -80 -32 -36
-102 -52 -128 -30 -20 17 -19 58 4 100 16 31 23 35 55 34 20 -1 36 3 36 8 0
14 38 -10 50 -32z"/>
<path d="M3440 10035 c-11 -13 -10 -19 5 -35 17 -19 20 -19 34 -5 12 11 13 20
5 32 -15 24 -29 26 -44 8z"/>
<path d="M4158 9924 c-29 -15 -48 -42 -48 -67 0 -9 30 -38 66 -67 36 -28 63
-57 61 -63 -7 -23 -49 -19 -77 8 -24 23 -28 24 -40 10 -29 -34 50 -95 105 -81
28 7 65 43 65 64 0 15 -68 87 -109 115 -20 13 -22 19 -11 32 7 8 27 15 46 15
40 0 54 18 29 37 -24 17 -53 16 -87 -3z"/>
<path d="M3027 9858 c-68 -50 -86 -108 -88 -283 -2 -120 4 -147 34 -143 21 3
22 8 22 90 0 47 3 84 8 81 4 -2 7 14 7 37 l0 41 26 -20 c36 -29 58 -26 88 9
42 50 47 132 11 187 -20 30 -69 30 -108 1z m81 -48 c21 -58 -7 -130 -44 -116
-12 5 -15 14 -10 40 8 43 -8 55 -35 25 -23 -26 -25 -19 -4 21 16 30 51 60 71
60 7 0 17 -13 22 -30z"/>
<path d="M3598 9868 c-27 -21 -59 -94 -61 -140 -3 -64 21 -56 43 15 17 56 43
97 61 97 9 0 27 -59 31 -100 2 -17 9 -25 23 -25 17 0 20 6 18 43 -3 66 -31
116 -68 120 -16 2 -38 -3 -47 -10z"/>
<path d="M3272 9847 c-38 -41 -41 -116 -6 -151 24 -25 81 -21 95 6 17 32 15
98 -5 136 -20 39 -53 43 -84 9z m52 -43 c10 -25 7 -72 -4 -79 -15 -9 -40 14
-40 37 0 23 17 58 29 58 5 0 12 -7 15 -16z"/>
<path d="M3432 9808 c-24 -24 -2 -108 28 -108 24 0 36 18 21 33 -6 6 -11 21
-11 33 0 27 -10 54 -19 54 -4 0 -12 -5 -19 -12z"/>
<path d="M5743 9378 c-6 -7 -13 -24 -16 -37 -7 -30 11 -121 24 -121 6 0 8 -4
5 -9 -4 -5 -2 -21 4 -35 7 -20 6 -26 -5 -26 -19 0 -74 -69 -84 -105 -16 -59
27 -117 97 -131 25 -5 33 -2 46 18 30 46 21 170 -18 268 -18 43 -24 76 -23
121 2 62 -9 83 -30 57z m42 -301 c9 -46 2 -110 -11 -114 -7 -2 -25 7 -40 21
-28 23 -28 26 -16 58 8 18 14 38 15 45 0 7 4 10 8 7 4 -2 10 0 14 6 12 19 24
10 30 -23z"/>
<path d="M4355 9269 c-4 -11 -10 -59 -13 -107 l-7 -86 -60 -11 c-50 -8 -60
-13 -60 -30 0 -22 11 -23 83 -12 l42 7 0 -59 c0 -130 21 -155 113 -131 67 17
107 37 107 55 0 24 -17 26 -61 5 -24 -11 -59 -20 -76 -20 -31 0 -33 2 -34 38
-1 52 2 116 7 121 2 2 35 6 74 9 72 5 81 12 56 45 -14 18 -42 23 -48 8 -1 -4
-24 -10 -50 -13 -42 -5 -48 -3 -48 13 0 11 -6 19 -12 19 -9 0 -9 3 -2 8 9 6
34 117 34 151 0 20 -38 12 -45 -10z"/>
<path d="M2454 9206 c-3 -8 -1 -23 4 -33 10 -18 16 -87 13 -150 -1 -29 -4 -33
-29 -33 -35 0 -68 -22 -58 -39 5 -7 18 -11 29 -10 50 3 57 0 57 -31 0 -22 5
-30 18 -30 11 0 13 -3 5 -8 -7 -4 -15 -27 -19 -50 -6 -38 -4 -42 14 -42 25 0
32 18 32 80 0 30 -6 54 -15 64 -8 8 -15 17 -15 20 0 3 34 3 75 -1 64 -5 78 -3
95 12 11 10 20 24 20 31 0 17 -30 22 -56 9 -11 -6 -42 -9 -67 -7 l-47 4 2 86
c0 48 -4 99 -10 115 -12 29 -39 36 -48 13z"/>
<path d="M3589 9198 c0 -7 0 -48 1 -90 l1 -78 -34 0 c-41 0 -66 -23 -48 -44 9
-11 18 -12 41 -3 16 6 32 9 35 6 3 -4 6 -45 6 -92 0 -59 5 -89 14 -97 22 -18
29 8 30 105 l0 90 39 -3 c24 -2 43 2 48 10 7 10 8 8 4 -4 -4 -13 0 -18 14 -18
13 0 20 7 20 20 0 20 -49 40 -102 40 -27 0 -27 0 -27 75 0 41 -3 80 -6 85 -9
14 -35 12 -36 -2z"/>
<path d="M5472 9095 c-16 -13 -31 -22 -34 -19 -14 13 -30 -32 -31 -88 -3 -85
14 -82 57 10 42 85 61 92 70 25 9 -66 24 -100 47 -106 27 -7 30 3 14 54 -8 24
-17 61 -20 81 -10 69 -52 86 -103 43z"/>
<path d="M4794 9096 c-8 -22 2 -33 38 -40 84 -17 113 -5 61 26 -45 25 -92 32
-99 14z"/>
<path d="M1435 9089 c-54 -12 -84 -29 -90 -49 -9 -30 16 -69 65 -100 26 -17
66 -49 89 -73 65 -65 68 -106 11 -145 -58 -39 -169 -18 -155 29 5 15 1 19 -19
19 -50 0 -27 -72 29 -96 68 -28 165 -10 205 38 23 28 34 73 24 90 -5 7 -9 18
-10 25 -4 24 -61 85 -127 134 -37 28 -66 56 -64 62 5 15 42 25 100 26 33 1 49
6 54 16 3 9 3 18 0 21 -10 10 -74 12 -112 3z"/>
<path d="M5205 9067 c-19 -19 -37 -47 -41 -62 -10 -39 22 -94 67 -117 40 -21
122 -24 138 -5 16 20 -6 37 -40 30 -35 -7 -91 12 -106 36 -11 17 -8 19 27 25
25 4 46 15 59 32 26 33 26 49 1 74 -30 30 -67 25 -105 -13z m71 -35 c-7 -12
-56 -22 -56 -11 0 15 44 39 53 30 5 -5 7 -14 3 -19z"/>
<path d="M2107 9064 c-11 -11 -8 -44 4 -44 5 0 7 -5 3 -11 -4 -7 -1 -10 7 -7
16 5 19 60 3 65 -5 2 -13 0 -17 -3z"/>
<path d="M3329 9053 c-34 -5 -91 -58 -87 -80 2 -10 14 -22 28 -29 100 -46 105
-49 105 -74 0 -23 -4 -25 -54 -28 -30 -2 -59 2 -64 7 -19 19 -37 12 -37 -14 0
-29 26 -38 107 -39 41 -1 56 4 77 23 14 14 26 35 26 49 0 32 -59 90 -99 98
-56 12 -31 40 41 46 57 5 70 15 44 34 -19 14 -35 15 -87 7z"/>
<path d="M3803 9005 c-50 -35 -78 -116 -51 -143 16 -16 67 -15 118 3 53 19 60
19 60 1 0 -21 50 -57 74 -54 32 5 30 26 -4 43 -31 16 -32 19 -25 61 8 53 -5
57 -61 19 -20 -14 -42 -25 -49 -25 -7 0 -20 -10 -29 -22 -9 -14 -15 -17 -13
-8 1 10 -5 14 -20 12 -28 -4 -29 2 -2 45 20 32 25 35 56 30 41 -7 58 17 28 39
-25 18 -55 18 -82 -1z"/>
<path d="M1915 8998 c-30 -17 -35 -28 -35 -81 0 -50 19 -109 40 -122 7 -4 19
-1 27 8 14 13 13 18 -7 44 -15 22 -20 41 -18 69 3 38 4 39 47 44 52 6 64 25
26 40 -34 13 -55 12 -80 -2z"/>
<path d="M4058 8995 c-32 -18 -52 -74 -38 -110 10 -27 45 -49 66 -41 21 8 17
37 -7 43 -15 4 -19 12 -17 32 4 37 46 55 95 42 49 -14 68 2 34 30 -28 23 -94
25 -133 4z"/>
<path d="M1710 8942 c-40 -40 -74 -127 -69 -180 1 -15 -1 -34 -4 -42 -3 -8 -8
-36 -11 -62 -6 -53 18 -96 47 -85 25 9 40 81 29 133 -9 41 -8 44 9 39 53 -17
120 68 123 155 2 89 -57 109 -124 42z m82 -47 c2 -19 1 -35 -2 -35 -4 0 -14
-16 -23 -35 -21 -45 -53 -48 -62 -6 -7 34 14 82 47 105 27 19 35 14 40 -29z"/>
<path d="M2196 8961 c-10 -11 -19 -44 -23 -86 -6 -62 -5 -67 13 -63 20 3 31
34 33 86 1 42 27 43 36 2 4 -17 4 -53 0 -79 -5 -39 -3 -49 10 -54 22 -9 35 30
35 104 0 50 -4 64 -25 84 -29 30 -56 32 -79 6z"/>
<path d="M2057 8934 c-9 -9 -9 -96 -1 -118 3 -9 14 -16 24 -16 15 0 17 10 16
67 -1 53 -4 68 -16 71 -9 1 -19 0 -23 -4z"/>
<path d="M7003 8478 c-5 -7 -15 -38 -22 -68 -6 -30 -16 -62 -22 -70 -9 -12
-10 -12 -5 4 6 17 2 18 -34 13 -30 -4 -40 -2 -40 9 0 8 -4 14 -8 14 -11 0 -52
-44 -52 -55 0 -5 -8 -17 -17 -27 -12 -14 -17 -35 -16 -74 2 -60 20 -99 53
-109 26 -8 17 -57 -18 -98 -14 -16 -14 -19 0 -34 23 -22 45 -10 53 29 12 51
37 97 57 104 28 9 77 53 93 85 19 35 19 70 1 114 -13 29 -12 41 0 91 15 56 13
84 -4 84 -5 0 -14 -6 -19 -12z m-92 -168 c6 0 8 4 5 9 -4 5 3 7 14 4 11 -3 20
-7 20 -10 0 -2 -13 -36 -30 -74 -16 -39 -29 -73 -29 -77 6 -36 0 -35 -46 6
-24 22 -18 87 11 134 22 35 28 39 36 25 5 -10 14 -17 19 -17z m77 -80 c-5 -16
-18 -36 -29 -46 -20 -18 -20 -18 0 34 12 29 21 56 21 60 0 4 4 1 9 -7 5 -8 5
-25 -1 -41z"/>
<path d="M4921 8419 c-11 -18 -18 -36 -15 -41 3 -4 -2 -8 -10 -8 -8 0 -17 -8
-20 -17 -3 -10 -17 -30 -30 -45 -22 -22 -30 -25 -60 -18 -39 9 -62 -1 -53 -24
3 -8 2 -18 -4 -21 -23 -15 -59 -106 -59 -152 0 -32 -7 -56 -20 -73 -23 -30
-25 -46 -5 -53 13 -6 55 35 55 54 0 4 14 3 30 -3 45 -15 96 -1 141 39 48 43
67 77 67 118 0 31 -31 91 -50 97 -6 2 9 33 35 72 52 76 53 79 32 96 -12 10
-18 6 -34 -21z m-123 -191 c-8 -7 -30 -34 -48 -60 -18 -27 -35 -48 -37 -48
-10 0 49 100 64 109 25 15 40 13 21 -1z m85 -8 c24 -28 21 -49 -10 -97 -30
-47 -58 -63 -109 -63 l-34 0 61 90 c33 50 63 90 67 90 4 0 15 -9 25 -20z"/>
<path d="M6640 8429 c-19 -12 -37 -24 -40 -28 -3 -3 -12 -7 -20 -9 -41 -9 -58
-62 -20 -62 11 0 20 4 20 9 0 5 23 21 50 35 52 27 57 25 39 -21 -20 -54 -53
-93 -78 -93 -28 0 -94 -47 -86 -61 4 -5 1 -9 -5 -9 -6 0 -14 -8 -17 -17 -4
-10 -13 -24 -20 -31 -21 -21 -15 -42 11 -42 15 0 45 19 80 51 52 47 76 55 76
25 0 -16 45 -66 60 -66 20 0 22 31 3 53 -10 12 -24 34 -30 48 -10 23 -8 32 13
60 35 47 58 132 44 159 -14 26 -36 25 -80 -1z"/>
<path d="M5873 8413 c-62 -16 -87 -38 -56 -50 9 -3 36 -1 61 6 25 6 47 10 49
8 2 -3 -15 -20 -39 -38 -76 -60 -80 -75 -23 -102 42 -20 52 -51 31 -101 -20
-48 -52 -60 -107 -41 -44 16 -73 7 -63 -19 5 -13 80 -36 118 -36 53 0 106 72
106 145 0 27 -8 44 -31 67 l-31 31 34 26 c71 55 103 90 93 100 -18 18 -80 19
-142 4z"/>
<path d="M5646 8377 c-3 -18 -11 -70 -19 -117 -8 -47 -11 -86 -6 -88 13 -5 11
-30 -2 -34 -14 -5 -38 -133 -28 -149 12 -21 38 -1 43 33 57 344 60 379 34 383
-13 2 -19 -6 -22 -28z"/>
<path d="M7182 8373 c-16 -54 -43 -243 -36 -254 17 -29 43 16 49 86 2 22 10
71 19 108 20 87 20 97 -2 97 -13 0 -22 -12 -30 -37z"/>
<path d="M1452 8302 l-33 -68 -64 4 c-60 4 -65 3 -75 -19 -6 -13 -22 -39 -35
-58 -36 -49 -30 -108 16 -157 19 -20 19 -21 -5 -70 -65 -131 -70 -154 -36
-154 11 0 20 5 20 11 0 7 18 49 39 94 l39 82 51 -5 c35 -3 51 -1 51 7 0 7 4
10 10 6 5 -3 24 8 42 24 30 26 33 35 33 85 0 46 -4 59 -28 84 l-29 30 36 67
c40 75 45 105 19 105 -12 0 -29 -23 -51 -68z m-78 -115 c16 -12 14 -18 -25
-82 -52 -87 -48 -84 -65 -61 -26 36 -18 84 20 122 38 38 44 40 70 21z m90
-102 c0 -40 -25 -70 -64 -79 -52 -12 -55 6 -13 82 38 70 38 71 58 52 12 -12
19 -33 19 -55z"/>
<path d="M3522 8345 c-11 -14 -26 -47 -33 -74 -8 -34 -16 -48 -26 -44 -22 9
-68 -16 -86 -46 -10 -18 -17 -50 -17 -84 0 -44 5 -61 25 -85 l25 -29 -26 -64
c-37 -88 -43 -114 -34 -130 12 -19 43 9 37 33 -3 10 -2 16 2 14 4 -3 20 29 36
70 17 40 36 74 43 74 30 0 72 36 87 73 14 36 14 41 -4 81 -10 24 -23 46 -29
50 -14 8 12 101 38 137 14 20 16 29 7 38 -16 16 -23 14 -45 -14z m-67 -217
c-4 -24 -13 -56 -20 -73 l-13 -30 -11 28 c-23 57 -7 117 30 117 19 0 20 -4 14
-42z m65 -44 c0 -11 -9 -29 -20 -39 -24 -21 -26 -11 -9 49 8 29 13 36 20 25 5
-8 9 -23 9 -35z"/>
<path d="M3837 8310 c-41 -48 -63 -116 -49 -152 9 -26 8 -38 -8 -74 -28 -60
-27 -128 2 -148 67 -47 208 19 208 96 0 31 -34 85 -59 93 -20 6 -20 6 0 26 34
34 20 116 -29 172 -21 24 -37 21 -65 -13z m73 -95 c0 -27 -32 -58 -57 -53 -28
5 -29 58 -2 92 l23 29 18 -23 c10 -12 18 -32 18 -45z m-1 -128 c36 -18 44 -51
20 -81 -22 -29 -80 -50 -109 -41 -17 5 -20 14 -18 55 1 27 5 47 9 44 4 -2 10
5 14 16 7 23 46 27 84 7z"/>
<path d="M5155 8329 c-16 -5 -47 -8 -67 -7 -48 3 -71 -17 -44 -38 11 -8 29
-14 40 -14 21 -1 21 -1 1 -12 -11 -6 -30 -20 -42 -31 -35 -32 -15 -46 60 -40
51 4 66 2 86 -14 19 -16 23 -25 17 -48 -11 -42 -59 -85 -96 -85 -42 0 -120 20
-120 31 0 5 5 9 10 9 12 0 13 10 0 30 -15 24 -62 -7 -58 -38 5 -43 48 -65 136
-70 78 -4 79 -4 114 29 69 65 79 130 27 173 -17 14 -39 26 -50 26 -29 0 -23
12 21 42 42 29 51 52 24 62 -19 7 -20 7 -59 -5z"/>
<path d="M2505 8320 c-4 -6 -1 -18 6 -26 9 -11 31 -14 93 -12 75 3 81 5 84 26
3 21 1 22 -87 22 -52 0 -93 -4 -96 -10z"/>
<path d="M3703 8297 c-9 -14 -47 -139 -68 -222 -13 -53 -13 -62 1 -82 8 -13
21 -23 30 -23 18 0 32 32 16 38 -19 6 -14 40 17 137 41 128 45 151 27 158 -9
4 -19 1 -23 -6z"/>
<path d="M3132 8267 c-55 -21 -73 -40 -54 -59 7 -7 24 -4 57 12 25 12 48 20
51 17 7 -7 -21 -72 -46 -107 -11 -16 -33 -31 -50 -35 -16 -3 -45 -24 -65 -46
-29 -33 -34 -43 -25 -59 16 -29 45 -24 88 14 36 33 39 34 50 16 19 -30 75 -68
109 -73 42 -7 58 11 37 41 -17 24 -40 29 -46 10 -3 -7 -22 6 -45 30 l-41 43
34 52 c34 51 49 99 42 132 -5 30 -39 34 -96 12z"/>
<path d="M1617 8253 c-30 -17 -47 -33 -45 -42 5 -24 35 -25 64 -2 42 33 54 28
42 -16 -25 -92 -58 -132 -141 -173 -37 -18 -52 -31 -52 -45 0 -28 41 -32 76
-6 39 29 77 28 85 -3 3 -14 14 -32 25 -42 16 -14 23 -15 45 -5 30 13 27 35 -4
39 -12 2 -22 10 -22 18 0 8 -11 26 -24 39 -21 21 -22 26 -9 36 41 35 80 158
64 202 -13 35 -41 35 -104 0z"/>
<path d="M2180 8269 c-38 -15 -90 -58 -90 -75 0 -21 31 -30 44 -13 15 21 58
49 73 49 16 0 -8 -68 -45 -127 -22 -35 -33 -43 -57 -43 -62 0 -133 -71 -105
-105 19 -23 43 -18 99 20 45 31 54 34 74 23 12 -7 26 -11 30 -10 5 1 6 -2 3
-6 -7 -11 22 -37 50 -46 24 -7 60 16 50 32 -4 7 -17 12 -29 12 -12 0 -39 16
-59 35 l-38 35 32 52 c19 31 32 65 32 85 0 18 4 33 8 33 16 0 7 40 -11 50 -23
12 -28 12 -61 -1z"/>
<path d="M2421 8235 c-37 -42 -34 -54 31 -118 75 -75 61 -118 -32 -102 -35 6
-40 4 -40 -13 0 -24 18 -32 76 -32 34 0 51 6 69 25 33 32 31 52 -6 109 -35 52
-60 70 -77 56 -8 -7 -9 -7 -3 1 5 6 7 17 5 24 -3 7 6 22 20 33 14 11 26 27 26
36 0 28 -37 18 -69 -19z m-4 -240 c0 -8 -4 -12 -9 -9 -4 3 -8 9 -8 15 0 5 4 9
8 9 5 0 9 -7 9 -15z"/>
<path d="M4266 8156 c-69 -11 -88 -24 -64 -43 9 -7 35 -7 83 1 57 10 70 15 70
31 0 24 -6 24 -89 11z"/>
<path d="M6064 8086 c-8 -21 3 -36 27 -36 15 0 20 6 17 22 -4 27 -35 37 -44
14z"/>
<path d="M5310 8055 c-14 -17 -5 -35 19 -35 20 0 41 19 41 37 0 18 -45 17 -60
-2z"/>
<path d="M2674 8025 c-11 -27 11 -39 48 -29 46 13 43 38 -5 42 -27 2 -39 -1
-43 -13z"/>
<path d="M1874 8023 c5 -9 0 -13 -13 -13 -20 0 -37 -32 -26 -50 12 -19 33 -10
45 21 10 24 10 32 0 42 -10 9 -11 9 -6 0z"/>
<path d="M4587 7938 c-43 -58 -60 -98 -47 -113 14 -17 40 -9 40 12 0 9 15 37
34 63 25 35 31 51 23 59 -17 17 -24 14 -50 -21z"/>
<path d="M9802 11223 c1054 -2 2782 -2 3840 0 1058 1 195 2 -1917 2 -2112 0
-2977 -1 -1923 -2z"/>
<path d="M12316 11058 c-26 -53 -32 -74 -23 -80 9 -6 9 -8 -1 -8 -13 0 -53
-82 -66 -135 -10 -39 -61 -85 -102 -92 -19 -3 -31 -9 -28 -14 3 -5 0 -9 -5 -9
-16 0 -13 -30 4 -36 15 -6 95 34 95 48 0 25 16 -5 18 -34 4 -53 32 -83 78 -83
29 0 39 4 42 18 3 13 -3 17 -26 17 -37 0 -48 14 -55 66 -4 36 0 47 30 85 19
24 44 61 55 82 22 44 61 214 54 234 -12 30 -36 9 -70 -59z"/>
<path d="M13006 11104 c-3 -9 -6 -31 -6 -51 0 -19 -8 -63 -17 -98 -15 -56 -20
-64 -45 -69 -20 -4 -28 -11 -28 -27 0 -17 5 -20 25 -17 14 3 25 5 25 4 0 0 -6
-34 -14 -75 -15 -80 -12 -104 12 -99 11 2 19 26 29 83 7 44 15 85 17 91 3 6
26 15 53 18 26 4 58 10 71 13 22 5 23 4 17 -43 -6 -42 -4 -52 13 -68 25 -22
88 -15 126 15 31 25 53 86 36 102 -9 9 -16 6 -31 -12 -10 -13 -19 -29 -19 -36
0 -14 -42 -35 -72 -35 -17 0 -19 4 -12 28 4 15 8 41 8 57 1 28 -2 30 -36 33
-20 2 -60 -1 -88 -6 l-52 -10 5 27 c32 167 33 191 3 191 -7 0 -17 -7 -20 -16z"/>
<path d="M9466 10988 c-42 -145 -46 -169 -40 -214 6 -48 29 -88 45 -79 4 3 5
36 2 73 -4 52 -1 82 16 136 11 37 21 74 21 82 0 17 -39 19 -44 2z"/>
<path d="M10012 10988 c-5 -7 -21 -37 -36 -65 -26 -51 -28 -53 -69 -53 -50 0
-72 -12 -64 -34 4 -11 19 -16 45 -16 l39 0 -5 -53 c-4 -49 -2 -56 23 -75 20
-16 41 -22 79 -22 59 0 82 11 73 34 -5 13 -16 15 -60 10 -48 -6 -56 -4 -69 15
-8 11 -18 18 -22 13 -5 -4 2 12 14 36 l22 42 60 0 c51 0 59 2 56 18 -2 13 -15
18 -51 20 -26 2 -47 6 -47 9 0 3 12 27 26 54 25 44 27 79 6 79 -5 0 -14 -6
-20 -12z m8 -148 c0 -5 -2 -10 -4 -10 -3 0 -8 5 -11 10 -3 6 -1 10 4 10 6 0
11 -4 11 -10z"/>
<path d="M8196 10961 c-61 -19 -139 -88 -172 -152 -29 -58 -30 -74 -5 -116 23
-36 55 -50 77 -32 19 15 31 4 15 -15 -10 -12 -6 -17 26 -26 94 -27 198 -21
198 11 0 11 -16 14 -70 15 -112 2 -215 48 -215 96 0 32 38 95 79 129 39 34
134 75 150 65 12 -8 34 21 26 34 -9 14 -45 13 -45 -2 0 -9 -3 -9 -8 -2 -5 7
-22 6 -56 -5z"/>
<path d="M11317 10960 c-30 -24 -13 -41 33 -34 21 3 45 2 54 -3 13 -7 5 -13
-39 -27 -33 -10 -55 -23 -55 -31 0 -21 47 -41 111 -48 132 -15 152 -46 67
-101 -98 -62 -165 -71 -156 -21 7 34 -15 51 -36 30 -42 -42 -3 -105 65 -105
67 0 198 75 221 126 13 28 -3 74 -26 74 -8 0 -16 4 -18 10 -1 5 -32 16 -68 24
-36 8 -59 14 -51 15 29 2 131 55 131 68 0 19 -11 22 -119 31 -80 7 -97 6 -114
-8z"/>
<path d="M13461 10933 c-27 -19 -63 -74 -79 -120 -8 -24 -7 -36 2 -49 18 -24
32 -12 44 39 13 51 55 101 80 94 9 -2 23 -6 31 -8 21 -6 25 26 6 45 -21 20
-53 20 -84 -1z"/>
<path d="M13661 10902 c-36 -18 -65 -52 -75 -88 -4 -14 4 -32 27 -58 28 -33
40 -39 84 -43 57 -6 151 20 160 44 11 29 -12 33 -67 12 -38 -14 -65 -18 -90
-14 -35 7 -60 21 -60 35 0 3 6 7 13 7 28 0 87 33 102 56 36 56 -22 86 -94 49z
m35 -41 c-3 -5 -16 -11 -28 -14 -22 -6 -22 -5 -4 8 22 17 40 20 32 6z"/>
<path d="M14004 10886 c-59 -26 -49 -58 41 -122 l30 -22 -30 -12 c-22 -8 -35
-9 -48 -1 -18 12 -57 -1 -57 -17 0 -38 90 -43 141 -9 52 35 50 60 -10 99 -53
35 -66 54 -29 45 38 -10 69 3 66 27 -4 26 -58 33 -104 12z"/>
<path d="M12639 10842 c-58 -58 -65 -97 -24 -137 38 -39 137 -31 122 9 -5 13
-14 16 -40 11 -33 -7 -67 12 -67 36 0 22 67 81 100 88 49 10 46 35 -3 39 -35
3 -44 -2 -88 -46z"/>
<path d="M12436 10845 c-81 -81 -48 -150 62 -129 37 7 47 13 47 29 0 21 -10
22 -67 11 -39 -8 -35 5 9 29 46 26 62 49 47 73 -20 31 -59 27 -98 -13z"/>
<path d="M9635 10846 c-27 -14 -61 -36 -74 -51 l-24 -26 19 -36 c10 -20 28
-41 39 -47 11 -6 23 -15 27 -20 8 -12 109 -20 143 -12 14 4 25 13 25 21 0 14
-37 31 -47 21 -4 -3 2 -6 13 -6 18 -1 18 -1 0 -11 -12 -8 -20 -8 -25 -1 -3 5
-27 13 -53 17 -26 4 -54 16 -64 26 -16 18 -15 19 10 29 15 5 33 10 39 10 19 0
77 39 84 55 7 19 -24 55 -46 55 -9 0 -38 -11 -66 -24z"/>
<path d="M10235 10830 c-59 -61 -51 -116 22 -147 35 -14 93 -18 93 -5 0 4 17
7 39 7 44 1 79 26 58 44 -15 12 -86 -5 -99 -24 -5 -7 -8 -6 -8 1 0 6 -13 11
-29 12 -17 0 -39 6 -50 12 -23 12 -28 44 -9 56 8 5 9 2 5 -9 -8 -20 17 -23 60
-6 47 18 55 47 23 79 -31 31 -61 25 -105 -20z m70 -10 c3 -5 -1 -10 -10 -10
-9 0 -13 5 -10 10 3 6 8 10 10 10 2 0 7 -4 10 -10z"/>
<path d="M9102 10826 c-17 -19 -33 -44 -37 -56 -4 -14 -12 -19 -22 -16 -9 4
-22 1 -29 -5 -17 -14 -18 -70 -1 -88 10 -11 9 -12 -1 -7 -11 6 -12 -4 -6 -53
l7 -61 -569 -3 c-313 -1 1164 -2 3281 -2 3598 0 3637 0 594 2 -3246 3 -3257 3
-3262 23 -3 11 -1 20 4 20 5 0 9 10 9 23 0 19 10 27 50 41 64 23 136 78 144
110 13 53 -38 106 -102 106 -22 0 -39 -10 -60 -34z m98 -24 c30 -25 20 -53
-31 -86 -46 -31 -93 -43 -103 -27 -4 6 -3 11 3 11 6 0 20 19 32 43 40 79 60
91 99 59z"/>
<path d="M8711 10775 c-17 -19 -39 -35 -51 -35 -19 0 -21 -5 -35 -72 -1 -9 3
-25 9 -34 11 -15 14 -15 28 0 9 8 27 32 39 53 20 32 24 35 27 18 7 -36 20 -38
72 -11 l52 27 15 -21 c19 -27 61 -44 78 -30 6 5 15 6 20 2 4 -4 6 2 4 12 -3
12 -16 23 -36 28 -21 6 -33 15 -35 30 -6 39 -32 45 -77 15 -48 -32 -51 -33
-44 -8 5 20 -12 61 -26 61 -5 0 -23 -16 -40 -35z"/>
<path d="M8470 10780 c0 -20 -3 -25 -26 -53 -67 -80 27 -143 109 -73 37 32 34
57 -13 100 -39 35 -70 47 -70 26z m55 -70 c9 -15 -14 -40 -36 -40 -21 0 -25
20 -7 38 15 15 35 15 43 2z"/>
<path d="M8889 10303 c-1 -5 -3 -17 -4 -28 -1 -11 -20 -72 -43 -136 -53 -152
-44 -188 37 -141 30 17 31 16 45 -4 9 -12 28 -24 43 -27 36 -7 85 19 81 41 -4
18 -15 19 -59 7 -22 -5 -27 -3 -33 18 -8 33 -31 40 -67 22 -16 -9 -29 -12 -29
-9 0 4 16 56 35 115 41 127 43 149 15 149 -11 0 -21 -3 -21 -7z m1 -134 c0 -5
-4 -9 -10 -9 -5 0 -10 7 -10 16 0 8 5 12 10 9 6 -3 10 -10 10 -16z"/>
<path d="M9640 10286 c-5 -13 -14 -68 -20 -121 -16 -150 -56 -217 -106 -180
-17 12 -17 14 0 40 14 21 23 25 42 21 29 -8 43 16 24 39 -20 24 -48 17 -85
-20 -43 -42 -46 -81 -10 -115 20 -18 31 -22 62 -17 68 11 104 81 118 235 4 40
13 79 21 87 19 18 18 41 -2 49 -26 10 -34 7 -44 -18z"/>
<path d="M12244 10292 c-10 -9 -39 -33 -64 -51 -72 -55 -110 -94 -110 -113 0
-29 30 -37 92 -25 32 6 61 7 65 3 5 -4 8 -49 8 -99 0 -77 3 -92 17 -95 26 -5
32 16 29 110 l-2 88 61 0 c69 0 102 13 94 35 -7 18 -30 20 -37 3 -4 -10 -6
-10 -6 0 -1 8 -20 12 -61 12 l-60 0 0 46 c0 27 6 51 15 61 12 12 13 18 4 29
-15 18 -21 18 -45 -4z m-14 -102 c0 -31 -4 -33 -72 -44 -16 -3 -28 -3 -28 0 0
3 92 73 98 74 1 0 2 -13 2 -30z"/>
<path d="M11914 10255 c-4 -8 -3 -22 0 -31 3 -9 1 -66 -4 -127 -10 -102 -9
-113 7 -124 10 -8 20 -10 26 -4 14 14 18 273 5 288 -14 17 -27 16 -34 -2z"/>
<path d="M11161 10231 c-33 -9 -51 -38 -31 -51 8 -5 19 -5 25 0 5 4 41 11 79
15 80 9 80 2 5 -46 -66 -44 -62 -60 23 -75 37 -7 75 -17 84 -22 15 -8 14 -12
-13 -26 -44 -22 -110 -35 -148 -29 -30 5 -32 8 -22 24 17 27 -3 45 -32 27 -56
-34 -25 -88 56 -95 57 -6 133 12 133 31 0 9 8 12 24 9 17 -4 29 3 45 23 19 24
20 30 7 48 -11 18 -46 35 -104 52 -9 3 -3 13 17 29 36 31 47 61 31 80 -13 16
-131 20 -179 6z"/>
<path d="M8110 10159 c-54 -22 -90 -71 -98 -131 -4 -40 6 -48 30 -24 8 7 33
17 56 21 92 15 145 91 90 129 -25 18 -42 19 -78 5z m55 -48 c6 -11 -23 -29
-66 -41 -36 -11 -37 2 -3 29 28 22 59 27 69 12z"/>
<path d="M10097 10105 c-21 -30 -44 -55 -50 -55 -22 0 -37 23 -37 57 0 26 -4
33 -20 33 -45 0 -19 -119 29 -135 15 -5 13 -13 -18 -79 l-36 -75 -1045 -3
-1045 -3 1042 -2 1042 -3 -10 -29 c-13 -38 -8 -76 10 -76 9 0 20 21 29 53 l15
52 1348 0 c1114 0 1349 -2 1349 -13 0 -20 -43 -57 -67 -57 -23 0 -35 -20 -23
-39 20 -33 122 29 136 83 l6 26 348 0 347 0 -23 -47 c-18 -35 -21 -49 -12 -60
17 -20 25 -14 55 47 l28 55 1040 5 1040 5 -1027 3 c-566 1 -1028 5 -1028 9 0
4 11 18 24 32 42 46 96 130 96 151 0 36 -25 21 -68 -40 -24 -33 -47 -60 -52
-60 -4 0 -12 15 -15 33 -8 37 -22 57 -40 57 -18 0 -27 -27 -16 -48 36 -71 40
-89 25 -111 -15 -21 -20 -21 -370 -21 -214 0 -353 4 -349 9 7 13 -24 43 -37
35 -5 -3 -8 -15 -5 -25 5 -19 -27 -19 -1349 -19 -1285 0 -1353 1 -1347 18 4 9
25 49 47 87 21 39 39 76 39 84 0 8 20 33 43 56 32 32 40 45 31 54 -21 21 -42
10 -80 -44z"/>
<path d="M9741 10095 c-36 -41 -38 -54 -12 -86 17 -21 22 -22 63 -13 35 8 50
8 64 -3 10 -7 26 -13 36 -13 24 0 24 40 0 47 -14 3 -17 12 -14 34 3 23 0 29
-14 29 -9 0 -14 3 -11 7 13 13 -16 33 -48 33 -25 0 -40 -8 -64 -35z m90 -15
c4 0 6 -6 3 -13 -6 -18 -74 -40 -74 -24 0 18 33 48 48 42 7 -3 18 -5 23 -5z"/>
<path d="M8552 10082 c-49 -45 -62 -84 -37 -112 23 -25 87 -35 122 -18 32 15
37 41 9 46 -10 2 -16 0 -13 -5 4 -6 -29 -8 -75 -4 -16 2 -7 33 17 56 15 16 36
25 55 25 23 0 30 5 30 19 0 19 -18 31 -49 31 -10 0 -36 -17 -59 -38z"/>
<path d="M11590 10093 c0 -38 14 -57 35 -50 26 11 16 71 -12 75 -19 3 -23 -1
-23 -25z"/>
<path d="M8298 10083 c-72 -78 -51 -146 34 -110 31 13 36 13 57 -5 24 -18 52
-17 79 5 18 15 -5 39 -31 31 -17 -5 -19 -3 -12 12 17 42 17 54 1 60 -9 3 -23
1 -31 -6 -9 -7 -18 -10 -22 -6 -3 3 0 6 7 6 9 0 8 6 -5 20 -25 27 -46 25 -77
-7z m61 -32 c12 -8 10 -12 -12 -22 -14 -6 -24 -16 -21 -20 3 -5 -2 -6 -10 -3
-15 6 -14 15 7 42 11 14 17 15 36 3z"/>
<path d="M13998 10017 c-19 -23 -52 -54 -72 -67 -37 -26 -49 -60 -20 -60 8 0
30 12 49 26 29 21 36 23 53 13 17 -11 27 -10 61 5 22 11 48 27 57 37 24 27 34
23 28 -8 -11 -58 36 -112 71 -83 21 17 19 27 -6 35 -19 6 -21 13 -16 51 3 33
0 50 -12 66 -17 20 -18 20 -50 4 -17 -10 -34 -23 -37 -31 -3 -7 -19 -18 -35
-24 l-29 -10 16 30 c17 33 13 59 -9 59 -7 0 -29 -19 -49 -43z"/>
<path d="M13707 9991 c-28 -58 -26 -95 9 -117 31 -21 78 -10 105 24 43 55 5
142 -61 142 -24 0 -32 -8 -53 -49z m81 -46 c-2 -24 -8 -31 -30 -33 -21 -2 -28
1 -28 13 0 28 18 51 40 51 17 0 20 -5 18 -31z"/>
<path d="M10344 9985 c-4 -9 -2 -21 4 -27 15 -15 44 -1 40 19 -4 23 -36 29
-44 8z"/>
<path d="M8031 9976 c-10 -12 -7 -18 14 -32 32 -21 135 -32 135 -15 0 6 6 10
13 9 6 -2 12 4 12 12 0 11 -15 16 -60 18 -33 2 -64 7 -69 13 -14 13 -32 11
-45 -5z"/>
<path d="M9376 9664 c-11 -28 -7 -57 23 -159 l28 -100 -34 -8 c-65 -14 -112
-65 -113 -124 0 -44 23 -63 77 -63 39 0 50 5 84 39 47 47 50 78 18 197 -46
172 -48 184 -34 184 21 0 36 25 23 38 -17 17 -65 15 -72 -4z m50 -312 c24 -16
20 -38 -12 -69 -34 -34 -81 -44 -89 -20 -9 28 -9 46 0 47 6 1 19 9 30 19 18
16 39 28 55 30 3 0 10 -3 16 -7z"/>
<path d="M9156 9548 c-15 -45 -29 -170 -29 -241 1 -64 22 -107 53 -107 30 0
34 20 10 42 -22 21 -22 26 -15 122 12 154 11 189 -2 193 -7 3 -15 -1 -17 -9z"/>
<path d="M12000 9549 c-25 -5 -91 -13 -148 -18 -82 -7 -111 -14 -147 -36 -73
-42 -58 -74 51 -109 28 -9 59 -23 69 -30 17 -12 14 -15 -33 -30 -29 -10 -74
-18 -102 -19 -50 -2 -77 -17 -66 -36 10 -16 82 -14 151 4 82 22 109 37 113 61
4 27 -45 69 -97 85 l-39 11 16 28 c9 16 20 26 23 24 11 -6 149 8 145 15 -2 3
18 4 45 3 54 -4 123 21 116 41 -5 15 -40 18 -97 6z m-279 -112 c-10 -9 -11 -8
-5 6 3 10 9 15 12 12 3 -3 0 -11 -7 -18z"/>
<path d="M10020 9530 c-6 -11 -8 -25 -5 -30 3 -6 1 -10 -6 -10 -8 0 -8 -4 -1
-12 7 -9 3 -33 -14 -83 -35 -105 -30 -165 16 -165 8 0 35 21 60 46 l45 46 5
-39 c7 -48 16 -63 41 -63 22 0 23 3 8 70 -19 87 -54 95 -128 26 -27 -25 -32
-27 -28 -11 3 11 18 62 33 113 21 68 25 98 18 110 -16 24 -31 25 -44 2z"/>
<path d="M13981 9530 c-19 -11 -9 -45 14 -45 13 0 21 8 23 21 3 23 -17 37 -37
24z"/>
<path d="M8426 9483 c9 -58 9 -49 -6 -156 -13 -93 -10 -117 14 -117 18 0 49
54 38 65 -4 5 -2 5 5 1 6 -3 16 2 22 11 6 10 11 14 11 8 9 -78 56 -121 89 -82
12 15 -3 37 -26 37 -14 0 -14 1 -17 80 -1 48 -4 55 -22 58 -15 2 -28 -7 -43
-30 l-22 -33 4 68 c6 87 -6 137 -34 137 -18 0 -20 -4 -13 -47z"/>
<path d="M12520 9477 c0 -8 7 -30 15 -50 26 -62 21 -139 -11 -151 -11 -4 -13
0 -8 19 14 56 -46 73 -103 29 -28 -21 -34 -32 -31 -57 3 -27 9 -34 44 -46 38
-13 46 -13 89 3 63 25 88 64 81 131 -7 80 -27 129 -54 133 -14 2 -22 -2 -22
-11z m-31 -204 c13 -10 10 -12 -21 -13 -45 0 -56 14 -26 34 18 13 24 13 27 4
2 -7 11 -18 20 -25z"/>
<path d="M10646 9424 c-3 -9 -6 -27 -6 -40 0 -14 -7 -41 -15 -61 l-15 -36 -30
28 c-19 18 -28 35 -25 46 3 9 -2 22 -10 29 -22 18 -52 -10 -40 -37 5 -10 9
-21 9 -24 1 -3 19 -27 41 -53 30 -35 45 -46 58 -40 39 15 88 144 71 188 -8 21
-30 21 -38 0z"/>
<path d="M14098 9414 c-14 -7 -28 -20 -32 -29 -3 -8 -12 -15 -20 -15 -16 0
-31 -34 -21 -50 12 -19 40 -10 67 22 l27 33 26 -58 c27 -59 48 -78 66 -60 11
11 -57 159 -76 167 -6 2 -22 -2 -37 -10z"/>
<path d="M10853 9413 c-13 -2 -39 -24 -58 -48 l-36 -43 21 -35 c27 -46 80 -67
169 -67 53 0 74 4 92 19 19 16 21 22 12 32 -10 10 -18 10 -38 1 -43 -20 -125
-15 -165 10 l-35 21 45 12 c139 36 131 125 -7 98z"/>
<path d="M13173 9400 c-39 -16 -28 -46 32 -90 30 -22 55 -45 55 -51 0 -11 -57
-8 -113 6 -26 7 -28 5 -25 -16 4 -27 29 -37 104 -38 56 -1 74 11 74 50 0 20
-13 38 -47 69 -48 41 -48 41 -18 38 24 -2 30 1 30 17 0 16 -7 20 -35 22 -19 1
-45 -2 -57 -7z"/>
<path d="M13924 9383 c-22 -34 -22 -79 -2 -100 23 -22 40 -7 33 29 -5 21 -2
35 10 48 19 21 14 50 -9 50 -7 0 -22 -12 -32 -27z"/>
<path d="M8231 9381 c-96 -33 -95 -70 2 -125 26 -15 47 -31 47 -36 0 -14 -64
-12 -78 2 -8 8 -15 8 -26 -1 -24 -20 -2 -51 37 -53 18 -1 -49 -5 -148 -8 -99
-3 953 -7 2338 -8 1384 -1 2517 -4 2517 -6 0 -2 -7 -20 -16 -41 -15 -37 -12
-51 15 -57 9 -2 19 15 30 47 l16 50 1300 5 1300 5 -1292 3 c-711 1 -1293 4
-1293 7 0 9 45 98 68 135 27 44 28 70 3 70 -17 0 -49 -41 -73 -90 -4 -10 -7
-10 -7 -2 -1 6 -9 12 -20 12 -26 0 -43 23 -39 57 2 23 -1 29 -19 31 -16 2 -23
-2 -24 -15 -5 -77 22 -113 85 -113 13 0 27 -7 30 -16 5 -14 4 -15 -8 -5 -13
11 -16 8 -22 -13 -3 -13 -3 -29 0 -34 3 -5 -4 -12 -17 -16 -28 -7 -4677 -6
-4657 1 71 26 55 90 -35 136 l-40 20 34 14 c18 8 40 12 47 9 38 -15 60 25 25
44 -24 12 -15 13 -80 -9z"/>
<path d="M10289 9367 c-26 -17 -34 -30 -34 -52 0 -29 1 -30 45 -28 43 2 46 1
48 -25 4 -50 73 -82 102 -47 16 19 5 32 -30 37 -23 3 -25 7 -25 54 -1 84 -39
106 -106 61z"/>
<path d="M8693 9320 c-27 -46 -29 -68 -8 -97 43 -62 165 -11 165 69 0 46 -27
68 -85 68 -48 0 -51 -2 -72 -40z m112 -28 c0 -27 -44 -58 -69 -49 -25 10 -19
45 12 61 36 20 57 16 57 -12z"/>
<path d="M8990 9326 c0 -28 15 -43 24 -24 3 7 4 0 3 -17 -2 -26 -6 -30 -32
-30 -25 0 -32 5 -41 35 -14 44 -38 46 -42 4 -7 -69 92 -120 139 -73 23 23 25
72 4 89 -8 7 -15 19 -15 26 0 8 -9 14 -20 14 -15 0 -20 -7 -20 -24z"/>
<path d="M12663 9338 c-57 -28 -22 -94 44 -82 28 5 37 3 49 -15 11 -15 26 -21
54 -21 21 0 42 5 45 10 3 6 0 10 -7 10 -9 0 -9 3 2 10 11 7 5 10 -23 10 -34 0
-38 2 -32 20 9 27 -20 70 -46 70 -11 0 -17 -4 -14 -10 3 -5 2 -10 -4 -10 -5 0
-13 5 -16 10 -8 12 -23 12 -52 -2z m64 -34 c-3 -3 -12 -4 -19 -1 -8 3 -5 6 6
6 11 1 17 -2 13 -5z"/>
<path d="M11571 9028 c-7 -24 -30 -70 -51 -103 -20 -33 -46 -76 -56 -95 -20
-36 -84 -133 -141 -212 -29 -41 -31 -47 -16 -51 14 -4 14 -5 -4 -6 -14 -1 -31
-17 -50 -46 -15 -25 -31 -45 -34 -45 -3 0 -12 -18 -19 -40 -10 -30 -10 -44 -2
-52 15 -15 42 -2 42 21 0 11 24 55 53 98 230 338 314 475 323 531 6 37 4 42
-13 42 -15 0 -23 -11 -32 -42z"/>
<path d="M13675 8994 c-19 -20 -13 -65 23 -149 29 -69 43 -217 23 -254 -12
-22 -70 -51 -103 -51 -49 0 -17 66 55 108 29 18 37 52 11 52 -46 0 -144 -102
-144 -150 0 -23 41 -50 76 -50 52 0 129 36 144 68 31 65 19 190 -30 312 -12
30 -19 66 -17 79 9 47 -9 64 -38 35z"/>
<path d="M13474 8945 c-4 -8 -3 -26 0 -40 4 -16 -5 -66 -25 -132 -44 -146 -44
-273 -1 -273 15 0 17 12 17 97 0 80 5 113 28 178 15 44 27 94 27 113 0 56 -32
95 -46 57z"/>
<path d="M11267 8936 c-3 -8 5 -24 18 -36 12 -11 33 -54 45 -93 26 -83 30 -89
49 -77 12 7 13 17 2 64 -7 31 -18 62 -25 69 -7 7 -11 17 -9 23 5 14 -42 64
-60 64 -8 0 -17 -6 -20 -14z"/>
<path d="M8213 8923 c-8 -3 -13 -24 -13 -57 0 -73 -15 -113 -46 -119 -13 -2
-24 0 -24 5 0 13 -43 6 -47 -8 -6 -19 27 -44 58 -44 29 0 29 -1 29 -55 0 -41
4 -57 15 -62 24 -9 29 2 27 60 -1 28 1 57 5 63 7 9 65 44 75 44 2 0 1 -24 0
-54 -5 -70 12 -77 69 -31 48 41 68 45 62 12 -3 -13 2 -40 11 -60 11 -29 21
-37 40 -37 34 0 43 20 18 40 -15 13 -22 31 -24 70 -4 75 -22 83 -88 42 -40
-25 -50 -28 -46 -15 22 80 22 160 0 183 -19 19 -33 4 -41 -46 -5 -36 -36 -84
-54 -84 -5 0 -4 12 1 26 14 36 12 110 -2 121 -7 6 -19 8 -25 6z"/>
<path d="M10357 8913 c-4 -3 -7 -13 -7 -20 0 -8 -9 -36 -21 -63 -17 -39 -26
-49 -42 -47 -29 3 -36 -32 -8 -40 16 -4 21 -13 21 -39 0 -50 16 -81 51 -100
58 -30 144 -1 136 46 -3 21 -46 25 -53 6 -9 -24 -60 -20 -78 6 -19 27 -21 78
-3 79 6 0 31 0 55 -1 34 -1 42 2 43 17 0 16 1 16 9 -2 7 -18 9 -18 15 -3 12
31 -3 38 -62 31 -48 -5 -56 -4 -50 9 18 49 29 98 24 112 -7 17 -19 21 -30 9z
m-7 -117 c0 -3 -4 -8 -10 -11 -5 -3 -10 -1 -10 4 0 6 5 11 10 11 6 0 10 -2 10
-4z"/>
<path d="M14539 8903 c-3 -49 -10 -74 -32 -124 -13 -29 -25 -58 -27 -64 -1 -5
-7 -21 -12 -35 -6 -14 -13 -46 -16 -72 -4 -44 -3 -48 17 -48 12 0 33 -7 46
-16 28 -18 77 -13 112 11 42 29 35 117 -11 129 -13 4 -38 -5 -68 -24 -27 -16
-48 -26 -48 -21 0 4 18 51 39 104 35 87 45 126 42 165 -2 19 -41 15 -42 -5z
m71 -287 c0 -24 -16 -36 -50 -36 -32 0 -31 17 3 39 41 27 47 26 47 -3z"/>
<path d="M12771 8858 c-6 -18 -13 -58 -16 -88 -4 -30 -17 -97 -31 -148 -29
-113 -29 -112 -4 -112 11 0 34 19 55 48 48 62 61 69 70 34 9 -36 23 -52 46
-52 20 0 25 19 10 36 -5 5 -13 29 -18 54 -11 57 -36 64 -81 21 -18 -16 -32
-28 -32 -27 0 2 4 16 10 32 5 16 14 63 20 104 5 41 12 87 16 103 5 23 3 27
-14 27 -14 0 -24 -10 -31 -32z"/>
<path d="M9917 8833 c-13 -12 -7 -51 8 -57 22 -8 45 42 24 55 -17 11 -24 11
-32 2z"/>
<path d="M8633 8757 c-54 -42 -64 -54 -69 -89 -5 -30 -2 -38 22 -57 24 -19 37
-21 92 -17 69 5 104 24 80 44 -9 7 -26 7 -60 0 -37 -9 -54 -8 -75 2 l-28 13
31 8 c44 12 78 52 70 82 -8 35 -30 39 -63 14z"/>
<path d="M9505 8736 l-43 -47 4 -141 c2 -78 8 -146 14 -152 22 -22 35 15 38
109 l4 95 38 0 c28 0 46 8 68 28 28 26 30 32 22 67 -10 45 -34 71 -73 81 -25
6 -34 1 -72 -40z m101 -43 c10 -40 -46 -75 -60 -37 -3 9 -13 14 -21 11 -19 -8
-9 20 18 50 24 27 53 16 63 -24z"/>
<path d="M9732 8773 c-16 -6 -42 -56 -42 -81 0 -25 34 -55 57 -50 24 4 29 39
8 55 -28 20 -1 45 40 37 40 -7 57 12 30 33 -18 13 -68 16 -93 6z"/>
<path d="M9275 8763 c-40 -9 -74 -25 -79 -39 -10 -25 30 -54 73 -54 22 0 43
-4 46 -10 3 -5 -1 -10 -10 -10 -20 0 -32 -30 -15 -40 13 -8 96 16 105 31 18
27 -43 68 -104 70 l-26 0 24 10 c15 6 28 6 36 -1 16 -13 38 11 29 34 -6 16
-35 19 -79 9z"/>
<path d="M11598 8743 c-5 -7 -7 -17 -3 -22 3 -6 -7 -30 -24 -54 -34 -50 -38
-62 -28 -99 12 -47 87 -50 135 -6 28 27 28 57 0 104 -20 33 -20 37 -5 46 17 9
24 37 10 39 -47 5 -76 2 -85 -8z m59 -137 c-5 -15 -55 -38 -67 -31 -16 10 -12
30 12 60 l22 28 18 -23 c10 -13 17 -28 15 -34z"/>
<path d="M10021 8704 c-34 -51 -39 -79 -17 -87 18 -7 24 0 42 41 16 38 30 35
39 -8 8 -36 41 -80 61 -80 23 0 27 26 7 49 -10 12 -25 45 -33 74 -13 44 -20
52 -42 55 -21 3 -31 -5 -57 -44z"/>
<path d="M11888 8733 c-9 -10 -26 -38 -38 -63 -12 -24 -41 -68 -62 -97 -24
-31 -38 -59 -34 -68 11 -29 29 -18 70 42 24 35 31 40 46 31 14 -9 24 -6 52 16
l35 26 -5 -25 c-6 -32 22 -75 48 -75 11 0 20 3 21 8 0 4 2 15 4 26 2 11 -3 20
-16 23 -23 6 -23 2 1 58 37 85 17 99 -56 39 -49 -40 -51 -39 -29 12 23 55 -2
86 -37 47z"/>
<path d="M14796 8725 c-71 -29 -96 -51 -96 -83 0 -40 37 -89 76 -102 76 -25
257 22 206 54 -4 2 -39 -2 -77 -10 -86 -19 -135 -8 -154 32 -9 21 -9 30 0 38
8 8 13 8 16 -1 10 -28 114 0 127 33 7 18 -8 50 -27 57 -8 3 -40 -5 -71 -18z"/>
<path d="M12508 8698 c-39 -14 -35 -39 10 -63 48 -26 50 -56 4 -66 -41 -8 -46
-13 -38 -35 5 -13 15 -15 49 -11 74 10 101 75 51 122 -25 23 -25 25 -7 25 21
0 37 22 26 34 -9 9 -64 6 -95 -6z"/>
<path d="M9855 8688 c-10 -25 11 -73 31 -73 23 0 30 34 14 64 -12 23 -38 28
-45 9z"/>
<path d="M10642 8688 c-15 -15 2 -38 28 -38 15 0 37 28 28 35 -13 11 -46 13
-56 3z"/>
<path d="M13019 8667 c-7 -8 -21 -12 -30 -10 -20 6 -49 -32 -49 -64 0 -15 11
-30 33 -44 61 -38 147 -6 147 56 0 49 -72 93 -101 62z m49 -64 c3 -21 -1 -23
-37 -23 -44 0 -53 14 -23 36 25 20 56 13 60 -13z"/>
<path d="M13186 8614 c-10 -27 -7 -89 6 -102 29 -29 137 1 157 44 6 14 11 31
11 39 0 24 -36 17 -48 -10 -7 -14 -24 -28 -44 -33 -41 -11 -55 -1 -41 30 5 13
8 29 6 36 -7 17 -40 15 -47 -4z"/>
<path d="M10930 8373 c-71 -56 -99 -112 -100 -198 l0 -61 -56 -1 c-54 -1 -80
-15 -68 -35 3 -4 31 -8 63 -8 l58 0 7 -66 c6 -54 4 -70 -10 -85 -18 -20 -11
-39 15 -39 35 0 44 26 38 103 l-5 72 31 0 c43 0 42 27 0 40 -30 8 -33 13 -33
50 1 74 19 128 57 167 26 26 40 35 48 28 19 -16 42 17 28 38 -16 26 -35 25
-73 -5z"/>
<path d="M9946 8325 c-3 -9 -6 -25 -6 -35 0 -17 -49 -179 -57 -189 -6 -8 -96
0 -115 10 -14 8 -20 6 -25 -7 -10 -26 32 -54 81 -54 l41 0 -3 -56 c-5 -73 15
-98 72 -91 44 6 61 19 53 41 -5 12 -13 13 -38 6 -40 -12 -49 -6 -49 30 0 66
12 76 100 91 51 8 84 18 88 27 7 20 -17 31 -47 22 -14 -5 -44 -10 -66 -13 -36
-4 -41 -2 -41 17 0 11 3 23 6 26 14 11 51 133 48 158 -3 30 -32 42 -42 17z"/>
<path d="M13157 8268 c-2 -7 -2 -27 1 -45 2 -18 1 -66 -3 -107 -7 -76 -7 -76
-33 -70 -15 4 -33 11 -40 17 -9 7 -18 6 -30 -6 -21 -22 -9 -33 49 -50 37 -11
44 -17 47 -42 2 -18 -2 -31 -12 -37 -9 -5 -15 -20 -14 -33 2 -20 8 -25 29 -25
31 0 39 15 39 69 l0 38 53 7 c48 6 54 4 74 -20 18 -24 26 -26 66 -22 43 5 45
4 51 -23 7 -37 42 -57 64 -35 14 14 13 17 -8 34 -22 18 -22 19 -6 50 9 17 16
38 16 47 0 19 -34 20 -50 1 -6 -8 -27 -20 -47 -27 -29 -9 -38 -9 -51 4 -13 13
-14 23 -5 54 27 91 8 231 -25 191 -17 -22 -32 -93 -28 -135 2 -22 1 -45 -3
-52 -10 -15 -71 -32 -85 -23 -11 7 -16 163 -5 157 4 -3 5 63 0 88 -2 12 -39 8
-44 -5z"/>
<path d="M11748 8255 c-3 -4 -4 -77 -1 -163 6 -177 13 -197 58 -168 15 10 24
23 22 30 -3 6 3 12 13 12 12 0 22 -12 29 -37 6 -19 19 -43 30 -53 25 -23 87
-32 106 -16 22 19 0 40 -41 40 -40 0 -45 8 -59 84 -6 33 -16 61 -22 63 -6 2
-28 -15 -49 -37 l-39 -41 -5 143 c-4 118 -8 143 -20 146 -9 1 -19 0 -22 -3z"/>
<path d="M8429 8183 c0 -5 0 -59 1 -120 1 -91 -2 -116 -14 -129 -33 -33 18
-78 101 -89 44 -6 54 -4 72 14 60 60 -18 157 -85 106 -10 -8 -22 -15 -25 -15
-3 0 -4 44 -1 98 5 102 -5 142 -33 142 -8 0 -15 -3 -16 -7z m131 -274 c0 -15
-7 -19 -37 -19 l-38 1 28 24 c31 27 47 25 47 -6z"/>
<path d="M8706 8155 c-8 -30 -1 -45 20 -45 12 0 13 -15 8 -95 -6 -79 -4 -98
10 -120 9 -14 23 -25 32 -25 20 0 30 30 13 41 -14 8 -16 44 -9 155 4 84 -57
158 -74 89z"/>
<path d="M11015 8140 c-11 -67 16 -83 41 -24 12 28 12 39 3 50 -20 25 -37 15
-44 -26z"/>
<path d="M12927 8174 c-14 -14 -7 -43 13 -54 23 -12 35 4 28 37 -3 18 -29 29
-41 17z"/>
<path d="M11357 8146 c-8 -20 21 -56 44 -56 30 0 36 30 10 52 -28 22 -47 23
-54 4z"/>
<path d="M13632 8115 c2 -14 7 -25 12 -24 5 0 12 -5 17 -12 13 -21 21 -3 14
30 -5 22 -12 31 -26 31 -16 0 -20 -6 -17 -25z"/>
<path d="M11512 8049 c-14 -5 -22 -17 -22 -31 0 -32 8 -41 65 -76 l50 -32 -35
1 c-19 0 -52 6 -73 13 -33 12 -39 12 -44 -1 -12 -32 24 -48 117 -51 76 -3 91
-1 96 13 8 20 -26 58 -84 92 -45 26 -47 43 -6 43 19 0 25 5 22 18 -4 19 -48
25 -86 11z"/>
<path d="M12540 8048 c-14 -6 -49 -21 -77 -34 -57 -24 -60 -30 -40 -58 12 -16
15 -16 28 -4 15 15 53 38 63 38 3 0 1 -12 -4 -26 -30 -79 3 -95 86 -41 57 38
74 37 74 -3 0 -15 7 -33 15 -40 35 -29 108 27 86 67 -5 11 -6 25 -1 33 12 20
-17 72 -38 68 -9 -3 -15 -11 -13 -19 12 -39 12 -102 1 -112 -10 -9 -11 -9 -6
0 10 19 -12 62 -38 74 -21 10 -33 7 -76 -15 -47 -25 -50 -25 -40 -6 6 11 8 20
5 20 -3 0 4 9 16 21 35 35 10 59 -41 37z m207 -14 c-3 -3 -12 -4 -19 -1 -8 3
-5 6 6 6 11 1 17 -2 13 -5z"/>
<path d="M8872 8023 c-40 -26 -41 -29 -35 -68 8 -52 27 -80 68 -99 37 -18 101
-21 110 -6 4 6 11 8 16 5 5 -4 9 1 9 9 0 9 -3 16 -7 17 -5 0 -29 1 -55 2 -34
2 -54 10 -73 27 -33 31 -32 37 9 44 19 4 44 14 56 24 18 15 20 21 11 45 -14
36 -53 36 -109 0z"/>
<path d="M11159 8031 c-30 -24 -73 -107 -65 -127 10 -25 39 -11 48 22 4 17 18
39 30 50 13 10 17 12 11 3 -21 -27 10 -99 43 -99 20 0 27 19 14 36 -7 8 -17
35 -21 61 -13 65 -28 79 -60 54z"/>
<path d="M13831 8021 c-36 -38 -67 -119 -53 -133 16 -16 36 4 57 58 20 53 30
50 26 -7 -3 -52 21 -90 52 -85 12 3 24 5 26 5 2 1 -4 10 -14 21 -13 14 -20 41
-23 83 -6 93 -25 107 -71 58z"/>
<path d="M10115 8028 c-32 -17 -65 -50 -60 -59 3 -4 1 -10 -5 -14 -21 -13 -9
-46 23 -65 102 -63 198 37 114 118 -36 35 -42 37 -72 20z m55 -63 c17 -10 11
-34 -11 -46 -25 -13 -69 2 -69 24 0 31 45 44 80 22z"/>
<path d="M10992 8032 c-18 -12 -26 -72 -13 -105 14 -36 47 -34 43 3 -1 14 -3
32 -3 40 0 8 2 26 3 39 3 26 -9 35 -30 23z"/>
<path d="M11346 8013 c-3 -4 -6 -30 -6 -60 0 -45 3 -53 19 -53 19 0 30 39 23
87 -3 21 -25 37 -36 26z"/>
<path d="M12875 8000 c-3 -5 0 -18 7 -29 9 -14 9 -23 0 -33 -14 -18 1 -43 22
-35 9 4 21 18 28 31 9 20 8 30 -6 51 -17 25 -40 33 -51 15z"/>
<path d="M8161 7955 c-44 -48 -47 -55 -29 -73 17 -17 43 -15 88 8 51 26 56 25
63 -9 3 -16 13 -36 22 -45 23 -23 72 -21 85 4 12 22 1 31 -34 27 -14 -1 -23 7
-29 28 -15 49 -23 60 -44 63 -12 2 -29 12 -39 23 -25 28 -37 24 -83 -26z m59
-15 c0 -5 -5 -10 -11 -10 -5 0 -7 5 -4 10 3 6 8 10 11 10 2 0 4 -4 4 -10z"/>
<path d="M13636 7991 c-11 -17 -4 -121 9 -131 24 -20 37 14 30 74 -7 50 -26
78 -39 57z"/>
<path d="M9802 7763 c1054 -2 2782 -2 3840 0 1058 1 195 2 -1917 2 -2112 0
-2977 -1 -1923 -2z"/>
<path d="M9460 7505 c-5 -13 -12 -47 -16 -74 -6 -49 -7 -50 -48 -58 -54 -11
-56 -37 -3 -41 33 -3 37 -6 37 -30 1 -50 58 -98 105 -86 37 9 34 44 -3 44 -32
0 -62 27 -62 54 0 16 6 17 45 12 29 -5 45 -4 45 3 0 6 7 11 16 11 36 0 4 25
-39 30 -25 3 -49 9 -52 12 -4 3 1 34 9 68 9 34 14 66 10 71 -10 17 -35 9 -44
-16z"/>
<path d="M11300 7500 c-13 -8 -11 -17 12 -58 49 -88 47 -172 -6 -172 -47 0
-145 88 -173 156 -14 34 -23 44 -38 42 -18 -3 -21 -13 -25 -80 -4 -62 -9 -81
-29 -101 -22 -25 -22 -47 2 -47 19 0 67 53 67 75 0 39 13 36 67 -17 29 -29 53
-49 53 -44 0 4 7 0 16 -8 36 -37 99 -27 130 19 22 34 20 103 -7 164 -25 60
-49 84 -69 71z"/>
<path d="M10820 7480 c0 -5 -35 -10 -77 -12 -70 -3 -78 -5 -78 -23 0 -18 5
-20 72 -16 l72 3 -1 -51 c0 -57 29 -151 50 -159 28 -10 33 15 12 67 -11 28
-20 70 -20 91 l0 40 59 0 c33 0 62 4 65 8 11 18 -12 31 -59 35 -27 3 -51 10
-53 16 -4 13 -42 15 -42 1z"/>
<path d="M11928 7476 c-52 -19 -88 -44 -88 -62 0 -22 28 -29 48 -11 20 19 72
40 72 29 0 -24 -108 -146 -173 -195 -36 -27 -48 -59 -26 -73 6 -3 25 7 42 24
31 30 74 52 102 52 8 0 21 -13 30 -30 17 -34 58 -49 80 -30 23 19 18 40 -10
40 -17 0 -29 9 -40 29 -19 38 -32 46 -50 31 -28 -23 -15 6 16 36 41 39 72 91
63 105 -4 7 -3 9 4 5 16 -9 26 32 12 49 -15 18 -34 18 -82 1z"/>
<path d="M8215 7465 c-37 -13 -75 -46 -75 -65 0 -18 61 -43 135 -55 44 -7 116
-43 122 -62 3 -6 -11 -20 -29 -29 -40 -21 -149 -25 -156 -6 -5 17 -42 15 -49
-4 -10 -28 21 -46 91 -51 62 -4 68 -3 73 16 3 11 9 18 14 15 5 -3 7 -10 4 -15
-10 -15 13 -10 54 11 57 29 62 58 18 107 -23 25 -100 57 -164 68 -45 7 -56 20
-25 29 59 16 83 16 117 0 43 -20 64 -9 44 24 -22 35 -101 43 -174 17z"/>
<path d="M8991 7448 c-10 -28 1 -63 20 -63 13 0 32 63 23 77 -10 16 -35 7 -43
-14z"/>
<path d="M10460 7463 c-65 -10 -71 -13 -68 -36 2 -16 23 -32 84 -62 136 -67
147 -87 55 -106 -37 -8 -57 -17 -54 -23 5 -7 2 -7 -8 0 -20 16 -107 26 -114
13 -11 -17 14 -37 54 -44 51 -8 170 13 204 37 59 42 21 102 -94 150 l-64 27
72 0 c76 1 100 14 68 38 -18 12 -78 15 -135 6z m47 -25 c-3 -8 -6 -5 -6 6 -1
11 2 17 5 13 3 -3 4 -12 1 -19z"/>
<path d="M8792 7388 c-18 -23 -30 -82 -21 -107 13 -32 33 -21 40 22 8 48 13
53 46 38 21 -10 29 -9 41 3 13 13 11 17 -19 35 -39 24 -72 27 -87 9z"/>
<path d="M8564 7341 c-23 -14 -35 -16 -43 -8 -24 24 -35 -12 -39 -133 l-4
-120 -302 -3 -301 -2 301 -3 301 -2 13 -46 c22 -76 66 -69 53 9 l-6 37 3514 2
3514 3 -3515 5 c-3431 5 -3515 5 -3518 24 -2 10 -1 42 3 71 6 52 14 59 43 41
16 -10 82 1 104 18 10 7 22 25 27 39 24 62 -79 110 -145 68z m100 -42 c6 -5 3
-16 -7 -27 -13 -14 -26 -17 -54 -13 -20 3 -35 9 -34 14 0 4 1 11 1 15 0 26 70
34 94 11z"/>
<path d="M9111 7324 c-26 -23 -41 -45 -41 -60 0 -34 18 -30 56 14 l33 37 1
-40 c0 -49 11 -68 36 -63 13 2 18 11 16 23 -2 11 -7 43 -10 70 -9 66 -34 71
-91 19z"/>
<path d="M11595 7350 c-3 -5 -22 -10 -41 -10 -22 0 -37 -6 -41 -15 -8 -24 3
-29 55 -26 51 2 78 20 69 45 -7 18 -32 21 -42 6z"/>
<path d="M12264 7335 c-10 -26 7 -33 74 -27 51 4 62 8 60 21 -5 24 -126 29
-134 6z"/>
<path d="M10043 7327 c-61 -7 -73 -12 -73 -27 0 -27 9 -29 65 -19 28 4 67 11
88 14 29 5 37 10 35 23 -4 20 -18 21 -115 9z"/>
<path d="M8960 7305 c-14 -37 -12 -55 6 -62 21 -8 35 15 32 51 -4 38 -25 45
-38 11z"/>
<path d="M9467 6918 c-13 -18 -66 -117 -117 -221 -83 -168 -99 -217 -72 -217
15 0 62 99 56 118 -4 12 -3 13 3 4 7 -9 12 -7 21 12 9 20 19 25 64 28 29 2 54
4 55 3 1 0 -9 -32 -23 -70 -14 -39 -27 -78 -31 -87 -8 -27 34 -23 48 4 7 13
22 54 33 93 21 69 22 70 59 73 29 3 37 7 37 23 0 14 -7 19 -29 19 -32 0 -42
19 -30 60 12 41 10 133 -4 160 -18 36 -42 36 -70 -2z m36 -136 c-8 -47 -15
-87 -16 -88 -12 -8 -87 -12 -87 -4 0 6 20 51 45 100 30 59 49 88 58 84 11 -4
11 -20 0 -92z m-123 -92 c0 -5 -4 -10 -10 -10 -5 0 -10 5 -10 10 0 6 5 10 10
10 6 0 10 -4 10 -10z"/>
<path d="M14366 6888 c-2 -7 -9 -37 -15 -67 -7 -33 -32 -87 -63 -138 -46 -76
-50 -86 -36 -99 14 -14 17 -14 34 3 11 11 35 31 55 46 l35 27 -4 -28 c-8 -57
57 -102 123 -84 48 14 38 36 -20 42 l-50 5 2 60 c1 36 -2 62 -9 67 -15 8 -68
-22 -68 -39 0 -6 -4 -15 -10 -18 -11 -7 -7 3 33 85 31 64 38 150 12 150 -9 0
-17 -6 -19 -12z"/>
<path d="M14040 6844 c-10 -11 -10 -17 -1 -28 17 -20 50 -9 44 14 -7 25 -29
32 -43 14z"/>
<path d="M12720 6842 c-15 -5 -12 -39 5 -46 8 -3 61 -3 117 1 57 3 141 6 187
7 65 1 85 4 89 16 3 8 1 12 -3 8 -5 -4 -15 -2 -23 5 -11 8 -65 12 -188 12 -95
0 -178 -1 -184 -3z"/>
<path d="M8974 6825 c-52 -22 -68 -48 -60 -102 3 -26 13 -54 21 -62 13 -13 19
-12 52 5 69 36 103 114 66 146 -28 24 -47 27 -79 13z m46 -52 c0 -26 -12 -39
-38 -46 -33 -8 -42 21 -13 45 29 23 51 23 51 1z"/>
<path d="M12870 6775 c-9 -11 -10 -18 -1 -29 7 -8 9 -25 5 -43 -8 -32 -68
-158 -85 -179 -6 -7 -8 -18 -5 -23 4 -6 -12 -11 -39 -13 -25 -2 -46 -7 -46
-13 -1 -22 31 -27 115 -20 76 6 88 10 96 28 8 20 9 20 9 3 1 -15 4 -17 12 -9
8 8 8 17 0 32 -14 25 -24 26 -41 6 -7 -8 -22 -15 -35 -15 -22 0 -22 1 10 68
52 108 59 134 49 177 -10 43 -25 53 -44 30z"/>
<path d="M11582 6750 c-39 -16 -45 -48 -24 -115 14 -41 17 -64 10 -72 -16 -20
-36 -15 -54 12 -18 27 -54 34 -54 10 0 -7 8 -19 18 -24 9 -6 13 -11 9 -11 -4
0 -3 -9 3 -20 12 -22 36 -27 43 -7 3 7 6 5 6 -5 1 -14 5 -15 31 -6 42 14 59
47 34 66 -17 13 -17 14 -1 9 21 -8 21 3 2 50 -23 55 -20 73 15 80 21 4 30 11
30 24 0 21 -28 24 -68 9z"/>
<path d="M11787 6753 c-9 -2 -14 -9 -10 -15 4 -7 0 -9 -10 -5 -21 8 -64 -43
-72 -87 -8 -38 14 -89 43 -105 10 -5 36 -11 58 -13 33 -3 39 0 39 17 0 15 -10
21 -44 28 l-43 9 51 34 c57 38 70 68 49 111 -13 28 -29 35 -61 26z m28 -52 c6
-10 -27 -46 -57 -62 -28 -15 -23 17 7 46 26 27 40 31 50 16z"/>
<path d="M12035 6748 c-11 -6 -27 -18 -36 -27 -9 -9 -28 -26 -43 -38 -22 -19
-26 -31 -26 -72 0 -58 7 -81 25 -81 21 0 28 18 29 71 3 76 63 126 136 114 44
-7 64 10 35 32 -23 16 -92 17 -120 1z m15 -18 c0 -5 -5 -10 -11 -10 -5 0 -7 5
-4 10 3 6 8 10 11 10 2 0 4 -4 4 -10z"/>
<path d="M14122 6740 c-28 -17 -32 -24 -28 -54 2 -19 9 -44 16 -55 16 -30 3
-44 -34 -37 -39 7 -49 0 -35 -25 11 -21 67 -26 100 -9 23 13 25 59 4 101 -17
31 -13 49 10 49 16 0 38 34 28 44 -11 10 -27 7 -61 -14z"/>
<path d="M13607 6720 c-57 -24 -97 -49 -97 -61 0 -22 33 -19 86 6 31 14 58 24
61 21 3 -3 -11 -32 -32 -66 -36 -59 -40 -90 -12 -90 8 0 20 7 27 16 15 17 99
69 103 63 2 -2 7 -17 13 -34 9 -29 56 -63 62 -45 2 5 9 7 16 4 7 -3 25 9 40
27 23 26 27 39 23 73 -9 82 -28 106 -57 71 -10 -12 -10 -18 0 -30 7 -8 16 -12
22 -9 12 8 -1 -45 -18 -73 -22 -34 -42 -28 -54 16 -12 44 -29 55 -66 41 -35
-14 -36 -13 -18 14 8 14 14 35 12 48 -4 31 -47 34 -111 8z"/>
<path d="M9676 6698 c-20 -18 -36 -38 -36 -45 0 -7 14 -28 31 -47 33 -39 31
-56 -7 -56 -17 0 -27 8 -34 25 -11 28 -22 31 -40 10 -34 -41 43 -96 106 -75
60 20 70 63 24 108 -35 35 -37 48 -11 57 25 8 33 31 16 45 -10 8 -21 4 -49
-22z"/>
<path d="M11243 6668 c-21 -35 -37 -66 -35 -70 1 -5 -1 -7 -5 -5 -5 1 -17 -7
-29 -18 -11 -11 -39 -37 -62 -57 -40 -35 -55 -68 -31 -68 7 0 42 24 78 54 61
48 69 52 86 40 20 -15 51 -10 75 12 12 12 16 9 25 -19 8 -24 17 -33 38 -35 30
-4 36 14 15 48 -9 15 -9 30 1 70 20 80 4 83 -66 14 -66 -67 -83 -57 -39 23 20
35 23 49 15 59 -18 22 -26 17 -66 -48z"/>
<path d="M10410 6699 c-78 -31 -99 -107 -39 -139 16 -9 29 -7 60 9 47 25 49
25 49 8 0 -23 35 -47 69 -47 25 0 32 4 29 17 -2 9 -14 20 -28 23 -21 5 -25 12
-28 50 -5 74 -48 104 -112 79z m50 -44 c0 -9 -55 -55 -67 -55 -21 0 -15 28 9
44 21 15 58 22 58 11z"/>
<path d="M13946 6688 c-1 -7 -10 -34 -18 -60 -16 -50 -10 -75 16 -65 17 7 51
111 41 127 -9 14 -35 13 -39 -2z"/>
<path d="M9797 6383 c1057 -2 2789 -2 3850 0 1060 1 196 2 -1922 2 -2117 0
-2985 -1 -1928 -2z"/>
<path d="M8422 6248 c-16 -35 -49 -116 -72 -180 -42 -115 -43 -118 -74 -120
-17 0 -35 -2 -41 -3 -5 -2 -29 -3 -53 -4 -40 -1 -65 -21 -48 -38 7 -8 87 -6
129 3 l27 6 -20 -52 c-26 -66 -40 -130 -29 -130 4 0 6 -7 3 -15 -5 -12 -38
-15 -187 -18 l-182 -2 187 -3 c135 -1 187 -5 190 -14 5 -15 76 -14 91 1 8 8
544 11 1900 11 1836 0 1888 -1 1882 -19 -3 -11 1 -24 11 -32 14 -11 18 -11 30
6 8 10 14 25 14 32 0 11 134 13 725 13 l725 0 -56 -87 c-31 -49 -62 -95 -70
-104 -21 -23 -17 -39 9 -39 19 0 37 22 96 115 l73 115 941 2 942 3 -932 5
-932 5 54 83 c29 46 61 92 70 102 19 21 16 55 -5 55 -8 0 -38 -36 -67 -80 -29
-44 -58 -81 -63 -83 -10 -4 -13 22 -10 94 2 46 -12 63 -35 44 -20 -16 -11
-147 10 -170 13 -15 13 -19 -3 -33 -17 -16 -78 -17 -738 -15 l-720 3 19 63
c18 61 20 63 47 57 46 -10 150 57 150 96 0 11 5 17 10 14 10 -6 30 34 30 60 0
8 -10 19 -21 26 -34 18 -102 -7 -157 -56 -49 -44 -106 -143 -100 -173 2 -9 -2
-21 -8 -27 -7 -5 -14 -19 -16 -30 -2 -11 -7 -23 -13 -27 -5 -4 -305 -8 -665
-8 -595 0 -652 1 -632 16 23 16 31 54 11 54 -6 0 -24 -9 -40 -21 l-29 -20 0
28 c1 15 16 64 34 108 l33 79 53 12 c60 13 95 39 67 50 -10 3 -36 2 -58 -4
-36 -9 -40 -8 -33 6 3 10 19 49 34 87 14 39 36 86 48 105 12 19 22 43 22 53 0
26 -37 22 -46 -5 -3 -13 -12 -30 -20 -38 -7 -9 -29 -58 -49 -110 -42 -110 -49
-120 -84 -120 -47 0 -71 -11 -71 -32 0 -18 5 -20 44 -16 l44 5 -15 -36 c-8
-20 -22 -52 -31 -71 -9 -19 -16 -56 -15 -82 l1 -48 -1184 0 c-863 0 -1184 3
-1184 11 0 8 -15 9 -46 4 l-47 -7 5 39 c3 21 16 65 29 98 24 59 25 60 63 61
22 0 42 6 44 12 7 21 -18 41 -43 36 -23 -4 -22 -1 26 128 27 73 58 145 69 160
26 35 26 68 1 68 -14 0 -28 -18 -49 -62z m3978 -274 c0 -16 -44 -65 -75 -84
-56 -35 -76 -4 -27 43 35 33 102 61 102 41z"/>
<path d="M13485 6203 c-23 -114 -93 -280 -134 -317 -12 -11 -21 -31 -21 -46 0
-33 49 -85 96 -100 29 -10 41 -9 78 10 72 35 98 116 51 160 -21 20 -31 22 -75
17 l-50 -6 24 47 c29 58 76 204 76 238 0 36 -38 33 -45 -3z m-60 -323 c3 -5 1
-10 -4 -10 -6 0 -11 5 -11 10 0 6 2 10 4 10 3 0 8 -4 11 -10z m103 -7 c12 -23
1 -52 -30 -79 -27 -23 -66 -18 -99 12 -24 21 -11 39 46 65 50 23 72 24 83 2z"/>
<path d="M11101 6199 c-11 -12 -28 -45 -37 -73 -9 -28 -41 -99 -71 -157 -43
-85 -54 -114 -51 -145 3 -34 6 -39 28 -39 15 0 24 5 22 13 -1 8 2 11 7 8 5 -3
28 10 51 29 23 19 43 35 45 35 2 0 -2 -15 -7 -34 -13 -42 -5 -66 22 -66 16 0
20 7 20 30 0 17 7 47 15 67 37 89 -3 99 -94 23 -77 -64 -78 -49 -10 77 28 52
52 104 53 116 2 22 17 53 43 93 11 18 11 23 -1 33 -11 10 -18 8 -35 -10z"/>
<path d="M9526 6048 c-49 -91 -108 -289 -87 -296 6 -2 9 -8 5 -13 -3 -5 2 -9
10 -9 9 0 18 12 21 28 24 112 53 199 91 271 24 46 41 88 38 92 -14 23 -37 2
-78 -73z"/>
<path d="M12587 6073 c-16 -16 -6 -43 19 -49 38 -10 50 9 23 35 -24 22 -32 25
-42 14z"/>
<path d="M11319 6041 c-19 -15 -21 -22 -12 -32 17 -17 75 7 71 30 -5 23 -31
25 -59 2z"/>
<path d="M11978 5995 c-43 -29 -108 -150 -108 -201 0 -48 29 -74 83 -73 77 1
169 51 141 79 -6 6 -23 3 -50 -10 -22 -11 -58 -21 -80 -23 -39 -2 -39 -2 -42
36 -3 37 -2 38 18 27 30 -16 63 -6 105 32 65 56 82 115 43 142 -32 23 -68 20
-110 -9z m76 -52 c-23 -39 -72 -76 -89 -69 -22 8 -18 21 16 61 22 25 39 35 61
35 l29 0 -17 -27z"/>
<path d="M10025 6000 c-11 -4 -30 -18 -42 -31 -46 -50 -50 -110 -9 -148 24
-23 116 -45 130 -31 16 16 -3 40 -31 40 -31 0 -75 20 -80 36 -2 5 20 16 49 23
99 24 120 53 72 97 -26 25 -54 29 -89 14z m59 -50 c-5 -5 -25 -13 -44 -16 -32
-7 -34 -6 -21 9 7 9 27 17 44 17 20 0 28 -3 21 -10z"/>
<path d="M12776 6003 c-4 -4 -12 -9 -17 -9 -5 -1 -13 -2 -19 -3 -20 -2 -84
-67 -96 -98 -25 -58 11 -103 82 -103 13 0 24 3 24 8 0 4 14 7 31 8 32 1 58 19
45 31 -4 4 -36 6 -72 5 -50 -2 -66 1 -70 13 -13 34 64 105 114 105 18 0 23 5
20 22 -3 23 -28 35 -42 21z"/>
<path d="M9823 5980 c-50 -22 -56 -49 -23 -102 25 -41 25 -58 1 -58 -38 0 -88
30 -115 68 -31 45 -49 46 -89 4 -40 -42 -44 -76 -12 -107 29 -30 60 -29 106 4
22 16 28 17 44 5 23 -17 52 -18 58 -1 4 10 6 10 6 0 1 -19 36 -16 54 5 22 24
21 34 -4 83 -26 51 -20 70 22 67 37 -3 47 13 24 36 -20 20 -21 20 -72 -4z
m-162 -131 c12 -24 -1 -39 -33 -39 -21 0 -25 45 -5 53 21 9 26 7 38 -14z"/>
<path d="M11444 5956 c-3 -14 -1 -48 6 -76 7 -28 10 -53 7 -56 -12 -12 -49 9
-57 32 -11 27 -22 30 -39 10 -17 -20 1 -51 42 -76 37 -23 68 -25 85 -8 14 14
16 80 3 126 -9 31 -9 32 16 26 22 -6 24 -4 21 17 -2 20 -10 25 -40 27 -33 3
-38 0 -44 -22z"/>
<path d="M12516 5929 c-56 -67 -67 -119 -25 -119 13 0 19 7 19 23 0 12 16 42
35 66 19 24 35 48 35 52 0 21 -40 7 -64 -22z"/>
<path d="M9176 5899 c-91 -72 -63 -177 44 -165 61 6 100 22 100 40 0 22 -14
27 -46 17 -63 -20 -82 -21 -98 -5 -14 14 -14 18 -1 44 19 36 47 52 79 44 28
-7 43 11 26 31 -18 22 -73 18 -104 -6z"/>
<path d="M8477 5893 c-3 -10 -14 -30 -23 -45 -23 -34 -11 -76 27 -97 24 -13
30 -12 75 10 72 35 74 89 5 127 -47 27 -77 28 -84 5z m88 -64 c9 -14 -24 -38
-52 -39 -27 0 -31 30 -7 54 16 16 45 9 59 -15z"/>
<path d="M11231 5869 c-36 -39 -39 -54 -10 -70 25 -13 33 -6 49 44 18 57 0 69
-39 26z"/>
<path d="M9749 5588 c-32 -34 -78 -104 -94 -141 -13 -31 -13 -33 10 -35 17 -1
26 6 35 29 7 16 26 48 42 70 l29 40 18 -22 c23 -29 41 -17 41 26 0 24 -6 38
-19 45 -28 15 -38 13 -62 -12z"/>
<path d="M11462 5578 c-7 -7 -12 -19 -12 -27 0 -9 -12 -49 -26 -89 l-27 -73
-41 3 c-32 2 -41 -1 -44 -15 -2 -12 6 -21 27 -28 l30 -11 -23 -47 c-14 -26
-27 -63 -31 -83 -6 -31 -3 -41 19 -62 28 -29 47 -32 95 -15 20 7 31 18 31 30
0 18 -5 19 -50 13 -49 -6 -50 -6 -50 20 0 15 13 53 29 85 l30 58 70 6 c75 6
115 21 108 40 -4 13 -25 14 -105 2 l-52 -7 31 86 c17 47 29 93 27 102 -4 22
-20 28 -36 12z"/>
<path d="M8985 5497 c-8 -13 -29 -79 -45 -148 -46 -185 -105 -300 -126 -245
-3 8 0 34 7 57 7 24 13 47 13 51 1 3 14 18 29 32 17 16 26 33 23 41 -11 29
-37 14 -72 -41 -46 -71 -56 -146 -27 -183 18 -22 24 -24 54 -15 28 8 40 21 71
79 21 40 45 109 58 165 12 52 31 121 41 153 19 55 19 77 -1 77 -5 0 -16 -10
-25 -23z"/>
<path d="M14844 5493 c-12 -42 -48 -103 -60 -103 -19 0 -101 -57 -119 -83 -18
-25 -20 -68 -4 -84 8 -8 4 -26 -15 -68 -30 -62 -31 -98 -2 -103 11 -3 16 0 12
7 -4 6 -2 11 3 11 6 0 11 9 11 20 0 10 8 35 17 55 12 26 21 34 32 29 35 -16
99 -16 130 0 53 28 53 80 -1 141 l-30 35 21 29 c26 36 50 101 44 119 -7 18
-33 15 -39 -5z m-125 -215 c-8 -14 -14 -18 -17 -10 -4 13 17 46 25 38 3 -2 -1
-15 -8 -28z m117 -19 c13 -27 13 -29 -11 -45 -18 -12 -35 -14 -61 -10 l-36 7
18 27 c51 79 59 80 90 21z"/>
<path d="M12676 5448 c-14 -18 -21 -34 -16 -36 6 -2 10 -8 10 -13 0 -4 -7 -6
-15 -3 -9 4 -19 -3 -26 -20 -7 -14 -20 -26 -30 -26 -25 0 -33 -18 -17 -37 11
-15 11 -16 -5 -10 -24 9 -63 -8 -92 -39 -32 -35 -33 -82 -2 -115 l23 -24 -21
-57 -20 -58 -1009 0 c-927 0 -1008 1 -1002 16 4 9 11 37 18 61 6 25 16 46 22
48 6 2 24 6 39 10 42 9 115 81 128 126 14 46 1 69 -41 69 -27 0 -97 -44 -122
-77 -7 -10 -22 -23 -33 -29 -12 -7 -19 -20 -17 -33 2 -11 -8 -59 -23 -106
l-26 -85 -1257 -2 -1257 -3 1252 -2 1252 -3 -2 -26 c-3 -38 20 -41 40 -5 l18
31 1008 0 c615 0 1006 -4 1002 -9 -3 -5 0 -21 7 -36 16 -35 42 -28 46 12 l3
33 1521 0 c837 0 1524 2 1526 5 3 3 -488 5 -1092 5 l-1097 0 17 33 c9 17 28
47 42 64 19 26 28 31 42 23 26 -14 134 -12 148 2 24 24 13 66 -28 109 -22 23
-40 44 -40 45 0 2 16 20 35 41 19 21 37 45 40 54 3 9 15 19 26 22 13 4 19 12
17 24 -7 36 -35 24 -84 -34 -47 -56 -50 -58 -97 -58 -43 0 -52 -4 -83 -37 -39
-43 -43 -74 -13 -111 l20 -27 -29 -42 c-16 -24 -37 -58 -46 -75 l-17 -33 -404
0 -405 0 18 48 18 47 56 6 c34 4 68 15 87 28 32 23 53 72 33 79 -6 2 -9 9 -6
17 3 7 -8 29 -25 48 -17 19 -31 41 -31 49 0 17 47 91 61 96 14 5 11 28 -5 41
-11 9 -19 5 -40 -21z m-2061 -176 c-8 -26 -64 -82 -82 -82 -33 0 0 60 50 90
35 22 42 20 32 -8z m2863 -7 c9 -20 9 -25 -3 -25 -8 0 -19 -9 -25 -20 -13 -24
-30 -17 -30 12 0 21 26 58 40 58 4 0 12 -11 18 -25z m-802 -43 c5 -25 2 -36
-12 -47 -22 -16 -73 -30 -81 -21 -3 3 7 32 22 65 25 53 30 58 46 48 11 -7 22
-27 25 -45z m-106 28 c0 -10 -27 -69 -36 -79 -6 -7 -34 21 -34 35 0 17 39 54
57 54 7 0 13 -5 13 -10z m991 -41 c16 -17 26 -35 23 -40 -6 -10 -57 -10 -92
-1 l-22 7 22 32 c13 18 27 33 31 33 5 0 22 -14 38 -31z"/>
<path d="M15091 5437 c-6 -6 -11 -17 -11 -24 0 -7 -14 -47 -30 -89 -17 -42
-28 -79 -25 -82 2 -3 1 -10 -4 -16 -4 -6 -14 -33 -21 -59 -11 -41 -11 -50 1
-57 26 -16 43 18 54 105 1 6 6 21 12 35 34 78 53 133 48 141 -4 5 -1 9 4 9 16
0 13 37 -3 43 -7 3 -19 0 -25 -6z"/>
<path d="M12870 5426 c-44 -16 -56 -56 -16 -56 14 0 28 5 31 10 3 6 12 10 18
10 7 0 -3 -12 -20 -26 -18 -14 -33 -32 -33 -40 0 -7 18 -23 40 -34 46 -23 58
-43 40 -65 -17 -21 -77 -30 -95 -15 -18 15 -45 6 -45 -14 0 -35 96 -49 149
-22 26 14 51 53 51 80 0 8 -16 28 -36 45 l-36 32 36 39 c21 24 33 46 30 55 -7
18 -64 19 -114 1z"/>
<path d="M13859 5412 c-81 -52 -158 -158 -159 -219 -1 -86 111 -136 174 -78
14 13 26 29 26 35 0 37 -41 65 -104 73 -17 2 -31 8 -33 13 -10 30 117 154 158
154 24 0 33 18 19 35 -17 21 -30 19 -81 -13z m-35 -242 c33 -12 33 -26 0 -34
-27 -7 -74 15 -74 34 0 13 41 13 74 0z"/>
<path d="M15276 5417 c-13 -13 -27 -22 -33 -20 -15 5 -63 -44 -63 -65 0 -10 6
-27 14 -37 12 -17 11 -23 -10 -48 -45 -54 -46 -127 -2 -160 30 -23 120 -28
155 -8 56 30 70 86 33 134 -24 30 -25 58 -5 98 45 85 -26 169 -89 106z m64
-51 c0 -27 -35 -56 -70 -58 -30 -3 -35 0 -38 20 -2 12 -2 22 0 22 2 0 21 7 43
15 51 18 65 18 65 1z m-66 -137 c-2 -4 10 -12 27 -19 33 -14 49 -36 46 -68 -1
-17 -10 -23 -43 -28 -51 -7 -103 3 -111 22 -8 21 5 62 25 82 16 16 66 26 56
11z"/>
<path d="M11005 5420 c-8 -13 4 -50 16 -50 19 0 49 21 49 34 0 23 -53 36 -65
16z"/>
<path d="M9617 5353 c-20 -43 -26 -48 -62 -53 -51 -6 -56 -34 -7 -38 26 -3 33
-7 29 -20 -44 -155 -45 -178 -9 -156 9 6 25 46 38 94 l21 84 57 11 c63 13 87
28 69 46 -8 8 -25 8 -57 1 -25 -5 -46 -8 -46 -5 0 2 7 20 15 40 19 44 19 43
-5 43 -14 0 -27 -14 -43 -47z"/>
<path d="M14370 5358 c-35 -18 -46 -29 -48 -50 -4 -36 22 -38 54 -3 23 25 84
36 84 16 0 -17 -80 -111 -95 -111 -24 0 -84 -41 -91 -62 -11 -37 11 -42 65
-13 l50 28 35 -31 c43 -38 75 -49 87 -31 6 10 2 19 -14 31 -12 9 -34 27 -49
38 l-27 21 35 47 c34 43 54 82 54 102 0 19 -33 40 -64 40 -17 0 -52 -10 -76
-22z"/>
<path d="M10795 5320 c-31 -12 -65 -54 -80 -96 -15 -44 -10 -64 15 -64 23 0
29 9 34 51 4 36 37 69 68 69 11 0 28 5 39 11 16 8 18 13 8 25 -13 15 -52 18
-84 4z"/>
<path d="M8381 5283 c-85 -83 -114 -161 -75 -204 16 -17 26 -20 64 -14 49 7
124 37 134 53 3 6 3 17 0 25 -5 13 -13 12 -57 -9 -85 -39 -93 -30 -27 34 64
62 73 89 44 130 -21 31 -38 28 -83 -15z m10 -86 c-59 -54 -68 -37 -12 24 36
40 47 47 50 33 2 -11 -12 -33 -38 -57z"/>
<path d="M10333 5308 c-35 -9 -83 -60 -83 -88 0 -10 16 -32 35 -49 19 -17 35
-32 35 -35 0 -2 -12 -7 -26 -10 -19 -5 -30 -2 -39 10 -17 24 -47 11 -43 -18 5
-36 43 -49 91 -32 45 16 77 41 77 59 0 7 -18 24 -40 39 -22 14 -40 32 -40 39
1 13 30 56 30 43 0 -5 6 -3 14 3 10 8 16 9 21 1 3 -5 15 -10 26 -10 15 0 20 6
17 21 -4 27 -34 38 -75 27z"/>
<path d="M11078 5248 c-65 -70 -84 -108 -54 -108 8 0 39 28 70 62 l56 63 -6
-37 c-9 -53 2 -88 27 -88 13 0 19 5 16 13 -2 6 -1 41 4 77 13 114 -18 119
-113 18z"/>
<path d="M12033 5293 c-3 -8 -1 -19 4 -24 14 -14 142 -14 156 0 19 19 -4 28
-81 34 -58 3 -75 1 -79 -10z"/>
<path d="M8675 5274 c-8 -9 -15 -12 -15 -8 0 5 -5 3 -11 -3 -9 -9 -16 -9 -30
0 -10 6 -20 9 -22 7 -11 -14 -77 -158 -77 -168 0 -30 39 -6 85 50 l50 62 3
-41 c3 -45 22 -69 47 -59 15 5 21 47 8 59 -9 10 -10 66 0 60 4 -2 7 7 7 20 0
30 -24 42 -45 21z"/>
<path d="M10911 5257 c-6 -8 -18 -31 -27 -52 -13 -31 -13 -40 -2 -51 17 -17
30 -7 47 36 23 60 25 80 8 80 -8 0 -20 -6 -26 -13z"/>
<path d="M9385 5230 c-74 -32 -114 -124 -69 -157 35 -25 103 6 136 63 15 25
16 36 6 66 -14 46 -23 50 -73 28z m35 -58 c0 -12 -54 -62 -68 -62 -19 0 -14
21 10 47 21 22 58 32 58 15z"/>
<path d="M13086 5148 c-25 -21 -26 -25 -12 -43 15 -20 16 -19 40 10 40 48 18
73 -28 33z"/>
<path d="M14057 5142 c-21 -23 -22 -52 -2 -52 24 0 58 37 52 54 -8 21 -30 20
-50 -2z"/>
<path d="M9802 3613 c1054 -2 2782 -2 3840 0 1058 1 195 2 -1917 2 -2112 0
-2977 -1 -1923 -2z"/>
<path d="M9797 2923 c1058 -2 2788 -2 3845 0 1058 1 193 2 -1922 2 -2115 0
-2980 -1 -1923 -2z"/>
<path d="M9797 2233 c1057 -2 2789 -2 3850 0 1060 1 196 2 -1922 2 -2117 0
-2985 -1 -1928 -2z"/>
<path d="M9797 1543 c1058 -2 2788 -2 3845 0 1058 1 193 2 -1922 2 -2115 0
-2980 -1 -1923 -2z"/>
<path d="M9802 853 c1054 -2 2782 -2 3840 0 1058 1 195 2 -1917 2 -2112 0
-2977 -1 -1923 -2z"/>
</g>
</svg>
