<?xml version="1.0" standalone="no"?>
<!DOCTYPE svg PUBLIC "-//W3C//DTD SVG 20010904//EN"
 "http://www.w3.org/TR/2001/REC-SVG-20010904/DTD/svg10.dtd">
<svg version="1.0" xmlns="http://www.w3.org/2000/svg"
 width="1618.000000pt" height="1214.000000pt" viewBox="0 0 1618.000000 1214.000000"
 preserveAspectRatio="xMidYMid meet">

<g transform="translate(0.000000,1214.000000) scale(0.100000,-0.100000)"
fill="#000000" stroke="none">
<path d="M630 6040 l0 -5190 3310 0 3310 0 0 230 c0 223 1 230 20 230 12 0 30
15 46 39 31 48 26 72 -23 119 -29 27 -33 35 -23 47 7 8 21 15 32 15 13 0 18 6
16 18 -2 12 -13 17 -36 17 l-32 0 0 3113 c0 3039 0 3112 19 3103 30 -16 121
18 121 45 0 18 -37 23 -57 8 -26 -19 -53 -17 -53 4 0 10 -7 27 -15 38 -11 15
-14 58 -15 212 l0 192 33 1 c66 1 83 9 74 33 -5 12 -17 14 -57 9 l-50 -6 0 61
c0 49 4 63 18 71 10 5 27 25 37 45 16 29 17 37 6 50 -8 9 -24 16 -37 16 l-24
0 0 1065 0 1066 30 -23 c34 -25 81 -28 128 -9 56 23 32 60 -26 39 -34 -13 -77
-4 -86 17 -4 11 3 17 25 22 64 13 90 93 44 138 -31 32 -46 31 -84 -1 l-31 -26
0 191 0 191 -3310 0 -3310 0 0 -5190z m6610 4971 c0 -172 -3 -211 -15 -221
-13 -11 -13 -15 0 -33 13 -19 15 -127 15 -787 l0 -766 -35 4 c-38 5 -90 -25
-100 -58 -3 -10 -16 -20 -28 -22 -29 -4 -35 -38 -8 -45 11 -3 23 -15 27 -27
16 -54 95 -94 129 -66 13 11 15 -15 15 -215 l0 -227 -40 -40 c-22 -22 -40 -44
-40 -49 0 -5 -11 -9 -24 -9 -14 0 -28 -5 -31 -10 -8 -13 14 -42 26 -34 5 3 9
-5 9 -18 0 -35 37 -88 70 -100 l30 -10 0 -192 0 -192 -35 -13 c-21 -7 -33 -17
-29 -24 3 -7 -1 -4 -9 6 -20 24 -34 22 -75 -14 -42 -38 -118 -73 -138 -65 -22
9 -16 32 12 44 21 10 25 18 22 45 -4 44 -40 50 -64 10 -38 -62 -67 -68 -88
-19 -19 46 -49 52 -90 15 -32 -27 -33 -27 -29 -6 5 33 -12 55 -34 41 -14 -9
-20 -8 -29 5 -10 12 -15 13 -27 3 -13 -11 -33 -76 -29 -94 1 -5 -2 -8 -7 -8
-14 0 -53 -71 -47 -86 8 -20 34 -17 45 5 6 10 26 37 46 60 l35 43 0 -30 c0
-16 6 -35 14 -42 12 -9 18 -7 33 11 66 81 71 85 79 64 12 -35 36 -55 64 -55
18 0 33 -8 44 -25 20 -30 66 -33 124 -10 24 10 38 12 40 5 7 -20 41 -9 68 23
15 17 30 32 33 31 3 -1 16 6 29 14 15 9 27 11 33 5 7 -7 7 -6176 -1 -6328 0
-16 2 -50 6 -75 5 -36 4 -43 -7 -33 -9 9 -16 9 -25 2 -14 -11 -3 -48 23 -80
10 -12 13 -70 13 -237 l0 -222 -3300 0 -3300 0 0 5180 0 5180 3300 0 3300 0 0
-209z m104 -177 c9 -24 -12 -54 -39 -54 -29 0 -32 16 -9 48 18 26 39 29 48 6z
m76 -142 c0 -13 -12 -22 -22 -16 -10 6 -1 24 13 24 5 0 9 -4 9 -8z m-220
-1526 c0 -2 -7 -7 -16 -10 -8 -3 -12 -2 -9 4 6 10 25 14 25 6z m40 -86 l0 -50
-38 0 c-43 0 -62 14 -62 45 0 15 11 25 43 37 23 9 45 17 50 17 4 1 7 -21 7
-49z m0 -700 c0 -59 -20 -68 -45 -20 -20 39 -19 49 8 60 35 14 37 13 37 -40z
m50 -6978 c0 -22 -20 -53 -31 -47 -5 4 -9 24 -9 46 0 37 1 38 20 27 11 -7 20
-19 20 -26z"/>
<path d="M7121 10948 c-5 -192 -3 -266 9 -289 14 -26 47 -21 40 6 -2 11 -5
108 -5 215 0 188 -1 195 -20 198 -19 3 -20 -4 -24 -130z"/>
<path d="M6751 11034 c-26 -33 -26 -44 -2 -51 16 -4 17 -10 10 -46 -4 -23 -11
-86 -15 -140 -4 -54 -11 -100 -15 -103 -16 -10 -9 -34 9 -34 25 0 42 19 43 50
0 39 51 74 94 66 52 -10 85 -44 92 -94 4 -33 10 -42 26 -42 18 0 19 5 15 50
-6 61 -42 104 -100 122 -21 6 -38 13 -38 16 0 3 26 35 58 71 75 85 92 110 85
127 -9 25 -32 15 -57 -23 -13 -21 -33 -47 -45 -57 -11 -11 -21 -22 -21 -25 0
-4 -23 -31 -51 -61 l-51 -55 6 55 c4 30 10 88 13 128 6 68 5 72 -15 72 -11 0
-30 -12 -41 -26z"/>
<path d="M5542 11018 c-15 -15 -16 -38 -1 -38 6 0 8 -8 6 -17 -3 -10 -8 -40
-12 -66 l-6 -49 -57 4 c-48 2 -57 0 -60 -15 -4 -19 4 -23 69 -32 46 -6 46 -6
53 -52 7 -53 47 -127 77 -143 21 -12 59 -5 59 10 0 5 -13 16 -30 25 -32 16
-53 56 -63 116 l-5 36 53 7 c69 8 105 24 105 48 0 20 -13 22 -56 9 -16 -5 -44
-12 -62 -15 l-33 -6 3 92 c2 76 0 93 -12 95 -9 2 -21 -2 -28 -9z"/>
<path d="M6005 10999 c-16 -5 -53 -11 -81 -13 -28 -2 -61 -9 -73 -15 -27 -15
-27 -41 -1 -41 18 0 20 -7 20 -55 0 -43 -3 -55 -15 -55 -22 0 -31 -31 -14 -44
21 -15 11 -121 -11 -121 -22 0 -24 -44 -3 -67 15 -16 26 -19 64 -14 71 10 154
39 154 55 0 20 -28 21 -91 4 -30 -9 -57 -14 -60 -11 -10 10 8 155 20 156 6 1
34 3 61 5 41 3 50 7 50 23 0 17 -7 19 -58 19 l-57 -1 4 55 4 55 48 12 c27 7
61 13 77 14 20 0 27 5 27 19 0 15 -23 35 -33 30 -1 0 -15 -5 -32 -10z"/>
<path d="M1963 10973 c-28 -5 -73 -58 -73 -84 0 -32 17 -58 102 -153 77 -87
91 -119 66 -144 -15 -15 -102 -15 -145 0 -34 12 -41 22 -23 33 19 12 -10 36
-34 29 -55 -17 -48 -58 17 -91 41 -21 66 -26 117 -26 71 0 103 12 121 44 22
41 2 84 -86 184 -105 119 -110 153 -30 168 37 7 53 -2 49 -26 -4 -29 16 -87
31 -87 21 0 45 41 45 76 0 24 -8 39 -31 58 -30 26 -65 31 -126 19z"/>
<path d="M4348 10963 c-9 -10 -29 -47 -45 -83 -17 -36 -43 -80 -58 -99 -27
-31 -30 -32 -42 -15 -7 10 -13 36 -13 59 0 39 -22 85 -40 85 -19 0 -31 -44
-45 -162 -8 -66 -20 -136 -26 -155 -8 -24 -8 -38 -1 -45 29 -29 49 19 67 156
6 46 7 47 21 27 9 -13 26 -21 43 -21 36 0 93 61 127 134 l24 51 -1 -95 c-1
-157 0 -168 17 -184 34 -34 72 -2 40 33 -14 16 -17 39 -15 152 3 162 -12 208
-53 162z"/>
<path d="M2795 10940 c-3 -5 -1 -29 6 -52 27 -103 12 -205 -39 -251 -19 -17
-20 -17 -47 15 -32 37 -38 52 -60 144 -9 38 -23 79 -31 92 -14 21 -48 30 -57
15 -3 -5 -8 -56 -11 -114 -7 -110 -26 -191 -51 -219 -19 -21 -4 -44 23 -36 11
4 25 19 31 34 17 41 41 161 42 212 l1 45 14 -57 c7 -32 22 -75 33 -97 22 -43
74 -91 98 -91 27 0 91 77 104 122 12 46 4 200 -12 231 -11 19 -34 23 -44 7z"/>
<path d="M2280 10914 c-14 -8 -41 -11 -63 -8 -28 3 -39 0 -44 -12 -9 -24 16
-35 68 -31 l47 4 -5 -96 c-6 -104 5 -164 36 -203 16 -18 22 -20 32 -11 10 10
9 20 -4 50 -25 59 -30 98 -22 184 l7 80 88 -6 c89 -6 106 -1 90 25 -7 11 -34
16 -95 19 -47 1 -85 7 -85 12 0 12 -20 10 -50 -7z"/>
<path d="M3370 10894 c-55 -44 -64 -58 -45 -74 11 -9 19 -7 40 14 24 24 57 46
69 46 3 0 6 -19 6 -41 0 -65 -36 -126 -127 -216 -46 -44 -83 -88 -83 -96 0
-34 31 -24 90 29 66 58 104 69 115 33 11 -35 66 -89 89 -89 24 0 56 28 56 49
0 10 -10 11 -35 7 -32 -6 -36 -4 -61 36 -14 24 -35 50 -46 59 -20 15 -20 16
11 65 47 77 53 160 15 198 -23 24 -44 19 -94 -20z"/>
<path d="M6187 10923 c-12 -11 -8 -50 7 -62 14 -12 27 -2 39 30 9 26 -27 52
-46 32z"/>
<path d="M6537 10819 c-56 -43 -57 -159 -1 -195 36 -24 128 -15 157 16 12 12
16 19 8 15 -11 -6 -13 -4 -8 8 8 21 8 21 -36 2 -20 -8 -47 -15 -61 -15 -27 0
-66 32 -47 38 6 2 9 8 5 13 -3 5 -2 9 3 8 23 -4 34 5 58 45 21 37 24 49 15 65
-14 27 -59 27 -93 0z m30 -57 c-15 -14 -27 -21 -27 -14 0 16 40 56 48 48 3 -4
-6 -19 -21 -34z"/>
<path d="M6137 10773 c-8 -16 9 -153 20 -164 17 -17 47 -3 37 19 -4 9 -6 39
-5 65 3 62 -6 87 -29 87 -10 0 -21 -3 -23 -7z"/>
<path d="M2977 10763 c-11 -10 -8 -41 3 -48 6 -4 17 -2 25 5 10 8 29 8 71 1
61 -12 88 -3 82 27 -2 12 -22 16 -89 19 -47 2 -89 0 -92 -4z"/>
<path d="M4557 10753 c-23 -26 -47 -87 -47 -122 0 -91 140 -116 182 -33 23 47
8 89 -41 111 -24 10 -36 23 -36 36 0 27 -36 31 -58 8z m97 -105 c23 -37 -32
-71 -80 -49 -26 12 -29 26 -14 65 9 24 11 25 47 12 20 -7 41 -20 47 -28z"/>
<path d="M6247 10763 c-2 -5 -3 -41 -3 -82 1 -88 15 -101 45 -42 31 59 81 102
81 69 0 -28 22 -88 36 -103 13 -12 19 -13 31 -4 8 7 10 15 5 18 -5 3 -15 32
-22 63 -17 87 -51 109 -102 69 -24 -19 -24 -19 -36 0 -13 20 -28 25 -35 12z"/>
<path d="M4797 10753 c-53 -4 -58 -6 -55 -26 3 -19 9 -22 50 -21 l47 0 -28
-35 c-39 -50 -49 -71 -44 -91 7 -26 47 -40 113 -40 53 0 60 2 60 20 0 17 -7
20 -42 20 -24 0 -53 3 -66 6 -22 6 -22 7 -6 33 10 14 28 37 41 51 40 42 43 92
5 88 -9 -1 -43 -3 -75 -5z"/>
<path d="M5208 10733 c-33 -39 -31 -123 3 -123 15 0 19 7 19 38 0 45 15 65 40
52 13 -7 22 -5 30 5 31 37 -60 64 -92 28z"/>
<path d="M5042 10720 c-37 -23 -55 -60 -46 -96 10 -40 39 -49 80 -25 29 17 38
19 54 9 26 -17 50 3 31 26 -9 11 -10 20 -2 35 30 55 -9 79 -41 25 -23 -39 -78
-75 -78 -51 0 16 31 47 47 47 16 0 23 26 10 39 -15 15 -17 14 -55 -9z"/>
<path d="M3810 10704 c-26 -9 -61 -13 -83 -9 -29 4 -39 2 -44 -11 -10 -26 18
-35 87 -30 77 5 122 23 118 45 -4 21 -24 22 -78 5z"/>
<path d="M4957 10593 c-10 -9 -8 -53 2 -53 5 0 15 7 22 17 11 13 11 17 1 20
-6 3 -10 9 -6 14 6 10 -9 12 -19 2z"/>
<path d="M4270 10351 c0 -20 23 -45 32 -35 10 9 116 -56 143 -88 20 -23 25
-41 25 -81 0 -74 -31 -128 -128 -226 -47 -47 -93 -99 -103 -116 -23 -37 -24
-88 -3 -109 32 -33 69 -9 39 24 -27 29 -8 61 98 170 51 53 102 116 114 140 27
59 37 132 24 173 -15 44 -72 98 -145 136 -68 36 -96 39 -96 12z"/>
<path d="M3575 10241 c6 -74 5 -91 -6 -92 -28 -1 -84 -9 -96 -14 -18 -6 -16
-25 3 -25 8 0 13 -4 10 -8 -3 -5 19 -7 48 -4 l54 4 7 -60 c4 -34 4 -74 0 -90
-8 -41 12 -52 37 -21 20 23 20 50 2 142 -5 26 -4 27 35 27 28 0 43 5 50 18 10
16 10 16 11 0 0 -11 8 -18 20 -18 11 0 20 -4 20 -9 0 -4 29 -25 65 -46 80 -47
84 -65 16 -65 -55 0 -74 -16 -46 -37 39 -28 145 -2 145 36 0 37 -13 53 -72 91
-63 41 -63 42 19 55 38 6 60 25 46 39 -11 10 -68 7 -115 -8 -62 -18 -197 -21
-203 -4 -2 7 -6 49 -7 93 -3 75 -4 80 -26 83 l-24 4 7 -91z"/>
<path d="M1584 10241 c-38 -23 -96 -101 -130 -176 -50 -108 -20 -221 73 -285
18 -12 33 -29 33 -36 0 -27 -128 -200 -179 -242 -47 -38 -56 -42 -88 -36 -58
11 -70 -38 -13 -51 76 -17 195 92 303 277 15 26 27 52 27 59 0 7 -30 41 -67
76 l-68 63 0 62 c0 52 6 74 33 123 40 75 89 128 109 120 20 -7 43 12 43 35 0
16 -18 30 -38 30 -4 0 -21 -9 -38 -19z"/>
<path d="M2044 10158 c-51 -28 -57 -73 -15 -120 l28 -32 -28 -39 c-43 -59 -41
-117 5 -163 62 -62 130 -39 155 52 12 43 -1 93 -34 132 l-24 29 50 48 c27 26
48 53 46 59 -10 33 -139 56 -183 34z m89 -80 c-38 -39 -63 -48 -63 -24 0 7 -7
19 -15 26 -27 23 1 40 61 37 l53 -2 -36 -37z m-8 -118 c29 -32 34 -80 12 -117
-23 -40 -49 -42 -76 -7 -31 39 -25 78 17 127 19 22 25 21 47 -3z"/>
<path d="M3070 10115 c0 -24 19 -55 34 -55 8 0 13 12 12 33 -1 25 -6 33 -23
35 -16 2 -23 -2 -23 -13z"/>
<path d="M3268 10050 c-22 -13 -68 -91 -68 -113 0 -10 8 -17 20 -17 13 0 25
14 39 45 11 25 22 45 26 45 3 0 2 -25 -1 -55 -9 -75 16 -104 61 -72 11 9 15
19 10 27 -6 10 -9 9 -16 -1 -10 -16 -10 -16 -12 81 -2 57 -4 65 -22 67 -11 2
-28 -2 -37 -7z"/>
<path d="M2601 9994 c-50 -44 -63 -85 -65 -193 -1 -96 16 -146 49 -146 18 0
20 9 25 94 5 100 8 104 62 115 15 4 43 21 62 40 66 62 40 126 -51 126 -35 0
-50 -6 -82 -36z m116 1 c-4 -8 -2 -17 3 -20 16 -10 -7 -43 -40 -60 -37 -19
-40 -19 -40 5 0 12 -7 20 -17 20 -29 1 33 50 63 50 13 0 24 5 24 10 0 6 3 10
6 10 3 0 4 -7 1 -15z"/>
<path d="M2844 10019 c-3 -5 0 -17 7 -25 9 -11 9 -18 -3 -32 -28 -32 -29 -52
-3 -78 37 -37 121 -29 144 15 9 16 6 26 -16 53 -16 18 -33 42 -39 53 -12 21
-79 32 -90 14z m82 -84 c16 -13 17 -16 4 -25 -19 -12 -31 -12 -49 -1 -12 8
-12 12 -2 25 17 20 22 20 47 1z"/>
<path d="M3077 9993 c-13 -13 -7 -50 11 -66 23 -21 36 -21 52 -3 9 12 7 18 -9
33 -12 9 -21 23 -21 30 0 14 -22 18 -33 6z"/>
<path d="M5121 9356 c-6 -7 -33 -16 -59 -20 -73 -10 -201 -55 -212 -76 -14
-26 10 -44 36 -26 32 22 146 55 197 58 48 2 59 8 70 40 8 23 -17 43 -32 24z"/>
<path d="M4525 9251 c-16 -10 -54 -46 -84 -80 -61 -71 -59 -92 6 -75 33 8 38
13 39 38 1 20 12 39 35 60 l34 30 3 -27 c4 -34 -40 -132 -75 -169 -15 -16 -38
-28 -52 -28 -30 0 -121 -90 -121 -120 0 -46 58 -27 134 45 l29 27 45 -46 c52
-54 86 -60 122 -21 19 20 21 28 11 38 -9 9 -18 8 -40 -5 -29 -16 -29 -16 -70
26 l-41 42 24 23 c31 29 74 126 82 183 5 34 2 48 -11 61 -21 22 -33 21 -70 -2z"/>
<path d="M3274 9217 c-3 -8 0 -34 5 -58 6 -24 11 -63 11 -86 0 -46 3 -44 -70
-47 -18 -1 -25 -7 -25 -21 0 -16 8 -21 43 -23 l42 -3 0 -53 c0 -34 5 -58 14
-65 21 -18 36 15 36 78 0 47 2 51 24 51 37 0 76 18 76 35 0 13 -8 18 -30 17
-3 0 -20 -3 -37 -7 -32 -6 -33 -5 -33 24 0 17 -4 31 -10 31 -5 0 -10 5 -10 11
0 5 5 7 11 3 9 -5 10 9 4 52 -6 54 -17 73 -38 74 -4 0 -10 -6 -13 -13z"/>
<path d="M6969 9206 c-56 -28 -114 -177 -74 -192 22 -9 45 19 38 46 -7 26 43
110 65 109 9 0 26 -4 37 -8 24 -10 45 -3 45 14 0 25 -80 47 -111 31z"/>
<path d="M2789 9203 c0 -5 -2 -83 -5 -174 -4 -138 -2 -168 10 -178 22 -18 39
-3 31 27 -3 14 -1 84 6 157 9 100 9 137 0 153 -11 21 -40 31 -42 15z"/>
<path d="M6430 9193 c-35 -13 -40 -24 -25 -53 8 -16 23 -35 33 -42 10 -7 29
-28 43 -46 24 -33 24 -34 4 -48 -19 -14 -33 -14 -81 1 -32 10 -39 -21 -9 -41
53 -35 137 -6 143 50 4 30 -27 86 -63 114 l-24 19 24 11 c48 22 6 54 -45 35z"/>
<path d="M4761 9176 c-8 -9 -8 -22 -2 -38 11 -30 25 -40 83 -62 56 -21 66 -41
37 -73 -28 -29 -93 -32 -108 -5 -13 24 -35 2 -26 -27 25 -79 195 -27 195 60 0
38 -35 74 -89 90 -33 10 -40 16 -36 30 4 11 -1 22 -14 28 -25 14 -26 14 -40
-3z"/>
<path d="M6617 9134 c-31 -28 -52 -74 -40 -83 4 -3 8 -15 8 -26 0 -30 60 -65
111 -65 79 0 101 49 64 144 -21 56 -48 18 -32 -45 10 -38 9 -41 -15 -52 -20
-9 -31 -7 -59 8 -43 23 -45 54 -4 88 17 14 30 33 30 41 0 24 -32 19 -63 -10z"/>
<path d="M5973 9120 c-55 -31 -75 -57 -81 -102 -2 -22 3 -32 30 -48 35 -21 68
-26 68 -10 0 13 37 13 45 1 3 -5 -3 -11 -12 -14 -10 -2 -1 -3 20 -1 45 4 57
10 57 30 0 11 -16 14 -67 14 l-68 1 39 19 c22 11 48 27 58 36 25 23 24 80 -1
94 -27 14 -30 14 -88 -20z m67 -30 c0 -11 -36 -35 -67 -45 -36 -10 -27 9 15
33 41 24 52 27 52 12z"/>
<path d="M6180 9124 c-26 -22 -60 -72 -60 -88 0 -2 7 -12 16 -20 20 -20 57
-20 96 0 28 15 31 14 45 -6 22 -31 68 -24 68 10 0 18 -5 24 -17 22 -22 -4 -22
1 -3 37 12 24 12 31 1 40 -11 9 -23 4 -55 -23 -42 -35 -78 -52 -88 -42 -10 9
20 38 55 53 41 17 43 43 3 43 -17 0 -43 -11 -61 -26z"/>
<path d="M1634 9097 c-74 -62 -112 -167 -82 -232 25 -56 198 -55 198 2 0 13
-7 14 -42 9 -24 -4 -53 -9 -65 -12 -27 -7 -63 27 -63 61 0 14 -4 25 -10 25 -5
0 -10 5 -10 10 0 6 7 10 15 10 8 0 28 20 45 45 37 54 72 79 98 71 11 -4 24 0
31 8 38 46 -60 48 -115 3z"/>
<path d="M5540 9098 c-34 -57 -49 -193 -24 -218 8 -8 29 11 72 63 34 41 67 86
73 101 14 31 29 34 29 6 0 -28 27 -36 49 -16 20 19 31 12 31 -19 0 -30 23 -47
56 -43 32 4 54 32 37 49 -8 8 -16 8 -31 0 -19 -10 -21 -8 -24 25 -4 44 -29 65
-55 48 -15 -10 -22 -7 -40 15 -18 22 -25 24 -40 14 -10 -6 -17 -16 -15 -23 1
-6 -2 -9 -7 -5 -12 7 -42 -48 -38 -67 2 -7 2 -10 0 -5 -3 4 -9 5 -13 2 -5 -3
-4 8 1 25 26 72 -23 110 -61 48z"/>
<path d="M3517 9064 c-22 -14 -45 -41 -53 -60 -13 -30 -12 -38 1 -64 29 -55
93 -71 197 -48 30 6 45 14 41 21 -4 6 0 8 10 4 9 -3 18 0 21 9 9 24 -17 26
-79 9 -61 -18 -115 -14 -135 10 -9 11 -1 19 49 45 62 31 76 55 48 78 -29 24
-62 23 -100 -4z"/>
<path d="M2578 9056 c-16 -8 -34 -18 -40 -23 -7 -4 -21 -6 -30 -5 -31 5 -42
-37 -42 -172 -1 -111 1 -130 16 -139 25 -17 32 -3 29 63 l-2 60 34 0 c24 0 48
11 79 35 69 52 88 126 43 170 -28 29 -48 31 -87 11z m67 -55 c8 -26 -4 -51
-39 -84 -30 -27 -72 -45 -82 -34 -11 11 19 91 43 113 31 29 69 31 78 5z"/>
<path d="M3015 9063 c-11 -3 -31 -17 -45 -30 -14 -14 -35 -29 -47 -34 -23 -9
-32 -39 -12 -39 5 0 17 -16 25 -35 16 -39 61 -72 111 -81 57 -11 148 34 113
56 -7 4 -24 4 -37 -1 -59 -22 -130 -2 -146 42 -4 12 6 18 41 28 25 7 52 17 59
23 18 15 16 48 -4 64 -19 14 -26 15 -58 7z"/>
<path d="M1864 9015 c-3 -8 -3 -18 0 -23 3 -6 -1 -12 -9 -16 -16 -6 -55 -64
-55 -83 0 -23 32 -43 69 -43 44 0 129 26 154 48 42 37 6 85 -77 102 -31 6 -54
16 -51 21 4 5 -1 9 -10 9 -8 0 -18 -7 -21 -15z m100 -65 c36 -13 32 -26 -9
-40 -19 -6 -33 -16 -30 -21 4 -5 1 -9 -4 -9 -6 0 -11 4 -11 10 0 5 -13 7 -30
4 -16 -4 -30 -2 -30 3 0 22 49 62 77 63 6 0 23 -4 37 -10z"/>
<path d="M2292 9022 c-6 -5 -23 -23 -37 -41 l-24 -34 -6 26 c-13 50 -32 54
-71 16 -52 -49 -61 -69 -39 -85 22 -17 33 -10 51 30 l13 31 1 -31 c0 -18 8
-39 20 -49 21 -19 15 -24 85 60 l25 30 31 -38 c31 -37 52 -46 64 -27 7 11 -21
52 -64 98 -24 24 -30 26 -49 14z"/>
<path d="M6895 8808 c-2 -7 -11 -42 -20 -78 -9 -36 -25 -93 -36 -127 -21 -65
-29 -71 -108 -77 -14 -1 -36 -6 -48 -10 -28 -9 -28 -8 1 84 13 41 27 94 31
118 6 38 5 42 -14 42 -15 0 -23 -10 -31 -40 -6 -22 -8 -44 -5 -49 3 -5 2 -11
-3 -13 -4 -1 -18 -38 -32 -81 -23 -77 -44 -103 -72 -92 -7 3 -22 -1 -32 -8
-27 -20 -11 -40 25 -33 l28 5 -26 -67 c-41 -107 -49 -140 -35 -154 17 -17 27
-3 52 72 48 143 56 155 110 169 28 7 48 16 45 21 -5 8 66 2 75 -6 2 -3 -1 -13
-7 -24 -7 -10 -26 -55 -44 -100 -23 -60 -28 -85 -20 -93 18 -18 32 4 81 125
l45 112 42 11 c77 19 87 63 10 46 -20 -5 -39 -5 -42 -1 -3 5 -1 10 4 12 5 1
23 52 39 113 22 79 28 113 20 122 -13 16 -27 17 -33 1z"/>
<path d="M7096 8778 c-2 -7 -9 -38 -16 -68 -11 -50 -47 -160 -116 -353 -25
-70 -24 -90 3 -85 15 3 25 27 115 288 46 135 60 230 34 230 -9 0 -18 -6 -20
-12z"/>
<path d="M6265 8718 c-3 -7 -11 -35 -19 -63 -8 -27 -38 -117 -66 -200 -61
-176 -67 -245 -24 -245 10 0 14 12 14 43 1 24 30 127 69 247 38 112 66 210 64
217 -7 17 -32 17 -38 1z"/>
<path d="M4591 8644 c-57 -52 -78 -94 -48 -94 22 1 137 119 131 135 -9 23 -19
19 -83 -41z"/>
<path d="M4107 8613 c-2 -5 -8 -26 -12 -48 -10 -46 -9 -44 -20 -70 -14 -32
-29 -42 -50 -34 -11 4 -35 8 -52 8 -26 1 -33 -3 -33 -18 0 -20 25 -31 75 -31
l30 0 0 -80 c0 -73 2 -82 27 -106 21 -22 39 -28 85 -32 48 -3 56 -2 46 9 -19
19 -16 33 3 15 19 -20 54 -20 80 -2 14 11 16 18 8 26 -8 8 -28 8 -77 0 -110
-20 -144 14 -131 128 l6 52 40 0 c22 0 48 5 59 11 29 15 6 39 -37 39 -39 0
-40 3 -15 67 10 26 16 54 14 61 -5 13 -39 17 -46 5z m-97 -173 c0 -5 -4 -10
-10 -10 -5 0 -10 5 -10 10 0 6 5 10 10 10 6 0 10 -4 10 -10z"/>
<path d="M2837 8583 c-8 -16 -22 -53 -32 -83 -19 -58 -61 -146 -93 -193 -25
-37 -34 -25 -65 81 -13 45 -28 87 -33 92 -19 19 -34 -8 -48 -81 -8 -41 -22
-114 -31 -162 -19 -105 -17 -132 10 -132 17 0 20 8 22 55 2 30 11 89 21 130
l19 75 13 -43 c14 -46 51 -92 73 -92 19 0 36 22 86 105 l41 69 -6 -116 c-8
-128 3 -178 37 -178 21 0 26 29 8 47 -14 14 5 374 22 404 6 11 8 27 5 35 -9
23 -34 16 -49 -13z"/>
<path d="M1750 8583 c-23 -8 -60 -45 -75 -73 -9 -17 -14 -84 -16 -210 -3 -158
-2 -185 11 -187 22 -4 47 14 35 26 -6 5 -9 43 -7 84 l3 74 60 6 c61 7 102 24
96 42 -4 11 -25 11 -106 0 l-53 -8 4 71 c6 121 61 164 131 103 40 -36 43 -36
51 -15 10 25 -13 54 -57 75 -44 20 -53 21 -77 12z"/>
<path d="M6385 8550 c-14 -26 -14 -31 -1 -36 24 -9 58 15 54 39 -5 34 -35 33
-53 -3z"/>
<path d="M6332 8468 c-10 -13 -44 -109 -56 -159 -4 -18 0 -34 12 -48 15 -20
19 -21 37 -7 17 13 18 18 7 36 -11 17 -9 31 12 91 23 66 25 99 6 99 -4 0 -12
-6 -18 -12z"/>
<path d="M4570 8437 c-19 -7 -34 -15 -32 -19 1 -5 2 -15 2 -24 0 -8 22 -39 49
-67 43 -47 73 -97 56 -97 -3 0 -20 7 -38 16 -24 13 -32 14 -35 4 -3 -9 -6 -9
-13 1 -7 11 -9 10 -9 -4 0 -23 57 -57 97 -57 63 0 57 82 -12 150 -25 24 -45
48 -45 52 0 4 11 8 25 8 29 0 45 28 24 41 -18 11 -26 11 -69 -4z"/>
<path d="M5425 8438 c-47 -27 -100 -117 -91 -153 11 -43 73 -40 122 6 l21 20
7 -40 c7 -47 47 -83 85 -79 39 4 35 41 -4 48 l-30 5 1 83 c1 65 -2 82 -13 82
-8 0 -26 9 -40 20 -30 23 -31 23 -58 8z m42 -54 c8 -23 -68 -97 -84 -81 -11
12 50 97 69 97 5 0 11 -7 15 -16z"/>
<path d="M3262 8368 c-7 -7 -12 -17 -12 -24 0 -16 50 -24 75 -13 11 5 7 -1
-10 -13 -46 -36 -85 -81 -85 -98 0 -23 20 -40 46 -40 43 0 126 24 132 38 9 24
-19 31 -67 16 -25 -8 -50 -14 -55 -14 -15 0 17 31 71 72 53 39 67 70 37 82
-28 11 -120 6 -132 -6z"/>
<path d="M4790 8355 c-7 -8 -23 -15 -35 -15 -30 0 -53 -26 -37 -42 9 -9 25 -9
64 2 61 15 73 28 51 52 -20 22 -27 22 -43 3z"/>
<path d="M2983 8343 c-3 -7 -2 -16 1 -21 3 -6 -1 -15 -9 -22 -8 -6 -19 -28
-26 -48 -10 -30 -9 -40 6 -68 20 -38 47 -47 97 -34 50 14 88 47 88 76 0 13
-15 41 -35 63 -19 21 -35 44 -35 50 0 6 -3 11 -7 12 -48 5 -76 2 -80 -8z m88
-84 l33 -31 -23 -20 c-34 -27 -85 -21 -89 10 -4 24 22 72 37 72 5 0 24 -14 42
-31z"/>
<path d="M3552 8344 c-32 -22 -44 -51 -37 -85 8 -37 37 -49 82 -36 30 9 35 8
49 -11 20 -28 64 -30 64 -2 0 10 -8 23 -17 29 -16 8 -16 14 -6 41 12 33 3 80
-16 80 -9 0 -37 -41 -33 -47 8 -13 -4 -26 -33 -39 -44 -18 -45 -18 -45 7 0 13
11 25 35 35 24 9 33 19 29 29 -8 19 -44 19 -72 -1z"/>
<path d="M3783 8330 c-30 -12 -39 -55 -22 -104 11 -33 19 -42 42 -44 30 -4 36
12 13 37 -44 51 -23 86 43 69 30 -8 45 -8 53 0 19 19 -18 45 -57 40 -18 -2
-31 0 -29 4 7 10 -15 9 -43 -2z"/>
<path d="M1469 8305 c-38 -28 -89 -109 -89 -141 0 -11 9 -29 20 -39 38 -34
160 -3 160 41 0 7 -16 28 -35 48 -37 39 -37 57 1 74 13 7 24 18 24 27 0 23
-42 18 -81 -10z m24 -147 c-39 -15 -63 -9 -63 15 0 42 21 50 52 20 26 -25 27
-28 11 -35z"/>
<path d="M2678 8016 c-57 -20 -85 -42 -123 -94 -95 -130 -103 -297 -20 -375
28 -25 106 -54 122 -44 5 3 29 8 53 12 81 12 129 56 130 118 0 21 -4 47 -10
57 -8 15 -5 19 26 24 37 8 56 33 33 46 -7 5 -17 7 -21 4 -4 -3 -44 -11 -89
-19 -59 -11 -87 -12 -101 -4 -27 15 -47 -4 -32 -29 8 -12 30 -19 74 -23 36 -4
66 -12 71 -20 29 -45 -12 -95 -93 -114 -110 -25 -178 33 -178 150 0 84 70 219
130 250 38 19 38 19 32 -10 -6 -36 6 -75 24 -75 16 0 40 49 51 102 5 23 2 34
-12 45 -22 16 -20 16 -67 -1z"/>
<path d="M3801 7937 c-15 -17 -26 -47 -34 -91 -11 -65 -11 -66 -41 -63 -25 2
-31 -2 -31 -18 0 -14 10 -23 33 -30 28 -8 32 -14 32 -42 0 -35 -43 -135 -66
-154 -20 -17 -17 -39 5 -39 41 0 91 93 100 185 l6 60 40 5 c50 7 66 16 58 35
-6 17 -53 21 -53 4 0 -8 -34 -5 -47 5 -1 0 2 20 7 44 6 33 4 42 -6 42 -8 0
-14 5 -14 10 0 6 6 10 13 10 24 0 78 32 74 43 -7 23 -52 19 -76 -6z"/>
<path d="M1537 7924 c-16 -16 -7 -44 14 -44 15 0 20 5 17 22 -3 22 -19 33 -31
22z"/>
<path d="M4017 7873 c-12 -11 -7 -33 8 -39 20 -8 45 13 38 32 -5 14 -34 19
-46 7z"/>
<path d="M5989 7849 c-33 -35 -38 -79 -12 -104 21 -21 82 -13 130 16 l33 21
26 -56 c16 -36 24 -69 22 -93 -3 -35 -6 -38 -48 -50 -25 -7 -52 -16 -60 -20
-8 -3 -20 -5 -27 -4 -19 3 -85 -34 -109 -61 -35 -37 -39 -78 -12 -118 18 -26
32 -36 56 -38 71 -7 205 103 231 189 7 22 18 39 26 39 18 0 20 29 3 35 -7 3
-14 24 -16 46 -3 47 -60 186 -78 193 -7 3 -23 -6 -36 -18 -13 -13 -33 -28 -45
-35 -25 -13 -73 -15 -73 -3 0 17 37 42 53 37 20 -8 27 5 16 33 -12 31 -46 28
-80 -9z m165 -351 c-31 -45 -105 -103 -142 -113 -53 -13 -71 53 -27 95 22 21
183 74 194 64 2 -2 -9 -22 -25 -46z"/>
<path d="M6346 7850 c-19 -17 -40 -47 -47 -67 -11 -34 -10 -38 15 -60 33 -28
79 -30 113 -3 14 11 34 20 44 20 13 0 19 7 19 21 0 18 -5 21 -33 17 -33 -4
-33 -3 -20 22 18 35 16 46 -9 64 -31 22 -42 20 -82 -14z m54 -30 c0 -9 -32
-30 -46 -30 -4 0 1 9 11 20 19 21 35 26 35 10z m-5 -70 c-3 -5 -12 -10 -18
-10 -7 0 -6 4 3 10 19 12 23 12 15 0z"/>
<path d="M5260 7841 c0 -7 -4 -9 -10 -6 -21 13 -70 -27 -96 -76 -31 -63 -30
-112 4 -117 23 -4 45 29 24 36 -8 2 -8 11 -1 30 19 55 33 72 65 84 39 14 49
32 28 48 -11 10 -14 10 -14 1z"/>
<path d="M5368 7835 c-30 -17 -96 -121 -105 -166 -4 -24 -2 -29 14 -29 13 0
27 17 45 58 15 31 39 68 53 82 22 21 29 22 45 12 28 -17 40 -15 40 7 0 20 -35
51 -55 51 -5 -1 -22 -7 -37 -15z"/>
<path d="M5798 7816 c-16 -9 -30 -11 -33 -5 -14 22 -33 5 -54 -46 -21 -51 -23
-85 -4 -85 4 0 26 22 48 49 53 65 105 78 105 26 0 -29 19 -43 31 -24 14 22 10
66 -7 83 -19 20 -51 20 -86 2z"/>
<path d="M5503 7783 c-40 -37 -63 -70 -63 -92 0 -6 11 -18 24 -26 21 -14 28
-14 58 -2 19 8 51 29 71 46 l36 32 3 -38 c2 -30 7 -38 23 -38 17 0 20 6 17 40
-7 115 -22 129 -73 70 -31 -35 -97 -81 -105 -73 -9 10 41 61 73 75 38 15 39
36 2 41 -16 2 -37 -9 -66 -35z"/>
<path d="M4240 7738 l-53 -42 -21 27 c-12 15 -29 27 -39 27 -23 0 -22 -33 3
-55 20 -18 20 -19 -14 -47 -22 -18 -33 -34 -29 -43 8 -21 18 -19 64 14 l40 29
42 -18 c68 -29 97 -33 104 -14 7 20 -15 36 -41 28 -11 -4 -16 -2 -12 4 3 5 -5
13 -19 16 -33 8 -31 17 10 44 33 21 46 54 26 66 -5 3 -32 -13 -61 -36z"/>
<path d="M4908 7740 c-35 -38 -44 -60 -38 -100 5 -42 74 -53 129 -19 32 19 36
20 47 5 13 -18 40 -21 49 -6 4 6 2 17 -4 24 -6 7 -8 29 -4 49 5 32 3 37 -14
37 -11 0 -31 -13 -44 -29 -43 -51 -119 -76 -119 -39 0 7 11 26 24 43 22 27 24
28 40 12 34 -34 55 -13 31 33 -21 42 -50 39 -97 -10z"/>
<path d="M1439 7729 c-55 -55 -60 -141 -11 -179 30 -24 79 -21 99 7 18 24 6
34 -40 31 -42 -3 -42 -3 -45 35 -3 33 2 43 33 73 20 18 33 38 30 44 -10 17
-44 11 -66 -11z"/>
<path d="M3949 7713 c-6 -16 -13 -54 -16 -85 -5 -53 -3 -58 15 -58 16 0 21 9
26 48 3 26 13 60 21 76 21 39 19 46 -10 46 -19 0 -28 -8 -36 -27z"/>
<path d="M1654 7715 c-26 -12 -35 -25 -49 -70 -13 -40 -15 -59 -7 -67 15 -15
28 -4 58 52 15 28 30 48 33 45 2 -3 4 -23 3 -44 -2 -31 2 -43 20 -55 12 -9 28
-16 35 -16 18 0 16 37 -1 43 -10 4 -16 25 -18 64 -3 65 -16 74 -74 48z"/>
<path d="M3037 7554 c-4 -4 -7 -24 -7 -45 0 -26 -7 -44 -25 -60 -42 -40 -25
-75 21 -44 37 24 58 74 47 115 -9 33 -23 47 -36 34z"/>
<path d="M4690 6762 c0 -15 5 -33 12 -40 9 -9 9 -12 0 -12 -17 0 -15 -16 5
-36 12 -12 14 -19 6 -21 -7 -3 -9 -11 -7 -18 5 -11 -9 -15 -58 -17 -60 -3 -63
-4 -63 -28 0 -25 1 -25 67 -22 l67 4 7 -47 c3 -26 4 -69 1 -97 -6 -46 -5 -49
16 -46 30 4 43 54 30 123 l-10 55 37 -4 c20 -1 49 -11 64 -21 15 -10 42 -26
59 -35 32 -18 45 -48 17 -41 -50 13 -60 13 -60 -1 0 -22 33 -48 61 -48 32 0
69 26 69 49 0 26 -34 65 -71 83 l-32 16 32 7 c22 5 31 12 31 27 0 18 -4 19
-52 13 -29 -4 -56 -10 -61 -14 -4 -4 -30 0 -57 8 -40 13 -50 20 -50 38 0 12
-5 25 -10 28 -6 4 -8 11 -4 16 3 6 3 32 -1 59 -6 40 -11 50 -26 50 -14 0 -19
-7 -19 -28z"/>
<path d="M2855 6759 c-9 -14 2 -103 20 -162 l14 -46 -47 -3 c-39 -3 -47 -6
-47 -23 0 -18 6 -20 52 -17 l51 3 13 -55 c9 -42 9 -59 1 -69 -9 -11 -8 -18 7
-31 34 -31 44 -11 38 75 l-6 79 64 0 c45 0 65 4 65 13 0 9 3 8 9 -2 6 -10 10
-10 16 -1 14 23 -16 34 -94 35 l-79 0 -16 57 c-9 32 -16 73 -16 92 0 19 -3 41
-6 50 -7 18 -30 21 -39 5z"/>
<path d="M3980 6736 c0 -7 9 -49 20 -92 10 -43 18 -79 16 -81 -1 -1 -31 -8
-67 -15 -53 -11 -64 -16 -64 -33 0 -14 6 -19 20 -17 11 1 41 5 68 8 l47 7 0
-63 c0 -48 -4 -66 -17 -76 -23 -17 -5 -37 28 -32 22 3 25 9 33 86 10 89 9 89
75 76 28 -6 30 -9 18 -23 -25 -29 -27 -51 -7 -71 25 -25 34 -25 97 4 45 22 53
23 64 10 7 -9 26 -22 43 -31 17 -9 36 -23 42 -31 27 -37 54 12 54 99 l0 38 55
6 c58 8 75 19 56 38 -8 8 -11 7 -11 -2 0 -11 -3 -11 -15 -1 -18 15 -98 8 -120
-10 -10 -8 -15 -30 -15 -61 0 -48 0 -48 -25 -37 -14 6 -32 22 -40 35 -20 29
-33 29 -86 -2 -57 -32 -84 -32 -44 0 17 14 40 25 53 25 23 0 41 25 28 38 -4 3
-26 7 -49 8 -23 1 -72 5 -108 9 l-65 8 -13 70 c-19 100 -30 127 -52 127 -10 0
-19 -6 -19 -14z"/>
<path d="M2490 6634 c0 -14 -2 -16 -9 -6 -6 10 -10 8 -14 -10 -8 -27 14 -53
37 -45 20 8 21 51 1 67 -12 10 -15 9 -15 -6z"/>
<path d="M1835 6565 c-44 -43 -35 -76 39 -135 57 -44 86 -83 74 -95 -2 -3 -18
-10 -36 -18 -46 -19 -91 -10 -102 19 -5 13 -14 24 -19 24 -6 0 -8 -7 -5 -15 4
-9 0 -15 -9 -15 -17 0 -17 -24 0 -41 6 -6 30 -15 53 -19 38 -7 43 -5 48 13 5
19 6 19 19 2 12 -18 15 -18 48 -2 76 36 64 97 -36 174 -55 43 -58 48 -46 67
19 28 33 30 54 7 21 -25 39 -27 47 -5 3 9 -4 25 -19 40 -32 32 -78 32 -110 -1z"/>
<path d="M2089 6556 c-23 -16 -44 -43 -57 -75 -26 -60 -27 -77 -6 -85 15 -6
15 -8 -1 -26 -32 -35 -1 -156 47 -181 33 -18 50 12 46 84 -3 48 0 57 14 57 29
0 77 50 89 92 15 59 -10 125 -57 144 -41 17 -33 18 -75 -10z m75 -48 c9 -12
16 -36 16 -53 0 -58 -51 -100 -65 -54 -4 12 -14 19 -23 17 -13 -3 -17 -16 -19
-58 -3 -90 -5 -97 -15 -50 -11 54 -2 137 18 168 8 12 11 22 7 22 -12 0 40 28
54 29 6 1 19 -9 27 -21z"/>
<path d="M2596 6538 c-9 -12 -16 -30 -16 -39 0 -9 -6 -34 -14 -56 -14 -41 -8
-69 14 -61 7 2 20 28 29 58 l17 55 18 -65 c18 -64 31 -90 46 -90 14 0 21 32
10 45 -6 7 -10 17 -8 21 4 16 -14 74 -22 74 -5 0 -7 6 -4 13 5 14 -31 67 -46
67 -5 0 -16 -10 -24 -22z"/>
<path d="M3761 6542 c-6 -10 -11 -12 -11 -4 0 17 -35 15 -71 -4 -40 -20 -35
-51 11 -81 43 -28 80 -64 80 -79 0 -17 -34 -44 -55 -44 -10 0 -29 10 -42 22
-27 25 -49 13 -39 -20 8 -25 71 -55 100 -48 41 10 76 52 76 89 0 28 -9 42 -45
76 -24 22 -50 41 -57 41 -31 1 27 21 65 23 47 2 58 24 20 38 -17 6 -25 4 -32
-9z"/>
<path d="M2272 6537 c-6 -7 -13 -39 -17 -72 -7 -66 5 -115 30 -115 20 0 40 49
25 64 -11 11 -14 79 -4 89 4 4 19 -2 34 -13 25 -18 29 -18 41 -4 11 14 9 20
-14 40 -30 26 -78 32 -95 11z m8 -87 c0 -5 -2 -10 -4 -10 -3 0 -8 5 -11 10 -3
6 -1 10 4 10 6 0 11 -4 11 -10z"/>
<path d="M2410 6419 c0 -47 2 -50 23 -47 38 5 36 98 -3 98 -17 0 -20 -7 -20
-51z"/>
<path d="M2061 5966 c-7 -8 -10 -20 -6 -26 3 -5 1 -26 -6 -45 -13 -35 -35 -45
-55 -25 -14 14 -73 15 -106 1 -27 -10 -39 -41 -17 -41 7 0 8 -14 4 -40 -4 -23
-2 -63 5 -91 l12 -50 -41 -58 c-22 -32 -38 -61 -34 -65 3 -3 2 -6 -4 -6 -15 0
-37 -56 -29 -75 9 -26 25 -17 47 28 12 23 37 63 56 89 34 46 35 47 58 32 36
-23 88 -3 126 48 34 49 36 77 8 135 l-21 43 22 45 c32 66 17 145 -19 101z
m-68 -162 c-7 -19 -10 -18 -16 5 -3 13 -1 18 9 14 7 -2 10 -11 7 -19z m-46
-31 c11 -22 10 -31 -2 -50 -9 -13 -18 -23 -20 -23 -3 0 -5 23 -5 50 0 56 9 63
27 23z m97 -19 c19 -49 -19 -124 -64 -124 -33 0 -32 19 6 80 39 63 48 70 58
44z"/>
<path d="M4523 5958 c-63 -45 -83 -121 -43 -163 l21 -22 -41 -28 c-53 -37 -62
-71 -26 -101 38 -33 88 -40 141 -19 53 20 57 39 21 101 -26 47 -25 50 24 84
98 65 126 120 74 141 -32 12 -64 3 -64 -17 0 -8 10 -18 22 -23 19 -7 15 -12
-47 -59 -64 -49 -69 -51 -87 -36 -10 10 -18 25 -18 35 0 22 47 79 66 79 20 0
30 30 13 41 -19 12 -20 12 -56 -13z m32 -248 c9 -17 13 -35 10 -40 -8 -13 -76
-13 -95 0 -13 9 -9 15 20 40 19 17 38 30 42 30 4 0 15 -14 23 -30z"/>
<path d="M4178 5953 c-9 -10 -25 -37 -37 -61 -16 -32 -26 -42 -39 -38 -21 7
-76 -25 -97 -57 -9 -14 -19 -41 -22 -61 -5 -32 -1 -40 33 -75 l39 -38 -18 -84
c-20 -95 -19 -134 3 -134 21 0 56 175 38 186 -15 9 -3 14 54 24 95 15 124 104
60 183 l-32 41 22 38 c12 21 28 46 36 55 27 33 -12 53 -40 21z m-87 -174 c-3
-13 -5 -34 -5 -46 -1 -13 -4 -23 -8 -23 -5 0 -8 -10 -8 -22 0 -20 -1 -21 -20
-3 -26 23 -25 65 1 99 25 32 46 29 40 -5z m89 -58 c0 -29 -26 -61 -49 -61 -9
0 -25 8 -36 16 -19 15 -19 15 -1 12 16 -2 22 5 29 37 15 71 16 72 37 45 11
-14 20 -36 20 -49z"/>
<path d="M3205 5904 c-52 -19 -73 -40 -57 -56 9 -9 17 -9 36 1 13 7 38 14 55
16 45 3 62 22 37 41 -23 17 -20 17 -71 -2z"/>
<path d="M4357 5903 c-3 -5 -8 -37 -11 -73 -4 -36 -14 -90 -22 -121 -9 -31
-14 -67 -12 -80 4 -31 38 -39 38 -10 0 12 8 52 19 89 24 87 28 202 7 202 -8 0
-17 -3 -19 -7z"/>
<path d="M2264 5858 c-36 -28 -44 -38 -44 -60 0 -27 28 -22 56 10 l26 27 -24
-45 c-13 -25 -45 -69 -73 -98 -49 -52 -61 -82 -39 -89 6 -2 26 8 43 22 l31 27
0 -31 c0 -39 26 -81 51 -81 25 0 32 15 14 30 -8 7 -15 28 -15 47 0 19 -5 43
-10 54 -9 15 -3 32 30 86 42 70 48 91 28 111 -18 18 -42 15 -74 -10z"/>
<path d="M2864 5861 c-32 -19 -74 -67 -74 -83 0 -23 34 -20 52 6 11 14 33 33
49 42 28 14 29 13 29 -6 0 -30 -38 -115 -82 -185 -41 -65 -44 -77 -25 -92 20
-16 163 32 170 57 6 25 -13 26 -73 5 -55 -20 -55 -20 -31 14 12 16 34 57 51
92 60 128 26 206 -66 150z"/>
<path d="M3780 5859 c-63 -25 -91 -87 -50 -109 27 -15 41 -4 38 28 -2 21 3 28
24 36 58 21 49 -22 -28 -135 -48 -70 -54 -83 -42 -95 12 -13 18 -13 44 1 35
18 55 19 89 3 19 -9 28 -9 37 0 20 20 -19 52 -64 52 l-39 0 24 33 c61 81 75
153 35 181 -26 18 -33 19 -68 5z"/>
<path d="M3066 5834 c-9 -23 9 -50 59 -84 50 -35 56 -59 24 -91 -15 -15 -28
-19 -45 -15 -28 7 -46 -20 -23 -35 40 -25 103 4 125 58 18 42 6 74 -43 110
-28 21 -37 34 -35 51 3 18 -1 22 -26 22 -18 0 -32 -6 -36 -16z"/>
<path d="M4962 5753 c2 -12 12 -18 28 -18 16 0 26 6 28 18 3 13 -3 17 -28 17
-25 0 -31 -4 -28 -17z"/>
<path d="M2455 5610 c-26 -29 -6 -49 30 -30 26 14 33 30 14 30 -5 0 -7 5 -4
10 12 19 -22 10 -40 -10z"/>
<path d="M3353 5623 c-15 -5 -18 -43 -4 -43 5 0 14 7 21 15 14 17 3 35 -17 28z"/>
<path d="M3392 5138 c-17 -17 -14 -72 7 -150 18 -66 18 -68 -1 -74 -26 -8 -58
-62 -58 -99 0 -72 66 -100 116 -50 23 23 25 32 21 78 -2 29 -16 95 -31 146
-32 116 -32 119 -2 114 31 -6 45 16 21 34 -23 16 -57 17 -73 1z m44 -283 c10
-26 -5 -65 -25 -65 -26 0 -34 28 -16 56 18 27 33 31 41 9z"/>
<path d="M2224 5029 c-15 -17 -19 -36 -19 -101 0 -74 -2 -81 -22 -89 -30 -11
-56 -64 -48 -98 9 -41 48 -74 85 -73 63 2 72 31 44 149 -14 61 -16 169 -3 212
7 23 -16 23 -37 0z m4 -277 c2 -30 -1 -42 -10 -42 -34 0 -51 53 -26 78 20 20
33 8 36 -36z"/>
<path d="M3664 4983 c-112 -59 -115 -101 -7 -119 65 -10 73 -20 39 -50 -26
-23 -35 -25 -78 -20 -37 5 -48 4 -48 -7 0 -25 24 -37 72 -37 38 0 54 6 81 30
65 57 50 103 -42 124 l-53 12 56 28 c59 30 64 37 43 54 -10 9 -26 5 -63 -15z"/>
<path d="M4688 4943 c-47 -57 -62 -148 -23 -148 16 0 20 7 21 33 0 17 10 44
21 60 23 29 22 31 42 -44 15 -55 53 -74 100 -50 34 18 42 46 14 47 -11 0 -13
3 -5 6 6 2 10 9 7 13 -8 13 -35 0 -35 -17 0 -8 -7 -13 -16 -11 -11 2 -21 21
-29 50 -6 26 -17 54 -25 62 -17 21 -53 20 -72 -1z"/>
<path d="M4446 4888 c-52 -83 -9 -166 68 -134 19 8 39 23 44 33 10 19 1 56
-17 68 -6 3 -11 14 -11 25 0 35 -62 41 -84 8z m65 -64 c10 -13 10 -17 -2 -25
-25 -15 -39 -10 -39 16 0 28 21 33 41 9z"/>
<path d="M2906 4867 c-56 -74 -55 -155 2 -189 39 -23 128 -34 147 -18 24 20 0
38 -51 38 -44 0 -94 23 -94 42 0 6 8 10 18 10 9 0 32 9 50 20 26 16 32 26 32
53 0 76 -60 102 -104 44z m44 -59 c-26 -21 -45 -24 -33 -5 36 56 37 57 47 40
7 -12 3 -21 -14 -35z"/>
<path d="M3138 4843 c-6 -16 -11 -46 -12 -68 -1 -34 2 -40 19 -40 15 0 21 8
23 30 6 51 20 50 27 -1 10 -63 21 -84 45 -84 21 0 28 34 10 45 -5 3 -10 22
-10 41 0 47 -13 69 -51 88 -40 20 -38 21 -51 -11z"/>
<path d="M1676 4783 c-9 -59 -7 -108 6 -121 17 -17 43 -15 58 3 11 14 16 12
41 -17 22 -27 31 -31 45 -22 27 16 29 35 5 41 -17 4 -21 13 -21 44 0 32 -5 41
-25 51 -18 8 -22 14 -13 19 9 6 7 10 -7 14 -11 4 -28 11 -37 16 -33 17 -45 10
-52 -28z m72 -31 c9 -6 6 -14 -13 -32 -20 -18 -25 -20 -25 -8 0 21 10 48 19
48 3 0 12 -4 19 -8z"/>
<path d="M1941 4775 c-35 -40 -37 -48 -17 -65 15 -12 23 -6 60 45 13 18 15 17
27 -25 6 -25 12 -54 11 -65 -1 -27 18 -48 33 -35 8 6 9 28 4 70 -13 112 -60
141 -118 75z"/>
<path d="M4820 4281 c-5 -11 -10 -43 -10 -71 0 -40 -3 -51 -14 -47 -9 4 -17
-8 -25 -34 -12 -39 -13 -40 -54 -37 -41 3 -42 2 -69 -47 -15 -28 -30 -69 -34
-91 -5 -34 -2 -45 21 -72 l26 -31 -32 -73 c-18 -40 -34 -93 -37 -117 -4 -37
-2 -43 13 -40 11 3 23 24 35 59 9 30 28 80 42 110 22 49 30 57 66 68 83 25
119 115 71 177 l-22 27 33 101 c18 56 34 110 37 120 7 24 -33 23 -47 -2z m-85
-248 c-35 -88 -47 -124 -42 -129 12 -12 47 23 62 63 19 49 32 54 41 18 9 -35
-18 -72 -62 -84 -48 -13 -74 0 -74 38 0 44 21 92 44 101 32 13 39 12 31 -7z
m-88 -99 c-3 -3 -12 -4 -19 -1 -8 3 -5 6 6 6 11 1 17 -2 13 -5z"/>
<path d="M3520 4273 c-36 -8 -71 -17 -77 -19 -18 -5 -16 -31 2 -38 18 -7 76 4
71 13 -2 3 18 7 46 8 l49 3 -48 -42 c-51 -44 -63 -80 -28 -86 40 -8 91 -75 79
-106 -11 -28 -115 -49 -129 -26 -3 6 -15 10 -26 10 -37 0 -19 -42 23 -58 32
-12 45 -13 83 -2 66 18 95 44 94 83 -1 43 -8 59 -47 102 l-34 37 47 44 c60 58
60 88 0 91 -22 1 -69 -5 -105 -14z"/>
<path d="M2342 4230 c-21 -38 -33 -50 -52 -50 -14 -1 -41 -9 -60 -18 -57 -28
-87 -140 -59 -221 10 -28 8 -35 -16 -66 -35 -46 -63 -114 -62 -145 3 -42 27
-28 51 31 12 31 33 72 45 92 20 32 25 35 47 27 54 -21 154 28 154 75 0 26 -21
70 -47 97 -24 25 -25 29 -13 60 7 18 28 59 47 90 19 32 32 62 28 68 -14 22
-36 8 -63 -40z m-52 -110 c0 -5 -5 -9 -12 -7 -6 1 -14 -11 -18 -28 -13 -61
-60 -125 -60 -82 0 27 23 93 38 110 16 18 52 23 52 7z m50 -155 c0 -28 -26
-45 -69 -45 -38 0 -38 9 -3 71 l27 50 23 -26 c12 -14 22 -37 22 -50z"/>
<path d="M3282 4251 c-8 -5 -11 -17 -7 -33 4 -14 1 -54 -5 -89 -8 -45 -9 -64
-1 -67 6 -2 11 -8 11 -13 0 -6 -4 -7 -10 -4 -12 8 -18 -22 -23 -117 -3 -62 -1
-78 11 -83 26 -10 32 8 37 120 5 112 9 147 23 187 13 36 3 108 -15 108 -4 0
-14 -4 -21 -9z"/>
<path d="M2560 4210 c-30 -9 -55 -23 -54 -29 2 -25 5 -29 27 -35 14 -3 26 0
33 10 7 8 29 17 50 20 l39 6 -41 -26 c-23 -14 -45 -33 -48 -42 -10 -25 13 -45
48 -42 18 1 37 -1 43 -5 22 -14 27 -77 10 -113 -19 -38 -34 -37 -80 4 -26 25
-28 25 -45 8 -16 -17 -15 -19 17 -46 37 -31 79 -45 109 -36 27 9 52 70 52 128
0 45 -4 54 -34 82 l-33 32 33 22 c41 27 45 58 8 72 -35 14 -69 11 -134 -10z"/>
<path d="M5165 4185 c-32 -42 -59 -138 -49 -174 12 -41 11 -44 -13 -93 -38
-79 -23 -170 31 -184 46 -11 83 20 122 104 29 63 30 87 5 128 -18 29 -18 34
-4 54 38 54 34 131 -9 177 -30 32 -52 29 -83 -12z m69 -41 c19 -49 -4 -109
-47 -123 l-30 -11 6 51 c9 78 53 129 71 83z m-4 -209 c16 -42 -39 -155 -76
-155 -23 0 -36 47 -24 84 29 88 80 124 100 71z"/>
<path d="M4394 4164 c-44 -29 -93 -83 -94 -102 0 -31 32 -23 66 17 37 42 71
67 81 57 9 -8 -86 -186 -123 -232 -35 -42 -45 -84 -20 -84 15 0 76 64 76 80 0
6 7 10 15 10 8 0 26 -22 40 -50 27 -53 63 -84 91 -78 28 5 28 27 -1 40 -15 7
-37 32 -51 60 -13 26 -33 53 -43 60 -19 11 -18 14 13 77 48 96 61 138 46 156
-18 22 -52 18 -96 -11z"/>
<path d="M5015 4153 c-19 -47 -64 -277 -59 -299 4 -15 13 -24 25 -24 15 0 19
7 19 38 0 47 37 218 56 256 12 24 12 31 2 37 -21 13 -35 10 -43 -8z"/>
<path d="M2820 3921 c-14 -27 -13 -48 5 -54 17 -7 55 41 48 61 -7 19 -41 14
-53 -7z"/>
<path d="M3814 3905 c-8 -21 10 -39 30 -32 22 9 20 24 -4 37 -16 9 -22 8 -26
-5z"/>
<path d="M6971 3321 c-21 -21 -62 -123 -64 -161 -1 -14 -5 -27 -8 -30 -3 -3
-16 -31 -29 -63 -13 -34 -35 -67 -51 -80 -33 -24 -39 -57 -10 -57 22 0 72 54
92 98 10 23 24 34 55 42 42 12 98 5 75 -9 -7 -5 -11 -33 -10 -74 1 -58 4 -67
20 -67 17 0 19 9 19 89 0 82 2 89 21 94 18 5 20 11 15 34 -4 15 -14 33 -22 39
-7 6 -18 34 -24 62 -16 86 -45 117 -79 83z m48 -162 c1 -23 -5 -28 -40 -37
l-41 -10 5 27 c3 14 16 53 28 86 l23 60 12 -50 c7 -27 13 -62 13 -76z m-89 11
c0 -5 -5 -10 -11 -10 -5 0 -7 5 -4 10 3 6 8 10 11 10 2 0 4 -4 4 -10z"/>
<path d="M5966 3253 c3 -21 6 -40 6 -43 -1 -127 -1 -130 -26 -130 -14 0 -28
-5 -31 -10 -10 -16 15 -40 41 -40 17 0 24 -6 24 -20 0 -36 41 -129 65 -148 42
-33 106 -2 89 42 -8 20 -13 20 -36 -1 -13 -12 -21 -14 -30 -5 -13 13 -49 115
-42 121 2 2 21 4 42 3 43 -2 79 18 67 37 -5 8 -18 11 -37 7 -17 -3 -41 -3 -54
0 -23 6 -24 10 -24 89 0 98 -11 135 -40 135 -19 0 -20 -4 -14 -37z"/>
<path d="M1576 3221 c-17 -18 -25 -34 -21 -42 5 -7 4 -10 -2 -6 -11 7 -37 -46
-53 -111 -12 -48 -2 -146 23 -217 l14 -40 -61 -16 c-39 -10 -61 -20 -61 -30 0
-16 38 -24 63 -13 9 3 32 8 50 11 24 3 32 0 32 -12 0 -9 4 -14 8 -11 5 3 5
-20 1 -51 -6 -43 -15 -63 -40 -89 -26 -26 -30 -37 -21 -46 18 -18 63 19 91 77
21 43 22 55 13 95 -6 25 -9 47 -7 49 2 2 19 6 37 10 40 8 44 35 6 39 -19 2
-28 -2 -31 -15 -4 -17 -5 -17 -6 1 -1 11 -6 16 -15 13 -15 -6 -27 17 -45 88
-23 88 -6 202 41 268 16 22 24 26 45 21 22 -6 25 -4 20 10 -4 10 -3 15 3 11 6
-3 10 -2 10 3 0 8 -43 32 -59 32 -4 0 -20 -13 -35 -29z"/>
<path d="M4871 3126 c-6 -7 -16 -40 -22 -72 -13 -75 -40 -164 -50 -164 -4 0
-19 38 -34 85 -29 92 -38 103 -60 85 -25 -21 -16 -208 9 -193 6 4 5 -1 -3 -10
-7 -9 -14 -40 -15 -69 -1 -47 1 -53 19 -53 22 0 22 1 25 105 1 45 4 59 9 45 5
-11 18 -28 29 -38 34 -31 58 -8 87 84 14 44 25 93 25 109 0 45 18 45 31 0 7
-22 16 -40 21 -40 5 0 7 -4 3 -9 -11 -19 13 -173 29 -190 15 -14 18 -14 26 -1
5 8 7 23 4 32 -3 10 -9 48 -14 85 -14 116 -32 174 -64 206 -21 21 -40 22 -55
3z"/>
<path d="M6550 3113 c-33 -6 -50 -21 -43 -39 6 -15 39 -19 47 -6 3 5 18 7 34
4 17 -2 33 2 41 12 26 31 -6 42 -79 29z"/>
<path d="M3649 3044 c-11 -14 -10 -18 6 -30 38 -28 70 -7 39 27 -21 23 -28 24
-45 3z"/>
<path d="M5371 3020 c-13 -3 -33 -18 -45 -33 -19 -26 -19 -28 -2 -45 14 -13
20 -14 23 -4 8 22 34 42 54 42 17 0 15 -4 -13 -27 -18 -16 -41 -37 -51 -48
-54 -62 -42 -78 65 -86 87 -7 110 0 88 26 -9 10 -31 15 -74 15 l-61 1 37 34
c21 19 34 35 30 35 -4 1 12 10 36 21 56 26 58 56 5 64 -21 3 -45 7 -53 9 -8 1
-26 0 -39 -4z"/>
<path d="M5581 3003 c-48 -60 -29 -118 36 -111 20 3 34 -1 37 -9 7 -18 56 -17
56 1 0 8 -10 33 -22 55 -25 47 -54 54 -64 16 -3 -14 -10 -25 -15 -25 -15 0
-10 26 11 53 11 14 20 30 20 36 0 21 -39 11 -59 -16z"/>
<path d="M5720 2984 c-19 -22 -1 -68 28 -72 18 -3 22 1 22 22 0 23 3 25 29 20
20 -4 30 -1 34 10 13 33 -88 51 -113 20z"/>
<path d="M5117 2964 c-44 -44 -46 -138 -3 -166 40 -27 98 18 98 75 0 40 -37
117 -56 117 -7 0 -25 -12 -39 -26z m53 -90 c0 -23 -22 -48 -33 -37 -9 8 -9 56
0 79 6 16 7 16 20 -2 7 -10 13 -28 13 -40z"/>
<path d="M3823 2947 c-26 -11 -63 -81 -63 -118 0 -31 33 -84 60 -99 28 -15
122 -15 150 0 26 14 22 46 -5 42 -72 -12 -88 -14 -111 -8 -52 13 -62 105 -15
139 41 29 28 64 -16 44z"/>
<path d="M3420 2922 c-45 -46 -55 -99 -36 -206 9 -50 18 -98 21 -106 2 -8 4
-21 4 -27 1 -14 37 -18 45 -5 3 5 -1 33 -9 63 -8 30 -15 55 -15 57 0 1 6 2 13
2 17 0 71 57 91 98 54 106 -35 203 -114 124z m78 -24 c17 -17 15 -43 -7 -87
-27 -52 -45 -66 -61 -46 -18 22 -6 92 21 121 26 27 30 29 47 12z"/>
<path d="M3626 2883 c-8 -49 -8 -117 0 -137 3 -9 14 -16 24 -16 15 0 17 11 16
92 -1 77 -4 93 -17 96 -12 2 -18 -7 -23 -35z"/>
<path d="M3168 2863 c-20 -21 -41 -48 -47 -60 -7 -13 -18 -23 -25 -23 -8 0
-19 -7 -26 -16 -11 -13 -10 -19 7 -37 12 -12 35 -37 52 -55 27 -29 36 -33 69
-29 52 6 103 33 96 52 -4 8 -9 15 -14 15 -18 0 -70 -23 -70 -31 0 -14 -57 18
-63 34 -4 10 12 26 42 46 60 39 74 54 74 88 0 25 -25 53 -48 53 -6 0 -27 -17
-47 -37z m36 -38 c-9 -14 -19 -23 -22 -20 -5 4 26 45 35 45 2 0 -4 -11 -13
-25z"/>
<path d="M4230 2886 c-5 -5 -10 -16 -10 -24 0 -12 10 -14 49 -9 34 4 54 1 70
-9 23 -16 46 -8 46 16 0 8 -9 21 -20 27 -24 15 -120 14 -135 -1z"/>
<path d="M2126 2839 c-14 -17 -26 -34 -26 -39 0 -5 -10 -10 -22 -12 -21 -3
-23 -9 -26 -64 -2 -45 1 -64 12 -73 22 -19 31 -8 50 56 9 32 23 69 30 83 13
23 14 21 9 -33 -4 -51 -3 -57 14 -57 15 0 16 -2 3 -10 -21 -14 0 -45 31 -45
17 0 26 8 34 30 5 17 16 36 22 43 7 7 13 21 13 30 0 15 2 15 10 2 5 -8 10 -27
10 -41 0 -30 35 -79 55 -79 23 0 28 20 11 39 -9 10 -21 47 -27 82 -14 89 -18
99 -39 99 -14 0 -29 -21 -55 -75 -19 -41 -36 -75 -38 -75 -1 0 -2 37 -2 81 0
76 -1 82 -22 85 -14 3 -30 -6 -47 -27z"/>
<path d="M1744 2850 c-33 -13 -48 -62 -41 -133 7 -74 15 -97 32 -97 23 0 26
18 15 77 -15 74 -2 113 35 113 27 0 33 18 13 38 -14 14 -24 14 -54 2z"/>
<path d="M1890 2793 c-27 -10 -40 -36 -40 -85 0 -57 24 -88 70 -88 41 0 80 39
80 79 0 23 -9 37 -37 58 -21 15 -39 31 -41 36 -4 8 -10 8 -32 0z m54 -82 c16
-17 16 -20 1 -35 -9 -9 -20 -16 -24 -16 -15 0 -31 25 -31 47 0 29 30 31 54 4z"/>
<path d="M3903 2550 c-3 -11 -9 -17 -14 -14 -13 7 -42 -64 -36 -88 3 -10 1
-16 -4 -12 -5 3 -9 -20 -9 -50 0 -31 3 -56 8 -56 4 0 8 -22 9 -49 l2 -49 -47
-17 c-26 -9 -53 -18 -59 -21 -16 -4 -17 -30 -3 -39 6 -4 35 3 65 14 30 11 56
17 59 12 10 -16 23 -90 17 -96 -3 -4 -6 -10 -6 -13 -2 -22 -18 -51 -30 -56
-20 -7 -19 -32 1 -40 53 -20 105 143 57 174 -14 9 -14 10 -2 7 12 -4 15 0 11
19 -3 18 0 24 14 24 11 0 25 4 33 9 22 14 -6 43 -38 39 -21 -3 -27 2 -32 27
-13 57 -9 175 6 211 12 30 18 34 40 28 29 -7 45 17 25 41 -18 22 -61 19 -67
-5z m-23 -260 c0 -5 -2 -10 -4 -10 -3 0 -8 5 -11 10 -3 6 -1 10 4 10 6 0 11
-4 11 -10z"/>
<path d="M7133 2428 c-24 -12 -76 -105 -67 -119 9 -15 -6 -10 -23 7 -12 11
-18 12 -23 4 -11 -17 -10 -119 1 -125 5 -3 8 -49 8 -101 0 -97 9 -128 37 -117
11 4 14 26 14 89 l0 84 29 0 c41 0 88 43 102 93 14 53 3 139 -22 171 -23 29
-25 29 -56 14z m37 -126 c0 -54 -4 -66 -25 -88 -27 -27 -61 -28 -59 -2 1 11
-4 15 -15 11 -14 -4 -14 -3 1 6 9 6 24 35 32 64 8 28 23 63 32 76 23 32 34 12
34 -67z"/>
<path d="M2416 2363 c-14 -15 -4 -44 19 -55 33 -15 55 2 35 27 -18 21 -46 36
-54 28z"/>
<path d="M6763 2350 c-22 -9 -63 -76 -63 -104 0 -8 -9 -24 -21 -35 -20 -18
-19 -41 1 -41 5 0 22 -13 38 -30 25 -24 39 -30 74 -30 64 0 119 18 125 41 3
10 12 19 19 19 16 0 19 26 3 35 -16 11 -59 -4 -59 -20 0 -18 -74 -39 -109 -30
-25 7 -26 7 -4 15 30 12 104 66 120 89 18 27 2 66 -36 86 -33 17 -55 18 -88 5z
m76 -53 c11 -14 -6 -35 -59 -70 -44 -30 -51 -16 -25 47 13 29 20 36 44 36 16
0 34 -6 40 -13z"/>
<path d="M5293 2334 c-18 -8 -33 -18 -33 -24 0 -5 20 -32 45 -60 50 -57 55
-84 29 -150 -22 -55 -44 -53 -44 5 0 38 -3 45 -20 45 -24 0 -36 -53 -21 -93
12 -30 51 -53 75 -44 39 15 79 126 65 185 -4 19 -19 46 -33 61 -32 34 -32 39
0 51 14 6 24 16 22 23 -6 17 -48 18 -85 1z"/>
<path d="M6049 2295 c-14 -8 -32 -29 -40 -47 -7 -18 -19 -37 -26 -41 -21 -13
-15 -30 20 -58 51 -41 96 -60 130 -57 28 3 32 7 32 33 0 26 -3 30 -25 27 -68
-7 -75 -7 -78 10 -2 10 5 19 18 23 12 4 28 22 37 40 15 31 15 36 -1 59 -19 29
-30 31 -67 11z m21 -60 c-7 -9 -15 -13 -18 -10 -3 2 1 11 8 20 7 9 15 13 18
10 3 -2 -1 -11 -8 -20z"/>
<path d="M1639 2283 c-10 -11 -15 -55 -17 -150 -4 -128 -3 -133 16 -133 22 0
36 32 48 109 l7 43 13 -31 c22 -51 46 -41 67 29 9 33 22 60 27 60 15 0 49 -60
56 -98 7 -35 32 -56 53 -42 11 6 11 13 0 41 -32 76 -56 114 -82 133 -33 24
-54 16 -79 -33 l-16 -32 -7 30 c-6 29 -51 91 -66 91 -4 0 -13 -7 -20 -17z"/>
<path d="M2573 2290 c-32 -13 -53 -61 -53 -121 0 -45 4 -55 34 -85 27 -27 42
-34 73 -34 66 0 80 8 87 48 7 45 -3 56 -38 42 -22 -8 -27 -15 -23 -31 5 -19 3
-21 -26 -15 -62 12 -89 87 -48 137 17 22 19 22 35 6 31 -31 55 -13 35 25 -20
38 -36 44 -76 28z"/>
<path d="M5814 2266 c-22 -22 -41 -33 -51 -29 -8 3 -18 0 -23 -7 -11 -17 -12
-114 -1 -160 5 -21 5 -42 1 -47 -13 -14 -23 -170 -11 -177 32 -20 71 58 71
144 0 24 4 30 21 30 56 0 99 67 107 166 4 57 2 65 -21 88 -35 34 -52 33 -93
-8z m71 -37 c13 -39 -19 -142 -49 -161 -6 -4 -18 0 -27 8 -13 12 -15 23 -8 59
17 93 67 148 84 94z"/>
<path d="M6230 2275 c-21 -25 -17 -135 5 -135 22 0 35 33 28 75 l-6 38 41 -6
c24 -3 42 -1 42 5 0 5 5 6 10 3 6 -3 10 0 10 8 0 19 -22 27 -75 27 -25 0 -47
-6 -55 -15z"/>
<path d="M4037 2250 c-27 -31 -52 -118 -46 -159 5 -31 34 -50 51 -33 10 10 10
17 1 31 -8 13 -9 31 -2 61 16 69 26 82 60 75 24 -5 29 -3 29 12 0 49 -56 57
-93 13z"/>
<path d="M4582 2273 c-7 -3 -28 -25 -46 -49 l-33 -43 -16 39 c-32 81 -91 37
-101 -75 -7 -75 1 -99 30 -93 16 3 19 11 16 53 -1 28 1 63 6 80 l8 30 12 -46
c11 -45 36 -78 49 -66 3 4 20 28 37 54 17 25 36 47 41 46 6 0 13 -24 18 -53 8
-56 21 -80 42 -80 15 0 28 27 16 35 -5 2 -12 30 -16 61 -10 86 -29 118 -63
107z"/>
<path d="M2210 2240 c-31 -31 -25 -65 21 -115 35 -38 39 -47 29 -60 -7 -8 -24
-14 -39 -13 -20 2 -27 -2 -29 -19 -8 -54 93 -31 124 28 l15 31 -45 42 c-47 42
-55 63 -35 83 13 13 5 43 -11 43 -5 0 -19 -9 -30 -20z"/>
<path d="M2368 2229 c-7 -20 11 -142 23 -166 7 -13 21 -23 32 -23 16 0 18 5
12 28 -3 15 -12 58 -19 97 -8 50 -16 71 -28 73 -9 2 -18 -2 -20 -9z"/>
<path d="M3125 2227 c-110 -17 -137 -27 -133 -45 4 -19 12 -19 122 -3 93 14
108 20 104 39 -4 21 -17 22 -93 9z m79 -12 c-4 -8 -8 -15 -10 -15 -2 0 -4 7
-4 15 0 8 4 15 10 15 5 0 7 -7 4 -15z"/>
<path d="M5516 2221 c-36 -39 -39 -126 -6 -166 25 -30 118 -10 106 22 -5 11
-2 13 9 9 30 -11 62 112 34 130 -16 10 -32 -11 -34 -45 -4 -49 -31 -83 -63
-79 -22 2 -28 9 -30 36 -2 19 4 44 13 59 16 24 14 53 -3 53 -5 0 -16 -8 -26
-19z"/>
<path d="M4181 2201 c-20 -37 -30 -102 -19 -132 13 -37 39 -52 81 -44 104 20
109 123 8 175 -49 25 -58 25 -70 1z m79 -61 c26 -26 25 -45 -2 -64 -40 -28
-73 14 -52 68 8 22 30 20 54 -4z"/>
<path d="M1967 2183 c-14 -13 -7 -99 11 -133 14 -28 23 -35 52 -36 22 -2 45 5
60 16 22 16 23 20 10 37 -14 16 -14 17 2 5 15 -12 18 -11 24 13 8 32 -16 100
-36 100 -12 0 -14 -12 -12 -51 3 -44 0 -54 -19 -67 -32 -23 -47 -11 -54 41
-11 79 -19 95 -38 75z"/>
<path d="M6582 1953 c-10 -21 -40 -74 -65 -118 -26 -44 -47 -85 -47 -91 0 -6
-7 -17 -15 -24 -31 -26 -119 -194 -118 -225 2 -27 1 -28 -5 -6 -7 21 -14 13
-59 -73 -28 -53 -66 -130 -84 -171 -32 -73 -32 -75 -13 -90 18 -13 18 -14 -3
-8 -18 4 -23 1 -23 -15 0 -29 29 -36 39 -9 5 12 19 49 31 82 24 65 71 167 81
175 3 3 14 21 24 40 20 39 116 206 152 262 12 21 23 44 23 52 0 8 6 19 13 23
8 4 31 39 53 76 21 38 45 78 52 90 6 12 11 31 10 41 -5 34 -26 29 -46 -11z"/>
<path d="M5394 1786 c-15 -12 -17 -17 -6 -27 6 -7 12 -22 12 -34 0 -12 6 -27
13 -34 10 -11 9 -12 -2 -6 -12 7 -13 0 -7 -36 4 -24 9 -54 13 -66 3 -15 1 -23
-8 -24 -8 0 -50 -6 -94 -12 -69 -11 -80 -15 -80 -32 0 -22 10 -23 126 -10 l65
8 12 -90 c7 -50 12 -102 12 -117 0 -19 5 -26 20 -26 17 0 20 7 20 45 0 36 -3
45 -17 45 -15 0 -15 2 -4 9 11 7 12 24 7 74 l-6 64 52 6 c58 7 79 20 60 39
-10 10 -17 10 -32 0 -23 -14 -33 -16 -26 -3 3 5 -9 7 -27 4 l-33 -4 -12 64
c-7 35 -12 85 -12 109 0 54 -17 75 -46 54z"/>
<path d="M3644 1758 c-4 -7 -9 -21 -10 -32 -1 -12 -7 -64 -13 -116 -6 -52 -11
-98 -11 -102 0 -5 -36 -8 -79 -8 -82 0 -96 -5 -81 -30 6 -10 31 -14 89 -14
l80 0 6 -38 c4 -21 11 -38 16 -38 4 0 6 -6 3 -14 -6 -15 56 -101 70 -97 5 2
13 -4 18 -12 10 -19 60 -31 88 -22 11 3 20 15 20 26 0 15 -7 19 -38 19 -21 0
-48 7 -60 16 -33 23 -69 84 -74 126 -4 39 7 47 57 48 11 0 35 9 53 20 29 18
32 23 21 36 -12 14 -14 14 -26 -2 -12 -17 -18 -12 -13 11 1 5 -7 2 -18 -8 -10
-9 -33 -17 -50 -17 -31 0 -32 1 -32 48 0 26 7 78 15 115 8 37 12 74 8 82 -6
18 -29 20 -39 3z"/>
<path d="M2266 1735 c-21 -21 -36 -51 -75 -148 -17 -43 -37 -87 -44 -98 -13
-18 -14 -18 -25 6 -6 14 -15 25 -19 25 -5 0 -9 26 -10 58 -3 65 -24 154 -38
159 -27 8 -39 -19 -45 -104 -4 -48 -3 -92 1 -97 5 -5 6 -50 2 -99 -5 -69 -3
-88 6 -83 7 4 9 17 6 29 -5 20 -5 20 5 4 9 -14 9 -22 -2 -35 -20 -23 -42 -194
-26 -203 39 -24 47 18 49 251 1 158 2 171 13 130 24 -84 49 -118 75 -97 8 7
17 10 20 7 7 -6 61 99 104 199 15 35 30 62 33 58 17 -17 35 -149 41 -294 3
-89 9 -167 13 -174 5 -6 14 -9 22 -6 31 11 2 419 -35 496 -15 31 -48 38 -71
16z"/>
<path d="M5837 1589 c-29 -24 -37 -38 -37 -63 0 -36 13 -50 103 -110 68 -46
95 -87 71 -107 -22 -18 -66 0 -82 34 -9 18 -20 27 -30 25 -26 -5 -16 -49 19
-80 53 -50 149 -30 149 31 0 44 -39 92 -118 144 -39 27 -72 55 -72 62 0 8 20
26 45 41 25 14 45 32 45 40 0 25 -53 16 -93 -17z"/>
<path d="M4304 1585 c-44 -18 -56 -42 -39 -76 19 -35 84 -91 97 -83 6 4 8 3 5
-3 -4 -6 11 -23 33 -38 55 -38 60 -62 21 -97 -35 -32 -94 -38 -127 -14 -19 15
-19 15 0 29 10 8 16 19 12 25 -11 18 -41 14 -61 -8 -15 -16 -16 -25 -7 -45 39
-85 193 -77 245 13 28 48 11 79 -84 152 -120 93 -121 114 -6 113 37 -1 50 3
58 18 5 10 6 20 2 20 -54 8 -124 5 -149 -6z"/>
<path d="M4808 1520 c-16 -16 -34 -30 -39 -30 -21 0 -28 -50 -16 -122 10 -62
15 -73 32 -73 16 0 20 7 20 30 0 44 16 137 27 158 5 9 15 17 23 17 15 0 20
-19 34 -143 7 -57 15 -84 29 -97 29 -27 44 -7 26 36 -8 18 -14 42 -14 53 0 11
-6 22 -12 24 -10 4 -10 8 1 15 12 8 12 20 3 68 -20 96 -59 119 -114 64z"/>
<path d="M6613 1538 c-16 -20 -35 -88 -30 -103 3 -7 -1 -19 -9 -25 -18 -16
-19 -86 -1 -93 22 -8 34 5 55 58 20 50 20 50 30 23 14 -34 27 -41 52 -28 23
12 71 80 65 91 -3 4 3 10 12 14 10 3 19 2 21 -4 7 -21 48 -75 64 -85 13 -8 21
-7 29 1 9 9 4 21 -20 50 -17 20 -31 45 -31 54 0 26 -35 63 -53 56 -9 -3 -34
-34 -56 -69 -22 -35 -41 -61 -41 -58 -1 3 -3 22 -5 43 -5 44 -11 57 -30 57 -7
0 -15 7 -19 15 -7 18 -20 19 -33 3z"/>
<path d="M6974 1529 c-13 -22 -6 -94 13 -135 20 -42 62 -69 93 -59 23 7 65 76
75 122 7 36 -8 73 -30 73 -11 0 -15 -11 -15 -37 0 -46 -29 -107 -52 -111 -23
-4 -40 31 -47 97 -6 53 -22 74 -37 50z"/>
<path d="M2788 1505 c-7 -7 -33 -13 -66 -14 -12 -1 -25 -8 -29 -17 -11 -29 11
-35 77 -20 35 8 76 12 91 9 27 -5 28 -6 14 -32 -7 -15 -40 -52 -72 -82 -106
-99 -128 -153 -71 -173 42 -15 195 20 221 51 11 12 30 23 41 23 12 0 38 9 58
20 l37 19 7 -21 c3 -11 19 -34 35 -49 25 -25 32 -27 54 -17 27 12 24 25 -9 37
-12 5 -28 21 -36 35 -11 22 -12 33 -1 62 21 57 0 66 -47 22 -46 -45 -94 -72
-103 -57 -10 16 66 86 102 94 42 9 66 32 51 47 -14 14 -84 -5 -124 -34 -28
-19 -78 -95 -78 -116 0 -25 -41 -51 -98 -62 -102 -20 -106 -12 -31 61 107 104
141 168 105 198 -17 14 -118 27 -128 16z"/>
<path d="M2450 1480 c-15 -15 -20 -29 -16 -51 2 -16 1 -27 -4 -24 -11 7 -11
-84 1 -129 13 -49 68 -106 106 -110 63 -7 117 42 129 116 13 75 -62 139 -163
140 l-41 0 16 28 c13 22 14 32 5 41 -8 8 -16 6 -33 -11z m135 -124 c41 -27 48
-60 25 -107 -18 -33 -25 -39 -53 -39 -52 0 -80 37 -85 112 l-5 61 47 -5 c25
-3 57 -13 71 -22z m-135 -56 c0 -5 -2 -10 -4 -10 -3 0 -8 5 -11 10 -3 6 -1 10
4 10 6 0 11 -4 11 -10z"/>
<path d="M4584 1476 c-66 -31 -85 -70 -60 -122 10 -23 29 -40 51 -50 38 -16
75 -19 75 -6 0 13 -32 39 -57 46 -27 9 -40 50 -23 71 10 13 16 13 39 0 43 -21
57 -43 43 -65 -8 -13 -8 -22 2 -35 12 -17 14 -17 34 3 12 12 22 33 22 46 0 24
-41 76 -60 76 -6 0 -8 10 -4 24 8 35 -6 38 -62 12z"/>
<path d="M5031 1474 c-25 -32 -37 -104 -22 -133 19 -35 59 -24 119 32 l32 31
0 -31 c0 -57 33 -113 66 -113 26 0 27 29 3 49 -21 17 -24 28 -25 95 0 47 -5
81 -13 89 -13 13 -10 15 -89 -82 -31 -39 -62 -54 -62 -31 0 6 6 26 14 45 11
25 21 34 43 37 17 2 29 10 31 21 3 14 -4 17 -37 17 -31 0 -44 -6 -60 -26z"/>
<path d="M5560 1462 c-15 -16 -34 -47 -41 -70 -10 -35 -10 -45 5 -67 22 -33
44 -32 94 5 36 26 42 27 42 12 0 -29 29 -62 56 -62 29 0 31 20 4 45 -15 14
-20 31 -20 70 0 45 -3 54 -30 73 -40 30 -76 28 -110 -6z m78 -20 c10 -7 7 -15
-10 -38 -25 -32 -49 -53 -60 -54 -17 0 -6 40 18 69 28 33 32 35 52 23z"/>
<path d="M3312 1427 c-15 -17 -17 -53 -8 -114 9 -56 26 -79 51 -69 20 7 20 65
0 72 -10 4 -15 20 -15 45 0 42 5 45 45 27 20 -9 28 -9 38 1 9 10 7 16 -12 32
-26 22 -83 25 -99 6z"/>
<path d="M9802 11223 c1054 -2 2782 -2 3840 0 1058 1 195 2 -1917 2 -2112 0
-2977 -1 -1923 -2z"/>
<path d="M13371 10996 c-24 -28 1 -37 108 -40 56 -2 103 -5 106 -8 2 -2 -16
-49 -41 -104 -56 -121 -86 -203 -78 -215 3 -5 12 -9 20 -9 14 0 22 12 28 42 4
17 15 44 71 162 25 55 44 105 41 113 -4 10 22 13 132 14 75 1 151 0 168 -1 35
-1 64 23 42 36 -18 11 -92 4 -100 -9 -5 -8 -8 -8 -8 -1 0 7 -64 13 -192 18
-106 3 -213 9 -238 12 -36 5 -49 2 -59 -10z"/>
<path d="M7514 10986 c-7 -19 13 -56 30 -56 19 0 25 20 15 48 -9 25 -37 30
-45 8z"/>
<path d="M7903 10929 c-33 -10 -83 -61 -83 -85 0 -8 -6 -14 -14 -14 -25 0 -29
-21 -8 -43 10 -12 22 -34 26 -50 4 -16 23 -39 48 -57 58 -43 99 -40 176 10 34
22 62 42 62 45 0 4 -5 15 -10 26 -14 24 -36 25 -43 0 -7 -28 -86 -71 -119 -64
-29 5 -78 45 -78 62 0 5 14 12 31 16 17 4 49 23 70 42 46 42 52 83 17 107 -25
18 -30 18 -75 5z m47 -58 c-20 -39 -90 -70 -90 -41 0 19 52 60 77 60 20 0 22
-3 13 -19z"/>
<path d="M7642 10855 c-11 -14 -26 -24 -32 -23 -15 4 -25 -15 -38 -72 -9 -35
-8 -48 3 -59 11 -11 15 -10 27 10 8 13 29 47 46 74 36 56 32 62 36 -53 2 -45
23 -76 43 -64 17 11 -8 190 -28 203 -23 14 -36 11 -57 -16z"/>
<path d="M9676 10864 c-40 -40 -39 -78 4 -151 11 -19 20 -44 20 -55 0 -20 -1
-20 -19 -4 -22 20 -41 14 -41 -13 0 -25 19 -38 56 -39 24 0 34 5 43 25 13 29
9 49 -27 119 -27 54 -25 82 6 91 10 2 18 13 19 24 2 24 -38 26 -61 3z"/>
<path d="M7485 10860 c-7 -11 -9 -22 -20 -101 -8 -61 2 -99 25 -99 16 0 19 9
19 68 0 38 5 81 11 96 5 15 10 32 10 37 0 12 -37 12 -45 -1z"/>
<path d="M11381 10839 c-41 -40 -39 -70 5 -118 35 -39 35 -40 13 -51 -11 -7
-32 -10 -45 -7 -33 6 -50 -16 -29 -37 21 -20 34 -20 85 0 35 14 60 38 60 58 0
3 -16 24 -36 46 -42 46 -42 85 1 96 16 4 25 13 25 25 0 30 -44 24 -79 -12z"/>
<path d="M9427 10818 c-39 -52 -57 -94 -57 -133 0 -28 5 -38 24 -47 20 -9 32
-7 65 11 41 21 41 21 41 1 0 -23 22 -35 46 -26 11 4 12 10 6 22 -6 11 -4 33 6
65 13 40 13 52 3 62 -10 10 -17 7 -34 -13 -28 -32 -92 -80 -106 -80 -16 0 -13
16 10 61 19 38 21 39 33 23 13 -17 15 -17 40 -1 29 19 30 24 16 61 -15 39 -62
36 -93 -6z"/>
<path d="M11104 10838 c-5 -7 -18 -31 -29 -53 -11 -22 -48 -68 -82 -102 -41
-41 -61 -68 -57 -78 10 -24 25 -18 76 32 42 41 48 44 48 25 0 -21 26 -42 51
-42 7 0 29 19 51 42 30 33 38 37 38 22 0 -25 18 -44 43 -44 16 0 18 4 12 23
-11 29 -11 86 -1 118 6 20 4 28 -8 32 -17 7 -45 -18 -67 -60 -19 -36 -73 -87
-77 -73 -2 6 6 39 19 74 21 60 21 96 1 96 -5 0 -14 -6 -18 -12z"/>
<path d="M10303 10808 c-35 -39 -46 -67 -32 -84 15 -18 39 -18 67 2 21 14 22
14 22 -11 0 -37 25 -92 48 -104 26 -14 62 -14 62 -1 0 5 7 7 15 4 19 -8 33 25
15 36 -7 5 -24 3 -36 -2 -38 -18 -54 4 -54 73 0 85 -12 109 -53 109 -22 0 -41
-8 -54 -22z"/>
<path d="M11605 10813 c-53 -13 -82 -68 -61 -116 19 -46 42 -61 97 -63 42 -1
49 2 49 17 0 13 -7 19 -24 19 -35 0 -78 18 -74 31 2 6 20 17 41 24 62 21 83
49 54 73 -16 14 -57 21 -82 15z"/>
<path d="M11842 10785 c-31 -26 -77 -119 -67 -135 14 -23 35 -7 58 44 28 62
52 79 96 70 26 -6 31 -4 31 14 0 39 -74 44 -118 7z"/>
<path d="M12503 10608 c-7 -13 -9 -18 -11 -50 -2 -17 -120 -18 -2309 -20
l-2308 -3 2303 -2 c2215 -3 2302 -4 2293 -21 -5 -10 -6 -24 -2 -30 11 -19 40
-3 47 24 l6 24 362 0 c293 0 372 -3 412 -15 57 -17 138 -18 209 -3 34 8 383
13 1060 17 l1010 6 -982 3 -983 2 0 25 c0 18 -5 25 -20 25 -11 0 -20 -7 -20
-15 0 -8 -3 -15 -7 -15 -5 0 -48 -5 -97 -10 -74 -9 -98 -8 -144 6 -51 14 -57
14 -68 0 -10 -14 -54 -16 -367 -16 l-357 0 12 24 c6 14 8 32 5 40 -8 19 -33
21 -44 4z"/>
<path d="M10848 10468 c-3 -7 -1 -20 5 -28 6 -11 -3 -53 -33 -140 -64 -190
-59 -183 -138 -178 -61 3 -67 1 -67 -16 0 -23 45 -39 92 -32 l32 5 -15 -41
c-21 -62 -25 -122 -8 -147 17 -23 44 -27 62 -9 18 18 14 38 -8 38 -25 0 -27
36 -4 106 20 61 32 70 97 78 63 8 82 18 73 41 -4 12 -14 15 -36 11 -16 -3 -44
-9 -62 -12 -27 -6 -30 -4 -24 12 39 95 97 279 94 297 -3 25 -53 38 -60 15z"/>
<path d="M12350 10327 c0 -1 -13 -40 -30 -86 -16 -47 -26 -89 -23 -94 3 -6 2
-7 -4 -4 -5 3 -31 -38 -57 -92 -46 -96 -56 -146 -28 -146 14 0 63 110 54 120
-3 3 -1 5 5 5 14 0 34 47 27 65 -4 9 0 15 9 15 17 0 63 106 73 168 5 31 3 40
-10 45 -9 4 -16 5 -16 4z"/>
<path d="M9459 10294 c-9 -12 -9 -20 1 -40 12 -21 12 -30 1 -57 -66 -159 -81
-208 -71 -227 6 -11 15 -20 19 -20 5 0 33 20 63 45 l53 44 5 -46 c6 -59 44
-92 87 -77 40 14 36 38 -7 44 l-35 5 3 63 c3 50 0 63 -13 68 -19 8 -47 -5 -93
-42 l-33 -27 9 24 c6 13 21 52 36 86 14 34 26 75 26 90 0 64 -26 97 -51 67z"/>
<path d="M9124 10189 c-3 -6 5 -23 20 -37 20 -20 28 -24 38 -14 9 9 9 17 -2
37 -14 26 -44 33 -56 14z"/>
<path d="M14615 10170 c-4 -6 -10 -8 -14 -6 -13 9 -51 -24 -51 -44 0 -17 47
-65 87 -89 17 -10 17 -12 -2 -27 -14 -10 -31 -14 -56 -10 -47 7 -60 -16 -23
-40 41 -27 124 5 138 53 7 22 -13 47 -69 86 -28 20 -25 37 6 37 24 0 37 29 18
41 -18 11 -26 11 -34 -1z"/>
<path d="M15071 10145 c-41 -36 -55 -82 -52 -182 1 -36 4 -43 21 -43 18 0 20
7 20 60 0 103 47 174 89 136 20 -18 37 -20 46 -6 8 13 -14 52 -25 45 -5 -3
-11 -1 -15 5 -11 18 -53 11 -84 -15z"/>
<path d="M8720 10126 c-80 -31 -110 -47 -110 -61 0 -22 27 -30 46 -14 9 7 21
14 28 15 6 2 25 8 43 15 18 7 35 10 39 6 4 -3 -12 -46 -36 -95 -60 -126 -48
-162 31 -96 69 58 85 62 110 31 22 -29 48 -34 82 -16 40 22 47 55 24 119 -19
55 -26 63 -43 49 -19 -15 -18 -44 2 -74 9 -14 14 -32 10 -40 -8 -21 -44 -19
-51 4 -12 38 -30 44 -75 21 -22 -11 -38 -24 -36 -29 3 -4 -1 -8 -8 -8 -10 0
-8 13 9 51 33 77 37 102 19 120 -19 19 -37 19 -84 2z"/>
<path d="M12042 10130 c-14 -6 -20 -14 -16 -22 5 -7 2 -9 -8 -5 -17 6 -44 -18
-74 -68 -11 -17 -28 -30 -39 -30 -20 0 -25 -13 -42 -105 l-8 -45 -1990 -5
-1990 -5 1987 -3 1986 -2 -19 -51 c-21 -55 -19 -79 6 -79 15 0 24 13 29 42 1
7 13 30 25 51 l23 37 344 0 c189 0 344 -2 344 -5 0 -16 -47 -94 -56 -95 -19 0
-24 -29 -7 -38 19 -11 53 -4 53 12 1 6 16 36 34 66 l32 55 1460 5 1459 5
-1453 3 c-800 1 -1452 5 -1450 10 35 68 59 124 64 150 5 27 3 32 -12 32 -10 0
-29 -11 -43 -24 -15 -13 -38 -31 -52 -40 -26 -16 -27 -16 -34 11 -15 60 -45
66 -45 10 0 -62 42 -93 91 -67 24 14 24 8 -3 -40 l-23 -40 -349 0 c-313 0
-348 2 -342 16 3 9 6 19 6 24 0 5 8 11 18 14 10 4 27 14 38 24 10 9 36 30 57
45 71 54 102 160 47 164 -14 1 -35 -2 -48 -7z m28 -45 c0 -20 -35 -66 -75 -99
l-46 -38 25 50 c14 27 37 59 52 71 26 20 44 27 44 16z"/>
<path d="M15555 10123 c-64 -19 -75 -29 -75 -64 0 -23 8 -34 39 -53 43 -28 62
-63 40 -77 -13 -8 -75 -14 -106 -10 -19 2 -26 -19 -12 -35 10 -12 25 -14 73
-9 63 7 106 33 106 64 0 27 -39 81 -70 99 -16 9 -30 20 -30 24 0 10 69 28 86
21 19 -7 30 26 13 42 -12 11 -23 10 -64 -2z"/>
<path d="M15226 10109 c-36 -28 -58 -73 -50 -104 12 -50 109 -104 137 -76 8 8
7 11 -3 11 -7 0 -10 3 -7 7 4 3 -12 15 -35 25 l-43 19 49 28 c56 33 68 48 59
76 -12 41 -64 48 -107 14z m64 -23 c0 -2 -11 -11 -25 -20 -28 -19 -33 -15 -9
8 14 15 34 22 34 12z"/>
<path d="M10947 10098 c-33 -17 -68 -58 -50 -58 4 0 0 -5 -9 -11 -22 -12 -23
-52 -3 -69 27 -22 120 -7 168 26 71 50 58 102 -29 122 -33 7 -48 5 -77 -10z
m98 -41 c17 -13 17 -14 -4 -29 -16 -11 -19 -17 -9 -21 7 -2 2 -5 -12 -5 -14
-1 -45 -4 -69 -8 -34 -5 -42 -3 -36 6 4 7 8 22 9 34 1 14 7 20 18 18 9 -1 19
2 23 8 9 14 58 12 80 -3z"/>
<path d="M13808 10093 c-64 -55 -64 -55 -63 -25 0 20 -6 28 -21 30 -25 4 -75
-34 -68 -52 3 -8 1 -17 -5 -21 -6 -3 -11 1 -11 11 0 13 -3 14 -14 5 -10 -9
-16 -8 -26 4 -7 8 -19 15 -27 15 -21 0 -27 -28 -9 -45 14 -15 14 -20 1 -52
-11 -26 -12 -39 -4 -49 15 -18 35 -8 48 24 11 26 66 92 77 92 3 0 3 -8 -1 -19
-3 -10 1 -23 9 -30 17 -15 51 0 106 47 33 28 35 29 50 10 22 -27 97 -37 106
-13 8 21 -11 35 -48 35 -22 0 -27 5 -30 27 -4 38 -29 40 -70 6z"/>
<path d="M14099 10105 c-62 -33 -104 -124 -79 -170 17 -32 68 -49 104 -36 41
16 34 41 -13 41 -50 0 -68 19 -42 48 10 12 21 19 24 16 10 -10 95 33 106 54 7
14 6 24 -5 40 -18 25 -56 28 -95 7z m33 -45 c-12 -11 -25 -20 -29 -20 -9 1 36
40 45 40 3 0 -4 -9 -16 -20z"/>
<path d="M14872 10108 c-8 -8 -5 -18 13 -39 23 -29 25 -65 2 -67 -7 0 -31 -4
-53 -8 -51 -8 -60 3 -37 51 15 31 15 37 3 45 -19 12 -22 9 -49 -45 -21 -42
-22 -48 -7 -70 16 -24 74 -44 85 -28 3 4 18 9 34 10 64 3 104 62 76 111 -20
36 -52 55 -67 40z"/>
<path d="M9227 10072 c-34 -35 -34 -55 0 -86 26 -24 27 -27 10 -43 -9 -10 -32
-17 -52 -17 -30 0 -35 -3 -33 -20 3 -18 10 -21 47 -20 37 1 49 7 73 33 35 39
35 51 1 85 l-26 26 22 24 c23 24 21 46 -3 46 -7 0 -24 -13 -39 -28z"/>
<path d="M14304 10081 c-43 -19 -54 -36 -54 -77 0 -30 33 -45 75 -33 16 5 31
9 32 9 2 0 3 -9 3 -20 0 -12 9 -22 24 -26 35 -8 66 4 66 27 0 15 -5 18 -25 15
-24 -5 -25 -3 -19 30 4 22 2 34 -5 34 -6 0 -8 6 -5 14 3 8 -5 21 -18 30 -27
20 -24 20 -74 -3z m56 -39 c0 -10 -45 -32 -63 -32 -17 1 32 40 49 40 8 0 14
-4 14 -8z"/>
<path d="M12365 10046 c-65 -79 -27 -126 57 -71 l41 27 -6 -24 c-4 -14 -1 -33
7 -43 19 -26 45 -13 45 22 0 15 3 42 6 59 8 36 -13 51 -45 34 -15 -8 -19 -6
-22 13 -6 40 -42 33 -83 -17z m60 -16 c-3 -5 -11 -10 -16 -10 -6 0 -7 5 -4 10
3 6 11 10 16 10 6 0 7 -4 4 -10z"/>
<path d="M9085 10038 c-10 -39 8 -133 25 -133 11 0 16 14 18 54 2 30 1 65 -3
78 -7 29 -33 30 -40 1z"/>
<path d="M12812 9606 c-29 -31 -41 -86 -18 -86 9 0 16 -1 16 -3 0 -1 -15 -32
-34 -67 -33 -65 -34 -65 -87 -74 -83 -14 -91 -52 -10 -44 38 3 40 2 34 -17
-13 -35 -8 -94 10 -112 16 -16 18 -16 33 -1 15 14 15 18 -1 41 -14 22 -14 29
-2 60 15 35 42 47 109 47 16 0 38 5 49 11 17 9 18 13 7 26 -9 12 -24 14 -65 9
-30 -4 -53 -2 -53 3 0 5 -3 18 -6 28 -5 14 -4 15 4 4 8 -11 17 0 42 49 38 76
45 141 15 146 -11 2 -30 -7 -43 -20z m48 -226 c0 -5 -5 -10 -11 -10 -5 0 -7 5
-4 10 3 6 8 10 11 10 2 0 4 -4 4 -10z"/>
<path d="M14641 9598 c-7 -19 -5 -24 12 -26 23 -4 52 21 43 37 -12 19 -46 12
-55 -11z"/>
<path d="M14413 9601 c-45 -8 -73 -26 -73 -48 0 -21 26 -26 52 -9 14 9 61 17
125 22 84 6 102 10 106 24 4 16 -5 17 -82 18 -47 0 -105 -3 -128 -7z"/>
<path d="M13973 9554 c-29 -14 -53 -30 -53 -35 0 -5 -3 -8 -7 -7 -16 6 -102
-58 -103 -74 0 -28 28 -21 89 21 70 48 119 73 132 69 5 -2 -5 -26 -23 -53 -37
-56 -145 -172 -156 -167 -12 5 -90 -61 -102 -87 -9 -19 -8 -27 3 -38 12 -13
21 -9 64 29 60 53 117 98 126 98 4 0 7 -19 7 -43 0 -73 44 -107 100 -77 30 16
14 42 -21 35 -28 -6 -29 -5 -29 32 0 21 -7 51 -15 66 -14 28 -13 31 30 86 60
79 82 127 69 149 -17 26 -54 25 -111 -4z"/>
<path d="M11694 9478 c-21 -24 -38 -46 -36 -50 1 -5 -1 -7 -5 -7 -26 5 -76
-17 -83 -35 -17 -46 14 -60 57 -26 35 27 40 19 16 -27 -11 -21 -30 -68 -43
-105 l-24 -68 -1845 -2 -1846 -3 1727 -2 c1473 -3 1727 -5 1722 -17 -3 -8 0
-17 6 -21 6 -4 109 -7 228 -8 210 -1 217 -1 217 18 0 20 19 20 1890 25 l1890
5 -1967 3 c-1760 2 -1968 4 -1968 17 0 9 7 32 15 52 9 20 13 43 10 50 -2 8 -1
12 4 9 5 -3 16 13 26 37 9 23 30 70 47 104 28 56 32 93 10 93 -5 0 -26 -19
-48 -42z"/>
<path d="M14226 9498 c-30 -42 -14 -71 62 -114 17 -10 32 -22 32 -26 0 -13
-88 -68 -120 -74 -32 -7 -39 -24 -16 -43 19 -16 96 20 147 69 44 42 48 59 19
85 -11 10 -20 15 -20 12 0 -4 -8 1 -18 11 -10 9 -27 22 -38 28 -18 11 -18 12
-1 31 9 11 17 25 17 31 0 21 -48 13 -64 -10z"/>
<path d="M13000 9350 c0 -5 -11 -10 -24 -10 -38 0 -56 -10 -72 -41 -13 -26
-13 -30 1 -35 8 -3 13 -10 10 -15 -17 -26 108 -40 155 -16 38 19 39 68 3 101
-27 26 -73 36 -73 16z m55 -59 c9 -15 -31 -32 -67 -28 -42 4 -45 13 -16 41 21
20 26 21 50 9 15 -7 29 -17 33 -22z"/>
<path d="M7433 9270 c-91 -22 -84 -88 14 -139 21 -10 49 -31 62 -45 l24 -26
-38 -16 c-21 -8 -57 -14 -81 -13 -54 4 -75 -12 -44 -34 27 -19 113 -12 154 11
71 41 61 84 -33 146 -38 25 -72 50 -75 55 -9 14 30 24 104 26 56 2 65 5 65 21
0 16 -9 19 -60 21 -33 1 -75 -2 -92 -7z"/>
<path d="M9809 8993 c-24 -32 -63 -80 -88 -106 -51 -55 -62 -50 -55 26 4 56
-8 87 -36 87 -25 0 -41 -32 -106 -210 -29 -80 -61 -166 -71 -192 -14 -38 -15
-50 -5 -60 23 -23 28 -15 105 202 51 144 65 180 69 180 2 0 4 -20 4 -45 2 -54
27 -89 58 -79 11 4 39 27 63 53 l43 46 -29 -70 c-62 -150 -78 -256 -38 -263
13 -3 17 4 17 31 0 19 10 66 22 103 11 38 21 77 20 87 0 9 3 15 7 13 10 -7
104 231 96 244 -13 21 -34 8 -76 -47z m31 -53 c0 -5 -5 -10 -11 -10 -5 0 -7 5
-4 10 3 6 8 10 11 10 2 0 4 -4 4 -10z"/>
<path d="M9030 8950 c-6 -12 -8 -29 -5 -40 3 -10 -1 -33 -10 -50 -9 -18 -14
-38 -11 -46 3 -8 2 -13 -2 -10 -5 3 -16 -10 -25 -29 -15 -31 -21 -35 -56 -35
-22 0 -43 -5 -46 -10 -10 -16 15 -40 41 -40 l23 0 -19 -42 c-37 -81 -18 -173
31 -148 23 13 25 28 3 37 -19 7 -13 50 16 118 14 33 23 43 35 39 8 -4 23 0 32
7 11 10 14 10 9 2 -5 -9 -2 -11 8 -7 9 3 16 12 16 20 0 8 9 14 20 14 11 0 20
5 20 10 0 17 -31 24 -51 12 -18 -11 -49 -16 -49 -8 0 2 14 34 31 71 18 36 34
86 37 111 4 40 3 44 -16 44 -12 0 -26 -9 -32 -20z"/>
<path d="M8686 8874 c-3 -9 -4 -20 0 -25 3 -5 1 -9 -4 -9 -4 0 -14 -22 -21
-49 -7 -27 -25 -76 -41 -110 -16 -34 -29 -64 -29 -68 0 -3 -3 -9 -8 -12 -12
-9 -33 -59 -33 -81 0 -35 20 -32 81 14 34 25 65 46 69 46 5 0 10 -12 12 -27 4
-40 31 -35 40 7 4 19 5 43 2 53 -7 24 -59 22 -91 -3 -42 -33 -44 -23 -9 48 48
97 81 212 64 223 -19 12 -25 11 -32 -7z"/>
<path d="M11277 8883 c-14 -14 -6 -34 17 -43 13 -5 37 -26 52 -47 16 -21 31
-40 34 -43 3 -3 14 -30 25 -60 24 -67 29 -251 8 -278 -18 -24 -16 -42 5 -43
15 0 14 -2 -3 -10 -11 -6 -39 -49 -63 -97 -80 -166 -200 -290 -354 -368 -38
-19 -66 -39 -63 -44 3 -6 -2 -9 -12 -8 -10 1 -49 -13 -88 -32 l-70 -35 -1440
-5 -1440 -5 1415 -5 c1412 -5 1415 -5 1363 -24 -29 -11 -49 -24 -46 -29 3 -6
1 -7 -4 -4 -13 8 -73 -12 -73 -24 0 -5 -10 -9 -21 -9 -12 0 -39 -5 -60 -11
-27 -9 -36 -16 -32 -28 4 -13 3 -13 -5 -2 -15 21 -96 -8 -100 -37 -2 -12 1
-22 6 -22 13 0 76 22 82 29 3 3 11 6 18 7 39 3 43 5 36 16 -5 8 -2 9 9 5 18
-7 67 11 67 24 0 5 6 6 14 3 8 -3 73 20 144 50 l131 56 2368 2 2368 3 -2350 5
-2350 5 57 29 c39 21 54 34 50 44 -4 12 1 14 21 10 42 -8 144 59 245 161 49
50 101 118 98 131 -1 3 9 16 22 30 12 13 22 28 22 33 0 6 11 33 25 61 13 28
33 84 44 123 18 68 19 73 3 84 -15 9 -15 10 2 5 17 -6 18 -1 13 90 -5 85 -10
105 -41 169 -47 95 -123 165 -149 138z"/>
<path d="M10327 8823 c-14 -13 -6 -30 18 -41 36 -16 45 -15 45 6 0 32 -43 56
-63 35z"/>
<path d="M10116 8754 c-21 -21 -20 -32 9 -79 32 -51 31 -69 -1 -94 -33 -26
-44 -26 -44 -2 0 25 -50 65 -64 51 -6 -6 -6 -17 1 -32 6 -13 15 -35 22 -50 15
-40 68 -39 115 2 47 41 52 72 23 124 -23 41 -23 42 -3 57 11 9 16 21 12 27
-10 17 -52 15 -70 -4z"/>
<path d="M8234 8735 c-9 -22 22 -53 37 -38 15 15 7 47 -14 51 -9 2 -20 -4 -23
-13z"/>
<path d="M9846 8728 c-33 -51 -57 -120 -54 -156 3 -34 6 -37 37 -40 38 -4 129
50 156 92 20 31 16 85 -8 100 -22 14 -42 -11 -25 -31 17 -21 -5 -56 -58 -91
-50 -34 -64 -38 -64 -21 0 16 42 112 57 130 7 8 13 21 13 27 0 21 -39 13 -54
-10z"/>
<path d="M10412 8700 c-61 -48 -82 -76 -82 -111 0 -45 32 -64 119 -67 60 -3
83 1 111 16 38 21 47 48 15 45 -11 -1 -43 -8 -70 -14 -120 -28 -164 18 -81 85
25 21 54 36 70 36 19 0 26 5 26 19 0 18 -18 31 -45 31 -7 0 -36 -18 -63 -40z"/>
<path d="M9080 8709 c0 -5 5 -7 10 -4 6 3 10 8 10 11 0 2 -4 4 -10 4 -5 0 -10
-5 -10 -11z"/>
<path d="M10232 8667 c-8 -11 -19 -48 -25 -87 -1 -8 -8 -19 -14 -23 -17 -11
-16 -44 1 -50 8 -3 19 0 25 7 12 15 51 122 51 141 0 18 -27 26 -38 12z"/>
<path d="M10850 8625 c-5 -14 -10 -34 -10 -43 0 -37 -70 -112 -105 -112 -24 0
-15 -34 10 -38 57 -7 137 88 139 165 1 53 -18 69 -34 28z"/>
<path d="M7872 8618 c-5 -7 -12 -24 -14 -38 -1 -14 -11 -38 -20 -55 -46 -80
-58 -106 -53 -115 13 -21 36 -7 103 65 39 41 73 75 76 75 3 0 -1 -19 -9 -41
-19 -53 -19 -95 0 -102 18 -7 21 -2 31 48 4 22 15 59 26 83 10 24 18 52 18 63
0 29 -40 24 -89 -11 l-41 -30 2 31 c3 34 -12 48 -30 27z"/>
<path d="M8380 8611 c-5 -11 -10 -26 -10 -33 0 -21 -13 -35 -40 -42 l-25 -7
23 20 c26 23 29 51 4 51 -25 0 -104 -76 -100 -96 6 -33 34 -40 83 -22 l45 17
-5 -27 c-24 -110 -24 -112 -69 -113 -59 0 -111 -21 -110 -42 1 -9 -5 -17 -14
-17 -12 0 -14 -9 -9 -52 7 -60 32 -100 66 -105 32 -5 95 58 86 87 -4 14 -2 20
6 18 7 -2 22 15 33 37 18 34 26 40 51 40 48 -2 85 14 85 37 0 18 -4 19 -37 14
-21 -4 -45 -9 -55 -12 -15 -4 -15 -1 -2 42 8 26 14 61 14 78 0 17 7 40 15 50
20 27 19 82 -1 90 -22 8 -22 8 -34 -13z m-84 -326 c-8 -19 -13 -35 -11 -35 2
0 -9 -13 -23 -30 -43 -49 -54 -41 -65 48 -4 34 -3 35 63 45 52 9 51 9 36 -28z"/>
<path d="M8129 8555 c-33 -70 -34 -100 -4 -100 13 0 21 9 25 30 4 17 14 44 23
62 21 40 21 59 1 67 -11 4 -23 -11 -45 -59z"/>
<path d="M7700 8186 c0 -7 -8 -33 -19 -57 -10 -24 -26 -65 -35 -91 l-18 -48
-58 0 c-59 0 -76 -9 -67 -35 4 -10 15 -11 41 -5 49 11 60 -5 46 -62 -14 -56 1
-120 33 -143 27 -19 126 -20 152 -1 24 17 13 52 -13 40 -37 -16 -98 -16 -115
1 -21 21 -22 84 -2 131 l15 35 94 -5 c97 -5 119 1 96 29 -9 11 -35 15 -92 15
-91 0 -87 -9 -42 106 30 76 31 104 4 104 -11 0 -20 -6 -20 -14z"/>
<path d="M10190 7574 c-63 -17 -187 -44 -275 -59 -88 -15 -167 -29 -175 -32
-8 -3 -33 -6 -55 -8 -130 -9 -238 -15 -297 -16 -38 0 -68 -4 -68 -7 0 -4 -36
-6 -81 -4 -55 2 -79 0 -74 -7 3 -6 2 -11 -4 -11 -5 0 -11 4 -13 10 -1 5 -20
12 -40 14 -28 4 -40 1 -47 -12 -9 -16 -10 -16 -16 1 -6 15 -21 17 -104 17
-109 0 -141 -6 -141 -27 0 -8 -5 -11 -10 -8 -6 4 -8 11 -4 16 11 19 -318 -3
-342 -22 -6 -5 -13 -6 -17 -3 -15 15 -547 -106 -547 -125 0 -3 -10 -7 -23 -7
-44 -3 -176 -72 -225 -118 -58 -55 -94 -130 -94 -197 0 -111 121 -235 250
-256 29 -5 34 -3 30 12 -2 12 -24 27 -60 41 -52 20 -163 94 -142 94 5 0 1 7
-9 14 -25 19 -34 120 -14 168 21 50 88 120 137 144 22 10 40 25 40 33 0 7 6
11 14 8 17 -7 169 42 174 55 2 4 8 6 13 3 7 -5 99 16 139 32 8 4 24 7 35 8 11
1 65 11 120 23 55 11 138 26 185 32 47 7 92 15 100 17 8 3 32 5 52 4 48 -3 80
7 72 22 -5 8 -2 8 7 0 9 -9 54 -13 151 -13 123 0 138 2 138 17 0 15 1 15 13
-1 12 -17 31 -18 246 -14 190 3 234 6 241 18 8 12 10 12 10 1 0 -11 17 -13 93
-7 99 7 233 24 257 33 8 4 20 5 26 5 6 -1 33 3 60 8 27 6 65 13 84 15 61 10
245 56 254 65 5 5 14 6 21 3 13 -4 39 31 33 45 -2 4 -55 -7 -118 -24z m-1330
-138 c0 -2 -7 -7 -16 -10 -8 -3 -12 -2 -9 4 6 10 25 14 25 6z m-520 -56 c0 -5
-2 -10 -4 -10 -3 0 -8 5 -11 10 -3 6 -1 10 4 10 6 0 11 -4 11 -10z"/>
<path d="M9797 7073 c1058 -2 2788 -2 3845 0 1058 1 193 2 -1922 2 -2115 0
-2980 -1 -1923 -2z"/>
<path d="M13800 7004 c-14 -15 -49 -48 -78 -74 -40 -36 -53 -53 -50 -71 5 -34
25 -34 43 0 8 17 42 50 76 73 49 35 59 47 57 67 -4 34 -19 35 -48 5z"/>
<path d="M12261 7003 c-12 -8 -55 -65 -96 -127 -41 -61 -89 -125 -106 -141
l-31 -30 7 82 c7 74 6 83 -10 89 -25 10 -38 -11 -75 -129 -18 -56 -46 -132
-62 -170 -16 -37 -26 -73 -22 -79 4 -6 3 -8 -3 -5 -15 9 -46 -29 -39 -48 3 -9
13 -15 22 -13 22 4 88 127 116 215 l22 72 13 -30 c7 -18 19 -29 32 -29 22 0
104 87 152 160 18 28 33 50 35 50 2 0 -10 -53 -60 -277 -13 -57 -21 -105 -18
-108 12 -12 33 -3 41 18 5 12 27 110 50 217 23 107 51 213 62 236 10 22 19 43
19 46 0 14 -30 15 -49 1z"/>
<path d="M11456 6998 c-78 -21 -150 -127 -181 -265 l-16 -72 -37 -3 c-29 -2
-37 -7 -37 -23 0 -16 6 -19 28 -17 l28 3 -7 -48 c-3 -26 -11 -53 -15 -59 -6
-7 -4 -16 4 -23 21 -17 44 15 54 74 7 41 12 51 31 53 26 4 27 10 8 31 -13 14
-12 26 8 96 28 98 44 130 89 174 27 25 42 32 61 29 34 -7 51 13 36 41 -6 12
-12 21 -13 20 -1 -1 -19 -6 -41 -11z"/>
<path d="M13320 6908 c0 -29 -12 -69 -37 -121 l-37 -79 -44 7 c-50 7 -80 -8
-61 -31 17 -21 86 -18 92 4 3 9 5 0 6 -20 1 -27 -3 -38 -14 -38 -9 0 -13 7
-10 18 3 9 -3 -1 -14 -23 -29 -61 -34 -95 -16 -95 8 0 15 -4 15 -10 0 -5 -5
-10 -12 -10 -7 0 -2 -10 10 -22 17 -17 32 -22 67 -20 25 1 54 6 65 12 24 13
16 40 -12 40 -10 0 -17 -3 -15 -7 3 -5 -15 -6 -39 -4 -40 3 -44 5 -44 30 0 14
11 50 25 79 l24 52 51 0 c32 0 49 4 45 10 -3 6 1 10 10 10 9 0 13 5 10 10 -3
6 -24 10 -46 10 -21 0 -39 4 -39 8 0 5 14 36 30 71 36 73 46 126 29 147 -23
28 -39 16 -39 -28z"/>
<path d="M9972 6890 c-15 -24 -16 -50 -2 -50 14 0 13 -17 -11 -119 -20 -89
-21 -90 -52 -93 -24 -2 -32 -8 -32 -23 0 -13 8 -21 23 -23 12 -2 22 -8 22 -15
0 -23 -34 -132 -43 -138 -6 -4 -7 -14 -4 -23 6 -14 -18 -16 -243 -16 -138 0
-250 1 -250 3 -1 1 -3 20 -6 42 -7 53 -24 68 -81 75 l-48 6 30 13 c17 7 43 13
58 13 30 -1 47 22 30 39 -7 7 -31 6 -72 -2 -74 -14 -102 -43 -83 -84 9 -20 19
-24 64 -27 l53 -3 3 -37 3 -38 -728 -3 -728 -2 729 -3 729 -2 -7 -57 c-4 -31
-8 -58 -10 -60 -1 -2 -26 1 -55 7 -60 11 -112 -4 -130 -38 -26 -48 -3 -174 36
-199 54 -36 151 32 175 122 10 38 16 44 42 47 38 4 45 25 12 39 -24 11 -26 17
-26 76 l0 63 2450 0 c1348 0 2450 -2 2450 -4 0 -2 -6 -21 -14 -43 -15 -41 -8
-69 15 -61 7 2 20 26 29 54 10 30 23 50 34 52 16 4 16 2 1 -27 -32 -62 -35
-79 -19 -96 25 -25 45 -19 42 14 -1 15 6 40 15 54 9 15 17 33 17 42 0 13 69
15 593 18 l592 2 -620 3 c-474 1 -624 5 -633 14 -10 10 -17 10 -32 0 -15 -9
-495 -12 -2190 -12 -1945 0 -2170 2 -2170 15 0 9 10 54 21 100 l21 85 59 0
c63 0 69 -6 43 -45 -21 -32 -15 -69 11 -73 12 -2 40 11 64 28 43 31 43 32 58
11 16 -23 55 -28 71 -8 14 17 -1 42 -21 34 -12 -4 -17 2 -19 21 -4 36 -26 38
-74 7 l-39 -26 39 35 c26 23 37 39 33 50 -7 17 -27 21 -42 8 -6 -5 -46 -7 -91
-4 l-80 4 23 101 c24 107 27 135 17 161 -9 22 -37 20 -52 -4z m-664 -674 c11
-12 -21 -90 -48 -118 -51 -50 -82 -34 -96 51 -5 33 -3 46 12 62 16 18 27 20
73 16 29 -3 56 -8 59 -11z"/>
<path d="M8033 6764 c-3 -10 8 -29 32 -54 l37 -38 -58 -39 c-33 -21 -71 -44
-86 -51 -35 -15 -36 -40 -3 -48 19 -5 35 2 68 28 23 20 68 52 100 72 31 20 57
41 57 46 0 5 -16 17 -35 26 -20 9 -45 29 -56 45 -22 32 -46 38 -56 13z"/>
<path d="M9770 6685 c-10 -12 -10 -18 0 -30 21 -25 42 -18 38 12 -4 32 -20 40
-38 18z"/>
<path d="M11045 6683 c-55 -30 -86 -67 -92 -110 -7 -50 20 -83 68 -83 83 0
137 72 101 134 -17 29 -18 34 -4 42 9 6 12 16 8 22 -10 16 -45 14 -81 -5z m43
-102 c4 -28 -61 -59 -84 -40 -18 15 -10 48 18 72 18 15 24 16 42 4 12 -8 22
-24 24 -36z"/>
<path d="M13639 6679 c-18 -18 -20 -29 -16 -78 3 -31 9 -67 13 -80 5 -18 4
-22 -5 -17 -6 4 -18 2 -26 -4 -8 -6 -18 -9 -23 -6 -6 3 -15 0 -21 -8 -9 -10
-8 -16 4 -26 8 -7 15 -19 15 -26 0 -8 9 -14 20 -14 11 0 20 4 20 8 0 5 13 7
30 4 25 -4 30 0 36 24 4 16 0 55 -11 95 -21 81 -16 99 24 99 35 0 48 15 31 35
-18 22 -67 18 -91 -6z"/>
<path d="M12545 6680 c-9 -14 3 -30 22 -30 9 0 -12 -20 -48 -45 l-64 -45 -9
36 c-10 41 -35 59 -92 69 -40 6 -42 5 -58 -28 -9 -19 -16 -53 -16 -76 0 -32 5
-44 25 -57 26 -17 75 -12 109 12 16 11 23 10 46 -8 23 -16 45 -21 107 -22 l78
-1 3 33 c3 28 0 32 -20 32 -13 0 -29 -5 -35 -11 -5 -5 -30 -9 -54 -7 l-44 3
73 48 c40 26 77 47 82 47 21 0 9 37 -15 48 -32 15 -82 16 -90 2z m-152 -69 c5
0 7 -13 5 -28 -2 -19 -12 -32 -31 -41 -38 -18 -52 -5 -43 42 7 36 7 36 69 27z"/>
<path d="M12963 6679 c-23 -12 -53 -84 -53 -126 0 -16 6 -23 19 -23 13 0 22
13 32 52 l14 53 49 7 c54 7 64 14 49 29 -16 16 -85 20 -110 8z"/>
<path d="M11325 6660 c-3 -5 -1 -10 4 -10 6 0 11 -8 11 -17 0 -13 3 -14 11 -6
13 13 5 43 -10 43 -5 0 -13 -4 -16 -10z"/>
<path d="M12764 6655 c-28 -19 -48 -69 -40 -100 9 -37 38 -48 89 -34 42 12 52
15 74 17 21 3 3 107 -21 124 -19 13 -81 9 -102 -7z m83 -42 c6 -17 -33 -53
-57 -53 -28 0 -26 35 3 55 24 17 48 16 54 -2z"/>
<path d="M8541 6639 c-23 -25 -46 -71 -56 -111 -5 -21 -1 -33 19 -52 30 -31
50 -32 93 -7 39 24 50 67 33 127 -18 63 -54 80 -89 43z m51 -90 c1 -34 -8 -46
-37 -51 -17 -2 -20 2 -19 30 1 18 10 44 19 59 16 23 19 24 27 9 5 -9 10 -30
10 -47z"/>
<path d="M8712 6633 c-16 -30 -34 -122 -28 -138 8 -21 32 -19 56 5 l20 20 6
-29 c10 -46 46 -75 86 -67 41 7 78 32 78 52 0 18 -18 18 -63 -1 -31 -13 -37
-13 -47 0 -17 21 -6 97 18 123 19 21 14 42 -10 42 -14 0 -36 -15 -55 -37 l-32
-38 2 39 c2 42 -16 59 -31 29z"/>
<path d="M10420 6603 c-41 -5 -63 -23 -80 -63 -7 -18 -17 -27 -26 -23 -18 7
-36 -40 -32 -81 2 -23 8 -31 23 -31 15 0 29 18 55 73 27 56 41 74 60 78 14 3
32 9 40 13 19 10 26 42 8 39 -7 0 -29 -3 -48 -5z"/>
<path d="M9465 6512 c-17 -79 57 -127 134 -87 27 14 46 49 35 67 -8 13 -31 9
-38 -7 -7 -19 -51 -36 -71 -29 -10 4 -15 20 -15 45 0 32 -4 39 -19 39 -13 0
-21 -9 -26 -28z"/>
<path d="M9706 6517 c-26 -19 -19 -92 9 -92 17 0 20 7 22 47 2 53 -6 64 -31
45z"/>
<path d="M8064 6216 c-40 -61 -44 -111 -9 -111 15 0 20 7 20 25 1 14 13 43 28
65 31 45 33 60 12 69 -10 4 -26 -11 -51 -48z"/>
<path d="M10515 6248 c-2 -7 -21 -67 -41 -133 -31 -103 -67 -198 -106 -282
-12 -25 -4 -43 20 -43 12 0 27 26 50 88 58 151 123 356 118 369 -7 17 -35 17
-41 1z"/>
<path d="M12215 6223 c-9 -20 -25 -70 -37 -111 l-22 -74 -53 6 c-48 6 -53 4
-53 -13 0 -21 19 -31 61 -31 16 0 29 -1 29 -3 0 -2 -13 -43 -28 -93 -30 -95
-31 -114 -4 -114 15 0 15 2 2 10 -13 8 -13 10 2 10 13 0 24 23 46 93 25 81 31
92 52 95 65 7 106 24 106 43 0 18 -5 19 -53 13 -64 -8 -63 -9 -23 105 16 46
27 88 24 92 -12 20 -35 7 -49 -28z"/>
<path d="M7975 6203 c-20 -27 -35 -56 -33 -68 4 -27 41 -27 46 0 2 11 18 34
34 52 19 19 28 38 25 47 -11 28 -35 17 -72 -31z"/>
<path d="M9580 6183 c-12 -21 -46 -69 -76 -108 -60 -77 -93 -153 -101 -232 -5
-48 -3 -54 26 -83 20 -20 39 -30 53 -28 31 4 34 26 4 37 -38 15 -48 42 -36 95
18 80 40 123 116 223 74 97 84 125 52 131 -11 2 -24 -10 -38 -35z"/>
<path d="M9961 6182 c-10 -20 -30 -73 -45 -117 l-28 -80 -51 0 c-39 0 -52 -4
-52 -15 0 -9 14 -17 38 -21 20 -3 40 -8 43 -11 3 -3 -6 -33 -20 -66 -19 -48
-22 -63 -12 -71 17 -15 38 10 61 74 10 28 21 54 26 59 4 5 36 12 71 15 54 5
63 9 63 26 0 18 -6 20 -57 17 -32 -2 -58 -2 -58 0 0 7 47 140 60 173 19 45 19
51 -1 52 -13 1 -25 -11 -38 -35z"/>
<path d="M10285 6198 c-2 -7 -17 -51 -33 -98 l-29 -85 -59 -5 c-45 -4 -60 -9
-62 -22 -4 -20 34 -33 73 -26 14 3 25 2 25 -2 0 -15 -33 -85 -51 -112 -22 -30
-25 -58 -6 -58 24 0 37 17 77 103 34 73 45 87 64 87 13 0 29 7 36 15 9 11 7
19 -12 38 l-24 24 23 63 c13 35 22 69 19 77 -7 16 -35 17 -41 1z"/>
<path d="M11871 6178 c-64 -159 -95 -267 -85 -293 4 -10 16 -15 33 -13 17 2
29 -3 36 -16 18 -34 42 -43 62 -23 17 17 17 19 -2 33 -20 15 -20 15 1 52 36
63 3 85 -55 36 l-30 -25 13 43 c7 24 25 78 41 120 26 74 28 108 5 108 -6 0
-14 -10 -19 -22z"/>
<path d="M11542 6118 c-18 -18 -15 -48 6 -48 32 1 74 50 43 50 -5 0 -15 2 -23
5 -7 3 -19 0 -26 -7z"/>
<path d="M9720 6081 c-26 -5 -35 -11 -35 -26 0 -28 55 -33 78 -7 23 26 4 40
-43 33z"/>
<path d="M13532 6058 c-15 -15 3 -38 29 -38 24 0 33 18 19 35 -15 18 -32 19
-48 3z"/>
<path d="M10608 6019 c-70 -52 -91 -149 -42 -194 17 -16 39 -25 60 -25 44 0
87 17 82 33 -5 15 -58 22 -58 8 0 -13 -29 -3 -52 17 -28 24 -21 38 29 63 61
31 89 68 74 98 -15 27 -57 27 -93 0z m42 -34 c0 -2 -10 -9 -22 -15 -22 -11
-22 -10 -4 4 21 17 26 19 26 11z"/>
<path d="M12715 6028 c-2 -7 -11 -38 -19 -69 -9 -31 -29 -83 -46 -114 -34 -64
-37 -80 -15 -89 10 -3 26 12 50 47 19 29 44 63 55 77 l20 25 -6 -32 c-10 -51
20 -42 83 25 56 59 57 58 32 -31 -12 -41 -11 -49 3 -63 21 -21 38 -10 38 25 0
16 7 48 15 71 38 109 -1 141 -83 67 l-22 -21 6 32 c6 27 4 32 -13 32 -20 0
-57 -32 -48 -42 3 -2 -1 -5 -9 -5 -11 0 -12 7 -5 31 5 17 9 34 9 38 0 13 -40
9 -45 -4z"/>
<path d="M13262 6000 c-35 -16 -42 -24 -42 -48 0 -18 10 -38 30 -57 17 -16 30
-32 30 -35 0 -13 -53 -31 -72 -24 -23 7 -39 -11 -31 -33 12 -32 141 2 157 42
4 10 -9 32 -35 60 -40 43 -40 44 -18 55 12 7 40 12 61 12 35 -1 39 2 36 21 -4
29 -58 33 -116 7z"/>
<path d="M11154 5970 c-78 -117 -51 -195 33 -94 l37 46 8 -31 c9 -33 40 -56
64 -47 19 7 18 35 -1 42 -10 4 -15 20 -15 44 0 47 -22 70 -51 52 -15 -10 -19
-9 -19 2 0 32 -31 25 -56 -14z"/>
<path d="M11415 5940 c-28 -54 -31 -80 -13 -98 15 -15 38 3 38 30 0 10 8 35
19 56 10 20 16 43 14 50 -10 26 -34 10 -58 -38z"/>
<path d="M12984 5945 c-29 -69 -15 -124 35 -145 65 -27 108 17 126 128 6 38 5
42 -14 42 -15 0 -23 -10 -31 -42 -17 -68 -28 -88 -49 -88 -10 0 -25 7 -32 16
-11 13 -10 24 3 62 9 25 15 49 12 54 -12 19 -36 6 -50 -27z"/>
<path d="M13470 5956 c0 -8 -12 -42 -26 -75 -27 -62 -26 -95 2 -89 11 2 25 29
40 73 29 88 30 105 4 105 -11 0 -20 -6 -20 -14z"/>
<path d="M8185 5932 c-41 -26 -56 -45 -66 -89 -6 -28 -4 -44 7 -60 20 -31 35
-29 88 12 l46 35 10 -25 c5 -14 17 -25 25 -25 9 0 13 -4 10 -10 -3 -5 -1 -10
5 -10 22 0 21 30 -2 72 -13 24 -31 44 -41 46 -10 2 -38 -13 -62 -33 -46 -37
-52 -36 -35 10 6 15 24 32 46 41 24 10 34 20 32 32 -5 24 -28 25 -63 4z"/>
<path d="M13652 5936 c-50 -27 -75 -93 -52 -136 20 -37 129 -48 168 -17 6 5
12 6 12 1 0 -5 4 -2 9 6 16 24 3 29 -67 23 -54 -4 -70 -2 -80 10 -22 26 12 73
58 82 29 6 34 11 27 30 -8 18 -43 19 -75 1z"/>
<path d="M11569 5920 c-99 -52 -58 -109 48 -65 l36 15 -5 -73 c-3 -41 -8 -79
-12 -85 -5 -9 -469 -13 -1884 -14 l-1877 -3 1829 -2 c1774 -3 1827 -4 1806
-21 -29 -24 -40 -116 -17 -146 13 -18 17 -18 47 -6 30 12 110 100 110 121 0 5
13 9 29 9 39 0 61 9 61 26 0 12 287 14 1913 17 l1912 2 -1940 3 -1940 2 3 105
c3 73 0 110 -8 120 -17 20 -68 18 -111 -5z m31 -277 c0 -14 -52 -73 -64 -73
-15 0 -10 46 7 68 10 12 57 17 57 5z"/>
<path d="M9635 5900 c-21 -40 -19 -70 3 -70 20 0 52 64 44 88 -7 22 -31 13
-47 -18z"/>
<path d="M9802 5003 c1054 -2 2782 -2 3840 0 1058 1 195 2 -1917 2 -2112 0
-2977 -1 -1923 -2z"/>
<path d="M9802 3613 c1054 -2 2782 -2 3840 0 1058 1 195 2 -1917 2 -2112 0
-2977 -1 -1923 -2z"/>
<path d="M9855 3440 c-16 -17 -17 -25 -7 -40 7 -12 9 -36 5 -66 l-6 -46 -43 7
c-26 4 -45 2 -49 -5 -11 -18 15 -40 44 -38 38 3 51 -9 51 -45 0 -47 19 -107
36 -114 8 -3 14 -11 14 -19 0 -20 60 -55 89 -52 41 5 35 25 -13 46 -51 23 -74
59 -82 130 -5 43 -4 48 20 59 14 6 24 7 20 2 -3 -5 18 -9 45 -9 44 0 51 3 51
20 0 21 -16 24 -103 20 l-38 -2 7 49 c19 111 3 151 -41 103z"/>
<path d="M7825 3439 c-4 -6 -10 -51 -13 -99 l-5 -87 27 -5 26 -5 -1 76 c0 42
1 87 3 101 3 26 -24 41 -37 19z"/>
<path d="M7997 3444 c-4 -4 -6 -30 -6 -58 1 -28 4 -42 6 -32 4 15 7 16 14 5
15 -24 28 4 21 45 -7 38 -21 54 -35 40z"/>
<path d="M8177 3443 c-11 -11 -8 -71 4 -79 8 -4 7 -9 -2 -14 -7 -5 -15 -35
-17 -70 -4 -49 -1 -65 14 -83 11 -12 12 -17 4 -10 -14 11 -15 3 -8 -75 9 -94
19 -115 42 -92 11 12 13 25 6 60 -5 25 -9 110 -9 190 0 80 0 153 -1 163 0 17
-20 23 -33 10z"/>
<path d="M7496 3381 c-4 -5 -2 -21 4 -35 6 -16 7 -92 4 -194 -5 -137 -4 -170
8 -186 8 -10 20 -16 26 -12 13 8 16 52 4 60 -4 2 -4 51 1 108 11 139 6 246
-13 258 -19 12 -27 12 -34 1z"/>
<path d="M9205 3370 c-4 -7 2 -22 14 -33 16 -17 23 -19 33 -9 9 9 10 17 2 30
-14 21 -40 27 -49 12z"/>
<path d="M9488 3374 c-11 -10 2 -278 13 -289 7 -7 19 0 38 23 29 34 41 40 41
19 0 -43 97 -81 134 -53 30 24 14 45 -31 39 -44 -6 -57 4 -70 57 -11 43 -39
51 -64 19 -18 -24 -19 -23 -20 56 -1 44 -1 86 0 93 4 24 -27 51 -41 36z"/>
<path d="M8002 3290 c3 -38 2 -40 -24 -40 -15 0 -30 -5 -33 -10 -11 -18 16
-40 41 -36 13 3 24 4 25 3 0 -1 6 -38 12 -82 10 -64 16 -80 31 -83 17 -4 18 3
15 84 l-4 88 25 1 c37 0 31 28 -7 40 -18 5 -33 15 -33 22 0 7 -5 13 -11 13 -6
0 -8 9 -4 20 5 16 2 20 -15 20 -20 0 -22 -4 -18 -40z"/>
<path d="M7632 3258 c2 -13 10 -23 18 -23 8 0 16 10 18 23 3 17 -2 22 -18 22
-16 0 -21 -5 -18 -22z"/>
<path d="M8945 3250 c-23 -25 -32 -122 -16 -163 14 -37 43 -32 51 8 4 17 13
41 21 55 13 25 14 25 19 -20 7 -55 15 -70 40 -70 26 0 32 14 15 36 -8 11 -14
42 -15 75 0 42 -4 58 -16 63 -19 7 -50 -8 -63 -32 -9 -14 -10 -14 -11 -1 0 8
5 20 11 26 12 12 6 43 -9 43 -5 0 -17 -9 -27 -20z"/>
<path d="M7773 3221 c-56 -22 -71 -37 -55 -53 10 -10 22 -9 57 4 l45 17 0 -57
c0 -75 8 -102 31 -102 16 0 18 8 15 97 -3 84 -6 98 -22 104 -24 10 -21 10 -71
-10z"/>
<path d="M8351 3206 c-12 -18 -21 -38 -21 -45 0 -8 -6 -8 -20 1 -17 11 -22 10
-30 -2 -16 -24 -12 -38 15 -56 17 -11 25 -26 25 -44 0 -36 33 -76 67 -83 33
-6 120 10 129 24 3 6 1 16 -6 24 -9 11 -18 11 -48 1 -50 -17 -84 -7 -97 29 -8
22 -7 29 4 33 28 9 58 52 59 84 2 71 -42 91 -77 34z"/>
<path d="M9295 3198 c-24 -21 -35 -37 -32 -50 3 -10 1 -16 -4 -12 -12 7 -11
-3 1 -27 12 -21 41 -25 70 -9 22 12 27 2 35 -72 4 -29 8 -63 11 -75 l4 -23
-752 -3 -753 -2 753 -3 c658 -2 752 -4 752 -17 0 -12 -12 -14 -75 -8 -64 5
-78 3 -95 -12 -36 -33 -16 -119 42 -177 38 -38 72 -47 113 -32 24 10 55 78 55
124 l0 41 34 -6 c25 -5 35 -3 39 9 6 16 -5 24 -55 40 -10 3 -18 12 -18 21 0
13 323 15 3073 18 l3072 2 -3071 3 -3072 2 -6 58 c-9 81 -26 154 -42 178 -7
12 -10 31 -7 43 8 32 -29 27 -72 -11z m35 -32 c0 -2 -8 -10 -17 -17 -16 -13
-17 -12 -4 4 13 16 21 21 21 13z m44 -323 c12 -8 0 -80 -18 -108 -21 -32 -38
-31 -73 4 -29 29 -57 97 -46 114 5 8 119 0 137 -10z"/>
<path d="M9166 3165 c-10 -26 -7 -93 4 -100 20 -13 35 14 35 62 0 36 -4 48
-16 51 -9 2 -19 -4 -23 -13z"/>
<path d="M7617 3113 c-14 -13 -7 -110 8 -123 25 -21 33 0 28 68 -5 58 -16 75
-36 55z"/>
<path d="M7341 2476 c-10 -12 -9 -20 4 -40 30 -45 66 -24 42 24 -15 29 -31 35
-46 16z"/>
<path d="M7543 2385 c-36 -15 -48 -34 -56 -90 -9 -57 17 -106 62 -121 41 -13
59 -10 94 19 20 17 24 26 17 37 -8 13 -13 13 -41 -2 -17 -10 -36 -18 -43 -18
-23 0 -46 36 -46 71 0 42 8 55 43 68 28 11 36 35 14 44 -7 3 -27 -1 -44 -8z"/>
<path d="M7300 2283 c0 -92 10 -133 31 -133 26 0 27 6 20 100 -5 78 -8 85 -28
88 -22 3 -23 0 -23 -55z"/>
<path d="M9797 2233 c1057 -2 2789 -2 3850 0 1060 1 196 2 -1922 2 -2117 0
-2985 -1 -1928 -2z"/>
<path d="M9618 2018 c-3 -7 0 -31 5 -53 6 -24 7 -99 2 -178 l-7 -136 -30 -10
c-17 -6 -46 -11 -64 -11 -27 0 -34 -4 -34 -20 0 -26 43 -37 85 -21 43 15 45
15 45 -14 l0 -25 -115 0 c-70 0 -115 4 -115 10 0 6 -9 10 -20 10 -11 0 -20 -4
-20 -9 0 -6 -36 -10 -80 -10 -62 0 -80 3 -80 14 0 25 -23 29 -41 7 -21 -27
-74 -30 -83 -6 -4 9 -1 23 6 31 10 12 9 18 -7 29 -10 8 -25 14 -33 14 -25 0
-90 -42 -103 -66 -12 -24 -14 -24 -174 -24 -130 0 -168 3 -195 16 -31 16 -35
16 -64 0 -24 -13 -51 -16 -111 -14 -72 3 -80 5 -80 23 0 13 -8 21 -22 23 -13
2 -23 0 -23 -5 0 -4 -18 -9 -39 -11 l-39 -2 -10 47 c-6 26 -7 54 -3 63 5 8 11
39 14 69 4 31 22 87 42 129 32 68 37 74 59 68 34 -8 42 11 16 39 -30 32 -51
22 -88 -38 -41 -69 -58 -111 -70 -175 -9 -49 -8 -52 9 -47 11 4 19 2 19 -4 0
-6 -3 -10 -7 -10 -29 5 -35 -3 -33 -43 2 -24 2 -58 1 -75 l-1 -33 -59 0 c-33
0 -63 -4 -66 -10 -3 -5 -34 -11 -68 -12 l-62 -2 60 -3 c32 -2 65 -9 71 -14 7
-6 38 -8 72 -5 l60 6 7 -64 c3 -35 3 -79 0 -98 -5 -28 -3 -37 10 -42 9 -3 20
-4 25 -1 15 9 20 70 10 135 -7 48 -6 66 3 72 27 17 33 7 29 -50 -4 -55 -2 -60
23 -80 38 -30 68 -28 99 9 31 37 33 67 5 103 l-20 26 70 0 c39 0 71 -2 71 -5
0 -2 -11 -29 -25 -59 -28 -62 -30 -79 -12 -94 20 -17 33 -1 48 58 16 66 39 95
67 86 11 -4 23 -2 27 4 6 10 325 15 325 5 0 -4 -7 -20 -16 -36 -21 -41 -14
-78 17 -102 26 -19 28 -19 59 -1 17 11 45 39 61 63 l29 44 0 -34 c1 -33 21
-127 35 -161 6 -14 0 -14 -50 5 -56 20 -56 20 -76 1 -21 -22 -37 -110 -24
-141 4 -10 8 -34 10 -55 4 -50 39 -124 64 -137 64 -35 140 115 125 249 -3 30
-17 110 -30 177 -13 68 -24 125 -24 128 0 3 14 5 30 5 27 0 30 -3 30 -32 0
-42 34 -98 59 -98 30 0 67 36 85 85 14 37 22 45 43 45 21 0 24 -4 23 -27 -4
-50 0 -64 16 -70 23 -8 33 13 27 58 l-6 39 116 0 115 0 7 -50 c4 -27 11 -50
16 -50 14 0 29 36 29 70 l0 30 115 -1 c109 -1 117 -2 141 -26 29 -29 58 -27
62 5 4 24 21 29 40 10 9 -9 17 -9 34 0 18 10 663 13 2763 15 l2740 2 -2746 3
-2747 2 15 43 c19 56 22 58 67 46 28 -8 41 -8 50 1 19 19 -29 50 -78 50 -38 0
-45 -4 -68 -40 -15 -21 -29 -53 -33 -71 -6 -29 -10 -31 -38 -25 -39 8 -37 5
-38 57 -2 50 -13 69 -41 69 -30 0 -98 -72 -98 -104 0 -26 -1 -26 -70 -26 l-70
0 0 34 c0 31 3 34 46 46 43 12 65 33 50 47 -3 4 -26 2 -51 -4 l-45 -10 0 164
c0 94 -4 173 -10 184 -12 21 -36 25 -42 7z m-608 -459 c0 -5 -10 -9 -21 -9
-18 0 -19 2 -9 15 12 15 30 12 30 -6z m900 1 c0 -5 -5 -10 -11 -10 -5 0 -7 5
-4 10 3 6 8 10 11 10 2 0 4 -4 4 -10z m-900 -26 c0 -22 -65 -104 -82 -104 -15
0 -8 45 12 78 14 22 27 32 45 32 14 0 25 -3 25 -6z m240 1 c0 -17 -31 -75 -40
-75 -11 0 -30 41 -30 66 0 9 11 14 35 14 19 0 35 -2 35 -5z m-932 -79 c-4 -26
-45 -35 -54 -12 -3 9 -3 33 1 54 l7 37 24 -29 c14 -16 24 -38 22 -50z m732
-196 l40 -20 0 -63 c0 -69 -33 -152 -60 -152 -20 0 -40 63 -49 155 -11 109 -4
117 69 80z"/>
<path d="M9410 1710 c0 -16 5 -21 23 -18 12 2 22 10 22 18 0 8 -10 16 -22 18
-18 3 -23 -2 -23 -18z"/>
<path d="M7464 1695 c-9 -22 6 -35 42 -38 23 -2 29 2 29 17 0 11 -7 20 -15 22
-8 1 -23 5 -32 9 -12 5 -20 2 -24 -10z"/>
<path d="M7432 1548 c-13 -13 -17 -52 -4 -44 4 2 6 -27 4 -65 -4 -65 -3 -69
17 -69 21 0 22 4 19 92 -3 90 -11 111 -36 86z"/>
<path d="M7632 1540 c-69 -31 -93 -110 -47 -155 19 -20 34 -25 72 -24 62 1 94
10 107 31 16 26 2 31 -58 18 -65 -13 -96 -2 -96 34 0 28 27 54 66 65 19 5 29
14 29 27 0 26 -22 27 -73 4z"/>
<path d="M9802 853 c1054 -2 2782 -2 3840 0 1058 1 195 2 -1917 2 -2112 0
-2977 -1 -1923 -2z"/>
</g>
</svg>
