<?xml version="1.0" standalone="no"?>
<!DOCTYPE svg PUBLIC "-//W3C//DTD SVG 20010904//EN"
 "http://www.w3.org/TR/2001/REC-SVG-20010904/DTD/svg10.dtd">
<svg version="1.0" xmlns="http://www.w3.org/2000/svg"
 width="1618.000000pt" height="1214.000000pt" viewBox="0 0 1618.000000 1214.000000"
 preserveAspectRatio="xMidYMid meet">

<g transform="translate(0.000000,1214.000000) scale(0.100000,-0.100000)"
fill="#000000" stroke="none">
<path d="M630 6040 l0 -5190 3310 0 3310 0 0 5190 0 5190 -3310 0 -3310 0 0
-5190z m6610 0 l0 -5180 -3300 0 -3300 0 0 5180 0 5180 3300 0 3300 0 0 -5180z"/>
<path d="M4191 10844 c-58 -49 -37 -90 76 -149 42 -22 84 -51 92 -65 10 -15
11 -21 4 -16 -8 4 -13 2 -13 -7 0 -23 -46 -47 -89 -47 -53 0 -75 9 -61 25 7 9
6 16 -4 24 -22 18 -60 -22 -47 -48 13 -24 71 -51 109 -51 98 0 174 99 128 166
-8 11 -46 35 -84 53 -76 34 -97 53 -89 75 12 32 80 29 129 -6 14 -10 20 -10
30 0 11 11 7 19 -20 43 -44 40 -116 41 -161 3z"/>
<path d="M3835 10806 c-77 -33 -145 -130 -145 -204 0 -47 28 -101 64 -124 26
-16 44 -18 113 -14 91 5 103 9 103 36 0 24 -19 29 -50 13 -33 -17 -104 -17
-139 2 -58 29 -60 120 -5 193 24 31 71 62 94 62 6 0 16 -14 22 -31 12 -36 37
-36 55 0 12 25 3 57 -21 73 -17 12 -58 9 -91 -6z"/>
<path d="M2319 10800 c-63 -18 -119 -81 -119 -132 0 -35 47 -78 123 -114 65
-30 98 -60 90 -81 -12 -32 -194 -51 -227 -24 -20 17 -46 7 -46 -18 0 -57 238
-53 297 5 50 50 14 105 -105 163 -80 39 -97 63 -74 102 27 47 112 81 112 45 0
-20 16 -29 40 -21 27 9 25 41 -2 59 -33 20 -59 25 -89 16z"/>
<path d="M2650 10790 c-47 -11 -102 -22 -122 -26 -28 -5 -38 -11 -38 -25 0
-23 20 -24 110 -4 35 7 68 11 72 9 4 -3 5 -24 3 -47 -11 -102 -12 -127 -2
-127 6 0 6 -5 -1 -12 -11 -14 -9 -98 2 -117 4 -6 14 -11 22 -11 11 0 14 20 14
104 0 90 -2 105 -17 111 -16 6 -15 8 5 16 18 7 22 16 22 55 l0 47 85 -5 c63
-4 87 -2 95 7 33 40 -121 55 -250 25z"/>
<path d="M3146 10794 c-9 -9 -14 -20 -10 -25 9 -15 20 -198 12 -193 -5 3 -8
-5 -8 -18 0 -14 -7 -33 -15 -44 -15 -18 -16 -18 -28 0 -7 10 -44 64 -82 120
-108 155 -136 139 -151 -89 -7 -111 0 -135 37 -135 12 0 19 7 19 20 0 11 -5
20 -10 20 -11 0 -6 167 5 178 3 3 5 16 5 29 0 45 13 30 116 -136 37 -60 44
-66 74 -66 59 0 81 60 80 219 0 38 -3 72 -5 77 -3 4 -1 10 5 14 16 10 12 23
-9 35 -15 7 -23 6 -35 -6z"/>
<path d="M3460 10653 c-8 -13 -13 -14 -16 -5 -12 26 -138 -1 -140 -30 -2 -21
12 -22 108 -5 75 14 97 27 74 46 -12 10 -17 9 -26 -6z"/>
<path d="M3940 10133 c-14 -18 -19 -35 -15 -53 4 -21 4 -22 -6 -7 -9 16 -14
14 -44 -25 -19 -23 -40 -54 -47 -68 -7 -14 -13 -26 -14 -28 -1 -2 -18 5 -37
14 -34 16 -37 16 -62 0 -46 -30 -64 -105 -39 -162 19 -41 28 -98 15 -89 -9 5
-25 -27 -52 -104 -25 -71 -24 -98 2 -106 23 -8 45 13 29 29 -4 4 0 32 11 63
10 31 16 60 12 66 -3 6 -1 7 5 3 7 -4 14 3 18 18 10 40 27 49 73 36 32 -8 48
-8 75 4 47 19 89 84 89 136 0 43 -13 64 -56 90 l-28 17 52 69 c29 38 59 74 66
79 16 12 7 45 -12 45 -8 0 -23 -12 -35 -27z m-190 -213 c0 -5 7 -10 15 -10 19
0 19 -4 -2 -43 -9 -18 -16 -38 -14 -46 1 -7 -2 -10 -8 -6 -6 3 -11 0 -11 -7 0
-9 -3 -9 -10 2 -13 19 -13 62 0 94 9 25 30 36 30 16z m138 -16 c28 -19 28 -56
1 -100 -23 -38 -56 -51 -100 -38 l-29 9 41 73 c22 39 45 72 52 72 7 0 23 -7
35 -16z"/>
<path d="M3161 10020 c-6 -28 -11 -73 -11 -100 0 -46 -2 -50 -24 -50 -42 0
-87 -21 -84 -39 4 -17 21 -19 81 -7 37 7 37 7 37 -26 1 -44 33 -114 60 -128
11 -6 35 -10 53 -8 41 4 43 31 3 38 -36 6 -64 43 -72 96 -7 46 -16 40 87 60
21 4 29 11 27 22 -3 14 -14 16 -66 14 l-63 -4 7 59 c3 32 10 69 15 81 11 29 4
42 -21 42 -14 0 -21 -12 -29 -50z"/>
<path d="M5685 10029 c-151 -26 -191 -46 -152 -73 8 -7 17 -28 19 -47 3 -30 8
-35 45 -47 46 -15 133 -85 120 -98 -14 -14 -114 -6 -152 12 -26 12 -39 14 -47
6 -19 -19 0 -40 52 -57 106 -35 212 -3 196 59 -7 27 -116 116 -142 116 -13 0
-34 37 -34 59 0 13 148 34 185 27 25 -5 34 -3 39 10 16 41 -26 51 -129 33z"/>
<path d="M4175 9995 c-86 -35 -126 -85 -90 -115 18 -15 35 -5 35 21 0 13 16
27 55 46 30 15 57 24 61 21 19 -19 -98 -178 -131 -178 -18 0 -68 -57 -61 -69
11 -18 35 -13 72 15 19 15 36 25 38 23 1 -2 13 -21 25 -42 13 -20 31 -42 41
-47 45 -24 206 -3 217 28 10 26 -11 32 -61 17 -80 -24 -120 -20 -149 15 -42
49 -42 64 -2 116 67 87 82 148 39 164 -30 12 -18 14 -89 -15z"/>
<path d="M1870 9961 c-61 -41 -95 -92 -81 -120 15 -28 33 -35 123 -55 43 -10
88 -26 100 -37 23 -19 23 -19 3 -34 -30 -24 -142 -56 -217 -62 -70 -6 -93 -19
-79 -42 7 -10 24 -12 75 -6 36 3 68 11 72 16 3 5 9 7 14 4 4 -3 37 4 73 15 63
20 127 65 127 90 0 7 -15 27 -33 45 -27 27 -48 36 -115 51 -110 23 -113 26
-77 64 59 62 121 77 148 38 22 -33 45 -10 31 29 -8 25 -15 28 -64 31 -47 2
-62 -1 -100 -27z"/>
<path d="M2717 9977 c-8 -21 8 -39 29 -35 27 5 25 42 -2 46 -12 2 -24 -3 -27
-11z"/>
<path d="M2295 9926 c-36 -16 -82 -67 -101 -113 -16 -37 -18 -270 -4 -309 6
-14 18 -24 29 -24 16 0 21 9 27 56 8 66 -1 145 -19 156 -6 4 -7 8 -1 8 5 0 15
-5 20 -10 17 -17 59 5 119 63 51 49 55 57 55 98 0 50 -6 61 -37 78 -28 14 -50
14 -88 -3z m94 -76 c10 -22 15 -42 10 -46 -5 -3 -9 2 -9 10 0 9 -1 16 -3 16
-1 0 -27 -22 -56 -50 -56 -52 -71 -60 -71 -35 0 7 -8 18 -17 23 -39 22 41 122
98 122 23 0 32 -7 48 -40z"/>
<path d="M2500 9920 c-25 -25 -37 -70 -20 -80 9 -6 9 -9 0 -15 -14 -9 -4 -63
18 -87 22 -26 44 -6 31 28 -12 34 -11 108 2 121 6 6 28 9 50 6 31 -5 39 -2 39
10 0 38 -87 50 -120 17z"/>
<path d="M2821 9854 c-24 -30 -38 -111 -23 -126 21 -21 42 0 42 40 0 93 59 94
73 1 15 -95 16 -99 38 -99 19 0 20 4 13 63 -4 34 -13 71 -20 82 -8 11 -14 27
-14 36 0 38 -80 40 -109 3z"/>
<path d="M4893 9834 c-21 -5 -41 -39 -30 -51 3 -3 25 -1 50 4 30 7 58 6 93 -3
27 -7 52 -10 56 -7 15 8 8 32 -12 43 -22 12 -124 21 -157 14z m62 -14 c3 -5 1
-10 -4 -10 -6 0 -11 5 -11 10 0 6 2 10 4 10 3 0 8 -4 11 -10z"/>
<path d="M2665 9796 c-23 -34 -16 -61 15 -61 22 0 25 4 25 39 0 47 -18 57 -40
22z"/>
<path d="M3049 9488 c-1 -2 -3 -40 -4 -86 -1 -46 -7 -88 -13 -94 -6 -6 -37
-13 -69 -17 -50 -5 -58 -9 -61 -28 -3 -17 2 -23 16 -23 10 0 22 3 25 6 4 4 23
7 42 8 l35 1 -2 -42 c-2 -24 -7 -43 -11 -43 -5 0 -7 -17 -5 -37 2 -25 8 -38
18 -38 10 0 20 25 34 82 21 89 25 93 99 93 20 0 37 5 37 11 0 5 5 7 11 3 7 -4
10 -1 7 7 -3 8 -13 13 -22 13 -9 -1 -16 2 -16 7 0 5 -19 6 -43 3 l-43 -6 2 78
c2 74 -6 104 -27 104 -5 0 -10 -1 -10 -2z"/>
<path d="M2540 9296 c0 -28 24 -41 39 -22 15 18 3 46 -20 46 -13 0 -19 -7 -19
-24z"/>
<path d="M3265 9280 c-63 -25 -54 -68 23 -113 94 -55 79 -77 -50 -77 -60 0
-68 -2 -68 -19 0 -33 56 -40 150 -20 87 18 103 58 47 113 -18 17 -48 39 -67
50 -32 17 -33 19 -15 26 22 8 44 2 63 -17 18 -17 32 -8 32 21 0 37 -64 57
-115 36z"/>
<path d="M2698 9234 c-16 -8 -28 -18 -28 -22 0 -4 -16 -25 -35 -47 -37 -42
-43 -77 -12 -83 10 -2 20 4 24 15 11 31 75 103 90 103 9 0 13 -6 10 -14 -15
-39 -17 -102 -4 -120 22 -31 34 -12 41 69 10 110 -15 138 -86 99z"/>
<path d="M2088 9219 c-77 -21 -117 -78 -143 -204 -22 -106 -23 -164 -5 -175
22 -14 33 -8 53 31 15 28 17 48 12 122 -7 87 -6 88 14 75 16 -10 27 -10 57 1
101 36 156 94 123 126 -21 20 -80 33 -111 24z m72 -48 c0 -15 -71 -52 -107
-57 -31 -4 -33 -2 -23 16 6 11 23 26 38 34 30 17 92 21 92 7z"/>
<path d="M2298 9175 c-55 -29 -70 -61 -40 -85 28 -23 154 -22 178 2 24 24 11
62 -30 87 -42 26 -50 26 -108 -4z m92 -35 c8 -5 12 -11 10 -14 -6 -6 -47 -10
-79 -8 -30 2 -17 18 19 25 14 2 27 5 30 5 3 1 12 -2 20 -8z"/>
<path d="M2531 9176 c-20 -24 -10 -70 16 -74 21 -3 23 0 20 39 -2 45 -16 59
-36 35z"/>
<path d="M4022 8627 c-7 -8 -6 -28 4 -67 16 -62 19 -124 5 -115 -5 3 -35 2
-65 -1 -47 -6 -56 -10 -56 -26 0 -18 6 -19 70 -16 42 2 70 -1 70 -7 0 -5 -7
-50 -15 -100 -18 -110 -18 -105 -1 -105 25 0 36 27 48 112 11 80 12 84 36 83
37 0 39 24 3 38 -26 10 -31 17 -36 57 -4 25 -9 52 -12 60 -3 8 -5 28 -4 43 3
27 -13 57 -29 57 -4 0 -12 -6 -18 -13z"/>
<path d="M4677 8634 c-4 -4 -7 -47 -7 -96 0 -70 3 -90 15 -94 42 -16 -4 -39
-51 -25 -48 14 -86 3 -82 -23 2 -17 10 -21 38 -22 94 -1 87 5 96 -86 5 -47 14
-83 21 -85 22 -8 31 31 24 100 l-7 67 55 -4 c58 -3 192 -53 199 -74 5 -16 -81
-26 -107 -13 -17 10 -22 9 -27 -4 -10 -26 4 -44 38 -47 142 -13 202 79 82 127
-44 18 -50 23 -43 40 4 11 8 15 8 9 1 -15 35 -24 51 -14 7 5 10 16 6 25 -6 16
-15 17 -74 10 -37 -4 -95 -9 -129 -11 l-63 -4 -2 42 c-2 24 -3 74 -3 113 0 55
-3 70 -15 73 -9 1 -19 0 -23 -4z"/>
<path d="M1730 8542 c-35 -6 -105 -59 -119 -90 -20 -44 10 -70 123 -110 139
-48 204 -95 181 -132 -9 -14 -71 -39 -126 -51 -55 -12 -116 0 -110 22 13 47
13 59 -2 59 -20 0 -47 -43 -47 -75 0 -32 48 -55 114 -55 55 0 176 38 176 55 0
7 9 15 20 18 15 4 20 14 20 37 0 66 -66 117 -217 166 -43 14 -82 30 -88 35 -7
7 3 22 30 46 36 31 45 34 83 30 24 -3 52 -13 63 -23 15 -14 22 -15 32 -5 33
33 -62 86 -133 73z m-50 -327 c0 -8 -4 -15 -10 -15 -5 0 -7 7 -4 15 4 8 8 15
10 15 2 0 4 -7 4 -15z"/>
<path d="M2860 8475 c0 -45 4 -65 13 -65 9 0 8 -3 -2 -9 -8 -5 -12 -20 -9 -38
4 -27 3 -29 -19 -19 -13 6 -23 14 -23 19 0 4 -9 7 -20 7 -28 0 -26 -35 2 -54
12 -9 32 -16 43 -16 16 0 24 -10 33 -45 14 -51 46 -78 89 -73 38 4 36 30 -4
40 -22 6 -34 17 -42 38 l-10 30 48 0 c51 0 89 19 77 39 -5 8 -25 10 -67 5
l-59 -7 -1 29 c0 16 0 50 1 77 2 71 -8 107 -31 107 -17 0 -19 -8 -19 -65z
m165 -155 c3 -5 -1 -10 -10 -10 -9 0 -13 5 -10 10 3 6 8 10 10 10 2 0 7 -4 10
-10z"/>
<path d="M2467 8473 c-4 -3 -7 -15 -7 -25 0 -13 8 -18 29 -18 35 0 48 15 31
35 -13 16 -42 20 -53 8z"/>
<path d="M3692 8454 c-38 -26 -25 -54 43 -92 76 -42 79 -45 72 -74 -5 -19 -14
-24 -42 -26 -19 -2 -45 4 -58 13 -26 16 -37 12 -37 -16 0 -21 35 -43 55 -36 7
3 16 2 21 -3 12 -11 86 15 101 37 31 42 4 94 -71 134 -25 13 -46 27 -46 31 0
17 50 7 63 -12 17 -24 47 -17 47 11 0 44 -101 66 -148 33z"/>
<path d="M5728 8441 c-18 -15 -38 -26 -44 -24 -20 7 -37 -24 -24 -46 15 -30
33 -26 74 15 l37 37 26 -41 c33 -50 68 -65 106 -45 44 22 32 39 -25 35 -9 -1
-32 20 -52 48 -20 28 -43 50 -51 50 -8 0 -29 -13 -47 -29z"/>
<path d="M5453 8407 c-69 -69 -21 -117 97 -99 54 8 63 30 27 66 -13 13 -27 31
-30 40 -4 9 -13 16 -21 16 -8 0 -20 2 -28 5 -7 2 -28 -10 -45 -28z m67 -42
c11 -13 8 -15 -19 -15 -31 0 -42 14 -18 23 20 9 24 8 37 -8z"/>
<path d="M2272 8383 c-18 -15 -22 -30 -24 -84 -1 -36 2 -71 6 -77 21 -34 66
11 46 47 -12 24 -13 51 -1 70 11 17 52 8 76 -15 19 -19 48 -11 43 13 -4 20
-50 48 -94 57 -22 5 -37 2 -52 -11z"/>
<path d="M2582 8365 c-16 -13 -35 -38 -41 -54 -15 -34 -11 -83 6 -89 13 -4 17
3 28 51 6 29 46 77 63 77 5 0 12 -22 16 -49 7 -52 26 -77 52 -67 11 4 14 12 9
24 -4 9 -12 37 -17 62 -6 25 -15 51 -20 58 -17 20 -64 14 -96 -13z"/>
<path d="M2091 8345 c-36 -38 -60 -109 -68 -200 -5 -61 -3 -73 15 -95 17 -21
24 -23 39 -14 19 12 25 79 10 122 -7 19 -5 22 15 22 42 0 86 36 98 79 11 41 6
85 -13 109 -17 21 -65 10 -96 -23z m69 -43 c0 -49 -19 -75 -58 -77 l-30 -2 16
36 c18 39 51 81 64 81 4 0 8 -17 8 -38z"/>
<path d="M4360 8348 c-11 -18 -20 -43 -20 -55 0 -27 -12 -29 -34 -7 -13 12
-28 14 -69 9 l-52 -6 29 25 c28 23 31 56 6 56 -16 0 -90 -71 -90 -86 0 -27 47
-47 96 -39 35 5 50 3 63 -9 16 -15 75 -16 89 -1 4 3 7 22 8 41 1 50 21 66 64
54 52 -15 62 -13 58 12 -3 24 -30 35 -91 37 -32 1 -40 -4 -57 -31z"/>
<path d="M2447 8323 c-12 -12 -7 -50 8 -63 21 -17 35 -3 35 36 0 26 -4 34 -18
34 -10 0 -22 -3 -25 -7z"/>
<path d="M4259 7813 c-24 -30 -54 -76 -79 -120 -23 -42 -23 -42 -71 -37 -55 5
-58 1 -78 -80 -10 -42 -10 -53 6 -86 l19 -37 -33 -69 c-33 -68 -38 -114 -14
-122 7 -2 15 6 18 17 3 12 21 53 39 91 l33 70 43 0 c53 0 103 29 112 64 7 29
-23 99 -49 113 -12 7 -9 19 21 70 20 33 47 73 60 88 18 21 21 31 13 42 -15 17
-23 17 -40 -4z m-139 -203 c12 -8 11 -15 -8 -54 -29 -61 -47 -61 -38 0 9 65
16 73 46 54z m88 -94 c-3 -21 -61 -46 -75 -32 -4 3 4 27 17 53 l23 46 19 -23
c10 -13 18 -33 16 -44z"/>
<path d="M4680 7783 c-22 -8 -59 -43 -91 -87 -30 -40 -39 -102 -19 -122 7 -7
3 -23 -10 -49 -24 -47 -25 -67 -5 -105 20 -38 46 -51 87 -43 47 9 79 26 111
62 37 42 35 73 -9 108 l-35 28 35 45 c48 62 51 106 11 145 -23 24 -44 29 -75
18z m56 -68 c7 -29 -28 -85 -54 -85 -10 0 -28 -7 -41 -16 -28 -20 -46 -6 -36
26 10 30 83 100 106 100 11 0 21 -9 25 -25z m-36 -191 c22 -15 40 -30 40 -34
0 -11 -42 -46 -75 -63 -45 -22 -75 -7 -75 36 0 37 32 87 56 87 8 0 32 -12 54
-26z"/>
<path d="M3794 7735 c-84 -41 -102 -58 -84 -80 16 -19 36 -19 43 0 6 14 97 65
117 65 28 0 -99 -183 -142 -206 -36 -19 -82 -80 -74 -99 9 -25 34 -17 75 24
36 36 40 38 67 26 16 -6 35 -19 43 -28 15 -19 37 -22 45 -8 11 17 -6 41 -44
64 l-38 22 49 74 c28 41 48 80 45 87 -3 8 1 14 9 14 15 0 30 53 20 70 -11 19
-59 9 -131 -25z"/>
<path d="M1812 7733 c-7 -3 -31 -32 -53 -65 -36 -52 -43 -58 -57 -46 -9 7 -21
19 -25 26 -4 6 -14 12 -21 12 -15 0 -69 -56 -85 -88 -19 -37 -16 -98 8 -138
12 -21 18 -40 13 -43 -15 -10 -65 -102 -59 -108 3 -3 -1 -12 -9 -20 -18 -18
-15 -68 4 -68 12 0 36 50 45 90 2 6 13 25 25 42 12 17 22 36 22 43 0 7 14 3
35 -10 44 -27 73 -21 123 25 33 30 37 39 37 82 0 38 -6 56 -29 86 l-29 37 28
43 c15 23 36 51 47 63 15 17 16 23 6 31 -7 6 -19 8 -26 6z m-132 -151 l22 -18
-37 -54 c-20 -30 -40 -56 -44 -58 -4 -1 -12 10 -17 25 -8 21 -6 37 4 63 26 64
37 70 72 42z m95 -121 c-10 -39 -44 -71 -78 -71 -20 0 -30 6 -34 20 -3 11 -10
17 -17 13 -6 -3 -8 -3 -4 1 3 4 10 8 15 8 4 1 24 26 43 56 l34 54 24 -27 c17
-21 22 -35 17 -54z"/>
<path d="M3075 7716 c-62 -11 -135 -49 -135 -70 0 -7 15 -30 33 -52 45 -53 59
-81 52 -104 -8 -26 -31 -25 -46 1 -10 20 -12 20 -27 5 -15 -14 -14 -18 4 -43
28 -37 58 -40 89 -9 42 42 33 99 -28 164 -29 30 -30 32 -9 32 11 0 25 7 29 15
6 9 33 17 81 21 75 7 91 16 73 38 -13 16 -35 16 -116 2z"/>
<path d="M2659 7692 c-52 -34 -73 -57 -64 -72 8 -13 45 -13 45 -1 0 14 83 62
92 53 8 -8 -19 -89 -47 -141 -7 -15 -31 -49 -53 -75 -39 -47 -45 -76 -17 -76
8 0 28 17 45 38 30 35 32 36 43 18 24 -38 48 -56 76 -56 23 0 29 4 28 19 -1
12 -11 21 -27 25 -16 4 -31 18 -42 41 -15 35 -15 39 4 83 11 25 22 57 23 71 1
14 6 34 10 43 3 9 2 26 -5 37 -15 30 -57 27 -111 -7z"/>
<path d="M4410 7691 c-5 -11 -10 -29 -10 -40 0 -12 -17 -68 -39 -126 -31 -84
-36 -108 -26 -121 18 -25 51 -14 47 17 -2 14 11 62 27 107 39 104 50 182 28
182 -9 0 -21 -9 -27 -19z"/>
<path d="M2035 7690 c3 -5 0 -7 -8 -5 -20 8 -82 -37 -85 -63 -3 -18 1 -22 22
-22 15 0 26 6 26 13 0 8 11 19 25 25 31 14 31 13 -1 -50 -37 -74 -72 -126
-117 -176 -38 -43 -46 -81 -20 -89 13 -5 53 30 70 62 12 22 28 16 92 -31 19
-13 42 -23 50 -22 28 6 22 32 -11 53 -17 11 -46 29 -64 41 -31 19 -33 22 -19
41 8 12 12 28 9 37 -3 9 -1 16 6 16 6 0 8 -5 4 -12 -4 -6 -3 -9 2 -5 5 3 27
41 48 85 33 68 37 83 26 96 -13 17 -65 23 -55 6z"/>
<path d="M2224 7415 c-4 -9 -2 -21 4 -27 15 -15 44 -1 40 19 -4 23 -36 29 -44
8z"/>
<path d="M3255 7400 c3 -6 -3 -10 -14 -10 -28 0 -36 -19 -17 -38 14 -14 17
-14 36 3 24 22 26 41 4 49 -8 3 -12 2 -9 -4z"/>
<path d="M5074 7112 c-6 -9 -19 -43 -28 -75 l-17 -58 -37 5 c-29 3 -42 0 -58
-17 -69 -71 -83 -156 -39 -221 l25 -37 -41 -95 c-41 -98 -45 -127 -19 -132 11
-2 25 25 50 90 19 51 34 99 34 105 -1 7 2 10 7 7 5 -3 9 0 9 5 0 6 15 11 33
11 38 0 106 45 107 71 0 9 7 19 15 23 10 3 15 19 15 43 0 29 -8 45 -34 73
l-35 35 20 60 c11 33 25 70 31 82 19 37 -16 61 -38 25z m-71 -189 c3 -5 -9
-43 -26 -86 -28 -71 -32 -76 -46 -62 -26 25 -21 98 8 129 24 25 55 34 64 19z
m87 -86 c0 -21 -70 -97 -90 -97 -13 0 -13 3 22 97 l23 62 22 -21 c13 -12 23
-30 23 -41z"/>
<path d="M3835 7035 c-96 -15 -138 -31 -132 -48 4 -13 44 -15 97 -4 l34 7 -33
-34 c-40 -41 -36 -61 12 -70 51 -9 81 -47 74 -91 -8 -50 -41 -91 -77 -99 -19
-3 -52 1 -85 12 -56 19 -82 15 -72 -11 8 -20 91 -47 145 -47 40 0 50 5 83 40
41 43 64 107 54 147 -6 27 -62 83 -82 83 -25 0 -12 17 37 51 35 24 50 40 48
53 -4 25 -9 26 -103 11z"/>
<path d="M5489 7013 c-51 -46 -69 -81 -69 -133 0 -43 21 -95 41 -102 7 -2 13
-12 15 -21 1 -9 -2 -15 -6 -12 -25 16 -77 -105 -65 -152 10 -41 50 -73 90 -73
21 0 34 4 30 10 -3 5 0 7 8 4 25 -9 66 15 97 57 24 33 30 52 30 91 0 43 -4 52
-40 87 -39 38 -39 39 -20 56 28 26 60 96 60 134 0 46 -46 91 -94 91 -27 0 -46
-9 -77 -37z m119 -59 c2 -31 -4 -49 -28 -83 -26 -35 -36 -42 -55 -37 -13 3
-27 2 -30 -4 -27 -44 -46 49 -20 100 18 36 59 64 80 57 8 -4 17 -2 21 4 12 21
29 1 32 -37z m-14 -220 c15 -15 26 -38 26 -53 0 -30 -27 -75 -58 -97 -23 -16
-82 -22 -100 -10 -21 13 -14 81 12 119 13 19 22 38 20 41 -2 3 -1 4 2 1 4 -2
16 2 28 10 29 21 39 19 70 -11z"/>
<path d="M2698 7023 c-8 -10 -30 -48 -48 -84 -33 -65 -34 -66 -64 -58 -45 13
-76 11 -76 -5 0 -8 6 -16 13 -19 8 -3 5 -12 -10 -29 -13 -13 -23 -32 -23 -42
0 -9 -4 -15 -8 -12 -12 7 -52 -80 -52 -114 0 -17 9 -39 20 -50 19 -19 19 -20
-11 -85 -17 -36 -28 -72 -25 -80 8 -21 35 -19 42 3 3 9 17 42 31 73 l25 56 54
1 c66 0 109 24 136 72 27 49 20 117 -17 166 l-29 37 43 83 c39 74 45 104 22
104 -4 0 -15 -8 -23 -17z m-142 -261 c-13 -26 -31 -64 -41 -84 -9 -21 -21 -38
-25 -38 -14 0 -22 40 -11 54 7 9 7 16 -2 26 -10 10 -9 12 6 7 9 -4 17 -3 17 2
0 17 61 92 70 86 6 -4 0 -26 -14 -53z m118 -25 c13 -66 -37 -117 -116 -117
l-30 0 41 75 c23 41 41 81 41 89 0 46 53 7 64 -47z"/>
<path d="M5273 6983 c-8 -21 -24 -78 -34 -128 -30 -143 -22 -243 16 -229 17 7
20 56 5 84 -6 11 -6 21 -1 24 5 3 12 34 15 68 4 35 18 94 31 133 13 38 21 73
18 77 -11 19 -35 5 -50 -29z"/>
<path d="M3535 6993 c-5 -10 -9 -40 -11 -68 -2 -27 -12 -97 -22 -155 -20 -114
-17 -155 14 -155 16 0 19 6 17 40 -2 22 10 108 26 190 16 82 27 153 25 157 -9
15 -42 8 -49 -9z"/>
<path d="M4590 6957 c-65 -32 -84 -57 -60 -81 8 -8 14 -7 23 5 7 8 28 24 47
35 19 10 37 21 40 24 3 3 13 6 23 6 14 2 16 -3 11 -20 -15 -52 -58 -124 -95
-161 -73 -74 -112 -155 -75 -155 8 0 36 27 62 60 45 55 50 58 66 43 10 -9 18
-21 18 -28 0 -15 27 -38 63 -53 25 -11 27 -10 27 13 0 15 -7 26 -19 30 -11 3
-32 26 -46 51 l-27 45 41 82 c44 89 50 121 25 131 -31 12 -60 5 -124 -27z"/>
<path d="M2905 6936 c-51 -15 -81 -28 -83 -38 -5 -24 23 -29 75 -13 27 8 50
15 52 15 2 0 -19 -18 -48 -41 -28 -22 -51 -45 -51 -49 0 -16 34 -28 77 -27 24
0 49 -6 58 -13 36 -30 -2 -130 -50 -130 -30 0 -81 30 -66 39 6 4 6 12 1 21 -7
12 -14 12 -27 4 -31 -19 -27 -50 10 -78 45 -35 90 -43 122 -22 55 36 86 126
60 175 -16 32 -33 41 -78 41 l-32 0 40 35 c22 19 42 35 45 35 3 0 11 9 18 21
10 16 10 24 1 35 -15 18 -27 17 -124 -10z"/>
<path d="M1693 6787 c-3 -4 1 -14 7 -22 13 -16 62 -19 148 -9 40 5 50 10 42
19 -8 9 -7 14 2 18 7 2 -34 4 -90 3 -57 0 -106 -5 -109 -9z"/>
<path d="M4116 6715 c-7 -19 20 -46 39 -39 8 4 15 17 15 30 0 19 -5 24 -24 24
-13 0 -26 -7 -30 -15z"/>
<path d="M3128 6616 c-13 -29 -5 -56 17 -56 17 0 39 46 31 67 -9 21 -36 15
-48 -11z"/>
<path d="M9802 11223 c1054 -2 2782 -2 3840 0 1058 1 195 2 -1917 2 -2112 0
-2977 -1 -1923 -2z"/>
<path d="M8271 10966 c-12 -18 -28 -53 -36 -77 -9 -23 -23 -51 -31 -60 -9 -10
-13 -22 -10 -28 7 -11 -36 -103 -47 -102 -26 4 -34 -3 -45 -32 -17 -48 -15
-67 7 -67 26 0 76 60 114 136 27 55 35 64 59 64 l27 0 -5 -62 c-3 -35 -10 -78
-14 -97 -10 -37 -6 -51 14 -51 26 0 38 56 43 210 6 165 0 200 -37 200 -10 0
-27 -15 -39 -34z m39 -71 c0 -38 -3 -45 -20 -45 -11 0 -20 4 -20 10 0 10 32
80 37 80 2 0 3 -20 3 -45z"/>
<path d="M11200 10985 c0 -25 24 -29 178 -31 135 -2 152 0 153 15 0 10 2 11 6
4 3 -8 24 -13 55 -13 42 0 49 3 46 18 -3 15 -22 17 -221 19 -176 1 -217 -1
-217 -12z"/>
<path d="M13345 10963 c-8 -21 -19 -45 -25 -53 -5 -8 -24 -41 -41 -73 -38 -68
-45 -73 -122 -82 -46 -6 -57 -11 -55 -24 3 -12 15 -16 55 -16 29 0 55 -4 60
-9 4 -5 3 -6 -4 -3 -7 4 -15 -5 -22 -25 -15 -43 -14 -74 4 -108 l15 -30 -2667
-3 c-1468 -1 -935 -2 1182 -2 2118 0 3335 1 2705 3 l-1145 2 27 23 c21 16 25
26 18 37 -8 13 -14 13 -44 -4 -43 -23 -56 -15 -56 32 0 35 31 102 47 102 172
6 195 12 178 40 -5 9 -31 11 -86 8 -73 -4 -77 -4 -68 14 5 10 6 18 2 18 -4 0
0 6 9 13 25 19 91 146 84 162 -10 27 -35 16 -51 -22z"/>
<path d="M12557 10984 c-4 -4 -7 -19 -7 -33 0 -14 -23 -64 -50 -112 -55 -96
-69 -141 -50 -164 16 -19 61 -19 107 0 44 18 40 19 46 -6 8 -30 30 -19 40 21
6 24 5 37 -5 47 -12 11 -24 9 -77 -12 -35 -14 -67 -25 -72 -23 -9 3 10 43 79
167 28 51 34 114 12 118 -9 2 -19 1 -23 -3z"/>
<path d="M11337 10933 c-4 -3 -7 -17 -7 -30 0 -14 -23 -71 -52 -129 l-52 -104
-62 0 c-40 0 -66 -5 -73 -14 -20 -24 11 -38 68 -30 31 4 56 2 64 -4 8 -7 18
-7 27 -2 8 6 32 10 53 10 42 0 58 20 36 46 -8 10 -21 13 -36 9 -23 -5 -23 -4
11 64 19 38 32 71 29 75 -4 3 -1 6 5 6 14 0 34 72 26 94 -6 16 -25 21 -37 9z"/>
<path d="M12200 10911 c0 -25 30 -43 51 -31 19 13 0 44 -30 48 -16 3 -21 -2
-21 -17z"/>
<path d="M8423 10820 c-18 -11 -33 -25 -33 -31 0 -19 20 -49 34 -49 7 0 26
-12 41 -26 l28 -26 -21 -20 c-17 -18 -24 -19 -36 -9 -19 16 -36 6 -36 -19 0
-27 33 -42 63 -31 29 11 67 57 67 80 0 18 -48 75 -71 83 -11 5 -10 9 5 20 12
9 17 21 13 32 -8 21 -15 20 -54 -4z"/>
<path d="M10450 10829 c0 -7 -3 -10 -6 -6 -15 15 -100 -54 -102 -83 0 -3 -5
-18 -11 -33 -17 -43 -14 -69 6 -65 10 2 25 22 34 48 22 59 60 98 102 102 24 2
32 8 32 23 0 14 -8 21 -27 23 -17 2 -28 -1 -28 -9z"/>
<path d="M9965 10815 c-35 -18 -65 -51 -65 -71 0 -8 16 -32 36 -54 22 -24 34
-46 30 -55 -7 -20 -48 -36 -60 -24 -16 15 -26 10 -26 -11 0 -51 91 -46 125 7
22 32 14 61 -29 106 -38 41 -41 35 29 72 23 12 27 39 5 42 -8 2 -28 -4 -45
-12z"/>
<path d="M11803 10806 c-70 -26 -113 -51 -113 -67 0 -17 32 -23 53 -10 34 22
107 51 107 43 0 -4 -16 -25 -35 -45 -30 -31 -34 -41 -25 -57 12 -23 22 -24 66
-8 29 10 35 9 64 -16 31 -25 60 -30 87 -13 7 4 10 14 6 22 -3 11 -1 13 10 9
21 -8 77 80 77 121 0 29 -37 16 -51 -17 -17 -43 -58 -98 -73 -98 -7 0 -28 11
-47 25 -19 14 -42 24 -51 21 -13 -3 -10 5 12 32 33 41 38 67 14 76 -23 9 -33
7 -101 -18z"/>
<path d="M10134 10785 c-59 -63 -53 -140 14 -166 39 -15 134 6 130 29 -3 14
-14 16 -65 14 -65 -4 -88 9 -52 28 15 9 18 15 10 23 -6 6 -11 16 -11 22 0 5 7
1 15 -9 15 -19 15 -19 40 4 30 28 33 65 6 80 -33 17 -52 11 -87 -25z m51 -25
c-3 -5 -11 -10 -16 -10 -6 0 -7 5 -4 10 3 6 11 10 16 10 6 0 7 -4 4 -10z"/>
<path d="M12293 10808 c-25 -12 -29 -40 -14 -81 8 -19 6 -27 -4 -31 -8 -3 -17
-1 -20 4 -8 13 -42 13 -50 0 -13 -22 17 -40 66 -40 61 0 77 21 55 75 -15 34
-14 35 10 41 32 8 34 44 2 43 -13 0 -33 -5 -45 -11z"/>
<path d="M9112 10794 c-30 -21 -54 -70 -47 -94 8 -25 46 -35 85 -22 29 11 30
10 30 -22 0 -35 25 -66 53 -66 30 0 29 21 -2 49 -24 21 -28 30 -18 34 8 3 17
20 20 39 5 29 0 37 -31 66 -41 36 -58 39 -90 16z m51 -41 c11 -10 -13 -33 -35
-33 -16 0 -17 3 -8 20 11 20 31 26 43 13z"/>
<path d="M9692 10769 c-27 -50 -61 -87 -109 -120 -24 -17 -42 -36 -40 -42 7
-22 37 -19 68 7 28 24 32 25 54 10 23 -15 27 -14 67 8 l43 24 -3 -36 c-3 -24
2 -41 12 -49 20 -17 66 -6 66 15 0 8 -4 13 -9 10 -5 -3 -14 1 -21 9 -10 12 -9
26 9 72 19 48 20 59 8 70 -12 12 -20 9 -53 -22 -21 -21 -52 -44 -67 -51 l-28
-15 26 50 c29 58 31 77 9 85 -10 4 -21 -4 -32 -25z"/>
<path d="M12160 10771 c0 -4 -11 -25 -25 -46 -20 -29 -23 -40 -14 -51 6 -8 17
-14 25 -14 16 0 57 88 50 107 -6 14 -36 18 -36 4z"/>
<path d="M13490 10734 c0 -9 -5 -12 -11 -8 -7 4 -10 1 -7 -6 2 -8 -4 -22 -14
-32 -23 -23 -23 -43 2 -68 38 -38 143 -15 156 34 8 32 -7 51 -57 77 -46 23
-69 24 -69 3z m64 -49 c26 -19 11 -35 -32 -35 -33 1 -35 2 -19 14 9 7 17 18
17 25 0 15 11 14 34 -4z"/>
<path d="M11660 10354 c0 -13 -3 -14 -15 -4 -27 22 -135 -22 -135 -55 0 -20
19 -19 71 5 64 28 139 27 172 -4 49 -46 48 -91 -5 -171 -63 -96 -161 -176
-185 -152 -3 3 9 52 27 109 39 123 41 141 18 146 -18 3 -36 -28 -43 -73 -1
-11 -6 -28 -10 -38 -4 -9 -15 -42 -24 -73 -10 -30 -22 -56 -27 -57 -5 -1 -17
14 -26 33 -21 41 -42 45 -46 9 -6 -50 67 -109 136 -109 34 0 107 46 145 91 15
19 41 50 57 70 49 59 70 118 60 162 -4 21 -15 49 -24 62 -32 49 -146 87 -146
49z m130 -234 c0 -5 -2 -10 -4 -10 -3 0 -8 5 -11 10 -3 6 -1 10 4 10 6 0 11
-4 11 -10z"/>
<path d="M10933 10312 c-19 -12 -63 -101 -63 -127 0 -20 4 -24 23 -21 14 2 23
11 25 27 2 13 15 39 29 57 33 43 23 88 -14 64z"/>
<path d="M9289 10193 c-62 -133 -81 -206 -57 -229 28 -28 49 -11 42 35 -5 34
1 56 50 161 31 67 56 126 56 131 0 5 -9 9 -20 9 -15 0 -31 -24 -71 -107z"/>
<path d="M9856 10268 c-19 -67 -30 -98 -37 -98 -4 0 -10 -11 -13 -25 -6 -22
-12 -25 -51 -25 -24 0 -47 -5 -51 -12 -9 -15 24 -38 55 -38 15 0 21 -3 15 -8
-7 -4 -20 -30 -29 -58 -15 -46 -15 -55 -1 -88 12 -30 20 -36 45 -36 35 0 103
29 95 42 -3 4 0 8 7 8 10 0 10 3 2 11 -9 9 -22 7 -53 -5 -23 -9 -46 -14 -51
-11 -14 9 -11 45 10 100 18 47 21 50 57 53 22 2 43 7 48 12 16 16 -12 38 -40
32 l-26 -5 31 59 c37 70 40 104 11 104 -11 0 -22 -6 -24 -12z"/>
<path d="M10971 10233 c-22 -36 -27 -51 -20 -65 16 -31 34 -20 58 33 37 86 10
109 -38 32z"/>
<path d="M13015 10240 c-8 -13 13 -40 30 -40 15 0 28 27 19 41 -7 12 -41 11
-49 -1z"/>
<path d="M12321 10206 c-9 -10 -8 -16 4 -26 19 -16 41 1 32 24 -8 20 -21 20
-36 2z"/>
<path d="M11893 10145 c-56 -24 -82 -113 -48 -162 19 -28 67 -38 94 -21 32 20
26 38 -12 38 -37 0 -57 15 -57 43 0 16 2 17 15 7 20 -17 58 -1 81 35 13 21 15
31 6 50 -13 28 -32 31 -79 10z m37 -39 c0 -2 -12 -12 -27 -21 l-28 -18 19 21
c17 20 36 29 36 18z"/>
<path d="M12110 10151 c0 -5 -13 -11 -29 -14 -57 -12 -51 -69 11 -97 l39 -17
-26 -17 c-14 -9 -37 -21 -51 -26 -28 -11 -30 -43 -4 -48 24 -4 130 67 130 87
0 21 -23 42 -64 59 -23 10 -26 15 -16 27 7 8 15 13 19 11 13 -8 51 14 51 29 0
10 -10 15 -30 15 -16 0 -30 -4 -30 -9z"/>
<path d="M8143 10120 c-55 -22 -96 -135 -64 -174 20 -24 89 -40 118 -27 40 18
29 41 -20 41 -69 0 -84 29 -44 87 18 28 26 32 50 27 22 -5 27 -2 27 15 0 11
-9 25 -19 31 -22 11 -19 11 -48 0z"/>
<path d="M8997 10101 c-19 -17 -40 -31 -46 -31 -16 0 -37 -47 -51 -114 -7 -33
-17 -70 -23 -83 l-10 -23 -496 -2 -496 -3 494 -2 493 -3 -4 -25 c-6 -29 14
-61 30 -51 7 4 15 21 20 39 l8 32 1774 3 c976 1 1770 -2 1765 -6 -6 -5 -29
-14 -53 -21 -56 -16 -82 -42 -82 -84 0 -39 31 -77 62 -77 27 0 83 60 98 105 6
19 17 35 23 35 32 0 87 23 87 35 0 13 57 15 403 15 358 -1 398 -2 369 -15 -28
-12 -31 -17 -23 -34 9 -16 8 -18 -8 -14 -13 3 -20 -2 -25 -21 -12 -49 18 -116
52 -116 26 0 69 39 103 92 41 67 55 78 96 78 19 0 50 7 70 15 30 13 168 15
992 17 l956 3 -954 2 c-886 3 -955 4 -966 20 -11 14 -16 15 -28 5 -8 -7 -37
-15 -64 -19 l-50 -5 10 58 c9 45 8 59 -1 62 -9 3 -10 8 -2 16 7 9 5 28 -6 62
-26 78 -74 105 -88 49 -8 -30 -40 -61 -77 -74 -42 -14 -45 4 -4 29 39 24 46
50 14 50 -25 0 -75 -34 -90 -61 -8 -16 -7 -26 5 -44 13 -20 23 -24 54 -21 53
5 96 29 120 67 l20 32 7 -44 c9 -49 8 -110 -1 -151 l-6 -28 -476 0 -477 0 2
130 c1 121 0 130 -17 130 -10 0 -22 -5 -25 -10 -3 -6 -18 -7 -31 -4 -51 13
-111 -46 -94 -92 11 -29 31 -35 75 -23 20 6 39 9 41 7 5 -5 8 -62 6 -105 l-2
-33 -1775 0 -1775 0 13 32 c8 21 20 32 35 33 22 2 54 26 105 80 82 87 13 183
-76 106z m73 -26 c0 -16 -90 -119 -97 -111 -8 8 47 105 64 115 25 15 33 13 33
-4z m3384 -35 c-5 -5 -21 -12 -37 -15 -22 -6 -26 -4 -21 8 7 19 57 38 63 25 2
-6 -1 -14 -5 -18z m985 -262 c-14 -28 -70 -88 -81 -88 -16 0 -8 67 10 83 15
13 27 17 75 26 4 0 3 -9 -4 -21z m-1014 -38 c-18 -35 -43 -49 -55 -30 -13 20
0 41 34 55 17 7 32 12 34 10 2 -2 -4 -17 -13 -35z"/>
<path d="M10055 10121 c-26 -11 -95 -86 -95 -104 0 -25 72 -67 116 -67 58 0
131 27 137 51 3 10 2 19 -1 19 -17 0 -149 -34 -167 -43 -18 -9 -19 -8 -6 6 9
11 10 17 2 17 -22 0 -10 17 28 38 44 25 59 55 41 77 -14 17 -25 18 -55 6z"/>
<path d="M9464 10105 c-4 -8 -10 -12 -15 -9 -13 8 -67 -49 -75 -80 -8 -34 -1
-51 30 -71 47 -31 213 -1 192 33 -11 18 -56 15 -56 -3 0 -17 -16 -20 -26 -4
-3 6 -20 8 -38 5 -34 -6 -73 9 -46 18 8 2 27 7 42 10 15 3 39 16 54 29 32 28
27 58 -12 75 -33 16 -43 15 -50 -3z m16 -50 c-33 -19 -50 -18 -26 0 11 8 27
15 35 15 10 -1 7 -6 -9 -15z"/>
<path d="M8375 10099 c-4 -6 2 -21 14 -33 39 -41 16 -106 -37 -106 -41 0 -39
16 13 86 13 18 -6 37 -28 28 -23 -9 -57 -66 -57 -98 0 -14 9 -35 20 -46 22
-22 70 -27 70 -8 0 6 3 9 6 5 13 -12 61 23 74 52 15 36 8 68 -21 104 -21 28
-43 35 -54 16z"/>
<path d="M8622 10094 c-16 -11 -27 -13 -35 -5 -18 14 -28 5 -70 -68 -59 -99
-32 -125 45 -43 24 26 53 54 63 62 17 14 18 13 12 -19 -7 -33 5 -61 25 -61 5
0 31 20 57 45 l49 46 -10 -40 c-13 -50 -6 -71 24 -71 21 0 23 5 26 53 1 28 3
66 5 82 3 46 -30 44 -86 -5 -26 -23 -51 -39 -57 -35 -6 4 -7 11 -4 17 4 6 10
5 16 -3 6 -10 8 -3 6 21 -3 41 -29 50 -66 24z"/>
<path d="M13132 10086 c-27 -15 -50 -38 -63 -62 -37 -73 3 -89 50 -20 26 37
48 56 67 56 2 0 4 -6 4 -14 0 -22 20 -30 36 -15 9 10 11 23 6 44 -11 39 -43
42 -100 11z"/>
<path d="M12653 10088 c-6 -7 -19 -38 -30 -68 -32 -89 -13 -104 58 -45 47 40
80 60 78 48 -4 -24 3 -44 17 -50 21 -8 34 13 34 54 0 56 -39 61 -121 16 -3 -2
-6 8 -5 23 1 30 -15 42 -31 22z"/>
<path d="M12933 10078 c-15 -21 -35 -93 -31 -114 7 -38 31 -19 51 39 18 55 18
87 -1 87 -5 0 -14 -6 -19 -12z"/>
<path d="M12245 10043 c-19 -45 -16 -77 6 -81 13 -2 20 10 29 47 18 76 -7 100
-35 34z"/>
<path d="M11247 9693 c-4 -3 -7 -18 -7 -32 0 -25 -35 -159 -43 -168 -2 -2 -24
-7 -48 -11 -59 -10 -60 -36 -1 -40 23 -2 42 -6 41 -10 0 -4 -15 -51 -33 -105
-25 -77 -29 -100 -19 -108 6 -6 16 -8 22 -5 9 6 36 80 66 186 11 40 22 58 40
66 13 7 26 10 28 7 3 -2 -1 -25 -9 -50 -24 -78 10 -106 71 -58 l32 24 7 -46
c10 -76 61 -112 117 -83 33 18 24 41 -16 38 -45 -3 -59 12 -57 61 2 49 -13 91
-32 91 -8 0 -28 -11 -44 -25 -17 -14 -32 -25 -35 -25 -8 0 -3 22 11 48 7 12
10 28 6 35 -4 6 -3 9 1 4 10 -8 49 57 76 128 24 64 24 77 -2 73 -15 -2 -29
-23 -51 -73 -32 -73 -40 -82 -97 -102 -26 -10 -31 -10 -24 0 5 6 17 45 27 84
15 59 16 76 6 88 -14 16 -23 19 -33 8z"/>
<path d="M8669 9646 c-48 -17 -91 -48 -162 -115 -71 -68 -99 -119 -99 -181 0
-121 95 -179 248 -150 66 13 88 31 64 53 -10 9 -14 9 -17 -1 -3 -6 -8 -10 -11
-8 -4 2 -31 0 -61 -5 -70 -11 -137 5 -158 38 -25 38 -31 84 -15 123 34 87 252
256 252 197 0 -8 -3 -17 -7 -21 -11 -11 -33 -79 -33 -104 0 -18 5 -23 21 -20
26 4 69 81 69 124 0 23 5 33 20 37 11 3 20 12 20 20 0 20 -37 32 -55 17 -9 -7
-15 -8 -20 0 -8 12 -11 12 -56 -4z"/>
<path d="M8957 9594 c-4 -4 -7 -15 -7 -24 0 -10 -18 -56 -40 -103 -22 -47 -40
-94 -40 -105 0 -12 -4 -24 -10 -27 -16 -10 -12 -91 5 -105 21 -17 35 -3 29 30
-7 35 16 110 66 210 47 94 53 124 25 128 -12 2 -24 0 -28 -4z"/>
<path d="M13292 9581 c-7 -4 -14 -33 -17 -64 -3 -31 -14 -98 -25 -149 -24
-110 -25 -138 -6 -138 21 0 22 4 51 140 34 166 33 234 -3 211z"/>
<path d="M12704 9535 c-4 -9 -2 -21 4 -27 15 -15 44 -1 40 19 -4 23 -36 29
-44 8z"/>
<path d="M10997 9523 c-11 -10 -8 -41 4 -49 16 -9 43 21 36 40 -7 16 -28 21
-40 9z"/>
<path d="M13460 9458 c-64 -32 -110 -80 -110 -115 0 -56 71 -95 174 -95 69 0
86 5 86 28 0 11 -16 14 -67 15 -38 0 -84 6 -103 13 l-34 12 68 35 c72 36 98
68 80 96 -18 29 -49 33 -94 11z m50 -33 c0 -6 -85 -55 -96 -55 -5 0 11 14 36
30 43 28 60 36 60 25z"/>
<path d="M9863 9455 c-37 -26 -37 -60 -2 -122 26 -45 29 -57 18 -64 -36 -23
-79 7 -79 54 0 30 -20 36 -40 12 -31 -38 29 -115 90 -115 78 0 101 51 55 125
-27 45 -32 75 -11 75 22 0 38 24 24 38 -16 16 -29 15 -55 -3z"/>
<path d="M10623 9455 c-13 -9 -23 -13 -23 -10 0 13 -90 -59 -95 -76 -13 -39
26 -55 45 -19 11 21 81 72 88 65 3 -3 -12 -30 -32 -61 -21 -31 -35 -62 -32
-70 7 -18 40 -18 76 1 27 14 30 14 54 -10 25 -25 86 -36 86 -14 0 5 4 8 9 5
18 -11 61 35 61 65 0 38 -26 89 -46 89 -19 0 -29 -26 -16 -43 5 -6 13 -22 16
-34 6 -18 1 -25 -23 -37 -37 -20 -59 -12 -63 22 -3 28 -23 33 -61 17 -16 -7
-16 -4 3 33 37 71 9 116 -47 77z"/>
<path d="M12477 9444 c-26 -8 -50 -21 -54 -30 -6 -16 12 -47 52 -90 14 -15 25
-30 25 -35 0 -10 -40 -23 -63 -20 -25 3 -34 -29 -12 -45 15 -11 24 -11 53 2
71 29 79 70 27 132 l-36 41 36 10 c20 5 42 8 48 6 19 -7 40 12 34 29 -8 20
-45 20 -110 0z"/>
<path d="M9422 9437 c-31 -14 -37 -50 -18 -100 9 -24 16 -50 16 -60 0 -20 -21
-22 -38 -5 -15 15 -35 -2 -30 -27 9 -49 82 -42 106 9 12 24 12 34 -2 70 -20
52 -20 76 -1 76 18 0 20 36 3 43 -7 2 -23 0 -36 -6z"/>
<path d="M9246 9415 c-29 -27 -33 -59 -12 -110 13 -30 13 -35 -1 -47 -13 -10
-18 -9 -29 7 -8 10 -14 23 -14 28 0 5 -6 4 -13 -2 -20 -16 -27 -2 -21 41 8 46
-11 51 -51 14 -14 -13 -34 -26 -45 -29 -17 -4 -18 -2 -10 14 6 10 24 29 40 41
32 24 39 45 16 54 -19 7 -74 -34 -92 -68 -23 -44 -18 -77 12 -84 14 -4 36 -2
50 5 22 10 24 8 24 -16 0 -23 3 -25 33 -20 26 4 36 1 45 -14 14 -22 59 -25 85
-6 25 18 29 59 11 103 l-16 39 31 26 c17 14 31 31 31 37 0 21 -46 13 -74 -13z"/>
<path d="M9591 9414 c-83 -70 -70 -176 27 -203 24 -7 34 -6 47 9 24 27 9 43
-35 38 -21 -2 -36 0 -34 4 3 5 0 8 -5 8 -22 0 -11 38 13 44 33 8 83 83 69 104
-16 27 -48 25 -82 -4z"/>
<path d="M11830 9403 c-52 -46 -52 -78 0 -79 19 0 43 3 53 8 14 7 17 4 17 -20
0 -43 32 -67 72 -56 44 13 43 38 0 42 -27 3 -32 7 -27 20 29 69 30 73 15 82
-8 5 -18 6 -23 3 -5 -3 -15 4 -23 16 -21 30 -38 26 -84 -16z m60 -17 c0 -2 -7
-7 -16 -10 -8 -3 -12 -2 -9 4 6 10 25 14 25 6z"/>
<path d="M12820 9399 c-19 -12 -44 -33 -55 -47 -11 -14 -30 -34 -42 -45 -27
-24 -29 -42 -8 -51 14 -5 36 14 78 66 6 9 24 23 39 33 l28 17 -6 -31 c-8 -37
19 -86 43 -77 8 3 24 -1 36 -9 27 -19 84 -19 121 0 15 8 29 15 31 15 3 0 25
-86 25 -99 0 -8 -785 -12 -2612 -13 l-2613 -3 2609 -2 c2073 -3 2611 -6 2618
-16 4 -6 8 -19 8 -28 0 -13 -7 -15 -47 -8 -120 20 -163 2 -163 -66 0 -74 49
-119 127 -117 86 1 126 54 125 164 l-1 68 1202 3 1202 2 -1207 3 c-1142 2
-1208 3 -1209 20 -1 9 0 25 1 36 1 11 -3 15 -9 12 -6 -4 -9 -1 -5 7 3 8 -5 39
-16 70 -25 66 -54 78 -65 27 -8 -34 -9 -35 -52 -45 -46 -9 -44 14 5 54 31 25
34 32 22 41 -8 5 -18 10 -22 10 -14 0 -77 -61 -83 -81 -11 -34 -27 -9 -25 40
2 25 2 52 1 59 -2 19 -42 14 -81 -9z m247 -344 c51 -7 53 -8 47 -33 -9 -37
-10 -39 -46 -56 -29 -15 -34 -15 -67 1 -46 23 -65 68 -36 89 10 8 26 12 34 10
9 -3 40 -8 68 -11z"/>
<path d="M10974 9403 c-7 -2 -22 -31 -35 -64 -18 -51 -20 -62 -8 -70 18 -11
31 4 57 68 15 39 17 54 9 61 -7 5 -17 7 -23 5z"/>
<path d="M12644 9373 c-3 -10 -15 -39 -27 -66 -15 -34 -18 -50 -10 -58 6 -6
16 -8 22 -4 20 12 52 86 49 112 -4 32 -26 42 -34 16z"/>
<path d="M8244 9032 c-28 -27 -55 -47 -61 -45 -5 2 -21 -5 -34 -16 -21 -17
-22 -23 -12 -40 10 -16 9 -27 -3 -57 -8 -20 -13 -43 -10 -51 3 -8 2 -12 -2 -9
-10 6 -76 -269 -67 -283 13 -23 35 -10 45 28 l10 39 31 -28 c16 -16 54 -36 83
-44 66 -19 86 -20 86 -3 0 15 -26 30 -81 47 -72 22 -101 77 -59 115 16 15 18
21 7 34 -10 14 -10 14 4 4 13 -10 23 -7 57 18 23 17 42 35 42 40 0 5 5 9 10 9
20 0 90 73 110 115 28 58 26 106 -6 144 -20 24 -34 31 -63 31 -30 0 -45 -8
-87 -48z m122 -17 c36 -55 -26 -148 -159 -243 l-46 -33 16 38 c8 21 17 56 18
78 2 22 7 51 13 65 12 31 106 120 126 120 9 0 23 -11 32 -25z"/>
<path d="M10576 9005 c-9 -20 -18 -52 -22 -73 -4 -20 -19 -71 -35 -114 -57
-156 -73 -304 -31 -296 13 3 18 19 23 78 4 44 21 118 41 180 83 249 86 260 53
260 -8 0 -21 -16 -29 -35z"/>
<path d="M10979 9013 c-10 -26 -28 -103 -48 -201 -5 -24 -10 -45 -12 -46 -2
-2 -30 -6 -62 -9 -67 -5 -92 -21 -64 -41 12 -9 30 -11 59 -6 47 9 64 4 50 -13
-8 -10 -23 -61 -27 -92 -1 -5 -6 -22 -13 -37 -6 -15 -12 -39 -14 -55 -2 -22 1
-28 16 -28 15 0 23 14 36 60 53 188 54 190 101 164 15 -7 24 -7 35 1 18 16 9
29 -32 46 -19 8 -34 18 -34 23 0 9 23 122 36 176 17 69 17 85 0 85 -9 0 -21
-12 -27 -27z"/>
<path d="M11613 9007 c-16 -25 -35 -83 -36 -112 -2 -24 2 -31 21 -33 18 -3 22
1 22 25 1 15 7 39 15 53 8 14 14 35 15 46 0 25 -25 39 -37 21z"/>
<path d="M10062 8998 c-7 -7 -12 -20 -12 -31 0 -10 -14 -70 -31 -133 -17 -64
-28 -122 -25 -130 3 -8 2 -14 -3 -14 -5 0 -14 -20 -20 -45 -11 -45 -11 -46 22
-80 42 -44 85 -47 134 -9 115 88 56 227 -65 152 l-35 -22 7 35 c9 42 9 44 41
154 14 49 25 100 25 112 0 25 -19 30 -38 11z m81 -320 c7 -23 -14 -68 -43 -88
-37 -26 -54 -25 -68 4 -9 20 -7 27 11 43 55 50 91 64 100 41z"/>
<path d="M11671 8959 c-12 -28 -21 -60 -19 -72 5 -38 31 -24 47 25 9 26 19 50
24 54 15 15 7 44 -12 44 -13 0 -25 -16 -40 -51z"/>
<path d="M13475 8950 c-3 -5 -13 -10 -22 -10 -28 0 -91 -60 -134 -128 -23 -37
-43 -69 -45 -71 -2 -2 -10 1 -17 8 -21 17 -50 2 -43 -22 3 -12 -4 -41 -14 -65
-11 -25 -20 -51 -20 -58 0 -26 35 -14 62 20 l28 35 52 -23 c84 -36 102 -45
121 -58 14 -11 19 -10 27 2 14 22 -25 56 -89 78 -98 33 -91 67 23 112 86 34
146 93 146 144 0 33 -59 62 -75 36z m25 -48 c0 -20 -36 -55 -80 -77 -27 -14
-52 -25 -55 -25 -3 0 5 15 17 33 29 45 118 97 118 69z"/>
<path d="M13875 8888 c-2 -7 -6 -31 -10 -53 -10 -60 -33 -124 -67 -183 -22
-39 -27 -56 -19 -66 17 -20 100 -3 159 34 57 35 73 64 48 88 -15 15 -20 15
-63 0 -26 -9 -48 -16 -49 -15 -3 3 37 130 47 150 6 11 6 25 -1 37 -12 22 -39
27 -45 8z m25 -243 c-14 -8 -29 -14 -35 -14 -5 0 1 6 15 14 14 8 30 14 35 14
6 0 -1 -6 -15 -14z"/>
<path d="M10336 8833 c-4 -9 -2 -21 3 -26 15 -15 46 -3 49 21 3 18 -1 22 -21
22 -14 0 -28 -7 -31 -17z"/>
<path d="M9855 8810 c-10 -17 20 -44 40 -36 9 3 15 14 13 23 -4 21 -43 30 -53
13z"/>
<path d="M9653 8782 c-23 -15 -45 -35 -48 -44 -7 -20 15 -65 44 -92 l20 -18
-22 -18 c-21 -17 -22 -17 -35 1 -15 22 -52 26 -52 6 0 -21 39 -57 61 -57 31 0
99 39 99 56 0 9 -16 34 -35 55 -19 22 -35 43 -35 49 0 5 20 21 45 36 25 14 44
31 42 38 -7 21 -42 16 -84 -12z"/>
<path d="M10717 8796 c-3 -8 0 -19 7 -25 18 -15 48 -3 44 18 -4 21 -44 27 -51
7z"/>
<path d="M8900 8775 c-38 -27 -97 -108 -103 -140 -6 -31 -43 -111 -72 -152
-30 -45 -33 -73 -6 -73 18 0 67 64 104 136 10 18 27 34 42 38 34 9 100 69 115
105 6 16 10 46 8 67 -3 33 -7 39 -28 42 -14 1 -40 -8 -60 -23z m50 -35 c0 -21
-30 -69 -56 -89 -58 -46 -60 -12 -3 53 40 45 59 57 59 36z"/>
<path d="M12110 8775 c-63 -14 -128 -25 -143 -25 -29 0 -48 -27 -28 -39 6 -4
41 -4 77 1 37 5 68 7 70 5 12 -12 4 -69 -19 -128 -19 -49 -23 -69 -14 -78 11
-11 -31 -17 -99 -13 -34 3 -56 -24 -32 -40 13 -8 207 -2 241 8 9 3 17 14 17
26 0 18 -5 20 -48 16 l-49 -3 13 40 c7 22 22 62 34 89 13 28 20 61 18 77 -3
16 -4 29 -4 29 6 3 83 11 121 13 43 2 50 5 50 22 0 29 -65 29 -205 0z"/>
<path d="M9343 8760 c-12 -5 -25 -16 -30 -25 -5 -9 -20 -22 -33 -28 -12 -7
-32 -29 -44 -49 -17 -30 -19 -39 -8 -50 10 -10 23 -1 68 50 31 34 60 62 66 62
6 0 8 -18 4 -47 -7 -52 4 -79 27 -70 10 4 16 26 19 69 7 91 -9 112 -69 88z"/>
<path d="M8643 8740 c-42 -25 -43 -58 -3 -103 17 -19 30 -37 30 -39 0 -5 -24
-9 -62 -9 -33 0 -44 -14 -28 -34 18 -21 56 -18 101 7 49 27 50 50 3 91 l-35
32 32 26 c19 15 29 31 25 37 -10 17 -26 15 -63 -8z"/>
<path d="M9085 8752 c-3 -3 -5 -12 -5 -20 0 -8 -11 -27 -25 -44 -47 -55 -22
-118 46 -118 39 0 89 45 89 80 0 50 -79 127 -105 102z m55 -81 c14 -27 13 -28
-14 -46 -46 -31 -66 3 -28 48 19 22 29 22 42 -2z"/>
<path d="M8430 8725 c-116 -86 -50 -212 86 -163 72 26 43 59 -32 38 -69 -20
-73 -2 -14 54 36 34 50 55 48 70 -4 31 -46 32 -88 1z"/>
<path d="M14170 8665 c-25 -35 -48 -64 -51 -65 -4 0 -9 27 -13 60 -6 52 -10
60 -28 60 -20 0 -21 -4 -15 -71 3 -39 11 -77 17 -85 13 -15 10 -20 -75 -117
-27 -31 -55 -57 -62 -57 -6 0 -14 -4 -18 -10 -8 -12 17 -51 31 -48 18 5 152
166 203 243 25 38 56 81 69 95 12 14 21 32 20 40 -7 33 -35 17 -78 -45z"/>
<path d="M13633 8702 c-6 -4 -14 -23 -18 -42 -9 -43 -22 -60 -46 -60 -21 0
-24 12 -9 40 7 13 6 21 -4 29 -36 30 -64 -69 -29 -104 35 -36 116 8 128 69 4
17 9 38 11 47 5 18 -16 31 -33 21z"/>
<path d="M10620 8668 c-21 -35 -35 -101 -25 -118 3 -5 15 -10 25 -10 21 0 34
29 24 54 -3 8 3 32 15 52 12 19 19 40 16 45 -12 18 -36 8 -55 -23z"/>
<path d="M10236 8660 c-26 -31 -43 -90 -31 -109 7 -12 35 -15 36 -3 3 33 12
58 30 83 20 28 20 59 0 59 -5 0 -21 -14 -35 -30z"/>
<path d="M11182 8662 c-15 -16 -39 -52 -54 -81 -28 -56 -38 -55 -36 2 1 40
-16 69 -37 61 -17 -7 -8 -133 11 -155 12 -14 6 -31 -45 -130 -77 -149 -95
-219 -56 -219 21 0 30 21 14 32 -11 7 -11 11 -1 15 13 5 45 73 38 81 -3 2 3
12 12 22 16 18 48 79 137 263 21 43 47 84 58 92 12 8 17 20 14 29 -9 23 -26
20 -55 -12z"/>
<path d="M9816 8663 c-14 -14 -36 -75 -30 -84 13 -22 43 -8 54 26 16 48 1 83
-24 58z"/>
<path d="M12294 8658 c-38 -61 -54 -102 -44 -112 7 -7 15 -7 24 -1 7 6 33 25
57 43 48 36 44 38 65 -33 8 -26 15 -30 48 -33 25 -2 36 0 31 7 -3 6 -1 11 5
11 7 0 10 6 7 13 -2 6 -15 12 -28 12 -18 0 -25 6 -27 25 -8 75 -32 95 -78 66
-16 -11 -23 -12 -22 -4 4 17 -28 22 -38 6z"/>
<path d="M9802 7763 c1054 -2 2782 -2 3840 0 1058 1 195 2 -1917 2 -2112 0
-2977 -1 -1923 -2z"/>
<path d="M8268 7623 c-14 -16 -47 -69 -72 -120 -43 -87 -48 -93 -86 -103 -37
-10 -55 -30 -27 -30 27 0 39 -17 29 -37 -8 -15 -8 -23 1 -32 9 -10 9 -11 -4
-6 -18 7 -69 -62 -69 -94 0 -36 40 -33 46 4 1 6 18 37 38 68 20 31 32 57 26
57 -5 0 -10 4 -10 10 0 5 6 7 14 4 7 -3 16 2 19 10 4 9 15 16 26 16 11 0 22 4
26 10 3 5 15 6 26 2 17 -7 20 -18 23 -82 4 -83 19 -134 39 -127 13 4 14 40 2
140 -7 64 -7 67 13 67 24 0 48 35 32 45 -6 3 -19 4 -29 0 -11 -3 -24 1 -32 12
-8 9 -9 14 -3 10 17 -10 27 174 11 191 -11 10 -18 7 -39 -15z m0 -198 c-2 -2
-16 -5 -33 -8 -26 -4 -30 -1 -31 19 -1 13 2 22 6 19 4 -2 18 16 31 40 l24 45
3 -56 c2 -31 2 -58 0 -59z"/>
<path d="M9847 7508 c-4 -79 -10 -155 -13 -170 -6 -26 -7 -26 -30 -11 -57 37
-110 -24 -121 -142 -6 -62 -5 -65 20 -76 22 -10 31 -9 52 5 31 20 79 91 71
105 -4 5 2 18 12 28 35 33 47 101 54 313 3 80 2 85 -18 88 -20 3 -21 -2 -27
-140z m-54 -232 c16 -12 17 -18 6 -38 -19 -36 -60 -88 -70 -88 -19 0 -2 95 24
128 12 15 17 15 40 -2z"/>
<path d="M11851 7603 c-6 -21 -15 -60 -21 -88 -32 -142 -28 -136 -71 -129 -31
5 -40 3 -45 -11 -8 -21 11 -35 49 -35 18 0 26 -4 21 -11 -3 -6 -6 -43 -6 -82
1 -65 4 -74 27 -94 32 -28 65 -29 96 -4 30 24 20 35 -28 33 -45 -2 -53 9 -53
70 0 69 6 78 54 78 60 0 86 10 86 31 0 17 -8 19 -61 19 -54 0 -60 2 -54 18 14
35 54 226 49 234 -12 20 -34 5 -43 -29z"/>
<path d="M11141 7607 c-6 -6 -11 -22 -11 -36 0 -15 -7 -61 -15 -104 -8 -43
-15 -81 -15 -83 0 -2 -16 -4 -35 -4 -28 0 -35 -4 -35 -20 0 -16 7 -20 31 -20
l31 0 -7 -62 c-3 -35 -9 -76 -12 -91 -4 -26 -2 -28 19 -25 16 2 24 10 26 28 1
14 7 55 13 91 9 60 12 66 32 63 12 -2 43 -6 69 -9 l46 -6 -24 -42 c-27 -48
-30 -79 -9 -97 26 -22 47 -5 40 34 -6 29 -2 38 34 76 32 34 44 41 53 32 16
-16 48 -15 48 1 0 39 -75 62 -100 32 -10 -12 -15 -13 -28 -3 -8 7 -42 15 -76
18 l-61 5 2 35 c4 105 9 150 16 150 4 0 7 9 7 19 0 23 -23 34 -39 18z"/>
<path d="M8684 7571 c-84 -63 -145 -172 -150 -268 -2 -34 1 -65 6 -68 6 -4 10
0 10 7 0 10 3 9 9 -2 6 -8 7 -18 5 -22 -7 -11 38 -27 90 -32 45 -5 172 16 219
35 26 11 36 32 19 43 -16 10 -82 -17 -83 -33 0 -9 -3 -11 -5 -5 -3 8 -33 10
-94 6 -74 -4 -94 -2 -116 13 -24 16 -26 21 -20 64 9 63 49 141 98 191 l42 41
16 -43 c22 -59 44 -61 59 -4 16 63 14 84 -8 96 -32 16 -55 12 -97 -19z"/>
<path d="M13524 7516 c-3 -8 -1 -30 5 -48 5 -18 11 -53 13 -78 2 -40 0 -45
-18 -42 -27 4 -84 -36 -107 -75 -46 -80 22 -150 107 -112 45 21 76 118 39 120
-14 0 -12 3 5 10 21 8 23 15 21 56 -1 27 -4 52 -7 57 -3 5 -6 25 -7 45 -4 57
-11 76 -28 79 -10 2 -20 -3 -23 -12z m12 -248 c-9 -60 -67 -104 -82 -63 -11
28 6 65 39 85 45 28 50 25 43 -22z"/>
<path d="M9400 7408 c-25 -5 -76 -11 -115 -14 -80 -7 -91 -13 -72 -38 12 -17
20 -17 93 -6 43 6 96 14 117 17 42 6 56 19 36 37 -10 9 -27 10 -59 4z"/>
<path d="M13733 7394 c-8 -21 13 -42 28 -27 13 13 5 43 -11 43 -6 0 -13 -7
-17 -16z"/>
<path d="M12128 7378 c-8 -7 -25 -29 -37 -50 -21 -35 -21 -38 -5 -77 28 -71
119 -115 146 -72 7 12 20 21 29 21 9 0 27 9 40 19 19 16 21 22 12 32 -10 10
-20 9 -48 -4 -22 -11 -33 -22 -29 -29 4 -6 3 -8 -4 -4 -6 3 -13 2 -16 -3 -9
-14 -42 -2 -66 24 -23 25 -20 45 8 45 29 0 82 38 82 59 0 41 -77 67 -112 39z
m52 -38 c0 -5 -7 -10 -15 -10 -8 0 -15 -7 -15 -15 0 -8 -5 -15 -11 -15 -10 0
-5 13 14 38 11 14 27 16 27 2z"/>
<path d="M13056 7345 c-8 -8 -18 -15 -23 -15 -17 0 -102 -96 -108 -122 -5 -21
-1 -33 19 -53 23 -23 34 -26 74 -23 39 3 47 7 47 23 0 15 -6 20 -25 18 -44 -3
-70 6 -70 26 0 18 55 74 115 117 17 12 26 25 21 32 -10 16 -32 15 -50 -3z"/>
<path d="M9967 7339 c-46 -27 -87 -171 -54 -196 20 -16 57 -22 57 -10 0 8 3 8
8 -1 11 -16 72 -5 72 14 0 8 6 11 16 7 12 -4 15 -2 12 8 -4 10 -18 13 -48 11
l-44 -4 33 37 c30 35 51 74 51 96 0 5 -9 18 -20 29 -22 22 -55 25 -83 9z m53
-48 c0 -11 -16 -36 -35 -57 -20 -21 -33 -44 -30 -51 2 -8 0 -11 -5 -8 -23 14
-7 69 33 113 25 27 37 28 37 3z"/>
<path d="M10357 7326 c-34 -23 -35 -23 -40 -5 -6 23 -49 26 -67 4 -11 -14 -14
-13 -25 2 -11 15 -15 15 -29 4 -9 -7 -16 -23 -16 -35 0 -13 -7 -44 -16 -69
-17 -49 -14 -77 8 -77 7 0 30 30 52 65 21 36 40 65 42 65 2 0 3 -14 2 -32 -4
-50 26 -49 70 2 l36 43 11 -39 c8 -28 17 -40 33 -42 25 -4 42 25 22 38 -6 4
-12 24 -12 44 0 52 -25 63 -71 32z"/>
<path d="M10835 7343 c-39 -8 -74 -25 -80 -40 -8 -22 20 -61 61 -85 26 -15 32
-23 22 -29 -18 -12 -56 -11 -63 1 -11 18 -45 11 -45 -9 0 -44 61 -60 124 -32
67 29 60 61 -28 115 -37 23 -18 39 37 30 36 -6 38 -4 35 16 -3 25 -31 39 -63
33z"/>
<path d="M10579 7333 c-12 -3 -15 -11 -11 -25 4 -16 2 -19 -9 -13 -8 5 -11 5
-7 1 3 -4 0 -27 -9 -51 -11 -34 -12 -49 -3 -65 41 -76 172 -14 156 74 -11 57
-65 93 -117 79z m67 -72 c15 -30 0 -59 -34 -68 -33 -8 -36 1 -22 52 14 51 36
57 56 16z"/>
<path d="M14105 7322 c-32 -26 -55 -64 -55 -89 0 -47 73 -68 130 -38 l30 15
35 -54 c19 -30 35 -60 35 -66 0 -7 -981 -11 -3202 -13 l-3203 -2 3207 -3
c2870 -2 3207 -4 3202 -17 -5 -12 -10 -13 -20 -4 -7 6 -17 8 -22 5 -4 -2 -30
-7 -56 -11 -73 -8 -136 -40 -136 -69 0 -44 31 -69 94 -74 52 -4 56 -3 50 14
-4 14 -4 16 4 5 12 -17 47 -9 92 21 33 23 43 37 54 71 4 11 16 17 36 17 21 0
29 4 24 12 -5 8 -2 9 9 5 11 -4 17 -1 17 8 0 13 76 15 568 17 l567 3 -554 2
c-411 2 -557 6 -562 15 -10 16 -47 17 -60 1 -20 -23 -56 -16 -67 15 -5 15 -26
52 -47 82 -20 30 -40 71 -43 90 -3 19 -10 38 -16 42 -15 10 -36 -11 -36 -36 0
-41 -48 -76 -78 -57 -11 6 -7 16 18 45 19 21 30 42 26 51 -7 19 -16 19 -41 -3z
m189 -316 c-15 -38 -122 -74 -169 -56 -14 5 -25 14 -25 19 0 13 52 29 125 40
33 5 63 9 67 10 4 0 5 -5 2 -13z"/>
<path d="M13889 7313 c-34 -22 -91 -102 -85 -119 10 -25 32 -15 65 31 18 25
35 45 38 45 3 0 3 -23 0 -52 -7 -56 3 -78 35 -78 23 0 36 29 18 40 -9 5 -11
21 -7 50 10 76 -18 111 -64 83z"/>
<path d="M13200 7280 c-47 -66 1 -143 77 -124 51 12 56 44 14 75 -23 17 -28
26 -20 36 17 19 3 43 -25 43 -16 0 -32 -11 -46 -30z m45 -70 c3 -5 2 -10 -4
-10 -5 0 -13 5 -16 10 -3 6 -2 10 4 10 5 0 13 -4 16 -10z"/>
<path d="M11456 7278 c-20 -29 -20 -72 0 -92 14 -14 18 -14 45 -1 17 9 29 11
29 5 0 -5 9 -10 20 -10 17 0 20 7 20 40 0 34 -3 40 -22 40 -12 0 -30 -7 -40
-17 -26 -23 -32 -11 -8 17 11 12 17 27 14 31 -10 17 -43 9 -58 -13z"/>
<path d="M13685 7250 c-12 -19 -8 -82 6 -90 20 -13 39 8 39 44 0 42 -29 72
-45 46z"/>
<path d="M12365 6896 c-72 -19 -149 -58 -153 -78 -5 -24 15 -23 82 7 31 14 63
25 71 25 8 0 15 3 15 8 0 12 151 14 181 1 25 -10 29 -17 29 -48 0 -74 -80
-137 -163 -129 -27 3 -33 9 -47 48 -20 57 -46 62 -43 8 2 -38 2 -38 -37 -38
-33 0 -40 -3 -40 -20 0 -14 9 -21 36 -26 33 -6 35 -8 28 -38 -3 -17 -19 -67
-35 -110 -16 -44 -25 -84 -21 -88 21 -21 42 9 73 105 18 56 36 106 40 110 4 5
20 2 37 -7 49 -25 70 -90 64 -198 l-2 -38 -402 0 -403 0 -2 28 c-1 15 -10 53
-20 83 -15 46 -22 54 -43 54 -20 0 -31 -11 -53 -53 -23 -41 -26 -56 -17 -67
17 -20 34 -9 49 31 7 20 15 33 18 31 2 -3 10 -28 18 -56 l13 -51 -106 0 -107
0 0 54 c0 30 2 52 4 50 2 -2 11 5 19 17 10 14 11 24 4 31 -31 31 -78 -48 -68
-114 l6 -38 -563 0 -564 0 -27 90 c-22 72 -31 90 -46 90 -13 0 -20 -8 -22 -27
-2 -21 -10 -29 -35 -37 -23 -6 -37 -5 -47 3 -21 17 -9 39 22 43 36 4 38 41 3
46 -29 4 -81 -43 -81 -73 0 -36 36 -65 81 -65 22 0 49 4 59 10 15 8 20 5 29
-22 22 -61 40 -58 -311 -58 -263 0 -319 3 -299 13 13 6 25 20 27 29 2 13 -4
15 -32 11 -34 -6 -84 17 -84 38 0 5 18 27 40 47 43 42 45 73 8 93 -45 24 -107
-66 -94 -134 8 -43 39 -76 79 -85 18 -4 -348 -9 -813 -12 l-845 -5 1185 -3
c690 -1 1179 -6 1171 -11 -10 -7 -12 -20 -7 -50 6 -39 5 -41 -19 -41 -38 0
-83 -26 -99 -58 -23 -46 -3 -107 39 -118 60 -15 110 23 121 92 6 41 8 44 38
45 42 1 61 10 63 32 1 16 -5 18 -48 15 l-49 -3 0 32 c0 17 -3 38 -6 47 -6 15
96 16 1104 16 974 0 1111 -2 1122 -15 7 -8 19 -15 26 -15 8 0 14 7 14 15 0 13
38 15 284 15 l284 0 -35 -80 c-38 -89 -46 -135 -23 -135 9 0 24 24 38 60 13
33 34 80 47 105 l24 45 433 -2 c238 0 462 -1 498 -2 36 0 387 3 780 7 l715 7
-562 3 c-336 1 -563 6 -563 11 0 5 -13 23 -30 39 -16 17 -30 37 -30 45 0 9 -8
18 -17 20 -14 4 -12 5 5 6 23 1 28 16 12 41 -8 13 -16 12 -55 -10 -63 -34 -82
-56 -68 -78 7 -12 23 -17 50 -16 33 0 42 -4 56 -28 l16 -28 -100 0 c-95 0 -99
1 -89 19 21 41 11 95 -36 184 -49 96 -51 91 31 104 42 7 50 12 51 31 1 21 -1
22 -60 16 -33 -3 -65 -5 -71 -4 -71 7 -90 4 -90 -15 0 -12 8 -21 20 -23 14 -3
35 -34 73 -111 64 -131 66 -153 15 -180 -48 -25 -129 -1 -135 41 -2 15 -11 24
-26 26 -32 5 -39 -24 -13 -59 l22 -29 -416 0 -416 0 32 58 c18 31 41 66 51 78
17 19 17 22 2 35 -15 12 -20 9 -45 -20 -15 -19 -26 -38 -24 -42 6 -9 -24 -21
-36 -13 -5 3 -9 25 -9 50 0 38 -3 45 -17 42 -14 -2 -19 -15 -21 -60 -2 -47 0
-59 17 -70 14 -10 18 -21 14 -36 -5 -22 -6 -22 -293 -22 l-287 0 -5 83 c-3 57
-11 94 -26 124 l-21 41 37 15 c52 21 88 57 70 69 -10 6 -8 8 7 6 15 -2 23 6
34 38 16 45 10 80 -18 115 -17 22 -28 24 -108 26 -48 1 -110 -4 -138 -11z
m-2835 -460 c0 -2 -7 -7 -16 -10 -8 -3 -12 -2 -9 4 6 10 25 14 25 6z m690
-231 c0 -26 -6 -39 -26 -51 -23 -16 -27 -16 -41 -1 -21 21 -9 65 20 77 39 16
47 12 47 -25z"/>
<path d="M8096 6773 c-6 -21 -23 -121 -30 -173 -3 -19 -10 -49 -16 -67 -16
-43 -9 -87 13 -91 13 -3 25 13 47 60 17 35 30 68 30 73 0 6 16 28 36 50 l35
40 -20 -40 c-38 -81 -30 -122 31 -152 67 -33 87 -37 94 -19 8 22 -13 46 -41
46 -13 0 -33 8 -45 18 -28 23 -22 59 21 128 39 60 43 98 11 102 -17 3 -39 -13
-85 -60 l-64 -63 10 50 c16 77 15 109 -5 113 -9 2 -19 -5 -22 -15z"/>
<path d="M9830 6772 c0 -6 -7 -9 -15 -6 -8 4 -15 4 -15 2 0 -7 67 -195 73
-205 21 -34 -52 -103 -107 -103 -31 0 -32 4 -5 41 14 21 29 29 50 29 34 0 40
24 10 40 -60 32 -157 -100 -109 -148 27 -27 107 -7 165 42 29 24 32 33 32 77
-1 26 -5 46 -9 44 -4 -3 -10 2 -13 9 -3 8 -1 16 4 18 7 2 2 25 -10 58 -12 30
-21 62 -21 71 0 9 -7 22 -15 29 -10 8 -15 9 -15 2z"/>
<path d="M12835 6693 c0 -85 -17 -189 -36 -226 -16 -30 7 -47 63 -47 54 0 121
29 138 59 19 36 12 79 -16 98 -26 17 -29 16 -94 -11 -14 -6 -16 8 -15 101 0
101 -1 108 -20 111 -19 3 -20 -3 -20 -85z m133 -169 c-5 -25 -49 -54 -93 -61
l-40 -6 20 23 c44 50 120 79 113 44z"/>
<path d="M9321 6743 c-17 -33 -33 -137 -35 -220 -1 -66 2 -86 16 -100 28 -27
40 -6 29 51 -11 58 -7 101 19 198 10 39 17 76 14 80 -9 14 -33 9 -43 -9z"/>
<path d="M11434 6685 c-8 -21 2 -45 20 -45 19 0 29 29 15 46 -15 18 -28 18
-35 -1z"/>
<path d="M8435 6590 c-15 -17 -19 -17 -32 -4 -27 26 -38 10 -38 -52 0 -74 18
-81 60 -21 l30 42 3 -42 c3 -40 5 -43 32 -43 l29 0 -6 58 c-2 31 -6 63 -9 70
-5 19 -49 14 -69 -8z"/>
<path d="M8798 6595 c-33 -19 -38 -55 -8 -55 11 0 20 5 20 10 0 6 16 10 36 10
l36 0 -31 -42 c-54 -73 -31 -99 43 -49 l45 31 29 -30 c35 -34 47 -36 101 -14
57 22 96 89 70 120 -14 18 -39 1 -39 -26 0 -49 -101 -80 -108 -33 -5 33 -26
47 -53 33 -19 -10 -21 -10 -16 3 16 43 -71 72 -125 42z"/>
<path d="M8606 6569 c-40 -47 -34 -116 9 -120 61 -6 105 23 105 67 0 27 -51
84 -75 84 -7 0 -25 -14 -39 -31z m63 -66 c-14 -16 -49 -18 -49 -2 0 6 5 19 11
30 10 20 12 20 30 3 14 -13 16 -20 8 -31z"/>
<path d="M10416 6548 c-20 -23 -36 -45 -36 -50 0 -4 -7 -8 -15 -8 -8 0 -15 -9
-15 -20 0 -11 7 -20 15 -20 9 0 18 -7 21 -15 10 -24 72 -38 150 -33 70 5 76 7
110 42 26 26 33 41 26 48 -15 15 -63 0 -69 -21 -5 -20 -47 -31 -113 -31 -46 0
-71 15 -41 25 32 10 81 55 81 73 -1 28 -26 52 -53 52 -18 0 -37 -13 -61 -42z
m46 -28 c-12 -12 -22 -18 -22 -14 0 12 33 45 38 39 3 -3 -4 -14 -16 -25z"/>
<path d="M14708 6559 c-34 -13 -41 -34 -23 -69 17 -33 67 -49 91 -29 12 10 20
9 40 -2 38 -20 128 -18 132 2 2 13 -8 17 -47 22 -59 7 -99 30 -103 60 -3 25
-45 33 -90 16z m44 -51 c-9 -9 -15 -9 -24 0 -9 9 -7 12 12 12 19 0 21 -3 12
-12z"/>
<path d="M13523 6550 c-26 -10 -30 -42 -9 -59 11 -9 17 -8 29 4 9 8 23 15 31
15 9 0 16 6 16 13 0 9 2 9 8 0 4 -7 27 -15 50 -19 38 -6 42 -5 42 14 0 12 -3
23 -7 25 -18 10 -140 16 -160 7z"/>
<path d="M14567 6553 c-4 -3 -7 -24 -7 -45 0 -47 -16 -47 -39 0 -18 35 -39 48
-55 32 -13 -13 18 -74 52 -101 48 -37 97 -13 91 44 -1 12 1 30 5 39 4 9 5 22
1 28 -7 11 -38 14 -48 3z"/>
<path d="M12625 6504 c-26 -63 -1 -104 64 -104 34 0 79 35 82 65 5 37 -10 75
-30 75 -21 0 -36 -26 -21 -35 17 -11 11 -44 -11 -55 -37 -20 -51 -6 -43 45 5
37 4 45 -10 45 -9 0 -22 -16 -31 -36z"/>
<path d="M10910 6164 c-146 -19 -162 -24 -158 -48 2 -12 10 -20 17 -18 22 5
206 30 207 28 1 0 11 -40 22 -88 26 -103 28 -197 7 -238 -18 -35 -28 -37 -55
-10 -22 22 -90 152 -90 173 0 19 -20 36 -36 30 -8 -3 -14 -12 -14 -21 0 -30
90 -200 117 -222 39 -30 82 -24 109 17 40 60 41 147 3 287 -22 81 -18 87 49
75 49 -10 69 -1 59 25 -8 19 -124 25 -237 10z"/>
<path d="M14482 6168 c-30 -37 -46 -218 -19 -218 8 0 9 -3 1 -8 -6 -4 -14 -33
-17 -64 -5 -53 -3 -59 19 -77 72 -56 184 -48 184 13 -1 35 -37 104 -58 110
-11 4 -37 0 -56 -8 -36 -15 -36 -15 -36 10 0 17 -4 23 -12 18 -7 -5 -8 -3 -3
7 5 7 8 31 7 54 -2 22 4 66 13 98 8 32 15 62 15 67 0 14 -26 12 -38 -2z m113
-318 c14 -28 14 -31 0 -36 -20 -8 -85 2 -98 15 -6 6 2 17 24 30 45 28 56 26
74 -9z"/>
<path d="M14729 6164 c-9 -12 -9 -23 2 -57 10 -30 13 -84 12 -184 -2 -113 0
-142 11 -146 8 -3 19 0 24 6 13 16 11 47 -2 47 -8 0 -8 3 0 8 21 13 24 141 6
239 -16 93 -30 115 -53 87z"/>
<path d="M11290 6154 c-86 -30 -108 -73 -76 -149 11 -24 35 -47 84 -79 69 -44
112 -87 112 -112 0 -19 -33 -34 -77 -34 -53 0 -88 20 -88 50 0 28 -22 34 -38
9 -16 -25 0 -67 33 -84 45 -23 151 -20 184 6 49 38 25 119 -51 167 -18 12 -49
32 -68 45 -37 23 -70 79 -61 102 3 8 22 21 42 30 30 12 39 13 46 3 4 -7 8 -16
8 -19 0 -3 11 -18 25 -33 21 -23 28 -26 40 -16 8 7 15 29 15 50 0 65 -53 91
-130 64z"/>
<path d="M8344 6126 c-17 -7 -40 -26 -52 -40 l-21 -27 -3 23 c-2 15 -10 23
-23 23 -19 0 -20 -6 -17 -95 1 -52 7 -129 13 -170 5 -41 12 -90 14 -107 l4
-33 -192 -3 c-137 -2 -102 -3 121 -5 l312 -2 -19 -37 c-26 -53 -34 -95 -22
-126 18 -48 38 -33 43 32 3 41 12 70 28 95 l25 35 653 1 653 0 -27 -51 c-23
-42 -26 -52 -14 -59 20 -12 43 11 66 65 l18 45 1674 0 c1670 0 1674 0 1669
-20 -3 -11 -1 -18 4 -14 5 3 9 0 9 -5 0 -6 -4 -11 -10 -11 -13 0 -13 -66 0
-91 6 -10 17 -19 26 -19 18 0 35 41 27 69 -3 11 -2 37 1 56 l7 35 1127 3 1127
2 -1127 3 -1128 2 0 24 c0 44 8 52 48 48 49 -4 124 34 136 69 13 38 -1 97 -25
104 -67 21 -191 -84 -203 -172 -2 -16 -7 -38 -11 -50 l-7 -23 -1668 0 c-1659
0 -1668 0 -1673 20 -3 11 -13 20 -22 20 -9 0 -19 -9 -22 -20 -5 -20 -14 -20
-529 -20 -445 0 -524 2 -524 14 0 8 -3 16 -7 19 -5 2 -2 2 6 0 10 -2 12 7 9
37 -2 22 0 40 4 40 5 0 8 8 8 19 0 10 9 21 21 24 15 4 19 2 15 -9 -3 -8 0 -14
7 -14 8 0 6 -4 -3 -10 -13 -8 -13 -13 0 -37 21 -37 50 -40 88 -9 16 15 32 26
35 26 2 0 7 -14 11 -31 4 -22 11 -30 23 -27 25 5 32 105 8 114 -20 8 -68 -12
-91 -37 -9 -10 -21 -19 -26 -19 -13 0 -9 54 7 93 16 40 19 183 3 193 -21 13
-37 -23 -42 -94 -6 -80 -10 -92 -31 -92 -11 0 -13 11 -7 53 4 28 7 77 7 107 0
48 -2 55 -20 55 -18 0 -20 -7 -20 -78 0 -42 -3 -77 -7 -77 -4 0 -8 -15 -10
-32 -2 -28 -8 -34 -31 -36 -15 -2 -41 4 -59 12 -42 21 -50 20 -46 -6 4 -29 44
-49 90 -46 33 3 37 1 33 -17 -5 -21 -13 -88 -14 -117 -1 -16 -13 -18 -106 -18
l-105 0 17 28 c9 15 30 44 46 64 28 37 29 58 2 58 -14 0 -85 -90 -85 -109 0
-6 -4 -11 -10 -11 -5 0 -9 3 -8 8 2 4 -5 26 -15 50 -12 30 -23 42 -37 42 -27
0 -25 -20 5 -80 l25 -50 -102 0 -103 0 1 41 c1 23 -2 57 -6 75 l-8 34 42 0
c29 0 56 9 87 29 122 77 165 169 106 228 -21 22 -37 27 -84 30 -35 2 -70 -2
-89 -11z m143 -47 c36 -31 -15 -114 -104 -166 -48 -28 -93 -26 -93 5 0 10 -5
23 -11 29 -14 14 34 106 66 127 40 27 112 29 142 5z m4963 -203 c0 -30 -4 -36
-40 -50 -24 -9 -47 -13 -60 -8 -20 7 -20 8 7 34 23 22 79 58 91 58 1 0 2 -15
2 -34z"/>
<path d="M12291 6097 c-6 -6 -11 -40 -11 -76 0 -37 -9 -103 -20 -148 -29 -122
-14 -143 50 -70 l38 42 13 -28 c14 -31 60 -60 81 -52 7 3 31 -4 53 -15 46 -23
81 -26 100 -6 19 19 0 36 -40 36 -18 0 -35 3 -38 6 -7 7 19 59 40 82 16 17 2
56 -22 60 -41 9 -95 -47 -95 -98 0 -31 -22 -20 -42 20 -22 43 -42 54 -69 39
-20 -10 -21 -9 -15 12 4 13 9 63 13 110 5 71 3 87 -9 92 -9 3 -21 0 -27 -6z"/>
<path d="M14282 6043 c3 -40 30 -58 41 -28 9 22 -10 65 -28 65 -13 0 -15 -9
-13 -37z"/>
<path d="M14026 5984 c-9 -8 -16 -19 -16 -24 0 -10 61 -70 72 -70 4 0 8 -6 8
-14 0 -21 -26 -27 -47 -11 -25 20 -43 18 -43 -3 0 -46 73 -68 118 -36 35 24
29 66 -15 103 l-38 32 43 -6 c37 -6 42 -5 42 13 0 11 -7 23 -16 26 -30 12 -93
6 -108 -10z"/>
<path d="M13818 5983 c-32 -5 -52 -27 -44 -48 3 -8 22 -25 41 -37 33 -19 35
-22 21 -37 -9 -8 -31 -15 -49 -16 -25 0 -33 -5 -35 -21 -4 -29 30 -37 80 -17
62 25 77 76 33 112 l-26 20 23 3 c13 2 33 -1 46 -6 32 -13 48 11 25 36 -16 18
-50 21 -115 11z"/>
<path d="M14983 5979 c-17 -5 -40 -20 -50 -32 -10 -13 -23 -22 -29 -20 -6 2
-17 -4 -25 -13 -11 -14 -11 -18 3 -28 8 -6 18 -25 22 -42 4 -17 18 -42 32 -55
23 -21 35 -24 102 -23 111 0 213 37 185 65 -7 7 -27 5 -68 -6 -72 -21 -167
-24 -189 -6 -26 22 -19 40 22 50 55 15 82 38 82 70 0 48 -23 59 -87 40z m33
-48 c-8 -12 -46 -21 -46 -11 0 9 18 18 38 19 7 1 11 -3 8 -8z"/>
<path d="M11918 5934 c-34 -18 -54 -52 -40 -66 7 -7 19 -4 38 11 52 41 59 23
14 -34 -26 -33 -29 -41 -17 -52 10 -10 20 -11 40 -4 15 6 27 14 27 19 0 4 9 8
20 8 14 0 18 -5 15 -17 -4 -11 4 -25 21 -38 22 -17 36 -20 67 -16 83 13 111
40 86 87 -7 12 -12 36 -13 53 -1 25 -5 30 -26 30 -23 0 -25 -3 -22 -35 2 -19
8 -43 13 -53 15 -26 2 -37 -43 -37 -34 0 -39 2 -33 18 4 9 8 26 9 37 1 16 -5
20 -34 20 -34 0 -36 2 -32 29 8 50 -37 69 -90 40z"/>
<path d="M13608 5927 c-16 -6 -28 -19 -28 -28 0 -10 -4 -21 -10 -24 -17 -10
-11 -61 8 -78 21 -19 83 -22 113 -7 26 15 24 52 -5 79 -14 13 -26 33 -28 44
-4 25 -15 28 -50 14z m52 -94 c0 -15 -28 -17 -49 -4 -12 8 -12 12 -2 25 10 12
16 13 32 3 10 -6 19 -17 19 -24z"/>
<path d="M12647 5888 c-3 -18 -9 -48 -13 -65 -6 -29 -4 -33 15 -33 11 0 21 4
21 10 0 13 52 60 67 60 7 0 15 -12 19 -27 3 -16 9 -41 13 -58 8 -32 35 -45 44
-21 6 15 -5 69 -25 119 -12 31 -52 46 -80 28 -14 -9 -18 -8 -18 4 0 8 -8 15
-19 15 -13 0 -20 -9 -24 -32z"/>
<path d="M14265 5880 c-21 -40 -16 -75 10 -75 18 0 29 25 38 85 4 29 -32 22
-48 -10z"/>
<path d="M9310 5885 c-15 -17 -8 -91 10 -109 8 -8 21 -5 49 11 l39 22 6 -24
c3 -13 20 -33 36 -45 39 -28 110 -21 110 11 0 16 -7 19 -45 19 -34 0 -47 5
-55 20 -6 11 -8 25 -5 31 10 15 -3 59 -17 59 -6 0 -26 -11 -44 -25 -18 -14
-35 -25 -38 -25 -2 0 -6 14 -8 32 -3 36 -19 46 -38 23z"/>
<path d="M9113 5873 c-17 -6 -16 -71 0 -103 26 -51 105 -62 128 -18 14 26 -5
82 -38 108 -24 19 -63 25 -90 13z m67 -53 c25 -25 26 -50 1 -50 -22 0 -26 4
-35 43 -8 32 6 35 34 7z"/>
<path d="M9802 5003 c1054 -2 2782 -2 3840 0 1058 1 195 2 -1917 2 -2112 0
-2977 -1 -1923 -2z"/>
<path d="M9802 3613 c1054 -2 2782 -2 3840 0 1058 1 195 2 -1917 2 -2112 0
-2977 -1 -1923 -2z"/>
<path d="M9797 2923 c1058 -2 2788 -2 3845 0 1058 1 193 2 -1922 2 -2115 0
-2980 -1 -1923 -2z"/>
<path d="M9797 2233 c1057 -2 2789 -2 3850 0 1060 1 196 2 -1922 2 -2117 0
-2985 -1 -1928 -2z"/>
<path d="M9797 1543 c1058 -2 2788 -2 3845 0 1058 1 193 2 -1922 2 -2115 0
-2980 -1 -1923 -2z"/>
<path d="M9802 853 c1054 -2 2782 -2 3840 0 1058 1 195 2 -1917 2 -2112 0
-2977 -1 -1923 -2z"/>
</g>
</svg>
