<?xml version="1.0" standalone="no"?>
<!DOCTYPE svg PUBLIC "-//W3C//DTD SVG 20010904//EN"
 "http://www.w3.org/TR/2001/REC-SVG-20010904/DTD/svg10.dtd">
<svg version="1.0" xmlns="http://www.w3.org/2000/svg"
 width="1618.000000pt" height="1214.000000pt" viewBox="0 0 1618.000000 1214.000000"
 preserveAspectRatio="xMidYMid meet">

<g transform="translate(0.000000,1214.000000) scale(0.100000,-0.100000)"
fill="#000000" stroke="none">
<path d="M630 6040 l0 -5190 3310 0 3310 0 0 3588 0 3589 29 104 c16 57 32
126 36 152 7 47 7 49 -16 45 -21 -3 -25 -11 -32 -57 -4 -30 -10 -57 -12 -60
-3 -2 -5 676 -5 1507 l0 1512 -3310 0 -3310 0 0 -5190z m6610 3642 l0 -1538
-25 -75 c-32 -98 -41 -154 -26 -164 19 -11 38 12 39 46 0 17 3 34 6 37 3 3 6
-1600 6 -3561 l0 -3567 -3300 0 -3300 0 0 5180 0 5180 3300 0 3300 0 0 -1538z"/>
<path d="M6313 10942 c-12 -8 -18 -133 -18 -354 0 -123 3 -151 17 -164 24 -24
41 -8 34 31 -8 43 -8 337 0 417 5 52 4 66 -8 71 -8 3 -20 2 -25 -1z"/>
<path d="M6721 10833 c0 -27 -3 -59 -7 -73 -5 -14 -9 -69 -10 -122 -1 -54 -6
-102 -9 -108 -12 -20 5 -76 29 -99 38 -36 92 -44 143 -21 53 23 68 53 59 115
-8 48 -51 109 -86 120 -26 8 -57 -10 -80 -48 l-20 -32 0 59 c0 33 7 88 16 123
19 78 13 133 -16 133 -17 0 -20 -7 -19 -47z m140 -263 c30 -43 33 -85 8 -109
-26 -24 -76 -28 -102 -8 -17 11 -17 15 -2 57 33 93 60 110 96 60z"/>
<path d="M4320 10857 c-46 -23 -39 -73 20 -142 75 -87 121 -185 98 -212 -20
-25 -108 1 -140 41 -16 19 -18 20 -33 5 -23 -23 -9 -45 48 -74 67 -33 139 -35
161 -3 18 25 21 74 6 83 -5 3 -7 11 -4 18 5 15 -56 120 -95 162 -33 35 -55 74
-47 83 7 6 88 7 121 1 31 -6 32 29 0 41 -36 14 -105 12 -135 -3z"/>
<path d="M4135 10851 c-3 -6 -4 -55 -3 -110 1 -55 -1 -104 -5 -107 -4 -4 -7
-23 -7 -43 0 -51 -19 -111 -34 -111 -14 0 -25 31 -55 154 -32 128 -69 139 -91
28 -14 -70 -41 -152 -51 -152 -9 0 -16 32 -29 138 -13 114 -36 148 -70 107
-11 -13 -10 -18 5 -29 14 -10 19 -30 22 -82 3 -45 9 -73 19 -80 11 -9 12 -13
2 -16 -19 -7 18 -95 44 -104 28 -8 42 11 68 95 12 36 24 73 27 81 3 8 15 -20
28 -62 12 -43 30 -89 39 -103 19 -29 56 -33 78 -7 23 28 41 76 29 80 -7 2 -7
9 1 22 9 14 9 22 -2 34 -11 14 -11 16 2 11 13 -5 16 14 22 119 4 69 5 130 1
136 -8 13 -32 13 -40 1z"/>
<path d="M5130 10858 c-5 -39 -9 -415 -5 -428 7 -23 36 -35 46 -19 4 7 3 22
-1 35 -5 12 -6 89 -3 171 9 219 7 243 -22 243 -8 0 -15 -1 -15 -2z"/>
<path d="M3521 10821 c-6 -11 -32 -82 -58 -158 -25 -76 -61 -173 -79 -216 -39
-91 -41 -107 -15 -107 16 0 28 21 58 99 l38 99 59 4 c58 3 59 2 71 -27 7 -16
18 -60 26 -97 10 -56 16 -68 32 -68 18 0 19 5 14 51 -4 28 -10 56 -14 63 -13
18 -10 71 5 69 21 -5 13 32 -10 42 -18 8 -27 32 -53 135 -22 94 -34 126 -47
128 -9 2 -22 -6 -27 -17z m42 -156 c8 -38 13 -72 11 -75 -5 -5 -76 -1 -82 4
-2 2 7 38 20 79 13 42 26 73 29 69 4 -4 13 -38 22 -77z"/>
<path d="M2333 10793 c-17 -6 -16 -23 3 -44 14 -16 13 -18 -16 -24 -18 -4 -52
-4 -77 0 -51 7 -81 -8 -62 -31 8 -10 35 -14 84 -14 l73 0 7 -129 c8 -137 13
-158 40 -147 15 5 17 16 11 76 -3 39 -9 102 -12 140 l-7 70 76 0 c78 0 92 6
81 35 -6 14 -18 16 -81 13 -70 -3 -74 -2 -69 16 9 34 -17 53 -51 39z"/>
<path d="M1955 10776 c-35 -15 -91 -70 -98 -96 -8 -30 22 -72 96 -135 82 -71
96 -96 66 -126 -18 -18 -30 -21 -80 -17 -68 5 -103 29 -96 65 5 28 -6 37 -34
28 -18 -6 -20 -13 -16 -42 21 -129 287 -130 287 -1 0 29 -11 44 -90 119 -49
47 -90 90 -90 95 0 15 52 61 78 69 17 5 27 2 36 -10 9 -12 19 -15 34 -11 32
10 27 43 -8 61 -35 18 -46 18 -85 1z"/>
<path d="M5340 10755 c-17 -21 1 -39 29 -30 27 8 28 45 2 45 -10 0 -24 -7 -31
-15z"/>
<path d="M2773 10734 c-3 -9 6 -53 21 -98 15 -44 28 -101 29 -126 l2 -45 -42
0 c-23 -1 -39 3 -37 7 3 4 1 8 -5 8 -5 0 -27 17 -47 38 -23 23 -38 32 -41 24
-3 -6 -9 -10 -14 -6 -16 10 -9 -9 16 -42 27 -35 115 -84 152 -84 13 0 33 10
44 21 19 19 21 30 16 83 -3 33 -13 84 -23 111 -15 43 -19 60 -23 97 -1 4 -10
12 -21 18 -16 9 -22 8 -27 -6z"/>
<path d="M5755 10668 c-15 -13 -35 -49 -45 -82 l-20 -58 22 -50 c16 -39 30
-54 56 -65 42 -17 117 -8 135 17 6 9 22 22 35 29 12 6 22 18 22 26 0 24 -49
18 -74 -10 -46 -49 -137 -25 -136 36 1 18 14 33 55 58 64 41 70 52 50 92 -19
36 -62 39 -100 7z m39 -55 c-34 -27 -52 -30 -33 -5 22 28 41 42 52 35 6 -3 -2
-16 -19 -30z"/>
<path d="M5591 10667 c-10 -13 -33 -95 -46 -172 l-8 -40 -15 45 c-8 25 -18 46
-22 48 -5 2 -6 11 -4 20 6 22 -31 82 -50 82 -20 0 -27 -26 -12 -39 8 -6 19
-33 26 -59 7 -26 22 -71 32 -99 16 -44 24 -53 43 -53 31 0 39 16 61 125 12 63
24 95 39 110 12 11 20 26 18 33 -6 16 -48 16 -62 -1z"/>
<path d="M6504 10651 c-66 -40 -95 -119 -57 -156 19 -20 67 -14 95 12 10 9 19
14 21 12 1 -2 7 -13 13 -23 16 -29 41 -43 55 -29 8 8 6 18 -7 38 -9 15 -20 43
-23 63 -9 52 -34 53 -66 3 -16 -26 -33 -41 -45 -41 -24 0 -24 3 -5 40 9 16 29
37 46 45 18 10 29 23 27 32 -5 24 -19 25 -54 4z"/>
<path d="M4670 10646 c-19 -7 -37 -21 -39 -31 -3 -16 2 -17 50 -9 30 4 75 7
102 6 40 -2 47 1 47 17 0 10 -7 22 -16 25 -26 10 -107 5 -144 -8z"/>
<path d="M2584 10639 c-4 -7 -10 -60 -13 -118 -5 -79 -3 -108 7 -118 15 -15
25 -16 36 -5 4 4 13 7 18 7 21 0 20 26 -1 32 -20 5 -21 10 -15 52 3 25 15 56
26 68 20 22 20 22 1 55 -20 35 -46 47 -59 27z"/>
<path d="M3080 10606 c-36 -13 -52 -42 -28 -51 8 -3 30 1 49 9 23 9 48 12 81
7 26 -4 53 -4 59 0 24 14 0 36 -47 43 -60 8 -72 7 -114 -8z"/>
<path d="M5303 10598 c-6 -7 -10 -20 -10 -28 -1 -8 -4 -38 -8 -65 -6 -41 -4
-54 9 -65 25 -20 33 -4 40 76 4 54 3 74 -8 83 -10 8 -16 8 -23 -1z"/>
<path d="M3842 10238 c-16 -16 -15 -43 3 -58 8 -7 16 -9 16 -4 4 24 18 -89 18
-144 l1 -64 -57 4 c-49 2 -58 0 -61 -14 -5 -23 40 -40 83 -32 l32 6 5 -100 c4
-73 9 -105 21 -116 8 -9 18 -16 21 -16 3 0 5 49 4 108 -1 60 2 114 6 120 4 7
18 12 30 12 30 0 53 25 34 36 -7 5 -25 7 -40 5 -16 -1 -28 1 -29 6 -8 110 -22
210 -32 228 -18 34 -36 42 -55 23z"/>
<path d="M2201 10051 c-27 -5 -36 -12 -42 -35 -9 -31 10 -84 37 -107 12 -10 8
-18 -20 -50 -66 -72 -71 -154 -15 -222 49 -60 121 -66 174 -15 50 47 42 121
-21 204 -19 24 -35 49 -37 54 -1 6 29 30 67 53 73 45 88 63 61 73 -20 8 -65
-14 -62 -30 1 -6 -4 -10 -12 -8 -7 2 -21 -3 -30 -10 -46 -37 -59 -39 -80 -11
-12 14 -21 35 -21 46 0 18 5 19 53 14 28 -3 61 -7 72 -9 30 -5 32 30 2 41 -38
15 -89 20 -126 12z m19 -21 c0 -5 -2 -10 -4 -10 -3 0 -8 5 -11 10 -3 6 -1 10
4 10 6 0 11 -4 11 -10z m69 -246 c40 -62 42 -116 6 -140 -30 -19 -76 -13 -103
14 -22 22 -29 101 -11 134 6 13 20 33 31 45 24 26 30 22 77 -53z"/>
<path d="M3422 9978 c2 -15 10 -23 23 -23 30 0 27 39 -3 43 -20 3 -23 0 -20
-20z"/>
<path d="M4132 9920 c-55 -25 -53 -47 7 -76 25 -12 53 -32 63 -44 19 -24 24
-85 8 -95 -18 -11 -72 7 -95 31 -27 29 -58 23 -53 -10 4 -27 80 -66 129 -66
95 0 105 125 15 196 l-36 29 42 10 c26 7 43 17 43 25 0 23 -73 23 -123 0z"/>
<path d="M3008 9920 c-41 -12 -84 -46 -110 -88 -21 -34 -23 -48 -23 -167 0
-137 6 -180 28 -188 39 -15 52 48 34 168 l-7 50 44 0 c50 0 84 26 116 87 47
88 2 163 -82 138z m57 -50 c21 -33 -41 -128 -85 -133 -22 -2 -25 2 -23 26 1
18 -3 27 -12 27 -8 0 -15 2 -15 4 0 47 114 110 135 76z"/>
<path d="M3580 9895 c-31 -33 -61 -124 -49 -147 11 -21 28 -24 33 -5 2 6 9 31
15 54 6 22 20 52 30 65 18 21 21 22 36 7 10 -10 19 -40 22 -80 4 -42 12 -68
22 -76 13 -9 17 -8 23 5 8 21 0 105 -14 150 -17 56 -78 70 -118 27z"/>
<path d="M3184 9879 c-3 -6 3 -20 14 -31 18 -18 18 -22 5 -49 -13 -26 -13 -32
1 -54 21 -32 62 -42 94 -24 41 23 49 44 30 81 -9 18 -19 41 -22 51 -3 11 -16
17 -35 17 -16 0 -33 5 -36 10 -8 13 -42 13 -51 -1z m106 -105 c0 -8 -10 -14
-25 -14 -27 0 -33 18 -13 38 14 14 38 -2 38 -24z"/>
<path d="M3424 9800 c-9 -41 -8 -53 4 -62 21 -18 42 16 42 69 0 35 -3 43 -18
43 -14 0 -21 -12 -28 -50z"/>
<path d="M3659 9168 c-15 -75 -58 -213 -67 -214 -7 -1 -16 -2 -21 -3 -5 0 -11
-7 -14 -13 -2 -7 -3 -5 -2 4 3 17 -38 34 -55 23 -32 -20 11 -55 66 -55 26 0
27 -1 24 -93 -1 -53 1 -60 34 -93 32 -32 39 -35 87 -32 34 2 54 8 57 17 3 8 0
11 -7 7 -7 -4 -9 -2 -5 7 7 20 -13 32 -30 17 -20 -16 -64 -2 -82 26 -11 16
-15 42 -12 86 l3 63 48 8 c26 5 47 13 47 18 0 5 7 6 15 3 9 -4 18 1 21 11 11
29 -9 35 -60 20 -27 -8 -50 -14 -52 -13 -1 2 9 44 22 93 29 110 29 115 4 115
-11 0 -20 -1 -21 -2z m31 -458 c0 -5 -5 -10 -11 -10 -5 0 -7 5 -4 10 3 6 8 10
11 10 2 0 4 -4 4 -10z"/>
<path d="M4555 9160 c-66 -15 -175 -90 -175 -120 0 -23 35 -28 43 -6 7 17 127
86 150 86 22 0 22 -3 -13 -69 -46 -85 -140 -197 -199 -237 -49 -33 -91 -84
-91 -111 0 -29 45 -10 99 42 32 30 61 55 64 55 4 0 7 -16 7 -35 0 -35 27 -74
53 -76 6 0 21 -2 32 -5 29 -6 106 14 134 35 16 12 22 24 18 35 -6 15 -9 15
-37 1 -43 -22 -126 -31 -145 -15 -8 7 -14 27 -13 48 1 21 -1 44 -5 52 -4 9 3
26 19 45 42 49 89 117 87 126 -2 5 1 9 5 9 14 0 44 75 40 100 -4 31 -36 49
-73 40z"/>
<path d="M2275 9074 c-62 -32 -105 -91 -105 -144 0 -39 51 -77 144 -105 53
-16 100 -38 118 -54 28 -25 29 -28 14 -44 -26 -25 -93 -41 -179 -40 -66 0 -81
4 -98 22 -24 25 -32 26 -54 5 -15 -15 -15 -18 0 -34 36 -40 195 -53 282 -24
26 9 50 20 53 23 3 4 13 10 22 14 24 9 33 53 17 84 -15 29 -104 77 -122 67 -7
-4 -9 -4 -5 1 4 4 -22 18 -58 30 -88 30 -100 42 -81 87 18 43 62 75 114 84 34
5 44 2 61 -16 12 -13 27 -20 36 -17 22 9 20 22 -9 52 -21 20 -36 25 -73 25
-26 0 -60 -7 -77 -16z"/>
<path d="M3115 9021 c-8 -15 14 -53 28 -48 18 6 15 51 -5 55 -9 2 -19 -2 -23
-7z"/>
<path d="M4989 8955 c-3 -2 -23 -6 -44 -8 -32 -3 -41 -9 -43 -26 -3 -21 -1
-21 70 -15 85 8 121 19 116 36 -4 11 -90 23 -99 13z"/>
<path d="M2912 8925 c-24 -20 -30 -33 -30 -66 -1 -46 30 -116 54 -126 30 -11
34 12 9 61 -30 60 -31 70 -4 97 16 16 28 19 59 14 44 -7 64 10 35 32 -31 22
-90 16 -123 -12z"/>
<path d="M2744 8922 c-6 -4 -13 -15 -17 -25 -4 -10 -11 -15 -17 -12 -5 3 -19
-10 -31 -29 -12 -20 -25 -36 -30 -36 -5 0 -8 -21 -8 -47 0 -27 -2 -86 -6 -134
-8 -96 8 -149 45 -149 26 0 33 30 29 138 -4 81 -2 88 13 84 44 -11 107 74 108
143 0 56 -48 93 -86 67z m36 -72 c0 -32 -25 -90 -38 -90 -4 0 -15 7 -25 15
-22 16 -17 39 14 79 28 36 49 34 49 -4z"/>
<path d="M3313 8887 c-21 -19 -45 -36 -54 -40 -9 -3 -19 -18 -22 -34 -11 -59
18 -58 72 3 l41 47 0 -40 c0 -48 20 -79 45 -70 12 5 15 12 9 25 -4 9 -10 41
-12 70 -6 73 -28 84 -79 39z"/>
<path d="M3082 8847 c-20 -24 -24 -63 -7 -77 21 -17 31 -5 40 48 5 33 4 42 -8
42 -8 0 -19 -6 -25 -13z"/>
<path d="M5897 8308 c-8 -13 -22 -51 -32 -86 -11 -38 -31 -77 -52 -100 l-33
-37 -18 22 c-11 12 -25 49 -31 82 -10 50 -16 61 -32 61 -28 0 -39 -37 -51
-175 -12 -131 -5 -213 18 -222 26 -10 38 12 25 48 -7 20 -9 67 -4 132 l6 100
19 -36 c49 -96 131 -56 189 92 l18 46 1 -37 c0 -26 5 -38 18 -41 16 -4 16 -5
0 -6 -15 -1 -18 -11 -18 -71 0 -38 4 -70 8 -70 5 0 8 -10 8 -21 -1 -28 29 -48
46 -31 9 9 9 15 0 24 -7 7 -12 32 -12 56 0 30 -3 41 -12 36 -8 -5 -9 -2 -4 12
11 28 7 203 -5 225 -13 25 -36 24 -52 -3z m63 -263 c0 -8 -7 -15 -15 -15 -13
0 -14 3 -3 15 16 18 18 18 18 0z"/>
<path d="M2328 8275 c-6 -14 -14 -25 -19 -25 -4 0 -17 -29 -30 -65 -17 -48
-27 -64 -38 -61 -9 2 -36 1 -61 -2 -39 -6 -45 -10 -47 -32 0 -14 -11 -43 -22
-65 -27 -50 -27 -112 -1 -145 11 -14 20 -28 20 -31 0 -4 -21 -50 -46 -103 -25
-54 -48 -115 -51 -136 -5 -36 -3 -40 16 -40 15 0 21 6 21 24 0 12 24 73 54
133 54 109 54 110 95 117 44 7 103 52 126 96 18 34 8 75 -29 123 l-26 34 25
59 c14 32 32 71 40 86 8 14 15 33 15 42 0 25 -29 19 -42 -9z m-106 -221 c-2
-10 -4 -31 -5 -46 -1 -16 -6 -28 -12 -28 -5 0 -19 -22 -31 -48 -20 -45 -21
-46 -33 -24 -17 31 -5 84 31 133 29 41 55 48 50 13z m88 -80 c0 -11 -12 -32
-27 -46 -28 -26 -72 -52 -78 -46 -1 2 14 40 33 85 l36 82 18 -27 c10 -15 18
-36 18 -48z"/>
<path d="M6675 8280 c-3 -5 -1 -18 4 -28 7 -13 6 -63 -1 -150 -8 -105 -8 -135
2 -147 23 -28 53 -12 94 48 l40 57 12 -47 c13 -50 54 -96 83 -91 25 5 25 35 1
43 -23 7 -50 60 -50 98 0 34 -23 61 -46 53 -10 -3 -39 -34 -62 -68 -37 -53
-43 -58 -38 -33 13 75 18 233 7 254 -12 22 -36 28 -46 11z"/>
<path d="M4316 8271 c-11 -18 -36 -142 -31 -151 9 -14 -6 -12 -55 5 -23 8 -46
15 -51 15 -11 0 -58 -81 -68 -117 -12 -44 5 -91 42 -113 18 -11 40 -20 50 -20
20 0 21 -4 8 -28 -17 -32 -42 -123 -36 -132 9 -14 35 -12 40 3 2 6 13 45 25
85 15 53 25 72 38 72 29 0 88 47 102 79 15 38 1 81 -37 111 -24 19 -24 21 -12
77 6 32 18 68 26 81 8 12 11 27 8 32 -8 12 -42 13 -49 1z m-69 -197 c13 -4 22
-12 20 -18 -2 -6 -12 -37 -21 -68 -18 -64 -29 -69 -71 -36 -23 18 -26 27 -22
54 7 42 38 85 55 79 8 -3 25 -8 39 -11z m93 -73 c0 -15 -38 -61 -50 -61 -4 0
-6 15 -6 34 1 19 4 32 7 30 4 -2 10 8 14 24 6 26 7 26 21 8 8 -11 14 -27 14
-35z"/>
<path d="M4683 8258 c-20 -23 -45 -72 -58 -116 -4 -15 -1 -32 10 -48 19 -30
12 -46 -19 -38 -14 3 -27 -1 -35 -10 -14 -16 -7 -36 12 -36 8 0 12 -22 12 -69
0 -114 46 -152 139 -117 83 32 115 129 61 186 -16 16 -35 30 -42 30 -8 0 -18
10 -22 23 -7 17 -4 28 14 47 32 35 45 64 45 99 0 64 -75 95 -117 49z m73 -42
c11 -28 -47 -106 -78 -106 -17 0 -7 47 17 83 26 38 52 48 61 23z m16 -233 c41
-37 10 -99 -61 -124 -50 -18 -67 8 -63 94 1 18 9 31 25 37 35 14 79 11 99 -7z"/>
<path d="M4447 8183 c-12 -11 -7 -41 9 -57 14 -15 14 -17 -1 -32 -9 -9 -15
-26 -13 -38 1 -11 0 -25 -3 -31 -4 -5 -12 -41 -19 -79 -12 -64 -11 -70 6 -83
24 -18 32 -7 35 52 1 28 6 59 11 70 15 35 26 179 15 193 -10 13 -30 16 -40 5z"/>
<path d="M3884 8146 c-39 -17 -49 -33 -34 -51 16 -19 49 -19 56 0 4 8 15 15
25 15 19 0 19 -1 3 -32 -9 -18 -54 -71 -100 -117 -46 -46 -84 -87 -84 -92 0
-18 22 -19 49 -3 28 17 31 16 80 -5 29 -12 56 -19 61 -16 6 3 10 1 10 -5 0
-18 44 -7 48 12 2 12 -8 20 -40 28 -24 7 -55 19 -70 28 l-26 15 44 46 c51 53
94 133 87 160 -8 32 -58 39 -109 17z"/>
<path d="M2530 8132 c-31 -5 -48 -18 -65 -53 -12 -23 -12 -29 0 -39 11 -9 19
-5 41 19 18 21 37 31 55 31 27 0 28 -1 17 -32 -7 -18 -16 -38 -22 -44 -6 -7
-31 -40 -56 -74 -24 -34 -60 -70 -80 -81 -19 -10 -46 -27 -60 -38 -21 -16 -22
-21 -11 -35 17 -20 42 -14 98 26 45 33 63 30 63 -7 0 -30 37 -54 46 -30 9 23
-5 85 -22 92 -7 3 -14 8 -14 13 0 4 25 44 55 89 55 83 68 128 43 148 -17 14
-58 21 -88 15z"/>
<path d="M3040 8133 c-32 -11 -90 -56 -90 -70 0 -26 29 -25 61 1 42 36 59 34
59 -8 0 -42 -61 -123 -123 -163 -73 -48 -72 -67 3 -57 44 6 55 3 100 -26 47
-30 80 -34 80 -10 0 6 -26 27 -58 48 l-59 38 39 44 c68 76 87 151 48 190 -20
20 -33 23 -60 13z"/>
<path d="M3323 8125 c-35 -7 -67 -17 -73 -20 -18 -11 -10 -37 30 -97 42 -63
46 -80 30 -122 -13 -36 -56 -36 -72 -1 -15 33 -44 29 -40 -5 7 -65 95 -87 139
-35 40 46 27 140 -29 201 l-19 21 45 12 c25 6 63 11 85 11 22 0 43 5 47 11 18
30 -58 43 -143 24z"/>
<path d="M6290 8127 c-35 -17 -58 -70 -66 -149 -6 -64 -6 -68 14 -68 24 0 32
18 32 69 0 84 38 129 96 115 17 -4 26 -1 30 11 13 33 -55 47 -106 22z"/>
<path d="M6067 8096 c-33 -35 -49 -88 -37 -120 7 -20 16 -26 40 -26 17 0 40 5
51 11 15 7 24 7 34 -1 25 -21 33 -2 29 67 -3 50 -8 71 -21 80 -27 21 -72 16
-96 -11z m71 -39 c4 -17 -39 -67 -58 -67 -17 0 -11 36 11 64 23 29 42 30 47 3z"/>
<path d="M6453 8083 c-81 -89 -46 -154 87 -161 76 -5 110 9 89 34 -6 7 -17 10
-25 7 -22 -8 -119 6 -140 21 -16 13 -16 15 5 50 26 42 36 44 67 15 43 -40 60
1 19 45 -33 36 -61 33 -102 -11z"/>
<path d="M5292 8063 c-45 -3 -65 -8 -69 -19 -12 -32 55 -44 130 -23 26 7 37
15 37 29 0 13 -6 19 -17 18 -10 -1 -46 -3 -81 -5z"/>
<path d="M2694 7865 c-7 -18 3 -35 21 -35 18 0 28 32 13 42 -19 11 -28 10 -34
-7z"/>
<path d="M3493 7848 c-26 -13 -31 -48 -7 -48 8 0 25 5 37 11 60 32 31 66 -30
37z"/>
<path d="M10965 11220 c3072 -5 3080 -5 3079 -25 -2 -30 -39 -148 -76 -248
l-33 -88 -62 7 c-60 6 -63 5 -63 -15 0 -11 3 -22 8 -22 4 -1 23 -3 42 -5 47
-6 53 -14 37 -60 -21 -59 -27 -98 -17 -113 12 -21 40 -5 40 23 0 14 9 50 21
81 17 47 24 56 42 53 16 -2 21 -9 19 -23 -2 -11 -6 -34 -9 -50 -12 -76 114
-111 164 -46 17 23 16 77 -3 106 -17 26 -72 49 -96 40 -9 -4 -19 -2 -23 4 -3
6 -17 11 -31 11 -22 0 -24 3 -18 23 4 12 7 29 8 37 1 8 3 17 7 20 10 10 47
105 69 182 19 63 20 80 10 93 -11 13 69 15 736 18 412 1 -979 2 -3091 2
l-3840 0 3080 -5z m3150 -454 c23 -34 5 -66 -35 -66 -34 0 -53 25 -39 52 5 10
6 18 2 18 -4 0 -1 5 7 10 25 16 49 11 65 -14z"/>
<path d="M13206 11041 c-3 -5 -7 -29 -7 -55 -1 -25 -6 -46 -11 -46 -4 0 -8 -7
-8 -16 0 -9 -16 -52 -36 -95 -37 -84 -43 -141 -13 -147 8 -1 39 13 67 33 l52
35 0 -26 c0 -26 48 -84 70 -84 24 0 22 32 -4 53 -23 19 -27 28 -24 67 4 59
-15 62 -81 16 -28 -20 -51 -33 -51 -28 0 4 14 40 31 81 17 40 28 79 25 87 -4
10 -2 12 6 8 7 -5 9 -2 5 9 -3 9 -2 17 3 19 6 2 13 24 16 51 6 43 5 47 -14 47
-11 0 -23 -4 -26 -9z"/>
<path d="M12065 10918 c7 -22 6 -22 -7 -4 -13 16 -24 18 -78 13 -36 -3 -66
-11 -71 -19 -7 -10 -9 -10 -9 0 0 6 -7 12 -15 12 -8 0 -15 -3 -15 -7 0 -12
-216 -6 -239 7 -17 9 -22 8 -28 -5 -12 -33 21 -48 107 -49 95 -1 95 0 45 -110
-38 -84 -44 -116 -20 -116 20 0 95 160 95 201 0 16 6 29 13 30 127 9 244 22
260 31 15 8 16 11 3 23 -24 24 -49 19 -41 -7z"/>
<path d="M12813 10913 c-18 -6 -16 -42 2 -49 8 -4 22 -1 30 6 24 20 -1 54 -32
43z"/>
<path d="M10695 10888 c-31 -18 -49 -47 -67 -113 -13 -46 -14 -63 -5 -72 20
-20 36 0 47 57 13 70 34 93 76 85 42 -7 55 12 24 37 -25 21 -46 22 -75 6z"/>
<path d="M10222 10861 c-39 -35 -40 -57 -6 -122 22 -42 25 -54 16 -75 -13 -27
-34 -31 -52 -10 -13 17 -40 10 -40 -10 0 -21 37 -54 61 -54 11 0 34 13 50 29
35 35 38 75 9 131 -28 55 -26 77 11 95 16 9 29 22 26 28 -7 23 -44 18 -75 -12z"/>
<path d="M10432 10875 c-49 -35 -78 -137 -52 -185 23 -43 140 -47 140 -5 0 11
-12 15 -50 15 -38 0 -50 4 -50 15 0 9 7 18 15 21 8 4 12 10 9 15 -3 5 1 9 9 9
22 0 57 77 48 104 -10 27 -39 31 -69 11z m18 -55 c-6 -11 -13 -20 -16 -20 -2
0 0 9 6 20 6 11 13 20 16 20 2 0 0 -9 -6 -20z"/>
<path d="M8474 10840 c-23 -9 -70 -95 -80 -146 -3 -17 -1 -41 5 -53 15 -28 69
-28 104 -1 l26 20 3 -21 c4 -32 28 -43 62 -30 23 9 26 14 16 26 -7 8 -16 12
-21 9 -17 -10 -19 22 -4 65 20 59 19 81 -4 81 -11 0 -22 -6 -24 -12 -3 -7 -6
-3 -6 10 -1 21 -33 63 -48 61 -5 0 -18 -4 -29 -9z m16 -69 c-9 -17 -8 -22 6
-28 9 -3 26 0 37 6 20 13 20 13 1 -19 -17 -30 -82 -75 -92 -65 -9 8 9 71 29
104 21 35 38 37 19 2z"/>
<path d="M9955 10842 c-6 -4 -17 -20 -25 -37 -8 -16 -25 -45 -38 -62 -14 -18
-21 -33 -17 -33 4 0 -13 -17 -39 -37 -47 -39 -60 -73 -28 -73 10 0 31 14 47
30 31 33 45 38 45 16 0 -13 20 -26 41 -26 5 0 27 16 49 36 39 35 40 36 40 12
0 -28 26 -68 44 -68 17 0 30 31 17 39 -10 6 -13 65 -8 126 3 47 -26 44 -61 -7
-34 -49 -69 -84 -77 -76 -3 3 6 36 20 74 21 55 23 70 13 81 -7 7 -18 9 -23 5z"/>
<path d="M12905 10826 c-18 -13 -18 -19 -8 -58 6 -23 15 -51 18 -60 9 -23 -21
-35 -46 -20 -15 10 -20 8 -29 -8 -10 -18 -7 -22 27 -36 33 -14 41 -14 63 -2
31 17 38 73 15 117 -16 33 -15 34 28 31 21 -1 27 3 27 18 0 33 -60 44 -95 18z"/>
<path d="M8720 10812 c-28 -23 -21 -53 21 -83 37 -26 53 -63 39 -90 -18 -32
-48 -24 -52 14 -2 24 -8 32 -23 32 -32 0 -33 -58 -1 -90 32 -31 60 -32 91 -1
47 47 45 109 -6 156 -28 25 -29 29 -13 38 22 12 12 42 -15 42 -10 0 -29 -8
-41 -18z"/>
<path d="M9325 10797 c-19 -19 -35 -44 -35 -55 0 -53 26 -65 80 -37 l30 16 0
-31 c0 -43 14 -66 49 -78 24 -9 32 -7 47 9 21 23 4 50 -26 42 -21 -6 -24 3
-22 62 1 17 -6 46 -16 65 -25 50 -62 52 -107 7z m55 -27 c0 -5 -9 -14 -20 -20
-22 -12 -27 -1 -8 18 14 14 28 16 28 2z"/>
<path d="M12361 10777 c-53 -27 -71 -51 -54 -68 10 -10 16 -9 30 4 10 8 31 21
47 27 l28 10 -31 -35 c-32 -37 -47 -76 -36 -94 11 -19 42 -12 116 27 50 25 73
33 76 25 3 -7 13 -23 23 -35 15 -20 20 -21 35 -8 25 21 66 107 59 125 -10 24
-27 13 -48 -29 -17 -34 -20 -36 -35 -22 -25 23 -70 19 -120 -9 -23 -14 -45
-25 -48 -25 -2 0 12 20 32 45 20 24 35 52 33 62 -5 27 -55 27 -107 0z"/>
<path d="M12733 10758 c-14 -18 -43 -101 -43 -121 0 -10 8 -17 19 -17 15 0 24
15 40 65 20 62 21 85 2 85 -5 0 -13 -6 -18 -12z"/>
<path d="M11727 10617 c-127 -9 -147 -12 -145 -26 3 -14 23 -16 151 -14 153 2
198 12 176 39 -6 8 -17 13 -23 12 -6 -1 -78 -6 -159 -11z"/>
<path d="M10958 10560 c-13 -20 -25 -20 -1548 -22 l-1535 -3 1531 -2 c1521 -3
1532 -3 1537 -23 7 -27 47 -27 47 0 0 20 7 20 2293 22 l2292 3 -2282 2 c-2275
3 -2283 3 -2283 23 0 27 -36 27 -52 0z"/>
<path d="M9674 10406 c-4 -9 -1 -23 5 -30 7 -8 8 -16 3 -18 -4 -1 -19 -34 -33
-73 l-24 -70 -60 -5 c-44 -4 -60 -9 -60 -20 0 -12 13 -15 58 -15 41 0 56 -3
52 -12 -13 -36 -16 -114 -5 -148 20 -61 101 -69 112 -11 6 30 7 30 -27 14 -35
-16 -47 -1 -47 59 1 75 9 93 46 94 17 1 36 2 41 4 6 1 20 3 33 3 15 2 22 8 22
22 0 17 -6 19 -50 19 -28 -1 -53 1 -57 4 -3 4 4 33 15 64 12 32 23 74 24 93 3
30 0 35 -20 38 -13 2 -25 -3 -28 -12z"/>
<path d="M9126 10384 c-3 -9 -4 -20 -1 -24 7 -11 -37 -196 -66 -277 -23 -66
-20 -97 8 -91 11 2 20 16 25 38 6 32 20 83 64 234 17 59 18 108 2 124 -16 16
-25 15 -32 -4z"/>
<path d="M12190 10323 c-6 -15 -25 -60 -42 -100 l-32 -71 -66 -9 c-57 -7 -65
-11 -66 -30 -1 -21 2 -22 45 -17 25 3 52 8 60 10 9 3 11 -1 6 -13 -12 -30 -45
-157 -45 -175 0 -21 39 -25 42 -5 2 20 5 31 11 47 3 8 8 29 11 47 3 18 12 48
20 67 14 33 19 36 58 37 24 1 46 1 50 0 3 0 5 7 4 17 -2 12 -14 18 -39 20 -21
2 -37 7 -37 11 0 5 14 38 31 74 31 66 35 107 12 115 -7 2 -18 -9 -23 -25z"/>
<path d="M12607 10264 c-4 -4 -7 -26 -7 -49 0 -23 -7 -62 -16 -88 -16 -46 -16
-47 -60 -47 -37 0 -44 -3 -44 -20 0 -16 7 -20 35 -20 41 0 43 -9 16 -80 -15
-40 -16 -51 -6 -60 18 -15 42 11 55 63 6 23 13 50 16 60 4 12 16 17 46 17 37
0 39 2 27 17 -12 14 -12 16 0 8 10 -5 12 -4 7 3 -4 7 -18 12 -32 12 -28 0 -29
8 -11 70 18 60 16 114 -3 118 -9 1 -19 0 -23 -4z"/>
<path d="M9239 10188 c-17 -17 -28 -37 -25 -45 3 -8 2 -12 -3 -9 -5 3 -14 -7
-21 -23 -13 -33 0 -71 26 -71 8 0 12 -4 9 -10 -8 -14 48 -13 96 2 46 13 50 25
12 31 -25 3 -24 4 7 6 23 1 31 4 24 11 -10 10 -73 -5 -84 -20 -7 -10 -50 7
-50 19 0 5 15 12 33 15 69 13 98 79 50 113 -26 20 -42 16 -74 -19z m49 -30
c-2 -6 -10 -14 -16 -16 -7 -2 -10 2 -6 12 7 18 28 22 22 4z m-24 -43 c3 -8 1
-15 -4 -15 -6 0 -10 7 -10 15 0 8 2 15 4 15 2 0 6 -7 10 -15z"/>
<path d="M8849 10161 c-43 -45 -48 -47 -51 -28 -2 12 -9 22 -17 22 -10 0 -18
-23 -28 -80 -7 -44 -23 -101 -34 -127 -12 -25 -19 -54 -16 -62 10 -25 36 -19
48 11 27 73 42 93 64 93 33 0 81 44 115 104 32 55 37 85 18 104 -23 23 -52 12
-99 -37z m51 -33 c-20 -37 -60 -88 -71 -88 -17 0 -9 18 32 70 41 52 61 61 39
18z"/>
<path d="M9923 10195 c-19 -8 -42 -31 -58 -60 -33 -55 -30 -105 10 -144 24
-24 32 -26 113 -26 93 1 136 15 130 43 -4 19 -11 19 -78 2 -50 -13 -113 -8
-135 10 -20 17 -20 71 -1 64 8 -3 25 0 38 6 68 36 90 92 42 110 -14 6 -26 10
-27 10 -1 -1 -16 -7 -34 -15z m37 -40 c0 -2 -10 -10 -22 -16 -21 -11 -22 -11
-9 4 13 16 31 23 31 12z"/>
<path d="M8014 10176 c-39 -17 -72 -59 -80 -102 -8 -45 22 -105 59 -117 56
-18 182 37 156 69 -9 11 -16 11 -42 -3 -47 -24 -80 -31 -105 -22 -17 7 -22 16
-22 46 0 51 22 80 70 93 29 8 40 16 40 30 0 24 -30 26 -76 6z"/>
<path d="M12774 10169 c-9 -16 20 -41 39 -33 27 10 21 44 -7 44 -14 0 -28 -5
-32 -11z"/>
<path d="M8245 10159 c-62 -30 -70 -186 -10 -198 34 -6 83 29 106 76 18 38 19
48 9 74 -22 51 -61 69 -105 48z m61 -65 c7 -29 -21 -77 -50 -82 -12 -3 -16 4
-16 25 0 68 52 113 66 57z"/>
<path d="M8601 10132 c-36 -34 -40 -36 -43 -18 -4 29 -35 32 -69 7 l-28 -21
-3 23 c-2 14 -10 22 -23 22 -15 0 -20 -7 -22 -31 0 -17 -6 -48 -12 -69 -7 -28
-7 -42 1 -52 17 -21 26 -16 70 41 40 52 42 53 53 33 16 -33 38 -31 79 8 21 19
40 35 43 35 2 0 2 -12 -1 -27 -7 -33 6 -58 27 -50 17 7 28 81 16 115 -12 33
-43 27 -88 -16z"/>
<path d="M11808 10154 c-37 -19 -38 -65 -3 -110 30 -40 30 -40 4 -54 -17 -9
-23 -8 -34 6 -11 16 -15 16 -29 4 -10 -7 -16 -24 -14 -39 2 -21 9 -27 33 -29
36 -3 108 36 113 62 2 10 -10 38 -28 62 -17 24 -29 48 -25 54 9 15 74 23 98
13 16 -8 26 -7 34 2 35 38 -90 62 -149 29z"/>
<path d="M13800 10149 c-56 -23 -119 -109 -166 -226 l-29 -73 -1587 0 c-986 0
-1588 4 -1588 9 0 6 5 13 10 16 6 3 10 15 10 26 0 33 -37 23 -56 -16 l-16 -35
-1252 -2 -1251 -3 1242 -2 1242 -3 -9 -30 c-6 -21 -4 -32 6 -41 17 -14 31 -4
36 26 8 47 -67 45 1616 45 l1590 0 -2 -32 c-1 -27 3 -33 19 -33 13 0 22 10 29
33 l9 32 273 0 c151 0 274 -2 274 -5 0 -4 -7 -19 -15 -35 -20 -39 -31 -135
-16 -144 27 -17 51 8 93 94 l43 89 635 3 635 3 -632 2 c-602 3 -633 4 -633 21
0 31 23 50 94 76 80 30 86 31 86 11 0 -22 33 -35 87 -35 55 0 78 11 70 34 -5
12 -16 14 -56 9 -43 -5 -52 -3 -58 13 -4 11 -2 19 8 22 31 10 89 83 89 112 0
48 -32 38 -92 -30 -30 -35 -66 -64 -85 -71 -23 -7 -30 -15 -27 -27 5 -14 4
-14 -4 -3 -9 13 -16 12 -51 -1 l-41 -16 0 73 c0 80 -10 97 -41 69 -17 -16 -19
-16 -19 -1 0 24 -45 22 -70 -3 -11 -11 -20 -17 -20 -12 0 4 -5 0 -10 -8 -16
-25 -12 -58 9 -65 23 -7 73 4 66 15 -3 4 3 7 13 6 21 -1 42 -37 30 -50 -4 -6
-8 -17 -8 -26 0 -9 -9 -25 -20 -35 -12 -10 -18 -25 -15 -32 2 -8 1 -11 -5 -8
-5 3 -14 -4 -20 -15 -10 -19 -20 -20 -285 -20 -151 0 -275 1 -275 3 0 18 59
136 64 128 4 -6 21 -11 37 -11 17 0 28 4 24 10 -3 5 0 7 9 4 19 -7 103 75 111
109 12 47 3 62 -40 64 -22 1 -51 -3 -65 -8z m70 -35 c0 -13 -41 -62 -65 -78
-22 -14 -28 -15 -45 -3 -19 13 -19 14 8 40 35 33 102 60 102 41z m378 -304
c-9 -27 -28 -50 -28 -35 0 9 30 65 35 65 2 0 -1 -14 -7 -30z"/>
<path d="M11146 10123 c-4 -4 -22 -6 -41 -5 -58 6 -135 -61 -135 -117 0 -32
42 -47 90 -34 34 9 42 7 56 -8 24 -26 64 -25 64 1 0 11 -6 20 -14 20 -27 0
-26 18 4 75 16 31 27 61 24 66 -6 11 -38 12 -48 2z m-36 -54 c0 -24 -22 -48
-56 -59 -19 -7 -38 -9 -41 -6 -8 8 17 36 52 58 34 21 45 22 45 7z"/>
<path d="M13988 10092 c-42 -34 -48 -42 -48 -69 0 -19 5 -23 34 -23 26 0 36
-5 41 -20 9 -27 45 -27 45 0 0 11 7 36 15 56 13 32 13 36 -5 51 -10 9 -17 19
-15 23 11 18 -40 5 -67 -18z"/>
<path d="M12885 10098 c-63 -34 -100 -96 -82 -135 12 -27 56 -38 128 -31 54 6
75 18 66 41 -4 11 -14 12 -54 4 -52 -11 -103 -4 -103 14 0 19 60 68 75 62 20
-7 30 23 15 42 -15 18 -19 18 -45 3z"/>
<path d="M12248 10040 c-46 -38 -52 -76 -12 -86 14 -4 37 -1 50 5 33 15 34 14
34 -10 0 -31 19 -59 40 -59 26 0 35 19 17 37 -10 10 -13 27 -10 54 5 37 1 44
-28 41 -3 -1 -5 9 -5 21 1 35 -42 34 -86 -3z m52 -30 c-8 -5 -19 -10 -25 -10
-5 0 -3 5 5 10 8 5 20 10 25 10 6 0 3 -5 -5 -10z"/>
<path d="M12682 9995 c-17 -62 -15 -75 8 -75 21 0 28 18 33 80 1 24 -3 35 -13
37 -11 3 -19 -10 -28 -42z"/>
<path d="M12157 9704 c-4 -4 -7 -17 -7 -29 0 -28 -48 -148 -64 -157 -6 -4 -27
-8 -47 -8 -43 0 -67 -21 -46 -39 8 -6 27 -8 46 -5 37 8 38 2 9 -63 -25 -54
-29 -81 -16 -89 17 -10 37 17 63 87 25 66 28 69 59 69 18 0 41 6 51 14 17 12
17 16 5 31 -9 11 -23 15 -41 11 l-28 -5 28 66 c20 45 26 74 22 91 -7 27 -22
38 -34 26z"/>
<path d="M10765 9644 c-44 -24 -65 -45 -65 -66 0 -24 12 -23 56 7 55 37 66 34
49 -14 -31 -88 -76 -143 -128 -155 -32 -8 -107 -79 -107 -101 0 -29 29 -27 75
4 25 17 50 31 54 31 4 0 16 -18 26 -41 11 -23 31 -47 47 -55 26 -13 35 -13 85
1 61 18 102 43 103 63 0 18 -24 15 -78 -11 -65 -31 -91 -24 -120 35 l-24 47
35 38 c42 43 90 157 85 199 -2 24 -8 29 -33 31 -16 2 -43 -5 -60 -13z"/>
<path d="M11475 9600 c-4 -7 -3 -16 3 -22 14 -14 45 -2 40 15 -6 16 -34 21
-43 7z"/>
<path d="M8189 9463 c-60 -51 -84 -150 -43 -180 21 -15 53 -11 65 8 7 12 9 12
9 0 0 -10 8 -7 26 10 60 55 71 124 28 164 -34 32 -45 31 -85 -2z m69 -54 c4
-23 -41 -84 -66 -87 -29 -4 -30 30 -2 76 15 24 27 32 43 30 12 -2 23 -10 25
-19z"/>
<path d="M8356 9478 c-3 -7 -11 -35 -20 -62 -21 -64 -20 -92 1 -100 12 -5 27
3 48 27 34 38 74 70 61 49 -12 -20 4 -71 26 -83 30 -16 46 3 29 35 -10 18 -11
32 -3 55 9 25 8 34 -4 46 -20 19 -20 19 -71 -10 l-43 -26 11 27 c5 15 8 33 5
41 -7 17 -35 17 -40 1z"/>
<path d="M10382 9470 c-18 -11 -40 -35 -48 -54 -34 -70 9 -116 109 -116 59 0
92 16 78 39 -7 11 -19 12 -61 4 -47 -10 -55 -8 -76 10 -21 18 -22 22 -9 46 17
35 62 56 81 40 11 -9 14 -8 14 2 0 11 2 11 10 -1 8 -12 10 -12 16 3 17 45 -55
63 -114 27z"/>
<path d="M11813 9480 c-12 -5 -29 -20 -38 -33 -14 -22 -14 -28 2 -70 13 -36
15 -49 5 -59 -9 -9 -16 -7 -32 7 -18 16 -25 14 -21 -7 0 -5 -4 -8 -10 -8 -18
0 11 -31 39 -41 31 -12 56 2 72 41 11 26 10 36 -5 69 -19 43 -14 61 15 61 25
0 35 17 20 35 -14 17 -17 17 -47 5z"/>
<path d="M10094 9414 c-30 -31 -54 -59 -54 -63 0 -16 30 -68 49 -85 24 -22
111 -34 111 -15 0 11 2 11 8 2 6 -10 13 -9 30 3 32 22 17 37 -28 30 -41 -6
-100 2 -100 14 0 5 16 17 35 29 46 27 73 81 57 116 -18 40 -48 31 -108 -31z
m61 -15 c-3 -8 -15 -20 -26 -27 -17 -11 -20 -11 -14 0 23 39 52 59 40 27z"/>
<path d="M9375 9428 c-11 -6 -23 -16 -27 -22 -4 -6 -8 -7 -8 -2 0 5 -7 3 -15
-4 -10 -9 -15 -9 -15 -1 0 6 -9 11 -20 11 -13 0 -25 -12 -35 -37 -28 -67 1
-83 64 -35 57 45 58 45 58 4 0 -59 11 -82 39 -82 27 0 31 16 9 40 -13 15 -14
24 -3 63 9 37 9 48 -1 61 -16 19 -20 19 -46 4z"/>
<path d="M12580 9430 c-41 -11 -106 -56 -130 -90 -20 -28 -21 -34 -8 -46 12
-13 21 -8 64 35 46 45 96 72 110 58 3 -3 -6 -25 -20 -50 -26 -43 -27 -77 -2
-77 15 0 66 95 66 124 0 37 -37 58 -80 46z"/>
<path d="M8990 9404 c-25 -21 -30 -33 -28 -58 4 -38 31 -45 77 -21 l31 16 0
-35 c0 -26 5 -36 20 -41 11 -3 24 -3 30 0 13 8 13 45 1 45 -6 0 -6 12 -2 28
10 33 4 52 -15 52 -8 0 -23 9 -34 20 -26 26 -42 25 -80 -6z m50 -28 c0 -2 -7
-7 -16 -10 -8 -3 -12 -2 -9 4 6 10 25 14 25 6z"/>
<path d="M11528 9393 c-41 -44 -62 -79 -53 -93 13 -20 34 -9 56 30 30 52 47
51 51 -2 2 -35 7 -43 23 -43 18 0 20 6 17 54 -5 99 -34 116 -94 54z"/>
<path d="M12262 9413 c-32 -16 -49 -50 -38 -78 6 -17 71 -21 81 -5 11 17 22
11 35 -20 12 -30 41 -47 60 -35 15 9 12 32 -5 39 -9 3 -15 18 -15 34 0 22 -9
37 -34 56 -40 30 -41 30 -84 9z"/>
<path d="M13014 9416 c-35 -16 -72 -58 -81 -94 -10 -41 20 -89 64 -101 70 -20
163 -6 163 24 0 22 -13 25 -57 14 -47 -12 -123 4 -123 26 0 7 17 19 38 25 90
29 122 68 86 104 -19 19 -49 20 -90 2z m52 -35 c-7 -10 -66 -33 -66 -25 0 4
57 32 68 34 2 0 1 -4 -2 -9z"/>
<path d="M11345 9369 c-29 -57 -27 -82 7 -77 15 2 24 11 26 26 2 12 10 35 17
49 10 20 11 31 3 40 -17 21 -24 16 -53 -38z"/>
<path d="M12742 9393 c-42 -37 -50 -75 -23 -102 26 -26 67 -36 100 -25 39 14
33 39 -10 40 -66 2 -80 33 -29 62 33 19 41 52 12 52 -10 0 -32 -12 -50 -27z"/>
<path d="M13375 9230 c-4 -7 -3 -16 3 -22 14 -14 45 -2 40 15 -6 16 -34 21
-43 7z"/>
<path d="M9802 9153 c1054 -2 2782 -2 3840 0 1058 1 195 2 -1917 2 -2112 0
-2977 -1 -1923 -2z"/>
<path d="M11005 8975 c-146 -16 -248 -35 -257 -49 -6 -8 -8 -8 -8 0 0 12 -69
12 -89 0 -9 -6 -9 -11 0 -22 12 -14 90 -20 102 -8 4 4 21 8 39 9 18 1 80 8
138 15 58 7 155 18 215 24 86 9 110 14 110 26 0 20 -100 22 -250 5z"/>
<path d="M12281 8944 c-12 -15 -21 -36 -21 -48 -2 -131 -23 -259 -50 -304 -23
-38 -70 -46 -70 -13 0 23 18 37 42 33 22 -4 32 16 17 34 -21 26 -70 14 -92
-24 -51 -88 45 -152 118 -79 41 41 62 109 70 232 9 125 13 145 32 138 23 -9
35 19 16 39 -22 25 -38 23 -62 -8z"/>
<path d="M14006 8905 c-7 -20 21 -32 37 -16 9 9 8 14 -3 21 -21 13 -27 12 -34
-5z"/>
<path d="M11093 8878 c-5 -7 -10 -27 -11 -45 -1 -18 -18 -69 -37 -115 -40 -92
-54 -161 -36 -172 7 -5 36 15 69 45 l57 52 5 -44 c3 -30 10 -45 21 -47 13 -2
18 9 23 58 4 33 4 65 1 70 -11 17 -44 11 -85 -15 l-40 -25 21 52 c43 108 50
132 47 161 -3 33 -20 45 -35 25z"/>
<path d="M10907 8833 c-4 -3 -7 -17 -7 -30 0 -13 -7 -38 -16 -54 -8 -17 -13
-33 -10 -36 3 -4 -1 -11 -9 -17 -8 -6 -20 -32 -27 -58 -10 -40 -10 -50 1 -60
11 -10 12 -10 7 0 -4 6 -2 12 3 12 6 0 11 -6 11 -12 0 -23 20 16 20 39 0 13
19 60 42 107 24 48 39 90 35 100 -6 16 -38 22 -50 9z"/>
<path d="M13208 8817 c-6 -30 1 -47 18 -47 16 0 38 46 28 61 -11 18 -42 9 -46
-14z"/>
<path d="M14123 8745 c-17 -7 -36 -23 -42 -34 -10 -17 -6 -27 26 -62 29 -32
35 -44 26 -57 -15 -25 -49 -26 -82 -1 -30 22 -61 20 -61 -3 1 -18 83 -68 112
-68 14 0 36 12 51 28 38 39 36 85 -3 122 l-30 28 29 10 c16 6 38 8 49 5 25 -6
38 13 22 32 -15 19 -55 19 -97 0z"/>
<path d="M11311 8694 c-52 -46 -61 -87 -29 -121 20 -22 28 -24 74 -19 56 6
118 25 110 34 -3 3 2 11 12 19 18 15 16 15 -105 -6 -24 -4 -43 -4 -43 0 0 4
23 23 50 43 51 37 59 53 38 74 -23 23 -66 13 -107 -24z"/>
<path d="M12885 8693 c-62 -64 -58 -120 8 -95 21 8 33 9 35 2 2 -6 8 -8 13 -5
5 4 6 -1 3 -9 -6 -15 -2 -18 29 -20 7 -1 13 13 14 34 1 19 5 50 9 68 5 26 3
32 -10 32 -9 0 -19 7 -22 15 -10 25 -41 17 -79 -22z"/>
<path d="M13859 8682 c-41 -41 -49 -75 -26 -104 17 -22 54 -32 63 -16 15 24
11 51 -8 56 -25 6 -18 23 20 47 37 24 39 31 11 45 -17 10 -26 6 -60 -28z"/>
<path d="M12351 8675 c-39 -45 -48 -78 -28 -109 33 -49 113 -38 139 19 9 19 7
31 -11 60 -11 20 -21 42 -21 48 0 28 -48 17 -79 -18z m65 -57 c4 -15 1 -25
-11 -34 -19 -14 -45 -8 -45 11 0 45 43 63 56 23z"/>
<path d="M12612 8684 c-18 -12 -26 -13 -37 -4 -8 6 -19 9 -25 5 -14 -9 -50
-80 -50 -100 0 -22 31 -18 64 10 29 23 29 23 45 3 16 -19 19 -19 51 -6 19 8
41 22 49 31 22 28 32 19 29 -25 -3 -37 0 -43 17 -43 15 0 21 9 26 40 14 81
-32 118 -89 70 l-31 -26 2 28 c2 33 -18 40 -51 17z"/>
<path d="M13240 8676 c-42 -29 -72 -76 -60 -95 13 -22 41 -5 37 21 -2 13 -2
17 0 10 4 -10 13 -6 34 14 l29 28 0 -32 c0 -33 23 -53 40 -36 12 12 -5 95 -21
105 -19 12 -20 12 -59 -15z"/>
<path d="M13086 8648 c-3 -7 -9 -27 -14 -44 -11 -36 -1 -60 21 -51 18 7 39 71
30 93 -6 17 -32 19 -37 2z"/>
<path d="M8849 8350 c-20 -62 -25 -69 -43 -64 -12 4 -29 14 -39 22 -17 15 -21
15 -45 1 -15 -8 -27 -19 -27 -24 0 -6 -11 -31 -23 -56 -19 -40 -21 -53 -13
-90 6 -28 20 -53 39 -69 l29 -25 -17 -41 c-30 -70 -30 -134 0 -134 15 0 20 7
20 29 0 16 10 54 21 85 16 41 27 56 41 56 52 0 118 62 118 112 0 36 -29 88
-48 88 -10 0 -11 4 -5 13 17 20 55 146 48 157 -16 26 -35 6 -56 -60z m-84 -90
c-3 -5 0 -10 7 -10 37 -1 39 -16 12 -81 -36 -84 -41 -89 -65 -60 -33 41 -20
109 29 149 19 15 25 16 17 2z m95 -86 c13 -32 -1 -59 -41 -79 l-30 -16 21 41
c12 23 19 48 16 55 -4 11 3 19 22 24 1 1 7 -11 12 -25z"/>
<path d="M10593 8347 c-73 -74 -87 -104 -68 -138 47 -81 48 -85 34 -115 -13
-26 -21 -29 -91 -39 -82 -11 -105 -23 -94 -51 5 -14 17 -16 81 -12 l74 5 -15
-29 c-15 -29 -25 -43 -76 -101 -16 -18 -33 -47 -40 -64 l-12 -33 -1250 -3
-1251 -2 1251 -3 1251 -2 13 -45 c7 -24 27 -62 46 -83 35 -41 97 -77 114 -67
20 12 9 35 -24 49 -40 17 -83 70 -92 114 l-6 32 1640 0 1641 0 16 -30 c32 -62
10 -130 -43 -130 -36 0 -101 31 -107 51 -6 19 -45 27 -45 9 0 -49 74 -101 145
-102 52 -1 79 18 101 71 18 43 18 65 -1 101 l-16 30 898 2 898 3 -904 5 -904
5 -34 49 c-56 82 -55 134 3 128 44 -5 74 6 74 28 0 20 -8 24 -48 20 -45 -3
-37 50 17 107 49 53 61 75 61 112 0 27 -9 43 -49 82 -40 41 -54 49 -85 49 -29
0 -36 -4 -36 -20 0 -15 7 -20 26 -20 17 0 40 -14 66 -40 46 -46 45 -64 -7
-120 -51 -55 -65 -82 -65 -122 0 -21 -4 -38 -10 -38 -20 0 -39 -55 -31 -91 9
-39 36 -95 51 -104 5 -3 10 -10 10 -16 0 -5 -618 -9 -1630 -9 -1363 0 -1630 2
-1630 14 0 7 13 31 30 52 74 97 92 128 115 196 31 92 31 111 -1 166 l-26 44
31 32 c17 18 28 35 25 39 -4 4 -2 7 5 7 7 0 21 10 31 22 15 19 20 20 33 9 19
-15 37 -7 37 18 0 15 -36 41 -58 41 -4 0 -35 -28 -69 -63z"/>
<path d="M9248 8354 c-63 -68 -83 -128 -58 -175 9 -15 6 -26 -12 -52 -30 -41
-31 -106 -3 -137 17 -18 28 -21 68 -17 32 3 56 12 74 28 48 45 70 133 38 159
-13 11 -13 15 0 41 8 15 15 42 15 59 0 34 -25 90 -40 90 -6 0 -10 6 -10 14 0
11 -20 26 -36 26 -2 0 -18 -16 -36 -36z m76 -70 c4 -16 0 -39 -11 -62 -36 -73
-109 -41 -82 35 17 50 83 69 93 27z m-4 -183 c0 -43 -37 -82 -80 -84 -32 -2
-35 0 -38 30 -2 18 4 43 14 57 13 21 24 26 60 26 42 0 44 -1 44 -29z"/>
<path d="M7460 8316 c-35 -13 -50 -38 -31 -51 6 -3 17 -3 24 2 14 8 17 9 72
19 l40 7 -72 -54 c-87 -64 -92 -84 -27 -92 53 -6 99 -42 88 -70 -17 -45 -119
-73 -164 -45 -15 10 -22 10 -32 0 -21 -21 4 -46 55 -56 75 -15 172 35 191 99
8 28 -26 80 -63 96 -17 8 -31 17 -31 22 0 4 29 26 65 48 65 41 82 70 49 83
-26 10 -127 5 -164 -8z"/>
<path d="M9055 8308 c-2 -7 -6 -26 -8 -43 -3 -16 -17 -68 -31 -115 -31 -100
-32 -155 -1 -155 17 0 20 7 21 40 0 22 15 84 33 139 33 100 35 146 5 146 -8 0
-16 -6 -19 -12z"/>
<path d="M8392 8277 c-34 -35 -42 -71 -18 -80 9 -4 22 7 35 29 23 39 57 48 46
12 -14 -46 -47 -87 -89 -112 -44 -26 -73 -73 -62 -101 9 -25 30 -17 71 25 21
22 43 40 47 40 5 0 15 -17 24 -39 21 -52 84 -80 84 -36 0 7 -7 16 -15 19 -9 3
-22 21 -30 39 -8 19 -21 40 -30 47 -9 7 -12 16 -7 19 4 3 18 22 30 42 28 46
29 104 3 119 -33 17 -56 11 -89 -23z"/>
<path d="M12600 8258 c-1 -7 -3 -30 -6 -50 -4 -25 -2 -38 6 -38 7 0 5 -6 -4
-16 -9 -8 -16 -23 -16 -32 0 -9 -14 -60 -30 -112 -34 -108 -38 -158 -14 -167
18 -7 36 15 29 34 -2 7 9 56 25 110 32 106 56 244 46 268 -7 18 -36 20 -36 3z"/>
<path d="M13112 8193 c-16 -13 -19 -22 -12 -33 8 -13 13 -13 37 0 31 17 37 43
12 48 -9 1 -25 -5 -37 -15z"/>
<path d="M13057 8053 c-8 -14 -35 -108 -41 -141 -4 -24 -1 -37 14 -52 23 -23
39 -25 75 -8 43 20 24 54 -24 41 -25 -6 -26 0 -5 76 16 58 14 91 -5 91 -5 0
-12 -3 -14 -7z"/>
<path d="M7863 8035 c-7 -19 13 -36 37 -32 8 1 15 11 15 22 0 26 -42 34 -52
10z"/>
<path d="M11027 8008 c-68 -118 -79 -158 -42 -158 8 0 15 3 15 8 0 4 25 27 55
50 l55 43 0 -38 c0 -45 9 -60 33 -60 16 0 18 6 13 31 -4 18 0 49 10 77 17 45
14 79 -5 79 -5 0 -33 -19 -62 -41 -48 -39 -56 -38 -22 2 15 18 8 49 -12 49 -7
0 -24 -19 -38 -42z"/>
<path d="M12314 8030 c-40 -16 -76 -74 -72 -117 2 -30 7 -38 23 -38 16 0 21 9
26 42 6 49 25 75 53 72 37 -2 46 1 46 16 0 14 -30 36 -47 34 -4 0 -18 -4 -29
-9z"/>
<path d="M13280 8024 c-48 -16 -95 -75 -86 -108 14 -57 124 -82 169 -38 26 26
27 78 2 116 -25 37 -44 44 -85 30z m42 -51 c22 -20 24 -61 3 -69 -8 -4 -31 -3
-50 0 -43 8 -47 35 -9 65 32 25 33 25 56 4z"/>
<path d="M11803 8009 c-18 -12 -33 -16 -33 -10 0 6 -9 11 -20 11 -14 0 -20 -7
-20 -22 0 -13 -9 -38 -21 -57 -21 -35 -19 -61 3 -61 8 0 37 25 65 55 69 73 84
73 82 -4 -2 -63 4 -81 27 -81 11 0 14 16 14 76 0 41 -5 84 -10 95 -14 25 -47
24 -87 -2z"/>
<path d="M12057 8006 c-12 -13 -33 -36 -46 -51 l-25 -27 38 -34 c20 -18 48
-37 62 -40 35 -9 88 8 92 29 3 14 -5 17 -50 17 l-53 0 40 23 c43 24 58 64 34
93 -18 22 -67 17 -92 -10z m58 -26 c-3 -5 -16 -15 -28 -21 -22 -12 -22 -12 -3
10 19 21 43 30 31 11z"/>
<path d="M11261 7985 c-34 -39 -38 -61 -17 -90 10 -14 21 -17 49 -12 26 4 37
2 41 -9 8 -21 38 -13 42 11 10 64 8 90 -6 90 -8 0 -17 9 -20 20 -10 36 -53 31
-89 -10z m54 -42 c-18 -16 -31 -21 -33 -14 -6 18 18 41 42 41 19 -1 19 -3 -9
-27z"/>
<path d="M11552 8004 c-18 -12 -26 -13 -37 -4 -25 20 -40 5 -59 -59 -28 -92
-9 -119 38 -56 36 47 78 85 93 85 17 0 17 -3 -8 -60 -21 -48 -20 -80 1 -80 14
0 60 102 60 133 0 26 -28 57 -51 57 -8 0 -25 -7 -37 -16z"/>
<path d="M12728 7899 c-25 -14 -23 -49 1 -49 30 0 55 29 40 46 -13 16 -18 17
-41 3z"/>
<path d="M8403 7618 c-4 -7 -6 -39 -4 -71 2 -49 0 -62 -18 -78 -20 -19 -22
-19 -74 -1 -80 27 -101 12 -51 -35 19 -17 38 -24 70 -25 41 0 44 -2 44 -27 0
-36 -54 -91 -72 -73 -18 18 -38 14 -38 -6 0 -20 29 -52 48 -52 6 0 18 7 26 16
10 9 24 13 36 9 15 -5 20 -15 20 -45 0 -51 8 -70 30 -70 17 0 18 8 13 98 -5
79 -3 100 9 110 12 10 22 7 53 -18 43 -34 53 -36 62 -14 4 10 -7 26 -31 45
-51 43 -47 53 18 46 41 -4 58 -2 67 9 19 24 -8 47 -48 41 -31 -5 -32 -4 -22
15 9 16 7 24 -6 37 -16 15 -18 15 -28 -3 -23 -36 -49 -66 -57 -66 -5 0 -7 33
-6 73 3 67 -5 97 -25 97 -4 0 -11 -6 -16 -12z"/>
<path d="M13876 7602 c-4 -11 -4 -25 -1 -33 2 -8 -11 -54 -30 -104 l-34 -90
-48 3 c-54 3 -79 -8 -70 -32 5 -11 19 -16 52 -16 25 0 45 -3 45 -7 0 -5 -9
-32 -20 -61 -24 -63 -25 -92 -4 -92 15 0 22 15 58 111 14 40 20 46 41 42 20
-4 22 -8 15 -28 -7 -18 -4 -30 10 -47 25 -31 117 -33 149 -4 40 36 18 116 -32
116 -27 0 -32 -23 -9 -38 22 -14 29 -37 15 -45 -20 -12 -70 -16 -83 -8 -12 8
-11 14 9 35 29 31 23 41 -34 55 -53 13 -53 6 -3 130 33 86 34 124 1 129 -14 2
-23 -3 -27 -16z"/>
<path d="M11615 7504 c-3 -25 -5 -48 -2 -50 2 -2 -2 -26 -8 -52 -11 -45 -14
-47 -51 -52 -31 -4 -39 -9 -39 -25 0 -17 6 -20 38 -17 33 3 38 1 33 -15 -3
-10 -7 -30 -10 -45 -2 -14 -10 -36 -16 -48 -14 -25 0 -46 23 -37 15 5 47 97
47 132 0 15 7 17 46 12 50 -5 67 -20 60 -52 -3 -11 -8 -32 -12 -47 -5 -23 -3
-28 13 -28 13 0 26 13 38 39 14 33 15 45 5 75 -12 36 -22 42 -113 61 -20 4
-27 10 -23 21 3 8 9 50 12 94 7 76 6 80 -13 80 -17 0 -22 -9 -28 -46z"/>
<path d="M12944 7505 c-8 -20 4 -35 26 -35 25 0 35 17 20 35 -16 19 -39 19
-46 0z"/>
<path d="M9660 7481 c0 -16 6 -31 14 -34 19 -8 26 1 26 35 0 21 -5 28 -20 28
-15 0 -20 -7 -20 -29z"/>
<path d="M10636 7501 c-4 -6 -6 -25 -6 -43 1 -31 -21 -143 -35 -179 -4 -11
-14 -15 -26 -12 -15 4 -19 0 -19 -20 0 -32 70 -97 106 -97 66 0 135 81 114
135 -12 32 -51 48 -86 34 -15 -5 -28 -8 -30 -7 -2 2 1 21 6 43 4 22 10 65 12
95 2 44 0 55 -14 58 -9 2 -19 -1 -22 -7z m94 -238 c-1 -31 -36 -63 -69 -63
-40 0 -40 20 0 54 36 30 69 34 69 9z"/>
<path d="M10947 7493 c-4 -3 -7 -19 -7 -35 0 -21 5 -28 19 -28 24 0 34 36 14
55 -17 17 -17 17 -26 8z"/>
<path d="M9086 7365 c-28 -30 -33 -32 -42 -18 -21 33 -41 7 -48 -63 -11 -105
9 -110 70 -19 48 73 57 77 49 22 -9 -61 12 -69 64 -22 l38 35 11 -25 c16 -36
79 -35 65 1 -3 8 -12 14 -20 14 -13 0 -14 8 -9 40 8 53 -12 62 -56 24 l-33
-27 -3 24 c-9 58 -41 63 -86 14z"/>
<path d="M11790 7381 c0 -23 37 -38 53 -22 7 7 6 15 -3 26 -18 22 -50 19 -50
-4z"/>
<path d="M12896 7357 c-31 -41 -46 -79 -46 -121 0 -54 37 -72 85 -40 30 19 38
39 21 53 -10 8 -20 5 -41 -11 l-28 -22 7 39 c4 21 19 53 33 72 24 31 26 63 4
63 -6 0 -21 -15 -35 -33z"/>
<path d="M9370 7338 c-48 -51 -59 -83 -36 -106 14 -15 18 -15 50 1 33 15 35
15 41 -2 8 -27 36 -35 54 -16 14 14 14 17 1 25 -12 7 -12 16 -4 48 19 70 0 80
-56 30 l-35 -33 29 32 c17 19 26 38 23 47 -10 25 -23 19 -67 -26z"/>
<path d="M10417 7359 c-9 -10 -23 -19 -32 -19 -24 0 -75 -57 -75 -85 0 -14 11
-37 26 -52 22 -22 32 -25 74 -21 27 3 60 12 74 22 49 31 28 133 -33 165 -13 7
-22 5 -34 -10z m41 -117 c-10 -7 -34 -16 -53 -19 -31 -5 -35 -3 -41 22 -8 33
4 46 53 54 34 6 39 4 49 -19 9 -21 8 -27 -8 -38z"/>
<path d="M11993 7373 c-8 -3 -13 -22 -13 -48 0 -32 -7 -52 -24 -71 l-23 -28
-14 37 c-14 39 -35 48 -46 21 -9 -23 26 -84 55 -97 21 -10 27 -7 53 23 16 19
34 51 40 71 9 30 15 35 34 31 25 -4 38 8 27 25 -10 15 -74 41 -89 36z"/>
<path d="M13102 7360 c-59 -27 -64 -46 -19 -85 38 -33 50 -62 21 -51 -39 15
-62 17 -69 6 -12 -19 18 -41 63 -47 35 -5 42 -2 57 20 20 31 13 59 -22 87 -30
23 -28 27 24 45 47 16 58 45 16 45 -15 0 -47 -9 -71 -20z"/>
<path d="M12185 7352 c-31 -19 -63 -52 -51 -52 4 0 1 -7 -8 -15 -14 -14 -14
-19 1 -50 26 -54 88 -75 172 -59 22 5 31 12 29 23 -3 13 -17 16 -66 17 -42 0
-68 6 -78 16 -13 13 -10 16 25 27 64 19 84 65 43 99 -21 16 -32 15 -67 -6z
m35 -42 c-8 -5 -19 -10 -25 -10 -5 0 -3 5 5 10 8 5 20 10 25 10 6 0 3 -5 -5
-10z"/>
<path d="M9581 7347 c-6 -8 -12 -46 -14 -83 -2 -56 1 -69 13 -69 21 0 44 134
26 153 -10 11 -15 10 -25 -1z"/>
<path d="M9712 7325 c-20 -19 -31 -35 -24 -35 6 0 12 -5 12 -11 0 -6 -7 -9
-15 -5 -16 6 -40 -28 -30 -44 12 -20 33 -9 59 30 14 22 28 40 29 40 2 0 1 -16
-1 -35 -5 -41 11 -65 43 -65 29 0 63 36 48 51 -8 8 -17 8 -31 0 -18 -10 -19
-8 -14 34 4 43 -8 75 -29 75 -5 0 -26 -16 -47 -35z"/>
<path d="M11060 7338 c-19 -13 -42 -37 -52 -55 -17 -28 -18 -35 -5 -65 19 -46
56 -60 148 -56 58 2 74 6 74 18 0 11 -17 16 -72 20 -39 3 -74 8 -77 11 -4 3
12 18 34 33 42 28 60 68 43 95 -15 25 -55 24 -93 -1z m28 -55 c-15 -15 -31
-23 -35 -19 -4 4 3 16 17 26 37 29 49 24 18 -7z m-61 -45 c-3 -8 -6 -5 -6 6
-1 11 2 17 5 13 3 -3 4 -12 1 -19z"/>
<path d="M11316 7339 c-32 -25 -56 -69 -56 -102 0 -52 80 -86 125 -54 28 21 9
40 -31 33 -26 -5 -35 -3 -43 12 -13 24 21 82 48 82 23 0 34 23 18 39 -16 16
-31 14 -61 -10z"/>
<path d="M10896 7293 c-2 -10 -8 -57 -11 -104 -4 -48 -10 -91 -14 -98 -5 -8
-402 -12 -1502 -14 l-1494 -2 1498 -3 1497 -2 -20 -40 c-11 -21 -29 -44 -40
-50 -17 -9 -22 -7 -30 15 -6 15 -14 23 -20 20 -5 -3 -10 -1 -10 5 0 6 -5 8
-11 4 -13 -8 -3 -53 18 -76 37 -41 109 -1 139 77 l17 45 2326 2 2326 3 -2323
2 -2323 3 6 68 c12 137 11 156 -7 160 -9 2 -19 -5 -22 -15z"/>
<path d="M9714 7002 c-10 -6 -27 -65 -28 -97 -1 -5 -4 -12 -7 -15 -4 -3 -16
-45 -27 -94 -12 -48 -23 -90 -26 -93 -2 -3 -21 0 -41 7 -40 13 -65 8 -65 -14
0 -15 10 -19 68 -31 33 -7 33 -8 27 -48 -4 -23 -11 -57 -17 -75 -7 -25 -7 -37
2 -45 20 -20 47 26 55 93 7 57 8 60 34 60 34 0 52 17 41 39 -5 9 -11 24 -14
35 -4 11 -12 16 -21 12 -18 -6 -17 -3 26 149 23 79 26 102 16 112 -6 7 -17 9
-23 5z"/>
<path d="M8260 6933 c1 -27 -8 -84 -19 -127 -11 -44 -18 -83 -15 -88 3 -4 1
-8 -3 -8 -13 0 -43 -122 -36 -148 9 -37 39 -26 63 24 21 43 44 63 57 51 3 -3
8 -26 10 -51 6 -47 24 -73 43 -61 13 8 4 98 -11 125 -5 8 -9 12 -9 8 0 -5 -9
1 -20 12 -16 16 -25 18 -45 10 -14 -5 -25 -8 -25 -7 0 1 4 17 9 35 6 18 6 30
1 27 -5 -3 -12 -1 -15 5 -4 6 -1 9 6 8 14 -3 39 58 43 108 2 17 6 36 10 43 5
7 5 28 2 47 -5 25 -12 34 -27 34 -17 0 -19 -7 -19 -47z"/>
<path d="M12937 6974 c-4 -4 -7 -17 -7 -28 -1 -12 -8 -39 -17 -61 -8 -22 -26
-69 -39 -105 -22 -63 -24 -65 -61 -68 -21 -2 -42 -7 -47 -12 -16 -16 14 -40
45 -36 28 3 29 2 29 -40 0 -23 -5 -55 -10 -70 -8 -21 -8 -31 3 -41 22 -22 37
5 50 87 9 61 13 70 31 70 32 0 50 16 42 35 -4 12 -14 16 -32 12 -23 -4 -25 -2
-19 21 3 14 22 66 41 115 19 49 34 97 32 105 -3 18 -29 27 -41 16z"/>
<path d="M9845 6900 c-3 -6 -24 -60 -46 -121 -22 -61 -48 -130 -58 -152 -18
-40 -25 -68 -22 -94 2 -27 30 -11 81 48 l53 61 14 -52 c17 -65 20 -70 45 -70
17 0 19 4 14 28 -4 15 -11 49 -16 75 -9 48 -24 77 -40 77 -5 0 -22 -12 -39
-26 -17 -14 -31 -24 -31 -22 0 2 22 64 72 201 15 40 -7 79 -27 47z"/>
<path d="M11036 6848 c-13 -29 -27 -68 -31 -85 -6 -32 -8 -33 -56 -33 -46 0
-50 -2 -47 -22 3 -20 8 -22 45 -20 l41 3 -18 -69 c-30 -115 -35 -162 -16 -162
18 0 40 36 31 51 -4 5 -2 15 3 22 6 7 14 30 18 52 9 46 8 42 18 75 6 20 13 25
39 25 22 0 33 5 35 18 3 13 -3 17 -27 17 -29 0 -31 2 -25 28 4 15 15 49 26 76
33 87 1 108 -36 24z"/>
<path d="M11416 6873 c-3 -10 -8 -36 -12 -58 -7 -36 -6 -39 9 -26 15 12 17 11
17 -4 0 -9 -9 -19 -20 -22 -12 -3 -20 -14 -20 -27 0 -30 -11 -43 -43 -51 -31
-8 -35 -22 -9 -41 16 -12 16 -15 -6 -55 -16 -28 -21 -44 -14 -51 18 -18 39 -1
65 54 25 53 27 54 62 50 43 -5 59 -35 49 -88 -5 -26 -3 -34 9 -34 26 0 40 29
38 77 -2 57 -20 79 -73 88 -40 7 -40 7 -33 44 4 20 9 50 10 66 2 17 6 38 10
48 4 9 5 24 1 32 -7 21 -34 19 -40 -2z"/>
<path d="M12655 6729 c-12 -19 4 -59 25 -59 26 0 32 13 20 44 -10 27 -34 34
-45 15z"/>
<path d="M8460 6717 c-23 -12 -70 -71 -70 -88 0 -17 34 -40 52 -36 12 3 29 -6
49 -25 29 -29 31 -30 47 -14 16 16 16 18 -6 34 -17 13 -22 26 -20 55 2 20 9
39 16 42 17 6 15 32 -4 39 -23 9 -36 7 -64 -7z"/>
<path d="M10735 6714 c-67 -23 -84 -67 -39 -103 14 -11 30 -22 37 -24 24 -9
-3 -19 -62 -24 -67 -6 -84 -19 -55 -40 23 -17 90 -9 152 18 58 25 57 52 -3 81
-25 12 -45 25 -45 30 0 16 42 29 75 22 31 -5 35 -4 35 14 0 36 -37 46 -95 26z"/>
<path d="M11584 6706 c-8 -21 3 -36 27 -36 15 0 20 6 17 22 -4 27 -35 37 -44
14z"/>
<path d="M12403 6690 c-41 -24 -43 -57 -8 -98 21 -25 23 -31 9 -36 -9 -3 -24
-6 -34 -6 -28 0 -43 -25 -25 -40 13 -11 24 -11 58 0 76 22 86 48 37 95 -16 16
-30 32 -30 35 0 3 15 13 33 22 24 11 36 13 49 4 25 -15 47 7 28 29 -18 21 -79
19 -117 -5z"/>
<path d="M13057 6693 c-31 -16 -57 -60 -57 -97 0 -15 12 -34 31 -50 26 -22 40
-26 92 -25 66 0 128 17 134 35 6 18 -27 22 -92 11 -61 -9 -115 1 -115 22 0 6
20 22 45 37 45 26 56 49 33 72 -15 15 -36 14 -71 -5z"/>
<path d="M8815 6675 c-35 -34 -33 -78 3 -104 61 -43 187 -55 187 -17 0 16 -9
20 -55 23 -115 8 -114 8 -75 23 33 12 43 54 20 80 -24 27 -51 25 -80 -5z"/>
<path d="M10021 6668 c-17 -17 -32 -37 -33 -42 -13 -89 10 -116 97 -116 69 0
114 22 95 45 -8 10 -18 11 -36 4 -29 -10 -75 -12 -98 -3 -25 10 -19 33 12 40
48 11 72 32 72 63 0 51 -62 57 -109 9z"/>
<path d="M8690 6681 c0 -5 -9 -31 -21 -57 -15 -37 -22 -45 -29 -34 -6 8 -10
27 -10 43 0 20 -5 27 -20 27 -35 0 -24 -87 16 -127 27 -27 51 -15 69 35 10 26
24 57 32 70 11 18 12 26 2 38 -13 16 -39 19 -39 5z"/>
<path d="M11172 6630 c-12 -5 -28 -7 -36 -4 -7 3 -23 -7 -35 -22 -21 -27 -28
-53 -13 -55 4 0 15 -2 24 -4 10 -2 29 5 42 16 l24 19 -1 -46 c-2 -52 15 -68
33 -34 6 11 12 46 13 78 2 61 -6 70 -51 52z"/>
<path d="M11652 6596 c-48 -52 -51 -67 -21 -97 18 -18 28 -20 67 -14 53 7 67
17 59 38 -4 11 -17 13 -52 9 -46 -5 -47 -4 -35 18 6 12 25 29 41 38 33 19 35
45 3 50 -14 2 -34 -12 -62 -42z"/>
<path d="M12584 6577 c-20 -42 -13 -70 18 -65 14 2 22 11 24 28 1 14 4 34 6
45 6 36 -30 30 -48 -8z"/>
<path d="M9797 6383 c1057 -2 2789 -2 3850 0 1060 1 196 2 -1922 2 -2117 0
-2985 -1 -1928 -2z"/>
<path d="M9284 6103 c-3 -10 -21 -52 -39 -93 -89 -198 -104 -265 -60 -265 13
0 20 7 21 20 1 11 2 27 3 36 1 20 134 81 165 77 19 -3 21 -9 21 -63 0 -108 37
-111 49 -3 5 47 2 67 -9 85 -15 22 -53 34 -40 12 4 -6 -2 -5 -14 3 -11 7 -17
15 -13 18 4 3 28 23 55 44 46 36 57 58 37 71 -6 4 -56 -30 -111 -75 -55 -45
-102 -80 -104 -78 -2 1 17 47 42 101 25 54 42 104 39 112 -8 21 -35 19 -42 -2z"/>
<path d="M9666 6011 c-8 -12 21 -34 34 -26 17 11 11 35 -9 35 -11 0 -22 -4
-25 -9z"/>
<path d="M8472 5918 c-45 -27 -72 -49 -72 -60 0 -24 28 -23 65 2 44 29 46 25
14 -32 -52 -96 -33 -121 43 -54 l52 45 18 -30 c27 -44 58 -55 97 -34 34 17 44
36 55 103 5 33 3 44 -9 48 -21 8 -25 3 -36 -47 -18 -78 -45 -89 -78 -33 -18
31 -26 36 -50 32 l-29 -4 25 38 c27 40 25 68 -4 68 -10 0 -51 -19 -91 -42z"/>
<path d="M8822 5893 c-41 -59 -45 -72 -27 -99 17 -27 42 -27 108 -2 50 19 48
87 -3 113 -41 21 -56 19 -78 -12z m73 -42 c6 -11 -26 -31 -50 -31 -13 0 -14 4
-5 20 11 21 44 27 55 11z"/>
<path d="M9004 5885 c-28 -28 -34 -89 -9 -98 16 -7 31 11 27 33 -4 29 13 43
38 30 15 -8 25 -9 32 -2 17 17 2 39 -32 50 -28 10 -34 9 -56 -13z"/>
<path d="M9899 5900 c-72 -22 -96 -61 -63 -108 12 -17 25 -22 58 -22 23 0 46
3 50 7 15 16 46 13 47 -5 0 -9 3 -29 5 -44 l5 -28 -1063 -3 -1063 -2 1063 -3
1062 -2 0 -30 c0 -30 -1 -30 -55 -30 -109 0 -159 -44 -136 -121 14 -47 41 -70
86 -74 48 -5 98 39 122 106 17 47 19 49 55 49 39 0 59 17 37 31 -8 5 -26 9
-41 9 -24 0 -28 4 -28 30 l0 30 2763 3 2762 2 -2762 3 -2763 2 -1 48 c-2 97
-12 134 -36 130 -10 -1 -29 5 -43 15 -13 9 -27 17 -30 16 -3 0 -17 -4 -31 -9z
m48 -55 c7 -20 5 -22 -39 -30 -31 -6 -38 -4 -38 8 0 32 66 50 77 22z m30 -291
c-10 -33 -57 -84 -78 -84 -20 0 -49 42 -49 70 0 25 5 31 33 38 17 5 48 9 68
10 l37 1 -11 -35z"/>
<path d="M9679 5845 c-52 -55 -62 -72 -55 -91 8 -20 34 -18 40 4 4 10 25 36
47 58 l41 39 -5 -30 c-12 -66 -12 -69 6 -73 12 -2 22 7 32 32 21 49 19 83 -4
96 -36 18 -59 11 -102 -35z"/>
<path d="M9534 5835 c-9 -14 -23 -25 -30 -25 -18 0 -18 -31 -1 -55 18 -23 32
-14 58 37 30 60 8 96 -27 43z"/>
<path d="M10195 5776 c-20 -14 -15 -46 8 -46 19 0 50 36 42 49 -9 15 -27 14
-50 -3z"/>
<path d="M9802 5003 c1054 -2 2782 -2 3840 0 1058 1 195 2 -1917 2 -2112 0
-2977 -1 -1923 -2z"/>
<path d="M9802 3613 c1054 -2 2782 -2 3840 0 1058 1 195 2 -1917 2 -2112 0
-2977 -1 -1923 -2z"/>
<path d="M9797 2923 c1058 -2 2788 -2 3845 0 1058 1 193 2 -1922 2 -2115 0
-2980 -1 -1923 -2z"/>
<path d="M9797 2233 c1057 -2 2789 -2 3850 0 1060 1 196 2 -1922 2 -2117 0
-2985 -1 -1928 -2z"/>
<path d="M9797 1543 c1058 -2 2788 -2 3845 0 1058 1 193 2 -1922 2 -2115 0
-2980 -1 -1923 -2z"/>
<path d="M9802 853 c1054 -2 2782 -2 3840 0 1058 1 195 2 -1917 2 -2112 0
-2977 -1 -1923 -2z"/>
</g>
</svg>
