<?xml version="1.0" standalone="no"?>
<!DOCTYPE svg PUBLIC "-//W3C//DTD SVG 20010904//EN"
 "http://www.w3.org/TR/2001/REC-SVG-20010904/DTD/svg10.dtd">
<svg version="1.0" xmlns="http://www.w3.org/2000/svg"
 width="1618.000000pt" height="1214.000000pt" viewBox="0 0 1618.000000 1214.000000"
 preserveAspectRatio="xMidYMid meet">

<g transform="translate(0.000000,1214.000000) scale(0.100000,-0.100000)"
fill="#000000" stroke="none">
<path d="M14452 11537 c-29 -45 -68 -107 -87 -137 -19 -30 -35 -62 -35 -72 0
-25 34 -23 76 3 l34 21 0 -35 c0 -41 22 -63 71 -72 26 -5 39 -2 48 9 8 9 20
16 27 16 8 0 14 9 14 20 0 16 -7 20 -35 20 -19 0 -35 -5 -35 -11 0 -6 -10 -9
-22 -7 -20 3 -24 11 -28 53 -5 47 -7 50 -33 50 -34 -1 -33 3 38 111 58 87 67
114 38 114 -11 -1 -38 -33 -71 -83z"/>
<path d="M10640 11543 c-77 -45 -83 -63 -44 -128 l27 -47 -20 -26 c-13 -17
-28 -26 -39 -23 -40 8 -49 6 -48 -14 0 -11 5 -19 12 -17 7 1 12 -2 12 -7 0 -5
10 -11 22 -14 16 -5 31 4 60 32 45 45 48 75 16 133 l-23 40 30 24 c17 14 42
27 57 31 15 3 26 9 23 13 -3 4 3 7 13 6 9 0 17 6 17 14 0 29 -49 21 -115 -17z"/>
<path d="M12855 11552 c-49 -3 -49 -4 -25 -18 l25 -14 -30 6 c-16 4 -34 9 -40
13 -12 7 -156 9 -169 2 -6 -2 -34 -3 -63 -2 -68 3 -93 -5 -93 -31 0 -19 5 -20
69 -15 38 2 75 8 82 12 9 6 11 3 5 -10 -4 -11 -2 -22 6 -27 10 -6 10 -8 -2 -8
-10 0 -21 -22 -33 -62 -10 -35 -29 -85 -43 -113 l-23 -51 -456 -3 c-448 -3
-455 -2 -455 17 0 11 -8 30 -18 42 -15 18 -24 21 -51 15 -35 -7 -52 -32 -31
-45 7 -4 21 -5 31 -3 13 4 19 0 19 -11 0 -15 -154 -16 -1837 -19 l-1838 -2
1839 -3 c1746 -2 1838 -3 1831 -19 -13 -29 -11 -66 3 -70 7 -3 21 14 33 41
l20 46 380 0 c336 0 382 -2 396 -16 14 -13 30 -15 102 -9 47 4 102 10 121 12
19 3 692 8 1495 12 1398 6 1420 6 527 9 l-934 2 60 50 c61 51 72 66 65 88 -7
20 -21 14 -65 -29 l-43 -42 -3 31 c-5 48 -24 57 -79 39 -26 -9 -49 -14 -51
-12 -2 2 8 21 22 42 64 93 5 117 -133 53 -39 -18 -71 -39 -71 -45 0 -26 31
-24 92 5 35 17 69 30 76 30 16 0 -16 -49 -66 -100 -43 -44 -53 -63 -42 -80 7
-11 17 -9 57 10 78 37 134 60 145 60 6 0 8 -14 4 -36 -5 -22 -3 -41 5 -50 10
-12 -53 -14 -455 -14 -423 0 -466 2 -466 16 0 14 -10 15 -85 9 l-85 -7 27 69
c14 37 30 91 36 118 5 28 13 53 16 58 4 4 65 10 137 13 86 4 134 10 143 19 16
16 6 36 -17 33 -9 -1 -39 -3 -67 -6z"/>
<path d="M14015 11540 c-7 -24 1 -40 20 -40 17 0 34 30 28 48 -7 19 -41 14
-48 -8z"/>
<path d="M8733 11525 c-66 -40 -66 -60 2 -121 59 -51 65 -74 22 -74 -13 0 -33
7 -45 16 -20 14 -23 14 -28 -1 -9 -21 21 -52 57 -60 35 -8 74 14 91 50 14 31
-7 65 -63 101 -45 28 -42 42 11 64 33 14 39 34 14 44 -20 8 -12 10 -61 -19z"/>
<path d="M11097 11513 c-68 -59 -116 -203 -68 -203 15 0 23 13 36 58 9 31 17
59 17 62 0 3 15 20 34 38 36 35 61 41 70 17 8 -20 44 -19 44 0 0 22 -45 65
-69 65 -11 0 -39 -17 -64 -37z"/>
<path d="M8447 11520 c-38 -30 -91 -142 -81 -172 8 -25 32 -47 51 -48 17 0 94
70 88 80 -3 4 2 10 10 14 12 4 15 -4 15 -44 0 -41 4 -52 24 -65 20 -13 29 -14
46 -5 25 14 22 34 -7 38 -20 3 -21 8 -16 82 6 77 5 80 -23 109 -34 37 -70 40
-107 11z m50 -52 c0 -23 -10 -46 -34 -75 -36 -45 -53 -54 -53 -28 0 31 64 135
83 135 2 0 4 -15 4 -32z"/>
<path d="M10325 11508 c-58 -71 -148 -158 -176 -170 -31 -14 -39 -42 -15 -51
14 -6 69 29 114 72 21 21 22 21 22 3 0 -11 7 -25 16 -33 13 -11 20 -10 42 4
15 9 26 21 24 27 -1 7 2 8 8 5 6 -4 19 0 29 10 18 15 18 14 14 -27 -6 -53 11
-74 49 -59 48 18 63 70 17 58 -24 -6 -25 14 -4 74 30 85 2 91 -81 15 -32 -30
-60 -53 -63 -51 -6 6 20 67 41 94 21 28 24 61 4 61 -8 0 -26 -15 -41 -32z"/>
<path d="M9500 11507 c-64 -33 -95 -148 -48 -181 30 -21 39 -20 82 9 l36 24
25 -25 c28 -28 68 -29 73 -3 2 11 -6 19 -24 23 -26 7 -26 8 -20 67 7 55 6 59
-14 59 -11 0 -29 9 -40 20 -23 23 -36 24 -70 7z m40 -52 c0 -8 7 -15 15 -15 8
0 15 -4 15 -9 0 -14 -69 -71 -85 -71 -21 0 -19 39 5 78 20 33 50 43 50 17z"/>
<path d="M10827 11484 c-15 -8 -39 -33 -53 -55 -29 -47 -26 -89 9 -114 33 -23
97 -17 97 9 0 16 -36 37 -54 30 -8 -3 -17 -1 -20 4 -3 5 19 26 49 46 30 20 55
43 55 50 0 47 -31 58 -83 30z"/>
<path d="M14145 11457 c-20 -16 -15 -59 11 -89 14 -14 12 -17 -20 -28 -20 -6
-44 -9 -54 -5 -27 8 -49 -20 -31 -41 15 -18 61 -13 127 16 47 21 51 35 21 74
-22 28 -18 46 11 46 18 0 34 23 23 34 -11 11 -69 6 -88 -7z"/>
<path d="M13908 11365 c-29 -64 -31 -95 -6 -95 16 0 78 129 71 147 -11 29 -36
9 -65 -52z"/>
<path d="M630 6040 l0 -5190 3310 0 3310 0 0 2025 c0 1987 0 2025 19 2025 11
0 45 10 76 22 55 21 57 22 51 52 -4 17 -15 38 -26 46 -21 16 -48 59 -82 130
-11 25 -25 47 -29 48 -5 2 -9 462 -9 1023 l0 1018 143 45 c420 133 819 217
1182 251 183 17 525 39 529 34 4 -5 -222 -347 -257 -389 -25 -30 -27 -35 -13
-48 14 -14 17 -14 34 1 10 9 38 47 62 84 l43 68 63 1 62 1 -14 -40 c-8 -21
-11 -43 -8 -49 13 -21 39 0 55 47 15 44 21 51 53 58 26 7 36 14 36 28 0 14 -7
19 -30 19 -34 0 -35 1 -15 90 8 36 14 79 15 97 0 31 1 32 53 37 87 9 673 32
1327 52 197 6 494 -6 508 -21 4 -3 6 -20 6 -38 -1 -33 -11 -57 -103 -231 -54
-102 -62 -148 -28 -154 12 -2 17 3 17 18 0 11 34 86 76 166 52 102 77 161 81
196 6 46 7 49 32 44 61 -12 444 -27 821 -31 223 -3 422 -8 443 -11 31 -5 37
-10 37 -31 0 -82 -69 -249 -125 -303 -30 -29 -35 -31 -41 -16 -14 37 55 156
90 156 8 0 19 6 25 14 18 21 -8 35 -46 24 -73 -20 -143 -186 -97 -232 20 -21
33 -20 51 2 8 9 12 11 8 5 -12 -25 12 -12 47 25 46 47 92 143 119 252 12 47
22 86 23 87 1 2 56 -4 121 -12 66 -8 168 -15 227 -15 l108 0 -6 -27 c-8 -35
-10 -37 -62 -52 -43 -12 -63 -34 -45 -52 6 -6 23 -4 46 6 l37 15 -41 -112
c-51 -140 -55 -157 -38 -154 27 4 36 16 58 78 64 185 72 199 98 196 29 -3 50
20 40 46 -4 9 -16 16 -27 16 -14 0 -20 7 -20 24 0 22 5 24 73 30 39 4 128 16
197 26 69 10 158 22 198 26 l73 7 -6 -37 c-10 -52 18 -48 46 5 l21 42 242 -7
c260 -8 272 -6 385 47 35 16 48 30 65 69 l21 48 620 2 620 3 -619 2 c-582 3
-618 4 -611 20 3 10 9 43 11 73 5 47 2 60 -18 90 -31 45 -72 70 -90 52 -9 -9
-4 -20 27 -52 33 -33 38 -45 37 -82 0 -24 -5 -55 -11 -70 l-11 -28 -270 0
-270 0 27 42 c15 24 37 54 50 69 13 14 23 33 23 42 0 27 -34 20 -58 -13 -30
-39 -48 -38 -56 4 -8 41 -31 65 -48 48 -13 -13 7 -97 29 -124 13 -14 12 -20
-2 -42 l-17 -26 -2044 0 c-1124 0 -2044 2 -2044 5 0 20 57 115 70 115 26 0
115 57 148 95 52 58 38 136 -21 121 -12 -3 -42 -22 -66 -43 -26 -21 -55 -37
-70 -38 -24 0 -26 -4 -26 -42 0 -22 -2 -40 -5 -38 -3 2 -25 -37 -49 -86 l-44
-89 -826 -2 -826 -3 823 -2 c821 -3 823 -3 812 -23 -24 -46 22 -55 48 -10 l17
30 2043 0 c1123 0 2042 -2 2042 -5 0 -3 -18 -30 -40 -60 l-39 -53 -68 -7 c-37
-4 -142 -17 -233 -30 -288 -40 -278 -40 -282 -13 -2 15 -10 23 -23 23 -15 0
-19 -6 -17 -22 3 -20 -1 -23 -35 -25 -163 -7 -401 16 -419 41 -10 13 -15 14
-37 2 -14 -8 -31 -10 -38 -5 -7 4 -245 11 -529 15 -325 5 -583 14 -700 24
-369 32 -661 31 -1490 -7 -129 -5 -311 -12 -404 -14 -93 -2 -171 -6 -174 -9
-3 -3 -39 -5 -81 -5 -91 0 -472 -26 -591 -40 -323 -39 -664 -115 -1061 -235
-81 -25 -150 -45 -153 -45 -3 0 -6 887 -6 1970 l0 1970 -3310 0 -3310 0 0
-5190z m6610 3211 l0 -1968 -107 -43 c-279 -110 -496 -247 -724 -457 -110
-101 -150 -145 -241 -263 -185 -240 -262 -411 -275 -605 -15 -235 79 -434 264
-557 133 -89 214 -123 458 -193 214 -62 289 -91 479 -187 21 -11 35 -15 32
-10 -3 6 -1 12 6 14 24 8 -6 30 -110 79 -145 69 -200 89 -408 149 -490 140
-675 321 -675 660 0 218 75 386 300 670 148 187 371 377 611 518 83 49 355
172 381 172 15 0 12 -2027 -3 -2032 -9 -3 -9 -11 0 -34 12 -27 10 -37 -16 -90
-15 -32 -38 -75 -50 -94 -12 -19 -22 -44 -22 -55 0 -10 -12 -29 -27 -40 -28
-23 -25 -45 6 -45 9 0 32 11 51 25 19 14 42 25 52 25 17 0 18 -79 18 -2015 l0
-2015 -3300 0 -3300 0 0 5180 0 5180 3300 0 3300 0 0 -1969z m2570 -1197 c0
-22 -40 -64 -83 -89 l-51 -28 22 30 c38 54 112 111 112 87z m4455 -324 c-19
-37 -43 -53 -125 -80 -58 -20 -76 -21 -165 -14 -55 4 -151 7 -212 6 -62 0
-113 1 -113 4 0 3 19 29 41 59 l41 55 274 0 275 0 -16 -30z m-5119 -202 c-2
-7 -10 -47 -16 -89 -7 -42 -16 -82 -20 -89 -9 -15 -88 -31 -96 -19 -2 5 25 53
61 109 63 96 79 115 71 88z m-86 -84 c0 -8 -4 -12 -10 -9 -5 3 -10 10 -10 16
0 5 5 9 10 9 6 0 10 -7 10 -16z m47 -240 c-3 -3 -12 -4 -19 -1 -8 3 -5 6 6 6
11 1 17 -2 13 -5z"/>
<path d="M3071 10971 c-10 -7 -11 -19 -3 -54 5 -26 6 -48 1 -49 -14 -5 -23
-259 -10 -291 17 -43 47 -33 41 13 -6 53 -5 133 4 255 7 91 6 113 -6 122 -8 7
-19 8 -27 4z"/>
<path d="M1534 10950 c-11 -4 -33 -23 -48 -41 -24 -28 -27 -40 -23 -76 6 -52
20 -69 114 -140 76 -56 101 -87 82 -99 -19 -11 -133 -8 -157 5 -19 10 -21 15
-11 27 9 12 9 18 0 27 -9 9 -18 8 -39 -3 -41 -24 -39 -45 9 -77 38 -25 51 -28
123 -27 96 0 126 13 126 54 0 36 -37 80 -109 129 -73 50 -94 75 -94 111 0 44
29 72 72 68 28 -2 39 -9 49 -30 14 -31 39 -37 49 -12 9 24 -19 66 -54 81 -36
15 -58 16 -89 3z"/>
<path d="M2438 10939 c-2 -6 7 -42 19 -80 30 -89 35 -181 10 -206 -16 -17 -19
-17 -51 1 -54 29 -137 142 -151 204 -4 21 -12 32 -24 32 -19 0 -20 -8 -34
-285 -1 -29 2 -40 12 -40 17 0 29 38 39 123 l7 63 44 -57 c63 -81 119 -109
176 -88 40 16 55 94 35 190 -24 115 -37 149 -58 152 -11 2 -22 -2 -24 -9z"/>
<path d="M2107 10926 c3 -4 -4 -5 -16 -1 -13 4 -51 -2 -89 -13 -43 -13 -99
-20 -157 -20 -49 -1 -93 -1 -97 -2 -12 0 -9 -28 4 -36 6 -4 38 -9 70 -10 32
-2 63 -6 68 -9 6 -3 10 -43 11 -88 1 -103 9 -132 34 -132 14 0 19 6 18 20 -1
11 -5 63 -9 115 l-7 95 79 23 c44 12 90 26 104 30 34 10 39 40 6 38 -13 0 -22
-5 -19 -10z"/>
<path d="M4005 10903 c-77 -40 -155 -143 -155 -205 0 -30 8 -47 37 -79 53 -59
104 -82 193 -86 81 -4 122 9 128 41 4 16 0 17 -40 10 -139 -28 -273 33 -271
122 1 45 60 116 124 152 l45 26 47 -23 c47 -23 67 -22 67 5 0 19 -75 54 -115
53 -16 0 -43 -7 -60 -16z"/>
<path d="M4398 10889 c-10 -5 -18 -16 -18 -23 0 -7 42 -61 94 -119 52 -58 97
-115 101 -128 10 -32 -17 -49 -78 -49 -54 0 -87 13 -87 36 0 16 -46 38 -61 28
-18 -11 -8 -43 21 -68 80 -67 223 -54 251 21 11 32 -22 88 -111 185 l-74 81
58 -6 c38 -4 62 -12 70 -23 15 -20 36 -11 36 15 0 25 -16 36 -72 50 -57 14
-107 14 -130 0z"/>
<path d="M2677 10776 c-9 -24 13 -34 96 -41 68 -6 77 -5 77 9 0 21 -28 31
-106 40 -49 5 -63 4 -67 -8z"/>
<path d="M3256 10765 c-7 -18 -4 -19 86 -36 51 -9 73 -10 92 -1 16 7 26 7 28
1 5 -15 38 1 38 17 0 20 -9 21 -131 29 -92 5 -107 4 -113 -10z"/>
<path d="M3855 10297 c-26 -25 -45 -54 -45 -66 0 -12 14 -66 32 -119 47 -146
38 -213 -32 -242 -33 -14 -40 -44 -14 -54 9 -4 27 0 39 8 22 14 22 13 -6 -68
-50 -145 -49 -245 5 -305 26 -30 82 -54 106 -46 26 8 14 45 -15 45 -12 0 -34
9 -48 20 -52 41 -52 154 -1 288 14 37 27 85 29 107 2 22 7 63 10 90 6 42 1 69
-25 150 -17 55 -33 105 -36 111 -3 6 7 26 22 44 27 31 30 32 81 26 48 -6 53
-4 53 13 0 25 -4 27 -63 36 -46 7 -48 6 -92 -38z"/>
<path d="M4670 10290 c0 -14 7 -20 23 -20 29 0 104 -54 112 -81 10 -31 -5 -98
-36 -166 -16 -34 -29 -71 -29 -82 0 -29 19 -73 41 -97 l20 -22 -28 -7 c-38 -9
-63 -33 -63 -62 0 -13 8 -36 18 -50 20 -31 22 -159 3 -205 -13 -34 -58 -38
-85 -9 -18 20 -46 18 -46 -3 0 -19 41 -54 73 -61 37 -10 81 10 97 43 7 15 15
68 18 118 4 78 1 96 -17 132 -24 47 -25 47 52 57 66 9 70 28 18 73 -60 53 -65
83 -29 162 34 73 47 164 29 207 -27 64 -171 125 -171 73z"/>
<path d="M2437 10253 c-3 -5 1 -35 9 -68 7 -33 14 -90 14 -127 l0 -66 -50 -7
c-39 -5 -50 -11 -50 -25 0 -16 7 -18 50 -16 55 2 52 6 65 -76 5 -34 25 -54 39
-41 3 4 3 34 0 68 l-6 62 66 8 c55 5 67 10 64 23 -3 14 -15 17 -70 16 l-66 -2
-1 77 c-2 93 -21 175 -43 179 -9 2 -18 -1 -21 -5z"/>
<path d="M3050 10151 c0 -12 10 -54 21 -94 33 -113 53 -221 45 -250 -5 -21
-12 -27 -35 -27 -55 0 -81 65 -39 99 25 21 19 51 -10 51 -47 0 -76 -83 -48
-137 16 -32 69 -63 105 -63 12 0 34 12 48 26 25 25 26 29 20 107 -3 45 -13
102 -22 127 -8 25 -21 75 -28 110 -11 54 -17 66 -35 68 -17 3 -22 -2 -22 -17z"/>
<path d="M4251 10063 c-39 -43 -71 -86 -71 -95 0 -50 54 -16 90 56 l20 41 -1
-50 c0 -27 -6 -88 -12 -135 l-12 -85 -68 -11 c-77 -12 -108 -33 -87 -59 11
-14 15 -14 35 -1 13 9 61 17 121 20 153 10 184 19 184 57 0 23 -25 24 -60 4
-14 -8 -38 -14 -54 -15 -26 0 -28 2 -22 33 3 17 10 80 15 138 6 58 15 117 20
131 9 24 -1 48 -20 48 -4 0 -39 -35 -78 -77z"/>
<path d="M2029 10089 c-12 -8 -12 -10 1 -19 13 -9 13 -10 0 -10 -11 -1 -10 -4
4 -15 29 -22 36 -19 36 14 0 31 -18 45 -41 30z"/>
<path d="M1503 10016 c-52 -24 -76 -73 -77 -158 -1 -27 -4 -48 -7 -48 -13 0
-16 -105 -6 -185 6 -54 16 -86 28 -100 30 -31 38 -9 40 104 1 91 4 104 20 108
73 19 158 103 176 171 20 80 -87 147 -174 108z m92 -40 c28 -12 35 -20 35 -43
0 -15 -9 -42 -19 -59 -22 -37 -81 -84 -103 -84 -20 0 -30 25 -22 55 3 13 1 32
-5 43 -15 29 4 67 43 86 38 19 30 19 71 2z"/>
<path d="M2186 9967 c-15 -19 -26 -39 -26 -45 0 -6 -9 -20 -21 -31 -17 -16
-20 -24 -12 -48 17 -51 38 -40 64 34 31 87 51 91 61 11 8 -65 24 -101 41 -95
24 8 6 154 -24 186 -28 30 -54 26 -83 -12z"/>
<path d="M2701 9959 c-67 -68 -63 -136 10 -172 29 -14 47 -16 98 -9 64 9 104
33 85 52 -6 6 -21 6 -44 0 -49 -14 -113 -12 -135 4 -18 13 -18 14 3 20 32 11
82 55 93 83 13 35 -5 63 -41 63 -22 0 -41 -11 -69 -41z m59 -25 c-8 -8 -23
-20 -34 -26 -20 -11 -20 -10 -6 8 18 23 32 34 44 34 5 0 3 -7 -4 -16z"/>
<path d="M3546 9964 c-46 -17 -66 -32 -66 -50 0 -18 38 -17 70 1 14 8 45 15
70 15 56 0 79 12 62 33 -16 19 -86 19 -136 1z"/>
<path d="M1776 9934 c-34 -33 -34 -138 -1 -174 42 -46 140 3 160 79 8 32 -23
98 -50 105 -39 11 -94 6 -109 -10z m102 -47 c15 -12 15 -47 -1 -68 -11 -15
-49 -39 -62 -39 -12 0 -26 56 -21 86 6 27 10 31 39 31 17 0 38 -4 45 -10z"/>
<path d="M2040 9894 c-19 -22 -25 -101 -10 -119 19 -22 34 -13 36 21 0 16 4
46 8 66 7 40 -13 59 -34 32z"/>
<path d="M1745 9359 c-8 -13 -8 -106 0 -119 3 -4 5 -76 6 -159 1 -149 1 -151
26 -171 14 -11 34 -20 45 -20 28 0 80 29 73 41 -4 5 -1 8 5 7 17 -4 60 78 60
112 0 34 -35 80 -60 80 -31 0 -67 -21 -81 -46 -7 -13 -14 -22 -16 -20 -2 2 -6
48 -9 102 -2 55 -8 121 -12 148 -7 49 -23 68 -37 45z m170 -299 c14 -45 -70
-142 -104 -121 -10 7 -9 19 8 57 12 26 29 56 38 66 21 24 50 23 58 -2z"/>
<path d="M2497 9326 c-7 -17 11 -36 34 -36 24 0 33 18 19 35 -16 19 -46 19
-53 1z"/>
<path d="M5646 9230 c-15 -39 -32 -67 -38 -64 -5 3 -30 1 -54 -6 -86 -24 -124
-112 -85 -194 l22 -45 -40 -76 c-45 -84 -51 -115 -23 -115 11 1 31 29 61 90
40 82 47 90 73 90 90 0 138 86 106 191 -10 35 -8 46 17 104 15 36 25 72 21 80
-12 32 -34 12 -60 -55z m-46 -115 c0 -10 -42 -89 -63 -118 -15 -22 -22 -26
-28 -15 -16 24 -10 94 9 110 21 20 82 36 82 23z m31 -107 c-8 -21 -50 -67 -52
-57 -6 31 -3 52 8 56 8 3 19 17 24 32 9 23 12 24 20 9 5 -10 6 -26 0 -40z"/>
<path d="M4216 9281 c-4 -5 -2 -21 4 -36 5 -14 10 -42 10 -61 0 -19 4 -34 8
-34 5 0 7 -12 4 -27 -3 -22 -9 -28 -29 -30 -31 -1 -48 -17 -40 -37 4 -11 15
-13 41 -9 l34 5 11 -53 c5 -30 11 -63 13 -74 4 -26 35 -31 42 -7 4 11 0 45 -9
77 -8 32 -13 60 -12 62 2 2 29 5 60 7 66 5 78 11 70 32 -4 12 -20 15 -72 13
l-66 -3 -11 81 c-7 45 -15 86 -19 92 -8 13 -32 14 -39 2z"/>
<path d="M6445 9268 c-11 -13 -32 -42 -46 -66 -16 -26 -29 -40 -33 -33 -12 19
-35 12 -75 -25 -63 -56 -77 -137 -32 -179 18 -16 18 -18 -14 -83 -45 -93 -48
-107 -30 -122 19 -15 37 -2 42 30 2 11 16 49 32 85 26 56 33 65 56 65 93 0
144 96 94 176 -23 37 -19 49 31 114 40 52 18 86 -25 38z m-118 -208 c-24 -55
-40 -64 -45 -25 -4 33 23 75 48 75 18 0 18 -2 -3 -50z m93 -10 c0 -25 -27 -57
-54 -62 l-24 -5 19 43 c13 31 15 45 7 50 -8 5 -5 10 8 15 21 8 44 -13 44 -41z
m-80 -20 c0 -11 -4 -20 -9 -20 -5 0 -7 9 -4 20 3 11 7 20 9 20 2 0 4 -9 4 -20z"/>
<path d="M4974 9245 c-6 -15 -1 -66 12 -112 5 -16 0 -24 -23 -35 -39 -19 -37
-44 4 -41 l31 3 7 -66 c5 -43 13 -68 22 -71 28 -11 34 12 22 82 -13 79 -8 87
56 83 34 -3 40 0 40 17 0 18 -7 20 -57 20 l-58 0 -7 45 c-3 25 -7 54 -7 65 -1
24 -34 32 -42 10z"/>
<path d="M3862 9198 c3 -25 34 -36 51 -19 14 14 -9 41 -35 41 -14 0 -19 -6
-16 -22z"/>
<path d="M6602 9175 c-37 -42 -49 -79 -32 -100 17 -20 70 -19 99 2 l24 16 -7
-39 c-21 -122 -17 -161 17 -148 12 4 17 19 18 53 1 60 6 94 25 160 22 77 8 84
-59 27 -71 -61 -103 -62 -56 -3 12 17 28 26 42 24 16 -1 22 3 22 18 0 15 -8
21 -31 23 -25 2 -37 -4 -62 -33z"/>
<path d="M5778 9158 c-27 -17 -48 -37 -48 -45 0 -24 28 -26 60 -3 33 23 39 17
14 -18 -8 -12 -13 -22 -10 -22 3 0 -15 -30 -40 -67 -24 -38 -44 -76 -44 -85 0
-36 79 -49 149 -25 37 13 45 25 33 45 -7 10 -16 9 -45 -3 -36 -15 -87 -20 -87
-10 0 3 15 29 33 58 113 178 106 253 -15 175z"/>
<path d="M2466 9155 c-8 -22 35 -146 56 -159 28 -17 40 4 22 39 -9 17 -21 53
-28 80 -13 51 -38 70 -50 40z"/>
<path d="M2640 9143 c-6 -16 -16 -38 -22 -51 -10 -19 -8 -26 10 -44 18 -18 23
-19 37 -8 12 10 15 23 11 42 -9 43 6 32 34 -24 29 -60 53 -79 72 -60 11 11 9
17 -9 32 -13 10 -23 23 -23 29 0 15 -42 95 -54 103 -23 16 -47 7 -56 -19z"/>
<path d="M3273 9152 c-12 -2 -34 -17 -48 -34 -33 -39 -27 -69 21 -118 40 -42
43 -53 10 -44 -30 7 -44 -13 -23 -33 18 -19 61 -20 82 -3 25 20 17 48 -25 94
-22 24 -40 50 -40 59 0 23 31 38 54 25 12 -7 21 -7 28 0 24 24 -17 61 -59 54z"/>
<path d="M2039 9129 c-23 -23 -59 -102 -59 -130 0 -10 10 -29 21 -40 17 -17
29 -20 63 -16 100 14 136 25 136 42 0 23 -15 25 -85 10 -38 -8 -72 -12 -77 -9
-4 3 -8 16 -8 29 0 17 4 23 14 19 8 -3 31 9 52 29 31 28 36 38 30 60 -5 22
-12 27 -36 27 -17 0 -39 -9 -51 -21z"/>
<path d="M2224 9107 c-23 -20 -26 -28 -20 -60 8 -42 34 -61 76 -55 27 4 30 0
65 -80 20 -47 39 -91 42 -98 4 -11 -11 -14 -70 -14 -42 0 -79 -4 -82 -10 -7
-12 45 -79 84 -108 46 -34 76 -37 101 -12 34 34 23 133 -25 237 -20 42 -39
100 -43 128 -8 57 -36 76 -48 31 -10 -40 -54 -46 -54 -8 0 10 9 23 21 30 16
11 18 16 9 28 -17 19 -24 18 -56 -9z m81 -328 c11 -17 -1 -21 -15 -4 -8 9 -8
15 -2 15 6 0 14 -5 17 -11z m93 -51 c-4 -31 -27 -32 -63 -3 l-30 25 48 0 c44
0 48 -2 45 -22z"/>
<path d="M3676 9117 c-44 -32 -23 -177 25 -177 18 0 20 4 14 23 -13 39 -18
108 -8 118 6 6 19 2 35 -11 15 -11 31 -20 37 -20 21 0 11 39 -15 59 -31 24
-62 27 -88 8z"/>
<path d="M3487 9096 c-12 -13 -28 -45 -36 -72 -8 -27 -18 -55 -24 -62 -7 -8
-5 -18 6 -30 9 -10 19 -46 22 -87 7 -68 27 -125 44 -125 25 0 28 29 12 115
l-18 90 28 8 c44 12 72 55 66 100 -6 40 -40 87 -64 87 -8 0 -24 -11 -36 -24z
m63 -73 c0 -16 -36 -53 -51 -53 -14 0 -3 68 14 88 9 11 13 11 24 -4 7 -10 13
-24 13 -31z"/>
<path d="M4000 9088 c-11 -12 -27 -43 -36 -71 -15 -44 -15 -51 -1 -64 22 -22
51 -9 44 19 -7 26 19 92 32 83 6 -3 18 -31 28 -61 18 -57 36 -75 55 -56 8 8 6
25 -7 59 -36 97 -78 130 -115 91z"/>
<path d="M4754 9082 c-19 -13 -64 -86 -64 -104 0 -33 69 -50 110 -28 16 9 21
6 26 -14 8 -33 36 -57 53 -46 12 7 12 14 -2 43 -10 19 -17 42 -17 50 0 9 -7
23 -16 31 -14 15 -18 14 -46 -9 -30 -25 -58 -33 -58 -15 0 5 16 25 35 45 20
19 33 40 30 45 -7 12 -35 13 -51 2z m93 -114 c-3 -8 -6 -5 -6 6 -1 11 2 17 5
13 3 -3 4 -12 1 -19z"/>
<path d="M3820 9007 c0 -31 6 -49 20 -62 31 -28 45 -7 30 42 -7 21 -14 44 -16
51 -2 6 -10 12 -19 12 -11 0 -15 -11 -15 -43z"/>
<path d="M5964 8934 c-15 -22 -15 -27 -3 -35 19 -12 20 -11 49 10 20 16 22 21
11 35 -19 23 -38 20 -57 -10z"/>
<path d="M4001 8613 c0 -21 4 -64 8 -95 l7 -57 -39 -6 c-39 -7 -58 -28 -40
-46 7 -7 22 -7 46 -1 44 12 49 3 46 -93 -2 -70 2 -81 26 -72 16 7 19 33 15
125 l-2 52 62 0 c35 0 59 4 55 9 -3 5 5 11 17 13 13 2 23 8 23 13 0 13 -123
19 -138 7 -19 -16 -32 8 -35 63 -6 81 -16 120 -35 123 -14 3 -17 -4 -16 -35z"/>
<path d="M4957 8633 c-3 -5 -2 -26 3 -46 4 -20 4 -35 -1 -32 -4 3 -9 -22 -11
-57 -3 -57 -5 -63 -28 -68 -36 -9 -35 -46 2 -43 30 2 38 -15 38 -89 0 -48 13
-69 32 -50 6 6 10 45 9 86 l-1 76 45 0 c33 0 47 5 52 16 9 24 -16 36 -63 30
l-41 -5 1 92 c1 78 -2 92 -16 95 -9 2 -19 -1 -21 -5z"/>
<path d="M5730 8577 c0 -44 -42 -125 -68 -132 -13 -3 -27 -3 -33 1 -15 9 -63
-14 -77 -37 -19 -30 -17 -92 3 -126 17 -28 16 -30 -13 -79 -39 -66 -54 -116
-46 -148 11 -44 38 -29 44 24 6 47 64 157 90 170 8 5 34 13 58 20 81 21 102
68 58 132 l-23 35 24 47 c28 55 28 109 1 114 -13 3 -18 -3 -18 -21z m-102
-197 c11 -17 10 -26 -5 -50 -13 -22 -20 -27 -30 -18 -16 13 -17 42 -3 69 14
24 22 24 38 -1z m92 -32 c0 -10 -14 -25 -31 -34 -17 -8 -29 -12 -27 -7 2 4 10
21 18 37 12 23 12 30 2 33 -6 3 -10 9 -7 13 8 13 45 -22 45 -42z"/>
<path d="M3657 8547 c-3 -8 -1 -20 4 -28 10 -17 44 0 44 22 0 19 -41 24 -48 6z"/>
<path d="M6757 8534 c-3 -4 -32 -8 -63 -10 -62 -4 -80 -14 -71 -38 5 -12 17
-15 54 -10 48 5 48 5 21 -11 -43 -25 -64 -77 -34 -88 7 -3 33 -1 56 5 38 10
45 9 56 -7 24 -32 17 -71 -17 -99 -39 -33 -53 -33 -80 3 -12 17 -28 27 -35 24
-41 -15 17 -93 69 -93 70 0 136 76 123 142 -7 38 -39 74 -71 80 -17 3 -13 8
22 32 64 43 68 76 9 76 -18 0 -35 -3 -39 -6z"/>
<path d="M2171 8516 c-10 -11 -9 -20 2 -43 8 -15 22 -51 30 -80 14 -45 14 -51
1 -46 -43 16 -81 -102 -54 -168 15 -35 55 -56 76 -38 25 20 47 109 41 164 -6
62 -57 217 -73 222 -6 2 -16 -3 -23 -11z m51 -248 c3 -27 1 -48 -4 -48 -4 0
-8 -7 -8 -15 0 -20 -10 -19 -25 2 -13 18 -3 76 17 101 14 17 15 15 20 -40z"/>
<path d="M5920 8490 c0 -5 -6 -7 -14 -4 -20 8 -56 -13 -56 -32 0 -22 25 -27
57 -10 83 43 50 -45 -56 -149 -94 -92 -79 -128 33 -76 64 29 88 61 47 61 -16
0 -13 10 25 66 48 71 55 111 26 137 -20 18 -62 23 -62 7z"/>
<path d="M6418 8473 c-29 -32 -58 -85 -58 -108 0 -9 9 -15 23 -15 27 0 47 17
40 35 -5 14 24 65 37 65 16 0 20 -33 8 -77 -9 -38 -22 -54 -79 -101 -69 -56
-82 -78 -54 -88 15 -6 30 2 87 46 l27 21 34 -31 c19 -16 42 -30 51 -30 21 0
35 32 17 38 -8 3 -27 17 -43 31 l-31 27 18 34 c9 18 19 57 22 85 5 47 3 54
-22 73 -36 28 -46 28 -77 -5z"/>
<path d="M3286 8475 c-86 -45 -115 -167 -82 -339 17 -86 28 -106 59 -106 19 0
20 4 14 115 -5 104 -4 115 11 115 63 1 127 148 85 197 -25 30 -53 35 -87 18z
m54 -69 c0 -33 -35 -96 -57 -104 -7 -2 -13 3 -13 12 0 9 -7 16 -16 16 -23 0
-10 48 24 83 37 39 62 36 62 -7z"/>
<path d="M3525 8450 c-37 -14 -54 -44 -61 -109 -5 -48 -3 -65 7 -72 24 -14 39
11 39 66 0 54 9 70 45 77 11 2 21 10 23 19 4 19 -25 29 -53 19z"/>
<path d="M3018 8436 c-122 -33 -130 -89 -20 -145 53 -27 68 -47 52 -66 -7 -8
-20 -15 -30 -15 -10 0 -23 7 -30 15 -14 17 -46 20 -55 5 -9 -15 10 -35 51 -55
58 -27 114 6 114 67 0 30 -29 62 -80 88 -21 11 -42 24 -45 30 -8 13 56 40 100
42 19 1 36 7 40 16 13 34 -17 40 -97 18z"/>
<path d="M3760 8403 c-17 -21 -20 -38 -18 -82 2 -42 7 -56 18 -56 11 0 16 14
18 50 5 70 25 91 57 59 12 -12 15 -32 14 -75 -2 -63 2 -75 24 -66 19 7 30 97
16 133 -26 69 -89 87 -129 37z"/>
<path d="M4673 8406 c-37 -31 -53 -72 -42 -104 11 -30 37 -28 90 8 24 16 47
30 50 30 4 0 5 -19 2 -42 -4 -48 7 -74 30 -65 10 4 15 24 16 72 1 56 -1 66
-14 61 -10 -4 -15 1 -15 14 0 11 -6 20 -14 20 -8 0 -16 4 -18 9 -1 5 -15 12
-29 16 -19 5 -34 0 -56 -19z m33 -54 c-14 -14 -28 -23 -31 -20 -9 9 36 59 47
52 6 -4 0 -17 -16 -32z"/>
<path d="M1749 8386 c-13 -6 -30 -25 -39 -41 -8 -16 -20 -34 -27 -40 -11 -9
-33 -78 -33 -100 1 -5 7 -1 15 9 18 24 20 4 3 -24 -28 -44 68 -93 136 -70 26
8 36 16 32 27 -3 8 -6 16 -6 18 0 1 -20 0 -44 -2 -43 -5 -86 9 -86 27 0 6 10
10 23 10 35 0 117 98 117 141 0 35 -56 63 -91 45z m41 -49 c0 -17 -48 -87 -60
-87 -21 0 -19 22 6 60 26 39 54 53 54 27z"/>
<path d="M1917 8353 c-11 -18 -16 -111 -9 -143 5 -24 14 -36 28 -38 16 -2 23
6 35 40 8 24 13 46 11 51 -1 4 3 7 8 7 5 0 10 -19 10 -43 0 -51 19 -83 45 -74
10 5 15 13 11 23 -3 9 -6 25 -6 35 0 11 -4 17 -10 14 -5 -3 -10 -2 -10 4 0 5
4 12 8 15 15 9 12 64 -4 80 -22 23 -39 20 -65 -11 -22 -28 -22 -28 -16 -4 8
33 -22 68 -36 44z"/>
<path d="M3652 8348 c-17 -17 -15 -58 4 -65 20 -7 35 14 32 46 -3 28 -19 36
-36 19z"/>
<path d="M6124 8245 c-8 -19 3 -35 26 -35 23 0 31 21 14 37 -17 17 -33 16 -40
-2z"/>
<path d="M1849 8167 c6 -8 7 -18 3 -22 -4 -5 -2 -5 5 -1 14 8 6 36 -9 36 -7 0
-6 -5 1 -13z"/>
<path d="M8451 11055 c-33 -38 -33 -55 -1 -55 18 0 17 -6 -12 -90 -30 -85 -33
-90 -60 -90 -16 0 -45 -7 -65 -15 -30 -13 -34 -17 -23 -30 10 -12 24 -14 56
-9 l44 6 -15 -42 c-8 -24 -18 -66 -21 -95 -9 -76 8 -89 104 -81 81 6 112 18
112 43 0 16 -9 16 -127 -3 l-43 -7 0 35 c0 19 7 58 16 87 l15 52 45 -7 c37 -5
44 -4 44 10 0 10 -15 23 -34 31 l-34 14 36 111 c27 86 33 117 26 137 -13 39
-28 38 -63 -2z"/>
<path d="M13321 11013 c-40 -20 -106 -100 -134 -162 -27 -61 -21 -150 13 -186
34 -36 91 -49 151 -35 39 10 49 16 49 32 0 12 8 27 18 34 13 10 14 15 5 25
-17 17 -73 -7 -73 -32 0 -16 -8 -19 -44 -19 -67 0 -91 25 -90 92 1 64 26 116
83 175 35 36 94 64 107 51 2 -3 -4 -23 -13 -47 -15 -39 -15 -43 0 -58 15 -15
19 -13 57 25 47 49 49 64 15 97 -29 30 -92 33 -144 8z"/>
<path d="M13773 11000 c-52 -31 -44 -56 37 -132 59 -54 70 -69 70 -97 0 -67
-44 -101 -133 -101 -71 0 -94 21 -71 65 17 34 6 50 -29 41 -19 -4 -26 -14 -30
-42 -12 -75 61 -124 162 -109 83 13 134 55 147 120 9 52 -3 75 -74 142 -70 67
-72 78 -15 89 28 6 34 3 44 -20 13 -29 40 -34 58 -12 15 18 1 50 -29 66 -31
17 -102 12 -137 -10z"/>
<path d="M11669 10968 c-1 -7 -1 -17 0 -22 3 -13 -30 -147 -41 -168 -6 -14
-21 -18 -58 -18 -43 0 -50 -3 -50 -20 0 -17 7 -20 45 -20 l45 0 -32 -65 c-25
-49 -29 -68 -21 -76 18 -18 34 0 68 73 16 35 30 64 31 66 1 2 25 5 54 6 85 5
98 46 14 46 -24 0 -44 3 -44 8 0 4 9 45 19 91 11 46 17 90 14 97 -6 17 -43 18
-44 2z"/>
<path d="M11106 10921 c-4 -5 -2 -12 3 -16 13 -7 -1 -47 -59 -170 -55 -117
-69 -181 -43 -188 10 -3 -63 -5 -162 -5 -159 -1 -175 1 -140 12 154 48 235
170 138 207 -19 7 -33 4 -64 -13 -25 -14 -38 -27 -34 -36 3 -10 0 -12 -10 -9
-8 4 -17 1 -21 -5 -4 -7 -3 -8 4 -4 7 4 12 4 12 -1 0 -4 -11 -13 -24 -19 -20
-9 -23 -9 -19 7 5 17 -21 38 -32 27 -3 -3 -15 -40 -27 -84 l-23 -79 -1365 -5
-1365 -5 1363 -3 1362 -2 -20 -41 c-12 -23 -19 -47 -16 -55 11 -28 36 -13 68
41 l33 55 860 0 c678 -1 856 -3 843 -13 -9 -7 -24 -16 -33 -22 -19 -11 -11
-45 11 -45 7 0 32 18 55 40 l42 40 1566 2 1566 3 -1562 2 c-860 2 -1563 7
-1563 11 0 4 5 13 11 19 18 18 7 58 -18 61 -18 3 -23 -1 -23 -20 0 -13 -7 -34
-16 -46 l-15 -22 -680 0 -679 0 5 33 c3 17 31 88 62 156 62 137 72 194 36 199
-11 2 -24 -1 -27 -7z m-266 -216 c0 -19 -46 -61 -92 -86 -51 -26 -52 -25 -22
21 39 59 114 102 114 65z"/>
<path d="M11885 10791 c-63 -38 -84 -99 -50 -139 22 -25 28 -27 107 -27 101 0
141 9 136 33 -3 14 -18 16 -108 17 -97 0 -105 2 -108 20 -3 16 -1 17 8 8 14
-13 55 -9 103 9 39 15 47 55 16 79 -31 24 -66 24 -104 0z m69 -30 c7 -11 -17
-21 -47 -21 -21 1 -21 1 3 15 30 17 37 18 44 6z"/>
<path d="M14343 10785 c-10 -7 -14 -19 -10 -29 6 -14 10 -15 28 -5 12 6 19 7
16 2 -9 -15 113 -47 127 -33 16 16 -7 32 -80 56 -51 16 -68 18 -81 9z"/>
<path d="M10044 10771 c-99 -60 -103 -191 -5 -191 41 0 128 45 136 70 11 36
-3 83 -34 113 -34 32 -55 34 -97 8z m83 -67 c17 -26 16 -27 -11 -50 -18 -17
-39 -24 -67 -24 -34 0 -39 3 -39 24 0 66 83 102 117 50z"/>
<path d="M9730 10763 c-130 -91 -100 -229 44 -208 26 4 56 15 68 25 23 18 17
40 -10 40 -14 0 -15 -2 -2 -10 8 -5 11 -12 7 -16 -3 -4 -13 -2 -21 5 -11 9
-17 8 -30 -4 -9 -9 -16 -12 -16 -6 0 6 -13 11 -29 11 -63 0 -65 57 -5 110 26
22 40 28 47 21 15 -15 34 -14 41 4 7 19 -20 45 -47 45 -13 0 -34 -8 -47 -17z"/>
<path d="M8723 10750 c-3 -11 -9 -20 -13 -20 -4 0 -19 -12 -34 -26 -57 -58
-17 -124 76 -124 41 0 54 5 79 29 33 34 37 69 12 111 -29 49 -110 70 -120 30z
m81 -52 c20 -29 20 -34 -4 -58 -24 -24 -73 -26 -95 -4 -15 15 -15 18 1 35 9
11 25 19 34 19 10 0 20 7 24 15 8 21 22 19 40 -7z"/>
<path d="M11224 10741 c-67 -31 -96 -119 -53 -162 19 -19 30 -21 88 -17 74 6
126 25 126 48 0 17 -14 17 -104 -1 -59 -12 -64 -12 -77 6 -18 25 -9 33 62 51
75 19 92 39 62 71 -26 28 -50 29 -104 4z m141 -141 c-3 -5 -10 -10 -16 -10 -5
0 -9 5 -9 10 0 6 7 10 16 10 8 0 12 -4 9 -10z"/>
<path d="M10285 10731 c-3 -6 -4 -15 -1 -19 3 -5 -4 -21 -15 -38 -46 -70 -7
-100 55 -41 41 38 62 47 46 18 -32 -60 9 -70 75 -18 l50 39 6 -31 c8 -38 14
-45 32 -38 12 4 16 68 8 120 -2 13 -33 7 -67 -14 l-34 -21 0 21 c0 33 -27 36
-70 7 l-40 -26 3 22 c1 17 -4 24 -20 26 -11 2 -24 -2 -28 -7z"/>
<path d="M9772 10427 c-6 -7 -9 -23 -5 -35 3 -12 -3 -41 -15 -64 -10 -24 -32
-77 -48 -119 -25 -67 -33 -78 -61 -89 -23 -8 -33 -18 -33 -32 0 -16 5 -19 23
-16 23 4 23 3 16 -37 -4 -23 -11 -53 -14 -67 -8 -30 9 -45 30 -28 21 17 30 77
15 95 -11 13 -10 14 4 9 11 -4 16 -1 16 13 0 25 19 43 46 43 27 0 36 12 28 35
-4 10 -14 15 -25 12 -24 -6 -24 0 1 62 11 28 17 59 14 68 -5 14 -4 15 4 4 7
-10 16 4 33 56 12 39 19 78 16 87 -8 19 -30 21 -45 3z"/>
<path d="M14501 10383 c-7 -25 -19 -59 -27 -74 -7 -15 -16 -36 -17 -46 -9 -43
-19 -51 -68 -58 -44 -6 -50 -10 -47 -29 2 -17 9 -20 33 -18 16 2 35 8 41 13
11 9 -21 -102 -38 -131 -20 -36 -20 -43 -3 -57 29 -20 39 -11 52 47 16 75 42
140 56 141 7 1 24 0 40 -1 23 -1 27 2 27 25 0 30 -23 43 -45 25 -20 -16 -20
-1 0 47 19 45 19 46 -6 32 -17 -9 -20 -8 -17 3 3 7 14 14 26 16 39 6 56 112
19 112 -9 0 -19 -19 -26 -47z"/>
<path d="M14669 10388 c-1 -7 -2 -17 -3 -23 -4 -26 -33 -100 -77 -197 -57
-123 -68 -166 -48 -178 17 -11 48 6 61 35 6 13 18 26 27 29 9 3 31 17 50 31
19 14 38 25 42 25 5 0 -2 -30 -16 -66 -27 -71 -22 -104 15 -104 24 0 35 17 21
34 -7 9 -5 27 9 64 11 29 20 64 20 77 0 54 -81 47 -142 -12 -36 -34 -35 -26 3
50 40 78 91 225 84 238 -9 13 -45 11 -46 -3z"/>
<path d="M10185 10380 c-11 -19 -85 -254 -85 -271 0 -10 -4 -20 -8 -23 -13 -8
-54 -153 -50 -178 4 -28 31 -30 36 -3 2 11 24 82 48 159 25 76 42 146 39 154
-3 9 -3 13 2 9 9 -9 61 133 55 151 -5 15 -28 16 -37 2z"/>
<path d="M10775 10351 c-3 -6 -1 -19 5 -30 15 -29 13 -46 -16 -136 l-25 -80
-38 3 c-34 3 -42 0 -68 -33 -47 -56 -66 -142 -43 -186 19 -34 44 -21 97 49 60
78 99 161 133 280 22 76 23 86 9 110 -16 29 -43 40 -54 23z m-70 -291 c7 -11
-18 -55 -59 -104 l-25 -30 10 44 c10 44 43 100 59 100 5 0 12 -5 15 -10z"/>
<path d="M10305 10313 c-4 -21 -20 -85 -37 -143 -52 -177 -58 -204 -52 -223 9
-29 39 -16 42 18 2 17 17 75 34 130 17 54 31 112 31 127 0 15 4 25 7 23 4 -3
10 12 14 33 10 61 8 72 -14 72 -14 0 -21 -9 -25 -37z"/>
<path d="M9952 10287 c-13 -16 3 -57 22 -57 20 0 26 12 20 38 -7 25 -29 35
-42 19z"/>
<path d="M12202 10238 c-11 -35 -38 -112 -60 -171 -31 -83 -40 -121 -39 -163
l2 -54 -432 0 c-272 0 -433 4 -433 10 0 16 -38 31 -65 24 -14 -3 -25 -12 -25
-20 0 -12 -174 -14 -1150 -14 l-1150 0 45 41 c68 63 84 105 83 221 -1 68 -5
99 -14 102 -21 8 -32 -17 -25 -59 7 -43 -8 -146 -27 -181 -13 -25 -78 -84 -92
-84 -11 0 13 64 32 87 6 8 20 12 29 10 10 -3 24 2 31 10 17 20 -12 42 -47 35
-28 -5 -78 -58 -69 -73 3 -5 1 -9 -5 -9 -16 0 -25 -68 -11 -85 11 -13 -43 -15
-446 -18 -253 -1 290 -3 1205 -5 l1664 -2 -6 -36 c-7 -41 -48 -100 -76 -109
-24 -7 -35 -34 -20 -51 34 -41 139 93 148 189 1 4 363 7 806 7 637 0 805 -3
805 -12 -1 -39 -15 -56 -64 -77 -65 -27 -126 -76 -126 -103 0 -31 56 -78 94
-78 44 0 91 50 114 120 l17 54 65 19 c36 10 81 22 102 28 26 6 35 14 34 27 -3
16 67 17 1238 22 l1241 5 -1336 3 -1336 2 -8 91 c-4 51 -9 98 -12 105 -8 22
-43 17 -43 -6 0 -23 -42 -53 -67 -48 -15 4 -9 13 29 49 31 30 44 49 39 58 -13
20 -45 5 -85 -39 -42 -47 -46 -83 -12 -105 21 -14 29 -14 64 -2 l40 14 6 -45
c3 -25 6 -51 6 -58 0 -12 -61 -14 -345 -14 -288 0 -345 2 -345 14 0 8 -7 16
-15 20 -24 9 -18 49 26 164 71 189 82 221 76 237 -13 33 -35 14 -55 -47z m844
-405 c-10 -3 -47 -13 -82 -23 l-64 -17 0 23 c0 23 2 24 83 23 45 -1 74 -3 63
-6z m-206 -118 c0 -17 -30 -73 -48 -89 -20 -18 -23 -18 -47 -2 -14 9 -25 21
-25 26 0 5 24 23 53 40 51 29 67 35 67 25z"/>
<path d="M14241 10268 c-13 -35 5 -51 35 -31 30 19 28 47 -4 51 -16 2 -25 -3
-31 -20z"/>
<path d="M9204 10240 c-29 -11 -38 -40 -20 -59 14 -13 18 -12 41 13 41 44 31
67 -21 46z"/>
<path d="M13763 10175 c-22 -9 -33 -21 -33 -34 0 -28 18 -36 39 -17 9 9 32 19
50 22 33 7 33 6 21 -17 -7 -13 -31 -50 -53 -81 -36 -52 -44 -88 -19 -88 5 0
32 18 59 40 28 22 53 37 57 33 3 -3 6 -21 6 -39 0 -40 28 -61 60 -44 11 6 17
16 14 22 -4 6 -3 8 4 5 25 -16 85 94 67 123 -12 20 -26 10 -44 -32 -10 -24
-28 -52 -40 -62 -21 -19 -21 -19 -21 12 0 46 -10 62 -37 62 -20 0 -24 4 -18
18 15 35 17 63 5 77 -16 19 -74 19 -117 0z"/>
<path d="M9348 10148 c-21 -26 -23 -86 -4 -110 7 -10 15 -15 18 -12 3 2 8 -4
11 -16 8 -30 -43 -54 -100 -46 -37 5 -43 3 -43 -12 0 -45 56 -55 127 -23 86
39 97 72 41 120 -34 28 -34 61 0 76 12 5 22 18 22 27 0 26 -51 23 -72 -4z"/>
<path d="M10421 10133 c-57 -28 -81 -113 -42 -152 24 -24 93 -46 116 -37 27
10 12 30 -33 44 -43 14 -56 32 -24 32 32 0 82 38 82 63 0 47 -52 72 -99 50z
m53 -42 c3 -4 -6 -13 -20 -20 -38 -17 -49 -13 -29 9 19 21 40 26 49 11z"/>
<path d="M14161 10105 c-37 -64 -36 -137 3 -122 10 4 16 18 16 38 0 17 7 43
16 59 17 27 14 60 -5 60 -5 0 -18 -16 -30 -35z"/>
<path d="M12615 10098 c-11 -6 -32 -22 -47 -36 -23 -21 -28 -23 -28 -9 0 25
-28 32 -49 13 -14 -12 -19 -31 -19 -67 0 -71 18 -73 82 -10 28 28 55 51 58 51
4 0 0 -20 -8 -44 -12 -34 -13 -50 -4 -65 12 -23 29 -27 34 -8 31 112 38 158
26 172 -15 18 -19 18 -45 3z"/>
<path d="M11889 10085 c-29 -16 -79 -102 -79 -137 0 -33 27 -68 53 -68 12 0
37 9 55 20 24 15 32 16 32 6 0 -15 28 -42 36 -34 2 3 6 21 9 39 2 19 16 57 31
85 28 51 28 84 1 84 -8 0 -20 -14 -28 -31 -17 -42 -55 -87 -90 -104 -56 -30
-67 -10 -33 62 24 50 25 51 60 43 39 -9 56 8 34 35 -15 19 -47 19 -81 0z"/>
<path d="M9116 10075 c-15 -15 -20 -29 -17 -47 0 -5 -3 -8 -9 -8 -16 0 -35
-79 -22 -92 16 -16 42 -2 42 22 0 11 11 43 25 69 20 41 22 51 11 60 -11 9 -18
8 -30 -4z"/>
<path d="M12283 10054 c-13 -14 -23 -36 -23 -50 0 -14 -5 -34 -11 -46 -27 -51
26 -101 83 -77 37 15 68 55 68 86 0 14 -12 36 -28 51 -16 15 -32 35 -35 45 -9
23 -27 20 -54 -9z m65 -77 c10 -8 8 -15 -9 -34 -40 -42 -61 -25 -39 32 10 26
17 26 48 2z"/>
<path d="M9868 10036 c-15 -34 -3 -76 22 -76 16 0 20 7 20 34 0 19 5 38 10 41
17 11 11 21 -15 23 -18 1 -29 -5 -37 -22z"/>
<path d="M9165 9672 c-62 -21 -69 -47 -11 -47 31 0 46 -7 74 -35 53 -53 91
-109 102 -152 22 -80 -16 -155 -72 -144 -43 9 -86 43 -103 82 -14 34 -39 45
-48 22 -7 -22 31 -85 68 -114 24 -18 52 -29 85 -32 45 -4 52 -2 78 26 71 76
51 202 -48 312 -22 24 -40 47 -40 50 0 3 25 3 56 2 62 -4 85 8 64 33 -17 21
-139 19 -205 -3z"/>
<path d="M13756 9562 c-3 -5 -5 -34 -5 -64 1 -90 -11 -107 -77 -108 -12 0 -27
-6 -33 -14 -16 -20 3 -31 54 -31 40 0 40 0 37 -35 -2 -19 -8 -45 -14 -58 -9
-18 -9 -26 3 -38 24 -24 47 10 50 73 1 29 5 57 8 62 4 5 29 11 56 13 36 2 50
7 50 18 0 11 -13 16 -46 18 -53 3 -61 16 -50 79 4 21 5 49 1 62 -6 26 -24 38
-34 23z"/>
<path d="M11369 9553 c-1 -4 0 -40 1 -80 l2 -72 -49 -6 c-67 -9 -75 -13 -71
-32 3 -15 12 -17 56 -15 l52 4 0 -62 c0 -53 2 -61 17 -58 19 3 30 35 32 86 l1
32 79 0 79 0 -40 -39 c-35 -36 -38 -42 -26 -60 17 -28 38 -26 109 9 62 32 79
32 79 1 0 -31 34 -53 77 -49 31 2 39 7 41 26 3 21 1 23 -32 17 -34 -7 -35 -6
-45 33 -6 22 -18 43 -27 46 -17 7 -84 -13 -84 -24 0 -4 -7 -7 -15 -7 -10 0
-12 4 -5 12 5 7 6 15 2 19 -4 4 0 6 8 4 8 -1 14 2 13 8 -1 7 5 11 14 10 21 -2
41 30 27 44 -8 8 -25 8 -60 0 -45 -10 -138 -12 -174 -3 -11 3 -15 14 -13 36 6
54 -10 121 -30 125 -9 2 -17 0 -18 -5z"/>
<path d="M10804 9515 c-4 -9 -1 -42 5 -73 22 -113 23 -110 -13 -122 -18 -6
-45 -24 -61 -40 -27 -28 -32 -44 -34 -97 l-1 -23 -1407 -3 -1408 -2 1417 -3
c931 -1 1419 -5 1423 -12 8 -13 72 -13 80 0 4 6 818 10 2377 10 1304 0 2374 2
2376 5 3 3 -637 5 -1421 5 l-1427 0 0 39 c0 21 -3 53 -6 70 l-6 31 55 0 c41 0
56 4 61 16 16 43 -7 62 -49 40 -15 -8 -35 -12 -45 -9 -17 5 -18 12 -13 89 5
73 4 84 -11 90 -9 4 -19 4 -22 2 -2 -3 -6 -40 -8 -82 -3 -50 -11 -87 -22 -103
-15 -23 -15 -28 -1 -37 13 -10 23 -84 18 -133 -1 -10 -153 -13 -722 -13 -640
0 -720 2 -709 15 9 11 9 15 1 15 -7 0 -9 5 -5 13 4 6 4 9 -1 5 -4 -4 -14 -3
-20 2 -9 8 -10 22 -3 56 14 63 -1 70 -61 33 -30 -19 -47 -25 -50 -18 -5 15 38
48 62 49 19 0 23 25 6 35 -26 17 -98 -28 -113 -69 -10 -29 19 -66 52 -66 16 0
33 5 40 12 9 9 12 6 12 -15 0 -15 9 -36 20 -47 l20 -20 -179 0 -179 0 14 30
c20 40 28 153 16 219 -7 39 -7 60 1 73 13 20 4 32 -31 43 -16 4 -24 2 -28 -10z
m13 -271 c-7 -39 -32 -74 -54 -74 -36 0 -20 79 20 98 35 17 40 14 34 -24z"/>
<path d="M9887 9474 c-3 -4 -1 -16 4 -27 9 -15 7 -36 -6 -84 -10 -35 -21 -65
-25 -68 -5 -3 -19 27 -31 66 -22 71 -40 92 -61 71 -12 -12 -4 -36 48 -149 19
-43 28 -53 49 -53 22 0 27 8 50 88 15 48 31 97 36 109 12 33 1 53 -30 53 -15
0 -31 -3 -34 -6z"/>
<path d="M8125 9450 c-31 -13 -91 -82 -104 -119 -14 -44 -14 -94 1 -109 20
-20 63 -14 87 12 l22 24 24 -24 c28 -28 77 -32 130 -10 25 11 33 19 29 30 -7
19 -22 20 -60 5 -68 -25 -98 17 -65 91 28 62 27 88 -5 100 -29 12 -32 12 -59
0z m19 -62 c-19 -66 -60 -128 -83 -128 -25 0 2 75 42 118 36 37 51 41 41 10z"/>
<path d="M10078 9443 c-23 -26 -48 -79 -48 -101 0 -11 10 -32 22 -47 18 -24
26 -27 60 -22 31 4 44 1 60 -15 40 -40 172 -9 155 36 -5 14 -10 14 -41 1 -44
-19 -70 -19 -85 -1 -9 10 -8 16 4 26 21 17 19 46 -5 70 -11 11 -20 24 -20 29
0 15 -42 41 -66 41 -11 0 -28 -8 -36 -17z m69 -59 c17 -37 1 -64 -37 -64 -34
0 -39 19 -18 65 15 32 40 32 55 -1z"/>
<path d="M9574 9433 c-31 -32 -55 -99 -45 -126 6 -14 15 -28 20 -32 10 -6 68
28 82 48 4 5 9 -2 13 -16 8 -32 53 -87 72 -87 20 0 17 28 -7 58 -17 22 -20 38
-17 92 3 61 2 65 -19 65 -12 0 -25 4 -29 8 -13 13 -52 7 -70 -10z m46 -46 c0
-8 -11 -24 -25 -37 -29 -27 -31 -21 -10 20 16 31 35 40 35 17z"/>
<path d="M14320 9413 c-17 -21 -40 -58 -52 -81 -19 -40 -19 -45 -5 -59 13 -14
19 -14 31 -3 9 7 16 21 16 32 0 11 14 40 31 64 l31 46 49 -7 c38 -5 49 -4 49
7 0 26 -23 38 -71 38 -43 0 -51 -4 -79 -37z"/>
<path d="M12390 9433 c-65 -8 -62 -24 23 -125 23 -27 36 -52 32 -58 -7 -12
-52 -9 -102 6 -19 5 -23 2 -23 -15 0 -26 34 -41 94 -41 84 0 99 56 35 132 -23
27 -38 52 -35 55 7 7 94 5 106 -2 5 -3 11 1 13 7 4 10 8 10 15 -1 7 -10 11
-10 17 -1 20 32 -79 56 -175 43z m130 -23 c0 -5 -2 -10 -4 -10 -3 0 -8 5 -11
10 -3 6 -1 10 4 10 6 0 11 -4 11 -10z"/>
<path d="M14580 9418 c-25 -13 -53 -37 -63 -55 -27 -47 -9 -99 41 -120 43 -18
168 -19 189 -1 26 21 -4 33 -73 29 -63 -3 -124 12 -124 30 0 5 10 9 23 9 43 0
118 32 134 57 16 25 16 26 -11 49 -34 30 -60 30 -116 2z m88 -34 c-3 -3 -26
-12 -51 -19 -39 -12 -45 -12 -41 0 3 8 13 16 22 18 26 7 76 8 70 1z"/>
<path d="M12958 9420 c-18 -11 -88 -149 -88 -174 0 -20 33 -21 49 -3 6 8 9 16
6 19 -2 2 8 29 24 59 25 49 31 54 61 54 41 0 49 18 18 39 -26 18 -46 20 -70 6z"/>
<path d="M14064 9395 c-4 -8 -2 -21 4 -28 5 -6 13 -22 17 -35 8 -28 -18 -62
-47 -62 -12 0 -16 -4 -12 -11 4 -7 -7 -1 -25 12 -35 26 -38 37 -14 54 15 11
15 15 4 29 -29 34 -61 6 -61 -53 0 -32 34 -67 77 -77 29 -8 82 12 106 38 24
28 22 89 -4 122 -23 30 -37 33 -45 11z"/>
<path d="M13429 9358 c-60 -47 -83 -81 -75 -112 3 -14 16 -30 27 -37 29 -15
104 -22 156 -14 34 5 43 10 43 26 0 18 -6 20 -42 19 -98 -4 -129 0 -135 17 -9
22 58 83 92 83 27 0 33 18 13 38 -18 18 -33 15 -79 -20z"/>
<path d="M13242 9367 c-6 -7 -9 -23 -6 -35 8 -27 -40 -74 -70 -70 -17 2 -21
10 -19 38 1 31 -9 49 -28 50 -13 0 -31 -61 -25 -85 16 -62 88 -67 151 -10 30
26 37 40 37 68 0 54 -17 72 -40 44z"/>
<path d="M15066 9048 c-3 -7 -7 -26 -11 -42 -9 -41 -97 -215 -123 -244 -7 -7
-10 -18 -7 -23 4 -5 2 -9 -4 -9 -17 0 -91 -143 -91 -176 0 -37 22 -50 45 -28
11 11 13 20 5 28 -11 14 36 115 81 176 34 44 111 191 134 252 14 39 15 51 5
63 -15 18 -29 19 -34 3z"/>
<path d="M11292 9037 c-5 -7 -9 -19 -9 -27 -1 -20 -43 -181 -54 -201 -5 -10
-28 -19 -58 -23 -49 -6 -78 -26 -67 -45 6 -9 30 -8 82 4 22 5 21 4 -7 -85 -34
-105 -36 -130 -11 -130 13 0 25 26 52 113 l35 112 75 10 c56 7 75 14 75 25 0
12 -14 15 -66 15 l-65 0 18 59 c10 32 16 61 13 64 -3 3 -1 10 5 17 5 6 12 29
16 52 5 31 3 41 -9 46 -9 3 -20 0 -25 -6z"/>
<path d="M13223 9038 c-6 -7 -15 -29 -21 -48 -6 -19 -26 -77 -43 -129 l-32
-93 -50 6 c-46 7 -48 6 -45 -16 2 -19 10 -24 41 -26 40 -3 42 -8 27 -62 -5
-19 -11 -51 -14 -70 -3 -19 -6 -44 -8 -55 -2 -14 3 -20 16 -20 16 0 22 14 38
85 25 122 29 128 80 132 32 2 44 8 46 22 6 30 -14 42 -43 26 -14 -7 -27 -11
-30 -8 -6 6 36 132 59 176 20 38 20 66 2 81 -10 8 -16 8 -23 -1z"/>
<path d="M13370 9028 c0 -13 -16 -68 -34 -122 -19 -55 -33 -103 -30 -107 2 -4
-2 -11 -9 -16 -17 -10 -77 -118 -77 -137 0 -8 5 -18 10 -21 12 -7 24 0 89 54
l41 33 -6 -55 c-6 -47 -4 -57 15 -76 24 -24 49 -27 76 -8 23 18 12 37 -22 37
-27 0 -28 4 -11 124 2 10 -4 23 -14 29 -13 8 -25 5 -58 -17 -34 -22 -40 -24
-31 -8 6 11 7 23 3 27 -4 5 -2 5 4 2 7 -4 21 20 37 61 38 98 41 113 26 124
-11 8 -10 9 3 4 13 -4 19 3 24 29 7 42 0 65 -21 65 -9 0 -15 -9 -15 -22z"/>
<path d="M8500 8985 c-8 -9 -10 -29 -7 -51 4 -22 -1 -59 -13 -97 -11 -34 -20
-70 -20 -80 0 -16 -8 -18 -74 -16 -82 2 -104 -5 -85 -27 12 -14 81 -20 77 -6
-2 4 2 7 7 7 6 0 9 -3 8 -7 -2 -5 9 -8 23 -8 21 0 24 -4 19 -20 -4 -11 -2 -21
4 -21 30 -5 36 -2 41 21 5 22 13 26 60 33 48 7 65 9 103 16 10 1 9 29 -1 35
-5 3 -37 1 -72 -4 -35 -5 -65 -8 -66 -7 -1 1 8 40 22 86 27 93 30 131 12 149
-16 16 -23 15 -38 -3z"/>
<path d="M12012 8973 c-8 -16 -62 -197 -62 -208 0 -11 -34 -4 -61 12 -21 13
-32 14 -40 6 -17 -17 -1 -53 24 -53 12 0 30 -7 40 -14 16 -12 18 -27 15 -112
-2 -83 -1 -99 12 -99 15 0 16 6 36 173 4 33 9 42 25 42 13 0 19 7 19 24 0 13
-5 26 -11 28 -9 3 21 139 41 178 4 8 5 21 3 28 -7 18 -31 15 -41 -5z"/>
<path d="M15369 8988 c-1 -2 -3 -12 -4 -23 -17 -126 -53 -202 -105 -219 -28
-9 -36 -17 -38 -40 -3 -24 -1 -28 16 -24 19 5 19 4 1 -54 -11 -33 -19 -66 -19
-74 0 -17 39 -19 44 -1 41 150 56 172 115 170 22 -1 43 2 46 7 8 13 -24 40
-47 40 -13 0 -18 5 -15 14 15 38 27 97 22 105 -3 5 0 11 6 13 6 2 12 21 13 43
1 30 -3 40 -16 43 -10 2 -19 2 -19 0z"/>
<path d="M14447 8964 c-4 -4 -7 -19 -7 -34 0 -29 -35 -135 -70 -215 -12 -27
-33 -81 -46 -120 -21 -59 -22 -71 -10 -83 8 -8 19 -11 27 -6 7 4 34 6 60 5 58
-3 100 17 128 62 38 61 23 97 -40 97 -22 0 -50 -10 -74 -26 -21 -14 -35 -19
-32 -12 2 7 21 52 41 100 20 48 36 95 36 105 0 11 5 24 10 29 6 6 12 31 13 55
1 32 -2 44 -13 46 -9 2 -19 1 -23 -3z m53 -347 c0 -19 -42 -56 -65 -58 -52 -5
-58 0 -28 24 54 45 93 59 93 34z"/>
<path d="M9508 8925 c-3 -3 -3 -39 0 -80 l5 -75 -27 0 c-34 0 -132 -91 -122
-115 3 -9 2 -13 -4 -10 -13 8 -24 -40 -15 -72 14 -56 66 -81 105 -50 26 20 59
73 76 119 20 52 35 258 21 276 -10 12 -30 16 -39 7z m-8 -217 c-2 -53 -70
-161 -95 -152 -18 7 -20 56 -4 87 29 56 100 102 99 65z"/>
<path d="M15174 8838 c-20 -31 -2 -77 22 -57 18 15 18 43 0 58 -11 9 -16 9
-22 -1z"/>
<path d="M12085 8782 c-60 -20 -70 -48 -15 -44 51 3 91 22 88 40 -4 22 -17 22
-73 4z"/>
<path d="M10940 8779 c-70 -28 -78 -74 -22 -132 l37 -38 -24 -20 c-22 -18 -26
-18 -48 -4 -23 16 -43 13 -43 -5 0 -20 35 -50 58 -50 47 0 102 43 102 80 0 6
-18 30 -40 54 -22 24 -40 46 -40 49 0 13 47 30 78 28 26 -1 32 2 32 18 0 30
-41 39 -90 20z"/>
<path d="M13588 8780 c-9 -6 -26 -26 -38 -45 -12 -19 -28 -35 -36 -35 -16 0
-19 -36 -4 -45 6 -3 10 -21 10 -40 0 -74 92 -119 139 -68 26 27 17 34 -32 26
-45 -7 -67 11 -67 54 0 19 10 29 46 44 85 38 106 73 62 103 -25 18 -55 20 -80
6z m32 -55 c-27 -14 -36 -13 -25 4 3 6 16 11 28 11 21 -1 21 -1 -3 -15z"/>
<path d="M14736 8768 c-14 -19 -14 -24 -1 -37 12 -12 17 -12 30 -1 18 15 17
51 -2 57 -6 2 -18 -6 -27 -19z"/>
<path d="M11418 8753 c-31 -34 -78 -125 -78 -152 0 -61 56 -15 75 61 14 56 52
85 93 70 24 -8 33 -7 42 3 8 9 8 15 0 20 -5 3 -10 3 -10 -2 0 -4 -5 0 -11 10
-17 28 -80 23 -111 -10z"/>
<path d="M14145 8764 c-16 -8 -38 -23 -49 -32 -39 -35 -61 -127 -32 -138 16
-6 83 20 110 44 19 16 19 16 11 -3 -17 -43 -18 -110 -2 -124 23 -18 40 -4 32
27 -4 16 2 48 16 85 22 58 22 60 4 73 -16 12 -25 10 -72 -16 -59 -33 -63 -35
-63 -19 0 22 59 71 79 64 26 -8 48 20 31 40 -16 19 -28 19 -65 -1z"/>
<path d="M12206 8736 c-60 -36 -92 -114 -70 -171 16 -42 101 -57 227 -41 42 6
60 13 68 28 15 28 -2 44 -31 28 -12 -7 -58 -14 -101 -17 -85 -6 -129 9 -129
46 0 24 11 33 25 21 17 -14 99 8 126 33 16 15 17 22 8 40 -15 28 -50 56 -69
57 -8 0 -33 -11 -54 -24z m71 -41 c4 -14 -40 -33 -62 -25 -17 6 -16 8 6 23 25
18 50 19 56 2z"/>
<path d="M10390 8730 c0 -11 -5 -19 -11 -17 -16 3 -66 -70 -73 -106 -12 -58
25 -84 89 -61 78 27 114 89 84 147 -26 50 -89 76 -89 37z m49 -57 c5 -10 9
-31 8 -48 0 -16 -2 -25 -4 -19 -3 8 -17 5 -43 -9 -21 -12 -42 -19 -46 -15 -11
12 4 53 30 81 29 31 42 34 55 10z"/>
<path d="M10600 8725 c-5 -14 -10 -36 -10 -48 0 -12 -7 -35 -15 -51 -17 -32
-19 -62 -6 -71 11 -6 25 7 51 52 17 29 105 91 115 81 3 -2 -5 -27 -17 -55 -23
-56 -19 -83 12 -83 14 0 20 7 20 23 0 12 9 45 19 72 24 62 15 85 -32 85 -18
-1 -43 -7 -57 -15 -34 -19 -38 -19 -42 7 -5 32 -26 34 -38 3z"/>
<path d="M9693 8725 c-30 -21 -63 -77 -63 -107 0 -13 12 -35 26 -49 21 -20 35
-24 82 -23 61 1 109 8 119 17 3 3 3 13 -1 22 -5 13 -13 15 -38 10 -18 -4 -39
-12 -45 -17 -9 -7 -13 -7 -13 1 0 7 -4 10 -8 7 -5 -3 -22 -1 -38 4 -16 4 -23
9 -16 9 7 1 17 12 22 25 5 13 21 30 37 38 34 16 42 47 17 65 -24 17 -55 17
-81 -2z"/>
<path d="M11624 8694 c-60 -71 -50 -118 19 -89 14 6 17 2 17 -25 0 -42 16 -70
41 -70 27 0 37 30 15 46 -20 14 -16 36 17 96 l21 38 -24 25 c-35 37 -60 32
-106 -21z m66 -8 c0 -3 -4 -8 -10 -11 -5 -3 -10 -1 -10 4 0 6 5 11 10 11 6 0
10 -2 10 -4z"/>
<path d="M9922 8718 c-7 -7 -12 -26 -12 -42 0 -17 -4 -47 -9 -66 -16 -69 15
-83 49 -22 12 20 36 48 53 62 l30 24 -6 -26 c-11 -42 13 -52 56 -23 46 32 54
31 62 -6 7 -31 30 -48 45 -33 12 13 -14 105 -33 115 -11 7 -26 5 -47 -6 -29
-15 -30 -15 -30 5 0 11 -6 23 -14 26 -16 6 -66 -17 -85 -40 -19 -23 -27 -20
-26 11 0 29 -15 39 -33 21z"/>
<path d="M15591 8696 c-6 -7 -9 -15 -6 -18 10 -10 -107 -113 -129 -113 -22 -1
-23 0 -9 21 13 21 12 26 -8 53 -26 35 -32 37 -48 17 -9 -11 -10 -20 -1 -36 6
-11 8 -30 5 -41 -4 -11 0 -30 8 -43 14 -21 14 -25 -6 -47 -12 -14 -35 -43 -52
-66 -16 -22 -52 -69 -78 -103 -44 -56 -54 -90 -28 -90 9 0 86 92 156 185 16
22 76 85 132 140 67 65 103 108 103 122 0 25 -24 37 -39 19z"/>
<path d="M8729 8693 c-22 -5 -53 -87 -45 -118 9 -36 49 -59 90 -51 45 9 86 42
86 70 0 23 -37 66 -57 66 -6 0 -21 8 -34 18 -13 10 -31 17 -40 15z m79 -86
c20 -15 -6 -37 -44 -37 -27 0 -34 4 -34 19 0 41 10 51 38 38 15 -6 33 -15 40
-20z"/>
<path d="M15023 8638 c-31 -33 -58 -107 -45 -120 17 -17 36 -3 51 38 7 22 22
49 33 61 20 22 17 43 -6 43 -7 0 -22 -10 -33 -22z"/>
<path d="M8426 8633 c-8 -19 -7 -82 0 -109 9 -33 48 -47 87 -31 42 18 64 44
49 59 -9 9 -20 7 -46 -7 -20 -11 -39 -16 -43 -11 -4 4 -7 29 -6 56 2 40 -1 49
-17 53 -11 3 -21 -1 -24 -10z"/>
<path d="M14668 8618 c-45 -60 -52 -78 -34 -96 12 -13 18 -13 30 -2 9 7 16 19
16 28 0 8 11 30 25 48 14 18 25 37 25 43 0 23 -39 9 -62 -21z"/>
<path d="M12141 8358 c-23 -81 -16 -128 18 -128 15 0 18 8 18 43 -1 23 3 61 7
85 8 38 7 42 -11 42 -15 0 -23 -11 -32 -42z"/>
<path d="M8368 8368 c-3 -27 -5 -34 -21 -71 -21 -50 -57 -169 -57 -192 0 -13
-3 -15 -13 -7 -18 15 -112 -9 -112 -29 0 -10 11 -13 40 -12 22 1 51 0 64 -3
22 -5 22 -6 6 -18 -22 -16 -35 -159 -15 -171 20 -13 33 12 37 72 8 130 12 136
77 128 28 -4 54 -10 58 -14 3 -3 -2 -33 -13 -66 -23 -73 -23 -79 -3 -99 24
-25 57 -19 106 18 50 38 74 83 64 121 -6 22 -12 25 -47 25 -30 0 -46 6 -58 22
-13 15 -37 25 -84 32 l-67 11 40 115 c22 63 40 123 40 133 0 20 -39 24 -42 5z
m182 -363 c0 -12 -74 -85 -86 -85 -23 0 -16 30 15 61 25 25 71 40 71 24z"/>
<path d="M11627 8363 c-4 -3 -7 -18 -7 -32 0 -14 -14 -65 -31 -113 -27 -74
-37 -91 -66 -108 -19 -11 -31 -16 -28 -10 4 6 -21 9 -65 9 -54 -1 -73 -5 -77
-16 -10 -25 16 -32 99 -26 l78 4 -14 -38 c-8 -21 -28 -73 -45 -115 -28 -72
-32 -108 -10 -108 11 0 34 49 82 170 l33 85 61 0 c67 0 82 7 63 30 -8 9 -29
15 -57 15 -32 0 -44 4 -41 13 52 145 62 181 50 185 -17 5 -15 32 3 32 9 0 12
6 9 15 -6 16 -26 20 -37 8z"/>
<path d="M14263 8298 c-4 -7 -27 -56 -50 -108 -43 -95 -47 -124 -17 -118 20 4
106 200 98 222 -7 19 -20 21 -31 4z"/>
<path d="M12752 8287 c-11 -14 -26 -68 -23 -81 1 -5 -3 -12 -10 -16 -6 -4 -11
-19 -11 -34 0 -14 -4 -26 -8 -26 -4 0 -11 -11 -14 -25 -4 -14 -13 -25 -21 -25
-8 0 -13 -6 -11 -12 1 -7 1 -10 -1 -5 -3 4 -20 7 -40 7 -24 0 -33 4 -29 13 2
6 14 44 26 82 12 39 26 78 31 88 12 22 4 37 -22 37 -22 0 -32 -20 -33 -66 -1
-18 -3 -31 -6 -29 -3 2 -14 -25 -24 -61 l-18 -64 -42 0 c-22 0 -54 7 -70 15
-33 17 -56 13 -56 -9 0 -23 53 -46 105 -46 25 0 45 -3 45 -6 0 -3 -18 -43 -41
-89 -22 -46 -43 -100 -46 -119 -5 -31 -3 -36 14 -36 14 0 24 14 38 57 11 32
19 64 17 70 -2 7 1 13 6 13 5 0 21 25 36 55 25 54 26 55 70 55 l44 0 -29 -60
c-36 -70 -42 -113 -17 -118 11 -2 25 9 39 30 47 71 139 116 139 68 0 -12 -9
-39 -20 -61 -21 -41 -20 -59 5 -59 16 0 45 49 45 75 0 8 5 15 10 15 18 0 11
46 -11 74 -24 31 -51 33 -101 7 l-37 -18 15 28 c8 16 11 29 7 29 -5 0 -3 4 3
8 7 4 21 36 32 72 11 36 27 82 36 102 9 21 16 44 16 52 0 19 -26 28 -38 13z"/>
<path d="M10055 8248 c-2 -7 -16 -58 -29 -114 -14 -55 -41 -135 -61 -178 -19
-42 -35 -88 -35 -100 0 -29 28 -43 36 -18 3 9 21 53 40 98 29 70 94 287 94
314 0 15 -40 12 -45 -2z"/>
<path d="M9171 8231 c-17 -11 -8 -39 14 -48 9 -3 21 -1 28 6 16 16 -22 54 -42
42z"/>
<path d="M10215 8109 c-58 -33 -105 -103 -105 -156 0 -55 7 -71 41 -88 46 -24
139 -17 139 11 0 7 7 17 16 22 10 5 12 12 7 15 -12 7 -75 -13 -85 -28 -5 -6
-8 -5 -8 2 0 7 -6 10 -13 7 -8 -3 -24 3 -36 13 l-23 19 68 40 c38 23 77 53 88
68 20 26 20 26 -1 54 -22 30 -57 38 -88 21z m55 -48 c0 -14 -105 -80 -109 -69
-2 6 2 14 8 18 7 4 11 11 9 16 -2 5 2 11 7 13 6 2 19 10 30 17 22 16 55 19 55
5z"/>
<path d="M9282 8056 c-68 -38 -127 -136 -82 -136 6 0 33 24 60 53 26 28 51 50
54 47 3 -3 -1 -28 -9 -55 -11 -34 -12 -52 -5 -59 12 -12 41 2 43 19 2 19 117
106 117 90 0 -4 -4 -14 -9 -24 -13 -23 -1 -40 29 -43 24 -3 25 -1 22 47 -6 82
-26 89 -103 40 -32 -21 -36 -22 -32 -6 4 17 -20 52 -35 51 -4 -1 -26 -11 -50
-24z"/>
<path d="M10946 8063 c-3 -4 -12 -8 -20 -9 -22 -3 -94 -52 -110 -76 -22 -30
-20 -71 3 -92 41 -38 176 -22 176 20 0 14 -6 18 -20 15 -53 -9 -125 -12 -125
-4 1 4 24 19 52 33 67 33 98 57 98 79 0 30 -35 52 -54 34z"/>
<path d="M10515 8033 c-22 -15 -45 -34 -52 -42 -10 -14 -12 -11 -13 16 0 17
-5 35 -10 38 -14 8 -42 -14 -37 -29 5 -12 -30 -114 -45 -133 -12 -14 -2 -33
16 -33 8 0 34 21 58 48 24 26 59 61 78 77 l33 30 -32 -48 c-30 -44 -33 -67
-10 -67 5 0 41 25 81 55 39 30 73 53 75 51 3 -2 -8 -27 -22 -56 -27 -53 -27
-80 -1 -80 18 0 76 122 76 160 0 39 -21 43 -75 14 -25 -13 -44 -20 -41 -15 10
15 -5 41 -23 41 -9 0 -34 -12 -56 -27z"/>
<path d="M11173 8029 c-20 -13 -34 -16 -38 -9 -13 21 -31 8 -78 -55 -47 -63
-55 -95 -24 -95 23 0 67 40 67 61 0 10 5 19 11 19 5 0 7 -6 3 -12 -5 -7 8 -1
28 15 20 15 39 27 41 27 2 0 -2 -20 -10 -45 -24 -73 5 -131 45 -91 16 16 16
18 1 29 -18 13 -19 9 21 115 23 61 -7 80 -67 41z"/>
<path d="M13550 8030 c-25 -25 -60 -94 -60 -119 0 -47 43 -32 53 18 7 35 56
92 64 74 7 -18 32 -16 39 2 16 41 -60 61 -96 25z"/>
<path d="M9066 7970 c-20 -40 -36 -78 -36 -85 0 -18 27 -26 37 -12 23 32 64
128 61 143 -7 37 -27 22 -62 -46z"/>
<path d="M13022 8014 c-39 -31 -72 -92 -72 -134 0 -63 80 -105 155 -80 25 8
35 17 33 28 -3 14 -14 16 -58 14 -64 -3 -81 6 -85 41 -5 39 16 50 53 31 78
-39 127 35 66 101 -29 32 -51 31 -92 -1z m66 -36 c17 -17 15 -28 -7 -28 -25 0
-47 26 -29 33 20 8 23 8 36 -5z"/>
<path d="M13251 7982 c-37 -58 -39 -82 -8 -116 22 -25 33 -29 75 -27 30 1 82
53 82 81 0 35 -29 86 -56 99 -44 20 -61 13 -93 -37z m87 -14 c22 -22 15 -67
-12 -80 -52 -23 -77 26 -36 70 24 25 31 27 48 10z"/>
<path d="M13974 7815 c-7 -18 3 -35 21 -35 21 0 28 19 15 35 -16 19 -29 19
-36 0z"/>
<path d="M14339 7607 c-10 -23 -19 -49 -19 -57 -1 -8 -20 -53 -43 -99 -38 -74
-46 -84 -81 -96 -61 -21 -73 -63 -15 -51 16 3 29 4 29 2 0 -2 -13 -36 -29 -75
-16 -39 -25 -71 -19 -71 5 0 6 -5 2 -11 -4 -7 1 -10 12 -7 11 2 26 22 38 53
57 146 51 138 96 130 31 -5 40 -4 40 7 0 19 -21 38 -42 38 -23 0 -23 1 7 60
14 28 36 78 49 112 13 35 26 70 30 79 5 12 1 18 -14 22 -18 5 -25 -2 -41 -36z"/>
<path d="M15105 7569 c-4 -6 -15 -43 -24 -82 l-16 -72 -53 -14 c-40 -11 -52
-18 -52 -33 0 -17 5 -18 45 -12 26 3 45 2 45 -3 0 -22 -34 -110 -51 -132 -20
-25 -17 -41 6 -41 23 0 54 49 75 120 21 71 32 82 65 69 11 -4 39 -8 63 -8 36
-1 43 2 40 16 -4 20 -36 31 -95 32 -24 1 -43 6 -43 11 0 6 9 38 20 71 16 47
18 64 9 75 -14 17 -25 18 -34 3z"/>
<path d="M14023 7463 c-13 -2 -23 -9 -23 -14 0 -5 -6 -9 -12 -7 -7 1 -25 -1
-40 -5 -41 -11 -35 -42 18 -99 31 -33 44 -56 42 -70 -4 -32 -63 -68 -111 -68
-37 0 -39 2 -33 24 3 14 1 28 -5 31 -15 10 -49 -25 -49 -50 0 -71 143 -69 214
2 41 41 36 92 -15 148 l-41 44 26 7 c14 3 26 10 26 14 0 4 10 5 23 3 29 -5 51
11 44 31 -6 16 -20 18 -64 9z"/>
<path d="M13189 7427 c-45 -30 -79 -83 -79 -122 0 -43 21 -59 70 -52 36 5 39
3 45 -24 15 -67 115 -81 115 -17 0 16 -5 18 -35 12 -33 -6 -35 -5 -35 20 0 15
11 49 25 76 14 27 25 54 25 60 0 24 -37 7 -86 -40 -50 -47 -84 -63 -84 -40 0
17 27 65 44 79 9 7 14 17 11 21 -2 4 7 5 20 2 33 -6 60 15 44 34 -16 20 -41
17 -80 -9z"/>
<path d="M10169 7390 c-20 -11 -49 -33 -63 -51 -24 -28 -25 -34 -13 -53 20
-29 41 -31 86 -7 l39 20 -9 -32 c-15 -56 5 -107 42 -107 25 0 32 16 14 33 -18
19 -19 50 -1 101 16 47 11 70 -22 96 -30 24 -28 24 -73 0z m16 -55 c-16 -14
-34 -25 -40 -25 -5 1 4 12 20 25 17 14 35 25 40 25 6 -1 -3 -12 -20 -25z"/>
<path d="M12606 7389 c-14 -11 -26 -26 -26 -33 0 -7 -9 -21 -20 -31 -28 -26
-26 -73 4 -86 18 -9 30 -7 55 5 l31 17 0 -31 c0 -16 5 -30 10 -30 6 0 9 -6 8
-12 -4 -20 51 -22 59 -3 6 17 -14 38 -29 29 -18 -11 -6 29 23 81 17 30 28 59
24 65 -10 16 -39 12 -57 -10 -20 -22 -97 -75 -102 -69 -10 11 46 79 64 79 25
0 38 29 19 41 -21 13 -34 11 -63 -12z"/>
<path d="M10394 7363 c-8 -21 -26 -60 -40 -86 -26 -48 -26 -77 -1 -77 7 0 37
25 67 55 56 59 70 64 51 17 -16 -37 -17 -90 -3 -104 16 -16 32 0 32 32 0 15
10 53 21 84 12 30 19 62 16 71 -9 22 -50 19 -83 -7 -26 -21 -27 -21 -20 -3 4
11 8 22 8 25 4 44 -30 39 -48 -7z"/>
<path d="M11162 7388 c-6 -6 -12 -18 -12 -25 0 -6 -11 -29 -25 -49 -31 -45
-33 -99 -6 -114 50 -26 120 7 154 73 17 32 18 42 7 68 -17 41 -94 71 -118 47z
m76 -55 c2 -40 -10 -62 -44 -83 -50 -31 -62 -15 -32 43 16 32 30 47 48 50 14
2 25 5 26 6 0 0 1 -7 2 -16z"/>
<path d="M9294 7363 c-9 -41 -44 -136 -55 -149 -12 -15 -1 -44 18 -44 8 0 22
18 31 40 9 22 20 40 24 40 3 0 20 14 36 30 37 36 57 39 48 8 -15 -57 -18 -99
-7 -112 19 -22 39 -9 41 27 7 113 5 129 -15 143 -17 11 -25 11 -49 -1 -36 -19
-35 -19 -29 6 4 12 0 25 -8 30 -22 14 -28 11 -35 -18z"/>
<path d="M10680 7339 c-77 -92 -93 -146 -49 -170 22 -11 81 10 116 43 33 31
46 88 33 138 -16 58 -45 55 -100 -11z m38 -86 c-27 -29 -57 -47 -65 -39 -7 7
29 67 58 97 l24 24 3 -29 c2 -19 -4 -36 -20 -53z"/>
<path d="M11448 7364 c-10 -21 -9 -27 3 -35 13 -8 6 -13 -13 -10 -13 2 -9 -44
6 -64 12 -17 17 -18 40 -7 15 7 28 12 30 12 1 0 -7 -40 -18 -90 l-21 -90
-1800 -2 -1800 -3 1798 -2 c1009 -2 1797 -7 1797 -12 0 -5 -17 -11 -38 -15
-22 -3 -51 -17 -65 -30 -23 -21 -27 -33 -27 -80 0 -44 4 -58 21 -69 11 -8 29
-13 40 -10 26 7 75 64 90 107 13 35 15 36 64 36 55 1 91 20 82 45 -7 17 -42
21 -52 5 -10 -16 -65 -12 -65 5 0 13 234 15 2023 18 l2022 2 -2023 3 -2022 2
6 28 c23 100 39 153 60 198 13 28 24 56 24 62 0 28 -25 19 -73 -28 -46 -45
-52 -49 -55 -30 -2 12 2 28 8 35 7 8 10 22 6 30 -9 23 -35 18 -48 -11z m-4
-396 c-35 -69 -64 -83 -64 -31 0 34 26 63 57 63 23 0 23 0 7 -32z"/>
<path d="M15457 7369 c-21 -12 -43 -54 -67 -127 -20 -60 -18 -75 8 -70 10 2
26 31 42 78 l25 75 45 3 c56 4 72 18 46 38 -23 16 -73 18 -99 3z"/>
<path d="M15639 7360 c-9 -5 -26 -31 -37 -58 -28 -65 -23 -125 15 -164 25 -26
33 -29 88 -26 48 2 60 7 63 21 3 14 -5 17 -52 17 -47 0 -57 4 -75 26 -12 15
-21 31 -21 35 0 5 22 25 50 45 57 41 69 67 44 95 -18 20 -49 24 -75 9z m31
-50 c-8 -5 -17 -7 -19 -4 -3 3 1 9 9 14 8 5 17 7 19 4 3 -3 -1 -9 -9 -14z"/>
<path d="M15285 7314 c-15 -37 -51 -73 -72 -74 -10 0 -10 6 -1 24 13 29 5 56
-17 56 -18 0 -35 -39 -35 -81 0 -74 138 -41 152 36 1 11 8 26 15 33 7 7 10 19
7 27 -10 26 -33 16 -49 -21z"/>
<path d="M14407 7320 c-30 -24 -97 -130 -97 -154 0 -19 33 -22 47 -3 6 6 13
23 16 37 3 14 22 42 41 63 30 33 39 38 65 32 33 -7 49 8 31 30 -18 21 -73 18
-103 -5z"/>
<path d="M14830 7309 c-71 -40 -93 -65 -80 -90 29 -53 170 -73 170 -24 0 15
-7 18 -50 16 -14 0 -38 5 -54 12 l-30 13 67 34 c43 23 66 40 65 50 -5 25 -30
22 -88 -11z"/>
<path d="M14641 7253 c-6 -20 -23 -49 -37 -65 -45 -46 -92 -32 -59 18 18 28
14 54 -10 54 -15 0 -45 -59 -45 -90 0 -26 34 -51 70 -52 56 -2 145 109 126
157 -10 28 -35 16 -45 -22z"/>
<path d="M12102 6977 c-5 -7 -12 -57 -15 -112 -6 -124 -41 -242 -93 -310 -27
-35 -39 -44 -45 -34 -21 34 -7 91 41 167 13 20 13 24 0 32 -19 11 -23 8 -59
-47 -25 -38 -31 -57 -31 -102 0 -107 51 -132 115 -58 68 79 109 206 119 369 5
77 3 97 -8 101 -8 3 -19 0 -24 -6z"/>
<path d="M12808 6930 c-77 -5 -107 -18 -93 -40 5 -7 34 -10 86 -8 l80 3 41
-90 c34 -73 42 -101 42 -150 1 -50 -3 -66 -24 -92 -34 -42 -71 -63 -112 -63
-69 0 -116 65 -97 135 19 66 -11 91 -37 30 -29 -70 -8 -139 57 -187 95 -71
246 21 257 156 5 59 -29 183 -53 192 -7 3 -12 17 -12 31 0 14 -7 29 -14 34
-16 10 120 13 145 3 9 -3 16 -15 16 -25 0 -27 46 -26 55 1 8 25 1 36 -36 56
-33 17 -167 23 -301 14z"/>
<path d="M14042 6930 c-90 -10 -122 -33 -122 -91 0 -28 9 -49 38 -86 54 -68
62 -85 62 -137 0 -61 -27 -90 -73 -80 -51 11 -107 35 -108 48 -1 6 -2 20 -3
31 -1 27 -32 31 -46 6 -26 -50 59 -119 159 -129 36 -3 52 1 73 18 33 25 51 86
42 138 -8 47 -18 65 -66 125 -63 81 -50 105 65 114 45 3 81 1 94 -5 16 -9 23
-8 31 1 6 7 8 17 4 23 -8 11 -59 35 -70 33 -4 -1 -40 -5 -80 -9z"/>
<path d="M9460 6882 c-40 -19 -122 -111 -152 -171 -13 -25 -28 -50 -34 -56
-24 -23 -44 -66 -44 -95 0 -17 -7 -62 -16 -101 l-16 -69 -661 -2 -662 -3 658
-2 c361 -2 657 -5 657 -7 0 -2 -11 -34 -25 -72 -24 -67 -22 -93 8 -81 11 4 35
60 62 145 3 9 44 12 161 12 l156 0 -18 -27 c-43 -65 -104 -179 -104 -194 0 -9
6 -22 14 -28 16 -13 30 0 39 39 4 14 31 66 61 115 l54 90 2519 3 2520 2 -11
-51 c-8 -40 -7 -52 3 -59 23 -14 39 -1 67 56 l26 54 427 3 426 2 -426 3 -427
2 14 38 c7 20 13 45 14 55 0 13 10 17 48 18 26 1 51 1 55 0 14 -2 62 27 82 50
11 13 16 21 11 17 -5 -4 -15 -3 -22 3 -10 8 -22 4 -47 -15 -42 -32 -87 -25
-98 17 -6 22 -2 31 18 47 33 26 66 34 99 26 21 -6 25 -12 21 -31 -2 -14 -1
-25 2 -26 3 0 14 -2 24 -4 14 -3 17 4 17 36 0 47 -28 70 -87 71 -72 1 -129
-45 -179 -144 -14 -27 -22 -53 -19 -58 4 -6 2 -10 -2 -10 -5 0 -14 -20 -21
-45 l-12 -45 -2515 0 c-2393 0 -2515 1 -2506 18 5 9 39 59 76 111 60 85 74
121 46 121 -11 0 -85 -94 -119 -149 l-20 -33 -16 30 c-21 41 -44 62 -67 62
-23 0 -26 -35 -4 -44 18 -6 58 -93 49 -107 -3 -5 -77 -9 -164 -9 l-159 0 20
58 c18 55 22 59 63 70 101 27 236 203 236 307 0 62 -41 85 -100 57z m57 -67
c-3 -20 -16 -55 -28 -80 -55 -110 -205 -230 -184 -147 27 113 142 260 204 262
10 0 12 -9 8 -35z"/>
<path d="M15187 6873 c-4 -3 -7 -14 -7 -22 0 -9 -11 -33 -25 -54 -26 -37 -26
-37 -80 -31 -51 6 -55 5 -55 -13 0 -16 9 -22 39 -27 l40 -6 -26 -56 c-38 -85
-41 -127 -10 -158 20 -20 36 -26 69 -26 53 0 90 9 82 21 -3 5 2 6 10 3 16 -6
34 21 22 33 -3 4 -29 1 -56 -6 -72 -18 -100 -9 -100 32 1 17 11 56 24 86 24
56 49 75 91 69 30 -4 105 34 102 52 -3 21 -51 25 -67 6 -12 -16 -55 -23 -48
-8 2 4 12 23 22 44 10 20 16 43 13 52 -6 16 -28 21 -40 9z"/>
<path d="M9962 6858 c-7 -7 -12 -31 -12 -55 0 -24 -7 -59 -14 -78 -8 -19 -12
-35 -8 -35 3 0 -3 -7 -16 -15 -12 -9 -43 -17 -69 -19 -40 -2 -48 -6 -48 -22 0
-16 7 -19 45 -19 l46 0 -23 -57 c-13 -31 -26 -71 -30 -88 -5 -29 -4 -31 16
-28 17 2 27 20 51 87 30 89 38 100 83 119 l27 12 -36 -71 c-32 -60 -35 -73
-23 -85 16 -15 14 -16 120 59 30 20 55 33 57 29 1 -5 -9 -34 -23 -66 -27 -60
-26 -76 4 -76 14 0 25 20 46 80 15 45 24 87 21 95 -10 26 -69 18 -115 -15
l-42 -31 22 43 c12 24 33 60 46 81 13 20 20 37 16 37 -4 0 -2 5 5 12 7 7 12
23 12 36 0 13 4 21 9 18 12 -8 23 36 11 48 -17 17 -40 -3 -84 -73 -25 -38 -55
-75 -66 -81 -19 -10 -20 -9 -12 7 4 10 10 38 11 63 1 25 4 52 7 61 6 23 -19
42 -34 27z"/>
<path d="M8347 6853 c-10 -10 -8 -41 3 -48 5 -3 19 -1 31 5 20 11 20 12 3 31
-18 20 -27 23 -37 12z"/>
<path d="M14630 6834 c0 -24 19 -54 35 -54 22 0 28 20 14 46 -14 27 -49 33
-49 8z"/>
<path d="M8506 6654 c-25 -25 -46 -50 -46 -55 0 -6 -4 -8 -9 -5 -12 8 -34 -20
-27 -33 4 -5 -1 -14 -10 -19 -20 -11 -15 -46 8 -50 10 -2 29 18 54 57 42 65
70 88 54 45 -6 -14 -10 -36 -10 -50 0 -31 27 -32 39 -1 5 12 18 46 30 76 15
41 18 58 10 68 -20 23 -46 14 -93 -33z"/>
<path d="M11758 6676 c-18 -10 -28 -11 -31 -3 -6 19 -35 -1 -67 -44 -23 -32
-27 -45 -18 -51 10 -6 9 -8 -4 -8 -18 0 -28 -18 -20 -37 8 -24 40 -13 77 28
41 46 50 46 34 1 -12 -36 3 -75 28 -70 12 2 17 16 19 48 1 25 10 63 19 84 14
32 14 41 3 52 -11 11 -18 11 -40 0z"/>
<path d="M11417 6621 c-68 -72 -76 -131 -20 -131 35 0 73 25 73 48 1 9 10 0
21 -21 25 -47 42 -43 49 9 3 22 16 57 30 78 23 37 23 39 5 52 -10 8 -40 14
-66 14 -43 0 -50 -4 -92 -49z m87 -22 c-30 -32 -82 -64 -91 -56 -2 3 12 24 32
46 25 28 46 41 63 41 l26 0 -30 -31z"/>
<path d="M13385 6658 c-2 -7 -11 -41 -21 -75 -9 -35 -19 -63 -23 -62 -3 0 -19
28 -36 62 -16 34 -36 63 -42 65 -27 8 -24 -30 6 -89 17 -34 31 -70 31 -79 0
-23 26 -44 44 -37 33 13 94 195 73 216 -15 15 -27 14 -32 -1z"/>
<path d="M14139 6645 c-40 -26 -49 -43 -49 -83 1 -34 16 -54 57 -75 51 -27
123 -21 123 10 0 8 -4 11 -10 8 -5 -3 -10 -1 -10 6 0 9 -3 10 -11 2 -7 -7 -21
-7 -45 2 -48 16 -68 38 -59 64 9 28 40 44 100 51 37 4 51 10 53 23 3 15 -5 17
-55 17 -45 0 -66 -5 -94 -25z"/>
<path d="M10245 6649 c-4 -5 -3 -13 0 -19 3 -5 -1 -20 -10 -34 -40 -61 8 -135
79 -122 45 9 55 39 30 87 -10 19 -18 47 -18 64 -1 26 -4 29 -38 31 -21 2 -40
-1 -43 -7z m53 -94 c16 -34 15 -35 -7 -35 -25 0 -34 14 -26 40 9 27 19 25 33
-5z"/>
<path d="M8280 6631 c-5 -11 -7 -27 -3 -37 4 -11 2 -15 -4 -11 -10 7 -33 -55
-33 -90 0 -24 21 -45 36 -35 6 4 14 27 17 52 8 59 11 71 24 95 5 11 8 26 6 33
-7 18 -31 15 -43 -7z"/>
<path d="M10442 6623 c-13 -26 -22 -127 -12 -143 12 -19 40 -4 40 22 0 25 51
88 71 88 8 0 10 -12 5 -38 -7 -50 10 -75 49 -70 34 4 45 27 16 35 -18 4 -20
11 -15 47 9 63 -27 92 -78 65 -14 -8 -23 -8 -31 0 -16 16 -35 13 -45 -6z"/>
<path d="M13114 6621 c-37 -23 -74 -72 -74 -98 0 -42 69 -69 110 -43 10 6 20
4 32 -6 9 -9 22 -13 27 -9 14 8 14 92 0 101 -6 3 -9 15 -6 25 6 22 -17 49 -41
49 -9 0 -31 -9 -48 -19z m53 -48 c7 -18 -38 -63 -63 -63 -16 0 -19 26 -3 35 6
4 8 14 5 22 -3 8 -2 11 3 8 5 -3 12 -1 16 5 10 16 35 12 42 -7z m43 -87 c0 -3
-4 -8 -10 -11 -5 -3 -10 -1 -10 4 0 6 5 11 10 11 6 0 10 -2 10 -4z"/>
<path d="M13523 6608 c-40 -43 -56 -74 -48 -98 7 -22 44 -35 73 -26 14 5 28
-1 46 -19 21 -21 29 -24 46 -15 25 13 26 30 1 37 -15 4 -18 14 -18 56 1 98
-42 126 -100 65z m57 -43 c0 -16 -35 -38 -51 -33 -6 2 -1 16 11 31 22 27 40
28 40 2z"/>
<path d="M14428 6623 c-18 -19 -38 -66 -38 -88 0 -7 7 -16 15 -19 12 -4 21 7
35 40 17 39 23 44 47 42 22 -2 28 1 28 17 0 28 -64 34 -87 8z"/>
<path d="M14515 6531 c-7 -13 14 -59 31 -65 17 -6 49 39 39 54 -4 7 -16 10
-26 7 -11 -3 -19 -1 -19 4 0 12 -17 12 -25 0z"/>
<path d="M11709 6338 c0 -2 -2 -34 -4 -73 -2 -38 -12 -101 -22 -139 -21 -78
-22 -79 -135 -91 -65 -6 -85 -15 -73 -34 4 -8 32 -10 86 -5 l79 6 -16 -48 c-9
-27 -24 -67 -34 -89 -10 -22 -20 -54 -21 -70 -3 -24 0 -30 15 -30 15 0 25 18
46 80 15 44 34 97 43 119 9 21 15 41 13 45 -2 3 30 7 72 7 86 2 155 23 160 47
2 10 -3 17 -12 17 -9 0 -16 -6 -16 -12 0 -9 -4 -8 -10 2 -8 12 -13 13 -30 3
-11 -7 -40 -13 -64 -13 -25 0 -48 -5 -51 -10 -4 -6 -11 -8 -16 -4 -9 5 -8 17
6 79 3 11 9 41 15 66 16 68 10 143 -12 147 -10 2 -18 2 -19 0z"/>
<path d="M12336 6212 c-3 -5 -8 -40 -11 -78 -12 -159 -28 -217 -57 -203 -2 1
-21 -6 -43 -15 -66 -28 -125 -96 -125 -144 0 -103 175 -46 220 72 7 19 6 26
-3 26 -7 1 -5 6 5 13 12 9 21 45 32 118 23 162 24 213 4 217 -9 2 -19 -1 -22
-6z m-45 -344 c-6 -7 -23 -28 -38 -47 -26 -32 -89 -68 -100 -57 -14 14 12 59
49 86 41 30 110 44 89 18z"/>
<path d="M8080 6181 c0 -23 23 -34 40 -18 10 9 11 9 5 -3 -6 -12 -5 -12 5 -3
19 17 4 43 -25 43 -18 0 -25 -5 -25 -19z"/>
<path d="M9051 6161 c-7 -16 -13 -35 -15 -42 -1 -8 -7 -23 -13 -34 -16 -29
-73 -234 -73 -261 0 -16 6 -24 18 -24 16 -1 16 -1 0 -11 -20 -11 -24 -44 -6
-55 6 -4 8 -3 5 3 -4 6 0 14 9 17 12 5 15 2 10 -9 -3 -10 -2 -13 5 -10 6 4 7
19 4 36 -4 16 -1 55 6 86 7 32 13 65 14 73 1 8 7 26 13 40 6 14 23 60 38 103
15 43 31 80 35 83 14 8 -2 34 -21 34 -10 0 -23 -12 -29 -29z"/>
<path d="M8235 6014 c-70 -34 -80 -40 -83 -56 -2 -8 15 -33 38 -54 44 -42 50
-68 21 -83 -14 -8 -22 -7 -31 4 -15 19 -40 2 -40 -26 0 -49 79 -43 120 9 29
37 25 67 -16 107 -20 20 -34 37 -32 39 1 1 22 10 46 21 28 12 42 24 42 37 0
21 -22 22 -65 2z"/>
<path d="M10327 6024 c-12 -13 14 -44 58 -70 25 -14 45 -28 45 -31 0 -2 -30
-18 -66 -34 -38 -17 -64 -35 -61 -42 5 -15 54 -22 70 -9 7 5 33 20 58 35 l47
27 26 -27 c24 -24 28 -25 42 -12 13 14 13 18 -5 40 -19 25 -19 25 0 37 10 7
19 16 19 21 0 17 -33 21 -56 6 -22 -14 -27 -13 -76 16 -29 17 -54 35 -56 40
-4 10 -36 12 -45 3z"/>
<path d="M10744 5998 c-53 -36 -100 -107 -102 -153 -1 -17 -8 -55 -15 -85
l-12 -55 -1370 -5 -1370 -5 1365 -3 1365 -2 0 -30 c0 -16 -4 -30 -8 -30 -5 0
-7 -12 -5 -27 2 -20 9 -28 23 -28 16 0 24 13 39 58 l18 57 2447 2 2446 3
-2442 2 c-1706 2 -2443 6 -2443 14 0 5 5 30 11 55 10 37 15 44 36 44 33 0 99
38 119 67 8 13 18 44 21 68 4 35 1 47 -16 64 -29 29 -51 26 -107 -11z m76 -51
c0 -23 -8 -41 -25 -57 -13 -12 -23 -26 -21 -29 2 -3 -9 -6 -25 -6 -32 0 -33 4
-19 55 6 21 21 42 37 52 41 26 53 22 53 -15z"/>
<path d="M10035 6010 c-28 -11 -72 -60 -84 -93 -33 -86 9 -147 102 -147 91 0
197 36 197 66 0 18 -10 17 -115 -10 -33 -9 -72 -16 -87 -16 -27 0 -68 30 -68
49 0 5 29 11 65 13 78 5 118 30 123 75 6 55 -69 90 -133 63z m80 -46 c20 -21
11 -30 -47 -48 -58 -17 -81 -7 -53 25 36 39 75 48 100 23z"/>
<path d="M8853 5995 c-18 -8 -33 -19 -33 -25 0 -5 -6 -10 -14 -10 -22 0 -57
-56 -63 -99 -5 -33 -2 -41 16 -51 17 -9 28 -8 51 4 33 16 30 19 34 -44 1 -8 8
-16 17 -18 13 -2 18 6 21 35 3 21 11 59 18 85 11 37 11 51 2 60 -9 9 -22 1
-58 -35 -40 -41 -72 -61 -62 -39 24 49 37 66 64 83 18 11 43 22 55 24 28 6 33
11 26 30 -8 19 -32 19 -74 0z"/>
<path d="M9215 5998 c-40 -14 -83 -45 -95 -69 -12 -21 -1 -49 33 -86 24 -27
17 -38 -26 -38 -25 0 -33 -5 -35 -22 -5 -32 35 -39 83 -16 61 29 65 45 22 92
-20 23 -37 44 -37 47 0 17 97 70 108 59 10 -9 31 16 25 31 -6 16 -35 17 -78 2z"/>
<path d="M10971 5980 c-23 -17 -45 -38 -48 -48 -4 -9 -13 -23 -20 -30 -7 -7
-13 -21 -14 -30 0 -9 -3 -29 -5 -43 -7 -41 24 -72 72 -71 53 0 119 24 119 42
0 16 -5 16 -97 4 -47 -6 -48 -5 -48 20 0 21 5 26 26 26 28 0 84 29 84 43 0 4
4 6 9 3 4 -3 18 5 31 19 28 30 21 71 -16 85 -38 15 -47 13 -93 -20z m76 -39
c0 -11 -4 -18 -8 -15 -4 2 -24 -5 -44 -17 -47 -28 -55 -18 -17 21 35 35 72 41
69 11z"/>
<path d="M8023 5983 c-7 -3 -13 -11 -13 -20 0 -8 -14 -53 -30 -100 -30 -85
-31 -107 -3 -101 14 3 82 167 83 199 0 18 -18 29 -37 22z"/>
<path d="M11863 5946 c-61 -52 -66 -128 -10 -168 26 -18 45 -22 102 -22 72 1
119 16 112 37 -2 7 -14 14 -26 15 -16 3 -21 0 -16 -9 6 -8 4 -10 -4 -5 -7 5
-22 0 -34 -11 -19 -15 -20 -16 -8 0 12 16 10 17 -36 17 -36 0 -55 5 -66 18
-24 26 -22 27 26 24 47 -3 120 31 125 60 4 22 -51 59 -96 65 -31 4 -44 0 -69
-21z m102 -36 c7 -11 -52 -33 -70 -26 -22 8 -18 25 7 35 23 8 55 4 63 -9z"/>
<path d="M9380 5945 c-7 -9 -11 -18 -8 -20 3 -3 -10 -21 -28 -41 -60 -63 -38
-124 44 -124 32 0 49 7 77 31 30 26 35 37 35 73 -1 44 -13 66 -47 84 -30 16
-58 15 -73 -3z m70 -49 c30 -38 -24 -105 -74 -92 -14 3 -26 10 -26 14 0 12 70
92 80 92 4 0 13 -7 20 -14z"/>
<path d="M11260 5948 c-103 -29 -129 -146 -41 -182 57 -22 159 -4 148 27 -2 8
-23 11 -60 9 -62 -4 -97 10 -97 37 0 35 32 62 85 69 41 6 50 11 50 27 0 24
-32 29 -85 13z"/>
<path d="M12420 5745 c0 -22 35 -38 49 -22 8 10 7 17 -1 25 -17 17 -48 15 -48
-3z"/>
<path d="M14145 5408 c-2 -7 -5 -44 -7 -81 -3 -58 -2 -67 12 -63 8 3 5 -2 -7
-10 -13 -9 -23 -26 -23 -37 0 -18 -4 -19 -54 -13 -41 4 -55 3 -59 -8 -9 -22
14 -36 56 -36 l39 0 -4 -62 c-2 -52 0 -63 14 -66 18 -3 23 9 33 80 6 46 6 46
53 55 37 6 47 12 47 28 0 17 -6 20 -39 17 l-39 -4 8 39 c13 63 14 147 3 160
-13 16 -27 17 -33 1z"/>
<path d="M11882 5258 c-6 -25 -8 -86 -5 -145 l6 -103 -341 0 -341 0 2 28 c2
21 -2 27 -18 27 -11 0 -24 6 -28 13 -4 6 -16 12 -25 12 -26 0 -79 -36 -87 -59
-5 -17 -15 -21 -46 -21 l-40 0 6 34 c4 21 2 36 -5 41 -17 11 -40 -15 -40 -46
0 -27 -3 -29 -36 -29 -30 0 -37 4 -45 30 -6 17 -17 30 -24 30 -16 0 -26 -25
-19 -45 5 -11 -1 -15 -25 -15 -26 0 -30 3 -28 23 2 19 -3 22 -39 25 -35 3 -45
-1 -62 -22 -16 -21 -28 -26 -63 -25 l-44 1 -61 92 -61 93 61 6 c77 7 96 15 96
37 0 33 -66 38 -242 18 -90 -10 -108 -15 -108 -29 0 -22 16 -27 68 -22 27 3
50 -1 60 -9 20 -17 132 -169 132 -180 0 -4 -174 -8 -386 -8 l-386 0 -20 25
c-11 15 -30 25 -44 25 -14 0 -36 -11 -50 -25 -20 -20 -35 -25 -78 -25 -45 0
-54 3 -52 17 2 26 -34 29 -41 4 -5 -20 -11 -21 -209 -21 -175 0 -204 2 -204
15 0 12 -14 15 -70 15 l-70 0 0 55 c0 80 -37 169 -66 158 -19 -7 -18 -27 3
-66 20 -39 28 -78 24 -127 -2 -43 -37 -50 -233 -50 -153 0 -178 2 -178 15 0
25 30 29 67 10 47 -25 66 -7 30 29 -51 51 -116 39 -139 -25 l-10 -29 -156 2
-156 3 -12 55 c-16 65 -17 129 -4 150 7 12 16 13 52 3 45 -12 65 -5 55 20 -8
20 -90 39 -120 28 -44 -17 -53 -111 -22 -233 7 -27 7 -27 -57 -31 l-63 -3 68
-2 c77 -2 89 -17 21 -25 -50 -5 -70 -18 -59 -37 6 -9 25 -11 66 -6 l59 6 0
-40 c0 -45 -28 -110 -47 -110 -7 0 -13 -9 -13 -21 0 -16 5 -20 28 -17 22 2 32
14 55 57 15 31 27 71 27 92 0 35 2 38 27 36 18 -1 28 3 31 15 2 12 -9 20 -45
31 -47 15 -45 15 110 16 l157 1 0 -44 c0 -35 4 -45 20 -49 18 -5 20 0 20 44
l0 49 59 0 c56 0 59 -1 64 -28 4 -19 18 -35 46 -50 40 -23 60 -59 46 -82 -5
-7 -25 -10 -51 -7 -25 2 -47 0 -51 -5 -10 -18 25 -41 65 -42 97 -2 119 109 33
162 -25 15 -27 20 -16 35 9 13 27 17 80 17 66 0 67 0 45 -18 -20 -16 -20 -19
-6 -31 13 -11 21 -10 49 8 19 12 37 21 41 21 3 0 6 -33 6 -73 0 -76 15 -114
40 -105 11 3 13 26 11 101 l-3 97 276 0 276 0 1 -25 c2 -40 3 -43 17 -56 15
-16 16 -30 0 -27 -7 2 -13 -4 -13 -12 -2 -23 14 -50 30 -50 12 0 15 17 15 85
0 84 0 85 25 85 23 0 25 -4 25 -41 0 -88 48 -110 68 -32 15 56 28 73 53 73 16
0 19 -8 19 -48 0 -50 13 -74 36 -65 11 4 12 18 8 59 l-7 54 261 0 260 0 6 -27
c10 -42 74 -130 111 -153 46 -29 96 -26 136 7 38 32 68 95 69 141 0 31 2 32
40 32 40 0 40 0 40 -39 0 -61 26 -80 80 -57 10 4 19 -2 25 -16 6 -14 20 -24
38 -26 33 -4 34 9 6 47 -16 22 -19 36 -14 60 10 48 43 42 88 -19 75 -100 117
-101 117 -4 l0 54 35 0 c32 0 35 -2 35 -30 0 -37 32 -72 57 -63 10 3 29 14 42
23 22 16 24 15 51 -11 46 -47 150 -49 150 -3 0 13 -7 15 -32 11 -50 -7 -98 16
-98 47 l0 26 340 0 340 0 0 -39 c0 -42 17 -65 39 -51 8 4 29 6 47 3 46 -8 90
13 115 53 16 27 27 34 52 34 18 0 41 -7 51 -15 26 -20 110 -20 130 0 22 22 82
20 89 -4 7 -27 46 -50 100 -57 43 -6 47 -5 47 14 0 21 -8 25 -67 37 -51 10
-39 25 21 25 46 0 56 -3 70 -25 20 -30 50 -32 94 -5 32 20 32 20 52 0 11 -11
24 -20 29 -20 14 0 33 28 26 40 -10 16 31 12 45 -5 16 -20 60 -19 88 1 17 12
36 14 75 10 29 -3 61 -6 72 -5 11 0 578 2 1259 5 682 2 1242 6 1244 9 3 3
-151 5 -342 5 l-347 0 25 33 c15 19 26 41 26 50 0 20 -38 47 -67 47 -12 0 -25
5 -28 10 -7 12 53 40 86 40 15 0 19 4 15 16 -3 9 -6 18 -6 20 0 2 -14 4 -30 4
-55 0 -140 -56 -140 -91 0 -19 51 -39 98 -39 30 0 28 -13 -9 -44 -37 -31 -55
-33 -71 -6 -14 22 -33 26 -44 8 -5 -7 -3 -8 7 -3 12 8 12 6 1 -8 -8 -9 -11
-21 -7 -27 4 -6 -13 -10 -49 -10 l-55 0 15 28 c7 15 14 38 14 50 0 13 7 40 17
59 13 29 14 36 3 43 -23 14 -49 -8 -55 -48 -4 -20 -11 -52 -16 -71 -5 -23 -5
-39 3 -48 9 -11 -53 -13 -350 -13 l-360 0 11 38 c6 20 17 45 25 54 17 20 8 38
-19 38 -25 0 -53 -61 -47 -102 l5 -28 -198 0 c-191 0 -197 1 -202 21 -4 16
-11 19 -26 14 -37 -11 -119 -9 -135 5 -19 15 -21 28 -3 26 19 -2 106 37 111
50 7 18 -23 54 -45 54 -24 0 -91 -33 -108 -54 -18 -22 -16 -73 4 -96 18 -20
17 -20 -59 -20 -73 0 -76 1 -64 19 10 16 7 28 -15 69 -28 51 -27 68 3 52 12
-7 21 -6 28 3 23 28 -31 62 -69 44 -32 -16 -35 -55 -9 -107 11 -22 18 -45 15
-50 -10 -16 -35 -12 -35 5 0 26 -39 18 -46 -10 -5 -21 -12 -25 -45 -25 -38 0
-38 0 -28 29 16 45 8 86 -16 86 -15 0 -21 -8 -23 -30 -5 -54 -12 -73 -29 -79
-32 -12 -46 49 -18 78 23 22 19 46 -8 46 -29 0 -47 -35 -47 -90 0 -36 -3 -40
-25 -40 -27 0 -32 18 -15 49 18 35 -47 67 -110 55 -25 -5 -37 -17 -58 -55
l-27 -49 -63 0 -63 0 4 41 c5 53 27 71 77 63 29 -5 38 -2 43 11 5 12 -2 20
-28 31 -31 12 -39 12 -67 0 -59 -27 -68 -39 -68 -94 l0 -51 -87 1 c-83 1 -113
9 -113 29 0 5 6 9 13 9 22 0 98 77 91 93 -22 59 -130 -11 -141 -92 -5 -37 -8
-41 -34 -41 -28 0 -29 2 -29 45 0 36 -5 48 -25 61 -23 15 -27 14 -62 -6 -21
-12 -48 -34 -58 -51 l-20 -29 -7 47 c-12 90 -9 165 8 184 20 22 11 39 -20 39
-19 0 -26 -8 -34 -42z m176 -210 c-3 -30 -6 -33 -40 -36 -46 -4 -48 8 -7 42
40 34 51 33 47 -6z m646 8 c-11 -29 -84 -62 -84 -38 0 4 7 18 16 30 18 26 77
32 68 8z m-1550 -30 c-7 -17 -64 -23 -64 -6 0 8 60 31 68 25 1 -1 0 -10 -4
-19z m-437 -12 c-3 -3 -12 -4 -19 -1 -8 3 -5 6 6 6 11 1 17 -2 13 -5z m-224
-28 c14 -37 -33 -128 -73 -141 -33 -10 -87 23 -120 75 -46 72 -38 80 85 80 80
0 104 -3 108 -14z m217 5 c0 -14 -38 -57 -45 -50 -13 13 7 59 26 59 10 0 19
-4 19 -9z m210 -21 c0 -16 -4 -30 -9 -30 -5 0 -19 14 -31 30 l-21 30 30 0 c28
0 31 -3 31 -30z m204 17 c-2 -7 -13 -18 -24 -25 -18 -11 -20 -10 -20 13 0 20
5 25 25 25 16 0 23 -5 19 -13z m911 -7 c-11 -12 -31 -20 -51 -20 -27 0 -31 3
-27 20 4 16 14 20 51 20 44 0 45 0 27 -20z"/>
<path d="M14664 5286 c-7 -19 13 -56 30 -56 15 0 35 39 29 58 -6 17 -52 15
-59 -2z"/>
<path d="M13904 5276 c-6 -16 12 -56 25 -56 22 0 30 27 15 48 -17 25 -32 28
-40 8z"/>
<path d="M9408 5204 c-11 -22 -10 -28 7 -40 33 -24 63 24 33 54 -18 18 -27 15
-40 -14z"/>
<path d="M8239 5084 c-14 -17 -4 -31 26 -36 26 -4 32 28 7 41 -15 8 -23 7 -33
-5z"/>
<path d="M8237 4943 c-22 -22 9 -123 38 -123 18 0 18 9 3 77 -12 49 -24 63
-41 46z"/>
<path d="M11513 4929 c-6 -6 -8 -29 -6 -54 5 -39 3 -45 -26 -66 -35 -25 -42
-59 -12 -59 53 0 97 80 83 149 -8 37 -21 48 -39 30z"/>
<path d="M8368 4849 c-4 -61 -1 -69 23 -69 16 0 19 7 19 54 0 44 -3 55 -19 59
-17 4 -20 -2 -23 -44z"/>
<path d="M9144 4746 c-3 -7 2 -30 10 -50 8 -20 20 -71 26 -113 6 -43 15 -79
20 -81 6 -2 3 -13 -5 -25 -25 -35 -19 -84 13 -112 15 -13 37 -26 50 -30 47
-12 119 49 129 109 5 30 1 41 -17 61 -28 29 -74 33 -108 9 -13 -9 -24 -14 -26
-13 -1 2 -8 42 -14 88 -6 47 -15 87 -19 90 -5 3 -9 17 -11 30 -4 42 -37 67
-48 37z m195 -274 c21 -40 -49 -110 -86 -86 -28 17 -26 30 10 68 38 40 61 45
76 18z"/>
<path d="M10441 4677 c-16 -20 9 -111 34 -121 23 -9 27 11 13 69 -13 56 -29
73 -47 52z"/>
<path d="M7939 4670 c-9 -6 -20 -26 -23 -46 -4 -19 -9 -41 -12 -48 -6 -16 24
-49 37 -41 5 4 9 18 9 32 0 15 5 42 12 60 14 38 3 57 -23 43z"/>
<path d="M7985 4638 c-14 -41 -12 -79 4 -100 26 -31 37 -16 37 49 -1 47 -4 58
-19 61 -9 2 -19 -2 -22 -10z"/>
<path d="M10337 4633 c-2 -5 -4 -20 -5 -35 -1 -21 5 -31 28 -43 26 -14 30 -13
38 2 7 11 4 26 -10 50 -19 31 -42 43 -51 26z"/>
<path d="M8411 4606 c-8 -10 -5 -27 14 -70 13 -30 30 -76 36 -100 15 -59 61
-115 84 -101 19 12 38 62 55 150 7 33 17 65 22 72 14 18 -1 55 -20 51 -17 -3
-27 -31 -53 -143 -8 -33 -18 -59 -23 -58 -6 1 -24 45 -41 99 -32 98 -53 126
-74 100z"/>
<path d="M8979 4582 c-13 -10 -32 -22 -43 -25 -16 -6 -17 -14 -12 -50 14 -86
26 -118 44 -115 14 3 16 13 14 60 -2 31 2 66 8 78 10 19 19 21 68 18 46 -2 57
0 60 13 7 36 -99 51 -139 21z"/>
<path d="M9751 4561 c-17 -30 7 -71 69 -116 27 -20 50 -41 50 -45 0 -13 -42
-40 -61 -40 -9 0 -22 14 -29 30 -14 35 -36 39 -45 10 -9 -27 38 -90 66 -90 42
0 119 60 119 93 0 6 -30 39 -67 74 -61 56 -64 62 -35 52 17 -6 32 -15 32 -20
0 -5 9 -9 20 -9 29 0 26 36 -5 56 -13 9 -42 18 -64 21 -33 5 -41 2 -50 -16z"/>
<path d="M10030 4559 c-60 -36 -79 -67 -80 -127 0 -48 4 -58 34 -88 29 -29 41
-34 83 -34 52 0 113 29 113 54 0 25 -15 26 -58 5 -50 -25 -95 -19 -118 16 -20
31 -15 69 11 74 11 2 23 8 27 15 6 8 8 7 8 -1 0 -21 45 -14 68 10 26 28 27 45
6 75 -19 28 -49 28 -94 1z m56 -44 c-11 -8 -29 -15 -40 -15 -21 1 -21 1 -2 15
11 8 29 15 40 15 21 -1 21 -1 2 -15z"/>
<path d="M8737 4558 c-34 -26 -67 -82 -67 -114 0 -46 35 -82 86 -90 29 -4 45
-2 55 9 9 8 27 13 44 10 37 -5 60 9 52 32 -5 11 -13 14 -27 10 -43 -14 -118
-21 -139 -14 -29 11 -26 35 7 47 38 13 92 60 92 81 0 9 -5 22 -12 29 -16 16
-70 15 -91 0z m48 -38 c-3 -5 -16 -15 -28 -21 -22 -12 -22 -12 -3 10 19 21 43
30 31 11z m-15 -44 c0 -3 -4 -8 -10 -11 -5 -3 -10 -1 -10 4 0 6 5 11 10 11 6
0 10 -2 10 -4z"/>
<path d="M9502 4541 c-57 -29 -66 -64 -32 -131 23 -45 63 -70 114 -70 84 0 89
124 7 193 -37 31 -43 31 -89 8z m82 -63 c23 -38 27 -63 12 -84 -14 -18 -17
-18 -42 -4 -40 22 -70 76 -54 95 19 23 67 19 84 -7z"/>
<path d="M9802 3613 c1054 -2 2782 -2 3840 0 1058 1 195 2 -1917 2 -2112 0
-2977 -1 -1923 -2z"/>
<path d="M9797 2923 c1058 -2 2788 -2 3845 0 1058 1 193 2 -1922 2 -2115 0
-2980 -1 -1923 -2z"/>
<path d="M9797 2233 c1057 -2 2789 -2 3850 0 1060 1 196 2 -1922 2 -2117 0
-2985 -1 -1928 -2z"/>
<path d="M9797 1543 c1058 -2 2788 -2 3845 0 1058 1 193 2 -1922 2 -2115 0
-2980 -1 -1923 -2z"/>
<path d="M9802 853 c1054 -2 2782 -2 3840 0 1058 1 195 2 -1917 2 -2112 0
-2977 -1 -1923 -2z"/>
</g>
</svg>
