<?xml version="1.0" standalone="no"?>
<!DOCTYPE svg PUBLIC "-//W3C//DTD SVG 20010904//EN"
 "http://www.w3.org/TR/2001/REC-SVG-20010904/DTD/svg10.dtd">
<svg version="1.0" xmlns="http://www.w3.org/2000/svg"
 width="1618.000000pt" height="1214.000000pt" viewBox="0 0 1618.000000 1214.000000"
 preserveAspectRatio="xMidYMid meet">

<g transform="translate(0.000000,1214.000000) scale(0.100000,-0.100000)"
fill="#000000" stroke="none">
<path d="M8537 11707 c-27 -25 -41 -52 -61 -117 -31 -103 -76 -174 -108 -175
-15 0 -23 -6 -22 -17 3 -61 5 -68 20 -68 19 0 32 14 75 83 17 26 32 47 33 47
2 0 17 -5 35 -11 29 -10 31 -14 31 -59 0 -62 7 -80 32 -80 18 0 20 5 15 40 -7
57 1 80 28 80 13 0 26 7 29 16 9 23 8 24 -19 24 -29 0 -28 -6 -14 133 9 84 9
110 -1 122 -19 22 -35 18 -73 -18z m27 -124 c-7 -54 -13 -99 -13 -100 -3 -4
-42 11 -47 18 -11 19 46 179 64 179 4 0 2 -44 -4 -97z"/>
<path d="M12210 11689 c-39 -10 -185 -13 -199 -5 -5 3 -14 -1 -21 -9 -25 -30
4 -43 94 -41 46 0 83 -1 81 -4 -1 -3 -6 -36 -9 -75 -4 -38 -19 -107 -34 -153
l-27 -83 -85 7 c-82 6 -86 5 -86 -14 0 -18 9 -22 65 -28 78 -8 279 2 316 16
31 12 31 47 0 42 -73 -11 -155 -13 -155 -5 0 5 8 34 19 64 20 60 38 183 23
160 -6 -8 -12 -10 -16 -3 -4 6 1 15 10 20 12 6 15 18 12 35 -7 35 13 41 130
39 84 -2 92 0 92 17 0 11 -9 21 -22 25 -33 8 -147 6 -188 -5z"/>
<path d="M13677 11623 c-10 -43 -42 -131 -72 -197 -72 -156 -64 -174 37 -81
32 30 64 55 69 55 11 0 4 -30 -17 -72 -18 -34 -18 -53 0 -67 17 -15 23 -6 48
64 35 96 16 137 -51 109 -18 -8 -35 -14 -36 -14 -2 0 10 31 25 68 30 74 49
148 31 122 -9 -13 -11 -13 -11 1 0 9 7 20 16 23 20 8 15 60 -7 64 -12 2 -19
-15 -32 -75z"/>
<path d="M14410 11671 c-5 -11 -10 -28 -10 -37 0 -10 -14 -53 -32 -96 l-32
-78 -42 0 c-43 0 -72 -20 -59 -40 5 -7 21 -9 47 -5 44 8 45 7 12 -74 -19 -46
-18 -71 4 -71 12 0 25 22 47 78 l30 77 74 5 c47 3 76 10 79 17 6 20 -48 35
-97 28 -34 -5 -43 -4 -39 7 3 7 20 50 38 95 18 45 30 89 27 98 -9 21 -34 19
-47 -4z"/>
<path d="M13294 11625 c-9 -22 4 -35 36 -35 34 0 47 25 20 40 -27 14 -50 12
-56 -5z"/>
<path d="M10715 11558 c-61 -33 -78 -71 -52 -114 47 -81 48 -85 36 -100 -10
-13 -14 -13 -28 0 -26 24 -48 4 -33 -29 16 -35 39 -41 69 -19 55 42 57 54 19
127 l-35 66 21 16 c13 8 31 15 41 15 23 0 34 29 16 41 -18 11 -30 11 -54 -3z"/>
<path d="M10935 11531 c-38 -23 -77 -69 -95 -110 -27 -66 36 -120 124 -107 26
4 44 11 41 17 -4 5 1 9 9 9 16 0 22 15 9 23 -5 3 -26 2 -48 -2 -55 -10 -95 5
-95 34 0 17 5 22 18 18 25 -6 109 32 122 56 8 16 8 27 -1 44 -22 42 -40 46
-84 18z m45 -39 c0 -9 -44 -32 -58 -32 -10 1 38 40 49 40 5 0 9 -4 9 -8z"/>
<path d="M11235 11530 c-49 -22 -87 -66 -96 -111 -14 -75 -12 -99 11 -99 13 0
21 8 25 25 3 14 7 35 10 48 8 42 49 92 78 95 15 2 27 -1 27 -7 0 -6 9 -11 20
-11 28 0 26 35 -2 54 -25 18 -43 19 -73 6z"/>
<path d="M8757 11502 c-35 -36 -34 -63 3 -105 17 -19 30 -41 30 -50 0 -26 -32
-29 -62 -7 -48 36 -69 -2 -22 -39 59 -46 144 -8 129 58 -4 18 -18 45 -32 61
-31 37 -24 60 17 60 23 0 30 5 30 19 0 39 -56 41 -93 3z"/>
<path d="M10328 11483 c-80 -88 -129 -132 -144 -126 -7 3 -16 -2 -20 -10 -7
-18 12 -57 27 -57 6 0 41 29 77 65 36 36 65 65 66 65 1 0 1 -16 2 -36 1 -65
67 -86 122 -39 31 26 48 33 37 14 -12 -19 4 -59 24 -59 17 0 19 8 20 62 0 34
-5 68 -11 75 -19 23 -46 14 -68 -22 -23 -38 -54 -60 -70 -50 -14 9 -13 108 1
122 13 13 5 43 -10 43 -6 0 -29 -21 -53 -47z"/>
<path d="M13390 11513 c-28 -11 -50 -36 -50 -58 0 -12 14 -41 30 -63 17 -23
30 -46 30 -51 0 -16 -38 -23 -60 -11 -23 12 -40 6 -40 -15 0 -37 93 -48 128
-15 30 28 28 48 -13 105 -19 27 -31 52 -27 56 13 12 72 21 72 11 0 -6 8 -9 18
-8 11 2 17 12 17 27 0 21 -5 24 -45 26 -25 1 -52 -1 -60 -4z"/>
<path d="M9465 11498 c-61 -33 -112 -116 -94 -150 15 -28 69 -23 117 12 l42
30 0 -35 c0 -22 8 -43 21 -56 23 -23 60 -22 67 1 3 8 1 12 -3 8 -4 -4 -16 4
-27 17 -16 21 -18 34 -13 78 7 53 7 53 -32 80 -43 30 -49 31 -78 15z m35 -52
c9 -12 4 -20 -31 -45 -23 -17 -46 -31 -51 -31 -14 0 20 57 44 74 27 19 23 19
38 2z"/>
<path d="M12835 11463 c-89 -32 -101 -41 -81 -61 13 -13 21 -12 66 7 28 12 56
21 61 19 5 -2 -7 -25 -26 -52 -37 -52 -45 -93 -21 -102 8 -3 48 11 89 30 41
20 77 36 80 36 3 0 10 -13 16 -30 6 -20 17 -30 30 -30 24 0 67 53 77 95 4 17
11 36 17 43 7 9 6 17 -2 25 -18 18 -44 -4 -56 -46 -13 -46 -24 -56 -36 -34
-13 22 -58 22 -104 0 -30 -14 -33 -18 -18 -24 12 -5 8 -7 -14 -6 -36 2 -39 -7
25 89 46 71 14 84 -103 41z"/>
<path d="M13233 11443 c-3 -10 -14 -37 -23 -60 -15 -34 -16 -45 -6 -59 7 -9
17 -14 23 -11 15 9 47 113 40 131 -8 21 -26 21 -34 -1z"/>
<path d="M14538 11420 c-30 -23 -61 -94 -53 -120 9 -28 51 -42 95 -30 48 13
100 55 100 80 0 21 -36 50 -62 50 -11 0 -18 8 -18 20 0 26 -29 26 -62 0z m86
-70 c10 -10 -45 -40 -74 -40 -22 0 -25 12 -9 41 8 16 17 19 42 14 18 -4 36
-11 41 -15z"/>
<path d="M630 6040 l0 -5190 3310 0 3310 0 0 5190 0 5190 -3310 0 -3310 0 0
-5190z m6610 0 l0 -5180 -3300 0 -3300 0 0 5180 0 5180 3300 0 3300 0 0 -5180z"/>
<path d="M2329 11046 c-3 -3 -4 -76 -3 -163 l1 -157 -52 56 c-34 36 -59 75
-70 107 -9 27 -23 55 -32 62 -13 11 -18 10 -34 -10 -14 -17 -19 -40 -19 -90
-2 -237 -5 -215 20 -194 23 20 26 39 8 46 -10 4 -10 6 0 6 8 1 12 25 12 84 l0
82 20 -41 c12 -23 52 -72 90 -108 61 -59 72 -66 90 -56 19 10 20 17 14 140 -5
92 -3 142 6 175 7 25 11 47 9 49 -8 8 -55 17 -60 12z"/>
<path d="M3435 11041 c-70 -17 -95 -45 -95 -105 0 -44 32 -71 94 -80 54 -8
104 -58 131 -131 22 -58 15 -74 -43 -95 -37 -13 -47 -13 -84 0 -31 11 -43 20
-43 35 0 25 -33 27 -48 3 -13 -20 11 -51 55 -74 67 -35 194 -2 218 57 11 26
10 37 -14 92 -47 112 -79 139 -188 162 -51 10 -47 68 5 84 75 23 94 23 115 0
11 -11 18 -27 16 -33 -3 -7 2 -19 11 -26 13 -11 18 -10 34 4 15 14 16 22 8 49
-17 55 -87 78 -172 58z"/>
<path d="M3106 11020 c-109 -55 -150 -120 -151 -240 0 -134 52 -185 182 -177
86 5 135 29 110 54 -11 11 -19 12 -34 5 -40 -22 -118 -25 -155 -8 -44 21 -58
51 -58 126 0 83 23 134 76 170 56 39 70 38 78 -5 4 -19 14 -42 23 -50 14 -15
17 -15 31 -1 36 35 4 138 -44 143 -10 2 -36 -6 -58 -17z"/>
<path d="M1570 11023 c-40 -13 -63 -30 -77 -56 -26 -51 13 -88 129 -122 85
-24 117 -73 82 -123 -18 -27 -78 -30 -112 -6 -29 20 -52 66 -52 104 0 24 -4
31 -16 28 -42 -8 -33 -80 16 -140 77 -93 220 -65 220 44 0 73 -32 107 -130
137 -109 34 -124 58 -54 87 50 21 95 18 101 -6 3 -11 9 -17 14 -14 5 3 9 0 9
-7 0 -8 4 -8 15 1 22 18 18 46 -7 64 -22 15 -104 21 -138 9z"/>
<path d="M1960 10996 c-26 -10 -40 -10 -53 -2 -14 9 -21 7 -32 -7 -11 -15 -24
-18 -67 -15 -43 2 -53 0 -56 -14 -4 -22 56 -41 101 -33 32 6 35 5 41 -26 3
-18 4 -67 1 -108 -6 -80 2 -108 29 -98 13 5 16 26 16 126 l0 119 43 16 c23 8
55 17 72 18 19 2 31 9 33 21 3 14 -4 17 -45 16 -26 0 -64 -6 -83 -13z"/>
<path d="M2620 10824 c-30 -8 -74 -13 -97 -12 -48 2 -58 -4 -49 -28 6 -15 18
-16 89 -11 45 3 99 11 120 17 38 11 49 33 21 44 -18 7 -14 8 -84 -10z"/>
<path d="M4142 10334 c-12 -8 -22 -22 -22 -30 0 -13 9 -14 54 -9 50 7 57 5 78
-18 13 -13 34 -43 46 -66 l24 -42 -66 -65 c-113 -111 -119 -150 -33 -189 l52
-24 -37 0 c-42 -1 -58 -20 -58 -69 0 -28 13 -56 80 -177 28 -50 34 -69 33
-120 0 -62 -28 -145 -53 -160 -8 -5 -28 9 -54 39 -42 45 -59 55 -70 37 -7 -11
67 -106 94 -121 55 -29 119 66 128 190 5 74 -5 106 -68 210 -21 36 -40 79 -42
95 -3 27 -1 30 24 27 92 -9 87 85 -6 115 -17 5 -31 14 -34 21 -2 6 31 46 72
90 53 55 76 87 76 104 0 40 -75 147 -115 164 -44 18 -75 18 -103 -2z"/>
<path d="M3405 10292 c-41 -25 -93 -87 -101 -119 -5 -18 1 -41 20 -79 15 -29
29 -74 32 -101 8 -66 -9 -86 -77 -93 -41 -4 -55 -9 -57 -23 -4 -19 4 -23 69
-32 l46 -6 -35 -87 c-61 -150 -50 -233 35 -268 46 -20 126 -8 131 19 3 14 -5
17 -53 17 -70 0 -90 10 -105 55 -13 40 -5 74 49 200 21 50 27 74 20 87 -7 13
-5 25 7 43 29 45 17 145 -27 220 l-19 32 29 40 c38 52 47 58 96 58 52 0 61 28
14 44 -41 14 -39 14 -74 -7z"/>
<path d="M2014 10156 c-3 -20 -4 -45 -1 -57 3 -11 1 -34 -3 -51 -5 -17 -10
-48 -12 -69 -2 -33 -5 -39 -24 -39 -36 0 -54 -11 -54 -32 0 -17 5 -20 35 -16
41 5 43 0 47 -96 2 -41 8 -61 17 -64 10 -3 12 0 7 13 -5 13 -2 16 10 11 15 -6
16 1 10 56 -4 34 -8 67 -9 73 -1 5 9 11 23 13 67 9 130 33 129 50 0 9 -3 12
-5 5 -3 -7 -12 -9 -20 -6 -7 3 -11 9 -8 14 3 5 -5 5 -18 0 -13 -4 -40 -11 -62
-15 l-38 -7 8 68 c14 120 11 177 -8 181 -12 2 -19 -6 -24 -32z"/>
<path d="M2622 10168 c-17 -17 -15 -32 14 -123 32 -98 37 -196 12 -221 -21
-21 -76 -23 -89 -3 -5 8 -8 27 -7 44 3 24 8 31 32 35 35 6 43 22 21 40 -11 9
-24 10 -48 4 -26 -8 -35 -18 -47 -52 -14 -40 -13 -45 5 -80 25 -46 67 -60 126
-43 31 10 44 20 55 46 21 52 16 130 -16 230 -17 54 -24 94 -19 100 26 27 -12
50 -39 23z"/>
<path d="M3835 10129 c-16 -5 -52 -13 -80 -17 l-50 -7 4 -85 c1 -47 5 -87 8
-90 2 -2 26 3 52 13 94 33 138 16 148 -60 7 -56 -26 -93 -88 -100 -41 -5 -50
-2 -79 24 -18 16 -34 40 -35 53 -1 15 -9 24 -22 26 -30 5 -34 -18 -12 -62 50
-100 182 -117 253 -33 25 30 28 39 24 92 -4 49 -9 63 -36 90 -28 28 -39 32
-81 31 -27 -1 -58 -7 -70 -13 -20 -11 -21 -9 -21 32 0 44 0 44 43 52 23 4 59
8 79 9 40 2 68 20 53 35 -17 15 -59 19 -90 10z"/>
<path d="M1507 10083 c-14 -13 -6 -41 13 -46 23 -6 45 16 36 38 -5 15 -37 21
-49 8z"/>
<path d="M1724 9961 c-34 -20 -104 -112 -104 -136 0 -33 39 -14 70 35 29 45
56 70 76 70 3 0 3 -30 0 -67 -13 -130 -13 -128 9 -128 21 0 25 13 41 142 6 46
4 54 -19 77 -31 31 -33 31 -73 7z"/>
<path d="M2262 9963 c-45 -22 -76 -83 -69 -136 7 -54 35 -80 85 -80 43 0 152
45 152 63 0 20 -33 24 -63 6 -17 -9 -49 -19 -72 -23 -37 -5 -45 -2 -54 16 -10
18 -9 21 7 21 27 0 99 55 107 81 6 18 1 28 -19 46 -32 27 -32 27 -74 6z m46
-44 c-6 -17 -69 -54 -66 -38 4 17 39 48 56 49 8 0 12 -5 10 -11z"/>
<path d="M1090 9937 c-14 -7 -36 -35 -50 -64 -14 -28 -33 -54 -44 -56 -13 -4
-17 -11 -11 -24 12 -31 23 -197 18 -267 -5 -62 -4 -66 15 -66 28 0 33 23 34
133 l0 93 32 -4 c26 -3 40 3 68 30 47 44 58 113 29 180 -24 57 -46 68 -91 45z
m51 -58 c19 -36 6 -119 -22 -140 -21 -15 -24 -16 -35 -2 -7 10 -16 13 -24 8
-20 -13 -4 80 21 121 24 39 43 43 60 13z"/>
<path d="M1293 9889 c-73 -46 -71 -189 3 -189 40 0 63 12 57 28 -5 11 -2 14
10 9 21 -8 37 20 37 62 0 31 -22 61 -46 61 -8 0 -14 9 -14 19 0 29 -12 32 -47
10z m52 -83 c9 4 15 0 15 -7 0 -20 -12 -34 -39 -49 -30 -16 -44 2 -35 45 9 44
15 49 30 26 8 -11 21 -18 29 -15z"/>
<path d="M1498 9820 c-3 -68 2 -86 25 -77 19 7 28 58 14 76 -10 12 -9 13 1 7
10 -6 13 -1 10 20 -2 21 -9 30 -25 32 -19 3 -21 -2 -25 -58z"/>
<path d="M9802 11223 c1054 -2 2782 -2 3840 0 1058 1 195 2 -1917 2 -2112 0
-2977 -1 -1923 -2z"/>
<path d="M11390 11073 c-52 -59 -62 -95 -28 -101 11 -2 21 5 27 20 5 13 28 43
50 67 31 34 38 48 30 58 -18 20 -24 17 -79 -44z"/>
<path d="M11510 11084 c-40 -46 -65 -97 -57 -118 11 -27 24 -18 55 37 16 29
37 59 46 66 20 16 21 51 2 51 -8 0 -28 -16 -46 -36z"/>
<path d="M10347 11103 c-3 -5 -5 -24 -5 -44 0 -20 -7 -49 -15 -65 -8 -16 -24
-59 -36 -96 l-23 -68 -42 0 c-47 0 -83 -20 -71 -40 5 -8 22 -11 50 -8 l43 5
-25 -74 c-25 -74 -25 -103 1 -103 9 0 23 31 40 85 28 91 42 105 102 105 14 0
23 4 20 9 -4 5 0 11 6 14 24 8 -2 21 -37 19 -44 -3 -44 2 0 103 34 77 41 116
29 149 -6 17 -29 22 -37 9z"/>
<path d="M11907 11039 c-9 -6 -17 -16 -17 -24 0 -11 15 -14 68 -13 72 1 138
-19 148 -47 10 -26 -25 -139 -59 -191 -43 -64 -117 -114 -169 -114 -39 0 -40
0 -33 33 4 17 22 68 40 112 40 95 52 150 35 160 -15 9 -40 -13 -40 -36 0 -10
-17 -61 -37 -114 -25 -64 -42 -95 -53 -95 -9 0 -21 -5 -28 -12 -51 -51 73
-118 162 -88 50 16 131 82 163 133 32 51 63 146 63 194 0 53 -43 88 -122 101
-78 13 -99 13 -121 1z"/>
<path d="M9763 11029 c-6 -6 -9 -17 -7 -23 2 -6 -14 -56 -37 -111 -22 -55 -52
-133 -66 -173 -24 -68 -24 -75 -10 -90 20 -20 20 -21 45 58 11 36 41 114 66
174 50 118 61 168 36 173 -9 2 -21 -2 -27 -8z"/>
<path d="M12814 10895 c-8 -20 4 -35 26 -35 28 0 36 21 15 37 -24 17 -34 17
-41 -2z"/>
<path d="M13553 10864 c-8 -21 13 -42 28 -27 13 13 5 43 -11 43 -6 0 -13 -7
-17 -16z"/>
<path d="M9465 10856 c-16 -7 -53 -38 -81 -67 -48 -52 -51 -53 -66 -35 -22 29
-35 13 -40 -52 -3 -32 -16 -81 -28 -110 l-22 -52 -677 -2 -676 -3 668 -2 c367
-2 667 -6 667 -11 0 -4 -9 -22 -20 -40 -22 -36 -25 -58 -9 -67 15 -10 43 19
70 71 l24 44 1877 0 c1033 0 1878 -1 1878 -3 0 -2 -7 -24 -16 -50 -15 -44 -18
-47 -50 -47 -26 0 -44 -10 -78 -43 -81 -77 -67 -137 30 -137 51 0 81 24 90 69
4 18 14 31 26 35 16 4 19 10 14 28 -3 13 2 51 11 86 l18 62 519 0 519 0 -7
-37 c-3 -21 -6 -48 -6 -61 0 -17 -5 -22 -22 -21 -60 5 -89 -2 -123 -32 -29
-26 -35 -38 -35 -70 0 -91 46 -136 112 -108 35 14 85 86 94 136 6 30 10 33 41
33 47 0 125 20 143 36 23 22 -2 40 -37 26 -15 -6 -52 -12 -81 -15 -51 -4 -53
-3 -48 17 3 12 6 38 6 58 l0 38 713 3 712 2 -712 3 -711 2 5 38 c3 24 -3 59
-19 102 -27 76 -49 88 -76 41 -19 -33 -74 -67 -81 -50 -6 18 34 63 60 69 28 7
38 37 15 46 -63 24 -152 -113 -101 -156 18 -15 70 -4 108 22 16 11 29 19 31
17 12 -15 22 -70 18 -97 l-4 -32 -513 0 -513 0 5 83 c3 45 10 90 15 100 19 38
-24 51 -58 17 -10 -10 -25 -26 -32 -35 -18 -22 -64 -20 -60 3 2 11 15 19 38
22 27 4 35 10 35 25 0 17 -6 20 -39 18 -61 -4 -93 -43 -75 -91 13 -34 52 -44
100 -28 l41 14 -7 -56 c-4 -31 -9 -60 -12 -64 -2 -5 -848 -8 -1878 -8 l-1875
0 12 24 c9 20 16 24 38 19 103 -20 263 203 194 271 -18 19 -20 19 -59 2z m35
-49 c0 -30 -55 -119 -91 -148 -31 -24 -45 -29 -59 -23 -19 8 -18 12 17 64 34
52 104 120 124 120 5 0 9 -6 9 -13z m3474 -444 c-14 -62 -47 -87 -83 -64 -17
11 -2 41 36 70 40 29 55 27 47 -6z m1116 1 c0 -27 -48 -107 -70 -119 -33 -17
-46 -7 -56 43 -9 44 30 82 86 82 22 0 40 -3 40 -6z"/>
<path d="M12290 10849 c-14 -6 -42 -26 -62 -47 -33 -31 -38 -42 -38 -82 0 -25
6 -52 13 -61 32 -42 96 -51 137 -19 29 23 30 22 -32 25 -51 2 -78 18 -78 44 0
11 10 16 33 17 51 1 85 12 107 36 27 29 25 52 -6 77 -30 23 -38 24 -74 10z
m50 -47 c0 -5 -11 -18 -25 -30 -14 -12 -25 -17 -25 -12 0 6 -8 10 -17 10 -15
1 -14 4 6 20 23 20 61 27 61 12z"/>
<path d="M9905 10826 c-43 -18 -92 -78 -105 -127 -16 -57 8 -90 72 -102 56
-11 124 6 131 32 4 16 -1 18 -55 13 -69 -5 -108 3 -108 22 0 8 17 20 38 27 92
30 129 77 98 124 -19 28 -28 30 -71 11z m35 -45 c0 -11 -45 -41 -62 -41 -7 1
1 12 17 25 32 26 45 31 45 16z"/>
<path d="M12524 10815 c-15 -23 -15 -32 -4 -80 7 -29 10 -60 7 -69 -8 -21 -47
-21 -47 0 0 25 -35 12 -38 -16 -7 -48 55 -66 103 -28 27 21 27 23 21 100 l-6
78 25 0 c40 0 29 34 -12 38 -25 3 -35 -2 -49 -23z"/>
<path d="M8455 10813 c-39 -20 -103 -81 -121 -115 -35 -67 3 -128 79 -128 63
0 107 17 107 42 0 16 -4 19 -22 14 -61 -18 -93 -18 -117 1 -21 17 -22 22 -11
44 31 60 100 112 137 103 26 -7 37 20 17 41 -19 19 -31 18 -69 -2z"/>
<path d="M10474 10791 c-77 -47 -68 -170 13 -198 51 -18 155 7 152 35 -1 10 1
25 5 34 4 9 5 22 1 27 -9 16 -61 -14 -68 -39 -6 -22 -53 -28 -88 -10 -28 15
-23 27 14 34 71 13 129 90 95 124 -18 18 -89 14 -124 -7z m86 -30 c0 -14 -25
-31 -59 -41 -38 -11 -40 2 -5 29 27 21 64 28 64 12z"/>
<path d="M8972 10775 c-29 -24 -30 -24 -35 -5 -10 38 -34 20 -66 -49 -66 -143
-36 -168 60 -51 39 47 59 66 54 50 -13 -44 -11 -74 5 -77 8 -2 35 15 59 36 52
46 68 45 40 -3 -21 -35 -16 -69 8 -64 15 3 63 116 63 148 0 32 -30 31 -77 -2
-34 -23 -45 -27 -40 -14 8 21 -9 56 -28 56 -7 0 -27 -11 -43 -25z"/>
<path d="M8618 10763 c-70 -80 -60 -183 18 -183 71 0 115 43 117 114 1 46 -24
72 -78 81 -32 5 -44 2 -57 -12z m78 -43 c22 0 17 -49 -10 -80 -21 -25 -26 -27
-47 -16 -31 15 -34 34 -9 74 14 23 26 32 36 28 9 -3 22 -6 30 -6z"/>
<path d="M13217 10773 c-4 -3 -7 -14 -7 -24 0 -9 -13 -48 -28 -86 -16 -38 -26
-75 -24 -81 7 -22 29 -12 64 27 31 36 93 81 111 81 4 0 0 -16 -8 -36 -20 -47
-19 -54 5 -54 20 0 36 21 44 61 3 13 8 33 11 45 4 13 0 25 -9 34 -14 11 -25 8
-75 -16 -57 -29 -68 -25 -38 14 17 22 -26 56 -46 35z"/>
<path d="M13800 10773 c-8 -3 -31 -13 -50 -21 -19 -9 -46 -18 -59 -21 -16 -4
-27 -18 -38 -49 -8 -24 -12 -50 -9 -58 8 -22 36 -17 45 9 14 34 54 72 90 85
28 10 32 9 28 -2 -3 -8 -9 -31 -13 -50 -5 -32 -4 -36 14 -36 16 0 24 11 36 54
9 30 16 59 16 65 0 9 -33 33 -42 30 -2 0 -10 -3 -18 -6z"/>
<path d="M12730 10717 c0 -12 -9 -39 -20 -59 -17 -33 -18 -38 -4 -49 13 -11
19 -9 34 11 22 29 43 97 35 110 -3 6 -15 10 -26 10 -13 0 -19 -7 -19 -23z"/>
<path d="M13462 10678 c-30 -66 -31 -88 -3 -88 10 0 25 23 44 68 32 81 32 82
7 82 -15 0 -27 -16 -48 -62z"/>
<path d="M8953 10352 c-6 -4 -13 -29 -17 -57 -4 -27 -21 -117 -37 -198 -31
-154 -31 -187 2 -187 15 0 19 7 19 35 0 20 16 114 35 209 19 96 35 179 35 184
0 13 -24 22 -37 14z"/>
<path d="M11475 10328 c-2 -7 -16 -59 -31 -115 l-28 -102 -35 -3 c-48 -4 -50
-32 -3 -36 33 -3 34 -4 27 -45 -4 -23 -13 -57 -21 -76 -18 -44 -18 -51 6 -51
25 0 38 26 54 103 l13 62 41 -3 c47 -4 82 11 82 35 0 13 -10 15 -60 11 -51 -4
-59 -2 -55 11 2 9 11 41 19 71 8 30 19 70 25 89 8 25 7 38 0 48 -14 16 -28 17
-34 1z"/>
<path d="M8585 10302 c-171 -77 -276 -180 -258 -253 18 -74 120 -117 298 -126
108 -6 111 -5 112 16 1 17 -4 21 -30 21 -123 2 -273 31 -312 62 -39 30 -32 62
25 123 69 72 222 151 275 141 28 -6 37 -3 42 10 16 41 -67 45 -152 6z"/>
<path d="M11646 10298 c-3 -13 -8 -41 -11 -63 -8 -56 -56 -228 -66 -239 -13
-14 -11 -54 2 -62 7 -4 40 23 80 65 81 84 105 92 96 29 -4 -24 -9 -55 -13 -70
-5 -21 -2 -29 10 -34 22 -9 25 -5 41 58 17 64 8 108 -24 124 -29 15 -50 9 -86
-22 -15 -13 -30 -23 -31 -21 -2 1 5 36 16 77 27 107 30 173 8 178 -12 2 -19
-4 -22 -20z"/>
<path d="M13291 10302 c-57 -29 -76 -64 -76 -140 0 -55 6 -80 35 -141 l34 -73
-23 -19 c-28 -23 -41 -23 -87 -4 -29 12 -34 19 -32 42 4 37 -27 44 -43 9 -35
-77 118 -141 190 -80 38 32 40 67 7 132 -38 74 -48 126 -36 172 13 48 42 70
93 70 49 0 73 -13 92 -50 16 -30 44 -41 46 -17 4 41 -26 81 -78 103 -43 19
-81 18 -122 -4z"/>
<path d="M11230 10242 c0 -25 7 -31 31 -25 29 8 25 43 -6 43 -18 0 -25 -5 -25
-18z"/>
<path d="M14116 10164 c-3 -9 -6 -30 -6 -48 0 -18 -4 -36 -9 -41 -16 -18 -52
-144 -49 -172 2 -20 9 -28 23 -28 16 0 20 7 22 35 1 19 16 74 33 122 36 104
39 148 11 148 -10 0 -22 -7 -25 -16z"/>
<path d="M9257 10136 c-15 -14 -27 -30 -27 -35 0 -6 16 -29 36 -51 33 -36 36
-43 26 -65 -15 -32 -46 -32 -60 0 -12 26 -52 35 -52 13 0 -27 39 -76 65 -82
35 -9 72 15 89 56 17 39 11 59 -25 94 -16 15 -29 31 -29 35 0 4 14 12 31 18
36 12 34 35 -2 39 -16 2 -35 -6 -52 -22z"/>
<path d="M9427 10143 c-13 -12 -7 -48 13 -78 24 -36 26 -78 5 -95 -19 -16 -47
-5 -43 17 5 32 -10 44 -32 25 -26 -22 -25 -34 6 -71 39 -46 89 -38 119 19 20
38 19 58 -4 103 -18 36 -18 37 0 37 21 0 25 20 7 38 -13 13 -60 16 -71 5z"/>
<path d="M9882 10142 c-12 -2 -27 -13 -33 -24 -9 -16 -4 -30 26 -79 34 -55 38
-79 14 -79 -6 0 -15 14 -20 30 -13 35 -35 39 -44 10 -14 -43 57 -106 93 -84 9
6 22 24 29 41 11 28 9 35 -22 88 l-34 56 54 -6 c50 -7 55 -6 55 13 0 15 -10
21 -47 28 -27 5 -58 8 -71 6z"/>
<path d="M10815 10124 c-28 -15 -61 -30 -75 -34 -31 -8 -35 -45 -5 -46 25 0
90 31 115 56 36 36 30 2 -11 -64 -22 -36 -39 -73 -37 -83 5 -29 37 -27 76 4
75 60 102 66 102 24 0 -63 46 -61 95 3 21 27 26 44 23 78 -2 35 -7 43 -23 43
-16 0 -20 -7 -20 -36 -1 -20 -7 -44 -14 -53 -13 -15 -15 -15 -25 6 -14 29 -52
34 -100 14 l-35 -15 25 39 c54 81 4 115 -91 64z"/>
<path d="M9634 10105 c-57 -61 -57 -131 -1 -166 52 -31 138 -22 124 14 -4 12
-15 14 -39 11 -24 -4 -40 0 -61 16 -36 29 -34 35 12 35 21 1 46 7 55 14 34 28
7 111 -36 111 -11 0 -36 -16 -54 -35z m56 -29 c0 -8 -7 -16 -15 -20 -15 -5
-21 14 -8 27 11 12 23 8 23 -7z"/>
<path d="M12255 10108 c-70 -57 -85 -88 -55 -118 18 -18 22 -18 62 -4 23 8 50
22 60 31 17 15 18 14 18 -34 0 -63 25 -92 68 -77 39 14 38 50 -2 46 l-28 -3 7
47 c3 25 9 52 11 58 6 17 -60 86 -83 86 -10 0 -36 -15 -58 -32z m75 -25 c0
-10 -59 -50 -85 -58 -14 -5 -8 5 17 29 34 33 68 47 68 29z"/>
<path d="M9070 10109 c-47 -19 -80 -60 -80 -100 0 -44 20 -56 61 -35 27 13 28
13 34 -15 4 -16 11 -30 16 -30 31 -6 34 -2 35 41 0 25 4 59 8 76 7 26 4 36
-13 53 -23 23 -26 24 -61 10z m25 -49 c-3 -5 -19 -19 -36 -31 -31 -22 -31 -22
-20 -1 11 21 38 41 54 42 5 0 6 -4 2 -10z"/>
<path d="M13524 10095 c-8 -20 4 -35 26 -35 25 0 35 17 20 35 -16 19 -39 19
-46 0z"/>
<path d="M11194 10092 c-5 -4 -15 -32 -22 -62 -7 -30 -15 -66 -19 -78 -5 -20
-2 -23 13 -20 24 4 46 51 52 109 4 46 -4 64 -24 51z"/>
<path d="M14285 10057 c-66 -39 -85 -61 -85 -98 0 -28 6 -42 22 -53 27 -19
113 -21 147 -3 41 21 24 32 -43 29 -41 -2 -66 1 -71 8 -10 16 -3 20 46 31 66
15 83 37 57 71 -18 23 -50 29 -73 15z"/>
<path d="M13571 10015 c-22 -24 -41 -51 -41 -59 0 -33 24 -26 65 20 38 44 44
47 59 35 12 -10 15 -22 11 -39 -8 -31 12 -57 31 -41 23 19 17 82 -9 107 -37
35 -69 28 -116 -23z"/>
<path d="M13799 10021 c-16 -16 -29 -36 -29 -45 0 -43 74 -61 119 -29 23 15
25 15 38 -3 8 -10 13 -35 11 -54 l-3 -35 -3030 -5 -3030 -5 3028 -3 c2414 -1
3027 -5 3027 -14 0 -7 -4 -20 -9 -28 -8 -12 -17 -12 -64 3 -87 27 -118 22
-135 -23 -20 -57 26 -126 91 -137 43 -7 100 24 122 67 10 19 24 30 42 32 33 4
38 32 7 36 -17 2 -20 8 -16 32 l4 30 802 2 801 3 -797 2 -798 3 0 46 c0 94
-66 148 -115 94 -20 -22 -49 -27 -43 -7 3 6 13 14 24 16 25 4 35 22 22 38 -17
20 -37 15 -69 -16z m54 -262 c26 -7 47 -16 47 -20 0 -4 -14 -19 -31 -33 -35
-30 -62 -28 -91 6 -29 33 -21 74 12 65 8 -3 36 -11 63 -18z"/>
<path d="M13446 9992 c-8 -14 -11 -81 -3 -88 21 -22 60 57 42 86 -8 12 -32 13
-39 2z"/>
<path d="M8595 9792 c-33 -20 -125 -118 -125 -133 0 -5 -8 -4 -19 2 -24 16
-55 4 -47 -17 4 -9 3 -38 0 -65 -6 -42 -9 -48 -33 -51 -33 -4 -36 -39 -5 -48
l22 -5 -29 -95 c-31 -100 -31 -120 0 -120 21 0 40 46 62 148 6 28 13 52 16 52
6 0 23 -20 50 -58 9 -12 18 -48 22 -80 4 -42 10 -58 23 -60 41 -8 27 119 -21
185 l-28 39 48 17 c129 46 229 182 194 264 -20 47 -76 58 -130 25z m83 -34
c28 -28 -4 -106 -67 -160 -38 -32 -136 -76 -147 -65 -9 8 54 124 88 163 33 38
84 74 104 74 5 0 15 -5 22 -12z"/>
<path d="M10983 9723 c-9 -3 -11 -18 -7 -47 5 -31 1 -54 -14 -87 -80 -177
-136 -320 -145 -370 l-12 -59 -190 0 -190 0 32 25 c63 50 92 127 57 156 -8 7
-31 13 -50 13 -26 1 -33 4 -28 16 4 8 28 75 55 149 27 74 56 139 65 145 14 11
13 14 -5 36 -14 18 -23 22 -31 14 -6 -6 -32 -73 -59 -150 -26 -77 -68 -183
-93 -236 -40 -83 -45 -102 -38 -132 l8 -36 -589 0 c-324 0 -589 4 -589 8 0 5
5 33 11 63 11 54 11 55 44 51 58 -7 136 80 129 143 -2 16 -11 35 -20 42 -42
31 -129 1 -157 -54 -12 -22 -36 -133 -52 -233 -2 -13 -80 -16 -616 -20 l-614
-5 609 -3 608 -2 -6 -27 c-20 -87 -20 -93 1 -93 19 0 34 29 59 108 3 9 177 12
829 12 727 0 825 -2 825 -15 0 -8 9 -15 20 -15 11 0 23 7 26 15 5 13 46 15
285 15 153 0 279 -3 279 -7 0 -3 -6 -14 -14 -22 -26 -31 -125 -203 -142 -247
-9 -24 -14 -50 -10 -59 10 -27 40 -13 47 22 8 39 31 85 98 193 76 123 73 120
153 120 54 0 68 -3 68 -15 0 -8 8 -15 19 -15 10 0 24 7 31 15 11 13 178 15
1391 15 759 0 1379 -3 1379 -6 0 -4 -27 -35 -60 -71 -63 -67 -70 -80 -45 -89
9 -4 43 24 96 80 l81 86 527 2 526 3 -519 5 c-463 4 -517 7 -501 20 38 31 155
199 149 215 -12 30 -33 14 -84 -62 -29 -43 -73 -99 -98 -125 l-46 -48 -1378 0
-1379 0 22 29 c23 31 20 61 -6 61 -8 0 -20 -11 -26 -24 -6 -13 -24 -34 -40
-45 -25 -18 -41 -21 -99 -19 l-69 3 80 98 c76 92 92 127 57 127 -7 0 -41 -36
-76 -80 -35 -44 -68 -78 -73 -74 -5 3 -19 26 -31 50 -21 47 -50 69 -74 60 -20
-8 -17 -34 5 -45 10 -6 29 -31 41 -56 12 -25 26 -45 31 -45 6 0 5 -8 -1 -20
-10 -19 -21 -20 -305 -20 -238 0 -295 3 -295 13 0 31 37 133 106 293 41 95 74
180 74 190 -1 50 -19 77 -47 67z m-1679 -309 c5 -14 -63 -94 -80 -94 -46 1
-30 84 20 105 33 14 52 11 60 -11z m1186 -111 c0 -23 -86 -113 -107 -113 -2 0
-3 14 -3 31 0 39 48 89 84 89 14 0 26 -3 26 -7z"/>
<path d="M11352 9701 c-6 -4 -23 -45 -37 -92 -52 -174 -61 -192 -109 -212 -64
-26 -72 -68 -10 -53 l25 7 -26 -52 c-27 -53 -30 -94 -7 -94 8 0 30 36 50 80
20 44 38 82 40 85 2 3 26 4 54 3 58 -3 90 10 82 32 -5 11 -22 15 -60 15 -30 0
-54 2 -54 4 0 3 5 17 11 33 6 15 26 74 44 130 24 76 30 105 21 112 -6 6 -17 6
-24 2z"/>
<path d="M11892 9648 c-7 -7 -12 -22 -12 -34 0 -12 -12 -33 -27 -48 -23 -23
-25 -30 -15 -51 6 -14 16 -25 22 -25 15 0 72 125 68 146 -4 22 -20 28 -36 12z"/>
<path d="M11946 9600 c-18 -32 -25 -57 -21 -71 10 -31 35 -19 50 24 7 21 21
47 30 57 19 21 13 40 -14 40 -11 0 -28 -19 -45 -50z"/>
<path d="M14293 9638 c-6 -7 -13 -41 -17 -76 -3 -35 -18 -91 -32 -125 -14 -34
-27 -71 -28 -82 -2 -11 -7 -20 -13 -20 -12 0 -83 -69 -83 -80 0 -4 9 -20 21
-36 25 -36 74 -39 146 -9 53 23 73 43 73 75 0 27 -50 75 -78 75 -22 0 -22 1
-7 31 9 17 14 37 11 44 -3 8 -1 15 5 17 5 2 12 16 15 32 3 16 7 33 10 38 3 5
0 15 -6 23 -10 12 -10 15 0 15 7 0 10 8 7 20 -3 11 -1 20 4 20 14 0 11 26 -5
39 -10 8 -16 8 -23 -1z m9 -340 l21 -21 -34 -17 c-19 -10 -49 -21 -66 -25 -29
-6 -33 -4 -33 14 0 12 15 30 37 46 46 30 48 30 75 3z"/>
<path d="M13655 9631 c-90 -16 -166 -80 -129 -108 15 -11 11 -22 -30 -110 -25
-54 -52 -105 -60 -115 -13 -15 -13 -20 3 -39 20 -25 36 -20 45 14 3 13 20 54
37 91 31 66 32 67 63 60 73 -15 156 -81 156 -122 0 -10 -9 -34 -20 -55 -25
-46 -25 -67 -2 -67 25 0 62 76 62 125 0 32 -8 45 -48 86 -46 45 -47 48 -25 54
29 7 121 61 151 88 29 27 28 62 -2 82 -27 18 -141 27 -201 16z m173 -50 c18
-11 -19 -40 -97 -78 -66 -32 -175 -42 -185 -17 -4 9 1 14 15 14 20 0 26 8 31
45 2 11 16 25 33 32 35 13 184 17 203 4z"/>
<path d="M10235 9610 c-12 -19 15 -80 35 -80 29 0 32 16 9 54 -22 37 -33 44
-44 26z"/>
<path d="M12782 9588 c-19 -19 -15 -58 6 -58 15 0 42 40 42 62 0 12 -35 9 -48
-4z"/>
<path d="M11107 9483 c-10 -9 -8 -41 2 -48 5 -3 17 2 26 11 12 12 13 19 4 30
-13 15 -22 18 -32 7z"/>
<path d="M9996 9455 c-72 -25 -106 -49 -106 -72 0 -8 20 -34 45 -59 49 -47 54
-59 29 -68 -30 -11 -45 -6 -54 20 -7 18 -15 24 -26 20 -9 -3 -18 -6 -20 -6 -2
0 -4 -9 -4 -19 0 -31 56 -72 88 -65 84 20 97 74 32 135 -22 21 -40 40 -40 42
0 3 28 15 61 27 51 19 65 21 81 11 15 -9 23 -9 33 -1 18 15 10 35 -21 49 -30
13 -16 15 -98 -14z"/>
<path d="M8714 9451 c-58 -35 -65 -110 -16 -154 24 -22 102 -36 102 -18 0 6 7
11 15 11 8 0 12 6 9 14 -4 10 -19 14 -45 13 -25 -1 -45 5 -56 16 -16 16 -16
17 11 17 42 0 96 37 96 65 0 27 -16 42 -23 23 -3 -7 -6 -3 -6 10 -1 29 -43 30
-87 3z m61 -31 c7 -11 -35 -31 -49 -22 -5 2 2 11 15 18 29 16 27 16 34 4z"/>
<path d="M8934 9447 c-25 -22 -27 -28 -19 -53 6 -16 25 -39 44 -51 19 -13 27
-23 19 -23 -7 0 -19 5 -25 11 -16 16 -43 3 -43 -20 0 -44 82 -51 131 -12 21
16 22 21 9 36 -7 9 -31 25 -52 36 -44 23 -48 41 -12 58 14 6 24 17 22 24 -8
22 -45 19 -74 -6z"/>
<path d="M9685 9431 c-19 -4 -31 -13 -34 -26 -2 -11 -21 -42 -42 -69 -43 -53
-48 -73 -22 -83 12 -5 28 6 55 37 21 23 38 48 38 56 0 17 50 55 62 48 6 -4 8
-29 4 -63 -13 -105 -12 -106 8 -106 24 0 50 93 41 148 -11 62 -34 75 -110 58z"/>
<path d="M12660 9373 c-45 -114 -49 -128 -38 -140 12 -14 38 -6 38 13 0 7 16
47 35 90 36 78 37 94 6 94 -13 0 -25 -17 -41 -57z"/>
<path d="M12897 9418 c-15 -5 -25 -14 -22 -18 3 -5 0 -12 -6 -16 -8 -4 -9 -3
-5 4 10 16 -3 14 -38 -6 -46 -28 -87 -164 -44 -150 6 2 23 25 37 50 41 71 54
85 89 93 l33 7 -25 -50 c-20 -39 -23 -52 -13 -60 17 -15 31 -4 56 45 29 58 28
91 -5 103 -14 6 -26 10 -27 9 -1 0 -14 -5 -30 -11z"/>
<path d="M9409 9379 c-33 -33 -40 -46 -37 -72 3 -32 3 -32 58 -31 98 2 148 46
102 91 -11 10 -22 26 -25 36 -11 30 -54 20 -98 -24z m80 -33 c10 -12 5 -16
-24 -26 -47 -16 -60 -9 -35 18 24 25 43 28 59 8z"/>
<path d="M10654 9395 c-9 -21 3 -45 21 -45 21 0 30 27 15 45 -16 19 -29 19
-36 0z"/>
<path d="M13902 9403 c-19 -7 -52 -83 -52 -121 0 -39 46 -92 80 -92 70 0 144
76 144 149 1 40 -2 46 -19 46 -16 0 -20 -7 -22 -39 -3 -46 -53 -106 -89 -106
-55 0 -67 67 -21 118 18 19 19 24 6 36 -8 7 -20 11 -27 9z"/>
<path d="M14469 9378 c-10 -35 -34 -168 -31 -176 2 -7 11 -12 21 -12 14 0 21
17 34 86 9 47 14 90 11 95 -5 8 -33 13 -35 7z"/>
<path d="M10121 9296 c-13 -23 -21 -48 -17 -55 10 -16 46 -14 46 4 0 8 9 29
19 47 22 34 19 48 -7 48 -10 0 -27 -18 -41 -44z"/>
<path d="M11001 9281 c-33 -41 -40 -75 -17 -84 15 -6 36 11 36 29 0 6 9 23 20
37 19 23 18 57 0 57 -5 0 -22 -18 -39 -39z"/>
<path d="M10601 9253 c-16 -55 -14 -73 8 -73 14 0 22 12 30 44 15 60 14 66 -9
66 -14 0 -22 -11 -29 -37z"/>
<path d="M14784 9276 c-8 -22 3 -49 19 -43 6 2 11 11 11 20 -1 9 3 14 8 11 6
-4 9 -1 6 7 -7 20 -37 23 -44 5z"/>
<path d="M9260 9026 c-66 -20 -162 -65 -187 -89 -26 -24 -30 -57 -8 -57 9 0
26 11 38 24 65 69 260 108 350 68 63 -28 83 -60 67 -108 -25 -75 -122 -140
-223 -148 -17 -2 -42 -6 -55 -10 -21 -7 -22 -5 -16 21 4 15 13 46 20 67 15 45
11 56 -17 56 -23 0 -20 8 -53 -140 -37 -168 -40 -194 -22 -209 24 -20 33 -6
39 65 4 37 10 71 15 76 5 5 31 11 59 15 47 5 52 4 68 -21 16 -24 16 -35 6 -97
-12 -73 -4 -109 23 -109 10 0 16 26 21 100 6 83 4 104 -9 125 -16 24 -16 24
43 50 33 15 70 39 84 53 37 40 67 102 67 139 0 41 -46 95 -98 116 -56 22 -159
29 -212 13z"/>
<path d="M14815 8980 c-34 -14 -60 -51 -128 -182 -86 -167 -94 -178 -123 -178
-30 0 -43 -28 -22 -44 10 -7 13 -18 8 -31 -9 -24 5 -55 25 -55 13 0 19 23 18
67 -1 7 3 10 8 7 5 -3 9 -1 9 4 0 5 23 12 50 14 57 6 65 10 57 33 -4 9 -19 15
-37 15 l-31 0 70 138 c39 76 80 147 92 158 20 18 52 21 124 12 14 -2 20 3 20
17 0 14 -6 20 -22 19 -13 0 -23 3 -23 8 0 10 -69 9 -95 -2z"/>
<path d="M9807 8913 c-2 -4 -8 -26 -12 -48 -9 -44 -9 -44 -18 -65 -3 -8 -13
-45 -21 -82 -9 -37 -27 -95 -41 -129 -38 -95 -30 -133 30 -145 92 -17 174 72
140 153 -14 34 -17 35 -60 31 -25 -2 -45 -1 -45 2 0 3 9 38 19 78 11 39 17 72
14 72 -3 0 0 7 7 15 16 19 19 117 3 122 -6 2 -13 0 -16 -4z m41 -352 c4 -26
-11 -47 -49 -67 -57 -29 -80 13 -31 58 46 43 75 46 80 9z"/>
<path d="M13221 8845 c-12 -31 -21 -67 -21 -80 0 -13 -4 -27 -10 -30 -5 -3
-10 -14 -10 -24 0 -23 -51 -101 -67 -101 -20 0 -24 -18 -13 -60 11 -40 11 -40
58 -40 106 0 159 88 91 151 l-31 29 31 94 c36 111 37 116 12 116 -15 0 -25
-15 -40 -55z m14 -232 c4 -12 -2 -25 -20 -40 -28 -25 -75 -33 -58 -10 5 6 17
24 26 40 20 31 42 35 52 10z"/>
<path d="M14209 8863 c-5 -16 -21 -57 -34 -93 -13 -36 -27 -77 -31 -92 -5 -25
-11 -28 -46 -28 -32 0 -39 -3 -36 -17 2 -11 14 -19 31 -21 24 -3 26 -6 21 -30
-4 -15 -10 -34 -15 -43 -10 -19 -2 -29 22 -29 14 0 23 14 34 53 l15 52 80 15
80 16 -7 -41 c-3 -22 -13 -48 -21 -58 -14 -16 -14 -19 -2 -27 21 -13 25 -13
44 9 9 10 21 45 26 77 9 51 8 61 -7 72 -21 15 -32 15 -110 -2 -35 -7 -63 -10
-63 -5 0 4 16 52 35 106 26 73 32 99 22 105 -20 13 -27 9 -38 -19z"/>
<path d="M15272 8878 c-7 -7 -12 -18 -12 -25 0 -7 -24 -62 -54 -122 -62 -122
-91 -217 -74 -238 17 -21 35 2 47 59 6 27 41 110 77 183 37 73 63 138 60 144
-9 14 -29 14 -44 -1z"/>
<path d="M14449 8840 c-3 -20 -4 -25 -13 -38 -4 -7 -5 -19 -2 -27 6 -16 36
-21 36 -6 0 5 9 13 20 16 25 8 26 27 2 48 -21 19 -41 22 -43 7z"/>
<path d="M11540 8815 c-10 -12 -10 -18 0 -30 16 -19 39 -19 46 0 6 15 -11 45
-26 45 -4 0 -13 -7 -20 -15z"/>
<path d="M13415 8711 c-43 -26 -113 -105 -121 -135 -9 -38 3 -74 28 -82 26 -8
105 -7 118 1 6 4 10 13 10 21 0 10 -14 14 -54 14 -62 0 -71 8 -55 44 9 20 15
23 25 15 23 -19 144 66 144 101 0 41 -46 51 -95 21z m45 -25 c0 -2 -8 -10 -17
-17 -16 -13 -17 -12 -4 4 13 16 21 21 21 13z"/>
<path d="M11628 8703 c-24 -27 -29 -57 -19 -102 11 -51 1 -58 -37 -26 -31 26
-62 25 -62 -1 0 -16 64 -60 102 -69 38 -10 52 21 44 97 -6 49 -4 64 9 78 18
20 13 40 -9 40 -7 0 -20 -8 -28 -17z"/>
<path d="M12365 8678 c-40 -22 -85 -72 -85 -95 0 -19 5 -23 33 -23 18 0 42 7
53 15 28 21 31 19 26 -17 -7 -45 23 -95 60 -104 17 -3 35 -1 40 4 16 16 2 42
-21 42 -38 0 -44 34 -21 103 20 58 21 62 4 74 -22 16 -62 16 -89 1z"/>
<path d="M14907 8684 c-3 -4 -3 -35 0 -69 l6 -63 -42 -21 c-22 -12 -41 -20
-41 -17 0 2 7 23 15 46 20 56 19 70 -4 70 -14 0 -24 -13 -35 -47 -35 -103 -5
-138 83 -94 52 27 60 40 67 110 6 53 4 64 -12 76 -21 16 -28 18 -37 9z"/>
<path d="M13581 8645 c-43 -39 -52 -60 -40 -93 6 -16 17 -22 38 -22 16 0 33 5
37 11 4 7 12 -1 20 -20 8 -20 20 -31 33 -31 27 0 34 15 19 39 -10 17 -10 26 5
50 13 22 15 35 8 48 -5 10 -12 26 -15 36 -9 30 -61 21 -105 -18z m69 -30 c-15
-18 -70 -46 -70 -36 0 4 10 17 23 28 36 33 73 40 47 8z"/>
<path d="M10020 8655 c-28 -33 -2 -143 38 -164 20 -10 17 -16 -45 -108 -54
-78 -67 -104 -67 -137 -1 -34 2 -41 19 -41 15 0 20 7 21 31 2 32 31 85 98 174
23 30 59 83 80 118 21 34 49 75 62 91 20 24 21 31 10 40 -21 18 -39 5 -75 -55
-34 -58 -77 -86 -93 -62 -16 26 -21 80 -8 88 16 10 6 40 -13 40 -8 0 -20 -7
-27 -15z"/>
<path d="M13803 8628 c-38 -54 -46 -79 -34 -111 14 -36 58 -43 114 -19 48 21
80 73 58 95 -8 8 -19 2 -45 -26 -22 -25 -42 -37 -60 -37 -36 0 -34 26 5 73 30
37 33 67 6 67 -7 0 -27 -19 -44 -42z"/>
<path d="M9485 8648 c-25 -79 -24 -165 2 -175 21 -8 71 17 99 50 31 37 31 92
-1 92 -15 0 -20 -7 -20 -29 -1 -18 -10 -36 -25 -48 -30 -24 -34 -14 -22 54 6
29 8 56 5 60 -7 13 -33 9 -38 -4z"/>
<path d="M11407 8596 c-32 -72 -33 -111 -2 -111 14 0 20 7 21 25 1 14 11 44
22 67 27 52 28 83 5 83 -12 0 -27 -21 -46 -64z"/>
<path d="M11279 8372 c-144 -95 -305 -362 -327 -542 l-7 -55 -200 -3 -200 -2
-3 49 c-2 27 -7 63 -12 81 -5 17 -7 37 -4 44 3 7 -2 18 -10 25 -12 10 -19 8
-37 -13 -23 -26 -85 -53 -97 -42 -3 4 7 17 23 30 30 24 28 46 -5 46 -27 0 -72
-58 -68 -88 6 -50 36 -52 139 -8 13 6 18 0 23 -28 4 -19 12 -37 19 -39 9 -4 9
-6 0 -6 -7 -1 -13 -12 -13 -26 l0 -25 -621 0 c-564 0 -621 1 -615 16 3 9 9 27
12 41 5 18 9 21 15 11 7 -10 15 -9 45 7 58 31 91 68 104 114 20 75 -13 115
-70 86 -16 -9 -30 -20 -30 -26 0 -6 -4 -7 -10 -4 -5 3 -10 -1 -10 -10 0 -9 -4
-14 -9 -11 -11 7 -67 -79 -77 -119 -4 -16 -15 -47 -26 -67 l-18 -38 -653 -3
-652 -2 652 -3 652 -2 -19 -42 c-27 -60 -26 -90 2 -86 15 2 31 21 52 65 l31
63 623 0 c565 0 622 -1 622 -16 0 -16 -21 -16 -97 3 -32 7 -83 -45 -83 -86 0
-35 39 -71 77 -71 33 0 84 23 108 49 15 18 26 21 55 16 43 -6 66 6 56 31 -6
16 -8 16 -16 4 -7 -10 -10 -11 -10 -2 0 6 -11 12 -25 12 -25 0 -31 13 -19 44
5 14 32 16 200 16 107 0 194 -2 194 -4 0 -2 4 -27 10 -55 12 -66 52 -134 99
-169 20 -15 45 -35 55 -44 22 -20 32 -22 41 -8 9 15 -6 35 -56 74 -53 40 -99
121 -99 173 l0 33 524 0 525 0 -9 -31 c-14 -48 -28 -59 -75 -59 -35 0 -48 -5
-64 -26 -25 -32 -26 -38 -5 -58 22 -22 45 -20 88 9 20 14 45 25 54 25 10 0 25
9 35 20 20 24 22 34 4 27 -10 -4 -9 6 3 44 l15 49 959 0 c870 0 960 -1 971
-16 10 -15 13 -15 27 0 14 14 47 16 227 16 120 0 211 -4 211 -9 0 -9 -53 -78
-102 -132 -73 -82 -382 -269 -445 -269 -27 0 -31 -27 -6 -37 28 -11 112 26
263 116 157 93 245 171 310 274 l35 56 515 3 515 3 -507 2 c-280 2 -508 4
-508 6 0 1 9 31 20 65 34 108 23 195 -40 329 -48 100 -53 123 -29 123 12 0 19
7 19 20 0 12 -7 20 -17 20 -9 0 -27 10 -40 22 -16 15 -26 19 -34 11 -13 -13
21 -134 61 -213 44 -89 63 -179 51 -247 -6 -31 -19 -72 -28 -92 l-18 -36 -223
-3 -224 -2 7 32 c4 18 23 80 41 138 63 202 91 415 55 415 -11 0 -18 -24 -28
-90 -17 -118 -36 -204 -79 -343 -19 -62 -34 -122 -34 -133 0 -19 -16 -19 -965
-19 l-965 0 -1 33 c-2 68 -9 121 -18 130 -4 4 -25 -3 -46 -17 -43 -29 -65 -33
-65 -11 0 10 10 15 31 15 20 0 28 4 23 12 -4 7 -3 8 4 4 7 -4 12 -3 12 3 0 16
-38 33 -68 29 -53 -6 -66 -97 -17 -120 16 -7 32 -5 60 6 20 9 39 16 41 16 2 0
4 -22 4 -50 l0 -50 -526 0 -527 0 6 49 c14 115 119 329 211 429 59 64 116 104
131 92 16 -13 38 12 29 34 -8 21 -52 21 -85 -2z m-1886 -414 c-9 -16 -34 -43
-57 -60 -34 -25 -42 -27 -44 -13 -5 21 33 75 71 103 38 26 51 13 30 -30z
m1085 -272 c16 -17 -58 -57 -89 -49 -24 7 -32 32 -17 50 9 11 24 14 57 9 24
-3 46 -8 49 -10z"/>
<path d="M12346 8278 c-18 -28 -43 -87 -51 -119 -21 -93 -75 -291 -85 -309 -8
-15 -9 -25 -2 -32 18 -18 39 -1 68 53 29 52 98 118 111 106 3 -4 -2 -33 -11
-65 -21 -69 -19 -97 9 -97 14 0 20 7 21 25 1 14 9 51 18 82 27 90 6 121 -62
93 -20 -9 -45 -23 -56 -33 -18 -16 -19 -16 -13 1 4 10 14 46 22 80 19 74 54
177 68 194 11 15 3 43 -12 43 -6 0 -17 -10 -25 -22z"/>
<path d="M13006 8266 c-20 -31 -20 -40 -2 -55 11 -9 18 -6 35 15 12 15 20 35
19 43 -5 26 -34 24 -52 -3z"/>
<path d="M11559 8258 c-1 -2 -2 -28 -4 -58 -2 -36 -17 -89 -45 -155 -75 -183
-76 -183 -61 -197 10 -11 22 -3 62 40 27 29 49 51 49 48 0 -3 21 8 47 25 26
16 49 25 51 20 2 -5 -4 -33 -12 -61 -17 -57 -13 -80 15 -80 13 0 19 7 19 23 0
12 7 44 15 70 18 61 7 97 -30 97 -30 0 -81 -24 -112 -53 -27 -24 -28 -19 -8
30 18 43 19 57 3 47 -7 -4 -8 -3 -4 5 4 6 11 9 15 7 11 -7 41 93 41 135 0 33
-14 59 -32 59 -4 0 -8 -1 -9 -2z"/>
<path d="M9193 8194 c-10 -26 22 -50 54 -38 38 13 39 30 2 43 -42 15 -48 14
-56 -5z"/>
<path d="M9600 8143 c-17 -26 -30 -53 -30 -60 0 -8 -12 -13 -30 -13 -23 0 -30
-5 -30 -19 0 -10 9 -21 20 -24 14 -4 18 -11 13 -28 -21 -86 -11 -137 30 -164
23 -14 28 -14 66 1 47 19 55 51 11 46 -14 -1 -34 -4 -45 -5 -17 -2 -21 5 -23
38 -2 21 -1 54 3 72 5 30 9 33 43 33 45 0 67 13 59 34 -4 11 -19 16 -42 16
l-36 0 15 28 c8 15 26 37 40 49 34 30 33 43 -4 43 -25 0 -35 -8 -60 -47z"/>
<path d="M13004 8173 c5 -9 1 -13 -11 -13 -33 0 -123 -202 -123 -275 0 -33 15
-55 38 -55 11 0 13 8 9 28 -9 44 10 109 60 210 36 75 43 96 33 105 -10 9 -11
9 -6 0z"/>
<path d="M11844 8116 c-9 -23 13 -45 37 -39 14 4 19 12 17 27 -4 26 -45 35
-54 12z"/>
<path d="M9946 8104 c-4 -9 -1 -23 6 -31 11 -13 15 -12 30 7 10 12 15 26 12
31 -9 15 -41 10 -48 -7z"/>
<path d="M8515 8080 c-3 -5 -12 -7 -19 -4 -20 8 -73 -22 -91 -50 -19 -28 -9
-60 29 -95 33 -31 33 -44 0 -70 -37 -29 -46 -26 -42 12 2 26 -1 32 -16 32 -28
0 -40 -52 -20 -82 40 -63 171 21 144 92 -4 11 -20 31 -34 44 -14 14 -26 30
-26 37 0 22 59 46 95 40 43 -8 56 11 25 36 -25 20 -36 22 -45 8z"/>
<path d="M13150 8064 c-17 -15 -38 -40 -47 -58 -9 -17 -22 -35 -29 -39 -15 -8
-19 -37 -6 -37 4 0 13 -13 19 -30 17 -46 70 -60 146 -39 28 7 37 15 35 27 -3
14 -14 16 -69 14 -60 -4 -67 -2 -72 17 -3 12 -1 21 4 21 5 0 9 8 10 18 0 10 3
12 6 5 7 -18 98 30 120 63 16 26 16 27 -6 45 -32 26 -74 24 -111 -7z m69 -28
c-2 -2 -20 -11 -39 -21 l-35 -18 19 22 c11 11 28 21 39 21 11 0 18 -2 16 -4z"/>
<path d="M13724 8080 c-27 -11 -60 -53 -76 -96 -6 -19 -20 -36 -30 -40 -24 -7
-23 -35 1 -41 11 -3 21 -17 24 -33 10 -46 73 -58 131 -24 25 15 14 50 -12 38
-9 -4 -30 -8 -47 -8 -26 -1 -30 3 -33 30 -2 25 3 35 25 49 74 47 101 93 71
123 -14 14 -24 14 -54 2z m16 -44 c0 -2 -8 -10 -17 -17 -16 -13 -17 -12 -4 4
13 16 21 21 21 13z"/>
<path d="M13500 8040 c0 -11 5 -20 10 -20 9 0 -40 -102 -60 -123 -8 -9 -15 14
-26 86 -6 48 -26 69 -45 50 -9 -9 -1 -67 27 -200 3 -14 12 -23 24 -23 13 0 36
29 80 102 55 92 60 105 49 125 -16 30 -59 32 -59 3z"/>
<path d="M8951 7992 c-59 -57 -79 -159 -28 -139 8 3 17 21 21 40 7 39 41 87
61 87 21 0 36 25 23 38 -20 20 -36 14 -77 -26z"/>
<path d="M8671 7999 c-79 -40 -109 -136 -55 -178 43 -34 124 -26 124 11 0 18
-5 20 -36 15 -44 -7 -74 6 -74 34 0 28 60 86 96 94 49 11 56 15 52 28 -7 21
-61 19 -107 -4z m59 -163 c0 -3 -4 -8 -10 -11 -5 -3 -10 -1 -10 4 0 6 5 11 10
11 6 0 10 -2 10 -4z"/>
<path d="M10110 8007 c-34 -17 -92 -96 -88 -121 4 -27 27 -27 42 -1 26 48 57
83 76 88 14 4 19 1 16 -6 -29 -69 -31 -117 -6 -117 13 0 43 67 35 80 -3 5 -1
11 5 15 14 9 13 48 -2 63 -15 15 -46 15 -78 -1z"/>
<path d="M9905 7977 c-9 -14 -15 -29 -14 -33 2 -5 -3 -21 -11 -36 -13 -28 -8
-58 10 -58 14 0 51 82 53 117 3 35 -18 40 -38 10z"/>
<path d="M11774 7935 c-27 -62 -31 -95 -10 -95 18 0 29 16 50 73 33 88 -2 107
-40 22z"/>
<path d="M9114 7913 c-3 -10 -10 -28 -15 -41 -13 -34 -11 -42 12 -42 22 0 54
61 45 86 -8 20 -36 17 -42 -3z"/>
<path d="M8540 7589 c-6 -11 -20 -68 -30 -127 -10 -59 -30 -152 -44 -207 -31
-120 -33 -155 -8 -155 15 0 21 13 31 63 7 34 14 69 15 77 1 9 5 20 8 26 9 14
48 206 48 236 0 13 9 40 19 60 11 19 17 39 14 42 -13 13 -43 5 -53 -15z"/>
<path d="M11905 7453 c-20 -60 -52 -141 -71 -181 -19 -40 -34 -79 -34 -87 0
-33 26 -24 77 26 31 30 53 46 50 37 -29 -82 -31 -134 -6 -126 13 4 69 152 69
180 0 23 -41 24 -74 3 -23 -16 -23 -14 11 77 61 164 63 178 34 178 -15 0 -26
-22 -56 -107z"/>
<path d="M12556 7478 c-1 -7 -26 -84 -55 -170 -70 -209 -60 -237 44 -126 l59
62 11 -48 c11 -53 36 -79 57 -58 9 9 9 15 0 24 -7 7 -12 29 -12 51 0 81 -36
98 -100 47 l-38 -30 39 113 c21 61 38 120 39 130 0 20 -39 24 -44 5z"/>
<path d="M11474 7393 c-32 -13 -70 -28 -84 -32 -31 -9 -41 -51 -13 -51 10 0
42 11 71 25 28 13 52 22 52 20 0 -3 -16 -25 -35 -50 -51 -67 -34 -91 42 -60
44 18 43 18 43 -1 0 -9 5 -12 12 -8 8 5 9 2 4 -11 -7 -19 17 -65 34 -65 13 0
64 50 77 75 19 36 25 93 11 97 -16 6 -38 -16 -38 -37 0 -22 -28 -75 -40 -75
-11 0 -13 12 -11 46 3 32 -25 51 -51 35 -29 -18 -32 -8 -9 30 24 39 27 75 8
82 -8 3 -40 -6 -73 -20z"/>
<path d="M12160 7370 c0 -15 5 -20 18 -18 9 2 17 10 17 18 0 8 -8 16 -17 18
-13 2 -18 -3 -18 -18z"/>
<path d="M8667 7346 c-4 -9 -13 -16 -22 -16 -16 0 -75 -75 -75 -95 0 -7 9 -24
21 -39 21 -26 62 -35 74 -16 10 17 32 11 38 -10 6 -24 45 -27 53 -5 4 8 1 22
-6 30 -8 9 -10 28 -6 49 9 50 -16 54 -56 11 -30 -33 -68 -47 -68 -25 0 23 36
63 68 77 22 9 32 19 30 31 -4 22 -44 28 -51 8z"/>
<path d="M9896 7330 c-29 -35 -34 -76 -12 -105 10 -14 26 -19 62 -19 l49 0 3
-63 3 -63 -358 0 -359 0 -2 23 c-2 12 -4 65 -5 119 -1 53 -5 100 -10 104 -4 4
-19 -3 -34 -17 -15 -13 -22 -16 -14 -7 15 20 7 38 -19 38 -28 0 -45 -57 -25
-87 9 -12 22 -23 29 -23 15 0 20 -18 32 -102 l6 -48 -683 -3 -684 -2 683 -3
c538 -1 682 -5 682 -14 0 -9 -16 -12 -55 -10 -52 4 -55 3 -75 -30 -28 -46 -28
-130 0 -158 19 -19 23 -19 49 -5 16 8 46 38 67 67 21 29 42 55 46 58 8 6 16
40 17 73 1 16 25 17 356 17 329 0 414 -7 323 -25 -61 -12 -68 -16 -84 -47 -19
-36 -21 -87 -5 -117 28 -51 122 0 152 84 10 26 19 35 36 35 27 0 43 28 23 40
-7 4 -21 5 -31 3 -13 -4 -19 0 -19 11 0 15 226 16 2763 18 l2762 3 -2754 2
c-2189 3 -2756 6 -2763 16 -4 6 -8 30 -8 52 -1 22 -9 56 -18 75 -16 32 -21 35
-61 35 -51 0 -61 15 -31 45 22 22 24 50 4 57 -6 2 -23 -10 -38 -27z m-678
-328 c9 -6 2 -21 -29 -55 -22 -26 -45 -47 -51 -47 -14 0 -4 76 12 95 14 16 48
19 68 7z m772 -17 c0 -19 -60 -86 -71 -79 -14 8 -11 47 7 72 17 25 64 31 64 7z"/>
<path d="M10225 7343 c-48 -25 -73 -53 -91 -99 -15 -40 -15 -45 0 -69 21 -32
51 -39 143 -32 82 6 104 17 84 41 -10 12 -20 12 -64 2 -87 -20 -150 6 -119 49
4 6 27 17 52 24 68 19 92 38 84 64 -12 40 -40 46 -89 20z"/>
<path d="M9643 7324 c-48 -24 -71 -95 -42 -130 15 -18 44 -18 74 2 22 15 23
14 18 -6 -11 -40 47 -76 85 -52 20 13 3 43 -22 40 -22 -3 -23 1 -15 72 5 46
-19 51 -59 10 -44 -44 -69 -39 -37 7 8 12 25 23 38 25 14 2 22 10 22 23 0 26
-22 29 -62 9z"/>
<path d="M13353 7319 c-23 -11 -58 -38 -78 -60 -62 -69 -37 -127 55 -125 28 1
36 5 38 24 4 25 -25 43 -37 23 -9 -14 -41 -4 -41 13 0 37 92 108 113 87 17
-17 37 -13 37 7 0 16 -28 52 -41 52 -2 0 -23 -9 -46 -21z"/>
<path d="M9367 7312 c-42 -47 -28 -122 27 -149 32 -15 37 -15 60 0 16 11 27
30 31 54 4 21 9 45 11 54 3 10 -3 18 -16 22 -16 4 -22 -2 -30 -31 -5 -21 -10
-43 -10 -49 0 -7 -6 -13 -13 -13 -36 0 -50 59 -21 91 17 19 12 39 -10 39 -7 0
-20 -8 -29 -18z m33 -12 c0 -5 -7 -7 -15 -4 -8 4 -12 10 -9 15 6 11 24 2 24
-11z"/>
<path d="M8909 7312 c-71 -31 -139 -148 -95 -165 18 -7 32 9 41 46 12 45 95
103 95 65 0 -7 -5 -30 -9 -52 -11 -46 -7 -61 18 -63 16 -1 20 8 26 68 6 59 4
73 -10 90 -19 19 -38 23 -66 11z"/>
<path d="M12270 7293 c-50 -18 -102 -121 -81 -161 13 -25 63 -42 69 -24 2 7 8
10 13 6 12 -7 107 24 115 38 3 5 1 15 -5 21 -8 8 -25 6 -64 -6 -68 -22 -87
-21 -87 1 0 28 39 83 58 81 32 -3 42 1 42 16 0 12 -31 37 -42 34 -2 0 -10 -3
-18 -6z"/>
<path d="M13563 7271 c-41 -30 -69 -80 -59 -106 7 -19 58 -20 94 -1 27 14 28
13 27 -11 0 -39 20 -38 39 1 37 78 6 104 -70 60 -41 -24 -45 -25 -36 -7 15 27
36 43 69 52 15 4 29 15 31 24 6 28 -50 21 -95 -12z"/>
<path d="M13861 7268 c-13 -5 -32 -6 -42 -3 -13 5 -26 -8 -54 -51 -36 -55 -39
-84 -12 -84 8 0 27 16 41 35 23 30 72 65 91 65 3 0 3 -27 -1 -60 -5 -42 -3
-60 5 -61 32 -5 36 -2 37 26 1 17 5 47 9 67 11 56 -22 86 -74 66z"/>
<path d="M12072 7207 c-27 -64 -27 -77 -3 -77 13 0 25 16 41 54 12 30 19 60
15 65 -14 23 -32 9 -53 -42z"/>
<path d="M12004 6875 c-4 -8 -4 -24 -1 -35 3 -11 1 -18 -4 -14 -5 3 -9 3 -9 1
0 -24 -45 -174 -53 -179 -7 -4 -35 -8 -64 -8 -54 0 -72 -12 -54 -34 8 -9 27
-12 61 -8 28 2 50 1 50 -2 0 -4 -13 -39 -30 -78 -36 -84 -37 -101 -9 -96 16 2
28 23 53 88 l33 85 74 5 c60 4 74 8 77 23 3 14 -5 17 -50 18 -29 1 -61 0 -71
-1 -15 -1 -17 3 -12 19 28 89 51 208 42 219 -13 16 -26 15 -33 -3z"/>
<path d="M8502 6847 c-5 -6 -13 -32 -17 -57 -3 -25 -13 -68 -21 -97 -14 -50
-15 -52 -40 -43 -40 16 -60 12 -95 -17 -74 -62 -110 -160 -73 -197 31 -31 60
-30 108 4 75 54 129 158 156 300 7 36 17 73 22 82 11 22 -24 45 -40 25z m-70
-234 c-6 -3 -9 -9 -6 -14 3 -6 -6 -29 -21 -51 -59 -88 -120 -114 -120 -51 -1
17 2 30 6 27 4 -2 13 8 20 24 15 35 57 67 86 64 12 -1 25 3 29 9 3 6 9 7 13 3
3 -4 0 -9 -7 -11z m28 -23 c0 -5 -4 -10 -10 -10 -5 0 -10 5 -10 10 0 6 5 10
10 10 6 0 10 -4 10 -10z"/>
<path d="M14683 6842 c-6 -4 -21 -50 -34 -102 l-24 -95 -59 -10 c-57 -10 -82
-29 -57 -45 7 -4 31 -4 54 1 23 4 43 6 45 5 1 -2 -7 -29 -18 -61 -25 -73 -25
-95 -2 -95 14 0 24 18 42 75 13 42 29 80 35 85 6 5 44 12 85 17 56 6 75 12 75
23 0 12 -15 15 -76 15 l-76 -1 22 88 c17 66 20 90 11 97 -6 5 -17 7 -23 3z"/>
<path d="M13694 6783 c-9 -21 -32 -74 -50 -118 -31 -77 -33 -80 -66 -80 -42 0
-52 -30 -14 -45 30 -11 31 -16 11 -63 -20 -49 -20 -79 2 -75 11 2 27 29 43 71
24 64 29 69 77 92 28 13 61 33 72 44 29 29 26 17 -9 -46 -17 -29 -27 -53 -23
-53 5 0 1 -6 -8 -13 -21 -16 -40 -53 -32 -61 14 -14 43 -5 62 20 12 15 21 24
21 21 0 -4 22 7 50 23 27 16 52 25 55 20 3 -5 -2 -27 -11 -49 -9 -23 -14 -50
-11 -61 5 -20 -1 -20 -825 -20 -754 0 -828 1 -814 16 25 25 19 59 -19 104 -19
23 -35 48 -35 56 0 16 42 46 62 43 27 -3 38 1 38 16 0 22 -40 34 -70 23 -77
-29 -90 -89 -35 -159 19 -25 30 -48 26 -52 -15 -15 -50 2 -63 30 -7 15 -19 29
-27 31 -8 3 -11 0 -7 -6 3 -6 2 -13 -3 -17 -13 -7 -3 -34 22 -62 l20 -23 -316
0 c-285 0 -317 2 -317 16 0 12 6 15 25 10 104 -26 264 201 183 258 -44 31 -97
15 -158 -49 -19 -20 -45 -41 -56 -45 -15 -6 -24 -21 -28 -47 -4 -21 -15 -62
-23 -90 l-17 -53 -1775 -2 -1776 -3 1774 -2 c1411 -3 1772 -6 1768 -16 -24
-66 -29 -87 -24 -101 12 -32 40 -11 71 51 l31 62 2040 3 c1122 2 1663 4 1203
5 -461 2 -838 7 -838 11 0 5 9 36 21 69 25 75 16 103 -32 103 -20 0 -28 -4
-23 -12 4 -6 3 -8 -4 -4 -14 9 -63 -14 -55 -27 3 -6 1 -7 -5 -3 -9 5 -9 13 -2
27 6 11 8 25 4 31 -4 6 -3 8 4 4 8 -5 42 62 48 94 0 3 4 22 8 43 9 40 -12 87
-38 87 -11 0 -39 -48 -37 -64 1 -12 -32 -82 -47 -100 -10 -10 -30 -25 -45 -33
-28 -14 -29 -14 -22 9 4 13 23 57 42 100 19 42 32 81 29 87 -14 22 -36 10 -52
-26z m93 -115 c-3 -7 -5 -2 -5 12 0 14 2 19 5 13 2 -7 2 -19 0 -25z m-2108
-27 c25 -16 2 -71 -53 -127 -57 -59 -99 -72 -111 -34 -10 31 62 126 120 158
24 14 26 14 44 3z"/>
<path d="M8805 6760 c-4 -7 -3 -16 3 -22 14 -14 47 -6 47 12 0 18 -40 26 -50
10z"/>
<path d="M8649 6707 c-43 -29 -71 -71 -93 -141 -14 -45 -16 -59 -6 -71 10 -12
16 -12 26 -4 8 6 11 15 8 21 -3 5 -1 14 4 21 6 7 16 31 23 55 7 24 25 54 42
68 29 24 67 32 67 14 0 -5 7 -7 15 -4 24 10 18 43 -11 54 -34 13 -36 13 -75
-13z"/>
<path d="M10290 6723 c-58 -22 -110 -94 -110 -154 0 -17 7 -46 15 -63 20 -41
86 -80 121 -72 33 9 31 32 -4 39 -15 3 -40 15 -55 27 -23 18 -27 29 -27 70 0
41 5 53 30 78 34 35 84 50 105 32 16 -13 35 -5 35 15 0 28 -66 44 -110 28z"/>
<path d="M9078 6693 c-8 -10 -35 -52 -61 -94 -68 -111 -75 -114 -69 -30 3 46
1 71 -7 76 -24 14 -37 -14 -39 -87 -2 -88 3 -108 31 -108 26 0 77 47 77 72 0
11 4 17 9 14 5 -4 24 18 41 46 18 29 41 63 53 75 16 19 18 25 7 38 -16 19 -24
19 -42 -2z"/>
<path d="M13397 6693 c-13 -12 -7 -44 9 -50 21 -8 35 16 23 39 -10 19 -21 23
-32 11z"/>
<path d="M9218 6657 c-71 -72 -78 -83 -78 -129 0 -63 33 -93 91 -84 55 9 136
44 143 62 9 24 -24 29 -61 9 -19 -11 -55 -19 -81 -19 -39 -1 -47 2 -47 17 0
13 12 23 38 32 45 15 102 58 118 87 10 18 8 24 -11 40 -35 28 -74 23 -112 -15z
m70 -18 c-4 -12 -68 -54 -68 -45 0 10 51 56 62 56 5 0 8 -5 6 -11z"/>
<path d="M10516 6649 c-32 -25 -66 -89 -66 -124 0 -16 12 -39 31 -57 28 -28
34 -30 77 -24 110 15 155 111 77 162 -33 22 -95 12 -95 -16 0 -15 9 -19 43
-22 34 -2 43 -7 45 -24 5 -36 -61 -69 -106 -53 -33 12 -30 68 6 106 15 16 33
32 41 34 18 6 7 39 -12 39 -8 0 -26 -9 -41 -21z"/>
<path d="M12980 6654 c-19 -7 -43 -13 -53 -13 -22 -1 -34 -30 -17 -41 6 -4 27
-4 46 0 19 4 34 6 34 4 0 -2 -18 -31 -40 -65 -28 -44 -39 -70 -36 -88 2 -14 5
-29 5 -33 2 -22 61 -4 108 32 53 39 53 39 59 16 9 -39 49 -70 79 -62 41 10 48
46 23 113 -17 47 -23 54 -29 38 -6 -17 -8 -17 -8 -2 -1 9 -5 17 -11 17 -13 0
-13 -10 5 -60 18 -50 18 -60 5 -60 -5 0 -18 20 -29 45 -12 27 -26 45 -36 45
-9 0 -39 -19 -66 -42 -27 -22 -52 -38 -56 -34 -4 3 21 47 55 97 35 49 60 94
57 100 -8 12 -52 9 -95 -7z"/>
<path d="M10847 6644 c-22 -12 -31 -13 -43 -3 -23 19 -41 -5 -65 -83 -20 -67
-20 -98 0 -98 5 0 30 30 57 66 59 81 100 108 90 62 -3 -13 -8 -49 -11 -80 -5
-48 -3 -58 9 -58 23 0 35 31 42 109 9 98 -12 121 -79 85z"/>
<path d="M11046 6638 c-33 -25 -76 -111 -69 -138 8 -29 34 -48 81 -58 34 -8
46 -7 57 5 17 16 20 27 6 18 -5 -3 -12 -1 -15 4 -3 5 -22 12 -41 15 -20 4 -38
13 -41 21 -10 25 33 91 71 109 20 10 34 23 32 29 -6 21 -51 18 -81 -5z"/>
<path d="M11242 6603 c-24 -27 -48 -58 -53 -71 -32 -83 31 -145 127 -128 26 5
34 12 32 24 -2 13 -15 17 -53 19 -79 3 -100 54 -27 68 51 9 72 31 72 75 0 73
-37 78 -98 13z m58 -22 c0 -12 -20 -25 -27 -18 -7 7 6 27 18 27 5 0 9 -4 9 -9z"/>
<path d="M8720 6559 c-15 -26 -9 -64 9 -64 8 0 19 13 24 28 16 49 -11 79 -33
36z"/>
<path d="M14325 6570 c-3 -5 -3 -15 0 -21 20 -31 -34 -89 -84 -89 -27 0 -27
20 0 54 22 28 20 56 -5 56 -17 0 -66 -77 -66 -103 0 -10 10 -27 21 -38 58 -58
198 37 182 124 -5 27 -35 38 -48 17z"/>
<path d="M14016 6547 c-9 -7 -16 -17 -15 -22 2 -6 -3 -21 -10 -33 -26 -48 19
-107 66 -87 10 5 22 7 27 6 4 -1 19 5 32 14 36 23 30 56 -16 98 -42 40 -57 44
-84 24z m68 -66 c15 -16 14 -19 -10 -29 -30 -14 -44 -8 -44 18 0 10 -6 20 -12
23 -7 2 1 4 19 5 18 0 38 -7 47 -17z"/>
<path d="M13329 6513 c-6 -16 -13 -40 -16 -55 -5 -23 -2 -28 14 -28 15 0 25
12 37 45 10 24 15 49 11 55 -12 19 -35 10 -46 -17z"/>
<path d="M10280 6223 c-22 -32 -60 -97 -82 -145 l-41 -87 -56 -3 c-42 -2 -56
-7 -56 -18 0 -11 13 -16 48 -18 26 -2 47 -4 47 -5 0 -1 -7 -24 -15 -52 -31
-100 4 -138 98 -107 40 13 53 22 55 40 4 26 -3 27 -51 7 -60 -25 -70 -21 -64
23 10 73 23 92 64 94 41 2 81 5 101 7 8 0 12 9 10 19 -2 13 -16 18 -65 22
l-62 5 33 70 c18 39 52 94 75 123 41 52 47 82 17 82 -8 0 -33 -26 -56 -57z"/>
<path d="M12880 6224 c-6 -14 -10 -28 -10 -32 0 -5 -89 -239 -96 -250 -1 -1
-18 -4 -38 -6 -37 -2 -60 -21 -49 -39 3 -5 23 -6 45 -3 39 6 40 6 34 -21 -2
-16 -8 -49 -11 -75 -3 -26 -10 -50 -15 -53 -13 -8 -1 -35 15 -35 23 0 35 26
48 111 l13 84 54 -3 c29 -2 61 -7 72 -11 18 -6 17 -9 -11 -45 -74 -93 1 -170
103 -107 58 37 69 105 20 134 -8 4 -14 19 -14 34 0 23 -3 25 -40 21 -22 -2
-40 0 -40 3 0 4 -29 11 -65 14 -36 4 -65 11 -65 16 0 5 12 38 26 72 40 94 71
190 67 205 -8 21 -33 13 -43 -14z m157 -401 c8 -21 -43 -65 -71 -61 -26 4 -23
31 7 69 17 20 26 24 40 17 10 -5 21 -16 24 -25z"/>
<path d="M11080 6155 c-8 -9 -8 -15 0 -20 11 -7 12 -105 1 -145 -5 -17 -16
-26 -40 -31 -49 -10 -83 -39 -110 -93 -19 -38 -22 -54 -15 -75 24 -68 119 -11
174 104 32 67 57 195 47 237 -8 29 -41 42 -57 23z m-65 -300 c-51 -62 -73 -59
-40 5 16 31 68 65 73 49 2 -5 -13 -30 -33 -54z"/>
<path d="M13809 6168 c0 -2 -2 -27 -4 -56 -2 -29 -14 -74 -27 -100 -23 -47
-23 -47 -83 -52 -52 -4 -60 -8 -60 -25 0 -18 6 -20 52 -17 l51 4 -26 -76 c-19
-57 -23 -79 -14 -88 16 -16 38 5 46 42 3 17 15 53 27 80 20 46 24 50 56 50 43
0 85 21 112 57 20 25 19 23 -3 -23 -14 -28 -41 -78 -60 -110 -39 -64 -45 -101
-20 -111 11 -4 40 18 93 71 l78 78 6 -42 c8 -62 22 -73 80 -66 38 6 53 3 67
-9 14 -13 30 -15 79 -9 67 7 117 32 71 35 l-25 1 25 8 c15 5 -6 6 -52 3 -72
-5 -78 -4 -77 13 0 11 3 14 5 7 7 -16 49 2 87 36 52 47 22 106 -39 75 -37 -19
-82 -62 -89 -85 -6 -18 -73 -44 -84 -33 -3 3 -6 36 -6 72 0 66 -1 69 -35 64
-5 -1 -10 -9 -10 -17 0 -8 -7 -15 -16 -15 -8 0 -28 -15 -45 -32 -16 -18 -29
-30 -29 -27 0 3 21 48 47 100 35 69 47 106 48 139 0 38 -3 45 -20 45 -13 0
-33 -21 -61 -65 -57 -90 -97 -128 -126 -122 -22 4 -22 11 -3 39 10 14 16 49
18 90 2 57 -1 68 -15 71 -10 2 -18 2 -19 0z"/>
<path d="M12463 6142 c-7 -4 -14 -19 -15 -32 -4 -35 36 -36 40 -1 4 27 -8 43
-25 33z"/>
<path d="M8901 6058 c-6 -16 -5 -27 5 -38 18 -19 37 -1 32 31 -4 31 -26 36
-37 7z"/>
<path d="M8385 6055 c-17 -9 -43 -35 -59 -58 -22 -33 -26 -50 -22 -81 8 -69
56 -89 115 -47 l31 22 1 -53 c1 -61 0 -85 -6 -114 -5 -21 -8 -21 -282 -23
-153 -1 -279 -4 -282 -7 -2 -2 96 -4 218 -4 l221 0 -15 -24 c-23 -34 -36 -128
-24 -170 21 -78 107 -44 162 64 17 34 34 55 45 55 22 0 28 33 8 41 -9 3 -16
12 -16 20 0 12 69 14 430 14 l430 0 0 -39 c0 -39 -1 -40 -27 -31 -73 25 -133
-34 -133 -129 0 -138 82 -132 164 11 l27 46 28 -15 c28 -16 61 -13 61 6 0 6
-18 20 -40 31 -25 13 -40 27 -40 39 0 11 -3 21 -7 24 -5 2 -2 2 5 0 9 -2 12 6
8 27 l-4 30 1103 0 1103 0 -7 -32 c-16 -71 19 -80 51 -13 l22 45 1955 2 1956
3 -1952 2 c-1074 2 -1953 6 -1953 9 0 4 5 24 12 46 9 29 15 37 27 32 39 -16
53 -15 94 9 60 35 117 122 117 178 0 28 -36 59 -69 59 -34 0 -91 -43 -132 -99
-16 -23 -37 -41 -47 -41 -13 0 -23 -15 -36 -56 -10 -31 -19 -65 -20 -77 -2
-12 -7 -30 -11 -39 -7 -17 -69 -18 -1109 -18 l-1101 0 -23 78 c-12 43 -22 86
-22 95 0 17 -39 25 -41 10 -1 -5 -3 -19 -4 -32 -1 -13 -8 -27 -16 -31 -39 -25
-41 50 -1 79 25 18 26 21 11 36 -15 15 -18 14 -47 -10 -28 -23 -32 -33 -32
-74 0 -70 34 -102 83 -76 23 12 25 11 30 -14 3 -14 9 -34 12 -43 7 -17 -17
-18 -417 -18 l-425 0 3 133 c3 144 0 167 -22 167 -8 0 -14 10 -14 23 0 24 -17
47 -34 47 -6 0 -25 -7 -41 -15z m27 -65 c-3 -24 -1 -30 14 -30 14 0 11 -7 -16
-35 -39 -40 -55 -44 -63 -13 -7 24 5 52 36 86 27 30 34 28 29 -8z m3444 -15
c11 -28 -7 -69 -51 -113 -45 -45 -86 -55 -93 -22 -4 22 47 95 88 125 39 29 48
31 56 10z m-156 -95 c0 -5 -5 -10 -11 -10 -5 0 -7 5 -4 10 3 6 8 10 11 10 2 0
4 -4 4 -10z m-3287 -232 c16 -12 15 -17 -7 -64 -21 -46 -57 -84 -78 -84 -14 0
-9 89 6 125 16 38 47 46 79 23z m901 -74 c14 -5 13 -10 -4 -44 -30 -59 -71
-104 -81 -88 -16 25 -10 85 12 112 20 26 42 32 73 20z"/>
<path d="M8647 5990 c-61 -53 -73 -173 -21 -207 31 -20 68 -10 105 27 33 33
39 91 13 128 -19 28 -54 30 -54 2 0 -11 4 -20 10 -20 5 0 13 -12 16 -26 5 -19
0 -32 -21 -54 -37 -39 -55 -29 -55 30 0 47 27 100 51 100 6 0 17 7 25 15 13
12 12 15 -5 25 -27 14 -26 14 -64 -20z"/>
<path d="M11242 5989 c-37 -11 -79 -68 -92 -124 -10 -44 6 -99 26 -91 8 3 11
0 7 -10 -5 -12 2 -15 33 -12 32 2 40 7 42 27 3 20 1 23 -19 18 -42 -11 -69 35
-29 48 11 3 44 22 75 42 65 43 73 73 25 98 -16 8 -30 15 -32 14 -2 0 -18 -5
-36 -10z m40 -51 c-15 -18 -72 -51 -72 -42 0 16 44 54 63 54 14 0 17 -3 9 -12z"/>
<path d="M11447 5957 c-18 -19 -37 -41 -44 -50 -7 -8 -18 -17 -25 -20 -10 -3
-11 -8 0 -26 6 -11 12 -29 12 -40 0 -10 10 -30 21 -45 18 -23 27 -27 68 -24
34 2 47 7 49 21 3 14 -4 17 -37 17 -30 0 -43 5 -51 20 -16 29 -4 56 29 70 70
29 96 102 38 108 -21 3 -35 -5 -60 -31z"/>
<path d="M10413 5952 c-52 -41 -51 -145 2 -158 24 -6 96 16 123 38 21 18 14
56 -14 75 -15 10 -36 28 -49 41 -27 26 -33 27 -62 4z m70 -69 l32 -16 -40 -18
c-45 -20 -55 -17 -55 15 0 40 14 45 63 19z"/>
<path d="M8969 5918 c-45 -50 -74 -115 -59 -133 20 -24 28 -18 51 33 26 58 56
92 75 85 20 -8 17 -53 -6 -88 -24 -36 -25 -51 -5 -59 21 -7 75 77 75 116 0 36
-40 78 -75 78 -17 0 -37 -12 -56 -32z"/>
<path d="M12507 5920 c-19 -16 -41 -30 -48 -30 -17 0 -49 -54 -49 -81 0 -35
35 -20 84 36 26 30 51 55 57 55 5 0 9 -13 9 -30 0 -23 -4 -30 -20 -30 -27 0
-26 -30 1 -59 19 -20 23 -21 36 -8 9 9 17 42 20 79 4 52 2 67 -11 81 -24 24
-40 21 -79 -13z"/>
<path d="M12325 5928 c-27 -83 -43 -151 -39 -163 9 -22 44 -19 44 4 0 11 9 48
20 82 14 46 16 67 8 76 -13 16 -27 17 -33 1z"/>
<path d="M8812 5869 c-13 -21 -26 -105 -18 -118 13 -21 35 2 45 47 6 26 13 57
17 69 5 18 2 22 -14 20 -11 0 -24 -9 -30 -18z"/>
<path d="M13036 5602 c-6 -9 -12 -45 -44 -242 -42 -256 -52 -332 -47 -341 4
-5 -425 -9 -1122 -9 l-1128 0 6 68 c3 37 20 115 37 173 18 58 35 127 38 153 6
42 5 46 -14 46 -17 0 -23 -12 -37 -77 -10 -43 -31 -125 -47 -182 -21 -74 -28
-116 -24 -143 l6 -38 -1010 0 c-956 0 -1010 1 -1009 18 0 9 8 49 17 87 l17 70
44 3 c45 3 77 24 66 42 -4 7 -24 8 -51 4 -53 -8 -53 -5 -24 106 11 41 20 94
20 118 0 39 -2 43 -22 40 -18 -3 -22 -10 -24 -53 -3 -47 -38 -203 -49 -213 -3
-3 -21 -1 -40 5 -26 8 -37 8 -45 -2 -14 -17 13 -45 45 -45 31 0 36 -10 25 -51
-5 -19 -14 -55 -21 -81 l-12 -48 -351 -2 -351 -3 344 -2 c291 -3 347 -6 361
-18 15 -14 18 -14 30 0 11 13 386 15 3479 17 1906 2 3008 4 2449 5 -1010 3
-1018 3 -1018 23 0 27 -40 27 -47 0 -5 -19 -14 -20 -260 -20 -241 0 -253 1
-244 18 5 10 21 99 35 198 15 98 33 209 42 245 17 72 16 130 -3 136 -6 2 -14
0 -17 -5z m-4434 -394 c-9 -9 -15 -9 -24 0 -9 9 -7 12 12 12 19 0 21 -3 12
-12z"/>
<path d="M12218 5463 c-45 -176 -41 -167 -87 -176 -32 -6 -41 -13 -41 -29 0
-17 5 -20 35 -16 l35 4 -5 -81 c-3 -44 -8 -93 -10 -108 -3 -19 0 -30 11 -34
25 -9 33 8 39 92 9 130 10 133 58 139 23 4 60 7 82 8 28 2 40 8 40 18 0 12
-15 15 -73 16 -40 1 -75 4 -78 7 -3 3 6 44 21 92 28 92 29 128 5 133 -11 2
-20 -16 -32 -65z"/>
<path d="M11680 5503 c0 -10 -9 -68 -21 -130 l-21 -111 -32 5 c-87 14 -153
-87 -121 -186 11 -34 53 -46 84 -23 46 33 109 174 132 298 17 88 25 111 37
110 27 -2 25 30 -3 42 -36 17 -55 15 -55 -5z m-72 -303 c-18 -49 -60 -111 -71
-107 -7 2 -13 20 -15 40 -3 30 2 43 25 65 15 15 38 28 49 28 19 0 21 -3 12
-26z"/>
<path d="M9559 5473 c-6 -15 -21 -64 -34 -108 -12 -44 -38 -120 -58 -170 -49
-128 -34 -150 47 -69 25 26 49 45 51 42 3 -3 1 -26 -4 -52 -7 -38 -6 -49 6
-53 23 -9 34 10 40 69 5 49 3 57 -17 71 -21 14 -26 14 -52 1 -28 -14 -29 -14
-19 4 11 21 82 249 85 272 2 28 -33 23 -45 -7z"/>
<path d="M10055 5420 c-9 -15 7 -40 25 -40 24 0 36 18 21 33 -14 14 -39 18
-46 7z"/>
<path d="M12760 5365 c-10 -12 -10 -19 -2 -27 16 -16 42 -2 42 22 0 24 -22 26
-40 5z"/>
<path d="M9265 5315 c-5 -2 -21 -6 -35 -9 -84 -19 -141 -150 -93 -214 16 -21
29 -28 64 -29 50 -3 85 17 75 43 -4 11 -12 14 -24 9 -62 -27 -98 -5 -88 54 8
49 51 90 106 99 36 6 45 12 45 27 0 19 -25 29 -50 20z"/>
<path d="M11880 5291 c-83 -43 -101 -129 -40 -183 38 -35 114 -39 151 -9 35
29 15 43 -39 28 -36 -9 -48 -9 -70 4 -39 21 -42 71 -6 104 28 26 59 34 52 13
-3 -7 -18 -19 -34 -28 -39 -22 -38 -46 1 -43 34 3 85 52 85 83 0 18 -34 50
-55 50 -6 0 -26 -8 -45 -19z"/>
<path d="M8932 5274 c-41 -33 -82 -102 -82 -140 0 -65 57 -96 138 -74 32 8 42
16 42 31 0 19 -4 20 -37 13 -53 -11 -84 -8 -94 8 -14 21 -10 31 10 25 21 -5
49 10 94 51 26 25 34 61 21 96 -9 24 -55 19 -92 -10z m58 -28 c0 -16 -67 -72
-76 -63 -5 4 64 77 73 77 1 0 3 -7 3 -14z"/>
<path d="M13140 5280 c-11 -11 -20 -24 -20 -29 0 -23 24 -70 61 -118 28 -38
44 -51 57 -47 14 5 15 4 2 -5 -27 -19 -78 -13 -102 14 -30 31 -53 21 -39 -18
12 -31 37 -45 93 -53 53 -7 98 9 98 34 0 10 -22 45 -50 76 -58 67 -74 92 -66
112 7 17 49 18 76 2 28 -18 46 1 31 31 -16 30 -112 30 -141 1z"/>
<path d="M10153 5275 c-64 -28 -95 -144 -53 -198 36 -45 140 -50 140 -6 0 18
-5 21 -32 16 -73 -10 -106 39 -72 105 20 39 31 48 61 48 28 0 38 17 23 35 -15
18 -26 18 -67 0z"/>
<path d="M12454 5245 c-34 -15 -74 -59 -74 -81 0 -39 62 -56 110 -31 l25 13 0
-49 c0 -36 5 -53 17 -61 25 -15 44 5 29 32 -8 14 -6 36 8 84 19 67 15 96 -12
85 -9 -3 -21 1 -27 9 -15 17 -35 17 -76 -1z m46 -55 c-30 -23 -58 -31 -65 -20
-8 13 36 40 65 40 l25 0 -25 -20z"/>
<path d="M12712 5251 c-7 -4 -15 -30 -18 -57 -3 -27 -12 -59 -20 -72 -17 -26
-11 -42 15 -42 23 0 38 35 47 108 6 59 -1 78 -24 63z"/>
<path d="M9731 5224 c-33 -20 -45 -23 -51 -14 -14 23 -40 3 -40 -32 0 -18 -3
-43 -6 -55 -8 -31 25 -45 40 -18 19 32 72 82 95 90 22 7 22 5 16 -39 -6 -38
-4 -47 10 -52 23 -9 35 12 35 67 0 32 -6 51 -18 62 -24 22 -29 22 -81 -9z"/>
<path d="M10361 5224 c-25 -32 -26 -47 -5 -69 11 -11 28 -15 50 -12 32 4 34 3
34 -23 0 -41 10 -60 31 -60 15 0 19 7 17 33 -1 17 1 49 5 70 9 43 -8 57 -46
39 -39 -18 -59 -22 -55 -11 2 6 6 9 9 7 3 -2 13 3 23 11 12 10 14 17 5 27 -18
22 -46 16 -68 -12z"/>
<path d="M9944 5212 c-19 -12 -34 -49 -34 -81 0 -24 4 -31 20 -31 13 0 20 7
20 20 0 12 7 34 15 51 20 38 9 61 -21 41z"/>
<path d="M8953 4745 c-38 -58 -101 -156 -140 -217 -40 -60 -73 -114 -73 -119
0 -5 7 -12 16 -16 20 -7 47 24 39 45 -2 7 0 10 5 7 6 -3 13 0 16 8 3 8 24 18
47 21 23 4 53 10 66 13 23 6 24 5 17 -37 -4 -24 -14 -49 -24 -56 -16 -11 -15
-14 3 -33 10 -12 25 -20 34 -19 14 3 20 28 47 183 3 17 16 77 30 134 28 117
29 184 2 189 -13 3 -36 -26 -85 -103z m34 -103 c-15 -68 -27 -104 -37 -107 -8
-2 -32 -7 -52 -11 l-38 -6 48 78 c26 44 55 88 64 98 10 11 20 28 24 39 3 10 8
17 10 15 2 -2 -7 -50 -19 -106z"/>
<path d="M13382 4817 c-5 -7 -29 -64 -53 -127 -44 -118 -95 -216 -124 -240
-14 -12 -18 -11 -25 0 -10 17 17 68 62 115 15 17 28 36 28 43 0 18 -35 14 -53
-6 -13 -15 -14 -21 -4 -31 10 -11 8 -12 -9 -7 -17 5 -26 -1 -43 -30 -13 -22
-19 -44 -15 -56 4 -14 2 -18 -5 -14 -16 10 -13 -16 5 -42 37 -53 103 -12 159
98 26 51 115 276 115 290 0 14 -28 19 -38 7z"/>
<path d="M13992 4807 c-5 -7 -13 -27 -17 -46 -4 -19 -22 -64 -40 -100 -77
-158 -98 -231 -67 -231 16 0 64 83 101 173 36 88 38 90 101 128 48 29 74 39
107 39 24 0 43 -4 43 -10 0 -15 -85 -81 -147 -114 -67 -36 -101 -84 -89 -129
7 -29 67 -101 97 -117 11 -7 20 -5 28 4 8 10 0 23 -34 58 -65 66 -60 105 18
145 56 28 146 95 162 120 23 35 12 69 -26 82 -50 17 -82 13 -145 -19 -32 -16
-60 -30 -60 -30 -1 0 1 11 3 24 5 26 -19 42 -35 23z"/>
<path d="M14486 4687 c-16 -67 -39 -146 -52 -174 -31 -71 -23 -79 84 -97 59
-10 113 30 114 85 2 45 -24 62 -84 55 -27 -3 -48 -2 -48 2 0 4 13 57 28 117
30 117 30 135 4 135 -13 0 -23 -27 -46 -123z m101 -183 c9 -23 -23 -44 -64
-44 -44 0 -44 26 0 45 42 19 56 18 64 -1z"/>
<path d="M12516 4610 c-20 -22 -36 -45 -36 -50 0 -6 -8 -18 -17 -28 -10 -10
-28 -42 -41 -72 -18 -43 -20 -57 -10 -67 19 -18 30 -6 77 87 24 47 53 95 64
108 l21 22 22 -21 c23 -21 44 -19 44 5 0 19 -44 56 -67 56 -11 0 -37 -18 -57
-40z"/>
<path d="M11275 4616 c-100 -45 -120 -163 -34 -206 63 -33 157 -22 119 13 -10
9 -11 9 -5 -3 7 -12 6 -13 -6 -3 -8 6 -31 14 -51 18 -52 10 -73 36 -62 76 13
44 59 78 82 61 30 -21 43 -25 53 -15 14 14 2 37 -30 56 -34 20 -28 20 -66 3z"/>
<path d="M9167 4603 c-3 -4 -10 -28 -17 -53 -7 -25 -23 -69 -37 -97 -13 -29
-22 -57 -18 -63 14 -22 34 -7 70 49 21 33 48 64 61 70 28 12 27 13 24 -70 -1
-39 3 -59 13 -68 20 -16 23 -8 32 80 8 91 -6 115 -61 106 -29 -5 -33 -3 -36
20 -3 26 -22 42 -31 26z"/>
<path d="M10267 4573 c-38 -31 -48 -45 -53 -79 -3 -23 -4 -50 -2 -59 5 -26 51
-57 88 -58 51 -3 48 20 -5 43 -60 26 -60 56 -1 77 57 19 78 41 74 77 -5 47
-42 47 -101 -1z"/>
<path d="M12725 4593 c-61 -32 -95 -74 -101 -126 -7 -58 41 -98 91 -75 28 13
33 36 10 44 -11 5 -2 15 32 36 59 37 73 54 73 90 0 46 -49 61 -105 31z m35
-64 c-43 -36 -92 -55 -83 -32 8 21 93 74 106 66 6 -4 -4 -18 -23 -34z m-80
-94 c0 -5 -5 -3 -10 5 -5 8 -10 20 -10 25 0 6 5 3 10 -5 5 -8 10 -19 10 -25z"/>
<path d="M12960 4572 c-29 -29 -40 -48 -40 -70 0 -36 24 -54 55 -42 19 7 21 5
17 -15 -3 -16 2 -27 16 -34 23 -12 32 -6 32 26 0 13 10 42 22 63 18 30 20 42
11 51 -9 9 -19 7 -45 -13 -18 -13 -41 -27 -51 -31 -14 -5 -16 -3 -8 12 13 23
55 51 76 51 29 0 12 35 -18 38 -22 3 -37 -6 -67 -36z"/>
<path d="M14746 4581 c-3 -5 -1 -32 4 -61 20 -108 17 -119 -60 -201 -74 -78
-89 -104 -71 -122 8 -8 15 -7 24 3 7 8 63 69 123 135 61 66 120 134 133 150
13 17 28 30 34 30 15 0 37 44 30 61 -9 25 -31 15 -72 -33 -22 -27 -51 -61 -65
-78 l-25 -30 -1 46 c0 78 -32 136 -54 100z"/>
<path d="M9982 4568 c-7 -7 -12 -21 -12 -31 0 -11 -11 -41 -25 -69 -29 -59
-31 -78 -7 -78 16 0 62 58 62 78 0 8 12 15 62 40 4 2 5 -26 1 -62 -5 -62 -5
-66 14 -66 22 0 33 37 33 117 0 50 -26 72 -65 55 -19 -9 -24 -7 -28 9 -6 22
-18 24 -35 7z"/>
<path d="M11489 4541 c-16 -16 -29 -36 -29 -44 0 -23 36 -50 58 -42 11 3 30 8
42 10 18 3 20 2 10 -10 -18 -22 -8 -60 15 -60 15 0 20 6 18 25 -1 14 2 40 7
58 6 22 5 36 -4 45 -7 6 -15 20 -19 30 -11 28 -64 22 -98 -12z m57 -26 c-20
-15 -36 -19 -36 -10 0 5 38 23 50 24 3 0 -4 -6 -14 -14z"/>
<path d="M11758 4555 c-16 -9 -28 -11 -28 -5 0 5 -9 10 -20 10 -14 0 -21 -9
-25 -37 -4 -21 -10 -49 -14 -63 -18 -59 18 -68 46 -12 20 38 78 85 97 79 6 -2
10 -21 8 -43 -8 -117 -7 -129 9 -132 13 -2 18 7 22 35 3 21 11 57 18 81 12 37
11 47 -2 70 -18 32 -69 40 -111 17z"/>
<path d="M9368 4553 c-2 -4 -1 -48 2 -98 4 -70 8 -90 20 -90 36 0 35 186 -2
193 -9 2 -18 -1 -20 -5z"/>
<path d="M9503 4548 c-5 -7 -20 -40 -33 -73 -25 -65 -138 -276 -153 -286 -14
-10 -4 -43 15 -47 11 -2 26 16 48 60 18 35 36 68 40 73 18 23 60 105 90 178
29 69 31 80 18 93 -12 12 -17 13 -25 2z"/>
<path d="M9754 4514 c-30 -50 -35 -94 -14 -118 19 -24 58 -19 85 10 27 29 33
54 13 54 -9 0 -9 3 0 12 7 7 12 24 12 38 0 32 -17 50 -47 50 -16 0 -30 -13
-49 -46z m50 -41 c-8 -32 -21 -50 -30 -40 -9 8 16 67 27 67 5 0 6 -12 3 -27z"/>
<path d="M14190 4516 c-13 -36 2 -72 35 -80 32 -8 92 19 113 51 13 20 12 23
-3 29 -10 4 -28 -2 -45 -15 -39 -28 -58 -27 -62 6 -4 36 -26 41 -38 9z"/>
<path d="M15043 4404 c-3 -8 -1 -20 5 -26 16 -16 42 -2 42 22 0 24 -38 28 -47
4z"/>
<path d="M8358 4187 c-61 -46 -137 -164 -198 -311 -29 -69 -57 -126 -62 -126
-4 0 -8 -9 -8 -20 0 -28 36 -26 54 3 8 12 33 69 56 126 50 126 130 253 183
292 22 16 44 29 49 29 9 0 10 -105 0 -170 -7 -44 -8 -45 -57 -58 -27 -7 -67
-10 -87 -7 -41 6 -57 -8 -37 -32 11 -13 27 -14 86 -9 l73 6 1 -93 c1 -50 1
-96 0 -101 -1 -4 4 -14 10 -22 9 -11 15 -12 26 -2 11 9 13 29 8 92 -7 97 3
140 33 144 12 2 22 9 22 15 0 7 4 6 10 -3 11 -18 25 -7 17 15 -4 9 -19 15 -38
15 -30 0 -31 1 -24 38 12 73 10 179 -4 196 -21 26 -65 19 -113 -17z"/>
<path d="M8795 4141 c-103 -60 -156 -142 -163 -255 -3 -62 -1 -75 20 -105 32
-47 87 -73 168 -79 84 -6 122 2 119 26 -1 9 1 25 6 35 4 10 3 23 -2 28 -15 15
-63 -11 -63 -34 0 -18 -5 -19 -57 -13 -135 16 -176 75 -138 202 18 63 68 122
133 157 l50 27 -8 -34 c-4 -18 -3 -41 2 -50 21 -37 98 -2 98 45 0 23 -18 60
-34 71 -24 16 -83 7 -131 -21z"/>
<path d="M9802 3613 c1054 -2 2782 -2 3840 0 1058 1 195 2 -1917 2 -2112 0
-2977 -1 -1923 -2z"/>
<path d="M9608 3466 c-105 -12 -134 -26 -101 -47 19 -11 20 -15 7 -63 -7 -28
-14 -68 -16 -89 -2 -36 -3 -37 -34 -31 -23 4 -33 2 -37 -9 -7 -19 10 -34 42
-39 22 -3 24 -7 25 -83 1 -73 3 -80 21 -80 18 0 20 7 20 75 1 72 2 75 24 72
12 -2 30 2 39 10 11 9 14 10 8 1 -5 -9 1 -13 19 -13 29 0 45 27 24 41 -8 5
-36 9 -63 9 l-48 0 5 54 c3 29 13 70 22 91 14 28 15 39 6 44 -13 9 92 21 175
21 33 0 56 5 64 15 30 37 -19 42 -202 21z"/>
<path d="M11586 3462 c-3 -4 -8 -61 -12 -125 l-7 -116 -28 -6 c-16 -4 -33 -4
-38 -1 -5 3 -14 -1 -21 -10 -20 -23 1 -37 48 -33 l39 4 6 -109 c7 -110 14
-135 38 -121 9 6 10 37 6 121 l-6 114 47 0 c60 0 81 12 63 34 -15 18 -91 22
-91 6 0 -5 -5 -10 -11 -10 -8 0 -9 27 -4 98 12 153 12 156 -7 160 -9 2 -19 -1
-22 -6z"/>
<path d="M8623 3399 c-40 -41 -58 -52 -85 -53 -26 -1 -33 -5 -33 -21 0 -32 58
-33 101 0 19 14 34 22 34 18 0 -4 -7 -48 -15 -98 -8 -49 -15 -112 -15 -139 l0
-48 -72 5 c-40 3 -83 8 -94 12 -34 11 -39 -21 -7 -42 22 -15 51 -18 153 -19
69 -1 134 -3 145 -5 12 -3 21 2 23 12 3 18 -37 39 -77 39 l-27 0 4 63 c3 64
40 288 47 296 6 5 -15 31 -24 31 -3 0 -29 -23 -58 -51z"/>
<path d="M10457 3384 c-4 -4 -4 -24 -1 -44 3 -21 -3 -94 -16 -166 -16 -98 -19
-136 -11 -156 6 -16 16 -28 22 -28 7 0 34 24 60 52 l48 52 16 -37 c24 -57 95
-82 103 -36 1 11 -7 18 -28 22 -18 4 -30 13 -30 22 0 9 -3 14 -7 12 -5 -3 -9
7 -10 21 -2 32 -29 55 -52 42 -28 -14 -71 -62 -65 -71 3 -5 0 -9 -5 -9 -15 0
-14 18 4 116 20 103 17 208 -5 212 -9 1 -19 0 -23 -4z"/>
<path d="M9026 3292 c-13 -21 44 -58 62 -40 17 17 -4 48 -33 48 -13 0 -26 -4
-29 -8z"/>
<path d="M12123 3287 c-47 -17 -93 -61 -93 -89 0 -16 22 -44 70 -89 39 -36 70
-68 70 -72 0 -11 -29 -8 -50 5 -32 20 -45 -3 -20 -35 39 -50 110 -26 110 37 0
27 -13 41 -104 118 -46 39 -13 83 69 90 27 3 40 9 40 18 0 8 -5 15 -12 15 -6
0 -15 3 -19 8 -10 9 -22 8 -61 -6z"/>
<path d="M10064 3265 c-8 -21 4 -35 31 -35 24 0 35 16 28 38 -6 17 -52 15 -59
-3z"/>
<path d="M9737 3253 c-4 -3 -7 -17 -7 -30 0 -16 6 -23 19 -23 19 0 31 18 31
46 0 14 -31 20 -43 7z"/>
<path d="M11801 3242 c-74 -28 -109 -124 -64 -174 40 -46 147 -66 160 -30 4 9
11 20 16 23 18 12 -2 39 -29 39 -17 0 -28 -6 -31 -20 -3 -11 -7 -20 -9 -20
-11 0 -74 30 -74 35 0 3 24 16 53 29 92 41 119 83 79 119 -23 21 -45 21 -101
-1z m69 -40 c0 -9 -90 -55 -96 -49 -3 2 -2 11 2 20 9 24 94 50 94 29z m35
-122 c3 -5 1 -10 -4 -10 -6 0 -11 5 -11 10 0 6 2 10 4 10 3 0 8 -4 11 -10z"/>
<path d="M10213 3224 c-25 -11 -12 -53 32 -105 25 -29 45 -56 45 -61 0 -12
-40 -30 -56 -24 -8 3 -14 15 -14 26 0 13 -7 20 -19 20 -29 0 -33 -15 -17 -55
13 -31 19 -35 53 -35 41 0 76 19 93 51 13 23 3 45 -48 101 l-37 41 29 -5 c17
-3 36 -4 43 -1 14 6 18 29 6 36 -14 9 -98 16 -110 11z"/>
<path d="M11055 3196 c-49 -27 -76 -77 -73 -131 5 -64 29 -56 62 20 28 64 60
100 79 88 5 -3 6 -34 2 -72 -5 -49 -3 -71 8 -85 8 -10 18 -16 24 -13 15 10 16
192 1 205 -21 16 -61 11 -103 -12z"/>
<path d="M9870 3170 c-11 -11 -20 -25 -20 -32 0 -6 -10 -31 -21 -56 -16 -33
-19 -46 -10 -55 19 -19 43 4 61 59 24 70 45 66 45 -9 0 -40 4 -61 15 -67 30
-19 40 -11 40 34 0 120 -54 182 -110 126z"/>
<path d="M11278 3173 c-8 -10 -18 -26 -21 -35 -9 -26 12 -86 36 -103 31 -22
94 -20 106 3 22 41 -41 152 -86 152 -11 0 -27 -8 -35 -17z m54 -50 c21 -25 32
-63 18 -63 -28 0 -50 22 -50 50 0 34 10 38 32 13z"/>
<path d="M9021 3139 c-42 -25 -29 -45 23 -35 30 6 36 11 36 31 0 30 -15 31
-59 4z"/>
<path d="M10062 3137 c-10 -12 -15 -49 -13 -99 1 -21 6 -28 21 -28 16 0 20 7
20 34 0 18 3 47 6 63 6 33 -16 52 -34 30z"/>
<path d="M9699 3113 c-6 -16 -13 -52 -16 -80 -5 -44 -3 -54 12 -59 20 -8 35
10 28 35 -2 9 3 37 10 63 11 33 11 50 4 57 -17 17 -27 13 -38 -16z"/>
<path d="M9797 2923 c1058 -2 2788 -2 3845 0 1058 1 193 2 -1922 2 -2115 0
-2980 -1 -1923 -2z"/>
<path d="M8633 2805 c-3 -9 2 -60 11 -113 22 -131 21 -165 -2 -158 -47 15
-110 -64 -120 -150 -13 -117 73 -170 125 -77 51 92 67 234 43 378 -6 40 -6 61
0 63 19 7 10 40 -15 56 -30 20 -34 20 -42 1z m15 -371 c-12 -62 -52 -139 -68
-129 -29 18 -17 117 19 159 14 16 52 37 58 32 2 -2 -2 -29 -9 -62z"/>
<path d="M12636 2782 c-3 -4 0 -67 5 -138 14 -180 -1 -268 -45 -262 -12 2 -22
11 -24 21 -6 28 17 74 39 80 23 6 25 32 3 41 -45 17 -104 -79 -84 -139 24 -73
99 -71 138 5 22 42 23 53 18 170 -10 224 -10 224 -28 228 -9 2 -19 -1 -22 -6z"/>
<path d="M10271 2757 c-7 -10 -8 -23 -2 -43 5 -16 11 -66 14 -111 l4 -83 -27
0 c-32 0 -41 -7 -33 -26 3 -8 18 -14 34 -14 28 0 29 -2 29 -45 0 -32 -4 -45
-14 -45 -15 0 -29 -27 -21 -40 3 -5 22 -8 43 -7 l37 2 3 67 3 66 59 4 59 3 6
-55 c8 -71 12 -83 28 -78 8 3 14 34 17 86 5 82 5 82 40 101 39 21 53 51 23 51
-30 0 -103 -39 -103 -54 0 -11 -18 -15 -70 -18 l-70 -3 0 73 c0 118 -30 204
-59 169z"/>
<path d="M15276 2738 c-3 -7 -7 -31 -11 -52 -4 -22 -26 -79 -51 -127 -46 -93
-63 -171 -43 -195 19 -23 39 2 39 49 0 27 14 67 46 131 38 73 47 102 48 145 1
35 -3 55 -11 58 -7 3 -15 -1 -17 -9z"/>
<path d="M7715 2703 c-34 -9 -155 -112 -155 -133 0 -31 21 -34 44 -8 24 28
109 98 120 98 19 0 -38 -74 -142 -184 -134 -142 -159 -177 -137 -196 11 -9 18
-6 37 15 42 49 53 50 124 10 52 -29 68 -34 79 -25 20 17 13 24 -60 66 -36 19
-65 37 -65 39 0 2 32 37 72 77 74 76 148 179 148 208 0 19 -19 41 -34 39 -6
-1 -20 -4 -31 -6z"/>
<path d="M10984 2678 c4 -18 10 -54 13 -79 l5 -46 -61 -7 c-51 -6 -61 -10 -61
-26 0 -18 7 -20 60 -20 l60 0 0 -33 c0 -49 21 -147 32 -147 5 0 6 -4 3 -10 -9
-15 11 -12 23 3 7 8 8 27 2 52 -4 22 -10 59 -13 82 l-4 42 46 3 c64 4 63 30
-1 41 l-46 9 -5 56 c-2 32 -7 66 -10 77 -3 11 -6 23 -6 28 -1 4 -11 7 -22 7
-19 0 -21 -4 -15 -32z"/>
<path d="M14284 2652 c-26 -31 -70 -73 -97 -92 -27 -19 -62 -45 -77 -57 -29
-24 -50 -30 -50 -14 0 6 7 40 16 77 17 77 16 129 -5 129 -9 0 -19 -27 -31 -86
-10 -47 -30 -121 -45 -164 -14 -43 -27 -96 -28 -119 -2 -35 1 -41 19 -44 19
-3 22 3 26 48 9 91 83 129 192 99 36 -10 38 -12 32 -42 -12 -64 -11 -71 6 -75
18 -3 48 52 48 88 0 31 -34 62 -84 74 l-47 12 39 27 c59 42 172 166 165 182
-10 27 -29 16 -79 -43z"/>
<path d="M15607 2694 c-4 -4 -7 -43 -7 -87 0 -66 -2 -78 -15 -73 -22 8 -55
-33 -55 -70 0 -38 19 -57 57 -52 22 2 29 10 39 45 7 23 14 86 15 140 3 81 0
98 -12 101 -8 1 -18 0 -22 -4z m-17 -224 c0 -5 -4 -10 -10 -10 -5 0 -10 5 -10
10 0 6 5 10 10 10 6 0 10 -4 10 -10z"/>
<path d="M12844 2656 c-7 -19 13 -56 31 -56 18 0 20 41 3 58 -16 16 -27 15
-34 -2z"/>
<path d="M9993 2590 c-27 -11 -38 -43 -22 -67 6 -10 33 -35 60 -56 58 -45 61
-66 14 -102 -32 -25 -63 -27 -49 -3 4 6 -1 8 -12 6 -23 -5 -22 -47 2 -64 23
-18 52 -6 100 41 61 58 58 76 -18 147 -35 32 -57 58 -51 58 17 0 44 30 38 41
-7 11 -33 11 -62 -1z"/>
<path d="M8864 2582 c-6 -4 -23 -25 -38 -46 -61 -90 -9 -206 93 -206 45 0 61
10 61 36 0 25 -22 32 -49 15 -21 -14 -67 7 -80 35 -18 41 -14 50 22 46 39 -4
97 37 97 69 0 42 -69 76 -106 51z m53 -49 c5 -14 -34 -36 -48 -27 -7 4 -4 13
7 25 18 20 35 21 41 2z"/>
<path d="M9111 2523 c-27 -95 -32 -149 -15 -164 18 -15 20 -13 54 58 24 48 29
54 29 31 1 -42 19 -78 38 -78 10 0 35 19 56 43 23 25 40 37 43 30 18 -42 52
-78 77 -81 22 -3 27 1 27 17 0 12 -7 21 -15 21 -8 0 -22 15 -31 33 -21 42 -44
67 -60 67 -7 0 -29 -14 -49 -31 l-35 -31 0 29 c0 15 4 42 9 60 14 47 -9 64
-48 35 l-28 -20 5 24 c3 19 0 24 -17 24 -17 0 -24 -12 -40 -67z"/>
<path d="M11310 2563 c-28 -10 -69 -56 -80 -89 -9 -26 -8 -39 5 -63 23 -45 59
-64 118 -64 97 0 147 21 127 52 -7 12 -13 13 -35 3 -14 -7 -50 -12 -80 -12
-43 0 -60 5 -76 21 l-22 22 56 31 c69 38 77 54 42 83 -27 24 -30 25 -55 16z
m20 -47 c0 -2 -7 -7 -16 -10 -8 -3 -12 -2 -9 4 6 10 25 14 25 6z"/>
<path d="M15343 2523 c-46 -50 -64 -86 -60 -120 4 -39 14 -53 37 -53 24 0 36
18 21 33 -19 19 -12 34 19 47 74 30 100 78 64 114 -24 24 -43 19 -81 -21z"/>
<path d="M12071 2525 c-41 -35 -57 -86 -42 -136 20 -65 108 -117 125 -73 9 22
-1 34 -29 34 -30 0 -55 35 -55 75 0 49 25 75 71 75 32 0 39 4 39 19 0 39 -65
42 -109 6z"/>
<path d="M12962 2497 c-18 -18 -32 -41 -32 -50 0 -9 -3 -17 -8 -17 -4 0 -16
-16 -26 -35 -16 -28 -17 -38 -7 -48 10 -9 17 -6 37 16 13 15 24 35 24 43 0 9
16 32 36 52 l36 37 -7 -45 c-4 -25 -12 -53 -17 -64 -12 -22 3 -41 26 -33 30
12 49 140 24 165 -21 21 -53 13 -86 -21z"/>
<path d="M15736 2499 c-14 -17 -26 -36 -26 -43 0 -22 31 -56 51 -56 22 0 25
-28 8 -94 -7 -28 -21 -51 -40 -65 -33 -25 -63 -77 -55 -97 14 -35 74 3 107 68
8 15 47 50 87 78 40 28 70 55 67 60 -4 6 1 10 9 10 26 0 77 72 74 105 -3 28
-6 30 -45 33 -32 2 -47 -2 -62 -17 -30 -30 -37 -68 -17 -90 16 -18 15 -20 -14
-41 -19 -14 -28 -25 -21 -29 6 -4 -6 -8 -26 -8 -20 -1 -31 2 -24 6 8 5 11 30
9 72 -3 63 -4 64 -30 64 -33 -1 -36 10 -8 25 11 6 20 20 20 30 0 30 -34 25
-64 -11z m241 -52 c0 -7 -11 -21 -24 -30 -22 -17 -23 -17 -23 2 0 11 8 25 18
30 23 14 29 13 29 -2z m-27 -67 c0 -5 -5 -10 -11 -10 -5 0 -7 5 -4 10 3 6 8
10 11 10 2 0 4 -4 4 -10z"/>
<path d="M9485 2495 c-55 -54 -11 -155 69 -155 19 0 42 7 50 16 24 24 20 78
-9 112 -14 17 -25 35 -25 41 0 21 -60 12 -85 -14z m70 -50 c29 -28 32 -50 9
-59 -34 -13 -70 28 -59 65 8 25 21 24 50 -6z"/>
<path d="M9742 2480 c-38 -34 -43 -43 -40 -76 4 -53 25 -54 47 -2 10 24 26 49
35 57 14 12 16 10 16 -17 0 -59 38 -108 63 -83 7 7 7 18 0 33 -7 13 -14 43
-16 67 -9 73 -41 79 -105 21z"/>
<path d="M12315 2510 c-3 -5 -3 -16 1 -22 4 -7 4 -10 0 -6 -15 13 -46 -26 -46
-60 0 -65 90 -110 134 -66 22 21 20 66 -4 97 -11 14 -20 35 -20 46 0 17 -6 21
-29 21 -17 0 -33 -4 -36 -10z m56 -93 c14 -24 0 -38 -28 -31 -27 7 -39 40 -22
60 13 16 32 6 50 -29z"/>
<path d="M10663 2490 c-27 -11 -43 -40 -43 -78 0 -54 62 -83 123 -57 34 14 36
14 42 -5 8 -26 44 -45 57 -32 7 7 5 18 -6 33 -9 13 -16 38 -16 56 0 41 -20 43
-62 8 -33 -28 -83 -33 -92 -10 -10 26 5 45 34 45 36 0 49 19 25 37 -21 15 -31
15 -62 3z"/>
<path d="M14571 2465 c-33 -38 -42 -90 -19 -113 18 -18 59 -14 96 8 44 27 44
70 1 111 -17 16 -35 29 -39 29 -4 0 -22 -16 -39 -35z m63 -41 c4 -9 5 -18 4
-19 -7 -6 -47 -25 -52 -25 -12 0 -5 29 10 44 20 20 30 20 38 0z"/>
<path d="M13250 2483 c-33 -12 -50 -37 -50 -73 0 -60 34 -80 115 -68 18 3 20
-3 23 -49 l3 -53 -2733 -3 -2733 -2 2734 -3 2733 -2 -7 -27 c-4 -16 -8 -29
-10 -31 -2 -2 -37 2 -78 8 -96 16 -117 7 -117 -52 0 -85 44 -168 90 -168 26 0
100 68 125 114 14 27 26 36 50 38 39 4 41 32 2 36 -21 3 -27 8 -23 19 3 8 6
25 6 39 l0 24 1098 3 1097 2 -1096 3 -1096 2 -6 78 c-3 42 -8 86 -11 97 -2 11
-5 23 -5 28 -2 20 -34 3 -52 -28 -23 -39 -54 -46 -64 -15 -9 29 2 40 41 40 27
0 34 4 34 19 0 26 -33 38 -70 24z m30 -352 c14 -4 26 -14 28 -22 3 -18 -64
-99 -84 -99 -20 0 -42 39 -50 88 l-7 42 44 -1 c24 -1 55 -4 69 -8z"/>
<path d="M14334 2453 c-3 -16 -10 -45 -16 -66 -9 -39 -4 -77 12 -77 11 0 17 7
66 73 19 26 39 47 44 47 5 0 10 -17 12 -37 2 -30 7 -38 23 -38 30 0 33 62 5
98 -28 35 -47 34 -86 -4 -29 -28 -41 -24 -21 7 8 13 -1 24 -19 24 -8 0 -16
-12 -20 -27z m46 -73 c0 -5 -2 -10 -4 -10 -3 0 -8 5 -11 10 -3 6 -1 10 4 10 6
0 11 -4 11 -10z"/>
<path d="M14798 2422 c-42 -64 -46 -83 -22 -103 13 -10 24 -9 65 8 45 20 49
20 49 4 0 -19 35 -61 51 -61 24 0 70 33 84 60 11 22 13 44 9 85 -6 50 -9 56
-28 53 -19 -3 -21 -10 -21 -66 0 -45 -4 -65 -15 -72 -25 -16 -35 -5 -32 38 1
22 -2 43 -7 47 -6 3 -36 -9 -67 -27 l-58 -32 33 48 c32 46 35 76 9 76 -7 0
-30 -26 -50 -58z"/>
<path d="M12770 2396 c0 -51 16 -68 37 -40 21 29 13 78 -14 82 -21 3 -23 -1
-23 -42z"/>
<path d="M7823 2374 c-7 -18 11 -39 26 -30 17 11 13 46 -4 46 -9 0 -18 -7 -22
-16z"/>
<path d="M9233 2090 c-18 -10 -39 -30 -48 -44 -9 -14 -26 -26 -38 -28 -19 -3
-22 -8 -19 -48 3 -39 -10 -140 -34 -272 -6 -34 -4 -38 14 -38 16 0 24 9 32 39
l10 40 25 -23 c32 -30 100 -60 119 -53 16 6 11 37 -5 37 -22 0 -90 53 -104 81
-15 29 -15 32 1 50 10 11 49 36 86 56 125 66 168 167 87 208 -39 21 -88 19
-126 -5z m105 -36 c12 -8 22 -19 22 -25 0 -21 -74 -89 -129 -116 l-60 -30 6
31 c9 55 45 117 77 137 38 23 55 24 84 3z"/>
<path d="M8214 2086 c-7 -19 3 -36 22 -36 10 0 14 8 12 22 -4 26 -26 36 -34
14z"/>
<path d="M9677 2086 c-3 -8 0 -48 7 -89 10 -60 10 -83 -1 -132 -8 -33 -18 -64
-23 -69 -17 -17 -11 -82 8 -99 39 -36 100 -11 133 54 37 74 15 130 -47 115
-14 -4 -24 -2 -24 4 0 6 -6 8 -12 4 -7 -4 -5 2 5 13 18 21 18 21 -1 159 -7 49
-33 72 -45 40z m98 -288 c-10 -32 -45 -68 -67 -68 -21 0 -21 -1 -7 37 15 46
87 75 74 31z"/>
<path d="M11098 2035 c-12 -12 -206 -35 -245 -29 -39 6 -43 4 -43 -15 0 -24
28 -41 54 -32 32 12 75 0 82 -21 3 -12 27 -53 53 -93 82 -125 92 -226 27 -266
-84 -51 -196 13 -196 113 0 28 5 38 20 43 24 7 27 33 5 41 -23 9 -63 -22 -70
-55 -9 -40 10 -104 41 -141 l26 -30 -266 0 c-263 0 -267 0 -256 20 15 28 2 70
-21 70 -15 0 -19 -7 -19 -33 0 -55 -7 -57 -197 -57 l-173 0 41 68 c23 37 55
87 72 111 32 47 49 102 37 121 -12 19 -40 4 -40 -22 0 -13 -8 -36 -19 -51 -16
-24 -19 -26 -31 -12 -7 8 -9 15 -5 15 4 0 2 7 -6 16 -12 14 -14 14 -26 -2 -12
-16 -13 -14 -13 18 0 41 -20 64 -38 46 -27 -27 -1 -117 40 -139 12 -6 25 -13
27 -15 2 -2 -18 -37 -43 -79 l-47 -75 -997 -2 -997 -3 992 -2 992 -3 -15 -28
c-36 -69 3 -85 42 -17 l22 40 173 2 174 3 -24 -20 c-12 -11 -27 -17 -32 -14
-13 8 -11 -20 3 -34 18 -18 25 -15 72 28 l44 41 294 -5 c161 -3 318 -5 348 -5
30 0 449 2 932 5 l876 4 -5 -58 c-4 -45 -2 -60 11 -71 29 -24 44 -6 51 63 l7
66 123 0 122 0 -8 -52 c-7 -44 -6 -55 8 -65 23 -18 33 -7 33 35 0 20 3 47 6
60 l6 22 1222 2 1221 3 -1070 2 -1070 3 3 91 3 90 42 -3 42 -3 -4 -67 c-3 -58
0 -69 15 -75 12 -4 21 -1 28 11 6 10 24 37 40 59 l29 41 12 -48 c14 -55 27
-71 50 -62 12 4 15 12 10 24 -4 9 -12 40 -17 67 -8 46 -28 75 -51 75 -5 0 -23
-15 -40 -32 l-30 -33 7 60 c3 33 14 89 22 123 16 62 10 93 -13 79 -9 -6 -35
-88 -48 -149 -5 -25 -10 -28 -45 -28 -46 0 -45 -1 -25 83 20 77 10 142 -20
142 -17 0 -20 -6 -17 -45 5 -58 -17 -160 -36 -167 -8 -3 -35 -1 -60 5 -33 7
-51 7 -60 0 -19 -16 3 -36 47 -44 75 -12 71 -7 71 -105 l0 -89 -124 0 -125 0
21 48 c12 26 32 64 45 84 25 41 28 54 14 62 -16 10 -39 -5 -51 -34 -19 -45
-37 -45 -60 0 -21 40 -33 49 -45 29 -10 -15 1 -51 30 -93 24 -35 24 -39 10
-66 l-16 -30 -119 0 -120 0 0 30 c0 27 3 30 34 30 81 0 191 120 167 183 -23
59 -118 54 -172 -11 -14 -16 -35 -32 -45 -34 -13 -2 -18 -11 -17 -28 1 -14 -6
-58 -14 -97 l-17 -73 -854 0 c-844 0 -855 0 -838 19 25 28 33 127 14 183 -9
24 -36 76 -62 116 -25 40 -46 76 -46 80 0 4 43 18 95 31 77 20 95 28 95 43 0
14 -8 18 -38 18 -21 0 -41 -2 -44 -5z m1898 -259 c16 -42 -97 -141 -134 -118
-16 10 28 94 61 117 27 19 66 19 73 1z"/>
<path d="M8187 1933 c-4 -3 -7 -25 -7 -48 0 -23 -7 -63 -16 -88 -23 -69 -1
-108 29 -51 12 22 15 24 26 10 17 -21 43 -7 71 39 12 19 25 35 28 35 4 0 17
-23 29 -50 16 -37 27 -50 42 -50 26 0 26 11 1 60 -11 22 -20 46 -20 53 0 24
-34 59 -50 52 -8 -4 -35 -31 -59 -61 -23 -31 -45 -54 -47 -52 -2 3 1 31 6 64
5 32 7 67 4 76 -5 18 -25 24 -37 11z"/>
<path d="M11576 1823 c-4 -9 -9 -43 -13 -75 -3 -32 -9 -60 -12 -63 -18 -10
-35 17 -36 57 -1 49 -26 64 -45 28 -15 -28 2 -79 37 -114 26 -26 67 -34 78
-16 10 16 35 182 29 191 -9 15 -31 10 -38 -8z"/>
<path d="M11274 1812 c-25 -17 -64 -81 -64 -105 0 -16 10 -33 26 -46 33 -26
40 -26 85 -2 l36 20 22 -30 c21 -29 45 -37 55 -20 3 5 -5 29 -19 53 -14 23
-25 37 -25 29 0 -8 -2 -12 -5 -9 -3 2 2 19 11 36 18 37 10 75 -14 70 -11 -2
-18 -15 -20 -36 -5 -53 -95 -107 -109 -65 -2 6 14 29 36 51 30 29 37 42 29 50
-14 14 -28 15 -44 4z"/>
<path d="M9482 1798 c-7 -7 -8 -17 -2 -29 12 -21 4 -45 -15 -53 -9 -3 -23 9
-36 32 -12 20 -23 38 -24 40 -1 1 -10 0 -19 -4 -26 -10 -19 -38 22 -82 43 -47
68 -48 102 -4 22 27 26 63 10 93 -12 22 -21 24 -38 7z"/>
<path d="M12405 1800 c-27 -5 -67 -6 -87 -3 -34 5 -38 3 -38 -16 0 -28 35 -36
123 -25 61 8 72 12 72 28 0 24 -7 25 -70 16z"/>
<path d="M11715 1784 c-38 -38 -47 -110 -17 -137 26 -24 45 -21 80 11 l30 28
20 -23 c25 -29 71 -41 83 -22 13 21 6 42 -14 45 -40 6 -46 13 -49 61 l-3 48
-56 3 c-43 2 -61 -2 -74 -14z m75 -33 c0 -14 -50 -71 -62 -71 -12 0 -2 48 14
67 12 15 48 17 48 4z"/>
<path d="M13765 1790 c-3 -4 1 -11 7 -14 10 -5 10 -7 1 -12 -7 -3 -9 -12 -6
-20 3 -9 0 -26 -7 -39 -16 -31 -5 -92 20 -105 43 -23 134 3 149 43 20 55 -33
127 -95 127 -19 0 -34 4 -34 9 0 13 -28 22 -35 11z m113 -88 c19 -25 14 -40
-18 -57 -38 -19 -47 -19 -59 3 -7 14 -5 27 9 50 21 33 43 35 68 4z"/>
<path d="M14004 1776 c-3 -8 -3 -20 1 -25 3 -6 -1 -38 -11 -71 -30 -107 -2
-118 79 -31 l55 60 6 -44 c11 -72 81 -118 149 -98 22 6 33 16 35 30 3 21 0 22
-45 17 -68 -9 -92 12 -100 88 -9 86 -24 92 -81 31 l-48 -51 1 51 c0 41 -4 52
-18 55 -9 2 -20 -3 -23 -12z"/>
<path d="M14465 1590 c-4 -7 -3 -16 3 -22 14 -14 45 -2 40 15 -6 16 -34 21
-43 7z"/>
<path d="M10170 1392 c-25 -20 -38 -80 -39 -177 -1 -58 -2 -61 -32 -72 -37
-14 -34 -37 6 -41 l28 -4 -7 -74 c-6 -69 -5 -74 13 -74 25 0 31 18 31 91 0 56
1 59 25 59 14 0 25 5 25 10 0 6 -7 10 -16 10 -8 0 -12 5 -9 10 3 6 1 10 -4 10
-7 0 -11 32 -11 84 0 47 -4 88 -10 91 -16 10 -12 25 5 19 9 -4 15 0 15 10 0
19 11 21 27 5 13 -13 43 -5 43 11 0 15 -38 50 -54 50 -8 0 -24 -8 -36 -18z"/>
<path d="M8763 1375 c-10 -28 26 -55 72 -55 42 0 42 0 78 -71 32 -61 37 -80
37 -139 0 -71 -15 -169 -28 -182 -14 -14 -110 88 -129 137 -24 63 -32 96 -23
90 6 -4 10 1 10 9 0 17 -27 21 -49 7 -12 -8 -12 -17 -1 -58 33 -126 157 -261
212 -232 31 17 66 187 41 202 -5 2 -2 2 5 1 26 -7 7 104 -32 186 l-24 49 34 7
c21 4 40 2 49 -6 21 -18 47 -4 43 22 -3 22 -6 23 -111 20 -81 -2 -114 1 -137
13 -36 19 -39 19 -47 0z"/>
<path d="M9170 1378 c-45 -13 -60 -25 -60 -50 0 -44 35 -91 110 -148 79 -61
120 -111 120 -148 0 -43 -92 -75 -140 -50 -14 8 -32 32 -41 58 -10 25 -22 44
-28 43 -6 -2 -11 2 -11 9 0 9 -3 9 -11 1 -16 -16 15 -104 46 -133 36 -33 109
-38 163 -11 93 48 91 112 -9 212 -47 47 -65 59 -82 55 -12 -3 -17 -3 -10 0 8
3 0 17 -22 40 -37 37 -45 68 -19 78 9 3 38 6 66 6 42 0 51 -3 55 -21 6 -21 48
-43 64 -33 16 10 9 40 -14 62 -41 39 -107 50 -177 30z"/>
<path d="M9928 1305 c-6 -28 16 -59 36 -52 6 2 11 19 11 38 0 27 -4 35 -21 37
-16 2 -23 -3 -26 -23z"/>
<path d="M11967 1313 c-3 -4 -8 -80 -12 -168 -6 -143 -4 -164 12 -195 34 -66
129 -60 173 12 53 88 -18 153 -108 98 -18 -11 -34 -20 -37 -20 -2 0 -2 36 2
80 5 61 3 80 -7 80 -10 0 -10 3 -1 14 15 18 10 98 -6 103 -6 2 -13 0 -16 -4z
m147 -289 c6 -17 -6 -38 -34 -61 -35 -29 -100 1 -69 32 17 17 70 45 85 45 7 0
15 -7 18 -16z"/>
<path d="M12268 1293 c0 -4 -2 -39 -3 -78 -1 -38 -14 -117 -28 -175 -15 -58
-28 -122 -29 -142 l-3 -38 -645 0 -645 0 1 42 c1 40 3 43 27 40 18 -2 36 7 63
32 35 33 38 41 42 101 4 57 2 65 -13 65 -12 0 -16 6 -12 20 3 14 -1 24 -14 31
-17 8 -25 5 -50 -22 -16 -18 -28 -38 -25 -46 3 -7 2 -13 -3 -13 -5 0 -16 -18
-25 -40 -9 -22 -23 -40 -31 -40 -13 0 -15 -9 -9 -49 3 -28 3 -66 0 -85 l-7
-36 -1487 -2 -1487 -3 1485 -5 c1311 -4 1485 -7 1486 -20 0 -8 -4 -21 -10 -28
-6 -9 -4 -18 7 -29 21 -22 44 -3 53 43 l6 34 2321 0 c1276 0 2323 2 2325 5 3
3 -738 5 -1646 5 l-1652 0 0 48 c0 26 11 94 25 152 25 105 29 163 16 209 -6
24 -29 41 -33 24z m-1262 -238 c-7 -18 -18 -40 -25 -49 -13 -15 -15 -15 -28 4
-12 17 -12 27 -2 58 6 20 19 45 28 55 15 18 16 18 27 -8 8 -20 8 -36 0 -60z"/>
<path d="M13031 1253 c-34 -7 -71 -33 -71 -49 0 -22 28 -28 45 -10 17 16 88
22 133 10 21 -6 32 -34 12 -34 -13 0 -114 -99 -135 -132 -14 -23 -15 -33 -5
-62 14 -42 36 -64 51 -49 8 8 7 22 -2 48 l-14 37 83 79 c96 92 105 120 47 145
-40 16 -108 25 -144 17z"/>
<path d="M11751 1176 c-9 -10 -8 -16 4 -26 19 -16 41 1 32 24 -8 20 -21 20
-36 2z"/>
<path d="M11405 1151 c-22 -10 -48 -26 -58 -35 -15 -15 -15 -20 -3 -45 8 -15
22 -33 31 -41 13 -11 15 -10 9 6 -4 10 -4 16 0 12 13 -11 17 -66 6 -73 -7 -4
-29 1 -51 11 -30 13 -42 15 -51 6 -9 -9 -4 -19 22 -42 43 -36 70 -37 109 -4
39 32 39 54 1 97 -16 19 -30 39 -30 44 0 13 45 33 75 33 13 0 27 5 30 10 3 6
1 10 -5 10 -6 0 -9 4 -6 9 5 8 -16 21 -32 21 -4 0 -25 -9 -47 -19z"/>
<path d="M10222 1120 c15 -24 78 -29 78 -6 0 8 -5 18 -12 22 -7 4 -8 3 -4 -4
4 -7 2 -12 -3 -12 -6 0 -11 5 -11 10 0 6 -14 10 -30 10 -28 0 -29 -2 -18 -20z"/>
<path d="M11561 1104 c-21 -27 -19 -46 11 -78 28 -31 22 -66 -15 -79 -27 -10
-17 -42 13 -42 16 0 32 11 47 34 29 44 29 69 -2 105 -28 32 -25 46 11 46 17 0
24 5 24 20 0 32 -62 28 -89 -6z"/>
<path d="M11165 1110 c-4 -6 -16 -15 -28 -19 -14 -5 -24 -24 -34 -61 -12 -46
-11 -56 2 -76 12 -19 25 -24 55 -24 22 0 45 7 54 16 23 22 20 77 -5 100 -11
10 -18 26 -16 36 6 21 -18 45 -28 28z m15 -100 c13 -25 5 -40 -21 -40 -19 0
-24 15 -13 44 8 22 21 20 34 -4z"/>
<path d="M12437 1099 c-24 -14 -57 -82 -57 -119 0 -86 106 -128 201 -79 43 21
47 42 10 47 -13 2 -21 0 -18 -5 13 -21 -110 -19 -134 3 -27 25 -24 30 27 44
78 22 93 53 48 95 -29 27 -49 30 -77 14z m48 -49 c3 -5 2 -10 -4 -10 -5 0 -18
-3 -28 -7 -16 -6 -16 -5 -4 10 15 19 27 22 36 7z"/>
<path d="M9912 1074 c-17 -12 -22 -25 -22 -59 0 -59 15 -97 38 -93 14 3 16 12
14 55 -3 35 1 59 12 75 25 38 -1 51 -42 22z"/>
<path d="M11722 1028 c-16 -21 -34 -91 -30 -123 2 -22 8 -30 23 -30 16 0 20 7
22 38 0 21 6 51 13 67 19 45 -2 79 -28 48z"/>
<path d="M13017 753 c-4 -3 -7 -15 -7 -25 0 -14 6 -19 23 -16 29 4 38 48 9 48
-10 0 -22 -3 -25 -7z"/>
</g>
</svg>
