<?xml version="1.0" standalone="no"?>
<!DOCTYPE svg PUBLIC "-//W3C//DTD SVG 20010904//EN"
 "http://www.w3.org/TR/2001/REC-SVG-20010904/DTD/svg10.dtd">
<svg version="1.0" xmlns="http://www.w3.org/2000/svg"
 width="1618.000000pt" height="1214.000000pt" viewBox="0 0 1618.000000 1214.000000"
 preserveAspectRatio="xMidYMid meet">

<g transform="translate(0.000000,1214.000000) scale(0.100000,-0.100000)"
fill="#000000" stroke="none">
<path d="M14183 11688 c-6 -7 -13 -33 -16 -58 -3 -27 -30 -92 -66 -162 -34
-64 -61 -124 -61 -132 0 -19 33 -21 52 -3 7 6 29 23 47 36 l34 24 -7 -24 c-3
-13 -9 -33 -12 -45 -14 -54 54 -65 165 -27 96 34 71 69 -28 39 -100 -31 -94
-30 -88 -7 3 11 1 21 -4 21 -5 0 -9 5 -9 10 0 6 7 10 15 10 21 0 20 59 -1 67
-9 3 -32 -2 -51 -11 l-35 -17 35 63 c48 87 85 207 66 219 -19 12 -25 11 -36
-3z"/>
<path d="M8401 11669 c-12 -13 -21 -29 -21 -38 0 -8 -3 -11 -7 -8 -9 9 -45
-52 -38 -64 4 -5 2 -9 -3 -9 -6 0 -19 -17 -30 -37 -11 -21 -41 -74 -66 -118
-50 -87 -57 -115 -27 -115 14 0 27 17 46 58 23 49 28 55 37 39 8 -15 17 -18
45 -12 19 3 41 9 50 12 13 5 15 -5 12 -68 l-4 -74 -255 -5 c-140 -3 550 -7
1533 -8 l1789 -2 -32 -40 c-31 -40 -34 -70 -7 -70 7 0 31 25 53 55 l39 55 228
0 c195 0 227 -2 227 -15 0 -14 13 -20 35 -15 6 1 53 -3 105 -10 107 -14 245
-2 286 25 20 13 221 15 1596 18 l1573 2 -1579 3 c-1554 2 -1578 2 -1573 21 4
15 0 19 -17 19 -26 -2 -48 -17 -40 -29 3 -5 -26 -9 -64 -9 l-70 0 14 41 c8 22
27 66 43 97 40 79 66 183 49 194 -23 14 -32 3 -48 -63 -9 -35 -35 -103 -58
-150 -45 -92 -49 -105 -29 -112 6 -3 -142 -6 -329 -6 -296 -1 -343 1 -348 14
-7 19 -40 19 -60 0 -13 -13 -138 -15 -1005 -15 -984 0 -991 0 -991 20 0 15 -7
20 -24 20 -34 0 -40 15 -38 88 3 61 2 63 -20 60 -12 -2 -28 -14 -35 -28 -7
-14 -13 -21 -13 -17 0 5 -12 -1 -26 -12 -27 -22 -54 -28 -54 -12 0 19 51 61
74 61 32 0 43 18 23 37 -37 37 -137 -36 -137 -99 0 -62 41 -76 102 -34 l36 24
6 -39 c4 -22 13 -42 21 -45 51 -20 -31 -24 -472 -24 -379 0 -484 3 -475 12 7
7 12 37 12 67 0 64 4 72 43 89 34 15 31 36 -7 40 -27 3 -28 4 -22 59 4 35 2
61 -5 70 -9 10 -8 13 0 13 8 0 11 17 9 52 -3 61 -23 73 -57 37z m11 -154 l-7
-90 -47 -9 c-27 -5 -51 -7 -54 -3 -4 3 4 22 16 41 12 20 19 36 15 36 -3 0 1 7
10 16 9 9 14 23 11 30 -3 8 -1 14 3 14 5 0 20 17 32 37 13 20 24 32 26 27 2
-5 0 -49 -5 -99z"/>
<path d="M12546 11663 c-4 -4 -13 -8 -19 -8 -7 -1 -59 -5 -117 -10 -58 -5
-148 -9 -200 -9 -78 -1 -95 -4 -95 -16 0 -24 330 -25 422 -2 44 11 68 22 68
31 0 15 -47 26 -59 14z"/>
<path d="M13680 11551 c0 -27 19 -36 37 -18 18 18 9 37 -18 37 -12 0 -19 -7
-19 -19z"/>
<path d="M10516 11523 c-4 -5 -11 -8 -14 -8 -18 -2 -94 -48 -98 -60 -6 -14 25
-75 37 -75 4 0 12 -14 19 -30 18 -44 -1 -63 -52 -55 -30 5 -38 4 -38 -8 0 -22
25 -38 60 -39 34 -1 90 44 90 73 0 9 -16 39 -35 67 -38 56 -37 60 29 87 25 11
36 21 34 32 -3 19 -21 27 -32 16z"/>
<path d="M10131 11463 c-46 -68 -105 -129 -143 -149 -32 -16 -39 -54 -10 -54
9 0 37 16 61 35 40 32 46 34 61 20 23 -21 53 -19 84 6 l27 21 -7 -27 c-8 -33
13 -75 38 -75 21 0 38 32 20 38 -17 5 -15 34 8 92 22 55 20 70 -9 70 -19 0
-51 -30 -51 -47 0 -6 -8 -13 -17 -16 -10 -4 -28 -14 -40 -23 -22 -16 -22 -16
-13 16 5 18 23 54 40 81 18 26 29 53 25 59 -14 22 -36 8 -74 -47z"/>
<path d="M13263 11509 c-18 -5 -33 -14 -33 -20 0 -5 -6 -9 -12 -7 -7 2 -33 -3
-58 -11 -25 -7 -51 -15 -58 -17 -8 -2 -12 -10 -10 -17 8 -22 58 -19 125 8 36
14 67 24 70 21 2 -2 -7 -22 -21 -45 -31 -48 -31 -51 -9 -51 21 0 14 -7 -12
-12 -21 -3 -74 -64 -75 -86 0 -23 29 -24 65 -2 19 12 35 26 35 31 0 5 3 8 8 7
4 -1 21 5 38 15 35 18 44 14 44 -18 0 -12 6 -29 13 -40 24 -32 59 -12 100 57
40 67 45 93 23 101 -17 7 -28 -5 -45 -48 -6 -16 -20 -41 -31 -55 l-20 -25 0
36 c0 50 -19 64 -64 49 -19 -6 -37 -16 -39 -23 -2 -7 -8 -9 -12 -5 -4 4 3 25
17 45 38 57 43 81 22 104 -19 21 -16 21 -61 8z"/>
<path d="M10686 11445 c-47 -46 -56 -60 -56 -90 0 -50 36 -85 87 -85 49 0 84
10 77 21 -3 5 0 9 5 9 6 0 11 5 11 10 0 13 -41 13 -74 0 -17 -6 -26 -6 -26 0
0 6 -7 10 -15 10 -29 0 -15 36 23 57 20 12 48 33 61 47 23 24 23 26 7 51 -9
14 -23 25 -30 25 -8 0 -39 -25 -70 -55z"/>
<path d="M11018 11486 c-15 -8 -40 -16 -55 -18 -34 -4 -52 -46 -52 -125 -1
-47 1 -53 19 -53 11 0 20 6 20 14 0 29 40 107 67 130 22 19 33 22 62 15 39 -9
51 -5 51 16 0 33 -66 45 -112 21z"/>
<path d="M13875 11495 c-5 -1 -29 -8 -53 -16 -77 -23 -73 -62 9 -105 31 -16
32 -17 14 -30 -10 -8 -38 -14 -61 -14 -43 0 -62 -18 -41 -39 25 -25 138 3 156
38 13 25 -5 59 -45 83 -36 21 -36 22 -13 30 13 5 39 7 57 3 24 -4 34 -2 38 10
12 29 -23 52 -61 40z"/>
<path d="M8647 11460 c-35 -28 -34 -40 9 -102 35 -52 32 -77 -6 -43 -21 19
-40 13 -40 -14 0 -21 40 -51 68 -51 23 0 52 30 52 54 0 22 -24 69 -44 85 -23
20 -19 38 10 45 17 5 24 12 22 24 -5 25 -40 26 -71 2z"/>
<path d="M13614 11422 c-15 -9 -44 -95 -44 -127 0 -32 39 -36 41 -5 2 27 3 29
22 74 23 52 13 80 -19 58z"/>
<path d="M630 6040 l0 -5190 3310 0 3310 0 0 4060 c0 3996 0 4060 19 4060 28
0 52 11 45 21 -3 5 0 9 7 9 9 0 8 4 -1 15 -9 11 -17 12 -31 4 -11 -5 -24 -7
-29 -4 -7 4 -10 401 -10 1111 l0 1104 -3310 0 -3310 0 0 -5190z m6610 4244 c0
-850 -1 -934 -16 -920 -19 20 -37 20 -75 1 -34 -18 -89 -89 -89 -115 0 -19 26
-34 41 -24 5 3 9 13 9 24 0 23 53 80 74 80 22 0 21 -43 -5 -126 -16 -53 -31
-77 -64 -109 -48 -45 -100 -129 -90 -145 3 -5 12 -10 19 -10 13 0 73 60 98 97
l15 23 41 -49 42 -50 0 -4050 0 -4051 -3300 0 -3300 0 0 5180 0 5180 3300 0
3300 0 0 -936z m0 -1146 l0 -103 -30 31 -31 30 25 55 c14 30 26 62 26 72 0 9
2 17 5 17 3 0 5 -46 5 -102z"/>
<path d="M6200 11078 c-2 -15 -10 -224 -14 -354 -3 -89 -6 -165 -7 -170 -6
-31 3 -54 20 -54 26 0 29 19 30 228 0 101 3 187 5 190 2 4 5 41 7 82 4 71 3
75 -18 78 -13 2 -23 2 -23 0z"/>
<path d="M3115 11013 c-51 -53 -145 -215 -145 -249 0 -7 -4 -14 -8 -16 -4 -1
-23 -30 -41 -63 -19 -33 -41 -65 -49 -71 -18 -13 -9 -44 12 -44 19 0 45 34 86
113 25 50 39 66 59 70 33 6 68 15 90 22 16 5 19 -4 24 -74 6 -92 23 -135 55
-139 17 -3 22 2 22 17 0 12 -4 21 -9 21 -10 0 -31 109 -31 163 0 33 3 37 35
43 41 7 64 29 47 46 -8 8 -21 9 -46 1 l-34 -11 -4 84 c-2 60 -8 88 -19 100
-15 15 -19 14 -44 -13z m25 -141 c0 -48 -4 -72 -9 -63 -7 11 -15 11 -41 2 -56
-19 -63 -16 -44 22 31 60 78 126 86 121 4 -3 8 -40 8 -82z"/>
<path d="M4034 11030 c-28 -11 -54 -48 -54 -76 0 -28 37 -67 88 -93 44 -23
110 -93 118 -128 9 -36 -4 -70 -28 -77 -67 -17 -116 1 -143 55 -15 29 -38 38
-50 19 -9 -14 20 -64 54 -93 88 -74 234 -20 218 81 -10 57 -72 138 -135 175
-61 35 -78 56 -69 81 8 20 66 22 93 1 17 -13 17 -14 2 -15 -9 0 -20 -5 -24
-12 -5 -7 -3 -8 6 -3 10 6 12 4 7 -8 -5 -12 -1 -17 12 -17 36 0 51 12 51 40 0
36 -20 56 -68 70 -43 12 -50 12 -78 0z"/>
<path d="M6603 11028 c-4 -7 -8 -31 -9 -53 0 -22 -4 -118 -8 -212 -8 -171 -8
-173 13 -173 12 0 21 6 21 14 0 10 15 8 65 -10 81 -29 116 -30 140 -4 39 43
10 174 -47 214 -37 26 -85 20 -120 -14 -16 -16 -30 -30 -32 -30 -1 0 2 46 7
103 4 56 7 117 5 136 -3 36 -20 51 -35 29z m142 -254 c21 -9 55 -76 55 -111 0
-52 -10 -56 -83 -33 -36 11 -69 25 -72 30 -3 5 6 31 19 59 29 57 46 68 81 55z"/>
<path d="M1756 10998 c-12 -16 -18 -19 -29 -10 -9 8 -29 9 -58 4 -35 -6 -44
-12 -44 -27 0 -18 6 -20 67 -17 l66 4 7 -87 c4 -48 5 -130 3 -181 -5 -92 -5
-94 17 -94 13 0 25 6 27 13 2 6 1 86 -2 177 -3 91 -4 167 -3 169 2 2 39 4 83
3 78 -1 80 0 80 23 0 26 -14 40 -31 29 -18 -11 -130 -7 -142 5 -16 16 -24 14
-41 -11z"/>
<path d="M2305 11000 c-3 -5 -4 -14 -1 -19 5 -8 -11 -236 -20 -278 -4 -20 -7
-21 -25 -10 -30 18 -84 104 -115 183 -29 72 -39 85 -60 77 -23 -9 -38 -66 -38
-157 -1 -50 -3 -93 -6 -96 -3 -3 -14 -31 -24 -64 -18 -60 -13 -85 17 -73 12 4
29 53 32 92 0 6 3 15 7 20 3 6 9 53 13 104 l8 95 28 -60 c58 -120 141 -205
179 -184 20 11 40 99 40 179 0 31 5 85 10 121 7 48 6 66 -3 72 -17 11 -35 10
-42 -2z"/>
<path d="M4872 10998 c-6 -6 -8 -30 -5 -57 3 -25 -3 -89 -12 -141 -25 -139
-27 -160 -29 -210 -1 -44 -1 -45 34 -48 48 -5 189 17 222 34 38 20 38 48 1 41
-92 -18 -216 -37 -218 -35 -1 2 4 35 11 73 31 174 38 239 25 243 -8 3 -7 8 5
16 13 10 15 21 10 48 -7 38 -26 54 -44 36z"/>
<path d="M1345 10986 c-41 -18 -66 -49 -67 -83 -2 -57 10 -70 80 -97 84 -32
106 -47 143 -99 39 -54 38 -83 -4 -103 -29 -14 -42 -14 -90 -4 -33 6 -70 22
-87 37 -31 25 -60 25 -60 0 0 -8 17 -26 38 -40 71 -49 174 -61 229 -27 64 39
66 79 8 167 -33 50 -70 74 -187 121 -52 21 -27 80 38 91 33 6 88 -2 103 -16 3
-2 -4 -9 -14 -17 -24 -17 -14 -46 14 -39 40 10 61 62 35 88 -33 33 -127 44
-179 21z"/>
<path d="M3736 10978 c-9 -15 -15 -65 -19 -148 -4 -112 -22 -200 -41 -200 -3
0 -15 33 -28 74 -12 41 -25 73 -29 71 -3 -3 -4 6 -2 19 7 33 -15 106 -32 106
-8 0 -25 -15 -39 -32 -31 -41 -98 -199 -91 -215 2 -7 -2 -13 -10 -13 -18 0
-23 30 -34 181 -5 70 -11 132 -15 138 -12 18 -40 13 -55 -11 -12 -19 -11 -23
6 -37 17 -13 20 -31 22 -106 5 -174 45 -280 85 -223 8 12 13 25 10 30 -3 4 -1
8 4 8 5 0 20 26 33 57 13 32 34 78 45 103 l21 45 12 -45 c31 -110 58 -184 74
-194 26 -16 69 22 89 80 12 34 17 82 18 156 0 81 4 110 15 122 20 20 19 33 -5
46 -16 8 -22 6 -34 -12z"/>
<path d="M5185 10920 c-3 -5 4 -19 16 -31 24 -24 45 -13 34 20 -6 21 -39 29
-50 11z"/>
<path d="M5649 10864 c-14 -9 -36 -31 -48 -50 -13 -18 -32 -36 -42 -39 -19 -6
-27 -45 -9 -45 6 0 10 -18 10 -41 0 -31 6 -47 29 -70 26 -26 36 -29 90 -29 74
0 114 14 109 38 -2 10 -12 16 -23 15 -11 -2 -46 -4 -78 -5 -68 -3 -87 12 -79
62 4 26 9 31 43 36 49 8 79 36 79 74 0 27 -29 70 -47 70 -5 0 -20 -8 -34 -16z
m27 -70 c-34 -25 -52 -17 -26 11 17 18 27 22 34 14 8 -7 5 -15 -8 -25z"/>
<path d="M5475 10848 c-34 -100 -65 -192 -66 -197 -1 -3 -13 32 -28 79 -28 90
-50 110 -72 69 -9 -18 -9 -25 3 -33 8 -6 20 -33 28 -61 7 -27 22 -67 32 -88
38 -75 64 -41 135 175 3 10 9 15 14 12 15 -9 22 25 9 41 -15 18 -49 20 -55 3z"/>
<path d="M2573 10822 c-52 -19 -73 -32 -73 -44 0 -29 18 -30 76 -4 62 29 84
32 102 14 8 -8 15 -8 26 1 12 10 13 18 4 37 -14 31 -42 30 -135 -4z"/>
<path d="M4605 10823 c-27 -7 -77 -12 -110 -11 -50 3 -60 0 -63 -14 -5 -27 43
-41 112 -34 67 7 131 34 131 55 0 20 -12 21 -70 4z"/>
<path d="M5161 10786 c-15 -18 -7 -51 10 -40 9 5 10 -9 4 -52 -13 -94 -12 -99
10 -99 17 0 21 10 31 75 5 41 7 86 4 100 -7 29 -41 38 -59 16z"/>
<path d="M6386 10785 c-25 -25 -41 -92 -30 -123 11 -30 64 -56 71 -34 8 23 31
12 38 -17 8 -37 31 -59 47 -43 7 7 7 20 -1 43 -6 17 -11 53 -11 78 0 43 -3 49
-42 79 -48 37 -51 37 -72 17z m48 -61 c7 -17 -10 -54 -24 -54 -11 0 -14 53 -3
63 11 11 20 8 27 -9z"/>
<path d="M2949 10253 c-8 -19 -9 -61 -3 -137 l9 -108 -68 5 c-54 3 -70 1 -74
-10 -9 -24 9 -32 79 -35 l67 -2 6 -62 c4 -34 4 -90 0 -123 -6 -52 -4 -62 10
-67 30 -12 36 11 36 133 l0 120 41 6 c24 3 50 15 62 28 17 18 18 21 4 16 -10
-3 -20 -2 -23 3 -4 6 -1 10 6 10 7 0 9 3 6 6 -4 4 -12 2 -19 -3 -7 -6 -30 -13
-50 -17 l-36 -7 -8 68 c-4 37 -8 97 -8 132 -1 71 -18 92 -37 44z"/>
<path d="M1556 10180 c-16 -5 -33 -7 -38 -4 -5 3 -15 0 -23 -6 -8 -7 -15 -10
-15 -7 0 3 -14 1 -30 -5 -35 -12 -108 -90 -116 -125 -8 -30 34 -77 83 -94 18
-6 33 -13 33 -16 0 -3 -16 -23 -35 -46 -20 -23 -33 -47 -31 -54 3 -7 1 -13 -4
-13 -18 0 -11 -89 8 -108 9 -10 22 -27 28 -37 19 -34 62 -58 112 -63 61 -5 87
8 102 53 24 72 -21 225 -75 261 l-25 16 61 66 c63 67 99 118 99 140 0 6 -9 21
-20 32 -21 21 -63 25 -114 10z m84 -54 c0 -19 -17 -29 -25 -15 -4 6 -17 14
-29 19 -17 7 -15 9 17 9 26 1 37 -3 37 -13z m-124 -22 c22 -9 39 -16 39 -15 0
0 10 -2 23 -5 12 -4 22 -9 22 -13 -1 -3 -25 -30 -54 -60 l-54 -54 -43 17 c-52
21 -69 34 -69 51 0 16 74 95 88 95 5 0 27 -7 48 -16z m5 -214 c50 -27 92 -208
55 -239 -35 -29 -121 10 -152 71 -22 42 -11 86 32 136 40 47 38 46 65 32z"/>
<path d="M2452 10129 c4 -30 33 -48 50 -31 17 17 -1 46 -31 50 -18 3 -22 -1
-19 -19z"/>
<path d="M3275 10016 c-33 -24 -6 -85 76 -167 66 -66 77 -87 63 -123 -15 -40
-92 -5 -108 50 -3 11 -18 31 -31 44 -20 19 -28 21 -38 11 -9 -9 -9 -14 1 -20
8 -5 13 -11 12 -15 0 -4 11 -28 25 -54 53 -98 149 -110 185 -23 18 45 -1 89
-65 149 -30 29 -61 65 -70 82 l-15 29 50 -5 c41 -5 50 -3 50 11 0 29 -104 54
-135 31z"/>
<path d="M1988 9953 c-39 -25 -74 -91 -60 -114 10 -15 9 -17 -3 -13 -24 9 -38
-42 -29 -106 4 -30 8 -108 8 -173 1 -93 4 -120 16 -127 28 -17 42 13 43 91 1
41 -1 93 -5 117 l-7 42 48 0 c39 0 53 5 75 26 14 15 26 32 27 38 0 6 3 20 6
31 5 22 7 62 4 112 -1 39 -45 93 -74 93 -12 0 -34 -8 -49 -17z m80 -135 c-4
-73 -24 -108 -64 -108 -44 0 -54 10 -54 54 0 64 18 112 52 141 l32 27 19 -23
c15 -19 18 -36 15 -91z"/>
<path d="M2654 9938 c-16 -20 -34 -32 -45 -30 -12 2 -19 -3 -20 -12 -4 -89 -2
-101 18 -104 15 -2 22 4 27 24 13 52 72 121 89 105 5 -5 12 -48 15 -97 6 -69
10 -89 22 -89 19 0 26 55 8 66 -11 7 -11 9 1 9 20 0 8 115 -15 141 -27 30 -68
24 -100 -13z"/>
<path d="M2237 9910 c-38 -33 -49 -68 -36 -113 13 -46 47 -77 86 -77 70 0 95
73 48 142 -14 20 -25 46 -25 57 0 31 -33 26 -73 -9z m70 -85 c13 -28 14 -37 3
-50 -7 -8 -18 -15 -26 -15 -19 0 -44 40 -44 72 0 23 4 28 25 28 19 0 29 -9 42
-35z"/>
<path d="M2478 9893 c-2 -4 -4 -37 -4 -73 1 -58 3 -65 21 -65 18 0 20 7 20 70
0 57 -3 70 -17 73 -9 2 -18 -1 -20 -5z"/>
<path d="M5277 9443 c-14 -32 -30 -70 -36 -85 -7 -19 -18 -28 -32 -28 -18 0
-19 3 -9 15 14 16 5 35 -16 35 -22 0 -106 -45 -126 -67 -46 -50 -62 -160 -34
-227 12 -29 52 -70 76 -78 6 -2 -11 -45 -36 -96 -43 -87 -51 -129 -21 -120 6
3 35 51 63 108 41 85 56 106 85 121 70 36 149 136 149 189 0 28 -26 77 -47 89
-16 9 -16 14 5 80 13 39 27 73 32 76 18 11 11 45 -9 45 -13 0 -26 -17 -44 -57z
m-68 -159 c7 -7 -81 -234 -91 -234 -5 0 -20 11 -33 24 -43 43 -43 136 0 203
13 20 20 21 67 16 29 -3 55 -7 57 -9z m82 -51 c11 -30 -9 -73 -59 -125 -41
-44 -47 -46 -49 -18 -1 11 2 20 7 20 5 0 21 35 36 79 30 82 46 93 65 44z"/>
<path d="M4323 9447 c-12 -13 -34 -53 -48 -90 -15 -37 -30 -67 -34 -67 -3 1
-17 7 -31 15 -34 19 -70 19 -92 -2 -56 -52 -69 -69 -78 -102 -12 -48 2 -110
32 -136 l23 -20 -57 -83 c-53 -78 -63 -112 -33 -112 12 0 45 31 45 44 0 4 18
33 39 64 36 54 42 58 81 59 64 3 106 21 140 59 41 48 42 100 0 147 l-30 34 33
76 c19 42 41 85 51 96 35 39 -5 56 -41 18z m-144 -212 c2 -11 7 -22 12 -25 4
-3 -8 -30 -26 -60 -19 -30 -36 -59 -38 -65 -2 -5 -14 -1 -26 9 -38 34 -24 132
23 154 30 15 50 10 55 -13z m121 -83 c0 -42 -65 -92 -119 -92 -19 0 -19 3 9
46 16 26 26 53 23 62 -4 10 -2 13 5 8 7 -4 17 3 24 20 l12 26 23 -26 c13 -15
23 -35 23 -44z"/>
<path d="M6391 9408 c-35 -84 -55 -143 -52 -156 2 -11 -5 -10 -26 3 -45 26
-105 6 -140 -46 -49 -74 -41 -195 16 -231 17 -10 15 -18 -36 -125 -58 -122
-62 -150 -23 -145 29 3 40 18 38 52 -2 39 88 210 111 210 32 0 117 65 119 93
1 4 8 15 17 24 21 20 12 66 -21 110 l-24 32 20 60 c11 33 27 76 36 95 17 34
14 66 -6 66 -6 0 -19 -19 -29 -42z m-84 -240 c1 -28 -1 -36 -6 -24 -7 18 -8
18 -14 2 -10 -25 -9 -38 3 -31 6 3 7 -1 4 -9 -3 -9 -10 -13 -15 -10 -5 3 -19
-15 -30 -41 -22 -49 -37 -53 -56 -14 -18 35 -16 77 8 126 20 41 23 43 63 43
l42 0 1 -42z m-100 26 c-3 -3 -12 -4 -19 -1 -8 3 -5 6 6 6 11 1 17 -2 13 -5z
m173 -73 c0 -16 -16 -39 -46 -68 -25 -25 -48 -43 -50 -40 -3 2 5 26 17 53 11
27 27 64 35 83 14 33 15 33 29 15 8 -10 15 -30 15 -43z"/>
<path d="M2559 9433 c0 -4 0 -58 1 -119 1 -109 1 -111 -22 -118 -13 -3 -33 -6
-44 -6 -25 0 -38 -22 -22 -38 5 -5 28 -7 50 -4 l41 5 -4 -104 c-4 -99 -3 -104
16 -104 18 0 20 8 23 98 1 53 6 97 11 97 4 0 23 -5 40 -11 23 -8 36 -8 43 -1
17 17 -8 40 -49 48 -19 4 -36 12 -39 18 -2 6 -5 63 -6 126 -3 100 -5 115 -20
118 -10 2 -18 0 -19 -5z"/>
<path d="M5505 9375 c-52 -18 -105 -76 -105 -113 0 -62 64 -75 115 -25 l25 26
0 -24 c0 -13 -7 -53 -16 -89 -30 -131 -34 -140 -54 -140 -13 0 -20 -7 -20 -19
0 -14 10 -21 36 -26 20 -3 37 -5 39 -3 1 2 17 68 34 148 18 80 41 165 52 189
25 57 24 70 -7 81 -33 13 -51 12 -99 -5z m30 -70 c-70 -60 -110 -72 -85 -25
15 28 69 60 100 60 24 -1 23 -2 -15 -35z"/>
<path d="M4488 9329 c-53 -56 -67 -87 -47 -100 21 -13 29 -11 38 14 15 37 66
91 79 83 38 -23 -9 -130 -103 -237 -36 -41 -65 -81 -65 -91 0 -29 21 -31 49
-4 l28 27 12 -41 c17 -58 65 -75 140 -49 48 17 67 69 25 69 -8 0 -13 -4 -10
-9 7 -11 -71 -31 -91 -24 -8 3 -19 17 -24 30 -17 45 -10 82 26 132 65 91 85
175 51 225 -25 39 -54 33 -108 -25z"/>
<path d="M3255 9328 c-8 -13 -36 -51 -61 -85 -25 -35 -43 -67 -39 -73 13 -21
36 -8 72 40 20 27 38 48 39 47 0 -1 4 -72 7 -158 l6 -157 -40 5 c-25 4 -39 2
-39 -6 0 -6 -5 -11 -11 -11 -5 0 -7 5 -4 10 4 6 -6 10 -22 10 -16 0 -34 5 -40
11 -13 13 -63 1 -63 -17 0 -29 43 -36 224 -38 100 -1 186 -5 193 -9 6 -4 16 0
23 8 10 12 10 18 0 30 -9 11 -33 15 -90 15 -94 0 -86 -17 -96 210 -8 188 -20
223 -59 168z"/>
<path d="M6605 9334 c-47 -24 -96 -76 -93 -99 4 -30 36 -31 47 -2 10 25 60 67
80 67 7 0 9 -10 5 -27 -15 -61 -60 -131 -126 -196 -38 -37 -68 -73 -65 -80 8
-24 40 -19 71 11 l31 31 39 -30 c43 -31 81 -38 90 -14 3 10 -6 20 -29 30 -18
9 -41 25 -51 36 -15 17 -16 21 -2 37 35 38 88 155 88 191 0 60 -28 75 -85 45z"/>
<path d="M2024 9275 c-9 -22 22 -53 37 -38 15 15 7 47 -14 51 -9 2 -20 -4 -23
-13z"/>
<path d="M1360 9189 c-79 -15 -138 -103 -94 -140 9 -8 53 -32 98 -54 69 -34
81 -44 84 -68 3 -23 -2 -30 -34 -43 -46 -19 -102 -11 -125 18 -20 25 -39 16
-39 -18 0 -66 187 -71 236 -6 37 48 -2 116 -88 151 -108 45 -119 59 -77 97 17
15 36 19 97 19 84 0 102 14 53 39 -33 17 -44 18 -111 5z"/>
<path d="M2192 9126 c-16 -15 -34 -26 -40 -26 -21 0 -37 -97 -25 -155 7 -30
14 -40 28 -40 14 0 19 6 17 20 -10 81 -7 102 23 138 47 56 65 46 65 -37 0 -47
20 -83 39 -71 9 5 11 27 7 73 -8 108 -54 147 -114 98z"/>
<path d="M1863 9130 c-33 -13 -65 -85 -71 -157 -4 -52 -2 -64 12 -69 31 -12
48 15 41 67 -8 56 13 105 51 119 16 7 24 16 22 27 -4 21 -24 26 -55 13z"/>
<path d="M1629 9101 c-16 -16 -29 -36 -29 -44 0 -8 -7 -18 -16 -21 -13 -5 -15
-15 -10 -46 5 -31 3 -42 -9 -46 -19 -7 -20 -34 -2 -34 8 0 14 -6 15 -12 1 -7
6 -62 11 -122 10 -112 18 -133 45 -123 18 7 20 59 7 138 -7 46 -7 47 25 63 29
13 87 96 68 96 -4 0 -1 7 6 15 7 8 13 37 13 65 1 91 -65 129 -124 71z m81 -75
c-1 -52 -57 -152 -75 -134 -12 12 -12 76 0 122 16 60 43 86 62 59 7 -9 13 -31
13 -47z"/>
<path d="M5815 9123 c-16 -3 -33 -10 -37 -16 -11 -17 12 -37 36 -32 11 3 42 6
67 8 58 5 74 14 58 33 -11 14 -58 16 -124 7z"/>
<path d="M2903 9092 c-49 -4 -71 -23 -48 -42 19 -16 94 -3 102 17 8 21 -7 28
-54 25z"/>
<path d="M2016 9031 c-10 -15 -3 -91 8 -101 19 -15 37 5 32 36 -2 16 -5 39 -5
52 -1 22 -24 31 -35 13z"/>
<path d="M4815 9010 c-9 -29 10 -48 33 -34 24 16 22 48 -5 52 -15 2 -23 -3
-28 -18z"/>
<path d="M6770 9015 c-9 -11 -10 -19 -3 -26 16 -16 55 -1 51 19 -4 23 -32 26
-48 7z"/>
<path d="M8543 11108 c-11 -15 -11 -28 0 -45 7 -11 -14 -86 -47 -165 l-15 -36
-95 -7 c-65 -5 -96 -12 -100 -21 -3 -7 0 -17 7 -21 12 -7 79 -6 139 3 l37 6
-15 -54 c-7 -29 -14 -74 -14 -99 0 -61 22 -81 81 -77 36 2 44 7 44 23 0 17 -6
20 -37 17 -32 -3 -38 0 -43 21 -4 13 2 58 12 98 l18 74 77 20 c81 21 109 38
92 55 -6 6 -32 4 -73 -6 -35 -8 -66 -12 -68 -10 -3 3 7 34 21 70 25 62 32 118
20 150 -7 19 -28 21 -41 4z"/>
<path d="M14278 11019 c-12 -7 -15 -18 -11 -43 4 -28 -12 -102 -33 -153 -3 -6
3 -13 13 -15 10 -3 -4 -8 -32 -12 -70 -10 -77 -14 -73 -33 3 -12 12 -17 30
-16 l26 2 -25 -57 c-13 -31 -34 -69 -45 -85 -15 -21 -18 -31 -9 -40 8 -8 16
-9 29 -1 19 12 73 113 69 128 -2 5 7 20 19 33 17 18 32 23 72 23 78 0 87 -6
57 -42 -20 -24 -23 -33 -14 -50 8 -15 18 -19 40 -16 26 4 29 2 29 -22 0 -29
16 -50 40 -50 12 0 15 14 16 71 l1 71 -30 -5 -31 -4 22 18 c12 9 28 19 34 21
7 3 9 12 5 22 -5 14 -14 16 -36 11 -17 -3 -32 -2 -36 4 -3 6 -25 11 -48 11
-23 0 -52 3 -64 6 l-22 6 19 47 c26 67 36 154 18 168 -9 8 -19 8 -30 2z"/>
<path d="M11246 10988 c-3 -7 -6 -29 -9 -48 -3 -20 -29 -92 -57 -160 -57 -135
-66 -182 -37 -188 9 -2 17 2 17 10 0 7 21 63 46 123 57 137 89 239 81 259 -8
19 -36 21 -41 4z"/>
<path d="M11765 10988 c-2 -7 -9 -39 -15 -72 -7 -32 -20 -77 -29 -99 -17 -41
-18 -41 -64 -38 -41 2 -46 0 -40 -15 5 -13 3 -15 -7 -9 -8 5 -11 4 -6 -3 4 -6
22 -14 41 -18 40 -7 40 -9 21 -61 -23 -62 -29 -115 -14 -124 7 -5 -173 -9
-401 -9 l-414 0 41 33 c50 39 83 81 80 99 -2 7 2 12 9 11 18 -4 38 94 23 112
-26 31 -61 18 -145 -52 -35 -30 -41 -32 -52 -18 -6 9 -20 15 -30 13 -14 -2
-18 -13 -19 -43 -1 -22 -11 -66 -23 -97 l-22 -58 -195 0 c-107 0 -194 3 -194
6 0 14 25 48 66 92 43 44 45 45 40 19 -14 -60 18 -87 60 -49 99 89 112 91 106
17 -4 -50 -3 -55 15 -55 35 0 46 115 14 144 -25 22 -59 13 -113 -30 -23 -18
-45 -31 -47 -28 -3 3 -1 8 5 12 17 11 23 61 8 73 -14 12 -61 -8 -85 -37 -13
-16 -14 -14 -19 22 -3 26 -11 40 -22 42 -14 3 -18 -3 -18 -26 0 -33 -19 -100
-45 -160 l-19 -42 -217 0 c-207 0 -217 1 -212 19 4 15 0 18 -20 14 -33 -7 -85
22 -93 51 -6 27 19 95 43 113 13 10 18 9 28 -3 15 -21 55 -10 55 15 0 42 -59
57 -106 26 -32 -21 -63 -88 -64 -138 0 -31 7 -45 31 -68 l31 -29 -928 -3
c-734 -2 -633 -3 479 -5 774 -1 1407 -4 1407 -7 0 -3 -14 -33 -31 -65 -32 -61
-33 -90 -4 -90 11 0 29 28 52 80 l36 80 2416 2 2416 3 -1955 5 c-1075 3 -1949
9 -1942 13 6 5 12 18 12 30 0 32 54 184 58 163 3 -16 11 -18 48 -12 45 6 94
31 94 47 0 16 -32 23 -51 11 -10 -7 -33 -12 -50 -12 -24 0 -30 3 -25 16 17 44
46 178 42 190 -7 17 -35 18 -41 2z m-815 -239 c0 -26 -35 -81 -76 -119 -43
-39 -91 -66 -102 -56 -10 11 58 100 109 142 56 45 69 52 69 33z"/>
<path d="M14743 10973 c-3 -10 -20 -49 -38 -88 -18 -38 -35 -79 -39 -91 -4
-13 -21 -25 -47 -33 -41 -12 -59 -35 -42 -52 7 -7 19 -6 37 2 14 7 28 10 31 7
3 -3 -6 -38 -21 -78 -19 -55 -23 -75 -14 -84 18 -17 44 22 66 98 14 50 23 66
37 66 28 0 57 19 57 36 0 13 -7 15 -35 10 l-35 -7 20 51 c11 28 31 73 46 101
14 28 23 57 20 65 -8 20 -35 17 -43 -3z"/>
<path d="M14930 10866 c0 -31 18 -43 36 -24 19 18 8 48 -17 48 -13 0 -19 -7
-19 -24z"/>
<path d="M13862 10848 c-24 -5 -46 -16 -49 -23 -5 -14 30 -81 46 -87 5 -2 18
-21 30 -42 15 -30 18 -43 9 -53 -13 -16 -42 -17 -68 -1 -14 9 -23 9 -30 2 -35
-35 57 -77 109 -50 60 32 52 100 -22 183 -11 13 -18 25 -15 28 2 3 36 6 74 7
61 3 69 5 69 23 0 17 -7 20 -55 22 -30 1 -74 -3 -98 -9z"/>
<path d="M8803 10805 c-3 -10 8 -27 32 -49 30 -25 38 -39 38 -65 0 -40 -33
-70 -78 -71 -64 0 -73 46 -19 97 22 20 34 39 30 48 -9 23 -31 18 -64 -16 -39
-39 -56 -81 -48 -114 7 -29 59 -65 94 -65 33 0 99 36 118 65 32 49 3 133 -58
169 -32 20 -37 20 -45 1z"/>
<path d="M11395 10781 c-51 -23 -92 -71 -101 -117 -5 -28 -2 -40 17 -60 30
-32 123 -35 159 -4 33 29 15 42 -37 28 -54 -13 -93 -4 -93 22 0 17 7 20 41 20
47 0 105 25 119 51 12 22 -2 64 -25 73 -25 9 -36 7 -80 -13z m56 -45 c-13 -15
-69 -32 -78 -23 -7 8 48 36 71 37 15 0 16 -3 7 -14z"/>
<path d="M15119 10770 c-104 -54 -149 -140 -94 -176 29 -19 149 -21 171 -3 7
5 27 12 44 14 18 3 39 10 47 17 13 11 12 14 -7 30 -20 16 -25 17 -39 4 -34
-30 -157 -47 -190 -27 -18 12 8 51 57 84 58 38 79 42 78 15 -1 -32 25 -29 44
4 11 21 12 32 4 45 -17 28 -54 25 -115 -7z"/>
<path d="M10010 10752 c-28 -28 -52 -94 -52 -141 -1 -29 35 -61 66 -61 29 0
117 43 137 66 30 34 32 62 8 100 -22 37 -58 57 -83 48 -8 -3 -17 -1 -21 5 -10
18 -25 13 -55 -17z m118 -44 c36 -36 -13 -95 -88 -105 -35 -5 -40 -3 -40 14 0
34 22 84 34 80 7 -3 20 1 31 9 23 17 47 18 63 2z"/>
<path d="M11975 10766 c-63 -28 -103 -107 -81 -161 18 -44 50 -57 126 -52 105
7 211 57 172 81 -4 2 -33 -4 -64 -15 -74 -25 -120 -30 -163 -18 -49 14 -40 30
29 50 89 27 119 66 79 101 -27 23 -64 28 -98 14z m63 -48 c-5 -15 -88 -41 -88
-28 0 5 10 16 22 24 27 19 71 21 66 4z"/>
<path d="M13025 10762 c-81 -34 -153 -109 -139 -146 11 -29 57 -35 113 -15 29
10 59 23 67 30 11 9 14 7 14 -14 0 -31 35 -56 53 -38 8 8 7 17 -2 34 -8 15 -9
31 -3 47 13 33 7 101 -10 111 -19 13 -48 10 -93 -9z m58 -52 c-7 -25 -76 -67
-124 -76 l-34 -7 30 33 c54 58 139 91 128 50z"/>
<path d="M14831 10683 c-36 -66 -38 -81 -11 -79 14 1 30 18 50 55 35 63 37 81
11 81 -13 0 -29 -18 -50 -57z"/>
<path d="M13755 10240 c-32 -13 -68 -57 -62 -74 9 -22 18 -20 52 12 31 28 71
38 94 23 40 -26 -58 -157 -139 -186 -47 -17 -90 -50 -90 -71 0 -25 22 -26 71
-1 44 24 49 24 49 8 0 -23 27 -48 63 -56 30 -8 141 18 171 41 15 11 17 17 8
26 -8 8 -26 7 -70 -6 -87 -24 -120 -22 -128 9 -5 21 2 35 40 75 46 49 85 119
86 151 0 8 -10 25 -23 37 -24 23 -82 29 -122 12z"/>
<path d="M8772 10160 c-23 -16 -49 -41 -58 -55 -11 -17 -22 -24 -34 -20 -27 9
-50 -31 -50 -86 0 -26 -5 -70 -12 -98 l-11 -51 -366 -2 -366 -3 364 -2 c283
-3 362 -6 358 -16 -32 -88 -39 -120 -26 -128 21 -13 36 7 59 77 l22 64 394 0
c327 0 394 -2 394 -14 0 -7 -20 -19 -45 -26 -147 -41 -212 -163 -110 -206 44
-18 59 -18 101 2 36 17 84 98 84 142 0 20 4 23 27 20 37 -4 44 27 10 43 -15 7
-23 17 -20 25 4 12 480 14 3041 14 1669 0 3038 2 3040 5 3 3 -1285 5 -2861 5
-2726 0 -2866 1 -2860 18 3 9 15 27 26 40 28 30 10 52 -27 33 -26 -14 -41 -48
-24 -53 5 -2 -15 -5 -45 -6 -49 -2 -58 1 -76 24 -12 15 -21 34 -21 44 0 18 30
50 46 50 6 0 25 15 43 34 27 27 32 40 27 60 -12 49 -91 45 -130 -7 -31 -42
-35 -155 -7 -202 l20 -35 -92 0 -92 0 -1 108 c0 59 -6 123 -13 144 -12 35 -13
36 -62 36 -28 1 -61 -3 -74 -8 -34 -13 -89 -70 -110 -113 -15 -33 -16 -42 -5
-63 9 -16 22 -24 38 -24 32 0 111 54 137 93 42 64 54 37 47 -105 l-4 -68 -395
0 -395 0 6 23 c3 12 6 25 6 29 0 4 11 3 24 -3 28 -13 65 3 110 48 52 51 100
199 76 228 -20 24 -64 17 -108 -15z m53 -87 c-12 -39 -29 -69 -55 -95 -42 -42
-61 -48 -53 -17 3 12 1 24 -6 28 -17 11 47 111 89 139 19 13 36 19 38 13 2 -6
-4 -36 -13 -68z m553 -13 c-29 -39 -102 -94 -106 -80 -10 28 59 102 103 112
29 6 29 3 3 -32z m346 -5 c-31 -29 -41 -27 -24 4 6 12 20 21 31 21 18 0 18 -2
-7 -25z m-282 -293 c-7 -5 -14 -21 -15 -37 -3 -42 -54 -95 -92 -95 -31 0 -55
15 -55 35 1 24 39 57 95 80 59 24 92 32 67 17z"/>
<path d="M11044 10158 c-9 -13 -15 -53 -16 -95 0 -13 -4 -20 -9 -17 -5 3 -9 1
-9 -3 0 -5 -18 -30 -40 -57 -36 -44 -39 -51 -26 -64 13 -13 23 -7 85 48 69 61
91 68 91 29 0 -43 32 -75 85 -85 35 -6 77 13 73 34 -3 13 -14 17 -53 17 l-50
0 -15 60 c-15 61 -38 81 -63 56 -19 -19 -23 -13 -19 27 4 42 -19 75 -34 50z"/>
<path d="M13415 10156 c-66 -29 -118 -120 -100 -175 8 -27 52 -50 109 -57 38
-6 45 -4 50 14 4 11 17 22 29 24 37 5 26 33 -14 36 -29 2 -37 -1 -42 -17 -4
-18 -9 -19 -37 -11 -50 14 -60 26 -49 63 17 63 115 117 132 73 6 -16 47 -10
47 6 0 17 -53 58 -74 58 -12 -1 -35 -7 -51 -14z"/>
<path d="M10804 10141 c-57 -35 -97 -157 -63 -197 22 -27 45 -34 81 -24 41 12
86 56 96 95 11 40 -11 120 -32 119 -9 -1 -13 2 -10 7 3 5 1 9 -5 9 -5 0 -15 2
-23 5 -7 3 -27 -4 -44 -14z m64 -63 c7 -7 12 -23 12 -36 0 -27 -50 -82 -74
-82 -9 0 -16 -8 -17 -17 0 -10 -5 -4 -10 12 -25 80 41 171 89 123z"/>
<path d="M13062 10153 c-35 -7 -99 -76 -113 -121 -15 -52 7 -97 59 -119 65
-27 221 -3 208 32 -2 5 -12 9 -22 7 -10 -1 -51 -3 -91 -4 -58 -2 -76 1 -92 16
-25 23 -30 66 -6 46 22 -18 65 -6 129 35 59 38 67 55 40 93 -15 22 -50 27
-112 15z m78 -43 c0 -5 -18 -21 -40 -35 -36 -23 -43 -24 -61 -12 -17 12 -17
16 -5 26 29 24 106 39 106 21z"/>
<path d="M11949 10117 c-41 -27 -70 -97 -53 -125 16 -25 69 -27 108 -4 l34 20
-5 -39 c-6 -43 8 -69 38 -69 26 0 35 21 15 36 -15 10 -16 18 -7 51 24 86 5
119 -43 73 -12 -10 -38 -26 -59 -35 -35 -14 -37 -14 -37 3 0 30 27 58 69 71
24 7 41 18 41 26 0 23 -62 18 -101 -8z"/>
<path d="M8972 10076 c-35 -40 -48 -86 -32 -115 13 -26 36 -26 75 -3 l30 19
-3 -41 c-5 -54 23 -83 65 -69 18 6 29 18 31 32 3 21 1 22 -27 16 -36 -8 -39 3
-16 58 23 56 20 96 -9 107 -13 5 -27 14 -31 19 -13 22 -53 11 -83 -23z m54
-51 c-2 -7 -15 -19 -26 -25 -20 -11 -21 -10 -15 12 4 12 15 31 24 42 14 16 16
17 19 2 2 -10 1 -23 -2 -31z"/>
<path d="M12212 10098 c-13 -16 -62 -146 -62 -164 0 -20 38 -17 44 4 10 29 86
106 96 96 4 -5 10 -31 11 -59 3 -60 8 -77 20 -69 5 3 9 0 9 -6 0 -6 5 -8 10
-5 14 9 13 118 -2 150 -14 31 -53 43 -82 25 -19 -12 -20 -12 -8 3 15 18 8 37
-12 37 -8 0 -18 -6 -24 -12z"/>
<path d="M13485 9710 c-3 -5 -3 -36 1 -68 3 -34 1 -83 -6 -118 -28 -140 -144
-309 -206 -302 -43 5 -41 35 6 98 37 49 45 55 78 55 51 0 56 29 8 45 -48 16
-66 4 -126 -82 -65 -92 -65 -131 -1 -158 79 -32 193 77 261 250 25 63 44 257
28 278 -12 14 -34 16 -43 2z"/>
<path d="M12186 9661 c-9 -16 -13 -31 -10 -33 2 -3 -23 -87 -57 -188 -36 -110
-57 -186 -51 -192 15 -15 36 0 57 39 39 73 105 120 105 76 0 -10 -10 -46 -22
-80 -19 -52 -20 -63 -8 -77 23 -28 33 -8 71 137 17 68 -28 105 -89 73 l-31
-16 34 100 c19 55 32 100 29 100 -2 0 3 14 11 31 9 17 14 37 11 45 -9 23 -35
16 -50 -15z"/>
<path d="M11929 9675 c-3 -2 -30 -7 -61 -10 -32 -3 -90 -12 -130 -21 -40 -9
-92 -15 -115 -15 -48 0 -63 -14 -39 -37 15 -15 24 -15 119 2 182 33 301 47
366 44 70 -3 94 14 46 32 -26 10 -177 14 -186 5z"/>
<path d="M9451 9633 c-5 -10 -11 -34 -14 -53 -2 -19 -13 -65 -23 -102 -17 -63
-19 -66 -51 -70 -18 -2 -33 0 -33 4 0 12 -38 10 -45 -2 -12 -20 17 -40 57 -40
34 0 39 -3 34 -17 -4 -9 -12 -50 -18 -90 -9 -56 -9 -76 0 -85 15 -15 34 1 36
29 8 78 21 136 33 149 8 7 32 14 53 14 21 0 41 4 44 8 3 5 19 7 35 4 25 -3 32
0 40 19 10 28 -3 49 -30 49 -10 0 -22 -6 -26 -14 -4 -8 -30 -17 -57 -21 -46
-7 -49 -6 -42 11 13 33 46 178 46 202 0 26 -25 30 -39 5z"/>
<path d="M8610 9590 c0 -24 29 -38 40 -20 12 19 1 40 -21 40 -12 0 -19 -7 -19
-20z"/>
<path d="M11899 9568 c-7 -13 -16 -26 -22 -29 -5 -4 -2 -17 7 -32 10 -14 13
-27 7 -29 -12 -4 -83 -196 -78 -211 2 -7 -2 -18 -10 -25 -7 -8 -12 -27 -11
-43 4 -52 29 -28 58 56 15 44 44 127 64 185 20 58 35 114 34 125 -4 29 -34 31
-49 3z"/>
<path d="M14557 9503 c-11 -10 -8 -61 4 -69 15 -9 28 6 35 44 6 27 4 32 -13
32 -11 0 -23 -3 -26 -7z"/>
<path d="M8545 9464 c-8 -9 -13 -20 -9 -25 3 -5 -7 -43 -21 -85 -30 -86 -30
-139 -1 -139 14 0 19 9 22 38 2 21 15 71 29 112 14 40 25 80 25 88 0 22 -27
28 -45 11z"/>
<path d="M7550 9454 c-8 -1 -50 -6 -92 -9 -75 -6 -78 -8 -78 -32 0 -23 3 -25
29 -20 15 3 52 9 82 13 l54 7 -40 -30 c-90 -68 -96 -98 -18 -108 75 -11 119
-24 143 -43 20 -16 21 -21 10 -61 -12 -45 -49 -91 -72 -91 -39 2 -72 27 -83
65 -8 29 -16 40 -30 40 -26 0 -30 -24 -11 -69 18 -44 69 -76 119 -76 67 0 127
81 127 172 0 33 -46 73 -103 89 -101 27 -100 21 -15 70 77 43 96 70 62 83 -16
6 -57 6 -84 0z"/>
<path d="M9082 9443 c-24 -8 -46 -21 -49 -29 -9 -25 7 -64 44 -105 41 -45 35
-59 -24 -59 -44 0 -63 9 -74 36 -16 44 -56 25 -45 -21 8 -33 60 -58 123 -59
95 -1 121 56 58 125 -42 47 -44 65 -8 74 41 10 56 25 42 41 -14 17 -12 17 -67
-3z"/>
<path d="M12482 9430 c-56 -34 -93 -117 -78 -175 9 -34 54 -55 119 -55 56 0
109 18 104 35 -2 6 -38 10 -80 10 -91 0 -119 17 -99 60 6 14 18 25 25 25 7 0
35 14 61 30 40 26 47 35 44 58 -2 22 -9 28 -33 30 -17 1 -44 -6 -63 -18z"/>
<path d="M8725 9411 c-57 -34 -126 -136 -110 -161 14 -22 37 -8 55 33 27 62
93 116 126 103 15 -6 14 -11 -19 -94 -16 -40 -18 -55 -9 -64 17 -17 35 5 61
75 26 71 26 89 3 110 -24 22 -70 21 -107 -2z"/>
<path d="M10525 9421 c-76 -19 -111 -60 -100 -118 7 -40 39 -83 62 -83 7 0 13
-5 13 -11 0 -31 129 -51 165 -25 33 24 13 44 -39 39 -55 -7 -85 0 -120 28
l-28 22 31 13 c17 7 31 18 31 24 0 6 4 9 8 6 12 -7 49 20 62 45 9 15 6 24 -14
44 -14 14 -29 25 -33 24 -4 -1 -21 -4 -38 -8z m22 -66 c-7 -14 -18 -25 -24
-25 -23 0 -28 -2 -41 -12 -15 -13 -24 -6 -17 13 7 18 55 48 77 49 14 0 14 -4
5 -25z"/>
<path d="M10000 9408 c-14 -5 -42 -26 -64 -46 -26 -25 -35 -30 -27 -15 18 35
14 55 -10 51 -16 -2 -25 -15 -34 -45 -7 -24 -11 -43 -8 -43 3 0 1 -6 -5 -13
-6 -7 -12 -30 -14 -52 -5 -60 21 -57 66 10 63 91 136 144 136 97 0 -9 -14 -45
-30 -80 -31 -61 -32 -82 -5 -82 19 0 75 122 75 163 0 49 -34 72 -80 55z"/>
<path d="M10260 9403 c-46 -32 -80 -92 -80 -143 0 -39 41 -70 92 -70 53 0 49
29 -7 45 -36 10 -40 14 -38 40 3 39 31 76 74 97 19 10 34 24 34 30 0 20 -47
21 -75 1z"/>
<path d="M13903 9391 c-38 -27 -39 -28 -39 -7 1 15 -5 21 -19 21 -15 0 -21 -8
-23 -30 -4 -40 -31 -114 -55 -148 -20 -29 -17 -57 7 -57 7 0 33 31 57 70 50
79 77 100 48 37 -46 -103 -10 -111 85 -18 41 39 77 71 80 71 3 0 -4 -24 -15
-52 -33 -83 -34 -95 -9 -103 21 -7 44 10 35 25 -2 4 5 30 15 59 26 66 26 107
0 121 -16 8 -28 3 -75 -35 -59 -49 -66 -48 -35 3 24 39 25 58 4 66 -21 8 -16
10 -61 -23z"/>
<path d="M9678 9391 c-40 -20 -78 -74 -78 -112 0 -51 42 -70 100 -45 12 5 15
-2 15 -34 l0 -40 -915 -3 c-503 -1 813 -2 2925 -2 2112 0 3666 2 3454 5 -368
5 -386 6 -380 23 4 10 10 18 14 18 18 -2 19 0 7 13 -6 8 -18 12 -26 9 -18 -7
-18 -2 2 46 28 71 6 121 -48 108 -66 -17 -189 -170 -160 -199 15 -15 38 8 82
81 13 23 41 50 62 61 44 23 47 16 18 -49 -24 -53 -25 -69 -3 -93 16 -17 11
-18 -130 -18 -167 0 -158 -7 -127 92 16 52 17 65 6 76 -10 11 -15 11 -23 0
-16 -20 -43 -108 -43 -140 l0 -28 -77 0 c-58 1 -73 3 -60 11 20 12 23 35 5 41
-9 3 -4 18 15 48 25 37 27 44 15 57 -13 12 -21 11 -64 -11 -27 -13 -51 -23
-53 -20 -11 10 45 53 73 56 44 4 42 32 -3 36 -47 5 -78 -14 -107 -65 -21 -34
-23 -46 -14 -62 12 -23 40 -27 70 -11 18 10 19 8 14 -20 -4 -18 -1 -36 6 -45
11 -13 -237 -15 -2240 -15 -2052 0 -2251 1 -2239 16 9 11 10 20 2 33 -7 12 -6
30 5 65 15 45 14 49 -2 61 -13 10 -14 14 -4 18 10 3 10 9 2 23 -16 28 -58 35
-96 15z m61 -40 c12 -8 8 -17 -20 -48 -50 -55 -94 -51 -65 6 23 44 56 60 85
42z"/>
<path d="M13600 9403 c-50 -9 -100 -86 -100 -152 0 -13 48 -61 61 -61 56 0
133 83 131 143 -1 30 -40 80 -60 76 -4 -1 -18 -4 -32 -6z m34 -49 c25 -10 19
-40 -15 -79 -37 -42 -69 -47 -69 -11 0 52 17 77 67 95 1 1 8 -2 17 -5z"/>
<path d="M10910 9224 c0 -33 33 -30 38 4 3 17 -2 22 -17 22 -16 0 -21 -6 -21
-26z"/>
<path d="M15113 9098 c-26 -13 -31 -49 -9 -67 11 -10 18 -7 31 11 l16 23 36
-40 c57 -64 66 -81 55 -102 -6 -10 -42 -47 -80 -81 -123 -109 -160 -194 -112
-255 11 -14 18 -32 15 -40 -3 -7 10 -38 29 -67 80 -121 65 -229 -37 -279 -55
-27 -81 -27 -99 1 -16 24 -38 18 -38 -11 0 -29 33 -51 77 -51 51 0 118 35 157
84 28 34 31 44 31 109 0 59 -5 83 -29 130 l-28 59 21 14 c20 15 29 43 14 45
-56 5 -93 33 -93 69 0 25 47 86 130 165 111 107 114 123 42 215 -64 82 -82 91
-129 68z"/>
<path d="M11342 9053 c-64 -61 -71 -86 -42 -165 24 -65 36 -161 27 -200 -5
-18 -18 -29 -47 -38 -71 -23 -78 -55 -14 -62 l32 -3 -39 -59 c-43 -67 -55
-119 -45 -209 10 -92 23 -131 52 -161 25 -24 84 -37 84 -18 0 13 -14 28 -32
35 -36 13 -51 55 -56 155 -4 82 -1 103 14 133 110 210 121 275 72 418 -25 75
-23 90 18 132 35 36 38 37 60 22 22 -14 24 -14 30 2 4 9 2 27 -4 41 -18 38
-53 31 -110 -23z"/>
<path d="M13503 8959 c-8 -8 -8 -17 -1 -28 7 -12 -4 -46 -50 -141 -75 -158
-103 -235 -104 -281 0 -44 8 -61 29 -57 12 2 17 17 18 58 2 36 13 80 34 128
18 40 29 78 25 84 -4 6 -3 8 3 5 13 -8 36 41 27 55 -4 6 -2 8 3 5 13 -8 67
109 59 129 -3 8 -1 14 3 14 5 0 7 9 4 20 -6 22 -32 27 -50 9z"/>
<path d="M14127 8934 c-4 -4 -7 -18 -7 -31 0 -20 5 -24 23 -21 16 2 22 10 22
28 0 24 -23 39 -38 24z"/>
<path d="M10680 8864 c0 -21 21 -39 44 -39 24 0 32 21 16 40 -17 20 -60 20
-60 -1z"/>
<path d="M8500 8833 c-14 -9 -39 -33 -57 -52 -31 -35 -31 -35 -26 -8 4 22 2
27 -15 27 -15 0 -29 -19 -57 -77 -70 -147 -44 -188 48 -73 31 40 57 75 59 78
2 4 16 18 31 32 25 21 27 22 21 5 -4 -11 -10 -24 -14 -30 -24 -35 -50 -118
-44 -140 8 -34 36 -48 59 -31 16 11 16 14 1 28 -22 22 -21 25 24 129 41 93 44
129 12 129 -10 0 -29 -8 -42 -17z"/>
<path d="M9165 8802 c-16 -11 -36 -26 -44 -36 -12 -15 -16 -15 -30 -2 -9 8
-22 12 -28 8 -15 -9 -55 -131 -49 -148 14 -37 76 13 77 62 0 21 2 24 7 12 6
-15 11 -13 35 17 15 19 36 39 47 45 18 10 19 8 10 -16 -6 -15 -19 -39 -30 -54
-21 -30 -26 -55 -11 -64 15 -10 34 3 66 44 17 22 34 39 38 40 5 0 16 8 25 17
16 16 17 13 22 -49 5 -69 20 -98 51 -98 22 0 24 15 5 49 -8 14 -11 41 -9 65 9
79 -25 117 -73 81 -24 -18 -37 -19 -31 -2 7 19 -12 47 -31 47 -9 0 -30 -8 -47
-18z"/>
<path d="M8725 8786 c-31 -31 -75 -119 -75 -150 0 -15 8 -30 20 -36 23 -12 46
-3 95 38 l30 25 5 -39 c7 -46 16 -64 35 -64 21 0 26 15 15 45 -7 18 -6 39 1
68 17 64 17 102 -1 102 -8 0 -43 -29 -76 -65 -72 -77 -93 -86 -64 -30 11 22
18 40 15 40 -9 0 45 48 58 53 16 5 0 37 -18 37 -9 0 -27 -11 -40 -24z"/>
<path d="M9573 8780 c-17 -10 -37 -29 -44 -42 -7 -13 -17 -26 -22 -30 -7 -4
-7 -21 -1 -49 7 -34 16 -47 44 -63 63 -37 230 -18 238 28 3 16 0 18 -30 12
-78 -16 -149 -18 -178 -6 -17 7 -30 15 -30 19 0 4 21 12 46 19 94 25 133 81
82 116 -30 21 -66 20 -105 -4z m72 -30 c3 -5 -5 -15 -19 -22 -14 -6 -26 -15
-26 -19 0 -5 -7 -6 -15 -3 -22 9 -19 17 13 36 32 20 39 21 47 8z"/>
<path d="M11845 8779 c-11 -7 -30 -20 -41 -31 -19 -17 -22 -17 -27 -4 -10 26
-34 18 -48 -16 -7 -18 -12 -39 -12 -45 0 -7 -3 -10 -8 -7 -5 3 -9 1 -9 -5 0
-6 -13 -32 -30 -58 -16 -26 -30 -57 -30 -70 0 -46 35 -23 115 77 44 54 85 101
92 104 12 5 -11 -65 -42 -124 -30 -58 -7 -122 36 -99 16 8 18 13 8 25 -6 7 -9
25 -7 39 3 14 1 25 -3 25 -5 0 -1 8 10 19 23 23 63 127 59 155 -3 24 -34 31
-63 15z m-30 -77 c-3 -3 -11 0 -18 7 -9 10 -8 11 6 5 10 -3 15 -9 12 -12z"/>
<path d="M14241 8766 c-6 -8 -11 -18 -9 -22 1 -5 -8 -28 -20 -51 -31 -59 -28
-89 12 -129 33 -33 50 -39 110 -35 61 3 176 86 176 127 0 52 -80 103 -171 109
-34 2 -63 6 -67 9 -9 10 -19 7 -31 -8z m171 -63 c37 -16 55 -43 43 -63 -13
-20 -110 -70 -138 -70 -58 0 -97 42 -76 83 25 48 50 66 93 66 22 0 58 -7 78
-16z"/>
<path d="M14024 8736 c-3 -8 -3 -20 0 -25 4 -6 -9 -42 -29 -80 -37 -75 -45
-125 -20 -135 20 -7 47 22 40 44 -3 9 9 47 26 83 33 71 36 120 6 125 -9 2 -20
-3 -23 -12z"/>
<path d="M12890 8727 c-14 -7 -38 -33 -55 -59 -16 -25 -38 -48 -47 -51 -14 -4
-16 -14 -11 -63 3 -33 10 -64 15 -71 16 -20 60 -23 118 -10 43 10 55 17 55 31
0 11 -6 21 -14 24 -8 3 -11 1 -8 -4 3 -5 -21 -10 -53 -12 -32 -1 -61 2 -65 7
-9 16 6 61 21 61 24 0 92 38 107 61 16 23 12 55 -11 82 -18 20 -20 20 -52 4z
m30 -57 c0 -5 -14 -17 -31 -26 -31 -16 -32 -10 -6 24 11 14 37 16 37 2z"/>
<path d="M10830 8712 c-28 -23 -29 -65 -2 -102 18 -24 19 -29 6 -34 -25 -10
-44 -7 -41 6 1 6 -6 13 -15 16 -20 4 -41 -30 -32 -52 14 -36 154 -8 154 30 0
8 -12 31 -26 50 -22 28 -24 37 -14 49 7 9 19 14 25 11 19 -7 39 10 32 28 -9
22 -59 21 -87 -2z"/>
<path d="M12055 8720 c3 -5 0 -7 -8 -4 -9 3 -28 -15 -52 -51 -33 -48 -37 -59
-29 -83 11 -33 53 -41 90 -17 20 13 24 13 24 1 0 -19 31 -49 40 -39 13 14 21
121 9 128 -5 4 -34 -9 -62 -29 -58 -41 -72 -33 -32 19 17 23 34 35 50 35 29 0
41 16 25 35 -14 17 -65 21 -55 5z"/>
<path d="M12613 8701 c-22 -16 -52 -44 -66 -62 -15 -19 -27 -29 -27 -23 0 5 4
14 9 20 17 19 21 61 6 74 -18 15 -35 5 -35 -21 0 -11 -14 -55 -31 -99 -30 -78
-31 -100 -5 -100 14 0 52 49 48 63 -1 4 2 6 7 5 6 -2 37 26 69 61 34 36 66 61
73 59 20 -7 14 -69 -11 -125 -23 -53 -26 -89 -7 -96 18 -7 41 8 34 20 -3 5 5
36 18 69 28 68 32 130 9 162 -20 29 -43 28 -91 -7z"/>
<path d="M12228 8713 c-3 -4 -5 -19 -6 -33 -1 -14 -8 -45 -17 -69 -31 -88 -11
-138 32 -85 81 97 106 125 110 120 3 -3 -2 -36 -12 -75 -18 -73 -14 -111 11
-111 8 0 12 5 9 10 -3 6 -2 10 3 10 9 0 14 28 29 142 10 83 -32 103 -90 43
l-35 -36 2 43 c1 32 -3 43 -16 46 -9 2 -18 -1 -20 -5z"/>
<path d="M13093 8708 c-6 -7 -13 -42 -17 -78 -4 -36 -10 -82 -13 -102 -5 -33
-3 -38 15 -38 16 0 24 12 38 57 10 31 28 68 40 82 20 24 24 25 49 11 23 -12
28 -12 36 0 26 41 -29 72 -81 47 -29 -15 -30 -15 -30 9 0 26 -21 32 -37 12z"/>
<path d="M10614 8692 c-6 -4 -13 -16 -16 -27 -4 -11 -17 -44 -29 -73 -19 -44
-21 -55 -10 -62 24 -14 35 -2 60 65 14 36 29 65 33 65 15 0 8 28 -8 34 -19 7
-17 7 -30 -2z"/>
<path d="M13708 8535 c-10 -22 -9 -28 6 -43 16 -16 18 -16 32 3 19 25 14 59
-8 63 -11 2 -22 -6 -30 -23z"/>
<path d="M9802 7763 c1054 -2 2782 -2 3840 0 1058 1 195 2 -1917 2 -2112 0
-2977 -1 -1923 -2z"/>
<path d="M9797 7073 c1058 -2 2788 -2 3845 0 1058 1 193 2 -1922 2 -2115 0
-2980 -1 -1923 -2z"/>
<path d="M9797 6383 c1057 -2 2789 -2 3850 0 1060 1 196 2 -1922 2 -2117 0
-2985 -1 -1928 -2z"/>
<path d="M9797 5693 c1058 -2 2788 -2 3845 0 1058 1 193 2 -1922 2 -2115 0
-2980 -1 -1923 -2z"/>
<path d="M9802 5003 c1054 -2 2782 -2 3840 0 1058 1 195 2 -1917 2 -2112 0
-2977 -1 -1923 -2z"/>
<path d="M9802 3613 c1054 -2 2782 -2 3840 0 1058 1 195 2 -1917 2 -2112 0
-2977 -1 -1923 -2z"/>
<path d="M9797 2923 c1058 -2 2788 -2 3845 0 1058 1 193 2 -1922 2 -2115 0
-2980 -1 -1923 -2z"/>
<path d="M9797 2233 c1057 -2 2789 -2 3850 0 1060 1 196 2 -1922 2 -2117 0
-2985 -1 -1928 -2z"/>
<path d="M9797 1543 c1058 -2 2788 -2 3845 0 1058 1 193 2 -1922 2 -2115 0
-2980 -1 -1923 -2z"/>
<path d="M9802 853 c1054 -2 2782 -2 3840 0 1058 1 195 2 -1917 2 -2112 0
-2977 -1 -1923 -2z"/>
</g>
</svg>
