<?xml version="1.0" standalone="no"?>
<!DOCTYPE svg PUBLIC "-//W3C//DTD SVG 20010904//EN"
 "http://www.w3.org/TR/2001/REC-SVG-20010904/DTD/svg10.dtd">
<svg version="1.0" xmlns="http://www.w3.org/2000/svg"
 width="1618.000000pt" height="1214.000000pt" viewBox="0 0 1618.000000 1214.000000"
 preserveAspectRatio="xMidYMid meet">

<g transform="translate(0.000000,1214.000000) scale(0.100000,-0.100000)"
fill="#000000" stroke="none">
<path d="M14993 11736 c-34 -31 -44 -48 -40 -61 4 -9 13 -15 21 -12 8 3 -3
-30 -28 -83 -22 -48 -44 -86 -48 -84 -4 3 -12 -4 -18 -13 -10 -15 -11 -15 -6
-1 6 20 -24 29 -79 21 -46 -6 -60 -16 -52 -36 4 -12 19 -14 70 -10 43 4 67 2
71 -6 4 -6 -6 -40 -22 -76 -24 -50 -28 -66 -18 -74 17 -15 36 8 67 81 l24 58
67 0 67 0 -6 -35 c-11 -70 60 -121 129 -92 95 41 123 147 41 160 -12 2 -27 8
-35 14 -9 8 -28 8 -58 3 -60 -12 -151 -12 -169 -1 -13 8 -8 24 26 98 46 98 73
161 73 173 0 4 -7 11 -16 14 -10 4 -32 -10 -61 -38z m192 -296 c3 -5 17 -10
31 -10 33 0 31 -23 -7 -54 -36 -31 -69 -33 -93 -7 -14 16 -15 23 -6 41 16 30
63 49 75 30z"/>
<path d="M13997 11714 c-4 -4 -5 -22 -1 -39 6 -36 -19 -118 -71 -229 -20 -41
-37 -88 -38 -103 -3 -46 32 -42 92 11 29 25 56 46 61 46 12 0 12 0 -1 -39 -14
-39 4 -91 32 -91 24 0 33 18 19 36 -10 11 -10 27 0 73 7 33 9 64 6 70 -16 25
-68 6 -123 -43 -28 -24 -29 -17 -2 35 11 23 18 47 15 55 -3 8 -2 13 3 9 5 -3
19 20 31 52 25 67 25 156 0 161 -9 1 -19 -1 -23 -4z"/>
<path d="M8411 11692 c-5 -10 -19 -54 -30 -97 -31 -122 -31 -123 -53 -128 -16
-5 -19 -11 -15 -29 8 -29 -46 -116 -80 -129 -42 -16 -24 -56 21 -45 23 6 87
91 100 134 6 19 15 22 55 22 l48 0 11 -49 c6 -27 8 -65 5 -85 -5 -30 -3 -36
11 -36 10 0 25 7 33 16 14 13 14 23 4 72 -7 31 -15 65 -17 75 -5 14 2 17 41
17 39 0 46 3 43 18 -2 12 -15 18 -45 20 -48 4 -47 2 -63 122 -6 46 -16 92 -21
102 -12 23 -36 23 -48 0z m35 -219 c-2 -3 -15 -3 -28 -1 l-24 3 20 65 20 65 8
-64 c5 -35 7 -66 4 -68z"/>
<path d="M12052 11627 c-27 -33 10 -41 206 -44 203 -4 277 4 277 27 0 13 -29
15 -185 15 -102 0 -208 4 -235 9 -40 6 -53 5 -63 -7z"/>
<path d="M13512 11588 c4 -30 48 -39 48 -10 0 18 -18 32 -42 32 -5 0 -8 -10
-6 -22z"/>
<path d="M10703 11536 c-26 -23 -27 -25 -13 -52 8 -16 34 -51 57 -78 44 -50
52 -79 30 -110 -12 -17 -14 -17 -44 1 -25 14 -35 15 -44 6 -16 -16 4 -41 46
-59 25 -11 -140 -13 -983 -14 -714 0 -1011 3 -1007 11 15 23 -7 77 -50 126
-25 28 -45 56 -45 62 0 6 20 21 45 33 68 33 58 72 -12 43 -89 -37 -96 -81 -28
-157 25 -28 45 -56 45 -64 0 -21 -28 -17 -47 6 -22 25 -30 25 -38 -1 -4 -13 0
-27 11 -40 17 -19 12 -19 -362 -21 -208 -2 591 -5 1776 -8 1185 -3 2913 -3
3840 0 l1685 5 -1601 3 -1601 2 1 23 c1 21 -3 22 -62 22 l-64 0 6 35 c17 110
26 234 18 242 -19 19 -47 4 -45 -22 1 -14 -3 -77 -9 -142 l-11 -116 -39 -4
c-21 -2 -57 2 -80 9 -23 6 -45 10 -50 7 -14 -9 -9 -33 10 -43 12 -7 -184 -10
-625 -11 l-641 0 29 29 c24 24 29 38 29 76 0 42 -5 51 -50 99 -27 29 -50 57
-50 61 0 4 7 13 17 20 17 12 12 45 -6 45 -5 0 -22 -11 -38 -24z m1534 -48 c-3
-8 -6 -5 -6 6 -1 11 2 17 5 13 3 -3 4 -12 1 -19z"/>
<path d="M10396 11500 c-22 -39 -166 -180 -182 -180 -17 0 -25 -25 -11 -39 17
-17 22 -15 95 48 l68 58 1 -38 c2 -51 8 -59 42 -59 29 0 64 31 118 105 l22 30
1 -42 c0 -45 26 -83 55 -83 26 0 30 30 6 47 -19 13 -22 21 -16 61 3 25 8 49
11 53 8 14 -8 39 -26 39 -11 0 -40 -26 -67 -57 -26 -31 -61 -70 -76 -87 l-29
-31 6 58 c2 33 14 74 25 93 12 20 19 40 16 45 -12 19 -41 8 -59 -21z"/>
<path d="M13062 11508 c-13 -6 -21 -17 -18 -25 3 -7 -1 -13 -10 -13 -9 0 -12
5 -8 11 4 8 -1 9 -17 4 -59 -19 -69 -25 -63 -40 8 -20 33 -19 94 4 27 11 50
17 50 15 0 -3 -16 -28 -35 -57 -64 -94 -38 -125 57 -67 47 29 78 38 78 22 0
-18 42 -52 66 -52 18 0 32 12 55 48 31 49 35 85 9 90 -10 1 -23 -16 -38 -49
l-24 -51 -34 37 c-35 39 -52 40 -101 9 -35 -22 -35 -17 -2 36 17 27 29 58 27
67 -4 22 -52 27 -86 11z"/>
<path d="M10946 11489 c-14 -11 -28 -29 -31 -40 -4 -11 -12 -19 -18 -18 -26 3
-37 -2 -37 -16 0 -9 6 -18 14 -21 7 -3 16 -22 20 -43 8 -50 52 -91 105 -98 32
-4 42 -2 47 11 8 22 2 28 -37 32 -42 5 -69 30 -69 64 0 22 6 29 30 33 16 4 39
16 50 27 19 19 19 23 6 49 -20 37 -49 44 -80 20z"/>
<path d="M11194 11474 c-8 -19 -14 -38 -14 -44 0 -5 -4 -10 -10 -10 -6 0 -10
-30 -10 -70 0 -54 4 -72 15 -76 30 -12 47 17 42 66 -3 25 0 62 6 83 l12 37 37
-26 c35 -25 68 -27 68 -5 0 15 -93 78 -114 78 -11 0 -24 -13 -32 -33z"/>
<path d="M13695 11504 c-5 -1 -22 -5 -36 -8 -45 -10 -43 -33 6 -81 51 -49 53
-57 25 -85 -19 -19 -50 -18 -50 1 0 15 -30 10 -37 -6 -8 -23 26 -55 59 -55 19
0 40 10 59 29 39 40 39 79 -3 127 l-32 36 35 -4 c28 -2 34 0 34 16 0 19 -36
36 -60 30z"/>
<path d="M9451 11477 c-37 -18 -66 -82 -53 -112 15 -32 52 -41 90 -21 38 20
42 20 42 1 0 -20 52 -45 79 -38 29 7 23 35 -9 43 -21 5 -25 12 -25 42 0 27 -7
43 -28 62 -15 14 -32 26 -37 26 -4 0 -14 2 -22 5 -7 3 -24 -1 -37 -8z m49 -57
c0 -18 -26 -40 -49 -40 -16 0 -13 21 6 42 21 24 43 23 43 -2z"/>
<path d="M13466 11448 c-15 -23 -35 -97 -36 -130 0 -24 27 -23 39 1 11 20 31
95 34 125 3 28 -20 31 -37 4z"/>
<path d="M630 6040 l0 -5190 3310 0 3310 0 0 5190 0 5190 -3310 0 -3310 0 0
-5190z m6610 0 l0 -5180 -3300 0 -3300 0 0 5180 0 5180 3300 0 3300 0 0 -5180z"/>
<path d="M1506 11029 c-38 -30 -58 -73 -47 -102 11 -28 38 -47 104 -71 87 -32
137 -91 137 -160 0 -67 -78 -97 -145 -56 -34 21 -85 89 -85 114 0 22 -19 30
-36 15 -18 -15 -11 -40 28 -97 59 -85 156 -118 226 -76 67 39 76 123 21 208
-21 34 -42 51 -92 75 -36 17 -69 31 -74 31 -6 0 -18 9 -28 20 -17 18 -17 21
-1 45 13 19 25 25 54 25 21 0 48 -7 60 -16 26 -18 52 -12 52 11 0 20 -74 54
-116 55 -17 0 -43 -9 -58 -21z"/>
<path d="M1915 11033 c-103 -4 -127 -12 -107 -36 9 -10 31 -13 90 -9 76 4 78
4 90 -22 7 -15 12 -59 13 -99 1 -113 15 -241 28 -245 6 -2 9 -8 5 -13 -3 -5 4
-9 15 -9 23 0 25 7 11 65 -5 22 -10 91 -11 154 -1 63 -5 127 -9 142 -7 24 -5
28 16 33 14 4 43 2 66 -4 43 -12 65 -3 55 23 -7 17 -54 28 -116 25 -25 -1 -91
-4 -146 -5z"/>
<path d="M2552 11004 c-28 -19 -28 -47 -2 -149 21 -84 25 -141 11 -164 -8 -12
-16 -10 -46 13 -45 35 -96 103 -155 210 -37 66 -50 82 -72 84 -18 2 -28 -2
-31 -15 -3 -10 -5 -92 -4 -183 2 -139 4 -165 17 -165 21 0 27 41 29 175 l1
115 33 -56 c83 -143 166 -229 220 -229 37 0 63 42 60 100 -1 25 -11 83 -22
130 -17 76 -18 87 -5 101 11 12 12 19 4 24 -5 3 -8 11 -5 16 9 14 -8 11 -33
-7z"/>
<path d="M3322 10980 c-161 -108 -144 -310 30 -358 40 -11 206 3 223 19 6 6 3
15 -7 25 -14 14 -24 14 -89 3 -88 -14 -138 -7 -178 27 -84 70 -47 205 73 263
56 27 87 26 115 -3 23 -25 51 -25 51 -1 0 7 -9 24 -21 39 -18 23 -28 26 -79
26 -51 0 -65 -5 -118 -40z"/>
<path d="M3963 10994 c-3 -9 2 -30 12 -46 11 -20 20 -64 25 -127 8 -102 21
-141 45 -141 8 0 15 3 15 8 0 4 -7 65 -15 135 -11 98 -19 135 -35 157 -24 34
-38 38 -47 14z"/>
<path d="M2925 10889 c-28 -11 -64 -18 -81 -15 -37 5 -59 -6 -51 -28 15 -38
202 -2 202 39 0 25 -12 26 -70 4z"/>
<path d="M4247 10880 c-36 -29 -53 -83 -36 -122 15 -38 95 -78 154 -78 42 0
117 29 130 50 15 25 -13 35 -50 17 -49 -23 -122 -22 -162 3 -36 21 -43 53 -20
84 11 16 17 16 34 6 44 -28 96 13 61 48 -19 19 -82 14 -111 -8z"/>
<path d="M3697 10822 c-9 -10 -19 -36 -22 -58 -5 -31 -3 -45 13 -64 20 -24 21
-24 55 -8 l35 17 17 -45 c19 -51 54 -75 79 -55 17 14 10 41 -10 41 -16 0 -67
107 -58 121 10 16 -15 47 -47 58 -41 14 -43 14 -62 -7z m51 -72 c-19 -15 -24
-16 -26 -4 -2 8 -1 22 2 30 4 12 10 13 26 4 21 -11 21 -11 -2 -30z"/>
<path d="M4306 10393 c-4 -10 -1 -20 8 -25 39 -22 120 -93 154 -136 21 -27 44
-46 51 -44 8 3 11 0 7 -7 -4 -6 4 -40 19 -76 38 -95 37 -177 -4 -259 -40 -82
-115 -164 -134 -148 -17 15 -27 6 -27 -25 0 -102 176 61 220 204 24 79 25 103
4 185 -21 82 -39 116 -69 130 -27 12 -32 24 -12 31 16 7 -170 187 -193 187
-10 0 -21 -8 -24 -17z"/>
<path d="M3703 10358 c-23 -28 -75 -143 -103 -226 -34 -102 -50 -236 -38 -329
9 -81 56 -172 107 -207 45 -31 101 -45 101 -25 0 11 2 12 9 1 12 -19 85 -12
89 9 2 12 -8 15 -54 17 -88 2 -135 30 -175 105 -68 127 -49 320 53 539 37 78
43 86 67 85 20 -2 26 3 26 18 0 16 -8 21 -36 23 -21 2 -40 -2 -46 -10z"/>
<path d="M3047 10264 c-13 -13 -7 -58 23 -179 17 -66 33 -151 36 -190 6 -62 4
-73 -16 -97 -28 -36 -62 -36 -89 -2 -30 38 -27 77 10 119 25 28 34 33 46 24
11 -9 17 -9 26 0 18 18 -4 45 -38 48 -37 3 -89 -51 -107 -109 -11 -37 -10 -45
13 -87 19 -36 33 -49 65 -60 39 -14 43 -13 78 9 21 12 42 34 47 47 19 50 10
158 -25 299 -19 76 -34 148 -33 159 2 19 -23 32 -36 19z"/>
<path d="M4080 10218 c-14 -5 -45 -13 -69 -16 -47 -7 -57 -17 -41 -42 8 -13
18 -12 80 4 39 10 73 16 76 13 2 -2 -29 -26 -71 -53 -41 -27 -75 -54 -75 -61
0 -20 30 -31 74 -26 49 5 114 -29 133 -68 16 -32 2 -87 -29 -116 -58 -54 -251
-59 -231 -7 8 21 -16 35 -39 23 -30 -16 -22 -55 15 -78 45 -28 104 -35 170
-21 99 20 157 75 165 158 4 44 1 52 -27 85 -22 24 -38 34 -48 30 -11 -4 -14
-2 -9 5 4 7 6 12 4 12 -2 0 -20 6 -40 13 l-38 13 75 52 c51 35 75 59 75 72 0
18 -7 20 -62 19 -35 0 -74 -5 -88 -11z"/>
<path d="M2465 10208 c-2 -7 -1 -66 3 -130 l7 -118 -36 0 c-21 0 -47 -8 -60
-19 -22 -18 -22 -20 -7 -26 10 -4 38 -5 63 -2 l45 6 1 -37 c1 -20 0 -64 -1
-98 -2 -62 13 -91 39 -75 9 6 12 35 9 110 -3 112 -7 106 67 113 18 2 31 9 33
19 2 12 -8 16 -50 18 -29 1 -54 4 -56 6 -2 2 -7 52 -11 112 -4 60 -11 114 -15
121 -9 16 -25 15 -31 0z"/>
<path d="M2005 10110 c-9 -15 3 -30 24 -30 23 0 31 9 24 26 -6 16 -39 19 -48
4z"/>
<path d="M1487 9980 c-30 -24 -74 -109 -82 -160 -3 -19 -14 -43 -23 -53 -14
-16 -14 -21 -2 -50 11 -23 15 -70 15 -167 0 -128 1 -135 20 -135 18 0 21 9 28
121 l9 120 41 12 c81 23 146 112 147 200 0 104 -85 166 -153 112z m83 -40 c47
-47 32 -132 -36 -197 -50 -48 -56 -50 -79 -26 -34 33 0 168 55 223 25 25 35
25 60 0z"/>
<path d="M2171 9935 c-32 -37 -42 -63 -44 -117 -2 -27 2 -33 18 -33 16 0 21 8
25 41 7 46 34 94 54 94 24 0 34 -46 31 -134 -3 -69 0 -88 11 -93 23 -9 26 1
31 87 10 160 -54 237 -126 155z"/>
<path d="M2710 9937 c-33 -17 -68 -81 -68 -125 0 -27 8 -44 33 -69 28 -28 40
-33 82 -33 72 0 123 17 123 41 0 18 -4 19 -52 12 -72 -10 -107 -8 -121 7 -9 9
-8 15 7 24 121 73 138 98 90 135 -30 24 -58 26 -94 8z m80 -41 c0 -2 -22 -18
-50 -35 -55 -34 -58 -33 -33 10 14 23 25 29 50 29 18 0 33 -2 33 -4z"/>
<path d="M1755 9901 c-18 -36 -22 -109 -7 -138 27 -50 85 -34 116 30 23 49 20
84 -9 112 -35 36 -80 34 -100 -4z m75 -58 c-1 -33 -24 -68 -39 -58 -16 9 -13
46 6 67 23 25 33 23 33 -9z"/>
<path d="M2023 9903 c-16 -6 -17 -99 -2 -109 6 -3 16 -1 22 5 8 8 6 11 -8 12
-17 0 -17 2 4 10 20 8 23 14 17 41 -7 37 -16 47 -33 41z"/>
<path d="M12200 11078 c-17 -19 -108 -157 -113 -171 -3 -8 -14 -2 -31 16 -22
22 -35 27 -76 27 -53 0 -44 9 -104 -104 -32 -61 -36 -141 -8 -177 17 -23 17
-25 0 -59 -10 -19 -18 -31 -18 -26 0 5 -9 -3 -21 -18 l-20 -26 -880 0 c-834 0
-879 1 -870 18 5 9 21 57 34 106 l24 90 82 27 c87 30 121 53 103 71 -8 8 -30
3 -76 -16 -79 -31 -100 -33 -92 -8 22 69 33 193 20 226 -8 21 -38 20 -55 0
-11 -14 -11 -18 4 -29 21 -15 20 -46 -2 -145 l-16 -75 -52 3 c-28 1 -54 -2
-57 -7 -9 -14 22 -41 47 -41 43 0 48 -12 31 -71 -9 -30 -23 -66 -32 -81 -15
-25 -15 -29 3 -48 l18 -20 -450 0 -451 0 11 41 c8 32 12 38 19 25 11 -20 69
-21 106 -2 95 50 133 186 67 243 -14 13 -36 23 -48 23 -28 0 -93 -43 -108 -72
-8 -15 -13 -17 -19 -8 -4 6 -16 10 -26 8 -15 -3 -17 -12 -15 -59 1 -36 -6 -82
-19 -128 l-22 -71 -421 1 c-232 0 -415 3 -407 7 8 4 16 15 18 25 2 14 -5 17
-42 17 -59 0 -86 27 -86 84 0 52 27 96 73 121 39 21 51 55 19 55 -28 0 -99
-55 -117 -90 -41 -80 -22 -169 45 -202 34 -17 33 -18 -130 -21 -91 -1 107 -4
439 -5 l603 -2 -7 -22 c-16 -52 -17 -85 -2 -91 20 -8 36 12 52 65 l12 43 1332
3 1331 2 -35 -46 c-38 -50 -47 -94 -17 -94 25 0 44 15 40 32 -2 9 12 36 30 62
l33 46 1143 0 1142 0 -1 -27 c0 -40 30 -42 43 -4 l11 31 693 2 693 3 -695 5
c-382 3 -690 6 -685 8 6 1 18 15 28 31 13 22 24 29 46 29 76 -2 211 130 211
206 0 24 -19 51 -40 58 -7 2 -1 21 14 48 16 29 22 50 17 59 -14 23 -38 5 -60
-43 -12 -29 -29 -50 -44 -55 -30 -11 -41 -27 -27 -36 16 -10 13 -15 -48 -102
-45 -62 -62 -79 -70 -71 -36 36 29 163 96 189 25 10 29 37 7 45 -8 4 -27 -2
-43 -11 -84 -54 -138 -194 -97 -252 14 -20 13 -25 -12 -62 l-28 -40 -132 -1
c-95 0 -133 3 -133 12 0 6 14 33 31 60 23 35 37 48 55 48 13 0 24 5 24 11 0 5
4 7 10 4 14 -9 64 20 94 55 31 38 34 88 7 121 -19 24 -19 24 16 73 39 55 34
77 -14 60 -20 -6 -29 -17 -31 -36 -5 -46 -23 -51 -90 -29 -72 24 -96 20 -89
-18 3 -16 -2 -34 -13 -49 -36 -45 -35 -122 1 -172 9 -12 4 -26 -20 -65 -17
-27 -29 -55 -27 -62 4 -11 -186 -13 -979 -13 -869 0 -985 2 -985 15 0 8 5 15
11 15 6 0 9 6 6 14 -6 15 31 36 64 36 13 0 18 4 13 13 -6 10 -4 10 7 0 36 -35
117 1 167 73 39 56 39 92 1 145 l-21 31 62 90 c56 81 68 118 41 118 -6 0 -15
-6 -21 -12z m-187 -199 c20 -5 37 -14 37 -18 0 -5 -30 -48 -67 -96 -61 -79
-68 -86 -80 -69 -19 25 -16 72 8 123 34 76 38 78 102 60z m2001 -20 c12 -11
-83 -151 -98 -146 -17 6 -18 79 -1 107 8 14 18 33 21 43 5 14 13 17 38 11 17
-3 35 -10 40 -15z m-1906 -41 c20 -20 14 -69 -13 -104 -25 -33 -79 -58 -114
-52 -17 3 -11 14 42 85 34 45 64 82 68 82 3 1 10 -4 17 -11z m1963 -44 c-10
-22 -65 -64 -84 -64 -4 0 11 28 34 61 36 53 43 59 51 44 7 -11 7 -25 -1 -41z
m362 50 c9 -9 -11 -53 -43 -94 -16 -20 -26 -40 -23 -44 4 -4 1 -5 -7 -1 -8 3
-27 -6 -41 -19 -15 -14 -29 -23 -32 -20 -6 6 22 64 31 64 4 0 25 27 46 60 37
56 54 69 69 54z m-5100 -37 c7 -22 4 -38 -15 -75 -30 -60 -73 -87 -120 -73
-18 5 -25 10 -14 10 15 1 16 4 6 16 -10 12 -10 21 -1 41 6 14 8 30 5 36 -4 7
-2 8 4 4 7 -4 12 -2 12 4 0 7 14 25 32 41 40 38 77 36 91 -4z"/>
<path d="M13010 11069 c-53 -31 -93 -94 -131 -203 -23 -67 -40 -101 -51 -104
-18 -4 -26 -42 -9 -42 6 0 -1 -32 -15 -72 -21 -59 -23 -73 -12 -84 20 -21 32
-5 58 80 27 87 30 90 123 101 57 7 89 27 71 45 -6 6 -34 6 -73 -1 -35 -5 -66
-8 -69 -5 -2 3 8 42 24 88 21 63 38 94 70 126 41 42 84 56 84 27 0 -8 7 -15
16 -15 9 0 12 -5 8 -12 -5 -9 -2 -9 9 1 25 20 21 46 -9 70 -33 26 -50 26 -94
0z"/>
<path d="M9572 11058 c-7 -7 -8 -17 -3 -27 11 -20 -14 -158 -39 -216 -14 -32
-15 -45 -7 -48 9 -3 8 -8 -2 -18 -9 -9 -11 -9 -7 -1 4 6 3 12 -2 12 -15 0 -35
-131 -23 -143 19 -19 37 0 38 41 1 22 15 71 31 109 49 115 75 260 52 288 -15
18 -22 19 -38 3z"/>
<path d="M11676 10969 c-11 -19 -16 -41 -13 -57 3 -15 -1 -58 -10 -97 -9 -38
-17 -108 -17 -155 -1 -75 1 -85 17 -85 15 0 18 11 22 75 2 42 15 129 29 194
15 64 26 126 26 137 0 30 -33 23 -54 -12z"/>
<path d="M14685 10943 c-18 -96 -61 -256 -80 -300 -18 -40 -21 -54 -11 -62 29
-24 53 24 101 202 38 146 41 180 13 185 -12 2 -19 -5 -23 -25z"/>
<path d="M13692 10948 c-7 -7 -12 -22 -12 -35 0 -13 -21 -69 -46 -125 -53
-118 -65 -172 -40 -181 10 -4 18 -1 21 6 2 6 9 30 16 52 6 22 23 63 37 90 43
86 72 178 60 192 -13 16 -21 16 -36 1z"/>
<path d="M9718 10823 c-34 -38 -45 -60 -53 -114 -10 -66 19 -112 81 -130 33
-10 105 12 102 31 -3 12 -15 14 -54 12 -38 -3 -55 1 -68 13 -25 26 -16 57 19
68 17 5 45 21 63 34 28 21 33 30 27 52 -16 64 -73 81 -117 34z m69 -28 c6 -17
-18 -40 -49 -48 -24 -7 -23 4 3 37 23 30 37 33 46 11z"/>
<path d="M8695 10816 c-10 -32 -45 -182 -45 -193 0 -23 35 -14 53 15 9 15 32
45 51 67 l35 40 1 -53 c0 -75 16 -76 95 -7 l65 57 0 -39 c0 -48 20 -79 45 -70
12 5 15 12 9 25 -4 9 -7 34 -6 55 4 90 -36 99 -119 27 -57 -50 -64 -48 -42 10
4 8 5 22 4 30 -7 36 -42 30 -91 -16 l-25 -23 3 43 c3 35 1 43 -13 43 -9 0 -18
-5 -20 -11z"/>
<path d="M10389 10793 c-94 -79 -117 -168 -57 -218 31 -26 36 -27 118 -23 66
4 96 11 128 29 67 38 52 75 -16 40 -51 -26 -158 -37 -191 -19 -36 19 -36 35 1
42 18 4 56 21 85 38 46 28 53 36 53 63 0 36 -35 75 -67 75 -12 0 -36 -12 -54
-27z m77 -34 c6 -11 -37 -60 -53 -59 -5 0 -16 -3 -26 -6 -31 -10 -30 2 3 40
32 36 63 46 76 25z"/>
<path d="M8413 10758 c-64 -68 -72 -131 -23 -180 26 -25 36 -29 63 -24 41 8
78 35 95 69 10 21 10 36 2 68 -12 43 -54 94 -69 84 -5 -3 -12 -1 -16 5 -10 16
-19 12 -52 -22z m86 -54 c25 -56 -1 -104 -56 -104 -46 0 -55 57 -18 106 28 37
56 36 74 -2z"/>
<path d="M12624 10753 c-9 -16 -25 -39 -34 -53 -36 -52 -38 -111 -4 -124 23
-9 92 33 114 70 26 40 25 75 -1 108 -26 34 -54 33 -75 -1z m29 -95 c-10 -11
-26 -24 -35 -29 -21 -11 -16 5 22 66 l25 40 3 -28 c2 -18 -4 -37 -15 -49z"/>
<path d="M12189 10398 c0 -2 -1 -39 -3 -83 -3 -80 -47 -265 -88 -369 -10 -27
-17 -54 -14 -61 7 -20 93 -17 134 4 50 26 95 68 86 83 -4 6 -3 8 3 5 15 -9 42
24 49 60 13 65 -72 69 -144 7 -23 -20 -42 -32 -42 -27 0 4 9 39 20 77 11 38
18 72 15 74 -3 3 -1 10 4 16 14 17 30 152 22 183 -4 16 -15 29 -24 31 -9 2
-17 2 -18 0z m121 -361 c0 -8 -19 -32 -42 -55 -67 -67 -157 -99 -95 -34 15 16
27 34 27 42 0 7 3 10 7 7 3 -4 14 -1 22 7 14 12 71 46 79 46 1 0 2 -6 2 -13z"/>
<path d="M12536 10338 c-2 -7 -8 -50 -14 -95 -10 -77 -39 -164 -92 -275 -24
-52 -23 -81 2 -86 12 -2 20 7 26 30 5 18 26 71 47 117 46 103 81 264 66 298
-11 25 -30 30 -35 11z"/>
<path d="M10247 10334 c-4 -4 -7 -29 -7 -55 0 -45 -14 -91 -59 -193 -59 -134
-73 -177 -69 -205 l5 -31 -76 0 c-55 0 -72 3 -64 11 6 6 9 26 6 45 -4 24 2 45
21 79 42 77 15 87 -66 25 -29 -22 -59 -40 -66 -40 -7 0 -10 -4 -7 -10 3 -5 2
-10 -4 -10 -24 0 -19 22 14 58 28 31 40 38 61 34 23 -4 25 -2 22 24 -2 21 -9
30 -26 32 -45 7 -135 -92 -130 -142 3 -27 7 -31 36 -34 18 -2 46 4 64 12 17 9
32 16 33 16 1 0 0 -11 -3 -25 -2 -14 3 -36 12 -50 l16 -25 -941 0 -942 0 27
33 c74 91 111 195 95 267 -9 38 -40 70 -69 70 -25 0 -68 -36 -87 -73 -8 -18
-22 -35 -29 -40 -7 -4 -16 -24 -19 -45 -12 -75 -27 -128 -46 -169 -16 -34 -26
-43 -47 -44 -26 -1 -26 -2 3 -8 39 -8 42 -30 16 -133 -17 -64 -18 -84 -9 -90
21 -13 43 23 63 106 32 129 -131 116 1411 116 l1325 0 -15 -28 c-8 -15 -23
-36 -35 -46 -17 -15 -23 -16 -36 -6 -17 14 -45 7 -45 -12 0 -7 9 -24 19 -37
17 -22 19 -23 48 -8 38 20 91 80 99 112 l6 25 259 0 c210 0 259 -3 259 -13 0
-8 -7 -36 -15 -63 -19 -63 -19 -84 1 -84 15 0 54 76 68 133 l6 27 1311 0 1310
0 -7 -22 c-3 -13 -18 -45 -31 -72 -17 -33 -21 -52 -14 -59 19 -19 38 1 72 77
l34 76 785 2 785 3 -765 5 c-421 3 -756 8 -745 13 29 10 142 121 160 158 9 17
15 47 13 67 -2 29 -8 38 -25 40 -27 4 -106 -41 -133 -75 -17 -21 -21 -23 -26
-9 -3 9 -14 16 -24 16 -14 0 -18 -11 -23 -54 -3 -29 -15 -76 -27 -105 l-22
-51 -1315 0 c-1195 0 -1315 1 -1309 16 3 9 6 19 6 24 0 4 18 10 40 13 87 11
162 87 164 163 1 37 -4 50 -23 65 -36 29 -87 25 -122 -11 -17 -16 -33 -29 -37
-29 -24 4 -33 -4 -31 -23 1 -13 -2 -31 -6 -41 -4 -10 -5 -21 -1 -24 3 -3 2
-11 -3 -17 -5 -6 -17 -39 -26 -73 l-18 -63 -256 0 c-245 0 -257 1 -269 20 -7
11 -19 20 -28 20 -9 0 -18 -9 -21 -20 -5 -18 -14 -20 -105 -20 -84 0 -99 2
-89 14 16 19 -6 26 -88 26 -53 0 -72 4 -84 18 -50 55 29 162 110 149 39 -7 54
12 32 39 -10 12 -23 14 -53 10 -57 -10 -102 -41 -132 -92 -33 -55 -28 -107 11
-141 l26 -23 -95 0 -94 0 10 33 c20 62 47 133 93 245 36 90 45 123 43 160 -2
33 -8 48 -18 50 -9 1 -19 0 -23 -4z m-2091 -189 c16 -66 -30 -179 -102 -249
-21 -20 -39 -35 -41 -33 -2 2 6 34 18 71 11 38 21 82 21 99 1 30 27 96 50 125
18 21 47 14 54 -13z m3328 -41 c37 -14 7 -99 -46 -132 -46 -28 -83 -38 -72
-21 5 8 7 22 6 32 -4 22 42 102 66 116 20 12 26 13 46 5z m2716 -29 c0 -18
-35 -66 -79 -110 -39 -37 -54 -46 -62 -38 -9 9 -4 23 21 55 45 59 120 117 120
93z"/>
<path d="M8362 10185 c-17 -14 -39 -25 -48 -23 -14 2 -20 -11 -31 -77 -7 -44
-18 -92 -24 -107 -20 -48 16 -67 45 -24 8 14 20 46 26 73 6 26 22 67 36 90 25
43 46 54 94 50 19 -2 25 3 25 18 0 17 -8 20 -46 23 -38 2 -52 -2 -77 -23z"/>
<path d="M8664 10171 c-81 -65 -121 -120 -129 -178 -8 -61 3 -86 47 -109 38
-20 99 -15 179 15 71 27 91 42 80 60 -7 11 -19 10 -65 -8 -91 -34 -142 -43
-170 -30 -66 31 -31 92 65 113 35 8 119 99 119 129 0 59 -58 63 -126 8z m77
-18 c-19 -37 -105 -102 -117 -90 -6 6 103 107 116 107 7 0 8 -6 1 -17z"/>
<path d="M9595 10168 c-65 -36 -125 -122 -125 -180 0 -46 21 -72 80 -97 64
-28 163 -27 168 2 3 14 -4 17 -48 17 -61 0 -147 34 -155 61 -15 45 38 125 104
159 23 12 27 10 51 -19 41 -48 74 -33 42 19 -31 50 -72 63 -117 38z"/>
<path d="M14690 10169 c-63 -26 -125 -131 -118 -200 4 -45 34 -52 48 -12 5 15
15 36 20 46 6 9 8 28 4 42 -5 19 1 31 24 55 32 32 69 38 116 21 18 -7 28 -6
36 4 25 30 -79 66 -130 44z"/>
<path d="M13365 10147 c-50 -28 -54 -51 -16 -107 35 -51 38 -72 15 -95 -15
-15 -19 -14 -45 10 -27 27 -49 27 -49 0 0 -19 55 -75 75 -75 9 0 30 13 46 29
38 39 39 91 3 145 -29 43 -26 49 31 69 22 8 40 20 40 28 0 23 -57 21 -100 -4z"/>
<path d="M11732 10132 c-10 -9 -27 -30 -37 -45 -10 -15 -24 -26 -31 -23 -16 6
-37 -19 -31 -36 2 -7 -2 -30 -9 -52 -19 -52 -18 -66 4 -66 11 0 25 14 35 36
10 20 34 61 53 92 29 45 38 53 45 40 5 -10 17 -14 29 -11 24 6 24 8 3 44 -22
37 -37 42 -61 21z"/>
<path d="M9213 10121 c-4 -17 -13 -20 -50 -19 -46 1 -70 -12 -58 -31 4 -7 35
-11 81 -9 64 1 74 4 74 20 0 10 -4 18 -9 18 -5 0 -8 7 -7 16 2 25 -24 29 -31
5z"/>
<path d="M12645 10103 c-57 -59 -75 -103 -63 -157 12 -57 46 -86 100 -86 45 0
98 24 98 45 0 24 -18 26 -33 4 -8 -11 -18 -16 -21 -11 -3 5 -16 7 -30 5 -33
-7 -63 11 -68 41 -4 22 1 29 35 46 99 52 133 96 101 131 -29 32 -77 25 -119
-18z m45 -44 c-49 -41 -63 -36 -17 7 21 20 42 33 45 29 4 -4 -9 -20 -28 -36z"/>
<path d="M13080 10113 c-14 -9 -37 -27 -52 -41 -22 -20 -28 -22 -28 -10 0 34
-41 27 -87 -14 l-22 -20 6 21 c3 12 9 24 14 27 14 8 10 44 -4 44 -24 0 -44
-34 -61 -105 -10 -38 -24 -80 -32 -93 -17 -26 -12 -52 9 -52 7 0 37 34 66 75
50 70 77 94 52 47 -6 -12 -11 -28 -11 -36 0 -31 32 -15 88 42 87 89 92 92 79
40 -16 -65 -14 -109 5 -121 25 -16 51 8 36 33 -9 14 -9 28 0 58 18 59 15 100
-7 112 -25 13 -22 13 -51 -7z"/>
<path d="M14387 10089 c-73 -60 -97 -146 -52 -189 29 -27 103 -36 130 -16 28
20 9 38 -34 31 -25 -4 -42 -1 -56 9 -20 15 -19 16 10 40 17 14 35 25 41 26 18
0 64 55 64 77 0 26 -25 53 -48 53 -10 0 -34 -14 -55 -31z m40 -44 c-15 -14
-33 -25 -40 -25 -7 1 2 12 18 25 39 32 58 32 22 0z"/>
<path d="M11884 10077 c-68 -107 -51 -197 39 -197 31 0 46 7 72 33 79 79 41
197 -63 197 -19 0 -33 -9 -48 -33z m104 -49 c11 -23 10 -32 -3 -58 -9 -17 -28
-36 -42 -43 -22 -10 -28 -8 -44 11 -15 19 -16 28 -7 55 12 38 45 69 67 65 9
-2 22 -15 29 -30z"/>
<path d="M8246 9735 c-13 -13 -16 -37 -16 -121 0 -85 -14 -194 -25 -194 -1 0
-16 7 -33 15 -27 14 -35 14 -64 1 -52 -22 -106 -83 -121 -134 -16 -53 -7 -110
19 -129 14 -10 5 -13 -52 -16 -38 -1 103 -4 312 -5 l382 -2 -31 -89 c-27 -77
-30 -91 -18 -105 19 -23 32 -8 48 55 7 29 22 71 33 95 l19 44 150 0 c138 0
151 -2 151 -18 0 -20 -21 -54 -58 -94 -20 -22 -23 -30 -13 -42 7 -8 19 -12 27
-9 20 8 69 80 83 126 l13 37 1293 0 1294 0 -50 -87 c-54 -98 -62 -136 -27
-131 14 2 25 13 30 33 5 17 28 64 51 105 l43 75 1062 3 1062 2 -6 -30 c-4 -19
-2 -30 5 -30 6 0 11 6 11 13 0 9 2 9 9 -1 6 -10 11 -5 21 17 l12 31 167 0
c107 0 171 -4 178 -11 8 -8 13 -8 17 0 5 8 207 12 674 13 504 2 563 3 240 5
l-426 3 14 63 c8 34 30 115 50 179 35 116 38 148 11 148 -12 0 -101 -276 -114
-356 l-6 -34 -214 0 -213 0 16 25 c12 18 25 25 49 25 63 0 121 44 150 114 19
45 22 110 6 130 -8 10 0 26 40 71 49 56 59 87 29 93 -10 1 -35 -24 -63 -62
-44 -59 -51 -65 -82 -64 -27 1 -32 4 -24 14 6 7 8 18 4 24 -28 46 -132 -79
-155 -188 -10 -43 -9 -57 4 -83 15 -30 15 -34 -5 -65 l-21 -34 -160 0 -160 0
20 32 c13 21 34 36 59 43 59 18 97 41 132 80 34 39 40 83 19 141 -11 32 -10
36 31 84 32 38 40 55 32 63 -16 16 -53 -7 -81 -54 -16 -24 -30 -37 -40 -34
-44 13 -68 14 -95 7 -23 -7 -30 -14 -30 -35 -1 -15 -12 -39 -27 -54 -61 -66
-77 -128 -44 -178 16 -25 16 -28 -1 -58 l-19 -32 -605 -2 c-522 -2 -600 0
-572 12 51 22 65 65 41 132 -11 29 -10 35 8 47 42 32 -42 55 -96 26 -25 -14
-59 -83 -60 -122 0 -38 18 -74 44 -86 15 -8 -112 -11 -431 -11 -249 -1 -453 2
-453 7 1 18 32 45 78 68 28 14 67 43 86 65 30 32 36 47 36 84 0 24 -5 55 -11
68 -10 22 -4 35 51 117 60 89 70 125 33 118 -10 -2 -18 -8 -18 -14 0 -5 -14
-28 -31 -49 -17 -22 -40 -56 -52 -76 l-22 -36 -39 19 c-21 10 -56 22 -77 25
-22 4 -44 13 -50 21 -6 9 -18 13 -28 9 -20 -8 -21 -47 -1 -47 18 0 20 -16 2
-23 -24 -9 -69 -113 -69 -161 0 -57 26 -112 61 -127 27 -12 28 -13 12 -41
l-16 -28 -1298 0 -1297 0 -10 25 c-5 14 -13 25 -18 25 -15 0 -31 -22 -25 -36
4 -12 -21 -14 -141 -14 l-147 0 54 103 c62 116 84 174 70 188 -17 17 -41 -1
-47 -34 -4 -18 -33 -83 -67 -144 l-60 -113 -297 0 c-294 0 -296 0 -262 18 43
23 119 143 150 238 27 80 44 301 25 322 -10 11 -15 11 -29 -3z m3539 -239 c19
-8 35 -18 35 -21 0 -16 -115 -207 -127 -212 -21 -8 -52 26 -59 64 -8 44 8 99
43 146 31 40 54 45 108 23z m2237 -22 c8 -7 -122 -194 -134 -194 -14 0 -21 28
-13 57 3 14 33 53 66 85 58 57 70 64 81 52z m358 -30 c0 -11 -115 -174 -124
-174 -14 0 -1 91 18 132 11 22 27 39 39 41 35 7 67 7 67 1z m-310 -48 c0 -32
-34 -73 -80 -96 l-38 -20 50 75 c51 74 68 84 68 41z m356 -29 c-8 -43 -65
-111 -94 -115 -28 -3 -30 -6 38 95 54 81 68 86 56 20z m-2569 16 c-4 -27 -17
-48 -43 -71 -21 -17 -39 -30 -41 -28 -4 3 21 54 64 129 2 4 9 7 15 7 7 0 8
-14 5 -37z m-3693 -53 c-44 -81 -81 -120 -111 -120 -53 0 -41 85 21 147 38 38
48 42 84 40 l41 -2 -35 -65z m4495 -76 c1 -18 -37 -47 -54 -41 -21 9 -20 76 2
107 l17 24 17 -40 c10 -21 18 -44 18 -50z"/>
<path d="M13004 9695 c-16 -7 -42 -27 -58 -45 -30 -37 -86 -144 -105 -202 -10
-30 -18 -38 -37 -38 -29 0 -33 -29 -6 -37 17 -4 18 -13 14 -79 -5 -76 5 -104
35 -104 12 0 14 7 9 32 -4 18 -4 59 0 90 l7 58 58 0 c69 0 109 13 109 36 0 14
-9 15 -75 9 -54 -5 -75 -3 -75 5 0 21 43 115 78 168 28 43 37 50 48 41 23 -19
64 4 64 35 0 35 -27 47 -66 31z m11 -295 c3 -5 1 -10 -4 -10 -6 0 -11 5 -11
10 0 6 2 10 4 10 3 0 8 -4 11 -10z"/>
<path d="M10397 9653 c-4 -3 -4 -56 -1 -117 6 -90 3 -123 -10 -171 -30 -102
-81 -150 -125 -118 -27 18 -28 72 -2 104 19 23 21 23 48 8 55 -32 75 8 21 41
-44 27 -52 25 -91 -13 -80 -77 -44 -197 59 -197 28 0 100 62 90 79 -3 5 0 11
7 14 28 11 52 109 50 214 0 78 3 103 13 107 22 9 16 24 -16 41 -33 17 -34 17
-43 8z"/>
<path d="M11426 9538 c-15 -55 -29 -95 -60 -170 -40 -96 -43 -120 -21 -138 20
-17 35 -4 35 31 0 17 17 74 39 127 53 132 53 133 40 148 -14 17 -29 18 -33 2z"/>
<path d="M13693 9520 c-3 -12 -21 -53 -40 -93 -68 -140 -88 -222 -58 -234 22
-8 26 -1 36 53 5 26 32 98 60 160 28 62 48 118 44 123 -11 18 -37 12 -42 -9z"/>
<path d="M8630 9477 c0 -31 23 -184 31 -204 8 -22 33 -31 42 -15 5 8 -29 208
-38 223 -9 14 -35 11 -35 -4z"/>
<path d="M8378 9438 c-43 -67 -42 -134 2 -158 17 -9 29 -8 60 8 l39 19 10 -28
c8 -23 16 -29 40 -29 37 0 46 12 20 30 -14 11 -19 26 -19 63 0 40 -3 50 -20
54 -11 3 -20 11 -20 18 0 43 -87 61 -112 23z m75 -48 c15 -28 14 -31 -10 -50
-41 -32 -57 -27 -50 16 6 36 22 64 37 64 5 0 15 -13 23 -30z"/>
<path d="M9710 9437 c-59 -30 -107 -146 -81 -196 16 -29 62 -27 100 5 l31 26
0 -29 c0 -31 16 -53 38 -53 11 0 13 8 9 30 -4 18 2 56 14 96 19 60 19 67 5 83
-9 10 -16 22 -16 28 0 22 -63 29 -100 10z m80 -45 c0 -15 -56 -88 -85 -110
-52 -41 -58 7 -9 81 20 31 30 37 59 37 19 0 35 -4 35 -8z"/>
<path d="M9926 9425 c-3 -9 -6 -25 -6 -34 0 -10 -9 -44 -19 -76 -11 -32 -17
-64 -14 -71 7 -20 32 -17 40 4 3 9 13 25 21 35 8 9 12 17 8 17 -4 0 14 18 39
40 25 22 53 40 61 40 21 0 19 -89 -2 -105 -15 -11 -15 -14 1 -38 16 -25 44
-37 46 -19 0 4 2 16 5 27 14 65 15 141 2 158 -19 25 -73 25 -108 -1 l-29 -22
-3 28 c-3 30 -32 42 -42 17z"/>
<path d="M12157 8984 c-4 -4 -7 -22 -7 -41 0 -18 -15 -111 -34 -206 -35 -178
-37 -231 -6 -247 25 -14 31 -2 24 50 -4 32 3 91 25 199 31 150 37 241 15 248
-5 2 -13 0 -17 -3z"/>
<path d="M14580 8966 c-6 -16 -6 -44 -1 -73 5 -27 12 -81 16 -122 l7 -73 -23
8 c-50 16 -92 1 -152 -55 -63 -57 -76 -133 -31 -178 23 -22 31 -25 71 -19 127
17 189 158 165 374 -9 84 -9 108 1 114 9 5 9 12 1 25 -18 28 -43 28 -54 -1z
m-15 -320 c14 -21 14 -28 2 -58 -32 -76 -138 -121 -153 -64 -8 34 19 81 68
116 50 36 63 37 83 6z"/>
<path d="M8863 8962 c-6 -4 -13 -29 -17 -57 -4 -27 -16 -84 -26 -125 -39 -156
-35 -264 10 -305 18 -17 22 -17 36 -4 13 14 12 18 -6 39 -25 29 -27 131 -5
230 32 143 45 205 45 211 0 11 -26 18 -37 11z"/>
<path d="M9746 8928 c-25 -83 -45 -416 -27 -461 12 -31 37 -45 53 -29 8 8 6
21 -6 45 -14 31 -15 53 -6 189 5 84 14 175 20 202 5 26 7 52 4 57 -8 13 -34
11 -38 -3z"/>
<path d="M11744 8908 c-4 -6 0 -16 9 -23 11 -8 17 -26 17 -51 0 -48 -31 -177
-63 -267 l-25 -67 35 -30 c56 -50 156 -38 214 26 85 94 -8 165 -134 104 -31
-15 -37 -15 -33 -3 13 33 45 171 52 220 5 41 3 58 -10 78 -17 26 -50 33 -62
13z m173 -345 c4 -11 -4 -25 -26 -44 -48 -40 -141 -49 -141 -14 0 12 60 57 90
68 32 12 71 7 77 -10z"/>
<path d="M10242 8749 c-76 -38 -79 -86 -7 -145 42 -34 74 -88 61 -102 -4 -4
-25 3 -46 14 -40 22 -67 17 -57 -10 10 -25 90 -60 121 -52 23 6 26 11 26 49 0
50 -25 94 -74 132 -20 15 -36 33 -36 41 0 23 44 45 77 38 21 -4 32 -2 36 8 15
41 -42 57 -101 27z"/>
<path d="M11072 8743 c-21 -4 -73 -51 -112 -99 -8 -10 -16 -34 -17 -54 -2 -58
-31 -252 -42 -290 -7 -21 -7 -38 -2 -43 19 -19 40 3 55 60 40 147 46 162 69
169 44 13 86 55 116 115 17 34 31 72 31 84 0 38 -49 67 -98 58z m48 -68 c0
-34 -63 -131 -90 -140 -28 -9 -36 0 -20 21 11 12 11 20 2 35 -23 37 34 109 85
109 18 0 23 -6 23 -25z"/>
<path d="M12970 8723 c-51 -26 -53 -64 -5 -109 20 -19 44 -34 54 -34 21 0 44
-40 39 -66 -8 -43 -118 -22 -118 23 0 8 -5 11 -11 7 -6 -3 -15 0 -20 7 -6 10
-9 5 -9 -16 0 -17 7 -40 15 -52 33 -48 149 -54 180 -10 35 49 9 105 -69 151
-57 33 -64 51 -24 65 17 6 42 11 55 11 18 0 24 5 21 18 -5 24 -64 27 -108 5z"/>
<path d="M8041 8705 c-37 -32 -55 -84 -48 -142 9 -81 70 -119 177 -109 84 9
164 36 168 59 4 21 -17 22 -82 2 -63 -19 -149 -19 -186 0 -77 40 -25 190 59
168 12 -3 21 -11 21 -18 0 -18 39 -30 53 -16 8 8 7 18 -3 37 -27 50 -109 60
-159 19z"/>
<path d="M12294 8717 c-63 -37 -114 -98 -114 -137 0 -54 76 -92 187 -91 81 0
96 5 91 29 -3 14 -15 16 -73 14 -71 -3 -145 14 -153 36 -2 7 17 14 49 18 60 8
89 32 89 72 0 31 -25 72 -43 72 -7 -1 -21 -6 -33 -13z m19 -74 c-9 -7 -26 -13
-37 -13 -19 1 -18 3 8 26 23 20 31 23 37 12 6 -8 3 -18 -8 -25z"/>
<path d="M12551 8703 c-16 -31 -34 -174 -23 -185 16 -16 28 -3 51 60 11 32 31
67 42 78 l22 19 -7 -65 c-4 -36 -10 -77 -13 -92 -5 -23 -2 -28 15 -28 14 0 39
22 74 65 28 36 52 65 53 65 1 0 0 -24 -3 -53 -3 -41 0 -57 14 -75 18 -21 20
-22 39 -7 11 9 14 13 6 9 -11 -6 -13 11 -10 97 3 88 2 104 -12 107 -17 3 -50
-25 -91 -78 l-28 -35 0 57 c0 47 -4 59 -20 68 -14 7 -26 8 -39 0 -13 -7 -22
-7 -26 0 -10 16 -33 12 -44 -7z"/>
<path d="M13633 8688 c-40 -29 -63 -68 -63 -107 0 -42 26 -55 78 -37 l40 14
12 -29 c7 -16 25 -38 40 -49 30 -21 55 -27 45 -10 -3 6 -2 10 4 10 18 0 1 27
-25 38 -20 10 -24 19 -24 57 0 33 5 50 20 62 28 24 25 40 -10 58 -41 21 -80
19 -117 -7z m82 -28 c3 -5 1 -10 -4 -10 -6 0 -11 -6 -11 -14 0 -15 -32 -39
-67 -50 -34 -11 -29 10 11 50 34 34 59 43 71 24z"/>
<path d="M14823 8688 c-80 -42 -116 -95 -93 -137 13 -25 74 -29 104 -6 27 21
36 19 36 -8 0 -24 28 -57 48 -57 20 0 24 21 7 40 -16 18 -17 26 -5 80 11 54
11 62 -4 79 -26 29 -51 31 -93 9z m50 -34 c16 -16 -60 -84 -94 -84 -23 0 -2
36 36 62 43 29 48 31 58 22z"/>
<path d="M9842 8688 c-11 -11 -9 -94 4 -156 12 -60 85 -82 129 -38 45 45 42
178 -4 184 -22 4 -22 2 -16 -52 8 -65 1 -101 -21 -110 -25 -9 -42 10 -50 57
-4 23 -7 44 -7 47 0 3 4 22 7 43 6 32 4 37 -12 37 -10 0 -23 -5 -30 -12z"/>
<path d="M11283 8685 c-26 -18 -63 -112 -63 -161 0 -31 3 -35 23 -32 19 3 23
11 29 57 8 70 35 107 76 104 35 -3 49 11 32 32 -16 19 -70 19 -97 0z"/>
<path d="M8998 8673 c-35 -22 -50 -59 -46 -113 2 -36 9 -48 40 -73 29 -24 48
-30 100 -34 69 -4 95 5 84 32 -4 12 -13 15 -31 11 -32 -8 -115 11 -137 31 -38
34 -10 113 39 113 15 0 41 -5 59 -12 37 -13 66 -5 58 17 -6 14 -91 45 -123 45
-9 0 -28 -8 -43 -17z"/>
<path d="M11422 8680 c-27 -11 -39 -37 -24 -52 8 -8 16 -8 27 2 29 24 26 2 -5
-33 -56 -64 -59 -129 -7 -146 68 -22 158 23 178 87 28 95 -73 180 -169 142z
m122 -82 c20 -56 -27 -108 -98 -108 -36 0 -34 27 4 75 55 70 78 78 94 33z"/>
<path d="M15054 8666 c-14 -59 12 -114 63 -133 22 -8 21 -9 -17 -58 -42 -52
-69 -117 -62 -148 7 -32 35 -13 48 33 8 27 42 80 81 130 79 100 109 151 100
174 -10 25 -22 20 -77 -35 -64 -64 -85 -63 -85 6 0 44 -3 50 -22 53 -17 3 -24
-3 -29 -22z"/>
<path d="M8451 8644 c-32 -40 -41 -88 -17 -97 14 -6 32 -4 103 8 l42 7 3 -53
c3 -46 6 -54 23 -54 18 0 20 6 18 58 -1 32 -8 65 -14 74 -13 15 -85 16 -127 1
-22 -7 -22 -7 -6 17 15 23 20 24 70 19 50 -6 54 -5 54 13 0 15 -9 22 -30 27
-16 3 -43 9 -59 12 -24 5 -33 0 -60 -32z"/>
<path d="M9301 8627 c-23 -60 -16 -113 18 -148 29 -29 68 -37 116 -23 31 9 75
73 75 109 0 40 -20 68 -43 59 -18 -7 -24 -44 -7 -44 20 0 10 -32 -19 -61 -34
-34 -63 -37 -91 -9 -24 24 -26 67 -4 91 9 10 14 25 11 34 -10 23 -46 18 -56
-8z"/>
<path d="M15427 8504 c-4 -4 -7 -16 -7 -26 0 -13 7 -18 26 -18 21 0 25 4 22
22 -3 23 -27 35 -41 22z"/>
<path d="M14170 8429 c-68 -27 -121 -112 -179 -287 -49 -152 -65 -227 -50
-253 18 -35 51 -12 43 31 -3 14 -1 45 5 68 13 45 47 71 98 73 45 2 63 9 63 24
0 21 -46 29 -88 17 -20 -6 -37 -10 -39 -8 -1 1 9 36 23 78 44 132 125 241 156
210 18 -18 35 -14 41 10 11 42 -21 58 -73 37z"/>
<path d="M13286 8351 c-16 -16 -25 -34 -22 -40 4 -6 -14 -47 -40 -91 l-46 -81
-36 7 c-20 4 -44 16 -52 27 -26 31 -63 16 -97 -40 -66 -107 -78 -209 -32 -268
l21 -26 -27 -34 -26 -35 -782 1 c-546 0 -776 3 -761 11 12 5 27 21 33 34 21
48 14 70 -41 117 -61 53 -62 80 -1 77 56 -3 63 -1 63 14 0 27 -28 38 -80 31
-67 -9 -88 -36 -67 -88 8 -19 31 -47 51 -62 35 -27 48 -66 27 -80 -16 -9 -61
17 -61 37 0 21 -32 25 -48 5 -17 -20 12 -55 62 -78 40 -18 14 -19 -1449 -18
-819 1 -1483 3 -1474 6 14 3 18 27 24 136 5 73 8 174 9 225 0 91 0 92 26 93
47 2 125 -2 141 -7 8 -2 24 2 35 10 42 31 4 39 -248 47 -134 4 -254 9 -268 11
-35 4 -33 -23 3 -40 17 -8 79 -16 145 -19 117 -6 117 -6 121 -32 8 -52 5 -128
-7 -226 -7 -55 -11 -124 -10 -152 l3 -53 -245 -3 c-135 -1 888 -3 2273 -5
1384 -1 2517 -5 2517 -9 0 -5 -11 -26 -24 -49 -51 -89 -53 -144 -4 -144 18 0
20 4 14 31 -5 25 2 46 32 100 l37 69 872 0 873 0 -11 -27 c-12 -32 -5 -53 16
-53 16 0 19 5 29 53 l6 27 145 0 145 0 0 -23 c0 -15 6 -24 16 -24 9 0 21 11
27 24 l10 23 231 2 231 3 -228 2 -228 3 7 23 c10 34 20 41 69 42 53 1 93 33
125 103 24 50 29 136 12 169 -9 16 -6 30 15 70 26 49 27 88 1 78 -7 -3 -22
-24 -32 -46 -11 -22 -23 -42 -26 -44 -3 -2 -31 -5 -61 -6 -47 -2 -58 -7 -86
-36 -50 -53 -66 -138 -39 -213 11 -31 10 -40 -13 -87 l-25 -53 -143 0 c-79 0
-143 2 -143 5 0 2 10 24 21 49 l22 44 57 -5 c62 -6 98 7 138 50 49 52 35 146
-26 185 -31 20 -35 50 -8 74 21 19 15 48 -9 48 -9 0 -24 -15 -33 -32 -9 -18
-41 -55 -71 -83 -69 -65 -95 -115 -87 -169 5 -34 0 -52 -27 -103 l-32 -63
-864 0 -863 0 14 22 c10 15 30 25 58 30 57 10 116 52 151 108 33 51 36 94 13
143 l-16 34 49 84 c61 105 87 164 79 178 -11 17 -20 13 -50 -18z m1959 -253
c-9 -29 -62 -119 -92 -155 l-22 -28 -1 62 c0 77 15 113 47 113 13 0 26 7 29
15 4 8 15 15 26 15 15 0 18 -5 13 -22z m-2116 -35 c-13 -21 -45 -71 -72 -112
-46 -69 -51 -73 -63 -56 -20 27 -17 106 6 159 l19 46 66 0 67 0 -23 -37z
m2151 -79 c-20 -69 -85 -136 -104 -106 -3 5 14 37 38 73 23 35 49 79 57 97
l14 33 3 -27 c2 -15 -2 -46 -8 -70z m-309 67 c34 -27 32 -86 -4 -117 -33 -29
-68 -38 -103 -30 l-25 7 25 46 c20 35 23 49 15 59 -9 11 -7 14 9 14 12 0 23 9
27 20 8 25 26 25 56 1z m-1776 -20 c8 -36 -11 -75 -56 -119 -32 -31 -66 -49
-75 -39 -3 2 18 39 46 81 28 43 54 84 57 92 9 23 21 16 28 -15z m1644 -33
c-26 -52 -34 -61 -24 -28 8 26 34 70 41 70 3 0 -5 -19 -17 -42z"/>
<path d="M8660 8302 c0 -10 5 -23 11 -29 14 -14 10 -227 -5 -251 -3 -5 -8 -33
-10 -61 -2 -29 -7 -55 -10 -58 -3 -4 -6 -28 -6 -55 0 -69 25 -65 67 10 17 31
38 65 46 76 13 18 14 18 15 0 1 -11 2 -32 2 -49 1 -45 10 -65 28 -65 15 0 17
13 17 105 1 74 -3 106 -11 109 -17 6 -61 -29 -86 -68 l-20 -31 6 45 c25 200
28 267 12 303 -16 40 -56 53 -56 19z"/>
<path d="M12365 8248 c-7 -20 -65 -244 -88 -341 -16 -65 -19 -92 -11 -105 19
-29 39 -20 41 19 1 20 9 63 17 95 63 251 71 274 88 280 23 7 23 26 0 47 -22
20 -41 22 -47 5z"/>
<path d="M12767 8234 c-4 -4 -17 -7 -29 -8 -17 -1 -24 -8 -26 -28 -2 -20 -29
-51 -100 -114 -53 -48 -97 -94 -97 -103 0 -13 10 -16 60 -13 33 2 73 5 89 9
27 5 28 3 22 -18 -4 -13 -9 -49 -12 -79 -6 -61 10 -98 39 -87 13 5 14 12 7 37
-5 19 -5 53 2 90 9 48 15 60 32 62 25 4 35 38 12 38 -25 0 -14 120 14 160 12
17 19 37 16 45 -6 16 -18 19 -29 9z m-61 -180 c-7 -33 -8 -34 -54 -34 l-47 1
50 44 c53 47 61 45 51 -11z"/>
<path d="M15606 8218 c-15 -64 -46 -134 -95 -221 -32 -56 -62 -121 -66 -145
-6 -38 -5 -42 13 -42 20 0 32 18 32 48 0 9 28 64 61 122 62 108 104 212 95
236 -7 17 -36 18 -40 2z"/>
<path d="M14704 8202 c-5 -4 -18 -34 -28 -67 -18 -60 -85 -195 -114 -227 -12
-14 -12 -20 -2 -33 16 -19 50 -20 50 0 0 8 19 49 41 92 36 67 89 201 89 224 0
10 -25 18 -36 11z"/>
<path d="M8951 8126 c-16 -20 22 -67 40 -49 10 10 10 18 1 38 -13 28 -24 31
-41 11z"/>
<path d="M10125 8078 c-11 -5 -37 -29 -58 -52 -30 -31 -38 -36 -34 -20 2 12 1
27 -3 34 -15 25 -38 1 -50 -52 -6 -29 -19 -75 -27 -102 -13 -40 -13 -50 -2
-57 18 -11 30 0 84 84 26 40 58 80 70 89 l23 17 -11 -42 c-16 -69 -15 -92 8
-95 13 -2 26 7 37 25 9 15 33 44 53 63 l37 35 -7 -86 c-6 -74 -4 -88 11 -103
9 -9 23 -15 31 -12 8 3 17 6 19 6 2 0 4 9 4 20 0 12 -7 20 -16 20 -12 0 -15 6
-11 23 12 49 19 136 12 156 -9 29 -50 27 -92 -5 l-33 -25 0 34 c0 42 -17 60
-45 45z"/>
<path d="M9200 8029 c-50 -20 -54 -67 -10 -127 29 -40 31 -72 5 -72 -19 0 -38
28 -31 46 4 9 1 23 -5 31 -10 11 -15 11 -30 -3 -28 -25 -23 -52 15 -90 57 -57
103 -43 113 34 4 31 1 44 -15 60 -28 28 -44 60 -37 72 3 6 21 10 40 10 34 0
54 15 39 30 -16 14 -59 18 -84 9z"/>
<path d="M10448 8021 c-14 -12 -36 -40 -47 -64 -49 -101 -10 -167 99 -167 65
0 110 15 110 37 0 12 -13 13 -74 8 -67 -6 -76 -5 -95 14 -26 26 -28 51 -3 45
21 -6 116 55 120 77 4 22 -28 57 -58 64 -18 4 -34 0 -52 -14z m56 -39 c2 -4
-11 -17 -30 -30 -39 -25 -44 -19 -12 15 23 24 34 28 42 15z"/>
<path d="M10988 8026 c-10 -7 -16 -16 -13 -19 3 -4 2 -5 -1 -2 -4 2 -16 -1
-28 -7 -11 -7 -27 -12 -35 -13 -16 0 -18 -5 -61 -102 -31 -68 -33 -93 -7 -93
7 0 29 28 50 63 47 79 54 87 99 121 43 32 68 29 68 -10 0 -37 -30 -96 -46 -90
-7 3 -16 1 -19 -4 -4 -6 -1 -10 4 -10 6 0 11 -4 11 -10 0 -5 -7 -10 -15 -10
-23 0 -18 -17 8 -24 39 -10 44 -7 76 64 34 74 35 114 4 145 -18 18 -72 19 -95
1z"/>
<path d="M13746 7987 c-48 -45 -60 -89 -34 -115 30 -30 119 0 154 52 15 24 15
28 -3 63 -29 56 -59 56 -117 0z m82 -36 c-2 -9 -19 -24 -38 -34 -33 -16 -35
-16 -39 0 -4 22 44 64 65 56 8 -3 14 -13 12 -22z"/>
<path d="M10696 7991 c-60 -40 -84 -111 -48 -144 24 -22 51 -21 81 0 22 15 25
15 36 0 7 -10 19 -17 28 -17 13 0 15 10 12 58 -3 31 -4 60 -5 65 0 4 -6 7 -14
7 -8 0 -17 11 -20 25 -8 30 -30 32 -70 6z m34 -86 c-13 -14 -29 -25 -37 -25
-20 0 -15 31 9 57 19 21 24 22 37 8 13 -13 12 -17 -9 -40z"/>
<path d="M8896 7923 c-9 -30 -5 -113 6 -119 19 -12 31 16 34 76 3 53 1 60 -16
60 -10 0 -21 -8 -24 -17z"/>
<path d="M11893 7668 c-6 -7 -14 -29 -18 -48 -15 -68 -78 -236 -126 -336 -54
-111 -61 -144 -29 -144 11 0 20 5 20 12 0 6 26 68 59 137 60 129 119 297 123
352 3 34 -12 48 -29 27z"/>
<path d="M11562 7623 c-12 -5 -62 -104 -62 -123 0 -16 -102 -284 -117 -307
-23 -35 -4 -85 36 -97 68 -20 221 74 221 135 0 33 -41 69 -77 69 -13 0 -39 -7
-58 -14 -19 -8 -35 -14 -35 -12 0 20 96 278 112 300 17 23 18 30 7 41 -8 7
-20 11 -27 8z m32 -382 c16 -26 -90 -101 -143 -101 -44 0 -9 64 54 98 24 14
82 15 89 3z"/>
<path d="M13485 7599 c-9 -17 -14 -36 -12 -43 3 -7 -3 -30 -12 -52 -10 -21
-34 -93 -55 -158 -21 -65 -46 -131 -57 -145 -14 -20 -17 -33 -11 -56 8 -27 12
-29 60 -32 56 -4 76 4 135 50 42 33 80 98 71 122 -15 38 -79 46 -135 17 l-36
-18 20 65 c10 36 32 98 47 137 16 39 32 87 35 107 6 33 5 37 -14 37 -13 0 -26
-11 -36 -31z m75 -334 c0 -21 -71 -90 -106 -102 -16 -6 -37 -7 -46 -4 -17 6
-16 8 2 38 22 37 58 63 103 73 47 11 47 11 47 -5z"/>
<path d="M9801 7488 c-10 -64 -39 -173 -71 -274 -14 -43 -12 -61 6 -68 24 -9
31 -1 38 46 4 24 21 90 37 147 35 121 43 213 18 219 -13 2 -18 -12 -28 -70z"/>
<path d="M15046 7488 c-18 -40 -45 -120 -60 -178 -15 -58 -36 -118 -47 -135
l-19 -30 0 44 c0 32 7 53 25 77 29 38 32 64 8 64 -24 -1 -58 -48 -55 -78 1
-13 -2 -20 -8 -17 -6 3 -10 3 -11 -2 0 -4 -2 -19 -3 -33 -2 -14 2 -28 8 -32 8
-6 7 -8 -1 -8 -17 0 4 -47 25 -55 20 -7 58 19 76 53 7 15 28 79 45 142 37 135
48 166 73 202 24 35 23 58 -3 58 -16 0 -28 -17 -53 -72z"/>
<path d="M10818 7397 c-61 -46 -114 -129 -147 -227 l-28 -85 -1272 -3 c-1014
-2 -1271 0 -1271 10 1 48 10 55 65 50 51 -4 55 -2 94 34 85 80 97 190 24 220
-43 19 -81 7 -117 -37 -17 -20 -30 -26 -45 -22 -23 6 -22 10 -46 -102 -9 -44
-21 -97 -26 -117 l-10 -37 -82 -4 -82 -3 83 -2 c74 -2 83 -4 78 -19 -16 -59
-28 -134 -23 -147 10 -26 36 -18 42 12 3 15 13 55 22 90 l15 62 1274 0 c701 0
1274 -2 1274 -5 0 -2 -11 -30 -25 -62 -30 -66 -29 -98 0 -98 15 0 28 19 55 82
l35 83 693 0 c537 0 697 -3 712 -12 17 -11 22 -10 28 0 7 10 164 12 754 10
l747 -3 -59 -78 c-67 -90 -88 -133 -72 -149 14 -14 29 -3 48 34 8 16 43 67 76
111 l60 82 937 5 936 5 -927 3 c-511 1 -928 6 -928 10 0 11 98 162 122 189 22
24 18 53 -6 53 -12 0 -84 -100 -160 -222 l-16 -28 -749 0 -749 0 11 30 c6 17
14 30 18 30 4 0 22 25 40 55 18 30 37 55 41 55 8 0 3 -15 -26 -72 -18 -34 -17
-68 2 -68 5 0 37 32 71 70 35 39 66 70 71 70 5 0 6 -24 3 -53 -4 -42 -2 -57
12 -70 20 -21 39 -22 54 -3 10 11 7 17 -10 29 -11 9 -19 20 -15 25 3 5 6 33 7
62 3 74 -26 90 -79 45 l-29 -24 -11 24 c-16 34 -41 31 -82 -9 l-35 -33 0 36
c0 25 -5 36 -16 39 -13 2 -20 -13 -32 -82 -9 -46 -23 -100 -31 -120 l-15 -36
-428 0 c-293 1 -423 4 -411 11 33 19 68 93 68 142 0 65 -33 103 -81 93 -30 -6
-38 -15 -66 -71 -18 -35 -33 -74 -33 -85 0 -26 25 -77 42 -83 7 -3 -98 -6
-234 -6 -137 -1 -248 1 -248 4 0 2 5 15 11 28 10 21 16 24 53 20 122 -14 227
126 185 246 -21 60 -76 67 -141 18z m90 -19 c19 -19 14 -97 -8 -134 -22 -34
-102 -80 -120 -69 -6 3 -8 10 -5 14 2 5 -2 17 -10 27 -8 10 -15 24 -15 30 0
19 71 105 104 125 37 22 38 23 54 7z m-2630 -30 c17 -17 15 -43 -7 -86 -26
-51 -54 -74 -93 -75 -32 -2 -33 0 -33 35 0 20 -3 34 -7 31 -5 -2 -8 1 -8 6 0
6 7 11 15 11 8 0 15 5 15 11 0 19 67 79 88 79 10 0 23 -5 30 -12z m3007 -97
c11 -53 -42 -144 -71 -120 -19 15 -18 53 2 92 34 66 58 76 69 28z"/>
<path d="M8487 7402 c-31 -21 -69 -70 -98 -124 -19 -37 -24 -82 -13 -112 9
-24 41 -19 60 9 17 26 10 50 -12 41 -18 -7 -18 -3 6 44 25 48 78 110 94 110 7
0 18 -12 25 -26 13 -29 34 -28 39 2 4 25 -34 74 -56 74 -9 0 -29 -8 -45 -18z"/>
<path d="M9191 7394 c-32 -23 -61 -90 -61 -145 0 -51 20 -76 77 -98 31 -13 40
-12 116 11 38 12 50 28 20 28 -15 0 -16 2 -3 10 24 16 -9 13 -40 -3 -20 -11
-36 -11 -70 -3 -60 15 -72 46 -44 113 l20 48 57 -2 c42 -1 57 2 57 11 0 38
-89 59 -129 30z"/>
<path d="M11087 7389 c-38 -20 -84 -79 -117 -151 -11 -24 -25 -51 -32 -60 -10
-13 -10 -20 -1 -29 23 -23 56 11 67 66 3 18 39 69 75 107 26 28 40 36 57 32
24 -6 37 7 28 29 -9 24 -37 26 -77 6z"/>
<path d="M8651 7364 c-44 -39 -90 -122 -74 -133 5 -3 16 -19 24 -35 23 -47 61
-70 115 -67 54 2 80 17 64 36 -7 8 -25 11 -50 8 -27 -4 -47 0 -65 11 -39 25
-31 50 26 87 85 54 98 97 37 118 -17 6 -33 11 -34 11 -2 0 -22 -16 -43 -36z
m64 -24 c-3 -6 -21 -17 -38 -26 l-32 -17 24 27 c23 25 59 37 46 16z"/>
<path d="M12625 7367 c-35 -20 -40 -28 -38 -56 1 -25 13 -46 50 -83 47 -48 47
-50 28 -64 -33 -24 -63 -27 -90 -10 -44 29 -65 -9 -23 -38 43 -30 119 -15 161
32 25 28 16 52 -41 106 -53 52 -52 71 9 91 19 7 34 18 34 26 0 23 -47 21 -90
-4z"/>
<path d="M11920 7332 c-41 -41 -65 -105 -54 -147 10 -40 59 -75 105 -75 44 0
79 23 57 36 -7 5 -26 7 -41 5 -32 -3 -77 22 -77 44 0 8 20 23 45 34 50 22 95
62 95 86 0 24 -37 55 -66 55 -17 0 -40 -13 -64 -38z m69 -29 c-7 -8 -26 -21
-41 -29 -28 -15 -29 -14 -19 5 14 25 51 52 63 45 5 -3 3 -12 -3 -21z"/>
<path d="M9485 7345 c-84 -30 -114 -114 -50 -144 26 -12 35 -12 72 1 l43 16 0
-29 c0 -29 25 -63 41 -54 5 4 9 24 9 45 0 22 5 60 12 85 11 42 10 46 -12 70
-27 28 -56 31 -115 10z m73 -54 c-23 -38 -98 -66 -112 -42 -14 22 43 60 92 61
29 0 31 -2 20 -19z"/>
<path d="M9924 7331 c-80 -47 -94 -108 -38 -164 31 -31 109 -57 170 -57 56 0
74 8 74 32 0 18 -4 20 -39 14 -22 -3 -62 -1 -90 5 -95 20 -129 75 -74 118 38
31 67 35 108 15 26 -12 39 -14 47 -6 21 21 -19 51 -85 67 -14 3 -41 -6 -73
-24z"/>
<path d="M14384 7327 c-52 -36 -93 -102 -94 -150 0 -37 38 -74 85 -83 60 -11
144 37 105 61 -5 3 -10 -2 -11 -12 0 -11 -3 -13 -6 -5 -3 9 -16 11 -39 6 -19
-3 -46 -3 -60 0 -25 7 -26 10 -21 49 4 32 15 51 46 79 45 42 81 50 81 18 0
-22 -18 -32 -59 -34 -19 -1 -26 -6 -26 -21 0 -30 76 -27 110 5 30 29 32 59 4
94 -27 35 -57 33 -115 -7z"/>
<path d="M14720 7339 c-13 -6 -32 -17 -41 -25 -15 -13 -17 -13 -22 1 -12 31
-37 14 -67 -45 -16 -33 -30 -71 -30 -84 0 -47 22 -41 84 25 92 96 102 102 70
38 -30 -59 -35 -106 -14 -119 19 -12 42 8 35 31 -3 10 9 49 29 89 19 40 32 78
29 86 -6 16 -37 17 -73 3z"/>
<path d="M13628 7268 c-8 -22 -10 -107 -3 -128 4 -11 15 -20 26 -20 18 0 20 6
17 77 -2 62 -6 78 -19 81 -9 2 -19 -3 -21 -10z"/>
<path d="M8610 7008 c-18 -19 -48 -104 -80 -226 -11 -43 -11 -44 -53 -40 -36
3 -42 0 -42 -17 0 -16 8 -21 35 -23 l36 -3 -23 -92 c-28 -110 -27 -152 2 -152
15 0 20 7 21 30 1 34 9 75 31 157 l15 57 52 3 c44 3 51 6 54 25 3 21 1 22 -47
16 l-50 -6 33 110 c38 128 45 141 57 122 20 -33 54 -8 37 25 -22 42 -48 46
-78 14z"/>
<path d="M15356 6918 c-4 -24 -25 -84 -48 -135 -45 -97 -52 -103 -129 -103
-38 0 -75 -35 -58 -56 10 -13 15 -13 35 1 23 15 84 21 84 8 0 -4 -14 -51 -32
-105 -18 -53 -29 -101 -25 -105 19 -18 43 21 75 118 19 57 36 106 38 107 1 2
17 8 36 12 18 5 43 12 55 15 23 7 23 7 8 -41 -20 -65 -19 -123 0 -130 9 -4 31
6 51 22 56 44 98 74 105 74 4 0 4 -28 2 -63 -6 -70 10 -101 51 -95 29 4 34 38
7 45 -23 6 -25 18 -11 81 12 51 0 82 -32 82 -24 0 -81 -32 -120 -68 l-27 -25
15 55 c17 68 55 155 90 207 26 40 29 71 7 78 -7 3 -35 -31 -63 -75 -28 -43
-62 -85 -77 -93 -16 -8 -31 -18 -35 -24 -4 -5 -8 -6 -8 -1 0 5 -7 3 -15 -4
-25 -20 -18 4 21 82 22 43 38 92 41 124 5 49 4 54 -14 54 -16 0 -22 -9 -27
-42z"/>
<path d="M13183 6828 c-4 -7 -13 -35 -19 -63 -7 -27 -26 -104 -42 -170 -29
-110 -39 -159 -41 -192 -1 -9 -18 -13 -53 -13 -64 1 -86 23 -95 100 -5 41 -3
50 10 50 36 0 20 66 -18 76 -29 7 -105 -13 -129 -34 -23 -22 -56 -85 -56 -111
0 -53 64 -64 123 -21 18 14 27 16 27 8 0 -7 7 -25 14 -40 l15 -28 -404 0 -404
0 -3 23 c-2 12 -10 22 -18 22 -8 0 -16 -10 -18 -22 -3 -23 -6 -23 -139 -23
-75 0 -133 3 -130 7 4 3 2 12 -4 20 -8 9 -37 13 -91 13 -89 0 -89 -1 -47 81
28 56 100 279 94 290 -11 17 -27 10 -72 -32 -24 -22 -56 -46 -71 -52 -34 -15
-41 -61 -8 -51 12 3 36 15 54 26 l32 20 -29 -79 c-16 -44 -43 -109 -59 -146
-34 -74 -33 -73 -127 -57 -53 8 -78 -1 -68 -26 5 -13 -47 -15 -386 -14 -388 2
-391 2 -406 23 -16 23 -21 132 -7 155 6 8 31 12 79 11 75 -2 93 3 93 27 0 11
-16 14 -68 14 -38 0 -71 3 -75 6 -3 4 12 42 33 85 44 86 49 112 23 107 -10 -2
-38 -41 -65 -93 -35 -66 -52 -89 -65 -88 -10 2 -35 6 -55 9 -34 6 -38 4 -38
-14 0 -21 8 -25 66 -37 31 -6 32 -6 22 -48 -9 -41 -6 -105 8 -140 6 -16 -27
-17 -490 -17 -434 0 -496 2 -496 15 0 10 10 15 33 15 48 0 110 50 141 112 33
66 36 148 6 178 -33 33 -63 25 -127 -34 -59 -54 -64 -64 -118 -216 l-23 -65
-809 -5 -808 -5 809 -3 808 -2 -6 -22 c-4 -13 -14 -56 -23 -96 -14 -62 -15
-75 -3 -82 8 -5 18 -7 22 -4 10 6 61 116 77 167 l13 37 502 0 c439 0 504 -2
524 -16 30 -20 98 -21 121 0 16 14 84 16 684 16 575 -1 667 -3 667 -15 0 -34
-34 -96 -67 -121 -20 -15 -32 -32 -29 -40 6 -16 -10 -19 -17 -4 -3 6 -4 5 -3
-2 5 -19 45 -11 81 17 36 26 75 101 75 140 l0 25 481 0 c428 0 482 -2 497 -16
14 -15 17 -15 27 0 11 14 56 16 414 16 456 0 411 11 389 -94 -10 -51 -13 -57
-32 -52 -12 4 -48 9 -81 12 -55 6 -64 4 -89 -17 -37 -32 -48 -87 -31 -152 17
-67 46 -91 100 -84 48 7 103 62 132 132 l18 45 49 -6 c43 -6 48 -5 45 11 -2
10 -19 24 -39 30 -25 9 -34 18 -33 31 2 11 6 47 9 82 l7 62 801 2 801 3 -800
5 -800 5 -1 23 c-4 71 -28 174 -43 180 -9 3 -22 14 -29 24 -18 25 -60 19 -104
-15 -42 -31 -48 -59 -22 -95 17 -24 63 -29 110 -12 15 6 29 9 31 6 2 -2 7 -29
10 -60 l6 -56 -402 0 -401 0 0 28 c0 38 35 194 59 265 24 68 31 148 14 154 -6
2 -15 -2 -20 -9z m-3450 -200 c-1 -57 -32 -115 -77 -146 -53 -36 -59 -31 -51
41 8 65 27 101 72 137 41 32 58 23 56 -32z m4148 -36 c20 -9 8 -52 -15 -52 -8
0 -21 -3 -30 -6 -27 -10 -31 24 -5 46 26 21 27 22 50 12z m-999 -47 c-5 -30
-56 -75 -84 -75 -19 0 -19 1 4 42 20 37 39 51 79 57 3 1 4 -10 1 -24z m955
-346 l63 -11 -31 -58 c-34 -64 -52 -84 -85 -94 -31 -9 -56 25 -62 83 -3 40 -1
52 17 70 25 25 18 24 98 10z"/>
<path d="M10180 6800 c0 -34 23 -41 38 -12 13 23 4 42 -19 42 -14 0 -19 -7
-19 -30z"/>
<path d="M15044 6789 c7 -37 25 -53 42 -38 20 16 2 63 -26 67 -21 3 -22 1 -16
-29z"/>
<path d="M9385 6740 c-77 -17 -115 -52 -115 -103 0 -47 21 -85 63 -112 39 -25
44 -41 17 -55 -29 -16 -56 -4 -70 30 -7 17 -19 30 -27 30 -19 0 -29 -30 -12
-41 8 -5 10 -9 6 -9 -18 0 17 -43 46 -55 35 -15 72 -6 106 26 35 32 27 64 -24
99 -48 33 -65 56 -65 89 0 30 72 65 119 57 20 -3 45 -7 56 -8 29 -4 32 30 3
41 -42 15 -73 19 -103 11z"/>
<path d="M8210 6713 c-19 -3 -31 -16 -48 -52 -38 -83 -10 -141 69 -147 58 -4
83 9 103 51 15 31 16 41 5 66 -6 16 -20 34 -30 40 -11 5 -19 19 -19 29 0 20
-16 23 -80 13z m73 -81 c39 -35 -6 -88 -61 -73 -31 8 -41 46 -22 81 9 17 17
20 38 15 15 -4 35 -14 45 -23z"/>
<path d="M14525 6672 c-89 -46 -114 -75 -80 -88 9 -4 20 -3 24 3 3 5 34 23 68
40 72 36 72 33 2 -66 -70 -98 -45 -133 49 -71 33 22 62 40 66 40 3 0 6 -9 6
-20 0 -29 26 -76 45 -84 56 -21 94 18 102 104 4 45 11 65 24 73 37 23 14 52
-28 36 -23 -8 -43 -61 -43 -115 0 -16 -6 -38 -13 -48 -11 -16 -15 -16 -25 -3
-7 8 -16 34 -20 58 -6 36 -12 45 -31 47 -13 2 -35 -5 -50 -15 -49 -36 -50 -34
-16 19 19 29 35 58 35 64 0 7 7 15 16 18 9 3 14 15 12 28 -5 37 -45 32 -143
-20z"/>
<path d="M11540 6680 c-19 -15 -22 -22 -13 -31 18 -18 43 -3 43 26 0 30 1 29
-30 5z"/>
<path d="M9908 6669 c-30 -15 -45 -34 -73 -94 -38 -78 -41 -108 -14 -113 12
-2 22 15 39 60 29 80 66 118 114 118 29 0 36 4 36 19 0 11 -9 21 -22 25 -33 8
-39 7 -80 -15z"/>
<path d="M10280 6643 c-14 -9 -46 -36 -72 -60 -26 -24 -52 -43 -58 -43 -16 0
-12 -40 5 -47 10 -3 37 15 76 52 33 32 62 55 65 52 3 -3 -4 -28 -16 -55 -27
-63 -24 -86 14 -90 37 -5 58 15 34 32 -16 12 -16 16 2 64 24 63 25 98 4 106
-23 9 -27 8 -54 -11z"/>
<path d="M10993 6604 c-12 -33 25 -45 112 -38 84 7 107 16 88 35 -12 12 -100
14 -132 4 -11 -3 -22 -1 -26 5 -10 16 -35 12 -42 -6z"/>
<path d="M13557 6586 c-38 -21 -48 -22 -57 -11 -17 21 -40 7 -40 -24 0 -15 -7
-36 -15 -47 -8 -10 -15 -27 -15 -36 0 -25 37 -23 50 2 10 19 107 90 122 90 14
0 8 -29 -13 -70 -20 -37 -20 -43 -6 -57 17 -17 37 -10 37 12 0 8 9 29 20 47
25 42 25 73 0 98 -25 25 -27 25 -83 -4z"/>
<path d="M10029 6553 c-34 -55 -36 -98 -4 -98 11 0 21 7 21 15 1 8 2 20 3 26
0 6 12 28 26 48 14 21 23 42 20 47 -13 20 -37 6 -66 -38z"/>
<path d="M14967 6554 c-40 -65 -49 -85 -43 -100 11 -28 32 -13 65 47 29 55 31
63 18 76 -14 14 -18 11 -40 -23z"/>
<path d="M13243 6551 c-2 -9 -11 -28 -19 -43 -44 -82 30 -139 114 -88 41 25
42 57 2 95 -16 16 -30 34 -30 41 0 19 -61 14 -67 -5z m65 -98 c-13 -7 -28 -12
-34 -13 -20 0 -23 26 -7 50 l15 21 24 -22 25 -23 -23 -13z"/>
<path d="M11066 6302 c-3 -5 -13 -106 -22 -224 -13 -176 -13 -223 -3 -259 7
-24 13 -51 13 -59 1 -17 44 -26 58 -12 6 6 1 23 -12 45 -25 43 -27 108 -9 321
17 190 17 190 -3 194 -9 2 -19 -1 -22 -6z"/>
<path d="M9004 6267 c-16 -18 -42 -58 -59 -90 -24 -47 -34 -57 -55 -57 -14 0
-48 -11 -76 -24 -60 -28 -70 -48 -80 -159 -5 -55 -3 -81 10 -110 15 -36 14
-40 -6 -82 l-22 -45 -420 -2 -421 -3 416 -5 417 -5 -30 -67 c-29 -64 -32 -98
-8 -98 5 0 28 38 49 85 l40 85 1824 0 1825 0 -18 -78 c-9 -42 -26 -101 -36
-130 -19 -54 -13 -87 16 -87 11 0 54 99 64 149 3 11 12 47 20 79 9 32 16 60
16 62 0 11 207 4 218 -7 9 -9 18 -9 37 0 19 9 377 12 1427 12 771 0 1403 2
1406 5 3 3 -203 5 -457 5 l-462 0 7 23 c16 48 -3 103 -59 167 -26 30 -28 35
-13 38 10 2 25 -3 35 -12 35 -32 62 -6 35 33 -13 17 -25 21 -75 21 -90 0 -89
-13 11 -144 30 -39 39 -79 20 -91 -17 -11 -78 15 -119 50 -22 18 -37 35 -34
39 4 3 1 6 -6 6 -42 0 -8 -76 48 -109 l36 -21 -336 0 c-336 0 -337 0 -342 21
-5 18 -11 21 -36 16 -49 -10 -81 10 -81 50 0 28 4 33 23 33 39 0 112 29 148
59 l34 29 -21 29 c-17 22 -30 29 -67 31 -39 3 -50 -1 -81 -28 -50 -44 -90
-130 -82 -175 4 -19 17 -41 29 -50 19 -14 1 -15 -203 -14 -169 1 -216 4 -188
11 55 14 100 70 96 116 -4 50 -37 69 -93 53 -23 -6 -51 -20 -64 -32 -12 -11
-24 -19 -27 -17 -2 3 10 47 26 99 17 52 32 102 33 111 2 10 6 21 10 24 13 13
7 71 -8 84 -21 17 -38 2 -32 -29 7 -34 -78 -297 -98 -305 -10 -3 -15 -19 -15
-45 0 -43 -2 -42 95 -64 11 -3 -27 -5 -85 -6 -97 -1 -103 0 -82 15 31 21 28
60 -7 94 -16 16 -31 36 -34 45 -7 17 -33 20 -42 5 -3 -5 -19 -7 -35 -3 -32 6
-41 -12 -19 -34 8 -8 8 -13 0 -17 -14 -9 -14 -61 -1 -87 10 -18 7 -19 -84 -19
-115 0 -119 5 -81 112 32 88 41 99 70 92 13 -3 26 -1 29 5 8 12 -28 51 -48 51
-26 0 -65 -53 -87 -118 -12 -37 -30 -84 -41 -104 l-18 -38 -68 0 -68 0 52 54
c91 94 137 199 102 234 -17 17 -90 15 -118 -4 -83 -56 -136 -133 -160 -231
l-12 -53 -379 0 -380 0 7 35 c8 43 -29 111 -81 151 -19 14 -35 30 -35 34 0 4
19 11 43 16 27 6 42 15 42 24 0 35 -136 12 -143 -24 -5 -23 81 -105 105 -102
10 2 12 1 6 -1 -16 -6 -16 -13 2 -37 8 -11 15 -31 15 -45 l0 -24 -23 21 c-13
12 -30 22 -38 22 -12 0 -12 -2 0 -9 9 -6 10 -11 2 -15 -8 -5 -6 -13 6 -24 16
-16 -70 -17 -1382 -20 -769 -1 -1400 0 -1402 2 -3 2 3 18 12 35 13 26 21 31
53 31 81 0 192 109 192 187 0 41 -24 100 -51 129 l-20 22 25 49 c14 28 36 64
50 81 28 33 34 62 12 62 -8 0 -27 -15 -42 -33z m-114 -203 c0 -4 -24 -56 -52
-117 -44 -93 -54 -106 -59 -86 -6 23 -4 63 7 137 4 23 14 39 37 52 31 19 67
26 67 14z m91 -66 c9 -36 8 -46 -13 -87 -16 -31 -39 -55 -70 -74 -80 -50 -82
-36 -17 102 50 106 61 122 74 111 8 -7 20 -30 26 -52z m3689 -51 c0 -40 -128
-207 -158 -207 -15 0 -22 41 -11 62 6 11 8 26 5 33 -6 18 27 60 77 96 42 30
87 38 87 16z m1204 -26 c6 -9 -70 -51 -93 -51 -9 0 -9 5 -1 21 17 31 81 51 94
30z m-494 -95 c0 -8 -10 -27 -23 -42 -18 -21 -35 -28 -75 -32 -29 -2 -52 0
-52 5 0 11 47 56 75 71 29 17 75 15 75 -2z m-340 -46 c24 -24 20 -36 -14 -42
-44 -9 -72 22 -44 50 17 17 35 15 58 -8z"/>
<path d="M10255 6233 c-5 -10 -10 -103 -13 -208 -4 -190 3 -245 30 -245 10 0
13 47 15 208 1 114 3 218 5 232 4 30 -25 40 -37 13z"/>
<path d="M8262 6191 c-6 -3 -24 -54 -41 -111 -45 -160 -64 -311 -40 -326 20
-12 27 10 43 123 16 119 53 263 68 263 4 0 8 11 8 24 0 25 -19 39 -38 27z"/>
<path d="M8568 6153 c-19 -21 -84 -84 -144 -140 -77 -72 -106 -105 -98 -113 7
-7 40 -8 103 -2 l93 8 -7 -46 c-3 -25 -9 -60 -12 -77 -4 -25 -1 -34 11 -39 9
-4 19 -5 21 -2 5 5 23 83 30 129 4 26 12 39 30 47 27 13 34 42 10 42 -18 0
-18 -4 1 94 9 45 23 89 31 98 8 9 12 22 8 27 -12 21 -42 11 -77 -26z m-2 -90
c-3 -10 -10 -39 -16 -64 -12 -46 -12 -47 -58 -52 -26 -3 -51 -3 -56 0 -8 6
110 128 127 131 5 1 6 -6 3 -15z"/>
<path d="M13621 6108 c-17 -46 -38 -148 -29 -148 4 0 8 -4 8 -10 0 -5 -5 -9
-12 -7 -7 1 -20 -28 -33 -74 -11 -42 -26 -83 -33 -91 -15 -18 -6 -47 13 -44
26 4 51 35 53 68 1 18 16 80 34 138 34 112 41 180 21 187 -7 3 -17 -6 -22 -19z"/>
<path d="M9633 6020 c-43 -10 -59 -24 -94 -85 -39 -68 -39 -115 1 -149 38 -31
83 -40 157 -31 71 9 103 23 103 47 0 21 -8 22 -45 8 -46 -17 -152 -14 -181 5
-22 14 -25 22 -20 48 8 41 45 93 74 106 13 6 43 11 68 11 32 0 46 5 51 16 12
31 -40 42 -114 24z"/>
<path d="M10494 6005 c-38 -16 -48 -30 -68 -89 -16 -45 -15 -51 1 -85 24 -47
54 -61 136 -61 52 0 69 4 74 15 8 23 3 25 -77 29 -76 4 -100 17 -100 57 0 33
30 88 52 95 13 4 26 12 31 18 5 8 9 7 16 -2 13 -21 56 -11 56 13 0 17 -7 20
-46 21 -26 1 -59 -4 -75 -11z"/>
<path d="M11356 6012 c-10 -17 -3 -72 11 -72 20 0 16 -67 -7 -116 -41 -84 -88
-95 -108 -26 -25 87 -26 112 -2 137 22 24 20 45 -5 45 -28 0 -55 -42 -55 -85
0 -56 25 -138 50 -160 33 -30 79 -29 111 1 41 39 82 137 74 177 -18 88 -26
107 -45 107 -10 0 -21 -4 -24 -8z"/>
<path d="M10041 5986 c-10 -12 -17 -13 -31 -4 -27 17 -89 -1 -112 -33 -42 -56
18 -138 80 -110 23 11 28 9 54 -24 47 -57 86 -43 43 15 -30 41 -31 53 -4 89
23 32 22 74 -2 79 -9 1 -21 -4 -28 -12z m-34 -63 c6 -16 -43 -47 -62 -39 -21
8 -19 43 3 49 27 8 55 3 59 -10z"/>
<path d="M10701 5960 c-37 -22 23 -145 85 -175 33 -15 37 -15 67 2 26 16 34
29 46 77 10 40 11 60 3 68 -18 18 -42 1 -42 -29 0 -72 -30 -99 -74 -66 -27 19
-51 66 -49 94 2 23 -19 40 -36 29z"/>
<path d="M14103 5904 c-26 -20 -33 -22 -33 -10 0 19 -24 21 -37 4 -6 -7 -13
-26 -17 -43 -4 -16 -16 -49 -28 -73 -19 -40 -19 -72 0 -72 5 0 28 24 52 54 63
83 67 85 62 22 -3 -34 0 -56 7 -61 16 -9 58 19 98 64 l32 36 1 -36 c0 -20 7
-42 15 -49 15 -13 55 -5 55 11 0 6 5 7 10 4 6 -3 10 4 10 15 0 19 -4 21 -25
16 -24 -6 -24 -6 -22 61 2 63 0 68 -18 66 -11 -1 -29 -14 -40 -29 -11 -15 -35
-44 -52 -63 l-33 -36 20 60 c11 33 18 65 16 72 -8 20 -38 15 -73 -13z"/>
<path d="M10718 5624 c-55 -29 -107 -158 -108 -265 0 -44 -1 -45 -28 -41 -32
4 -56 -17 -46 -42 4 -10 18 -16 39 -16 l33 0 7 -62 c9 -77 29 -128 50 -128 20
0 30 26 17 43 -5 6 -15 43 -21 82 -11 74 -7 84 34 85 41 1 65 12 65 32 0 18
-5 19 -55 13 -63 -8 -62 -12 -44 95 11 71 29 116 60 149 26 28 39 27 39 -3 0
-14 5 -28 12 -32 7 -5 8 -3 3 6 -6 10 -4 12 8 7 24 -9 31 26 12 63 -17 33 -36
37 -77 14z"/>
<path d="M8113 5569 c-8 -8 -10 -39 -6 -93 6 -83 -9 -242 -29 -308 -8 -28 -8
-41 1 -51 6 -8 9 -22 5 -31 -8 -20 21 -65 44 -68 9 -1 -41 -5 -113 -8 -105 -5
-79 -6 137 -8 l267 -2 -24 -42 c-32 -60 -51 -126 -38 -139 18 -18 40 1 47 39
3 20 19 60 34 87 l27 50 1628 3 c895 1 1627 1 1627 0 0 -2 -7 -41 -15 -88 -20
-113 -19 -130 4 -130 28 0 60 97 61 183 l0 37 338 0 c257 0 341 -3 351 -12 11
-10 14 -10 18 0 6 17 264 17 281 0 9 -9 15 -9 24 0 8 8 57 12 154 12 128 0
142 -2 140 -17 -2 -26 34 -29 41 -4 l5 21 1222 3 1221 2 -1386 3 -1386 2 14
92 c7 50 16 94 19 97 2 3 48 7 102 9 96 4 121 14 100 39 -7 9 -34 11 -98 8
l-88 -5 25 92 c13 51 28 97 34 102 17 18 10 46 -11 46 -25 0 -35 -22 -69 -147
l-26 -98 -55 -2 c-79 -2 -114 -15 -118 -43 -3 -20 -1 -22 25 -16 15 4 52 10
82 13 49 5 54 4 47 -12 -6 -17 -25 -136 -26 -162 0 -10 -33 -13 -130 -13 -151
0 -146 -6 -100 110 33 84 37 112 15 130 -20 17 -61 5 -120 -35 -27 -19 -51
-30 -53 -25 -4 12 -52 14 -53 3 -3 -32 -12 -61 -25 -80 -34 -53 17 -58 67 -7
37 38 131 104 148 104 7 0 5 -14 -5 -37 -9 -21 -26 -66 -37 -100 l-21 -63
-311 0 c-201 1 -304 4 -294 10 9 5 38 41 64 79 39 57 47 77 47 113 -1 34 -7
48 -27 66 -55 47 -111 19 -161 -81 -29 -58 -36 -83 -36 -129 l1 -58 -70 0 -69
0 15 24 c15 22 15 27 0 56 -9 17 -30 43 -47 58 -18 15 -48 41 -67 58 l-35 31
32 17 c37 19 81 21 117 4 37 -17 54 3 26 31 -53 53 -211 13 -211 -53 0 -26 21
-51 83 -100 57 -45 75 -74 56 -87 -18 -12 -76 -2 -111 19 -21 12 -31 13 -39 5
-9 -9 -5 -18 14 -37 l26 -26 -1479 0 c-814 0 -1480 2 -1480 5 0 3 18 41 40 85
46 92 48 100 19 100 -18 0 -19 -2 -9 -15 11 -13 10 -18 -6 -29 -10 -8 -22 -12
-25 -10 -3 2 -14 -14 -24 -36 -10 -22 -21 -40 -25 -40 -15 0 -38 37 -44 71 -8
43 -31 68 -48 51 -7 -7 -7 -26 3 -64 14 -60 34 -88 60 -88 12 0 16 -5 13 -15
-5 -12 -30 -15 -142 -15 l-135 0 41 29 c47 35 112 116 112 142 0 48 -103 77
-154 44 l-22 -15 8 63 c9 74 12 283 3 297 -8 13 -18 13 -32 -1z m3787 -357 c0
-46 -79 -152 -113 -152 -15 0 -18 4 -12 23 4 12 10 43 15 68 5 26 14 56 21 67
30 49 89 44 89 -6z m-3650 -22 c12 -7 12 -13 1 -33 -7 -14 -10 -30 -7 -36 4
-6 0 -11 -9 -11 -9 0 -31 -11 -49 -25 -41 -31 -56 -32 -56 -2 0 12 -3 32 -6
43 -5 18 3 27 38 48 46 28 64 31 88 16z"/>
<path d="M9798 5504 c-3 -3 -3 -61 0 -130 l5 -125 -41 7 c-38 6 -42 4 -62 -27
-41 -66 -12 -179 46 -179 51 0 98 143 99 298 0 56 3 102 8 102 16 0 6 30 -15
44 -24 17 -32 19 -40 10z m-21 -321 c-17 -84 -53 -114 -55 -47 -2 46 13 74 40
74 17 0 20 -5 15 -27z"/>
<path d="M12290 5421 c-17 -33 -12 -53 13 -49 17 2 23 11 25 36 4 37 -20 45
-38 13z"/>
<path d="M9160 5272 c-72 -71 -76 -183 -9 -218 42 -21 130 -11 122 14 -4 14
-3 14 5 3 12 -17 42 -8 42 13 0 7 9 16 20 19 26 7 26 37 0 37 -10 0 -27 -8
-37 -18 -10 -11 -38 -24 -63 -30 -56 -14 -90 3 -90 46 0 24 4 27 37 29 54 3
118 51 118 88 0 21 -7 33 -25 42 -45 23 -79 16 -120 -25z m100 -21 c0 -10 -56
-41 -74 -41 -23 0 -20 16 9 38 23 18 65 20 65 3z"/>
<path d="M9503 5295 c-13 -9 -34 -36 -49 -60 -14 -25 -28 -45 -30 -45 -2 0 -1
18 2 40 5 33 4 40 -9 40 -27 0 -40 -41 -41 -125 -1 -76 0 -80 22 -83 15 -2 22
2 22 13 0 15 87 172 100 180 3 2 4 -34 2 -79 -4 -75 -2 -86 17 -105 11 -11 26
-21 31 -21 20 0 22 31 5 50 -15 16 -17 29 -10 77 15 113 13 128 -15 131 -14 1
-35 -4 -47 -13z"/>
<path d="M12048 5283 c-43 -47 -90 -146 -86 -184 4 -45 31 -50 51 -9 9 17 14
37 11 45 -7 17 41 112 64 124 9 5 29 7 44 4 19 -4 26 -1 24 8 -7 48 -68 54
-108 12z"/>
<path d="M10389 5261 c-17 -14 -20 -23 -14 -55 9 -44 49 -96 75 -96 34 0 53
30 47 73 -9 68 -68 111 -108 78z m61 -78 c-1 -27 -1 -27 -15 -9 -19 25 -19 36
0 36 10 0 15 -10 15 -27z"/>
<path d="M12180 5168 c-29 -47 -12 -109 25 -95 11 5 14 14 9 32 -4 16 0 34 10
50 21 32 20 45 -4 45 -12 0 -28 -13 -40 -32z"/>
<path d="M8505 5170 c-3 -5 -1 -10 4 -10 6 0 11 5 11 10 0 6 -2 10 -4 10 -3 0
-8 -4 -11 -10z"/>
<path d="M9802 3613 c1054 -2 2782 -2 3840 0 1058 1 195 2 -1917 2 -2112 0
-2977 -1 -1923 -2z"/>
<path d="M9797 2923 c1058 -2 2788 -2 3845 0 1058 1 193 2 -1922 2 -2115 0
-2980 -1 -1923 -2z"/>
<path d="M9797 2233 c1057 -2 2789 -2 3850 0 1060 1 196 2 -1922 2 -2117 0
-2985 -1 -1928 -2z"/>
<path d="M9797 1543 c1058 -2 2788 -2 3845 0 1058 1 193 2 -1922 2 -2115 0
-2980 -1 -1923 -2z"/>
<path d="M9802 853 c1054 -2 2782 -2 3840 0 1058 1 195 2 -1917 2 -2112 0
-2977 -1 -1923 -2z"/>
</g>
</svg>
