<?xml version="1.0" standalone="no"?>
<!DOCTYPE svg PUBLIC "-//W3C//DTD SVG 20010904//EN"
 "http://www.w3.org/TR/2001/REC-SVG-20010904/DTD/svg10.dtd">
<svg version="1.0" xmlns="http://www.w3.org/2000/svg"
 width="1618.000000pt" height="1214.000000pt" viewBox="0 0 1618.000000 1214.000000"
 preserveAspectRatio="xMidYMid meet">

<g transform="translate(0.000000,1214.000000) scale(0.100000,-0.100000)"
fill="#000000" stroke="none">
<path d="M14293 11693 c-4 -10 -23 -61 -44 -113 l-38 -95 -58 -10 c-66 -11
-83 -20 -83 -42 0 -13 8 -14 43 -9 23 4 52 10 65 13 l22 5 -26 -72 c-19 -52
-23 -75 -15 -83 8 -8 16 -6 29 7 12 13 13 16 2 11 -11 -6 -10 -3 3 12 9 11 25
44 35 74 l19 54 69 5 c70 5 86 17 65 49 -7 11 -18 11 -61 2 -29 -6 -54 -10
-55 -9 -1 2 15 47 37 101 21 54 36 102 33 107 -10 16 -35 11 -42 -7z"/>
<path d="M9268 11623 c-18 -37 -53 -104 -78 -148 -25 -44 -51 -92 -59 -107 -8
-15 -29 -44 -48 -64 -18 -20 -33 -45 -33 -55 0 -18 -21 -19 -582 -21 -568 -3
-573 -3 -208 -8 206 -3 369 -6 363 -8 -25 -4 -14 -39 15 -45 15 -3 52 -31 85
-64 110 -112 133 -165 124 -287 -6 -85 -31 -169 -68 -236 l-23 -40 -440 -2
-441 -3 433 -2 c237 -2 432 -7 432 -12 0 -4 -27 -38 -61 -75 -38 -41 -59 -72
-55 -81 3 -8 10 -15 15 -15 12 0 75 67 127 133 l37 47 3386 2 3386 3 -3382 2
c-1861 2 -3383 7 -3383 11 0 4 7 17 15 29 8 11 26 55 40 98 35 107 35 237 1
310 -27 58 -105 153 -166 201 l-43 34 298 0 c291 0 297 0 292 -20 -7 -27 16
-45 33 -25 7 8 10 22 6 30 -5 13 156 15 1472 11 812 -2 1502 -7 1532 -11 30
-4 59 -11 64 -16 16 -15 34 -10 41 11 6 19 28 19 1582 20 867 0 1579 3 1582 5
2 3 -413 5 -922 5 l-927 0 0 36 c0 20 11 55 26 80 l27 45 -34 30 c-46 39 -76
35 -113 -18 -26 -38 -28 -45 -17 -69 10 -22 16 -25 39 -21 27 5 27 4 27 -39
l0 -44 -111 0 -112 0 38 38 c41 41 70 116 51 135 -14 14 -37 -7 -44 -41 -6
-29 -43 -82 -57 -82 -4 0 -13 13 -20 30 -14 33 -36 44 -73 35 l-25 -7 16 47
c16 44 16 47 -1 60 -22 16 -49 9 -125 -29 -36 -18 -52 -32 -52 -46 0 -27 10
-25 80 10 33 17 60 27 60 22 0 -5 -18 -39 -41 -76 -32 -54 -38 -70 -28 -82 10
-12 -30 -14 -295 -14 -306 0 -306 0 -306 21 0 20 -3 21 -62 15 -35 -4 -82 -9
-106 -12 l-42 -6 10 28 c6 16 15 38 20 49 20 42 60 156 60 173 0 12 9 17 33
18 17 0 65 4 105 9 66 7 72 10 66 28 -4 13 -2 17 5 13 6 -4 11 -14 11 -22 0
-8 5 -14 10 -14 6 0 10 8 10 18 0 14 2 15 10 2 7 -11 12 -12 21 -3 6 6 8 16 5
22 -9 14 -57 13 -186 -4 -58 -7 -130 -14 -160 -14 -30 0 -77 -4 -105 -8 -40
-7 -50 -12 -50 -28 0 -26 35 -32 52 -9 7 10 13 13 13 7 0 -7 20 -9 59 -6 l59
6 -7 -35 c-4 -18 -24 -72 -44 -119 -21 -47 -37 -90 -37 -97 0 -14 -12 -16
-102 -13 -44 2 -68 -1 -68 -8 0 -8 -378 -11 -1339 -11 l-1338 0 -5 51 c-3 29
-14 62 -27 79 -21 29 -21 29 -1 40 23 12 27 38 6 46 -17 6 -86 -34 -86 -50 0
-7 10 -21 21 -32 21 -18 49 -72 49 -94 0 -17 -29 -11 -47 10 -21 24 -36 25
-54 4 -11 -14 -9 -19 11 -35 l25 -19 -59 0 -58 0 7 58 c4 31 14 70 23 86 11
19 13 30 6 33 -7 2 -8 24 -2 68 5 36 8 98 6 138 -2 59 -6 72 -21 75 -13 3 -25
-13 -49 -65z m21 -122 c-5 -41 -10 -75 -11 -76 -7 -5 -68 -14 -68 -10 0 7 84
164 87 162 1 -1 -2 -36 -8 -76z m4394 -108 c4 -3 -1 -12 -11 -19 -25 -20 -34
-17 -20 6 13 21 21 24 31 13z m-4418 -75 c-11 -92 -7 -88 -91 -88 -41 0 -74 3
-74 7 0 10 72 116 85 125 5 4 27 8 48 8 l39 0 -7 -52z m4114 -49 c6 -18 11
-34 11 -35 0 -2 -35 -4 -77 -4 l-78 0 50 34 c63 44 80 45 94 5z"/>
<path d="M11212 11477 c-37 -38 -39 -54 -12 -104 28 -53 26 -73 -7 -73 -16 0
-37 7 -47 15 -27 21 -56 19 -56 -3 0 -22 43 -47 93 -55 32 -5 43 -2 63 18 27
27 26 52 -7 117 l-18 37 31 24 c21 17 29 30 25 41 -10 25 -30 19 -65 -17z"/>
<path d="M11684 11474 c-16 -7 -44 -26 -62 -41 -28 -24 -34 -37 -39 -86 -5
-53 -4 -57 15 -57 15 0 24 8 28 28 11 45 43 101 64 112 11 6 35 8 54 5 57 -11
56 28 0 44 -21 6 -40 4 -60 -5z"/>
<path d="M10836 11400 c-43 -44 -88 -80 -100 -82 -29 -4 -29 -42 0 -46 14 -2
42 15 80 47 66 57 79 62 62 27 -26 -58 35 -77 91 -30 l31 26 0 -30 c0 -38 33
-70 55 -52 12 10 13 16 3 28 -15 17 -13 49 8 114 28 86 -7 93 -65 14 -44 -59
-84 -93 -89 -76 -2 6 6 35 18 65 21 53 21 76 -3 74 -7 0 -47 -36 -91 -79z"/>
<path d="M11405 11461 c-17 -10 -39 -30 -48 -45 -10 -14 -24 -26 -32 -26 -24
0 -25 -15 -3 -61 27 -55 33 -59 88 -58 58 0 115 20 115 39 0 12 -10 14 -45 11
-91 -8 -104 -7 -108 12 -2 10 3 17 11 17 8 0 33 14 55 30 47 34 56 72 23 90
-25 13 -21 13 -56 -9z"/>
<path d="M1475 11421 c-22 -21 -65 -73 -95 -115 l-55 -75 -347 -1 -348 0 0
-5190 0 -5190 3310 0 3310 0 0 4889 c0 3510 3 4892 11 4897 6 3 9 15 6 25 -3
11 -1 19 4 19 5 0 9 5 9 10 0 6 -7 10 -15 10 -13 0 -15 36 -15 265 l0 265
-2936 2 -2936 3 64 80 c35 44 76 86 91 93 17 8 27 20 25 30 -6 31 -42 24 -83
-17z m-165 -206 c0 -2 -15 -33 -34 -67 -112 -207 -69 -568 87 -721 54 -53 102
-81 123 -73 24 9 16 21 -44 63 -73 51 -106 100 -145 210 -25 72 -31 109 -35
201 -7 162 18 263 90 365 l19 27 2935 0 2934 0 0 -274 0 -274 -31 -26 c-39
-33 -44 -33 -59 5 -7 17 -19 37 -27 45 -12 11 -8 23 26 80 49 82 70 167 49
204 -22 41 -71 38 -138 -8 -57 -38 -73 -67 -45 -78 10 -4 26 3 43 19 24 22 83
57 97 57 3 0 5 -18 5 -39 0 -50 -63 -175 -103 -204 -58 -43 -129 -116 -125
-129 9 -27 39 -18 86 26 27 25 54 46 60 46 7 0 21 -18 32 -40 27 -53 55 -64
98 -39 l32 18 0 -4874 0 -4875 -3300 0 -3300 0 0 5180 0 5180 335 0 c184 0
335 -2 335 -5z"/>
<path d="M4842 11073 c-23 -43 -61 -146 -57 -153 3 -5 2 -10 -3 -12 -12 -5
-109 -252 -104 -266 8 -25 34 -10 52 30 10 23 16 46 14 50 -3 4 0 8 5 8 6 0
11 7 11 15 0 12 13 15 55 15 30 0 54 -3 53 -7 -1 -5 1 -32 5 -60 7 -45 11 -53
29 -53 19 0 20 4 14 59 -7 58 -6 59 21 69 21 7 32 6 41 -4 8 -9 9 -14 2 -14
-7 0 -9 -23 -5 -72 4 -40 2 -93 -3 -118 -10 -52 -6 -70 14 -70 17 0 47 68 40
92 -2 10 0 18 5 18 5 0 9 14 9 30 0 26 4 30 28 30 41 0 66 23 91 80 19 44 20
56 11 86 -12 35 -35 54 -65 54 -18 0 -69 -46 -77 -70 -4 -13 -7 -13 -22 -1
-11 9 -20 11 -27 4 -5 -5 -23 -8 -39 -5 -33 5 -40 30 -39 149 1 97 -33 165
-59 116z m18 -173 c0 -89 0 -90 -27 -96 -19 -5 -30 -2 -40 11 -7 11 -9 21 -5
24 5 3 21 39 37 79 15 39 30 72 32 72 1 0 3 -40 3 -90z m268 -100 c4 -33 -37
-94 -66 -98 -29 -4 -28 12 4 77 28 56 57 66 62 21z"/>
<path d="M3646 11028 c-18 -25 -21 -55 -7 -60 6 -2 4 -28 -3 -63 -11 -57 -13
-60 -43 -63 -62 -6 -69 -52 -9 -52 33 0 34 -1 38 -49 9 -94 61 -128 122 -80
49 39 27 64 -30 34 -28 -14 -29 -14 -41 13 -7 15 -12 40 -13 56 0 27 2 28 36
23 75 -12 91 26 18 44 -42 11 -45 14 -40 38 24 115 28 152 16 166 -17 20 -26
19 -44 -7z"/>
<path d="M1725 11032 c-37 -4 -75 -38 -75 -67 0 -31 32 -68 90 -106 34 -22 54
-43 64 -71 31 -76 14 -108 -56 -111 -37 -2 -52 3 -73 23 -22 21 -26 31 -22 62
6 46 -16 59 -39 23 -29 -44 0 -106 66 -140 24 -12 49 -16 88 -13 70 6 92 30
92 97 -1 67 -30 123 -83 160 -83 57 -98 85 -52 97 30 7 78 -3 71 -15 -3 -5 0
-14 8 -20 11 -9 18 -8 30 4 19 20 20 26 3 49 -14 20 -68 33 -112 28z"/>
<path d="M2468 11030 c-3 -10 3 -107 17 -257 7 -72 6 -83 -8 -83 -23 0 -72 64
-123 163 -38 74 -49 88 -67 85 -21 -3 -23 -11 -32 -125 -5 -67 -13 -125 -17
-129 -15 -14 -8 -44 10 -44 32 0 52 51 52 137 l1 78 31 -58 c37 -68 100 -143
128 -152 33 -10 59 4 68 38 6 21 4 77 -5 156 -11 102 -12 126 -1 132 11 7 10
14 -2 36 -16 29 -45 42 -52 23z"/>
<path d="M5520 11031 c-12 -8 -12 -14 -1 -33 7 -14 13 -46 13 -74 0 -27 2 -64
5 -83 l4 -34 55 6 c46 5 59 2 75 -14 25 -25 24 -41 -6 -77 -40 -47 -145 -64
-145 -23 -1 23 -24 51 -43 51 -21 0 -31 -18 -19 -33 5 -7 12 -24 15 -38 17
-71 153 -64 221 11 47 52 49 98 7 141 -24 24 -38 29 -75 29 l-46 0 0 65 0 65
28 -6 c15 -4 35 -11 45 -16 20 -10 47 5 47 28 0 14 -15 20 -75 29 -22 4 -51 8
-65 11 -14 2 -32 0 -40 -5z"/>
<path d="M2020 10993 c-28 -9 -63 -12 -92 -8 -44 5 -48 4 -48 -15 0 -24 43
-44 77 -35 13 3 31 0 42 -7 20 -12 21 -31 6 -194 -5 -48 -3 -63 10 -74 29 -24
36 3 38 152 l2 146 41 6 c23 3 57 3 77 -1 29 -4 38 -2 43 12 4 10 1 21 -7 26
-21 13 -138 9 -189 -8z"/>
<path d="M3301 10989 c-55 -7 -75 -22 -65 -49 19 -51 26 -116 16 -149 -6 -20
-14 -63 -17 -97 l-7 -60 54 -18 c72 -25 117 -16 157 29 70 80 64 207 -9 222
-34 6 -35 10 -15 37 8 11 15 30 15 42 0 41 -43 56 -129 43z m79 -54 c0 -8 -16
-30 -36 -49 -50 -49 -42 -70 24 -61 62 8 77 -7 69 -71 -7 -68 -34 -98 -88
-102 -41 -3 -45 -1 -58 28 -10 24 -11 41 -2 75 14 54 14 125 2 159 -12 29 -4
34 52 35 26 1 37 -3 37 -14z"/>
<path d="M5773 10962 c-7 -16 -2 -21 28 -28 60 -13 97 -15 137 -6 48 11 49 10
11 -75 -18 -43 -18 -43 -69 -43 -37 0 -52 -4 -57 -16 -8 -22 16 -36 55 -30 17
3 32 3 32 1 0 -3 -12 -29 -27 -59 -26 -53 -26 -86 0 -86 7 0 27 33 44 73 29
67 34 72 62 73 17 1 34 4 37 7 12 11 -5 37 -24 37 -19 0 -18 3 5 67 36 100 39
98 -106 98 -93 0 -125 -3 -128 -13z"/>
<path d="M3983 10912 c-7 -4 -28 -54 -46 -111 -37 -114 -35 -114 -69 -1 -8 27
-19 45 -28 45 -36 0 5 -159 51 -201 18 -16 21 -16 35 -2 8 8 23 46 33 84 10
38 28 91 40 118 17 40 19 52 9 63 -7 7 -19 9 -25 5z"/>
<path d="M4143 10883 c-9 -3 -11 -17 -7 -41 3 -20 1 -59 -4 -85 -12 -59 -6
-87 19 -87 14 0 19 7 19 25 0 31 24 90 45 111 13 14 15 10 15 -38 0 -59 5 -70
37 -87 40 -21 104 22 75 51 -8 8 -15 8 -26 -2 -30 -24 -45 -5 -48 61 -3 70
-22 94 -57 72 -16 -10 -20 -9 -24 8 -5 19 -19 23 -44 12z"/>
<path d="M5286 10878 c-11 -6 -33 -11 -50 -12 -31 -1 -31 -1 -28 -52 3 -37 -1
-54 -12 -63 -17 -15 -21 -47 -7 -55 5 -3 6 -35 4 -70 -7 -82 1 -116 27 -116
21 0 24 10 35 91 5 40 9 46 25 42 29 -8 69 23 87 65 22 53 13 140 -17 164 -26
21 -37 22 -64 6z m44 -94 c0 -67 -13 -94 -45 -94 -19 0 -25 6 -30 34 -7 34 3
65 33 99 29 33 42 21 42 -39z"/>
<path d="M2769 10859 c-15 -28 -8 -32 58 -35 32 -2 72 -4 88 -6 24 -2 30 1 30
16 0 22 -24 30 -112 39 -46 5 -54 3 -64 -14z"/>
<path d="M6828 10835 c-3 -3 -3 -39 0 -80 4 -61 2 -74 -9 -70 -16 6 -59 66
-59 83 0 19 -39 35 -55 22 -30 -25 112 -188 151 -173 15 5 29 101 20 137 -5
20 -3 23 14 19 15 -4 20 0 20 15 0 32 -62 67 -82 47z"/>
<path d="M6220 10813 c-14 -9 -31 -25 -38 -34 -7 -10 -22 -19 -35 -21 -22 -3
-32 -36 -15 -49 5 -3 4 -29 -3 -58 -12 -57 -8 -81 15 -81 23 0 46 53 46 104 0
36 6 52 29 78 36 41 47 32 31 -24 -24 -85 -24 -98 -2 -98 12 0 24 11 32 29 14
34 57 77 67 67 4 -4 10 -28 13 -54 4 -39 9 -47 25 -47 18 0 20 5 16 49 -5 77
-40 118 -82 96 -16 -9 -19 -7 -19 8 0 19 -29 52 -46 52 -5 0 -21 -8 -34 -17z"/>
<path d="M4410 10811 c-16 -4 -25 -14 -25 -26 0 -15 6 -19 25 -18 14 1 50 3
80 5 41 2 56 7 58 19 5 26 -74 38 -138 20z"/>
<path d="M6514 10800 c-18 -7 -22 -17 -23 -63 -1 -65 22 -101 69 -111 39 -7
94 15 110 44 32 59 -87 159 -156 130z m93 -72 c13 -12 23 -27 23 -34 0 -29
-82 -29 -93 0 -3 8 -3 24 0 35 7 28 40 27 70 -1z"/>
<path d="M3161 10281 c-6 -4 -16 -39 -22 -77 -5 -38 -12 -76 -14 -84 -5 -16
-76 -40 -115 -40 -15 0 -20 -7 -20 -25 0 -24 2 -26 38 -19 20 4 47 11 60 15
20 8 22 6 18 -14 -29 -137 -33 -182 -15 -193 19 -12 28 10 44 111 9 55 20 104
24 108 5 5 30 11 57 15 40 6 49 11 49 27 0 18 -6 20 -49 17 -47 -4 -48 -3 -43
20 12 52 18 136 10 141 -5 3 -15 2 -22 -2z"/>
<path d="M1740 10227 c-40 -14 -75 -66 -65 -97 4 -11 18 -31 31 -43 l25 -23
-21 -48 c-26 -62 -25 -105 3 -147 19 -28 30 -34 62 -37 47 -3 100 25 116 62
20 42 2 96 -46 143 l-44 42 44 40 c30 27 49 38 63 34 28 -7 37 15 16 38 -40
45 -116 59 -184 36z m65 -82 c-46 -41 -51 -43 -67 -28 -22 20 -23 31 -1 55 12
13 30 18 67 18 l51 -1 -50 -44z m27 -160 c10 -11 18 -35 18 -52 0 -26 -6 -36
-30 -48 -42 -22 -58 -19 -75 16 -16 31 -11 68 17 122 9 18 10 18 31 1 12 -10
30 -28 39 -39z"/>
<path d="M2612 10138 c4 -31 53 -34 53 -3 0 15 -8 21 -28 23 -25 3 -28 0 -25
-20z"/>
<path d="M3479 10106 c-2 -3 -17 -7 -32 -10 -42 -7 -111 -49 -115 -69 -5 -27
14 -44 71 -63 136 -44 135 -69 -2 -70 -94 -1 -113 -6 -104 -29 4 -12 24 -15
87 -15 133 0 202 31 176 80 -14 26 -114 74 -136 66 -9 -3 -12 -1 -9 4 3 6 -1
10 -9 10 -9 0 -16 4 -16 9 0 14 84 43 111 39 20 -2 24 1 24 22 0 18 -6 26 -20
28 -12 2 -23 1 -26 -2z"/>
<path d="M2780 10034 c-28 -26 -50 -55 -50 -65 0 -9 -5 -19 -11 -21 -15 -5
-17 -70 -1 -75 7 -3 21 15 33 44 34 78 109 145 109 96 -1 -29 -20 -106 -32
-131 -10 -19 -9 -25 2 -32 32 -20 47 -11 54 33 18 111 18 163 1 180 -27 27
-53 20 -105 -29z"/>
<path d="M2144 10015 c-51 -54 -53 -58 -56 -118 -1 -34 2 -68 6 -76 6 -9 5
-12 -2 -7 -7 4 -13 -16 -17 -56 -10 -91 -4 -123 20 -123 25 0 43 62 44 153 1
56 3 62 22 62 30 0 74 28 93 61 20 33 19 104 -1 137 -22 36 -51 27 -109 -33z
m80 -11 c12 -32 5 -56 -23 -85 -32 -32 -54 -38 -44 -12 5 11 3 14 -6 8 -18
-10 -4 33 18 59 9 11 10 16 4 12 -9 -5 -11 -2 -7 8 3 9 10 14 14 11 5 -3 11
-1 15 5 9 15 22 12 29 -6z"/>
<path d="M2396 10023 c-54 -99 -52 -90 -26 -118 32 -34 91 -35 125 0 28 27 30
38 14 83 -21 61 -87 81 -113 35z m74 -68 c0 -29 -43 -46 -63 -26 -9 10 -6 18
16 37 32 28 47 24 47 -11z"/>
<path d="M2592 9993 c-18 -33 -33 -104 -27 -123 4 -11 14 -20 24 -20 18 0 26
31 34 129 2 30 -18 39 -31 14z"/>
<path d="M10282 11448 c-7 -7 -12 -19 -12 -27 0 -11 -5 -9 -16 7 -28 41 -89
20 -139 -48 -30 -41 -31 -54 -5 -80 25 -25 55 -25 101 -2 27 14 38 15 47 6 6
-6 8 -15 5 -18 -4 -3 6 -6 21 -6 29 0 47 27 26 40 -9 5 -10 19 -6 41 17 81 8
117 -22 87z m-67 -58 c4 -7 13 -7 25 0 33 17 14 -12 -23 -37 -32 -22 -77 -31
-77 -16 0 10 52 63 61 63 4 0 11 -5 14 -10z"/>
<path d="M13806 11360 c-31 -60 -33 -80 -6 -80 11 0 20 4 20 9 0 12 80 71 96
71 10 0 9 -7 -2 -27 -21 -42 -19 -83 6 -83 12 0 20 7 20 16 0 9 6 30 14 47 22
49 24 61 14 80 -10 19 -49 23 -78 7 -13 -7 -21 -7 -25 0 -13 22 -34 8 -59 -40z"/>
<path d="M10513 11073 c-7 -2 -13 -19 -13 -37 0 -18 -4 -36 -10 -42 -5 -5 -11
-18 -13 -29 -2 -11 -8 -31 -14 -45 -5 -14 -31 -87 -57 -163 -53 -155 -52 -167
16 -167 89 0 178 81 178 164 0 34 -33 60 -66 52 -38 -10 -74 -36 -74 -54 0 -8
-2 -13 -5 -10 -3 3 12 58 35 123 22 64 37 121 34 127 -3 5 2 15 11 22 10 7 15
22 13 36 -3 24 -14 32 -35 23z m37 -336 c0 -33 -26 -64 -72 -88 -45 -23 -58
-21 -28 6 11 10 20 24 20 30 0 7 9 24 20 37 10 14 17 27 15 30 -2 2 7 5 20 6
20 1 25 -3 25 -21z"/>
<path d="M9618 11054 c-28 -15 -36 -38 -19 -49 12 -7 -52 -155 -72 -166 -8 -5
-38 -9 -66 -10 -55 -2 -89 -19 -77 -38 5 -8 26 -10 68 -5 58 7 61 6 54 -12
-49 -119 -57 -154 -44 -181 23 -49 117 -42 168 12 22 23 20 45 -4 45 -7 0 -22
-11 -34 -23 -15 -15 -35 -24 -57 -25 -31 -1 -35 1 -35 24 0 13 13 53 29 88 24
54 33 64 60 69 34 7 41 30 14 45 -17 10 -9 37 54 181 13 28 13 35 2 46 -12 11
-19 11 -41 -1z"/>
<path d="M13217 11033 c-4 -3 -7 -15 -7 -25 0 -10 -14 -60 -30 -112 l-30 -95
-53 -8 c-42 -7 -52 -12 -52 -28 0 -17 6 -20 42 -17 l41 3 -26 -76 c-20 -58
-23 -78 -14 -87 18 -18 28 -2 61 87 l29 80 43 -3 c27 -2 45 1 50 10 7 10 9 9
9 -4 0 -10 5 -18 11 -18 5 0 3 -10 -5 -22 -33 -47 -10 -86 50 -86 56 0 88 36
82 93 -3 24 -1 48 4 53 17 17 -1 32 -37 32 -20 0 -38 -6 -43 -16 -7 -13 -17
-14 -75 -4 -37 7 -67 16 -67 20 0 4 7 27 15 51 29 80 43 157 32 168 -13 13
-21 14 -30 4z m5 -105 c-7 -7 -12 -8 -12 -2 0 14 12 26 19 19 2 -3 -1 -11 -7
-17z m158 -211 c0 -19 -13 -34 -37 -41 -30 -9 -30 10 -2 41 22 22 39 22 39 0z"/>
<path d="M12153 10988 c-4 -7 -8 -22 -9 -33 -1 -11 -18 -68 -38 -126 -37 -110
-58 -220 -45 -240 15 -25 36 0 43 53 8 61 38 169 67 245 21 53 22 104 2 110
-6 2 -15 -2 -20 -9z"/>
<path d="M8178 10974 c-3 -3 -4 -40 -1 -82 2 -42 1 -117 -4 -165 -7 -67 -6
-93 3 -105 24 -32 37 2 43 110 7 127 6 186 -3 221 -6 25 -25 35 -38 21z"/>
<path d="M11826 10938 c-2 -7 -9 -40 -16 -72 -7 -33 -25 -100 -41 -150 -16
-49 -29 -93 -29 -98 0 -18 42 -48 68 -48 45 1 109 35 127 70 13 26 14 35 3 58
-16 32 -66 42 -91 18 -31 -32 -35 -14 -12 68 32 115 35 159 12 164 -9 2 -19
-2 -21 -10z m74 -260 c-1 -29 -41 -58 -81 -58 -19 0 -20 2 -8 17 15 17 69 53
82 53 4 0 7 -6 7 -12z"/>
<path d="M7662 10908 c-28 -31 -41 -69 -31 -94 4 -12 28 -36 53 -54 48 -35 76
-69 76 -94 0 -41 -67 -28 -115 21 -25 26 -39 33 -54 28 -32 -10 -25 -28 27
-67 97 -74 182 -64 182 23 0 32 -7 46 -43 81 -23 24 -52 51 -65 60 -26 21 -27
28 -8 53 15 21 77 26 84 7 6 -20 42 -14 42 7 0 50 -108 71 -148 29z"/>
<path d="M7353 10827 c-53 -15 -72 -32 -55 -49 10 -10 25 -9 71 4 40 10 63 12
70 5 16 -16 43 1 39 25 -2 19 -10 23 -43 25 -22 1 -59 -4 -82 -10z"/>
<path d="M8321 10798 c-27 -36 -32 -49 -28 -81 18 -133 164 -162 240 -48 33
49 34 79 5 116 -28 36 -75 55 -136 55 -44 0 -50 -3 -81 -42z m132 -8 c10 0 29
-11 43 -25 23 -23 24 -26 10 -54 -20 -38 -63 -71 -93 -71 -34 0 -73 46 -73 86
0 38 42 77 75 69 11 -3 28 -5 38 -5z"/>
<path d="M7890 10805 c-17 -18 -25 -40 -28 -78 -4 -50 -2 -56 24 -76 48 -38
127 -13 160 50 19 38 12 72 -21 105 -34 34 -102 34 -135 -1z m116 -49 c8 -32
-11 -64 -40 -72 -56 -14 -78 13 -57 69 9 23 16 27 51 27 34 0 41 -4 46 -24z"/>
<path d="M10733 10810 c-27 -11 -73 -88 -73 -124 0 -43 51 -69 119 -60 75 8
103 20 99 42 -2 10 -11 16 -23 14 -11 -1 -41 -5 -67 -8 -78 -11 -88 1 -32 39
54 35 69 72 38 94 -20 15 -30 15 -61 3z"/>
<path d="M12260 10770 c-18 -16 -36 -30 -40 -30 -4 0 -14 -7 -21 -17 -11 -12
-11 -17 -2 -20 8 -3 10 -15 6 -33 -4 -22 1 -35 22 -56 23 -23 32 -26 76 -22
57 6 91 30 71 50 -9 9 -15 9 -20 2 -8 -11 -44 -15 -80 -8 -18 4 -23 10 -20 31
3 23 11 29 57 43 66 19 83 40 57 69 -27 30 -68 26 -106 -9z"/>
<path d="M9743 10782 c-15 -10 -33 -57 -33 -87 0 -87 86 -115 130 -42 26 42
25 70 -2 102 -23 26 -74 40 -95 27z m66 -61 c8 -14 6 -25 -10 -45 -25 -32 -39
-26 -39 19 0 24 5 35 18 38 9 3 18 5 19 6 1 0 7 -8 12 -18z"/>
<path d="M11519 10747 c-19 -12 -42 -39 -53 -60 -18 -37 -18 -39 0 -59 15 -16
27 -19 59 -15 22 3 47 8 56 11 10 5 19 -1 27 -19 6 -14 18 -25 27 -25 16 0 19
9 15 47 -1 13 8 36 20 53 12 16 18 34 15 40 -11 18 -44 11 -56 -12 -12 -23
-13 -22 -27 12 -23 56 -35 60 -83 27z m48 -83 c-1 0 -14 -4 -29 -8 -38 -9 -42
7 -11 40 l27 29 7 -30 c5 -16 7 -30 6 -31z"/>
<path d="M13760 10408 c0 -2 -20 -59 -43 -127 l-42 -125 -74 -18 c-81 -20
-121 -40 -121 -62 0 -20 23 -26 44 -11 20 15 114 40 122 32 3 -2 -5 -38 -16
-78 -30 -105 -30 -107 -15 -113 17 -6 45 19 45 41 0 9 9 46 20 84 l21 68 62 3
c51 2 62 6 65 22 5 26 -13 42 -31 28 -12 -10 -77 -7 -77 4 0 2 18 54 40 115
46 129 47 139 20 139 -11 0 -20 -1 -20 -2z"/>
<path d="M11872 10368 c-7 -7 -12 -26 -12 -43 0 -38 -41 -163 -105 -317 -40
-98 -46 -120 -35 -133 10 -12 16 -13 26 -4 8 6 14 17 14 23 0 6 21 61 46 121
53 128 76 194 69 205 -3 5 -1 10 5 12 5 1 15 29 21 61 10 49 10 61 -2 73 -12
11 -17 12 -27 2z"/>
<path d="M14703 10349 c-55 -27 -114 -93 -153 -168 -21 -42 -36 -61 -49 -61
-10 0 -23 -6 -29 -13 -15 -18 2 -42 23 -33 13 5 16 2 10 -11 -14 -36 -26 -124
-20 -144 4 -12 14 -19 23 -17 13 2 19 18 23 63 11 95 25 125 62 126 124 5 133
8 123 34 -5 13 -18 16 -64 15 -31 -1 -60 -2 -65 -1 -4 0 4 23 17 50 30 58 95
117 148 133 34 10 39 9 56 -12 11 -13 24 -20 30 -16 16 9 15 49 0 64 -19 19
-89 14 -135 -9z"/>
<path d="M9763 10333 c-7 -3 -13 -17 -13 -32 0 -28 -3 -39 -36 -145 l-19 -58
-53 6 c-42 5 -54 3 -59 -10 -9 -24 7 -33 64 -35 30 -2 54 -8 57 -15 6 -16 -21
-27 -28 -11 -2 7 -5 5 -6 -5 -3 -24 -4 -28 -22 -68 -9 -19 -19 -52 -23 -72
l-7 -38 -330 0 -330 0 17 28 c10 15 29 43 42 62 30 45 32 100 3 100 -13 0 -26
-12 -36 -33 -35 -73 -88 -69 -82 7 3 35 0 41 -17 41 -15 0 -21 -8 -25 -35 -3
-19 -2 -47 3 -61 9 -30 48 -52 74 -42 19 8 12 -9 -20 -44 -17 -19 -31 -23 -77
-23 -50 0 -58 3 -70 25 -12 22 -11 33 4 80 27 86 11 95 -71 38 -29 -20 -56
-34 -59 -30 -4 3 4 22 16 41 19 32 40 42 73 37 17 -3 5 38 -13 44 -32 10 -72
-16 -104 -68 -25 -41 -27 -51 -18 -72 9 -19 19 -25 45 -25 18 0 42 7 53 15 28
21 29 20 29 -35 l0 -50 -272 0 c-175 0 -273 4 -273 10 0 6 17 10 38 10 21 0
48 7 60 16 39 27 100 112 121 169 24 64 17 99 -23 109 -36 9 -74 -13 -133 -78
-36 -39 -53 -52 -61 -44 -6 6 -18 8 -27 4 -13 -5 -15 -13 -10 -37 4 -17 2 -60
-5 -95 l-12 -64 -127 -2 -126 -2 123 -3 123 -4 -6 -32 c-4 -18 -18 -65 -30
-106 -25 -76 -23 -104 3 -99 11 2 28 40 52 121 l35 117 358 0 c196 0 357 -2
357 -4 0 -2 -14 -21 -31 -42 -58 -72 -88 -164 -54 -164 9 0 24 20 36 47 11 25
39 72 62 104 l42 58 1847 1 1848 0 -20 -51 c-11 -28 -27 -64 -36 -80 -16 -32
-12 -49 12 -49 9 0 31 35 56 90 l41 90 1441 2 1441 3 -1439 2 c-1224 3 -1437
5 -1433 17 3 8 11 32 18 54 11 37 14 40 36 31 55 -21 144 25 205 106 87 114
69 213 -34 185 -44 -13 -148 -98 -148 -122 0 -11 -4 -17 -9 -13 -6 3 -15 -4
-21 -16 -8 -15 -18 -19 -33 -15 -23 6 -47 -9 -47 -30 0 -8 7 -14 15 -14 21 0
18 -25 -13 -105 l-28 -70 -1327 -3 c-796 -1 -1327 2 -1327 7 0 5 13 38 30 73
33 69 38 119 15 138 -22 18 -81 16 -103 -3 -31 -28 -32 -20 -6 38 43 94 43
225 -1 225 -21 0 -26 -16 -14 -44 18 -39 -3 -122 -63 -248 -67 -142 -58 -157
43 -64 110 99 140 83 79 -45 -16 -34 -27 -66 -24 -71 3 -4 -63 -8 -145 -8
-141 0 -151 1 -142 18 5 9 20 46 32 82 12 36 26 75 30 87 7 19 12 21 41 12 40
-11 60 5 51 39 -5 21 -10 23 -40 17 -24 -4 -33 -3 -28 4 3 6 1 11 -6 11 -9 0
-7 4 3 13 13 10 29 61 52 169 5 20 -13 37 -31 31z m3207 -159 c0 -30 -13 -56
-53 -108 -42 -53 -149 -101 -133 -60 4 9 2 22 -4 29 -12 14 23 62 80 112 70
60 110 70 110 27z m-4600 -66 c0 -51 -107 -198 -143 -198 -23 0 -22 41 2 88
35 68 141 151 141 110z"/>
<path d="M8580 10315 c-10 -12 -11 -21 -4 -33 8 -11 1 -40 -24 -106 -46 -124
-64 -195 -60 -227 3 -16 1 -26 -4 -23 -11 7 -10 -7 1 -25 17 -26 41 -4 41 36
0 21 18 90 40 153 44 125 53 159 54 205 1 34 -23 45 -44 20z"/>
<path d="M11268 10188 c-44 -12 -90 -60 -81 -86 3 -9 21 -31 40 -48 41 -39 43
-75 7 -109 -33 -31 -80 -33 -110 -4 -25 23 -44 18 -44 -11 0 -24 59 -60 97
-60 66 0 143 88 128 147 -3 14 -22 42 -41 61 -19 19 -34 36 -34 38 0 9 61 34
83 34 13 0 32 -9 42 -20 23 -25 55 -26 55 -2 0 21 -44 56 -80 64 -14 3 -42 1
-62 -4z"/>
<path d="M10235 10130 c-29 -12 -82 -70 -94 -103 -17 -43 -13 -66 14 -92 19
-20 34 -25 73 -25 52 0 112 16 112 31 0 4 6 6 14 3 16 -6 50 42 36 51 -5 3
-22 -1 -38 -9 -44 -23 -119 -39 -147 -32 -26 7 -37 46 -13 46 23 0 118 64 124
84 5 14 0 25 -16 38 -24 20 -35 21 -65 8z m25 -44 c0 -2 -7 -7 -16 -10 -8 -3
-12 -2 -9 4 6 10 25 14 25 6z"/>
<path d="M11937 10131 c-21 -4 -43 -13 -49 -19 -16 -16 -1 -45 21 -39 17 4 17
3 -1 -34 -23 -49 -23 -60 4 -94 19 -25 26 -27 72 -23 61 5 103 24 128 59 16
21 17 32 9 69 -5 23 -18 52 -29 63 -23 22 -94 31 -155 18z m133 -61 c30 -55
-7 -98 -87 -103 -34 -2 -38 1 -41 24 -4 33 31 76 71 88 45 13 45 13 57 -9z"/>
<path d="M13062 10118 c-39 -43 -56 -124 -29 -146 7 -6 41 -11 75 -10 52 1 62
4 62 19 0 9 8 31 17 47 16 27 16 33 3 58 -14 25 -63 54 -93 54 -7 0 -23 -10
-35 -22z m64 -34 c15 -4 21 -13 20 -29 0 -13 -4 -21 -8 -18 -5 2 -8 0 -8 -5 0
-14 -52 -34 -62 -24 -10 10 15 82 29 82 4 0 18 -3 29 -6z"/>
<path d="M13282 10110 c-49 -46 -65 -132 -29 -154 23 -14 33 2 42 66 8 59 26
76 61 59 20 -9 30 -9 41 1 13 11 12 14 -7 30 -30 24 -81 23 -108 -2z"/>
<path d="M11478 10099 c-10 -5 -18 -16 -18 -24 0 -8 -11 -31 -25 -51 -51 -75
-24 -110 78 -101 65 6 104 27 124 69 18 35 -1 84 -38 103 -32 17 -96 19 -121
4z m100 -45 c49 -34 14 -75 -75 -88 -57 -8 -58 13 -3 66 46 43 47 44 78 22z"/>
<path d="M14243 10033 c-3 -10 -15 -30 -25 -45 -22 -32 -24 -76 -3 -84 28 -11
88 7 116 36 l28 28 -22 41 c-19 35 -27 41 -55 41 -22 0 -35 -6 -39 -17z m62
-63 c-3 -4 -19 -13 -35 -19 l-31 -10 23 28 c16 20 27 26 35 19 7 -6 11 -14 8
-18z"/>
<path d="M9441 9687 c-6 -8 -9 -21 -6 -28 2 -8 -9 -52 -25 -99 -85 -239 -92
-262 -83 -271 12 -12 43 -1 43 15 0 21 67 79 84 73 20 -8 20 -23 1 -78 -16
-45 -13 -93 6 -87 15 5 49 105 49 143 0 20 -9 40 -24 54 -21 20 -29 22 -55 13
l-30 -11 20 52 c39 96 60 172 57 201 -3 33 -19 43 -37 23z"/>
<path d="M10980 9679 c-7 -11 -9 -26 -7 -33 6 -14 -30 -57 -68 -82 -25 -16
-35 -54 -15 -54 20 0 60 32 53 43 -3 6 -1 7 6 3 17 -11 43 14 36 33 -3 8 -3
12 1 8 15 -15 34 17 34 59 0 49 -21 60 -40 23z"/>
<path d="M8359 9636 c-53 -19 -109 -56 -109 -71 0 -27 20 -25 73 5 53 29 97
39 97 21 0 -17 -51 -71 -97 -102 -24 -17 -42 -36 -40 -42 2 -6 25 -16 53 -22
102 -24 149 -57 136 -95 -16 -51 -153 -140 -215 -140 -25 0 -37 5 -37 14 0 21
-28 28 -38 9 -5 -9 -7 -24 -5 -34 5 -18 -3 -19 -143 -19 -81 0 -145 -2 -142
-5 3 -3 1520 -5 3371 -5 2696 0 3366 -2 3370 -12 3 -11 8 -11 28 0 18 9 134
13 464 15 l440 2 -447 3 -448 2 0 22 c0 12 16 57 37 100 l36 78 93 0 c98 0
124 11 124 51 0 23 -44 27 -57 5 -9 -16 -22 -19 -80 -17 -24 0 -43 6 -43 12 0
6 14 30 31 55 17 25 40 65 51 91 l20 45 -20 21 c-20 19 -26 20 -114 9 -51 -6
-107 -8 -124 -5 -34 5 -58 -14 -44 -37 10 -16 42 -17 164 -5 l90 8 -34 -59
c-51 -92 -79 -124 -107 -124 -16 0 -22 -4 -17 -12 6 -10 4 -10 -7 0 -7 6 -30
12 -51 12 -31 0 -38 -4 -38 -20 0 -18 7 -20 60 -20 l59 0 -34 -72 c-19 -40
-38 -87 -41 -105 l-6 -33 -3142 0 -3141 0 51 30 c73 43 134 111 134 151 0 40
-49 89 -110 109 l-42 14 26 22 c34 30 76 92 76 114 0 22 -31 50 -56 50 -10 -1
-35 -7 -55 -14z"/>
<path d="M9225 9606 c4 -27 2 -73 -6 -112 -14 -70 -28 -84 -85 -84 -18 0 -24
-5 -24 -21 0 -19 5 -21 45 -17 25 2 45 3 45 2 0 -13 -37 -117 -48 -136 -13
-22 -13 -31 -4 -40 19 -19 50 18 72 90 11 35 20 72 20 82 0 13 10 20 39 25 82
14 97 60 16 48 l-44 -6 10 37 c5 20 9 66 7 103 -3 62 -5 68 -26 71 -22 3 -23
2 -17 -42z"/>
<path d="M14351 9635 c-27 -9 -52 -10 -66 -5 -13 5 -31 7 -41 5 -11 -2 -41 -7
-68 -10 l-48 -7 6 -40 c4 -23 2 -56 -5 -75 -15 -48 -4 -56 58 -42 65 15 119 5
150 -29 21 -22 24 -34 20 -66 -7 -51 -33 -85 -88 -114 -38 -20 -54 -23 -117
-19 -51 3 -79 9 -90 21 -14 14 -15 18 -3 25 8 5 11 16 8 25 -5 12 -14 15 -34
10 -16 -4 -31 -9 -35 -11 -22 -12 8 -75 45 -95 11 -5 49 -14 85 -18 150 -19
272 63 272 183 0 89 -57 137 -163 137 l-53 0 0 35 c0 43 19 50 101 41 59 -6
125 14 125 39 0 22 -11 24 -59 10z"/>
<path d="M12996 9628 c-2 -7 -11 -43 -20 -80 -28 -113 -30 -118 -73 -119 -71
-1 -103 -15 -88 -39 5 -7 24 -9 61 -4 l53 6 -9 -32 c-15 -52 -43 -124 -52
-134 -16 -19 -9 -46 12 -46 23 0 49 52 77 152 l16 57 81 3 c64 2 81 6 81 18 0
12 -16 16 -73 18 -70 3 -73 4 -66 25 26 82 40 156 32 171 -11 19 -27 21 -32 4z"/>
<path d="M11689 9501 c-79 -25 -86 -49 -39 -141 44 -88 39 -120 -21 -135 -34
-9 -63 18 -54 52 4 16 1 25 -11 30 -39 15 -46 -65 -9 -102 44 -45 140 -26 164
33 15 35 8 68 -30 144 -28 55 -28 58 -10 68 27 14 41 13 41 -5 0 -24 47 -19
61 7 10 18 8 24 -11 40 -24 19 -40 21 -81 9z"/>
<path d="M8187 9484 c-4 -4 -7 -20 -7 -36 0 -16 -14 -61 -31 -101 -34 -80 -45
-172 -20 -172 9 0 19 20 27 55 7 30 24 82 39 114 17 39 25 72 23 99 -3 38 -16
56 -31 41z"/>
<path d="M9975 9468 c-27 -78 -51 -138 -66 -162 l-17 -29 -11 39 c-6 22 -14
58 -18 82 -4 32 -10 42 -20 38 -8 -4 -19 -6 -24 -6 -10 0 -4 -33 22 -134 20
-77 30 -92 53 -79 19 10 76 98 76 116 0 7 4 17 8 23 16 17 44 103 37 114 -9
14 -35 13 -40 -2z"/>
<path d="M10353 9454 c-3 -8 -3 -44 0 -78 4 -45 2 -70 -9 -90 -7 -16 -14 -35
-14 -43 0 -21 42 -12 55 12 29 57 59 96 89 114 65 41 82 22 46 -51 -28 -58
-24 -101 6 -80 19 13 54 102 54 137 0 58 -68 84 -112 42 -7 -7 -25 -20 -40
-30 l-27 -17 -6 38 c-4 20 -8 43 -10 50 -6 17 -24 15 -32 -4z"/>
<path d="M10094 9406 c-23 -24 -47 -61 -54 -81 -11 -33 -10 -40 7 -64 17 -22
29 -26 80 -29 68 -3 123 12 105 30 -6 6 -42 12 -79 12 -95 1 -95 21 -1 66 81
39 97 66 56 94 -38 27 -68 20 -114 -28z m75 -10 c-2 -2 -15 -9 -29 -16 -23
-12 -24 -12 -11 3 7 10 20 17 29 17 8 0 13 -2 11 -4z"/>
<path d="M10900 9432 c-28 -23 -22 -46 26 -103 38 -46 40 -55 18 -87 -16 -24
-62 -30 -81 -11 -13 13 -33 4 -33 -15 0 -7 9 -21 20 -31 29 -26 87 -14 123 25
39 44 37 87 -9 141 -29 35 -33 44 -20 51 8 4 26 4 41 -2 37 -14 55 -12 55 4 0
42 -99 61 -140 28z"/>
<path d="M11915 9430 c-3 -5 -4 -14 -1 -19 3 -4 -4 -17 -15 -27 -48 -43 -61
-102 -33 -143 15 -21 23 -23 71 -19 68 6 107 33 111 77 7 65 -106 175 -133
131z m93 -129 c-2 -9 -22 -23 -46 -31 -38 -13 -44 -13 -58 2 -14 14 -14 18 1
47 24 47 54 56 83 24 13 -14 22 -33 20 -42z"/>
<path d="M12186 9428 c-3 -7 -10 -38 -16 -67 -6 -30 -22 -70 -36 -88 -26 -34
-26 -63 -1 -63 8 0 27 16 41 35 55 71 124 129 169 140 33 9 34 1 2 -50 -34
-56 -46 -86 -43 -104 5 -26 29 -18 47 15 9 17 25 49 37 70 31 58 37 90 18 108
-8 9 -24 16 -35 16 -24 0 -104 -37 -120 -56 -19 -23 -29 -16 -27 18 2 24 -2
33 -15 36 -9 2 -19 -2 -21 -10z"/>
<path d="M9630 9420 c-8 -5 -16 -20 -17 -32 -1 -13 -5 -38 -9 -55 -19 -97 61
-152 120 -82 38 45 34 75 -19 141 -25 30 -54 41 -75 28z m65 -94 c17 -49 -26
-87 -46 -42 -9 20 -9 32 0 52 14 31 33 27 46 -10z"/>
<path d="M12533 9391 c-116 -93 -102 -200 19 -137 27 14 53 24 57 21 4 -2 6
-17 4 -32 -5 -36 10 -58 32 -49 14 5 16 14 11 46 -4 25 0 56 9 85 16 47 14 65
-9 65 -20 0 -49 -37 -40 -52 4 -7 4 -10 0 -6 -5 4 -30 -7 -57 -24 -28 -17 -53
-28 -56 -25 -16 16 86 107 120 107 29 0 17 34 -14 38 -17 2 -41 -9 -76 -37z"/>
<path d="M8884 9397 c-43 -31 -104 -105 -104 -127 0 -10 12 -28 28 -40 23 -19
37 -21 99 -18 73 3 100 15 90 40 -4 12 -17 12 -73 3 -54 -9 -72 -8 -81 1 -21
20 -16 29 35 62 80 54 96 68 89 86 -9 22 -46 19 -83 -7z"/>
<path d="M8633 9397 c-12 -7 -42 -39 -67 -71 -48 -60 -60 -112 -33 -134 19
-16 64 -25 91 -18 31 8 62 54 47 69 -8 8 -11 6 -11 -6 0 -9 -5 -17 -11 -17 -6
0 -9 7 -5 15 7 19 -8 19 -27 1 -20 -21 -51 -24 -54 -6 -4 22 6 32 62 60 58 29
81 64 61 94 -17 26 -26 28 -53 13z"/>
<path d="M13696 9399 c-55 -9 -71 -20 -62 -44 4 -11 12 -15 24 -10 9 3 40 9
67 11 83 9 95 13 95 34 0 17 -6 20 -37 19 -21 -1 -60 -5 -87 -10z"/>
<path d="M13225 9381 c-26 -11 -47 -31 -60 -55 -18 -34 -19 -39 -4 -64 12 -22
22 -27 54 -26 22 0 48 4 57 8 13 6 20 2 29 -17 12 -27 61 -53 78 -42 19 11 12
31 -15 44 -27 12 -27 18 -9 78 12 37 -19 39 -62 5 -21 -17 -50 -34 -65 -37
-23 -6 -28 -4 -28 12 0 11 9 28 20 38 20 18 74 30 64 14 -3 -5 1 -9 9 -9 22 0
27 25 11 49 -18 25 -28 26 -79 2z"/>
<path d="M11584 8973 c0 -54 -23 -152 -42 -181 -6 -8 -39 -16 -85 -19 -47 -4
-81 -11 -88 -20 -19 -22 -2 -28 73 -24 55 2 70 0 65 -11 -2 -7 -13 -33 -22
-58 -10 -25 -24 -52 -32 -61 -18 -22 -16 -37 7 -44 29 -9 37 -1 55 58 27 90
47 121 80 127 24 4 31 11 33 32 2 19 7 25 19 21 11 -4 14 -1 11 13 -3 14 -11
18 -29 16 l-26 -2 18 82 c21 95 17 128 -15 128 -19 0 -21 -5 -22 -57z"/>
<path d="M8324 8990 c-12 -4 -49 -34 -82 -65 -59 -54 -75 -86 -51 -100 13 -9
72 52 64 66 -4 5 -3 8 2 7 4 -1 31 13 58 30 l50 33 3 -33 c10 -95 -37 -198
-107 -235 -92 -48 -153 -118 -138 -157 12 -31 48 -17 111 44 l63 60 -12 -47
c-22 -85 17 -138 78 -107 26 14 34 33 21 47 -4 3 -16 2 -26 -4 -34 -18 -44 3
-28 59 7 26 14 61 15 77 1 17 14 55 29 85 37 71 53 193 31 227 -16 24 -44 28
-81 13z"/>
<path d="M14322 8970 c-6 -11 -22 -64 -33 -117 -12 -54 -26 -104 -31 -110 -6
-7 -27 -13 -47 -13 -46 0 -77 -20 -68 -45 5 -13 13 -15 30 -10 32 10 77 18 77
13 0 -2 -10 -35 -23 -74 -25 -76 -25 -94 2 -94 13 0 23 21 43 88 l25 87 64 8
c68 8 86 18 74 37 -5 9 -26 11 -66 7 -33 -3 -59 -3 -59 -1 0 29 45 193 57 206
8 9 12 22 8 27 -10 18 -39 13 -53 -9z"/>
<path d="M8861 8962 c-19 -15 -23 -34 -31 -152 -12 -154 -34 -218 -82 -234
-15 -6 -30 -7 -34 -3 -13 13 8 58 46 99 39 40 46 68 18 68 -21 0 -97 -89 -107
-126 -11 -41 2 -80 30 -89 22 -7 69 4 69 17 0 5 4 7 9 4 12 -8 48 34 66 76 8
21 20 95 26 165 11 118 14 130 37 150 40 34 -6 59 -47 25z"/>
<path d="M14038 8838 c-12 -10 -14 -19 -7 -35 11 -29 25 -29 40 -2 15 29 -8
56 -33 37z"/>
<path d="M10145 8808 c-28 -16 -42 -35 -70 -93 -40 -82 -31 -134 26 -154 40
-14 89 -14 89 -1 0 6 7 10 15 10 8 0 15 6 15 13 0 9 -16 14 -51 15 -50 1 -79
14 -79 36 0 6 28 29 62 51 78 50 88 66 68 103 -17 30 -45 38 -75 20z m35 -46
c0 -5 -14 -19 -31 -31 -31 -23 -31 -14 -1 22 16 18 32 23 32 9z"/>
<path d="M9929 8728 c-47 -98 -59 -113 -59 -75 0 47 -23 107 -42 107 -26 0
-29 -14 -13 -54 8 -19 15 -63 15 -96 0 -45 4 -62 15 -67 25 -9 51 23 105 128
28 54 55 101 60 104 15 9 0 35 -21 35 -14 0 -30 -22 -60 -82z"/>
<path d="M10581 8744 c-35 -36 -65 -64 -67 -61 -2 2 3 21 11 42 9 20 14 44 11
51 -9 24 -54 15 -93 -18 -20 -18 -33 -27 -29 -20 10 17 -11 42 -30 35 -8 -3
-14 -13 -14 -22 0 -10 -14 -45 -31 -79 -17 -34 -28 -66 -24 -72 13 -20 34 -9
71 38 21 26 53 60 72 77 l35 29 -16 -31 c-9 -17 -19 -49 -23 -72 -6 -35 -4
-41 12 -41 10 0 44 21 76 46 62 48 64 49 47 10 -23 -50 19 -107 56 -76 20 17
19 29 -4 38 -19 7 -18 11 15 85 40 92 42 107 11 107 -16 0 -44 -22 -86 -66z"/>
<path d="M10814 8767 c-16 -19 -37 -44 -47 -56 -24 -29 -26 -96 -5 -117 22
-22 108 -32 108 -13 0 11 2 11 10 -1 9 -13 11 -13 19 0 14 21 4 30 -38 30 -20
0 -46 6 -57 14 -26 20 -10 44 44 65 61 24 78 44 66 78 -7 21 -17 29 -40 31
-25 2 -37 -4 -60 -31z"/>
<path d="M11143 8771 c-32 -18 -53 -24 -53 -17 0 6 -8 12 -19 13 -15 1 -23
-13 -40 -63 -11 -35 -21 -69 -21 -74 0 -19 39 -10 45 10 3 11 22 32 40 46 22
17 32 31 28 42 -4 13 -3 14 5 3 7 -10 14 -11 32 -1 32 17 34 8 5 -45 -29 -55
-33 -105 -10 -105 9 0 18 8 21 18 4 9 22 52 42 94 29 64 33 80 22 93 -18 21
-38 19 -97 -14z"/>
<path d="M13480 8783 c-23 -8 -90 -75 -106 -106 -19 -35 -10 -65 21 -73 31 -8
112 20 143 49 l25 22 -7 -100 c-3 -55 -6 -102 -6 -105 0 -3 -34 -4 -75 -2 -69
4 -79 2 -116 -23 -100 -66 -105 -230 -7 -262 82 -27 189 49 222 157 9 30 21
63 26 72 6 11 5 18 -3 21 -7 3 -7 6 -2 6 7 1 9 19 5 49 -3 26 -2 80 2 121 6
65 4 79 -15 112 -12 20 -34 44 -48 53 -28 17 -35 18 -59 9z m49 -57 c21 -25
-72 -87 -110 -74 -17 6 59 88 81 88 10 0 23 -6 29 -14z m13 -315 c4 -3 2 -24
-4 -46 -42 -146 -208 -201 -208 -69 0 61 18 94 65 116 30 14 52 17 90 12 28
-3 53 -9 57 -13z"/>
<path d="M9302 8760 c-30 -18 -32 -23 -20 -38 12 -15 11 -16 -4 -3 -10 7 -18
20 -18 27 0 8 -9 14 -19 14 -19 0 -23 -6 -36 -65 -3 -16 -20 -56 -36 -88 -16
-32 -27 -63 -24 -68 8 -13 45 -11 45 2 0 16 108 163 130 177 17 10 20 10 20
-5 0 -10 -8 -40 -17 -66 -15 -42 -15 -49 -3 -58 12 -7 28 4 70 49 30 32 64 64
74 72 18 14 19 14 8 -7 -17 -30 -15 -88 3 -103 17 -14 19 -10 30 55 4 21 13
52 22 68 35 68 -21 76 -98 15 -33 -26 -50 -34 -45 -23 7 20 -18 65 -37 65 -6
0 -27 -9 -45 -20z"/>
<path d="M12505 8750 c-22 -11 -48 -25 -58 -32 -15 -11 -20 -10 -28 5 -6 9
-18 17 -28 17 -22 0 -34 -23 -20 -37 6 -6 -6 -30 -31 -63 -66 -88 -29 -98 64
-16 59 51 123 96 139 96 13 0 7 -30 -13 -70 -24 -48 -26 -75 -4 -66 8 3 12 2
9 -4 -3 -6 -3 -10 2 -10 10 0 51 95 59 137 7 36 -8 63 -35 63 -9 0 -34 -9 -56
-20z"/>
<path d="M9645 8750 c-4 -6 -10 -8 -14 -5 -10 6 -34 -21 -55 -62 -12 -25 -13
-33 -4 -33 8 0 6 -5 -4 -11 -25 -14 -22 -46 8 -75 19 -20 31 -24 52 -19 38 9
81 53 88 90 11 61 -47 154 -71 115z m25 -94 c0 -34 -25 -66 -52 -66 -23 0 -24
30 -2 73 30 57 54 54 54 -7z"/>
<path d="M12145 8734 c-46 -24 -66 -45 -87 -92 -23 -52 -18 -85 17 -108 35
-23 86 -11 130 30 29 27 35 41 35 73 0 23 -6 46 -14 53 -8 6 -12 18 -10 25 3
7 -4 18 -15 24 -24 14 -20 14 -56 -5z m55 -94 c0 -34 -68 -84 -97 -73 -24 9
-12 64 24 104 13 15 17 15 44 2 17 -8 29 -22 29 -33z"/>
<path d="M14774 8721 c-39 -27 -113 -131 -128 -177 -10 -33 17 -51 49 -30 27
18 48 50 38 60 -3 3 -1 6 5 6 7 0 12 13 12 28 0 38 59 101 72 78 22 -39 55 -6
34 35 -16 34 -36 34 -82 0z"/>
<path d="M8473 8718 c-4 -7 -6 -25 -4 -40 1 -15 -8 -45 -21 -67 -16 -29 -20
-43 -12 -51 16 -16 35 -4 84 55 24 29 47 52 50 49 3 -3 7 -33 10 -67 4 -54 8
-62 25 -62 18 0 19 6 16 80 -4 115 -21 136 -73 96 -24 -19 -24 -19 -36 0 -14
22 -28 24 -39 7z"/>
<path d="M14476 8692 c-63 -47 -92 -93 -76 -121 13 -25 38 -26 87 -6 36 15 38
15 55 -7 15 -20 19 -21 28 -8 6 8 9 26 6 40 -2 14 2 34 10 44 20 28 17 49 -9
74 -32 30 -44 28 -101 -16z m57 -44 c-16 -18 -64 -48 -78 -48 -17 0 0 24 36
50 45 32 72 31 42 -2z"/>
<path d="M13689 8718 c0 -2 -7 -30 -14 -63 -17 -80 -5 -109 48 -113 73 -6 160
97 111 133 -10 7 -25 11 -33 10 -9 -2 -19 -4 -23 -4 -15 -2 -8 -30 9 -39 15
-9 13 -13 -12 -36 -40 -38 -61 -31 -57 19 2 22 9 46 15 53 9 11 7 17 -8 28
-17 13 -34 18 -36 12z"/>
<path d="M13944 8673 c-3 -10 -12 -35 -20 -55 -7 -21 -11 -44 -8 -53 6 -15 43
-21 45 -7 1 4 3 16 4 27 2 11 8 33 14 48 6 16 11 35 11 43 0 20 -40 17 -46 -3z"/>
<path d="M14870 8520 c0 -5 -7 -10 -15 -10 -9 0 -15 -9 -15 -25 0 -18 5 -25
18 -25 25 0 56 35 49 55 -7 17 -37 21 -37 5z"/>
<path d="M8894 8296 c-3 -9 -4 -34 -2 -56 2 -22 0 -40 -4 -40 -5 0 -8 -8 -8
-18 0 -10 -9 -51 -19 -91 -10 -39 -17 -81 -14 -91 3 -13 0 -20 -8 -20 -13 0
-59 -92 -59 -117 0 -23 36 -13 51 13 15 29 133 134 150 134 19 0 -2 -81 -29
-112 -20 -23 -8 -50 20 -46 18 2 27 17 46 78 30 97 27 124 -14 128 -23 2 -43
-6 -79 -34 -28 -21 -45 -29 -42 -20 18 46 47 188 49 241 3 50 0 60 -15 63 -9
2 -20 -4 -23 -12z"/>
<path d="M8425 8283 c-171 -17 -210 -25 -210 -43 0 -17 36 -18 185 -1 135 15
207 13 275 -6 82 -22 119 -23 123 0 4 19 6 18 -93 40 -103 23 -137 25 -280 10z"/>
<path d="M14417 8263 c-3 -10 -8 -35 -12 -56 -5 -33 -60 -174 -72 -187 -2 -3
-39 -7 -81 -10 -69 -4 -77 -7 -77 -25 0 -18 6 -20 63 -18 34 1 62 0 62 -2 0
-1 -11 -33 -25 -69 -30 -79 -32 -106 -7 -106 12 0 25 21 45 80 16 44 35 87 43
95 9 9 34 15 59 15 34 0 47 5 55 19 13 26 0 33 -48 25 l-40 -6 34 85 c19 46
37 105 40 131 6 42 5 46 -14 46 -11 0 -23 -8 -25 -17z"/>
<path d="M12907 8233 c-3 -4 -8 -24 -12 -43 -3 -19 -15 -63 -26 -97 l-20 -62
-47 -6 c-105 -14 -130 -26 -113 -54 7 -11 15 -11 41 -2 18 6 48 11 66 11 l32
0 -26 -75 c-20 -57 -23 -78 -14 -87 15 -15 38 3 46 38 4 14 16 49 27 79 l20
55 54 0 54 0 -16 -55 c-24 -82 -9 -89 67 -31 34 25 65 46 69 46 5 0 -1 -25
-11 -56 -23 -68 -21 -99 7 -99 14 0 19 6 18 19 -1 11 10 50 24 88 19 55 22 72
12 84 -17 20 -40 17 -92 -11 l-45 -26 29 90 c15 49 36 108 45 131 14 36 15 43
3 51 -25 15 -32 5 -64 -92 -29 -85 -34 -94 -58 -97 -15 -2 -27 -8 -27 -13 0
-6 -7 -4 -15 4 -8 9 -19 17 -25 19 -6 2 -2 27 9 63 27 87 30 129 9 133 -9 2
-18 -1 -21 -5z"/>
<path d="M8530 8189 c0 -12 -16 -78 -36 -148 -51 -183 -52 -185 -42 -210 13
-38 32 -18 45 49 7 34 22 95 34 134 23 78 23 77 34 124 4 17 11 32 16 32 5 0
9 9 9 20 0 16 -7 20 -30 20 -24 0 -30 -4 -30 -21z"/>
<path d="M13605 8190 c-3 -6 -4 -18 -1 -28 3 -10 -2 -49 -12 -87 -17 -65 -19
-69 -52 -77 -60 -15 -63 -17 -51 -32 6 -7 9 -15 6 -18 -3 -2 9 -2 26 0 28 4
31 2 25 -17 -3 -11 -9 -31 -12 -43 -3 -13 -13 -38 -22 -56 -12 -26 -12 -36 -3
-45 19 -18 45 21 70 102 23 75 30 81 109 81 30 0 44 5 49 16 7 18 -15 36 -31
26 -9 -5 -77 -5 -82 1 -1 1 4 27 12 57 8 30 14 71 14 92 0 31 -4 38 -19 38
-11 0 -23 -5 -26 -10z"/>
<path d="M14591 8182 c-5 -10 -18 -54 -29 -98 -19 -73 -57 -165 -92 -220 -13
-21 -8 -54 8 -54 5 0 37 30 71 66 50 53 60 68 51 80 -7 7 -16 12 -20 9 -7 -4
15 81 45 174 7 25 12 48 9 53 -9 14 -33 9 -43 -10z"/>
<path d="M9182 8148 c2 -17 11 -24 31 -26 25 -3 28 0 25 20 -2 17 -11 24 -31
26 -25 3 -28 0 -25 -20z"/>
<path d="M11540 8108 c-38 -19 -46 -28 -48 -55 -3 -27 4 -40 37 -75 44 -45 50
-62 25 -72 -26 -10 -83 -7 -104 6 -27 17 -50 -4 -34 -30 28 -43 152 -37 187 9
25 34 17 59 -35 115 -22 24 -37 47 -34 53 3 5 29 15 56 22 37 9 50 18 50 31 0
25 -45 24 -100 -4z"/>
<path d="M10905 8084 c-53 -27 -115 -95 -115 -126 0 -44 34 -54 93 -29 l47 20
0 -29 c0 -16 4 -31 9 -34 16 -10 42 6 36 22 -3 8 9 36 26 63 44 69 20 93 -44
45 -38 -29 -108 -59 -116 -50 -10 10 83 84 106 84 30 0 40 20 18 37 -23 16
-23 16 -60 -3z"/>
<path d="M11137 8093 c-3 -4 -10 -34 -17 -65 -7 -35 -25 -78 -46 -108 -19 -28
-32 -55 -29 -60 14 -23 43 -5 84 52 38 52 118 118 143 118 17 0 7 -35 -23 -81
-30 -48 -35 -89 -12 -97 7 -2 18 9 23 23 6 15 20 41 31 57 30 41 42 93 29 118
-14 26 -64 26 -108 0 -18 -11 -34 -20 -37 -20 -2 0 -5 14 -7 32 -3 30 -21 48
-31 31z"/>
<path d="M10663 8073 c-62 -35 -94 -70 -95 -105 -2 -50 17 -76 63 -88 34 -10
46 -8 77 8 20 10 37 25 37 33 0 17 -43 25 -58 10 -15 -15 -50 -14 -65 1 -19
19 -15 22 38 43 28 11 63 29 77 41 25 19 26 24 15 48 -14 31 -43 34 -89 9z"/>
<path d="M10444 8058 c-16 -12 -43 -35 -61 -51 l-32 -30 5 34 c8 47 -15 68
-58 51 -22 -8 -35 -8 -48 0 -21 14 -50 -4 -50 -29 0 -9 -12 -41 -26 -73 -14
-32 -24 -66 -22 -76 6 -31 28 -27 42 8 8 18 36 56 62 83 56 57 67 47 34 -29
-44 -103 -15 -101 97 4 87 83 111 97 98 58 -12 -37 -11 -81 2 -85 16 -6 43 60
43 103 0 23 -6 37 -19 44 -27 14 -34 13 -67 -12z"/>
<path d="M9317 8042 c-30 -32 -33 -48 -12 -76 29 -38 16 -96 -21 -96 -19 0
-23 5 -21 22 3 33 -30 36 -43 4 -14 -37 -3 -54 42 -66 53 -15 73 -6 92 41 20
49 20 62 0 101 -16 31 -16 32 10 51 14 10 26 25 26 33 0 24 -45 16 -73 -14z"/>
<path d="M14868 7997 c-43 -35 -55 -51 -62 -86 -8 -37 -6 -45 13 -64 19 -19
31 -22 92 -19 76 3 109 14 109 37 0 13 -14 14 -84 9 -80 -7 -103 -1 -88 22 4
6 32 18 62 28 85 28 112 63 74 100 -26 26 -60 18 -116 -27z m71 -18 c-22 -14
-33 -10 -19 6 7 8 17 12 22 9 6 -4 5 -10 -3 -15z"/>
<path d="M9140 8005 c-5 -13 -17 -50 -26 -81 -13 -47 -14 -58 -3 -65 8 -4 18
-4 23 1 13 13 53 143 48 158 -7 21 -32 13 -42 -13z"/>
<path d="M13304 7995 c-36 -15 -84 -69 -84 -95 0 -25 21 -39 45 -29 32 12 33
11 25 -26 -6 -25 -4 -38 6 -46 21 -17 45 7 39 38 -2 16 3 33 16 46 15 16 18
32 15 65 -4 53 -20 65 -62 47z m20 -49 c-10 -8 -21 -12 -24 -10 -5 6 21 24 34
24 6 0 1 -6 -10 -14z"/>
<path d="M14622 7990 c-19 -8 -21 -13 -12 -29 6 -12 16 -18 25 -15 20 8 20
-26 -1 -70 -18 -36 -14 -66 8 -66 14 0 58 103 58 137 0 24 -25 53 -43 52 -7 0
-22 -4 -35 -9z"/>
<path d="M12092 7800 l-23 -30 -2092 -2 -2092 -3 2090 -5 c1150 -3 2082 -8
2072 -12 -10 -5 -27 -8 -37 -8 -25 0 -31 -21 -13 -42 14 -16 18 -16 54 3 22
11 45 28 51 39 13 20 32 20 1738 22 l1725 3 -1718 2 -1718 3 11 20 c24 46 -16
54 -48 10z"/>
<path d="M11781 7737 c-6 -6 -11 -32 -11 -59 0 -107 -63 -292 -106 -308 -16
-6 -27 -23 -35 -52 -6 -24 -16 -55 -21 -70 -11 -31 -5 -47 20 -47 9 1 36 -5
58 -11 36 -10 48 -9 87 8 49 22 73 51 83 98 5 25 0 37 -21 59 -27 31 -25 31
-97 0 -14 -5 -11 9 17 72 54 126 83 304 51 316 -7 3 -19 0 -25 -6z m29 -431
c0 -34 -53 -76 -95 -76 -48 0 -51 14 -8 48 75 58 103 66 103 28z"/>
<path d="M10721 7676 c-7 -8 -10 -20 -6 -25 6 -10 -60 -246 -105 -375 -25 -75
-26 -106 -2 -106 12 0 21 12 29 38 5 20 38 128 72 240 34 112 61 211 59 220
-4 22 -32 27 -47 8z"/>
<path d="M8442 7658 c-5 -7 -23 -64 -38 -125 l-27 -113 -67 0 c-66 0 -90 -10
-90 -38 0 -11 14 -13 70 -10 44 2 70 0 70 -7 0 -5 -11 -52 -25 -104 -25 -97
-24 -111 1 -111 18 0 27 23 54 142 24 101 29 108 88 108 12 0 22 5 22 11 0 5
5 7 10 4 6 -3 10 1 10 10 0 20 -52 45 -58 27 -5 -16 -32 -16 -32 1 0 6 10 46
21 87 12 41 22 86 23 99 1 27 -16 38 -32 19z"/>
<path d="M14597 7653 c-2 -4 -7 -30 -11 -58 -4 -27 -14 -73 -22 -101 l-16 -51
-66 -6 c-36 -4 -70 -11 -75 -16 -18 -18 5 -31 59 -31 30 0 54 -4 54 -10 0 -11
-35 -105 -52 -137 -14 -28 -4 -53 21 -53 14 0 21 9 27 33 13 63 63 171 81 178
10 4 31 8 46 8 16 1 26 5 23 10 -3 4 5 6 17 4 28 -5 66 21 51 36 -7 8 -27 8
-67 0 -32 -7 -60 -10 -62 -7 -3 3 2 32 10 65 22 88 24 136 3 141 -9 2 -18 -1
-21 -5z"/>
<path d="M9956 7642 c-2 -4 -4 -27 -4 -52 0 -56 -19 -114 -88 -259 -30 -62
-51 -117 -48 -122 11 -18 35 -8 81 36 39 37 45 48 33 55 -9 6 -10 10 -3 10 6
0 15 -5 18 -11 5 -7 15 -4 29 9 27 24 64 39 48 19 -7 -8 -18 -33 -27 -56 -13
-37 -13 -45 -1 -57 21 -20 23 -18 37 24 6 20 22 56 36 78 13 23 21 49 17 58
-10 25 -61 19 -108 -12 -70 -47 -68 -47 -51 -5 66 151 88 250 65 278 -14 16
-26 19 -34 7z"/>
<path d="M14075 7548 c-30 -89 -64 -160 -116 -240 -54 -81 -62 -123 -24 -123
13 0 21 8 23 23 2 13 25 56 51 96 54 83 114 226 109 264 -5 44 -25 35 -43 -20z"/>
<path d="M10991 7508 c-7 -46 -17 -100 -22 -121 -9 -33 -13 -36 -34 -31 -34 9
-71 -2 -95 -28 -15 -17 -17 -24 -8 -30 9 -5 8 -8 -4 -8 -20 0 -45 -68 -35 -94
9 -23 47 -35 77 -24 43 16 99 79 121 138 15 41 49 190 49 218 0 1 12 1 26 0
39 -4 40 18 2 42 -57 34 -63 29 -77 -62z m-62 -197 c10 -6 10 -13 2 -29 -14
-27 -69 -72 -87 -72 -12 0 -12 5 1 38 14 34 48 72 64 72 3 0 12 -4 20 -9z"/>
<path d="M8813 7522 c8 -48 -12 -121 -59 -214 -39 -77 -42 -98 -15 -105 11 -3
21 -14 23 -25 9 -59 91 -43 168 32 41 40 50 55 50 84 0 62 -57 83 -129 47
l-38 -20 24 66 c16 46 23 83 21 117 -3 45 -6 51 -27 54 -23 4 -23 2 -18 -36z
m111 -208 c9 -3 16 -11 16 -16 0 -28 -89 -108 -120 -108 -12 0 -15 8 -12 36 3
28 13 42 45 65 43 31 47 32 71 23z"/>
<path d="M12024 7441 c-34 -21 -65 -67 -83 -123 -14 -44 -2 -80 39 -110 31
-23 118 -27 131 -7 6 10 9 11 9 1 0 -10 4 -10 20 0 23 15 27 45 5 45 -8 0 -15
-6 -15 -14 0 -7 -5 -13 -11 -13 -5 0 -8 3 -6 8 3 4 -19 7 -47 7 -62 0 -86 16
-86 56 0 22 5 29 20 29 32 0 100 31 110 51 15 27 12 54 -8 72 -24 22 -40 21
-78 -2z m37 -51 c-25 -22 -41 -26 -41 -10 0 11 30 29 50 29 10 0 8 -6 -9 -19z"/>
<path d="M9602 7434 c-32 -22 -27 -45 18 -89 22 -21 40 -46 40 -55 0 -9 -13
-29 -29 -44 -36 -35 -67 -30 -57 9 5 20 3 25 -11 25 -15 0 -16 2 -3 10 9 6 10
10 3 10 -18 0 -43 -29 -43 -51 0 -25 52 -79 75 -79 24 0 103 80 111 112 5 22
-2 35 -36 71 -46 51 -41 62 25 53 47 -8 65 5 45 29 -17 20 -109 20 -138 -1z"/>
<path d="M13788 7428 c-16 -5 -28 -15 -28 -20 0 -6 -3 -8 -6 -5 -4 4 -19 -2
-34 -13 -28 -20 -28 -20 -33 1 -4 13 -12 20 -24 17 -14 -2 -19 -14 -21 -50 -2
-36 -18 -75 -65 -160 l-62 -113 -2820 -5 c-2152 -4 -2461 -6 -1305 -8 l1515
-3 -31 -27 c-53 -47 -72 -85 -93 -191 -12 -57 -21 -112 -21 -122 0 -14 -7 -19
-29 -19 -37 0 -57 -22 -36 -40 8 -7 26 -10 40 -8 l25 5 0 -108 c0 -105 8 -135
32 -111 6 6 9 56 9 115 l-1 104 42 -8 c24 -4 47 -4 52 1 17 17 -3 37 -43 44
-40 6 -41 8 -41 44 0 20 9 74 19 120 15 71 24 89 57 123 55 56 93 52 85 -8 -1
-7 7 -13 17 -13 28 0 38 45 17 76 l-15 24 1255 0 c690 0 1255 -4 1255 -8 0 -4
-5 -13 -12 -20 -9 -9 -9 -16 4 -28 14 -15 18 -13 48 20 l33 36 996 2 996 3
-992 5 -993 5 28 40 c22 32 32 39 54 37 74 -9 208 133 208 219 0 50 -27 66
-82 47z m42 -48 c0 -38 -80 -139 -131 -166 -24 -12 -27 -12 -31 4 -2 9 4 42
13 72 10 30 18 50 18 43 1 -6 24 4 52 23 52 34 79 43 79 24z"/>
<path d="M12806 7383 c-55 -56 -86 -106 -93 -146 -11 -70 65 -108 156 -76 30
11 41 32 21 44 -5 3 -28 1 -50 -5 -92 -25 -108 25 -37 112 37 45 49 53 77 53
41 0 49 18 18 39 -34 24 -52 20 -92 -21z"/>
<path d="M14833 7409 c-17 -5 -52 -29 -77 -53 -72 -70 -74 -146 -5 -181 46
-24 218 -18 248 9 11 10 18 23 15 27 -6 11 -44 12 -44 2 0 -10 -168 -10 -197
0 -23 8 -37 33 -27 48 3 5 10 7 15 3 14 -8 103 24 133 47 31 24 34 68 8 92
-21 19 -24 19 -69 6z m47 -49 c0 -12 -76 -49 -98 -50 -11 0 -11 2 0 13 41 40
98 62 98 37z"/>
<path d="M8543 7395 c-38 -27 -93 -111 -93 -143 0 -42 22 -46 81 -17 l49 25 0
-30 c0 -38 16 -70 35 -70 24 0 28 20 8 42 -10 12 -12 18 -5 14 8 -5 12 1 12
19 0 14 6 40 13 58 23 53 -1 78 -37 38 -10 -11 -31 -25 -47 -31 -16 -7 -27
-15 -25 -19 3 -4 -4 -7 -14 -7 -20 0 -19 5 18 53 13 17 33 33 45 35 14 2 22
10 22 23 0 25 -33 31 -62 10z"/>
<path d="M13314 7376 c-47 -32 -50 -33 -50 -13 1 27 -32 36 -40 10 -3 -10 -15
-39 -27 -66 -33 -76 -13 -79 76 -13 l76 56 -15 -35 c-35 -85 -5 -94 91 -26 40
28 76 51 79 51 3 0 1 -12 -4 -26 -14 -36 -12 -70 4 -83 12 -10 17 -8 25 7 6
11 8 22 6 24 -3 3 2 24 10 48 8 24 13 52 9 63 -9 28 -60 17 -123 -28 l-52 -36
16 30 c39 76 2 93 -81 37z"/>
<path d="M14191 7396 c-47 -17 -111 -82 -111 -113 0 -63 47 -102 125 -105 91
-3 123 8 111 38 -4 11 -10 14 -16 8 -5 -5 -39 -7 -76 -4 -55 5 -70 10 -86 30
l-20 25 31 9 c19 5 30 14 27 22 -8 20 6 25 20 6 12 -16 14 -16 41 4 31 23 41
57 23 80 -15 17 -24 17 -69 0z"/>
<path d="M10486 7393 c-3 -4 -6 -17 -6 -30 0 -14 -5 -33 -10 -44 -12 -21 -60
-49 -84 -49 -21 0 -31 45 -18 75 8 18 8 26 -3 35 -37 31 -63 -80 -29 -128 29
-42 118 -23 163 34 24 31 29 99 7 107 -8 3 -17 3 -20 0z"/>
<path d="M10130 7338 c-39 -64 -38 -121 2 -132 77 -20 146 17 134 72 -8 31
-72 92 -99 92 -9 0 -26 -15 -37 -32z m71 -38 c28 -15 24 -48 -6 -56 -42 -11
-56 0 -44 36 12 32 20 36 50 20z"/>
<path d="M13037 7342 c-43 -31 -77 -78 -77 -107 0 -52 72 -91 125 -67 48 22
71 110 46 175 -14 35 -44 35 -94 -1z m63 -60 c0 -41 -26 -72 -60 -72 -15 0
-30 6 -33 13 -10 28 41 86 76 87 12 0 17 -8 17 -28z"/>
<path d="M15599 6993 c-5 -31 4 -158 18 -263 21 -159 14 -211 -30 -242 -18
-12 -33 -26 -35 -30 -2 -4 -12 -3 -22 2 -28 15 -17 83 21 139 46 66 24 99 -26
39 -34 -40 -46 -70 -52 -134 -4 -38 -1 -54 11 -67 31 -31 125 -6 163 43 29 37
34 98 18 223 -8 67 -18 160 -22 207 -7 69 -11 85 -25 88 -10 2 -19 0 -19 -5z"/>
<path d="M8231 6919 c-11 -18 -17 -38 -14 -45 3 -8 -7 -81 -23 -162 -25 -135
-29 -148 -48 -148 -23 1 -23 -1 -3 -58 32 -87 144 -89 209 -4 37 49 49 92 36
128 -19 55 -86 68 -135 26 l-30 -25 23 117 c12 64 27 130 34 146 22 59 -17 78
-49 25z m107 -291 c18 -18 14 -52 -9 -82 -11 -14 -17 -26 -12 -26 4 -1 -9 -10
-30 -21 -37 -19 -77 -18 -77 2 0 5 14 34 31 64 40 70 70 90 97 63z"/>
<path d="M13588 6943 c-69 -3 -78 -6 -78 -23 0 -10 4 -21 9 -25 5 -3 74 0 153
6 138 12 145 11 192 -9 26 -12 52 -19 57 -16 21 12 6 36 -33 54 -44 20 -90 22
-300 13z"/>
<path d="M14018 6914 c-3 -3 -4 -64 -1 -135 l5 -129 -46 0 c-33 0 -48 -5 -53
-15 -8 -23 3 -29 51 -26 l43 2 7 -68 c4 -37 10 -87 13 -110 l6 -43 -92 0 c-51
0 -123 7 -162 16 l-69 16 0 39 c0 24 -5 39 -12 39 -8 0 -9 3 -3 8 6 4 10 30
10 57 1 28 4 107 9 178 8 125 8 127 -13 127 -17 0 -21 -6 -20 -27 0 -16 -5
-75 -11 -133 -7 -58 -9 -146 -6 -196 l6 -91 -72 4 c-40 2 -92 8 -116 14 -24 5
-47 7 -53 4 -19 -13 -8 -35 24 -44 22 -6 -32 -9 -184 -10 -201 -1 -217 0 -215
17 2 27 -57 29 -83 3 -21 -21 -29 -21 -596 -21 l-575 0 0 24 c0 13 -3 31 -6
39 -3 10 3 17 20 21 38 9 94 70 106 115 13 51 1 84 -38 100 -86 36 -172 -56
-172 -184 0 -22 -3 -57 -6 -77 l-7 -38 -1589 0 -1590 0 31 53 c26 45 87 183
94 211 1 4 -8 10 -20 12 -18 3 -25 -6 -48 -65 -32 -81 -56 -96 -76 -48 -7 17
-12 45 -12 63 1 34 -15 48 -42 38 -19 -8 -19 -13 1 -82 9 -30 28 -67 42 -81
l25 -25 -20 -36 -21 -35 -303 -5 -304 -5 298 -3 c163 -1 297 -4 297 -7 0 -3
-9 -23 -20 -45 -24 -48 -26 -98 -4 -107 18 -7 35 13 28 32 -3 7 7 38 22 69
l26 56 1304 0 c717 0 1304 -3 1304 -7 0 -5 -22 -30 -49 -56 -72 -71 -79 -94
-52 -175 12 -37 21 -79 21 -93 0 -33 -33 -63 -112 -103 -46 -22 -64 -37 -66
-54 -5 -30 21 -29 77 4 83 47 85 13 6 -121 l-41 -70 -532 -3 c-293 -1 -532 0
-532 3 0 3 9 24 21 47 32 63 89 201 89 216 0 8 -9 12 -22 10 -16 -2 -27 -19
-46 -71 -22 -59 -26 -65 -37 -50 -13 17 -14 17 -32 0 -16 -14 -22 -15 -36 -4
-20 15 -37 59 -37 98 0 42 -34 36 -38 -6 -11 -96 74 -179 130 -128 15 13 12 2
-11 -47 l-31 -65 -325 -3 -325 -2 0 45 c0 42 2 45 25 45 15 0 40 7 56 16 45
23 91 134 57 134 -10 0 -10 2 0 8 14 9 6 42 -12 54 -22 15 -58 7 -80 -17 -21
-23 -27 -24 -50 -14 -28 13 -58 -1 -51 -24 11 -36 13 -130 3 -184 l-11 -63
-606 -2 -606 -3 603 -2 602 -3 0 -44 c0 -25 4 -47 9 -50 20 -13 42 8 52 50
l11 44 319 0 c176 0 319 -2 319 -5 0 -3 -9 -24 -21 -46 -20 -40 -28 -93 -16
-105 12 -12 37 6 37 25 0 12 12 45 27 76 l27 55 528 0 529 0 -16 -30 c-15 -30
-20 -117 -7 -135 19 -28 75 -55 131 -64 67 -11 86 -8 95 15 7 18 -1 21 -79 28
-83 9 -110 31 -109 88 0 27 7 54 20 71 l19 26 1343 1 c739 0 1342 -3 1340 -7
-38 -75 -54 -138 -37 -149 13 -8 39 15 39 35 0 9 11 40 25 69 l24 52 938 2
938 3 -933 2 -933 3 12 23 c7 12 45 73 86 136 50 76 71 117 64 124 -17 17 -37
0 -82 -72 -24 -38 -47 -70 -50 -71 -4 0 -10 12 -13 28 -22 89 -53 132 -78 107
-2 -3 10 -46 27 -97 l32 -91 -24 -44 -25 -43 -1339 0 c-736 0 -1339 1 -1339 3
0 2 20 42 45 90 45 87 53 119 36 145 -5 9 0 22 15 37 19 19 24 35 24 78 0 30
-7 74 -15 97 -23 65 -19 77 41 141 55 57 58 59 97 52 37 -6 40 -5 35 15 l-6
22 234 0 234 0 0 -44 c0 -74 44 -74 80 -1 l22 45 941 0 c794 0 953 -3 1012
-15 89 -19 112 -19 123 0 11 21 159 18 155 -2 -4 -18 26 -16 33 2 5 13 100 15
753 17 l746 3 -745 5 -745 5 -7 65 c-4 36 -10 85 -13 109 l-7 44 55 -7 c37 -5
57 -4 62 4 12 19 -8 30 -63 37 l-52 6 0 121 c0 82 -4 126 -12 134 -13 13 -22
15 -30 6z m-2129 -289 c5 -28 -26 -79 -61 -100 -30 -17 -31 -17 -45 1 -18 25
-9 71 19 101 28 30 81 29 87 -2z m-2636 -705 c-16 -53 -28 -70 -54 -79 -16 -5
-31 -6 -33 -2 -7 11 36 94 59 113 19 15 20 15 26 0 3 -9 4 -24 2 -32z"/>
<path d="M9925 6868 c24 -135 20 -268 -11 -326 -7 -15 -14 -23 -14 -18 0 4 -8
-2 -18 -15 l-19 -22 -7 26 c-3 15 0 45 8 68 16 45 14 59 -9 59 -36 0 -56 -99
-33 -162 18 -49 47 -47 95 8 59 66 68 99 66 229 -2 144 -11 189 -42 193 -23 4
-24 2 -16 -40z"/>
<path d="M12734 6883 c-3 -15 -9 -42 -14 -59 -4 -17 -5 -74 -2 -127 6 -112 11
-106 -100 -116 -64 -5 -73 -8 -73 -26 0 -19 5 -20 84 -16 l83 3 -3 -53 c-4
-49 -2 -54 16 -54 17 0 20 8 23 57 3 65 -4 60 112 75 47 6 65 12 65 23 0 12
-16 15 -83 15 l-84 -1 6 121 c2 66 6 133 8 150 4 41 -29 48 -38 8z"/>
<path d="M15281 6887 c-15 -19 -7 -403 10 -423 27 -33 31 -10 29 189 -2 111
-1 211 1 222 5 24 -23 32 -40 12z"/>
<path d="M14639 6863 c-1 -5 0 -71 1 -148 1 -104 -2 -151 -14 -184 -27 -80 6
-85 55 -8 l34 52 3 -52 c3 -51 24 -85 42 -67 5 5 6 43 2 84 -6 68 -9 75 -30
78 -13 2 -28 -1 -35 -6 -9 -8 -13 18 -14 110 -3 113 -11 148 -34 148 -5 0 -10
-3 -10 -7z"/>
<path d="M12210 6749 c-13 -24 -7 -49 13 -49 22 0 39 27 32 50 -8 26 -31 26
-45 -1z"/>
<path d="M9387 6710 c-57 -45 -103 -160 -85 -211 15 -44 73 -60 137 -38 27 10
32 15 27 34 -4 15 -1 25 9 29 8 3 15 12 15 21 0 20 -40 20 -66 0 -18 -14 -18
-16 -1 -29 16 -13 15 -14 -15 -19 -18 -2 -41 0 -51 5 -25 13 -19 61 8 67 11 2
43 19 72 37 65 42 71 71 19 103 -41 26 -38 25 -69 1z m50 -46 c2 -6 -13 -18
-33 -27 l-36 -17 22 30 c21 30 40 35 47 14z"/>
<path d="M14433 6705 c-45 -19 -43 -48 7 -115 22 -29 40 -62 40 -72 0 -26 -24
-32 -52 -14 -29 19 -48 9 -38 -20 11 -29 59 -48 91 -36 31 12 53 53 46 84 -4
14 -22 45 -42 71 -19 25 -35 51 -35 56 0 7 23 11 55 11 42 0 55 4 55 15 0 34
-70 45 -127 20z"/>
<path d="M9580 6661 c-5 -11 -10 -33 -10 -48 0 -16 -7 -55 -15 -88 -12 -44
-13 -60 -4 -66 16 -10 39 0 39 17 0 7 15 34 33 60 l32 46 5 -50 c6 -55 23 -82
52 -82 27 0 34 28 12 45 -16 11 -19 27 -19 87 0 63 -3 73 -18 76 -11 2 -30 -6
-43 -19 l-24 -22 0 31 c0 37 -23 44 -40 13z"/>
<path d="M11532 6647 c-34 -36 -27 -68 24 -130 33 -39 31 -57 -5 -57 -20 0
-35 8 -48 25 -13 17 -22 22 -32 16 -12 -8 -12 -14 -2 -39 22 -53 98 -66 144
-25 25 23 21 46 -18 97 -19 26 -35 55 -35 65 0 24 25 34 40 15 14 -16 36 -19
44 -5 3 5 -4 20 -15 35 -26 33 -68 34 -97 3z"/>
<path d="M11982 6647 c-29 -34 -40 -156 -16 -164 23 -8 43 26 37 61 -3 18 0
43 7 55 10 19 17 22 50 16 43 -7 58 5 34 29 -19 19 -97 22 -112 3z"/>
<path d="M10528 6623 c-14 -16 -32 -47 -39 -70 -10 -36 -10 -46 5 -68 19 -29
52 -33 101 -10 52 25 68 80 40 134 -25 49 -68 55 -107 14z m72 -69 c0 -24 -14
-38 -49 -49 -23 -7 -24 -6 -18 30 3 21 14 46 23 56 16 18 18 18 30 1 7 -9 14
-27 14 -38z"/>
<path d="M15105 6630 c-3 -5 -3 -22 0 -37 l6 -28 -16 28 c-19 33 -59 37 -75 6
-13 -24 -12 -26 15 -31 11 -1 26 -16 35 -32 19 -38 34 -42 59 -17 31 31 27
121 -4 121 -8 0 -16 -4 -20 -10z"/>
<path d="M12374 6610 c-26 -10 -114 -108 -114 -126 0 -23 31 -30 43 -9 20 37
80 95 97 95 25 0 32 -27 21 -86 -10 -51 -3 -71 22 -61 13 5 27 68 27 122 0 46
-53 82 -96 65z"/>
<path d="M14872 6598 c-11 -13 -25 -35 -31 -50 -27 -71 51 -127 110 -79 21 17
22 21 11 58 -12 40 -47 93 -61 93 -4 0 -17 -10 -29 -22z m48 -85 c0 -7 -9 -13
-20 -13 -21 0 -25 15 -13 46 6 16 7 16 20 -2 7 -10 13 -24 13 -31z"/>
<path d="M12137 6534 c-10 -11 -8 -56 2 -50 5 4 11 0 14 -6 8 -22 29 7 25 33
-3 23 -27 37 -41 23z"/>
<path d="M13067 6256 c-4 -9 -1 -18 5 -22 11 -7 6 -76 -13 -162 l-10 -49 -57
-9 c-47 -7 -57 -12 -57 -29 0 -17 6 -19 47 -16 l48 2 -7 -48 c-11 -76 -10 -98
7 -98 16 0 23 19 40 106 l11 55 52 10 c47 8 52 12 55 37 2 19 -1 27 -12 27 -8
0 -17 -4 -20 -9 -3 -5 -17 -11 -32 -14 -26 -5 -26 -4 -18 42 5 25 9 78 9 116
0 64 -2 70 -21 73 -12 2 -24 -4 -27 -12z"/>
<path d="M8165 6239 c-4 -11 -2 -58 5 -104 10 -70 9 -101 -5 -199 -11 -76 -14
-121 -7 -129 5 -7 12 -24 16 -38 21 -91 188 15 203 129 4 32 1 44 -16 61 -29
29 -52 26 -103 -12 l-43 -33 -1 150 c0 86 4 154 9 157 17 12 -2 39 -27 39 -16
0 -27 -7 -31 -21z m165 -340 c0 -24 -11 -42 -44 -75 -46 -46 -86 -61 -66 -25
5 11 7 27 4 36 -4 10 7 29 35 55 51 49 71 51 71 9z"/>
<path d="M10494 6237 c-3 -13 -1 -59 5 -103 6 -44 12 -122 14 -174 1 -80 -1
-101 -18 -129 -27 -46 -39 -48 -75 -13 -37 37 -38 65 -4 98 23 24 26 25 43 10
16 -15 20 -15 30 -2 15 18 6 52 -15 60 -23 9 -78 -18 -102 -49 -54 -68 2 -183
89 -185 54 0 99 83 99 182 0 61 -15 208 -25 256 -4 15 -1 22 9 22 21 0 30 19
16 35 -20 24 -59 19 -66 -8z"/>
<path d="M13524 6225 c-4 -8 -4 -25 -1 -36 3 -12 -1 -76 -9 -143 -30 -257 -30
-238 -3 -234 20 3 24 9 26 48 1 25 9 95 17 155 19 136 20 197 4 213 -16 16
-27 15 -34 -3z"/>
<path d="M14330 6205 c0 -9 -16 -65 -36 -125 l-35 -107 -70 -13 c-44 -7 -73
-18 -76 -27 -9 -24 13 -30 67 -19 27 5 52 7 55 5 3 -3 -3 -28 -12 -55 -16 -48
-40 -77 -55 -68 -5 3 -8 -2 -8 -10 0 -18 34 -39 58 -34 11 2 25 31 43 88 l27
85 47 3 47 3 -7 -50 c-6 -41 -4 -52 13 -69 17 -17 26 -19 68 -11 81 15 104 53
64 109 -11 15 -17 30 -13 33 3 4 0 13 -7 22 -9 11 -34 15 -101 15 -49 0 -89 2
-89 5 0 3 14 46 30 96 17 51 30 102 28 113 -4 25 -38 35 -38 11z m154 -324
c19 -21 15 -26 -31 -36 -28 -6 -33 -4 -33 12 0 21 18 43 35 43 7 0 20 -9 29
-19z"/>
<path d="M9421 6178 c-11 -30 -38 -187 -55 -318 -12 -92 -12 -107 1 -120 13
-13 16 -13 28 3 7 11 11 25 8 32 -2 8 5 78 17 157 30 200 29 197 45 228 8 15
11 30 8 34 -14 14 -44 5 -52 -16z"/>
<path d="M8481 6013 c-43 -22 -71 -67 -71 -118 0 -77 51 -115 155 -115 36 0
65 4 65 10 0 5 6 7 14 4 8 -3 17 0 22 7 5 8 3 10 -6 4 -10 -6 -12 -4 -7 8 6
15 -3 17 -78 17 -96 0 -126 16 -124 68 1 16 3 20 6 10 7 -26 34 -22 87 14 57
37 65 53 40 78 -28 28 -64 32 -103 13z m59 -38 c0 -7 -63 -45 -74 -45 -5 0 1
11 14 25 20 22 60 35 60 20z"/>
<path d="M10145 6011 c-27 -16 -42 -31 -100 -103 -10 -12 -12 -32 -8 -70 10
-87 59 -114 156 -87 40 11 59 36 37 49 -7 4 -28 2 -46 -6 -45 -19 -68 -18 -87
4 -33 36 -22 59 37 77 96 30 145 103 94 139 -29 21 -46 20 -83 -3z m55 -39 c0
-13 -44 -48 -68 -54 -31 -8 -27 6 9 36 30 25 59 34 59 18z"/>
<path d="M13224 5978 c-44 -39 -64 -82 -64 -138 0 -57 42 -100 97 -100 78 0
159 38 134 63 -8 8 -21 7 -44 -1 -18 -7 -39 -12 -47 -12 -7 0 -19 -8 -27 -17
-8 -10 -12 -13 -8 -6 3 8 -4 15 -20 19 -27 7 -45 31 -45 62 0 17 9 20 61 24
46 3 65 9 76 24 27 38 -12 113 -59 114 -10 0 -34 -15 -54 -32z m73 -33 c7 -21
2 -25 -43 -32 l-39 -6 24 27 c28 29 49 33 58 11z"/>
<path d="M9559 5971 c-68 -36 -101 -127 -56 -155 14 -9 26 -6 57 10 l39 22 3
-37 c3 -39 19 -48 64 -37 16 4 24 14 24 27 0 17 -5 20 -25 17 -29 -6 -30 -1
-9 52 21 51 9 70 -31 52 -20 -9 -25 -17 -21 -35 3 -12 3 -16 0 -9 -8 16 -29
15 -44 -3 -7 -8 -19 -15 -26 -15 -26 0 12 56 51 74 36 17 46 40 21 49 -8 3
-29 -2 -47 -12z"/>
<path d="M11944 5971 c-95 -58 -109 -163 -27 -197 46 -20 113 -5 109 24 -3 14
-11 16 -45 14 -48 -4 -71 10 -71 45 0 32 50 81 89 89 21 5 31 12 31 25 0 25
-45 25 -86 0z"/>
<path d="M12493 5966 c-23 -29 -58 -149 -49 -172 9 -24 41 -12 44 16 2 14 10
49 18 77 12 44 19 54 42 59 54 12 63 16 59 27 -2 7 -24 13 -49 15 -39 3 -49
-1 -65 -22z"/>
<path d="M12720 5958 c-44 -30 -63 -75 -47 -109 14 -27 55 -36 87 -19 17 9 20
8 20 -9 0 -10 9 -29 19 -42 15 -19 22 -21 32 -12 9 9 9 18 -1 42 -7 17 -10 37
-6 46 17 45 -26 59 -74 23 -33 -24 -45 -20 -35 11 7 22 52 51 80 51 8 0 15 9
15 20 0 28 -47 27 -90 -2z"/>
<path d="M11445 5929 c-42 -37 -63 -95 -46 -128 14 -25 72 -29 91 -6 19 22 30
18 30 -11 0 -39 18 -64 45 -64 26 0 34 23 14 36 -8 4 -9 28 -5 70 8 78 -2 82
-74 29 -26 -19 -50 -35 -54 -35 -17 0 -2 45 23 71 32 32 51 36 81 17 15 -10
22 -10 32 0 20 20 -18 52 -63 52 -29 0 -47 -8 -74 -31z"/>
<path d="M11742 5938 c-30 -33 -52 -79 -52 -110 0 -34 53 -80 88 -76 38 5 38
25 -1 42 -19 7 -38 19 -41 25 -10 16 23 80 50 98 13 8 24 22 24 29 0 22 -44
16 -68 -8z"/>
<path d="M12196 5945 c-3 -9 -6 -34 -6 -55 0 -53 32 -90 85 -96 35 -5 44 -2
68 24 36 38 47 101 22 126 -27 26 -40 14 -40 -39 0 -57 -18 -75 -62 -59 -26 9
-28 14 -28 59 0 38 -4 50 -16 53 -9 2 -19 -4 -23 -13z"/>
<path d="M13767 5653 c-13 -12 -7 -43 8 -43 9 0 33 -9 54 -19 45 -23 64 -63
65 -133 1 -43 -3 -53 -30 -76 -17 -15 -45 -35 -63 -44 -32 -18 -51 -52 -51
-93 0 -27 26 -45 64 -45 33 0 33 -13 0 -35 -24 -16 -26 -21 -21 -69 3 -28 8
-59 12 -68 7 -17 -93 -18 -2016 -18 l-2024 1 39 20 c51 28 124 102 142 146 20
47 11 98 -21 119 -37 24 -87 11 -137 -36 -23 -22 -47 -40 -55 -40 -13 0 -16
-9 -14 -45 0 -11 -7 -51 -17 -90 l-18 -70 -900 -5 -899 -5 898 -3 c493 -1 897
-4 897 -6 0 -5 -45 -135 -55 -158 -10 -26 24 -37 41 -13 7 10 25 53 39 96 l27
79 2040 0 2040 0 -7 -27 c-9 -38 -50 -96 -97 -138 -44 -40 -58 -43 -83 -15
-10 11 -24 20 -32 20 -20 0 -16 -37 7 -60 35 -35 83 -27 136 22 57 52 100 113
111 159 l9 34 855 5 854 5 -856 3 -856 2 -7 33 c-3 17 -9 44 -12 59 -5 22 -2
27 17 30 20 2 25 10 27 41 4 46 -11 67 -49 67 -15 0 -30 4 -33 8 -9 15 24 51
64 72 21 11 48 36 60 55 19 31 22 46 17 100 -6 79 -31 124 -82 149 -88 42 -78
39 -88 29z m-3857 -432 c-1 -26 -10 -46 -33 -73 -30 -34 -101 -88 -117 -88 -4
0 -6 21 -3 46 4 56 48 124 94 147 44 21 59 12 59 -32z"/>
<path d="M8477 5593 c-4 -3 -7 -21 -7 -40 0 -36 -56 -220 -73 -241 -7 -9 -27
-12 -56 -10 -40 3 -46 1 -46 -17 0 -17 8 -20 48 -23 41 -3 47 -6 42 -21 -11
-35 -21 -151 -14 -162 4 -7 13 -9 21 -7 9 4 19 38 27 100 l13 95 57 18 c102
34 131 47 131 60 0 21 -16 26 -47 14 -15 -6 -29 -10 -30 -10 -2 0 -21 -6 -44
-14 -23 -8 -43 -15 -44 -15 -2 0 8 34 21 75 25 79 45 185 37 198 -5 9 -27 9
-36 0z"/>
<path d="M8700 5473 c-7 -32 -27 -111 -46 -176 -19 -65 -34 -127 -34 -138 0
-33 31 -21 87 32 30 28 56 49 59 46 3 -2 -5 -28 -16 -57 -23 -57 -23 -105 -2
-105 12 0 37 57 65 148 9 31 9 40 -5 53 -21 21 -61 12 -94 -21 -14 -14 -27
-25 -29 -25 -2 0 5 30 15 68 44 155 58 217 54 224 -3 4 -13 8 -23 8 -14 0 -21
-14 -31 -57z"/>
<path d="M12850 5385 c-13 -15 -7 -45 8 -45 16 0 34 29 28 45 -7 19 -20 19
-36 0z"/>
<path d="M10115 5350 c-9 -14 14 -52 28 -47 7 2 13 16 15 30 3 21 -1 27 -17
27 -11 0 -23 -4 -26 -10z"/>
<path d="M12324 5326 c-19 -19 -34 -41 -34 -50 0 -10 -8 -16 -21 -16 -19 0
-20 -5 -18 -62 2 -74 12 -98 41 -98 19 0 20 4 15 44 -8 55 16 129 49 155 20
16 30 18 60 9 40 -10 61 0 51 25 -5 14 -49 27 -89 27 -11 0 -35 -15 -54 -34z"/>
<path d="M11757 5310 c-30 -24 -55 -133 -36 -157 8 -9 8 -13 1 -13 -6 0 -14
-9 -17 -20 -11 -33 -23 -23 -31 25 -3 25 -9 45 -13 45 -3 0 -5 20 -3 45 4 43
3 45 -22 45 -31 0 -31 -4 -11 -113 15 -85 34 -117 71 -117 32 0 51 34 59 105
4 33 11 75 17 93 9 31 31 42 43 22 9 -15 45 -12 45 4 0 16 -46 56 -65 56 -7 0
-24 -9 -38 -20z"/>
<path d="M12559 5304 c-86 -26 -89 -56 -9 -105 48 -29 61 -51 40 -64 -5 -3
-22 5 -36 19 -24 22 -54 26 -54 6 0 -13 54 -69 70 -71 47 -8 86 42 69 88 -4
12 -27 35 -50 50 l-42 28 39 11 c27 7 39 16 39 29 0 25 -12 26 -66 9z"/>
<path d="M8932 5290 c-37 -23 -72 -75 -72 -108 0 -37 27 -78 59 -92 58 -23
205 13 207 51 1 27 -7 27 -61 3 -64 -28 -102 -30 -133 -8 -29 20 -28 30 7 37
37 8 91 53 91 77 0 16 -43 60 -59 60 -3 0 -21 -9 -39 -20z m48 -40 c0 -5 -13
-16 -30 -25 -35 -18 -41 -4 -8 19 26 18 38 20 38 6z"/>
<path d="M11946 5263 c-61 -53 -68 -75 -42 -138 12 -27 23 -36 58 -45 73 -20
188 1 188 35 0 11 -17 13 -90 8 -65 -4 -94 -2 -105 7 -19 16 -20 50 0 50 27 0
105 42 116 62 8 14 6 25 -6 44 -24 37 -56 30 -119 -23z m64 -18 c-7 -9 -15
-13 -17 -11 -7 7 7 26 19 26 6 0 6 -6 -2 -15z"/>
<path d="M10254 5271 c-42 -25 -78 -85 -70 -115 7 -29 43 -38 85 -20 17 7 31
9 31 4 0 -6 7 -10 17 -10 15 0 15 -2 -1 -19 -11 -12 -15 -27 -12 -39 7 -22 32
-36 47 -26 12 7 11 44 -1 44 -6 0 -10 30 -10 69 0 39 5 73 10 76 17 11 11 24
-20 40 -37 19 -39 19 -76 -4z m56 -40 c0 -5 -14 -21 -31 -35 -50 -43 -68 -30
-24 18 23 25 55 35 55 17z"/>
<path d="M13007 5270 c-3 -11 -1 -22 3 -25 5 -3 -5 -18 -21 -34 -33 -33 -36
-56 -13 -89 24 -35 59 -44 100 -27 40 16 53 44 46 98 -3 30 -11 41 -36 54 -17
8 -35 22 -39 29 -12 20 -34 17 -40 -6z m69 -96 c7 -28 -7 -44 -39 -44 -26 0
-32 28 -12 50 25 27 43 25 51 -6z"/>
<path d="M10446 5199 c-34 -63 -37 -73 -23 -86 13 -14 21 -9 73 46 31 33 61
61 65 61 16 0 9 -32 -8 -45 -16 -12 -16 -16 -3 -39 21 -39 43 -28 57 27 19 78
-7 116 -64 95 -14 -4 -23 -4 -23 2 0 6 -8 10 -17 10 -12 0 -32 -25 -57 -71z"/>
<path d="M10691 5236 c-24 -38 -26 -67 -9 -99 18 -35 40 -46 91 -47 41 0 53 5
78 29 38 38 39 87 4 125 -21 22 -32 26 -84 26 -57 0 -60 -2 -80 -34z m133 -25
c38 -42 -23 -98 -80 -72 -27 12 -34 57 -12 79 18 18 73 14 92 -7z"/>
<path d="M13325 5245 c-16 -9 -44 -27 -62 -41 l-32 -24 -3 27 c-2 20 -9 28
-23 28 -17 0 -21 -9 -26 -51 -4 -27 -12 -66 -19 -86 -7 -19 -10 -43 -7 -52 11
-27 40 -14 49 21 9 36 104 126 151 142 28 10 29 9 22 -12 -16 -52 -17 -123 -2
-135 20 -17 54 13 37 33 -8 9 -8 26 0 57 7 25 10 58 8 74 -2 24 -8 29 -33 32
-16 1 -43 -5 -60 -13z"/>
<path d="M10090 5232 c0 -7 -5 -11 -11 -9 -13 3 -71 -152 -64 -171 3 -7 12
-12 21 -10 22 4 80 176 65 191 -8 8 -11 8 -11 -1z"/>
<path d="M12789 5209 c-12 -24 -6 -96 9 -111 18 -18 32 2 32 46 0 23 5 47 11
53 6 6 8 16 5 22 -12 18 -45 12 -57 -10z"/>
<path d="M8597 4798 c-19 -29 -47 -78 -63 -108 -16 -30 -32 -57 -35 -60 -3 -3
-36 -57 -74 -120 -38 -63 -75 -123 -83 -133 -11 -13 -13 -20 -4 -29 16 -16 39
-3 61 34 67 116 97 158 109 153 8 -3 38 -5 67 -5 l54 0 -1 -59 c-2 -68 17
-121 42 -121 25 0 30 20 13 47 -9 13 -13 41 -11 74 3 47 6 54 28 59 30 7 33
29 5 44 -11 6 -21 11 -22 11 -1 0 5 43 12 94 19 126 8 171 -41 171 -18 0 -33
-13 -57 -52z m53 -130 c-11 -74 -16 -87 -34 -92 -44 -12 -120 -2 -99 13 4 3
26 35 47 71 22 36 51 83 65 105 25 38 26 39 29 15 2 -14 -1 -64 -8 -112z"/>
<path d="M9089 4795 c-80 -41 -147 -135 -165 -230 -13 -70 44 -163 114 -186
83 -28 232 -9 232 31 0 27 -10 30 -41 15 -34 -18 -130 -19 -179 -2 -44 15 -80
68 -80 118 0 77 60 174 132 210 39 20 40 20 34 1 -16 -48 30 -92 62 -60 20 20
15 85 -8 108 -26 26 -44 25 -101 -5z"/>
<path d="M13193 4803 c-6 -2 -19 -57 -29 -124 -17 -114 -19 -120 -38 -113 -67
21 -134 -14 -156 -82 -14 -40 -8 -63 23 -92 65 -61 129 -27 171 91 14 39 30
104 36 142 16 109 21 125 36 125 8 0 14 8 14 18 0 20 -37 42 -57 35z m-75
-285 c16 -20 -27 -102 -56 -106 -53 -8 -70 51 -27 93 26 27 66 33 83 13z"/>
<path d="M15782 4798 c-7 -7 -12 -28 -12 -47 0 -50 -8 -58 -67 -66 -55 -7 -79
-25 -69 -50 6 -17 36 -21 36 -5 0 6 7 10 15 10 9 0 12 6 9 18 -5 15 -4 15 6
-1 8 -13 19 -17 35 -13 22 6 22 4 14 -34 -5 -21 -16 -55 -25 -74 -14 -29 -20
-33 -35 -23 -13 8 -21 8 -33 -2 -24 -20 -20 -41 8 -41 14 0 28 -4 31 -10 3 -5
13 -10 21 -10 18 0 72 109 80 163 6 37 7 37 53 37 55 0 76 11 67 35 -5 14 -16
16 -57 13 l-51 -3 4 54 c3 55 -7 72 -30 49z"/>
<path d="M14235 4768 c-2 -7 -20 -60 -41 -118 -20 -58 -43 -132 -51 -165 -9
-33 -19 -67 -23 -75 -10 -22 -1 -40 20 -40 24 0 40 22 34 46 -5 19 20 106 70
237 30 78 34 127 11 127 -9 0 -17 -6 -20 -12z"/>
<path d="M10902 4745 c-11 -14 -25 -25 -31 -25 -6 0 -11 -5 -11 -12 0 -6 -3
-8 -6 -5 -4 4 -20 -4 -37 -16 -17 -12 -49 -31 -71 -42 -23 -11 -41 -27 -41
-35 0 -26 54 -13 112 25 30 20 56 35 58 33 2 -2 -16 -50 -40 -108 -24 -58 -47
-122 -50 -142 -7 -37 -8 -38 -52 -38 -25 0 -61 7 -80 17 -30 14 -36 14 -44 2
-5 -8 -9 -18 -9 -22 0 -13 62 -35 110 -38 25 -2 54 -8 65 -15 16 -10 24 -10
39 1 13 10 33 12 62 8 39 -5 44 -4 44 14 0 22 -24 33 -73 33 -25 0 -27 3 -21
28 4 15 28 81 54 147 60 153 73 192 65 205 -10 16 -22 12 -43 -15z"/>
<path d="M11643 4754 c-7 -3 -13 -14 -13 -24 0 -21 26 -34 36 -18 6 9 188 3
206 -8 11 -7 -20 -115 -56 -199 -40 -89 -48 -159 -19 -153 10 2 21 20 28 48 7
25 22 68 35 95 29 64 60 163 60 193 0 21 3 22 95 22 76 0 95 3 95 14 0 8 -5
18 -12 22 -7 5 -8 3 -3 -7 8 -12 6 -12 -8 0 -13 11 -66 15 -225 17 -114 2
-213 1 -219 -2z"/>
<path d="M10037 4703 c-16 -15 -4 -32 43 -61 28 -17 53 -38 56 -47 4 -10 -9
-32 -34 -59 -46 -49 -59 -81 -42 -101 12 -14 44 -10 35 5 -5 9 42 76 74 104
41 37 27 75 -50 126 -59 41 -70 45 -82 33z"/>
<path d="M12363 4693 c-4 -10 -1 -19 6 -21 8 -3 9 -8 2 -15 -5 -7 -21 -58 -36
-114 l-26 -102 43 -45 c57 -61 85 -62 144 -2 54 54 61 102 18 135 -29 23 -83
28 -116 10 -19 -10 -20 -9 -14 12 19 65 29 127 23 142 -8 22 -36 22 -44 0z
m132 -232 c-3 -12 -22 -33 -41 -47 -27 -21 -37 -24 -49 -14 -38 31 -24 83 27
105 28 11 34 10 51 -5 13 -12 17 -25 12 -39z"/>
<path d="M13696 4615 c-13 -14 -40 -57 -60 -95 -21 -39 -40 -70 -43 -70 -3 0
-3 26 -1 58 3 51 1 57 -17 57 -17 0 -20 -8 -23 -60 -4 -69 11 -105 43 -105 27
0 41 16 72 81 33 72 61 109 84 109 21 0 25 20 7 38 -18 18 -37 14 -62 -13z"/>
<path d="M13919 4590 c-20 -11 -51 -38 -69 -60 -33 -41 -33 -42 -16 -76 17
-36 60 -62 99 -60 37 2 31 26 -12 43 -52 20 -52 37 -1 52 22 6 52 22 67 35 24
21 26 27 18 52 -13 36 -38 40 -86 14z m41 -34 c0 -2 -7 -7 -16 -10 -8 -3 -12
-2 -9 4 6 10 25 14 25 6z"/>
<path d="M15094 4591 c-18 -11 -35 -25 -39 -31 -5 -8 -12 -6 -26 6 -16 15 -22
15 -51 3 -18 -7 -42 -13 -53 -14 -14 0 -21 -8 -23 -27 -2 -16 -8 -28 -13 -28
-6 0 -7 -5 -4 -10 4 -6 1 -9 -6 -8 -14 3 -61 -61 -56 -76 9 -28 39 -12 92 49
32 36 61 65 65 65 5 0 6 -18 3 -40 -8 -56 9 -52 74 18 30 31 47 45 38 30 -32
-53 0 -132 39 -98 15 12 15 14 -1 32 -16 18 -15 21 15 64 41 57 42 84 5 84
-16 0 -42 -9 -59 -19z"/>
<path d="M9792 4579 c5 -36 69 -51 138 -33 62 16 64 18 56 39 -4 12 -14 14
-43 9 -51 -8 -92 -8 -126 1 -26 7 -28 5 -25 -16z"/>
<path d="M13319 4572 c-77 -49 -102 -118 -58 -158 28 -25 180 -27 205 -3 26
26 -2 38 -64 28 -57 -9 -108 -3 -118 13 -4 6 -1 21 6 34 10 18 16 21 26 13 20
-16 121 8 134 32 9 15 6 24 -14 44 -33 32 -62 32 -117 -3z m71 -22 c0 -5 -8
-10 -17 -10 -15 0 -16 2 -3 10 19 12 20 12 20 0z"/>
<path d="M15496 4575 c-63 -38 -94 -89 -62 -101 9 -3 31 11 55 35 62 62 75 54
44 -27 -12 -32 -13 -46 -5 -54 17 -17 31 0 54 64 24 69 17 108 -20 107 -15 0
-45 -11 -66 -24z"/>
<path d="M15330 4583 c-38 -14 -90 -82 -90 -117 0 -26 50 -76 76 -76 31 0 32
32 2 45 -13 6 -24 20 -26 32 -3 17 1 20 17 16 25 -6 66 19 73 44 11 43 -13 70
-52 56z"/>
<path d="M14644 4561 c-18 -11 -35 -25 -39 -31 -4 -6 -17 -15 -30 -20 -13 -5
-25 -21 -29 -37 -4 -15 -27 -69 -52 -120 l-45 -91 -82 4 c-45 3 -149 9 -232
14 -374 24 -866 33 -1119 21 -138 -6 -451 -16 -695 -21 -244 -5 -445 -11 -448
-13 -2 -2 0 -12 3 -22 7 -16 27 -17 298 -11 160 3 401 9 536 14 361 11 1159 7
1360 -7 96 -6 217 -14 267 -17 90 -6 93 -6 87 -29 -9 -37 23 -40 55 -6 l27 29
204 -15 c177 -12 1103 -27 1012 -16 -24 3 -32 8 -28 19 7 18 29 17 -364 20
-184 1 -436 9 -560 18 -124 9 -230 16 -237 16 -8 0 -2 28 18 82 29 82 39 102
39 80 0 -40 112 28 135 81 28 66 -16 97 -81 58z m32 -52 c-18 -27 -55 -53 -63
-45 -9 9 48 66 64 66 12 0 12 -4 -1 -21z"/>
<path d="M12043 4528 c-45 -50 -55 -95 -26 -123 13 -14 28 -16 65 -12 42 5 48
4 48 -12 0 -24 25 -45 45 -37 12 4 13 10 3 31 -9 20 -9 37 1 76 11 41 11 53
-1 67 -21 28 -31 32 -74 32 -29 0 -46 -6 -61 -22z m92 -28 c8 -13 -48 -70 -69
-70 -20 0 -20 29 0 58 16 23 58 30 69 12z"/>
<path d="M14334 4530 c-18 -12 -37 -34 -44 -50 -33 -79 88 -131 150 -64 20 20
21 27 11 55 -14 40 -49 79 -70 79 -9 0 -30 -9 -47 -20z m66 -51 c17 -30 5 -49
-30 -49 -41 0 -51 27 -21 52 30 23 38 23 51 -3z"/>
<path d="M11138 4409 c-24 -14 -23 -49 1 -49 24 0 45 25 37 45 -6 17 -14 18
-38 4z"/>
<path d="M11451 4266 c-7 -8 -10 -19 -7 -24 3 -5 98 -10 211 -11 198 -2 205
-2 205 17 0 19 -7 20 -112 21 -62 0 -152 3 -199 6 -69 5 -88 3 -98 -9z"/>
<path d="M15710 4211 c0 -5 11 -8 24 -7 13 0 22 4 19 9 -6 10 -43 9 -43 -2z"/>
<path d="M9193 4181 c-49 -35 -76 -78 -108 -168 -13 -37 -24 -62 -24 -55 -1
17 -26 15 -42 -4 -11 -14 -10 -19 9 -35 25 -20 25 -25 1 -162 -9 -51 -9 -73 0
-93 26 -59 57 -4 73 134 l12 100 52 22 c60 24 133 84 163 134 28 44 28 109 1
136 -30 30 -88 26 -137 -9z m110 -32 c25 -40 -31 -120 -117 -170 -28 -16 -58
-29 -66 -29 -10 0 -11 3 -4 8 6 4 21 39 33 77 24 80 34 95 76 118 36 20 64 18
78 -4z"/>
<path d="M11672 4113 c-6 -10 -6 -29 -1 -47 14 -50 10 -125 -11 -215 -21 -85
-19 -121 4 -121 21 0 56 171 56 267 0 111 -22 164 -48 116z"/>
<path d="M10007 4105 c-4 -8 -1 -26 5 -40 9 -19 8 -42 -3 -97 -7 -40 -13 -76
-12 -80 2 -3 -16 -9 -38 -13 -50 -9 -52 -38 -3 -43 26 -3 33 -9 37 -31 3 -15
4 -37 1 -48 -4 -13 0 -23 12 -27 24 -9 34 10 34 67 l0 47 39 0 c33 0 40 -4 49
-27 6 -16 13 -43 14 -62 4 -42 24 -51 39 -18 9 20 8 37 -6 81 -22 70 -34 80
-90 74 -52 -6 -51 -8 -31 87 10 47 10 68 1 100 -13 41 -38 58 -48 30z"/>
<path d="M12484 4075 c-7 -18 3 -35 21 -35 21 0 28 19 15 35 -16 19 -29 19
-36 0z"/>
<path d="M10822 4068 c-8 -8 -12 -60 -12 -171 0 -154 7 -197 33 -197 9 0 12
47 12 187 0 184 -5 209 -33 181z"/>
<path d="M8408 4029 c-69 -33 -86 -52 -67 -75 16 -19 36 -17 48 5 12 22 107
65 127 57 8 -3 14 -12 14 -20 0 -26 -151 -212 -163 -200 -9 10 -106 -107 -100
-121 9 -26 30 -17 90 39 l58 54 -3 -39 c-4 -42 18 -89 42 -89 21 0 25 22 9 47
-12 18 -13 29 -3 57 6 20 9 45 5 55 -4 14 7 36 40 77 69 84 85 134 56 163 -29
29 -74 26 -153 -10z"/>
<path d="M10233 4019 c-16 -16 -5 -39 19 -39 14 0 19 6 16 22 -4 25 -19 33
-35 17z"/>
<path d="M11868 3953 c-20 -21 -39 -48 -43 -61 -13 -45 39 -69 81 -37 24 18
34 19 34 0 0 -43 42 -87 64 -65 7 7 6 10 -1 10 -7 0 -12 8 -13 18 -3 75 -11
116 -22 123 -7 5 -9 9 -5 9 4 0 3 9 -3 20 -17 31 -52 24 -92 -17z m49 -38
c-37 -33 -57 -32 -27 0 13 14 31 25 39 25 11 -1 8 -8 -12 -25z"/>
<path d="M12073 3973 c-20 -7 -15 -74 7 -110 21 -34 55 -58 70 -48 16 10 12
-1 -19 -64 l-30 -58 -163 -6 c-90 -4 -212 -11 -273 -16 -60 -5 -155 -12 -211
-15 l-101 -6 1 48 c1 44 3 48 23 44 29 -5 106 40 133 78 28 40 24 87 -11 112
-24 18 -29 18 -60 5 -19 -8 -51 -33 -71 -56 -31 -34 -38 -37 -38 -21 0 24 -26
38 -42 22 -8 -8 -8 -23 0 -54 9 -37 8 -55 -9 -110 l-20 -67 -52 -6 c-162 -18
-639 -25 -1907 -27 -1290 -3 -1341 -3 -580 -8 570 -3 784 -7 675 -12 -88 -5
-213 -8 -277 -8 -103 0 -118 -2 -127 -18 -13 -24 2 -47 25 -38 10 4 92 9 182
12 90 2 168 6 172 9 4 3 39 5 76 6 39 1 72 6 76 13 6 8 8 7 8 -1 0 -8 14 -13
36 -13 19 0 33 4 30 9 -3 5 1 12 10 15 11 4 15 2 11 -7 -9 -25 531 -35 848
-17 332 20 711 40 746 40 28 0 38 -5 42 -20 7 -28 43 -25 63 5 l16 25 367 0
368 0 -5 -29 c-2 -16 1 -31 6 -35 14 -9 42 21 42 45 0 18 12 19 421 19 370 0
420 -2 409 -15 -6 -8 -12 -30 -13 -49 -1 -49 26 -76 76 -76 49 0 102 48 112
102 l7 36 1216 2 c669 0 1218 3 1221 5 2 3 -391 5 -874 5 -730 0 -880 2 -889
14 -22 27 -365 65 -596 66 l-85 0 -23 60 c-18 44 -23 75 -20 118 2 44 0 57
-11 57 -8 0 -18 -8 -22 -17 -5 -10 -13 -26 -18 -35 -9 -20 -34 -28 -58 -19
-13 5 -13 9 -2 22 7 9 24 20 37 25 13 5 22 15 20 22 -8 22 -49 20 -75 -5 -40
-37 -47 -56 -28 -84 12 -19 24 -24 60 -24 38 0 47 -4 54 -22 5 -13 16 -39 24
-58 l15 -35 -416 -2 c-230 -1 -436 -5 -460 -8 l-42 -6 55 113 c31 62 54 122
53 133 -5 36 -32 27 -71 -25 -20 -27 -42 -50 -48 -50 -14 0 -40 65 -33 83 6
16 -16 36 -33 30z m-587 -87 c8 -22 -21 -60 -65 -84 -33 -19 -40 -20 -50 -8
-10 12 -4 23 32 60 44 47 73 58 83 32z m1504 -226 c36 -4 56 -8 45 -9 -11 0
-33 -8 -49 -16 -24 -13 -95 -15 -447 -15 -281 0 -419 3 -419 10 0 6 6 13 13
15 13 6 510 22 682 22 61 0 139 -3 175 -7z m208 -7 c-16 -2 -40 -2 -55 0 -16
2 -3 4 27 4 30 0 43 -2 28 -4z m-1124 -18 c-5 -13 -38 -15 -213 -14 -113 1
-199 3 -191 5 15 5 262 20 357 23 43 1 51 -2 47 -14z m1521 -4 c27 -6 -18 -8
-139 -7 -145 1 -180 4 -184 15 -4 12 18 13 139 7 79 -4 162 -11 184 -15z
m-3327 -28 c-131 -2 -345 -2 -475 0 -131 1 -24 2 237 2 261 0 368 -1 238 -2z
m2807 -15 c-12 -40 -34 -67 -60 -74 -31 -8 -45 2 -45 30 0 35 39 64 88 65 20
1 22 -3 17 -21z"/>
<path d="M12467 3964 c-10 -10 -8 -136 2 -153 5 -8 16 -11 24 -8 21 8 17 161
-4 165 -8 1 -18 0 -22 -4z"/>
<path d="M12683 3948 c-13 -6 -34 -34 -47 -62 -33 -70 -36 -90 -11 -94 16 -2
24 8 40 49 22 57 47 81 66 62 16 -16 28 -90 17 -101 -15 -15 -5 -56 13 -60 20
-4 29 25 29 95 0 63 -14 97 -47 112 -28 13 -31 13 -60 -1z"/>
<path d="M9273 3896 c-47 -40 -70 -149 -38 -176 13 -11 21 -8 45 15 37 35 40
59 6 53 -25 -5 -26 0 -8 45 13 32 38 45 55 28 15 -15 47 -14 47 1 0 15 -49 58
-66 58 -7 0 -26 -11 -41 -24z"/>
<path d="M10322 3884 c-30 -30 -34 -39 -28 -67 10 -49 37 -70 100 -75 52 -4
56 -3 56 17 0 11 -4 21 -10 21 -5 0 -10 -6 -10 -12 0 -9 -3 -9 -8 -2 -4 5 -23
15 -42 20 -59 16 -51 84 11 84 32 0 46 15 30 34 -20 24 -63 16 -99 -20z"/>
<path d="M9738 3864 c-75 -40 -57 -133 30 -150 41 -8 79 2 79 20 0 8 -4 13 -9
10 -4 -3 -8 0 -8 5 0 6 -15 11 -33 11 -68 0 -86 48 -26 69 33 11 37 26 11 40
-12 6 -26 5 -44 -5z"/>
<path d="M10551 3866 c-22 -26 -5 -66 29 -73 17 -3 30 -9 30 -14 0 -15 40 -50
50 -44 16 10 11 35 -12 68 -13 17 -28 41 -33 52 -13 25 -48 31 -64 11z"/>
<path d="M9508 3859 c-51 -29 -41 -96 13 -85 24 4 29 2 29 -13 0 -23 25 -45
41 -35 8 5 9 3 4 -6 -5 -8 -3 -11 5 -8 7 2 17 14 21 26 7 18 5 22 -13 22 -17
0 -20 4 -15 30 8 36 0 60 -19 60 -8 0 -14 5 -14 10 0 13 -30 12 -52 -1z"/>
<path d="M8623 3743 c-20 -8 -15 -41 7 -48 25 -8 50 10 50 36 0 19 -27 25 -57
12z"/>
<path d="M14047 3523 c-4 -3 -7 -18 -7 -33 0 -14 -9 -51 -20 -83 -11 -31 -20
-66 -20 -77 0 -11 -3 -20 -7 -20 -15 0 -138 -21 -155 -26 -18 -5 -24 -34 -12
-47 4 -3 14 -2 23 3 9 5 45 12 80 16 l63 7 -7 -54 c-4 -30 -13 -66 -21 -80
-11 -22 -11 -29 -1 -37 29 -24 55 24 64 113 l6 65 59 0 c44 0 60 4 65 15 7 21
-1 28 -37 30 -80 4 -78 4 -73 28 3 12 14 51 24 86 24 80 24 101 1 101 -10 0
-22 -3 -25 -7z m-197 -263 c0 -5 -2 -10 -4 -10 -3 0 -8 5 -11 10 -3 6 -1 10 4
10 6 0 11 -4 11 -10z"/>
<path d="M11997 3444 c-4 -4 -4 -17 -1 -30 9 -33 -15 -134 -31 -134 -7 0 -21
-7 -30 -16 -20 -20 -3 -44 25 -37 19 5 20 0 20 -76 0 -58 4 -81 13 -81 8 0 7
-3 -3 -10 -18 -11 -8 -23 14 -14 13 5 16 23 16 105 l0 99 69 0 c52 0 70 4 75
15 8 22 -22 33 -81 30 l-52 -2 6 79 c6 73 5 78 -14 78 -11 0 -23 -3 -26 -6z"/>
<path d="M12316 3438 c-2 -7 -9 -51 -16 -98 -6 -46 -18 -103 -25 -125 -8 -22
-17 -66 -21 -98 -6 -54 -6 -57 15 -57 11 0 22 6 23 13 0 6 2 17 3 22 2 6 3 20
4 32 2 37 76 67 149 60 33 -2 73 -11 88 -19 27 -12 29 -18 29 -70 0 -31 3 -60
7 -64 15 -14 35 17 42 63 10 72 -18 103 -113 128 l-44 11 71 33 c76 35 90 47
74 63 -12 12 -55 1 -47 -13 3 -5 -1 -6 -9 -3 -9 3 -53 -15 -100 -40 -100 -55
-121 -58 -112 -18 3 15 9 64 12 110 6 73 5 82 -10 82 -9 0 -18 -6 -20 -12z"/>
<path d="M8515 3414 c-38 -15 -87 -26 -107 -25 -31 0 -38 -3 -38 -18 0 -46 40
-48 130 -7 25 11 50 21 55 22 6 1 24 5 40 8 29 5 29 4 10 -10 -11 -9 -55 -33
-97 -55 -110 -55 -105 -82 15 -85 82 -2 98 -13 77 -51 -24 -41 -64 -65 -120
-71 -39 -4 -55 -1 -70 13 -16 15 -22 15 -35 5 -24 -20 -18 -39 20 -57 30 -14
44 -15 95 -5 34 6 77 21 96 32 33 21 74 83 74 113 0 29 -35 57 -79 65 l-44 7
29 15 c54 27 112 69 118 86 19 49 -61 57 -169 18z"/>
<path d="M11143 3413 c3 -15 11 -50 17 -76 17 -69 6 -127 -33 -172 -29 -34
-35 -37 -55 -26 -27 15 -28 42 -2 66 16 14 23 16 32 7 18 -18 48 -15 48 4 0
23 -29 43 -61 44 -39 0 -93 -63 -84 -99 7 -29 58 -81 80 -81 26 0 93 70 110
113 12 31 15 68 12 142 l-3 100 -33 3 c-32 3 -33 2 -28 -25z"/>
<path d="M13360 3320 c-8 -14 -5 -34 11 -81 l21 -61 -21 -21 c-18 -19 -21 -19
-21 -4 0 10 -7 17 -17 16 -11 0 -13 -3 -5 -6 6 -2 12 -12 12 -20 0 -13 -3 -13
-16 -2 -13 10 -17 10 -25 -2 -13 -21 -11 -35 7 -50 13 -11 23 -9 61 11 24 13
51 37 59 53 15 27 14 33 -5 80 -12 27 -19 52 -17 55 3 2 18 -4 35 -14 24 -14
34 -15 43 -6 17 17 -15 49 -61 62 -48 13 -49 13 -61 -10z"/>
<path d="M9687 3301 c-49 -59 -43 -236 8 -236 19 0 20 7 20 105 l0 105 27 3
c21 3 30 -3 43 -28 14 -27 17 -29 31 -15 20 19 11 48 -23 75 -37 29 -76 26
-106 -9z"/>
<path d="M14265 3244 c-27 -36 -64 -76 -82 -90 -18 -14 -33 -31 -33 -39 0 -25
25 -22 61 6 l37 29 5 -30 c12 -56 78 -63 136 -14 28 24 29 24 34 3 7 -27 43
-22 39 6 -1 11 -3 41 -2 68 0 40 -3 47 -20 47 -13 0 -25 -12 -34 -33 -24 -59
-96 -99 -110 -61 -6 15 27 108 46 129 4 5 8 17 8 27 0 37 -36 17 -85 -48z"/>
<path d="M11682 3270 c-17 -16 -36 -46 -42 -66 -11 -32 -10 -39 7 -63 25 -32
91 -41 128 -17 24 16 24 15 30 -22 4 -20 9 -44 12 -52 10 -27 9 -65 -1 -76 -8
-8 -161 -10 -562 -6 -548 5 -1025 -8 -1032 -29 -2 -5 -10 -9 -18 -9 -9 0 -12
5 -9 10 4 7 -6 10 -29 8 -19 -1 -38 0 -41 3 -3 3 6 31 21 62 35 77 17 121 -36
87 -12 -8 -13 -13 -3 -29 9 -15 8 -26 -9 -57 -11 -22 -25 -44 -31 -51 -14 -14
-65 -17 -126 -7 -32 5 -42 4 -37 -4 9 -15 -6 -16 -20 -2 -6 6 -74 13 -152 17
-121 5 -142 9 -142 22 0 9 -11 60 -25 113 -14 54 -22 104 -19 113 3 8 4 25 0
38 -5 21 -12 24 -72 25 -63 2 -68 0 -100 -32 -81 -81 -5 -166 95 -105 18 11
34 19 36 17 3 -5 33 -122 39 -157 l6 -34 -62 7 c-35 4 -80 10 -100 13 -33 5
-38 3 -38 -15 0 -11 9 -23 23 -28 12 -5 -302 -11 -738 -14 l-760 -5 745 -3
746 -2 -1 -86 c0 -85 1 -87 31 -113 l32 -26 -22 -17 c-26 -19 -56 -104 -56
-156 0 -21 -7 -40 -17 -48 -17 -13 -17 -15 3 -31 11 -10 26 -43 34 -73 20 -85
28 -100 50 -100 25 0 25 0 0 80 -29 95 -30 92 48 90 89 -3 92 -2 92 15 0 17
-25 24 -105 27 l-60 3 2 46 c3 99 58 156 107 110 20 -19 25 -20 35 -7 15 17 1
49 -27 65 -15 9 -14 13 15 43 36 37 63 94 63 134 0 21 3 25 18 19 32 -13 47
-11 45 9 -1 18 6 19 174 13 149 -5 176 -8 187 -22 11 -15 16 -16 37 -5 32 18
22 17 887 25 749 7 754 7 743 -12 -23 -44 36 -153 84 -153 14 0 34 13 49 31
25 30 33 48 38 99 l3 25 280 -2 c154 -1 402 -7 550 -13 149 -5 338 -12 420
-15 83 -3 242 -10 355 -17 347 -18 1956 -14 1988 6 10 6 10 11 1 22 -10 12
-82 13 -460 9 -388 -3 -447 -2 -442 10 4 13 81 15 512 18 l506 2 -507 3 -508
2 19 50 c11 28 17 50 15 50 -2 0 5 16 16 35 11 20 20 42 20 50 0 12 4 12 28
-1 35 -18 69 -18 121 1 54 19 128 70 136 94 14 45 -32 79 -120 88 -71 7 -102
-2 -138 -40 -25 -27 -29 -29 -23 -9 5 16 3 24 -9 28 -25 10 -35 -7 -45 -77 -5
-35 -22 -110 -37 -166 l-27 -103 -871 0 c-478 0 -998 5 -1154 10 -156 5 -336
10 -400 11 -64 0 -122 5 -128 11 -7 6 -30 8 -51 6 l-39 -3 -8 85 c-4 47 -8
109 -10 138 -3 77 -35 98 -50 32 -8 -38 -51 -72 -84 -68 -34 4 -38 36 -10 72
19 25 22 25 34 10 14 -20 45 -13 45 11 0 19 -35 55 -54 55 -8 0 -28 -13 -44
-30z m3145 -25 c35 -15 35 -16 18 -35 -49 -54 -159 -78 -183 -39 -12 19 -11
24 10 46 41 45 92 54 155 28z m-5348 -14 c8 -5 11 -16 6 -31 -4 -12 -9 -19
-12 -16 -4 3 -11 2 -17 -3 -18 -15 -68 -17 -73 -4 -6 17 42 63 64 63 10 0 24
-4 32 -9z m68 -327 c3 -8 0 -34 -8 -57 -7 -23 -13 -48 -12 -54 0 -7 -3 -13 -9
-13 -5 0 -22 -9 -37 -21 -23 -17 -33 -19 -49 -10 -35 19 -42 120 -11 158 17
20 118 18 126 -3z m4953 1 c0 -13 -54 -15 -427 -14 -236 0 -525 7 -643 13
-211 13 -204 13 428 14 565 2 642 0 642 -13z m-2693 -36 c-3 -23 -14 -51 -25
-62 -20 -19 -20 -19 -35 4 -9 13 -19 36 -22 51 -6 23 -3 29 16 37 13 5 35 10
48 10 22 1 23 -2 18 -40z m3626 4 c-7 -2 -21 -2 -30 0 -10 3 -4 5 12 5 17 0
24 -2 18 -5z"/>
<path d="M10592 3264 c-23 -16 -62 -83 -62 -107 0 -8 9 -26 21 -41 23 -30 63
-34 90 -10 15 14 18 13 27 -15 11 -30 35 -41 47 -22 7 12 -12 97 -30 133 -10
19 -10 29 -1 38 8 8 6 15 -8 26 -26 18 -56 18 -84 -2z m41 -84 c-26 -55 -40
-62 -49 -26 -8 32 21 76 51 76 l22 0 -24 -50z"/>
<path d="M13607 3255 c-106 -72 -79 -198 43 -204 40 -2 70 8 70 23 0 18 -18
24 -55 16 -31 -5 -58 9 -75 41 -8 13 -5 15 15 12 50 -10 145 40 145 76 0 27
-43 61 -76 61 -16 0 -46 -11 -67 -25z m90 -31 c4 -13 -40 -34 -70 -34 -21 1
-21 2 7 26 28 25 56 29 63 8z"/>
<path d="M10803 3218 c-33 -37 -46 -69 -34 -81 16 -16 59 7 63 34 7 46 26 29
37 -32 6 -35 16 -66 22 -70 19 -11 40 1 34 20 -2 9 -9 40 -15 70 -5 30 -15 60
-21 68 -18 20 -63 16 -86 -9z"/>
<path d="M8758 3087 c-22 -17 -29 -44 -15 -56 15 -12 30 -4 45 25 15 29 -6 50
-30 31z"/>
<path d="M15007 3094 c-14 -14 -7 -65 9 -71 20 -8 35 14 32 47 -3 24 -27 38
-41 24z"/>
<path d="M8652 2820 c-49 -30 -62 -72 -62 -195 0 -87 -3 -105 -15 -105 -8 0
-15 -9 -15 -20 0 -11 7 -23 15 -26 16 -7 20 -102 6 -139 -10 -25 -3 -45 15
-45 20 0 33 41 41 126 3 41 9 74 13 74 3 0 14 6 24 13 16 12 17 16 5 35 -8 12
-22 22 -31 22 -20 0 -22 25 -12 128 11 98 60 129 122 77 37 -31 52 -32 52 -1
0 17 -11 30 -37 46 -53 31 -83 34 -121 10z"/>
<path d="M8213 2813 c-17 -6 -16 -33 2 -57 19 -24 29 -113 21 -179 -7 -52 -8
-53 -37 -49 -62 9 -149 -92 -149 -174 0 -56 59 -81 118 -50 82 42 141 318 96
449 -17 49 -32 67 -51 60z m-13 -347 c16 -20 -18 -98 -53 -120 -23 -16 -57
-13 -57 4 0 17 22 66 43 97 24 35 47 42 67 19z"/>
<path d="M10140 2714 c-13 -14 -7 -81 17 -196 4 -22 2 -28 -11 -28 -27 0 -105
-79 -115 -118 -16 -56 9 -92 65 -92 44 0 89 52 104 122 10 45 9 71 -7 166 -19
108 -19 112 -1 112 27 0 23 36 -4 44 -32 8 -34 8 -48 -10z m16 -306 c-12 -60
-54 -104 -78 -80 -16 16 -1 58 30 87 38 36 56 33 48 -7z"/>
<path d="M12351 2707 c-6 -6 -11 -23 -11 -38 0 -15 -12 -67 -26 -115 -31 -104
-39 -229 -14 -229 10 0 18 21 26 75 6 41 23 119 38 174 14 54 26 107 26 116 0
22 -24 32 -39 17z"/>
<path d="M11605 2688 c-8 -20 42 -128 59 -128 21 0 28 16 18 37 -5 10 -17 36
-28 57 -20 42 -41 56 -49 34z"/>
<path d="M13653 2688 c-6 -7 -11 -33 -11 -58 -1 -25 -10 -83 -22 -130 -32
-136 -24 -256 18 -248 10 2 16 11 14 23 -9 56 -4 158 12 220 31 121 24 237
-11 193z"/>
<path d="M13306 2682 c-3 -5 -11 -43 -16 -83 -6 -41 -19 -118 -28 -171 -19
-104 -18 -118 4 -118 8 0 23 -9 34 -20 15 -15 33 -20 73 -20 47 0 58 4 91 35
37 33 38 38 34 84 -3 27 -12 56 -21 65 -27 27 -79 20 -129 -18 l-45 -35 7 42
c9 47 34 217 35 232 0 13 -32 19 -39 7z m147 -274 c16 -25 0 -63 -35 -82 -39
-21 -77 -18 -92 7 -9 16 -5 23 24 49 57 49 85 56 103 26z"/>
<path d="M14199 2665 c-37 -25 -53 -50 -43 -66 9 -16 28 -9 68 25 27 23 37 39
33 50 -8 21 -16 20 -58 -9z"/>
<path d="M14296 2657 c-49 -34 -65 -62 -47 -80 8 -8 18 -4 38 15 16 14 47 37
71 52 23 14 42 30 42 35 0 20 -61 7 -104 -22z"/>
<path d="M11700 2645 c0 -22 43 -85 58 -85 24 0 24 30 1 65 -24 36 -59 47 -59
20z"/>
<path d="M8347 2568 c-43 -58 -51 -83 -48 -145 2 -38 36 -63 86 -63 49 0 95
17 95 35 0 20 -9 22 -60 12 -37 -7 -54 -6 -65 3 -24 20 -17 33 30 62 24 14 51
38 60 52 16 24 16 28 1 51 -24 37 -68 34 -99 -7z m61 -20 c-2 -6 -15 -18 -28
-27 l-24 -16 18 28 c18 27 41 38 34 15z"/>
<path d="M12119 2543 c-17 -15 -40 -41 -50 -58 -14 -22 -19 -25 -19 -12 0 13
-6 17 -21 15 -19 -3 -21 -11 -24 -93 -2 -49 -8 -103 -13 -120 l-8 -30 -2055
-5 -2054 -5 2054 -3 c1637 -2 2052 -5 2048 -14 -2 -7 -10 -37 -17 -66 -11 -42
-11 -55 -1 -65 18 -17 47 21 67 89 l15 54 316 0 c283 0 315 -2 309 -16 -3 -9
-6 -20 -6 -25 0 -5 -7 -9 -15 -9 -19 0 -19 -34 0 -50 23 -19 39 -6 58 49 l18
51 769 0 770 0 0 -22 c0 -12 -18 -38 -41 -60 -38 -36 -47 -68 -19 -68 23 0 90
74 101 111 l12 39 631 3 631 2 -631 3 -631 2 -11 25 c-6 14 -18 25 -27 25 -9
0 -15 -9 -15 -25 l0 -25 -761 0 c-660 0 -760 2 -756 14 3 8 32 57 65 108 32
52 57 99 54 106 -7 22 -30 12 -52 -23 -12 -19 -26 -33 -31 -29 -5 3 -9 0 -9
-5 0 -6 -5 -11 -12 -11 -6 0 -20 -8 -30 -17 -26 -23 -38 -7 -46 58 -5 38 -11
54 -22 54 -12 0 -15 -14 -15 -68 0 -61 3 -71 24 -89 14 -10 33 -17 43 -15 23
6 23 4 -4 -43 l-23 -40 -322 0 c-311 0 -321 1 -316 19 3 11 16 22 29 25 61 16
124 108 140 203 13 80 -35 108 -97 56z m50 -65 c-4 -60 -66 -148 -103 -148
-13 0 -5 48 15 85 28 54 68 105 80 105 6 0 9 -18 8 -42z m-159 -328 c0 -5 -2
-10 -4 -10 -3 0 -8 5 -11 10 -3 6 -1 10 4 10 6 0 11 -4 11 -10z"/>
<path d="M11440 2532 c0 -25 22 -43 39 -33 20 13 9 46 -17 49 -16 3 -22 -2
-22 -16z"/>
<path d="M10608 2526 c-10 -7 -18 -16 -18 -19 0 -2 -13 -19 -29 -36 l-30 -32
-3 28 c-2 17 -9 28 -18 28 -11 0 -15 -13 -16 -55 -1 -30 -7 -67 -14 -82 -7
-15 -10 -34 -6 -43 9 -25 40 -13 51 20 6 17 25 51 43 77 17 26 32 51 32 56 0
5 9 12 20 15 16 4 20 1 16 -11 -29 -96 -25 -167 9 -167 19 0 23 25 28 175 2
52 1 55 -23 57 -14 2 -33 -3 -42 -11z m-54 -121 c-4 -8 -8 -15 -10 -15 -2 0
-4 7 -4 15 0 8 4 15 10 15 5 0 7 -7 4 -15z"/>
<path d="M10875 2521 c-54 -33 -78 -67 -83 -119 -3 -41 0 -52 22 -79 43 -51
152 -55 170 -6 4 8 13 13 21 9 9 -3 15 0 15 9 0 19 -42 20 -78 1 -37 -18 -89
-3 -104 30 -15 33 1 47 81 70 54 15 91 38 91 56 0 4 -9 17 -20 28 -25 25 -75
26 -115 1z m60 -30 c-6 -5 -21 -12 -35 -15 l-25 -7 25 15 c28 17 50 21 35 7z"/>
<path d="M10329 2514 c-6 -8 -9 -17 -6 -21 4 -3 -3 -17 -13 -31 -27 -34 -26
-87 2 -106 34 -24 75 -20 105 10 21 21 24 31 18 57 -4 18 -8 42 -9 54 -1 28
-14 39 -53 46 -21 4 -35 1 -44 -9z m55 -70 c14 -37 7 -54 -24 -54 -34 0 -38
14 -14 48 18 26 30 28 38 6z"/>
<path d="M12459 2481 c-63 -62 -46 -109 34 -98 l42 6 1 -35 c1 -44 26 -73 48
-55 11 10 13 18 6 31 -6 10 -10 35 -10 54 0 44 -23 59 -71 46 -18 -5 -34 -8
-36 -7 -8 8 30 46 49 49 13 2 24 11 26 22 3 11 0 16 -7 12 -6 -4 -11 -2 -11 3
0 23 -34 9 -71 -28z"/>
<path d="M13842 2489 c-101 -50 -133 -172 -55 -213 25 -12 106 -22 138 -16 6
1 21 3 35 3 15 1 25 8 25 17 0 12 -18 16 -80 21 -106 9 -117 14 -113 53 3 26
7 31 33 34 84 7 118 15 136 33 18 18 18 22 5 48 -25 47 -58 52 -124 20z m78
-39 c0 -5 -8 -10 -17 -10 -10 0 -29 -3 -43 -6 -24 -5 -24 -5 -6 10 22 18 66
22 66 6z"/>
<path d="M13004 2485 c-42 -19 -76 -63 -72 -93 2 -14 15 -34 30 -45 26 -20 30
-20 83 -5 55 15 55 15 55 -7 0 -13 9 -33 19 -46 16 -19 22 -21 32 -12 10 10
10 18 1 38 -7 14 -12 37 -12 50 0 13 -7 31 -15 39 -14 14 -20 14 -53 -4 -39
-21 -87 -26 -97 -10 -11 17 42 60 74 60 16 0 33 -4 36 -10 11 -17 35 -11 35 9
0 24 -36 51 -65 50 -11 0 -34 -7 -51 -14z"/>
<path d="M9133 2454 c-24 -37 -24 -126 1 -152 20 -23 53 -34 61 -21 3 4 11 6
18 3 26 -9 57 34 57 80 0 62 -34 110 -82 114 -31 3 -40 -1 -55 -24z m85 -49
c15 -33 15 -58 0 -73 -17 -17 -45 -15 -52 4 -8 21 -8 79 1 87 14 15 40 6 51
-18z"/>
<path d="M11432 2398 c-16 -16 -15 -33 1 -46 10 -9 17 -6 30 8 9 11 17 27 17
35 0 18 -31 20 -48 3z"/>
<path d="M7837 2113 c-13 -12 -7 -44 18 -93 25 -49 50 -64 61 -35 3 8 -4 28
-15 44 -12 16 -18 36 -15 45 11 28 -29 60 -49 39z"/>
<path d="M7988 2103 c-2 -5 -5 -31 -6 -59 -2 -40 1 -54 18 -69 28 -26 49 -6
31 29 -10 18 -10 28 -1 45 14 28 4 61 -20 61 -10 0 -20 -3 -22 -7z"/>
<path d="M8942 2068 c-7 -7 -12 -44 -12 -94 l0 -83 -57 -18 c-64 -19 -79 -32
-60 -50 9 -10 22 -9 58 4 44 16 47 16 65 -2 15 -15 16 -18 3 -13 -13 5 -18 -2
-22 -30 -3 -20 -13 -70 -22 -110 -16 -76 -14 -95 13 -90 11 2 22 38 42 138
l27 135 41 3 c23 2 42 6 42 11 0 17 -26 31 -58 31 l-35 0 6 90 c6 92 -1 108
-31 78z"/>
<path d="M8292 2047 c-6 -7 -13 -39 -17 -72 -4 -33 -14 -89 -21 -125 -12 -59
-12 -66 4 -79 16 -13 16 -13 0 -8 -15 5 -18 0 -18 -32 0 -22 -3 -47 -7 -57 -4
-11 -2 -15 4 -11 6 4 9 -5 7 -23 -3 -24 0 -30 16 -30 21 0 22 11 25 188 0 20
3 39 6 42 3 3 9 17 13 33 4 19 2 27 -6 27 -10 0 -10 2 -1 8 6 4 14 21 17 37
18 92 18 102 3 108 -9 3 -20 0 -25 -6z"/>
<path d="M10246 2018 c-9 -32 -27 -181 -22 -186 3 -3 1 -11 -5 -19 -9 -10 -8
-13 2 -13 9 0 10 -3 4 -8 -11 -7 -51 -191 -49 -224 1 -17 -61 -18 -1150 -20
l-1151 -3 1610 -5 1610 -5 -37 -37 c-21 -20 -38 -44 -38 -52 0 -32 38 -15 89
39 l52 55 1086 0 1086 0 -7 -48 c-8 -59 11 -95 38 -73 11 9 16 30 16 67 l0 54
1093 3 1092 2 -1091 3 -1092 2 10 48 c13 57 12 56 37 42 28 -14 112 21 146 62
42 49 28 173 -20 192 -43 16 -73 6 -109 -36 -35 -41 -76 -131 -76 -168 0 -10
-4 -21 -9 -25 -5 -3 -13 -30 -16 -60 l-7 -55 -410 0 -410 0 5 28 c3 15 11 71
18 126 l13 99 67 -7 c50 -4 69 -3 78 8 15 18 -4 33 -46 34 -99 1 -90 -5 -98
68 -4 43 -12 67 -21 71 -23 9 -27 -3 -25 -71 l2 -63 -56 -5 c-54 -5 -79 -20
-71 -43 1 -6 29 -9 64 -7 l62 4 -5 -29 c-22 -125 -28 -162 -29 -185 l-1 -28
-658 0 -657 0 20 39 c22 44 18 71 -11 71 -13 0 -19 -7 -19 -21 0 -12 -9 -37
-21 -55 l-21 -34 -293 0 c-270 0 -293 1 -291 17 1 13 -10 19 -45 24 -78 12
-138 51 -139 92 0 20 7 21 40 2 38 -22 67 -18 86 10 15 23 15 27 0 50 -36 55
-85 54 -141 -6 -54 -55 -29 -124 58 -165 l52 -24 -107 0 c-122 0 -119 -3 -98
85 6 25 5 42 -1 46 -6 3 -4 11 6 19 17 15 20 40 4 40 -8 0 -7 6 2 16 14 17 52
251 43 266 -8 12 -34 9 -38 -4z m3302 -185 c26 -68 23 -86 -17 -115 -49 -35
-91 -46 -91 -24 0 9 -3 16 -7 16 -5 0 -9 11 -9 25 -1 14 2 25 6 25 18 0 20 33
3 47 -17 13 -17 14 1 5 15 -8 24 -4 44 19 30 37 56 37 70 2z m-3123 -104 c11
-17 0 -20 -21 -4 -17 13 -17 14 -2 15 9 0 20 -5 23 -11z"/>
<path d="M10915 1980 c-27 -22 -55 -40 -61 -40 -21 0 -38 -30 -26 -42 25 -25
172 72 159 105 -9 24 -16 22 -72 -23z"/>
<path d="M9896 2002 c-14 -24 -66 -333 -66 -398 0 -18 10 -23 60 -34 102 -22
170 13 186 95 16 85 -58 123 -137 70 -23 -15 -37 -30 -33 -37 4 -6 3 -8 -4 -4
-5 3 -13 0 -15 -6 -3 -7 -2 5 1 27 4 22 7 61 7 88 0 26 3 47 6 47 9 0 32 129
25 145 -6 16 -22 20 -30 7z m134 -317 c0 -52 -28 -75 -90 -75 -47 0 -50 1 -40
20 20 37 83 90 107 90 20 0 23 -5 23 -35z"/>
<path d="M10777 1976 c-9 -13 -30 -32 -46 -42 -33 -20 -38 -50 -7 -50 25 0
110 80 104 98 -8 23 -35 20 -51 -6z"/>
<path d="M15080 1975 c-6 -7 -12 -26 -13 -42 -2 -22 2 -28 18 -28 19 0 42 -17
148 -107 40 -34 33 -42 -63 -69 -88 -24 -220 -83 -220 -99 0 -23 33 -22 83 3
29 14 93 37 142 52 50 15 100 33 113 41 44 28 20 76 -74 145 -30 22 -64 55
-77 74 -26 41 -41 49 -57 30z"/>
<path d="M8460 1955 c-19 -23 -5 -45 27 -43 36 3 46 18 26 40 -20 22 -37 23
-53 3z"/>
<path d="M14325 1923 c-25 -120 -23 -117 -98 -113 -26 1 -39 -3 -43 -15 -9
-23 1 -29 46 -27 45 3 46 1 26 -55 -8 -22 -16 -58 -18 -79 -3 -33 0 -39 17
-39 14 0 21 8 23 25 2 14 12 53 23 88 l21 62 54 0 c30 0 54 4 54 8 0 17 -26
32 -56 32 l-33 0 15 44 c19 54 15 90 -8 94 -12 2 -19 -5 -23 -25z"/>
<path d="M13866 1907 c-24 -17 -13 -37 20 -37 20 0 25 4 22 22 -4 27 -18 32
-42 15z"/>
<path d="M9105 1794 c-34 -38 -42 -54 -43 -89 -3 -59 35 -105 84 -105 28 0 34
4 32 18 -2 9 -16 22 -33 27 -46 16 -54 84 -10 85 16 0 66 33 74 49 13 23 -12
61 -41 61 -11 0 -39 -20 -63 -46z"/>
<path d="M11702 1824 c-12 -8 -27 -12 -32 -9 -11 7 -18 -9 -49 -110 -24 -79
-26 -101 -10 -111 18 -11 35 17 53 88 22 84 50 113 99 104 45 -8 52 -41 25
-120 -18 -52 -19 -60 -5 -73 19 -19 33 -11 40 24 4 16 12 51 18 80 15 63 5 94
-43 123 -40 24 -66 25 -96 4z"/>
<path d="M8634 1819 c-4 -7 2 -21 17 -33 13 -12 34 -41 46 -65 20 -40 20 -46
6 -67 -19 -30 -46 -38 -73 -22 -17 11 -22 11 -30 -2 -17 -27 13 -55 56 -54 54
2 94 48 94 109 0 26 -5 47 -13 52 -8 4 -20 26 -29 48 -12 30 -22 41 -41 43
-14 2 -29 -2 -33 -9z"/>
<path d="M11986 1799 c-58 -68 -69 -146 -27 -188 23 -23 126 -27 135 -6 6 16
-15 25 -58 25 -61 0 -80 53 -23 64 50 9 77 33 77 67 0 74 -57 95 -104 38z m60
-48 c-3 -5 -17 -11 -31 -13 -26 -5 -25 2 3 35 14 16 17 16 24 2 5 -8 7 -19 4
-24z"/>
<path d="M13177 1823 c-18 -17 -4 -57 33 -97 22 -24 40 -48 40 -54 0 -18 -49
-26 -75 -12 -45 24 -63 -18 -20 -46 48 -32 145 12 145 66 0 11 -18 37 -40 59
-44 43 -53 61 -17 39 41 -27 65 2 29 35 -18 17 -82 23 -95 10z"/>
<path d="M13643 1808 c-24 -12 -33 -35 -33 -90 0 -50 9 -68 32 -68 18 0 19 4
14 34 -4 19 -4 46 0 60 5 21 12 26 39 26 19 0 37 5 40 10 3 6 1 10 -5 10 -6 0
-9 4 -6 9 3 5 -4 11 -17 15 -29 8 -38 7 -64 -6z"/>
<path d="M14020 1813 c-41 -15 -140 -147 -140 -187 0 -32 31 -15 58 31 31 54
84 113 102 113 8 0 11 -23 8 -77 -3 -77 6 -99 30 -70 15 17 20 163 7 175 -14
14 -47 21 -65 15z"/>
<path d="M9370 1793 c-14 -10 -36 -18 -49 -18 -33 0 -59 -53 -63 -130 -2 -50
0 -60 15 -63 10 -2 19 4 23 15 17 53 50 115 76 139 l28 28 0 -62 c0 -35 7 -79
15 -99 13 -30 17 -34 30 -23 9 7 13 20 10 29 -2 9 -7 51 -9 94 -6 105 -24 126
-76 90z"/>
<path d="M14430 1803 c1 -36 72 -45 78 -10 3 14 -4 17 -37 17 -23 0 -41 -3
-41 -7z"/>
<path d="M14950 1799 c-58 -4 -112 -6 -121 -3 -23 6 -45 -22 -30 -39 6 -8 8
-17 4 -20 -3 -4 1 -7 10 -7 10 0 17 4 17 9 0 5 53 12 118 15 122 8 148 14 140
36 -5 17 -12 17 -138 9z"/>
<path d="M9616 1782 c-27 -30 -33 -98 -11 -122 21 -23 55 -26 74 -7 10 10 15
9 25 -5 6 -9 21 -18 31 -20 15 -2 19 2 17 17 -2 11 -5 35 -5 54 -3 46 -20 49
-63 11 -40 -35 -59 -29 -48 14 5 20 12 26 34 26 55 0 50 34 -6 46 -22 4 -34 1
-48 -14z"/>
<path d="M12187 1793 c-13 -12 -7 -84 8 -114 15 -29 15 -30 -15 -47 -29 -17
-40 -45 -20 -57 5 -3 28 6 50 21 36 24 42 25 58 12 26 -24 75 -46 90 -41 24 9
11 33 -28 53 -22 11 -40 22 -40 24 0 2 16 13 35 25 21 12 35 28 35 40 0 33
-18 34 -57 2 -21 -17 -43 -31 -50 -31 -18 0 -35 37 -32 68 5 39 -15 65 -34 45z"/>
<path d="M8445 1730 c-3 -6 -3 -35 1 -66 5 -43 10 -54 23 -52 24 5 24 121 -1
126 -9 2 -19 -2 -23 -8z"/>
<path d="M13796 1708 c-20 -71 -22 -88 -16 -98 15 -24 39 -2 45 44 7 45 2 66
-16 66 -5 0 -11 -6 -13 -12z"/>
<path d="M9282 1467 c-8 -9 -4 -39 13 -107 14 -52 25 -114 25 -137 l0 -41 -37
4 c-53 7 -85 -14 -102 -63 -19 -52 -3 -114 32 -130 25 -12 77 -6 77 8 0 5 6 9
13 9 20 0 57 90 63 155 5 46 0 85 -20 168 -14 60 -26 117 -26 128 0 22 -22 25
-38 6z m33 -344 c-23 -96 -100 -129 -97 -43 1 41 16 58 55 63 18 2 36 5 41 5
4 1 5 -10 1 -25z"/>
<path d="M8384 1435 c-8 -13 -13 -28 -10 -34 3 -5 -1 -11 -9 -15 -12 -4 -13
-24 -8 -119 4 -77 2 -130 -7 -166 -10 -44 -10 -55 1 -61 19 -12 26 -5 54 50
31 62 46 71 33 21 -12 -48 11 -101 43 -101 18 0 20 4 14 23 -10 28 -10 82 0
129 6 31 5 39 -10 45 -11 3 -30 0 -45 -9 l-27 -16 -7 52 c-12 105 -5 176 20
176 22 0 28 22 9 37 -26 18 -32 17 -51 -12z"/>
<path d="M9107 1453 c-3 -4 -10 -48 -16 -98 -6 -49 -16 -121 -21 -160 -18
-135 -8 -243 22 -233 8 3 12 39 14 114 1 60 6 136 12 169 10 54 18 115 25 185
2 24 -25 41 -36 23z"/>
<path d="M9924 1395 c-4 -9 -4 -27 -2 -40 3 -14 2 -25 -2 -25 -9 0 -50 -226
-50 -281 0 -82 55 -106 147 -64 97 44 127 90 85 128 -50 45 -101 40 -160 -16
-33 -31 -33 -32 -28 -7 25 115 46 243 41 250 -3 5 -1 11 5 15 5 3 10 17 10 31
0 17 -5 24 -20 24 -11 0 -23 -7 -26 -15z m137 -306 c26 -13 18 -24 -41 -54
-50 -25 -90 -32 -90 -16 0 14 79 81 96 81 8 0 24 -5 35 -11z"/>
<path d="M12806 1368 c-23 -32 -19 -81 13 -178 l28 -85 -36 -6 c-104 -15 -147
-105 -87 -183 50 -66 114 -60 154 14 21 39 23 54 19 116 -3 39 -16 104 -30
145 -39 114 -41 134 -19 145 16 7 18 14 11 32 -11 28 -33 28 -53 0z m38 -314
c32 -12 7 -112 -33 -134 -18 -9 -25 -7 -46 16 -34 36 -32 67 6 98 31 27 46 31
73 20z"/>
<path d="M12241 1338 c-5 -13 -5 -63 0 -113 12 -141 13 -135 -23 -142 -42 -8
-105 -73 -113 -116 -15 -78 37 -99 117 -48 70 44 72 52 65 231 -4 85 -3 161 2
169 5 8 7 20 4 28 -8 21 -43 15 -52 -9z m9 -314 c0 -29 -20 -54 -60 -74 -49
-25 -48 -25 -43 4 10 52 103 115 103 70z"/>
<path d="M8095 1339 c-4 -6 1 -43 10 -84 11 -46 15 -87 11 -110 -7 -35 -8 -36
-25 -21 -20 18 -51 21 -51 6 0 -27 34 -60 60 -60 34 0 45 13 60 71 10 38 9 56
-4 99 -9 29 -15 55 -13 56 1 2 22 4 45 5 32 2 42 7 40 18 -5 26 -119 43 -133
20z"/>
<path d="M10315 1206 c-17 -7 -43 -31 -58 -54 -74 -105 -20 -203 94 -172 29 8
39 16 37 28 -3 14 -15 17 -58 17 -51 0 -55 2 -58 25 -2 22 6 31 63 63 52 30
65 42 65 62 0 14 -8 29 -19 35 -24 13 -29 12 -66 -4z"/>
<path d="M11031 1185 c-18 -16 -33 -42 -41 -72 -6 -26 -16 -51 -22 -54 -16
-10 4 -83 25 -87 10 -2 18 5 21 20 2 13 9 49 15 82 13 72 25 87 62 81 42 -8
41 29 -1 43 -26 9 -34 8 -59 -13z"/>
<path d="M8642 1157 c-12 -12 -28 -39 -36 -59 -20 -46 -7 -81 36 -99 29 -12
35 -11 98 21 9 4 15 21 15 41 0 27 -6 38 -32 54 -18 11 -32 27 -33 36 0 27
-26 29 -48 6z m48 -72 c33 -17 33 -17 25 -37 -6 -16 -61 -13 -71 3 -6 10 4 49
12 49 3 0 18 -7 34 -15z"/>
<path d="M8814 1172 c-36 -23 -45 -112 -16 -149 41 -54 131 -28 152 44 15 48
0 93 -30 93 -18 0 -20 -4 -14 -40 7 -44 -13 -80 -46 -80 -39 0 -51 41 -25 89
12 23 12 31 2 39 -7 6 -17 8 -23 4z"/>
<path d="M8020 1156 c0 -9 7 -12 20 -9 11 3 17 9 14 14 -8 14 -34 10 -34 -5z"/>
<path d="M12494 1135 c-51 -30 -74 -64 -74 -109 0 -58 25 -78 106 -83 73 -4
101 5 91 31 -5 13 -21 16 -76 16 -54 0 -70 4 -75 16 -9 24 -9 24 32 24 20 0
52 9 70 20 26 16 32 26 32 53 0 62 -38 73 -106 32z m47 -45 c-13 -11 -33 -20
-45 -20 -19 0 -18 2 9 20 40 27 68 26 36 0z"/>
<path d="M11235 1110 c-21 -21 -29 -42 -33 -79 -4 -46 -2 -53 26 -81 32 -32
51 -36 83 -20 29 16 25 44 -6 36 -18 -5 -31 0 -46 15 l-21 21 51 29 c58 33 68
66 29 93 -32 23 -51 20 -83 -14z m55 -25 c0 -2 -10 -10 -22 -16 -21 -11 -22
-11 -9 4 13 16 31 23 31 12z"/>
<path d="M11925 1128 c-28 -16 -35 -28 -35 -68 0 -41 41 -124 64 -128 22 -5
20 23 -5 75 -28 58 -23 76 24 84 47 7 52 13 32 33 -19 19 -51 20 -80 4z"/>
<path d="M11513 1095 c-46 -20 -68 -68 -54 -115 14 -49 33 -63 83 -64 30 -1
41 3 43 15 2 12 -7 18 -35 23 -52 8 -69 56 -32 89 24 22 51 22 67 0 14 -19 35
-10 35 16 0 23 -31 51 -56 51 -10 -1 -33 -7 -51 -15z"/>
<path d="M11711 1065 c-34 -45 -22 -98 29 -128 56 -34 110 -10 110 49 0 41
-25 94 -44 94 -7 0 -27 3 -43 6 -25 5 -34 1 -52 -21z m94 -86 c-11 -16 -43
-10 -59 12 -18 26 -11 47 17 51 16 2 25 -4 35 -25 7 -15 10 -32 7 -38z"/>
<path d="M13050 890 l0 -30 -2582 -3 c-1421 -1 -855 -2 1257 -2 2112 0 3283 1
2603 2 l-1237 3 6 30 c5 27 3 30 -21 30 -22 0 -26 -4 -26 -30z"/>
</g>
</svg>
