<?xml version="1.0" standalone="no"?>
<!DOCTYPE svg PUBLIC "-//W3C//DTD SVG 20010904//EN"
 "http://www.w3.org/TR/2001/REC-SVG-20010904/DTD/svg10.dtd">
<svg version="1.0" xmlns="http://www.w3.org/2000/svg"
 width="1618.000000pt" height="1214.000000pt" viewBox="0 0 1618.000000 1214.000000"
 preserveAspectRatio="xMidYMid meet">

<g transform="translate(0.000000,1214.000000) scale(0.100000,-0.100000)"
fill="#000000" stroke="none">
<path d="M630 6040 l0 -5190 3310 0 3310 0 0 5190 0 5190 -3310 0 -3310 0 0
-5190z m6610 3295 c0 -1037 -2 -1885 -4 -1885 -2 0 -20 23 -40 50 -22 30 -44
50 -55 50 -12 0 -32 -18 -52 -50 -18 -27 -35 -50 -38 -50 -3 0 -6 60 -6 132
-1 149 -13 276 -28 285 -16 10 -35 -25 -31 -60 2 -17 8 -63 14 -100 6 -38 8
-115 5 -171 -7 -118 3 -159 38 -154 14 2 36 24 61 61 l38 58 32 -45 c17 -25
39 -47 48 -50 17 -4 18 -162 18 -3275 l0 -3271 -3300 0 -3300 0 0 5180 0 5180
3300 0 3300 0 0 -1885z"/>
<path d="M4395 11036 c-112 -35 -247 -119 -232 -143 3 -5 -1 -42 -9 -83 -8
-41 -16 -113 -19 -160 -3 -47 -7 -98 -10 -115 -6 -36 7 -60 29 -52 12 5 16 21
16 69 0 78 7 104 28 112 10 3 39 24 67 45 27 22 65 48 85 58 45 23 53 35 35
52 -15 16 -47 0 -147 -75 l-57 -43 5 32 c13 79 26 143 30 160 6 18 82 60 167
92 26 10 47 23 47 29 0 6 5 4 10 -4 12 -19 35 2 27 24 -7 19 -18 19 -72 2z"/>
<path d="M2825 11013 c-82 -6 -193 -25 -289 -49 -140 -35 -181 -59 -155 -90
10 -13 14 -13 28 0 9 9 61 27 115 42 104 27 115 25 116 -18 0 -10 5 -18 11
-18 8 0 8 -4 0 -14 -8 -10 -9 -48 -2 -143 6 -71 8 -146 4 -166 -4 -30 -2 -37
10 -37 34 0 40 37 32 201 -4 87 -10 174 -15 193 -9 40 -13 38 143 55 43 5 81
11 84 15 11 11 -7 36 -24 34 -10 -1 -36 -3 -58 -5z"/>
<path d="M4664 11007 c-3 -9 -1 -31 4 -50 6 -21 7 -64 1 -109 -14 -120 -11
-185 7 -192 9 -3 17 -6 18 -6 2 0 4 24 5 53 1 28 4 60 7 70 3 10 0 17 -8 17
-9 0 -10 3 -2 8 15 10 28 102 15 102 -8 0 -7 6 1 19 16 27 -1 95 -25 99 -9 2
-20 -3 -23 -11z"/>
<path d="M3200 10961 c-14 -28 -13 -43 15 -166 14 -61 25 -128 25 -150 l-1
-40 -24 40 c-71 116 -203 275 -229 275 -10 0 -15 -26 -20 -102 -4 -57 -16
-150 -27 -207 -22 -111 -19 -154 9 -149 11 2 18 15 20 38 2 19 12 84 23 144
10 60 19 130 19 155 l1 46 29 -35 c17 -19 51 -62 76 -95 26 -33 49 -58 52 -55
3 3 6 -4 7 -15 3 -35 52 -110 73 -113 17 -3 22 5 33 53 11 50 10 67 -16 190
-24 115 -26 139 -15 159 7 13 9 29 6 35 -11 18 -44 13 -56 -8z"/>
<path d="M5441 10961 c-27 -27 -24 -96 4 -96 15 0 21 9 26 35 3 19 9 42 13 51
11 25 -21 32 -43 10z"/>
<path d="M2149 10930 c-87 -15 -111 -47 -71 -96 21 -26 77 -56 87 -46 3 4 13
-2 21 -12 8 -11 14 -16 14 -10 0 5 4 4 8 -1 4 -6 28 -23 54 -38 79 -46 97 -92
58 -154 -27 -44 -74 -66 -141 -66 -82 1 -139 36 -159 99 -13 38 -35 45 -45 14
-7 -22 19 -72 57 -107 74 -69 215 -70 292 -2 36 31 67 94 61 125 -2 10 -4 24
-4 31 -2 30 -69 86 -154 128 -95 48 -117 62 -117 75 0 11 71 20 158 21 55 1
75 5 79 16 3 8 0 19 -8 24 -18 12 -82 8 -92 -5 -6 -8 -10 -7 -14 2 -5 13 -15
13 -84 2z"/>
<path d="M4866 10841 c-10 -16 5 -41 26 -41 14 0 19 6 16 22 -3 24 -32 36 -42
19z"/>
<path d="M5731 10824 c-38 -32 -96 -146 -111 -220 -10 -48 -10 -59 3 -72 26
-26 46 -8 44 40 -2 57 38 161 78 204 18 19 37 34 43 34 5 0 33 -16 62 -35 59
-40 70 -42 70 -17 0 31 -87 92 -132 92 -14 0 -40 -11 -57 -26z"/>
<path d="M3550 10730 c-30 -11 -70 -19 -88 -19 -40 -1 -72 -17 -72 -36 0 -30
16 -28 167 11 53 15 88 39 78 55 -8 12 -20 10 -85 -11z"/>
<path d="M5406 10728 c-9 -35 -7 -80 6 -158 10 -58 15 -70 31 -70 18 0 19 5
13 53 -3 28 -6 60 -6 69 0 9 -8 19 -17 21 -17 4 -17 5 0 6 15 1 18 9 15 48 -3
53 -30 73 -42 31z"/>
<path d="M5172 10690 l-40 -40 -23 35 c-23 33 -52 45 -63 27 -3 -5 9 -28 26
-51 l31 -42 -23 -24 c-20 -21 -21 -27 -9 -42 12 -16 12 -17 -1 -6 -13 10 -20
6 -39 -22 -25 -37 -21 -55 10 -55 12 0 23 10 30 27 6 16 22 43 36 61 l26 34
72 -72 c67 -66 95 -80 95 -47 0 7 -30 42 -67 80 -63 63 -65 68 -50 85 10 10
14 22 10 27 -5 4 -3 5 3 2 14 -8 58 38 49 52 -12 20 -32 12 -73 -29z"/>
<path d="M4846 10638 c-25 -39 -41 -107 -28 -120 16 -16 42 -2 42 25 0 12 8
39 19 59 13 26 15 40 8 47 -16 16 -25 14 -41 -11z"/>
<path d="M4664 10574 c4 -69 14 -91 40 -81 15 6 15 45 -1 87 -3 8 -5 25 -4 38
2 16 -3 22 -18 22 -19 0 -20 -5 -17 -66z"/>
<path d="M4375 10518 c-16 -6 -76 -30 -131 -54 -56 -24 -109 -44 -117 -44 -22
0 -31 -18 -16 -36 14 -18 23 -15 159 43 58 25 120 50 138 55 23 6 32 14 30 26
-4 21 -24 24 -63 10z"/>
<path d="M3185 9910 c-3 -6 -3 -24 0 -42 4 -17 8 -42 10 -57 1 -14 6 -51 10
-81 6 -53 6 -56 -19 -67 -14 -6 -34 -9 -44 -6 -31 8 -92 -23 -92 -46 0 -22 28
-29 46 -12 10 11 115 31 126 25 9 -6 28 -98 28 -139 0 -19 5 -37 10 -40 6 -3
10 -1 10 5 0 6 5 8 11 4 13 -7 7 108 -7 154 -6 22 -5 22 33 16 26 -4 43 -2 48
5 12 20 -16 41 -55 41 -40 0 -48 10 -56 75 -5 45 -11 79 -14 85 -1 3 -3 23 -4
45 -1 28 -6 40 -18 43 -9 2 -19 -2 -23 -8z"/>
<path d="M4287 9833 c-4 -3 -7 -18 -8 -32 0 -14 -8 -48 -18 -75 -17 -48 -17
-48 -29 -22 -18 41 -61 35 -106 -14 -31 -35 -36 -47 -36 -91 0 -57 15 -92 58
-133 l31 -28 -25 -70 c-25 -67 -25 -70 -7 -83 17 -12 20 -7 46 63 28 76 28 77
66 79 93 5 160 54 147 107 -7 27 -53 79 -94 108 -24 16 -24 17 -9 70 15 50 21
88 18 116 -1 13 -23 17 -34 5z m-87 -178 c17 -9 30 -20 30 -26 0 -32 -34 -139
-44 -136 -21 7 -56 70 -56 101 0 28 23 76 36 76 3 0 18 -7 34 -15z m125 -79
c51 -48 46 -75 -19 -99 -29 -11 -53 -14 -58 -9 -6 6 -3 32 5 66 11 40 12 56 4
56 -12 0 12 20 25 20 4 0 23 -15 43 -34z"/>
<path d="M2100 9821 c0 -3 -20 -7 -44 -8 -74 -3 -196 -81 -196 -125 0 -55 45
-83 157 -99 103 -14 141 -31 149 -65 12 -45 -20 -90 -89 -124 -85 -42 -120
-40 -168 10 -43 45 -59 50 -59 17 0 -29 50 -84 85 -93 66 -16 194 25 242 78
15 17 15 21 3 30 -13 8 -12 9 2 5 17 -6 33 18 22 34 -3 5 0 9 5 9 17 0 13 32
-9 68 -25 41 -67 59 -167 73 -76 11 -133 31 -133 48 0 18 61 60 117 81 40 15
70 20 95 16 39 -6 52 2 42 27 -5 14 -54 31 -54 18z"/>
<path d="M4553 9758 c-27 -13 -31 -53 -6 -62 10 -4 23 1 35 14 22 23 66 27 74
5 10 -25 -3 -58 -42 -103 -20 -23 -34 -49 -31 -57 3 -8 23 -17 44 -21 21 -4
49 -12 62 -19 l23 -12 -31 -13 c-17 -7 -68 -18 -114 -24 -59 -9 -82 -16 -82
-27 0 -32 171 -16 233 21 57 35 35 91 -42 107 l-38 8 21 27 c72 91 54 169 -38
167 -25 0 -56 -5 -68 -11z"/>
<path d="M2700 9720 c0 -19 36 -47 47 -36 3 3 3 17 -1 31 -8 31 -46 36 -46 5z"/>
<path d="M2585 9709 c4 -6 -2 -8 -17 -4 -20 5 -29 0 -49 -29 -26 -39 -37 -44
-45 -22 -3 8 -18 19 -34 24 -53 19 -105 -24 -141 -118 -18 -47 -20 -69 -16
-150 9 -145 43 -240 88 -240 21 0 33 45 23 84 -9 38 -51 123 -64 131 -5 3 -10
15 -10 26 0 11 4 18 9 15 28 -18 113 46 139 104 14 31 16 32 20 13 4 -27 57
-67 77 -59 23 9 18 35 -10 48 -34 15 -35 75 -1 115 21 24 26 26 49 16 34 -16
56 6 29 29 -22 19 -55 32 -47 17z m-147 -86 c24 -41 -49 -153 -99 -153 -16 0
-18 5 -13 25 3 14 7 33 8 43 0 9 4 22 8 27 56 76 79 90 96 58z m23 -46 c-8 -8
-11 -7 -11 4 0 20 13 34 18 19 3 -7 -1 -17 -7 -23z"/>
<path d="M2873 9632 c-44 -34 -68 -137 -40 -172 26 -33 57 -12 37 25 -11 21
-10 31 4 69 29 77 75 71 82 -11 5 -49 26 -88 49 -88 13 0 19 5 16 15 -2 8 -8
33 -14 55 -5 22 -18 59 -29 83 -16 37 -22 42 -51 42 -17 0 -42 -8 -54 -18z"/>
<path d="M3678 9575 c-3 -3 -29 -8 -58 -10 -58 -5 -82 -19 -73 -42 4 -11 14
-13 42 -7 96 19 182 30 186 23 9 -13 55 -16 65 -4 15 19 -12 37 -65 43 -37 4
-45 2 -45 -12 0 -9 -4 -16 -10 -16 -5 0 -7 7 -4 15 4 10 0 15 -13 15 -11 0
-22 -2 -25 -5z"/>
<path d="M2704 9516 c-7 -28 1 -46 21 -46 14 0 25 21 25 51 0 29 -38 25 -46
-5z"/>
<path d="M4946 9463 c-3 -4 -6 -15 -6 -25 0 -24 33 -21 38 3 3 17 -21 33 -32
22z"/>
<path d="M4115 9261 c-3 -6 -8 -32 -12 -59 -4 -36 -1 -51 10 -60 19 -16 29 -3
34 47 2 20 4 45 6 56 2 21 -27 33 -38 16z"/>
<path d="M6658 8808 c-19 -24 -47 -62 -63 -85 -15 -24 -29 -43 -30 -43 -1 0
-14 18 -29 40 -14 22 -31 40 -38 40 -6 0 -33 -23 -59 -52 -54 -56 -83 -128
-72 -179 5 -27 46 -72 73 -81 6 -2 8 -11 4 -21 -5 -14 -9 -15 -20 -6 -13 10
-18 6 -15 -13 0 -5 -3 -8 -8 -8 -15 0 -65 -84 -52 -88 6 -2 11 -11 11 -20 0
-9 26 21 57 67 58 85 79 104 93 81 10 -16 113 -7 164 14 44 18 86 65 86 96 0
40 -24 64 -89 94 l-61 27 41 56 c23 30 50 64 61 75 11 11 17 25 15 31 -8 26
-35 16 -69 -25z m-148 -163 l30 -7 -36 -66 c-46 -87 -49 -89 -74 -67 -35 32
-25 100 24 153 16 19 22 20 24 9 2 -9 16 -19 32 -22z m145 -40 c17 -7 39 -22
50 -35 l20 -22 -33 -29 c-18 -16 -39 -29 -47 -29 -10 0 -12 -6 -8 -17 6 -16 5
-16 -10 -5 -11 9 -29 12 -54 7 -21 -3 -50 -2 -63 4 -14 5 -20 10 -13 10 7 1
10 8 7 16 -4 9 -1 15 7 15 21 0 59 76 45 90 -8 8 -7 9 7 5 10 -4 17 -2 17 5 0
12 20 8 75 -15z"/>
<path d="M2907 8764 c-16 -17 1 -286 24 -379 9 -34 16 -45 28 -43 19 4 19 10
-3 188 -9 74 -16 157 -14 185 2 38 0 50 -12 53 -9 1 -19 0 -23 -4z"/>
<path d="M6940 8734 c-64 -28 -92 -73 -54 -88 18 -7 47 11 39 24 -6 9 66 40
78 33 12 -7 -2 -41 -36 -93 -25 -39 -104 -110 -171 -154 -11 -8 -17 -19 -13
-29 5 -12 26 -15 116 -16 61 0 120 -5 130 -11 11 -5 27 -7 37 -3 13 5 15 3 9
-7 -5 -8 -3 -11 6 -8 8 3 15 12 17 20 4 22 -63 46 -147 54 l-70 7 55 50 c147
134 150 284 4 221z m-46 -290 c17 -6 22 -24 8 -24 -5 0 -17 7 -28 15 -19 15
-8 20 20 9z"/>
<path d="M5165 8730 c-3 -5 2 -24 11 -41 9 -19 20 -77 26 -143 12 -145 23
-186 48 -186 11 0 20 4 20 8 0 4 14 27 31 50 l31 43 27 -43 c34 -54 74 -77
101 -60 11 7 29 12 41 12 11 0 35 7 52 16 18 9 39 20 47 24 10 5 20 -6 36 -39
26 -56 50 -79 66 -63 9 9 5 25 -16 65 -17 34 -26 66 -24 87 2 26 -1 35 -15 38
-12 2 -20 -3 -23 -15 -5 -16 -39 -36 -104 -61 -13 -5 -13 -4 0 12 8 10 24 22
37 27 26 10 30 31 8 49 -25 21 -104 -56 -105 -102 0 -10 -4 -18 -9 -18 -14 0
-58 49 -71 80 -19 47 -48 49 -87 7 l-32 -36 -5 32 c-2 18 -9 71 -15 119 -5 48
-17 101 -26 118 -15 30 -38 39 -50 20z"/>
<path d="M3464 8717 c-3 -9 4 -48 15 -88 11 -40 19 -75 17 -77 -2 -2 -15 -5
-28 -6 -83 -10 -109 -18 -106 -34 4 -18 21 -19 108 -11 l45 4 10 -90 c9 -80
12 -90 30 -90 23 0 24 17 11 123 l-8 62 34 0 c47 0 60 12 52 43 -6 27 -36 37
-49 17 -4 -6 -19 -9 -35 -8 -16 1 -26 6 -24 10 5 8 -21 109 -35 137 -11 21
-30 25 -37 8z"/>
<path d="M3154 8620 c-22 -9 -48 -39 -90 -104 -20 -31 -23 -44 -16 -60 6 -12
13 -33 16 -48 4 -15 28 -48 53 -73 37 -35 55 -45 81 -45 43 0 102 25 102 44 0
15 -12 15 -80 2 -31 -6 -39 -3 -72 29 -50 49 -57 75 -27 95 91 59 127 121 89
152 -25 20 -26 20 -56 8z m26 -51 c0 -12 -20 -31 -53 -50 -18 -10 -18 -9 0 18
26 41 53 57 53 32z"/>
<path d="M3790 8619 c-32 -13 -78 -56 -96 -92 -18 -33 -9 -97 13 -97 8 0 11
-5 8 -10 -3 -6 2 -13 12 -17 10 -4 24 -13 31 -20 14 -14 115 -18 171 -7 22 5
31 12 31 27 0 18 -5 19 -52 14 -64 -6 -158 8 -170 25 -11 18 -10 38 2 38 20 0
119 69 136 95 30 45 -19 70 -86 44z m30 -44 c0 -2 -14 -12 -31 -21 -17 -8 -28
-11 -24 -4 4 6 17 15 29 20 27 11 26 11 26 5z"/>
<path d="M1730 8612 c-35 -6 -82 -41 -76 -58 3 -8 0 -13 -6 -11 -19 4 -76 -90
-83 -137 -8 -49 4 -79 42 -113 26 -23 115 -49 133 -38 19 12 10 35 -17 41 -95
21 -113 36 -113 94 0 40 22 82 72 136 44 48 74 55 137 33 40 -14 65 2 40 26
-16 17 -92 32 -129 27z"/>
<path d="M5906 8602 c-4 -6 -12 -9 -19 -6 -18 6 -64 -40 -78 -81 -8 -22 -20
-35 -31 -35 -9 0 -21 -7 -26 -16 -5 -9 -13 -15 -18 -15 -5 1 -10 -9 -12 -23
-2 -18 4 -29 25 -42 39 -24 63 -55 63 -81 0 -12 9 -46 19 -75 10 -29 22 -66
25 -81 5 -20 12 -27 24 -25 29 6 21 103 -16 182 -29 61 -29 66 -12 66 35 0
126 40 151 66 32 34 33 114 3 145 -23 23 -88 37 -98 21z m74 -72 c11 -39 -5
-67 -51 -91 -32 -16 -39 -23 -28 -30 8 -5 9 -9 4 -9 -6 0 -17 6 -23 12 -10 10
-15 10 -21 -1 -5 -7 -14 -10 -21 -6 -15 9 -4 81 18 115 9 14 16 28 15 31 -1 4
21 6 49 5 46 -1 52 -4 58 -26z"/>
<path d="M2703 8558 c-35 -38 -58 -79 -68 -125 -3 -18 -11 -33 -17 -33 -6 0
-8 6 -5 14 5 13 -10 36 -24 36 -4 0 -10 -14 -14 -30 -8 -35 7 -60 36 -60 16 0
17 -4 9 -26 -15 -39 -13 -159 4 -173 24 -20 34 9 37 103 3 82 5 89 29 104 14
9 28 20 31 25 3 5 10 8 15 6 16 -5 65 67 71 104 7 45 -17 87 -50 87 -13 0 -37
-14 -54 -32z m62 -38 c-2 -16 -9 -39 -15 -50 -13 -24 -58 -55 -67 -47 -14 15
54 127 77 127 5 0 7 -13 5 -30z"/>
<path d="M4742 8530 c-44 -20 -72 -58 -72 -97 0 -32 39 -79 78 -94 55 -21 278
-7 305 20 19 19 -17 23 -132 14 -120 -9 -156 -3 -193 34 -19 20 -20 25 -9 47
17 30 53 47 114 52 56 4 68 10 60 30 -8 20 -100 16 -151 -6z"/>
<path d="M2302 8475 c-12 -13 -33 -43 -48 -65 -25 -37 -26 -43 -12 -56 18 -18
25 -13 60 46 l21 35 9 -32 c12 -46 39 -43 79 8 l33 42 18 -42 c16 -38 40 -53
52 -32 7 11 -21 80 -41 103 -18 20 -38 14 -75 -20 -22 -20 -28 -22 -28 -10 0
17 -25 48 -39 48 -4 0 -17 -11 -29 -25z"/>
<path d="M2009 8467 c-33 -28 -51 -58 -55 -89 -6 -44 8 -62 48 -62 39 0 191
71 183 85 -4 5 -1 9 4 9 18 0 12 26 -10 46 -25 23 -147 31 -170 11z m103 -31
c27 -5 36 -11 31 -21 -3 -8 -12 -15 -19 -15 -8 0 -32 -9 -54 -20 -42 -21 -80
-26 -80 -10 0 14 74 89 80 80 3 -4 22 -10 42 -14z"/>
<path d="M6322 8297 c-23 -29 -51 -97 -46 -111 8 -21 48 -20 69 1 15 15 16 18
2 28 -11 8 -13 16 -6 26 20 32 4 84 -19 56z"/>
<path d="M5542 7991 c-12 -17 -22 -38 -22 -47 0 -10 -3 -14 -7 -11 -9 10 -145
-201 -138 -213 3 -6 2 -10 -3 -10 -5 0 -38 -39 -73 -87 -35 -49 -116 -142
-181 -209 -65 -66 -115 -124 -111 -128 4 -4 1 -4 -8 -1 -18 7 -129 -118 -129
-146 0 -28 27 -34 66 -16 35 17 45 43 18 49 -10 2 45 64 158 178 142 143 189
198 256 299 45 68 79 128 75 135 -3 6 -3 8 2 4 9 -8 147 188 149 212 2 26 -29
21 -52 -9z m-617 -800 c-3 -6 -11 -11 -16 -11 -5 0 -4 6 3 14 14 16 24 13 13
-3z"/>
<path d="M6164 7951 c-6 -27 -7 -28 -40 -18 -54 16 -146 -22 -279 -115 -129
-91 -234 -244 -243 -354 -4 -52 11 -99 29 -89 5 4 9 -5 9 -19 0 -19 9 -29 43
-45 44 -21 79 -26 161 -23 40 2 47 5 42 18 -5 14 -4 15 8 5 34 -29 174 26 243
95 44 44 54 79 31 102 -14 14 -162 17 -154 3 3 -4 -5 -6 -17 -4 -24 4 -68 -16
-74 -33 -7 -20 23 -23 75 -8 28 8 72 14 98 12 l48 -3 -33 -33 c-55 -54 -112
-81 -216 -101 -133 -25 -197 -11 -235 52 -29 46 -25 85 16 166 42 85 125 177
208 234 34 22 63 43 66 47 3 3 20 12 38 19 26 11 30 16 21 27 -9 11 -8 14 5
14 9 0 16 -4 16 -8 0 -4 16 -6 35 -4 19 2 46 1 60 -2 23 -6 25 -12 26 -59 2
-114 30 -137 69 -56 l24 52 -20 37 c-15 26 -18 41 -10 52 7 11 6 24 -2 42 -16
35 -41 33 -48 -3z"/>
<path d="M3525 7913 c-44 -8 -111 -27 -135 -38 -14 -7 -51 -24 -82 -38 -32
-15 -58 -32 -58 -38 0 -7 -7 -17 -15 -23 -23 -18 -33 -259 -12 -308 11 -26 22
-38 36 -38 31 0 34 18 9 50 -22 28 -23 36 -16 103 3 39 7 97 7 128 1 55 1 56
44 77 85 42 143 64 202 76 39 8 61 18 63 28 3 18 -14 26 -43 21z"/>
<path d="M3681 7853 c0 -21 5 -63 10 -94 5 -30 12 -109 14 -174 4 -78 10 -122
18 -127 9 -6 9 -10 -1 -16 -16 -11 -5 -72 15 -79 25 -10 32 10 22 62 -6 28
-10 88 -10 135 0 71 -8 161 -23 265 -2 11 -4 30 -5 43 -1 15 -7 22 -21 22 -16
0 -19 -7 -19 -37z"/>
<path d="M3862 7688 c5 -34 38 -37 38 -4 0 20 -5 26 -21 26 -15 0 -20 -5 -17
-22z"/>
<path d="M4382 7688 c5 -34 38 -37 38 -4 0 20 -5 26 -21 26 -15 0 -20 -5 -17
-22z"/>
<path d="M4584 7674 c-17 -8 -36 -26 -43 -40 -16 -37 -12 -141 8 -203 32 -99
63 -72 37 32 -20 81 -20 126 0 156 16 22 21 23 90 17 60 -6 74 -4 74 7 0 23
-21 34 -80 41 -40 4 -63 2 -86 -10z"/>
<path d="M3370 7646 c-65 -9 -75 -14 -75 -31 0 -17 6 -20 37 -19 20 1 44 5 55
9 10 4 37 7 59 6 48 -3 67 15 39 36 -11 7 -24 12 -29 12 -6 -1 -45 -7 -86 -13z"/>
<path d="M6810 7630 c-47 -28 -78 -75 -89 -134 -10 -55 -4 -118 13 -128 8 -6
8 -8 0 -8 -8 0 -9 -14 -3 -47 10 -54 33 -93 54 -93 25 0 46 43 38 81 -10 55
-32 99 -48 99 -9 0 -15 9 -15 23 0 18 6 22 34 24 46 2 108 32 114 55 2 10 8
15 13 13 12 -8 29 29 29 63 0 60 -78 89 -140 52z m65 -20 c-3 -5 1 -10 10 -10
24 0 29 -27 10 -56 -18 -28 -70 -54 -109 -54 -24 0 -25 2 -16 28 6 15 29 44
53 64 40 36 65 49 52 28z"/>
<path d="M2101 7631 c-7 -5 -11 -14 -7 -20 5 -7 1 -9 -9 -5 -37 14 -63 -131
-34 -192 15 -31 69 -58 76 -37 2 7 11 9 18 6 36 -13 113 65 99 102 -8 19 -112
68 -130 61 -20 -8 -17 -35 4 -43 9 -3 33 -12 52 -20 l35 -15 -33 -28 c-34 -28
-68 -30 -84 -6 -21 31 5 156 33 156 6 0 17 -7 24 -17 7 -9 17 -13 23 -9 19 12
14 44 -10 60 -25 18 -37 19 -57 7z"/>
<path d="M2372 7573 c-51 -73 -65 -123 -34 -123 11 0 26 16 40 45 12 25 26 45
31 45 5 0 12 -20 15 -44 12 -75 60 -115 105 -87 18 12 6 45 -14 37 -22 -8 -41
18 -49 66 -14 85 -57 113 -94 61z"/>
<path d="M4044 7568 c-9 -14 22 -37 58 -45 15 -3 25 -9 23 -13 -3 -5 1 -10 7
-13 9 -3 7 -11 -8 -28 -30 -33 -51 -81 -46 -102 5 -24 36 -18 40 8 7 38 51 85
77 83 13 -1 22 -4 20 -6 -7 -7 115 -112 130 -112 16 0 21 36 6 42 -5 2 -37 29
-71 61 l-63 58 28 29 c26 27 27 50 1 50 -7 0 -25 -13 -40 -29 l-28 -29 -48 29
c-50 31 -75 36 -86 17z"/>
<path d="M6306 7514 c-67 -69 -73 -152 -10 -147 42 3 60 41 24 50 -11 3 -20 9
-20 14 0 17 62 78 83 81 34 5 27 33 -9 36 -26 3 -39 -4 -68 -34z"/>
<path d="M4410 7525 c-15 -18 -7 -100 11 -121 14 -17 49 -19 49 -3 0 6 -5 20
-11 31 -6 11 -11 35 -11 54 0 41 -20 61 -38 39z"/>
<path d="M3864 7515 c-10 -26 10 -90 30 -93 26 -5 40 12 27 34 -5 11 -12 31
-16 47 -6 29 -32 37 -41 12z"/>
<path d="M6492 7495 c-30 -38 -37 -81 -18 -110 20 -31 30 -31 85 0 23 14 45
25 47 25 2 0 4 -11 4 -24 0 -38 10 -56 32 -56 17 0 19 6 17 53 -1 28 1 64 5
78 11 40 -16 43 -61 7 -21 -16 -50 -36 -65 -44 -26 -13 -28 -13 -28 4 0 27 22
50 50 54 40 5 31 32 -11 36 -30 2 -41 -2 -57 -23z"/>
<path d="M3320 7406 c-87 -24 -101 -34 -76 -56 13 -10 25 -9 63 4 27 9 66 20
88 26 30 7 41 15 42 30 2 25 -8 25 -117 -4z"/>
<path d="M9802 11223 c1054 -2 2782 -2 3840 0 1058 1 195 2 -1917 2 -2112 0
-2977 -1 -1923 -2z"/>
<path d="M12805 10977 c-8 -4 -15 -14 -15 -21 0 -18 148 -28 169 -12 10 8 15
8 18 -1 3 -7 13 -13 23 -13 26 0 30 -19 30 -144 l0 -112 -107 -16 c-60 -9
-123 -14 -140 -11 -25 4 -34 1 -39 -12 -4 -10 -1 -21 7 -25 15 -10 122 -5 209
9 44 7 57 6 63 -5 14 -24 37 -16 44 16 6 33 23 51 23 26 0 -9 9 -16 20 -16 14
0 18 5 13 16 -5 14 -3 14 14 4 27 -17 75 -5 71 18 -4 18 -16 19 -90 9 l-48 -7
2 126 3 125 190 -3 c184 -3 190 -2 190 17 0 17 -8 20 -59 23 -39 2 -62 -1 -67
-9 -6 -10 -11 -10 -21 -1 -9 7 -69 11 -163 12 -83 0 -189 4 -238 8 -48 4 -94
4 -102 -1z"/>
<path d="M10418 10905 c-30 -17 -68 -73 -68 -102 0 -43 47 -56 100 -28 l30 16
0 -59 c0 -67 19 -102 55 -102 19 0 23 4 18 18 -4 9 -10 19 -14 22 -11 7 -29
90 -20 90 4 0 8 27 8 60 1 53 -2 63 -24 80 -30 23 -48 24 -85 5z m69 -52 c3
-9 -74 -53 -94 -53 -7 0 16 38 33 55 18 18 55 17 61 -2z"/>
<path d="M11445 10888 c-32 -18 -43 -39 -35 -67 6 -23 23 -39 86 -77 15 -10
17 -16 8 -30 -19 -32 -41 -40 -76 -26 -21 8 -36 8 -42 2 -17 -17 -54 -11 -61
10 -8 26 -37 41 -56 29 -27 -17 -31 -9 -27 54 4 85 -15 82 -65 -8 -21 -39 -67
-99 -103 -136 -46 -47 -63 -70 -58 -82 6 -16 -51 -17 -842 -16 -790 1 -846 2
-801 17 56 19 127 80 127 110 0 23 -38 64 -52 56 -4 -3 -8 0 -8 7 0 6 -10 10
-23 7 -13 -2 -29 1 -35 9 -7 7 -21 13 -32 13 -45 0 -29 32 23 44 33 8 34 39 1
44 -22 3 -81 -33 -98 -60 -21 -34 22 -66 109 -82 35 -6 65 -25 65 -40 0 -26
-76 -68 -130 -71 -28 -1 -53 -5 -56 -8 -3 -3 4 -15 15 -26 l21 -21 -713 -3
c-391 -1 1021 -2 3138 -2 2118 0 2834 1 1592 2 -1917 3 -2258 5 -2255 17 2 7
33 45 70 84 57 60 68 69 79 56 7 -8 24 -14 38 -12 18 2 33 -5 49 -24 13 -16
32 -28 42 -28 30 0 50 11 43 24 -5 7 -2 7 8 -1 26 -21 96 -19 126 3 61 46 49
105 -28 144 -46 24 -47 41 -1 55 42 12 45 45 5 45 -16 0 -37 -6 -48 -12z"/>
<path d="M11907 10869 c-15 -24 -20 -55 -18 -116 1 -26 5 -33 21 -33 17 0 20
7 20 49 0 76 5 83 45 66 27 -11 36 -11 44 -1 15 18 -17 45 -62 53 -29 4 -37 1
-50 -18z"/>
<path d="M11638 10850 c-51 -40 -59 -124 -15 -155 44 -30 164 -10 143 24 -6 8
-21 10 -47 6 -45 -8 -79 1 -79 20 0 7 12 16 28 20 39 10 92 44 92 60 0 17 -23
30 -66 39 -22 5 -37 2 -56 -14z"/>
<path d="M9051 10813 c-17 -21 -38 -57 -47 -80 -15 -39 -15 -44 0 -68 20 -30
39 -31 89 -5 20 11 38 20 40 20 2 0 1 -15 -1 -34 -5 -43 23 -64 54 -41 17 12
17 17 6 35 -11 18 -11 28 -1 54 7 17 19 35 26 39 33 20 -56 117 -107 117 -21
0 -37 -10 -59 -37z m98 -32 c5 -9 5 -25 0 -36 -4 -11 -8 -17 -8 -13 -1 4 -17
-4 -37 -17 -20 -14 -43 -25 -50 -25 -25 0 -9 56 24 88 33 32 55 33 71 3z"/>
<path d="M10973 10368 c-26 -34 -18 -73 12 -61 16 6 28 -60 23 -127 -3 -41 -6
-45 -36 -54 -47 -13 -94 -60 -90 -88 4 -30 32 -30 36 0 2 12 5 22 6 22 2 0 21
7 41 16 l38 16 -6 -53 c-4 -28 -14 -63 -23 -76 -18 -28 -7 -50 20 -40 19 7 39
54 32 73 -3 7 0 14 5 16 6 2 13 22 16 46 6 48 3 47 116 43 38 -1 38 -1 32 -35
-6 -29 -3 -37 19 -51 29 -19 97 -13 116 10 18 21 -116 148 -141 135 -10 -6
-44 -10 -77 -10 l-59 0 -1 68 c-2 91 -22 156 -48 160 -12 2 -25 -3 -31 -10z
m282 -308 c3 -5 1 -10 -4 -10 -6 0 -11 5 -11 10 0 6 2 10 4 10 3 0 8 -4 11
-10z"/>
<path d="M13310 10335 c-8 -9 -14 -73 -17 -172 -4 -164 3 -208 37 -208 12 0
14 13 10 70 -7 97 -6 179 2 252 6 48 4 62 -7 67 -7 2 -19 -2 -25 -9z m10 -195
c0 -5 -2 -10 -4 -10 -3 0 -8 5 -11 10 -3 6 -1 10 4 10 6 0 11 -4 11 -10z"/>
<path d="M13795 10316 c-8 -19 -15 -51 -15 -71 l0 -35 -47 0 c-68 0 -93 -9
-93 -32 0 -19 4 -20 66 -13 58 6 68 5 85 -13 10 -11 14 -22 9 -24 -12 -4 28
-160 43 -170 6 -4 16 -3 23 3 8 6 5 32 -13 96 -28 108 -28 111 0 115 32 4 28
32 -5 36 -26 3 -27 5 -21 45 10 66 9 90 -5 94 -7 3 -19 -10 -27 -31z"/>
<path d="M9730 10287 c0 -7 7 -22 15 -33 8 -10 15 -27 15 -36 0 -9 5 -29 12
-45 19 -47 19 -62 -1 -82 -15 -15 -21 -16 -35 -5 -16 12 -16 13 1 17 10 3 2 5
-18 6 -35 1 -69 -22 -69 -46 0 -17 24 -22 43 -8 9 6 34 11 54 9 21 -2 42 -3
47 -3 4 -1 7 -44 5 -98 -3 -68 -1 -97 8 -100 20 -7 32 32 34 110 1 75 2 75 31
81 36 7 37 43 1 38 -12 -2 -25 3 -29 10 -10 15 -38 100 -49 143 -3 16 -11 36
-17 42 -14 17 -48 17 -48 0z"/>
<path d="M8759 10166 c-105 -40 -109 -42 -109 -67 0 -15 5 -20 23 -17 12 2 21
9 19 17 -1 7 3 11 10 8 7 -2 42 6 77 19 35 13 70 24 78 24 17 0 14 -11 -28
-119 -25 -63 -28 -77 -16 -88 11 -11 19 -11 50 2 53 22 70 19 104 -20 38 -42
73 -46 108 -10 30 29 31 45 5 78 -11 14 -20 35 -20 46 0 16 -6 21 -26 21 -24
0 -26 -3 -20 -32 3 -17 13 -39 21 -48 8 -9 15 -22 15 -28 0 -23 -37 -12 -64
19 -25 28 -33 30 -75 27 l-48 -3 24 60 c15 37 23 76 21 100 -3 37 -6 40 -33
42 -16 1 -68 -13 -116 -31z"/>
<path d="M13088 10169 c-21 -10 -49 -36 -62 -56 -14 -20 -39 -42 -56 -49 -34
-15 -38 -38 -13 -67 11 -12 20 -42 23 -83 l5 -64 -2555 -3 -2555 -2 2556 -3
2556 -2 12 -26 c14 -31 45 -29 49 4 l3 22 1262 3 1262 2 -1260 3 -1260 2 -13
53 c-18 78 -17 81 38 104 32 14 50 27 50 38 0 11 5 15 15 12 20 -8 55 39 55
73 0 50 -54 69 -112 39z m72 -37 c0 -18 -34 -54 -70 -72 -50 -26 -51 -26 -38
11 6 17 25 39 42 50 32 19 66 25 66 11z"/>
<path d="M14114 10176 c-91 -29 -140 -112 -94 -161 42 -45 295 -84 295 -45 0
15 -39 25 -128 32 -26 2 -50 7 -53 11 -4 4 -17 7 -30 7 -12 0 -31 8 -43 18
-18 15 -19 20 -8 42 15 31 71 60 115 60 45 0 44 -34 -3 -61 -41 -25 -46 -49
-10 -49 31 0 82 46 91 82 4 21 0 33 -20 52 -28 29 -51 31 -112 12z"/>
<path d="M12025 10161 c-87 -54 -106 -139 -38 -175 35 -18 123 -32 123 -19 0
5 12 9 28 8 30 0 39 27 10 33 -10 2 -18 -1 -18 -7 0 -6 -5 -11 -11 -11 -5 0
-7 5 -3 12 5 8 2 9 -10 5 -19 -7 -80 6 -105 22 -12 8 -13 16 -2 49 7 21 18 39
25 40 6 0 21 4 34 7 17 6 22 3 22 -9 0 -9 7 -19 16 -23 34 -13 48 59 15 77
-28 15 -52 12 -86 -9z"/>
<path d="M12325 10168 c-40 -23 -84 -90 -84 -128 0 -53 53 -85 125 -74 101 15
136 76 73 129 -18 14 -39 24 -48 23 -25 -5 -41 14 -23 28 16 12 9 34 -11 34
-7 0 -21 -6 -32 -12z m82 -104 l27 -17 -23 -18 c-15 -12 -39 -19 -67 -19 -49
0 -61 13 -50 56 6 24 10 26 47 21 22 -3 52 -13 66 -23z"/>
<path d="M13413 10119 c-44 -67 -32 -137 30 -170 24 -13 87 0 87 17 0 18 -41
35 -56 23 -7 -6 -17 -2 -28 10 -16 18 -15 19 21 24 81 13 105 59 58 110 -40
42 -78 37 -112 -14z m67 -47 c-45 -18 -55 -11 -30 21 22 27 23 27 42 10 20
-18 19 -18 -12 -31z"/>
<path d="M12570 10091 c-17 -43 -4 -111 21 -111 11 0 22 7 25 15 5 11 10 12
25 2 17 -10 23 -9 35 7 8 11 14 16 14 12 0 -4 20 7 44 24 25 16 47 30 50 30 3
0 6 -11 6 -25 0 -31 37 -55 46 -30 4 9 3 35 -2 58 -7 33 -14 43 -32 45 -22 3
-112 -45 -112 -60 0 -5 -9 -8 -21 -8 -13 0 -25 11 -35 35 -18 44 -47 47 -64 6z"/>
<path d="M9248 10103 c-33 -5 -78 -56 -78 -88 0 -33 26 -50 75 -47 30 1 45 -3
49 -13 7 -20 32 -19 40 0 6 15 -10 54 -28 66 -5 4 -24 2 -43 -3 -39 -11 -48
-6 -39 17 8 22 47 34 75 23 31 -11 50 5 35 30 -11 18 -39 23 -86 15z"/>
<path d="M9440 10063 c-8 -3 -27 -17 -42 -31 -31 -29 -38 -79 -13 -89 20 -7
28 1 30 29 1 12 11 28 22 35 20 14 23 12 42 -31 14 -33 24 -44 35 -40 21 8 20
23 -3 77 -15 35 -41 62 -54 56 -1 0 -9 -3 -17 -6z"/>
<path d="M10547 9688 c-2 -7 0 -20 4 -30 10 -20 12 -188 3 -276 -9 -83 3 -95
51 -53 20 17 38 31 41 31 2 0 9 -11 14 -25 16 -41 100 -63 100 -26 0 12 -9 21
-26 25 -16 4 -30 19 -40 41 -15 37 -38 44 -75 25 -18 -10 -19 -7 -15 112 3 89
0 132 -9 156 -14 32 -39 43 -48 20z"/>
<path d="M11860 9599 l-45 -91 -52 7 c-50 6 -52 5 -48 -16 3 -13 -2 -30 -11
-40 -20 -23 -32 -69 -24 -99 5 -18 -1 -35 -19 -60 -14 -19 -28 -37 -32 -40
-18 -16 -39 -58 -39 -77 l0 -23 -220 0 -220 0 0 43 c0 24 -5 48 -11 54 -8 8
-8 13 0 17 6 4 11 18 11 30 0 20 7 25 41 30 47 8 99 53 99 86 0 34 -46 73 -77
65 -37 -9 -71 -36 -85 -68 -7 -15 -18 -25 -25 -23 -30 12 -32 -28 -7 -132 8
-34 12 -72 9 -82 -6 -20 -27 -20 -1613 -23 l-1607 -2 1607 -3 1607 -2 3 -27
c4 -38 27 -41 41 -4 l11 31 2206 2 c1374 2 1726 4 934 5 -1082 3 -1273 5
-1277 17 -3 8 7 34 23 59 l28 44 51 -5 c45 -4 51 -2 51 14 0 16 2 16 10 4 8
-13 13 -12 37 6 67 50 86 114 47 154 -13 13 -16 13 -24 0 -8 -13 -10 -13 -10
-1 0 8 18 36 40 62 69 82 43 112 -29 33 -41 -44 -44 -45 -87 -38 -24 3 -44 10
-44 14 0 4 -10 10 -22 13 -26 7 -88 -50 -88 -81 0 -17 4 -19 43 -11 23 5 60
11 81 15 l39 7 -33 -47 c-52 -72 -57 -74 -77 -29 -10 21 -18 39 -19 41 -5 11
-34 -14 -34 -30 0 -12 4 -17 12 -12 7 5 9 2 5 -9 -3 -9 2 -26 12 -39 19 -22
19 -23 -9 -58 -36 -46 -50 -74 -50 -99 l0 -21 -669 0 c-632 0 -669 1 -666 18
2 9 4 20 4 24 1 4 19 28 42 54 38 44 45 48 88 48 58 1 120 33 145 75 16 27 17
36 6 56 -7 13 -26 29 -42 36 -16 6 -27 14 -26 18 2 3 23 44 46 90 24 46 41 89
38 97 -12 32 -34 9 -76 -77z m-89 -156 c-6 -10 -19 -29 -30 -43 -17 -21 -21
-22 -21 -7 0 10 11 29 25 42 28 29 40 32 26 8z m109 -32 c0 -25 -103 -80 -115
-61 -3 5 9 29 27 53 32 43 34 44 61 30 15 -7 27 -17 27 -22z m-640 9 c0 -21
-18 -33 -63 -44 -25 -6 -27 -5 -18 13 27 50 81 71 81 31z m2000 -18 c0 -25
-27 -60 -60 -77 -28 -15 -70 -20 -70 -10 0 3 21 32 47 65 39 48 50 57 65 49
10 -5 18 -18 18 -27z m-70 24 c0 -3 -4 -8 -10 -11 -5 -3 -10 -1 -10 4 0 6 5
11 10 11 6 0 10 -2 10 -4z"/>
<path d="M11958 9546 c-46 -14 -61 -28 -52 -49 7 -20 23 -21 48 -2 11 8 15 19
10 27 -6 10 -5 10 9 0 11 -10 29 -12 56 -7 37 6 74 -3 72 -19 0 -3 -12 -19
-26 -34 -14 -15 -25 -31 -25 -37 -1 -5 -27 -30 -60 -55 -54 -41 -73 -71 -52
-84 11 -7 82 15 82 25 0 4 33 7 74 5 l74 -2 -17 23 c-12 17 -26 22 -59 23
l-42 0 39 50 c77 97 61 151 -43 149 -28 -1 -68 -6 -88 -13z"/>
<path d="M13450 9525 c0 -15 32 -37 53 -34 22 2 58 -13 54 -24 -2 -8 -89 -58
-121 -70 -18 -6 5 -43 44 -67 22 -13 42 -30 44 -37 15 -37 -119 -64 -214 -44
-63 14 -82 3 -51 -28 18 -18 33 -21 114 -21 111 0 160 12 181 45 25 37 19 64
-19 101 l-36 33 41 21 c22 11 47 31 56 45 15 22 15 27 1 48 -25 38 -147 65
-147 32z"/>
<path d="M10174 9451 c-44 -20 -74 -54 -74 -84 0 -32 54 -77 92 -77 19 0 39
-5 45 -11 6 -6 45 -13 88 -16 72 -6 77 -5 73 13 -2 13 -13 20 -33 22 -43 3
-177 34 -197 44 -31 15 -21 47 18 66 36 17 37 17 52 -6 18 -28 42 -29 42 -2 0
20 -41 70 -57 70 -4 0 -27 -9 -49 -19z"/>
<path d="M12490 9452 c-39 -19 -53 -52 -23 -52 11 0 24 5 30 11 6 6 31 12 55
12 46 1 63 14 46 34 -15 18 -67 16 -108 -5z"/>
<path d="M10865 9431 c-53 -24 -77 -53 -73 -87 5 -44 29 -52 88 -27 l50 21 15
-34 c17 -41 55 -49 55 -11 0 13 -4 27 -8 33 -5 5 -15 28 -22 52 -12 37 -41 73
-60 72 -3 0 -23 -9 -45 -19z m55 -39 c0 -10 -65 -42 -83 -42 -19 1 46 50 66
50 9 0 17 -4 17 -8z"/>
<path d="M8132 8937 c-5 -7 -25 -42 -46 -79 -33 -60 -40 -68 -67 -68 -16 0
-40 7 -52 15 -27 17 -88 6 -119 -22 -82 -74 -75 -239 14 -289 14 -8 10 -18
-33 -81 -31 -46 -48 -82 -47 -98 3 -29 23 -33 33 -7 3 9 29 52 58 95 39 58 57
77 74 77 25 0 29 10 11 28 -8 8 -8 12 -1 12 6 0 14 -7 17 -16 8 -20 51 -12
121 23 87 44 143 111 131 159 -7 26 -65 69 -108 79 -30 8 -34 15 -19 31 12 12
81 134 81 143 0 12 -38 10 -48 -2z m-178 -183 c4 -10 13 -13 26 -9 12 4 27 1
35 -5 16 -14 21 -35 6 -25 -5 3 -31 -36 -58 -86 -26 -50 -53 -94 -60 -96 -38
-15 -76 55 -71 129 2 34 7 43 45 84 25 27 68 32 77 8z m214 -57 c49 -38 -58
-137 -175 -162 l-33 -7 52 105 51 105 46 -16 c25 -8 52 -19 59 -25z"/>
<path d="M9434 8875 c-9 -23 3 -45 26 -45 23 0 27 29 8 48 -16 16 -27 15 -34
-3z"/>
<path d="M8452 8868 c-38 -19 -23 -43 25 -40 60 3 73 -18 39 -63 -15 -19 -45
-49 -66 -67 -36 -28 -52 -57 -32 -59 4 0 24 -1 44 -3 20 -2 49 -11 64 -21 24
-16 25 -18 10 -27 -27 -15 -41 -16 -168 -17 -110 -1 -118 -2 -118 -20 0 -25
32 -28 187 -20 121 6 153 19 153 64 0 24 -34 59 -67 70 -13 3 -23 10 -23 14 0
4 18 26 40 50 59 64 52 121 -18 141 -43 12 -41 12 -70 -2z"/>
<path d="M10683 8836 c-23 -8 -63 -17 -89 -21 -26 -4 -59 -12 -73 -17 -14 -6
-37 -13 -51 -15 -13 -2 -30 -9 -36 -14 -16 -13 -44 -100 -44 -135 0 -21 4 -25
20 -21 19 5 20 0 20 -63 0 -61 -2 -68 -18 -63 -25 6 -47 -20 -29 -35 9 -8 32
-7 82 3 38 8 104 18 146 21 87 8 105 15 95 39 -5 14 -14 16 -49 12 -23 -4 -72
-9 -109 -13 l-68 -6 0 51 0 51 74 0 c54 0 75 4 79 14 10 25 -16 36 -90 36 -70
0 -73 1 -73 23 0 13 -5 28 -12 35 -18 18 34 33 270 78 17 4 22 10 20 26 -4 27
-14 29 -65 14z"/>
<path d="M10893 8834 c-3 -9 -1 -37 5 -63 12 -49 26 -128 27 -148 0 -6 4 -15
8 -19 4 -4 2 -13 -4 -20 -16 -19 0 -64 23 -64 20 0 20 4 14 87 -4 48 -10 91
-13 96 -3 5 -7 30 -8 57 -5 74 -35 116 -52 74z"/>
<path d="M11057 8813 c-12 -11 -7 -33 8 -39 20 -8 45 13 38 32 -5 14 -34 19
-46 7z"/>
<path d="M11540 8805 c-10 -12 -10 -18 0 -30 16 -19 39 -19 46 0 6 15 -11 45
-26 45 -4 0 -13 -7 -20 -15z"/>
<path d="M11793 8736 c-40 -34 -65 -107 -61 -178 3 -45 6 -53 23 -53 17 0 19
7 20 60 1 80 29 139 69 143 16 2 33 -1 39 -7 15 -15 47 -14 47 2 0 22 -35 47
-72 53 -27 5 -40 1 -65 -20z"/>
<path d="M11403 8733 c-7 -2 -13 -15 -13 -28 0 -37 -18 -39 -56 -6 -39 35 -52
38 -61 15 -4 -11 5 -27 27 -47 l32 -30 -57 -53 c-53 -49 -63 -74 -30 -74 7 0
35 20 63 45 l50 45 18 -27 c43 -67 71 -93 98 -93 35 0 40 15 11 30 -24 13 -85
97 -85 117 0 5 9 18 20 28 14 13 20 29 18 49 -3 30 -13 38 -35 29z"/>
<path d="M9563 8614 c-56 -59 -64 -78 -35 -89 11 -4 22 1 32 16 25 38 61 79
70 79 4 0 11 -17 15 -37 14 -74 53 -119 69 -78 3 8 0 15 -7 15 -7 0 -12 14
-13 33 -1 17 -6 51 -13 75 -17 62 -49 59 -118 -14z"/>
<path d="M11545 8651 c-3 -6 1 -21 9 -33 9 -12 16 -35 16 -49 0 -40 10 -59 31
-59 15 0 19 7 19 38 0 66 -52 138 -75 103z"/>
<path d="M9405 8630 c-3 -5 -1 -18 5 -29 5 -11 10 -38 10 -60 0 -34 3 -41 19
-41 11 0 22 9 26 20 7 23 -4 90 -18 108 -11 14 -33 16 -42 2z"/>
<path d="M11051 8607 c-14 -14 -14 -74 -1 -82 19 -12 41 17 38 51 -2 36 -19
49 -37 31z"/>
<path d="M7360 8591 c-26 -4 -35 -11 -35 -26 0 -16 6 -19 30 -17 17 2 59 7 94
10 50 6 65 11 67 25 2 15 -6 17 -59 16 -34 -1 -78 -4 -97 -8z"/>
<path d="M13565 8522 c-16 -11 -40 -30 -52 -44 -27 -29 -68 -140 -85 -233
l-13 -66 -40 2 c-53 4 -69 -6 -54 -32 9 -17 17 -19 50 -14 l39 7 0 -79 c0 -97
7 -123 31 -123 17 0 18 8 16 94 -2 87 0 96 22 120 23 25 23 56 0 56 -15 0 -7
53 22 144 28 92 88 152 138 139 19 -5 22 -2 19 18 -4 31 -51 37 -93 11z"/>
<path d="M12391 8307 c-9 -12 -8 -37 5 -118 35 -218 23 -269 -71 -300 -86 -29
-102 5 -33 71 35 33 40 43 28 50 -22 14 -25 13 -64 -24 -33 -31 -36 -32 -36
-12 0 33 -28 66 -55 66 -22 0 -123 -72 -152 -108 -20 -24 -16 -52 7 -52 11 0
20 4 20 10 0 16 121 111 132 104 6 -4 8 -24 5 -49 -4 -30 -2 -47 7 -54 7 -6
16 -8 19 -4 4 3 7 -1 7 -10 0 -20 37 -47 65 -47 79 0 168 67 181 137 9 46 -24
323 -41 341 -10 11 -14 10 -24 -1z"/>
<path d="M10484 8296 c-3 -8 1 -25 9 -38 8 -13 23 -48 33 -80 9 -31 22 -55 28
-54 6 2 8 1 4 -1 -5 -3 -8 -21 -8 -42 0 -46 -27 -141 -40 -141 -16 0 -11 -37
7 -51 31 -27 170 -3 213 36 15 13 19 12 40 -10 13 -14 29 -25 37 -25 18 0 17
-6 -18 -66 l-30 -54 -1331 0 -1330 0 4 24 c6 32 -6 51 -26 43 -10 -4 -16 -18
-16 -36 l0 -30 -87 -4 -88 -3 86 -2 85 -2 -7 -57 c-4 -32 -13 -98 -20 -146
-15 -99 -8 -114 39 -96 36 14 176 13 218 -1 25 -9 39 -9 46 -2 34 34 -82 68
-197 59 l-70 -5 20 124 19 124 1329 0 c891 0 1326 -3 1322 -10 -11 -18 6 -50
26 -50 14 0 19 7 19 30 l0 30 2383 2 2382 3 -2378 2 -2378 3 30 53 c17 30 28
57 24 60 -3 4 5 16 18 28 13 11 17 17 9 13 -8 -4 0 8 18 26 36 38 39 48 17 56
-9 4 -31 -8 -56 -31 -22 -20 -48 -35 -57 -33 -9 2 -26 22 -37 45 l-19 42 -58
-4 c-33 -2 -64 -7 -71 -13 -37 -28 -43 -22 -39 43 4 63 -18 155 -55 228 -15
29 -40 36 -49 13z m226 -327 c0 -12 -61 -39 -108 -47 -44 -7 -36 10 16 38 40
21 92 26 92 9z m-2643 -341 c-3 -8 -6 -5 -6 6 -1 11 2 17 5 13 3 -3 4 -12 1
-19z"/>
<path d="M13198 8078 c-35 -61 -38 -74 -27 -107 14 -40 39 -46 93 -23 52 23
70 52 62 95 -11 53 -33 77 -70 77 -30 0 -37 -6 -58 -42z m85 -52 c-2 -3 -3
-16 -3 -28 0 -15 -3 -19 -8 -11 -5 8 -13 9 -22 3 -39 -25 -54 6 -24 48 14 21
18 22 37 9 12 -8 21 -17 20 -21z"/>
<path d="M11809 8005 c-84 -55 -114 -128 -65 -160 47 -31 155 -18 181 22 12
17 14 28 7 35 -14 14 -65 1 -59 -15 3 -8 -9 -13 -35 -15 -45 -3 -78 5 -78 18
0 19 62 79 93 89 30 10 31 10 12 -5 -11 -8 -19 -20 -17 -25 1 -6 -2 -8 -8 -4
-14 9 -50 -13 -50 -31 0 -27 27 -25 79 7 54 34 73 68 51 94 -18 22 -70 17
-111 -10z"/>
<path d="M7476 7861 c-4 -5 -3 -16 0 -24 7 -18 90 -28 118 -14 12 6 16 6 12
-1 -3 -6 -2 -14 4 -17 6 -4 -8 -19 -32 -34 -24 -15 -56 -42 -71 -61 -35 -41
-70 -108 -62 -119 3 -5 1 -11 -5 -13 -5 -1 -13 -24 -16 -50 -6 -43 -4 -49 25
-78 30 -30 33 -31 88 -25 32 4 91 18 132 30 77 25 92 24 124 -8 18 -18 20 -18
35 -3 16 15 15 18 -11 39 l-28 22 33 31 c42 40 70 116 60 164 -15 70 -112 120
-297 155 -94 18 -102 18 -109 6z m264 -86 c17 -9 30 -14 30 -11 0 2 16 -10 35
-27 37 -33 44 -62 24 -114 -12 -33 -58 -83 -75 -83 -7 0 -35 14 -63 31 -28 18
-57 29 -66 26 -19 -8 -19 -37 -1 -62 11 -15 17 -17 27 -8 11 9 19 8 32 -2 17
-12 13 -15 -40 -30 -32 -9 -70 -23 -85 -30 -16 -8 -28 -10 -28 -4 0 5 -11 7
-24 3 -60 -15 -43 120 26 209 35 44 112 92 134 83 11 -4 18 1 21 14 6 24 15
25 53 5z"/>
<path d="M10422 7671 c-11 -7 -7 -31 22 -120 19 -62 38 -128 42 -148 l7 -35
-99 3 c-87 4 -99 2 -102 -13 -4 -22 18 -27 123 -30 l80 -3 -3 -40 c-2 -22 -9
-46 -15 -53 -13 -17 4 -35 29 -30 20 4 32 34 33 91 l1 37 49 0 c30 0 53 5 60
14 17 21 -3 30 -64 31 -46 0 -50 2 -53 25 -5 42 -73 254 -86 267 -6 7 -17 9
-24 4z m79 -244 c-10 -9 -11 -8 -5 6 3 10 9 15 12 12 3 -3 0 -11 -7 -18z"/>
<path d="M11756 7565 c-14 -15 -36 -49 -50 -76 -13 -28 -27 -45 -31 -39 -11
17 -61 11 -80 -10 -20 -22 -33 -113 -18 -132 18 -25 5 -57 -56 -142 l-62 -86
-997 0 c-899 1 -999 2 -1017 17 -16 13 -17 15 -2 10 14 -5 17 0 17 31 0 45
-13 67 -34 59 -10 -4 -16 -1 -16 7 0 9 7 12 20 9 26 -7 72 5 65 17 -3 5 -1 11
5 15 5 3 10 1 10 -5 0 -11 74 22 100 46 14 12 16 9 18 -17 1 -17 7 -39 12 -49
14 -26 58 -34 86 -15 32 21 21 46 -20 42 -27 -2 -31 1 -34 26 -2 16 4 40 13
54 14 21 22 24 52 20 41 -7 58 17 28 39 -26 19 -59 17 -85 -4 -21 -17 -23 -17
-59 20 -34 34 -42 37 -92 36 -59 0 -93 -13 -83 -30 4 -6 3 -8 -4 -4 -14 9 -47
-40 -61 -90 -12 -46 -13 -58 -11 -161 l1 -73 -65 0 -66 0 30 31 c57 60 36 92
-78 119 -30 7 -56 19 -59 27 -8 19 37 57 106 90 51 25 55 25 67 8 7 -10 15
-23 17 -29 3 -7 11 -5 22 5 16 15 16 19 1 48 -13 25 -23 31 -49 31 -45 0 -124
-40 -175 -88 -35 -32 -43 -46 -40 -69 3 -32 33 -50 112 -67 70 -16 73 -39 11
-67 -46 -21 -78 -21 -147 -4 -24 6 -28 4 -28 -14 l0 -21 -577 0 c-317 0 -574
-2 -572 -5 3 -2 341 -5 751 -6 l746 -1 4 -60 c7 -100 54 -120 64 -27 3 24 7
54 10 67 l4 22 1000 0 999 0 -24 -36 c-29 -42 -32 -69 -9 -78 20 -8 34 1 34
21 0 8 10 33 22 54 l22 39 2030 2 2031 3 -2028 2 -2029 3 24 29 c12 16 36 48
51 71 24 34 32 39 50 33 35 -13 112 -6 148 13 30 15 55 16 220 11 157 -5 189
-4 207 9 42 29 20 84 -53 130 l-43 28 29 30 c38 40 49 94 24 113 -40 29 -155
9 -155 -28 0 -23 24 -31 47 -14 10 8 30 15 46 15 40 0 35 -28 -13 -75 -22 -21
-40 -44 -40 -50 0 -5 20 -21 44 -33 24 -13 56 -37 72 -53 l28 -29 -25 -1 c-13
0 -90 -2 -171 -2 l-148 -2 0 32 c0 38 -33 68 -85 77 -20 4 -38 13 -41 21 -8
19 42 112 67 125 13 7 19 19 17 32 -5 32 -25 33 -52 3z m-101 -155 c3 -6 -1
-7 -9 -4 -18 7 -21 14 -7 14 6 0 13 -4 16 -10z m-2070 -33 c26 -22 26 -23 8
-45 -10 -12 -44 -34 -75 -50 -32 -16 -56 -31 -54 -33 2 -2 -9 -4 -25 -4 -16 0
-29 5 -29 10 0 31 23 84 49 113 37 40 86 44 126 9z m2053 -28 c-2 -6 -8 -10
-13 -10 -5 0 -11 4 -13 10 -2 6 4 11 13 11 9 0 15 -5 13 -11z m130 -11 c17 -5
32 -14 32 -19 0 -5 0 -12 0 -16 1 -5 -13 -11 -29 -14 -17 -4 -28 -2 -25 2 3 5
-4 9 -15 9 -26 0 -28 -25 -3 -39 14 -9 12 -11 -13 -12 -68 -3 -84 8 -60 44 9
15 14 31 11 36 -4 5 1 14 10 19 17 10 34 8 92 -10z m-2348 -232 c-13 -35 -18
-33 -14 7 1 17 3 37 4 42 0 6 5 2 10 -7 7 -11 7 -25 0 -42z"/>
<path d="M9872 7508 c-16 -16 -15 -48 1 -48 19 0 50 37 42 49 -8 14 -28 14
-43 -1z"/>
<path d="M10058 7375 c-54 -37 -117 -177 -87 -196 17 -10 39 8 39 33 0 33 49
113 81 132 29 17 29 17 40 -11 7 -20 7 -45 -2 -90 -13 -65 -10 -79 15 -70 37
15 48 158 15 201 -26 33 -54 33 -101 1z"/>
<path d="M9844 7245 c-4 -8 -1 -22 6 -30 17 -20 40 -2 33 25 -6 24 -31 26 -39
5z"/>
<path d="M13805 6889 c-22 -16 -68 -57 -102 -90 l-62 -61 -27 27 -27 27 24 19
c13 10 32 19 41 19 21 0 30 14 22 34 -9 24 -36 19 -82 -14 -52 -38 -54 -66 -9
-117 l33 -38 -17 -35 c-20 -39 -24 -102 -9 -130 16 -30 73 -44 108 -26 43 22
55 42 54 93 0 38 -6 51 -36 82 l-36 37 62 60 c35 32 78 71 97 85 24 18 33 30
28 42 -9 23 -15 21 -62 -14z m-95 -296 c0 -26 -6 -36 -26 -45 -53 -24 -75 28
-44 103 l13 30 28 -27 c21 -20 29 -37 29 -61z"/>
<path d="M10440 6874 c-6 -14 -10 -29 -10 -32 0 -4 -16 -38 -35 -74 l-36 -67
-69 6 c-66 6 -70 5 -99 -24 -61 -62 -61 -168 0 -216 28 -21 29 -26 18 -50
l-12 -27 -1161 -2 -1161 -3 1157 -2 1156 -3 -21 -50 c-19 -46 -20 -52 -5 -66
19 -19 38 -11 38 17 0 11 9 38 20 59 l20 40 1410 0 c1221 0 1410 -2 1410 -14
0 -26 22 -30 39 -7 l16 21 1230 3 1230 2 -1232 3 -1233 2 1 28 c0 15 6 49 12
77 11 46 15 50 47 55 107 18 132 106 46 162 -39 25 -40 45 -6 103 20 34 16 55
-10 55 -12 0 -25 -17 -41 -54 l-22 -54 -34 16 c-30 14 -35 14 -49 1 -13 -14
-13 -17 0 -28 13 -11 13 -16 -6 -41 -28 -38 -20 -101 17 -140 19 -19 25 -34
21 -48 -4 -11 -8 -33 -10 -48 -2 -16 -7 -41 -11 -56 l-7 -28 -1404 0 c-929 0
-1404 3 -1404 10 0 19 39 49 79 60 21 5 53 23 70 39 17 16 32 26 35 24 2 -3
12 10 21 27 21 40 13 74 -24 109 l-29 27 45 93 c25 51 42 99 39 107 -9 23 -36
16 -46 -12z m2685 -187 c-3 -12 -7 -35 -8 -51 -3 -38 -24 -45 -37 -11 -14 36
-13 38 11 69 23 30 42 26 34 -7z m81 -22 c13 -14 21 -32 18 -39 -5 -14 -61
-42 -69 -35 -5 6 15 99 22 99 3 0 16 -11 29 -25z m-2956 -19 c0 -20 24 -36 39
-26 8 4 11 15 8 24 -5 12 0 16 19 16 l26 0 -44 -82 c-24 -46 -51 -84 -60 -86
-22 -4 -51 41 -50 78 1 37 29 90 47 90 8 0 15 -6 15 -14z m170 -57 c0 -17 -63
-79 -81 -79 -5 0 -14 -10 -19 -22 -7 -18 -9 -19 -9 -5 -1 10 15 49 35 88 34
69 36 70 55 53 10 -9 19 -25 19 -35z"/>
<path d="M13376 6853 c-28 -29 -35 -78 -30 -226 6 -186 8 -197 35 -197 20 0
21 2 13 180 -6 165 -5 182 11 200 15 16 15 22 5 35 -14 17 -23 19 -34 8z"/>
<path d="M12770 6841 c-41 -13 -84 -37 -104 -60 -18 -20 -18 -23 -4 -37 14
-14 17 -14 34 4 37 38 110 65 137 50 15 -8 15 -13 -7 -56 -13 -26 -47 -76 -75
-111 -28 -35 -51 -67 -51 -72 0 -16 53 -49 105 -63 71 -21 97 -21 93 1 -2 13
-24 24 -71 37 -37 11 -67 23 -67 28 0 4 21 36 46 70 50 68 84 136 84 167 0 40
-58 60 -120 42z"/>
<path d="M11863 6795 c-56 -24 -67 -67 -28 -113 l25 -29 -21 -19 c-47 -43 -61
-100 -31 -130 9 -10 15 -20 13 -23 -8 -11 48 -43 74 -43 65 0 84 68 45 156
-16 34 -19 51 -11 59 7 7 7 14 0 24 -8 9 -8 13 -1 13 6 0 12 -5 14 -11 2 -6
22 0 48 15 25 14 53 26 63 26 10 0 17 8 17 20 0 31 -46 25 -113 -15 -67 -41
-69 -41 -91 -16 -16 17 -16 20 -1 35 18 18 46 21 61 6 5 -5 15 -6 24 0 11 7
12 13 2 34 -13 30 -39 33 -89 11z m40 -228 c29 -72 19 -98 -32 -78 -20 9 -27
20 -29 43 -2 29 20 78 36 78 4 0 15 -19 25 -43z"/>
<path d="M11573 6765 c-39 -17 -53 -30 -53 -45 0 -25 20 -26 62 0 39 24 78 26
78 5 0 -8 -29 -45 -64 -82 -34 -38 -68 -78 -75 -90 -26 -51 35 -93 134 -93 48
0 55 2 55 20 0 17 -7 20 -44 20 -48 0 -106 17 -106 31 0 6 29 41 65 79 91 97
102 139 45 170 -27 14 -39 13 -97 -15z"/>
<path d="M10753 6760 c-49 -20 -72 -105 -28 -105 13 0 20 7 21 21 1 12 4 26 8
33 8 12 56 15 56 3 0 -4 -18 -36 -40 -69 -22 -34 -37 -68 -34 -76 3 -9 26 -17
55 -21 100 -14 99 -26 -3 -23 -93 4 -98 3 -98 -16 0 -11 3 -17 7 -14 3 4 12 2
19 -4 8 -6 20 -9 28 -6 8 3 17 3 20 0 7 -7 151 -4 183 3 12 3 24 12 27 20 11
28 -20 43 -161 83 l-23 6 29 45 c42 65 46 85 22 109 -22 22 -51 26 -88 11z"/>
<path d="M8986 6610 c-16 -10 -42 -39 -59 -65 -27 -42 -29 -48 -15 -62 14 -14
17 -13 32 3 89 105 95 110 111 90 8 -11 15 -28 15 -38 0 -12 7 -18 21 -18 19
0 21 4 16 40 -3 23 -11 47 -17 55 -17 20 -69 18 -104 -5z"/>
<path d="M8552 6599 c-35 -10 -51 -34 -35 -50 6 -6 20 -6 38 1 24 9 26 8 20
-7 -15 -33 -17 -93 -5 -108 7 -8 25 -15 41 -15 37 0 129 47 129 67 0 8 5 11
11 8 16 -10 49 25 49 51 0 39 -41 57 -134 61 -44 1 -96 -2 -114 -8z m171 -40
c37 -10 37 -10 20 -34 -10 -12 -19 -22 -21 -20 -2 2 -27 -7 -55 -21 -59 -27
-77 -20 -58 23 16 36 42 62 61 62 8 1 32 -4 53 -10z"/>
<path d="M11060 6456 c0 -28 12 -46 31 -46 19 0 24 16 13 44 -8 20 -44 21 -44
2z"/>
<path d="M12134 6436 c-7 -19 3 -36 22 -36 10 0 14 8 12 22 -4 26 -26 36 -34
14z"/>
<path d="M9797 5693 c1058 -2 2788 -2 3845 0 1058 1 193 2 -1922 2 -2115 0
-2980 -1 -1923 -2z"/>
<path d="M9802 5003 c1054 -2 2782 -2 3840 0 1058 1 195 2 -1917 2 -2112 0
-2977 -1 -1923 -2z"/>
<path d="M9802 3613 c1054 -2 2782 -2 3840 0 1058 1 195 2 -1917 2 -2112 0
-2977 -1 -1923 -2z"/>
<path d="M9797 2923 c1058 -2 2788 -2 3845 0 1058 1 193 2 -1922 2 -2115 0
-2980 -1 -1923 -2z"/>
<path d="M9797 2233 c1057 -2 2789 -2 3850 0 1060 1 196 2 -1922 2 -2117 0
-2985 -1 -1928 -2z"/>
<path d="M9797 1543 c1058 -2 2788 -2 3845 0 1058 1 193 2 -1922 2 -2115 0
-2980 -1 -1923 -2z"/>
<path d="M9802 853 c1054 -2 2782 -2 3840 0 1058 1 195 2 -1917 2 -2112 0
-2977 -1 -1923 -2z"/>
</g>
</svg>
