<?xml version="1.0" standalone="no"?>
<!DOCTYPE svg PUBLIC "-//W3C//DTD SVG 20010904//EN"
 "http://www.w3.org/TR/2001/REC-SVG-20010904/DTD/svg10.dtd">
<svg version="1.0" xmlns="http://www.w3.org/2000/svg"
 width="1618.000000pt" height="1214.000000pt" viewBox="0 0 1618.000000 1214.000000"
 preserveAspectRatio="xMidYMid meet">

<g transform="translate(0.000000,1214.000000) scale(0.100000,-0.100000)"
fill="#000000" stroke="none">
<path d="M5775 11320 c-3 -6 -3 -20 0 -33 18 -62 25 -57 -79 -57 -89 0 -96 1
-96 20 0 47 -92 51 -137 5 l-26 -25 -2403 0 -2404 0 0 -5190 0 -5190 3310 0
3310 0 0 5190 0 5190 -445 0 -445 0 -5 25 c-3 14 -7 36 -10 50 -4 17 -12 25
-26 25 -19 0 -20 -4 -14 -50 l7 -50 -241 0 -241 0 0 24 c0 56 -35 98 -55 66z
m-205 -86 c0 -2 -15 -4 -32 -4 -23 0 -29 3 -19 9 12 8 51 4 51 -5z m-1364 -35
c-30 -24 -70 -95 -61 -109 3 -6 2 -10 -4 -10 -6 0 -13 -15 -16 -34 -6 -28 -10
-33 -27 -28 -25 6 -38 -13 -38 -55 0 -22 5 -33 14 -33 20 0 26 -23 36 -147 5
-66 5 -114 -1 -125 -11 -20 -1 -115 12 -124 4 -2 6 -11 2 -19 -7 -21 24 -66
41 -59 11 4 13 20 9 67 -3 34 -10 65 -16 68 -5 4 -5 9 2 13 6 4 11 21 11 37 0
17 4 28 10 24 12 -8 70 22 70 36 0 6 -9 13 -20 16 -19 5 -18 8 13 47 43 53 89
130 110 184 35 87 12 203 -50 252 l-26 20 572 0 571 0 -20 -32 c-49 -81 -21
-112 163 -180 52 -20 23 -81 -75 -159 -41 -32 -56 -39 -79 -34 -32 7 -43 -5
-25 -30 19 -26 58 -21 107 13 49 33 126 114 141 148 13 28 1 86 -13 63 -7 -11
-9 -10 -9 7 0 17 -14 27 -77 49 -93 34 -118 56 -102 88 6 12 21 32 32 45 20
21 28 22 173 22 l153 0 5 -32 c11 -65 13 -159 5 -164 -5 -3 -7 -10 -4 -15 4
-5 -14 -18 -39 -29 -43 -18 -58 -41 -36 -55 5 -3 23 1 39 10 40 20 41 20 41
-12 1 -59 26 -148 42 -151 25 -5 29 24 13 91 -21 89 -20 105 10 113 13 3 29
12 35 19 6 7 19 11 30 8 16 -4 17 -9 9 -30 -20 -52 20 -89 62 -59 20 14 24 13
47 -4 33 -26 72 -27 72 -1 0 12 -9 23 -22 27 -13 4 -28 14 -34 22 -8 11 -21
13 -47 9 l-36 -6 16 35 c15 31 15 36 2 50 -16 15 -69 11 -69 -6 0 -5 -8 -8
-17 -8 -10 0 -30 -3 -45 -7 -27 -7 -28 -6 -28 30 0 21 -4 34 -10 30 -5 -3 -10
-2 -10 4 0 5 4 13 10 16 5 3 10 31 10 61 l0 54 238 0 237 0 13 -53 c20 -88 19
-91 -33 -84 -26 4 -47 2 -50 -4 -12 -18 15 -38 60 -45 48 -7 49 -8 61 -111 7
-64 20 -88 42 -74 10 6 10 26 -1 98 l-13 91 39 6 c21 4 46 11 55 16 9 6 29 14
45 20 15 5 27 14 27 20 0 22 -33 22 -96 1 -36 -12 -69 -19 -73 -16 -5 2 -11
24 -15 47 -4 24 -9 53 -13 66 l-5 22 441 0 441 0 0 -5180 0 -5180 -3300 0
-3300 0 0 5180 0 5180 1796 0 1797 0 -27 -21z m78 -44 c37 -41 41 -49 44 -95
5 -73 -38 -167 -127 -279 -41 -52 -46 -46 -50 69 -1 41 -7 77 -12 78 -5 2 -9
8 -9 14 0 6 7 8 15 4 12 -4 15 3 15 34 0 53 36 150 66 177 13 12 24 28 25 35
0 11 2 11 6 0 3 -7 15 -24 27 -37z"/>
<path d="M2920 11094 c-117 -17 -173 -28 -225 -44 -33 -10 -79 -24 -102 -30
-41 -10 -56 -31 -33 -45 6 -4 36 1 68 10 31 10 77 23 102 31 63 18 156 34 206
34 46 0 71 19 52 38 -12 12 -20 13 -68 6z"/>
<path d="M3314 11039 c-20 -22 -21 -41 -9 -186 8 -104 3 -122 -25 -88 -7 8
-17 12 -22 9 -5 -3 -8 1 -6 10 2 10 -24 55 -57 101 -77 109 -95 110 -111 10
-7 -38 -18 -103 -25 -142 -10 -55 -10 -76 -2 -84 22 -22 43 -2 43 39 0 52 30
186 40 175 4 -4 35 -45 68 -90 80 -106 109 -116 137 -49 11 26 11 53 2 140 -8
82 -8 112 1 127 16 25 15 36 -2 42 -8 3 -22 -3 -32 -14z"/>
<path d="M2330 11031 c-68 -21 -163 -93 -173 -131 -8 -31 8 -41 119 -79 82
-28 112 -43 128 -64 16 -21 18 -32 10 -45 -18 -28 -83 -45 -166 -43 -78 2 -94
-4 -78 -29 7 -11 31 -15 97 -14 145 0 208 41 188 122 -12 50 -52 79 -156 113
l-99 32 22 24 c38 41 89 67 132 67 32 1 42 5 44 20 6 31 -20 41 -68 27z"/>
<path d="M2725 10960 c-4 -6 -1 -27 6 -47 11 -35 9 -95 -7 -230 -6 -49 -5 -53
14 -53 24 0 37 45 30 104 -2 19 -1 33 3 30 11 -7 17 97 7 139 -13 58 -37 83
-53 57z"/>
<path d="M5080 10946 c-41 -22 -82 -39 -125 -50 -30 -8 -40 -16 -40 -31 0 -28
42 -24 120 11 92 41 110 51 113 68 4 20 -33 21 -68 2z"/>
<path d="M4679 10869 c-27 -29 -33 -42 -30 -61 0 -5 -4 -8 -10 -8 -6 0 -9 -7
-5 -15 3 -8 -2 -19 -12 -24 -9 -5 -18 -24 -19 -43 -9 -84 -9 -83 12 -83 16 0
23 11 32 50 19 77 42 131 64 151 25 23 36 11 48 -49 9 -50 25 -77 47 -77 19 0
28 20 15 33 -6 6 -11 21 -11 34 0 13 -4 23 -10 23 -5 0 -7 6 -4 14 11 29 -34
86 -68 86 -11 0 -33 -14 -49 -31z"/>
<path d="M3565 10853 c-41 -6 -59 -22 -44 -39 23 -28 113 -6 107 25 -4 17 -18
20 -63 14z"/>
<path d="M4427 10832 c-9 -9 -20 -29 -25 -42 -5 -14 -15 -25 -23 -26 -8 0 -22
-2 -31 -2 -22 -2 -25 -42 -4 -42 8 0 17 -8 20 -17 7 -28 19 -86 21 -105 2 -24
11 -32 30 -25 12 5 15 24 16 84 0 43 5 94 12 113 10 29 17 36 45 38 34 3 39
11 20 30 -18 18 -63 15 -81 -6z"/>
<path d="M5667 10253 c-3 -4 -8 -24 -12 -43 -13 -66 -14 -68 -49 -67 -48 1
-84 -27 -111 -86 -49 -109 -19 -239 63 -273 1 -1 -2 -23 -8 -50 -29 -127 -33
-220 -10 -234 9 -6 19 -5 24 0 12 12 8 104 -5 108 -5 2 -9 8 -9 13 0 6 4 7 10
4 5 -3 12 7 16 22 3 15 10 45 16 67 6 26 6 42 -1 49 -14 14 -14 30 -1 22 17
-10 91 58 116 107 13 26 24 61 24 78 0 36 -25 90 -42 90 -10 0 -6 80 8 142 10
44 9 52 -8 56 -9 2 -18 -1 -21 -5z m3 -153 c0 -5 -4 -10 -10 -10 -5 0 -10 5
-10 10 0 6 5 10 10 10 6 0 10 -4 10 -10z m-49 -44 c4 -4 3 -24 -2 -44 -4 -20
-5 -40 -3 -44 3 -5 1 -14 -4 -21 -6 -7 -17 -34 -24 -61 -8 -28 -20 -52 -26
-54 -17 -5 -52 75 -52 118 0 19 9 54 20 77 17 38 22 42 52 40 18 -1 36 -6 39
-11z m-116 -63 c-8 -31 -13 -39 -20 -31 -9 9 6 58 17 58 6 0 7 -11 3 -27z
m177 0 c3 -38 -4 -69 -24 -101 -11 -18 -22 -31 -25 -28 -3 2 3 36 13 75 18 68
32 90 36 54z"/>
<path d="M5962 10177 c-64 -64 -73 -83 -47 -94 10 -3 28 8 50 33 l34 39 0
-100 c0 -55 5 -124 11 -153 7 -29 9 -56 6 -59 -3 -3 -31 -8 -63 -12 -42 -4
-59 -10 -61 -22 -2 -9 4 -19 14 -23 35 -13 274 42 304 70 10 10 11 17 3 25 -7
7 -29 5 -74 -9 l-64 -20 -14 31 c-15 32 -22 255 -11 322 8 49 -20 41 -88 -28z"/>
<path d="M4411 9976 c-7 -9 -2 -38 18 -102 16 -49 36 -128 45 -174 9 -47 19
-95 22 -107 7 -34 44 -31 44 3 0 14 5 34 10 45 10 18 13 17 44 -16 34 -36 56
-45 56 -22 0 9 3 8 9 -2 9 -14 31 -7 31 9 0 5 -15 17 -32 26 -18 9 -39 25 -46
35 -23 33 -51 43 -71 25 -16 -15 -18 -13 -29 37 -28 121 -66 247 -78 251 -7 3
-17 -1 -23 -8z"/>
<path d="M5123 9975 c-45 -19 -65 -55 -71 -131 -4 -58 -7 -65 -23 -61 -11 3
-22 1 -25 -4 -8 -14 15 -39 37 -39 13 0 19 -7 19 -24 0 -13 9 -35 21 -50 11
-14 18 -30 15 -34 -3 -5 7 -43 21 -86 22 -66 28 -77 47 -74 17 2 22 11 24 44
2 31 -7 60 -43 133 -26 51 -45 94 -43 95 1 1 24 15 51 30 26 15 47 33 47 41 0
8 5 15 11 15 16 0 40 67 33 94 -13 51 -67 74 -121 51z m75 -65 c3 -35 -29 -83
-69 -103 -40 -19 -44 -13 -34 49 8 55 36 86 73 82 20 -2 28 -9 30 -28z"/>
<path d="M2007 9815 c-15 -15 -40 -83 -52 -142 -5 -25 -3 -32 12 -36 16 -4 17
-5 1 -6 -12 -1 -18 -10 -19 -28 -1 -16 -2 -37 -3 -48 -1 -18 6 -65 20 -132 2
-13 16 -54 29 -92 14 -37 25 -70 25 -72 0 -2 -12 -5 -26 -6 -51 -2 -194 -87
-194 -114 0 -23 31 -17 81 16 30 19 62 38 72 41 9 3 15 8 13 12 -2 4 13 8 34
9 l38 2 25 -72 c14 -40 29 -85 33 -102 9 -41 12 -45 29 -38 22 8 18 43 -15
140 -23 65 -27 89 -18 94 9 6 7 13 -8 26 -90 80 -123 409 -50 508 14 20 15 19
44 -9 30 -28 52 -28 52 0 0 24 -50 64 -81 64 -15 0 -34 -7 -42 -15z"/>
<path d="M3054 9765 c-3 -8 3 -38 14 -67 11 -29 25 -79 32 -110 7 -38 19 -63
33 -74 16 -12 17 -15 5 -11 -21 7 -22 -4 -4 -78 9 -39 15 -50 31 -50 15 0 21
10 28 43 4 23 12 42 18 42 5 0 9 -4 9 -10 0 -16 81 -70 107 -70 34 0 29 27 -9
46 -18 9 -50 34 -70 55 -42 43 -50 46 -72 23 -15 -14 -16 -13 -17 8 0 18 -19
97 -42 173 -24 80 -50 114 -63 80z"/>
<path d="M4773 9748 c-43 -48 -54 -90 -30 -123 17 -23 53 -15 95 20 29 24 31
24 37 7 9 -31 41 -55 59 -45 13 7 11 15 -14 54 -15 26 -35 49 -43 52 -9 3 -32
-7 -54 -23 -21 -16 -41 -30 -46 -30 -11 0 18 54 37 70 12 10 14 16 5 26 -16
19 -22 18 -46 -8z"/>
<path d="M4175 9717 c-59 -59 -58 -177 2 -192 31 -8 142 31 150 53 11 27 -19
30 -71 7 -28 -12 -57 -20 -63 -18 -8 3 -13 23 -13 50 0 39 5 50 36 78 35 33
38 55 7 55 -8 0 -30 -15 -48 -33z"/>
<path d="M2654 9565 c-7 -18 13 -45 33 -45 23 0 28 31 8 46 -24 18 -34 18 -41
-1z"/>
<path d="M2263 9514 c-8 -20 8 -48 31 -52 18 -4 21 19 6 49 -13 23 -28 25 -37
3z"/>
<path d="M2862 9488 c-14 -14 -15 -47 -3 -67 5 -8 29 -22 53 -32 47 -18 55
-39 21 -54 -31 -13 -30 -45 0 -45 30 0 67 39 67 72 0 28 -20 49 -67 67 -23 9
-33 20 -35 39 -3 29 -18 38 -36 20z"/>
<path d="M2685 9401 c-6 -11 16 -95 35 -130 11 -22 35 -28 45 -11 3 6 3 16 -2
23 -4 6 -15 37 -24 67 -15 53 -39 75 -54 51z"/>
<path d="M2446 9348 c-39 -22 -62 -152 -32 -177 25 -21 38 -3 31 44 -5 29 -2
51 8 71 l14 28 27 -27 c15 -15 36 -47 47 -72 22 -49 36 -62 51 -47 24 24 -46
148 -100 176 -20 10 -33 11 -46 4z"/>
<path d="M2307 9323 c-12 -11 -7 -66 11 -122 18 -58 43 -84 63 -64 9 9 6 22
-9 55 -11 24 -24 60 -27 80 -7 38 -26 63 -38 51z"/>
<path d="M6037 9153 c-7 -12 11 -114 27 -161 14 -40 14 -42 -7 -53 -39 -20
-67 -52 -67 -75 0 -13 4 -25 8 -28 16 -9 35 12 35 40 0 16 2 24 4 17 2 -7 11
-9 19 -6 7 3 11 10 8 15 -4 6 1 6 13 0 14 -8 24 -34 37 -104 22 -113 49 -178
72 -178 19 0 19 0 -22 163 -14 59 -25 110 -23 111 2 2 33 -2 68 -10 67 -13 81
-12 81 11 0 16 -7 19 -93 36 -78 15 -80 18 -102 116 -9 37 -18 78 -20 91 -5
21 -29 30 -38 15z"/>
<path d="M5244 9016 c-3 -8 -13 -12 -22 -9 -21 5 -121 -70 -151 -113 -18 -25
-20 -36 -11 -58 12 -34 102 -77 212 -102 59 -13 79 -22 89 -40 24 -46 -28
-116 -118 -156 -35 -15 -46 -16 -62 -6 -16 10 -23 10 -33 0 -17 -17 18 -52 52
-52 63 0 191 97 206 156 5 20 9 21 25 11 17 -10 23 -9 37 9 26 33 71 59 83 47
5 -5 15 -38 23 -74 8 -43 18 -65 28 -67 28 -5 31 19 12 94 -10 40 -15 76 -11
80 3 4 39 9 78 12 68 5 72 4 64 -14 -27 -64 4 -79 69 -35 25 17 49 31 55 31 6
0 30 -13 53 -30 46 -33 73 -38 82 -14 8 21 -2 36 -22 32 -21 -5 -85 59 -78 77
2 7 -1 18 -7 24 -15 15 -50 15 -41 -1 4 -7 3 -8 -5 -4 -6 4 -23 0 -37 -9 -19
-12 -52 -17 -130 -18 l-105 -2 -9 35 c-5 19 -12 75 -16 123 -6 73 -10 87 -23
85 -22 -4 -26 -101 -8 -196 l14 -72 -36 -22 c-20 -12 -46 -30 -58 -41 l-22
-20 -11 24 c-14 29 -49 56 -81 63 -98 20 -229 71 -229 89 1 14 38 56 66 75 10
7 33 21 49 33 22 14 41 19 68 15 42 -5 59 13 37 39 -16 19 -69 20 -76 1z m316
-210 c0 -3 -4 -8 -10 -11 -5 -3 -10 -1 -10 4 0 6 5 11 10 11 6 0 10 -2 10 -4z
m310 -26 c0 -5 -5 -10 -11 -10 -5 0 -7 5 -4 10 3 6 8 10 11 10 2 0 4 -4 4 -10z"/>
<path d="M6381 8950 c-62 -49 -80 -82 -60 -106 11 -13 25 -15 88 -9 68 6 74 6
62 -9 -7 -9 -31 -21 -52 -28 -47 -14 -67 -34 -51 -50 28 -28 162 52 162 96 0
25 -38 38 -105 34 -61 -3 -63 -2 -47 15 8 10 31 27 49 38 33 20 41 48 17 56
-6 2 -35 -15 -63 -37z"/>
<path d="M4082 8833 c-37 -18 -74 -61 -93 -108 -13 -33 -21 -237 -10 -245 4
-3 21 -41 36 -84 39 -107 82 -171 115 -171 24 0 25 2 23 55 -3 66 -31 200 -42
200 -5 0 -8 11 -8 24 0 16 17 39 56 74 57 50 121 150 121 190 0 11 -12 34 -26
51 -21 25 -34 31 -64 31 -28 0 -40 -5 -43 -17 -4 -17 -5 -17 -6 0 -1 21 -16
21 -59 0z m129 -33 c30 -17 23 -60 -19 -121 -21 -30 -37 -61 -34 -69 2 -10 1
-11 -5 -3 -6 8 -16 4 -37 -12 l-30 -24 -33 55 -33 55 18 42 c21 48 39 65 79
77 40 12 71 12 94 0z m-173 -237 c9 -17 9 -22 -3 -27 -11 -4 -15 2 -15 26 0
34 2 34 18 1z m36 -79 c3 -9 6 -22 6 -29 0 -8 5 -26 11 -42 6 -15 13 -48 15
-73 4 -55 -4 -44 -47 63 -27 65 -30 80 -18 88 20 12 26 11 33 -7z"/>
<path d="M4732 8647 c-20 -24 3 -35 73 -38 59 -2 71 0 73 14 4 20 -5 23 -79
31 -40 4 -60 2 -67 -7z"/>
<path d="M4507 8583 c-8 -15 -20 -45 -27 -66 -9 -30 -16 -37 -31 -32 -28 9
-34 -18 -12 -55 23 -40 55 -37 64 5 3 17 15 52 26 79 l20 48 27 -46 c28 -48
51 -66 85 -66 29 0 27 28 -2 41 -13 6 -37 34 -53 62 -37 64 -74 76 -97 30z"/>
<path d="M3239 8562 c-53 -44 -90 -152 -56 -165 10 -4 10 -6 0 -6 -20 -1 -15
-58 14 -160 l26 -94 -28 -23 c-25 -19 -27 -25 -15 -39 12 -14 15 -14 38 1 20
13 26 14 33 3 5 -8 9 -17 9 -21 0 -13 38 -28 54 -22 20 8 21 44 1 44 -8 0 -20
10 -26 22 -10 18 -8 24 7 35 11 8 28 21 39 31 11 9 32 23 48 29 28 13 37 43
13 43 -25 0 -46 -12 -39 -23 3 -6 1 -7 -5 -3 -16 10 -54 -12 -46 -26 5 -7 1
-9 -9 -5 -11 4 -17 1 -17 -8 0 -37 -19 -9 -39 58 -45 152 -38 237 25 298 38
37 41 44 19 53 -8 3 -29 -7 -46 -22z"/>
<path d="M4290 8527 c-31 -16 -50 -76 -47 -148 3 -59 25 -99 53 -99 23 0 26
21 7 42 -12 14 -18 35 -18 69 0 27 -3 49 -7 49 -12 0 36 46 55 53 22 8 22 24
-1 36 -12 7 -26 6 -42 -2z"/>
<path d="M2959 8093 c-17 -20 -17 -90 1 -132 14 -34 52 -51 79 -34 21 13 43
82 36 111 -14 58 -86 92 -116 55z m67 -58 c8 -33 -4 -81 -17 -68 -13 13 -27
65 -22 81 8 21 32 13 39 -13z"/>
<path d="M9802 11223 c1054 -2 2782 -2 3840 0 1058 1 195 2 -1917 2 -2112 0
-2977 -1 -1923 -2z"/>
<path d="M8752 11083 c-11 -16 -37 -68 -59 -118 -23 -49 -60 -130 -82 -179
-45 -94 -49 -131 -16 -131 14 0 21 9 26 34 4 18 15 50 24 72 20 44 43 55 143
65 l69 6 6 -62 c4 -35 7 -87 7 -116 0 -39 4 -54 14 -54 29 0 37 27 31 102 -5
55 -3 69 5 56 6 -10 35 -25 65 -33 62 -18 84 -39 69 -63 -21 -32 -63 -55 -99
-54 -29 1 -35 -2 -35 -18 0 -11 3 -20 8 -21 4 0 16 -2 27 -5 31 -6 61 4 96 33
71 60 67 126 -11 157 -22 9 -47 16 -55 16 -32 0 -13 19 36 35 36 12 49 21 47
33 -2 10 -14 17 -28 18 -14 1 -53 5 -87 9 l-61 7 -12 47 c-19 74 -50 154 -67
173 -22 25 -39 22 -61 -9z m77 -142 l20 -71 -43 0 c-24 0 -58 -3 -75 -6 -20
-4 -31 -3 -31 5 0 6 19 52 42 102 40 87 42 89 54 66 7 -13 22 -56 33 -96z
m-149 -81 c0 -5 -4 -10 -10 -10 -5 0 -10 5 -10 10 0 6 5 10 10 10 6 0 10 -4
10 -10z m260 -38 c0 -10 -22 -32 -32 -32 -4 0 -8 9 -8 20 0 13 7 20 20 20 11
0 20 -4 20 -8z"/>
<path d="M13113 10984 l5 -27 -139 6 c-89 4 -140 3 -144 -4 -11 -16 17 -40 44
-39 14 1 79 2 143 1 l117 -1 10 -52 c6 -29 12 -88 14 -130 3 -84 3 -83 -54
-79 -34 2 -55 -21 -34 -39 11 -9 36 -11 93 -6 133 12 151 16 144 35 -5 14 -3
13 12 -2 10 -10 26 -15 35 -13 9 3 37 10 64 17 26 6 47 17 47 25 0 15 18 29
27 20 3 -3 0 -12 -7 -21 -11 -13 -10 -14 4 -9 17 7 22 29 7 39 -5 3 -50 -4
-100 -15 -50 -11 -109 -20 -130 -20 -27 0 -43 -6 -49 -16 -5 -10 -15 -14 -21
-10 -9 6 -9 11 0 22 14 16 5 177 -12 221 -5 14 -8 27 -6 29 2 2 47 6 101 10
155 10 190 16 194 38 4 18 -1 19 -99 12 -172 -11 -201 -16 -195 -35 4 -11 2
-10 -9 3 -8 11 -15 24 -15 29 0 12 -27 37 -40 37 -8 0 -10 -10 -7 -26z"/>
<path d="M11153 10868 c-6 -7 -13 -25 -17 -39 -3 -15 -32 -55 -63 -89 -61 -66
-69 -83 -40 -88 17 -3 74 54 70 70 -2 4 1 7 6 6 4 -2 18 8 29 22 19 22 21 23
22 6 0 -16 2 -17 17 -5 15 12 14 10 -2 -17 -23 -41 -14 -84 18 -84 22 0 57 20
87 49 13 13 15 12 18 -5 10 -59 25 -95 43 -105 32 -17 46 3 25 35 -9 14 -16
39 -16 55 0 39 -16 80 -35 87 -8 4 -32 -9 -57 -30 -23 -20 -45 -36 -50 -36 -4
0 -8 33 -8 74 0 54 -4 79 -16 90 -19 19 -19 19 -31 4z"/>
<path d="M11930 10852 c-27 -28 -30 -36 -30 -95 0 -74 6 -97 25 -97 18 0 24
25 23 90 -3 77 3 83 74 78 45 -3 61 -1 65 9 9 22 -7 31 -69 38 -55 7 -59 6
-88 -23z"/>
<path d="M11413 10846 c-58 -49 -50 -80 32 -124 27 -15 50 -32 52 -39 6 -17
-36 -56 -53 -49 -8 3 -14 1 -14 -5 0 -6 -5 -7 -11 -3 -7 4 -10 -1 -7 -12 2
-13 13 -20 36 -22 25 -3 39 3 62 27 55 54 31 113 -59 151 -38 16 -36 29 10 52
40 21 44 42 8 46 -17 2 -37 -6 -56 -22z"/>
<path d="M9944 10826 c-81 -38 -117 -118 -78 -174 23 -33 69 -29 131 12 l52
34 6 -36 c14 -87 45 -119 106 -110 34 4 30 32 -6 38 -34 6 -55 39 -55 88 0 40
-25 92 -45 92 -8 0 -24 -13 -36 -29 -12 -17 -42 -40 -66 -53 -38 -20 -45 -21
-53 -8 -5 8 -10 21 -10 29 0 21 64 79 96 86 41 9 59 20 59 36 0 23 -47 21
-101 -5z"/>
<path d="M11645 10822 c-62 -13 -75 -89 -26 -144 26 -29 34 -32 87 -33 48 0
59 3 62 18 3 14 -4 17 -32 17 -47 0 -82 15 -96 40 -16 29 -3 60 23 60 20 -1
20 -2 5 -11 -23 -13 -24 -49 -2 -49 44 0 94 67 64 85 -20 12 -65 21 -85 17z"/>
<path d="M12154 10565 l-25 -25 -2127 -2 -2127 -3 2127 -5 c1888 -4 2126 -7
2118 -20 -5 -8 -10 -25 -10 -38 0 -13 -4 -20 -10 -17 -9 6 -14 -8 -11 -29 1
-4 -4 -14 -10 -22 -6 -8 -9 -14 -5 -14 3 0 1 -12 -6 -27 -6 -16 -11 -95 -12
-178 l-1 -150 -60 -11 c-33 -7 -62 -13 -65 -14 -3 -1 -19 -1 -36 0 -20 1 -33
-4 -37 -14 -11 -28 23 -35 103 -20 41 7 80 13 86 13 12 1 11 -109 0 -128 -5
-8 -170 -11 -576 -11 l-568 0 9 38 c5 20 9 63 9 95 0 54 1 57 25 58 73 4 83 3
78 -4 -11 -18 -13 -89 -3 -108 14 -25 55 -25 105 2 43 22 65 45 65 66 0 20
-41 54 -99 80 -48 21 -59 23 -109 13 -38 -7 -58 -7 -62 0 -4 6 -2 41 3 78 13
99 4 259 -16 280 -29 28 -38 3 -26 -64 6 -32 8 -87 5 -121 -4 -38 -2 -64 4
-68 5 -3 10 -12 10 -18 0 -8 -3 -8 -9 2 -6 8 -11 -6 -15 -43 -4 -31 -5 -60 -1
-66 4 -6 -6 -10 -22 -10 -39 0 -68 -22 -60 -44 7 -17 17 -17 64 1 8 3 12 -21
15 -81 l3 -86 -1218 0 -1219 0 30 29 c46 46 58 85 43 139 -14 53 -27 72 -48
72 -12 0 -14 -7 -9 -27 20 -86 19 -108 -9 -141 -34 -41 -49 -40 -70 4 -20 43
-37 50 -87 37 -42 -11 -43 -11 -28 18 8 14 7 19 -2 19 -9 1 -8 4 3 10 20 12
64 141 56 163 -14 36 -53 19 -121 -53 -66 -70 -88 -112 -68 -132 15 -15 42 -2
42 21 0 11 22 44 50 73 47 50 49 51 39 21 -8 -23 -7 -38 2 -55 11 -20 10 -21
-3 -10 -13 10 -18 5 -37 -37 -25 -58 -26 -84 -7 -100 11 -10 21 -9 45 3 46 24
67 20 90 -19 l20 -35 -247 -3 c-136 -1 688 -3 1831 -5 1142 -1 2080 -2 2083
-1 4 0 10 -5 15 -13 6 -10 11 -10 21 0 9 9 383 13 1758 14 l1745 3 -1740 2
-1740 3 5 77 5 78 50 11 c32 6 50 15 50 25 0 10 -13 14 -52 13 l-51 -2 -4 62
c-2 33 1 104 5 156 4 52 8 111 8 130 0 26 2 31 9 20 7 -11 10 -12 10 -2 0 8 7
29 16 48 13 27 19 32 30 23 19 -16 44 -4 44 21 l0 20 1678 3 1677 2 -1677 3
c-1640 2 -1677 2 -1683 21 -9 31 -34 33 -61 6z m-1020 -564 c6 -9 -24 -32 -57
-44 -24 -9 -32 16 -17 53 12 28 13 29 40 15 16 -8 31 -19 34 -24z"/>
<path d="M9235 10420 c-4 -6 5 -57 18 -113 44 -177 47 -159 -39 -186 -85 -26
-111 -45 -93 -67 10 -12 15 -12 38 1 14 8 50 21 79 29 l54 15 -4 -101 c-3
-104 5 -126 32 -93 9 11 14 48 14 111 l1 95 42 11 c23 5 48 16 54 24 13 16 33
19 24 4 -3 -5 0 -8 7 -6 7 3 25 7 40 10 20 5 25 10 21 26 -3 11 -10 20 -15 20
-19 0 -143 -34 -148 -40 -15 -20 -35 -4 -38 29 -6 78 -48 236 -64 239 -9 2
-19 -2 -23 -8z m30 -310 c3 -5 1 -10 -4 -10 -6 0 -11 5 -11 10 0 6 2 10 4 10
3 0 8 -4 11 -10z"/>
<path d="M13115 10340 c-4 -6 -3 -45 0 -88 5 -54 2 -102 -9 -161 -20 -105 -20
-111 3 -111 12 0 30 17 47 44 23 36 58 66 78 66 2 0 20 -13 41 -30 41 -33 95
-41 95 -15 0 9 -12 20 -26 26 -15 5 -40 21 -56 34 -33 28 -66 32 -106 11 l-27
-14 3 101 c2 55 1 111 -2 124 -7 23 -30 31 -41 13z"/>
<path d="M12712 10288 c-16 -16 -15 -45 2 -51 7 -3 21 4 30 15 13 15 15 23 5
34 -14 17 -21 18 -37 2z"/>
<path d="M12313 10283 c-18 -6 -16 -48 2 -63 19 -16 35 -5 35 24 0 26 -19 46
-37 39z"/>
<path d="M12866 10149 c-30 -24 -28 -48 7 -86 21 -24 18 -28 -28 -35 -26 -4
-26 -29 1 -38 25 -10 80 15 95 41 7 14 3 26 -21 53 -29 33 -30 35 -10 41 26 8
27 45 1 45 -10 0 -30 -9 -45 -21z"/>
<path d="M8651 10121 c-24 -24 -38 -88 -24 -110 16 -25 52 -25 78 -1 l24 23 6
-29 c4 -16 8 -35 11 -42 6 -21 34 -25 53 -8 10 9 24 16 31 16 8 0 24 12 37 28
l22 27 11 -33 c18 -49 69 -66 84 -27 4 12 -18 40 -33 40 -3 0 -13 14 -21 30
-21 42 -49 42 -104 1 -32 -25 -46 -31 -46 -21 0 8 -4 15 -8 15 -4 0 -7 16 -7
35 2 43 -3 51 -38 64 -40 15 -54 14 -76 -8z m69 -38 c0 -5 -12 -16 -25 -26
-24 -17 -25 -17 -25 1 0 10 3 22 7 25 9 9 43 9 43 0z"/>
<path d="M12442 10078 c-16 -21 -53 -138 -46 -149 14 -24 39 -1 54 49 8 30 20
54 25 54 6 1 20 -19 32 -43 24 -49 46 -57 51 -19 4 38 -51 120 -82 120 -13 0
-28 -6 -34 -12z"/>
<path d="M12690 10080 c-11 -7 -12 -10 -2 -10 10 0 9 -4 -3 -16 -24 -24 -17
-89 10 -89 15 0 20 7 21 31 1 16 4 39 8 51 8 25 -13 46 -34 33z"/>
<path d="M12274 9995 c-20 -49 -15 -90 11 -90 20 0 22 6 28 89 3 43 -21 44
-39 1z"/>
<path d="M11985 9783 c-65 -16 -118 -98 -129 -198 -6 -49 -1 -83 24 -183 33
-135 44 -162 64 -162 18 0 27 23 16 41 -5 7 -16 43 -25 80 -15 60 -19 66 -38
62 -21 -4 -21 -4 -3 8 10 6 46 14 80 17 60 5 87 19 63 34 -21 14 -59 9 -73 -9
-7 -10 -16 -14 -20 -10 -5 4 -2 13 6 18 11 7 4 8 -21 3 -25 -4 -39 -2 -44 7
-5 8 -4 10 3 5 9 -5 12 11 12 58 0 79 22 139 60 166 32 23 52 25 80 8 15 -10
22 -10 32 0 24 24 -41 66 -87 55z"/>
<path d="M10416 9748 c-11 -42 -40 -124 -46 -131 -4 -5 -17 1 -28 13 -17 18
-27 21 -55 16 -71 -13 -117 -75 -117 -156 0 -56 20 -99 65 -139 l38 -33 -24
-77 -25 -76 -301 -3 -300 -2 5 25 c2 14 -2 33 -9 42 -12 15 -12 16 4 10 11 -4
17 -2 17 8 0 8 18 24 39 35 22 11 49 33 60 49 23 32 29 87 9 75 -10 -5 -10 -4
-1 6 25 27 -22 79 -58 65 -21 -8 -70 -90 -73 -122 -2 -15 -9 -29 -17 -31 -41
-13 -47 -30 -34 -97 l12 -65 -446 1 c-414 1 -442 2 -391 16 30 8 58 20 62 26
14 24 -11 30 -67 18 -50 -11 -55 -15 -56 -39 0 -24 -1 -25 -8 -7 -6 15 -17 20
-47 20 -39 0 -39 0 -42 42 -3 34 4 53 31 96 57 88 107 116 120 65 7 -24 40
-21 45 4 5 25 -42 68 -74 68 -20 0 -42 -14 -78 -53 -86 -88 -118 -182 -80
-235 l15 -22 -337 0 c-186 0 -335 -2 -332 -5 3 -3 384 -5 847 -5 727 0 842 -2
838 -14 -3 -8 -9 -42 -13 -76 -7 -61 -6 -62 17 -58 22 3 25 10 33 76 l9 72
298 0 299 0 0 -23 c0 -33 23 -62 44 -54 13 5 16 14 10 42 l-6 35 2648 3 2649
2 -2647 3 c-1457 1 -2648 5 -2648 9 0 4 12 38 26 75 18 48 32 69 47 73 58 16
98 41 123 76 14 21 24 45 21 53 -3 8 -1 16 5 18 20 7 -12 76 -48 107 l-35 28
16 39 c26 59 35 94 28 110 -6 17 -32 19 -37 2z m-54 -184 c6 -4 6 -9 1 -13
-13 -8 -44 -101 -37 -112 3 -5 1 -9 -5 -9 -5 0 -12 -13 -16 -30 -4 -16 -13
-30 -20 -30 -16 0 -65 56 -65 75 0 7 -4 15 -10 17 -15 5 19 106 42 122 17 12
26 12 60 0 21 -7 44 -16 50 -20z m87 -87 c-1 -47 -41 -100 -83 -111 -25 -6
-28 -5 -22 11 4 10 13 41 21 68 7 28 18 64 25 80 l12 30 24 -28 c13 -15 24
-38 23 -50z m-739 -108 c-12 -27 -46 -56 -56 -46 -7 6 18 71 34 90 14 16 17
16 25 2 5 -11 4 -27 -3 -46z"/>
<path d="M9009 9713 c-6 -35 5 -179 15 -185 8 -6 8 -8 0 -8 -12 0 -40 -270
-30 -295 5 -15 46 -22 46 -7 0 4 23 32 50 62 l50 54 -1 -62 c-2 -68 10 -92 47
-92 28 0 32 21 8 41 -13 10 -14 25 -9 81 7 67 -2 98 -27 98 -5 0 -33 -23 -62
-50 l-53 -50 5 162 c2 90 9 169 14 175 13 17 -17 83 -37 83 -8 0 -16 -3 -16
-7z"/>
<path d="M10682 9628 c-14 -18 -28 -76 -47 -191 -24 -151 -16 -247 21 -247 14
0 16 8 10 55 -7 58 15 234 40 323 14 50 13 72 -5 72 -5 0 -13 -6 -19 -12z"/>
<path d="M11683 9444 c-23 -10 -53 -71 -55 -111 -2 -71 21 -80 90 -36 42 28
66 67 60 100 -4 24 -32 23 -36 -2 -6 -33 -72 -93 -72 -65 0 5 7 10 15 10 18 0
45 50 45 85 0 25 -16 31 -47 19z"/>
<path d="M9327 9390 c-35 -41 -51 -93 -37 -120 13 -24 25 -25 63 -6 27 15 27
15 27 -20 0 -38 29 -74 59 -74 30 0 33 27 4 45 -23 15 -25 22 -19 61 6 46 0
74 -16 74 -5 0 -25 -12 -44 -26 -47 -37 -46 -7 2 40 20 19 33 40 29 45 -12 20
-43 11 -68 -19z"/>
<path d="M10419 9013 c-16 -4 -29 -43 -29 -88 0 -16 5 -22 17 -21 12 2 23 19
31 51 14 49 9 64 -19 58z"/>
<path d="M10856 8951 c-8 -12 3 -61 13 -61 4 0 7 -8 8 -17 0 -10 8 -47 17 -81
10 -35 15 -67 11 -70 -4 -4 -21 -7 -38 -7 -22 0 -33 -5 -35 -17 -3 -15 4 -18
37 -18 22 0 43 -4 46 -10 3 -5 6 -41 6 -80 0 -73 9 -90 36 -69 12 11 14 26 9
81 l-6 68 39 0 c27 0 41 5 45 16 9 24 0 29 -53 29 -44 0 -47 1 -43 25 5 37
-52 214 -71 218 -8 2 -18 -1 -21 -7z"/>
<path d="M10427 8903 c-5 -4 -14 -8 -19 -8 -6 0 -13 -6 -15 -12 -3 -7 -1 -13
4 -13 4 0 6 -24 4 -52 -3 -51 -15 -69 -47 -74 -24 -4 -68 -30 -78 -46 -16 -27
8 -47 31 -26 10 8 36 22 59 31 l41 16 7 -91 c3 -50 8 -93 11 -96 2 -2 12 -2
21 2 15 6 16 18 11 102 l-7 95 50 -5 c27 -2 52 -1 54 3 11 17 -15 34 -57 38
l-46 5 -6 57 c-9 83 -9 83 -18 74z"/>
<path d="M10021 8857 c-90 -32 -90 -116 -1 -182 28 -20 48 -41 44 -46 -9 -16
-84 -11 -84 5 0 23 -17 28 -34 10 -36 -35 27 -80 96 -69 96 16 101 69 13 129
-45 31 -55 44 -55 67 0 33 22 48 81 54 48 5 54 8 46 30 -8 18 -57 19 -106 2z"/>
<path d="M11138 8733 c-21 -14 -38 -32 -38 -40 0 -17 40 -33 83 -33 18 -1 46
-7 62 -14 l30 -14 -28 -11 c-16 -6 -42 -11 -58 -11 -22 0 -29 -5 -29 -20 0
-17 7 -20 39 -20 54 0 87 14 107 46 18 26 18 27 -11 50 -17 14 -47 27 -67 30
-40 7 -49 18 -23 28 8 3 15 12 15 21 0 23 -40 17 -82 -12z"/>
<path d="M10590 8701 c-15 -30 -12 -78 6 -85 9 -3 28 1 44 10 34 21 56 13 78
-27 29 -52 46 -70 60 -60 22 13 3 60 -44 109 -34 35 -48 44 -68 40 -18 -4 -26
0 -29 14 -7 24 -34 23 -47 -1z"/>
<path d="M9398 8684 c-3 -3 -4 -13 -1 -23 3 -12 21 -20 58 -27 29 -5 58 -8 64
-6 19 6 12 32 -11 41 -33 12 -104 22 -110 15z"/>
<path d="M8590 8638 c-43 -44 -83 -129 -67 -140 9 -6 8 -11 -5 -18 -11 -7 -16
-24 -16 -56 0 -26 -5 -51 -11 -57 -15 -15 -14 -64 3 -74 8 -5 19 -53 30 -127
18 -130 20 -136 41 -136 24 0 25 15 11 116 -25 178 -28 206 -16 199 6 -4 27
10 47 30 34 34 35 38 19 47 -17 9 -15 12 12 25 33 16 46 44 58 126 13 92 -46
127 -106 65z m71 -65 c-5 -10 -16 -38 -25 -63 -22 -61 -50 -106 -77 -121 -22
-11 -22 -11 -16 40 7 62 39 137 74 173 26 27 27 27 40 8 9 -13 11 -25 4 -37z"/>
<path d="M9083 8638 c-29 -50 -32 -73 -16 -128 11 -38 19 -50 34 -50 15 0 19
7 19 39 0 22 -4 43 -10 46 -16 10 -12 41 9 66 l19 24 11 -28 c6 -16 11 -48 11
-72 0 -56 8 -75 31 -75 16 0 19 7 19 43 -1 58 -18 128 -37 149 -27 30 -68 23
-90 -14z"/>
<path d="M8795 8606 c-12 -18 -18 -49 -19 -100 -1 -78 4 -92 29 -83 11 5 15
23 15 78 0 62 2 71 20 76 20 5 29 43 11 43 -5 0 -16 3 -24 6 -10 3 -22 -4 -32
-20z"/>
<path d="M14777 8403 c-3 -4 -14 -42 -25 -83 -11 -41 -25 -88 -31 -103 l-11
-29 -34 20 c-82 48 -114 17 -123 -118 l-6 -79 34 -34 34 -34 -33 -87 -34 -86
-1319 0 c-1174 0 -1319 2 -1319 15 0 9 10 49 22 89 l21 74 58 11 c32 7 74 24
96 40 44 32 75 94 66 132 -13 51 -66 98 -110 99 -22 0 -22 1 -8 41 16 44 20
81 7 64 -4 -5 -13 -10 -21 -10 -8 0 -21 -19 -28 -42 -13 -39 -18 -43 -49 -43
-19 0 -43 6 -55 13 -17 10 -22 9 -33 -5 -7 -10 -18 -18 -25 -18 -6 0 -11 -12
-11 -27 0 -16 -3 -55 -6 -89 -7 -70 11 -117 51 -136 30 -14 30 -22 -3 -123
l-27 -80 -864 -3 c-820 -2 -863 -1 -856 15 6 17 35 160 35 176 0 4 -9 7 -20 7
-14 0 -28 -16 -46 -51 -33 -67 -50 -54 -46 37 4 71 -10 103 -34 83 -10 -8 -12
-31 -7 -92 6 -96 23 -131 59 -124 19 3 24 1 20 -10 -3 -8 -6 -21 -6 -29 0 -11
-21 -14 -105 -14 l-105 0 50 48 c30 29 50 57 50 70 0 36 -35 62 -81 62 -33 0
-47 -6 -74 -33 l-33 -33 -5 26 c-3 14 -9 65 -13 112 -4 48 -9 86 -13 84 -3 -2
-7 37 -8 87 -2 96 -14 125 -38 94 -12 -17 -12 -60 1 -96 3 -8 7 -57 9 -110 3
-52 8 -97 12 -100 7 -5 11 -165 5 -198 -2 -10 -199 -13 -929 -16 l-928 -2 927
-3 927 -2 3 -22 c3 -24 48 -40 48 -17 0 30 35 38 163 39 70 0 127 -3 127 -7 0
-8 -10 -43 -49 -177 -16 -52 -18 -73 -10 -83 16 -18 36 0 44 40 4 18 20 76 37
130 l30 97 858 0 c562 0 861 -3 865 -10 3 -5 15 -10 26 -10 10 0 19 5 19 10 0
7 447 10 1321 10 l1321 0 -5 -22 c-6 -21 7 -48 23 -48 5 0 14 16 20 35 l12 35
486 2 487 3 -482 2 c-457 3 -483 4 -483 21 0 10 4 22 10 28 5 5 18 34 28 64
17 50 21 54 53 57 60 6 73 11 112 46 55 51 52 90 -9 147 -41 38 -45 45 -35 66
6 15 7 24 1 24 -6 0 -10 5 -10 10 0 6 6 10 14 10 15 0 44 100 41 140 -2 24
-19 38 -28 23z m-2799 -238 c0 -19 -3 -33 -8 -30 -4 2 -13 -17 -20 -43 -7 -26
-14 -55 -17 -64 -7 -28 -31 -19 -52 19 -14 27 -14 63 -1 99 10 25 12 26 24 9
15 -21 36 -12 36 14 0 21 8 31 26 31 7 0 12 -14 12 -35z m98 15 c52 -20 66
-58 39 -109 -16 -32 -93 -74 -124 -69 -18 3 -18 4 1 77 30 115 34 120 84 101z
m2614 -40 c0 -4 -7 -24 -15 -44 -8 -20 -22 -52 -30 -71 -13 -32 -16 -34 -34
-23 -17 10 -19 21 -16 85 4 95 14 109 61 81 19 -11 34 -23 34 -28z m110 -86
c0 -20 -69 -74 -95 -74 -29 0 -29 0 -10 46 8 19 15 36 15 39 1 3 6 19 12 36
l10 31 34 -33 c19 -18 34 -38 34 -45z m-4874 -155 c12 -20 -16 -53 -68 -82
-27 -16 -53 -26 -56 -23 -9 9 31 76 57 97 26 21 56 25 67 8z"/>
<path d="M12023 8393 c-30 -12 -4 -54 28 -46 25 7 27 53 2 52 -10 0 -24 -3
-30 -6z"/>
<path d="M13013 8309 c-36 -10 -54 -50 -36 -78 16 -25 38 -19 41 12 3 22 8 27
29 27 15 0 34 -7 44 -16 16 -15 16 -18 -8 -64 -14 -27 -50 -77 -79 -111 -58
-67 -59 -70 -44 -99 20 -38 155 -56 196 -26 29 21 10 31 -66 32 -37 1 -73 5
-79 9 -8 4 2 23 27 53 50 62 86 119 100 160 14 41 -5 87 -40 97 -44 13 -53 13
-85 4z"/>
<path d="M14967 8304 c-10 -11 -8 -53 3 -74 8 -16 8 -18 -5 -14 -8 4 -15 2
-15 -2 0 -5 -2 -46 -3 -91 -2 -55 0 -83 7 -83 6 0 5 -4 -2 -9 -13 -8 -51 -154
-52 -198 0 -30 28 -30 39 0 17 45 50 233 52 302 5 141 4 168 -7 172 -5 2 -13
0 -17 -3z"/>
<path d="M13386 8284 c-23 -23 -30 -63 -19 -104 8 -32 6 -41 -13 -64 -23 -26
-54 -112 -54 -148 0 -10 7 -18 15 -18 9 0 12 -6 9 -15 -8 -19 13 -44 45 -56
56 -22 121 42 121 117 0 22 -12 62 -25 89 -14 28 -25 53 -25 57 0 4 27 28 60
54 60 47 73 70 45 80 -9 4 -37 -14 -72 -45 -48 -41 -59 -47 -66 -34 -13 22 8
64 28 57 8 -3 22 -3 30 0 13 4 14 10 5 26 -13 24 -62 27 -84 4z m41 -221 c22
-51 21 -98 -2 -123 -36 -40 -75 -15 -75 47 0 35 35 113 50 113 6 0 18 -17 27
-37z"/>
<path d="M15091 8274 c-27 -34 -27 -63 2 -105 l23 -34 -28 -40 c-15 -22 -30
-59 -34 -81 -5 -36 -3 -45 22 -72 79 -86 219 -40 219 72 0 33 -7 44 -48 81
-26 24 -47 45 -47 48 0 2 25 22 55 42 30 21 55 42 55 47 0 4 5 7 11 6 6 -2 16
5 22 15 10 15 8 21 -8 33 -25 18 -50 14 -50 -8 0 -10 -29 -38 -63 -63 -62 -45
-64 -46 -83 -29 -27 25 -22 68 9 72 32 5 25 36 -9 40 -19 2 -33 -5 -48 -24z
m115 -200 c32 -26 44 -42 44 -62 -1 -36 -21 -61 -60 -72 -46 -13 -90 18 -90
63 0 29 41 107 57 107 3 0 26 -16 49 -36z"/>
<path d="M12337 8273 c-4 -3 -7 -15 -7 -25 0 -17 6 -19 43 -17 102 6 110 -7
46 -76 -45 -49 -46 -72 -4 -95 14 -7 25 -19 25 -26 0 -21 -48 -51 -101 -64
-42 -10 -53 -10 -60 1 -13 21 -33 -4 -24 -31 7 -21 11 -22 68 -17 34 3 63 10
65 16 2 6 12 11 22 11 27 0 80 57 80 85 0 15 -11 33 -30 47 l-30 22 29 30 c84
90 58 146 -69 146 -26 0 -50 -3 -53 -7z"/>
<path d="M14137 8259 c-64 -22 -76 -34 -54 -56 14 -15 21 -15 35 -5 53 38 140
53 161 29 14 -18 22 -67 11 -67 -5 0 -25 -24 -46 -52 -20 -29 -68 -88 -107
-130 -38 -42 -66 -82 -62 -87 8 -13 42 -14 49 -2 8 13 124 32 176 29 39 -3 45
0 45 17 0 18 -8 20 -83 23 l-84 3 36 39 c20 22 36 47 36 56 0 8 4 13 10 9 15
-9 70 96 70 136 0 55 -29 79 -93 77 -28 -2 -73 -10 -100 -19z"/>
<path d="M12550 7970 c0 -23 22 -35 45 -26 13 4 14 10 5 26 -14 27 -50 27 -50
0z"/>
<path d="M13657 7975 c-4 -8 -2 -26 3 -39 20 -54 57 -41 43 15 -10 36 -37 50
-46 24z"/>
<path d="M9797 7073 c1058 -2 2788 -2 3845 0 1058 1 193 2 -1922 2 -2115 0
-2980 -1 -1923 -2z"/>
<path d="M9797 6383 c1057 -2 2789 -2 3850 0 1060 1 196 2 -1922 2 -2117 0
-2985 -1 -1928 -2z"/>
<path d="M9797 5693 c1058 -2 2788 -2 3845 0 1058 1 193 2 -1922 2 -2115 0
-2980 -1 -1923 -2z"/>
<path d="M9802 5003 c1054 -2 2782 -2 3840 0 1058 1 195 2 -1917 2 -2112 0
-2977 -1 -1923 -2z"/>
<path d="M9802 3613 c1054 -2 2782 -2 3840 0 1058 1 195 2 -1917 2 -2112 0
-2977 -1 -1923 -2z"/>
<path d="M9797 2923 c1058 -2 2788 -2 3845 0 1058 1 193 2 -1922 2 -2115 0
-2980 -1 -1923 -2z"/>
<path d="M9797 2233 c1057 -2 2789 -2 3850 0 1060 1 196 2 -1922 2 -2117 0
-2985 -1 -1928 -2z"/>
<path d="M9797 1543 c1058 -2 2788 -2 3845 0 1058 1 193 2 -1922 2 -2115 0
-2980 -1 -1923 -2z"/>
<path d="M9802 853 c1054 -2 2782 -2 3840 0 1058 1 195 2 -1917 2 -2112 0
-2977 -1 -1923 -2z"/>
</g>
</svg>
