<?xml version="1.0" standalone="no"?>
<!DOCTYPE svg PUBLIC "-//W3C//DTD SVG 20010904//EN"
 "http://www.w3.org/TR/2001/REC-SVG-20010904/DTD/svg10.dtd">
<svg version="1.0" xmlns="http://www.w3.org/2000/svg"
 width="1618.000000pt" height="1214.000000pt" viewBox="0 0 1618.000000 1214.000000"
 preserveAspectRatio="xMidYMid meet">

<g transform="translate(0.000000,1214.000000) scale(0.100000,-0.100000)"
fill="#000000" stroke="none">
<path d="M630 6040 l0 -5190 3310 0 3310 0 0 5190 0 5190 -3310 0 -3310 0 0
-5190z m6610 0 l0 -5180 -3300 0 -3300 0 0 5180 0 5180 3300 0 3300 0 0 -5180z"/>
<path d="M6248 10688 c-2 -7 -1 -92 3 -188 8 -190 30 -302 62 -308 10 -2 18 2
18 10 2 26 -3 53 -13 66 -6 6 -8 12 -5 12 3 0 1 17 -5 38 -5 20 -12 113 -16
207 -6 145 -9 170 -23 173 -9 2 -18 -3 -21 -10z"/>
<path d="M5737 10663 c-7 -12 16 -213 24 -213 4 0 5 -9 2 -20 -3 -11 0 -26 6
-33 6 -8 9 -16 6 -19 -7 -7 32 -137 50 -164 8 -13 22 -24 31 -24 22 0 28 27
10 45 -30 30 -31 65 -4 114 31 56 64 74 114 65 25 -5 42 -16 55 -38 18 -27 20
-46 17 -151 -3 -114 -2 -120 17 -120 18 0 21 9 26 100 7 107 4 145 -16 185
-20 40 -50 61 -93 67 l-40 5 24 36 c14 20 22 42 19 49 -2 8 0 11 5 8 9 -6 14
8 11 28 0 4 5 7 12 7 22 0 39 46 22 60 -15 12 -41 -17 -91 -105 -16 -27 -50
-72 -77 -98 -33 -32 -47 -53 -43 -63 5 -12 2 -15 -10 -10 -8 3 -19 6 -22 6 -4
0 -1 4 6 9 11 6 11 20 3 67 -8 47 -16 123 -21 207 0 4 -9 7 -19 7 -11 0 -22
-3 -24 -7z"/>
<path d="M5220 10596 c-25 -18 -58 -48 -74 -65 -35 -37 -42 -38 -49 -10 -7 27
-43 22 -40 -6 1 -11 3 -103 3 -203 1 -188 7 -228 36 -239 17 -6 142 22 156 35
4 4 3 14 -2 21 -7 12 -17 13 -57 4 -26 -7 -55 -14 -64 -18 -12 -5 -17 5 -25
47 -5 29 -8 69 -6 88 3 33 8 38 70 68 37 17 79 32 94 32 34 0 45 17 25 37 -13
14 -21 14 -61 2 -25 -7 -46 -17 -46 -21 0 -4 -9 -8 -20 -8 -11 0 -20 -4 -20
-10 0 -5 -9 -10 -20 -10 -18 0 -20 7 -20 60 0 33 4 60 10 60 6 0 13 0 18 1 4
0 30 22 58 49 28 26 70 58 93 69 45 24 50 44 10 49 -15 1 -41 -11 -69 -32z"/>
<path d="M6645 10560 c-8 -13 13 -40 31 -40 20 0 27 19 14 35 -14 17 -36 19
-45 5z"/>
<path d="M4190 10443 c-12 -16 -34 -49 -50 -75 -16 -26 -41 -55 -56 -64 -26
-17 -27 -17 -43 3 -9 11 -28 41 -43 67 -28 47 -60 61 -72 30 -3 -9 -6 -69 -6
-134 0 -69 -4 -121 -10 -125 -18 -11 -11 -45 10 -45 32 0 43 37 42 144 0 80 2
97 12 82 6 -10 22 -32 34 -47 46 -57 116 -28 172 69 19 34 38 62 42 62 13 0
19 -76 8 -105 -11 -30 -4 -151 11 -192 5 -13 16 -23 25 -23 14 0 16 7 10 53
-6 44 -10 212 -5 227 5 19 -5 68 -18 83 -22 24 -38 21 -63 -10z"/>
<path d="M5370 10441 c0 -18 26 -48 34 -40 5 5 9 30 7 47 -2 20 -41 14 -41 -7z"/>
<path d="M2870 10432 c0 -5 -13 -7 -29 -4 -36 5 -312 -37 -326 -50 -7 -6 -4
-14 7 -22 14 -10 33 -10 100 1 46 8 129 20 186 27 101 13 131 24 118 45 -8 13
-56 15 -56 3z"/>
<path d="M3214 10425 c-4 -8 -3 -27 0 -41 4 -14 3 -23 -2 -20 -5 3 -8 -7 -6
-22 2 -15 7 -80 11 -144 4 -86 3 -118 -5 -118 -7 0 -38 32 -69 72 -101 126
-160 185 -174 171 -6 -6 -16 -56 -20 -110 -11 -122 -14 -141 -28 -177 -13 -32
-2 -52 22 -43 17 6 33 67 42 156 11 113 12 113 89 16 38 -48 72 -82 78 -79 6
4 8 3 5 -3 -9 -15 48 -65 70 -61 32 6 45 86 33 207 -6 58 -11 123 -10 145 1
23 1 47 1 54 -1 17 -30 15 -37 -3z"/>
<path d="M7085 10430 c-11 -4 -33 -22 -49 -38 -25 -27 -28 -37 -23 -71 6 -51
37 -94 81 -115 46 -22 106 -3 117 38 10 37 -17 48 -42 18 -20 -26 -46 -28 -74
-6 -15 13 -17 17 -6 21 33 13 72 60 77 94 9 56 -27 82 -81 59z m38 -60 c-6
-22 -39 -50 -60 -50 -18 0 -16 13 8 44 25 32 60 36 52 6z"/>
<path d="M2290 10354 c-150 -78 -158 -92 -73 -124 134 -50 223 -106 223 -141
0 -24 -42 -55 -102 -77 -32 -11 -48 -22 -46 -32 4 -17 48 -27 48 -10 0 6 4 8
10 5 13 -8 80 28 109 59 33 35 30 80 -5 118 -16 15 -70 49 -121 74 -51 25 -93
48 -93 50 0 2 33 20 73 40 39 20 78 41 86 47 20 16 39 17 45 1 6 -16 32 -19
41 -4 11 18 -23 60 -48 59 -12 0 -78 -29 -147 -65z"/>
<path d="M6441 10407 c-21 -26 -41 -87 -41 -127 0 -61 33 -90 102 -90 62 0
106 23 88 45 -8 10 -20 11 -43 4 -46 -13 -73 -11 -91 7 -16 16 -22 46 -8 42
10 -3 96 43 104 56 13 18 9 35 -12 56 -23 23 -82 27 -99 7z m43 -54 c-13 -10
-20 -10 -23 -2 -4 14 19 30 33 22 5 -3 1 -12 -10 -20z"/>
<path d="M6785 10347 c-35 -35 -51 -76 -41 -103 9 -24 41 -12 44 16 2 14 11
36 21 49 17 22 20 23 34 9 9 -9 19 -39 23 -67 3 -28 13 -56 20 -62 52 -43 31
111 -24 174 -22 25 -40 21 -77 -16z"/>
<path d="M6666 10324 c-9 -26 -16 -57 -16 -70 0 -26 21 -46 38 -35 11 7 14 24
24 121 2 16 -3 26 -13 28 -12 2 -21 -10 -33 -44z"/>
<path d="M2696 10334 c-9 -34 -7 -234 2 -294 6 -36 11 -45 27 -45 16 0 19 6
17 25 -2 14 -4 96 -5 183 -2 139 -4 157 -18 157 -10 0 -20 -11 -23 -26z"/>
<path d="M4694 10353 c-6 -4 -14 -15 -17 -23 -4 -12 -6 -11 -6 3 -1 11 -9 17
-27 17 -19 0 -25 -5 -22 -17 3 -15 17 -19 76 -23 l73 -5 -86 -84 c-90 -90
-104 -113 -84 -138 11 -13 25 -14 84 -7 38 4 90 8 114 7 24 0 38 3 31 7 -7 4
-11 13 -8 20 3 9 9 8 21 -4 9 -10 17 -13 17 -7 0 29 -112 38 -205 15 -12 -3
12 26 56 68 42 41 83 85 93 99 15 25 15 27 -1 47 -19 23 -90 39 -109 25z m46
-123 c-20 -13 -33 -13 -25 0 3 6 14 10 23 10 15 0 15 -2 2 -10z"/>
<path d="M5375 10300 c-9 -15 3 -157 15 -181 11 -20 25 -25 34 -11 2 4 1 50
-2 102 -6 77 -10 95 -24 98 -9 2 -19 -2 -23 -8z"/>
<path d="M5515 10256 c-25 -38 -35 -83 -21 -95 17 -14 31 -1 46 44 l13 39 38
-43 c25 -28 44 -41 54 -37 8 3 15 10 15 15 0 10 -56 79 -75 93 -20 15 -55 7
-70 -16z"/>
<path d="M4375 10236 c-20 -30 -17 -124 4 -150 24 -29 79 -20 117 18 57 57 40
117 -38 136 -18 4 -41 11 -50 15 -11 4 -22 -1 -33 -19z m99 -49 c15 -11 17
-17 7 -35 -6 -12 -21 -27 -33 -33 -18 -10 -24 -8 -35 7 -7 10 -11 25 -8 32 3
8 5 20 5 28 0 18 40 18 64 1z"/>
<path d="M3510 10240 c-14 -4 -42 -8 -63 -9 -40 -1 -59 -23 -38 -44 8 -8 27
-8 74 3 34 7 73 13 87 14 18 1 25 7 25 21 0 15 -7 20 -30 22 -16 1 -41 -2 -55
-7z"/>
<path d="M2113 10063 c-21 -7 -15 -48 10 -70 27 -25 79 -43 124 -43 30 0 34 3
31 23 -2 18 -11 23 -48 27 -33 4 -48 1 -58 -10 -11 -13 -11 -13 -7 1 3 9 -1
22 -10 29 -8 7 -15 18 -15 26 0 16 -11 23 -27 17z"/>
<path d="M4294 9695 c-4 -9 7 -30 25 -50 30 -35 72 -109 85 -152 6 -18 2 -22
-26 -29 -18 -4 -42 -8 -53 -8 -13 -1 -20 -8 -20 -21 0 -22 29 -25 92 -11 30 7
32 6 39 -28 3 -20 10 -39 15 -42 5 -3 3 -13 -3 -24 -14 -22 5 -74 25 -67 14 4
17 103 4 153 l-8 30 108 51 c136 64 157 71 123 41 -14 -13 -43 -37 -64 -54
-23 -18 -36 -36 -32 -42 4 -7 37 -11 89 -10 132 2 153 -13 95 -69 -49 -47
-118 -69 -118 -38 0 24 -28 17 -47 -11 -16 -25 -16 -27 2 -40 23 -17 51 -18
96 -2 53 18 89 46 83 66 -5 14 -4 14 4 3 15 -22 51 25 52 66 0 40 -35 67 -80
61 -16 -3 -30 0 -30 5 0 5 -11 7 -25 5 -33 -7 -42 8 -11 16 30 7 90 81 82 101
-12 33 -82 16 -241 -59 -53 -25 -98 -46 -99 -46 -2 0 -11 20 -20 45 -11 28
-24 45 -34 45 -12 0 -13 3 -5 8 9 5 7 16 -9 40 -11 17 -24 29 -29 26 -5 -3 -8
-2 -7 3 1 4 -3 18 -10 31 -14 25 -40 29 -48 7z"/>
<path d="M2860 9563 c-20 -18 -33 -41 -37 -66 -6 -36 -3 -40 66 -109 58 -59
71 -77 71 -103 0 -75 51 -183 97 -204 31 -14 44 7 44 73 0 60 -18 105 -61 151
l-29 30 30 85 c32 94 34 127 6 122 -10 -2 -31 8 -48 22 -43 36 -98 35 -139 -1z
m101 -23 c10 -6 26 -24 35 -41 14 -28 14 -35 -2 -80 -10 -27 -21 -49 -25 -49
-10 0 -109 108 -109 120 0 17 47 60 65 60 9 0 25 -5 36 -10z m84 -325 c9 -23
15 -51 13 -61 -3 -16 -7 -13 -21 12 -9 18 -21 51 -26 73 -7 35 -7 40 4 31 8
-7 21 -31 30 -55z"/>
<path d="M3917 9543 c-12 -11 -7 -61 6 -66 14 -5 44 13 45 28 1 11 -28 45 -38
45 -4 0 -10 -3 -13 -7z"/>
<path d="M3610 9418 c-34 -17 -51 -35 -71 -73 -25 -49 -41 -89 -43 -110 -1 -5
-6 -14 -13 -20 -9 -8 -8 -23 7 -65 11 -30 20 -73 20 -95 2 -66 23 -120 45
-120 18 0 20 6 17 50 -2 28 -10 78 -18 113 -19 87 -18 128 4 136 114 43 202
164 143 196 -28 15 -41 13 -91 -12z m60 -37 c0 -26 -92 -103 -106 -88 -2 2 7
20 20 40 13 19 21 39 18 43 -4 4 -2 5 3 1 6 -3 17 -2 25 4 19 11 40 12 40 0z"/>
<path d="M4113 9433 c-11 -4 -73 -88 -73 -98 0 -2 7 -11 16 -20 12 -12 19 -13
30 -4 8 6 14 17 14 25 0 7 11 25 24 40 l23 28 19 -22 c10 -12 21 -39 24 -60 3
-26 11 -38 24 -40 29 -6 36 10 24 56 -18 74 -74 116 -125 95z"/>
<path d="M3741 9398 c-11 -30 2 -118 20 -129 42 -27 109 17 109 72 0 23 -9 34
-40 54 -49 31 -78 32 -89 3z m79 -43 c10 -13 10 -19 -5 -35 -26 -29 -35 -25
-35 15 0 38 18 47 40 20z"/>
<path d="M3930 9398 c0 -14 28 -103 40 -128 10 -22 35 -18 38 5 1 11 -6 45
-17 75 -14 40 -25 56 -40 58 -12 2 -21 -2 -21 -10z"/>
<path d="M4670 8783 c1 -42 23 -143 36 -165 5 -7 7 -21 6 -30 -2 -12 3 -15 20
-12 20 5 21 4 5 -6 -14 -9 -16 -19 -11 -47 8 -40 -4 -53 -49 -53 -24 0 -28 -4
-25 -22 3 -24 28 -28 74 -13 20 6 22 2 30 -72 7 -59 13 -78 24 -78 12 0 14 15
12 87 l-4 86 31 7 c17 4 29 10 26 14 -2 5 7 6 20 3 20 -3 25 0 25 17 0 23 -25
29 -34 9 -5 -10 -7 -10 -12 -1 -4 9 -13 9 -31 2 -32 -12 -38 -6 -51 51 -5 25
-17 72 -26 105 -9 33 -17 81 -19 105 -2 38 -7 46 -25 48 -19 3 -22 -1 -22 -35z"/>
<path d="M5365 8760 c-11 -17 5 -50 25 -50 10 0 21 7 24 16 11 30 -33 60 -49
34z"/>
<path d="M4969 8709 c-11 -6 -11 -13 -3 -26 15 -25 38 -23 42 3 3 24 -18 37
-39 23z"/>
<path d="M5601 8601 c-22 -22 -63 -127 -59 -150 4 -20 37 -27 42 -9 2 7 9 33
16 56 14 53 21 49 27 -14 2 -26 8 -53 14 -61 12 -14 39 -18 39 -5 -1 23 -21
159 -25 173 -9 26 -33 31 -54 10z"/>
<path d="M5797 8594 c-4 -4 -7 -22 -7 -41 0 -36 25 -68 67 -84 34 -13 53 -5
53 21 0 19 2 20 29 6 44 -23 105 -86 137 -141 15 -27 32 -53 37 -56 5 -4 -15
-15 -44 -24 -77 -25 -107 -42 -114 -65 -3 -11 -12 -19 -18 -17 -7 1 -13 -11
-15 -26 -6 -49 55 -97 124 -97 28 0 44 8 69 33 38 38 57 103 34 118 -22 14
-29 11 -29 -11 0 -30 -27 -78 -51 -90 -23 -13 -80 2 -100 26 -10 12 -8 19 10
37 28 31 123 60 163 52 25 -6 30 -4 25 8 -9 23 71 41 94 22 34 -32 60 -8 34
32 -15 23 -22 25 -64 20 -25 -2 -53 -7 -61 -11 -11 -4 -24 11 -48 53 -41 77
-115 152 -180 185 l-52 26 -20 -20 c-25 -25 -41 -17 -38 18 3 26 -19 42 -35
26z"/>
<path d="M5065 8525 c-37 -16 -85 -76 -86 -107 -1 -15 -6 -7 -17 24 -17 52
-38 68 -47 37 -8 -24 14 -106 32 -121 15 -12 33 -2 33 18 0 10 7 13 23 9 13
-4 59 3 102 14 43 12 87 21 98 21 16 0 17 3 8 14 -9 11 -9 15 1 18 7 3 -3 5
-21 6 -19 0 -40 -2 -45 -6 -6 -3 -18 -7 -26 -7 -8 0 -32 -4 -52 -9 -28 -6 -35
-12 -31 -24 4 -14 3 -14 -5 -3 -8 11 -5 22 10 40 26 35 56 50 96 51 25 0 32 4
32 20 0 16 -7 20 -31 20 -21 0 -28 -4 -23 -12 6 -10 5 -10 -7 -1 -11 9 -21 8
-44 -2z"/>
<path d="M1915 8468 c-49 -57 -150 -265 -174 -358 -23 -89 -25 -66 -11 105 12
131 6 193 -17 202 -22 8 -32 -14 -23 -52 4 -18 5 -55 2 -84 -3 -31 0 -56 7
-65 9 -11 8 -15 -4 -20 -17 -6 -22 -76 -5 -76 6 0 10 -5 10 -11 0 -5 -4 -8 -9
-4 -13 8 -23 -67 -19 -145 2 -52 6 -65 21 -68 10 -2 20 4 23 15 3 10 14 34 24
53 10 19 28 73 40 120 19 74 98 266 106 257 2 -1 -4 -26 -12 -55 -15 -49 -15
-127 -1 -217 10 -64 39 -106 95 -134 49 -25 51 23 2 51 -47 27 -66 79 -64 183
1 54 8 108 17 136 9 25 18 54 20 65 2 10 14 41 26 68 37 85 6 104 -54 34z"/>
<path d="M4367 8489 c-9 -5 -24 -23 -32 -39 -45 -88 25 -198 119 -186 48 6 76
30 57 48 -10 11 -11 9 -6 -7 6 -17 5 -18 -7 -5 -7 8 -24 14 -37 12 -44 -7 -72
7 -87 43 -19 46 -19 46 16 90 17 21 30 42 30 46 0 12 -31 11 -53 -2z"/>
<path d="M5391 8481 c-18 -32 -13 -75 9 -89 25 -15 30 -6 27 57 -2 48 -19 64
-36 32z"/>
<path d="M3696 8465 c-26 -28 -39 -70 -57 -193 -13 -86 -27 -100 -43 -44 -6
21 -15 32 -27 32 -28 0 -24 -27 21 -145 29 -76 40 -120 40 -160 0 -58 15 -79
36 -50 9 12 13 53 13 132 l-1 114 35 38 c40 45 68 119 69 188 1 54 -12 87 -42
103 -17 9 -24 6 -44 -15z m44 -77 c0 -46 -38 -168 -53 -168 -10 0 -4 110 7
128 4 7 2 19 -4 27 -10 12 -9 15 3 15 8 0 17 9 20 20 9 36 27 21 27 -22z"/>
<path d="M4093 8418 c-32 -35 -63 -99 -63 -130 0 -17 8 -31 20 -38 23 -12 28
-10 83 33 21 16 37 25 36 21 -7 -41 17 -84 47 -84 23 0 30 31 10 46 -13 9 -17
25 -16 56 1 24 1 49 1 56 -2 19 -26 14 -47 -9 -10 -12 -36 -35 -57 -51 -38
-31 -42 -21 -9 30 12 18 12 25 1 40 -11 14 -11 15 0 5 11 -9 19 -8 37 4 13 8
24 22 24 29 0 22 -44 16 -67 -8z"/>
<path d="M3916 8415 c-3 -8 -2 -25 3 -37 4 -12 4 -40 -1 -62 -7 -30 -5 -43 6
-54 25 -25 34 -4 35 83 1 77 -1 85 -18 85 -10 0 -21 -7 -25 -15z"/>
<path d="M2635 8373 c-27 -29 -58 -115 -49 -137 3 -7 -2 -19 -11 -26 -8 -7
-15 -23 -15 -35 0 -13 -7 -25 -15 -29 -21 -8 -19 -37 4 -43 17 -4 21 -17 27
-84 3 -43 11 -79 16 -79 5 0 7 -4 4 -9 -3 -5 -3 -37 1 -70 5 -56 8 -62 27 -59
15 2 21 10 20 28 -2 34 -12 132 -22 209 -9 68 -9 69 43 100 17 10 44 37 60 61
25 36 30 53 30 101 0 42 -5 62 -19 78 -27 30 -70 27 -101 -6z m73 -30 c27 -50
-32 -173 -82 -173 -19 0 9 131 35 165 24 30 35 31 47 8z"/>
<path d="M2351 8325 c-54 -62 -77 -188 -46 -261 16 -39 62 -64 120 -64 29 0
35 4 35 20 0 12 -6 20 -12 19 -7 -2 -32 3 -55 9 -35 10 -44 18 -53 48 -19 56
-5 121 29 138 15 8 44 33 65 56 43 48 37 70 -19 70 -25 0 -40 -8 -64 -35z"/>
<path d="M2125 8281 c-44 -27 -71 -60 -94 -114 -24 -57 -27 -105 -7 -113 8 -3
12 -12 10 -19 -3 -7 8 -22 25 -34 27 -19 34 -20 75 -10 30 7 43 15 40 24 -4
10 1 12 16 8 18 -5 21 -2 18 13 -4 21 -12 21 -75 3 -55 -17 -73 -3 -73 58 0
41 2 44 16 32 14 -12 21 -7 55 31 50 58 74 103 66 124 -8 21 -35 20 -72 -3z
m-17 -81 c-22 -30 -35 -41 -22 -17 9 16 36 47 41 47 2 0 -6 -13 -19 -30z"/>
<path d="M4372 7721 c-7 -4 -15 -29 -18 -54 -2 -25 -9 -58 -14 -72 -8 -20 -6
-27 5 -31 23 -9 34 4 50 60 11 39 13 60 6 80 -12 29 -11 29 -29 17z"/>
<path d="M3940 7631 c0 -28 37 -169 60 -228 17 -46 18 -53 4 -53 -23 0 -104
-39 -104 -51 0 -19 31 -21 80 -3 27 10 51 16 54 13 2 -2 14 -42 28 -89 17 -60
29 -86 41 -88 25 -5 22 43 -7 127 l-24 68 22 14 c11 8 29 17 39 21 10 5 17 14
15 20 -7 19 -53 21 -71 3 -15 -14 -18 -13 -32 22 -9 21 -28 80 -41 132 -14 52
-27 98 -30 103 -10 15 -34 8 -34 -11z"/>
<path d="M2630 7468 c-11 -18 -27 -58 -36 -88 -25 -85 -82 -202 -96 -198 -13
4 -118 203 -118 224 0 6 -9 19 -21 30 -20 18 -21 18 -35 -1 -23 -31 -17 -149
12 -272 18 -72 27 -141 29 -208 1 -91 3 -100 21 -100 18 0 19 8 17 117 -1 77
-9 143 -22 195 -11 43 -23 103 -26 133 l-6 55 48 -95 c27 -53 60 -103 75 -114
26 -18 28 -18 53 -2 29 19 83 127 110 218 25 87 31 89 54 14 12 -38 21 -76 21
-87 0 -10 8 -22 17 -28 13 -7 14 -12 6 -23 -8 -9 -9 -37 -2 -96 11 -96 21
-122 49 -122 21 0 27 19 11 36 -5 5 -12 41 -16 79 -19 208 -67 365 -110 365
-9 0 -24 -15 -35 -32z"/>
<path d="M4431 7418 c-17 -17 -31 -37 -31 -43 0 -19 42 -52 90 -71 88 -33 100
-66 38 -104 -42 -25 -67 -25 -118 1 -40 21 -75 20 -68 -3 6 -17 81 -55 97 -50
9 3 11 0 6 -7 -5 -9 3 -10 32 -5 107 19 167 99 117 156 -11 11 -48 34 -84 50
l-65 30 34 28 c18 16 30 33 27 39 -13 20 -43 11 -75 -21z"/>
<path d="M3221 7277 c-17 -21 11 -47 50 -47 16 0 29 -3 29 -7 0 -4 -15 -30
-34 -58 -41 -61 -52 -103 -32 -130 13 -17 17 -18 57 -5 24 7 47 13 51 12 17
-4 58 19 58 33 0 17 -26 19 -85 5 -22 -5 -41 -7 -44 -5 -5 6 20 65 28 65 3 0
19 21 35 46 26 40 27 47 14 60 -8 9 -30 19 -49 24 -19 4 -41 11 -50 14 -9 4
-21 1 -28 -7z"/>
<path d="M3730 7277 c-30 -15 -37 -54 -21 -109 15 -48 53 -90 75 -82 17 7 22
34 6 34 -13 0 -50 74 -50 100 0 11 6 20 14 20 16 0 29 27 20 41 -7 12 -14 11
-44 -4z"/>
<path d="M3486 7231 c-25 -28 -33 -113 -11 -134 22 -22 28 -22 63 8 l29 24 21
-24 c24 -27 62 -34 62 -11 0 16 -67 86 -83 86 -6 0 -24 -12 -40 -27 l-30 -28
7 30 c4 17 17 37 29 47 18 14 19 19 8 32 -18 21 -34 20 -55 -3z"/>
<path d="M2970 7210 c-41 -41 -12 -192 42 -218 23 -11 32 -10 58 3 43 22 80
82 78 128 -1 43 -17 60 -73 77 -22 7 -44 16 -49 21 -16 14 -35 10 -56 -11z
m113 -59 c32 -13 34 -32 7 -77 -22 -34 -56 -52 -71 -37 -12 12 -30 113 -23
125 7 11 41 6 87 -11z"/>
<path d="M4659 6853 c-4 -33 6 -102 26 -183 23 -93 37 -183 52 -345 7 -71 10
-80 28 -80 15 0 20 6 18 25 -1 14 -3 46 -4 73 -1 26 -5 47 -8 47 -3 0 -6 33
-7 73 -1 40 -13 121 -27 182 -15 61 -30 132 -35 160 -5 35 -12 51 -25 53 -9 2
-17 0 -18 -5z"/>
<path d="M4450 6805 c-12 -14 -10 -161 3 -240 18 -102 17 -123 -4 -128 -26 -7
-20 -31 8 -35 16 -2 24 -18 39 -80 22 -94 21 -89 23 -107 0 -8 10 -15 21 -15
26 0 26 24 0 126 -19 73 -19 80 -4 91 9 7 22 14 27 16 6 2 8 11 4 20 -5 13
-13 16 -31 11 -20 -5 -25 -1 -30 23 -12 59 -27 238 -24 281 3 48 -10 64 -32
37z"/>
<path d="M4184 6753 c6 -26 36 -274 36 -299 0 -6 -16 -18 -35 -27 -37 -17 -46
-43 -19 -54 8 -3 20 -1 27 6 6 6 14 11 18 11 3 0 12 -42 18 -92 18 -130 20
-138 43 -138 17 0 19 5 14 33 -3 17 -8 55 -11 82 -3 28 -7 68 -10 90 l-6 40
66 33 c36 17 65 36 65 42 0 22 -34 22 -76 1 -25 -11 -47 -21 -49 -21 -3 0 -5
16 -5 35 0 34 -24 216 -35 263 -4 14 -13 22 -26 22 -18 0 -20 -4 -15 -27z"/>
<path d="M3710 6684 c0 -70 12 -104 35 -104 8 0 15 -3 16 -7 7 -91 19 -247 22
-311 5 -84 20 -121 41 -103 9 8 9 44 0 148 -7 76 -15 179 -18 229 -7 144 -33
214 -78 214 -16 0 -18 -9 -18 -66z"/>
<path d="M4916 6519 c-14 -11 -26 -29 -26 -39 0 -9 -7 -23 -15 -30 -13 -11
-14 -16 -2 -34 8 -12 18 -36 21 -53 15 -66 121 -126 182 -102 62 23 94 42 94
55 0 23 -17 24 -61 4 -62 -28 -103 -26 -138 8 -47 44 -47 64 0 86 71 32 88 90
33 114 -36 17 -58 15 -88 -9z m48 -57 c-27 -23 -29 -24 -33 -7 -4 23 25 46 47
38 12 -5 10 -11 -14 -31z"/>
<path d="M3933 6504 c-8 -23 33 -62 49 -46 9 9 9 18 0 37 -13 28 -39 33 -49 9z"/>
<path d="M2658 6299 c-22 -23 -37 -47 -34 -55 3 -8 1 -14 -4 -14 -6 0 -10 -28
-10 -62 0 -120 65 -168 131 -97 16 17 29 35 29 40 0 5 4 9 8 9 10 0 34 -53 52
-112 13 -43 27 -55 43 -39 9 9 5 29 -13 82 -26 77 -53 119 -76 119 -10 0 -13
6 -10 18 12 37 10 120 -3 136 -25 30 -70 20 -113 -25z m77 -81 c-3 -46 -5 -86
-5 -89 0 -9 -40 -49 -49 -49 -16 0 -33 58 -30 102 5 63 39 113 81 117 4 1 6
-36 3 -81z"/>
<path d="M3972 6268 c-15 -15 -16 -154 -1 -164 21 -13 32 15 33 86 1 73 -10
100 -32 78z"/>
<path d="M5814 5946 c-7 -28 9 -56 31 -56 17 0 28 30 16 44 -5 6 -9 16 -10 21
0 23 -31 15 -37 -9z"/>
<path d="M6140 5800 c-14 -27 -7 -82 14 -116 37 -55 107 -51 166 9 52 53 25
75 -35 27 -66 -53 -110 -33 -110 48 0 50 -17 65 -35 32z"/>
<path d="M5648 5763 c-65 -54 -82 -84 -63 -109 11 -16 25 -19 90 -16 73 3 76
2 65 -17 -15 -28 -45 -43 -73 -35 -30 7 -43 -19 -21 -41 19 -18 26 -19 68 -1
60 25 95 93 64 124 -7 7 -41 12 -82 12 l-71 1 40 35 c22 19 46 40 53 45 7 6
10 14 7 20 -11 17 -43 9 -77 -18z"/>
<path d="M5397 5758 c-2 -7 11 -27 30 -45 32 -30 34 -35 31 -90 -3 -55 -4 -58
-30 -61 -41 -5 -95 25 -107 59 -11 31 -35 39 -45 13 -11 -30 31 -86 79 -104
36 -14 119 -12 133 2 14 14 16 32 2 23 -6 -3 -7 1 -4 9 3 9 11 16 16 16 15 0
3 91 -16 128 -25 49 -78 79 -89 50z"/>
<path d="M3743 5734 c-3 -8 16 -71 42 -140 26 -68 46 -126 44 -128 -2 -2 -14
-9 -27 -15 -12 -7 -20 -17 -16 -23 4 -7 3 -8 -4 -4 -16 9 -52 -11 -52 -29 0
-21 34 -19 72 5 18 11 36 20 39 20 3 0 20 -39 39 -87 39 -103 51 -121 69 -100
9 12 7 26 -9 68 -12 30 -27 61 -34 69 -8 8 -11 21 -8 29 2 8 -3 20 -13 27 -15
11 -14 14 12 27 15 8 52 22 81 31 28 10 52 22 52 27 0 6 -6 7 -12 3 -9 -5 -9
-2 1 9 11 14 11 17 -1 17 -25 0 -138 -42 -138 -51 0 -5 5 -9 10 -9 6 0 10 -4
10 -10 0 -27 -20 -5 -36 40 -12 33 -23 49 -31 45 -10 -3 -13 5 -11 32 1 21 -3
38 -9 40 -7 3 -10 10 -7 17 6 17 -32 106 -46 106 -6 0 -13 -7 -17 -16z"/>
<path d="M5860 5695 c0 -16 46 -65 60 -65 18 0 17 31 -1 54 -23 29 -59 35 -59
11z"/>
<path d="M5031 5664 c-12 -15 -21 -33 -21 -40 0 -21 -19 -26 -41 -11 -11 8
-29 12 -40 10 -24 -7 -67 -83 -47 -83 9 0 10 -3 2 -8 -6 -4 -15 -18 -19 -31
-7 -22 -9 -20 -29 27 -28 65 -42 80 -58 64 -9 -9 -7 -24 11 -64 13 -29 32 -81
43 -115 33 -105 58 -91 73 42 5 39 9 72 11 75 1 3 5 15 9 28 9 28 13 28 46 -4
35 -33 51 -27 69 25 7 23 17 44 20 46 4 2 26 -25 50 -61 33 -50 48 -64 64 -62
32 5 32 42 1 62 -14 9 -42 42 -61 72 -19 29 -41 54 -49 54 -7 0 -23 -12 -34
-26z"/>
<path d="M3330 5571 c0 -11 4 -23 10 -26 5 -3 19 -37 31 -75 14 -47 25 -68 32
-63 8 4 7 1 -1 -9 -19 -24 26 -152 56 -156 20 -3 22 1 22 37 0 23 4 41 9 41 5
0 20 -24 35 -53 32 -65 57 -90 88 -85 31 4 36 35 6 40 -17 2 -33 21 -60 73
-43 82 -73 109 -93 82 -17 -24 -22 -21 -30 16 -4 17 -10 36 -13 41 -3 5 -6 21
-7 36 -4 49 -42 120 -64 120 -14 0 -21 -6 -21 -19z"/>
<path d="M3057 5474 c-13 -13 -7 -42 10 -48 23 -9 40 10 27 31 -12 20 -27 26
-37 17z"/>
<path d="M2673 5333 c-20 -7 -15 -64 7 -98 11 -16 20 -46 20 -66 0 -41 21 -75
41 -67 8 3 29 42 48 87 18 44 38 81 43 81 14 0 48 -81 48 -115 0 -35 24 -75
45 -75 22 0 26 16 10 46 -8 16 -15 41 -15 55 0 14 -12 50 -27 80 -24 47 -32
54 -58 54 -22 0 -35 -8 -52 -34 -13 -19 -22 -40 -19 -47 3 -7 -1 -18 -9 -24
-11 -10 -15 -6 -20 17 -20 85 -37 115 -62 106z"/>
<path d="M3207 5303 c-4 -3 -7 -19 -7 -35 0 -21 6 -31 23 -37 13 -5 35 -27 49
-49 23 -35 128 -236 128 -245 0 -2 -21 -2 -47 0 -117 12 -143 -107 -36 -161
61 -31 114 -11 129 49 4 18 13 25 30 25 31 0 31 23 1 47 -12 10 -31 40 -41 67
-13 34 -21 44 -27 35 -6 -10 -8 -6 -7 11 2 31 -71 171 -129 245 -43 54 -53 62
-66 48z m137 -397 c-4 -11 4 -16 28 -18 27 -2 34 -8 36 -29 2 -15 -5 -32 -16
-42 -19 -17 -21 -17 -56 -1 -48 23 -63 74 -21 74 7 0 15 7 19 15 3 8 8 15 10
15 3 0 3 -6 0 -14z"/>
<path d="M3050 5253 c1 -34 28 -134 41 -149 10 -13 14 -13 26 -1 17 17 7 47
-16 47 -12 0 -13 2 -3 9 15 9 7 76 -11 99 -14 18 -37 15 -37 -5z"/>
<path d="M6000 5143 c1 -18 23 -65 78 -163 17 -30 35 -73 40 -96 l9 -41 -53
-26 c-52 -26 -68 -49 -40 -60 7 -3 32 6 56 19 24 14 44 23 45 22 9 -13 25 -77
25 -104 0 -27 4 -34 19 -34 27 0 32 33 15 97 -17 64 -14 67 47 77 42 7 57 22
40 39 -8 8 -25 8 -61 1 l-50 -10 -16 50 c-9 28 -33 80 -54 116 -20 36 -42 79
-47 95 -11 35 -53 49 -53 18z"/>
<path d="M6690 5102 c0 -5 -11 -13 -24 -16 -35 -9 -96 -81 -96 -114 0 -33 45
-102 66 -102 26 0 27 29 0 61 -14 17 -26 34 -26 38 0 19 46 64 77 78 26 10 34
19 31 35 -3 21 -28 39 -28 20z"/>
<path d="M5800 4941 c0 -22 29 -36 43 -22 15 15 0 41 -23 41 -13 0 -20 -7 -20
-19z"/>
<path d="M6390 4922 c-46 -25 -64 -61 -49 -98 22 -58 64 -59 113 -3 19 23 39
38 45 34 6 -3 25 -26 41 -51 32 -45 60 -58 60 -26 0 20 -21 54 -58 95 -38 40
-73 36 -112 -13 -32 -40 -50 -44 -50 -11 0 12 14 25 36 36 22 10 34 22 32 32
-5 24 -19 25 -58 5z"/>
<path d="M3914 4735 c-4 -8 -13 -15 -20 -15 -8 0 -17 -13 -20 -30 -4 -16 -11
-28 -17 -27 -15 3 -28 -53 -23 -101 7 -57 23 -85 95 -166 34 -38 61 -72 61
-75 0 -4 -29 -24 -65 -46 -61 -37 -80 -65 -56 -79 5 -4 37 12 70 34 33 22 64
40 68 40 25 0 42 -134 24 -183 -9 -23 -8 -29 6 -34 30 -12 43 24 40 114 -2 48
-8 88 -15 95 -7 7 -12 17 -12 24 0 14 52 34 89 34 25 0 26 -2 26 -59 0 -97 51
-142 126 -111 37 16 89 74 89 100 0 27 -34 59 -70 67 -17 3 -30 12 -30 19 0
18 -29 18 -36 0 -9 -24 13 -53 46 -59 55 -11 49 -51 -11 -83 -15 -7 -35 -11
-43 -8 -25 10 -39 79 -25 121 9 29 9 37 -2 44 -29 19 -59 20 -115 6 l-59 -15
-52 56 c-115 124 -136 206 -70 278 28 31 36 35 54 26 27 -15 46 3 32 30 -12
23 -77 25 -85 3z"/>
<path d="M5877 4716 c-3 -8 1 -35 9 -60 15 -43 36 -62 55 -50 11 7 12 51 1 56
-5 2 -15 16 -23 32 -16 34 -34 43 -42 22z"/>
<path d="M5760 4645 c0 -61 -64 -105 -110 -75 -8 5 -20 24 -26 42 -14 42 -38
43 -42 1 -4 -41 39 -90 86 -97 17 -2 32 0 32 5 0 6 4 8 9 4 15 -9 59 16 77 43
16 25 22 82 9 101 -15 25 -35 11 -35 -24z"/>
<path d="M5379 4615 c-26 -14 -79 -100 -79 -128 0 -9 5 -28 12 -42 16 -35 58
-33 115 5 24 17 47 30 50 30 3 0 48 -28 101 -62 105 -69 152 -122 152 -173 0
-24 5 -34 19 -38 25 -6 32 11 22 54 -19 82 -51 117 -191 208 -93 60 -123 71
-135 51 -7 -11 -80 -60 -90 -60 -3 0 -5 11 -5 24 0 32 40 89 72 100 22 8 32 5
58 -17 17 -15 38 -27 46 -27 25 0 15 37 -17 64 -35 29 -88 34 -130 11z m61
-145 c0 -5 -2 -10 -4 -10 -3 0 -8 5 -11 10 -3 6 -1 10 4 10 6 0 11 -4 11 -10z"/>
<path d="M4460 4409 c-39 -8 -60 -32 -60 -68 0 -26 56 -121 71 -121 22 0 19
33 -6 76 -15 25 -24 49 -20 52 4 4 23 12 43 17 19 6 37 15 39 22 7 19 -29 30
-67 22z"/>
<path d="M5562 4230 c-114 -34 -153 -74 -133 -140 24 -79 147 -141 221 -110
51 21 112 122 104 173 -1 9 2 17 7 17 5 0 9 5 9 10 0 6 -10 10 -22 10 -19 0
-26 -10 -40 -58 -9 -32 -29 -71 -43 -86 -24 -26 -31 -28 -76 -24 -57 6 -100
33 -114 72 -15 42 3 58 101 91 83 27 103 38 104 58 0 12 -52 6 -118 -13z"/>
<path d="M9802 11223 c1054 -2 2782 -2 3840 0 1058 1 195 2 -1917 2 -2112 0
-2977 -1 -1923 -2z"/>
<path d="M8042 10873 c-5 -10 -22 -62 -38 -115 -15 -54 -32 -98 -36 -98 -4 0
-17 9 -28 20 -52 52 -142 -9 -151 -100 -6 -71 33 -153 91 -186 24 -15 27 -21
20 -46 -7 -23 -5 -30 11 -38 15 -9 20 -7 24 5 3 8 7 22 10 30 3 9 17 15 37 15
18 0 57 11 86 25 55 26 82 65 82 120 l0 25 225 0 c124 0 225 -4 225 -8 0 -30
-158 -107 -246 -119 -48 -6 -66 -26 -44 -46 10 -9 11 -9 6 1 -6 10 -1 11 18 6
33 -8 128 14 119 29 -3 5 -1 7 4 4 13 -8 105 28 146 56 15 10 30 32 34 48 l6
29 646 -1 c355 -1 631 -4 614 -9 -71 -17 -116 -70 -106 -125 8 -39 113 -142
226 -220 59 -41 90 -69 97 -89 5 -16 10 -30 10 -32 0 -5 -100 -36 -128 -40
-15 -2 -50 -4 -78 -5 -38 -1 -53 -6 -62 -20 -12 -18 -8 -19 64 -19 42 0 93 4
113 10 20 5 48 12 64 15 66 13 87 80 42 134 -23 26 -156 129 -162 124 -1 -1
-34 29 -73 67 -78 76 -85 97 -44 135 46 42 116 26 162 -37 18 -25 42 -23 42 3
0 28 -64 88 -104 97 -17 4 1238 9 2789 12 l2820 5 -3466 3 c-3169 2 -3468 3
-3480 18 -7 9 -36 26 -65 39 -62 27 -67 34 -53 73 8 25 7 36 -8 59 -16 25 -16
27 0 14 25 -20 34 12 14 54 -12 26 -26 37 -55 44 -60 16 -142 -13 -142 -51 0
-22 2 -22 87 3 52 16 73 2 73 -48 0 -39 -24 -103 -39 -103 -16 0 -14 -40 2
-40 6 0 39 -14 72 -30 l59 -30 -216 0 c-207 0 -217 1 -223 20 -7 22 -59 63
-69 53 -3 -3 -6 -1 -6 5 0 6 -9 13 -20 17 -23 7 -21 27 19 151 15 45 25 87 23
93 -6 17 -30 13 -40 -6z m-92 -253 c21 0 23 -8 11 -50 -5 -20 -15 -26 -46 -31
l-40 -6 38 -2 c20 0 37 -2 37 -4 0 -2 -7 -27 -15 -55 -15 -51 -16 -52 -38 -37
-13 8 -34 33 -46 56 -29 51 -24 114 10 142 20 16 24 16 45 2 13 -8 32 -15 44
-15z m101 -42 c22 -12 39 -25 39 -30 0 -4 -22 -8 -50 -8 -47 0 -63 11 -39 25
6 4 8 13 5 21 -7 19 0 18 45 -8z m54 -58 c4 -6 1 -26 -5 -44 -9 -27 -21 -38
-60 -55 -61 -26 -85 -27 -75 -3 3 9 11 38 17 65 l11 47 53 0 c29 0 56 -5 59
-10z"/>
<path d="M7520 10404 c-25 -8 -61 -15 -80 -15 -44 -2 -70 -15 -70 -36 0 -13 9
-15 58 -11 106 10 174 41 146 68 -5 4 -29 2 -54 -6z"/>
<path d="M12484 10366 c-3 -7 27 -74 65 -149 39 -75 71 -146 71 -157 0 -32
-17 -58 -48 -74 -50 -25 -69 -27 -86 -11 -18 18 -22 70 -6 80 18 11 11 45 -10
45 -49 0 -57 -124 -9 -162 25 -21 96 -22 92 -2 -1 7 6 10 17 7 14 -4 31 6 55
30 54 54 50 92 -27 244 -40 80 -65 119 -70 111 -5 -8 -8 0 -8 20 0 33 -25 46
-36 18z"/>
<path d="M10982 10347 c-7 -8 1 -46 24 -117 19 -58 34 -106 34 -107 0 -2 -26
-3 -57 -3 -65 0 -80 -7 -80 -34 0 -17 6 -18 73 -12 l72 7 11 -64 c6 -35 11
-71 11 -79 0 -14 19 -28 37 -28 5 0 0 83 -9 155 -2 16 4 21 32 25 51 7 47 34
-6 38 l-41 3 -34 109 c-33 108 -48 131 -67 107z"/>
<path d="M10637 10313 c-11 -10 -8 -51 4 -59 6 -3 20 3 32 14 17 17 18 23 7
36 -13 17 -32 21 -43 9z"/>
<path d="M7870 10230 c-14 -82 -8 -120 19 -120 15 0 18 9 20 59 1 33 6 73 11
90 9 33 5 41 -21 41 -14 0 -20 -15 -29 -70z"/>
<path d="M11971 10214 c-56 -24 -95 -147 -72 -232 14 -50 48 -72 116 -72 47 0
130 29 107 37 -6 3 -10 9 -6 14 3 6 -11 6 -38 2 -65 -12 -118 -9 -129 8 -10
17 -11 116 0 142 6 17 8 17 20 3 27 -32 106 -12 117 29 13 51 -57 93 -115 69z
m59 -44 c13 -9 13 -11 1 -19 -16 -10 -53 8 -45 21 7 11 26 10 44 -2z"/>
<path d="M10256 10183 c-14 -15 -27 -35 -27 -43 -1 -8 -3 -26 -6 -40 -2 -14
-5 -55 -8 -92 -2 -37 -6 -71 -9 -76 -3 -5 -1 -24 4 -43 6 -19 10 -35 10 -36 0
-2 -528 -4 -1172 -6 l-1173 -2 1178 -3 1177 -2 0 -23 c0 -34 23 -62 45 -53 14
5 16 14 12 41 l-6 35 2647 3 2647 2 -2654 3 -2653 2 6 35 c4 22 3 35 -4 35 -5
0 -10 19 -10 43 0 36 4 46 24 56 44 24 61 106 33 160 -17 35 -32 36 -61 4z
m34 -72 c0 -19 -29 -63 -30 -45 0 6 3 25 6 43 7 32 24 34 24 2z m-45 -61 c-3
-5 -12 -10 -18 -10 -7 0 -6 4 3 10 19 12 23 12 15 0z"/>
<path d="M12900 10168 c-47 -33 -71 -68 -64 -96 8 -27 51 -52 91 -52 15 -1 42
-7 58 -14 29 -12 29 -13 9 -24 -12 -6 -40 -14 -63 -18 -35 -6 -45 -3 -62 15
-21 23 -39 28 -39 10 0 -5 -4 -7 -10 -4 -5 3 -10 -1 -10 -10 0 -8 11 -21 25
-27 14 -6 25 -16 25 -21 0 -16 114 -2 156 19 56 30 59 66 7 92 -21 11 -58 22
-82 25 -65 8 -73 23 -31 58 19 16 45 29 57 29 16 0 23 6 23 20 0 28 -47 27
-90 -2z"/>
<path d="M13840 10157 c-66 -33 -91 -132 -45 -181 27 -29 39 -31 73 -12 59 32
78 112 41 172 -23 37 -32 40 -69 21z m45 -78 c11 -51 -55 -108 -68 -58 -8 28
1 46 24 52 10 3 19 12 19 21 0 28 18 17 25 -15z"/>
<path d="M14067 10129 c-22 -36 -26 -39 -35 -24 -12 23 -42 13 -42 -15 0 -11
3 -20 8 -20 4 0 8 -12 9 -26 3 -64 38 -52 79 27 13 26 28 50 32 53 12 7 35
-19 61 -71 17 -33 27 -43 46 -43 32 0 31 9 -7 67 -48 74 -69 93 -99 93 -22 0
-33 -9 -52 -41z"/>
<path d="M10452 10137 c-26 -28 -29 -64 -4 -70 16 -4 16 -5 0 -6 -14 -1 -16
-7 -12 -33 8 -49 25 -78 45 -78 22 0 32 26 15 42 -33 34 -20 117 16 103 8 -3
20 1 27 9 10 11 8 18 -10 35 -29 27 -50 27 -77 -2z"/>
<path d="M12263 10118 c-11 -13 -26 -32 -32 -43 -11 -19 -11 -19 -9 5 2 19 -2
25 -17 25 -18 0 -20 -6 -18 -72 2 -75 16 -117 36 -110 7 2 13 17 15 33 3 34
20 80 40 112 18 27 32 14 32 -31 0 -45 26 -97 49 -97 27 0 36 18 18 38 -8 9
-19 44 -25 76 -18 89 -47 110 -89 64z"/>
<path d="M10796 10098 c-22 -34 -42 -156 -28 -170 19 -19 40 -1 41 34 0 18 4
49 9 68 l8 35 17 -32 c9 -18 17 -41 17 -52 0 -21 32 -46 44 -34 13 13 5 56
-16 97 -44 81 -66 94 -92 54z"/>
<path d="M10662 10061 c-9 -5 -12 -25 -10 -57 3 -41 6 -49 23 -49 16 0 20 7
21 40 2 69 -6 84 -34 66z"/>
<path d="M9733 10044 c-8 -22 25 -51 69 -59 30 -6 38 -4 47 13 10 18 7 21 -30
27 -22 4 -43 13 -46 21 -7 19 -32 18 -40 -2z"/>
<path d="M8647 9793 c-12 -20 -36 -73 -53 -117 -34 -89 -46 -96 -144 -84 -41
5 -38 -28 4 -42 34 -11 34 -11 21 -43 -16 -38 -16 -238 0 -230 6 2 2 -2 -7 -9
-9 -8 -22 -35 -29 -61 l-11 -47 -272 -2 -271 -3 268 -2 268 -3 -7 -38 c-3 -20
-13 -51 -21 -68 -16 -35 -4 -84 21 -84 22 0 30 19 33 75 2 27 7 64 11 80 l8
30 421 3 c414 2 421 2 426 -18 7 -25 22 -25 47 0 15 15 33 20 71 20 43 0 57
-5 86 -30 35 -31 67 -38 79 -19 4 7 -4 20 -17 30 -23 17 -7 18 485 16 l510 -2
8 -33 c12 -46 44 -41 40 6 l-2 32 2472 3 2473 2 -2472 3 -2473 2 0 68 0 67 44
-3 c91 -8 166 59 174 154 4 48 2 56 -26 83 -16 17 -42 33 -58 36 -70 15 -69
14 -29 89 24 46 33 72 26 79 -18 18 -36 0 -71 -71 -25 -53 -37 -68 -46 -61
-14 12 -54 -5 -54 -22 0 -6 5 -7 10 -4 6 3 10 2 10 -4 0 -5 -4 -12 -9 -15 -14
-9 -51 -93 -51 -116 0 -12 9 -38 20 -60 17 -34 19 -51 13 -129 l-6 -91 -398 0
-397 0 15 39 c21 53 10 118 -27 170 l-30 40 51 52 c48 49 57 79 25 79 -8 0
-36 -25 -64 -55 -47 -51 -51 -53 -66 -36 -9 10 -16 27 -16 38 0 26 -21 44 -39
34 -20 -13 -6 -73 23 -100 23 -22 24 -25 10 -63 -18 -53 -18 -131 1 -168 l16
-30 -69 0 -68 0 -52 59 c-28 33 -47 61 -42 63 18 6 53 123 54 180 1 47 -3 61
-23 82 -15 15 -35 26 -51 26 -31 0 -65 -33 -57 -55 8 -19 36 -20 43 0 5 11 11
12 24 5 29 -16 32 -43 14 -116 -13 -50 -14 -69 -6 -72 7 -2 12 -8 12 -14 0 -7
-5 -6 -14 1 -15 13 -32 -1 -21 -18 3 -5 -3 -12 -14 -16 -26 -8 -79 -69 -87
-100 l-6 -25 -419 0 c-230 0 -419 2 -419 4 0 1 4 16 9 32 5 16 12 41 15 55 5
23 10 25 56 26 67 1 136 37 178 92 37 49 37 78 0 118 -23 25 -78 48 -78 32 0
-5 -12 1 -26 15 l-27 24 21 61 c11 34 18 61 14 61 -4 0 -2 4 3 8 19 12 68 120
61 131 -12 19 -26 12 -49 -26z m2120 -281 c66 -36 24 -146 -66 -173 -54 -16
-73 -2 -60 43 4 17 6 34 4 39 -3 4 -1 10 4 13 5 3 12 23 17 43 7 35 10 47 13
57 2 6 64 -10 88 -22z m-154 -58 c-18 -68 -18 -68 -21 -29 -3 35 24 113 35
101 2 -2 -4 -34 -14 -72z m-2089 18 c-7 -15 -14 -33 -14 -41 0 -8 -3 -12 -6
-9 -9 9 16 89 26 83 5 -3 2 -18 -6 -33z m102 31 c-3 -3 14 -15 37 -27 50 -25
56 -45 26 -87 -33 -46 -138 -87 -161 -63 -11 10 24 98 45 115 14 12 18 23 14
40 -5 20 -2 24 19 25 14 1 23 0 20 -3z m1113 -179 c12 -27 15 -92 5 -118 -14
-37 -60 1 -65 54 -2 23 8 75 18 92 7 13 30 -3 42 -28z m-292 -126 c33 -31 29
-38 -22 -38 l-44 0 17 30 c9 16 19 30 21 30 3 0 15 -10 28 -22z"/>
<path d="M11365 9642 c-28 -26 -65 -64 -82 -86 -34 -42 -57 -43 -72 -4 -12 32
3 56 42 66 17 5 33 16 35 25 3 13 -4 17 -33 17 -27 0 -44 -8 -66 -29 -40 -41
-39 -83 4 -126 31 -31 32 -34 21 -71 -5 -22 -10 -48 -9 -59 1 -11 2 -32 3 -47
3 -45 51 -90 96 -91 58 -2 86 35 86 114 0 63 -12 83 -80 129 -22 16 -22 16 55
98 50 53 75 87 71 97 -8 23 -17 19 -71 -33z m-60 -212 c38 -23 46 -48 37 -105
-6 -34 -11 -40 -34 -43 -47 -6 -73 67 -52 146 8 27 9 27 49 2z"/>
<path d="M10968 9644 c-8 -7 3 -338 11 -344 4 -3 6 -23 6 -45 0 -33 3 -40 20
-40 15 0 19 6 17 25 -1 14 -4 79 -6 145 -7 198 -9 229 -18 248 -9 17 -20 22
-30 11z"/>
<path d="M8903 9619 c-34 -22 -45 -59 -17 -59 9 0 27 9 41 20 33 26 53 25 53
0 0 -26 -33 -92 -54 -109 -18 -15 -21 -47 -5 -57 6 -3 16 -1 22 5 17 17 62 13
87 -7 l23 -19 -30 -21 c-28 -19 -168 -48 -158 -31 6 9 -24 21 -36 13 -15 -9
-10 -33 10 -44 11 -5 50 -9 88 -7 88 3 163 42 163 85 0 40 -26 70 -65 78 -39
7 -40 9 -20 44 18 31 19 102 3 118 -18 18 -69 14 -105 -9z"/>
<path d="M10278 9595 c-33 -18 -54 -75 -38 -104 14 -28 40 -16 40 20 0 25 30
59 52 59 18 0 48 -42 48 -67 0 -61 -61 -156 -135 -211 -29 -21 -29 -22 -11
-37 11 -8 40 -15 67 -15 25 0 66 -7 89 -15 55 -19 60 -19 60 5 0 25 -28 40
-90 47 l-49 6 34 41 c69 85 92 174 60 236 -26 50 -74 63 -127 35z"/>
<path d="M9150 9310 c-15 -28 -9 -75 10 -75 8 0 16 10 18 23 2 12 10 22 17 22
21 0 28 19 15 35 -18 21 -47 18 -60 -5z"/>
<path d="M9924 9225 c-8 -20 4 -35 26 -35 25 0 35 17 20 35 -16 19 -39 19 -46
0z"/>
<path d="M9802 7763 c1054 -2 2782 -2 3840 0 1058 1 195 2 -1917 2 -2112 0
-2977 -1 -1923 -2z"/>
<path d="M9797 7073 c1058 -2 2788 -2 3845 0 1058 1 193 2 -1922 2 -2115 0
-2980 -1 -1923 -2z"/>
<path d="M9797 6383 c1057 -2 2789 -2 3850 0 1060 1 196 2 -1922 2 -2117 0
-2985 -1 -1928 -2z"/>
<path d="M9797 5693 c1058 -2 2788 -2 3845 0 1058 1 193 2 -1922 2 -2115 0
-2980 -1 -1923 -2z"/>
<path d="M9802 5003 c1054 -2 2782 -2 3840 0 1058 1 195 2 -1917 2 -2112 0
-2977 -1 -1923 -2z"/>
<path d="M9802 3613 c1054 -2 2782 -2 3840 0 1058 1 195 2 -1917 2 -2112 0
-2977 -1 -1923 -2z"/>
<path d="M9797 2923 c1058 -2 2788 -2 3845 0 1058 1 193 2 -1922 2 -2115 0
-2980 -1 -1923 -2z"/>
<path d="M9797 2233 c1057 -2 2789 -2 3850 0 1060 1 196 2 -1922 2 -2117 0
-2985 -1 -1928 -2z"/>
<path d="M9797 1543 c1058 -2 2788 -2 3845 0 1058 1 193 2 -1922 2 -2115 0
-2980 -1 -1923 -2z"/>
<path d="M9802 853 c1054 -2 2782 -2 3840 0 1058 1 195 2 -1917 2 -2112 0
-2977 -1 -1923 -2z"/>
</g>
</svg>
