<?xml version="1.0" standalone="no"?>
<!DOCTYPE svg PUBLIC "-//W3C//DTD SVG 20010904//EN"
 "http://www.w3.org/TR/2001/REC-SVG-20010904/DTD/svg10.dtd">
<svg version="1.0" xmlns="http://www.w3.org/2000/svg"
 width="1618.000000pt" height="1214.000000pt" viewBox="0 0 1618.000000 1214.000000"
 preserveAspectRatio="xMidYMid meet">

<g transform="translate(0.000000,1214.000000) scale(0.100000,-0.100000)"
fill="#000000" stroke="none">
<path d="M630 6040 l0 -5190 3310 0 3310 0 0 2676 c0 2545 1 2676 18 2669 43
-18 124 -27 149 -16 30 14 28 48 -2 43 -34 -6 -97 -2 -114 8 -11 6 -12 9 -3
10 18 0 54 85 50 117 -5 42 -32 52 -68 25 l-30 -23 4 2253 c2 1239 4 2264 5
2278 0 14 -2 96 -5 183 l-5 157 -3310 0 -3309 0 0 -5190z m6610 5053 l0 -126
-22 19 c-12 10 -28 25 -36 32 -7 6 -22 12 -33 12 -10 0 -19 4 -19 9 0 11 -106
40 -145 39 -141 -2 -195 -29 -195 -99 0 -46 22 -94 49 -109 38 -20 41 -4 11
55 -24 46 -24 55 -7 79 14 20 134 49 143 35 3 -5 16 -9 29 -9 34 0 128 -37
160 -62 15 -12 34 -36 41 -55 12 -28 12 -38 0 -68 -8 -19 -13 -35 -10 -35 3 0
-4 -10 -16 -22 -11 -12 -30 -36 -42 -54 -19 -27 -111 -84 -137 -84 -12 0 -59
131 -71 197 -14 79 -36 125 -57 121 -12 -2 -18 -12 -18 -28 0 -14 5 -24 11
-23 7 1 14 -21 18 -55 8 -70 54 -214 67 -207 5 4 6 -1 2 -11 -9 -24 -99 -11
-122 18 -15 18 -18 18 -30 5 -10 -13 -10 -20 6 -41 19 -25 85 -44 91 -26 2 6
10 10 18 10 9 0 12 -4 9 -10 -18 -29 110 7 177 49 25 16 65 53 87 81 l41 52 0
-2218 0 -2217 -30 -54 -31 -54 31 -12 30 -11 0 -2678 0 -2678 -3300 0 -3300 0
0 5180 0 5180 3300 0 3300 0 0 -127z m54 -4785 c-7 -23 -25 -41 -33 -32 -7 6
21 54 31 54 5 0 6 -10 2 -22z"/>
<path d="M5723 11085 c-5 -14 10 -90 53 -271 5 -20 1 -20 -83 -20 -82 1 -88 0
-88 -19 0 -17 7 -20 45 -21 25 0 66 -3 91 -8 l47 -7 11 -67 c6 -37 13 -92 16
-122 7 -70 11 -80 30 -80 18 0 20 40 3 59 -11 11 -10 12 1 6 14 -8 14 -9 -6
143 l-6 42 38 0 c30 0 36 3 31 16 -3 9 -6 17 -6 19 0 2 -16 7 -35 11 -38 7
-37 5 -59 114 -40 190 -65 252 -83 205z"/>
<path d="M5121 10987 c-6 -8 -8 -16 -5 -19 4 -5 16 -51 49 -195 5 -21 2 -23
-34 -23 -22 0 -43 -4 -46 -10 -3 -5 -12 -10 -18 -10 -7 0 -6 4 3 10 12 8 10
10 -11 10 -33 0 -65 -23 -54 -40 6 -9 28 -11 91 -6 96 8 86 21 104 -124 11
-89 22 -112 42 -92 10 10 9 35 -3 118 l-15 106 36 -6 c19 -3 42 -6 51 -6 13 0
16 -9 13 -40 -2 -31 2 -43 19 -55 32 -22 64 -18 123 16 30 17 59 27 64 24 6
-4 22 -31 35 -61 22 -50 45 -68 60 -45 6 10 -35 106 -57 132 -25 30 -47 29
-110 -4 -56 -30 -99 -38 -98 -19 1 25 86 92 115 92 31 0 41 18 22 37 -17 18
-41 12 -91 -22 -29 -20 -41 -22 -67 -15 -20 6 -39 6 -52 -1 -13 -7 -22 -8 -26
-1 -3 5 -15 11 -26 13 -12 3 -21 14 -23 27 -2 12 -7 22 -11 22 -7 0 -7 2 -14
90 -3 51 -29 110 -47 110 -4 0 -13 -6 -19 -13z"/>
<path d="M4069 10919 c-9 -18 -13 -19 -21 -8 -7 11 -8 9 -6 -6 3 -13 10 -19
23 -17 84 12 105 13 141 3 67 -18 94 -45 94 -95 0 -27 -7 -52 -19 -68 -21 -26
-87 -66 -95 -57 -3 3 -6 30 -7 60 -2 60 -12 79 -41 79 -16 0 -19 -5 -14 -27 2
-16 8 -50 11 -76 l6 -48 -38 3 c-32 3 -38 0 -38 -17 0 -16 8 -21 36 -23 32 -3
38 -7 43 -34 3 -17 6 -54 6 -82 0 -59 18 -93 44 -83 12 5 15 13 11 28 -4 11
-10 54 -14 95 l-7 75 45 20 c86 38 128 99 116 170 -9 51 -37 85 -90 109 -46
21 -95 26 -95 11 0 -5 -9 -7 -20 -4 -11 3 -27 0 -35 -7 -14 -11 -19 -7 -16 13
2 14 -8 7 -20 -14z"/>
<path d="M3050 10900 c-15 -10 -17 -2 45 -175 20 -55 35 -113 33 -129 -3 -29
-5 -27 -124 82 -67 62 -129 112 -138 112 -25 0 -29 -39 -17 -186 11 -137 20
-169 42 -147 9 9 10 47 3 142 l-9 130 35 -33 c83 -77 147 -136 178 -161 32
-26 33 -27 52 -10 34 31 27 112 -20 235 -22 58 -40 110 -40 116 0 19 -24 34
-40 24z m10 -300 c0 -5 -4 -10 -10 -10 -5 0 -10 5 -10 10 0 6 5 10 10 10 6 0
10 -4 10 -10z"/>
<path d="M4850 10863 c-19 -8 -37 -18 -40 -22 -3 -3 -18 -12 -33 -19 -15 -7
-25 -17 -22 -22 3 -6 -1 -7 -9 -4 -11 4 -19 -2 -26 -20 -16 -44 4 -69 93 -112
44 -21 82 -45 85 -52 6 -18 -76 -52 -128 -51 -25 0 -63 6 -85 14 -52 19 -55
19 -55 -5 0 -24 34 -43 62 -34 14 4 18 2 14 -5 -7 -11 32 -15 99 -11 36 2 106
31 121 51 37 48 13 84 -91 133 -41 20 -75 40 -75 46 0 5 19 22 43 37 23 16 44
31 45 36 2 4 8 5 12 2 15 -9 82 24 78 37 -6 19 -48 19 -88 1z"/>
<path d="M2080 10857 c-27 -14 -50 -51 -50 -83 0 -29 56 -113 82 -124 13 -5
17 -9 10 -9 -9 -1 -5 -12 12 -31 32 -39 49 -96 35 -121 -15 -28 -74 -24 -146
10 -34 16 -73 43 -88 59 -25 28 -55 34 -55 11 0 -17 43 -69 57 -69 7 0 13 -4
13 -9 0 -10 108 -56 154 -66 39 -8 90 11 106 39 25 47 5 108 -66 202 -73 98
-82 137 -38 154 33 13 30 13 53 -11 14 -15 18 -30 15 -53 -6 -37 8 -61 30 -53
31 12 11 125 -27 152 -26 18 -63 19 -97 2z"/>
<path d="M2499 10866 c-2 -2 -39 -6 -81 -9 -98 -8 -154 -23 -162 -44 -10 -25
10 -39 36 -25 32 16 152 34 226 33 59 0 62 1 62 24 0 22 -4 25 -38 25 -21 0
-41 -2 -43 -4z"/>
<path d="M2590 10846 c0 -26 1 -26 75 -26 68 0 75 2 75 20 0 17 -7 20 -44 20
-24 0 -58 3 -75 6 -28 6 -31 4 -31 -20z"/>
<path d="M5990 10804 c-40 -18 -50 -30 -50 -65 0 -31 32 -56 95 -75 31 -9 36
-14 22 -19 -9 -4 -36 -3 -59 3 -45 12 -58 9 -58 -13 0 -22 34 -35 92 -35 165
0 185 53 38 99 -109 35 -111 62 -7 79 27 5 42 13 42 22 0 21 -71 24 -115 4z"/>
<path d="M2484 10767 c-3 -8 6 -52 20 -97 14 -44 26 -87 26 -95 0 -7 7 -21 16
-29 8 -9 11 -16 5 -16 -7 0 -9 -15 -5 -42 8 -54 20 -68 37 -43 12 15 12 30 0
94 -19 97 -64 234 -80 239 -7 2 -16 -3 -19 -11z"/>
<path d="M6372 10773 c-34 -5 -52 -27 -35 -44 6 -6 26 -6 55 0 30 7 57 7 83 0
46 -13 69 1 43 27 -17 17 -87 25 -146 17z"/>
<path d="M3453 10699 c-26 -6 -43 -16 -43 -24 0 -8 -6 -12 -14 -9 -18 7 -66
-24 -66 -42 0 -25 20 -25 63 0 46 27 184 59 193 45 7 -11 61 -12 68 -1 2 4 1
14 -4 22 -10 17 -137 23 -197 9z"/>
<path d="M4410 10544 c-18 -21 -3 -33 49 -36 71 -5 64 28 -10 46 -18 4 -31 1
-39 -10z"/>
<path d="M5174 10108 c-4 -7 -9 -32 -10 -57 -3 -52 -7 -72 -16 -86 -3 -6 -9
-27 -13 -48 -9 -48 -35 -63 -74 -42 -17 8 -34 15 -40 15 -20 0 -69 -57 -95
-111 -35 -73 -43 -121 -23 -141 9 -9 13 -18 10 -22 -7 -7 47 -56 62 -56 28 -1
35 -16 22 -51 -6 -18 -14 -36 -17 -39 -19 -17 -60 -133 -55 -153 5 -17 4 -19
-4 -7 -9 12 -11 10 -11 -10 0 -60 43 -67 46 -8 4 51 103 268 124 268 22 0 126
64 151 92 36 42 49 75 43 107 -7 33 -64 91 -89 91 -20 0 -19 26 5 102 24 76
27 153 5 161 -8 4 -18 1 -21 -5z m-54 -297 c3 -1 0 -5 -7 -9 -6 -4 -27 -50
-45 -102 -30 -85 -37 -95 -60 -98 -35 -4 -68 32 -68 75 0 31 28 100 52 131 9
10 85 12 128 3z m76 -16 c12 -8 24 -11 28 -8 18 18 3 -68 -16 -92 -20 -26
-103 -85 -119 -85 -4 0 8 44 27 97 19 54 34 99 34 100 0 8 28 1 46 -12z"/>
<path d="M5614 10021 c-72 -33 -106 -98 -64 -121 27 -15 41 -4 34 25 -5 20 0
28 28 45 60 36 113 17 87 -32 -26 -49 -56 -81 -97 -105 -48 -28 -50 -49 -6
-46 16 1 48 3 71 5 49 3 59 -4 68 -54 7 -34 5 -38 -26 -57 -19 -11 -38 -23
-44 -28 -5 -4 -17 -9 -25 -10 -36 -5 -112 -23 -121 -28 -5 -4 -9 -13 -9 -22 0
-13 8 -15 43 -10 106 15 200 59 223 105 8 17 9 35 1 65 -12 50 -30 73 -62 81
l-24 6 29 47 c39 61 39 94 -1 127 -36 31 -51 32 -105 7z"/>
<path d="M3693 9958 c13 -84 40 -215 48 -230 7 -15 5 -18 -14 -18 -13 0 -28
-5 -35 -12 -7 -7 -12 -10 -12 -7 0 3 -28 1 -62 -6 -52 -9 -63 -14 -63 -31 0
-15 6 -19 30 -17 16 1 31 7 33 13 3 8 8 8 17 0 9 -8 24 -6 55 6 53 21 56 17
65 -98 6 -71 11 -90 25 -98 23 -12 33 0 26 32 -3 13 -8 51 -10 84 -3 34 -8 68
-11 77 -4 9 1 16 14 20 26 7 27 34 2 42 -14 4 -22 19 -27 51 -3 24 -9 44 -13
44 -3 0 -7 21 -8 48 -2 66 -24 126 -47 130 -16 3 -18 -1 -13 -30z"/>
<path d="M3157 9793 c-14 -13 -6 -33 13 -33 13 0 20 7 20 20 0 19 -20 27 -33
13z"/>
<path d="M2430 9729 c0 -6 -8 -8 -18 -4 -42 13 -154 -62 -187 -125 -12 -23
-13 -35 -5 -50 15 -29 35 -36 140 -55 97 -18 122 -27 152 -53 30 -26 -6 -71
-96 -118 -40 -21 -58 -25 -93 -20 -34 4 -45 2 -50 -10 -24 -64 153 -40 232 33
37 33 65 75 65 97 0 23 -38 65 -76 84 -11 6 -60 18 -110 27 -145 26 -143 24
-89 84 42 47 132 84 180 75 37 -7 54 9 35 31 -14 17 -80 20 -80 4z"/>
<path d="M4164 9645 c-11 -27 8 -33 94 -28 69 5 82 8 80 22 -5 24 -165 29
-174 6z"/>
<path d="M2747 9629 c-18 -10 -53 -69 -41 -69 4 0 -1 -8 -10 -19 -11 -12 -19
-44 -23 -90 -3 -39 -10 -74 -14 -77 -14 -9 -10 -44 5 -44 19 0 26 -36 14 -71
-5 -16 -7 -42 -2 -57 6 -24 9 -47 13 -103 1 -19 30 -34 41 -22 4 4 4 68 -1
142 l-8 134 46 51 c77 86 96 164 48 211 -26 27 -40 30 -68 14z m46 -59 c8 -32
-10 -82 -44 -118 -17 -19 -32 -32 -34 -30 -7 7 14 108 30 137 18 35 40 40 48
11z m-81 -302 c-7 -7 -12 -8 -12 -2 0 14 12 26 19 19 2 -3 -1 -11 -7 -17z"/>
<path d="M2980 9622 c-39 -14 -53 -91 -29 -163 15 -45 26 -56 40 -42 13 13 -5
127 -24 151 -7 9 0 12 31 12 40 0 62 14 46 30 -14 12 -47 19 -64 12z"/>
<path d="M3351 9574 c-22 -27 -35 -79 -29 -111 5 -26 44 -24 41 2 -3 25 16 85
27 85 9 0 26 -42 35 -87 7 -35 31 -45 42 -18 8 22 -16 101 -39 130 -25 32 -51
32 -77 -1z"/>
<path d="M3133 9555 c-8 -23 4 -87 19 -96 22 -14 29 6 22 60 -7 51 -28 69 -41
36z"/>
<path d="M6044 8922 c-16 -10 -24 -90 -10 -96 6 -2 3 -5 -6 -5 -14 -1 -18 -10
-18 -46 0 -39 -3 -45 -21 -45 -11 0 -17 -4 -14 -10 3 -5 2 -10 -4 -10 -5 0
-11 6 -14 13 -6 19 -73 -17 -91 -50 -42 -76 -57 -117 -58 -154 -1 -51 27 -90
73 -105 42 -14 41 -31 -2 -116 -33 -65 -14 -132 30 -108 23 12 28 36 9 42 -10
4 -10 12 -1 39 28 84 54 144 64 148 6 2 19 11 29 20 9 9 23 17 31 19 36 9 99
104 99 149 0 45 -26 89 -63 104 -25 11 -28 16 -23 43 3 17 8 61 11 97 7 64 0
85 -21 71z m-44 -244 c0 -14 -12 -59 -41 -160 -18 -60 -23 -68 -44 -68 -37 0
-65 33 -65 78 1 47 45 113 85 127 17 5 34 15 38 22 10 17 27 17 27 1z m93 -46
c12 -31 12 -38 1 -50 -8 -7 -14 -17 -14 -21 0 -11 -80 -96 -80 -85 -1 5 10 52
22 105 19 79 26 95 40 91 9 -2 23 -20 31 -40z"/>
<path d="M6396 8842 c-2 -4 -7 -25 -11 -47 -4 -22 -9 -49 -11 -60 -2 -11 -7
-85 -10 -165 -6 -120 -4 -152 9 -182 27 -65 64 -45 41 21 -7 20 -11 66 -11
102 2 55 -1 66 -13 61 -12 -4 -12 -2 1 9 11 10 19 38 23 89 4 41 9 99 13 128
5 43 3 52 -10 52 -9 0 -18 -3 -21 -8z"/>
<path d="M1828 8789 c-79 -21 -130 -99 -129 -198 0 -68 10 -131 20 -131 23 0
30 28 24 95 -7 88 17 154 66 179 54 29 117 15 142 -30 14 -27 37 -32 45 -10 7
19 -23 64 -55 81 -35 18 -80 24 -113 14z"/>
<path d="M4564 8693 c7 -28 24 -204 25 -255 1 -18 6 -28 16 -28 8 0 15 -4 15
-10 0 -5 -7 -10 -16 -10 -14 0 -16 -8 -10 -57 11 -94 33 -96 89 -11 20 29 47
67 61 83 l25 30 11 -31 c31 -86 68 -130 91 -107 9 9 7 18 -9 38 -12 14 -26 43
-33 63 -15 47 -37 72 -62 72 -21 0 -78 -55 -109 -105 -15 -25 -18 -27 -19 -10
0 11 -2 31 -3 45 -2 14 -7 77 -10 140 -8 138 -19 180 -48 180 -17 0 -19 -4
-14 -27z m151 -303 c3 -5 1 -10 -4 -10 -6 0 -11 5 -11 10 0 6 2 10 4 10 3 0 8
-4 11 -10z"/>
<path d="M5341 8614 c-17 -14 -31 -32 -31 -41 0 -8 -6 -21 -14 -29 -8 -7 -21
-44 -29 -80 -14 -61 -14 -80 4 -237 19 -171 28 -201 55 -190 23 8 19 181 -6
271 -24 87 -26 109 -6 93 25 -21 99 24 136 84 27 44 20 108 -13 129 -44 28
-63 28 -96 0z m73 -43 c23 -25 14 -52 -31 -96 -39 -38 -73 -46 -73 -17 0 19
35 99 52 119 15 18 32 16 52 -6z"/>
<path d="M3000 8505 c-9 -10 -7 -20 5 -39 13 -20 16 -48 15 -143 -3 -145 -1
-183 6 -194 13 -21 31 -5 63 56 38 73 84 114 110 98 9 -5 25 -33 35 -62 13
-35 23 -50 32 -47 8 3 14 1 14 -3 0 -5 -5 -11 -10 -13 -17 -5 28 -48 50 -48
27 0 25 22 -5 50 -14 13 -25 27 -25 31 0 5 -9 33 -21 64 -27 73 -62 94 -115
69 -19 -9 -47 -31 -62 -50 l-27 -32 0 101 c0 103 -14 160 -40 171 -8 3 -19 -1
-25 -9z"/>
<path d="M4998 8483 c-28 -32 -38 -61 -38 -108 0 -92 37 -109 113 -51 l44 34
7 -61 c6 -64 27 -107 51 -107 22 0 27 18 11 42 -10 16 -16 55 -18 123 -3 86
-5 100 -20 103 -11 2 -21 -5 -27 -20 -11 -29 -86 -98 -106 -98 -31 0 -11 92
27 121 11 9 18 21 14 28 -11 17 -41 13 -58 -6z"/>
<path d="M1725 8450 c-9 -14 16 -121 26 -114 5 3 6 -1 3 -9 -3 -8 9 -51 25
-96 30 -81 30 -82 8 -75 -63 22 -154 -23 -119 -58 8 -8 15 -8 24 -1 28 23 59
24 103 6 l45 -18 0 -61 c0 -84 -41 -167 -85 -172 -42 -5 -55 -20 -31 -38 29
-21 52 -17 88 15 45 39 73 118 71 201 -1 68 -17 125 -32 116 -5 -3 -12 1 -15
10 -3 8 -2 12 4 9 14 -9 12 5 -4 37 -8 14 -19 42 -26 62 -6 20 -16 36 -22 36
-6 0 -7 7 -4 16 9 23 -24 144 -40 144 -7 0 -16 -5 -19 -10z"/>
<path d="M2572 8437 c-8 -9 -8 -20 1 -37 25 -49 58 -29 38 23 -12 30 -23 34
-39 14z"/>
<path d="M4290 8437 c-37 -10 -44 -16 -42 -32 5 -27 5 -27 38 -14 16 6 44 11
62 11 36 0 55 24 31 39 -18 11 -33 10 -89 -4z"/>
<path d="M2070 8403 c1 -22 23 -53 38 -53 19 0 23 17 11 44 -14 30 -49 36 -49
9z"/>
<path d="M4183 8391 c-36 -23 -83 -87 -83 -114 0 -34 32 -88 61 -102 36 -19
96 -19 133 0 15 8 34 15 42 15 17 0 92 39 100 52 4 5 1 15 -4 20 -8 8 -28 4
-69 -15 -32 -14 -79 -31 -105 -38 -43 -12 -50 -11 -74 7 -44 32 -47 56 -13
102 16 22 38 42 49 45 12 3 20 14 20 26 0 26 -16 27 -57 2z"/>
<path d="M2054 8277 c-3 -8 2 -34 10 -58 12 -33 15 -79 13 -184 -2 -100 0
-144 9 -152 9 -10 15 -9 24 2 15 19 8 313 -9 368 -12 37 -37 50 -47 24z"/>
<path d="M2759 8188 c-28 -30 -49 -62 -49 -75 0 -25 26 -43 62 -43 13 0 29 -4
36 -9 19 -12 -52 -63 -97 -71 -39 -6 -47 -26 -18 -44 34 -21 177 74 177 119 0
18 -44 45 -74 45 -39 0 -38 14 6 58 25 26 38 47 35 57 -10 25 -28 17 -78 -37z"/>
<path d="M2270 8173 c-12 -15 -19 -34 -17 -43 2 -9 -2 -21 -9 -27 -19 -19 -29
-94 -13 -104 19 -12 39 9 39 41 0 15 6 43 14 61 l14 34 7 -40 c3 -22 8 -51 10
-65 7 -50 24 -80 45 -80 24 0 25 11 5 67 -8 22 -17 65 -19 94 -5 47 -27 89
-47 89 -4 0 -17 -12 -29 -27z"/>
<path d="M2492 8167 c-8 -10 -8 -33 1 -88 10 -58 17 -75 31 -77 30 -6 36 11
21 53 -8 22 -14 54 -15 71 0 38 -22 61 -38 41z"/>
<path d="M6194 7626 c-3 -8 8 -69 25 -135 38 -148 39 -161 7 -161 -53 0 -86
-12 -86 -32 0 -18 5 -19 58 -13 l58 6 22 -75 c12 -42 22 -84 22 -95 0 -27 28
-34 41 -10 8 16 6 34 -10 82 -30 88 -31 87 45 87 56 0 65 2 60 16 -3 9 -6 18
-6 20 0 2 -26 4 -58 4 -63 0 -82 11 -82 47 0 13 -11 65 -24 116 -14 50 -26
105 -28 122 -3 33 -34 47 -44 21z m136 -506 c0 -5 -5 -10 -11 -10 -5 0 -7 5
-4 10 3 6 8 10 11 10 2 0 4 -4 4 -10z"/>
<path d="M3002 7515 c-18 -15 -32 -33 -32 -41 0 -8 -4 -14 -9 -14 -19 0 -43
-113 -44 -208 -1 -111 20 -255 36 -245 5 3 7 1 3 -5 -3 -6 -20 -13 -36 -17
-20 -4 -30 -13 -30 -25 0 -21 29 -35 44 -20 18 18 31 10 48 -31 10 -24 23 -39
30 -36 14 4 16 41 4 69 -6 12 0 18 24 23 22 5 30 12 28 23 -3 17 -7 18 -53 21
-37 2 -49 59 -50 231 0 160 7 186 68 243 27 25 29 30 15 43 -13 14 -18 12 -46
-11z"/>
<path d="M5634 7515 c-4 -8 -4 -46 -2 -85 3 -38 1 -73 -3 -77 -4 -4 -9 -30
-11 -56 -3 -47 -4 -49 -43 -63 -40 -13 -65 -37 -65 -61 0 -23 30 -27 45 -6 8
11 24 23 35 26 17 4 20 0 20 -23 0 -16 6 -35 14 -43 10 -10 11 -18 5 -24 -6
-6 -9 -23 -7 -39 2 -21 8 -29 23 -29 19 0 20 5 16 80 -2 44 -8 84 -15 88 -6 5
10 6 37 2 39 -5 48 -3 54 10 7 21 -12 35 -49 35 -16 0 -28 3 -28 8 0 4 5 60
10 124 5 64 7 124 4 133 -8 19 -33 20 -40 0z"/>
<path d="M5335 7439 c-49 -44 -105 -130 -105 -164 0 -39 64 -98 131 -120 l53
-18 -30 -24 c-16 -13 -59 -33 -96 -45 -51 -16 -68 -27 -68 -40 0 -24 22 -23
98 3 78 26 152 89 136 115 -12 20 -17 23 -97 60 -32 14 -65 36 -73 49 -14 22
-14 27 11 69 38 65 86 105 119 99 28 -6 36 13 14 35 -21 21 -56 13 -93 -19z"/>
<path d="M6639 7405 c-88 -73 -91 -94 -14 -125 31 -13 54 -28 52 -34 -5 -15
-61 -47 -86 -49 -11 0 -17 -5 -15 -9 3 -4 0 -8 -5 -8 -6 0 -11 -4 -11 -10 0
-15 67 -12 98 4 75 39 83 98 17 131 -22 11 -42 21 -44 22 -2 2 3 11 13 22 11
12 25 16 42 13 24 -4 25 -3 22 33 -2 21 -8 40 -14 42 -6 2 -31 -13 -55 -32z"/>
<path d="M4328 7343 c-15 -9 -33 -30 -39 -45 -13 -33 -16 -33 -40 -12 -10 9
-23 13 -28 9 -17 -10 -13 -70 7 -93 13 -15 22 -53 31 -141 7 -67 17 -123 21
-126 13 -8 -2 -59 -22 -73 -24 -17 -23 -42 2 -42 11 0 20 -6 21 -12 0 -7 1
-44 2 -83 2 -68 3 -70 27 -70 l25 0 0 117 c0 64 3 114 7 112 11 -7 96 85 111
118 6 16 15 28 18 28 12 0 29 88 29 150 0 64 -21 120 -58 153 -29 26 -82 31
-114 10z m101 -59 c12 -15 21 -33 21 -40 0 -8 4 -14 8 -14 4 0 4 -37 0 -81
-10 -87 -32 -131 -96 -193 l-30 -28 -7 48 c-4 27 -9 56 -12 64 -3 8 -7 28 -8
44 -2 16 -9 32 -16 37 -10 6 -11 9 -1 9 7 0 12 13 12 33 0 44 19 108 38 130
23 26 67 22 91 -9z"/>
<path d="M5838 7219 c-42 -45 -49 -57 -46 -88 4 -43 29 -53 61 -23 46 42 64
45 91 15 14 -15 30 -39 36 -54 13 -30 48 -45 57 -24 3 8 -15 43 -39 77 -46 67
-75 81 -119 58 -35 -19 -19 11 19 35 34 22 38 48 8 53 -12 3 -35 -14 -68 -49z"/>
<path d="M4698 7117 c-38 -17 -68 -47 -68 -68 0 -31 20 -31 49 -1 27 30 89 51
111 37 6 -4 17 -1 26 5 39 33 -56 54 -118 27z"/>
<path d="M2684 7072 c-17 -11 -36 -51 -29 -62 3 -5 1 -11 -5 -15 -17 -11 -11
-88 10 -122 47 -78 143 -3 100 78 -12 21 -46 26 -53 7 -2 -7 2 -21 10 -30 11
-12 12 -22 5 -34 -9 -15 -11 -14 -27 9 -19 30 -15 79 11 129 19 37 7 60 -22
40z"/>
<path d="M5698 6626 c-42 -15 -113 -69 -128 -96 -32 -60 0 -104 140 -190 138
-84 151 -103 105 -153 -54 -58 -166 -95 -219 -73 -61 25 -80 -13 -21 -41 30
-14 44 -15 96 -5 70 13 161 63 191 104 10 16 20 42 20 60 1 39 -50 88 -155
150 -38 22 -83 53 -100 68 -28 25 -30 31 -20 52 6 14 33 39 59 56 54 37 125
44 155 16 21 -19 39 -11 39 17 0 13 -12 25 -35 35 -42 17 -78 17 -127 0z"/>
<path d="M6283 6608 c-27 -13 -36 -33 -19 -47 8 -7 22 -4 45 10 49 30 26 63
-26 37z"/>
<path d="M3802 6518 c-22 -22 -13 -58 39 -161 28 -56 58 -119 65 -141 14 -38
14 -38 -10 -32 -47 12 -99 -27 -110 -81 -1 -10 -7 -27 -12 -38 -5 -11 -9 -51
-9 -88 0 -65 2 -70 33 -98 26 -23 38 -28 60 -23 71 17 112 102 112 231 0 88
-20 153 -90 288 -30 60 -48 106 -44 117 3 10 0 18 -6 18 -6 0 -8 5 -5 10 9 14
-8 13 -23 -2z m121 -390 c-2 -5 3 -8 11 -8 9 0 16 -5 16 -11 0 -5 -4 -8 -9 -5
-4 3 -11 -24 -14 -59 -11 -121 -71 -184 -113 -120 -13 20 -15 36 -9 73 4 26 8
57 9 70 0 12 4 22 7 22 3 0 11 11 17 25 10 22 17 25 51 23 21 -2 37 -6 34 -10z"/>
<path d="M4457 6523 c-12 -12 -7 -33 12 -52 23 -23 103 -261 105 -314 0 -14
-13 -24 -49 -36 -54 -18 -70 -46 -40 -71 13 -11 19 -9 40 14 13 14 33 26 45
26 17 0 20 -7 21 -42 1 -24 2 -47 4 -53 1 -5 3 -16 3 -22 3 -21 30 -15 37 8 4
11 4 42 0 69 l-7 49 39 6 c21 4 45 7 53 8 8 1 16 10 18 21 3 16 -2 18 -57 14
l-61 -3 -11 55 c-15 79 -75 256 -100 296 -20 32 -38 42 -52 27z"/>
<path d="M2284 6428 c-21 -18 -46 -53 -57 -77 -22 -51 -20 -71 30 -224 19 -60
33 -110 31 -111 -2 -1 -21 -10 -43 -20 -80 -36 -135 -78 -135 -103 0 -29 21
-30 46 -2 10 11 40 32 66 47 26 15 48 30 48 34 0 3 9 4 20 1 11 -3 20 -6 20
-8 0 -1 5 -27 10 -56 13 -68 14 -214 1 -236 -5 -10 -19 -18 -32 -18 -28 0 -33
-14 -14 -39 10 -13 21 -17 39 -12 55 14 76 113 57 259 -7 48 -14 93 -17 101
-3 9 9 16 38 22 63 13 59 39 -6 39 l-50 0 -38 115 c-39 121 -45 167 -27 203
17 33 51 68 77 78 12 5 22 15 22 24 0 26 -47 17 -86 -17z"/>
<path d="M6009 6320 c-73 -22 -118 -89 -102 -151 9 -33 12 -35 99 -56 49 -12
92 -22 95 -23 8 0 21 31 15 37 -4 4 -69 21 -138 37 -21 5 -28 12 -28 30 0 32
46 86 73 86 32 0 51 15 44 34 -7 17 -18 19 -58 6z"/>
<path d="M6945 6287 c-30 -52 -31 -77 -7 -107 17 -21 23 -22 83 -14 46 7 64
13 64 24 0 11 -14 16 -57 18 -59 3 -66 9 -52 46 5 14 8 14 21 1 20 -21 33 -10
29 24 -7 66 -44 70 -81 8z"/>
<path d="M6680 6313 c-8 -3 -25 -14 -37 -25 -12 -11 -25 -18 -30 -15 -21 13
-36 -13 -35 -58 4 -85 30 -89 68 -9 28 60 41 69 79 60 33 -8 55 -52 44 -91
-10 -34 12 -68 31 -49 18 18 20 95 4 126 -25 48 -83 76 -124 61z"/>
<path d="M6371 6283 c-10 -20 1 -110 19 -142 14 -26 54 -37 86 -22 24 11 32
35 14 46 -5 3 -18 1 -28 -4 -31 -16 -34 -1 -7 31 32 38 32 61 -1 87 -33 26
-70 27 -83 4z m59 -41 c0 -13 -12 -22 -22 -16 -10 6 -1 24 13 24 5 0 9 -4 9
-8z"/>
<path d="M6220 6156 c0 -75 12 -103 39 -87 9 6 11 16 6 32 -5 13 -7 48 -6 76
1 47 -1 53 -19 53 -18 0 -20 -6 -20 -74z"/>
<path d="M4184 6180 c-38 -15 -76 -70 -69 -99 12 -52 53 -60 87 -17 16 20 16
20 23 -7 4 -15 11 -27 16 -27 5 0 9 -11 9 -24 0 -28 59 -96 83 -96 31 0 28 22
-6 57 -24 23 -41 55 -53 95 -10 33 -24 63 -31 65 -10 4 -11 9 -2 19 9 11 8 18
-1 29 -14 17 -25 18 -56 5z m15 -57 c-8 -10 -20 -24 -26 -31 -20 -21 -16 8 4
30 21 23 40 24 22 1z"/>
<path d="M4788 6170 c-22 -13 -40 -72 -32 -104 9 -37 44 -43 97 -17 52 25 65
26 89 4 14 -13 21 -14 31 -4 15 15 0 40 -36 61 -24 13 -30 13 -72 -8 -55 -27
-65 -27 -65 -4 0 27 20 42 50 35 35 -6 50 15 25 34 -22 15 -63 17 -87 3z"/>
<path d="M2512 6042 c-45 -62 -50 -184 -10 -224 51 -51 163 8 142 76 -9 30
-75 96 -96 96 -17 0 -17 2 -2 25 16 25 13 55 -5 55 -5 0 -18 -12 -29 -28z m88
-167 c0 -8 -12 -21 -26 -27 -22 -11 -28 -10 -40 7 -8 10 -14 40 -14 67 l0 47
40 -39 c22 -22 40 -46 40 -55z"/>
<path d="M2736 6025 c-12 -12 -16 -35 -16 -84 0 -77 17 -114 43 -93 12 10 13
20 5 48 -5 19 -8 49 -6 67 3 28 7 32 36 35 25 3 32 8 30 20 -4 24 -70 28 -92
7z"/>
<path d="M9802 11223 c1054 -2 2782 -2 3840 0 1058 1 195 2 -1917 2 -2112 0
-2977 -1 -1923 -2z"/>
<path d="M8490 11084 c-87 -14 -152 -39 -190 -73 -91 -82 -51 -152 106 -190
56 -13 114 -45 114 -61 0 -21 -112 -62 -170 -62 -46 -1 -56 -4 -57 -18 -3 -37
72 -39 164 -5 82 31 115 60 111 95 -2 20 -16 32 -68 57 -36 18 -90 39 -120 49
-67 19 -80 29 -80 60 0 46 118 104 211 104 44 0 60 17 34 37 -11 7 -21 12 -24
12 -3 -1 -17 -3 -31 -5z"/>
<path d="M7633 11064 c-6 -17 24 -195 38 -225 7 -14 1 -18 -33 -23 -51 -8 -78
-22 -78 -41 0 -22 14 -25 56 -10 66 24 66 23 62 -60 -3 -74 1 -85 33 -85 5 0
9 36 9 80 l0 80 40 0 c33 0 40 4 40 19 0 14 -10 20 -43 25 l-43 7 -24 121
c-24 116 -42 151 -57 112z m134 -260 c-3 -3 -12 -4 -19 -1 -8 3 -5 6 6 6 11 1
17 -2 13 -5z"/>
<path d="M8990 10970 c0 -23 37 -47 52 -32 15 15 -9 52 -32 52 -13 0 -20 -7
-20 -20z"/>
<path d="M9971 10934 c-64 -39 -94 -119 -71 -188 16 -49 92 -100 139 -92 64
10 68 46 4 46 -40 0 -103 34 -103 56 0 8 10 14 26 14 41 0 104 68 104 112 0
67 -39 87 -99 52z m59 -50 c0 -19 -41 -61 -67 -69 -35 -10 -29 21 11 61 18 18
31 37 27 41 -3 4 2 1 12 -6 9 -7 17 -19 17 -27z"/>
<path d="M9705 10908 c-64 -50 -86 -172 -40 -222 25 -27 75 -36 75 -13 0 7
-13 23 -30 35 -21 16 -30 31 -30 50 0 34 40 117 58 118 6 1 17 2 22 3 17 2 11
30 -9 40 -15 8 -25 6 -46 -11z"/>
<path d="M8735 10869 c-94 -53 -136 -176 -79 -230 22 -21 34 -24 92 -22 70 2
93 13 74 36 -8 9 -26 11 -67 7 -84 -9 -105 22 -65 100 23 45 55 69 103 79 44
9 42 35 -3 38 -19 2 -44 -2 -55 -8z m32 -225 c-3 -3 -12 -4 -19 -1 -8 3 -5 6
6 6 11 1 17 -2 13 -5z"/>
<path d="M9152 10868 c-46 -46 39 -194 107 -186 33 4 43 38 11 38 -11 0 -33
12 -47 26 l-26 26 26 16 c37 23 34 45 -12 70 -45 26 -44 25 -59 10z"/>
<path d="M9383 10872 c-14 -9 -44 -139 -36 -159 10 -25 42 -13 74 27 18 22 37
40 42 40 5 0 24 -17 42 -37 19 -22 36 -34 43 -29 20 12 14 30 -24 74 -41 48
-72 54 -105 20 l-22 -23 8 30 c14 58 7 76 -22 57z"/>
<path d="M7370 10818 c-67 -46 -96 -143 -49 -168 16 -9 27 -7 55 9 l34 20 15
-28 c16 -33 46 -44 81 -31 33 13 30 28 -8 38 -25 6 -36 16 -44 42 -6 19 -17
36 -23 38 -15 5 -63 -26 -57 -36 2 -4 -4 -8 -15 -8 -16 0 -19 5 -14 21 4 11 7
28 8 37 1 9 3 15 5 13 3 -2 14 2 26 10 11 8 31 15 43 15 16 0 23 6 23 20 0 11
-4 20 -9 20 -5 0 -16 2 -23 5 -8 3 -29 -5 -48 -17z"/>
<path d="M7893 10804 c-37 -40 -42 -79 -10 -98 13 -8 24 -7 47 6 29 16 30 16
41 -5 17 -32 71 -87 86 -87 18 0 11 36 -14 62 -11 13 -28 38 -37 56 -21 41
-39 49 -71 28 -33 -21 -32 -13 1 18 17 15 25 30 21 40 -10 25 -27 19 -64 -20z"/>
<path d="M8972 10773 c-15 -27 23 -123 49 -123 23 0 23 10 -1 80 -20 59 -33
71 -48 43z"/>
<path d="M9797 10533 c1057 -2 2789 -2 3850 0 1060 1 196 2 -1922 2 -2117 0
-2985 -1 -1928 -2z"/>
<path d="M10119 10324 c-10 -24 -25 -67 -34 -96 -8 -28 -24 -71 -36 -95 -20
-42 -31 -49 -89 -55 -17 -2 -25 -9 -25 -23 0 -16 6 -20 32 -19 36 2 36 3 -9
-60 -45 -62 -34 -104 17 -64 22 17 26 26 21 52 -4 20 -3 26 3 17 7 -11 14 -7
30 20 12 19 22 37 23 41 2 4 19 9 38 12 71 10 115 29 104 47 -7 12 -56 11 -89
-1 -24 -9 -26 -8 -20 7 5 10 22 56 38 102 28 76 32 82 44 65 46 -63 73 -261
52 -379 -3 -15 1 -20 16 -20 53 0 50 192 -5 357 -50 149 -77 171 -111 92z"/>
<path d="M10644 10329 c-42 -12 -102 -75 -115 -121 -14 -53 0 -91 56 -155 51
-58 101 -80 202 -90 53 -5 64 -3 69 11 4 9 5 18 3 20 -10 8 -88 13 -83 5 9
-15 -6 -10 -23 7 -12 11 -27 14 -52 11 -20 -3 -30 -3 -23 0 9 3 3 12 -17 24
-46 28 -91 96 -91 137 0 27 9 43 39 73 55 56 69 52 73 -18 3 -54 5 -58 28 -58
33 0 78 82 61 113 -17 32 -82 53 -127 41z"/>
<path d="M9797 9843 c1057 -2 2789 -2 3850 0 1060 1 196 2 -1922 2 -2117 0
-2985 -1 -1928 -2z"/>
<path d="M8552 9823 c-7 -3 -21 -22 -31 -42 -25 -47 -72 -211 -65 -222 3 -5 1
-9 -4 -9 -5 0 -14 -19 -21 -41 -7 -23 -37 -89 -68 -147 -48 -91 -53 -108 -44
-129 14 -30 35 -25 39 8 3 29 21 67 41 92 13 16 13 20 1 29 -12 8 -12 9 3 4 9
-3 17 -1 17 3 0 5 9 7 20 4 12 -3 22 1 26 11 7 17 41 20 107 10 36 -6 37 -8
37 -49 0 -24 -8 -56 -17 -73 -18 -31 -12 -65 9 -57 22 9 47 66 54 122 5 39 11
54 25 58 25 8 24 32 -1 40 -15 5 -20 15 -20 41 0 20 -5 34 -12 34 -9 0 -10 3
-2 8 11 7 8 50 -11 162 -14 86 -53 153 -83 143z m43 -169 c8 -42 15 -91 15
-110 0 -20 5 -34 13 -34 7 0 8 -3 2 -8 -5 -4 -10 -20 -10 -37 0 -26 -3 -30
-25 -28 -14 1 -50 3 -80 3 l-56 2 28 82 c15 44 26 87 23 94 -2 6 -1 12 4 12 5
0 11 13 14 29 4 17 13 47 22 68 14 33 18 36 26 21 6 -10 16 -52 24 -94z m-71
51 c-4 -8 -8 -15 -10 -15 -2 0 -4 7 -4 15 0 8 4 15 10 15 5 0 7 -7 4 -15z"/>
<path d="M12840 9643 c-22 -9 -30 -26 -18 -40 7 -9 16 -10 28 -3 13 7 238 6
253 -1 1 -1 35 -3 76 -5 41 -2 110 -8 154 -14 83 -10 97 -8 97 15 0 9 -15 16
-37 20 -21 3 -51 8 -66 10 -20 3 -26 1 -21 -8 6 -8 3 -8 -9 1 -24 20 -241 29
-263 11 -14 -11 -18 -11 -29 4 -10 13 -27 17 -81 16 -38 0 -76 -3 -84 -6z"/>
<path d="M11182 9558 c-67 -51 -58 -87 34 -137 55 -31 70 -56 50 -85 -22 -35
-72 -52 -109 -38 -38 14 -58 1 -41 -26 28 -44 161 -16 190 39 31 62 13 101
-72 149 -54 31 -55 33 -37 52 10 11 30 26 45 34 16 8 28 21 28 29 0 18 -16 20
-23 3 -4 -10 -6 -10 -6 0 -1 19 -14 15 -59 -20z"/>
<path d="M13095 9568 c-3 -8 1 -33 9 -55 8 -23 18 -85 22 -137 6 -90 6 -96
-12 -96 -112 -2 -271 -14 -278 -20 -5 -5 -6 -15 -3 -24 6 -15 65 -15 245 -1
l52 4 0 -30 c0 -40 34 -37 38 4 2 15 6 27 10 28 4 0 38 2 75 4 38 3 72 7 78
10 17 11 9 35 -11 35 -14 0 -18 -5 -13 -17 5 -16 4 -16 -9 1 -11 14 -25 17
-66 15 -58 -5 -62 0 -62 84 0 27 -4 46 -9 43 -5 -4 -7 11 -5 31 6 49 -18 127
-40 131 -9 2 -18 -3 -21 -10z m-75 -318 c0 -5 -5 -10 -11 -10 -5 0 -7 5 -4 10
3 6 8 10 11 10 2 0 4 -4 4 -10z"/>
<path d="M11825 9561 c-3 -6 -17 -11 -31 -11 -33 0 -80 -25 -89 -47 -5 -10
-12 -43 -16 -73 -4 -30 -11 -67 -14 -82 -6 -24 -4 -28 13 -28 27 0 53 56 46
101 -8 50 18 78 81 87 45 6 50 10 50 32 0 26 -28 40 -40 21z"/>
<path d="M11442 9477 c-41 -43 -44 -92 -6 -136 14 -17 32 -31 40 -31 8 0 14
-4 14 -8 0 -5 12 -14 26 -21 21 -9 30 -9 42 1 13 11 15 10 9 -5 -5 -14 -3 -18
10 -15 34 6 23 28 -28 53 -56 29 -99 66 -99 87 0 7 19 22 43 32 49 21 59 33
46 58 -16 29 -61 22 -97 -15z"/>
<path d="M8826 9482 c-3 -3 -6 -16 -6 -29 0 -26 -17 -31 -22 -6 -2 14 -10 11
-41 -16 -66 -59 -48 -86 67 -101 106 -13 122 -26 66 -55 -35 -18 -73 -19 -100
-3 -24 16 -33 7 -25 -25 19 -74 205 -16 205 64 0 23 -66 59 -112 60 -18 1 -46
4 -63 8 l-30 7 53 34 c28 18 52 39 52 45 0 13 -35 27 -44 17z"/>
<path d="M10800 9465 c-5 -14 -10 -30 -10 -35 0 -10 -123 -119 -165 -146 -27
-18 -34 -54 -10 -54 8 0 48 27 88 60 41 33 77 60 80 60 4 0 7 -9 7 -20 0 -48
77 -87 119 -61 10 6 23 3 42 -11 26 -20 49 -18 49 4 0 6 -8 17 -17 24 -17 12
-17 15 5 56 27 53 30 98 5 98 -19 -1 -64 -63 -66 -92 -1 -20 -53 -49 -74 -41
-18 7 -26 46 -19 91 13 73 12 86 -6 90 -12 2 -21 -6 -28 -23z"/>
<path d="M9722 9376 c-53 -73 -36 -112 35 -87 28 10 37 10 50 -1 12 -9 15 -9
9 0 -4 6 -2 12 3 12 6 0 11 -10 11 -23 0 -42 27 -67 73 -67 50 0 72 12 64 33
-5 12 -15 14 -42 10 -42 -7 -55 5 -55 49 0 35 -9 58 -24 58 -7 0 -22 14 -34
30 -31 41 -53 38 -90 -14z m53 -26 c-3 -5 -11 -10 -16 -10 -6 0 -7 5 -4 10 3
6 11 10 16 10 6 0 7 -4 4 -10z"/>
<path d="M12274 9175 c-16 -12 -301 -15 -2204 -17 l-2185 -3 2179 -2 c2096 -3
2178 -4 2163 -21 -28 -31 -47 -102 -47 -177 0 -117 12 -224 24 -221 6 2 8 1 4
-1 -5 -3 -8 -22 -8 -43 l0 -38 -36 8 c-66 15 -187 -41 -157 -71 9 -9 24 -5 58
11 34 16 57 21 87 17 22 -3 41 -7 43 -9 2 -1 -1 -28 -7 -58 -12 -68 -56 -166
-91 -204 -28 -31 -27 -46 3 -46 37 0 109 126 129 225 11 59 14 242 3 248 -14
9 -8 270 7 297 33 61 81 91 81 51 0 -19 23 -35 34 -24 3 4 6 17 6 30 l0 23
1603 3 1602 2 -1606 3 c-1414 2 -1608 4 -1619 17 -16 19 -41 19 -66 0z"/>
<path d="M10945 9050 c-3 -6 -3 -20 1 -33 4 -12 6 -68 5 -124 -2 -90 0 -102
16 -106 14 -4 13 -5 -4 -6 -13 0 -23 -5 -23 -11 0 -5 -24 -10 -54 -10 -57 0
-76 -11 -56 -35 8 -9 27 -13 62 -10 l51 4 -7 -115 c-6 -101 -5 -115 10 -121
26 -10 34 16 34 122 0 55 4 105 8 111 9 14 96 24 113 13 11 -6 9 -16 -9 -48
-26 -46 -26 -98 0 -114 20 -13 87 14 123 51 31 31 34 86 6 104 -15 9 -17 16
-10 30 18 33 1 41 -75 34 -39 -4 -87 -10 -107 -13 l-37 -5 2 129 c1 97 -2 134
-13 146 -15 19 -27 21 -36 7z m245 -365 c10 -12 10 -18 -1 -31 -15 -19 -69
-47 -76 -40 -8 8 39 86 53 86 6 0 17 -7 24 -15z"/>
<path d="M9835 8982 c-7 -8 6 -75 18 -89 5 -7 7 -13 4 -13 -4 0 1 -19 9 -42 8
-24 19 -62 23 -85 l8 -43 -61 -1 c-113 -3 -111 -3 -111 -24 0 -19 6 -20 89
-19 l88 1 -7 -41 c-11 -63 -11 -79 2 -83 16 -6 43 49 43 89 0 28 5 35 31 45
36 14 34 37 -4 41 -20 3 -27 10 -32 35 -4 18 -15 59 -26 92 -10 33 -23 78 -29
101 -9 37 -29 52 -45 36z"/>
<path d="M13270 8955 c-15 -18 -3 -38 21 -32 46 12 68 -58 78 -248 5 -110 9
-130 23 -133 12 -2 22 12 36 50 19 52 21 53 62 56 24 2 80 -8 132 -22 98 -29
133 -33 122 -14 -4 7 -3 8 5 4 6 -4 9 -12 5 -17 -4 -7 8 -8 33 -3 47 8 53 12
53 30 0 15 -6 17 -65 14 -22 0 -69 8 -105 19 -94 30 -226 47 -243 32 -12 -9
-15 3 -21 76 -10 126 -49 203 -100 203 -13 0 -29 -7 -36 -15z"/>
<path d="M12396 8894 c-8 -20 11 -54 29 -54 10 0 15 11 15 35 0 28 -4 35 -19
35 -10 0 -22 -7 -25 -16z"/>
<path d="M12887 8904 c-13 -13 -7 -42 10 -48 23 -9 40 10 27 31 -12 20 -27 26
-37 17z"/>
<path d="M8798 8821 c-55 -22 -118 -59 -118 -71 0 -4 7 -13 15 -20 11 -9 21
-7 47 13 26 19 87 47 103 47 2 0 2 -11 1 -25 0 -14 -4 -25 -7 -25 -12 0 -51
-109 -45 -125 6 -18 22 -19 64 -4 27 9 36 8 64 -12 40 -29 99 -30 129 -3 18
16 20 26 15 63 -3 24 -10 49 -15 55 -5 6 -11 22 -13 35 -3 28 -16 35 -38 21
-13 -8 -13 -15 3 -57 28 -72 27 -87 -6 -91 -16 -2 -38 5 -53 17 -16 12 -41 21
-61 21 -28 0 -34 3 -29 16 3 8 2 12 -4 9 -6 -3 -10 -1 -10 4 0 6 4 11 10 11
15 0 40 56 40 89 0 20 -7 34 -19 41 -24 12 -16 13 -73 -9z"/>
<path d="M9312 8770 c-53 -38 -78 -84 -63 -116 12 -28 47 -32 90 -9 28 14 29
14 35 -17 8 -39 23 -58 47 -58 26 0 33 19 15 39 -22 24 -20 67 4 91 26 26 25
33 -11 69 -38 39 -65 39 -117 1z m83 -39 c0 -8 -24 -25 -52 -38 -60 -26 -68
-15 -21 28 32 31 73 36 73 10z"/>
<path d="M13040 8742 c-25 -12 -35 -24 -35 -41 0 -19 10 -27 60 -45 33 -12 68
-27 78 -32 16 -9 17 -12 3 -24 -9 -7 -30 -15 -48 -19 -38 -8 -47 -26 -18 -41
30 -16 107 20 116 54 3 14 4 32 1 40 -6 15 -103 66 -128 66 -8 1 -1 8 14 16
23 12 26 18 16 30 -15 18 -17 18 -59 -4z"/>
<path d="M12627 8718 c-13 -18 -31 -55 -40 -83 -14 -43 -14 -52 -2 -64 19 -19
45 2 45 36 0 33 28 96 39 89 5 -4 15 -32 22 -64 13 -63 32 -93 49 -76 11 11 0
82 -23 149 -19 55 -55 60 -90 13z"/>
<path d="M12887 8733 c-8 -16 -7 -189 2 -202 11 -17 41 -7 41 14 0 8 -4 15 -9
15 -5 0 -5 16 0 38 10 44 12 104 3 126 -6 16 -30 22 -37 9z"/>
<path d="M9520 8683 c-53 -85 -30 -116 38 -53 28 24 42 32 42 23 0 -27 41 -83
60 -83 20 0 20 31 0 55 -6 7 -14 32 -18 56 -6 35 -12 44 -27 44 -12 0 -19 -6
-17 -15 3 -11 -1 -11 -16 3 -10 9 -22 17 -25 17 -4 0 -20 -21 -37 -47z"/>
<path d="M12386 8674 c-9 -24 -7 -69 4 -99 13 -35 46 -30 43 5 -2 14 -4 41 -5
60 -2 46 -29 67 -42 34z"/>
<path d="M10243 8298 c-22 -38 -73 -167 -73 -187 0 -8 -9 -11 -27 -7 -86 17
-95 14 -124 -35 -27 -47 -49 -116 -33 -106 5 3 9 -17 9 -45 0 -41 5 -54 26
-72 27 -23 34 -56 15 -68 -6 -4 -82 -8 -170 -8 l-158 0 6 31 c3 17 6 38 6 45
0 8 15 20 33 27 53 23 107 80 107 113 0 40 -26 74 -55 74 -35 0 -93 -62 -107
-116 -12 -43 -20 -49 -60 -45 -9 1 -19 -3 -23 -9 -10 -16 14 -40 41 -40 27 0
28 -5 13 -49 -11 -30 -12 -31 -76 -31 -39 0 -62 4 -58 10 3 5 -2 21 -11 34
-12 20 -14 37 -9 76 8 61 -2 64 -72 20 -74 -47 -91 -39 -49 23 22 32 23 37 9
49 -13 10 -19 8 -40 -16 -19 -22 -21 -31 -12 -42 10 -12 9 -13 -5 -8 -15 6
-17 1 -14 -31 4 -55 26 -64 88 -38 40 17 50 19 46 7 -6 -16 13 -64 26 -64 4 0
8 -4 8 -10 0 -6 -134 -10 -382 -10 -210 0 -378 3 -375 7 4 3 21 8 39 10 37 4
53 16 43 33 -4 7 -20 9 -44 5 -20 -3 -60 -9 -90 -12 -41 -4 -55 -10 -58 -24
-5 -18 -25 -19 -377 -22 -204 -1 28 -3 516 -5 l888 -2 -6 -30 c-9 -44 3 -80
26 -80 23 0 35 34 28 80 l-5 30 160 0 159 0 -6 -22 c-24 -79 -18 -158 12 -158
16 0 18 9 19 63 0 34 5 74 11 90 l12 27 472 0 c466 0 473 0 442 -19 -16 -10
-47 -38 -67 -61 -50 -59 -56 -107 -27 -211 13 -44 20 -82 16 -86 -3 -3 -26 -5
-51 -5 -25 1 -59 -5 -75 -13 -16 -9 -32 -15 -35 -15 -21 1 -25 -2 -25 -15 0
-25 26 -28 79 -10 27 9 69 15 92 13 48 -3 50 -7 69 -121 6 -42 6 -69 -3 -95
l-12 -37 -1535 -5 -1535 -5 1528 -3 c998 -1 1535 -5 1547 -12 13 -7 21 -7 25
0 4 7 779 11 2298 12 l2292 3 -2282 2 -2283 3 6 58 c4 37 0 81 -10 125 -9 38
-16 70 -16 73 0 2 24 4 53 4 l52 0 0 -56 c0 -44 4 -59 19 -70 47 -34 116 3
116 61 0 27 -7 38 -32 57 -18 12 -40 31 -48 41 -13 15 -22 16 -62 9 -27 -5
-45 -5 -42 -1 3 5 -4 9 -15 9 -11 0 -25 -8 -30 -17 -10 -17 -10 -17 -11 0 0 9
-4 17 -9 17 -17 0 -44 86 -50 162 -3 42 -4 76 0 75 3 -1 18 13 34 31 38 45 76
63 116 55 30 -6 32 -5 27 20 l-5 27 983 0 984 0 0 -69 c0 -70 11 -94 33 -72
14 14 37 87 37 119 l0 22 1218 2 1217 3 -1211 2 -1212 3 -6 23 c-3 12 -6 39
-6 59 0 20 -5 38 -11 40 -6 2 -4 12 8 24 11 13 46 27 95 38 102 23 158 62 158
110 0 22 -9 45 -26 65 -22 27 -33 31 -72 31 -74 0 -157 -69 -181 -152 l-12
-40 -77 3 c-66 3 -77 1 -80 -14 -4 -19 33 -37 77 -37 27 0 29 -3 35 -52 3 -29
6 -63 6 -75 l0 -23 -1486 0 c-1351 0 -1486 1 -1480 16 3 9 6 17 6 18 0 1 15 0
34 -2 37 -4 102 23 146 61 86 75 79 142 -20 192 l-49 25 21 57 c11 32 33 85
48 118 15 33 26 63 23 67 -10 17 -32 6 -50 -24z m3086 -210 c14 -24 14 -28 -3
-46 -14 -16 -148 -62 -180 -62 -11 0 4 41 27 73 47 68 128 86 156 35z m-3182
-31 c9 -10 -70 -187 -83 -187 -36 0 -44 100 -13 162 19 38 23 40 56 35 20 -4
37 -8 40 -10z m106 -52 c20 -14 37 -32 37 -40 0 -26 -70 -93 -116 -111 -24 -9
-47 -14 -51 -10 -4 3 4 31 16 61 12 30 19 60 15 66 -4 7 -3 9 3 6 6 -4 16 6
22 23 12 37 25 37 74 5z m-433 -11 c0 -18 -53 -74 -69 -74 -21 0 -11 38 19 70
29 31 50 33 50 4z m1344 -700 c21 -20 20 -31 -4 -44 -15 -8 -21 -6 -30 9 -23
45 0 69 34 35z"/>
<path d="M11990 8273 c-49 -18 -66 -115 -34 -198 26 -67 24 -70 -24 -67 -38 3
-43 1 -40 -15 2 -14 14 -19 55 -21 57 -3 58 -5 65 -101 3 -41 18 -49 36 -20
11 17 11 33 0 90 -7 38 -16 69 -19 69 -4 0 -10 14 -14 30 -4 17 -10 28 -14 25
-4 -2 -8 12 -9 32 -1 20 -6 41 -11 46 -5 5 -4 25 1 48 11 43 37 52 68 24 15
-13 19 -13 29 -2 24 29 -46 76 -89 60z m10 -227 c0 -3 -4 -8 -10 -11 -5 -3
-10 -1 -10 4 0 6 5 11 10 11 6 0 10 -2 10 -4z"/>
<path d="M9007 8203 c-6 -10 9 -235 18 -288 21 -112 58 -123 134 -38 l51 56 0
-46 c0 -61 15 -99 38 -95 12 3 16 11 14 28 -2 14 -6 51 -9 83 -4 43 -10 60
-24 67 -26 14 -48 1 -98 -57 -22 -26 -43 -44 -47 -41 -11 12 -24 97 -29 202
-3 55 -8 109 -11 119 -5 17 -29 23 -37 10z"/>
<path d="M10484 8167 c-3 -8 7 -51 21 -96 23 -72 26 -97 23 -185 -3 -95 -2
-101 17 -101 19 0 20 8 23 110 3 90 -1 124 -19 185 -12 41 -23 81 -25 88 -4
16 -33 16 -40 -1z"/>
<path d="M11760 8063 c-8 -3 -23 -12 -32 -20 -12 -11 -28 -13 -52 -9 -43 8
-58 -10 -28 -35 12 -9 22 -29 22 -43 0 -49 74 -71 149 -45 45 16 57 43 31 69
-11 11 -27 20 -35 20 -13 0 -13 3 -3 21 11 17 10 22 -6 35 -21 15 -23 15 -46
7z m27 -49 c-3 -3 -12 -4 -19 -1 -8 3 -5 6 6 6 11 1 17 -2 13 -5z m-4 -67
c-37 -11 -63 -4 -63 16 0 12 8 12 47 3 l47 -10 -31 -9z"/>
<path d="M8583 7998 c-27 -13 -42 -50 -42 -109 0 -38 5 -51 29 -74 24 -23 32
-26 45 -15 13 11 12 16 -10 42 -28 33 -32 74 -12 103 12 16 24 17 93 13 43 -3
92 -12 107 -19 24 -11 30 -11 37 1 20 33 -37 57 -155 64 -38 2 -80 -1 -92 -6z"/>
<path d="M12380 7620 c-11 -21 1 -74 35 -154 9 -21 14 -44 12 -50 -3 -7 -24
-18 -47 -25 -65 -19 -90 -50 -90 -110 0 -32 6 -55 16 -65 19 -20 26 -20 71 -1
108 45 131 136 74 279 -17 43 -31 93 -31 112 0 39 -22 47 -40 14z m60 -274 c0
-24 -45 -81 -73 -90 -34 -12 -41 -5 -33 38 5 27 14 37 44 50 47 19 62 20 62 2z"/>
<path d="M12980 7620 c-7 -12 -7 -27 -2 -37 5 -10 7 -23 5 -30 -8 -22 28 -123
44 -123 11 0 13 -4 6 -12 -14 -17 -23 -187 -11 -194 42 -26 52 130 18 276 -11
47 -22 97 -25 113 -6 32 -20 35 -35 7z"/>
<path d="M9072 7528 c-8 -78 -8 -106 1 -117 9 -11 9 -15 0 -18 -8 -3 -13 -22
-13 -49 0 -36 -3 -44 -18 -44 -10 0 -27 -6 -37 -14 -16 -12 -17 -16 -6 -29 10
-13 17 -14 37 -5 13 6 26 9 27 7 2 -2 12 -38 23 -79 13 -51 24 -75 34 -75 22
0 24 36 5 97 -10 34 -12 54 -5 56 6 2 8 8 4 13 -3 5 2 9 10 9 8 0 18 -4 21
-10 3 -5 21 -10 38 -10 69 0 106 -12 109 -34 2 -15 10 -21 31 -21 20 -1 33 -9
46 -31 34 -56 91 -88 91 -51 0 11 -46 76 -82 117 -7 8 -13 24 -13 35 0 14 -6
19 -20 18 -11 -2 -72 3 -137 9 l-116 11 -5 31 c-2 17 2 70 11 119 13 80 13 89
-2 106 -9 10 -16 21 -16 26 0 5 7 0 15 -11 14 -18 14 -17 15 14 0 24 -4 32
-18 32 -16 0 -20 -14 -30 -102z"/>
<path d="M9593 7553 c-18 -6 -16 -77 2 -137 8 -27 12 -52 9 -55 -3 -3 -28 -5
-55 -4 -52 2 -68 -9 -49 -32 8 -10 32 -15 70 -15 l58 0 7 -65 c4 -35 5 -75 2
-87 -8 -31 6 -53 28 -44 16 6 17 18 13 109 l-5 103 33 -4 c22 -3 35 -11 39
-23 4 -13 26 -25 66 -37 58 -17 80 -39 37 -38 -34 1 -36 -32 -2 -40 40 -10 59
7 59 52 0 38 -2 39 -54 60 -45 18 -50 23 -30 26 26 3 38 33 17 40 -7 2 -48 2
-91 -1 -48 -4 -82 -2 -86 4 -17 21 -43 125 -39 150 6 27 -9 45 -29 38z"/>
<path d="M8791 7539 c-78 -23 -147 -84 -137 -122 7 -29 36 -42 134 -57 39 -7
72 -15 72 -19 0 -24 -110 -101 -144 -101 -24 0 -30 -20 -12 -38 15 -16 20 -15
70 11 56 30 136 106 136 130 0 26 -37 48 -101 57 -126 20 -132 25 -71 65 60
39 162 52 162 19 0 -8 9 -14 20 -14 15 0 20 7 20 24 0 49 -66 68 -149 45z"/>
<path d="M11271 7412 c-14 -26 -14 -159 -1 -167 6 -4 18 -1 26 6 11 9 13 25 8
72 -7 57 -6 59 15 52 15 -4 23 -2 27 10 8 20 -3 32 -38 40 -20 5 -29 2 -37
-13z"/>
<path d="M13183 7373 c-48 -14 -55 -21 -52 -50 0 -5 7 -7 15 -7 17 2 17 -1 2
-26 -10 -15 -10 -22 0 -32 9 -9 20 -9 48 1 19 7 36 11 38 9 31 -49 61 -78 81
-78 37 0 75 18 75 35 0 16 -7 18 -55 16 -24 -1 -34 5 -48 30 -9 17 -26 33 -38
36 -20 6 -20 6 2 29 22 24 20 55 -3 53 -7 0 -37 -8 -65 -16z"/>
<path d="M12682 7366 c-38 -13 -55 -36 -45 -61 5 -15 15 -16 57 -12 28 4 61 9
74 13 20 6 22 3 22 -34 0 -70 34 -118 66 -92 10 9 10 15 -4 31 -10 12 -19 44
-22 81 l-5 61 -50 13 c-59 16 -52 15 -93 0z"/>
<path d="M11754 6949 c-7 -12 17 -159 26 -159 11 0 -9 -163 -30 -242 -11 -43
-20 -82 -20 -88 0 -15 38 -12 47 4 4 7 44 21 88 30 43 9 90 23 103 32 30 20
26 53 -9 73 -24 13 -31 12 -94 -17 -66 -31 -67 -32 -61 -10 24 83 14 312 -16
371 -10 19 -24 22 -34 6z"/>
<path d="M9394 6815 c-8 -19 12 -36 33 -28 19 7 12 37 -10 41 -9 2 -20 -4 -23
-13z"/>
<path d="M8810 6809 c-120 -25 -148 -47 -121 -97 11 -21 15 -23 90 -42 37 -10
42 -14 30 -25 -25 -23 -114 -65 -167 -77 -38 -9 -52 -17 -52 -30 0 -13 8 -18
28 -18 42 0 103 20 109 36 3 7 9 11 14 8 13 -8 117 54 130 78 16 30 5 46 -43
59 -129 35 -132 42 -33 59 33 6 67 13 75 17 8 3 33 6 55 7 28 1 40 5 40 16 0
18 -86 23 -155 9z"/>
<path d="M10137 6743 c-41 -65 -47 -81 -47 -116 0 -51 32 -87 80 -87 43 0 68
21 47 39 -8 6 -17 8 -20 5 -10 -10 -54 5 -60 20 -9 23 11 83 39 116 27 31 26
60 -1 60 -8 0 -25 -17 -38 -37z"/>
<path d="M10335 6736 c-47 -47 -45 -107 5 -156 34 -33 118 -73 138 -65 27 10
6 38 -43 57 -27 10 -58 28 -68 40 -17 21 -17 21 23 39 35 16 40 22 40 52 0 18
-5 38 -12 45 -19 19 -57 14 -83 -12z m55 -26 c0 -5 -10 -15 -22 -21 -23 -12
-23 -12 -4 10 21 23 26 26 26 11z"/>
<path d="M9088 6717 c-75 -52 -98 -107 -58 -147 39 -39 190 -18 174 24 -4 11
-13 12 -37 5 -47 -13 -93 -11 -107 6 -10 12 -6 22 28 54 22 21 49 42 61 46 26
8 29 45 4 44 -10 0 -39 -15 -65 -32z"/>
<path d="M9866 6706 c-22 -13 -45 -22 -51 -19 -28 10 -58 -84 -33 -105 8 -6
18 -8 23 -4 18 13 36 53 29 64 -4 6 -3 8 3 5 5 -4 25 5 43 18 40 29 53 31 71
9 11 -13 9 -23 -14 -64 -30 -54 -34 -80 -12 -80 22 0 75 89 75 128 0 40 -30
72 -67 72 -16 0 -46 -11 -67 -24z"/>
<path d="M9551 6689 c-11 -12 -17 -27 -14 -35 3 -8 0 -14 -6 -14 -27 0 -8
-122 23 -142 33 -22 91 7 62 31 -8 6 -19 10 -26 9 -7 -2 -16 7 -20 19 -7 17
-5 22 15 27 33 8 44 34 33 73 -12 46 -41 59 -67 32z"/>
<path d="M9364 6645 c-31 -76 3 -162 45 -112 8 11 6 18 -9 32 -11 10 -17 21
-13 24 12 9 33 73 27 82 -12 20 -36 7 -50 -26z"/>
<path d="M12146 6618 c-27 -41 -31 -86 -10 -109 10 -11 26 -18 36 -16 23 7 23
4 -9 -54 l-26 -49 -2131 -2 -2131 -3 2129 -2 c2021 -3 2128 -4 2121 -21 -24
-58 -36 -104 -33 -124 6 -45 29 -22 56 57 l28 80 1699 5 1700 5 -1692 3
c-1219 1 -1693 5 -1693 13 0 6 8 23 18 37 34 50 82 149 75 156 -13 13 -33 5
-63 -24 -39 -38 -54 -39 -46 -2 12 46 11 65 -1 69 -6 2 -19 -6 -27 -19z"/>
<path d="M10585 6550 c-12 -19 10 -32 51 -28 27 2 39 8 39 18 0 19 -79 27 -90
10z"/>
<path d="M9101 6247 c-6 -6 -11 -17 -11 -25 0 -8 -8 -26 -18 -40 -11 -15 -31
-52 -47 -83 l-28 -57 -41 14 c-37 13 -42 13 -66 -4 -14 -10 -38 -41 -55 -67
-40 -64 -43 -146 -7 -176 l23 -18 -31 -46 -31 -45 -457 -2 -457 -3 453 -2
c439 -3 452 -4 443 -22 -9 -16 -6 -20 13 -23 18 -4 27 1 35 19 l11 23 197 -2
c109 -1 177 -3 151 -5 -39 -3 -48 -8 -48 -22 0 -13 9 -20 30 -23 17 -3 32 -2
35 0 2 3 21 6 41 8 20 2 55 12 78 24 33 16 62 20 132 20 93 -1 119 -10 125
-45 3 -12 14 -21 27 -23 19 -3 23 1 22 20 -1 13 -2 29 -1 36 1 18 1201 18
1219 0 10 -10 17 -10 32 0 27 16 402 16 482 0 46 -10 63 -10 78 0 13 8 63 12
140 12 131 0 128 2 121 -64 -2 -26 18 -86 29 -86 17 0 23 24 21 87 l-2 63
1913 2 1913 3 -1774 2 -1774 3 8 78 c14 127 11 203 -9 245 -12 23 -25 37 -37
37 -26 0 -37 -30 -16 -41 8 -5 18 -23 22 -39 4 -17 11 -30 17 -30 7 0 7 -4 0
-13 -6 -6 -9 -32 -8 -57 1 -24 -4 -58 -12 -74 -12 -23 -13 -38 -5 -68 l10 -38
-125 0 -124 0 6 31 c3 17 6 35 6 39 0 4 19 15 43 24 62 23 98 65 104 118 5 40
2 47 -25 69 -16 13 -37 29 -47 34 -16 10 -16 13 5 57 24 48 22 82 -4 72 -8 -3
-25 -30 -37 -60 -20 -49 -25 -53 -48 -47 -52 13 -76 9 -74 -11 1 -11 -7 -31
-17 -44 -46 -57 -32 -152 28 -190 23 -14 27 -23 24 -54 l-3 -38 -136 0 c-157
0 -230 16 -302 67 -2 1 18 26 45 56 59 64 115 165 116 209 2 49 -42 82 -100
75 -52 -6 -93 -33 -107 -72 -8 -23 -6 -30 14 -46 29 -24 44 -15 36 22 -6 26
-3 31 29 44 46 19 52 19 76 -5 19 -19 19 -20 -21 -92 -22 -40 -65 -97 -95
-126 -30 -30 -54 -59 -54 -66 0 -6 19 -24 42 -39 l42 -27 -199 0 c-171 0 -201
2 -217 17 -17 15 -19 15 -36 0 -15 -14 -40 -17 -119 -17 l-100 0 23 47 c13 25
24 60 24 76 0 42 -28 94 -63 119 l-31 23 39 11 c29 8 40 16 40 30 0 23 -25 22
-97 -3 -43 -15 -48 -15 -72 1 -14 9 -26 23 -26 31 0 16 47 55 67 55 23 0 10
35 -14 38 -12 2 -35 -9 -56 -28 -57 -49 -58 -100 -3 -129 l25 -14 -21 -27
c-38 -51 -19 -152 38 -205 l27 -25 -469 3 c-258 2 -473 4 -479 5 -5 0 -52 -2
-104 -5 l-93 -4 35 34 c40 41 51 81 30 114 -8 13 -19 23 -23 23 -5 0 7 26 26
57 24 41 34 69 34 99 0 49 -30 94 -64 94 -40 0 -84 -68 -60 -93 10 -10 44 12
44 28 0 22 28 18 35 -5 4 -11 4 -34 0 -50 -9 -40 -61 -110 -83 -110 -27 0 -62
-29 -62 -51 0 -28 24 -34 59 -13 25 15 32 15 45 5 23 -19 20 -31 -16 -68 -28
-29 -30 -34 -17 -50 13 -16 12 -17 -4 -4 -14 11 -23 12 -43 2 -16 -7 -101 -11
-245 -11 l-219 0 26 40 c20 30 33 40 53 40 42 0 126 45 155 83 40 52 38 100
-4 135 l-32 28 31 59 c17 33 40 76 51 95 11 19 20 42 20 51 0 21 -24 31 -39
16z m-131 -246 c0 -5 -21 -45 -47 -89 -51 -88 -73 -97 -73 -29 0 25 10 56 25
84 23 38 30 43 60 43 19 0 35 -4 35 -9z m2775 -48 c-4 -21 -9 -49 -11 -63 -2
-14 -7 -37 -12 -50 l-9 -23 -21 21 c-32 32 -30 88 5 124 39 41 57 37 48 -9z
m-2703 10 c22 -20 23 -42 2 -71 -16 -23 -89 -65 -104 -60 -10 3 66 148 77 148
4 0 15 -7 25 -17z m2797 -9 c37 -26 17 -80 -42 -111 l-30 -15 7 43 c5 30 3 45
-6 51 -10 6 -8 8 5 8 10 0 17 8 17 20 0 24 18 26 49 4z m-1278 -41 c16 -9 36
-32 45 -51 15 -32 15 -37 -1 -79 -10 -24 -24 -47 -31 -50 -25 -9 -81 38 -93
78 -15 49 -14 70 5 97 18 26 36 28 75 5z"/>
<path d="M10233 6142 c-20 -13 -73 -84 -73 -98 0 -26 35 -14 63 21 15 19 33
35 39 35 26 0 -25 -154 -73 -221 -14 -20 -16 -28 -7 -31 7 -3 -6 -8 -29 -11
-29 -5 -49 -16 -67 -38 -59 -70 -7 -101 62 -36 l32 31 44 -43 c29 -29 50 -42
60 -38 25 10 20 22 -29 70 l-44 45 33 62 c19 35 32 69 29 77 -3 7 -1 13 5 13
27 0 44 134 20 158 -13 13 -47 16 -65 4z"/>
<path d="M12280 6117 c-14 -6 -28 -15 -31 -20 -3 -5 -8 -7 -10 -6 -8 7 -46
-26 -64 -54 -23 -35 -10 -69 35 -92 34 -17 34 -20 19 -63 -21 -62 31 -142 93
-142 32 0 67 39 74 82 7 42 -15 82 -57 104 -16 8 -29 19 -29 24 0 5 45 39 100
75 95 64 122 95 82 95 -19 0 -168 -95 -209 -132 -21 -20 -24 -20 -48 -4 -14 9
-25 20 -25 24 0 16 49 54 86 67 25 8 38 20 41 34 3 24 -16 27 -57 8z m54 -243
c20 -19 21 -68 2 -83 -39 -32 -83 43 -60 103 7 17 29 10 58 -20z"/>
<path d="M8721 5584 c-17 -29 -28 -60 -25 -69 4 -9 1 -15 -9 -15 -8 0 -18 -11
-21 -25 -14 -56 28 -60 49 -5 31 85 41 105 58 122 22 23 22 34 -3 41 -15 4
-26 -6 -49 -49z"/>
<path d="M9802 5003 c1054 -2 2782 -2 3840 0 1058 1 195 2 -1917 2 -2112 0
-2977 -1 -1923 -2z"/>
<path d="M9802 3613 c1054 -2 2782 -2 3840 0 1058 1 195 2 -1917 2 -2112 0
-2977 -1 -1923 -2z"/>
<path d="M9797 2923 c1058 -2 2788 -2 3845 0 1058 1 193 2 -1922 2 -2115 0
-2980 -1 -1923 -2z"/>
<path d="M9797 2233 c1057 -2 2789 -2 3850 0 1060 1 196 2 -1922 2 -2117 0
-2985 -1 -1928 -2z"/>
<path d="M9797 1543 c1058 -2 2788 -2 3845 0 1058 1 193 2 -1922 2 -2115 0
-2980 -1 -1923 -2z"/>
<path d="M9802 853 c1054 -2 2782 -2 3840 0 1058 1 195 2 -1917 2 -2112 0
-2977 -1 -1923 -2z"/>
</g>
</svg>
