<?xml version="1.0" standalone="no"?>
<!DOCTYPE svg PUBLIC "-//W3C//DTD SVG 20010904//EN"
 "http://www.w3.org/TR/2001/REC-SVG-20010904/DTD/svg10.dtd">
<svg version="1.0" xmlns="http://www.w3.org/2000/svg"
 width="1618.000000pt" height="1214.000000pt" viewBox="0 0 1618.000000 1214.000000"
 preserveAspectRatio="xMidYMid meet">

<g transform="translate(0.000000,1214.000000) scale(0.100000,-0.100000)"
fill="#000000" stroke="none">
<path d="M630 6040 l0 -5190 3310 0 3310 0 0 4941 c0 4695 1 4942 18 4955 16
13 16 15 0 28 -16 12 -18 36 -18 235 l0 221 -3310 0 -3310 0 0 -5190z m6610
4965 c0 -202 -1 -216 -20 -235 -43 -43 -130 -17 -165 50 -16 32 -16 32 78 45
49 8 62 17 54 39 -4 10 -20 11 -72 3 -44 -6 -70 -6 -77 1 -5 5 -19 7 -29 5
-18 -5 -19 -11 -14 -47 9 -56 49 -123 85 -141 17 -9 56 -15 95 -15 l65 0 0
-4925 0 -4925 -3300 0 -3300 0 0 5180 0 5180 3300 0 3300 0 0 -215z"/>
<path d="M7028 11121 c-20 -20 -37 -89 -38 -153 0 -41 2 -46 20 -41 13 3 20
14 20 29 0 12 7 55 15 95 16 76 11 98 -17 70z m2 -115 c0 -3 -4 -8 -10 -11 -5
-3 -10 -1 -10 4 0 6 5 11 10 11 6 0 10 -2 10 -4z"/>
<path d="M5530 11046 c-66 -19 -127 -53 -146 -82 -16 -24 -16 -27 3 -52 24
-32 135 -94 220 -122 84 -29 113 -53 113 -95 0 -48 -49 -77 -144 -83 -68 -4
-73 -3 -110 27 -42 34 -51 37 -62 20 -3 -6 9 -27 29 -47 34 -33 40 -35 115
-40 94 -5 139 7 186 52 32 30 34 36 29 77 -3 24 -9 51 -14 60 -9 18 -80 54
-174 90 -68 26 -155 76 -155 90 0 5 19 18 42 30 23 12 47 27 54 33 6 7 35 12
65 11 61 -2 86 10 68 31 -14 17 -58 17 -119 0z m-70 -420 c0 -3 -4 -8 -10 -11
-5 -3 -10 -1 -10 4 0 6 5 11 10 11 6 0 10 -2 10 -4z"/>
<path d="M4215 11007 c-48 -13 -101 -20 -167 -20 -87 0 -98 -2 -98 -17 0 -19
19 -30 53 -30 15 -1 6 -8 -25 -22 -57 -24 -63 -51 -20 -90 34 -32 52 -41 144
-74 126 -45 176 -99 164 -177 -14 -86 -67 -122 -167 -115 -49 4 -65 9 -79 28
-19 25 -40 20 -40 -9 0 -30 34 -51 99 -62 135 -21 230 52 231 179 0 92 -58
150 -204 201 -117 41 -144 61 -108 80 29 15 294 101 312 101 22 0 32 24 17 39
-14 14 -26 13 -112 -12z"/>
<path d="M2630 10961 c-141 -45 -340 -157 -340 -190 0 -31 15 -33 45 -5 15 14
84 52 154 85 69 33 134 65 143 70 10 5 28 9 41 9 13 0 28 5 35 12 9 9 12 9 12
0 0 -17 47 -15 54 3 7 18 -23 35 -61 34 -15 0 -53 -8 -83 -18z"/>
<path d="M6404 10905 c-8 -20 22 -65 43 -65 9 0 13 3 10 7 -4 3 -2 12 4 20 9
10 8 18 -6 33 -22 24 -43 26 -51 5z"/>
<path d="M3143 10895 c-3 -9 2 -42 11 -74 17 -61 22 -201 7 -201 -5 0 -50 47
-101 104 -87 98 -121 126 -157 126 -13 0 -14 -8 -7 -62 5 -35 8 -105 7 -155
-2 -85 0 -93 17 -93 24 0 40 78 19 91 -12 7 -12 9 0 9 10 0 12 16 9 72 l-4 71
101 -107 c127 -135 153 -139 170 -26 3 25 1 77 -6 115 -7 39 -12 81 -11 95 1
43 -41 70 -55 35z m-8 -265 c3 -5 1 -10 -4 -10 -6 0 -11 5 -11 10 0 6 2 10 4
10 3 0 8 -4 11 -10z"/>
<path d="M2133 10884 c-52 -19 -133 -93 -133 -122 0 -30 43 -59 122 -83 69
-21 98 -40 98 -63 0 -6 -12 -31 -27 -54 -50 -78 -172 -117 -186 -61 -8 28 -31
19 -35 -13 -2 -18 4 -31 20 -42 103 -72 316 105 258 215 -14 25 -67 52 -91 46
-11 -3 -17 -1 -14 3 3 5 -9 12 -27 15 -39 9 -68 26 -68 41 0 17 42 52 85 70
58 25 65 25 65 -2 0 -17 6 -24 20 -24 21 0 35 33 28 67 -4 24 -59 27 -115 7z"/>
<path d="M2574 10803 c4 -16 11 -80 17 -143 12 -118 22 -147 40 -120 13 19 2
231 -13 265 -6 14 -20 25 -31 25 -16 0 -18 -5 -13 -27z"/>
<path d="M6179 10807 c-42 -28 -48 -68 -19 -115 32 -52 100 -66 100 -21 0 13
-7 19 -24 19 -22 0 -56 35 -56 59 0 5 16 19 36 30 30 18 34 24 24 36 -16 20
-21 19 -61 -8z m34 -2 c-3 -9 -8 -14 -10 -11 -3 3 -2 9 2 15 9 16 15 13 8 -4z"/>
<path d="M6603 10805 c-39 -28 -56 -93 -51 -205 4 -97 5 -101 36 -133 26 -26
35 -30 50 -21 26 17 23 59 -5 59 -30 1 -34 6 -39 64 -4 50 -4 51 23 51 39 0
91 35 99 65 11 46 -42 135 -81 135 -6 0 -20 -7 -32 -15z m61 -74 c16 -30 12
-42 -21 -60 -40 -21 -53 -15 -47 22 8 40 32 80 45 72 5 -4 16 -19 23 -34z"/>
<path d="M5894 10794 c-77 -38 -94 -88 -49 -142 35 -42 103 -58 168 -39 26 7
37 15 35 26 -3 13 -14 15 -58 13 -30 -2 -67 1 -82 7 -33 13 -54 47 -39 65 6 7
7 16 3 20 -4 4 -2 6 3 5 6 -2 27 3 48 10 22 7 51 11 66 8 38 -8 59 6 42 27
-17 21 -96 21 -137 0z"/>
<path d="M5068 10748 c-47 -39 -64 -109 -30 -127 13 -7 30 -4 60 9 39 18 42
18 42 2 0 -9 6 -24 13 -33 17 -22 77 -52 77 -39 0 6 5 8 10 5 24 -15 7 14 -26
43 -31 27 -34 35 -29 65 5 24 2 37 -10 47 -13 11 -20 9 -43 -12 -15 -14 -37
-31 -50 -38 -22 -11 -23 -10 -12 9 6 12 20 27 30 34 25 15 26 47 2 47 -10 0
-25 -6 -34 -12z"/>
<path d="M3495 10729 c-22 -5 -57 -11 -77 -14 -30 -5 -38 -10 -38 -27 0 -20 4
-20 65 -14 84 8 117 21 113 43 -4 21 -13 23 -63 12z"/>
<path d="M4875 10708 c-2 -7 -5 -37 -8 -66 -2 -29 -7 -55 -11 -59 -9 -10 -86
68 -93 94 -6 28 -43 32 -43 6 0 -44 98 -153 137 -153 31 0 50 40 55 117 3 47
1 64 -10 68 -19 7 -22 7 -27 -7z"/>
<path d="M4505 10656 c-13 -19 -14 -29 -5 -45 14 -26 37 -26 75 -1 17 11 33
20 36 20 4 0 10 -25 14 -55 4 -35 15 -65 28 -81 20 -23 27 -25 57 -17 49 13
54 43 7 43 -33 0 -35 3 -46 44 -6 25 -11 54 -11 64 0 30 -23 43 -84 48 -50 4
-57 2 -71 -20z"/>
<path d="M6467 10672 c-11 -17 6 -62 24 -62 25 0 31 14 19 44 -9 25 -33 35
-43 18z"/>
<path d="M4560 9988 c-1 -13 -11 -59 -23 -103 l-22 -80 -52 3 c-38 2 -53 -1
-53 -10 0 -9 -3 -9 -10 2 -7 12 -10 11 -16 -5 -3 -11 -17 -41 -29 -67 -33 -70
-22 -136 34 -200 l29 -34 -28 -71 c-38 -93 -45 -136 -28 -151 21 -17 36 -1 39
43 1 22 6 45 10 50 4 6 17 35 28 66 20 52 24 57 59 62 20 4 46 8 57 11 11 2
28 5 37 5 31 2 99 74 108 116 15 69 -15 115 -92 141 l-50 16 8 37 c4 20 8 50
8 66 1 17 6 35 13 40 7 6 14 26 15 45 3 30 0 35 -19 38 -18 3 -23 -2 -23 -20z
m-80 -238 c17 -9 17 -12 -1 -71 -11 -34 -17 -71 -13 -82 4 -12 2 -17 -4 -13
-6 3 -13 -3 -17 -14 -9 -28 -22 -25 -46 13 -27 43 -22 117 11 152 25 27 41 30
70 15z m137 -36 c52 -21 57 -91 11 -134 -25 -23 -88 -43 -123 -38 l-23 3 31
98 c34 107 28 103 104 71z m-102 -204 c3 -5 -1 -10 -10 -10 -9 0 -13 5 -10 10
3 6 8 10 10 10 2 0 7 -4 10 -10z"/>
<path d="M4920 9970 c-46 -8 -80 -27 -80 -44 0 -21 26 -26 47 -11 25 20 83 19
83 0 0 -9 6 -12 15 -9 8 4 15 1 15 -6 0 -6 -4 -8 -10 -5 -5 3 -20 -10 -32 -30
-13 -19 -30 -37 -39 -40 -9 -3 -24 -14 -34 -25 -14 -16 -15 -22 -5 -35 7 -8
17 -12 22 -9 15 10 114 -6 134 -21 18 -13 18 -15 -1 -51 -11 -20 -33 -46 -50
-56 -53 -32 -168 -18 -178 23 -6 21 -15 23 -36 10 -23 -15 3 -59 44 -77 99
-41 188 -21 244 57 56 77 33 138 -59 154 l-40 7 24 29 c27 32 41 79 31 108 -8
25 -51 39 -95 31z"/>
<path d="M3526 9911 c-6 -9 10 -147 19 -161 6 -9 -78 -40 -107 -40 -14 0 -19
-6 -16 -22 2 -19 8 -22 33 -20 17 1 47 9 68 17 29 12 38 12 41 3 3 -7 9 -28
15 -47 6 -19 11 -61 11 -93 0 -36 4 -57 10 -53 6 4 7 -1 3 -10 -4 -13 -1 -16
13 -13 25 4 29 80 8 159 -20 80 -19 89 14 89 33 0 57 14 48 28 -3 6 0 13 6 16
7 3 -12 3 -44 0 -36 -3 -59 -1 -63 6 -4 6 -10 41 -13 78 -5 51 -11 68 -24 70
-9 2 -19 -1 -22 -7z"/>
<path d="M2421 9754 c-84 -32 -127 -65 -141 -109 -23 -71 19 -115 110 -115 55
0 125 -27 140 -55 10 -19 10 -30 1 -53 -24 -57 -113 -122 -168 -122 -38 0 -49
-13 -27 -34 20 -21 32 -20 89 5 133 59 196 183 126 248 -33 31 -78 46 -164 57
-62 7 -73 17 -63 58 7 30 59 63 134 86 42 13 57 22 57 36 0 27 -22 27 -94 -2z"/>
<path d="M3075 9760 c-8 -13 4 -50 16 -50 5 0 9 5 9 11 0 5 4 8 9 5 11 -7 23
22 15 35 -7 12 -41 11 -49 -1z"/>
<path d="M2762 9635 c-21 -23 -33 -49 -37 -82 -4 -26 -9 -56 -12 -65 -2 -10 1
-18 8 -18 9 0 8 -4 -3 -12 -14 -12 -14 -23 -1 -112 21 -137 51 -220 82 -224
23 -4 24 -2 18 40 -3 24 -16 66 -28 94 -12 27 -23 74 -24 105 -3 52 -1 57 25
72 15 9 42 33 59 52 l30 35 15 -27 c8 -16 26 -39 40 -52 21 -19 28 -22 40 -12
13 11 10 19 -20 57 -50 67 -45 94 20 98 20 1 22 4 15 19 -8 14 -21 20 -49 19
-3 0 -15 -3 -27 -7 -17 -5 -23 -2 -23 9 0 21 -39 46 -71 46 -18 0 -37 -11 -57
-35z m72 -11 c35 -13 10 -94 -41 -134 l-27 -21 -8 20 c-4 12 -13 21 -19 21 -7
0 -9 3 -5 8 4 4 13 7 19 7 6 0 14 15 18 33 4 18 15 42 24 52 21 23 18 22 39
14z"/>
<path d="M3216 9618 c-33 -52 -32 -133 2 -126 16 3 18 11 21 68 1 34 20 13 41
-47 12 -35 22 -49 38 -51 12 -2 22 1 22 7 0 27 -55 143 -73 156 -28 20 -34 19
-51 -7z"/>
<path d="M3075 9520 c-3 -5 1 -25 10 -45 24 -58 58 -31 36 28 -10 27 -34 36
-46 17z"/>
<path d="M9802 11223 c1054 -2 2782 -2 3840 0 1058 1 195 2 -1917 2 -2112 0
-2977 -1 -1923 -2z"/>
<path d="M12859 11076 c-2 -2 -67 -6 -143 -9 -104 -5 -143 -10 -154 -21 -13
-12 -13 -18 -2 -31 8 -10 17 -12 24 -6 11 9 234 22 421 25 73 1 90 4 90 16 0
8 -13 18 -30 21 -32 7 -199 11 -206 5z"/>
<path d="M12690 10971 c-15 -29 -12 -69 5 -79 13 -7 15 -27 13 -117 l-3 -108
-105 -18 c-124 -21 -153 -33 -148 -57 4 -19 9 -19 93 1 93 23 165 31 165 18 0
-16 28 -13 37 3 6 11 37 17 103 22 96 7 132 22 106 43 -12 10 -72 9 -168 -4
-42 -6 -40 -10 -39 85 0 25 1 68 1 95 1 107 -31 169 -60 116z"/>
<path d="M10967 10869 c-28 -16 -20 -39 33 -87 32 -29 50 -53 50 -68 0 -31
-17 -39 -46 -23 -17 8 -28 9 -35 2 -27 -27 41 -74 80 -54 28 15 51 51 51 78 0
13 -18 42 -40 67 -22 24 -40 50 -40 59 0 23 -31 38 -53 26z"/>
<path d="M11439 10866 c-12 -6 -31 -26 -42 -43 -23 -40 -43 -171 -28 -186 19
-19 38 12 44 73 4 33 14 74 22 91 14 27 19 29 50 23 23 -4 35 -2 35 5 0 6 0
14 1 18 0 3 -13 12 -29 19 -23 9 -35 9 -53 0z"/>
<path d="M11207 10850 c-14 -11 -29 -29 -32 -40 -4 -11 -13 -20 -20 -20 -8 0
-16 -4 -19 -9 -9 -14 5 -42 17 -38 6 2 19 -10 28 -27 18 -34 84 -85 110 -86
39 0 24 52 -16 58 -23 3 -68 49 -63 64 2 6 26 18 53 27 56 19 68 42 33 64 -42
27 -63 28 -91 7z"/>
<path d="M8668 10844 c-49 -26 -30 -57 55 -88 27 -10 51 -25 54 -34 14 -36
-84 -71 -114 -41 -6 6 -16 8 -22 5 -19 -12 -12 -35 14 -52 33 -22 86 -13 131
21 27 20 34 33 34 59 0 38 -19 58 -75 82 -37 15 -39 17 -17 25 12 5 22 15 22
24 0 20 -46 19 -82 -1z"/>
<path d="M10700 10825 c0 -43 -19 -70 -144 -210 -21 -23 -35 -47 -32 -57 4
-17 -16 -18 -305 -18 -291 0 -309 1 -309 18 0 10 -4 22 -8 27 -5 6 -19 44 -31
85 -31 102 -41 121 -80 147 -72 49 -141 18 -141 -63 0 -35 6 -51 26 -71 24
-23 30 -25 88 -18 l64 6 12 -50 c7 -28 16 -54 21 -57 5 -3 9 -9 9 -15 0 -5
-386 -10 -997 -12 -549 -1 735 -2 2852 -2 3353 0 3526 1 1341 5 l-2509 5 44
55 c58 75 72 84 83 59 13 -27 54 -24 99 6 34 24 37 24 37 7 0 -37 62 -70 73
-39 2 6 -2 19 -9 27 -7 9 -16 31 -19 49 -11 63 -20 65 -78 16 -22 -19 -44 -35
-49 -35 -5 0 -7 35 -6 77 3 67 1 78 -14 81 -14 3 -18 -3 -18 -23z m-939 -41
c33 -17 52 -52 36 -69 -14 -15 -88 -10 -98 7 -12 19 -11 52 3 66 16 16 23 15
59 -4z"/>
<path d="M8404 10804 c-23 -34 -31 -119 -13 -140 13 -15 24 -15 91 1 22 6 27
4 30 -16 2 -16 11 -25 26 -27 25 -4 40 21 24 41 -6 6 -12 23 -14 37 -2 14 -11
26 -23 30 -12 3 -21 15 -23 30 -3 30 -39 70 -64 70 -9 0 -25 -12 -34 -26z m60
-60 c7 -27 -5 -44 -31 -44 -16 0 -17 52 -1 68 15 15 24 8 32 -24z"/>
<path d="M11877 10469 c-32 -19 -47 -65 -47 -147 0 -43 3 -82 6 -85 6 -6 8
-61 5 -108 -1 -11 -20 -18 -71 -26 -75 -12 -120 -34 -120 -58 0 -19 18 -19 63
0 47 19 117 20 117 1 0 -20 -30 -89 -48 -108 -8 -10 -26 -18 -39 -18 -16 0
-23 -6 -23 -20 0 -24 40 -36 69 -21 24 13 68 85 75 123 7 42 14 48 46 41 17
-3 30 -1 30 4 0 14 -23 40 -39 45 -10 3 -15 22 -16 59 -4 87 -15 200 -21 210
-3 5 -1 9 4 9 5 0 12 13 15 30 7 33 49 52 70 31 16 -16 47 -14 47 3 0 36 -81
59 -123 35z"/>
<path d="M10290 10415 c-10 -12 -9 -22 5 -52 14 -30 16 -51 11 -122 -4 -46
-12 -93 -17 -102 -5 -10 -9 -29 -9 -42 0 -22 -6 -26 -40 -32 -22 -4 -40 -10
-40 -15 0 -4 -7 -7 -16 -6 -22 1 -42 -30 -28 -44 7 -7 19 -6 40 5 30 16 74 20
74 8 0 -5 -5 -25 -11 -47 -8 -27 -8 -41 0 -49 18 -18 41 15 49 68 7 48 7 49
57 62 28 7 55 11 60 9 6 -1 10 -25 10 -52 l0 -49 38 -3 c50 -4 119 33 115 63
-2 14 -14 23 -40 29 -33 8 -37 12 -32 33 4 16 1 25 -11 29 -18 7 -135 -8 -168
-21 -14 -6 -17 -2 -14 22 2 16 7 35 11 42 15 24 18 224 4 250 -16 31 -32 36
-48 16z m212 -417 c-17 -8 -26 -8 -34 0 -9 9 -4 12 23 11 32 0 33 -1 11 -11z"/>
<path d="M8984 10303 c3 -27 9 -83 12 -125 l6 -77 -34 -6 c-18 -4 -38 -6 -43
-5 -24 5 -35 -1 -35 -20 0 -21 7 -23 78 -20 l43 2 -1 -59 c-2 -83 -2 -85 18
-81 14 3 18 17 22 73 5 68 6 70 35 75 23 4 30 11 31 30 2 34 -5 50 -22 50 -17
0 -19 -27 -1 -33 6 -3 -1 -4 -18 -3 l-30 1 -8 100 c-8 111 -18 145 -43 145
-14 0 -16 -8 -10 -47z"/>
<path d="M12870 10241 c0 -10 19 -36 43 -58 38 -36 42 -44 45 -95 3 -41 -2
-66 -17 -96 -18 -36 -19 -41 -5 -53 13 -11 19 -9 35 11 l19 25 36 -39 c34 -34
41 -38 76 -33 44 6 100 38 79 45 -11 4 -11 6 0 14 16 11 -16 6 -68 -10 -29 -9
-34 -7 -70 33 -31 34 -37 49 -35 75 5 49 -23 112 -70 159 -45 44 -68 52 -68
22z"/>
<path d="M12496 10214 c-8 -22 7 -39 38 -42 33 -2 42 15 20 39 -21 23 -50 25
-58 3z"/>
<path d="M8117 10198 c-15 -11 -27 -27 -27 -36 0 -13 -2 -14 -9 -4 -6 10 -16
6 -40 -18 -35 -35 -40 -65 -13 -79 23 -12 45 1 36 22 -6 16 16 47 34 47 5 0
15 7 22 15 7 8 16 15 21 15 12 0 12 -53 0 -65 -5 -6 -19 -41 -30 -79 -19 -61
-20 -72 -7 -84 12 -13 21 -11 68 16 l53 30 28 -24 c32 -28 69 -31 91 -8 25 25
24 49 -5 112 -20 44 -35 53 -46 26 -6 -15 -2 -29 22 -86 10 -26 -27 -24 -50 2
-22 24 -46 25 -86 4 -30 -15 -31 -15 -23 8 4 13 7 31 6 41 0 9 3 17 7 17 10 0
34 101 29 126 -5 26 -47 27 -81 2z"/>
<path d="M12037 10204 c-4 -4 -7 -16 -7 -26 0 -13 8 -18 31 -18 26 0 30 3 27
23 -3 22 -36 36 -51 21z"/>
<path d="M12697 10137 c-46 -39 -47 -64 -5 -99 36 -29 33 -42 -10 -43 -33 0
-42 -29 -13 -45 16 -8 29 -6 60 9 21 11 41 26 43 33 8 21 -9 56 -37 74 l-26
17 27 28 c16 17 24 34 21 43 -9 22 -17 20 -60 -17z"/>
<path d="M8486 10119 c-23 -18 -56 -77 -56 -100 0 -5 11 -16 24 -24 18 -12 29
-13 52 -5 21 9 30 8 33 -1 7 -23 41 -48 56 -43 19 8 19 28 0 44 -8 7 -15 23
-15 36 0 33 -16 38 -56 19 -43 -20 -52 -14 -30 20 21 31 58 33 86 3 14 -16 23
-19 31 -11 18 18 -1 54 -37 69 -45 19 -57 18 -88 -7z"/>
<path d="M12203 10068 c-13 -6 -39 -35 -60 -65 -34 -49 -35 -55 -21 -70 15
-14 18 -12 41 23 54 86 84 91 96 17 8 -46 34 -52 39 -9 5 40 -5 73 -28 96 -22
22 -35 24 -67 8z"/>
<path d="M8681 10026 c-25 -26 -31 -39 -26 -56 8 -26 35 -23 50 5 25 49 27 50
55 15 18 -23 32 -31 44 -27 22 9 20 17 -15 60 -38 46 -65 47 -108 3z m33 6 c3
-5 -1 -9 -9 -9 -8 0 -12 4 -9 9 3 4 7 8 9 8 2 0 6 -4 9 -8z"/>
<path d="M12458 10048 c-7 -21 27 -103 42 -103 21 0 24 37 6 79 -15 35 -40 48
-48 24z"/>
<path d="M11981 10006 c-18 -21 11 -86 38 -86 22 0 27 19 12 48 -5 9 -12 25
-15 35 -7 21 -19 22 -35 3z"/>
<path d="M9797 9843 c1057 -2 2789 -2 3850 0 1060 1 196 2 -1922 2 -2117 0
-2985 -1 -1928 -2z"/>
<path d="M11575 9673 c-8 -79 -18 -245 -19 -322 -1 -41 3 -56 17 -65 14 -8 20
-8 27 4 5 8 6 18 3 24 -6 10 -6 37 5 213 5 73 4 109 -3 105 -5 -3 -5 1 1 9 30
38 26 99 -6 99 -14 0 -19 -13 -25 -67z"/>
<path d="M8645 9690 c3 -5 1 -10 -5 -10 -6 0 -8 -5 -4 -12 4 -7 3 -8 -4 -4 -7
4 -25 -20 -48 -66 -20 -40 -38 -74 -39 -76 -2 -2 -15 4 -30 14 -25 16 -27 16
-53 -3 -58 -42 -81 -151 -46 -218 15 -29 14 -32 -18 -92 l-33 -63 -240 -2
-240 -3 236 -2 236 -3 -23 -66 c-28 -77 -30 -100 -7 -108 23 -9 35 6 38 46 1
18 11 54 23 81 l21 47 724 0 c632 0 726 -2 737 -15 16 -19 37 -19 47 0 8 13
336 15 2828 18 l2820 2 -2827 3 c-2533 2 -2828 4 -2828 17 0 9 11 38 25 64 21
43 29 50 62 56 55 9 134 55 159 93 19 28 21 38 12 63 -11 32 -60 69 -90 69
-29 0 -27 13 8 83 19 38 32 73 29 78 -15 23 -38 4 -66 -54 -27 -55 -35 -63
-55 -59 -24 4 -84 -31 -84 -50 0 -6 -7 -16 -16 -22 -34 -25 -33 -156 1 -182
14 -11 17 -54 3 -54 -4 0 -15 -22 -25 -50 l-18 -50 -717 0 c-395 0 -718 2
-718 5 0 18 52 103 62 102 33 -3 116 17 144 34 38 23 68 65 60 85 -3 8 -1 14
3 14 5 0 7 9 4 20 -7 25 -64 71 -91 73 -18 1 -17 5 11 67 17 36 39 75 50 87
21 24 17 53 -8 53 -9 0 -13 -4 -10 -10z m-127 -216 c1 -1 -11 -30 -27 -64 -17
-35 -28 -68 -25 -74 3 -6 -2 -2 -10 8 -22 27 -20 85 4 124 18 30 23 32 38 21
9 -7 18 -14 20 -15z m1467 9 c-4 -10 -17 -46 -29 -80 -23 -68 -30 -75 -40 -40
-11 43 -6 84 15 111 24 30 66 37 54 9z m115 -18 c18 -9 30 -24 30 -35 0 -23
-49 -61 -109 -84 -46 -18 -61 -15 -43 6 6 7 20 39 32 71 24 63 37 69 90 42z
m-1467 -33 c25 -22 21 -44 -12 -76 -27 -26 -107 -53 -119 -41 -3 3 9 37 28 75
31 64 36 69 59 63 14 -3 34 -13 44 -21z"/>
<path d="M12411 9681 c-6 -11 -9 -55 -7 -104 4 -78 3 -84 -13 -80 -10 2 -37 0
-60 -7 -30 -8 -41 -16 -41 -30 0 -24 17 -35 34 -21 7 6 33 14 57 17 l44 6 -2
-56 c-2 -44 1 -58 13 -63 25 -9 35 18 29 76 l-5 54 70 -5 c39 -3 73 -8 76 -10
3 -3 -5 -22 -17 -43 -21 -35 -21 -38 -6 -70 24 -49 73 -55 145 -18 31 16 62
39 69 50 12 17 11 23 -7 46 -28 35 -88 47 -106 22 -18 -25 -9 -35 31 -35 52 0
50 -16 -6 -44 -39 -19 -56 -23 -70 -15 -24 12 -24 27 1 64 11 17 20 38 20 47
0 20 -35 42 -56 34 -8 -3 -14 -1 -14 4 0 6 -29 10 -64 10 -36 0 -68 5 -71 11
-4 6 -8 47 -9 92 -2 82 -15 107 -35 68z"/>
<path d="M8948 9664 c-4 -3 -4 -29 -1 -57 4 -37 -1 -72 -15 -119 -38 -123 -36
-237 5 -252 25 -10 37 8 23 35 -18 32 -13 116 10 190 28 93 28 201 0 207 -9 1
-19 0 -22 -4z"/>
<path d="M10394 9629 c-36 -10 -59 -33 -49 -49 8 -13 42 -13 50 0 3 6 22 10
41 10 l35 0 -16 -30 c-8 -16 -33 -44 -55 -61 -46 -37 -50 -53 -17 -70 12 -7
39 -27 60 -45 20 -19 43 -34 50 -34 27 -1 -60 -39 -91 -40 -23 0 -31 -4 -26
-12 4 -7 -7 -2 -24 11 -34 24 -52 21 -52 -9 0 -23 5 -26 54 -35 29 -6 37 -5
31 4 -5 10 -2 9 13 0 17 -11 29 -8 78 17 48 23 60 34 62 56 3 22 -4 32 -35 51
-21 14 -47 34 -58 47 -18 20 -18 23 -4 34 27 19 69 87 69 111 0 44 -50 63
-116 44z"/>
<path d="M13155 9527 c-31 -27 -43 -87 -25 -122 19 -36 78 -55 174 -55 96 0
149 14 144 39 -2 9 -12 15 -23 14 -11 -1 -49 -4 -84 -7 -101 -8 -193 11 -131
27 12 3 20 14 20 26 0 12 5 21 10 21 6 0 10 -7 10 -15 0 -22 16 -18 34 7 26
36 -3 68 -71 81 -25 5 -38 1 -58 -16z m80 -37 c3 -6 -5 -14 -18 -19 -14 -6
-28 -15 -32 -21 -10 -16 -25 -2 -18 18 11 30 54 44 68 22z"/>
<path d="M12942 9529 c-30 -11 -42 -41 -41 -96 1 -66 12 -97 33 -101 17 -4 18
1 13 48 -3 28 -3 65 0 82 6 28 8 30 43 24 43 -7 53 0 40 24 -11 20 -58 30 -88
19z"/>
<path d="M11814 9501 c-85 -52 -112 -154 -47 -179 40 -16 126 -24 142 -13 8 5
11 16 8 25 -5 12 -20 16 -57 16 -50 0 -90 13 -90 29 0 4 25 11 56 14 71 7 104
28 104 66 0 56 -58 78 -116 42z m69 -47 c-3 -8 -19 -14 -42 -14 l-36 0 29 19
c31 21 58 18 49 -5z"/>
<path d="M12080 9469 c-75 -31 -93 -98 -39 -143 45 -38 150 -34 137 5 -3 9
-17 13 -42 11 -40 -4 -86 19 -86 43 0 34 81 60 107 34 6 -6 16 -8 22 -5 13 8
15 42 3 50 -18 11 -79 14 -102 5z"/>
<path d="M9395 9458 c-16 -6 -33 -16 -37 -22 -5 -7 -8 -6 -8 4 0 12 -3 12 -16
-2 -33 -33 -2 -41 76 -22 14 4 37 7 52 8 34 1 44 12 28 31 -14 17 -51 18 -95
3z"/>
<path d="M9709 8998 c-5 -14 -16 -162 -18 -225 -1 -34 -5 -43 -23 -49 -34 -10
-48 -24 -41 -40 4 -11 14 -13 33 -9 26 6 28 4 34 -38 4 -25 4 -57 0 -72 -6
-24 -4 -26 17 -23 22 3 24 8 27 68 3 70 13 83 49 69 41 -15 75 -11 71 9 -2 11
-17 20 -43 26 -83 17 -80 13 -77 112 2 49 4 107 5 129 2 31 -2 40 -15 43 -10
2 -18 2 -19 0z"/>
<path d="M10816 8931 c-3 -5 1 -36 9 -68 9 -32 18 -121 22 -198 7 -169 12
-189 43 -193 21 -3 22 -1 17 30 -14 73 -26 124 -32 141 -4 10 -3 17 4 17 22 0
5 194 -22 249 -13 27 -32 37 -41 22z"/>
<path d="M10344 8806 c-6 -15 23 -66 37 -66 15 0 22 49 9 65 -16 19 -39 19
-46 1z"/>
<path d="M8983 8783 c-16 -6 -17 -40 -2 -45 7 -2 5 -27 -6 -76 -18 -76 -15
-102 9 -102 17 0 56 59 56 84 0 19 29 15 65 -10 30 -21 45 -17 80 24 l33 37 7
-40 c13 -81 15 -85 38 -85 34 0 71 29 57 45 -6 7 -20 11 -30 8 -17 -5 -20 0
-20 29 0 42 -24 78 -53 78 -11 0 -35 -14 -53 -31 l-32 -31 -47 25 c-36 18 -51
32 -59 57 -11 34 -22 42 -43 33z"/>
<path d="M10131 8731 c-20 -16 -25 -29 -29 -95 -4 -72 -4 -76 17 -76 18 0 21
6 21 48 0 66 18 98 53 94 21 -3 27 1 27 16 0 35 -51 43 -89 13z"/>
<path d="M12345 8738 c-11 -6 -32 -22 -47 -36 -15 -14 -31 -23 -34 -19 -14 14
-34 -16 -34 -50 0 -44 27 -57 49 -22 9 13 30 40 48 59 l31 35 11 -25 c6 -14
17 -42 25 -63 11 -28 21 -38 33 -35 10 2 17 10 16 18 -3 26 -39 118 -52 134
-16 19 -19 19 -46 4z"/>
<path d="M9923 8718 c-21 -26 -43 -78 -43 -100 0 -13 7 -34 16 -47 20 -28 76
-53 99 -45 22 9 15 38 -10 42 -55 10 -73 68 -29 96 17 12 24 25 22 39 -3 25
-39 35 -55 15z m-13 -102 c0 -3 -4 -8 -10 -11 -5 -3 -10 -1 -10 4 0 6 5 11 10
11 6 0 10 -2 10 -4z"/>
<path d="M12043 8708 c-47 -52 -58 -121 -25 -151 37 -34 135 -12 168 38 25 38
10 72 -46 106 -56 34 -71 35 -97 7z m107 -34 c0 -8 -5 -12 -10 -9 -6 4 -8 11
-5 16 9 14 15 11 15 -7z m-3 -24 c2 0 3 -10 1 -22 -2 -16 -14 -27 -40 -35 -64
-21 -83 -1 -53 58 15 29 16 29 51 14 20 -8 38 -15 41 -15z"/>
<path d="M9401 8675 c-38 -43 -40 -79 -7 -100 19 -13 32 -14 60 -6 32 8 36 7
36 -9 0 -22 26 -50 46 -50 23 0 30 31 10 42 -14 8 -16 18 -11 47 5 28 2 41
-10 51 -13 11 -19 9 -40 -14 -14 -15 -35 -26 -51 -26 -25 0 -26 1 -12 23 9 12
24 24 34 26 49 9 52 51 4 51 -19 0 -37 -11 -59 -35z"/>
<path d="M10536 8679 c-31 -24 -34 -64 -7 -79 14 -7 31 -6 61 5 24 8 43 15 44
15 1 0 0 -15 -2 -34 -3 -28 2 -40 22 -61 22 -22 30 -25 42 -14 13 10 13 14 -1
29 -9 10 -15 35 -15 62 0 48 -18 75 -44 65 -8 -3 -16 2 -19 14 -7 26 -47 25
-81 -2z"/>
<path d="M10354 8665 c-8 -34 3 -90 22 -106 24 -20 32 1 27 69 -5 52 -8 62
-24 62 -12 0 -21 -10 -25 -25z"/>
<path d="M12042 8428 c-7 -7 -12 -17 -12 -24 0 -7 -17 -12 -42 -12 -49 -1
-116 -42 -136 -85 -12 -24 -11 -31 7 -61 31 -49 187 -169 232 -178 8 -2 16 -6
19 -9 3 -3 38 -23 78 -44 110 -56 109 -85 -3 -85 -80 0 -257 25 -324 45 -57
18 -79 11 -67 -20 4 -12 14 -16 31 -13 13 3 22 2 20 -3 -12 -18 324 -66 385
-54 81 16 109 55 73 103 -10 14 -71 53 -134 87 -183 97 -279 171 -279 214 0
16 72 61 97 61 18 0 23 -6 23 -25 0 -26 31 -65 53 -65 22 0 57 31 57 51 0 10
-10 29 -22 42 -14 13 -23 34 -23 51 0 32 -14 43 -33 24z"/>
<path d="M11600 8399 c-41 -5 -121 -11 -177 -12 -56 -2 -105 -6 -109 -10 -15
-15 20 -37 58 -37 35 0 46 -7 101 -62 73 -74 93 -98 102 -127 3 -12 11 -19 16
-16 5 4 9 3 10 -2 4 -58 9 -78 20 -87 9 -7 14 -31 14 -64 0 -67 -20 -86 -80
-76 -103 17 -200 76 -207 127 -4 26 -36 35 -44 12 -27 -70 145 -184 279 -185
57 0 97 43 97 104 0 80 -70 228 -151 320 l-33 38 32 -5 c28 -5 33 -2 38 19 3
13 11 24 16 24 6 0 7 -11 4 -25 -7 -29 -10 -29 74 -11 136 29 152 35 148 59
-3 20 -9 22 -68 23 -36 1 -99 -2 -140 -7z"/>
<path d="M8508 8298 c-1 -7 -2 -89 -2 -183 -1 -101 -5 -177 -12 -188 -9 -15
-19 -3 -75 83 -35 55 -77 124 -93 153 -15 29 -32 54 -37 55 -5 2 -7 7 -4 12 5
9 -50 60 -65 60 -16 0 -22 -21 -16 -56 6 -28 11 -34 31 -34 14 0 25 -4 25 -8
0 -5 8 -17 18 -28 9 -11 28 -42 42 -69 28 -57 153 -250 167 -258 38 -24 62 87
64 298 2 167 1 170 -20 173 -12 2 -22 -2 -23 -10z"/>
<path d="M13383 8295 c-3 -9 7 -44 23 -78 23 -51 29 -81 34 -165 6 -116 7
-118 86 -128 75 -9 97 -3 108 29 22 61 -56 107 -122 73 -28 -15 -30 -14 -25 4
8 31 -15 146 -44 216 -26 62 -47 80 -60 49z m206 -309 c17 -21 0 -27 -50 -17
l-44 8 35 11 c47 14 46 14 59 -2z"/>
<path d="M9687 8276 c-3 -8 -3 -36 -1 -63 3 -26 6 -59 6 -73 0 -14 9 -65 20
-113 21 -95 52 -145 81 -134 20 8 23 47 4 47 -14 0 -37 40 -37 65 0 8 -3 15
-7 15 -5 0 -9 26 -11 57 -1 32 -9 69 -16 84 -9 17 -10 31 -4 37 16 16 5 86
-13 90 -9 2 -19 -4 -22 -12z"/>
<path d="M9530 8181 c0 -67 3 -80 18 -84 16 -4 16 -5 0 -6 -15 -1 -18 -11 -19
-53 -1 -29 -3 -67 -5 -83 -5 -42 9 -89 28 -93 23 -4 53 45 38 63 -7 8 -9 19
-6 24 4 5 2 13 -4 16 -7 4 -10 56 -9 136 1 103 -2 132 -14 144 -9 8 -18 15
-21 15 -3 0 -6 -36 -6 -79z"/>
<path d="M9270 8150 c0 -13 7 -20 20 -20 13 0 20 7 20 20 0 13 -7 20 -20 20
-13 0 -20 -7 -20 -20z"/>
<path d="M8722 8070 c-44 -32 -62 -57 -62 -88 0 -30 29 -35 67 -12 19 11 38
20 43 20 5 0 15 -18 21 -41 18 -58 61 -101 96 -97 18 2 29 10 31 22 3 13 0 17
-11 13 -21 -8 -60 38 -81 95 -19 52 -39 74 -57 62 -8 -4 -9 -3 -5 4 4 7 17 9
31 6 27 -7 42 11 25 31 -19 23 -53 18 -98 -15z"/>
<path d="M10055 8048 c-35 -19 -85 -71 -85 -89 0 -34 26 -42 69 -20 56 29 83
28 75 -2 -5 -21 1 -27 45 -45 62 -27 91 -28 91 -4 0 13 -12 22 -40 31 -22 6
-41 17 -41 24 -1 7 -3 19 -4 27 -1 8 -3 23 -4 33 -3 44 -62 70 -106 45z"/>
<path d="M13884 8035 c-3 -14 -19 -32 -34 -40 -25 -13 -29 -12 -44 4 -9 10
-16 25 -16 34 0 10 -8 17 -20 17 -15 0 -20 -7 -20 -28 0 -31 36 -72 63 -72 9
0 19 -4 22 -10 6 -9 -40 -99 -74 -147 l-16 -22 -2930 -3 -2930 -3 2927 -2
2927 -3 -11 -30 c-11 -32 -5 -60 12 -60 11 0 36 58 32 73 -1 4 -1 8 1 9 1 2
405 5 897 8 l895 5 -883 3 -884 2 20 33 c56 93 123 230 118 243 -9 24 -45 17
-52 -11z m-10 -100 c-4 -8 -10 -12 -15 -9 -11 6 -2 24 11 24 5 0 7 -7 4 -15z"/>
<path d="M9002 8003 c-36 -26 -52 -45 -52 -61 0 -30 29 -41 46 -16 24 35 59
64 73 62 8 -2 20 -21 28 -43 17 -50 39 -73 54 -58 7 7 5 26 -9 66 -34 100 -58
109 -140 50z"/>
<path d="M9314 7970 c-5 -5 -7 -31 -4 -57 4 -40 9 -48 25 -48 18 0 20 5 16 50
-4 66 -13 79 -37 55z"/>
<path d="M12964 7706 c-3 -8 -1 -31 5 -52 5 -22 12 -63 16 -91 l7 -53 -66 0
c-59 0 -66 -2 -66 -20 0 -18 7 -20 74 -20 69 0 74 -2 80 -23 10 -40 66 -157
75 -157 5 0 13 6 19 13 7 8 0 34 -24 87 l-33 75 97 7 c53 4 126 9 163 11 70 4
89 10 89 32 0 11 -20 13 -112 9 -62 -3 -139 -9 -170 -13 -32 -4 -62 -4 -69 -1
-11 7 -23 55 -35 134 -9 65 -36 98 -50 62z"/>
<path d="M10352 7660 c-36 -22 -58 -63 -68 -130 -4 -23 -13 -44 -20 -47 -15
-6 -19 -39 -5 -47 4 -3 12 -29 15 -58 13 -95 72 -189 110 -175 23 9 20 44 -4
50 -25 6 -59 80 -60 126 0 33 0 33 38 26 20 -3 48 -9 61 -12 19 -5 22 -3 16 8
-6 11 -5 12 6 2 17 -17 29 -16 29 0 0 18 -36 34 -94 42 -26 4 -50 13 -53 21
-2 7 1 38 7 69 11 52 19 66 65 103 16 14 16 33 -1 39 -5 2 -24 -6 -42 -17z"/>
<path d="M12332 7578 c2 -21 9 -34 19 -36 22 -4 32 36 14 54 -23 24 -36 16
-33 -18z"/>
<path d="M9215 7570 c-3 -6 10 -37 31 -70 48 -78 54 -132 22 -180 -25 -37 -82
-80 -105 -80 -37 0 -26 76 13 90 29 11 30 43 0 48 -46 9 -98 -86 -76 -139 43
-104 234 16 232 145 -1 52 -14 86 -54 149 -29 45 -50 58 -63 37z"/>
<path d="M11994 7491 c-47 -29 -73 -105 -68 -201 4 -87 14 -177 21 -197 4 -11
-332 -13 -2033 -15 -1122 -2 -1723 -4 -1336 -5 386 -2 702 -5 702 -8 0 -3 -18
-53 -40 -112 -23 -60 -43 -114 -45 -121 -4 -10 -13 -9 -42 4 -21 9 -58 22 -81
30 -41 13 -44 12 -49 -6 -3 -10 -15 -26 -28 -34 -32 -21 -75 -112 -75 -158 0
-48 24 -108 44 -108 8 0 16 -5 18 -11 2 -6 20 -14 40 -18 l36 -6 -31 -67 -31
-68 -561 -2 -560 -3 558 -2 c525 -3 558 -4 553 -21 -18 -59 -18 -72 -1 -78 20
-8 37 13 31 39 -2 9 -1 17 4 17 4 0 10 9 13 20 5 20 14 20 1441 20 l1436 0 0
-22 c0 -13 4 -29 9 -37 11 -16 43 -7 40 11 -1 7 -1 21 0 30 1 17 96 18 1809
21 l1807 2 -1807 3 -1808 2 0 27 c0 15 10 57 22 94 l21 67 51 4 c68 6 125 34
132 65 9 35 -13 69 -72 117 -58 46 -59 51 -23 155 19 56 18 71 -6 71 -18 0
-47 -63 -49 -107 -1 -17 -9 -40 -19 -51 -18 -19 -24 -47 -8 -38 5 3 -1 -31
-12 -76 l-20 -81 -24 27 c-30 35 -31 93 -2 130 17 22 19 29 8 42 -10 13 -15
12 -35 -7 -54 -51 -52 -145 6 -204 l32 -33 -16 -46 c-9 -26 -19 -68 -22 -93
-3 -26 -7 -50 -10 -55 -3 -4 -294 -8 -647 -8 -563 1 -639 3 -616 15 68 37 92
147 48 224 l-23 41 23 24 c13 13 43 35 67 47 48 26 62 46 38 56 -22 8 -75 -19
-122 -62 l-40 -35 -26 31 c-33 39 -33 52 1 79 20 15 34 19 56 14 25 -5 28 -4
25 17 -6 40 -31 46 -83 20 -79 -39 -89 -99 -28 -163 l26 -27 -25 -38 c-48 -73
-57 -90 -63 -125 -8 -43 15 -95 48 -108 14 -5 -54 -9 -183 -9 l-205 -1 54 48
c57 50 88 72 77 54 -8 -13 81 -92 105 -92 28 0 32 18 8 37 -13 10 -41 34 -63
54 l-40 36 27 59 c51 115 64 204 36 257 -14 25 -58 21 -103 -11 -49 -34 -65
-57 -49 -73 8 -8 24 -1 59 26 42 33 49 35 60 21 13 -19 5 -72 -25 -160 -25
-71 -37 -86 -66 -86 -39 0 -125 -121 -111 -156 5 -12 -72 -14 -549 -14 -374 0
-555 3 -555 10 0 6 14 37 30 70 27 53 37 63 90 90 33 17 60 35 60 41 0 5 4 8
9 4 16 -10 71 67 71 100 0 37 -8 49 -47 78 l-31 23 40 104 c22 58 42 117 45
133 l5 27 1318 0 c1162 0 1319 -2 1324 -15 7 -19 33 -19 43 0 8 13 220 15
1783 18 l1775 2 -1776 3 -1776 2 -7 99 c-3 55 -10 111 -15 124 -8 22 -5 26 30
41 62 27 87 96 53 144 -19 27 -39 28 -80 3z m53 -47 c5 -15 -36 -64 -53 -64
-17 0 -18 14 -3 43 19 36 48 46 56 21z m-2884 -664 c4 -4 -1 -28 -12 -53 -11
-26 -21 -51 -22 -55 -1 -4 -11 -26 -21 -49 -13 -31 -26 -43 -46 -48 -70 -15
-114 44 -92 124 12 45 53 99 84 111 19 7 88 -12 109 -30z m84 -42 c29 -27 29
-39 -2 -76 -13 -16 -21 -33 -17 -37 4 -5 0 -6 -9 -2 -9 3 -30 -3 -47 -13 l-31
-19 30 69 c16 38 29 76 29 84 0 22 20 20 47 -6z m2890 -81 c-5 -14 -105 -43
-114 -33 -2 2 4 34 13 71 l17 67 45 -45 c28 -28 43 -51 39 -60z m-1466 -78
c14 -52 8 -85 -21 -117 -24 -26 -65 -29 -74 -6 -16 41 -8 70 41 148 28 44 37
40 54 -25z"/>
<path d="M12146 7458 c-21 -30 -20 -53 4 -104 23 -47 43 -60 60 -39 9 11 7 20
-9 41 -22 28 -28 78 -11 89 13 8 1 35 -16 35 -7 0 -20 -10 -28 -22z"/>
<path d="M11605 7451 c-47 -12 -105 -42 -115 -60 -15 -30 6 -45 106 -76 54
-17 99 -35 101 -41 2 -6 -13 -15 -34 -20 -68 -17 -48 -53 23 -40 38 8 74 37
74 60 0 24 -53 54 -141 80 l-84 24 37 15 c36 15 74 22 112 19 13 -2 17 -8 13
-21 -6 -26 6 -43 26 -35 11 4 17 18 17 39 0 28 -6 36 -32 49 -33 17 -55 18
-103 7z m25 -15 c0 -2 -7 -7 -16 -10 -8 -3 -12 -2 -9 4 6 10 25 14 25 6z"/>
<path d="M12554 7439 c-28 -14 -51 -56 -56 -99 -2 -29 0 -35 16 -35 14 0 22
10 29 35 17 67 29 69 89 10 75 -74 92 -84 118 -70 25 14 22 32 -8 40 -12 3
-50 33 -86 68 -69 66 -70 66 -102 51z"/>
<path d="M8663 7415 c-95 -75 -74 -235 31 -235 50 0 113 17 122 32 4 7 3 8 -4
4 -7 -4 -12 -1 -12 10 0 13 -6 15 -27 10 -100 -23 -122 -17 -126 37 -2 21 8
30 63 59 69 36 85 62 55 92 -24 23 -65 20 -102 -9z m53 -30 c-11 -8 -25 -15
-30 -15 -6 0 -2 7 8 15 11 8 25 15 30 15 6 0 2 -7 -8 -15z"/>
<path d="M12340 7401 c0 -46 17 -83 38 -79 23 5 21 62 -4 89 -24 27 -34 24
-34 -10z"/>
<path d="M8942 7401 c-6 -4 -13 -16 -15 -26 -5 -25 -24 -74 -37 -97 -32 -55
12 -65 54 -12 l29 36 13 -30 c16 -38 47 -57 63 -38 8 10 8 16 -4 26 -9 7 -15
29 -15 51 0 42 -22 71 -47 62 -10 -4 -14 -2 -10 4 9 14 -16 34 -31 24z"/>
<path d="M10110 7288 c-11 -4 -20 -13 -20 -20 0 -19 28 -56 51 -68 38 -21 87
29 75 75 -5 21 -12 24 -46 22 -21 -1 -48 -5 -60 -9z"/>
<path d="M9497 6956 c-27 -7 -56 -21 -65 -30 -15 -15 -15 -17 1 -33 15 -15 18
-15 34 -1 20 17 122 43 143 36 21 -7 -41 -69 -114 -113 -92 -56 -86 -85 20
-85 40 0 74 -22 74 -48 0 -18 -39 -39 -107 -58 -59 -16 -64 -16 -81 -1 -28 25
-44 21 -40 -10 4 -39 42 -50 115 -35 75 16 142 49 156 79 8 18 7 31 -6 58 -13
27 -26 37 -62 48 l-47 13 42 29 c83 58 120 121 88 153 -15 15 -89 14 -151 -2z"/>
<path d="M12795 6905 c-43 -25 -101 -64 -127 -86 -50 -42 -68 -43 -68 -4 0 23
29 42 56 37 18 -4 24 25 9 38 -20 17 -61 5 -92 -26 -20 -20 -24 -32 -19 -57 3
-17 14 -39 22 -49 14 -15 15 -20 3 -35 -9 -11 -10 -14 -1 -9 6 4 12 3 12 -1 0
-5 -9 -14 -19 -20 -26 -16 -37 -90 -21 -137 14 -42 57 -82 101 -91 45 -10 116
13 156 51 34 32 35 36 31 86 -5 44 -11 57 -41 83 -19 17 -58 39 -86 49 -50 17
-51 19 -35 37 18 20 115 83 184 120 45 24 59 51 30 57 -8 1 -51 -18 -95 -43z
m-65 -228 c81 -40 90 -111 20 -148 -84 -46 -160 -10 -160 76 0 25 7 60 16 77
14 27 19 29 47 24 18 -4 52 -16 77 -29z"/>
<path d="M12367 6928 c-2 -7 -5 -61 -6 -118 -1 -58 -4 -151 -7 -207 -5 -78 -3
-103 6 -103 9 0 9 -4 2 -12 -14 -17 -3 -68 14 -68 23 0 29 4 27 20 -2 8 -2 74
-1 145 4 351 4 349 -13 353 -9 2 -19 -3 -22 -10z"/>
<path d="M11525 6919 c-60 -18 -87 -59 -62 -94 16 -21 37 -13 37 15 0 23 21
36 73 45 95 18 114 -25 46 -105 -23 -27 -38 -53 -34 -59 3 -7 0 -8 -9 -5 -8 3
-30 -6 -49 -20 -19 -14 -39 -26 -46 -26 -27 0 -71 -44 -71 -72 0 -37 17 -36
73 7 36 28 51 34 64 26 25 -13 47 -43 51 -66 11 -63 48 -105 66 -76 9 15 -52
155 -74 170 -23 16 -26 31 -6 31 17 0 102 99 116 135 15 39 13 53 -15 80 -20
21 -33 25 -77 24 -29 0 -66 -5 -83 -10z"/>
<path d="M9695 6530 c-10 -16 5 -71 22 -77 23 -9 33 17 19 51 -13 32 -30 43
-41 26z"/>
<path d="M10867 6454 c-4 -4 -7 -16 -7 -26 0 -15 6 -19 28 -16 19 2 27 9 27
23 0 20 -33 33 -48 19z"/>
<path d="M9797 5693 c1058 -2 2788 -2 3845 0 1058 1 193 2 -1922 2 -2115 0
-2980 -1 -1923 -2z"/>
<path d="M9802 5003 c1054 -2 2782 -2 3840 0 1058 1 195 2 -1917 2 -2112 0
-2977 -1 -1923 -2z"/>
<path d="M9802 3613 c1054 -2 2782 -2 3840 0 1058 1 195 2 -1917 2 -2112 0
-2977 -1 -1923 -2z"/>
<path d="M9797 2923 c1058 -2 2788 -2 3845 0 1058 1 193 2 -1922 2 -2115 0
-2980 -1 -1923 -2z"/>
<path d="M9797 2233 c1057 -2 2789 -2 3850 0 1060 1 196 2 -1922 2 -2117 0
-2985 -1 -1928 -2z"/>
<path d="M9797 1543 c1058 -2 2788 -2 3845 0 1058 1 193 2 -1922 2 -2115 0
-2980 -1 -1923 -2z"/>
<path d="M9802 853 c1054 -2 2782 -2 3840 0 1058 1 195 2 -1917 2 -2112 0
-2977 -1 -1923 -2z"/>
</g>
</svg>
