<?xml version="1.0" standalone="no"?>
<!DOCTYPE svg PUBLIC "-//W3C//DTD SVG 20010904//EN"
 "http://www.w3.org/TR/2001/REC-SVG-20010904/DTD/svg10.dtd">
<svg version="1.0" xmlns="http://www.w3.org/2000/svg"
 width="1618.000000pt" height="1214.000000pt" viewBox="0 0 1618.000000 1214.000000"
 preserveAspectRatio="xMidYMid meet">

<g transform="translate(0.000000,1214.000000) scale(0.100000,-0.100000)"
fill="#000000" stroke="none">
<path d="M630 6040 l0 -5190 3310 0 3310 0 0 5190 0 5190 -3310 0 -3310 0 0
-5190z m6610 0 l0 -5180 -3300 0 -3300 0 0 5180 0 5180 3300 0 3300 0 0 -5180z"/>
<path d="M2660 10825 c-47 -13 -110 -34 -140 -47 -30 -14 -67 -28 -82 -32 -19
-4 -28 -13 -28 -26 0 -28 29 -26 110 10 74 32 84 35 75 20 -3 -5 -1 -19 6 -32
6 -12 15 -87 19 -166 7 -112 12 -148 25 -161 14 -14 17 -14 25 -1 6 8 8 26 5
40 -2 14 -7 77 -10 140 -7 126 -18 175 -43 190 -15 8 -14 9 6 10 12 0 22 5 22
11 0 5 3 8 8 6 4 -3 43 3 87 12 58 13 81 22 83 34 5 25 -62 21 -168 -8z"/>
<path d="M5102 10824 c-77 -17 -102 -30 -102 -52 0 -26 10 -36 80 -80 65 -41
110 -88 110 -116 0 -19 -31 -28 -72 -22 -18 4 -44 8 -58 10 -27 5 -91 20 -126
31 -31 10 -40 -21 -11 -39 24 -16 177 -46 234 -46 47 0 88 40 78 78 -11 45
-54 92 -123 135 -61 38 -63 41 -41 50 13 5 59 10 101 11 84 1 104 14 65 41
-25 18 -50 18 -135 -1z"/>
<path d="M4277 10783 c-16 -53 -36 -124 -54 -195 -3 -13 -6 -35 -7 -50 0 -14
-3 -24 -5 -22 -6 6 -51 -114 -51 -136 0 -10 6 -20 14 -23 19 -7 40 18 32 38
-3 8 -2 15 3 15 10 0 54 148 47 159 -7 10 42 21 91 21 24 0 32 4 27 13 -5 8
-4 9 3 2 18 -16 45 -125 41 -163 -2 -28 1 -37 14 -40 33 -6 41 42 20 124 -18
73 -18 73 2 76 32 5 25 32 -8 38 -25 4 -33 14 -56 73 -54 132 -87 153 -113 70z
m68 -75 c34 -73 33 -78 -20 -78 -25 0 -45 3 -45 7 0 13 33 123 37 123 2 0 15
-24 28 -52z"/>
<path d="M3159 10799 c-21 -21 -21 -28 -16 -133 5 -113 0 -157 -19 -163 -13
-4 -28 11 -121 125 -81 99 -98 102 -99 17 0 -33 -4 -90 -8 -127 -7 -58 -6 -69
8 -74 22 -9 27 -2 33 43 2 21 8 60 11 87 l7 49 49 -64 c84 -110 113 -126 157
-90 23 19 24 24 24 157 0 138 0 138 25 151 33 16 32 37 -2 41 -17 2 -35 -5
-49 -19z"/>
<path d="M4541 10786 c-8 -9 -6 -28 4 -67 8 -30 26 -98 40 -153 26 -104 38
-128 60 -119 17 6 58 111 51 130 -12 31 6 9 28 -34 31 -61 56 -85 87 -79 13 3
27 5 31 5 16 2 30 84 19 108 -6 14 -9 28 -6 32 9 15 -28 122 -46 131 -29 16
-31 -4 -9 -79 22 -71 24 -142 4 -148 -7 -2 -30 30 -53 72 -52 94 -70 96 -90
12 -14 -60 -28 -64 -37 -11 -3 16 -14 59 -24 95 -11 36 -20 75 -20 87 0 24
-24 36 -39 18z"/>
<path d="M2144 10724 c-97 -38 -144 -72 -144 -105 0 -44 84 -97 155 -100 26 0
153 -33 161 -41 8 -8 -106 -85 -169 -113 -48 -22 -84 -29 -130 -26 -9 1 -23
12 -29 26 -14 31 -34 32 -44 3 -10 -33 44 -78 94 -78 76 1 215 67 294 141 42
39 44 47 25 72 -13 18 -162 61 -183 53 -7 -3 -15 -2 -19 2 -3 4 -25 11 -47 17
-49 12 -70 38 -48 59 24 24 172 78 213 79 42 0 55 11 37 32 -19 23 -68 17
-166 -21z"/>
<path d="M5529 10644 c-6 -8 -4 -18 8 -29 29 -30 191 -4 180 28 -5 16 -175 16
-188 1z"/>
<path d="M3502 10601 c-74 -19 -67 -57 7 -45 25 4 69 6 98 5 50 -2 75 11 57
29 -13 13 -125 20 -162 11z"/>
<path d="M5034 10056 c-6 -15 26 -84 61 -131 32 -44 55 -92 48 -99 -4 -3 2 -6
13 -6 14 0 15 -3 6 -9 -10 -6 -9 -13 6 -31 29 -36 52 -21 52 34 0 59 8 76 34
76 22 0 83 -39 98 -62 4 -7 8 -27 8 -45 0 -57 -62 -69 -166 -32 -84 29 -104
33 -104 20 0 -6 6 -11 13 -11 9 0 9 -2 -1 -9 -9 -5 9 -17 58 -35 90 -33 175
-35 213 -6 61 48 39 139 -47 197 -62 43 -101 42 -131 -3 -20 -30 -21 -30 -32
-10 -28 56 -106 176 -114 176 -5 0 -12 -6 -15 -14z"/>
<path d="M4403 10038 c-12 -20 -4 -288 10 -317 24 -49 58 -63 143 -62 43 1 82
5 87 10 20 20 -7 31 -77 31 -58 0 -79 4 -97 19 -23 18 -24 25 -26 165 -1 80
-4 150 -8 156 -8 14 -22 13 -32 -2z"/>
<path d="M2677 9933 c-3 -5 -8 -32 -11 -62 -4 -30 -9 -64 -11 -75 -3 -12 -7
-41 -10 -66 -22 -194 -16 -215 55 -214 68 1 200 33 207 50 11 28 -12 32 -82
15 -39 -10 -87 -21 -108 -25 l-37 -7 0 53 c0 29 9 114 19 188 11 74 17 138 15
142 -7 10 -31 10 -37 1z"/>
<path d="M2950 9891 c0 -22 29 -36 43 -22 15 15 0 41 -23 41 -13 0 -20 -7 -20
-19z"/>
<path d="M3325 9899 c-4 -6 -4 -13 -1 -16 3 -4 -1 -14 -10 -24 -11 -12 -16
-39 -17 -80 l-2 -61 -42 47 c-28 32 -47 46 -57 42 -23 -9 -20 -19 18 -60 18
-20 31 -38 29 -41 -8 -8 58 -47 75 -44 14 3 17 16 20 83 2 72 5 82 28 101 22
18 24 25 15 43 -12 22 -45 28 -56 10z"/>
<path d="M3502 9866 c-46 -59 -35 -174 21 -211 29 -18 59 -14 128 21 51 25 74
48 64 64 -7 12 -35 14 -35 2 0 -12 -106 -54 -127 -50 -10 2 -23 18 -29 37 -12
36 -8 74 7 66 13 -9 89 34 89 49 0 20 -24 36 -63 43 -28 4 -37 1 -55 -21z"/>
<path d="M4817 9883 c-37 -6 -52 -35 -35 -70 16 -34 93 -93 120 -93 12 0 26
-7 33 -17 14 -19 35 -10 35 16 0 25 -32 51 -61 51 -27 0 -98 54 -87 65 4 4 28
7 53 7 37 -1 45 2 45 17 0 29 -27 35 -103 24z"/>
<path d="M2995 9690 c-11 -17 37 -100 57 -100 25 0 23 30 -4 70 -25 37 -43 47
-53 30z"/>
<path d="M4720 9413 c0 -10 10 -43 21 -73 24 -62 38 -237 21 -280 -9 -24 -9
-23 -22 15 -7 22 -26 70 -43 107 -28 64 -48 85 -68 72 -18 -11 -41 -81 -55
-169 -20 -130 -27 -151 -42 -133 -7 9 -32 62 -56 119 -34 82 -47 105 -64 107
-26 4 -28 -14 -7 -55 8 -15 29 -62 46 -103 41 -97 78 -151 103 -148 23 4 39
54 61 192 9 55 20 107 25 115 10 18 7 25 55 -109 24 -66 35 -86 51 -88 75 -11
94 248 28 395 -22 52 -54 72 -54 36z"/>
<path d="M5038 9393 c-26 -14 -45 -30 -42 -34 3 -5 -2 -9 -10 -9 -19 0 -56
-47 -56 -71 0 -21 31 -44 74 -55 23 -6 27 -4 21 7 -7 11 -5 11 10 -1 10 -8 45
-20 78 -27 67 -14 82 -25 92 -64 5 -21 1 -31 -21 -48 -26 -21 -38 -22 -148
-20 -105 2 -120 0 -122 -14 -1 -9 1 -17 4 -18 4 0 18 -3 32 -6 38 -9 192 -9
221 -1 14 4 38 20 53 35 24 24 27 34 23 72 -8 67 -34 87 -152 111 -55 11 -104
25 -109 30 -15 15 29 55 86 80 50 22 51 22 77 2 42 -31 67 -9 36 32 -23 30
-91 30 -147 -1z"/>
<path d="M4188 9273 c-25 -30 -28 -39 -49 -145 -18 -92 -29 -117 -51 -118 -11
0 -10 -38 1 -42 5 -1 -2 -34 -15 -73 -26 -75 -28 -110 -5 -110 9 0 27 37 48
102 30 90 37 103 64 112 16 5 29 14 29 19 0 5 11 12 25 14 16 4 25 1 25 -8 0
-7 9 -16 20 -19 11 -3 20 -10 20 -15 0 -5 -7 -7 -17 -3 -14 5 -15 1 -10 -28 4
-19 17 -58 28 -86 20 -50 40 -66 54 -42 11 16 -15 69 -34 69 -12 0 -13 2 -3 8
10 7 10 21 -2 72 -16 66 -14 80 8 80 8 0 19 6 25 14 15 18 -8 37 -36 30 -19
-5 -23 0 -33 38 -23 91 -50 148 -69 148 -4 0 -15 -8 -23 -17z m34 -80 c6 -16
12 -35 13 -44 1 -9 5 -27 8 -41 5 -17 1 -29 -13 -41 -11 -9 -20 -14 -20 -12 0
3 -10 1 -21 -6 -21 -11 -21 -10 -15 27 15 88 28 144 32 144 2 0 10 -12 16 -27z"/>
<path d="M2134 9157 c-3 -9 0 -26 7 -39 7 -12 14 -50 16 -83 2 -33 7 -67 10
-75 3 -8 6 -18 5 -21 -1 -3 7 -66 16 -140 l18 -134 29 -5 c69 -13 163 35 206
105 l19 30 0 -28 c0 -40 43 -81 76 -73 14 4 31 11 37 17 7 5 34 25 60 45 48
36 57 59 21 59 -12 0 -18 -6 -17 -18 1 -13 -4 -17 -14 -12 -9 3 -30 -6 -49
-20 -18 -14 -39 -25 -48 -25 -20 0 -29 33 -21 80 6 36 8 38 23 24 14 -15 18
-13 44 17 49 60 33 90 -38 67 -31 -10 -43 -22 -61 -58 -12 -25 -22 -40 -23
-33 0 7 -18 17 -39 23 -50 13 -109 -8 -146 -52 -14 -17 -27 -29 -29 -27 -1 2
-11 67 -20 144 -22 181 -36 239 -59 243 -9 2 -20 -3 -23 -11z m276 -347 c0
-16 -37 -81 -47 -82 -4 0 -18 -4 -31 -9 -55 -21 -69 -21 -75 0 -3 12 -2 19 2
16 5 -2 14 8 22 22 8 14 28 35 44 45 32 19 85 24 85 8z"/>
<path d="M3107 9153 c-13 -13 -7 -38 13 -51 38 -23 56 11 22 41 -20 19 -26 20
-35 10z"/>
<path d="M3341 9064 c-23 -29 -34 -76 -29 -120 4 -36 32 -39 36 -4 5 51 23
100 37 100 17 0 55 -47 55 -69 0 -27 25 -55 43 -48 25 10 -5 94 -48 135 -42
39 -67 41 -94 6z"/>
<path d="M3118 9039 c-6 -17 23 -101 45 -130 10 -13 15 -18 11 -10 -5 10 -3
13 8 8 23 -8 29 2 15 27 -6 11 -18 41 -27 66 -14 43 -43 65 -52 39z"/>
<path d="M2837 8973 c-4 -3 -7 -21 -7 -39 0 -24 -8 -38 -27 -54 -32 -25 -40
-14 -24 31 12 34 7 49 -15 49 -29 0 -47 -103 -22 -128 17 -17 48 -15 85 7 l31
20 63 -65 c41 -42 71 -64 86 -64 33 0 29 11 -22 61 -77 75 -97 106 -85 129 15
27 -4 60 -34 60 -12 0 -26 -3 -29 -7z"/>
<path d="M3000 8711 c0 -6 5 -13 10 -16 6 -3 10 -14 10 -24 0 -12 -14 -21 -52
-31 -121 -30 -155 -132 -68 -197 82 -61 163 -64 189 -6 13 29 14 106 2 151 -8
25 -7 32 5 32 20 0 17 31 -4 36 -9 3 -25 18 -34 35 -16 27 -58 42 -58 20z m49
-138 c16 -56 13 -98 -7 -123 -17 -21 -19 -22 -57 -5 -44 18 -95 62 -95 81 0
22 35 55 75 69 63 22 73 19 84 -22z"/>
<path d="M4290 8554 c-9 -9 -9 -18 -2 -26 5 -7 19 -67 30 -133 20 -114 24
-146 37 -310 8 -97 22 -143 47 -156 28 -15 41 7 22 36 -8 12 -18 66 -24 121
-15 164 -21 198 -32 205 -6 4 -7 9 0 13 9 5 -3 91 -29 208 -11 50 -30 66 -49
42z"/>
<path d="M4864 8427 c-3 -9 -1 -24 5 -34 10 -20 81 -235 86 -263 2 -8 6 -38
10 -65 10 -76 21 -86 96 -86 77 -1 112 11 135 46 33 50 -12 108 -92 121 -34 5
-45 2 -71 -20 l-31 -26 -6 38 c-9 49 -63 218 -84 261 -19 39 -39 50 -48 28z
m271 -339 c33 -15 30 -49 -5 -59 -36 -10 -98 -10 -104 -1 -3 5 4 23 14 40 21
35 50 41 95 20z"/>
<path d="M2445 8218 c5 -18 7 -57 6 -85 -1 -35 2 -53 10 -53 9 0 9 -3 0 -14
-8 -9 -11 -43 -9 -92 2 -62 6 -79 19 -82 13 -2 16 8 17 55 1 32 5 100 8 151 7
104 -5 152 -38 152 -18 0 -20 -4 -13 -32z m26 -271 c-10 -9 -11 -8 -5 6 3 10
9 15 12 12 3 -3 0 -11 -7 -18z"/>
<path d="M2913 8175 c-7 -19 13 -36 37 -32 8 1 15 11 15 22 0 26 -42 34 -52
10z"/>
<path d="M5460 8127 c-42 -13 -54 -27 -36 -45 10 -10 19 -10 42 -2 15 6 44 10
64 9 50 -4 66 8 44 32 -19 21 -59 23 -114 6z"/>
<path d="M4670 8096 c-11 -31 -3 -81 17 -97 11 -10 20 -8 43 9 16 12 31 22 34
22 2 0 7 -14 11 -31 9 -40 43 -56 80 -38 38 19 37 33 -2 37 -29 3 -34 8 -45
50 -17 58 -42 67 -75 26 l-23 -29 2 35 c4 44 -27 56 -42 16z"/>
<path d="M3438 8049 c-59 -22 -72 -119 -23 -176 20 -24 31 -28 72 -27 57 1
155 23 148 34 -2 4 6 5 18 3 31 -5 92 34 78 51 -15 17 -164 -31 -157 -51 4
-10 1 -11 -14 -3 -10 5 -40 10 -67 10 l-48 1 35 18 c73 39 94 88 56 126 -26
26 -53 30 -98 14z m72 -54 c0 -14 -54 -55 -72 -55 -10 0 -10 32 -2 54 8 22 74
22 74 1z"/>
<path d="M3232 8038 c-13 -13 -15 -44 -6 -100 5 -28 11 -38 25 -38 22 0 26 29
7 49 -10 11 -10 13 0 7 9 -5 12 6 12 43 0 52 -12 65 -38 39z"/>
<path d="M2997 7983 c-2 -4 -5 -42 -6 -84 -1 -58 2 -79 14 -89 9 -8 19 -9 24
-4 12 14 -2 177 -16 181 -6 2 -13 0 -16 -4z"/>
<path d="M3081 7971 c-19 -12 -12 -24 39 -65 83 -66 119 -88 135 -82 18 7 20
56 3 57 -31 2 -45 8 -74 35 -45 42 -88 64 -103 55z"/>
<path d="M2444 7824 c-9 -73 5 -125 38 -143 30 -17 76 -9 201 35 38 13 76 24
86 24 28 0 45 25 27 39 -12 10 -28 9 -76 -5 -43 -12 -57 -20 -48 -26 9 -7 7
-8 -7 -4 -11 3 -42 -1 -69 -9 -27 -8 -62 -15 -78 -15 l-28 0 0 74 c0 65 -2 74
-19 79 -17 4 -21 -2 -27 -49z"/>
<path d="M4469 7249 c-12 -7 -12 -12 0 -31 19 -30 51 -191 41 -202 -5 -5 -6
-15 -3 -22 3 -8 0 -14 -7 -14 -6 0 -8 5 -5 10 12 19 -13 10 -48 -19 -20 -15
-34 -31 -32 -35 3 -3 2 -4 -1 -1 -13 9 -44 -16 -44 -35 0 -25 20 -37 34 -18 6
8 36 31 66 52 l55 38 10 -57 c6 -33 14 -53 19 -48 5 4 6 3 2 -4 -7 -13 13
-101 27 -120 5 -7 13 -13 18 -13 18 0 18 41 -1 101 -11 35 -23 88 -26 117 -6
44 -4 52 10 52 9 0 20 8 23 18 4 9 14 22 22 29 12 9 13 15 5 23 -19 20 -57 8
-65 -20 l-6 -25 -6 25 c-4 14 -11 53 -17 88 -17 99 -38 132 -71 111z"/>
<path d="M3865 7080 c-3 -6 -4 -18 -1 -28 3 -10 8 -93 11 -185 2 -93 9 -176
15 -188 18 -33 35 -17 34 32 -6 286 -9 346 -16 362 -10 19 -33 23 -43 7z"/>
<path d="M4767 7018 c-41 -32 -61 -154 -34 -208 20 -40 71 -47 135 -20 28 12
49 26 46 31 -3 5 1 6 9 3 18 -7 38 18 28 35 -7 11 -20 8 -64 -13 -31 -14 -67
-26 -82 -26 -35 0 -52 37 -39 88 8 32 13 37 41 40 41 4 50 28 22 59 -25 26
-38 28 -62 11z"/>
<path d="M4121 6903 c-23 -20 -51 -116 -51 -178 0 -59 22 -85 71 -85 49 0 121
34 113 54 -5 13 -12 13 -52 0 -64 -19 -79 -18 -85 7 -8 29 0 44 29 59 31 17
64 70 64 103 0 25 -31 57 -56 57 -7 0 -21 -8 -33 -17z m49 -42 c0 -14 -41 -61
-53 -61 -9 0 -9 2 0 8 6 4 15 20 18 35 6 24 35 40 35 18z"/>
<path d="M2403 6781 c-49 -23 -74 -65 -93 -155 -29 -142 -3 -238 75 -276 54
-26 115 -20 115 12 0 16 -6 18 -37 17 -42 -3 -68 8 -98 41 -17 18 -20 37 -21
111 0 49 3 89 8 89 4 0 8 9 8 20 0 38 32 89 64 100 68 26 76 30 76 45 0 21
-45 19 -97 -4z"/>
<path d="M3448 6770 c-10 -7 -20 -35 -28 -79 -9 -57 -9 -74 4 -105 10 -24 22
-36 34 -36 26 0 35 25 15 41 -15 13 -14 71 3 157 7 33 1 38 -28 22z"/>
<path d="M3530 6755 c0 -8 6 -15 13 -15 44 -1 62 -61 36 -120 -20 -43 -33 -45
-41 -5 -2 11 -10 20 -18 20 -11 0 -15 -11 -14 -42 0 -24 -3 -43 -8 -43 -14 0
-9 -23 11 -44 19 -21 55 -156 42 -156 -8 0 -41 109 -41 134 0 15 -27 29 -34
18 -16 -25 19 -173 54 -229 60 -99 91 40 44 197 -15 52 -15 53 9 79 48 52 65
121 30 121 -17 1 -17 1 0 14 21 16 22 30 1 61 -19 29 -84 37 -84 10z"/>
<path d="M3129 6645 c-22 -40 -25 -43 -40 -29 -10 9 -26 14 -36 12 -10 -2 -26
5 -36 15 -10 10 -22 15 -27 12 -13 -8 -13 -42 0 -47 5 -1 13 -28 17 -58 7 -46
12 -55 28 -55 16 0 21 9 26 40 3 22 7 31 8 20 1 -23 19 -45 36 -45 7 0 25 29
40 65 l28 66 21 -21 c28 -25 103 -28 113 -4 8 21 -16 36 -45 29 -17 -4 -31 2
-49 20 -37 36 -57 32 -84 -20z"/>
<path d="M2736 6627 c-21 -21 -26 -36 -26 -78 0 -45 4 -55 34 -85 19 -19 41
-34 50 -34 33 0 86 30 98 55 16 35 -10 88 -54 111 -18 9 -43 25 -55 36 l-22
20 -25 -25z m71 -67 c45 -27 59 -56 34 -70 -51 -27 -91 2 -91 65 0 30 15 31
57 5z"/>
<path d="M5680 5939 c0 -11 5 -30 12 -42 14 -27 48 -155 48 -184 0 -16 -4 -21
-15 -17 -31 12 -64 -6 -90 -50 -31 -53 -27 -100 13 -147 20 -25 31 -29 60 -27
47 4 70 37 80 113 7 55 -7 183 -24 225 -4 8 -8 27 -10 43 -5 35 -31 87 -45 87
-6 0 -7 5 -4 10 3 6 -1 10 -9 10 -9 0 -16 -9 -16 -21z m62 -347 c-8 -81 -35
-105 -66 -60 -22 31 -20 70 4 101 18 22 24 25 44 16 20 -10 22 -16 18 -57z"/>
<path d="M6745 5800 c-10 -17 5 -68 22 -74 24 -9 35 4 28 33 -11 44 -36 64
-50 41z"/>
<path d="M3713 5783 c-7 -2 -13 -13 -13 -23 0 -19 23 -43 33 -34 3 3 2 -12 -3
-33 -4 -21 -10 -98 -13 -171 -4 -110 -2 -134 10 -139 17 -7 33 13 69 87 l27
55 13 -62 c15 -74 42 -113 104 -153 55 -35 76 -38 85 -10 8 26 -3 42 -24 35
-12 -3 -34 9 -64 35 -39 35 -47 49 -58 98 -6 33 -9 85 -5 124 10 111 -32 99
-80 -23 -15 -38 -29 -69 -32 -69 -2 0 -1 54 3 120 6 103 4 124 -9 145 -17 25
-21 27 -43 18z"/>
<path d="M4076 5755 c-19 -20 -10 -44 15 -42 13 1 18 6 14 16 -3 9 -3 12 1 8
9 -9 35 13 28 24 -8 14 -41 10 -58 -6z"/>
<path d="M2697 5633 c-20 -20 -37 -42 -37 -50 0 -7 -13 -25 -30 -40 -33 -29
-38 -50 -14 -60 17 -6 34 10 82 82 14 22 25 47 24 55 -1 8 1 10 4 4 3 -7 14
-10 24 -7 18 5 20 0 20 -38 -1 -59 -34 -205 -61 -268 -12 -28 -19 -58 -15 -67
11 -28 39 -11 53 33 15 45 63 93 91 93 29 0 71 -48 82 -93 17 -65 18 -67 38
-67 13 0 26 18 46 62 15 37 22 64 16 66 -5 2 -10 16 -9 30 l0 27 11 -25 c11
-25 11 -24 19 13 9 38 -1 73 -25 89 -19 13 -63 9 -76 -7 -17 -20 -5 -49 18
-40 9 3 21 7 27 8 17 3 17 -42 0 -94 l-17 -51 -19 41 c-10 23 -32 49 -51 61
-34 21 -98 27 -98 10 0 -5 -4 -10 -9 -10 -6 0 -5 15 1 36 5 20 7 38 4 42 -3 3
-1 11 5 18 5 7 11 45 12 84 2 61 -1 74 -17 86 -32 23 -60 16 -99 -23z"/>
<path d="M5960 5656 c-46 -17 -72 -60 -66 -109 6 -50 31 -77 71 -77 58 0 94
63 72 128 -7 17 -5 22 10 22 14 0 15 2 4 9 -11 7 -11 9 0 13 8 3 11 8 8 12
-12 13 -66 15 -99 2z m24 -62 c29 -28 14 -84 -21 -84 -16 0 -27 43 -19 75 7
29 18 31 40 9z"/>
<path d="M6302 5644 c-16 -11 -26 -12 -46 -3 -20 10 -29 9 -42 -2 -9 -7 -24
-14 -33 -14 -12 0 -18 -15 -23 -64 -8 -71 3 -101 28 -80 8 6 14 20 14 31 0 10
7 35 15 55 16 39 31 36 37 -6 5 -40 25 -35 49 10 l21 43 19 -25 c11 -13 27
-46 37 -73 17 -49 52 -83 72 -71 12 8 14 35 1 35 -5 0 -19 24 -31 53 -43 101
-81 137 -118 111z"/>
<path d="M6511 5575 c-25 -33 -38 -92 -24 -114 17 -27 61 -25 100 5 20 15 38
24 40 18 2 -5 12 -24 23 -41 33 -54 100 -38 70 16 -6 12 -16 21 -22 21 -6 0
-25 17 -43 37 l-32 37 -46 -38 c-45 -37 -47 -38 -47 -15 0 31 10 46 35 50 31
6 26 43 -6 47 -19 2 -33 -4 -48 -23z"/>
<path d="M6953 5585 c-23 -16 -51 -89 -55 -145 -3 -29 0 -35 17 -35 16 0 22
10 31 55 7 30 15 63 19 73 13 31 38 14 52 -33 19 -65 34 -90 56 -90 49 0 117
73 81 87 -9 3 -27 -5 -44 -22 -32 -30 -32 -30 -54 47 -21 75 -56 96 -103 63z"/>
<path d="M4681 5537 c-16 -20 -22 -109 -8 -137 18 -36 34 -35 73 4 41 41 46
40 96 -28 17 -24 28 -52 28 -71 0 -32 0 -32 -62 -39 -44 -5 -73 -15 -96 -33
-18 -14 -31 -28 -28 -31 3 -3 1 -10 -4 -17 -11 -13 1 -65 25 -101 18 -27 77
-46 108 -34 44 17 85 77 93 137 2 20 12 42 21 48 14 11 15 17 6 36 -6 13 -18
45 -28 72 -10 30 -23 47 -33 48 -12 0 -13 2 -4 6 10 4 4 15 -19 39 -18 18 -36
31 -41 28 -4 -3 -8 2 -8 11 0 26 -31 65 -52 65 -17 0 -19 -5 -13 -37 4 -27 1
-44 -10 -58 -15 -19 -16 -16 -13 39 3 60 -8 80 -31 53z m184 -339 c-8 -35 -25
-71 -48 -100 -29 -37 -97 13 -97 71 0 28 27 45 84 52 28 3 55 7 59 8 5 0 5
-14 2 -31z"/>
<path d="M4390 5489 c-16 -23 -32 -50 -36 -61 -4 -12 -11 -17 -21 -14 -16 6
-43 -10 -43 -25 0 -11 54 -39 75 -39 8 0 15 6 15 13 0 7 12 38 27 68 l28 54
10 -69 c7 -46 16 -73 27 -80 25 -15 44 5 29 32 -6 11 -14 46 -17 78 -4 33 -11
65 -17 72 -18 23 -47 12 -77 -29z"/>
<path d="M4133 5498 c-14 -17 -2 -163 14 -179 20 -20 46 9 37 40 -3 14 -9 53
-13 85 -6 60 -19 78 -38 54z"/>
<path d="M6756 5503 c-3 -4 -6 -30 -6 -59 0 -42 4 -55 19 -63 31 -17 41 6 29
66 -10 47 -27 71 -42 56z"/>
<path d="M3427 5467 c-3 -8 1 -41 8 -74 8 -32 14 -70 15 -84 0 -35 23 -55 39
-35 10 12 10 28 1 73 -7 32 -15 63 -17 70 -3 8 0 11 9 8 22 -9 42 19 25 34
-24 20 -73 25 -80 8z"/>
<path d="M3153 5445 c-13 -9 -28 -33 -34 -54 -10 -33 -9 -45 7 -78 15 -31 25
-39 51 -41 53 -5 123 60 123 116 0 24 -31 52 -58 52 -11 0 -24 5 -27 10 -9 15
-37 12 -62 -5z m97 -63 c0 -20 -49 -72 -67 -72 -14 0 -23 24 -22 58 0 15 3 21
6 15 7 -18 32 -16 39 2 9 22 44 19 44 -3z"/>
<path d="M9802 11223 c1054 -2 2782 -2 3840 0 1058 1 195 2 -1917 2 -2112 0
-2977 -1 -1923 -2z"/>
<path d="M9797 10533 c1057 -2 2789 -2 3850 0 1060 1 196 2 -1922 2 -2117 0
-2985 -1 -1928 -2z"/>
<path d="M9856 10471 c-8 -13 24 -192 33 -186 4 2 7 -18 7 -46 l-1 -49 -48
-16 c-49 -16 -68 -37 -49 -56 6 -6 20 -5 40 6 17 9 41 16 52 16 20 0 21 -4 15
-40 -5 -32 -3 -41 10 -46 30 -12 47 17 36 64 l-9 42 50 0 c56 0 88 13 88 37 0
13 -10 15 -69 11 l-69 -5 -11 56 c-6 31 -17 92 -24 136 -10 58 -18 81 -29 83
-9 2 -19 -1 -22 -7z"/>
<path d="M11538 10418 c-3 -7 3 -47 13 -88 10 -41 18 -80 19 -86 0 -7 -26 -20
-57 -30 -46 -15 -59 -24 -61 -41 -4 -27 13 -30 54 -8 16 8 39 15 51 15 22 0
26 -10 39 -120 6 -51 13 -63 32 -51 11 6 12 27 7 89 -5 52 -11 79 -18 75 -6
-4 -7 -1 -2 7 5 8 20 10 42 7 47 -8 65 0 53 23 -7 13 -24 20 -52 22 l-42 3
-21 95 c-14 68 -25 96 -36 98 -9 2 -19 -3 -21 -10z"/>
<path d="M12093 10383 c5 -34 15 -97 32 -216 5 -39 5 -39 -25 -32 -40 9 -70
-2 -70 -26 0 -15 7 -19 35 -19 22 0 38 6 44 18 7 11 10 12 11 4 0 -8 10 -23
23 -34 12 -11 16 -16 8 -13 -10 6 -11 2 -6 -16 5 -13 8 -43 7 -66 0 -40 2 -43
25 -43 25 0 26 1 20 58 -3 31 -8 65 -13 76 -6 17 -2 18 57 15 53 -3 64 -1 67
12 4 20 -44 39 -99 39 -35 0 -39 3 -39 25 0 14 -4 25 -8 25 -5 0 -6 14 -4 31
3 17 -3 69 -13 115 -15 72 -21 84 -38 84 -17 0 -19 -5 -14 -37z"/>
<path d="M9305 10300 c-3 -6 -4 -18 -1 -28 3 -9 6 -81 7 -158 1 -146 6 -171
32 -161 12 5 14 32 12 170 -1 91 -6 170 -9 176 -9 14 -33 14 -41 1z"/>
<path d="M11255 10250 c-179 -58 -208 -114 -71 -139 33 -6 70 -18 83 -27 24
-15 44 -53 36 -66 -6 -11 -67 -10 -98 2 -21 8 -27 7 -32 -7 -8 -21 18 -40 68
-48 45 -8 94 8 103 32 9 23 -5 84 -20 90 -8 3 -11 9 -8 14 7 12 -73 48 -106
49 -14 0 -31 4 -38 9 -15 9 66 45 133 59 30 6 40 13 40 27 0 27 -19 28 -90 5z"/>
<path d="M12333 10254 c-5 -14 11 -34 27 -34 3 0 11 4 19 9 19 12 6 41 -19 41
-11 0 -23 -7 -27 -16z"/>
<path d="M10135 10157 c-40 -38 -45 -49 -45 -86 0 -34 6 -49 30 -72 28 -28 34
-30 104 -28 79 2 140 21 133 41 -2 7 -15 12 -28 11 -13 -1 -53 -5 -89 -9 -77
-7 -103 6 -103 54 0 43 42 92 71 81 27 -10 28 -29 2 -59 -25 -29 -10 -56 22
-39 49 26 55 114 9 138 -35 19 -60 12 -106 -32z"/>
<path d="M11837 10173 c6 -16 5 -16 -11 -4 -15 13 -21 11 -49 -17 -25 -25 -32
-40 -32 -72 0 -69 55 -100 137 -77 23 6 29 2 47 -28 21 -36 48 -46 57 -20 3 8
-4 27 -16 42 -12 16 -21 40 -20 58 3 46 1 52 -16 59 -11 4 -19 -4 -30 -29 -15
-36 -42 -50 -85 -43 -39 5 -38 54 0 89 30 27 41 59 21 59 -5 0 -6 -8 -3 -17z"/>
<path d="M8026 10170 c-48 -9 -80 -45 -95 -106 -16 -64 -5 -103 35 -120 40
-17 180 -19 190 -3 12 20 -10 27 -87 32 -42 2 -81 7 -87 11 -30 18 1 129 39
141 10 4 28 3 39 0 14 -4 22 -1 26 10 11 27 -16 43 -60 35z"/>
<path d="M9505 10171 c-23 -10 -45 -34 -49 -53 -2 -7 -6 -20 -10 -29 -14 -31
12 -98 44 -114 41 -21 97 -19 137 6 58 36 20 67 -41 34 -29 -16 -36 -16 -62
-4 -51 25 -42 119 11 119 37 0 35 -44 -2 -62 -36 -17 -36 -42 -2 -46 31 -4 79
46 79 83 0 48 -59 85 -105 66z"/>
<path d="M12635 10158 c-68 -37 -99 -100 -71 -143 23 -35 118 -77 169 -73 60
4 57 31 -4 39 -72 11 -129 46 -129 80 0 24 47 55 77 51 17 -3 23 1 23 17 0 11
-9 25 -19 31 -23 12 -21 12 -46 -2z"/>
<path d="M8263 10152 c-21 -13 -41 -75 -37 -111 9 -72 82 -103 154 -66 76 39
59 135 -28 151 -20 4 -43 13 -50 21 -15 15 -22 16 -39 5z m115 -104 c3 -22 -2
-28 -32 -38 -49 -16 -76 0 -76 43 l0 33 53 -6 c47 -5 52 -7 55 -32z"/>
<path d="M9016 10139 c-14 -11 -26 -26 -26 -34 0 -14 -24 -27 -55 -29 -25 -1
-33 -47 -11 -66 12 -9 16 -32 16 -86 l0 -74 -532 -3 -533 -2 531 -3 532 -2 11
-46 c15 -59 42 -58 54 4 l8 42 3282 3 3282 2 -3282 3 -3283 2 0 24 c0 13 -5
26 -12 28 -16 6 0 28 20 28 31 1 100 38 117 64 38 58 33 143 -10 160 -33 12
-83 6 -109 -15z m92 -31 c39 -39 -21 -128 -88 -128 -43 0 -35 76 12 115 32 27
57 32 76 13z"/>
<path d="M8616 10135 c-8 -8 -24 -15 -34 -15 -29 0 -31 -18 -11 -75 12 -35 23
-50 36 -50 13 0 17 7 16 25 -1 14 0 36 3 50 l6 25 14 -27 c19 -35 28 -35 66 2
17 17 35 29 42 27 6 -2 16 -28 21 -58 9 -45 15 -55 34 -57 23 -4 24 -2 17 40
-18 114 -50 146 -110 109 -32 -20 -32 -20 -44 -1 -15 24 -35 25 -56 5z"/>
<path d="M12325 10070 c3 -5 2 -10 -3 -10 -5 0 -5 -21 1 -51 10 -50 32 -74 47
-49 9 14 -6 88 -22 107 -12 15 -32 18 -23 3z"/>
<path d="M12050 9670 c-6 -11 -17 -53 -25 -93 -19 -100 -39 -145 -67 -149 -19
-2 -23 -9 -21 -38 1 -24 -6 -45 -23 -67 -30 -39 -32 -73 -4 -73 11 0 20 4 20
10 0 8 65 108 89 137 6 6 34 16 62 22 63 14 63 13 79 -78 18 -111 21 -121 36
-121 25 0 27 28 10 115 -9 46 -14 95 -10 109 5 20 2 26 -9 26 -11 0 -19 17
-27 53 -16 71 -61 161 -82 165 -9 2 -22 -6 -28 -18z m55 -117 c9 -32 18 -63
20 -68 1 -6 -17 -16 -41 -21 -39 -9 -44 -9 -38 5 3 9 11 44 17 79 6 34 15 62
19 62 4 0 15 -26 23 -57z"/>
<path d="M9465 9661 c-8 -15 5 -84 19 -93 8 -5 7 -8 -2 -8 -7 0 -11 -4 -7 -9
3 -5 2 -34 -1 -64 l-6 -55 -40 -5 c-45 -6 -64 -19 -53 -37 5 -8 22 -10 52 -6
l45 6 -7 -56 c-3 -30 -6 -82 -6 -115 l0 -59 -152 0 c-117 0 -148 3 -139 12 20
20 14 56 -14 75 -22 14 -29 14 -46 4 -18 -11 -20 -11 -15 2 4 12 -9 16 -64 21
-81 8 -96 24 -57 63 37 36 110 44 142 14 20 -19 25 -20 35 -7 19 23 -3 53 -50
67 -106 32 -239 -76 -177 -145 19 -21 37 -27 108 -36 46 -7 88 -14 92 -16 15
-10 8 -24 -21 -38 -24 -13 -117 -15 -617 -16 -323 0 -590 -3 -593 -5 -2 -3
237 -5 532 -5 534 0 537 0 558 -21 18 -18 29 -20 65 -15 25 3 57 12 73 21 26
13 403 15 3232 15 1761 0 3205 2 3207 5 3 3 -1354 5 -3015 5 l-3020 0 -12 24
c-9 16 -11 47 -7 97 3 41 5 84 6 96 0 17 8 24 35 29 33 6 55 28 55 53 0 14
-47 14 -55 1 -15 -24 -30 -9 -27 28 2 20 -1 68 -5 107 -6 53 -12 71 -25 73 -9
2 -19 -2 -23 -7z"/>
<path d="M12872 9641 c-57 -20 -112 -64 -112 -92 0 -19 18 -36 40 -37 37 0 97
-15 117 -28 13 -8 43 -17 68 -21 25 -3 53 -11 62 -18 15 -11 11 -15 -37 -30
-64 -20 -190 -28 -225 -15 -31 12 -53 -11 -30 -30 26 -22 161 -24 235 -5 124
32 147 60 89 109 -31 26 -87 37 -73 14 4 -7 3 -8 -5 -4 -6 4 -9 12 -6 17 4 5
-4 9 -17 9 -13 0 -33 7 -46 15 -12 9 -45 19 -73 22 -44 5 -49 8 -36 21 22 21
120 51 133 41 15 -12 36 14 28 35 -8 21 -45 20 -112 -3z"/>
<path d="M10973 9634 c-6 -17 12 -34 38 -34 21 0 31 24 16 39 -16 16 -47 13
-54 -5z"/>
<path d="M12213 9593 c3 -16 16 -59 30 -98 14 -38 32 -95 41 -126 31 -108 86
-142 119 -74 9 20 17 43 17 53 0 10 13 -2 30 -29 75 -113 132 -76 108 71 -3
19 -11 72 -18 118 -12 70 -16 82 -33 82 -18 0 -19 -5 -14 -52 3 -29 8 -64 12
-78 14 -49 18 -153 6 -146 -19 12 -63 95 -75 144 -9 36 -17 47 -32 47 -17 0
-19 -6 -16 -61 3 -41 -2 -73 -13 -100 l-17 -39 -16 35 c-10 19 -20 36 -23 38
-4 2 -5 12 -2 22 3 11 1 20 -3 20 -5 0 -10 12 -10 28 -1 15 -14 60 -30 100
-21 54 -33 72 -47 72 -16 0 -18 -5 -14 -27z"/>
<path d="M9224 9545 c-8 -20 4 -35 27 -35 23 0 26 35 3 44 -22 8 -24 8 -30 -9z"/>
<path d="M9646 9400 c-41 -37 -59 -83 -53 -140 6 -60 26 -75 97 -74 58 1 119
25 127 51 6 17 -28 21 -62 7 -94 -37 -132 -22 -121 50 9 53 22 69 45 54 23
-14 99 9 115 35 16 26 -16 47 -71 47 -33 0 -50 -7 -77 -30z"/>
<path d="M11224 9420 c-27 -11 -82 -74 -90 -104 -16 -65 20 -84 41 -22 8 22
25 51 39 65 l26 26 0 -51 c0 -61 20 -95 44 -75 11 9 14 21 9 39 -3 14 -7 37
-8 51 -1 14 -3 34 -3 43 -3 23 -32 37 -58 28z"/>
<path d="M11001 9381 c-25 -16 10 -121 40 -121 26 0 31 14 14 46 -8 16 -15 36
-15 45 0 23 -23 40 -39 30z"/>
<path d="M9284 9331 c4 -5 2 -11 -3 -13 -6 -1 -13 -27 -17 -55 -5 -44 -4 -54
10 -59 25 -10 33 4 40 74 7 59 6 62 -14 62 -12 0 -19 -4 -16 -9z"/>
<path d="M14553 9113 c-7 -3 -13 -12 -13 -20 0 -9 -13 -37 -29 -62 -16 -25
-32 -56 -36 -68 -4 -15 -14 -23 -28 -23 -33 0 -45 -12 -62 -59 -19 -55 -19
-91 1 -119 14 -21 13 -31 -11 -136 -31 -132 -31 -191 0 -191 16 0 20 6 18 29
-1 17 6 70 17 119 11 49 17 93 14 98 -3 5 0 9 5 9 6 0 11 6 11 14 0 9 18 15
57 18 68 6 93 30 93 88 0 32 -6 44 -40 73 -22 19 -40 40 -40 48 0 7 15 38 34
69 18 30 36 64 40 76 7 23 -11 44 -31 37z m-93 -241 c0 -7 -4 -11 -9 -8 -5 4
-16 -13 -25 -36 l-16 -43 6 38 c8 55 25 91 36 75 4 -7 8 -19 8 -26z m84 -45
c18 -28 -5 -52 -52 -55 l-41 -3 13 33 c7 18 16 41 20 52 6 16 8 17 28 4 12 -8
27 -22 32 -31z"/>
<path d="M12179 8972 c-20 -31 -39 -67 -43 -80 -8 -24 -17 -27 -32 -12 -5 5
-24 6 -49 0 -48 -11 -110 -71 -102 -101 3 -10 1 -19 -4 -19 -5 0 -9 -17 -9
-38 0 -38 19 -74 53 -103 19 -15 19 -17 -12 -89 -19 -45 -31 -92 -31 -118 0
-39 2 -43 21 -40 17 2 23 11 24 38 4 45 9 74 15 80 3 3 14 27 25 53 18 45 25
50 73 67 99 33 149 111 107 166 -15 19 -15 19 -9 -1 3 -13 0 -11 -10 6 -8 15
-22 29 -31 32 -13 5 -12 12 4 50 11 25 32 64 47 88 33 51 38 79 15 79 -9 0
-32 -26 -52 -58z m-115 -162 c28 -10 30 -28 8 -68 -7 -12 -10 -27 -7 -32 3 -6
2 -10 -3 -10 -5 0 -14 -12 -21 -27 l-13 -28 -25 29 c-20 24 -24 37 -20 69 5
36 30 77 48 77 4 0 19 -4 33 -10z m115 -63 c18 -22 -4 -61 -45 -81 -19 -9 -38
-16 -43 -16 -9 0 11 67 31 107 12 23 32 20 57 -10z"/>
<path d="M14132 9019 c-31 -12 -91 -58 -102 -80 -7 -11 -5 -20 4 -28 10 -9 21
-4 47 19 48 43 69 54 69 37 0 -41 -88 -201 -150 -272 -22 -26 -40 -51 -40 -56
0 -24 32 -19 65 10 20 17 42 31 49 31 7 0 33 -23 58 -50 32 -35 51 -48 62 -44
26 10 19 27 -35 82 -35 35 -59 52 -76 52 l-25 0 20 18 c29 23 88 132 107 194
21 71 -1 106 -53 87z"/>
<path d="M8249 8998 c-7 -13 -14 -41 -15 -63 -1 -22 -9 -68 -19 -102 -17 -60
-18 -61 -46 -53 -40 12 -68 2 -75 -27 -11 -43 3 -140 24 -170 20 -28 20 -29 1
-78 -10 -28 -19 -57 -19 -66 0 -9 -6 -29 -14 -45 -8 -16 -16 -36 -18 -44 -3
-16 -7 -22 -44 -68 -22 -27 -24 -35 -13 -48 18 -22 52 -13 59 16 4 14 18 50
32 80 14 30 37 91 52 135 25 77 28 81 70 98 51 21 102 71 111 109 6 22 1 33
-23 58 -17 16 -40 30 -52 30 -17 0 -21 4 -16 17 18 45 57 224 51 233 -11 17
-34 11 -46 -12z m14 -98 c-3 -11 -7 -20 -9 -20 -2 0 -4 9 -4 20 0 11 4 20 9
20 5 0 7 -9 4 -20z m12 -192 c14 -6 25 -14 25 -18 0 -23 -78 -90 -104 -90 -5
0 22 98 31 113 6 10 18 9 48 -5z m-105 -27 c0 -5 -5 -22 -11 -38 l-12 -28 -7
25 c-13 41 -11 50 10 50 11 0 20 -4 20 -9z"/>
<path d="M10281 8955 c-11 -30 -23 -66 -27 -80 -4 -15 -17 -30 -30 -35 -44
-17 -73 -94 -54 -144 7 -21 6 -41 -5 -79 -32 -113 -27 -237 10 -251 23 -8 45
4 45 25 0 10 -7 19 -15 19 -10 0 -15 10 -15 34 0 19 -6 37 -12 40 -10 5 -10 7
0 12 6 3 12 12 12 19 0 8 5 36 11 64 l10 49 34 -14 c48 -19 72 -18 132 11 60
27 90 74 79 119 -7 29 -59 60 -119 71 -21 4 -40 11 -43 16 -6 10 20 100 37
131 14 28 11 44 -11 45 -14 1 -24 -11 -39 -52z m122 -215 c18 -17 18 -18 -10
-50 -24 -26 -38 -33 -79 -37 -66 -6 -92 12 -76 53 6 16 16 41 21 55 l9 26 59
-14 c32 -8 66 -23 76 -33z m-226 -152 c-3 -8 -6 -5 -6 6 -1 11 2 17 5 13 3 -3
4 -12 1 -19z"/>
<path d="M13239 8962 c-21 -21 -41 -50 -44 -65 -11 -44 3 -94 34 -120 l29 -24
-21 -21 c-11 -12 -22 -29 -23 -39 -13 -96 -14 -130 -2 -153 33 -61 114 -58
167 7 67 82 74 139 20 172 -19 12 -25 21 -19 31 4 7 5 23 0 34 -5 14 -1 34 11
58 11 21 19 44 19 53 0 23 -54 75 -78 75 -11 0 -22 7 -26 15 -9 24 -25 18 -67
-23z m95 -42 c35 -13 34 -49 -3 -89 -46 -49 -84 -39 -97 28 -12 57 36 86 100
61z m9 -164 c4 -10 0 -14 -13 -13 -14 1 -16 4 -8 14 13 16 15 16 21 -1z m25
-72 c28 -20 28 -35 -3 -84 -42 -66 -102 -81 -116 -28 -8 32 0 120 12 113 4 -3
10 -1 14 5 9 15 68 12 93 -6z"/>
<path d="M14743 8978 c-21 -28 -22 -48 -2 -61 16 -12 18 -19 10 -40 -31 -80
-44 -283 -19 -298 22 -14 28 1 28 69 0 37 8 99 17 137 20 83 22 168 3 189 -15
19 -24 20 -37 4z"/>
<path d="M14925 8965 c-35 -34 -31 -58 15 -95 22 -17 40 -35 40 -39 0 -4 -22
-33 -50 -66 -28 -33 -50 -69 -50 -82 0 -46 81 -58 137 -20 47 32 59 66 40 120
l-14 43 33 37 c19 20 34 45 34 55 0 25 -36 62 -60 62 -24 0 -26 -22 -5 -40 20
-17 19 -30 -7 -57 l-22 -23 -33 32 c-30 29 -32 33 -17 49 17 19 13 49 -6 49
-6 0 -22 -11 -35 -25z m95 -220 c0 -26 -42 -65 -71 -65 -27 0 -24 11 17 58 38
44 54 46 54 7z"/>
<path d="M12933 8969 c-26 -9 -47 -45 -39 -65 8 -21 37 -17 43 6 7 26 29 26
44 -1 18 -34 -41 -143 -90 -168 -52 -27 -156 -165 -149 -199 7 -34 32 -20 107
59 86 91 85 91 90 -16 3 -73 14 -95 46 -95 29 0 35 30 10 50 -9 8 -15 30 -15
59 0 25 -6 64 -14 85 -13 37 -12 42 9 77 53 82 67 147 41 181 -18 24 -57 37
-83 27z"/>
<path d="M9902 8947 c-26 -27 -27 -40 -8 -56 12 -10 17 -8 27 10 11 22 12 22
25 4 35 -47 8 -159 -54 -224 -48 -51 -72 -108 -51 -122 18 -11 47 8 85 59 l31
40 21 -36 c27 -48 77 -96 91 -88 16 10 13 32 -6 47 -9 8 -32 38 -50 67 -33 51
-34 55 -23 100 21 90 14 168 -18 205 -21 23 -44 21 -70 -6z"/>
<path d="M9310 8947 c-14 -7 -26 -23 -28 -35 -5 -32 24 -40 49 -13 23 25 42
27 62 6 23 -22 10 -53 -50 -114 -57 -59 -61 -84 -16 -80 71 5 83 1 83 -31 0
-20 -9 -38 -26 -53 -38 -33 -104 -67 -147 -74 -32 -5 -38 -9 -35 -27 3 -18 9
-20 38 -18 41 4 140 55 180 92 55 51 51 123 -8 150 l-32 15 26 30 c47 54 57
110 26 138 -24 22 -91 30 -122 14z"/>
<path d="M12414 8935 c-20 -20 -23 -28 -14 -45 14 -25 40 -26 47 -1 6 23 29
35 39 20 3 -5 -15 -31 -40 -56 -25 -25 -46 -51 -46 -58 0 -7 13 -18 30 -25 16
-7 35 -19 42 -27 11 -13 7 -20 -22 -45 -19 -15 -60 -36 -90 -45 -69 -21 -78
-29 -59 -48 13 -14 21 -13 70 4 140 48 187 115 123 175 l-27 24 32 38 c17 21
31 48 31 61 0 54 -72 72 -116 28z"/>
<path d="M8570 8930 c-23 -17 -24 -20 -9 -35 15 -16 49 -12 49 6 0 17 18 9 23
-10 5 -22 -25 -78 -55 -102 -28 -22 -15 -39 28 -39 41 0 46 -22 14 -63 -28
-35 -110 -80 -124 -68 -16 14 -39 -3 -34 -25 11 -60 169 12 214 98 20 38 18
64 -7 86 -19 19 -19 22 -5 57 21 49 20 78 -2 98 -24 22 -61 21 -92 -3z"/>
<path d="M9046 8931 c-3 -5 -1 -33 5 -61 8 -38 8 -80 1 -154 -6 -55 -9 -110
-7 -121 2 -11 4 -26 4 -32 1 -7 11 -13 24 -12 12 0 16 3 10 6 -7 2 -13 9 -13
14 0 6 4 8 9 5 13 -8 25 259 15 313 -9 44 -34 66 -48 42z"/>
<path d="M10740 8894 c-56 -38 -62 -63 -25 -96 18 -15 23 -28 19 -45 -12 -46
6 -91 57 -147 68 -75 105 -65 93 24 -9 69 -22 105 -49 130 l-25 24 22 24 c13
14 38 31 56 39 38 16 38 37 0 41 -17 2 -41 -9 -73 -33 -26 -20 -53 -34 -62
-31 -20 8 -6 26 34 42 19 8 33 20 30 27 -6 19 -49 19 -77 1z m87 -201 c7 -18
13 -42 13 -54 0 -21 -1 -21 -19 -5 -45 41 -68 141 -24 105 9 -8 22 -28 30 -46z"/>
<path d="M10492 8836 c-15 -79 -15 -268 -1 -319 7 -28 15 -37 27 -35 10 2 17
12 16 26 0 12 -1 58 -2 103 -2 68 -5 80 -17 75 -18 -7 -20 10 -2 21 6 4 12 26
13 48 1 22 5 64 9 93 7 48 6 52 -12 52 -16 0 -22 -11 -31 -64z"/>
<path d="M11097 8757 c-8 -21 10 -32 48 -29 16 2 44 -2 62 -7 22 -6 37 -6 48
3 28 20 -6 38 -84 44 -56 4 -69 2 -74 -11z"/>
<path d="M12594 8625 c-8 -21 3 -45 20 -45 16 0 31 34 21 50 -9 15 -35 12 -41
-5z"/>
<path d="M8763 8623 c-7 -2 -13 -16 -13 -29 0 -30 36 -34 45 -4 10 32 -3 45
-32 33z"/>
<path d="M13602 8576 c-25 -32 -24 -81 1 -81 13 0 23 13 33 40 22 64 3 87 -34
41z"/>
<path d="M9613 8563 c-18 -7 -16 -50 3 -57 23 -9 24 -8 35 21 12 33 -5 50 -38
36z"/>
<path d="M10081 8536 c-7 -8 -8 -17 -3 -20 6 -3 15 1 21 8 7 8 8 17 3 20 -6 3
-15 -1 -21 -8z"/>
<path d="M9802 7763 c1054 -2 2782 -2 3840 0 1058 1 195 2 -1917 2 -2112 0
-2977 -1 -1923 -2z"/>
<path d="M9797 7073 c1058 -2 2788 -2 3845 0 1058 1 193 2 -1922 2 -2115 0
-2980 -1 -1923 -2z"/>
<path d="M9797 6383 c1057 -2 2789 -2 3850 0 1060 1 196 2 -1922 2 -2117 0
-2985 -1 -1928 -2z"/>
<path d="M9797 5693 c1058 -2 2788 -2 3845 0 1058 1 193 2 -1922 2 -2115 0
-2980 -1 -1923 -2z"/>
<path d="M9802 5003 c1054 -2 2782 -2 3840 0 1058 1 195 2 -1917 2 -2112 0
-2977 -1 -1923 -2z"/>
<path d="M9802 3613 c1054 -2 2782 -2 3840 0 1058 1 195 2 -1917 2 -2112 0
-2977 -1 -1923 -2z"/>
<path d="M9797 2923 c1058 -2 2788 -2 3845 0 1058 1 193 2 -1922 2 -2115 0
-2980 -1 -1923 -2z"/>
<path d="M9797 2233 c1057 -2 2789 -2 3850 0 1060 1 196 2 -1922 2 -2117 0
-2985 -1 -1928 -2z"/>
<path d="M9797 1543 c1058 -2 2788 -2 3845 0 1058 1 193 2 -1922 2 -2115 0
-2980 -1 -1923 -2z"/>
<path d="M9802 853 c1054 -2 2782 -2 3840 0 1058 1 195 2 -1917 2 -2112 0
-2977 -1 -1923 -2z"/>
</g>
</svg>
