<?xml version="1.0" standalone="no"?>
<!DOCTYPE svg PUBLIC "-//W3C//DTD SVG 20010904//EN"
 "http://www.w3.org/TR/2001/REC-SVG-20010904/DTD/svg10.dtd">
<svg version="1.0" xmlns="http://www.w3.org/2000/svg"
 width="1618.000000pt" height="1214.000000pt" viewBox="0 0 1618.000000 1214.000000"
 preserveAspectRatio="xMidYMid meet">

<g transform="translate(0.000000,1214.000000) scale(0.100000,-0.100000)"
fill="#000000" stroke="none">
<path d="M630 6040 l0 -5190 3310 0 3310 0 0 5190 0 5190 -3310 0 -3310 0 0
-5190z m6610 0 l0 -5180 -3300 0 -3300 0 0 5180 0 5180 3300 0 3300 0 0 -5180z"/>
<path d="M5777 10945 c-4 -8 -2 -17 2 -20 5 -2 12 -47 15 -97 18 -254 42 -417
63 -425 26 -10 35 11 24 53 -11 42 -28 180 -36 297 -13 169 -21 207 -49 207
-8 0 -16 -7 -19 -15z"/>
<path d="M5934 10936 c-3 -14 -4 -32 -1 -40 3 -8 7 -57 8 -108 1 -51 5 -120
10 -153 4 -33 11 -84 14 -113 15 -139 34 -191 64 -173 10 7 11 15 2 42 -22 66
-49 308 -50 442 0 52 -5 87 -11 87 -5 0 -10 5 -10 11 0 5 5 7 11 3 7 -4 10 -1
7 7 -8 25 -37 22 -44 -5z"/>
<path d="M5136 10911 c-4 -5 -2 -20 3 -33 5 -12 12 -48 16 -78 4 -29 15 -92
24 -140 13 -62 15 -97 8 -129 -8 -40 -5 -72 18 -165 5 -23 25 -37 38 -29 5 3
7 53 5 114 -4 95 -3 106 9 89 8 -11 31 -29 51 -39 67 -35 83 -61 93 -150 4
-45 11 -90 14 -102 9 -26 41 -21 38 6 -1 11 -5 54 -9 95 -9 102 -31 141 -98
179 -30 17 -56 37 -59 44 -11 30 8 81 64 173 18 29 18 33 3 45 -14 12 -20 9
-40 -16 -14 -17 -37 -49 -52 -72 -15 -24 -29 -43 -32 -43 -3 0 -11 33 -18 73
-33 184 -34 187 -53 187 -10 0 -20 -4 -23 -9z m54 -167 c0 -8 -5 -12 -10 -9
-6 4 -8 11 -5 16 9 14 15 11 15 -7z"/>
<path d="M2497 10831 c-102 -18 -130 -32 -110 -52 9 -9 26 -9 69 0 86 17 92
15 112 -26 9 -21 20 -40 25 -41 4 -2 5 -7 3 -11 -3 -4 4 -43 16 -87 11 -43 21
-88 22 -99 7 -54 38 -135 52 -135 8 0 17 6 20 14 7 19 -26 116 -40 116 -8 0
-8 2 0 8 9 5 4 38 -17 119 -15 62 -33 122 -39 134 -7 11 -9 24 -5 27 9 9 156
11 150 2 -6 -11 41 -19 56 -10 21 14 4 33 -42 46 -59 18 -152 16 -272 -5z"/>
<path d="M4011 10826 c-8 -9 -8 -22 -1 -42 8 -25 24 -113 34 -189 1 -11 -2
-26 -8 -34 -7 -9 -6 -16 5 -25 9 -6 30 -52 47 -101 18 -53 36 -90 44 -90 22 0
20 39 -6 113 l-24 71 21 3 c12 2 43 -7 69 -19 61 -29 98 -30 98 -3 0 11 -7 20
-15 20 -9 0 -33 9 -55 20 -22 11 -59 20 -84 20 l-44 0 -12 73 c-6 39 -13 90
-17 112 -11 78 -28 101 -52 71z"/>
<path d="M4250 10810 c-15 -27 6 -126 32 -152 10 -10 18 -24 18 -30 0 -9 -4
-8 -10 2 -6 9 -10 10 -10 3 0 -6 5 -15 10 -18 6 -3 10 -17 10 -31 0 -25 7 -28
33 -18 13 5 12 16 -9 77 -14 40 -28 96 -32 126 -8 59 -24 75 -42 41z"/>
<path d="M2175 10778 c-20 -17 -43 -44 -51 -60 -14 -27 -14 -32 0 -54 9 -13
29 -27 44 -30 15 -4 29 -10 32 -14 3 -3 26 -18 52 -33 52 -30 85 -71 94 -116
6 -27 3 -31 -22 -38 -16 -4 -63 -6 -104 -4 -160 8 -184 7 -188 -9 -2 -13 16
-18 90 -28 121 -16 181 -15 223 3 51 21 60 54 34 116 -26 59 -68 98 -152 140
-34 17 -64 33 -66 35 -2 2 7 19 20 39 29 42 59 45 88 9 21 -27 51 -27 51 -1 0
15 -44 66 -57 68 -4 0 -18 2 -30 5 -15 2 -35 -7 -58 -28z"/>
<path d="M3043 10768 c3 -13 23 -70 45 -128 40 -105 62 -200 46 -200 -17 1
-51 36 -98 100 -75 102 -167 200 -189 200 -17 0 -18 -5 -13 -52 3 -29 9 -119
12 -200 6 -132 8 -148 24 -148 14 0 18 12 23 65 7 73 3 185 -8 228 -5 17 -3
27 4 27 6 0 11 -5 11 -11 0 -7 17 -31 38 -54 20 -23 57 -70 83 -106 51 -72
108 -111 137 -93 31 20 21 132 -21 244 -19 52 -38 107 -41 123 -5 21 -12 27
-32 27 -22 0 -26 -4 -21 -22z"/>
<path d="M5510 10621 c-27 -26 -31 -36 -25 -64 5 -24 4 -28 -4 -17 -8 11 -11
0 -11 -43 0 -92 40 -147 108 -147 41 0 100 24 108 44 3 9 10 13 15 10 5 -3 9
2 9 10 0 26 -15 26 -65 1 -61 -32 -80 -31 -110 1 -33 35 -34 67 -2 55 12 -5
32 -5 45 0 22 8 82 92 82 115 0 25 -36 54 -77 60 -38 6 -45 3 -73 -25z m100
-35 c0 -6 -9 -25 -20 -43 -16 -26 -25 -32 -50 -30 -20 1 -29 6 -25 15 3 8 5
20 5 28 0 26 36 52 64 47 14 -3 26 -10 26 -17z"/>
<path d="M4885 10606 c-18 -18 -23 -30 -17 -44 9 -24 59 -67 89 -76 35 -11 65
-54 53 -76 -14 -26 -45 -33 -86 -20 -30 10 -38 10 -45 -1 -7 -12 -9 -12 -9 0
0 8 -2 12 -5 9 -10 -10 6 -35 31 -47 32 -14 86 -14 118 1 31 13 49 68 36 103
-9 24 -69 75 -88 75 -6 0 -20 10 -32 22 l-20 22 25 14 c30 15 28 36 -3 40 -13
2 -32 -7 -47 -22z"/>
<path d="M3327 10613 c-17 -16 -4 -33 34 -43 22 -6 46 -9 52 -7 7 2 29 -2 51
-9 54 -19 76 -18 76 5 0 19 -25 28 -138 51 -62 12 -67 12 -75 3z"/>
<path d="M4599 10575 c-47 -25 -61 -114 -23 -142 24 -17 25 -17 66 11 l35 24
16 -33 c17 -36 60 -54 83 -34 11 9 11 15 3 25 -6 8 -15 11 -20 9 -10 -7 -35
30 -50 75 -9 26 -10 35 -1 38 17 5 15 29 -4 36 -27 10 -78 6 -105 -9z m47 -53
c-8 -16 -22 -35 -31 -42 -15 -12 -16 -11 -13 15 2 19 12 34 28 42 14 7 26 13
28 13 1 0 -4 -13 -12 -28z"/>
<path d="M4323 10554 c-36 -15 76 -201 113 -187 21 8 17 22 -16 62 -49 58 -51
61 -43 61 4 0 2 5 -5 12 -7 7 -12 22 -12 35 0 22 -11 27 -37 17z"/>
<path d="M4131 9713 c-48 -74 -49 -79 -33 -98 9 -11 10 -14 2 -7 -22 19 -26
15 -44 -32 l-17 -45 -64 2 c-49 2 -61 5 -53 15 6 6 14 12 19 12 26 0 58 21 53
35 -8 20 -63 20 -70 0 -4 -8 -10 -13 -15 -10 -10 7 -102 -81 -118 -112 -6 -12
-11 -40 -11 -62 0 -43 26 -121 41 -121 5 0 9 -7 9 -15 0 -8 13 -24 28 -35 l29
-21 -33 -82 c-52 -129 -54 -176 -9 -183 11 -2 15 8 15 35 0 39 26 124 54 178
13 27 23 32 68 38 66 9 113 33 157 79 29 29 35 45 39 90 4 50 2 58 -24 83 -16
16 -40 35 -54 44 l-25 16 35 74 c19 41 40 80 47 86 26 28 55 85 49 98 -10 28
-25 15 -75 -62z m-124 -228 c5 -3 -78 -190 -92 -209 -17 -23 -28 -16 -62 41
-20 35 -27 61 -28 100 0 59 11 73 57 73 15 0 29 4 32 9 4 6 72 -4 93 -14z m89
-35 c89 -56 24 -175 -112 -204 -24 -5 -33 -3 -38 9 -3 9 0 18 8 21 7 3 33 48
56 100 24 52 45 94 48 94 2 0 19 -9 38 -20z"/>
<path d="M4409 9696 c-71 -19 -114 -48 -114 -77 0 -32 36 -38 50 -8 11 25 56
43 133 54 43 6 53 4 58 -9 11 -30 -27 -109 -74 -153 -24 -22 -41 -46 -38 -52
9 -14 43 -14 51 -1 9 14 93 11 135 -4 l35 -13 -46 -45 c-84 -82 -274 -133
-360 -98 -26 11 -32 11 -40 -1 -13 -21 23 -47 79 -55 88 -13 219 27 323 98
106 73 106 143 -2 163 -59 11 -62 16 -40 66 10 24 22 58 26 76 14 66 -59 91
-176 59z"/>
<path d="M2897 9673 c-12 -11 -8 -20 27 -62 19 -23 43 -59 52 -81 10 -21 20
-37 23 -35 3 1 6 -7 7 -18 0 -12 4 -34 8 -49 8 -26 6 -28 -22 -28 -47 0 -84
-17 -80 -38 4 -18 10 -18 84 -7 l40 7 14 -74 c8 -40 13 -80 11 -89 -2 -20 20
-30 39 -19 13 8 9 50 -17 166 -3 16 4 24 36 36 25 10 41 23 41 33 0 14 -7 16
-48 10 l-48 -6 -13 43 c-17 56 -58 134 -95 181 -28 36 -45 44 -59 30z"/>
<path d="M1725 9571 c-64 -29 -135 -98 -135 -130 0 -41 32 -62 175 -116 134
-50 163 -64 203 -99 66 -58 83 -180 30 -219 -78 -58 -343 -13 -384 64 -14 29
-37 38 -49 19 -11 -18 25 -69 68 -94 93 -54 262 -77 349 -47 46 15 85 60 94
108 15 81 -52 200 -137 244 -44 22 -265 109 -278 109 -5 0 -14 7 -21 15 -11
13 -8 21 16 46 15 16 53 41 82 56 45 22 65 26 125 24 40 -1 74 -6 77 -9 3 -4
25 -20 49 -35 32 -21 46 -26 54 -18 18 18 -3 42 -63 74 -45 23 -64 27 -134 27
-57 0 -93 -6 -121 -19z m215 -291 c0 -5 -7 -10 -16 -10 -8 0 -12 5 -9 10 3 6
10 10 16 10 5 0 9 -4 9 -10z"/>
<path d="M2531 9512 c-6 -11 -5 -25 5 -44 24 -46 48 -33 38 20 -7 36 -29 48
-43 24z"/>
<path d="M2186 9409 c-15 -12 -25 -24 -22 -27 3 -3 -3 -11 -14 -19 -22 -15
-40 -71 -40 -123 0 -55 64 -300 101 -387 18 -42 42 -56 51 -30 5 12 -38 210
-51 237 -4 8 -9 39 -10 68 -2 45 0 52 16 52 30 0 110 56 127 89 21 40 20 70
-3 105 -38 57 -107 73 -155 35z m105 -48 c26 -26 28 -32 18 -60 -12 -33 -64
-71 -97 -71 -19 0 -34 -13 -38 -32 -1 -5 -2 -11 -3 -15 -1 -5 -8 14 -16 42 -7
27 -10 52 -6 55 4 3 13 20 20 38 15 35 54 72 78 72 8 0 28 -13 44 -29z m-107
-240 c3 -5 -5 -8 -19 -7 -14 0 -25 4 -25 9 0 10 38 9 44 -2z"/>
<path d="M3414 9395 c-4 -9 -3 -20 2 -24 15 -13 98 -31 107 -22 14 14 -3 39
-31 45 -15 3 -37 8 -49 12 -16 4 -25 1 -29 -11z"/>
<path d="M2452 9382 c-52 -8 -65 -100 -21 -156 25 -32 69 -36 69 -6 0 11 -7
20 -15 20 -20 0 -37 35 -33 68 2 18 10 28 27 32 50 11 25 51 -27 42z"/>
<path d="M2730 9354 c-15 -37 -12 -137 4 -159 17 -24 52 -13 41 13 -4 9 -10
39 -13 66 -7 65 15 59 43 -12 25 -61 38 -77 59 -69 17 7 22 47 7 47 -5 0 -17
20 -27 45 -32 84 -94 122 -114 69z"/>
<path d="M2603 9294 c-6 -17 21 -84 34 -84 5 0 14 4 21 8 14 10 6 42 -11 42
-6 0 -7 3 -4 6 8 9 -11 44 -24 44 -5 0 -12 -7 -16 -16z"/>
<path d="M5073 8385 c-7 -19 2 -93 21 -163 l13 -52 -43 0 c-58 0 -96 -16 -92
-38 3 -15 13 -17 74 -14 68 4 71 3 77 -20 10 -35 8 -76 -3 -83 -17 -11 -11
-31 13 -42 42 -19 51 -3 43 76 -6 71 -6 71 19 71 14 0 25 6 25 13 0 8 3 8 9
-2 11 -17 45 -7 38 12 -2 7 -23 13 -48 14 -24 0 -49 2 -55 2 -13 1 -49 136
-46 175 2 16 0 37 -3 47 -8 23 -33 25 -42 4z"/>
<path d="M4560 8225 c-28 -34 16 -84 47 -53 14 14 15 22 5 43 -13 28 -33 32
-52 10z"/>
<path d="M5485 8203 c-40 -8 -124 -45 -135 -59 -7 -7 -9 -22 -5 -33 7 -22 30
-31 165 -59 47 -10 84 -23 83 -28 -2 -16 -76 -36 -130 -36 -45 0 -53 -2 -53
-18 0 -26 53 -35 122 -21 73 16 118 44 118 76 0 35 -29 50 -145 75 -54 11
-101 22 -102 24 -8 7 95 40 120 38 17 -2 30 3 34 14 10 27 -21 39 -72 27z"/>
<path d="M3305 8165 c-191 -57 -222 -71 -279 -127 -37 -36 -54 -60 -52 -73 2
-11 9 -19 15 -17 6 1 10 -4 9 -10 -2 -7 5 -12 14 -12 10 1 16 -3 15 -9 -1 -6
16 -17 38 -25 106 -40 129 -52 116 -65 -6 -6 -42 -14 -79 -17 -51 -4 -67 -9
-67 -20 0 -10 10 -15 28 -15 15 1 27 -3 27 -8 0 -11 69 -2 104 14 13 6 29 22
34 34 15 33 -15 69 -76 91 -89 32 -132 53 -132 63 0 13 70 58 104 67 14 3 32
17 41 31 9 14 19 22 22 20 2 -3 32 5 66 18 34 12 81 26 105 30 30 5 42 12 42
23 0 14 2 14 9 3 6 -9 11 -10 15 -2 10 15 -2 31 -22 30 -9 0 -53 -11 -97 -24z"/>
<path d="M4132 8095 c-76 -33 -172 -139 -172 -189 0 -10 -9 -20 -21 -23 -17
-5 -20 -11 -14 -32 3 -14 10 -75 15 -136 9 -120 15 -145 35 -145 19 0 21 6 36
76 11 54 10 68 -5 118 -10 30 -16 61 -14 67 2 6 33 11 73 12 58 2 78 7 116 31
63 40 103 105 96 154 -12 70 -73 98 -145 67z m94 -50 c14 -21 14 -30 4 -55
-31 -75 -151 -132 -211 -100 -18 10 -18 12 -3 43 9 18 26 42 38 55 11 13 21
27 21 30 0 4 3 6 7 5 4 -2 26 9 50 22 54 31 73 31 94 0z"/>
<path d="M4771 8069 c-46 -46 -86 -122 -77 -145 10 -25 38 -11 51 25 6 18 26
51 45 74 33 40 34 40 51 19 9 -12 20 -41 23 -66 7 -44 29 -66 43 -43 9 14 6
50 -8 94 -10 31 -60 83 -80 83 -5 0 -27 -18 -48 -41z"/>
<path d="M4401 8005 c-45 -49 -50 -72 -22 -106 15 -18 28 -23 60 -22 61 3 80
11 87 39 5 20 -1 33 -26 59 -21 21 -27 34 -19 37 19 6 3 38 -19 38 -11 0 -38
-20 -61 -45z m57 -51 c32 -22 27 -34 -13 -34 -27 0 -35 4 -35 18 0 35 15 40
48 16z"/>
<path d="M4595 8011 c-14 -44 30 -126 61 -114 18 7 18 27 -1 43 -8 7 -15 24
-15 39 0 44 -33 68 -45 32z"/>
<path d="M4433 7348 c-32 -57 -54 -114 -47 -121 2 -2 -2 -10 -10 -16 -11 -9
-24 -10 -52 -2 -20 6 -41 8 -46 5 -12 -8 -10 -32 4 -36 9 -3 2 -17 -19 -42
-47 -53 -53 -84 -19 -113 15 -13 33 -23 41 -23 9 0 14 -12 13 -40 0 -22 -5
-40 -10 -40 -5 0 -8 -19 -6 -42 2 -35 7 -44 25 -46 20 -3 22 1 22 50 0 85 12
105 68 114 67 9 79 17 59 37 -12 11 -26 14 -52 10 l-37 -6 7 39 c13 64 21 74
57 64 59 -17 76 -49 40 -72 -15 -9 -17 -15 -9 -25 6 -7 16 -13 23 -13 16 0 55
47 55 66 0 25 -49 71 -89 83 l-40 12 19 49 c11 28 31 68 46 91 14 22 23 47 20
55 -11 28 -35 13 -63 -38z m-88 -220 c-2 -18 -9 -47 -16 -64 -11 -29 -15 -31
-36 -21 -27 12 -29 24 -8 54 8 12 12 23 7 26 -4 2 -2 3 5 1 6 -1 19 6 29 17
23 25 24 25 19 -13z"/>
<path d="M5078 7370 c-15 -11 -32 -20 -38 -20 -7 0 -30 -14 -51 -31 -38 -30
-63 -32 -53 -4 3 8 14 17 25 20 26 9 25 45 -1 45 -46 0 -85 -70 -61 -109 6
-10 3 -23 -10 -40 -19 -27 -25 -51 -35 -136 -6 -59 19 -109 63 -126 38 -14 68
2 93 50 29 59 27 124 -9 186 l-29 50 37 25 c20 13 54 34 76 46 23 13 40 29 40
40 0 26 -18 27 -47 4z m-108 -195 c0 -7 6 -18 14 -24 15 -12 9 -55 -14 -112
-14 -32 -40 -38 -60 -14 -15 18 -8 142 10 175 11 21 12 21 31 4 10 -9 19 -23
19 -29z"/>
<path d="M1930 7339 c-16 -23 -45 -75 -65 -115 -36 -78 -55 -90 -73 -50 -24
52 -78 51 -106 -2 -8 -16 -12 -39 -9 -52 4 -15 1 -26 -11 -32 -32 -18 -17 -84
32 -135 l29 -32 -29 -83 c-31 -87 -33 -131 -7 -136 12 -2 18 8 23 38 11 67 56
170 72 163 33 -13 116 20 161 63 41 39 45 47 39 75 -8 41 -31 68 -73 86 -18 7
-33 18 -33 24 0 6 -7 8 -16 5 -9 -3 -12 -2 -9 5 4 6 13 8 20 6 7 -3 21 16 35
51 13 32 36 73 52 93 15 20 28 44 28 53 0 29 -29 17 -60 -25z m-176 -185 c3
-9 6 -25 6 -36 0 -16 5 -19 25 -16 14 3 25 4 25 1 0 -13 -60 -133 -67 -133
-16 1 -42 49 -44 81 -2 35 27 119 41 119 4 0 11 -7 14 -16z m164 -80 c33 -22
28 -58 -13 -89 -34 -27 -121 -48 -114 -28 2 6 18 40 34 76 32 71 39 74 93 41z"/>
<path d="M4644 7328 c-13 -20 -6 -160 8 -169 8 -6 9 -9 1 -9 -8 0 -10 -22 -6
-77 7 -102 22 -148 48 -148 21 0 22 2 6 75 -5 25 -12 109 -16 187 -6 104 -11
143 -21 147 -7 3 -16 0 -20 -6z"/>
<path d="M3892 7269 c-24 -12 -50 -33 -59 -46 -15 -22 -15 -26 0 -41 16 -15
19 -13 52 22 32 36 64 45 72 21 6 -20 -72 -135 -136 -200 -52 -52 -62 -67 -52
-79 6 -7 21 -12 31 -9 21 6 204 -24 230 -37 20 -10 40 -2 40 16 0 19 -36 32
-137 51 l-83 16 22 31 c13 17 30 38 40 46 29 25 88 132 88 160 0 32 -26 70
-48 70 -9 0 -36 -10 -60 -21z"/>
<path d="M2164 7225 c-10 -25 6 -35 52 -33 24 0 47 -2 52 -6 4 -5 -19 -31 -51
-59 -31 -29 -57 -58 -57 -64 0 -7 17 -21 39 -32 90 -46 44 -108 -76 -104 -54
2 -67 -9 -41 -35 33 -33 195 9 192 50 -1 10 2 15 7 12 5 -3 9 9 9 26 0 23 -9
40 -31 61 l-31 29 46 50 c46 50 57 85 34 108 -18 18 -137 16 -144 -3z"/>
<path d="M2782 7207 c-21 -25 -33 -114 -29 -213 6 -114 11 -134 39 -134 18 0
20 4 13 33 -15 67 -15 204 1 256 14 49 13 71 -5 71 -5 0 -13 -6 -19 -13z"/>
<path d="M3031 7196 c-16 -19 -6 -36 20 -36 35 0 59 -19 59 -46 0 -24 -12 -38
-69 -82 -28 -22 -20 -47 12 -38 21 5 117 -11 117 -20 0 -19 -28 -50 -68 -75
-47 -30 -86 -37 -97 -18 -11 16 -28 5 -30 -20 -3 -33 31 -46 82 -32 50 14 128
72 149 112 14 27 14 33 0 54 -21 31 -64 41 -82 18 -22 -29 -16 -6 13 48 20 40
24 57 17 76 -17 50 -99 88 -123 59z"/>
<path d="M3265 6890 c-8 -13 24 -60 41 -60 21 0 17 48 -5 60 -24 12 -28 13
-36 0z"/>
<path d="M2330 6882 c0 -24 14 -42 32 -42 29 0 20 44 -9 48 -13 2 -23 -1 -23
-6z"/>
<path d="M4354 6462 c-18 -12 -46 -73 -40 -88 3 -8 2 -14 -3 -14 -5 0 -16 -18
-25 -40 -17 -44 -17 -44 -64 -31 -56 16 -62 8 -78 -100 -6 -40 11 -82 44 -112
19 -17 19 -22 7 -57 -24 -69 -29 -147 -11 -175 9 -14 23 -25 31 -25 11 0 13
12 9 63 -3 37 1 82 9 112 13 49 14 50 65 61 62 14 108 40 135 76 31 41 12 73
-62 106 l-59 26 25 64 c13 35 30 77 38 92 12 22 12 30 2 38 -7 6 -18 8 -23 4z
m-108 -254 c-2 -18 -5 -34 -6 -35 -2 -2 -3 -6 -5 -10 -1 -5 -6 -19 -11 -31 -9
-22 -11 -22 -24 -7 -18 21 -18 78 -1 99 7 9 22 16 33 16 16 0 18 -5 14 -32z
m109 -9 c25 -12 45 -27 45 -34 0 -21 -53 -54 -96 -61 -37 -5 -39 -4 -39 20 0
14 3 26 8 26 4 0 7 4 7 9 0 15 19 61 25 61 3 0 25 -9 50 -21z"/>
<path d="M4942 6386 c-23 -30 -45 -61 -48 -70 -3 -8 -12 -12 -20 -9 -8 3 -14
0 -14 -6 0 -6 -5 -11 -11 -11 -8 0 -8 4 -1 13 9 10 6 18 -11 32 l-22 19 37 14
c40 16 56 39 32 49 -20 7 -84 -18 -97 -38 -17 -27 1 -67 43 -94 39 -24 39 -25
33 -74 -8 -67 2 -98 37 -116 38 -20 73 -5 95 40 24 51 19 74 -25 117 -46 43
-46 45 15 117 19 24 35 49 35 57 0 31 -37 11 -78 -40z m16 -203 c4 -39 -22
-63 -44 -41 -11 11 -13 26 -8 57 6 40 8 41 28 28 12 -8 22 -27 24 -44z"/>
<path d="M4581 6366 c-9 -10 -9 -31 -1 -77 5 -35 10 -106 10 -157 0 -108 17
-162 51 -162 18 0 20 4 14 23 -4 12 -11 74 -16 137 -17 234 -19 250 -38 250
-5 0 -14 -6 -20 -14z"/>
<path d="M3881 6349 c-12 -5 -20 -13 -16 -19 3 -6 -1 -7 -10 -4 -19 8 -65 -21
-65 -42 0 -22 27 -28 46 -9 17 16 56 35 75 35 17 0 9 -47 -16 -94 -13 -25 -21
-46 -18 -46 4 0 0 -6 -9 -12 -9 -7 -35 -38 -57 -68 -56 -75 -47 -83 91 -83
145 1 148 1 148 18 0 9 -6 12 -15 9 -8 -4 -15 -1 -15 5 0 6 -35 11 -90 13
l-90 3 49 72 c27 39 57 94 66 123 15 46 15 53 2 74 -19 28 -44 36 -76 25z m9
-319 c0 -5 -2 -10 -4 -10 -3 0 -8 5 -11 10 -3 6 -1 10 4 10 6 0 11 -4 11 -10z"/>
<path d="M1740 6273 c-23 -43 -48 -92 -55 -110 -11 -25 -18 -30 -35 -26 -13 4
-26 0 -31 -8 -6 -10 -9 -10 -9 -1 0 6 -4 12 -10 12 -16 0 -12 -30 5 -35 48
-15 48 -15 35 -30 -6 -8 -8 -20 -4 -26 4 -7 3 -9 -3 -6 -5 4 -21 -14 -35 -39
l-25 -45 -36 40 c-21 24 -37 51 -37 65 0 25 41 66 65 66 14 0 27 25 18 34 -12
12 -46 6 -79 -14 -41 -26 -59 -75 -44 -116 13 -33 69 -96 81 -89 18 12 -2 -47
-44 -130 -56 -110 -63 -137 -43 -154 20 -17 36 -6 36 24 0 13 22 65 49 117
l49 93 56 -3 c92 -5 194 36 179 73 -4 11 -1 13 10 9 21 -8 33 36 18 64 -6 11
-38 33 -70 49 -33 15 -60 34 -60 42 -1 17 55 125 86 169 26 34 23 52 -7 52
-13 0 -31 -24 -60 -77z m15 -221 c60 -33 65 -56 16 -89 -41 -28 -158 -34 -158
-8 0 8 3 12 7 10 4 -2 13 8 19 23 15 33 54 92 61 92 3 0 28 -13 55 -28z"/>
<path d="M2006 6244 c-20 -19 -21 -58 -2 -73 11 -9 15 -8 21 6 5 10 7 21 7 26
-1 4 3 7 8 7 19 0 10 -28 -25 -80 -50 -75 -46 -88 23 -65 60 21 122 12 122
-19 0 -24 -93 -80 -135 -81 -33 -1 -41 -5 -43 -23 -2 -13 3 -25 13 -28 20 -8
95 13 95 26 0 6 3 9 8 8 11 -3 65 28 84 48 50 57 23 109 -62 120 -32 4 -49 11
-47 18 17 41 18 46 8 46 -6 0 -11 8 -10 18 0 10 3 12 6 5 7 -18 23 -16 23 2 0
21 -36 55 -59 55 -11 0 -27 -7 -35 -16z"/>
<path d="M3109 6218 c-19 -18 -39 -42 -45 -53 -10 -17 -14 -18 -25 -6 -11 10
-11 15 -1 18 23 9 13 33 -14 33 -73 0 -84 -46 -21 -84 l44 -25 7 -86 c7 -101
26 -155 54 -155 24 0 53 31 55 59 1 11 5 21 9 21 11 0 10 54 -2 85 -5 14 -23
40 -40 58 -16 18 -30 39 -30 48 0 22 43 67 75 79 32 12 28 34 -7 38 -18 2 -35
-7 -59 -30z m16 -202 c13 -31 10 -82 -6 -92 -9 -5 -14 14 -24 90 -7 55 8 56
30 2z"/>
<path d="M2684 6170 c-47 -28 -76 -66 -72 -92 4 -31 42 -32 46 -1 4 27 47 63
74 63 15 0 18 -5 12 -22 -14 -47 -38 -85 -96 -150 -81 -92 -90 -161 -21 -161
52 0 184 34 190 49 11 30 -6 30 -167 -2 -18 -4 -30 -2 -30 4 0 6 29 44 65 85
118 134 138 233 51 242 -13 2 -37 -5 -52 -15z m1 -200 c3 -5 1 -10 -4 -10 -6
0 -11 5 -11 10 0 6 2 10 4 10 3 0 8 -4 11 -10z"/>
<path d="M2264 5931 c3 -5 -1 -11 -9 -15 -19 -7 -19 -52 0 -60 16 -6 35 22 35
52 0 11 -7 23 -16 26 -8 3 -13 2 -10 -3z"/>
<path d="M3324 5895 c-8 -20 4 -35 27 -35 23 0 26 35 3 44 -22 8 -24 8 -30 -9z"/>
<path d="M9802 11223 c1054 -2 2782 -2 3840 0 1058 1 195 2 -1917 2 -2112 0
-2977 -1 -1923 -2z"/>
<path d="M12290 11119 c-91 -15 -166 -28 -167 -29 -2 0 -3 -8 -3 -17 0 -14 -2
-15 -9 -5 -10 17 -57 6 -66 -16 -10 -27 10 -33 56 -17 50 18 373 74 434 76 22
0 34 3 27 6 -10 4 -10 8 -1 19 10 12 3 14 -40 14 -39 0 -50 -3 -45 -12 6 -10
4 -10 -7 -2 -10 8 -56 4 -179 -17z"/>
<path d="M12201 10990 c-9 -5 -11 -18 -7 -36 4 -16 0 -67 -9 -114 -8 -47 -15
-104 -15 -127 0 -31 -5 -45 -19 -53 -28 -15 -138 -13 -144 3 -4 9 -8 8 -16 -3
-17 -23 -14 -29 27 -45 39 -17 58 -16 272 18 64 10 75 15 75 32 0 22 -5 23
-97 10 l-58 -7 0 28 c1 16 7 65 15 109 26 144 17 211 -24 185z"/>
<path d="M13899 10973 c-7 -90 -28 -193 -49 -238 -36 -78 -14 -96 52 -43 l40
31 17 -21 c22 -29 61 -42 89 -29 29 14 23 31 -14 37 -24 4 -30 10 -32 38 -4
40 -23 49 -54 28 -12 -9 -25 -16 -28 -16 -3 0 -5 24 -5 54 0 30 3 49 7 43 15
-23 8 13 -7 43 -14 27 -14 30 -1 30 9 0 13 -6 10 -14 -3 -8 0 -17 6 -21 8 -5
10 6 8 36 -2 32 -8 45 -20 47 -10 2 -18 0 -19 -5z"/>
<path d="M10531 10921 c-29 -23 -35 -36 -35 -66 0 -25 7 -43 20 -54 25 -21 54
-66 54 -86 0 -8 -11 -21 -25 -27 -20 -9 -28 -8 -44 6 -34 31 -58 -6 -25 -38
24 -25 81 -20 109 9 37 36 33 82 -10 132 -45 53 -45 78 0 105 20 11 34 26 32
32 -7 21 -42 16 -76 -13z"/>
<path d="M10201 10893 c-5 -10 -16 -42 -25 -72 -17 -58 -99 -177 -128 -186
-28 -10 -23 -45 6 -45 17 0 36 15 63 48 37 47 39 48 54 29 11 -15 22 -18 41
-14 33 9 111 84 102 99 -4 7 -3 8 4 4 7 -4 12 -19 12 -34 0 -52 11 -72 37 -72
23 0 25 3 18 28 -5 15 -9 59 -9 97 -1 63 -3 70 -21 70 -14 0 -22 -9 -26 -30
-4 -16 -7 -24 -8 -16 0 8 -14 -3 -30 -23 -29 -36 -73 -76 -85 -76 -12 0 -5 37
20 107 15 40 24 79 21 88 -8 20 -34 19 -46 -2z"/>
<path d="M10725 10880 c-51 -33 -78 -105 -59 -155 10 -26 59 -45 116 -45 60 0
84 11 75 34 -5 12 -16 14 -56 9 -67 -8 -106 15 -96 55 7 30 42 72 59 72 6 0
-2 -11 -19 -24 -23 -19 -27 -27 -19 -36 15 -15 43 -6 72 21 30 27 28 63 -3 77
-34 15 -35 15 -70 -8z"/>
<path d="M13544 10885 c-3 -8 -3 -19 1 -25 11 -18 49 -29 63 -17 10 8 8 15 -9
34 -26 26 -47 30 -55 8z"/>
<path d="M10970 10862 c-20 -16 -24 -29 -25 -73 0 -47 2 -54 20 -54 20 0 21 3
24 73 1 20 6 22 61 22 53 0 60 2 60 20 0 12 -7 20 -17 21 -10 0 -36 2 -59 5
-30 4 -46 1 -64 -14z"/>
<path d="M8549 10801 c-41 -41 -37 -67 16 -115 43 -40 58 -77 35 -91 -17 -10
-80 6 -80 21 0 17 -37 19 -43 2 -3 -10 -8 -10 -21 2 -15 12 -17 24 -11 77 9
83 -7 91 -72 34 -30 -27 -50 -38 -56 -32 -15 15 18 59 45 63 33 4 31 42 -2 45
-61 6 -112 -88 -80 -148 10 -18 60 -28 60 -11 0 4 14 15 30 24 l30 17 0 -35
c0 -19 5 -44 10 -55 11 -20 45 -26 55 -9 4 6 14 2 24 -11 12 -15 32 -23 70
-27 44 -4 55 -1 76 18 40 37 33 75 -20 127 -30 28 -45 51 -45 68 0 16 5 23 13
19 18 -6 52 20 43 34 -13 21 -47 13 -77 -17z"/>
<path d="M9308 10793 c-91 -98 -41 -190 64 -118 45 31 48 31 48 1 0 -13 9 -34
19 -47 19 -23 20 -23 38 -6 17 17 17 19 1 31 -12 9 -18 27 -18 55 0 28 -5 44
-15 48 -9 3 -29 18 -45 34 -36 36 -59 37 -92 2z m65 -42 c3 -13 -5 -26 -24
-40 -50 -37 -62 -27 -29 27 22 36 45 42 53 13z"/>
<path d="M13054 10781 c-47 -22 -61 -38 -45 -54 8 -8 20 -6 46 6 53 25 58 21
30 -26 -48 -83 -25 -99 61 -42 29 19 54 35 57 35 2 0 7 -14 11 -30 9 -45 47
-56 102 -30 57 28 67 43 71 101 2 38 -1 51 -13 56 -21 8 -36 -16 -30 -47 5
-30 0 -40 -34 -63 -37 -26 -48 -21 -52 21 -4 44 -28 53 -77 27 -34 -17 -37
-14 -20 16 25 47 -34 63 -107 30z"/>
<path d="M13660 10778 c-12 -13 -25 -32 -30 -43 -8 -21 7 -65 22 -65 4 0 8 -4
8 -10 0 -5 -11 -10 -24 -10 -30 0 -42 -16 -26 -35 27 -33 100 -4 100 39 0 13
-9 31 -20 41 -18 17 -19 20 -5 41 30 47 10 80 -25 42z"/>
<path d="M13500 10678 c-22 -36 -26 -73 -9 -84 15 -9 32 13 48 58 21 63 -6 80
-39 26z"/>
<path d="M9797 10533 c1057 -2 2789 -2 3850 0 1060 1 196 2 -1922 2 -2117 0
-2985 -1 -1928 -2z"/>
<path d="M8934 10452 c-12 -7 -29 -117 -39 -242 -10 -128 -12 -137 -45 -150
-17 -7 -30 -20 -31 -29 0 -9 -3 -11 -5 -4 -8 19 -64 -5 -64 -28 0 -22 31 -26
52 -6 7 6 20 13 28 13 8 1 22 5 31 8 24 10 32 -20 17 -61 -10 -27 -10 -38 1
-55 11 -18 11 -20 -3 -15 -11 5 -16 1 -16 -13 0 -19 -11 -20 -492 -23 -271 -1
232 -3 1118 -5 l1611 -2 -5 -30 c-4 -25 -1 -30 16 -30 13 0 24 10 31 30 l10
30 1706 0 1706 0 -6 -22 c-4 -13 -11 -27 -16 -32 -28 -31 4 -72 45 -56 24 9
38 40 18 40 -5 0 -8 16 -8 35 l1 35 58 0 57 0 -31 -56 c-27 -47 -30 -59 -20
-80 14 -31 37 -40 56 -24 14 11 14 15 -1 31 -16 17 -15 22 17 74 l33 55 405 0
c222 0 402 2 399 5 -3 3 -996 5 -2207 5 l-2201 0 23 46 c17 34 36 53 72 72 62
34 115 101 115 147 0 85 -115 29 -168 -82 -9 -18 -21 -32 -26 -32 -6 1 -16 1
-23 0 -12 -1 -39 -76 -45 -121 l-3 -25 -1103 -3 c-746 -1 -1101 1 -1097 8 4 6
9 47 13 93 l7 82 32 3 c17 2 37 10 43 18 15 17 40 19 40 3 0 -6 8 -9 19 -6 14
3 19 -1 19 -19 0 -13 -6 -24 -13 -24 -13 0 -29 -33 -41 -82 -4 -19 0 -32 15
-47 20 -20 23 -20 50 -6 50 25 86 104 83 179 -2 50 -20 59 -93 47 -35 -5 -83
-12 -107 -15 l-43 -4 7 91 c4 51 12 131 18 178 14 105 11 122 -20 101z m16
-77 c0 -8 -4 -15 -9 -15 -13 0 -22 16 -14 24 11 11 23 6 23 -9z m2369 -287
c-16 -31 -40 -58 -63 -70 -18 -10 -18 -9 0 22 17 28 59 70 71 70 2 0 -2 -10
-8 -22z m-2193 -92 c-7 -30 -45 -78 -56 -71 -5 3 4 27 20 54 17 27 31 54 31
62 1 8 3 6 6 -4 3 -10 2 -29 -1 -41z"/>
<path d="M13440 10431 c0 -35 -39 -223 -50 -241 -5 -8 -39 -11 -109 -11 -93 1
-101 -1 -101 -18 0 -27 13 -29 113 -23 97 6 96 6 73 -60 -11 -30 -11 -40 -1
-48 18 -15 42 16 54 68 5 24 11 45 13 47 2 2 34 7 72 11 l69 7 -6 -49 c-3 -27
-9 -75 -13 -106 -6 -50 -4 -58 9 -58 9 0 23 12 31 28 8 15 23 35 35 46 20 18
21 18 38 -13 20 -34 53 -42 53 -13 0 9 -12 35 -26 56 -23 33 -30 37 -56 34
l-31 -5 7 158 c5 112 3 159 -5 164 -17 11 -32 -11 -34 -47 0 -18 -2 -59 -3
-90 l-2 -57 -47 -6 c-27 -4 -56 -9 -67 -12 -16 -5 -18 -1 -11 23 15 60 34 161
37 199 3 35 0 40 -19 43 -20 3 -23 -1 -23 -27z"/>
<path d="M12072 10338 c-7 -7 -12 -21 -12 -32 0 -12 -9 -52 -19 -91 -18 -67
-20 -70 -52 -75 -42 -6 -47 -34 -6 -38 26 -3 27 -5 21 -45 -3 -23 -10 -64 -15
-90 -12 -62 -12 -59 14 -55 20 3 23 12 36 96 13 81 17 92 35 93 85 3 91 5 91
19 0 9 -7 14 -17 12 -10 -2 -18 2 -18 8 0 5 -14 10 -30 10 -34 0 -34 -8 1 120
10 35 15 68 13 72 -8 12 -28 10 -42 -4z"/>
<path d="M11567 10313 c-2 -5 -10 -26 -17 -48 -6 -22 -23 -70 -36 -107 -14
-36 -26 -76 -27 -87 -1 -12 -5 -21 -9 -21 -14 0 -41 -111 -30 -122 18 -18 39
-1 45 34 3 19 23 79 44 134 48 122 67 189 60 209 -7 16 -23 20 -30 8z"/>
<path d="M14291 10157 c-13 -6 -33 -24 -44 -39 -19 -25 -19 -30 -6 -65 17 -46
87 -85 152 -86 52 0 137 30 137 49 0 18 -32 32 -37 17 -2 -6 -12 -9 -22 -6
-10 3 -22 0 -25 -6 -10 -16 -82 -13 -117 4 -33 18 -31 28 12 50 21 12 29 23
29 43 0 49 -31 64 -79 39z m19 -52 c-7 -8 -17 -15 -22 -15 -6 0 -5 7 2 15 7 8
17 15 22 15 6 0 5 -7 -2 -15z"/>
<path d="M10203 10140 c-38 -23 -58 -52 -72 -105 -12 -48 0 -114 25 -132 41
-30 162 -1 134 31 -8 10 -19 11 -50 3 -32 -9 -43 -8 -54 3 -20 21 -22 69 -4
110 17 41 32 54 73 67 17 5 31 17 33 26 5 24 -44 22 -85 -3z"/>
<path d="M14058 10123 c-67 -72 -63 -132 10 -152 18 -6 30 -6 27 -2 -2 5 12 8
33 7 27 -1 37 3 37 14 0 11 -12 15 -43 16 -26 1 -50 8 -60 18 -16 16 -16 17 0
11 18 -7 74 21 82 40 2 6 -2 25 -10 43 -16 40 -42 41 -76 5z"/>
<path d="M10435 10109 c-75 -67 -101 -133 -66 -168 34 -34 115 -21 171 25 39
34 38 62 -5 104 -18 18 -34 36 -33 39 4 40 -21 40 -67 0z m69 -68 l28 -29 -25
-16 c-65 -43 -129 -38 -106 8 16 30 50 66 64 66 6 0 24 -13 39 -29z"/>
<path d="M12308 10124 c-56 -30 -76 -119 -38 -167 11 -14 37 -31 57 -38 45
-15 139 -14 157 1 8 6 18 10 22 9 24 -4 43 3 48 18 11 28 -8 34 -58 17 -75
-26 -196 -9 -196 27 0 5 18 16 40 25 74 30 98 94 43 115 -32 12 -43 11 -75 -7z
m47 -54 c-10 -11 -27 -20 -38 -20 -19 0 -20 1 -2 20 10 11 27 20 38 20 19 0
20 -1 2 -20z"/>
<path d="M13836 10125 c-22 -22 -41 -122 -26 -140 20 -24 37 -6 43 46 8 62 12
69 43 69 17 0 24 5 24 20 0 16 -7 20 -34 20 -19 0 -41 -7 -50 -15z"/>
<path d="M10759 10077 c-49 -33 -117 -133 -101 -149 18 -18 41 0 72 52 14 23
35 49 47 57 l22 15 -19 -41 c-41 -83 -22 -95 67 -42 l68 41 5 -28 c3 -18 12
-28 26 -30 19 -3 21 3 22 58 2 58 1 60 -24 60 -14 0 -46 -14 -71 -32 l-46 -31
6 33 c7 34 -5 60 -28 60 -7 0 -27 -10 -46 -23z"/>
<path d="M11660 10070 c-27 -27 -60 -95 -60 -124 0 -48 69 -78 136 -60 16 4
20 11 16 26 -4 17 -11 19 -39 15 -44 -7 -63 0 -63 25 0 10 4 17 8 14 10 -6 87
28 96 43 9 14 -19 67 -39 75 -26 9 -34 7 -55 -14z m40 -39 c0 -5 -7 -12 -16
-15 -14 -5 -15 -4 -4 9 14 17 20 19 20 6z"/>
<path d="M11558 9781 c-57 -36 -74 -61 -94 -133 -9 -32 -20 -55 -25 -52 -16 9
-23 -28 -8 -40 8 -6 20 -40 26 -76 6 -36 18 -82 27 -102 19 -43 46 -51 46 -13
0 28 -20 76 -30 70 -3 -2 -4 10 -2 27 4 24 2 29 -9 23 -12 -8 -12 -6 0 8 7 9
11 24 7 32 -4 12 6 15 60 15 57 0 65 2 62 18 -2 10 -13 17 -28 18 -55 2 -90
15 -90 35 0 43 33 100 76 129 52 36 58 45 41 59 -10 8 -25 4 -59 -18z"/>
<path d="M12741 9720 c-46 -65 -53 -112 -17 -118 25 -5 44 14 29 29 -9 9 -5
22 17 54 15 22 35 47 44 54 24 20 20 41 -8 41 -17 0 -34 -16 -65 -60z"/>
<path d="M13914 9765 c-4 -8 1 -37 9 -63 15 -45 47 -190 47 -211 0 -7 -8 -7
-24 0 -51 23 -96 -13 -96 -76 0 -37 36 -68 68 -60 70 16 106 67 97 138 -6 53
-50 229 -65 265 -11 25 -28 29 -36 7z m31 -332 c6 -17 -10 -33 -32 -33 -19 0
-25 18 -13 39 11 22 35 19 45 -6z"/>
<path d="M12622 9718 c-7 -7 -12 -20 -12 -29 0 -9 -7 -19 -15 -23 -22 -8 -18
-34 7 -42 15 -4 26 -1 35 12 37 50 24 121 -15 82z"/>
<path d="M9665 9601 c-3 -6 -4 -15 -1 -20 3 -5 8 -45 10 -89 l4 -81 -56 -3
c-49 -3 -57 -6 -57 -23 0 -17 8 -20 53 -23 l52 -3 0 -85 c0 -76 2 -85 18 -82
14 3 18 17 22 80 3 42 7 79 10 81 3 3 35 3 71 0 63 -5 66 -7 61 -29 -13 -70
41 -110 136 -100 64 7 95 28 73 48 -11 11 -12 10 -6 -2 7 -12 6 -13 -7 -3 -8
7 -17 10 -21 7 -3 -3 -29 -6 -58 -6 -62 1 -83 17 -73 55 5 21 12 27 34 27 48
0 67 49 28 74 -13 8 -24 5 -48 -13 -27 -19 -40 -22 -88 -17 -31 3 -67 5 -78 5
-20 1 -22 8 -30 103 -7 83 -12 103 -26 106 -9 2 -19 -2 -23 -7z"/>
<path d="M8710 9530 c-9 -6 -10 -19 -1 -59 6 -29 11 -90 11 -136 0 -133 21
-163 73 -105 34 37 42 38 55 1 11 -31 45 -56 62 -46 15 9 12 35 -5 41 -8 4
-15 12 -15 19 0 21 -40 65 -59 65 -10 0 -30 -9 -45 -21 l-26 -20 0 84 c0 151
-14 199 -50 177z"/>
<path d="M13105 9510 c-3 -5 -12 -7 -20 -4 -9 4 -29 -8 -50 -29 -39 -39 -48
-93 -19 -121 22 -23 40 -20 81 11 25 19 38 24 41 15 2 -6 7 -10 10 -8 4 2 7
-6 8 -17 0 -12 4 -39 8 -59 l8 -38 -38 0 c-54 0 -119 -34 -134 -70 l-12 -30
-1780 0 -1779 0 20 26 c43 55 50 155 13 197 -44 50 -172 -23 -172 -99 0 -12
-9 -33 -21 -48 -13 -17 -19 -36 -16 -51 4 -23 1 -25 -35 -25 -33 0 -40 4 -49
28 -7 18 -8 41 -1 69 7 33 6 46 -4 54 -7 6 -17 8 -22 5 -6 -3 -12 3 -15 14 -5
21 -57 30 -57 9 0 -5 -4 -7 -10 -4 -14 8 -70 -52 -70 -75 0 -24 28 -40 54 -30
12 4 33 10 47 13 26 7 27 5 31 -38 l3 -45 -620 -3 -620 -2 625 -3 c437 -1 629
-5 637 -13 8 -8 17 -8 31 0 11 6 34 11 51 11 29 0 31 -2 31 -37 0 -54 18 -113
37 -120 28 -11 45 26 38 82 l-7 50 41 13 c32 9 427 12 1831 12 l1790 0 0 -20
c0 -41 27 -86 59 -100 68 -28 142 10 161 82 l11 38 1172 3 1172 2 -1179 3
c-1070 2 -1178 3 -1172 18 3 9 6 19 6 24 0 4 9 10 20 13 28 7 25 26 -5 37 -16
6 -25 17 -25 31 0 28 -29 146 -46 186 -14 34 -49 60 -59 43z m18 -47 c7 -6
-61 -72 -75 -73 -17 0 -7 32 17 55 24 25 45 31 58 18z m-3683 -159 c0 -76 -33
-115 -105 -126 -17 -3 -20 2 -17 32 4 55 20 95 53 129 24 26 33 30 49 21 15
-8 20 -21 20 -56z m-340 -3 c0 -9 -24 -21 -43 -21 -6 0 -2 7 9 15 22 17 34 19
34 6z m4058 -87 c15 -4 22 -14 22 -30 0 -23 -3 -24 -70 -24 -38 0 -70 4 -70 9
0 13 25 31 57 41 36 11 34 11 61 4z m12 -83 c0 -24 -29 -57 -55 -65 -29 -8
-68 15 -76 46 -4 15 -4 29 -1 32 3 3 34 6 69 6 55 0 63 -2 63 -19z"/>
<path d="M13387 9492 c-16 -2 -31 -11 -34 -20 -4 -9 -15 -28 -25 -41 -22 -29
-23 -45 -2 -65 18 -19 85 -21 102 -4 9 9 12 9 12 0 0 -17 35 -15 50 3 17 20 4
52 -29 71 -19 11 -27 23 -24 34 5 20 -11 27 -50 22z m33 -82 l25 -20 -42 0
c-44 0 -52 7 -31 28 16 16 18 15 48 -8z"/>
<path d="M13601 9491 c-17 -11 -41 -76 -41 -113 0 -46 71 -65 118 -32 32 22
27 54 -14 107 -39 50 -41 51 -63 38z m43 -90 c16 -17 16 -19 -6 -24 -27 -8
-41 4 -32 26 8 22 17 21 38 -2z"/>
<path d="M10292 9444 c-36 -18 -54 -34 -58 -51 -9 -33 5 -44 84 -69 64 -19 66
-21 43 -33 -13 -7 -50 -13 -82 -14 -37 0 -59 -4 -59 -12 0 -40 90 -48 160 -12
79 39 61 81 -47 113 -29 9 -53 18 -53 20 0 3 21 14 46 25 30 14 44 26 42 36
-5 26 -20 25 -76 -3z"/>
<path d="M10125 9428 c-19 -17 -29 -40 -37 -84 -13 -70 -7 -94 22 -94 15 0 20
7 21 28 1 82 7 105 29 122 15 11 21 23 17 34 -9 22 -21 20 -52 -6z"/>
<path d="M11212 9414 c-69 -58 -53 -124 25 -109 94 17 140 53 115 91 -8 13
-78 54 -91 54 -4 0 -26 -16 -49 -36z m91 -31 c9 -8 -48 -33 -75 -33 -23 0 -14
18 16 30 26 11 51 12 59 3z"/>
<path d="M8415 9381 c-72 -30 -99 -115 -49 -161 22 -21 34 -24 97 -24 95 1
157 18 157 44 0 23 -32 27 -51 8 -14 -16 -157 -12 -176 4 -7 6 -13 18 -13 27
0 19 40 61 58 61 6 0 9 7 6 15 -5 12 -1 12 28 -2 18 -9 41 -22 50 -30 18 -16
38 -10 38 12 0 40 -90 68 -145 46z"/>
<path d="M8654 9009 c-3 -5 -6 -96 -7 -202 -2 -159 1 -194 13 -204 13 -10 12
-14 -5 -33 -14 -16 -17 -25 -9 -37 18 -29 29 -25 92 37 56 56 62 59 62 36 0
-37 17 -76 34 -76 8 0 16 -6 19 -12 2 -7 8 -10 13 -5 4 4 0 29 -9 55 -9 26
-17 66 -17 90 0 58 -25 56 -82 -6 -72 -80 -69 -85 -68 115 2 244 2 240 -15
246 -8 4 -17 2 -21 -4z m26 -359 c0 -5 -4 -10 -10 -10 -5 0 -10 5 -10 10 0 6
5 10 10 10 6 0 10 -4 10 -10z"/>
<path d="M10267 8964 c-12 -12 -8 -64 4 -61 6 1 14 -4 16 -10 3 -7 -2 -13 -11
-13 -13 0 -16 -11 -16 -52 0 -85 18 -213 35 -253 15 -37 16 -37 35 -20 18 16
18 20 4 47 -14 27 -37 282 -31 343 2 19 -23 32 -36 19z"/>
<path d="M10413 8944 c-19 -50 40 -377 73 -401 26 -19 37 -16 31 10 -3 12 -17
72 -31 132 -15 61 -29 147 -33 193 -4 60 -10 82 -20 82 -7 0 -16 -7 -20 -16z"/>
<path d="M9627 8943 c-13 -26 -27 -113 -32 -213 -3 -63 -7 -126 -8 -140 -4
-46 33 -30 85 38 44 59 48 61 48 35 1 -63 69 -157 100 -138 5 3 10 1 10 -4 0
-6 11 -11 25 -11 18 0 25 5 25 18 0 10 -7 20 -15 21 -8 1 -24 2 -34 3 -11 1
-17 6 -15 10 3 4 0 8 -6 8 -6 0 -20 21 -32 46 -16 37 -19 62 -16 122 3 66 1
77 -14 80 -13 2 -27 -16 -53 -70 -20 -40 -41 -77 -46 -83 -17 -17 -9 192 8
226 8 17 12 36 9 44 -6 16 -32 20 -39 8z"/>
<path d="M9290 8760 c0 -5 7 -10 15 -10 8 0 15 5 15 10 0 6 -7 10 -15 10 -8 0
-15 -4 -15 -10z"/>
<path d="M9241 8734 c-25 -32 -26 -47 -5 -69 22 -22 90 -55 98 -48 3 4 6 2 6
-4 0 -6 14 -16 31 -23 42 -18 23 -33 -45 -36 -66 -3 -82 -10 -65 -30 21 -26
164 -10 190 22 20 24 -16 61 -101 104 -81 41 -88 48 -70 66 11 11 3 44 -10 44
-5 0 -18 -12 -29 -26z"/>
<path d="M9320 8745 c-8 -9 -8 -15 -2 -15 12 0 26 19 19 26 -2 2 -10 -2 -17
-11z"/>
<path d="M9951 8736 c-40 -48 -30 -138 20 -189 24 -23 36 -28 59 -24 17 4 30
2 32 -5 6 -16 58 -1 58 18 0 19 -24 28 -46 16 -12 -7 -26 -4 -51 10 -18 11
-33 24 -33 29 0 4 -8 5 -17 2 -17 -6 -17 -6 -1 10 9 9 26 17 37 17 11 0 26 9
35 21 36 52 -53 144 -93 95z m59 -68 c0 -11 -27 -10 -34 1 -4 5 -3 17 1 27 6
16 7 16 20 -2 7 -10 13 -21 13 -26z"/>
<path d="M8986 8695 c-19 -18 -26 -34 -26 -63 0 -54 19 -69 68 -54 35 11 38
10 60 -18 26 -33 48 -37 77 -17 15 12 16 15 4 23 -8 5 -21 9 -29 9 -11 0 -15
12 -15 45 0 33 -6 52 -24 73 -23 26 -70 40 -55 16 5 -8 1 -8 -14 0 -16 8 -25
6 -46 -14z m71 -50 c-31 -27 -57 -33 -57 -12 0 22 22 37 55 37 l30 -1 -28 -24z"/>
<path d="M9802 7763 c1054 -2 2782 -2 3840 0 1058 1 195 2 -1917 2 -2112 0
-2977 -1 -1923 -2z"/>
<path d="M9797 7073 c1058 -2 2788 -2 3845 0 1058 1 193 2 -1922 2 -2115 0
-2980 -1 -1923 -2z"/>
<path d="M9797 6383 c1057 -2 2789 -2 3850 0 1060 1 196 2 -1922 2 -2117 0
-2985 -1 -1928 -2z"/>
<path d="M9797 5693 c1058 -2 2788 -2 3845 0 1058 1 193 2 -1922 2 -2115 0
-2980 -1 -1923 -2z"/>
<path d="M9802 5003 c1054 -2 2782 -2 3840 0 1058 1 195 2 -1917 2 -2112 0
-2977 -1 -1923 -2z"/>
<path d="M9802 3613 c1054 -2 2782 -2 3840 0 1058 1 195 2 -1917 2 -2112 0
-2977 -1 -1923 -2z"/>
<path d="M9797 2923 c1058 -2 2788 -2 3845 0 1058 1 193 2 -1922 2 -2115 0
-2980 -1 -1923 -2z"/>
<path d="M9797 2233 c1057 -2 2789 -2 3850 0 1060 1 196 2 -1922 2 -2117 0
-2985 -1 -1928 -2z"/>
<path d="M9797 1543 c1058 -2 2788 -2 3845 0 1058 1 193 2 -1922 2 -2115 0
-2980 -1 -1923 -2z"/>
<path d="M9802 853 c1054 -2 2782 -2 3840 0 1058 1 195 2 -1917 2 -2112 0
-2977 -1 -1923 -2z"/>
</g>
</svg>
