<?xml version="1.0" standalone="no"?>
<!DOCTYPE svg PUBLIC "-//W3C//DTD SVG 20010904//EN"
 "http://www.w3.org/TR/2001/REC-SVG-20010904/DTD/svg10.dtd">
<svg version="1.0" xmlns="http://www.w3.org/2000/svg"
 width="1618.000000pt" height="1214.000000pt" viewBox="0 0 1618.000000 1214.000000"
 preserveAspectRatio="xMidYMid meet">

<g transform="translate(0.000000,1214.000000) scale(0.100000,-0.100000)"
fill="#000000" stroke="none">
<path d="M630 6040 l0 -5190 3310 0 3310 0 0 5190 0 5190 -3310 0 -3310 0 0
-5190z m6610 0 l0 -5180 -3300 0 -3300 0 0 5180 0 5180 3300 0 3300 0 0 -5180z"/>
<path d="M5234 10806 c-3 -8 9 -63 26 -123 18 -59 34 -116 37 -125 4 -12 -3
-19 -23 -23 -60 -13 -127 -40 -132 -53 -10 -28 15 -33 67 -12 28 11 65 20 80
20 31 0 33 -5 56 -127 8 -38 15 -45 35 -33 13 8 12 20 -2 92 -10 45 -16 83
-15 84 1 1 22 5 46 8 52 7 71 20 53 38 -9 9 -12 9 -12 -1 0 -11 -3 -11 -15 -1
-9 8 -29 10 -49 7 l-34 -5 -25 66 c-13 37 -30 92 -37 122 -17 73 -42 103 -56
66z"/>
<path d="M2593 10750 c-5 -20 -91 -53 -174 -66 -41 -7 -56 -26 -34 -44 10 -8
36 -4 105 15 51 14 95 24 97 21 5 -5 5 -203 -1 -318 -3 -58 0 -75 15 -91 24
-26 54 -16 43 16 -11 33 -20 321 -10 328 5 4 6 21 4 39 -6 39 -2 41 98 43 56
2 79 6 82 16 3 10 0 12 -13 7 -11 -4 -22 -1 -26 6 -6 9 -30 12 -77 10 -62 -2
-70 0 -75 18 -7 26 -27 26 -34 0z"/>
<path d="M3015 10750 c-9 -15 1 -109 20 -180 15 -56 20 -165 9 -194 -3 -9 -14
-16 -24 -16 -27 0 -137 137 -171 213 -7 15 -20 27 -31 27 -16 0 -18 -10 -19
-92 0 -51 -4 -114 -8 -139 -9 -55 -5 -69 19 -69 16 0 20 12 26 83 5 45 7 85 6
90 -5 19 16 2 40 -33 15 -22 36 -40 45 -40 13 0 14 -3 6 -8 -9 -6 -3 -17 21
-41 26 -25 44 -34 72 -35 33 -1 40 3 53 29 19 37 19 171 1 235 -7 25 -16 74
-19 110 -5 49 -10 66 -23 68 -9 2 -19 -2 -23 -8z"/>
<path d="M6520 10750 c0 -5 -12 -34 -26 -65 -20 -41 -32 -55 -48 -55 -37 0
-66 -12 -66 -26 0 -8 -5 -14 -11 -14 -5 0 -7 5 -3 12 19 30 -56 -35 -80 -71
-41 -58 -38 -100 13 -171 l40 -58 -35 -82 c-46 -106 -81 -246 -68 -268 15 -22
27 -24 49 -8 17 12 18 17 6 38 -15 30 -6 69 47 205 l37 93 60 0 c57 0 93 13
186 64 25 14 49 60 49 94 0 60 -64 102 -154 102 -34 0 -37 2 -30 23 3 12 15
39 25 59 11 21 19 44 19 52 0 8 4 16 10 18 5 2 12 18 16 36 6 28 4 32 -15 32
-11 0 -21 -4 -21 -10z m-80 -189 c0 -11 -15 -28 -36 -40 -34 -20 -38 -41 -8
-41 9 0 14 -3 12 -7 -2 -5 -12 -32 -23 -61 -12 -31 -25 -50 -32 -48 -6 3 -14
-3 -17 -12 -3 -13 -4 -12 -3 3 0 11 -7 34 -16 52 -23 43 -21 63 8 103 45 61
115 92 115 51z m126 -72 c90 -23 79 -88 -22 -138 -27 -13 -71 -27 -98 -29 -48
-5 -49 -4 -43 20 4 14 20 55 36 92 34 74 40 77 127 55z"/>
<path d="M2130 10685 c-86 -34 -130 -70 -130 -105 0 -49 70 -94 180 -116 70
-13 110 -35 110 -59 0 -31 -33 -70 -83 -99 -54 -31 -94 -40 -192 -40 -76 -1
-80 -2 -83 -25 l-4 -24 104 6 c129 6 187 26 249 86 52 50 68 89 51 126 -15 32
-50 49 -152 74 -96 24 -130 43 -130 71 0 34 137 94 190 83 52 -10 47 36 -5 51
-12 3 -56 -9 -105 -29z"/>
<path d="M4610 10671 c0 -10 7 -24 15 -31 21 -17 39 1 30 29 -8 27 -45 28 -45
2z"/>
<path d="M6860 10641 c-57 -6 -70 -20 -50 -51 8 -12 13 -13 30 -2 20 12 90 17
90 6 0 -3 -18 -27 -40 -53 -22 -26 -40 -55 -40 -64 0 -25 34 -37 83 -31 39 6
47 4 56 -14 19 -35 -1 -67 -51 -80 -70 -19 -158 -32 -210 -32 -36 0 -48 -4
-48 -15 0 -36 73 -38 230 -7 95 19 130 49 130 108 0 50 -32 82 -86 86 l-46 3
36 47 c38 50 44 69 24 86 -20 15 -49 19 -108 13z"/>
<path d="M3877 10601 c-55 -11 -72 -32 -61 -71 7 -24 22 -40 63 -62 30 -17 65
-30 78 -30 16 0 32 -14 53 -46 16 -25 30 -49 30 -53 0 -4 -12 -17 -26 -28 -31
-25 -78 -27 -118 -6 -33 18 -56 13 -56 -10 0 -22 60 -45 117 -45 67 0 122 39
123 87 0 30 -10 54 -21 47 -5 -3 -6 1 -3 9 7 19 -43 58 -123 96 -32 16 -65 36
-72 44 -11 14 -9 17 11 21 51 11 92 13 129 6 42 -8 64 5 49 30 -10 16 -114 23
-173 11z"/>
<path d="M4283 10572 c-17 -15 -39 -51 -49 -79 -11 -31 -25 -54 -36 -56 -19
-5 -26 -61 -9 -71 11 -7 30 -91 38 -166 9 -99 17 -125 38 -125 17 0 20 7 21
45 1 25 -5 77 -13 115 -29 141 -29 136 17 174 22 18 48 47 56 63 21 40 15 97
-12 115 -19 12 -24 11 -51 -15z m23 -80 c-13 -26 -46 -61 -46 -49 0 9 39 93
47 101 15 15 14 -22 -1 -52z"/>
<path d="M4459 10569 c-36 -36 -15 -174 26 -174 22 0 22 6 6 70 -12 46 -6 75
15 75 8 0 13 5 12 11 -2 6 3 14 10 16 8 3 10 -1 5 -13 -4 -12 -2 -15 8 -12 29
10 14 33 -25 39 -30 5 -43 2 -57 -12z"/>
<path d="M3305 10526 c-32 -7 -51 -17 -53 -28 -4 -22 28 -31 64 -18 16 7 49 8
76 5 41 -6 48 -4 48 10 0 9 -15 22 -35 31 -39 16 -34 16 -100 0z"/>
<path d="M4880 10498 c-16 -22 -30 -45 -30 -50 0 -4 -7 -8 -16 -8 -12 0 -14
-10 -12 -52 3 -45 6 -53 23 -53 15 0 21 9 26 35 6 39 36 101 53 112 21 14 54
-30 71 -92 12 -47 35 -65 50 -40 10 17 -25 112 -57 153 -40 51 -69 49 -108 -5z"/>
<path d="M5855 10491 c-21 -4 -30 -12 -30 -26 0 -17 7 -20 50 -21 28 -1 59 -3
70 -5 12 -3 21 2 23 14 2 12 -7 22 -32 32 -19 8 -39 14 -43 14 -4 -1 -21 -4
-38 -8z"/>
<path d="M4644 10446 c-6 -16 26 -78 44 -84 21 -7 26 28 9 64 -17 35 -43 45
-53 20z"/>
<path d="M4563 9885 c-44 -37 -61 -83 -48 -124 8 -25 54 -51 91 -51 43 0 104
-22 115 -41 7 -14 4 -21 -13 -33 -12 -9 -28 -16 -35 -16 -7 0 -13 -7 -13 -15
0 -8 -4 -15 -10 -15 -5 0 -10 5 -10 11 0 6 -26 9 -70 8 -84 -2 -105 -18 -72
-51 18 -18 25 -20 44 -11 13 7 50 15 83 18 121 14 176 73 125 137 -19 24 -61
40 -142 53 -78 12 -64 92 19 114 37 10 39 45 3 49 -17 2 -39 -8 -67 -33z"/>
<path d="M2819 9808 c-14 -26 -14 -68 0 -198 13 -116 14 -163 3 -156 -5 3 -26
34 -46 68 -20 35 -59 88 -86 118 -46 51 -51 54 -64 37 -9 -11 -12 -33 -9 -65
6 -59 6 -54 -6 -132 -14 -87 -14 -100 4 -100 28 0 43 67 45 197 0 36 22 18 64
-55 105 -179 146 -187 146 -28 0 41 -5 121 -11 176 -9 76 -9 104 0 113 6 6 11
19 11 29 0 26 -37 23 -51 -4z"/>
<path d="M3954 9809 c-9 -15 16 -60 29 -52 6 3 7 1 3 -6 -4 -6 11 -51 33 -99
21 -48 45 -106 52 -130 25 -85 55 -79 85 18 11 33 21 60 24 60 3 0 15 -18 28
-40 12 -22 33 -47 45 -55 30 -19 78 -6 94 26 17 32 16 112 -1 179 -7 30 -16
67 -20 83 -4 18 -13 27 -25 27 -29 0 -29 -16 -4 -103 13 -43 23 -91 23 -106
-1 -95 -40 -95 -90 2 -47 90 -66 89 -96 -6 l-21 -68 -17 45 c-10 25 -22 46
-27 46 -6 0 -8 4 -5 9 7 10 -62 163 -78 173 -15 11 -24 10 -32 -3z"/>
<path d="M3673 9783 c-11 -16 -32 -58 -47 -95 -16 -38 -34 -68 -42 -68 -9 0
-13 -12 -12 -35 1 -22 6 -35 15 -35 7 0 13 -5 13 -11 0 -6 -9 -9 -19 -6 -15 4
-23 -4 -36 -39 -9 -24 -15 -52 -13 -61 7 -37 31 -15 57 52 l27 70 62 8 c78 9
112 22 112 42 0 18 -18 19 -90 5 -29 -6 -55 -8 -58 -6 -2 3 3 19 12 37 9 17
13 35 11 39 -3 5 -1 10 3 12 5 1 15 16 23 32 8 16 19 31 26 33 19 7 65 -75
101 -181 40 -119 48 -136 67 -136 21 0 19 17 -14 117 -68 211 -147 301 -198
226z"/>
<path d="M2400 9790 c-82 -10 -243 -51 -260 -66 -11 -11 -11 -17 -3 -25 9 -9
28 -8 80 6 37 9 78 19 90 22 24 6 20 23 49 -212 17 -137 27 -166 50 -143 11
10 11 27 4 73 -5 33 -14 103 -20 155 -5 52 -13 105 -16 117 -6 21 -2 22 52 25
46 2 60 7 62 20 5 25 -27 35 -88 28z"/>
<path d="M1967 9680 c-62 -24 -77 -37 -77 -66 0 -31 33 -52 122 -74 85 -22
122 -47 126 -84 10 -86 -149 -167 -207 -105 -20 21 -51 20 -51 -1 0 -21 48
-59 84 -66 51 -9 118 18 173 72 36 34 45 48 41 68 -3 14 0 27 6 29 19 6 -11
55 -54 86 -23 16 -67 35 -98 42 -101 22 -113 37 -46 59 29 10 41 10 60 -1 28
-14 48 -2 39 24 -5 11 -60 41 -69 37 -1 -1 -23 -9 -49 -20z"/>
<path d="M3098 9619 c-26 -14 -24 -59 2 -59 11 0 20 5 20 11 0 6 19 9 46 7 59
-4 69 16 18 37 -42 17 -62 18 -86 4z"/>
<path d="M3327 9146 c-7 -17 11 -36 34 -36 21 0 31 24 16 39 -15 15 -44 14
-50 -3z"/>
<path d="M3666 9128 c-89 -33 -139 -164 -83 -216 13 -12 27 -22 33 -22 5 0 21
-6 36 -14 56 -29 85 -29 148 1 60 28 79 48 61 66 -5 5 -28 -1 -57 -17 -58 -31
-94 -32 -151 -7 -50 23 -59 46 -37 100 17 43 39 60 89 71 21 4 30 12 30 25 0
24 -27 29 -69 13z"/>
<path d="M2500 9054 c-76 -25 -150 -89 -134 -116 6 -9 25 -100 50 -239 3 -16
-1 -31 -11 -39 -26 -21 -17 -39 25 -50 29 -8 52 -8 82 0 49 14 111 53 100 65
-4 5 -2 5 5 2 15 -9 69 37 88 74 22 42 19 75 -11 98 -22 17 -41 21 -100 21
-74 0 -74 0 -62 23 7 12 16 24 20 27 12 9 28 60 28 90 0 23 -6 30 -31 39 -18
6 -32 11 -33 10 -1 0 -8 -3 -16 -5z m40 -56 c0 -16 -62 -118 -72 -118 -13 0
-9 -38 4 -46 7 -4 49 -7 93 -6 53 1 88 -3 99 -11 17 -12 17 -15 0 -50 -10 -20
-26 -39 -36 -43 -10 -3 -18 -10 -18 -15 0 -5 -5 -9 -10 -9 -6 0 -23 -9 -38
-20 -15 -11 -41 -22 -58 -26 l-32 -6 -15 73 c-20 90 -46 233 -44 235 56 46
127 69 127 42z"/>
<path d="M3123 9010 c-57 -45 -69 -66 -51 -87 9 -12 28 -13 94 -8 55 5 84 4
88 -4 11 -17 -44 -82 -76 -88 -18 -4 -28 -12 -28 -24 0 -27 15 -31 53 -16 46
20 97 84 97 123 0 44 -31 58 -114 52 l-66 -6 38 30 c36 29 48 58 26 65 -6 2
-33 -15 -61 -37z m77 -70 c0 -5 -5 -10 -11 -10 -5 0 -7 5 -4 10 3 6 8 10 11
10 2 0 4 -4 4 -10z"/>
<path d="M3386 8985 c-9 -24 5 -133 20 -153 12 -16 14 -16 30 0 13 13 15 20 6
30 -6 8 -12 40 -14 73 -2 46 -7 61 -19 63 -9 2 -19 -4 -23 -13z"/>
<path d="M2893 8925 c-53 -37 -98 -168 -74 -214 21 -38 55 -21 105 53 14 21
26 32 26 24 0 -26 46 -61 72 -54 37 9 51 23 45 40 -5 11 -14 14 -36 10 -27 -6
-31 -3 -36 22 -4 16 -12 43 -18 59 -7 17 -10 34 -9 40 4 10 -26 35 -43 35 -6
0 -20 -7 -32 -15z m25 -74 c-5 -22 -23 -54 -39 -73 l-29 -33 6 30 c8 36 51
115 63 115 5 0 4 -18 -1 -39z"/>
<path d="M5631 8611 c-8 -14 -6 -45 9 -120 11 -55 23 -107 26 -115 4 -10 -10
-19 -52 -31 -87 -25 -127 -59 -94 -80 9 -5 66 20 80 35 3 3 17 7 32 8 15 1 33
3 39 4 8 2 22 -34 40 -101 19 -75 31 -105 43 -107 27 -4 28 12 5 98 -36 139
-36 128 3 128 34 0 68 24 68 48 0 15 -50 28 -59 15 -3 -6 -18 -13 -32 -16 -26
-7 -27 -5 -43 66 -10 39 -20 93 -23 119 -7 57 -26 79 -42 49z"/>
<path d="M5958 8373 c-79 -43 -61 -83 44 -100 110 -17 105 -51 -8 -59 -70 -5
-91 -14 -80 -33 10 -16 86 -14 86 2 0 9 2 9 8 0 20 -32 122 16 122 58 0 27
-59 65 -115 76 l-50 9 35 18 c38 20 52 35 44 48 -9 14 -38 8 -86 -19z"/>
<path d="M5127 8324 c-13 -13 -7 -42 10 -48 23 -9 40 10 27 31 -12 20 -27 26
-37 17z"/>
<path d="M5353 8230 c-40 -36 -40 -181 0 -188 14 -3 17 9 19 74 2 48 7 79 15
81 17 6 49 -33 62 -78 12 -41 35 -59 52 -42 8 8 -12 72 -39 120 -12 21 -60 53
-80 53 -4 0 -18 -9 -29 -20z"/>
<path d="M4246 8145 c-8 -8 -24 -15 -36 -15 -31 0 -157 -68 -180 -98 -37 -47
-22 -84 47 -111 31 -13 32 -14 26 -64 -5 -36 -3 -48 5 -43 8 5 10 1 5 -10 -4
-11 6 -27 31 -50 29 -26 46 -34 76 -34 53 0 100 40 100 83 0 34 -19 76 -21 47
0 -8 -4 -4 -8 10 -4 16 -25 34 -61 53 -30 15 -56 30 -59 32 -10 10 56 124 92
157 37 35 42 58 12 58 -7 0 -20 -7 -29 -15z m-95 -128 c-40 -81 -38 -80 -71
-55 -20 14 -27 26 -21 35 9 17 91 73 107 73 6 0 -1 -24 -15 -53z m80 -154 c15
-9 33 -27 40 -41 12 -22 11 -26 -10 -43 -31 -25 -54 -24 -85 4 -22 19 -33 64
-27 109 1 9 43 -6 82 -29z"/>
<path d="M5169 8138 c0 -2 -2 -31 -3 -66 -3 -52 -1 -64 15 -72 41 -23 50 -14
43 43 -9 69 -20 97 -39 97 -8 0 -15 -1 -16 -2z"/>
<path d="M4810 8122 c-59 -9 -141 -112 -124 -156 3 -9 1 -16 -5 -16 -6 0 -11
-17 -11 -40 0 -37 -1 -39 -20 -28 -29 18 -50 -4 -28 -29 8 -10 13 -23 11 -30
-2 -6 5 -29 15 -50 26 -50 35 -95 34 -166 -1 -32 3 -69 8 -83 10 -25 39 -33
41 -11 3 44 -2 156 -11 214 -14 101 -14 100 33 124 62 31 136 107 148 151 18
69 -28 130 -91 120z m34 -48 c28 -11 20 -69 -14 -107 -16 -19 -27 -37 -25 -41
3 -3 2 -4 -1 -2 -3 2 -22 -7 -41 -20 -59 -40 -62 -35 -38 61 21 83 70 128 119
109z"/>
<path d="M4958 8086 c-59 -57 -60 -138 -2 -152 33 -8 105 20 132 51 37 43 26
76 -29 90 -20 5 -25 11 -22 26 9 33 -39 24 -79 -15z m102 -67 c0 -10 -33 -28
-71 -39 -27 -8 -29 -7 -29 19 0 41 15 50 61 39 21 -6 39 -14 39 -19z"/>
<path d="M9802 11223 c1054 -2 2782 -2 3840 0 1058 1 195 2 -1917 2 -2112 0
-2977 -1 -1923 -2z"/>
<path d="M9797 10533 c1057 -2 2789 -2 3850 0 1060 1 196 2 -1922 2 -2117 0
-2985 -1 -1928 -2z"/>
<path d="M13378 10368 c-5 -15 15 -128 25 -145 9 -15 -8 -26 -48 -30 -16 -2
-31 -7 -33 -12 -1 -4 -13 -6 -25 -4 -27 5 -50 -17 -37 -36 7 -12 19 -11 74 3
82 20 96 20 96 -1 1 -10 6 -34 13 -53 7 -19 10 -51 7 -70 -8 -45 -2 -60 21
-60 28 0 34 56 15 141 -9 39 -14 74 -11 77 3 3 18 6 33 7 114 5 111 4 109 26
-1 21 -5 21 -84 15 l-82 -7 -15 53 c-8 29 -16 64 -18 78 -3 26 -33 40 -40 18z"/>
<path d="M10944 10279 c-67 -32 -77 -49 -81 -136 -1 -43 -4 -87 -5 -98 -2 -14
3 -20 17 -20 22 0 33 42 34 127 1 39 6 50 33 73 25 21 39 26 64 22 45 -7 64
15 32 37 -29 21 -45 20 -94 -5z"/>
<path d="M12761 10286 c-6 -7 -9 -15 -6 -17 6 -6 23 -127 30 -219 6 -72 24
-120 46 -120 16 0 21 27 10 48 -6 11 -15 78 -21 150 -6 73 -13 138 -16 146 -8
21 -31 27 -43 12z"/>
<path d="M10419 10260 c-20 -11 -39 -27 -43 -36 -8 -21 20 -65 45 -71 10 -3
19 -9 19 -13 0 -5 14 -13 30 -19 36 -12 39 -39 8 -68 -31 -28 -82 -53 -108
-53 -15 0 -20 -5 -18 -17 8 -42 104 -16 159 44 37 39 44 69 25 98 -18 28 -82
58 -100 48 -6 -3 -8 -3 -4 2 4 4 3 14 -2 20 -8 9 -1 18 26 34 62 37 28 66 -37
31z"/>
<path d="M10647 10210 c-52 -61 -41 -144 26 -194 25 -18 28 -18 45 -3 24 22
26 57 2 57 -10 0 -20 -6 -22 -12 -3 -8 -12 -2 -22 14 l-18 27 54 50 c45 42 51
52 42 68 -7 11 -25 19 -46 21 -29 3 -40 -2 -61 -28z"/>
<path d="M13015 10206 c-92 -41 -106 -152 -29 -227 31 -30 41 -34 86 -33 37 0
54 5 64 19 20 27 10 32 -49 27 -51 -4 -55 -2 -81 29 l-28 33 38 13 c48 17 94
60 94 88 0 48 -46 72 -95 51z m45 -50 c0 -17 -17 -32 -53 -45 -35 -13 -36 1
-2 34 26 27 55 33 55 11z"/>
<path d="M13710 10203 c-19 -7 -69 -53 -81 -75 -7 -14 -6 -16 6 -12 8 4 15 2
15 -4 0 -5 -6 -12 -14 -15 -10 -4 -14 -18 -12 -46 3 -44 36 -84 83 -102 28
-10 145 13 151 30 2 5 9 8 16 5 20 -8 86 23 86 40 0 24 -20 24 -82 -1 -81 -33
-150 -40 -183 -19 -14 9 -25 23 -25 31 0 8 -8 19 -17 24 -10 6 -13 11 -8 11 6
0 17 15 23 34 16 43 90 83 106 58 3 -5 -15 -19 -40 -31 -48 -24 -59 -58 -17
-54 29 3 111 54 118 73 15 36 -71 73 -125 53z"/>
<path d="M10026 10192 c-2 -4 -7 -24 -11 -45 -4 -21 -27 -67 -52 -103 -24 -35
-41 -69 -38 -74 12 -19 34 -10 56 23 12 17 24 34 27 37 2 3 8 -3 14 -13 25
-45 97 -36 128 15 l18 30 7 -51 c8 -62 26 -84 58 -72 12 5 24 16 25 26 2 9 0
15 -5 12 -21 -13 -31 13 -41 107 -6 55 -15 103 -20 108 -15 15 -39 -18 -56
-76 -17 -57 -38 -86 -61 -86 -19 0 -28 51 -15 84 17 46 13 86 -9 86 -11 0 -22
-3 -25 -8z"/>
<path d="M12566 10170 c-14 -17 -30 -48 -36 -68 -6 -25 -20 -43 -40 -55 -35
-21 -36 -26 -10 -54 12 -14 22 -43 26 -82 l6 -61 -2126 0 c-1893 0 -2125 2
-2120 15 4 11 -3 19 -25 26 -33 12 -41 28 -46 101 -3 59 -3 58 -22 51 -16 -6
-16 -5 -4 10 18 22 8 43 -31 67 -48 29 -80 26 -113 -12 -51 -57 -69 -143 -39
-186 21 -30 68 -29 128 3 l46 24 0 -25 c0 -14 11 -36 24 -49 l25 -25 -167 -3
c-92 -1 874 -4 2146 -5 l2312 -2 0 -40 c0 -33 4 -40 19 -40 21 0 31 19 31 56
l0 24 1513 3 1512 2 -1513 3 -1513 2 7 68 c5 56 11 71 34 93 43 40 66 149 38
177 -19 19 -34 14 -62 -18z m29 -62 c-8 -37 -25 -61 -25 -35 0 17 20 67 27 67
3 0 2 -15 -2 -32z m-4471 -31 c43 -32 7 -105 -62 -128 -44 -15 -52 -3 -41 59
14 74 57 102 103 69z"/>
<path d="M8415 10139 c-61 -25 -75 -36 -68 -55 6 -16 78 -38 93 -29 6 3 10 2
10 -3 0 -5 13 -12 29 -15 46 -9 47 -35 3 -54 -34 -14 -62 -17 -117 -10 -11 1
-21 -5 -23 -15 -8 -38 115 -41 186 -5 61 33 36 106 -46 131 -46 14 -47 14 -20
24 17 7 25 17 24 28 -4 25 -14 26 -71 3z"/>
<path d="M9185 10136 c-62 -62 -91 -185 -50 -211 26 -18 77 -1 133 43 44 35
57 30 64 -22 4 -36 34 -58 48 -36 5 8 5 19 1 25 -5 5 -11 27 -15 47 -11 63
-60 75 -116 30 -35 -29 -73 -52 -85 -52 -4 0 -4 17 -1 38 4 20 7 45 8 54 1 9
5 15 9 12 4 -2 10 5 14 16 12 38 39 42 70 10 32 -34 43 -37 52 -14 8 21 -54
84 -84 84 -13 0 -35 -11 -48 -24z"/>
<path d="M12263 10116 c-57 -50 -81 -61 -101 -43 -30 25 -42 9 -42 -53 0 -33
5 -62 11 -66 7 -4 26 10 46 35 19 22 42 41 51 41 9 0 30 16 45 35 15 19 31 35
35 35 4 0 19 -20 34 -45 26 -43 50 -56 62 -36 10 16 -65 131 -85 131 -10 0
-36 -15 -56 -34z"/>
<path d="M11690 10121 c-18 -5 -25 -14 -24 -31 1 -22 0 -22 -13 -4 -13 18 -14
17 -39 -9 -41 -45 -55 -86 -39 -123 11 -28 28 -46 45 -50 3 0 12 -4 21 -8 21
-9 72 11 67 27 -3 6 -22 14 -43 17 -49 6 -63 27 -45 70 15 37 63 70 102 70 32
0 44 15 28 35 -13 16 -21 17 -60 6z"/>
<path d="M11898 10089 c-10 -5 -18 -7 -18 -3 0 4 -9 -1 -19 -10 -29 -26 -37
-90 -16 -122 15 -23 21 -25 53 -19 20 4 55 20 79 37 62 42 78 96 35 113 -31
13 -97 15 -114 4z m78 -39 c26 0 14 -18 -33 -49 -49 -33 -67 -30 -61 10 3 25
44 52 66 44 8 -3 20 -5 28 -5z"/>
<path d="M12613 9728 c-6 -7 -10 -58 -10 -113 l1 -100 -52 -9 c-29 -5 -52 -13
-52 -18 0 -4 0 -11 0 -15 0 -5 26 -10 57 -13 l58 -5 -1 -102 c0 -101 0 -103
23 -103 23 0 23 2 23 111 l0 110 53 -1 c75 -2 77 -2 77 19 0 25 -14 29 -82 24
l-57 -4 -3 112 c-3 110 -12 136 -35 107z"/>
<path d="M13736 9662 c-9 -14 12 -35 28 -29 23 9 20 37 -3 37 -11 0 -22 -4
-25 -8z"/>
<path d="M8433 9618 c-6 -7 -14 -24 -18 -38 -4 -14 -18 -46 -31 -71 -13 -26
-20 -49 -17 -53 4 -3 -6 -6 -21 -6 -23 0 -27 -4 -23 -20 6 -22 -35 -89 -82
-134 -29 -28 -32 -56 -4 -56 18 0 55 39 105 113 22 33 46 57 56 57 10 0 24 6
31 13 11 9 13 9 7 0 -5 -9 0 -12 15 -10 19 2 25 -8 49 -77 27 -81 35 -92 58
-78 9 6 6 25 -13 82 -30 87 -29 80 -10 80 8 0 15 9 15 20 0 13 -7 20 -19 20
-27 0 -31 10 -45 93 -12 73 -30 94 -53 65z m21 -130 c6 -25 4 -28 -19 -28 -25
0 -25 0 -10 31 19 35 20 35 29 -3z"/>
<path d="M9208 9614 c-42 -22 -52 -48 -33 -84 13 -25 28 -34 91 -52 78 -23
127 -58 122 -87 -4 -22 -41 -27 -137 -19 -89 8 -113 1 -87 -24 10 -10 47 -18
111 -22 105 -8 137 2 154 47 21 55 -33 111 -134 142 -90 27 -106 44 -57 64 39
16 114 16 139 0 18 -10 25 -11 35 -1 9 9 7 16 -7 32 -15 17 -30 20 -94 20 -47
-1 -86 -6 -103 -16z"/>
<path d="M8710 9600 c-16 -29 -8 -279 10 -310 8 -14 14 -28 15 -32 0 -4 5 -12
12 -19 10 -10 16 -9 27 1 9 7 14 16 11 20 -3 4 1 10 9 13 8 3 27 33 42 66 31
71 36 70 84 -15 24 -44 35 -55 52 -52 32 4 41 54 35 181 -3 77 -9 113 -19 123
-25 25 -37 -3 -28 -61 11 -64 12 -165 3 -164 -5 0 -21 21 -38 47 -22 35 -37
48 -58 50 -25 3 -30 -3 -64 -73 -23 -49 -39 -72 -44 -64 -15 25 -22 217 -9
249 10 24 10 33 0 45 -17 20 -27 19 -40 -5z"/>
<path d="M10340 9599 c-19 -5 -44 -11 -55 -12 -31 -3 -30 -44 4 -142 32 -92
38 -125 21 -125 -5 0 -10 -9 -10 -20 0 -11 6 -20 14 -20 8 0 16 -5 18 -10 6
-18 88 0 88 19 0 14 2 14 10 1 8 -12 16 -13 55 -2 26 7 53 19 62 27 17 18 32
65 26 83 -7 19 -52 39 -105 47 l-47 7 25 22 c17 14 26 32 26 54 2 60 -57 92
-132 71z m88 -62 c2 -10 -10 -28 -27 -43 -54 -45 -35 -75 58 -93 33 -7 63 -17
67 -22 13 -21 -31 -47 -93 -57 -67 -9 -73 -6 -73 44 0 13 -5 24 -11 24 -5 0
-8 4 -4 9 3 6 -4 34 -15 63 -24 64 -24 63 -4 83 23 22 98 17 102 -8z"/>
<path d="M11254 9575 c-4 -9 -2 -21 4 -27 15 -15 44 -1 40 19 -4 23 -36 29
-44 8z"/>
<path d="M13291 9561 c-17 -11 -8 -39 15 -48 20 -8 49 21 41 41 -7 18 -34 21
-56 7z"/>
<path d="M12876 9545 c-15 -16 -17 -29 -11 -94 4 -55 2 -90 -9 -125 -17 -54
-14 -66 14 -66 13 0 21 12 30 49 6 27 11 65 10 83 -4 66 -1 83 12 70 16 -16
48 -15 48 2 0 7 -17 33 -38 56 -36 41 -38 42 -56 25z"/>
<path d="M11667 9535 c-70 -12 -117 -42 -117 -75 0 -24 36 -67 69 -85 15 -7
49 -15 76 -17 40 -2 50 0 53 14 2 13 -6 18 -35 23 -53 8 -102 32 -110 51 -8
23 23 44 63 44 18 0 34 6 36 12 3 8 9 4 17 -10 14 -27 37 -29 51 -3 12 24 4
48 -18 53 -9 2 -47 -1 -85 -7z"/>
<path d="M11043 9507 c-70 -26 -69 -58 2 -76 25 -6 50 -9 56 -6 5 4 9 1 9 -4
0 -6 8 -11 19 -11 26 0 81 -20 81 -30 0 -5 -22 -13 -50 -19 -53 -11 -90 -4
-123 26 -13 13 -20 14 -29 5 -9 -9 -9 -12 3 -12 11 0 11 -2 1 -8 -9 -6 -6 -15
13 -32 22 -21 36 -24 93 -24 169 0 195 101 36 134 -54 11 -65 24 -21 25 15 0
22 6 22 20 0 16 -7 20 -40 22 -22 1 -54 -3 -72 -10z"/>
<path d="M14026 9483 c-14 -15 -31 -49 -37 -75 -9 -35 -18 -48 -31 -48 -22 0
-24 -27 -2 -51 25 -28 41 -13 65 59 28 88 39 100 55 70 8 -13 13 -40 14 -60 0
-41 14 -56 35 -38 39 33 -17 170 -69 170 -3 0 -16 -12 -30 -27z"/>
<path d="M9769 9485 c-3 -3 -32 -10 -65 -15 -100 -18 -104 -19 -104 -41 0 -18
4 -19 53 -13 100 13 142 27 142 48 0 19 -16 32 -26 21z"/>
<path d="M14236 9459 c-30 -35 -29 -32 -15 -81 11 -42 56 -73 90 -63 30 10 79
55 79 73 1 20 53 -36 77 -83 9 -16 19 -32 22 -35 8 -7 51 -86 51 -94 0 -9 427
-7 -3390 -15 l-3265 -6 3187 -3 c3180 -2 3186 -2 3181 -22 -10 -38 23 -71 116
-115 77 -37 180 -5 210 66 12 29 22 39 39 39 12 0 25 7 28 15 5 13 67 15 463
17 251 1 425 3 386 5 -38 2 -259 4 -489 6 l-420 2 -7 28 c-9 35 -111 196 -141
223 -13 11 -34 33 -46 48 -30 36 -47 22 -43 -33 2 -33 -2 -42 -23 -56 -30 -20
-53 -14 -65 17 -8 19 -5 27 16 45 16 13 24 27 20 37 -10 25 -33 19 -61 -15z
m292 -337 c21 -7 22 -8 7 -30 -41 -58 -123 -66 -196 -18 -66 44 -52 54 81 54
47 0 95 -3 108 -6z"/>
<path d="M10729 9441 c-30 -31 -38 -68 -17 -89 19 -19 49 -14 89 14 21 14 43
23 50 19 6 -4 20 -27 30 -50 22 -50 43 -70 64 -61 15 5 21 36 8 36 -5 0 -21
25 -37 56 -16 31 -40 61 -53 67 -13 5 -23 16 -23 24 0 9 -13 13 -41 13 -31 0
-47 -6 -70 -29z m57 -32 c-29 -23 -47 -19 -26 6 7 8 22 15 33 15 18 0 17 -2
-7 -21z"/>
<path d="M11270 9460 c0 -22 96 -150 113 -150 19 0 24 34 7 45 -6 4 -25 31
-41 61 -24 42 -36 54 -55 54 -13 0 -24 -4 -24 -10z"/>
<path d="M13491 9445 c-48 -41 -79 -165 -41 -165 11 0 20 16 29 49 15 58 36
91 59 91 21 0 52 -48 52 -79 0 -25 28 -40 40 -21 8 13 -1 68 -16 91 -39 64
-75 74 -123 34z"/>
<path d="M13054 9440 c-80 -51 -55 -148 32 -126 19 5 24 3 24 -13 0 -27 38
-38 59 -16 15 16 15 18 0 28 -13 8 -14 17 -6 49 15 61 -3 69 -54 24 -29 -27
-44 -35 -52 -27 -13 13 7 39 40 52 28 10 32 49 6 49 -10 0 -32 -9 -49 -20z"/>
<path d="M13750 9435 c0 -44 43 -135 64 -135 21 0 19 21 -11 107 -12 37 -23
53 -35 53 -12 0 -18 -8 -18 -25z"/>
<path d="M13314 9387 c-3 -8 -4 -40 -2 -73 3 -51 6 -59 23 -59 13 0 20 6 19
18 0 9 -1 39 -2 66 -1 34 -7 51 -17 55 -9 3 -18 0 -21 -7z"/>
<path d="M12338 9025 c-18 -36 -36 -65 -41 -65 -5 0 -25 -7 -43 -16 -63 -30
-97 -135 -63 -195 13 -23 20 -91 9 -84 -3 2 -16 -23 -29 -56 -19 -51 -21 -62
-9 -77 11 -15 11 -16 -3 -4 -14 11 -19 6 -34 -35 -10 -27 -24 -55 -31 -64 -20
-22 -17 -47 6 -54 24 -8 40 1 40 22 0 8 6 29 14 46 7 18 31 79 53 137 l41 105
55 -3 c89 -6 157 37 157 99 0 31 -46 77 -99 99 -22 9 -31 18 -28 29 19 61 46
124 61 140 10 11 15 25 11 30 -15 25 -37 7 -67 -54z m-74 -144 c7 -11 -25
-101 -36 -101 -11 0 -10 42 3 79 11 31 23 39 33 22z m101 -49 c19 -6 54 -40
55 -55 0 -4 -10 -15 -22 -25 -11 -9 -29 -25 -40 -34 -15 -16 -18 -16 -18 -2 0
8 -4 13 -10 9 -5 -3 -21 -3 -35 1 -29 7 -29 18 0 88 12 29 20 36 33 31 9 -4
26 -10 37 -13z"/>
<path d="M8295 9030 c-3 -6 -6 -32 -4 -58 3 -78 -10 -142 -31 -142 -10 0 -23
7 -30 15 -7 8 -23 15 -36 15 -27 0 -79 -44 -69 -59 3 -6 2 -11 -4 -11 -6 0
-17 -24 -26 -54 -14 -49 -14 -60 0 -124 9 -39 26 -83 37 -97 20 -26 20 -28 4
-61 -9 -19 -16 -43 -16 -53 0 -10 -7 -32 -15 -47 -19 -36 -19 -60 -1 -67 17
-7 36 11 36 35 0 10 12 49 27 87 23 60 31 71 64 85 62 28 134 124 139 186 5
56 -1 80 -26 110 -24 28 -26 36 -19 83 5 29 9 77 9 107 1 43 -2 55 -16 58 -9
2 -19 -2 -23 -8z m-41 -267 c-9 -37 -75 -206 -85 -217 -13 -15 -42 103 -36
150 7 70 29 94 82 94 44 0 45 -1 39 -27z m76 -56 c0 -40 -38 -113 -74 -143
-33 -29 -40 -27 -27 9 7 18 7 27 -1 29 -7 3 -8 10 -4 17 6 10 10 10 16 2 4 -7
12 7 20 31 8 24 18 48 23 55 5 7 6 17 2 23 -3 5 -1 10 4 10 6 0 11 8 11 18 1
32 30 -18 30 -51z"/>
<path d="M14787 9023 c-3 -5 -11 -38 -17 -74 -16 -89 -19 -93 -63 -74 l-37 15
-26 -42 c-73 -115 -70 -188 6 -188 l28 0 -38 -97 c-46 -117 -55 -178 -26 -178
15 0 22 12 32 56 20 87 83 237 103 244 23 7 69 56 71 75 4 30 0 49 -15 64 -13
13 -14 22 -5 57 6 22 9 44 6 47 -3 3 -2 10 3 16 5 6 11 27 13 46 2 26 -1 35
-14 38 -9 2 -19 -1 -21 -5z m-73 -199 c21 -8 20 -23 -4 -78 -15 -37 -24 -46
-44 -46 -13 0 -26 6 -29 13 -6 15 19 75 40 99 18 21 16 20 37 12z m57 -61
c-12 -20 -14 -14 -5 12 4 9 9 14 11 11 3 -2 0 -13 -6 -23z"/>
<path d="M12583 8973 c-7 -2 -13 -13 -13 -24 0 -16 6 -19 33 -17 68 4 76 -31
21 -92 -30 -33 -34 -43 -24 -55 7 -8 16 -13 20 -10 4 3 19 -4 31 -15 l24 -20
-29 -24 c-33 -27 -92 -40 -143 -30 -32 6 -34 5 -31 -17 3 -21 9 -24 58 -27 67
-4 131 19 165 59 31 38 31 41 -4 82 -29 33 -29 33 -10 57 28 38 25 94 -7 119
-25 20 -63 26 -91 14z"/>
<path d="M8590 8946 c-5 -5 -10 -7 -10 -2 0 4 -13 -1 -30 -11 -32 -18 -40 -47
-16 -56 8 -3 24 2 36 13 19 16 87 36 96 28 2 -2 -10 -24 -26 -48 -45 -68 -39
-91 35 -135 17 -10 17 -13 1 -43 -20 -38 -78 -79 -126 -88 -38 -8 -51 -20 -43
-41 8 -22 41 -15 114 23 81 43 116 90 110 151 0 7 -19 26 -41 42 l-40 29 40
58 c31 46 37 61 29 76 -8 15 -20 19 -64 17 -30 -1 -59 -7 -65 -13z"/>
<path d="M9316 8929 c-24 -34 2 -67 30 -39 13 13 64 -4 64 -20 0 -6 -18 -30
-41 -55 -44 -48 -44 -65 2 -65 28 0 30 -2 27 -32 -2 -25 -12 -38 -43 -59 -22
-14 -56 -30 -75 -35 -20 -6 -36 -17 -38 -27 -9 -44 119 -4 175 55 32 34 38 95
11 125 -15 17 -15 20 3 42 10 13 19 38 19 57 0 37 -24 55 -87 67 -26 5 -35 2
-47 -14z"/>
<path d="M10754 8938 c-9 -15 -24 -319 -16 -332 3 -5 0 -6 -6 -2 -7 4 -11 -7
-10 -34 0 -44 19 -69 35 -48 14 17 26 140 28 268 1 59 4 111 8 117 10 15 -2
43 -18 43 -8 0 -17 -6 -21 -12z"/>
<path d="M15007 8944 c-13 -13 -7 -84 9 -115 28 -55 33 -126 17 -226 -16 -95
-14 -123 10 -123 10 0 19 30 32 101 20 114 16 185 -15 258 -11 25 -19 59 -17
76 2 28 -19 46 -36 29z"/>
<path d="M15260 8937 c-13 -7 -31 -29 -38 -49 -13 -34 -13 -40 2 -64 10 -14
33 -32 52 -40 19 -8 34 -17 34 -20 0 -3 -15 -23 -32 -44 -18 -21 -42 -55 -53
-75 l-19 -37 27 -24 c32 -27 44 -29 99 -12 80 24 110 100 68 171 l-21 35 30
43 c21 32 27 47 19 56 -13 17 -38 17 -38 1 0 -7 -10 -26 -23 -42 -22 -28 -25
-28 -61 -16 -21 6 -40 19 -43 27 -10 27 12 48 45 45 39 -4 48 12 22 38 -23 23
-36 24 -70 7z m111 -234 c14 -37 -3 -71 -41 -85 -16 -5 -28 -14 -25 -18 3 -4
-6 -3 -19 3 -22 11 -23 13 -10 38 18 35 63 89 75 89 5 0 14 -12 20 -27z"/>
<path d="M10527 8926 c-8 -8 -25 -49 -37 -90 -19 -60 -28 -76 -43 -76 -10 0
-21 -9 -24 -20 -3 -11 -10 -20 -15 -20 -5 0 -6 -5 -3 -10 5 -8 11 -7 21 1 23
19 25 6 8 -47 -22 -64 -31 -73 -45 -42 -9 21 -8 30 6 51 10 16 12 27 6 31 -6
4 -8 13 -4 21 11 31 -14 13 -35 -24 -29 -51 -28 -83 5 -121 l26 -32 -21 -51
c-37 -92 -64 -184 -60 -203 7 -39 33 -19 48 36 28 103 73 208 87 203 20 -8
101 36 123 67 33 46 26 83 -20 122 l-40 33 17 60 c9 33 23 68 31 77 15 18 10
48 -7 48 -5 0 -16 -6 -24 -14z m3 -244 c29 -23 21 -49 -23 -79 -51 -35 -58
-30 -41 25 9 26 17 53 20 60 5 17 18 15 44 -6z"/>
<path d="M11000 8931 c-23 -6 -25 -12 -28 -83 -2 -71 -1 -77 23 -96 31 -25 32
-32 1 -32 -14 0 -28 -5 -31 -10 -4 -6 -10 -8 -14 -6 -12 8 -34 -11 -38 -33 -3
-23 8 -26 39 -10 27 14 30 8 17 -30 -15 -43 3 -105 37 -127 19 -13 34 -15 67
-8 34 7 45 16 63 49 21 37 28 68 25 105 -1 8 -17 32 -35 54 l-35 38 20 28 c25
34 38 89 28 117 -15 41 -78 61 -139 44z m89 -50 c10 -6 12 -19 7 -44 -8 -42
-27 -60 -58 -55 -31 4 -35 46 -8 81 23 28 36 32 59 18z m-25 -196 c-18 -14
-18 -14 7 -15 51 0 63 -42 29 -97 -15 -26 -27 -33 -50 -33 -35 0 -46 28 -36
85 7 34 39 75 60 75 5 0 1 -7 -10 -15z"/>
<path d="M13100 8898 c-33 -45 -35 -71 -8 -76 11 -2 22 9 33 32 23 47 29 45
21 -5 -14 -87 -63 -219 -90 -240 -14 -11 -26 -25 -26 -30 0 -6 -11 -35 -25
-66 -33 -72 -36 -98 -10 -98 13 0 31 17 52 47 l31 48 10 -28 c22 -64 105 -123
133 -95 16 16 -1 43 -26 43 -24 0 -50 30 -73 83 -17 39 -15 75 8 126 11 24 20
53 20 65 0 12 4 26 9 32 4 5 13 30 20 56 32 133 -15 195 -79 106z"/>
<path d="M9099 8923 c-6 -47 -4 -342 3 -355 5 -10 15 -18 24 -18 18 0 29 24
18 41 -4 7 -7 84 -8 173 -1 145 -3 161 -18 164 -10 2 -18 0 -19 -5z"/>
<path d="M13585 8900 c-3 -6 -4 -19 0 -29 4 -14 -7 -29 -42 -58 -87 -70 -81
-67 -101 -51 -9 9 -35 25 -56 35 -36 18 -38 21 -20 30 10 6 33 14 50 17 27 6
32 4 37 -14 7 -28 41 -23 45 7 5 33 -32 65 -66 57 -54 -11 -110 -35 -127 -54
-17 -19 -17 -21 1 -41 10 -12 40 -32 67 -45 26 -13 47 -27 47 -31 0 -4 -23
-31 -51 -59 -30 -30 -50 -58 -46 -66 7 -21 153 -55 175 -42 23 15 28 94 8 133
-19 36 -20 41 -3 41 18 0 135 107 142 131 11 35 -41 69 -60 39z m-115 -239
c18 -34 12 -61 -12 -61 -33 0 -68 11 -68 21 0 10 52 59 62 59 4 0 12 -9 18
-19z"/>
<path d="M10040 8880 c-23 -23 -25 -41 -8 -58 18 -18 38 -14 38 8 0 11 6 20
14 20 18 0 56 -47 56 -69 0 -19 -45 -91 -84 -135 -20 -23 -23 -32 -14 -39 10
-6 9 -7 -3 -4 -10 3 -31 -9 -54 -33 -55 -57 -29 -78 55 -44 31 13 51 14 94 7
52 -9 86 -3 86 16 0 14 -86 33 -128 29 l-40 -3 35 38 c92 102 113 172 71 233
-37 54 -84 68 -118 34z"/>
<path d="M11620 8823 c-73 -15 -89 -25 -71 -47 12 -14 19 -14 61 1 8 3 34 5
58 4 39 -2 42 -1 42 22 0 33 -13 36 -90 20z"/>
<path d="M14315 8820 c-3 -6 -9 -8 -13 -6 -11 6 -75 -27 -80 -41 -7 -23 28
-26 76 -5 26 11 48 19 50 17 11 -11 -20 -58 -99 -153 -68 -82 -89 -113 -87
-132 3 -22 9 -25 44 -28 23 -2 77 6 119 17 83 21 117 43 98 62 -8 8 -29 5 -75
-9 -76 -24 -138 -35 -138 -24 1 4 35 45 76 92 79 88 118 155 112 193 -2 17
-11 23 -40 25 -20 2 -39 -2 -43 -8z"/>
<path d="M13863 8727 c-4 -7 -21 -17 -37 -22 -37 -13 -57 -42 -37 -54 8 -5 24
-3 40 5 14 8 41 17 59 20 39 8 46 17 32 44 -12 22 -45 27 -57 7z"/>
<path d="M8860 8615 c-8 -10 -8 -19 0 -34 19 -37 58 -21 45 18 -8 25 -31 33
-45 16z"/>
<path d="M12798 8594 c-9 -18 -9 -30 -1 -42 19 -31 38 -20 41 26 2 33 0 42
-13 42 -8 0 -21 -12 -27 -26z"/>
<path d="M9570 8607 c0 -1 -4 -16 -9 -34 -7 -23 -6 -35 3 -42 18 -15 33 0 41
42 7 33 5 37 -14 37 -11 0 -21 -1 -21 -3z"/>
<path d="M9802 7763 c1054 -2 2782 -2 3840 0 1058 1 195 2 -1917 2 -2112 0
-2977 -1 -1923 -2z"/>
<path d="M9797 7073 c1058 -2 2788 -2 3845 0 1058 1 193 2 -1922 2 -2115 0
-2980 -1 -1923 -2z"/>
<path d="M9797 6383 c1057 -2 2789 -2 3850 0 1060 1 196 2 -1922 2 -2117 0
-2985 -1 -1928 -2z"/>
<path d="M9797 5693 c1058 -2 2788 -2 3845 0 1058 1 193 2 -1922 2 -2115 0
-2980 -1 -1923 -2z"/>
<path d="M9802 5003 c1054 -2 2782 -2 3840 0 1058 1 195 2 -1917 2 -2112 0
-2977 -1 -1923 -2z"/>
<path d="M9802 3613 c1054 -2 2782 -2 3840 0 1058 1 195 2 -1917 2 -2112 0
-2977 -1 -1923 -2z"/>
<path d="M9797 2923 c1058 -2 2788 -2 3845 0 1058 1 193 2 -1922 2 -2115 0
-2980 -1 -1923 -2z"/>
<path d="M9797 2233 c1057 -2 2789 -2 3850 0 1060 1 196 2 -1922 2 -2117 0
-2985 -1 -1928 -2z"/>
<path d="M9797 1543 c1058 -2 2788 -2 3845 0 1058 1 193 2 -1922 2 -2115 0
-2980 -1 -1923 -2z"/>
<path d="M9802 853 c1054 -2 2782 -2 3840 0 1058 1 195 2 -1917 2 -2112 0
-2977 -1 -1923 -2z"/>
</g>
</svg>
