<?xml version="1.0" standalone="no"?>
<!DOCTYPE svg PUBLIC "-//W3C//DTD SVG 20010904//EN"
 "http://www.w3.org/TR/2001/REC-SVG-20010904/DTD/svg10.dtd">
<svg version="1.0" xmlns="http://www.w3.org/2000/svg"
 width="1618.000000pt" height="1214.000000pt" viewBox="0 0 1618.000000 1214.000000"
 preserveAspectRatio="xMidYMid meet">

<g transform="translate(0.000000,1214.000000) scale(0.100000,-0.100000)"
fill="#000000" stroke="none">
<path d="M630 6040 l0 -5190 3310 0 3310 0 0 3821 c0 3635 1 3821 18 3814 9
-3 48 -13 85 -22 53 -12 71 -13 80 -4 16 17 -14 39 -62 46 -20 3 -54 11 -76
19 l-40 13 -3 915 -2 916 27 7 c47 11 113 55 134 88 12 21 19 50 19 83 0 68
-38 127 -118 179 l-61 40 -1 129 0 128 24 -6 c15 -4 28 0 35 8 10 11 7 18 -11
30 -12 9 -28 16 -35 16 -10 0 -13 22 -13 80 l0 80 -3310 0 -3310 0 0 -5190z
m6610 5107 l0 -73 -97 -13 c-54 -7 -107 -17 -118 -23 -118 -61 -74 -159 119
-268 20 -11 36 -15 36 -9 0 5 5 7 10 4 6 -4 8 -10 5 -14 -2 -5 7 -13 20 -19
25 -12 25 -12 25 -162 l0 -150 -25 0 c-49 0 -138 59 -129 85 7 17 -10 27 -30
19 -22 -8 -20 -50 3 -73 30 -30 103 -69 144 -76 l37 -7 0 -914 0 -914 -31 0
c-17 0 -37 7 -45 15 -9 8 -11 15 -6 15 6 0 -2 27 -16 61 -20 44 -46 79 -99
130 -40 38 -79 69 -88 69 -17 0 -20 -27 -6 -49 22 -35 -43 -76 -76 -49 -12 9
-14 26 -10 70 5 60 -7 88 -38 88 -8 0 -17 10 -20 23 -12 36 -55 87 -75 87 -25
0 -68 -53 -75 -93 -12 -77 -11 -92 9 -92 16 0 22 11 31 58 14 70 31 91 48 62
7 -11 17 -33 23 -50 6 -16 20 -34 33 -40 18 -8 21 -15 16 -42 -8 -44 21 -112
51 -119 40 -10 92 5 114 33 l21 26 36 -34 c30 -29 81 -118 89 -156 1 -6 -14
-14 -35 -18 -75 -14 -160 -48 -184 -74 -38 -41 -50 -87 -31 -126 15 -32 49
-55 82 -55 30 0 116 46 150 81 36 35 72 98 72 124 0 10 10 15 30 15 l30 0 0
-3820 0 -3820 -3300 0 -3300 0 0 5180 0 5180 3300 0 3300 0 0 -73z m0 -249 l0
-129 -52 28 c-114 60 -160 96 -179 143 -9 21 -7 28 12 42 12 10 39 21 60 24
22 4 39 9 39 13 0 3 27 7 60 7 l60 2 0 -130z m87 -238 c31 -23 63 -81 63 -115
0 -42 -31 -89 -73 -108 -68 -32 -67 -34 -67 129 l0 146 28 -19 c16 -10 38 -25
49 -33z m-199 -2192 c-38 -114 -218 -190 -218 -92 0 26 36 74 55 74 9 0 12 7
9 18 -4 10 -3 13 3 6 6 -9 27 -7 78 7 39 10 73 18 77 18 4 1 2 -14 -4 -31z"/>
<path d="M5514 10733 c-5 -17 -1 -45 9 -72 15 -44 15 -47 -3 -66 -11 -12 -20
-26 -20 -32 0 -51 -100 85 -115 155 -5 23 -12 32 -27 32 -19 0 -20 -4 -14 -42
8 -50 38 -104 56 -100 6 1 10 -3 7 -10 -2 -7 2 -25 9 -39 12 -25 12 -27 -9
-33 -12 -3 -41 -6 -65 -6 -39 0 -43 -2 -40 -22 2 -19 9 -23 38 -23 19 0 51 4
70 8 l36 7 35 -82 c22 -50 43 -84 52 -86 22 -4 23 35 1 66 -8 12 -13 22 -10
22 3 0 -4 19 -14 43 -26 57 -26 60 17 90 l38 27 27 -29 c16 -17 28 -34 28 -38
0 -12 57 -73 69 -73 12 0 38 25 43 42 3 8 34 -5 92 -40 94 -56 116 -62 116
-34 0 12 -30 35 -90 71 -110 65 -122 69 -148 41 l-20 -21 -41 57 c-37 52 -40
59 -26 74 24 26 18 66 -16 105 -39 44 -75 47 -85 8z m66 -53 c6 -11 8 -26 4
-32 -5 -8 -10 -5 -15 8 -16 41 -8 59 11 24z"/>
<path d="M4375 10707 c-46 -48 -64 -94 -66 -162 l-1 -40 -21 58 c-15 38 -27
57 -39 57 -28 0 -26 -20 16 -134 23 -61 41 -115 42 -121 3 -44 19 -118 29
-131 18 -25 49 -11 40 19 -4 12 -9 52 -12 90 -3 37 -9 67 -14 67 -5 0 -6 7 -2
16 4 11 13 14 30 9 27 -6 66 2 59 13 -2 4 38 6 89 4 112 -4 127 -14 98 -64
-23 -41 -103 -95 -161 -111 -46 -12 -62 -31 -44 -49 18 -18 141 35 194 85 74
68 88 116 43 155 -31 27 -140 40 -198 24 l-37 -10 24 31 c56 77 81 174 53 211
-7 9 -27 19 -45 22 -30 6 -37 2 -77 -39z m94 -37 c1 -14 8 -29 15 -33 7 -6 6
-7 -4 -4 -11 3 -25 -12 -44 -49 -16 -30 -42 -64 -59 -76 l-30 -22 6 63 c4 34
12 72 18 84 34 66 90 87 98 37z"/>
<path d="M2800 10697 c-86 -35 -177 -85 -183 -101 -3 -8 0 -20 8 -26 11 -9 21
-6 47 13 18 14 48 32 67 42 47 24 58 9 76 -106 13 -84 24 -122 64 -221 6 -18
18 -28 31 -28 26 0 25 12 -4 74 -21 44 -29 76 -52 194 -4 17 -10 22 -22 18
-14 -5 -13 -3 2 9 17 13 18 19 8 52 -15 49 -5 58 65 59 37 0 58 5 61 13 12 36
-86 41 -168 8z"/>
<path d="M3323 10673 c-4 -9 13 -71 37 -140 33 -96 41 -132 37 -164 -7 -52
-11 -55 -42 -35 -14 9 -30 14 -35 11 -6 -3 -10 0 -10 8 0 18 -165 177 -184
177 -30 0 -36 -24 -20 -81 9 -29 15 -80 15 -112 -1 -51 1 -58 16 -55 23 4 36
71 25 125 -5 24 -7 43 -4 43 2 0 40 -34 84 -76 145 -138 198 -132 198 22 0 24
-14 80 -30 126 -17 45 -28 89 -25 98 6 18 -29 70 -46 70 -5 0 -13 -8 -16 -17z"/>
<path d="M6655 10640 c-8 -12 12 -87 25 -95 6 -4 8 -10 6 -14 -3 -4 1 -29 8
-57 17 -66 41 -67 76 -2 27 49 58 88 71 88 4 0 21 -24 37 -53 37 -66 55 -82
70 -64 14 17 -60 145 -91 156 -31 12 -63 -7 -96 -57 l-28 -42 -18 62 c-24 82
-43 106 -60 78z"/>
<path d="M2230 10618 c-44 -23 -45 -24 -48 -79 l-3 -56 58 -47 c31 -26 78 -59
103 -73 104 -59 138 -85 156 -118 10 -19 16 -37 13 -40 -3 -3 -24 -6 -47 -8
-26 -1 -37 -6 -31 -11 20 -21 8 -28 -13 -9 -13 11 -47 26 -76 33 -30 7 -76 28
-104 47 -54 35 -80 33 -59 -6 29 -53 178 -104 286 -98 62 4 85 19 85 56 0 35
-40 103 -68 117 -12 6 -31 19 -42 29 -10 9 -26 15 -35 12 -9 -4 -15 -1 -15 7
0 7 -12 18 -27 25 -35 16 -127 90 -142 114 -25 39 15 76 92 84 62 7 105 -13
128 -59 21 -40 42 -46 47 -12 4 30 -35 84 -73 100 -52 21 -133 18 -185 -8z"/>
<path d="M6496 10623 c-15 -15 -36 -76 -36 -105 0 -44 26 -97 54 -109 19 -9
33 -8 62 3 41 17 48 26 35 46 -7 11 -14 11 -41 -3 -32 -17 -34 -16 -47 1 -20
28 -17 74 5 74 44 0 70 70 33 90 -23 12 -54 13 -65 3z"/>
<path d="M6302 10587 c-7 -8 -10 -16 -7 -18 2 -3 8 -24 13 -47 8 -32 7 -41 -1
-34 -50 38 -128 82 -137 77 -23 -14 -6 -38 58 -79 37 -24 76 -53 86 -65 26
-29 56 -28 56 2 0 39 -23 142 -33 148 -5 3 -8 10 -7 15 3 15 -16 15 -28 1z"/>
<path d="M5980 10555 c-18 -21 -16 -79 3 -109 29 -44 96 -47 137 -6 25 25 14
52 -28 69 -23 10 -29 17 -24 33 3 14 1 19 -6 14 -7 -4 -12 -2 -12 3 0 16 -56
13 -70 -4z m98 -90 c3 -3 -6 -5 -20 -5 -14 0 -31 7 -38 15 -10 12 -7 13 21 5
17 -5 34 -12 37 -15z"/>
<path d="M5128 10523 c-66 -75 -41 -183 42 -183 44 0 100 26 100 46 0 17 -8
17 -84 -2 -33 -8 -56 13 -56 52 0 18 6 23 31 26 44 4 59 30 35 57 -23 26 -48
27 -68 4z"/>
<path d="M4836 10492 c-22 -25 -23 -85 -3 -134 19 -44 63 -92 77 -83 6 3 10 1
10 -5 0 -7 17 -10 48 -8 39 3 47 6 47 23 0 16 -6 19 -32 17 -39 -4 -89 21 -98
48 -3 11 -12 20 -18 20 -7 1 -6 5 3 13 30 23 61 77 58 100 -4 31 -66 37 -92 9z"/>
<path d="M3718 10422 c-66 -20 -88 -36 -71 -53 8 -8 26 -7 67 6 30 10 62 15
70 12 8 -3 22 0 32 8 15 11 16 15 5 29 -16 19 -30 19 -103 -2z"/>
<path d="M4214 9955 c-4 -9 1 -24 11 -35 17 -19 76 -170 78 -204 2 -14 -9 -22
-44 -32 -52 -16 -72 -33 -60 -53 7 -11 19 -9 65 8 31 11 61 21 65 21 20 0 37
-79 41 -177 0 -7 9 -13 20 -13 14 0 20 7 21 23 2 47 -3 84 -18 131 -16 49 -12
60 19 66 8 1 77 21 116 34 21 7 23 5 17 -13 -10 -34 12 -59 75 -82 92 -33 91
-48 -2 -79 -55 -18 -71 -42 -30 -48 51 -8 152 50 152 86 -1 30 -34 59 -87 77
-29 9 -55 20 -58 25 -10 16 6 37 41 56 35 19 44 41 20 50 -10 4 -225 -52 -283
-73 -6 -3 -22 15 -34 39 -12 24 -24 45 -28 48 -3 3 -7 18 -8 34 -3 41 -45 120
-66 124 -9 2 -20 -4 -23 -13z"/>
<path d="M3782 9698 c3 -25 34 -36 51 -19 14 14 -9 41 -35 41 -14 0 -19 -6
-16 -22z"/>
<path d="M2562 9647 c-26 -26 -39 -33 -61 -29 -49 7 -100 -16 -132 -60 -37
-52 -37 -82 1 -118 17 -16 38 -50 47 -76 21 -62 85 -126 121 -122 63 7 45 104
-30 159 -22 15 -45 30 -51 32 -15 5 10 43 58 91 19 20 35 39 35 43 0 4 19 26
41 49 39 39 44 64 15 64 -6 0 -27 -15 -44 -33z m58 13 c0 -5 -2 -10 -4 -10 -3
0 -8 5 -11 10 -3 6 -1 10 4 10 6 0 11 -4 11 -10z m-166 -139 c-21 -28 -44 -51
-51 -51 -19 0 -16 35 7 72 11 18 20 30 20 26 0 -3 12 -3 28 1 15 5 28 7 30 5
2 -1 -13 -25 -34 -53z m66 -192 c16 -29 12 -41 -9 -27 -17 11 -51 58 -51 72 0
11 51 -26 60 -45z"/>
<path d="M3967 9597 c-17 -13 -50 -125 -41 -139 11 -17 44 -8 44 11 0 11 5 32
10 47 l10 26 30 -40 c37 -52 61 -66 85 -48 16 11 14 16 -29 56 -25 23 -48 51
-51 61 -9 28 -39 41 -58 26z m133 -127 c0 -5 -7 -10 -16 -10 -8 0 -12 5 -9 10
3 6 10 10 16 10 5 0 9 -4 9 -10z"/>
<path d="M3343 9520 c-39 -24 -62 -66 -70 -128 -10 -87 30 -275 67 -312 10
-10 16 -21 13 -23 -8 -9 38 -29 53 -23 30 12 3 159 -47 258 l-19 38 37 24 c57
38 73 52 73 65 0 7 4 10 9 7 15 -9 53 41 49 65 -7 48 -106 66 -165 29z m115
-35 c8 -8 -61 -72 -107 -98 l-31 -18 0 26 c0 59 45 105 98 100 18 -2 37 -6 40
-10z m-91 -360 c-4 -10 -38 91 -36 109 0 6 9 -14 20 -44 11 -30 18 -59 16 -65z"/>
<path d="M3590 9516 c-14 -38 -19 -106 -10 -132 21 -55 87 -67 131 -23 28 28
18 64 -30 111 -21 20 -41 43 -44 52 -9 24 -36 19 -47 -8z m70 -80 c27 -30 21
-59 -12 -54 -19 2 -24 10 -26 41 -4 43 6 46 38 13z"/>
<path d="M3815 9510 c-8 -13 2 -60 13 -60 4 0 6 -15 5 -32 -4 -41 9 -63 32
-54 14 5 17 15 13 49 -8 72 -44 127 -63 97z"/>
<path d="M5513 9329 c-7 -7 -8 -23 -2 -47 7 -32 9 -73 11 -182 0 -80 33 -312
54 -382 6 -19 29 -24 38 -9 4 5 0 38 -8 73 -8 34 -16 80 -19 100 -5 36 -4 38
31 48 20 5 63 10 95 10 50 0 58 2 55 18 -3 15 -16 17 -100 16 l-96 -1 -6 71
c-3 39 -5 107 -5 151 -1 115 -18 164 -48 134z"/>
<path d="M6516 9133 c-8 -20 2 -32 33 -35 29 -4 37 14 16 36 -21 21 -41 20
-49 -1z"/>
<path d="M5860 9092 c0 -33 26 -64 35 -41 14 40 10 64 -12 67 -19 3 -23 -1
-23 -26z"/>
<path d="M6122 8993 c-59 -53 -61 -108 -6 -152 44 -35 185 -25 192 13 4 17 -1
18 -68 12 -57 -6 -76 -4 -96 9 -31 20 -30 46 3 79 l27 28 28 -34 c20 -25 30
-30 38 -22 25 25 -23 94 -64 94 -13 0 -37 -12 -54 -27z"/>
<path d="M6530 8916 c-12 -58 -6 -116 13 -128 21 -13 27 7 31 95 3 78 2 87
-15 87 -13 0 -20 -13 -29 -54z"/>
<path d="M5840 8937 c0 -22 45 -126 64 -148 9 -11 21 -17 26 -14 12 8 13 38 2
51 -5 5 -19 35 -32 67 -16 41 -28 57 -41 57 -11 0 -19 -6 -19 -13z"/>
<path d="M5226 8898 c-21 -29 -20 -102 0 -138 23 -38 72 -59 124 -54 87 8 90
46 3 42 -49 -2 -58 1 -79 25 -36 42 -31 107 8 107 30 0 18 34 -14 38 -18 2
-31 -4 -42 -20z"/>
<path d="M4942 8883 c-7 -10 -10 -11 -6 -3 4 8 -4 5 -18 -8 -28 -26 -59 -113
-41 -119 5 -2 8 -15 5 -28 -4 -21 -1 -25 21 -25 14 0 38 11 53 25 l27 25 26
-31 c19 -22 33 -30 51 -28 34 5 38 35 6 43 -24 6 -26 11 -26 61 0 73 -22 74
-75 3 -35 -46 -40 -50 -43 -31 -6 38 20 77 53 83 22 4 30 11 30 25 0 27 -45
32 -63 8z"/>
<path d="M4657 8862 c-24 -27 -37 -69 -37 -122 0 -58 14 -100 34 -100 21 0 26
23 26 111 0 62 3 81 15 85 20 8 19 30 -1 38 -21 8 -19 9 -37 -12z"/>
<path d="M3173 8855 c-3 -9 4 -46 15 -83 12 -37 29 -96 37 -132 9 -36 18 -71
20 -77 3 -7 -14 -22 -35 -33 -38 -20 -51 -42 -30 -55 5 -3 23 1 39 10 17 8 32
15 35 15 8 0 38 -107 36 -127 -4 -34 0 -43 19 -43 33 0 32 51 -5 172 -3 12 7
20 43 34 62 22 79 37 61 52 -10 8 -27 5 -65 -8 l-53 -18 -10 41 c-20 83 -63
232 -72 250 -11 21 -27 22 -35 2z"/>
<path d="M4362 8798 c-7 -7 -12 -17 -12 -24 0 -7 -5 -14 -10 -16 -6 -2 -20
-42 -32 -91 -12 -50 -26 -87 -34 -87 -19 0 -26 -47 -10 -73 8 -12 17 -40 21
-62 4 -22 8 -51 11 -65 2 -14 6 -48 8 -77 4 -70 41 -125 61 -93 3 5 1 37 -5
72 -30 171 -32 207 -17 222 8 8 17 13 20 10 9 -9 50 16 85 52 26 27 32 41 32
77 0 50 -23 122 -47 149 -18 21 -53 24 -71 6z m64 -93 c22 -68 13 -100 -35
-132 -19 -13 -38 -23 -42 -23 -24 0 2 160 31 195 20 25 28 18 46 -40z"/>
<path d="M2387 8783 c-21 -20 29 -218 76 -308 15 -27 27 -53 27 -56 0 -4 -14
-12 -31 -19 -31 -13 -50 -44 -42 -67 7 -18 32 -16 39 2 4 9 18 22 32 29 25 13
26 13 63 -66 21 -43 38 -89 36 -101 -2 -17 3 -22 23 -22 39 0 36 30 -14 132
l-45 92 55 20 c64 24 84 27 66 9 -7 -7 -12 -26 -12 -42 1 -85 31 -104 91 -57
25 21 48 31 66 30 47 -4 93 11 94 29 0 9 5 2 10 -15 11 -39 35 -43 51 -8 8 19
8 28 -2 40 -8 9 -10 27 -6 50 7 37 24 54 36 36 5 -9 11 -7 21 5 12 14 10 19
-10 35 -29 23 -33 23 -61 1 -16 -13 -24 -32 -27 -68 -3 -28 -10 -52 -17 -53
-6 -1 -38 -3 -72 -5 -45 -2 -70 -10 -92 -26 -18 -13 -35 -21 -39 -17 -3 4 1
34 10 67 10 33 17 62 17 65 0 12 -40 3 -115 -25 -44 -16 -81 -30 -82 -30 -7 0
-62 120 -73 158 -7 23 -16 42 -19 42 -3 0 -7 10 -7 23 -1 12 -4 42 -7 67 -3
25 -6 48 -6 53 -1 9 -25 9 -34 0z"/>
<path d="M2032 8688 c-98 -48 -145 -187 -87 -257 27 -31 106 -68 124 -56 6 3
11 2 11 -3 0 -5 19 -12 43 -16 93 -15 147 -52 147 -102 0 -27 -90 -113 -132
-126 -34 -10 -42 -9 -68 10 -36 27 -50 28 -50 4 0 -54 92 -77 165 -42 57 28
126 114 127 160 2 52 -56 110 -122 124 -222 47 -265 85 -211 190 14 26 31 50
38 53 7 3 13 10 13 17 0 6 10 12 23 13 12 1 40 4 62 5 32 3 40 8 40 23 0 29
-67 31 -123 3z"/>
<path d="M5326 7825 c-15 -25 -24 -50 -21 -55 3 -6 2 -10 -4 -10 -6 0 -17 -12
-24 -26 -9 -17 -17 -23 -21 -15 -4 6 -16 11 -27 11 -23 0 -25 -26 -4 -50 13
-15 8 -28 -50 -130 -36 -63 -65 -118 -65 -122 0 -4 -3 -8 -7 -8 -5 0 -16 -14
-25 -31 -34 -59 -16 -84 34 -45 31 23 120 66 137 66 5 0 11 -57 13 -127 6
-142 26 -213 59 -213 23 0 23 11 3 69 -8 24 -18 95 -22 158 -8 121 -4 135 36
118 36 -16 52 -15 52 4 0 24 -19 39 -59 47 -17 4 -30 12 -29 18 1 6 -2 50 -6
98 l-8 88 36 65 c20 35 44 68 52 73 20 11 15 56 -7 60 -11 2 -26 -13 -43 -43z
m-67 -316 c1 -46 1 -46 -46 -65 -27 -11 -52 -21 -56 -23 -10 -4 32 76 49 95 6
7 17 27 24 45 12 28 15 30 21 13 4 -10 8 -40 8 -65z"/>
<path d="M4735 7690 c-3 -6 -2 -25 4 -43 10 -31 15 -69 47 -365 20 -187 42
-276 69 -280 13 -2 24 6 32 24 11 23 10 27 -7 31 -11 3 -20 13 -20 23 0 10 -7
26 -16 34 -9 10 -11 16 -4 16 7 0 9 10 6 28 -7 33 -28 211 -28 232 1 8 -1 26
-4 38 -4 21 -7 22 -22 11 -15 -12 -15 -12 1 7 21 25 22 44 2 44 -8 0 -15 5
-15 10 0 6 5 10 10 10 6 0 10 18 10 40 0 22 -4 40 -8 40 -5 0 -7 12 -5 28 8
53 -31 107 -52 72z"/>
<path d="M6540 7672 c-58 -39 -125 -138 -113 -168 9 -25 40 -16 46 14 7 34 54
95 90 117 33 20 92 13 101 -11 12 -32 5 -96 -19 -171 -14 -45 -20 -79 -15 -81
6 -2 10 -8 10 -13 0 -4 -6 -6 -13 -3 -9 3 -21 -11 -32 -37 -11 -23 -32 -62
-47 -86 -22 -34 -33 -43 -56 -43 -18 0 -38 -10 -54 -27 -32 -34 -88 -145 -88
-173 0 -40 30 -35 80 15 27 27 48 51 47 54 -1 3 10 18 24 33 l26 28 32 -40
c38 -47 82 -72 119 -68 40 4 33 28 -13 44 -24 8 -55 30 -77 56 l-36 43 19 31
c10 17 16 34 12 37 -3 4 -1 7 5 7 6 0 19 14 27 31 14 25 14 33 3 47 -11 15
-11 16 4 4 14 -11 18 -8 29 25 8 21 14 43 15 48 0 6 9 28 19 50 10 22 18 61
19 87 1 25 4 44 9 41 4 -2 7 7 7 21 0 14 -4 26 -9 26 -5 0 -11 10 -13 23 -2
12 -9 21 -16 20 -6 -2 -12 3 -12 11 0 30 -89 36 -130 8z m-59 -540 c-5 -10
-18 -25 -27 -33 -16 -13 -16 -12 -4 11 11 22 28 39 38 40 1 0 -2 -8 -7 -18z"/>
<path d="M7000 7594 c0 -9 8 -28 19 -42 10 -15 31 -52 47 -82 26 -49 29 -64
28 -145 -1 -103 -22 -169 -51 -163 -14 3 -18 13 -17 43 1 22 7 41 13 43 15 5
14 27 -3 41 -11 9 -15 7 -20 -11 -5 -18 -8 -20 -15 -9 -6 10 -11 5 -16 -20
-13 -58 -8 -91 19 -118 22 -21 30 -24 53 -15 61 21 93 126 80 263 -5 60 -49
161 -69 161 -6 0 -8 3 -5 6 4 4 -1 20 -10 35 -19 31 -53 39 -53 13z"/>
<path d="M2455 7581 c-28 -10 -62 -24 -75 -32 -14 -7 -27 -14 -30 -14 -27 -5
-49 -18 -44 -27 5 -7 2 -9 -8 -6 -9 4 -27 -5 -44 -21 -50 -48 -64 -74 -64
-115 0 -34 6 -46 43 -81 24 -23 93 -67 153 -99 169 -88 193 -127 134 -219 -33
-52 -104 -103 -158 -113 -39 -8 -104 9 -122 31 -10 12 -10 18 0 30 19 23 -1
41 -28 26 -73 -39 13 -131 123 -131 65 0 123 28 179 83 65 65 108 157 74 157
-10 0 -10 2 -1 8 9 6 8 15 -6 39 -26 41 -65 70 -194 139 -111 60 -157 99 -157
136 0 28 96 120 132 126 9 1 43 14 75 28 77 34 117 34 154 -2 22 -21 32 -25
41 -16 16 16 -8 59 -44 78 -36 18 -72 17 -133 -5z"/>
<path d="M3628 7468 c-3 -7 2 -24 9 -38 9 -19 72 -240 73 -256 0 -1 -18 -9
-40 -18 -22 -9 -40 -23 -40 -31 0 -17 27 -19 64 -5 24 9 27 6 42 -28 9 -20 18
-48 20 -61 4 -35 27 -56 41 -39 8 9 5 32 -12 83 l-23 70 32 14 c17 8 58 24 91
36 32 13 60 28 61 34 2 7 0 7 -3 1 -2 -5 -9 -7 -14 -4 -6 3 -5 12 3 22 10 12
10 14 0 8 -7 -4 -25 -10 -40 -12 -15 -3 -37 -12 -49 -20 -13 -8 -23 -12 -23
-9 0 3 -14 -2 -31 -11 -36 -18 -48 -11 -54 34 -5 39 -21 101 -46 180 -15 46
-25 62 -39 62 -10 0 -20 -5 -22 -12z"/>
<path d="M4109 7293 c-52 -45 -83 -135 -63 -187 12 -32 52 -17 110 40 30 31
56 54 58 52 46 -73 60 -88 97 -106 23 -12 46 -19 51 -16 11 7 10 34 -2 34 -16
0 -89 70 -96 93 -4 12 -8 33 -8 47 -1 28 -56 70 -92 70 -12 0 -37 -12 -55 -27z
m70 -22 c9 -6 10 -14 4 -25 -12 -22 -95 -108 -99 -103 -9 8 20 80 42 107 28
32 32 34 53 21z m-14 -81 c3 -5 1 -10 -4 -10 -6 0 -11 5 -11 10 0 6 2 10 4 10
3 0 8 -4 11 -10z"/>
<path d="M6769 7238 c-12 -23 -30 -54 -40 -68 -10 -14 -19 -41 -21 -60 -2 -29
0 -35 16 -35 15 0 26 15 43 59 32 85 40 88 48 20 11 -95 17 -109 53 -112 27
-3 32 0 32 17 0 12 -7 21 -15 21 -14 0 -17 11 -30 107 -13 103 -49 124 -86 51z"/>
<path d="M2750 7174 c-7 -19 -7 -31 1 -40 9 -12 9 -13 -4 -9 -11 5 -17 -2 -22
-27 -4 -18 -11 -37 -15 -43 -14 -20 2 -94 26 -120 30 -33 66 -32 105 3 52 46
28 90 -56 104 -17 3 -20 10 -17 47 1 24 9 52 17 63 7 11 11 27 8 34 -9 23 -33
16 -43 -12z m68 -188 c8 -9 -10 -26 -27 -26 -18 0 -41 18 -41 33 0 9 58 2 68
-7z"/>
<path d="M3303 7159 c-34 -13 -47 -46 -34 -89 24 -82 87 -99 135 -38 l24 31
12 -39 c16 -50 47 -94 66 -94 24 0 28 29 8 51 -10 12 -28 46 -40 77 -27 73
-45 77 -95 20 -37 -41 -39 -42 -54 -24 -21 28 -19 63 5 71 22 7 27 30 8 38 -7
2 -23 1 -35 -4z"/>
<path d="M2885 7120 c-4 -6 -2 -16 3 -23 6 -7 17 -37 27 -69 23 -82 55 -90 55
-13 0 108 90 67 130 -58 8 -27 16 -37 27 -33 8 3 11 1 8 -4 -3 -6 -2 -10 4
-10 20 0 20 19 -1 71 -29 74 -64 118 -106 136 -32 13 -37 13 -62 -5 -26 -20
-27 -20 -38 -1 -13 21 -37 25 -47 9z"/>
<path d="M5995 6738 c4 -35 17 -109 29 -164 l23 -102 -34 -26 c-21 -17 -33
-36 -33 -51 0 -34 22 -31 49 6 13 17 26 27 31 22 4 -4 24 -50 45 -100 29 -70
42 -93 56 -93 11 0 19 7 19 17 0 15 -58 152 -70 163 -10 10 -8 43 3 54 16 15
87 36 122 36 22 0 25 3 16 13 -6 8 -8 17 -4 20 3 4 12 -1 19 -11 12 -16 13
-16 14 0 0 9 -8 19 -19 23 -23 7 -102 -10 -142 -31 -28 -14 -30 -14 -39 11 -6
15 -10 31 -10 36 0 5 -8 9 -17 10 -11 0 -13 3 -5 6 15 6 16 55 0 71 -7 7 -11
33 -9 62 3 65 -5 90 -31 90 -19 0 -20 -4 -13 -62z"/>
<path d="M3643 6658 c-50 -52 -112 -154 -88 -144 9 3 23 6 31 6 7 0 21 14 29
31 30 58 85 109 117 109 23 0 29 4 26 18 -2 11 -14 18 -38 20 -30 2 -41 -3
-77 -40z"/>
<path d="M6693 6528 c-12 -13 -27 -36 -33 -53 -20 -52 12 -165 46 -165 13 0
15 7 10 38 -18 101 -18 113 -2 136 10 16 27 26 48 28 50 5 44 32 -7 36 -32 2
-45 -2 -62 -20z"/>
<path d="M5731 6526 c-9 -11 -8 -18 4 -30 29 -29 49 -17 34 22 -10 25 -22 28
-38 8z"/>
<path d="M3537 6493 c-26 -43 -29 -151 -3 -136 7 5 7 2 -1 -8 -7 -9 -8 -20 -3
-28 4 -8 6 -21 2 -29 -4 -11 -1 -13 8 -7 9 5 11 4 6 -3 -12 -20 93 -199 108
-184 4 3 3 -4 -2 -17 -5 -14 -24 -30 -48 -39 -65 -25 -194 -103 -194 -117 0
-19 25 -25 46 -11 40 27 190 102 204 101 18 0 41 -101 35 -155 -4 -45 -39
-137 -60 -160 -27 -29 -3 -49 32 -27 15 9 48 82 57 123 22 103 10 229 -20 217
-8 -3 -14 0 -14 6 0 6 7 11 15 11 9 0 33 9 55 20 22 11 41 20 44 20 10 0 -7
-35 -26 -53 -18 -17 -18 -21 -4 -36 9 -10 14 -20 11 -23 -9 -9 16 -66 31 -72
35 -14 114 57 114 102 0 24 -16 38 -54 48 -24 6 -27 10 -23 34 6 29 -7 50 -32
50 -9 0 -40 -11 -69 -25 l-53 -24 -12 27 c-6 15 -30 56 -53 92 -56 87 -78 156
-72 223 3 28 9 60 13 70 5 13 2 17 -13 17 -12 0 -23 -3 -25 -7z m40 -233 c-1
-12 -5 -16 -10 -11 -5 5 -6 14 -3 20 11 16 15 13 13 -9z m296 -269 c17 -6 16
-9 -9 -36 -26 -28 -28 -28 -34 -10 -8 20 4 56 18 54 4 0 15 -4 25 -8z"/>
<path d="M6347 6445 c-23 -22 -32 -76 -16 -86 11 -7 10 -9 -3 -9 -23 0 -24
-52 -2 -74 23 -24 36 -20 78 23 37 38 39 38 56 21 24 -24 82 -35 109 -21 32
17 15 41 -29 41 -44 0 -63 18 -59 57 6 57 -25 71 -46 21 -7 -18 -27 -51 -45
-73 l-32 -40 4 49 c3 32 10 51 19 54 29 9 40 24 28 38 -15 18 -44 18 -62 -1z"/>
<path d="M5766 6311 c-8 -12 19 -128 34 -147 7 -8 18 -14 26 -14 19 0 27 19
15 33 -5 7 -16 40 -23 72 -9 40 -19 61 -30 63 -9 2 -19 -1 -22 -7z"/>
<path d="M5638 6294 c-4 -3 -4 -20 -1 -37 6 -37 -27 -87 -57 -87 -18 0 -80 68
-80 89 0 6 -9 11 -20 11 -13 0 -20 -7 -20 -19 0 -26 76 -121 98 -122 80 -5
127 44 120 127 -3 36 -23 56 -40 38z"/>
<path d="M5175 6270 c-42 -46 -69 -178 -50 -241 22 -70 86 -80 160 -24 29 23
53 34 63 30 22 -8 97 -100 135 -165 l29 -50 -48 20 c-69 30 -123 28 -191 -6
-66 -33 -96 -70 -95 -113 1 -37 23 -101 34 -101 4 0 8 -5 8 -10 0 -32 72 -78
134 -85 122 -15 226 75 227 197 1 26 -10 66 -25 102 -47 103 -149 236 -182
236 -8 0 -14 5 -14 10 0 22 -52 8 -96 -25 -25 -19 -54 -35 -65 -35 -23 0 -39
36 -39 85 0 36 37 145 48 145 4 -1 21 -19 37 -40 30 -39 65 -53 65 -26 0 22
-70 100 -96 107 -15 5 -28 1 -39 -11z m273 -470 c58 -26 92 -57 92 -84 -1 -39
-38 -105 -72 -126 -26 -16 -46 -20 -96 -18 -34 2 -62 0 -62 -4 0 -5 -4 -8 -10
-8 -5 0 -10 5 -10 10 0 16 -60 94 -78 102 -15 6 -15 7 -1 7 11 1 14 9 11 31
-3 23 3 36 26 60 17 16 27 30 24 31 -22 2 36 14 78 17 35 2 66 -4 98 -18z"/>
<path d="M7010 6226 c0 -28 12 -46 31 -46 22 0 26 29 7 48 -16 16 -38 15 -38
-2z"/>
<path d="M4063 6157 c-30 -33 -53 -101 -53 -155 0 -65 28 -94 50 -51 9 15 8
24 -1 35 -13 16 2 93 28 133 13 20 20 22 58 17 27 -5 46 -3 50 4 13 20 -15 37
-64 38 -38 1 -52 -3 -68 -21z"/>
<path d="M9802 11223 c1054 -2 2782 -2 3840 0 1058 1 195 2 -1917 2 -2112 0
-2977 -1 -1923 -2z"/>
<path d="M10979 11121 c-70 -38 -115 -158 -56 -149 16 2 22 10 22 30 1 34 50
88 81 88 92 0 77 -193 -23 -315 -26 -31 -35 -37 -45 -27 -25 25 -57 14 -86
-32 -84 -133 -55 -208 43 -110 l46 46 46 -46 c37 -38 51 -46 81 -46 64 0 152
64 125 91 -8 8 -22 3 -53 -20 -65 -47 -94 -41 -143 32 l-25 37 29 32 c89 95
133 252 95 343 -23 55 -83 75 -137 46z m-51 -443 c-7 -15 -21 -29 -31 -32 -15
-4 -15 0 5 35 24 43 46 40 26 -3z"/>
<path d="M9376 11028 c-9 -12 -16 -27 -16 -32 0 -15 -72 -180 -86 -196 -19
-22 -27 -67 -15 -75 7 -3 42 1 79 11 38 10 75 15 83 12 9 -3 21 -31 28 -64 7
-32 22 -77 32 -101 l18 -43 -320 0 c-212 0 -318 3 -314 10 3 6 -4 24 -16 41
-12 18 -24 26 -28 20 -4 -6 -12 -7 -21 -1 -13 9 -13 10 0 10 12 1 11 3 -3 14
-10 8 -22 27 -26 43 -10 37 -34 40 -72 8 -38 -32 -47 -26 -23 14 28 47 12 56
-113 57 l-106 2 -38 83 c-21 46 -43 97 -48 112 -12 32 -34 32 -39 0 -2 -11 15
-60 37 -108 23 -48 41 -92 41 -96 0 -5 -9 -9 -21 -9 -14 0 -19 -5 -17 -17 2
-12 13 -18 32 -18 21 -1 32 -8 44 -30 8 -17 18 -32 21 -35 3 -3 6 -9 7 -15 1
-28 18 -64 32 -70 34 -13 35 14 4 85 l-31 70 75 0 c73 0 74 -1 64 -21 -15 -27
-5 -66 19 -74 20 -6 65 8 75 24 4 6 16 1 29 -12 13 -12 40 -35 60 -52 l37 -30
-482 -5 c-438 -5 -407 -6 334 -8 642 -1 817 -5 821 -14 4 -10 7 -10 14 -1 7
10 629 13 3029 16 l3019 2 -3022 3 c-1662 1 -3024 6 -3027 10 -3 5 -12 42 -21
83 -9 41 -18 86 -22 102 -5 22 -2 27 15 27 18 0 32 18 32 42 0 6 -13 8 -33 5
l-32 -5 -26 77 c-14 42 -29 75 -34 74 -6 -1 -10 9 -10 22 0 13 2 22 4 19 2 -2
10 4 17 14 9 12 9 21 2 29 -15 18 -25 16 -42 -9z m30 -184 l13 -43 -47 -10
c-26 -5 -48 -8 -51 -6 -2 2 8 28 23 56 14 29 26 60 26 68 1 23 20 -12 36 -65z"/>
<path d="M8957 11016 c-3 -8 7 -32 23 -54 46 -64 75 -129 114 -254 37 -118 60
-158 78 -140 12 12 -78 302 -93 302 -5 0 -9 8 -10 18 -1 25 -73 137 -91 140
-9 2 -18 -4 -21 -12z"/>
<path d="M10205 10890 c-3 -5 -3 -15 0 -20 4 -6 -3 -30 -15 -55 -16 -32 -20
-56 -17 -89 12 -108 80 -133 165 -61 26 22 32 34 32 66 0 36 -7 47 -63 105
-60 61 -88 76 -102 54z m89 -104 c20 -23 36 -50 36 -59 0 -20 -51 -57 -78 -57
-31 0 -47 59 -31 108 7 20 12 40 11 45 -1 4 4 7 12 7 8 0 31 -20 50 -44z"/>
<path d="M10570 10880 c-10 -6 -16 -35 -20 -92 l-5 -83 -38 53 c-39 52 -60 64
-70 38 -11 -29 120 -173 147 -163 14 6 17 20 16 89 -1 46 -1 93 -1 106 l1 24
34 -21 c67 -42 98 -17 35 29 -43 31 -73 37 -99 20z"/>
<path d="M9917 10800 c-33 -29 -35 -29 -51 -11 -28 31 -54 32 -86 4 -17 -14
-37 -23 -44 -20 -19 7 -38 -16 -30 -36 3 -9 -3 -46 -14 -84 -10 -37 -17 -74
-15 -80 7 -19 33 -16 40 5 17 50 82 180 93 187 23 14 42 -25 35 -73 -6 -41 -5
-43 16 -40 15 2 25 13 30 31 10 36 57 99 70 92 5 -4 10 -27 10 -53 2 -72 12
-106 33 -110 27 -6 42 14 25 34 -7 9 -12 31 -10 49 4 47 -17 113 -39 125 -26
14 -25 14 -63 -20z"/>
<path d="M8107 10802 c-24 -27 -29 -64 -15 -107 11 -32 18 -40 38 -41 14 0 32
5 41 13 13 11 17 8 28 -22 14 -40 54 -65 101 -65 23 0 30 4 30 19 0 13 -10 21
-34 25 -40 8 -51 19 -70 72 -15 45 -41 55 -62 25 -22 -31 -34 -26 -34 14 0 19
5 35 10 35 15 0 12 37 -4 43 -8 3 -21 -2 -29 -11z"/>
<path d="M7710 10748 c0 -7 7 -35 15 -62 8 -27 15 -64 15 -82 0 -45 9 -64 31
-64 16 0 19 8 19 53 0 73 11 88 47 61 15 -12 37 -38 48 -60 21 -41 51 -56 61
-31 7 20 -54 106 -97 135 -19 14 -43 22 -56 19 -16 -3 -27 3 -38 19 -16 25
-45 32 -45 12z"/>
<path d="M7504 10715 c-19 -29 -22 -122 -5 -154 16 -30 69 -61 105 -61 40 0
96 58 96 99 0 34 -26 53 -90 66 -67 13 -70 15 -64 39 8 34 -22 42 -42 11z m99
-95 c10 0 27 -5 38 -10 15 -9 17 -15 9 -30 -18 -33 -46 -43 -79 -26 -31 16
-41 34 -41 71 0 23 1 23 28 9 15 -7 35 -14 45 -14z"/>
<path d="M11083 9954 c-13 -21 -14 -30 -5 -45 16 -25 15 -28 -7 -22 -13 3 -21
-2 -26 -16 l-6 -21 -1576 0 c-867 0 -1578 -2 -1581 -5 -3 -3 184 -5 415 -5
l421 0 -26 -98 -26 -98 -45 3 c-25 1 -56 5 -69 9 -20 6 -22 3 -21 -22 0 -16
-11 -51 -25 -78 -14 -27 -26 -63 -26 -80 1 -45 33 -110 68 -135 26 -18 30 -26
23 -44 -5 -12 -17 -48 -27 -79 l-18 -58 -321 -2 -320 -3 318 -2 319 -3 -3 -38
c-3 -56 -1 -62 21 -62 16 0 20 7 20 34 0 19 3 41 6 50 6 15 142 16 1445 16
791 0 1439 -3 1439 -7 0 -4 -14 -44 -31 -90 -21 -55 -37 -83 -47 -83 -13 0
-12 3 4 14 15 11 16 17 7 27 -18 19 -56 3 -88 -38 -26 -33 -30 -46 -30 -103 0
-42 6 -77 17 -98 17 -33 17 -35 -11 -106 -45 -112 -61 -219 -38 -250 22 -29
51 -14 41 22 -4 15 -7 38 -7 52 1 14 -3 31 -9 38 -8 9 -6 12 6 12 11 0 16 9
16 28 0 16 3 32 7 36 4 4 17 30 28 58 19 47 23 51 60 54 86 8 179 115 155 178
-6 16 -19 30 -30 33 -11 3 -20 9 -20 13 0 4 -11 11 -25 14 l-24 6 25 66 c14
37 31 79 40 95 l15 29 996 -2 997 -3 14 -50 c8 -27 15 -100 15 -161 l2 -111
-34 -50 c-50 -73 -122 -108 -138 -67 -8 22 14 91 32 98 20 7 19 32 -1 40 -24
9 -50 -19 -68 -72 -21 -60 -20 -69 9 -97 33 -34 88 -33 138 0 20 14 37 28 37
31 0 3 -4 2 -10 -1 -5 -3 -10 1 -10 10 0 9 4 14 9 10 6 -3 19 4 30 16 58 63
73 168 42 309 -12 52 -21 95 -21 97 0 2 453 4 1008 6 l1007 2 -1011 3 -1011 2
-11 39 c-7 21 -12 46 -12 54 0 9 -9 21 -20 27 -29 15 -33 -3 -17 -67 l14 -53
-988 0 c-963 0 -987 0 -982 19 8 30 -15 34 -42 7 l-26 -26 -1444 0 -1444 0 10
32 c5 18 6 42 3 53 -4 15 -3 17 5 6 7 -12 11 -8 18 18 8 29 13 34 45 36 48 3
124 48 144 87 23 44 11 90 -32 127 -19 17 -41 31 -49 31 -21 0 -23 20 -8 79
10 36 11 56 4 60 -6 4 -7 12 -1 21 9 13 10 13 11 0 0 -8 7 8 15 35 8 28 18 57
21 65 3 8 5 18 5 23 -1 4 411 7 915 6 715 0 914 -3 898 -12 -32 -19 -105 -96
-105 -111 0 -20 37 -49 55 -42 12 4 15 13 10 35 -5 25 -1 33 29 56 50 38 60
27 53 -59 -9 -105 -70 -271 -113 -307 -24 -20 -66 -88 -62 -101 10 -30 40 -13
80 43 46 66 80 83 103 53 8 -11 15 -26 15 -35 0 -20 37 -59 56 -59 24 0 29 30
6 46 -11 8 -23 27 -27 44 -6 27 -39 63 -66 72 -5 2 -1 28 11 62 27 81 51 213
44 244 -4 15 -16 37 -27 50 l-20 22 205 0 c181 0 207 -2 219 -17 12 -15 12
-16 -3 -10 -15 5 -22 -9 -47 -91 -43 -138 -45 -152 -30 -152 7 0 10 -2 7 -5
-3 -3 -13 -3 -22 1 -18 7 -22 67 -7 108 7 17 7 26 -2 30 -7 2 -6 5 4 5 9 1 22
13 29 27 12 22 12 27 0 35 -18 11 -64 -36 -56 -57 3 -7 0 -14 -6 -16 -13 -5
-28 -87 -17 -94 4 -2 6 -11 2 -20 -3 -8 2 -34 11 -58 15 -39 15 -46 1 -87 -28
-76 -51 -193 -45 -224 4 -21 11 -30 25 -30 16 0 19 8 21 60 1 33 13 96 26 140
21 73 25 80 49 81 45 2 77 13 109 40 37 31 70 93 70 129 0 34 -49 83 -90 91
-18 4 -29 12 -26 19 2 6 0 18 -4 25 -5 8 -6 18 -3 23 3 5 9 4 13 -3 5 -8 10
-2 15 19 l7 31 116 0 117 0 11 -35 c6 -19 8 -37 5 -40 -9 -9 -1 -246 10 -287
10 -38 33 -59 57 -51 18 7 15 34 -5 48 -14 11 -18 33 -21 124 -3 61 -8 111
-13 111 -5 0 -9 5 -9 11 0 5 5 7 10 4 6 -4 10 17 10 54 l0 61 79 0 79 0 -5
-42 c-4 -38 -1 -47 31 -83 20 -22 36 -45 36 -52 0 -6 -9 -32 -20 -58 -29 -67
-26 -113 10 -167 49 -74 104 -84 144 -26 18 25 21 42 6 33 -5 -3 -10 -1 -10 4
0 6 5 11 10 11 13 0 13 51 0 85 -5 14 -14 23 -20 20 -5 -3 -10 -2 -10 4 0 5 5
11 10 13 6 2 -5 26 -24 53 -38 57 -40 49 37 153 l39 52 468 0 467 0 7 -67 c5
-61 4 -69 -14 -82 -25 -17 -27 -51 -2 -51 10 0 23 5 29 11 8 8 11 -18 12 -92
1 -57 4 -105 6 -107 2 -3 11 -2 20 2 13 4 15 23 13 111 l-3 106 64 -3 c108 -5
83 38 -26 46 -24 2 -46 5 -47 7 -2 2 -7 30 -10 62 l-7 57 440 0 440 0 16 -52
c17 -58 19 -80 6 -59 -11 17 -45 7 -39 -12 3 -6 16 -13 31 -15 21 -3 28 -10
33 -38 3 -19 3 -52 -1 -72 -12 -64 -11 -76 7 -80 26 -5 40 40 37 128 -2 72 -1
75 19 72 12 -2 22 1 22 7 0 6 7 8 15 5 12 -5 81 7 200 35 17 4 30 13 30 21 0
20 -69 16 -197 -10 -53 -11 -99 -20 -101 -20 -6 0 -27 59 -27 76 0 12 163 14
958 17 l957 2 -960 3 -960 2 -17 40 c-9 22 -24 43 -33 46 -28 11 -34 -16 -13
-52 l20 -34 -441 0 c-370 0 -441 2 -441 14 0 8 -7 17 -16 20 -23 9 -24 8 -24
-14 0 -20 -7 -20 -465 -20 l-466 0 22 29 c22 30 20 61 -3 61 -7 -1 -26 -21
-41 -45 l-29 -45 -61 0 -60 0 22 24 c24 25 21 46 -5 46 -9 0 -30 -16 -47 -35
-31 -35 -31 -35 -115 -35 -69 0 -87 3 -97 17 -13 17 -14 17 -32 0 -16 -14 -39
-17 -127 -17 l-108 0 31 56 c17 31 28 61 25 65 -10 17 -34 9 -51 -17z m607
-119 c0 -4 -19 -33 -42 -66 l-43 -60 -27 30 c-19 21 -26 38 -23 58 2 15 4 31
4 36 1 8 131 10 131 2z m-610 -160 c25 -13 30 -22 30 -50 0 -74 -131 -163
-136 -92 -1 9 3 17 8 17 6 0 8 11 6 25 -3 14 -1 25 3 25 5 0 14 20 20 45 12
49 23 54 69 30z m572 -82 c12 -21 23 -40 24 -43 0 -3 4 -24 8 -47 8 -44 -5
-83 -27 -83 -8 0 -26 14 -43 31 -23 24 -29 39 -29 72 0 43 21 107 35 107 5 0
19 -17 32 -37z m-3017 -43 c7 -11 -32 -160 -45 -174 -5 -5 -20 3 -34 19 -30
32 -37 86 -16 135 24 58 28 61 60 45 16 -8 32 -19 35 -25z m92 -56 c45 -34 46
-80 3 -112 -16 -12 -34 -22 -39 -22 -6 0 -8 -7 -5 -15 4 -8 1 -15 -5 -15 -6 0
-11 5 -11 10 0 6 -9 10 -19 10 -19 0 -19 2 -4 53 9 28 17 63 17 77 1 22 12 39
25 40 2 0 19 -11 38 -26z m4848 -554 c-3 -5 -10 -10 -16 -10 -5 0 -9 5 -9 10
0 6 7 10 16 10 8 0 12 -4 9 -10z m-2229 -16 c20 -5 21 -8 8 -47 -25 -73 -26
-77 -34 -77 -12 0 -21 61 -14 97 7 35 8 36 40 27z m127 -26 c21 -11 22 -30 2
-69 -17 -32 -69 -69 -97 -69 -23 0 -22 8 2 64 10 25 17 46 13 46 -3 0 0 7 7
15 6 8 9 19 5 25 -7 12 36 4 68 -12z"/>
<path d="M12690 9944 c-7 -18 -7 -31 -1 -37 15 -15 41 0 41 23 0 11 0 23 1 28
0 4 -7 8 -15 10 -10 2 -20 -7 -26 -24z"/>
<path d="M9516 9812 c-7 -11 -26 -130 -26 -161 0 -16 4 -22 15 -17 8 3 15 3
15 0 0 -3 -7 -12 -15 -20 -17 -17 -21 -39 -5 -29 11 7 14 -8 3 -19 -10 -10 -3
-100 8 -104 5 -2 7 -7 4 -12 -10 -16 15 -62 30 -57 9 4 12 1 8 -9 -3 -8 1 -14
9 -14 26 0 28 12 9 44 -10 17 -22 49 -26 71 -10 58 -6 224 7 267 8 29 8 41 -2
53 -14 17 -26 19 -34 7z"/>
<path d="M9830 9796 c-25 -13 -53 -27 -63 -30 -22 -7 -33 -34 -20 -47 12 -12
53 2 78 27 9 10 32 19 51 21 32 3 33 3 24 -22 -19 -51 -43 -91 -73 -122 -23
-25 -28 -35 -19 -46 9 -10 25 -11 77 -3 36 5 68 7 71 4 17 -17 -114 -158 -146
-158 -22 0 -44 -25 -35 -40 11 -18 45 -11 91 20 29 21 44 38 44 53 0 15 3 18
9 9 6 -10 15 -4 35 22 70 93 65 138 -17 138 -26 0 -47 0 -47 1 0 1 14 29 30
61 34 66 37 97 14 120 -21 22 -51 20 -104 -8z"/>
<path d="M9030 9773 c-38 -14 -71 -46 -68 -65 4 -24 47 -45 52 -25 13 41 17
47 36 47 11 0 20 -6 20 -14 0 -24 -51 -110 -87 -148 -19 -20 -32 -41 -29 -47
4 -6 25 -14 47 -17 22 -4 50 -14 61 -24 21 -16 20 -17 -43 -58 -35 -23 -79
-48 -96 -54 -18 -7 -33 -15 -33 -19 0 -4 -9 -5 -20 -2 -15 4 -20 0 -20 -16 0
-33 41 -27 131 20 149 78 176 130 91 177 -39 22 -42 26 -29 41 29 32 67 117
67 147 0 47 -36 73 -80 57z"/>
<path d="M12372 9724 c-50 -35 -48 -97 3 -110 14 -3 25 -11 25 -17 0 -6 3 -8
6 -4 11 10 54 -50 54 -75 0 -37 -33 -62 -70 -54 -38 7 -54 -19 -25 -40 30 -22
63 -16 101 19 31 28 36 39 36 74 -1 53 -16 77 -74 114 -27 17 -48 35 -48 40 0
18 49 33 73 22 26 -12 47 -7 47 12 0 34 -88 47 -128 19z"/>
<path d="M13265 9646 c-8 -19 -15 -52 -15 -71 0 -32 3 -36 23 -33 18 2 23 10
25 46 3 34 7 42 23 42 34 0 21 44 -14 48 -23 3 -30 -2 -42 -32z"/>
<path d="M12966 9639 c-21 -17 -25 -24 -14 -30 10 -7 9 -9 -4 -9 -22 0 -33
-41 -18 -69 15 -29 41 -26 85 9 21 17 39 30 41 30 2 0 8 -18 14 -40 7 -24 17
-40 26 -40 8 0 13 -4 9 -9 -6 -11 21 -41 39 -41 21 0 49 26 42 38 -4 7 -16 12
-26 12 -29 0 -51 42 -53 102 -3 69 -18 72 -81 13 -27 -25 -51 -44 -53 -42 -9
10 12 39 34 48 16 6 23 15 21 26 -5 26 -31 27 -62 2z m19 -99 c3 -5 1 -10 -4
-10 -6 0 -11 5 -11 10 0 6 2 10 4 10 3 0 8 -4 11 -10z"/>
<path d="M10087 9394 c-10 -10 -9 -42 2 -48 18 -11 42 6 39 28 -3 21 -28 33
-41 20z"/>
<path d="M9202 9328 c-19 -19 -15 -48 8 -48 26 0 48 39 29 51 -18 12 -23 11
-37 -3z"/>
<path d="M11667 9083 c-8 -14 -16 -67 -23 -148 -3 -44 -8 -98 -10 -120 -16
-172 -16 -195 -5 -209 19 -23 44 -8 37 23 -8 38 23 369 39 413 7 20 10 39 7
42 -8 9 -40 7 -45 -1z"/>
<path d="M12051 9058 c-6 -18 -27 -51 -47 -73 -20 -22 -53 -66 -73 -97 l-37
-58 -32 31 c-37 36 -40 61 -12 107 13 21 18 42 15 55 -5 17 -4 19 4 7 9 -13
12 -13 27 2 17 17 13 48 -6 48 -18 0 -58 -50 -85 -105 -33 -66 -27 -94 30
-149 37 -37 41 -44 33 -71 -9 -31 -4 -98 9 -118 24 -39 49 -57 79 -57 74 0 74
122 -1 202 l-24 26 38 59 c20 32 56 80 79 106 42 49 59 87 47 106 -12 21 -34
11 -44 -21z m-85 -384 c4 -20 2 -40 -4 -46 -26 -26 -66 45 -56 99 l7 37 23
-27 c13 -15 26 -43 30 -63z"/>
<path d="M10853 9023 c-19 -10 -33 -24 -33 -35 0 -22 27 -23 54 -3 26 19 50
19 66 -1 33 -39 -40 -240 -106 -290 -19 -15 -34 -34 -32 -43 3 -13 23 -16 128
-17 69 -1 136 -3 150 -5 36 -6 32 22 -5 41 -19 9 -59 15 -106 15 l-77 0 18 25
c69 98 102 268 59 311 -23 23 -71 24 -116 2z"/>
<path d="M8586 8945 c-31 -55 -54 -85 -64 -84 -11 0 -12 2 -4 6 20 8 14 43 -8
43 -29 0 -115 -58 -116 -78 0 -9 -8 -32 -18 -50 -25 -48 -31 -120 -14 -162 14
-33 13 -38 -13 -82 -22 -37 -24 -46 -11 -41 10 3 6 -4 -10 -18 -25 -23 -56
-83 -73 -144 -12 -43 -12 -49 -2 -62 14 -19 37 -3 37 27 0 31 109 252 127 257
7 3 10 -3 7 -15 -11 -39 59 -64 133 -47 70 16 94 33 125 92 56 102 41 177 -44
223 -26 14 -50 29 -54 32 -6 6 58 120 83 146 16 16 6 42 -16 42 -11 0 -34 -30
-65 -85z m-79 -132 c-92 -163 -101 -176 -108 -157 -12 30 1 85 28 127 20 29
32 37 55 37 16 0 27 -3 25 -7z m98 -34 c22 -11 46 -28 53 -37 26 -34 7 -122
-37 -169 -25 -27 -94 -47 -130 -38 -29 7 -61 33 -61 48 0 9 94 180 113 205 13
16 15 16 62 -9z"/>
<path d="M10207 8935 l-47 -74 -53 22 -52 22 48 3 c50 3 74 25 46 43 -20 12
-62 11 -54 -1 4 -7 -2 -9 -18 -5 -32 8 -67 -10 -67 -35 0 -20 36 -49 88 -69
17 -8 32 -16 32 -20 0 -3 -11 -28 -25 -55 -33 -66 -33 -125 0 -164 36 -43 72
-47 108 -11 28 28 29 32 26 108 -3 61 -9 86 -25 108 l-22 29 48 66 c56 75 64
102 35 105 -15 2 -32 -17 -68 -72z m-18 -182 c21 -73 9 -143 -24 -143 -17 0
-45 38 -45 63 0 24 40 117 51 117 4 0 13 -17 18 -37z"/>
<path d="M9674 8956 c-9 -23 -1 -48 19 -60 15 -9 21 -7 33 9 15 20 15 20 35
-4 10 -13 19 -38 19 -56 0 -48 -38 -131 -65 -143 -26 -12 -59 -67 -50 -82 11
-17 38 -11 66 16 l26 25 48 -49 c55 -59 102 -83 116 -61 13 22 11 26 -21 39
-16 7 -41 28 -56 47 -14 19 -40 43 -57 53 -26 16 -28 20 -14 26 42 16 62 146
32 203 -22 43 -118 70 -131 37z"/>
<path d="M8945 8928 c-16 -6 -32 -14 -35 -17 -3 -4 -23 -11 -45 -16 -24 -6
-41 -17 -43 -26 -5 -28 24 -29 87 -3 74 29 111 31 111 6 0 -10 -20 -60 -45
-111 -25 -51 -43 -96 -40 -101 2 -4 36 -5 75 -2 38 2 70 1 70 -4 0 -13 -97
-69 -156 -91 -49 -19 -65 -45 -31 -51 21 -4 158 59 204 94 37 28 44 67 15 83
-10 5 -38 12 -62 16 -25 4 -46 7 -47 8 -1 1 13 31 30 66 33 69 38 114 16 136
-20 20 -68 26 -104 13z"/>
<path d="M12793 8895 c-29 -20 -66 -82 -60 -100 3 -7 1 -15 -5 -17 -28 -10 25
-108 74 -138 55 -33 148 -19 148 22 0 21 -6 22 -50 7 -28 -10 -38 -9 -66 6
-19 10 -34 22 -34 27 0 5 13 23 30 39 39 39 56 100 38 137 -15 32 -44 39 -75
17z m37 -60 c0 -14 -13 -39 -30 -57 -29 -32 -29 -32 -30 -9 0 26 36 91 51 91
5 0 9 -11 9 -25z"/>
<path d="M13073 8846 c-16 -13 -34 -35 -42 -48 -9 -18 -19 -24 -35 -21 -26 5
-36 -16 -36 -79 0 -96 29 -89 80 17 39 82 75 121 85 93 46 -132 65 -162 88
-139 9 9 7 19 -5 44 -9 17 -22 51 -29 74 -13 46 -42 83 -64 83 -7 0 -26 -11
-42 -24z"/>
<path d="M10474 8625 c-7 -18 3 -35 21 -35 18 0 26 25 12 39 -15 15 -27 14
-33 -4z"/>
<path d="M9238 8603 c-12 -15 -2 -45 15 -44 4 1 16 1 27 1 29 0 25 32 -5 46
-19 10 -27 9 -37 -3z"/>
<path d="M9802 7763 c1054 -2 2782 -2 3840 0 1058 1 195 2 -1917 2 -2112 0
-2977 -1 -1923 -2z"/>
<path d="M8676 7523 c-22 -33 -44 -127 -46 -193 0 -16 -51 37 -100 106 -16 23
-36 44 -45 48 -26 10 -28 -21 -3 -57 33 -50 138 -167 149 -167 20 0 41 54 53
132 15 100 30 135 52 117 11 -9 18 -9 27 0 17 17 -4 45 -36 49 -21 3 -31 -5
-51 -35z m-146 -133 c0 -5 -2 -10 -4 -10 -3 0 -8 5 -11 10 -3 6 -1 10 4 10 6
0 11 -4 11 -10z"/>
<path d="M8062 7481 c-7 -4 -31 -41 -55 -83 l-43 -75 -18 44 c-24 58 -55 73
-100 49 -17 -9 -39 -29 -49 -44 l-16 -27 2 30 c2 24 -2 30 -18 30 -23 0 -33
-48 -31 -155 1 -58 3 -65 21 -65 16 0 21 8 25 41 6 43 45 118 78 147 20 18 21
18 37 -7 9 -14 22 -47 29 -73 17 -66 38 -67 70 -6 14 26 37 68 51 93 l25 45 0
-77 c0 -72 2 -79 25 -94 20 -13 28 -14 40 -4 21 18 19 40 -5 40 -13 0 -20 7
-20 20 0 11 -5 20 -11 20 -8 0 -8 4 -2 13 38 47 8 165 -35 138z"/>
<path d="M8212 7394 c-22 -107 28 -174 103 -138 51 24 77 59 64 88 -6 12 -23
30 -39 39 -15 9 -38 28 -51 42 -13 13 -33 25 -44 25 -17 0 -23 -10 -33 -56z
m117 -57 c9 -12 6 -18 -14 -31 -38 -25 -59 -17 -63 23 -6 56 3 66 36 42 16
-11 34 -26 41 -34z"/>
<path d="M9797 7073 c1058 -2 2788 -2 3845 0 1058 1 193 2 -1922 2 -2115 0
-2980 -1 -1923 -2z"/>
<path d="M9797 6383 c1057 -2 2789 -2 3850 0 1060 1 196 2 -1922 2 -2117 0
-2985 -1 -1928 -2z"/>
<path d="M9797 5693 c1058 -2 2788 -2 3845 0 1058 1 193 2 -1922 2 -2115 0
-2980 -1 -1923 -2z"/>
<path d="M9802 5003 c1054 -2 2782 -2 3840 0 1058 1 195 2 -1917 2 -2112 0
-2977 -1 -1923 -2z"/>
<path d="M9802 3613 c1054 -2 2782 -2 3840 0 1058 1 195 2 -1917 2 -2112 0
-2977 -1 -1923 -2z"/>
<path d="M9797 2923 c1058 -2 2788 -2 3845 0 1058 1 193 2 -1922 2 -2115 0
-2980 -1 -1923 -2z"/>
<path d="M9797 2233 c1057 -2 2789 -2 3850 0 1060 1 196 2 -1922 2 -2117 0
-2985 -1 -1928 -2z"/>
<path d="M9797 1543 c1058 -2 2788 -2 3845 0 1058 1 193 2 -1922 2 -2115 0
-2980 -1 -1923 -2z"/>
<path d="M9802 853 c1054 -2 2782 -2 3840 0 1058 1 195 2 -1917 2 -2112 0
-2977 -1 -1923 -2z"/>
</g>
</svg>
