<?xml version="1.0" standalone="no"?>
<!DOCTYPE svg PUBLIC "-//W3C//DTD SVG 20010904//EN"
 "http://www.w3.org/TR/2001/REC-SVG-20010904/DTD/svg10.dtd">
<svg version="1.0" xmlns="http://www.w3.org/2000/svg"
 width="1618.000000pt" height="1214.000000pt" viewBox="0 0 1618.000000 1214.000000"
 preserveAspectRatio="xMidYMid meet">

<g transform="translate(0.000000,1214.000000) scale(0.100000,-0.100000)"
fill="#000000" stroke="none">
<path d="M630 6040 l0 -5190 3310 0 3310 0 0 5190 0 5190 -3310 0 -3310 0 0
-5190z m6610 0 l0 -5180 -3300 0 -3300 0 0 5180 0 5180 3300 0 3300 0 0 -5180z"/>
<path d="M5824 10833 c4 -8 1 -13 -8 -13 -20 0 -21 4 14 -120 44 -153 53 -330
17 -330 -12 0 -73 63 -103 107 -11 15 -47 77 -80 138 -80 142 -96 146 -106 25
-12 -147 -16 -185 -23 -201 -3 -9 -5 -38 -3 -65 2 -36 7 -49 18 -49 9 0 16 11
18 30 1 17 9 71 17 121 8 50 15 107 15 125 0 34 0 34 35 -24 19 -32 35 -60 35
-63 0 -12 61 -92 107 -141 36 -38 57 -53 76 -53 27 0 48 25 40 48 -3 6 1 12 7
12 8 0 11 12 8 35 -2 19 0 35 5 35 23 0 -52 351 -81 380 -8 8 -12 9 -8 3z"/>
<path d="M6384 10765 c-4 -8 5 -43 19 -78 14 -34 28 -84 32 -109 7 -44 6 -47
-13 -43 -28 5 -80 -30 -88 -60 -12 -47 8 -108 39 -123 24 -12 31 -11 53 3 51
33 66 72 61 159 -5 71 -8 81 -34 103 -22 19 -23 22 -5 13 17 -8 22 -8 22 3 0
8 -3 17 -7 21 -4 3 -8 12 -10 19 -24 95 -29 107 -46 107 -10 0 -20 -7 -23 -15z
m58 -305 c-5 -34 -30 -72 -45 -67 -7 2 -13 21 -15 42 -4 41 9 57 43 53 15 -2
19 -9 17 -28z"/>
<path d="M3663 10614 c-9 -24 13 -32 82 -33 34 0 72 -4 85 -9 23 -9 23 -9 4
-26 -10 -10 -40 -33 -66 -52 -80 -58 -76 -103 7 -84 108 24 156 -39 102 -135
-27 -48 -57 -65 -119 -65 -41 0 -48 3 -48 19 0 15 -7 19 -31 18 -45 -3 -61
-32 -31 -57 51 -42 179 -35 230 13 21 19 59 82 60 97 0 3 3 17 7 32 14 55 -29
113 -93 123 -20 4 -41 8 -47 9 -5 2 9 15 32 29 71 45 83 90 30 112 -18 7 -70
16 -115 19 -70 5 -83 4 -89 -10z"/>
<path d="M6640 10620 c-19 -12 -32 -140 -16 -155 6 -5 20 -27 31 -49 25 -49
56 -69 105 -69 44 0 103 31 108 56 4 21 -27 23 -54 2 -33 -25 -79 -19 -108 16
-14 17 -26 35 -26 40 0 5 16 29 35 55 19 25 35 50 35 55 0 6 -11 21 -25 34
-25 26 -59 32 -85 15z m60 -44 c0 -3 -4 -16 -10 -30 -13 -35 -30 -33 -30 4 0
23 4 30 20 30 11 0 20 -2 20 -4z"/>
<path d="M2181 10580 c-54 -12 -91 -35 -91 -58 0 -9 37 -51 81 -91 85 -78 112
-122 125 -200 l7 -43 -74 8 c-41 4 -98 8 -127 9 -28 0 -52 3 -52 8 0 4 -16 7
-35 7 -28 0 -35 -4 -35 -19 0 -20 46 -36 56 -19 4 7 9 7 13 0 9 -14 241 -42
268 -31 34 13 34 78 2 164 -19 52 -30 65 -122 153 -50 47 -54 53 -37 62 30 16
127 13 134 -5 3 -8 12 -15 20 -15 22 0 27 27 8 50 -20 25 -77 33 -141 20z"/>
<path d="M2427 10576 c-10 -25 31 -46 89 -46 58 0 58 1 69 -100 17 -146 42
-237 67 -251 25 -13 35 13 18 49 -12 27 -50 238 -50 279 0 30 13 36 54 25 28
-8 36 -7 41 6 11 29 -15 37 -128 38 -62 1 -122 5 -133 9 -15 4 -23 2 -27 -9z"/>
<path d="M3050 10580 c0 -6 9 -43 20 -82 20 -72 27 -188 12 -188 -4 0 -23 16
-42 35 -28 29 -36 33 -49 22 -14 -11 -14 -10 -2 5 12 16 9 23 -23 59 -20 22
-53 64 -72 94 -62 98 -76 61 -67 -190 6 -152 8 -165 25 -165 21 0 20 -10 20
164 -1 76 3 135 7 130 5 -5 41 -47 82 -94 105 -120 118 -131 139 -120 23 12
32 40 29 85 -2 19 -1 36 2 40 8 7 -6 93 -26 161 -12 42 -20 54 -35 54 -11 0
-20 -5 -20 -10z"/>
<path d="M5243 10520 c-36 -14 -57 -57 -57 -117 -1 -49 2 -57 29 -79 24 -20
37 -24 69 -19 43 6 96 31 96 45 0 18 -20 21 -59 9 -44 -13 -91 -6 -91 15 0 7
17 24 38 37 31 20 37 30 37 58 0 41 -28 64 -62 51z m22 -49 c3 -6 -4 -15 -15
-21 -20 -11 -21 -10 -10 9 12 23 16 25 25 12z"/>
<path d="M3267 10458 c-18 -6 -27 -16 -25 -27 5 -23 161 -24 166 -1 5 29 -87
47 -141 28z"/>
<path d="M5033 10456 c-38 -17 -44 -38 -24 -93 11 -30 21 -43 34 -43 17 0 18
5 12 33 -12 57 -11 60 23 69 24 6 32 14 30 26 -4 22 -35 25 -75 8z"/>
<path d="M4583 10445 c-52 -23 -83 -73 -83 -133 0 -79 43 -111 132 -99 45 6
64 19 53 37 -5 8 -22 10 -52 5 -33 -5 -51 -2 -70 10 -22 15 -25 22 -20 57 7
49 28 74 75 85 27 6 37 14 37 28 0 25 -29 29 -72 10z"/>
<path d="M6073 10433 c-30 -20 -30 -71 -2 -107 25 -32 56 -33 100 -3 27 19 34
30 32 53 -4 59 -80 93 -130 57z m84 -49 c7 -18 -12 -34 -39 -34 -13 0 -18 8
-18 25 0 20 5 25 25 25 14 0 28 -7 32 -16z"/>
<path d="M4782 10428 c-7 -7 -12 -20 -12 -29 0 -20 24 -31 37 -18 6 6 20 -3
38 -21 24 -25 27 -34 19 -48 -6 -9 -22 -17 -35 -17 -19 0 -25 6 -27 30 -4 35
-21 49 -39 33 -19 -16 -16 -52 8 -82 26 -33 88 -37 119 -6 34 34 26 76 -24
126 -45 46 -63 53 -84 32z"/>
<path d="M4143 10343 c-15 -5 -17 -51 -4 -72 11 -17 41 -7 41 14 0 17 16 20
25 5 9 -15 45 -12 45 4 0 34 -68 65 -107 49z"/>
<path d="M4938 9838 c-5 -13 18 -151 29 -178 19 -45 11 -55 -57 -65 -55 -9
-65 -13 -65 -30 0 -22 15 -24 96 -12 l46 6 12 -87 c34 -244 38 -259 64 -233
13 13 -17 241 -34 251 -8 6 -7 9 2 12 12 5 12 9 1 28 -23 37 -2 45 121 45 104
0 112 1 112 19 0 15 -8 21 -34 24 -25 2 -31 0 -25 -10 6 -10 4 -10 -9 1 -12 9
-40 12 -97 9 -85 -3 -90 -1 -90 48 0 16 -6 24 -17 24 -13 0 -14 3 -6 8 19 12
-7 146 -29 150 -9 2 -18 -3 -20 -10z"/>
<path d="M4423 9584 c-6 -16 19 -44 39 -44 19 0 21 33 3 46 -25 18 -34 18 -42
-2z"/>
<path d="M3137 9575 c-54 -15 -117 -59 -117 -81 0 -9 28 -46 63 -82 95 -101
92 -94 67 -142 -12 -23 -19 -48 -16 -56 3 -9 1 -12 -4 -9 -16 10 -12 -86 6
-138 9 -26 20 -45 25 -41 5 3 6 -2 3 -10 -3 -8 8 -29 24 -47 27 -31 32 -32 56
-21 50 22 70 117 45 207 -6 22 -24 66 -39 99 l-28 58 49 102 c62 127 64 179 9
161 -23 -7 -38 -54 -22 -64 8 -5 0 -30 -24 -76 -20 -39 -38 -72 -40 -74 -3 -3
-12 6 -21 20 -9 13 -37 43 -62 66 -45 41 -45 43 -26 57 21 17 84 37 119 38 32
2 49 18 35 34 -14 17 -38 17 -102 -1z m75 -319 c6 4 8 2 4 -4 -3 -6 2 -32 13
-59 10 -26 21 -68 25 -93 7 -49 -9 -113 -27 -107 -16 4 -43 60 -58 119 -11 41
-10 55 6 105 10 32 20 52 22 45 3 -6 10 -9 15 -6z"/>
<path d="M5369 9545 c-25 -13 -51 -31 -58 -39 -20 -24 1 -62 69 -122 l58 -52
-30 -6 c-17 -3 -50 -6 -73 -6 -51 0 -69 -24 -31 -41 35 -16 154 4 180 31 l21
21 -30 25 c-47 39 -125 117 -125 124 0 13 90 51 112 48 17 -2 24 3 26 20 3 20
-1 22 -35 22 -21 -1 -59 -12 -84 -25z"/>
<path d="M4641 9453 c-28 -23 -39 -73 -32 -148 5 -46 10 -61 24 -63 15 -3 17
6 17 75 0 88 10 114 37 97 31 -19 55 -81 54 -139 0 -55 13 -79 30 -54 34 52
15 152 -40 209 -42 44 -58 48 -90 23z"/>
<path d="M4017 9430 c-29 -34 -42 -79 -32 -111 5 -15 4 -19 -4 -15 -6 4 -11 3
-11 -3 0 -6 -7 -8 -15 -5 -26 11 -27 -22 -2 -103 22 -69 43 -172 52 -248 3
-31 19 -50 34 -41 15 10 14 59 -4 157 -28 154 -28 139 6 139 40 0 85 45 94 94
24 123 -54 213 -118 136z m74 -69 c4 -81 -11 -111 -52 -111 l-30 0 7 48 c4 26
11 57 15 70 5 12 6 22 2 22 -4 0 2 7 13 15 17 12 20 12 32 -2 6 -9 12 -28 13
-42z"/>
<path d="M4246 9404 c-15 -38 -17 -119 -4 -135 42 -53 116 -9 125 74 6 46 5
47 -30 62 -47 19 -83 19 -91 -1z m80 -49 c7 -17 -21 -65 -36 -65 -6 0 -10 18
-10 40 0 34 3 40 20 40 11 0 23 -7 26 -15z"/>
<path d="M4424 9377 c-3 -8 4 -37 16 -66 11 -28 20 -61 20 -72 0 -15 5 -20 22
-17 28 4 29 26 4 93 -27 72 -49 94 -62 62z"/>
<path d="M4835 8357 c-22 -12 -45 -34 -53 -47 -23 -45 6 -150 42 -150 11 0 14
13 11 60 -2 33 -7 65 -10 70 -3 4 7 17 22 28 23 16 40 19 86 16 46 -4 57 -2
57 10 0 39 -97 47 -155 13z"/>
<path d="M2395 8253 c-47 -19 -92 -49 -118 -78 -22 -24 -61 -106 -75 -157 -9
-32 -8 -36 6 -31 13 4 13 2 -2 -9 -18 -14 -18 -17 -2 -65 27 -80 90 -123 183
-123 64 0 234 41 241 58 10 26 -20 29 -92 11 -155 -40 -232 -32 -273 30 -29
43 -29 93 -2 166 37 100 116 165 197 165 36 0 39 -2 34 -25 -3 -20 0 -25 15
-25 26 0 43 19 43 48 0 17 -9 27 -35 38 -43 18 -70 17 -120 -3z m125 -423 c0
-4 -7 -7 -15 -6 -23 3 -26 12 -5 13 11 1 20 -2 20 -7z"/>
<path d="M4461 8234 c-55 -46 -34 -116 47 -158 25 -13 46 -15 97 -10 74 8 102
22 92 49 -5 12 -12 15 -25 9 -22 -10 -128 -18 -148 -10 -11 4 -4 15 26 42 23
21 45 45 51 55 26 50 -86 69 -140 23z m60 -44 c-26 -22 -37 -26 -43 -17 -10
16 27 47 56 47 19 -1 17 -4 -13 -30z"/>
<path d="M4301 8206 c-6 -7 -14 -41 -17 -75 -4 -33 -10 -61 -14 -61 -4 0 -28
23 -53 51 -51 56 -80 62 -85 16 -3 -22 1 -27 20 -27 16 -1 35 -17 61 -50 30
-39 45 -50 67 -50 32 0 33 3 49 124 6 38 8 73 5 78 -8 12 -20 10 -33 -6z"/>
<path d="M3944 8115 c-18 -17 -38 -50 -44 -73 -11 -35 -11 -45 4 -67 26 -39
79 -32 134 18 30 28 28 54 -9 88 -17 16 -26 29 -20 29 6 0 11 8 11 18 0 29
-41 22 -76 -13z m50 -61 c25 -10 19 -32 -13 -49 -34 -17 -46 -7 -37 31 6 24
21 29 50 18z"/>
<path d="M3037 8089 c-21 -13 -47 -68 -47 -100 0 -61 98 -195 124 -169 7 7 7
15 1 24 -51 67 -75 114 -75 145 0 43 8 56 38 66 14 4 22 13 20 23 -4 20 -36
26 -61 11z"/>
<path d="M3192 8068 c-19 -19 -14 -66 14 -129 19 -41 32 -59 45 -59 25 0 24
18 -6 82 -32 67 -32 80 -1 72 24 -6 43 17 30 37 -8 13 -68 11 -82 -3z"/>
<path d="M3339 8059 c-11 -7 -12 -12 -2 -26 6 -10 23 -41 38 -69 14 -29 31
-57 38 -63 11 -8 9 -29 -7 -109 -19 -95 -19 -100 -2 -126 25 -40 42 -28 38 27
-2 25 4 81 14 124 10 43 18 80 19 83 0 3 11 27 23 54 32 71 36 92 18 99 -18 7
-32 -9 -49 -58 -8 -22 -19 -41 -25 -43 -7 -2 -23 20 -36 51 -26 56 -43 71 -67
56z"/>
<path d="M2763 8045 c-57 -25 -107 -130 -83 -174 14 -28 39 -26 84 4 20 14 40
25 44 25 4 0 17 -23 29 -50 23 -52 60 -73 92 -53 25 16 19 38 -9 38 -20 0 -31
11 -58 63 -18 34 -38 62 -45 62 -7 0 -30 -14 -52 -31 -32 -24 -41 -27 -43 -15
-5 24 37 85 62 92 22 5 57 -6 88 -28 21 -15 42 1 33 24 -5 13 -92 59 -107 58
-2 -1 -17 -7 -35 -15z"/>
<path d="M9802 11223 c1054 -2 2782 -2 3840 0 1058 1 195 2 -1917 2 -2112 0
-2977 -1 -1923 -2z"/>
<path d="M9797 10533 c1057 -2 2789 -2 3850 0 1060 1 196 2 -1922 2 -2117 0
-2985 -1 -1928 -2z"/>
<path d="M9875 10460 c-4 -6 -4 -31 0 -56 3 -24 6 -46 6 -49 0 -2 11 -43 24
-89 12 -47 20 -84 16 -83 -15 4 -71 -27 -71 -40 0 -22 25 -26 58 -9 l29 15 7
-72 c4 -42 13 -78 21 -87 27 -26 34 0 24 88 -5 46 -7 87 -5 91 3 3 19 8 37 9
41 3 48 8 46 33 -1 15 -7 19 -22 15 -11 -2 -34 -7 -51 -10 l-30 -7 -22 88
c-11 48 -25 106 -29 127 -9 40 -26 56 -38 36z"/>
<path d="M12054 10435 c-4 -8 -3 -23 1 -32 16 -41 39 -249 44 -400 1 -48 25
-80 46 -63 8 6 12 17 9 23 -2 7 -11 77 -19 157 -25 249 -33 299 -47 318 -14
16 -27 15 -34 -3z"/>
<path d="M12764 10416 c-5 -14 14 -91 36 -141 24 -56 23 -59 -32 -75 -36 -10
-54 -21 -56 -34 -6 -32 12 -37 56 -15 23 12 48 19 56 16 14 -6 25 -44 32 -112
6 -54 11 -65 30 -65 15 0 16 9 11 73 -4 39 -9 83 -13 96 -7 22 -5 23 42 20 39
-3 49 -1 52 13 4 20 -58 43 -92 34 -20 -5 -25 0 -35 34 -7 25 -16 38 -23 34
-6 -4 -9 -3 -6 2 3 5 0 36 -6 69 -9 42 -18 61 -29 63 -10 2 -20 -3 -23 -12z
m166 -200 c0 -3 -4 -8 -10 -11 -5 -3 -10 -1 -10 4 0 6 5 11 10 11 6 0 10 -2
10 -4z"/>
<path d="M8215 10402 c-11 -2 -33 -8 -48 -14 -21 -8 -25 -13 -15 -19 9 -6 6
-9 -10 -9 -25 0 -122 -84 -122 -106 0 -8 -4 -14 -9 -14 -9 0 -21 -38 -27 -90
-4 -33 22 -120 44 -146 48 -57 87 -68 227 -69 123 0 154 7 135 29 -9 11 -38
14 -128 13 -102 -2 -121 1 -152 19 -54 31 -80 77 -80 141 0 66 15 97 72 149
24 21 42 42 41 46 -2 5 0 7 5 6 4 -1 31 6 61 15 68 21 150 22 198 2 20 -9 43
-13 50 -10 22 8 -2 41 -38 54 -45 16 -169 15 -169 -1 0 -9 -3 -9 -8 -3 -4 6
-16 9 -27 7z"/>
<path d="M11240 10393 c-84 -28 -120 -47 -120 -64 0 -26 27 -35 48 -16 22 19
90 43 98 34 4 -4 -6 -17 -22 -29 -76 -60 -89 -76 -78 -95 12 -20 63 -40 120
-46 59 -7 114 -34 114 -56 0 -50 -115 -131 -188 -131 -43 0 -102 25 -102 44 0
23 -20 30 -38 13 -14 -14 -13 -18 2 -42 39 -59 155 -73 243 -29 57 28 119 90
129 129 7 28 -17 73 -44 82 -9 3 -31 11 -47 18 -17 8 -54 17 -83 21 -28 3 -52
9 -52 13 0 3 20 21 44 39 52 38 75 84 56 107 -12 15 -50 19 -80 8z"/>
<path d="M9404 10288 c3 -24 8 -77 11 -118 9 -98 39 -170 71 -170 30 0 31 21
2 60 -18 25 -23 47 -26 123 -4 107 -16 147 -44 147 -17 0 -19 -5 -14 -42z"/>
<path d="M9205 10224 c-23 -24 -45 -80 -45 -111 0 -7 9 -13 19 -13 14 0 24 13
36 50 19 56 49 75 72 44 25 -34 -12 -159 -54 -183 -15 -8 -19 -4 -28 32 -6 23
-13 40 -16 37 -3 -3 -14 1 -23 9 -29 24 -42 0 -27 -51 9 -30 10 -43 2 -46 -17
-6 -13 -30 9 -45 10 -7 24 -26 30 -41 22 -60 69 -56 -647 -59 l-658 -2 656 -3
c733 -2 665 5 675 -72 5 -42 19 -59 36 -42 12 12 14 59 3 92 -6 20 1 20 3162
23 l3168 2 -3167 3 c-3006 2 -3167 3 -3172 20 -19 67 -18 80 8 97 14 10 26 24
26 31 0 8 6 14 14 14 19 0 56 99 56 149 0 84 -82 123 -135 65z"/>
<path d="M13289 10229 c-11 -21 -9 -50 9 -166 9 -60 15 -68 37 -59 17 6 15 58
-7 144 -10 40 -9 47 7 58 10 7 15 20 12 29 -9 22 -44 18 -58 -6z"/>
<path d="M13477 10223 c-89 -46 -89 -202 -2 -239 40 -16 101 -19 110 -4 4 6
11 7 17 4 6 -4 8 1 6 12 -3 15 -13 19 -43 20 -66 1 -91 11 -105 44 -27 64 22
140 90 140 31 0 24 -15 -32 -64 -41 -36 -50 -48 -40 -58 26 -26 117 46 136
108 15 49 -71 72 -137 37z"/>
<path d="M13886 10227 c-38 -28 -6 -62 83 -89 56 -16 61 -31 17 -52 -42 -20
-103 -20 -136 -1 -46 26 -51 28 -63 16 -16 -16 29 -59 77 -72 56 -15 136 3
176 41 16 15 30 35 30 44 0 26 -36 55 -84 67 -33 8 -43 15 -39 26 11 28 -31
42 -61 20z"/>
<path d="M10194 10195 c-18 -28 -21 -103 -5 -134 19 -35 67 -53 120 -46 26 3
53 10 61 15 16 10 24 77 9 85 -5 4 -9 1 -9 -4 0 -6 -10 -11 -21 -11 -16 0 -20
-5 -16 -20 5 -18 0 -20 -36 -20 -23 0 -49 5 -57 10 -13 9 -11 14 11 33 27 22
49 57 49 76 0 19 -32 41 -60 41 -20 0 -35 -8 -46 -25z m56 -24 c0 -5 -7 -14
-15 -21 -16 -14 -18 -10 -9 14 6 17 24 22 24 7z"/>
<path d="M9592 10203 c-17 -7 -42 -57 -42 -86 0 -39 53 -112 99 -134 32 -16
50 -19 82 -13 76 14 80 54 5 44 -51 -7 -94 13 -120 56 -18 31 -21 76 -6 85 5
3 6 13 3 22 -5 12 1 10 25 -7 26 -19 29 -26 21 -46 -4 -13 -7 -24 -6 -25 22
-7 39 -3 57 16 18 19 20 27 11 44 -21 38 -88 61 -129 44z"/>
<path d="M12255 10190 c-26 -28 -30 -98 -8 -140 29 -56 148 -105 148 -61 0 14
-5 18 -69 45 l-39 17 31 19 c38 23 66 64 58 85 -7 18 -65 55 -87 55 -9 0 -24
-9 -34 -20z m64 -39 c12 -8 12 -12 2 -25 -20 -24 -41 -19 -41 9 0 26 14 31 39
16z"/>
<path d="M12570 10160 c-65 -16 -101 -88 -66 -136 12 -15 27 -19 79 -19 40 0
71 6 81 14 27 22 3 35 -66 36 -69 0 -81 12 -48 45 16 16 31 21 61 19 51 -4 69
13 38 35 -26 18 -28 18 -79 6z"/>
<path d="M13104 10136 c-8 -20 -1 -29 29 -33 50 -8 46 -43 -5 -43 -16 0 -41 9
-55 20 -14 11 -23 20 -19 20 4 0 2 9 -4 20 -21 40 -58 15 -37 -25 22 -45 75
-85 111 -85 39 0 96 41 96 69 0 43 -102 93 -116 57z"/>
<path d="M8538 10089 c-22 -13 -24 -69 -3 -109 21 -40 76 -51 113 -23 42 31
40 59 -7 104 -41 39 -70 47 -103 28z m97 -84 c0 -5 -15 -11 -32 -13 -25 -3
-33 1 -33 13 0 12 8 16 33 13 17 -2 32 -7 32 -13z"/>
<path d="M8825 10084 c-13 -5 -7 -134 6 -148 12 -13 36 10 49 49 8 24 16 32
26 28 9 -3 28 4 43 15 18 13 33 17 41 12 18 -11 30 -3 30 20 0 24 -42 37 -75
22 -16 -7 -26 -7 -34 1 -9 9 -17 8 -32 -1 -13 -8 -25 -10 -32 -4 -7 5 -17 8
-22 6z"/>
<path d="M8824 9655 c-4 -8 -2 -44 3 -80 5 -36 6 -68 1 -73 -5 -5 -7 -51 -6
-103 3 -88 4 -94 25 -97 14 -2 26 4 34 20 6 13 21 33 32 45 l20 22 19 -37 c37
-70 48 -82 73 -82 18 0 25 5 25 20 0 11 -6 20 -13 20 -12 0 -42 51 -66 113
-14 36 -28 34 -72 -9 l-36 -35 5 119 c2 66 2 132 -2 146 -7 28 -33 35 -42 11z"/>
<path d="M9859 9627 c-8 -18 -5 -37 15 -91 31 -82 32 -92 7 -99 -11 -3 -29
-20 -40 -38 -38 -63 -18 -149 34 -149 27 0 79 56 71 76 -3 8 -1 14 4 14 24 0
4 125 -34 213 -10 21 -16 46 -14 55 3 20 -9 42 -23 42 -5 0 -14 -10 -20 -23z
m58 -262 c-3 -28 -35 -77 -46 -71 -10 7 -5 60 9 86 14 25 41 15 37 -15z"/>
<path d="M8646 9476 c-78 -73 -96 -180 -36 -211 36 -19 103 -8 108 18 3 14 -5
17 -47 17 -50 0 -51 1 -51 30 0 41 25 89 63 121 20 17 28 32 24 43 -9 23 -21
20 -61 -18z"/>
<path d="M8370 9482 c-39 -19 -80 -88 -80 -133 0 -28 27 -59 51 -59 8 0 31 11
49 25 33 24 35 25 43 8 10 -24 59 -45 81 -37 24 9 15 37 -14 44 -24 6 -25 9
-24 77 2 66 0 72 -23 82 -32 15 -42 14 -83 -7z m70 -42 c0 -16 -81 -100 -96
-100 -8 0 -14 2 -14 5 0 15 29 73 44 88 19 18 66 23 66 7z"/>
<path d="M10113 9470 c-29 -12 -63 -67 -63 -102 0 -48 60 -69 91 -32 19 24 27
16 44 -43 19 -67 42 -98 60 -83 9 7 4 32 -19 102 -35 105 -50 117 -97 72 -24
-23 -29 -25 -29 -10 0 33 20 56 49 56 31 0 46 21 28 39 -13 13 -33 13 -64 1z"/>
<path d="M10480 9451 c0 -7 -4 -10 -9 -7 -5 3 -19 -18 -31 -47 -12 -28 -27
-64 -33 -79 -7 -16 -15 -28 -20 -28 -4 0 -23 33 -41 74 -36 77 -51 95 -68 78
-13 -13 41 -143 73 -177 18 -20 18 -21 -7 -63 l-25 -42 -1217 -2 -1217 -3
1213 -2 c676 -2 1212 -7 1212 -12 0 -5 -23 -56 -51 -115 -50 -105 -56 -141
-22 -134 16 3 59 98 45 98 -4 0 -2 4 3 8 6 4 26 40 45 80 l34 72 2601 2 2600
3 -2598 5 -2598 5 30 46 c16 26 34 50 40 53 6 4 11 16 11 27 0 11 13 48 29 84
25 54 27 66 15 76 -11 9 -14 9 -14 0z"/>
<path d="M8038 9430 c-57 -44 -76 -142 -36 -180 19 -17 30 -20 63 -14 81 14
155 52 155 80 0 8 -42 0 -102 -20 l-48 -15 40 38 c32 30 40 45 40 72 0 19 -5
40 -12 47 -18 18 -72 14 -100 -8z m72 -33 c0 -21 -28 -55 -58 -70 -28 -13 -28
-13 -24 9 8 44 82 98 82 61z"/>
<path d="M10678 9299 c-22 -12 -23 -35 -4 -42 21 -8 50 17 43 37 -7 18 -15 20
-39 5z"/>
<path d="M12436 9098 c-3 -7 -7 -33 -9 -58 -3 -25 -9 -61 -14 -80 -8 -32 -12
-34 -52 -37 -52 -3 -68 -15 -92 -68 -25 -55 -24 -119 3 -163 l21 -35 -27 -86
c-16 -47 -30 -92 -32 -99 -7 -23 15 -62 35 -62 26 0 34 15 20 38 -10 15 -6 36
16 105 15 48 29 87 32 87 2 0 15 -8 29 -17 24 -15 30 -15 98 1 99 25 125 48
133 115 6 53 -13 80 -92 126 -36 21 -65 43 -65 50 0 8 9 35 20 61 25 58 24
127 -3 132 -9 2 -19 -2 -21 -10z m-66 -244 c-6 -14 -8 -30 -4 -35 3 -5 1 -9
-4 -9 -10 0 -27 -47 -23 -63 1 -4 -5 -15 -13 -23 -13 -13 -16 -12 -26 7 -13
24 -6 79 16 121 10 19 22 28 39 28 22 0 24 -2 15 -26z m170 -69 c27 -29 20
-77 -13 -93 -77 -37 -154 -41 -174 -7 -17 27 -16 48 1 42 13 -5 17 2 56 106
l10 28 49 -27 c28 -14 60 -37 71 -49z"/>
<path d="M8905 9072 c-27 -15 -71 -42 -97 -60 -26 -18 -53 -32 -60 -32 -19 -1
-68 -46 -68 -63 0 -19 27 -30 36 -15 12 19 23 -16 25 -81 2 -60 1 -63 -34 -92
-37 -30 -47 -61 -26 -75 6 -3 22 5 35 20 33 35 41 33 47 -11 18 -137 28 -168
50 -160 18 6 13 60 -14 186 -12 54 -1 70 36 53 29 -13 45 -9 45 13 0 19 -37
38 -71 37 -27 -1 -28 0 -31 72 -2 48 1 77 9 84 38 36 167 105 193 104 35 -1
47 13 30 33 -18 22 -49 18 -105 -13z"/>
<path d="M14748 9035 c-21 -44 -21 -45 -2 -66 19 -22 19 -22 -2 -11 -19 10
-23 8 -29 -11 l-8 -22 -4 23 c-6 28 -26 28 -66 0 -54 -38 -87 -92 -87 -145 0
-40 12 -67 47 -104 l25 -27 -22 -78 c-24 -88 -21 -111 10 -94 11 6 20 19 20
29 0 11 9 48 20 84 16 51 25 66 43 71 26 6 50 26 90 74 36 45 36 88 -2 130
-32 35 -31 49 10 135 24 49 24 57 -1 57 -14 0 -27 -14 -42 -45z m-56 -166 c-2
-8 -15 -44 -29 -81 -29 -74 -42 -77 -63 -12 -13 38 -8 61 20 97 17 21 25 24
48 17 15 -4 26 -13 24 -21z m78 -45 c0 -15 -70 -97 -77 -90 -2 2 3 20 11 40 8
20 11 36 6 36 -5 0 1 11 13 24 22 25 47 20 47 -10z"/>
<path d="M15282 9035 c-54 -49 -75 -88 -70 -131 2 -18 -4 -38 -17 -52 -35 -40
-46 -87 -34 -143 21 -99 72 -119 139 -54 22 21 37 42 34 47 -3 4 -1 8 4 8 5 0
15 17 21 38 11 33 11 43 -2 69 -9 17 -30 36 -47 43 -17 7 -29 18 -27 24 2 6
31 27 64 47 81 47 93 57 93 83 0 40 -28 66 -69 66 -32 0 -48 -8 -89 -45z m105
-12 c4 -10 -79 -73 -94 -73 -4 0 -15 -8 -26 -17 -19 -18 -19 -18 -4 12 33 64
112 114 124 78z m-96 -204 c43 -30 37 -72 -19 -131 -33 -36 -48 -35 -61 3 -17
49 -13 94 10 123 25 31 32 32 70 5z"/>
<path d="M9890 9060 c-17 -10 -18 -57 -2 -163 7 -43 12 -118 12 -167 0 -51 4
-92 11 -95 5 -4 32 14 59 39 27 25 59 46 70 46 30 0 67 -41 80 -89 12 -44 54
-91 82 -91 31 0 31 21 0 48 -17 15 -38 49 -48 75 -35 97 -115 125 -189 67 -44
-35 -45 -35 -45 -14 0 8 5 12 10 9 6 -4 10 8 10 29 0 24 -5 36 -17 39 -16 4
-16 5 1 6 17 1 18 6 11 74 -5 39 -10 96 -11 125 -2 59 -11 76 -34 62z m100
-340 c0 -5 -2 -10 -4 -10 -3 0 -8 5 -11 10 -3 6 -1 10 4 10 6 0 11 -4 11 -10z"/>
<path d="M10861 9021 c-9 -6 -11 -16 -5 -32 4 -13 9 -30 10 -38 2 -8 9 -46 18
-85 17 -82 30 -183 27 -208 -4 -34 20 -98 43 -113 20 -13 34 -14 92 -5 115 19
168 64 138 121 -34 68 -88 75 -164 23 -37 -25 -55 -33 -60 -24 -4 6 -10 44
-13 83 -8 94 -44 258 -60 274 -7 7 -17 9 -26 4z m269 -361 c27 -27 25 -37 -11
-56 -38 -19 -139 -31 -139 -16 0 16 100 91 123 92 4 0 16 -9 27 -20z"/>
<path d="M15053 8999 c-4 -13 -37 -84 -75 -157 -37 -73 -68 -139 -68 -147 0
-20 16 -19 24 1 3 8 9 13 14 10 13 -7 144 258 140 284 -4 32 -28 38 -35 9z"/>
<path d="M12765 8971 c-21 -4 -30 -12 -30 -26 0 -18 6 -20 52 -17 47 2 52 1
46 -15 -3 -10 -35 -46 -70 -81 -36 -34 -63 -67 -61 -73 2 -6 26 -18 53 -28 27
-9 50 -21 52 -27 4 -12 -47 -38 -95 -49 -38 -8 -41 -38 -5 -43 37 -5 122 38
139 70 20 39 13 55 -36 77 l-40 18 32 29 c46 44 87 111 81 135 -9 33 -52 44
-118 30z"/>
<path d="M13299 8960 c-45 -23 -75 -80 -59 -110 13 -25 40 -15 40 15 0 27 45
67 69 63 11 -3 16 -14 15 -38 -2 -53 -7 -80 -15 -80 -4 0 -22 -26 -40 -57 -44
-76 -58 -91 -79 -86 -27 7 -56 -13 -74 -52 -32 -68 3 -87 65 -35 l36 29 24
-25 c41 -44 106 -76 140 -69 35 8 70 41 62 61 -7 18 -27 18 -43 -1 -7 -8 -21
-15 -32 -15 -19 0 -101 51 -113 71 -4 5 4 27 18 47 78 116 113 196 103 236 -7
30 -43 66 -65 66 -9 -1 -32 -9 -52 -20z"/>
<path d="M14215 8935 c-27 -26 -29 -33 -16 -54 11 -17 41 -7 41 13 0 18 40 28
57 14 7 -6 13 -18 13 -27 0 -20 -62 -125 -94 -161 -13 -14 -26 -33 -29 -43 -4
-10 -11 -16 -16 -13 -13 8 -44 -31 -38 -49 4 -9 19 -15 36 -15 17 0 50 -15 80
-35 56 -39 66 -42 74 -20 7 16 -40 59 -90 83 l-32 15 35 40 c20 21 33 45 30
53 -3 7 -2 13 2 13 21 -4 31 5 55 50 33 61 35 113 5 141 -31 28 -83 26 -113
-5z"/>
<path d="M13559 8931 c-20 -16 -21 -21 -10 -48 7 -17 27 -45 46 -63 l33 -32
-25 -61 c-28 -69 -27 -130 2 -187 14 -26 21 -31 47 -28 71 7 98 111 56 215
-22 55 -23 63 -11 87 8 15 13 39 11 54 -3 23 -8 27 -41 30 -21 2 -44 -2 -52
-8 -10 -8 -15 -8 -21 1 -4 7 -3 9 3 6 6 -4 16 -1 22 7 9 11 8 18 -4 30 -21 20
-28 20 -56 -3z m105 -86 c-5 -12 -10 -13 -20 -4 -19 15 -18 19 6 19 13 0 18
-5 14 -15z m7 -132 c14 -37 14 -116 -1 -142 -29 -54 -57 41 -35 117 9 29 18
52 21 52 2 0 9 -12 15 -27z"/>
<path d="M9414 8865 c-4 -9 0 -23 8 -31 13 -14 17 -14 32 1 9 10 15 22 13 29
-6 18 -46 19 -53 1z"/>
<path d="M8982 8828 c2 -15 10 -23 23 -23 30 0 27 39 -3 43 -20 3 -23 0 -20
-20z"/>
<path d="M9582 8748 c-19 -19 -14 -46 13 -64 30 -20 65 -74 65 -102 0 -23 -36
-36 -74 -26 -28 7 -43 -11 -26 -31 15 -18 50 -20 50 -3 0 9 3 9 12 0 18 -18
36 -15 64 13 21 21 24 31 18 62 -7 36 -45 99 -71 115 -6 5 -9 17 -6 28 4 15 0
20 -14 20 -10 0 -24 -5 -31 -12z"/>
<path d="M9403 8668 c8 -92 14 -108 39 -108 17 0 19 5 12 48 -17 118 -19 127
-38 130 -18 4 -19 -1 -13 -70z"/>
<path d="M9136 8698 c-20 -33 -39 -129 -27 -141 20 -20 38 2 45 55 l8 53 19
-24 c10 -13 19 -32 19 -43 0 -28 18 -58 35 -58 36 0 9 99 -40 153 -31 33 -40
34 -59 5z"/>
<path d="M11326 8655 c-15 -19 -31 -35 -36 -35 -5 0 -21 12 -34 27 -28 29 -51
22 -44 -13 4 -25 67 -66 89 -59 17 6 18 4 5 -32 -8 -21 -26 -66 -40 -100 -30
-72 -33 -108 -10 -117 23 -9 33 1 32 32 0 15 11 52 25 82 25 55 77 215 77 238
0 25 -39 11 -64 -23z"/>
<path d="M8907 8633 c-12 -11 -8 -62 7 -98 12 -27 21 -35 40 -35 19 0 26 5 26
19 0 10 -6 21 -14 24 -8 3 -18 26 -21 51 -7 42 -21 57 -38 39z"/>
<path d="M12981 8597 c-6 -6 -11 -17 -11 -25 0 -19 44 -11 48 9 4 20 -22 31
-37 16z"/>
<path d="M13926 8591 c-21 -23 -20 -48 2 -53 29 -8 42 2 42 32 0 34 -22 45
-44 21z"/>
<path d="M9802 7763 c1054 -2 2782 -2 3840 0 1058 1 195 2 -1917 2 -2112 0
-2977 -1 -1923 -2z"/>
<path d="M9797 7073 c1058 -2 2788 -2 3845 0 1058 1 193 2 -1922 2 -2115 0
-2980 -1 -1923 -2z"/>
<path d="M9797 6383 c1057 -2 2789 -2 3850 0 1060 1 196 2 -1922 2 -2117 0
-2985 -1 -1928 -2z"/>
<path d="M9797 5693 c1058 -2 2788 -2 3845 0 1058 1 193 2 -1922 2 -2115 0
-2980 -1 -1923 -2z"/>
<path d="M9802 5003 c1054 -2 2782 -2 3840 0 1058 1 195 2 -1917 2 -2112 0
-2977 -1 -1923 -2z"/>
<path d="M9802 3613 c1054 -2 2782 -2 3840 0 1058 1 195 2 -1917 2 -2112 0
-2977 -1 -1923 -2z"/>
<path d="M9797 2923 c1058 -2 2788 -2 3845 0 1058 1 193 2 -1922 2 -2115 0
-2980 -1 -1923 -2z"/>
<path d="M9797 2233 c1057 -2 2789 -2 3850 0 1060 1 196 2 -1922 2 -2117 0
-2985 -1 -1928 -2z"/>
<path d="M9797 1543 c1058 -2 2788 -2 3845 0 1058 1 193 2 -1922 2 -2115 0
-2980 -1 -1923 -2z"/>
<path d="M9802 853 c1054 -2 2782 -2 3840 0 1058 1 195 2 -1917 2 -2112 0
-2977 -1 -1923 -2z"/>
</g>
</svg>
