<?xml version="1.0" standalone="no"?>
<!DOCTYPE svg PUBLIC "-//W3C//DTD SVG 20010904//EN"
 "http://www.w3.org/TR/2001/REC-SVG-20010904/DTD/svg10.dtd">
<svg version="1.0" xmlns="http://www.w3.org/2000/svg"
 width="1618.000000pt" height="1214.000000pt" viewBox="0 0 1618.000000 1214.000000"
 preserveAspectRatio="xMidYMid meet">

<g transform="translate(0.000000,1214.000000) scale(0.100000,-0.100000)"
fill="#000000" stroke="none">
<path d="M630 6040 l0 -5190 3310 0 3310 0 0 5190 0 5190 -3310 0 -3310 0 0
-5190z m6610 0 l0 -5180 -3300 0 -3300 0 0 5180 0 5180 3300 0 3300 0 0 -5180z"/>
<path d="M6127 10943 c-4 -3 -7 -17 -7 -30 0 -13 -7 -40 -15 -60 -12 -29 -13
-38 -3 -45 10 -6 8 -8 -4 -8 -10 0 -24 -13 -33 -30 -14 -28 -43 -39 -59 -23
-12 13 -48 13 -63 1 -25 -21 -55 -91 -55 -128 0 -20 7 -55 15 -79 l15 -42 -51
-107 c-56 -119 -72 -197 -42 -208 12 -5 23 1 36 17 21 28 24 56 7 61 -8 3 3
36 35 102 46 96 47 97 69 82 75 -53 194 38 214 162 8 48 -13 92 -53 112 -15 8
-29 15 -31 16 -1 1 8 23 22 50 29 59 49 131 42 150 -6 15 -28 19 -39 7z m-140
-323 c-18 -38 -35 -69 -38 -70 -8 0 -19 52 -19 86 0 17 9 28 33 38 55 25 58
19 24 -54z m145 39 c18 -23 18 -28 4 -68 -8 -24 -12 -50 -9 -59 4 -9 2 -13 -4
-9 -6 4 -18 -2 -27 -12 -10 -11 -31 -25 -47 -31 -39 -17 -80 8 -72 42 4 13 10
25 13 28 4 3 25 36 45 73 42 76 62 83 97 36z"/>
<path d="M3794 10824 c-47 -16 -101 -74 -114 -125 -19 -68 18 -127 132 -216
33 -25 61 -55 64 -69 15 -57 -70 -88 -114 -41 -12 13 -22 30 -22 38 0 24 -16
40 -33 33 -21 -8 -21 -27 -1 -70 36 -75 127 -94 185 -38 60 57 42 106 -74 200
-77 62 -86 73 -92 111 -6 34 -3 49 14 77 36 57 92 81 131 56 13 -8 13 -10 -2
-10 -27 0 -33 -21 -11 -39 11 -9 23 -24 26 -33 10 -28 44 -22 54 10 28 80 -54
146 -143 116z"/>
<path d="M4915 10800 c-3 -6 -5 -45 -4 -88 l2 -77 -37 -18 c-25 -12 -36 -23
-34 -35 4 -17 15 -19 54 -7 20 6 21 2 27 -63 3 -39 13 -85 22 -102 20 -40 72
-62 133 -58 43 3 47 5 47 28 0 23 -3 25 -45 22 -25 -2 -55 -1 -66 2 -30 8 -47
57 -48 135 l-1 66 63 8 c40 6 65 14 69 24 10 26 -10 33 -72 23 -73 -12 -78 -7
-71 83 4 61 3 67 -14 67 -10 0 -22 -5 -25 -10z"/>
<path d="M6345 10791 c-21 -4 -30 -12 -30 -26 0 -18 6 -20 73 -16 39 2 72 1
72 -2 0 -3 -29 -23 -65 -46 -99 -61 -90 -82 46 -105 49 -9 89 -41 89 -72 0
-32 -39 -68 -96 -90 -56 -21 -120 -7 -134 31 -10 26 -44 25 -54 -2 -13 -34 69
-82 139 -83 50 0 135 39 163 75 27 35 28 89 3 131 -15 25 -33 36 -82 50 l-63
19 67 44 c37 24 67 49 67 57 0 21 -37 36 -80 33 -22 -2 -42 0 -46 4 -8 8 -26
8 -69 -2z"/>
<path d="M4463 10753 c-22 -8 -14 -33 13 -43 33 -13 31 -13 37 9 8 31 -17 48
-50 34z"/>
<path d="M2864 10664 c-5 -26 -3 -39 7 -45 8 -5 9 -9 4 -9 -8 0 -7 -26 1 -82
15 -94 17 -197 6 -215 -8 -12 -124 115 -180 198 -18 27 -37 49 -42 49 -21 0
-29 -43 -30 -151 0 -63 -4 -131 -9 -151 -6 -24 -5 -38 1 -38 5 0 6 -5 2 -11
-4 -7 1 -10 12 -7 10 1 21 16 26 33 12 45 12 199 -1 203 -7 2 -7 8 1 16 9 10
32 -11 106 -96 52 -59 99 -108 105 -108 51 1 70 80 53 225 -5 39 -10 102 -12
140 -1 39 -3 73 -3 78 -1 4 -10 7 -21 7 -14 0 -21 -9 -26 -36z"/>
<path d="M2519 10666 c-2 -3 -18 -7 -34 -10 -17 -3 -64 -17 -105 -31 -41 -13
-97 -30 -125 -38 -31 -8 -50 -18 -50 -27 0 -21 53 -26 61 -6 3 9 14 16 23 16
14 0 14 -2 1 -10 -10 -7 -4 -8 20 -4 l36 6 23 -79 c12 -43 25 -87 29 -98 3
-11 5 -24 4 -29 -5 -17 19 -161 28 -170 6 -6 14 -5 22 2 18 15 -10 217 -45
319 l-24 72 66 22 c36 13 90 23 120 24 55 1 78 18 50 36 -14 9 -92 13 -100 5z"/>
<path d="M1927 10594 c-74 -38 -107 -78 -107 -130 0 -17 8 -38 18 -46 18 -16
105 -48 131 -48 25 0 134 -55 154 -78 40 -44 0 -122 -77 -152 -60 -23 -124 -1
-151 50 -18 35 -45 40 -45 8 0 -22 48 -93 57 -84 3 3 12 -1 20 -9 9 -9 34 -15
64 -15 85 0 168 57 190 130 29 95 -46 153 -269 210 -81 21 -65 70 40 125 44
23 75 34 88 30 29 -9 42 2 30 26 -16 29 -65 23 -143 -17z"/>
<path d="M4283 10588 c-28 -31 -36 -75 -28 -154 8 -70 25 -91 49 -59 10 15 11
23 1 42 -7 13 -11 45 -9 71 7 81 14 87 56 47 22 -21 28 -22 38 -10 10 12 6 21
-23 50 -41 41 -56 43 -84 13z"/>
<path d="M4042 10580 c-23 -25 -42 -85 -49 -157 -4 -35 -10 -53 -19 -53 -19 0
-18 -35 2 -54 18 -18 66 -233 64 -288 -1 -32 2 -38 20 -38 19 0 20 6 19 88 0
48 -6 114 -13 147 l-13 60 37 16 c29 13 44 30 65 73 l28 57 -17 63 c-10 35
-26 73 -37 85 -25 27 -63 27 -87 1z m79 -91 c7 -25 9 -58 5 -73 -7 -29 -56
-86 -74 -86 -32 0 -15 171 21 218 15 19 33 -3 48 -59z"/>
<path d="M5260 10565 c-20 -25 -1 -35 72 -36 72 -2 91 5 86 28 -4 23 -140 29
-158 8z"/>
<path d="M4647 10546 c-12 -13 -34 -38 -50 -55 -24 -26 -27 -35 -21 -71 8 -49
40 -57 49 -12 3 15 15 46 27 70 l21 43 13 -29 c6 -16 15 -52 19 -80 7 -56 25
-81 43 -60 7 9 7 32 -2 78 -17 85 -31 116 -56 130 -17 9 -24 7 -43 -14z"/>
<path d="M3184 10465 c-11 -27 5 -32 98 -31 75 1 93 4 93 16 0 28 -181 43
-191 15z"/>
<path d="M4440 10441 c0 -56 16 -93 38 -89 14 3 16 12 14 48 -5 65 -11 80 -33
80 -16 0 -19 -7 -19 -39z"/>
<path d="M3833 9864 c-2 -97 -6 -104 -66 -104 -25 0 -40 -5 -44 -16 -9 -23 16
-35 58 -28 l36 5 7 -49 c9 -72 41 -113 108 -139 31 -13 64 -20 72 -17 31 12
15 32 -45 53 -41 16 -64 30 -71 47 -6 13 -14 24 -17 24 -3 0 -5 19 -3 43 3 39
7 44 35 53 19 5 33 17 35 28 3 16 -1 18 -32 14 l-37 -4 8 60 c12 104 11 111
-17 114 -25 3 -25 2 -27 -84z"/>
<path d="M2544 9886 c-3 -8 1 -49 10 -91 9 -43 16 -83 16 -91 0 -8 -23 -18
-61 -26 -59 -12 -82 -29 -62 -49 5 -5 31 -4 66 3 31 7 58 10 60 7 3 -2 8 -38
11 -79 11 -115 16 -144 32 -160 25 -26 38 1 26 57 -6 26 -13 80 -16 120 -5 79
-2 83 72 83 57 0 94 35 60 56 -6 4 -8 3 -5 -3 4 -6 -16 -10 -50 -11 -30 -1
-63 -4 -72 -7 -14 -4 -19 8 -30 82 -12 88 -24 123 -42 123 -5 0 -12 -6 -15
-14z"/>
<path d="M4133 9842 c-34 -5 -73 -58 -73 -98 0 -50 37 -122 72 -140 38 -19 63
-13 111 27 34 28 37 33 24 47 -13 13 -19 11 -50 -12 -41 -31 -58 -33 -81 -7
-19 21 -14 41 9 41 22 0 65 59 65 91 0 32 -38 58 -77 51z m31 -50 c9 -14 -24
-52 -45 -52 -24 0 -24 11 1 38 22 23 35 27 44 14z"/>
<path d="M3346 9832 c-3 -5 1 -48 9 -97 15 -91 12 -104 -22 -105 -7 0 -19 -13
-28 -30 -36 -71 -2 -169 60 -170 46 0 65 97 45 235 -7 49 -12 100 -12 114 0
14 -4 34 -9 44 -10 18 -34 23 -43 9z m22 -292 c-2 -28 -7 -51 -13 -52 -17 -3
-28 45 -16 75 17 44 32 33 29 -23z"/>
<path d="M1854 9818 c-9 -14 -6 -56 4 -72 3 -6 6 -19 7 -30 1 -12 5 -45 9 -75
9 -61 2 -71 -51 -71 -26 0 -33 -4 -33 -19 0 -28 14 -34 54 -22 39 10 44 4 51
-62 9 -100 30 -142 55 -112 7 8 9 15 4 15 -8 0 -13 35 -17 134 l-2 40 50 10
c33 7 50 16 50 26 0 12 -13 15 -57 14 l-58 -1 0 31 c-1 52 -35 199 -47 203 -6
2 -15 -2 -19 -9z"/>
<path d="M1585 9641 c-58 -27 -74 -42 -79 -77 -7 -38 14 -63 90 -105 30 -17
54 -37 54 -45 0 -29 -99 -55 -126 -33 -36 30 -65 9 -39 -28 32 -46 184 -19
203 37 15 41 -4 68 -71 108 -32 18 -61 40 -64 48 -8 22 24 51 65 61 27 6 37
14 37 28 0 27 -22 28 -70 6z"/>
<path d="M3543 9628 c-44 -21 -37 -118 8 -118 13 0 31 7 41 17 17 15 18 15 18
-5 0 -11 11 -33 24 -49 21 -25 26 -26 51 -15 30 14 29 35 -2 40 -22 3 -33 28
-33 73 0 30 -38 69 -66 68 -10 0 -29 -5 -41 -11z m37 -47 c0 -6 -4 -13 -10
-16 -5 -3 -10 1 -10 9 0 9 5 16 10 16 6 0 10 -4 10 -9z"/>
<path d="M2237 9583 c-4 -3 -7 -22 -7 -42 0 -20 -5 -54 -10 -76 -6 -25 -5 -44
1 -52 19 -22 37 -2 43 50 9 62 14 71 31 57 16 -14 35 -5 35 16 0 34 -70 70
-93 47z"/>
<path d="M2054 9545 c-26 -18 -47 -65 -42 -97 4 -32 43 -36 74 -7 22 21 24 21
30 3 25 -78 46 -106 65 -87 8 8 4 30 -14 75 -54 133 -67 146 -113 113z m40
-40 c-4 -9 -16 -21 -28 -27 -20 -11 -20 -10 -6 8 13 17 31 33 37 34 1 0 0 -7
-3 -15z"/>
<path d="M4309 9177 c-25 -17 -34 -31 -36 -52 -3 -57 -11 -113 -17 -123 -3 -6
7 -21 23 -35 l29 -24 -19 -30 c-25 -39 -35 -139 -20 -185 26 -78 120 -72 171
9 55 87 51 185 -9 215 -45 22 -45 21 -19 64 26 45 32 141 9 168 -19 23 -72 20
-112 -7z m83 -39 c10 -63 -32 -148 -66 -135 -25 10 -22 77 3 84 24 6 35 31 21
48 -8 9 -7 15 2 18 26 11 37 7 40 -15z m2 -218 c41 -15 50 -43 32 -103 -21
-69 -47 -99 -83 -95 -27 3 -28 4 -31 76 -2 61 1 77 18 102 24 33 27 34 64 20z"/>
<path d="M3891 9151 c-6 -10 -13 -44 -17 -74 l-6 -55 -46 -5 c-59 -7 -92 -44
-90 -100 2 -45 33 -97 67 -112 19 -8 22 -15 17 -42 -3 -22 -1 -33 7 -33 8 -1
6 -5 -3 -13 -21 -16 -73 -154 -66 -172 3 -8 12 -15 20 -15 17 0 42 63 26 68
-5 2 -10 8 -10 14 0 6 6 8 14 5 10 -4 21 19 40 84 27 88 27 89 60 89 54 0 96
59 96 135 0 38 -5 52 -29 76 -16 16 -36 29 -44 29 -12 0 -14 9 -10 43 3 23 10
50 15 60 5 9 6 22 3 27 -10 16 -34 11 -44 -9z m-35 -198 c-3 -16 -8 -47 -11
-70 -8 -48 -26 -56 -49 -20 -42 64 -22 105 57 116 5 0 6 -11 3 -26z m98 -11
c11 -41 -12 -97 -44 -107 -12 -4 -23 -5 -25 -3 -2 2 1 36 7 76 10 65 14 73 32
70 13 -2 24 -14 30 -36z"/>
<path d="M1981 9113 c-5 -10 -21 -57 -35 -104 l-27 -87 -42 -11 c-58 -14 -107
-61 -108 -104 -3 -72 11 -118 44 -146 13 -10 10 -24 -20 -99 -19 -48 -39 -95
-44 -104 -12 -23 -12 -55 0 -62 17 -11 41 6 47 33 3 14 10 44 17 66 7 22 11
43 9 48 -1 4 2 7 6 7 4 0 14 15 20 34 12 32 15 34 46 29 80 -13 140 67 140
190 1 66 0 70 -33 99 l-34 31 23 71 c12 39 27 77 32 83 13 16 3 43 -16 43 -9
0 -19 -8 -25 -17z m-1 -249 c27 -31 10 -146 -27 -186 -19 -21 -78 -25 -71 -5
42 113 59 180 48 187 -12 7 -3 12 31 19 4 0 12 -6 19 -15z m-120 -24 c0 -5 6
-10 14 -10 11 0 10 -12 -7 -65 -12 -36 -24 -65 -28 -65 -9 0 -29 57 -29 84 0
12 7 32 16 44 16 23 34 29 34 12z"/>
<path d="M4111 9117 c-7 -9 -12 -77 -13 -183 -3 -158 -2 -169 16 -172 24 -5
37 16 25 42 -7 14 -7 74 -1 166 6 80 8 148 5 153 -7 11 -19 9 -32 -6z"/>
<path d="M3482 9049 c-33 -22 -52 -63 -35 -80 6 -6 21 2 41 21 39 37 62 39 62
5 0 -36 -36 -102 -59 -110 -22 -7 -91 -112 -91 -138 0 -36 25 -29 71 21 l48
52 11 -35 c16 -48 62 -95 94 -95 34 0 34 27 1 42 -23 10 -75 99 -75 128 0 6 9
28 20 50 26 50 27 121 2 143 -25 22 -50 21 -90 -4z"/>
<path d="M2905 9049 c-64 -8 -125 -34 -125 -53 0 -25 15 -26 73 -6 31 11 76
20 99 20 l42 0 -62 -61 c-80 -79 -81 -93 -7 -90 42 3 74 -22 59 -46 -17 -28
-104 -67 -158 -69 -57 -3 -75 -16 -56 -39 17 -20 49 -19 121 5 77 26 138 66
145 97 8 30 -19 71 -57 87 l-30 13 56 51 c70 65 70 85 0 92 -28 3 -72 2 -100
-1z"/>
<path d="M2674 9036 c-3 -8 0 -42 7 -77 6 -35 13 -122 14 -194 2 -156 0 -145
25 -145 19 0 20 7 20 128 0 71 -3 131 -6 135 -3 3 -8 33 -10 67 -5 64 -17 100
-35 100 -5 0 -12 -6 -15 -14z"/>
<path d="M2121 8977 c-5 -5 -7 -16 -4 -23 4 -10 25 -14 75 -14 l70 0 -36 -41
c-21 -22 -35 -46 -33 -52 2 -7 26 -15 54 -18 60 -8 73 -14 73 -38 0 -40 -80
-81 -158 -81 -29 0 -54 -22 -40 -36 27 -27 169 10 213 55 50 53 31 122 -38
137 l-32 7 49 43 c70 64 61 72 -73 71 -61 0 -115 -5 -120 -10z"/>
<path d="M3170 8725 c-16 -19 -5 -47 17 -43 11 2 18 14 20 31 2 30 -17 36 -37
12z"/>
<path d="M2470 8690 c0 -16 5 -21 23 -18 12 2 22 10 22 18 0 8 -10 16 -22 18
-18 3 -23 -2 -23 -18z"/>
<path d="M4380 8493 c-69 -13 -111 -115 -81 -196 13 -34 74 -61 123 -54 43 6
108 50 108 73 0 20 -33 17 -63 -7 -19 -15 -38 -19 -68 -17 -69 5 -70 25 -5 90
38 38 56 65 56 81 0 22 -19 40 -38 36 -4 -1 -18 -4 -32 -6z m-8 -75 c-12 -12
-24 -19 -28 -16 -3 4 4 16 16 28 12 12 24 19 28 16 3 -4 -4 -16 -16 -28z"/>
<path d="M3925 8478 c-3 -7 -6 -44 -7 -83 -3 -69 -3 -70 -33 -75 -22 -4 -30
-11 -30 -25 0 -17 6 -20 36 -17 33 2 37 0 42 -25 8 -38 41 -89 70 -108 50 -33
147 -27 147 9 0 10 -13 14 -49 14 -26 0 -58 5 -69 11 -23 12 -62 79 -62 105 0
17 50 41 105 52 38 7 47 32 19 55 -12 10 -19 10 -32 1 -21 -15 -82 -42 -93
-42 -5 0 -9 22 -9 48 0 26 -5 53 -12 60 -9 9 -9 12 1 12 7 0 9 5 6 10 -9 14
-25 13 -30 -2z"/>
<path d="M2648 8468 c-3 -7 6 -34 19 -60 47 -98 67 -232 49 -335 -11 -62 -30
-73 -56 -31 -25 41 -26 94 -1 132 11 16 17 35 14 42 -10 27 -31 13 -58 -38
-21 -41 -26 -60 -21 -90 7 -41 29 -84 55 -105 37 -31 91 1 105 62 21 86 10
269 -17 290 -7 6 -11 18 -9 27 5 23 -45 118 -62 118 -8 0 -16 -5 -18 -12z"/>
<path d="M3350 8436 c0 -8 14 -24 30 -36 40 -28 68 -85 72 -145 l3 -48 -45
-11 c-38 -9 -46 -16 -58 -48 -19 -49 -9 -103 23 -124 47 -31 83 4 111 111 28
103 8 209 -53 276 -36 40 -83 54 -83 25z m104 -285 c4 -5 3 -11 -1 -13 -5 -1
-16 -20 -25 -40 -23 -49 -38 -48 -38 2 0 27 6 42 18 49 22 13 39 14 46 2z"/>
<path d="M3653 8258 c-54 -59 -76 -121 -51 -146 19 -19 44 -14 76 13 30 25 31
25 37 5 8 -25 50 -54 65 -45 16 10 12 33 -7 44 -13 7 -18 23 -18 63 0 73 -21
75 -69 8 -21 -29 -40 -50 -43 -47 -7 8 35 75 53 85 17 9 9 42 -10 42 -7 0 -22
-10 -33 -22z m1 -34 c3 -8 2 -12 -4 -9 -6 3 -10 10 -10 16 0 14 7 11 14 -7z"/>
<path d="M2399 8144 c-7 -9 -23 -20 -36 -25 -26 -10 -36 -50 -31 -124 2 -42 6
-50 23 -50 16 0 22 13 36 73 16 71 32 102 45 90 11 -11 24 -82 24 -135 0 -63
23 -95 49 -69 12 12 13 19 3 28 -7 7 -12 40 -12 78 -1 84 -28 150 -63 150 -14
0 -31 -7 -38 -16z"/>
<path d="M2063 8068 c-35 -39 -43 -64 -43 -138 0 -85 18 -126 65 -146 30 -12
39 -11 91 6 59 21 114 63 114 87 0 7 -7 13 -15 13 -8 0 -15 -5 -15 -12 0 -6
-3 -9 -6 -6 -3 4 -22 -5 -42 -18 -46 -32 -76 -39 -115 -27 l-32 9 28 24 c16
14 46 51 68 84 61 92 49 146 -35 146 -31 0 -48 -6 -63 -22z m92 -28 c10 -16
-70 -140 -90 -140 -4 0 -5 25 -3 57 4 43 10 61 28 75 25 20 55 24 65 8z"/>
<path d="M5213 7988 c-26 -28 -52 -96 -57 -151 -5 -52 2 -74 24 -80 15 -4 17
-14 12 -80 -5 -88 1 -120 28 -147 42 -42 91 -16 129 71 43 97 35 194 -18 227
-28 17 -28 17 -10 46 10 16 16 33 13 37 -2 4 0 10 6 14 15 9 12 51 -5 65 -8 7
-34 15 -58 17 -35 4 -46 1 -64 -19z m87 -46 c0 -27 -48 -95 -76 -109 -22 -10
-24 -9 -23 10 1 41 24 88 49 101 35 20 50 19 50 -2z m24 -168 c14 -37 5 -111
-22 -163 -15 -30 -31 -54 -37 -54 -36 1 -43 120 -12 196 12 28 22 37 40 37 14
0 28 -7 31 -16z"/>
<path d="M4791 7942 c-5 -10 -13 -56 -17 -103 l-7 -84 -51 -25 c-44 -22 -52
-30 -60 -64 -15 -66 22 -158 70 -176 18 -7 24 -15 20 -28 -2 -9 -8 -65 -12
-125 -4 -77 -3 -111 6 -121 25 -32 36 -7 38 87 3 153 10 193 39 206 25 11 58
75 48 91 -4 6 -1 10 6 10 8 0 10 13 6 43 -4 31 -14 49 -37 69 l-32 26 7 79 c4
43 11 85 15 93 17 35 -20 57 -39 22z m-31 -289 c0 -65 -11 -123 -22 -123 -14
0 -38 65 -38 101 0 34 24 69 47 69 9 0 13 -14 13 -47z m75 7 c9 -17 11 -30 5
-30 -5 0 -10 -8 -10 -17 -1 -10 -7 -29 -15 -43 -14 -23 -15 -20 -13 48 1 39 5
72 10 72 4 0 14 -13 23 -30z"/>
<path d="M4964 7887 c-3 -8 0 -33 6 -56 6 -22 12 -72 13 -110 1 -42 5 -62 9
-50 4 10 14 19 23 19 19 0 19 47 1 140 -9 47 -17 66 -29 68 -9 2 -20 -3 -23
-11z"/>
<path d="M4402 7782 c-37 -40 -58 -98 -42 -117 13 -16 39 -20 41 -7 0 4 2 19
3 34 1 15 13 39 26 53 23 24 25 25 31 7 8 -21 5 -94 -4 -108 -2 -5 -8 -25 -12
-44 -4 -19 -25 -69 -46 -110 -22 -41 -42 -90 -46 -108 -5 -31 -4 -33 17 -30
17 2 31 20 53 63 l31 60 12 -49 c18 -69 43 -100 85 -104 44 -4 79 19 61 41
-19 22 -52 28 -59 10 -5 -13 -9 -11 -24 8 -10 13 -19 31 -19 39 0 9 -7 41 -15
73 -13 51 -13 65 1 134 9 42 14 94 11 114 -9 72 -59 90 -105 41z"/>
<path d="M4993 7653 c-18 -38 -16 -108 3 -123 27 -23 40 7 36 83 -4 72 -18 86
-39 40z"/>
<path d="M3529 7649 c-12 -12 -19 -29 -16 -40 3 -10 1 -17 -3 -14 -12 8 -24
-59 -16 -90 4 -14 24 -38 44 -53 38 -27 38 -28 25 -60 -17 -42 -32 -151 -26
-185 14 -72 96 -102 143 -52 13 14 20 25 16 25 -4 0 0 7 8 16 11 10 16 34 16
72 0 78 -14 120 -52 159 -23 24 -28 33 -16 33 24 0 31 16 18 40 -8 15 -7 27 5
49 8 17 15 43 15 59 0 29 -21 58 -33 45 -4 -3 -7 -1 -7 5 0 8 -19 12 -50 12
-37 0 -55 -5 -71 -21z m113 -55 c-11 -58 -65 -116 -93 -99 -10 7 -12 58 -3 91
12 44 103 51 96 8z m7 -210 c12 -15 21 -35 21 -45 0 -9 7 -25 17 -34 15 -16
15 -19 0 -45 -10 -15 -17 -35 -17 -42 0 -23 -36 -51 -58 -44 -30 10 -41 45
-32 102 11 67 31 134 41 134 4 0 17 -12 28 -26z"/>
<path d="M3276 7583 c-25 -21 -46 -44 -46 -51 0 -27 31 -23 65 7 20 17 40 31
44 31 15 0 22 -50 15 -98 -4 -26 -8 -53 -9 -62 -8 -59 -18 -80 -41 -80 -28 0
-53 -34 -61 -83 -15 -96 33 -117 78 -34 22 42 27 46 39 32 7 -8 17 -15 22 -15
5 0 17 -7 25 -16 9 -8 24 -13 35 -11 10 3 16 1 12 -4 -3 -5 1 -9 8 -8 24 1 43
14 46 32 2 13 -4 17 -31 17 -21 0 -48 11 -75 31 -34 25 -40 34 -33 52 17 46
33 178 28 223 -9 82 -49 94 -121 37z"/>
<path d="M2336 7578 c-9 -12 -16 -29 -16 -38 0 -8 -17 -69 -38 -134 l-37 -119
-81 2 c-65 2 -83 -1 -100 -16 -35 -31 -54 -66 -54 -98 0 -46 46 -130 95 -173
l43 -38 -34 -98 c-37 -105 -41 -156 -13 -156 21 0 44 26 30 34 -10 7 -4 31 39
154 20 58 24 62 52 62 39 0 94 34 112 68 7 15 18 50 24 78 14 66 1 115 -40
147 l-30 24 21 66 c12 36 23 76 24 89 0 13 4 25 7 28 3 3 15 31 27 62 14 40
17 60 10 67 -16 16 -24 14 -41 -11z m-123 -334 c12 -4 16 -12 12 -23 -4 -9
-18 -58 -32 -108 -16 -54 -32 -93 -39 -93 -19 0 -72 69 -90 117 -16 42 -16 42
11 75 26 31 81 52 110 42 6 -2 18 -7 28 -10z m47 -28 c0 -8 -4 -18 -10 -21 -5
-3 -10 3 -10 14 0 12 5 21 10 21 6 0 10 -6 10 -14z m50 -17 c6 -10 10 -36 10
-58 0 -21 3 -41 8 -44 4 -2 2 -3 -4 -1 -6 1 -16 -13 -23 -32 -11 -31 -53 -64
-81 -64 -15 0 -12 32 5 74 9 20 13 41 10 46 -3 5 -1 11 3 14 5 3 15 26 22 50
13 47 31 52 50 15z"/>
<path d="M3918 7490 c-50 -31 -59 -47 -33 -56 22 -9 107 44 103 63 -5 26 -20
24 -70 -7z"/>
<path d="M2598 7406 c-56 -15 -98 -41 -98 -62 0 -22 27 -28 45 -11 17 18 84
42 92 33 3 -3 -10 -23 -30 -45 -39 -43 -67 -91 -67 -115 0 -15 11 -19 80 -30
43 -7 80 -31 80 -52 0 -9 -13 -29 -29 -45 -32 -31 -68 -37 -101 -17 -16 10
-23 10 -36 -4 -29 -29 -2 -48 67 -48 53 0 63 3 94 33 39 36 56 81 44 114 -10
27 -78 63 -119 63 -16 0 -30 2 -30 5 0 12 31 52 80 104 28 30 49 61 48 70 -4
21 -58 24 -120 7z"/>
<path d="M2885 7130 c-8 -14 3 -30 21 -30 8 0 14 9 14 20 0 21 -24 28 -35 10z"/>
<path d="M5035 6839 c-8 -12 40 -59 61 -59 20 0 18 34 -4 53 -21 19 -48 22
-57 6z"/>
<path d="M5610 6735 c-11 -13 -11 -56 1 -93 2 -8 -8 -23 -24 -35 -40 -31 -52
-13 -32 48 14 38 14 49 4 56 -18 11 -29 2 -45 -37 -41 -98 24 -163 101 -102
l28 22 18 -25 c11 -13 23 -28 27 -34 4 -5 9 -13 10 -17 2 -4 14 -31 27 -60
l25 -53 -54 -55 c-92 -94 -99 -131 -36 -192 30 -28 49 -38 73 -38 40 0 50 7
71 47 16 32 23 153 9 166 -3 4 -7 18 -8 32 -1 24 22 38 103 61 14 4 16 30 2
39 -5 3 -35 -3 -67 -14 -32 -11 -58 -19 -59 -18 -1 1 -15 29 -32 62 -17 33
-42 78 -56 100 -17 28 -22 45 -16 55 14 21 12 74 -2 88 -17 17 -53 15 -68 -3z
m189 -506 c10 0 8 -3 -6 -9 -13 -5 -23 -16 -23 -23 0 -8 -7 -20 -16 -28 -13
-10 -20 -10 -43 4 -16 9 -31 14 -35 12 -3 -3 -4 -2 -1 1 2 4 0 15 -6 25 -13
24 1 51 55 107 l41 43 9 -65 c7 -49 13 -66 25 -67z"/>
<path d="M5297 6672 c-41 -45 -62 -164 -31 -176 24 -9 31 0 31 43 0 47 20 101
38 101 16 0 38 -27 64 -77 22 -45 27 -48 49 -34 11 6 9 17 -8 53 -42 91 -106
131 -143 90z"/>
<path d="M4380 6645 c-6 -8 -9 -23 -5 -34 12 -40 26 -127 25 -164 -1 -31 -8
-45 -35 -69 -34 -29 -45 -61 -25 -73 6 -3 24 9 40 27 19 20 30 27 30 18 1 -42
30 -171 44 -198 17 -33 41 -42 48 -20 3 7 -3 31 -13 53 -17 38 -42 185 -34
193 2 3 19 7 37 11 24 5 33 12 33 26 0 17 -6 19 -37 17 -43 -4 -41 -7 -59 125
-13 92 -26 116 -49 88z"/>
<path d="M5116 6602 c-9 -15 12 -155 25 -163 19 -12 25 -11 38 5 8 9 8 16 2
20 -5 4 -13 38 -17 76 -5 58 -10 70 -25 70 -10 0 -20 -3 -23 -8z"/>
<path d="M4594 6559 c-10 -17 13 -36 27 -22 12 12 4 33 -11 33 -5 0 -12 -5
-16 -11z"/>
<path d="M4783 6480 c-71 -43 -56 -137 24 -154 50 -11 173 53 173 90 0 20 -36
18 -52 -4 -31 -43 -139 -56 -146 -19 -5 25 26 57 54 57 29 0 39 16 24 35 -17
20 -39 19 -77 -5z"/>
<path d="M4617 6413 c-11 -11 -8 -100 4 -127 26 -55 60 -33 40 25 -6 18 -11
49 -11 70 0 37 -15 51 -33 32z m37 -119 c3 -8 2 -12 -4 -9 -6 3 -10 10 -10 16
0 14 7 11 14 -7z"/>
<path d="M4133 6358 c-36 -37 -57 -107 -43 -144 15 -39 54 -57 105 -50 48 8
53 13 33 36 -7 8 -3 6 10 -5 21 -18 24 -18 40 -1 24 24 1 37 -45 24 -19 -5
-48 -8 -66 -6 -31 3 -32 5 -31 47 1 38 6 49 34 72 21 18 31 33 27 43 -10 24
-30 19 -64 -16z"/>
<path d="M1961 6361 c-8 -5 -11 -16 -8 -24 3 -9 -1 -21 -9 -28 -8 -7 -34 -51
-58 -99 l-44 -88 -8 62 c-8 51 -12 61 -29 61 -17 0 -20 -6 -18 -40 5 -118 2
-247 -7 -270 -7 -20 -7 -31 1 -41 6 -8 11 -48 10 -96 -1 -111 8 -142 42 -146
21 -3 29 2 37 23 13 35 13 35 -9 35 -17 0 -20 10 -24 83 -7 116 -4 158 10 153
6 -3 19 4 29 15 9 10 24 19 32 19 26 0 78 -64 92 -112 8 -27 17 -48 20 -48 3
0 4 -40 2 -90 -3 -84 -2 -90 16 -90 16 0 21 10 26 61 20 178 -95 362 -194 309
-19 -10 -22 -10 -18 1 3 8 16 43 29 79 29 83 74 168 106 201 38 41 18 98 -26
70z"/>
<path d="M3746 6328 c-25 -38 -30 -84 -16 -149 16 -73 35 -98 58 -75 13 13 13
18 2 31 -9 11 -14 44 -14 88 -1 69 0 72 24 75 51 7 46 37 -7 48 -26 5 -34 2
-47 -18z"/>
<path d="M6542 6310 c-13 -30 -23 -40 -39 -40 -26 0 -27 -4 -14 -63 6 -23 12
-54 16 -69 4 -19 12 -28 25 -28 17 0 20 7 20 41 0 37 18 129 26 129 1 0 19 -9
39 -21 55 -33 138 -8 121 36 -4 12 -10 14 -25 5 -35 -18 -68 -11 -94 20 -35
41 -55 38 -75 -10z"/>
<path d="M3910 6272 c-31 -26 -37 -85 -11 -111 26 -26 57 -27 96 -3 23 14 34
16 47 8 31 -19 40 5 18 49 -27 53 -36 61 -55 45 -8 -7 -15 -8 -15 -2 0 5 -13
15 -30 20 -23 9 -33 7 -50 -6z m50 -42 c9 -6 19 -5 29 3 12 10 13 9 2 -10 -13
-25 -45 -46 -55 -36 -9 9 -8 53 2 53 4 0 14 -4 22 -10z"/>
<path d="M3561 6243 c-12 -14 -24 -36 -27 -48 -4 -16 -11 -21 -25 -18 -24 7
-36 -21 -19 -42 10 -13 10 -19 -4 -33 -24 -27 -20 -51 13 -69 21 -13 31 -29
40 -66 6 -27 11 -60 11 -73 0 -58 45 -117 65 -85 3 6 -6 56 -19 112 -14 57
-24 103 -23 104 22 4 67 38 84 64 29 42 29 80 2 126 -36 60 -67 69 -98 28z
m64 -56 c16 -31 16 -35 1 -65 -15 -28 -43 -52 -62 -52 -9 0 1 89 15 123 14 35
24 34 46 -6z"/>
<path d="M6314 6246 c-12 -9 -27 -30 -34 -48 -7 -18 -19 -40 -27 -49 -11 -13
-8 -24 17 -71 17 -31 41 -60 55 -66 36 -17 100 -15 115 3 18 22 3 34 -35 28
-42 -7 -82 16 -91 52 -5 19 0 30 22 48 21 19 27 33 28 67 1 50 -14 61 -50 36z"/>
<path d="M2736 6148 c-20 -33 -27 -62 -35 -142 l-7 -71 -13 48 c-15 55 -27 65
-48 44 -12 -12 -13 -19 -4 -36 7 -12 9 -26 6 -31 -3 -6 -2 -10 3 -10 6 0 8 -8
5 -18 -2 -10 3 -24 11 -31 19 -16 66 -160 66 -201 0 -39 16 -79 36 -87 27 -10
32 15 16 80 -8 34 -15 88 -16 119 -1 54 0 57 30 72 47 22 59 66 40 150 -30
129 -58 164 -90 114z m53 -164 c1 -41 -21 -76 -37 -60 -9 9 -5 143 4 158 11
17 32 -48 33 -98z"/>
<path d="M6068 6098 c-5 -13 6 -81 17 -109 5 -12 -1 -14 -31 -11 -24 3 -39 0
-45 -9 -7 -11 -9 -10 -9 4 0 23 -33 19 -38 -4 -4 -23 48 -42 102 -38 24 2 42
1 39 -3 -2 -5 5 -8 17 -8 28 0 35 22 17 57 -18 34 -23 72 -12 97 5 12 3 21 -6
27 -20 13 -47 11 -51 -3z"/>
<path d="M2414 6047 c-91 -78 62 -270 172 -215 41 20 34 33 -20 36 -27 2 -62
10 -78 18 l-29 15 21 29 c64 90 11 183 -66 117z m42 -73 c-3 -8 -10 -14 -16
-14 -14 0 -13 33 3 49 10 10 13 9 15 -4 2 -9 1 -23 -2 -31z"/>
<path d="M5496 6051 c-8 -12 38 -154 60 -189 19 -30 12 -39 -38 -47 -34 -6
-43 -4 -52 11 -5 11 -11 24 -11 29 -4 48 -20 106 -31 116 -8 6 -14 19 -14 27
0 12 -3 13 -11 5 -7 -7 -9 -29 -4 -61 5 -41 10 -50 23 -45 14 4 14 3 3 -5 -11
-8 -12 -18 -3 -53 10 -40 9 -45 -14 -67 -13 -14 -24 -31 -24 -39 0 -23 29 -26
48 -5 17 20 17 20 36 1 11 -10 14 -19 8 -19 -6 0 4 -33 23 -72 32 -70 56 -92
63 -57 2 9 -13 52 -32 95 -36 82 -35 95 8 99 14 2 29 6 34 9 5 3 15 -14 22
-37 6 -23 17 -48 22 -54 17 -21 46 -15 53 10 16 62 29 97 34 97 3 0 19 -19 35
-41 33 -47 70 -69 88 -51 9 9 4 20 -24 44 -19 18 -43 49 -53 68 -10 19 -23 38
-28 42 -19 12 -48 -12 -67 -55 -12 -29 -20 -37 -24 -27 -3 8 -26 74 -51 145
-42 121 -62 154 -79 126z m49 -79 c-3 -3 -11 0 -18 7 -9 10 -8 11 6 5 10 -3
15 -9 12 -12z"/>
<path d="M2178 6013 c-30 -35 -40 -66 -39 -129 1 -138 74 -180 180 -103 40 30
51 52 31 64 -5 3 -33 -10 -61 -30 -28 -19 -54 -35 -58 -35 -18 1 -51 44 -51
67 0 5 16 15 35 22 19 7 35 18 35 26 0 7 7 15 15 19 22 8 20 79 -3 99 -24 22
-65 22 -84 0z m60 -47 c4 -20 -25 -56 -45 -56 -17 0 -17 14 3 51 16 32 37 34
42 5z"/>
<path d="M5848 5958 c0 -7 -2 -24 -4 -38 -2 -14 -6 -46 -10 -72 -6 -44 -5 -48
18 -59 20 -9 32 -8 59 6 43 22 79 55 79 71 0 8 -25 29 -55 49 -30 19 -55 39
-55 45 0 15 -30 12 -32 -2z m82 -98 c0 -3 -10 -11 -21 -19 -18 -10 -23 -10
-30 0 -4 7 -3 21 2 31 8 15 13 16 29 5 11 -6 20 -14 20 -17z"/>
<path d="M4778 5913 c-24 -29 -48 -88 -54 -137 -4 -28 -12 -46 -20 -46 -22 0
-24 -17 -9 -77 8 -32 21 -106 30 -166 8 -59 19 -116 25 -126 15 -30 73 -23
113 12 19 17 25 26 14 23 -11 -3 -15 -2 -12 4 3 6 13 10 21 10 21 0 64 97 64
147 0 52 -37 100 -84 109 l-33 6 19 51 c35 92 12 207 -42 207 -9 0 -24 -8 -32
-17z m48 -69 c7 -40 -7 -101 -37 -153 -27 -46 -19 -61 31 -61 56 0 95 -37 86
-83 -7 -35 -45 -138 -46 -123 0 6 -6 1 -14 -10 -24 -31 -48 -7 -63 62 -7 32
-18 82 -25 109 -9 33 -11 65 -6 95 5 25 10 61 12 80 6 52 32 120 47 120 5 0
11 -16 15 -36z"/>
<path d="M5219 5719 c-13 -25 -7 -125 10 -157 14 -27 45 -36 73 -21 32 16 78
60 78 75 0 7 6 14 13 17 8 3 6 7 -6 12 -14 6 -28 -2 -56 -29 -20 -20 -42 -36
-49 -36 -23 0 -24 28 -3 49 26 26 27 72 3 94 -25 23 -49 21 -63 -4z"/>
<path d="M5062 5692 c-36 -24 -42 -135 -9 -182 27 -40 51 -50 95 -38 28 8 32
13 32 43 0 28 -4 35 -19 35 -11 0 -27 -10 -36 -22 -16 -23 -16 -23 -30 -4 -19
25 -19 36 0 36 21 0 41 74 29 108 -10 28 -39 39 -62 24z"/>
<path d="M3603 5595 c-12 -9 -27 -34 -33 -55 -13 -50 -3 -94 51 -208 44 -94
46 -85 -44 -146 -31 -21 -57 -45 -57 -53 0 -17 30 -30 39 -15 7 12 110 82 120
82 10 0 37 -63 49 -110 11 -47 7 -117 -8 -135 -6 -8 -9 -19 -5 -25 8 -13 42
-13 50 -1 23 39 11 188 -23 257 -14 31 -14 36 -2 44 25 16 30 11 30 -31 0 -59
14 -79 56 -79 112 0 148 97 52 140 -32 14 -43 25 -43 42 0 13 -7 24 -17 26
-12 2 -20 -8 -29 -37 -11 -36 -14 -39 -24 -24 -11 14 -17 15 -38 6 -24 -11
-26 -9 -57 55 -75 154 -81 232 -20 232 16 0 32 5 36 11 16 27 -51 47 -83 24z
m-3 -55 c0 -5 -2 -10 -4 -10 -3 0 -8 5 -11 10 -3 6 -1 10 4 10 6 0 11 -4 11
-10z m268 -326 c28 -20 28 -28 -3 -42 -44 -20 -55 -15 -55 23 0 40 19 46 58
19z"/>
<path d="M3950 5385 c-8 -9 -9 -30 -4 -62 4 -26 8 -54 8 -62 1 -8 9 -19 19
-25 25 -16 37 7 26 53 -11 49 -11 51 6 51 18 0 20 24 3 37 -24 19 -47 22 -58
8z"/>
<path d="M2666 5211 c-18 -29 26 -288 65 -378 19 -44 43 -55 66 -32 13 13 6
39 -11 39 -22 0 -60 137 -79 287 -11 79 -26 109 -41 84z"/>
<path d="M2863 5111 c-30 -19 -31 -23 -27 -68 3 -26 6 -63 7 -81 6 -76 97
-113 144 -57 21 24 24 35 20 90 -4 71 -25 111 -63 125 -35 14 -45 13 -81 -9z
m86 -50 c6 -10 13 -37 17 -60 5 -32 3 -46 -11 -61 -23 -26 -40 -25 -59 2 -16
22 -22 118 -9 131 13 14 53 6 62 -12z"/>
<path d="M2249 5047 c-41 -34 -59 -69 -57 -110 2 -44 28 -70 90 -89 22 -6 52
-27 70 -46 26 -30 29 -41 25 -75 -6 -46 -32 -86 -71 -107 -25 -14 -28 -14 -39
5 -7 11 -12 31 -12 45 0 18 -5 25 -20 25 -13 0 -20 -6 -19 -17 1 -10 -2 -18
-7 -18 -10 0 20 -73 35 -82 6 -4 25 -8 41 -8 100 0 172 153 115 246 -19 30
-106 84 -136 84 -28 0 -38 29 -24 70 7 22 16 38 18 35 3 -3 13 2 23 11 10 9
26 14 35 10 21 -8 45 11 37 30 -8 23 -74 17 -104 -9z"/>
<path d="M2463 4959 c-29 -11 -31 -54 -3 -71 15 -10 20 -24 20 -59 0 -65 29
-101 78 -95 34 3 62 27 62 51 0 6 -7 34 -15 61 -23 77 -92 132 -142 113z m82
-83 c19 -29 31 -91 18 -99 -22 -14 -38 14 -39 65 0 41 -4 54 -17 56 -9 2 -17
8 -17 13 0 15 38 -9 55 -35z"/>
<path d="M4810 4760 c-68 -30 -75 -36 -60 -60 8 -12 15 -11 54 8 47 22 60 18
29 -11 -31 -27 -77 -122 -69 -142 6 -16 15 -17 71 -12 62 6 67 5 100 -24 41
-36 50 -61 34 -91 -17 -32 -47 -55 -98 -74 -35 -15 -47 -15 -63 -5 -24 15 -42
3 -36 -24 6 -33 31 -39 90 -21 55 16 130 66 144 96 18 42 14 83 -12 122 -37
53 -75 71 -136 66 l-48 -5 22 36 c12 20 27 43 33 51 7 8 23 34 36 58 20 37 21
45 9 52 -21 13 -27 12 -100 -20z"/>
<path d="M4515 4623 c-28 -42 -33 -91 -10 -100 20 -7 25 -2 31 33 3 16 10 34
16 42 20 23 30 -13 36 -123 5 -103 5 -103 -19 -107 -28 -4 -50 -43 -57 -104
-9 -87 23 -131 70 -94 l25 19 28 -29 c16 -17 39 -30 53 -30 33 0 76 27 96 61
15 26 15 28 -1 38 -14 7 -23 3 -43 -19 -34 -39 -58 -41 -84 -7 -19 26 -21 41
-22 185 0 150 -12 229 -36 260 -21 24 -56 13 -83 -25z m61 -379 c-10 -49 -27
-31 -19 19 4 25 9 35 16 28 5 -5 6 -26 3 -47z"/>
<path d="M3183 4353 c-20 -7 -16 -28 21 -122 52 -133 52 -136 11 -160 -23 -14
-33 -25 -29 -36 8 -19 13 -19 59 1 20 8 34 11 31 5 -3 -5 7 -45 23 -88 22 -60
33 -79 50 -81 14 -2 21 2 21 13 0 9 -4 13 -10 10 -5 -3 -8 0 -5 7 3 7 -8 48
-24 90 l-28 77 51 12 c63 14 80 26 63 43 -12 14 -80 4 -103 -15 -15 -13 -23 1
-53 92 -12 36 -28 75 -36 85 -8 10 -15 29 -15 41 0 24 -9 33 -27 26z"/>
<path d="M4055 4301 c-56 -6 -60 -8 -60 -31 0 -19 4 -24 20 -22 11 2 39 5 63
6 45 3 79 26 68 45 -4 6 -13 10 -19 9 -7 -1 -39 -4 -72 -7z"/>
<path d="M3515 4148 c-27 -15 -35 -28 -35 -61 0 -46 17 -67 53 -67 18 0 42 6
53 14 17 13 22 12 54 -19 19 -18 47 -37 63 -40 23 -6 27 -4 27 13 0 13 -11 26
-27 34 -15 7 -38 29 -51 48 -13 19 -27 37 -33 38 -5 2 -23 -8 -40 -23 -35 -29
-54 -28 -54 1 0 14 8 20 33 22 23 2 32 8 32 22 0 29 -39 38 -75 18z"/>
<path d="M2404 3996 c-53 -25 -94 -70 -94 -103 0 -26 41 -63 69 -63 34 0 81
-52 81 -89 0 -17 -2 -31 -4 -31 -15 0 -164 -22 -178 -26 -21 -6 -24 -32 -4
-40 20 -8 195 23 212 37 9 7 13 21 11 31 -3 10 -1 18 4 18 5 0 6 12 3 27 -13
48 -44 91 -77 103 -83 31 -79 28 -63 52 8 13 31 32 51 42 31 17 41 18 69 8 41
-15 43 -15 50 3 6 15 -21 38 -59 49 -11 3 -42 -5 -71 -18z"/>
<path d="M2948 4003 c-27 -31 -38 -60 -38 -102 0 -75 68 -91 126 -30 l27 29
24 -34 c23 -35 55 -52 73 -41 15 9 12 32 -4 38 -8 3 -29 27 -47 54 -18 26 -35
50 -38 53 -3 3 -11 14 -17 25 -15 28 -84 33 -106 8z m80 -36 c13 -15 -18 -74
-44 -84 -37 -14 -43 46 -8 81 19 19 38 20 52 3z"/>
<path d="M3740 3995 c0 -8 5 -15 10 -15 6 0 10 7 10 15 0 8 -4 15 -10 15 -5 0
-10 -7 -10 -15z"/>
<path d="M2595 3920 c-50 -55 -25 -190 35 -190 23 0 80 53 80 73 0 29 -20 67
-35 67 -14 0 -20 12 -16 34 2 12 -20 36 -34 36 -6 0 -20 -9 -30 -20z m53 -82
c17 -17 15 -48 -4 -55 -19 -7 -34 13 -34 45 0 24 19 29 38 10z"/>
<path d="M2771 3910 l-19 -31 -6 25 c-4 17 -13 26 -26 26 -28 0 -32 -14 -13
-51 9 -18 24 -53 33 -78 22 -63 43 -60 51 6 9 72 16 90 31 75 14 -14 18 -34
19 -82 1 -40 23 -80 44 -80 20 0 29 19 16 34 -6 7 -13 35 -16 62 -13 110 -73
160 -114 94z"/>
<path d="M5004 3605 c-4 -8 -3 -27 1 -43 5 -15 10 -36 11 -47 6 -37 78 -175
91 -175 10 0 11 -4 1 -19 -6 -11 -33 -23 -64 -30 -42 -10 -52 -16 -47 -28 4
-11 2 -14 -5 -9 -12 7 -17 -6 -7 -16 3 -3 31 1 63 8 75 18 82 17 82 -5 0 -11
7 -26 15 -35 16 -16 20 -31 6 -22 -4 3 -5 -13 0 -37 4 -23 8 -48 9 -54 0 -7
10 -13 21 -13 21 0 21 4 16 58 -3 31 -13 76 -21 99 -11 33 -12 44 -2 52 15 12
103 34 134 32 15 0 22 5 22 18 0 26 -32 35 -75 22 -19 -6 -51 -16 -71 -22 -19
-6 -37 -9 -38 -7 -11 12 -86 188 -90 211 -3 15 -8 38 -11 52 -6 27 -32 34 -41
10z"/>
<path d="M3830 3418 c-14 -51 -67 -158 -78 -158 -5 0 -26 15 -47 33 l-38 33
37 24 c30 18 40 20 46 10 10 -16 40 -6 40 13 0 20 -32 43 -56 42 -25 -2 -68
-31 -102 -68 l-23 -25 40 -37 c22 -21 49 -44 60 -52 20 -13 20 -14 -9 -60 -33
-51 -38 -90 -15 -99 8 -4 15 -11 15 -18 0 -16 103 -95 141 -108 29 -10 34 -9
51 12 10 12 18 33 18 47 0 33 -52 131 -93 174 l-32 34 43 85 c47 92 59 152 30
158 -13 2 -20 -8 -28 -40z m-33 -280 c48 -68 76 -129 64 -141 -12 -12 -45 8
-108 66 l-43 39 22 39 c12 22 25 39 28 39 4 0 20 -19 37 -42z"/>
<path d="M4584 3375 c-8 -20 4 -35 26 -35 28 0 36 21 15 37 -24 17 -34 17 -41
-2z"/>
<path d="M5446 3349 c-84 -56 -100 -130 -36 -161 19 -9 53 -20 75 -23 100 -18
95 -50 -6 -43 -62 5 -69 3 -69 -13 0 -23 13 -31 60 -36 45 -5 113 12 130 32
18 22 4 63 -28 79 -15 7 -53 19 -85 26 -31 7 -62 18 -67 25 -15 18 36 85 71
92 36 7 45 19 29 38 -17 20 -20 20 -74 -16z"/>
<path d="M4791 3234 c-35 -44 -26 -154 11 -151 17 1 19 6 13 43 -13 90 41 132
58 44 11 -57 30 -79 51 -61 10 9 13 19 7 30 -4 9 -11 31 -15 50 -9 48 -33 71
-72 71 -23 0 -38 -7 -53 -26z"/>
<path d="M4223 3205 c-12 -9 -25 -31 -29 -50 -3 -19 -12 -35 -20 -35 -22 0
-26 -19 -10 -47 8 -16 25 -79 36 -141 25 -133 34 -162 55 -162 27 0 28 27 6
123 -34 149 -35 136 9 130 34 -5 43 -1 70 25 44 44 42 93 -6 138 -39 37 -76
44 -111 19z m82 -50 c28 -27 31 -43 12 -69 -9 -12 -23 -17 -47 -14 -32 3 -35
6 -38 36 -2 22 3 41 14 53 22 25 30 24 59 -6z"/>
<path d="M4467 3213 c-11 -10 -8 -112 3 -134 18 -32 66 -25 90 14 25 39 19 73
-16 105 -24 21 -63 29 -77 15z m61 -79 c-2 -10 -11 -20 -21 -22 -12 -2 -15 1
-12 12 3 9 7 24 10 33 8 22 28 2 23 -23z"/>
<path d="M4630 3173 c0 -4 7 -27 16 -50 12 -29 23 -43 35 -43 23 0 24 19 5 65
-10 24 -22 35 -35 35 -12 0 -21 -3 -21 -7z"/>
<path d="M9802 11223 c1054 -2 2782 -2 3840 0 1058 1 195 2 -1917 2 -2112 0
-2977 -1 -1923 -2z"/>
<path d="M9797 10533 c1057 -2 2789 -2 3850 0 1060 1 196 2 -1922 2 -2117 0
-2985 -1 -1928 -2z"/>
<path d="M14379 10408 c-7 -37 -48 -143 -55 -142 -5 1 -23 5 -40 8 -49 11 -84
-23 -84 -80 0 -55 13 -82 45 -94 24 -9 24 -9 9 -60 -8 -28 -12 -55 -9 -60 3
-5 1 -11 -5 -15 -15 -9 -12 -48 6 -73 21 -30 47 -12 38 25 -7 27 13 141 29
161 5 6 18 12 29 12 34 0 85 30 97 57 9 21 9 30 -4 49 -8 13 -19 24 -23 24 -4
0 -15 7 -24 14 -16 12 -16 16 3 65 10 29 17 56 14 61 -3 5 -1 11 4 15 14 8 2
35 -15 35 -8 0 -14 -1 -15 -2z m-74 -203 c1 -47 30 -59 45 -20 l10 25 20 -20
c17 -17 19 -24 10 -35 -21 -26 -48 -27 -71 -4 l-22 22 -9 -23 c-8 -22 -9 -22
-28 -5 -25 22 -25 43 -2 66 22 23 47 20 47 -6z"/>
<path d="M14856 10395 c-9 -9 -16 -22 -16 -29 0 -6 -9 -29 -20 -51 -22 -44
-25 -67 -10 -96 10 -17 8 -19 -22 -17 -43 4 -53 -28 -11 -38 43 -10 46 -14 25
-38 -84 -92 -62 -193 45 -203 28 -3 67 0 87 7 41 13 96 74 96 106 0 29 -34 70
-84 101 l-41 27 32 8 c34 9 73 50 73 78 0 24 -36 67 -70 85 -22 11 -28 21 -27
42 2 22 -3 29 -19 31 -12 2 -29 -4 -38 -13z m64 -100 c25 -16 40 -33 40 -45 0
-42 -88 -52 -109 -12 -9 17 10 82 24 82 3 0 23 -11 45 -25z m16 -205 c31 -22
44 -38 44 -55 0 -29 -40 -62 -88 -71 -87 -17 -124 43 -71 116 35 49 56 50 115
10z"/>
<path d="M8925 10370 c-3 -6 0 -32 8 -58 30 -96 40 -143 31 -151 -5 -4 -28
-13 -51 -20 -40 -11 -56 -32 -34 -46 5 -3 30 0 56 7 55 15 58 12 76 -79 10
-48 17 -63 30 -63 27 0 29 24 10 94 -16 59 -17 66 -2 72 9 4 19 7 23 6 4 -1
30 -5 58 -8 41 -5 51 -3 56 10 10 26 -2 31 -89 36 l-82 5 -25 100 c-18 71 -31
101 -42 103 -9 2 -19 -2 -23 -8z"/>
<path d="M13898 10320 c-62 -41 -72 -54 -53 -70 12 -10 22 -6 57 19 23 17 46
31 50 31 4 0 8 -19 8 -43 0 -65 -40 -136 -96 -171 -48 -30 -71 -64 -61 -90 8
-22 40 -10 86 33 37 34 42 36 56 22 8 -9 22 -35 31 -56 29 -72 72 -103 102
-73 20 20 14 38 -13 38 -21 0 -29 9 -49 53 -13 28 -32 60 -43 70 -20 17 -20
17 4 65 40 81 30 202 -16 202 -10 0 -38 -14 -63 -30z"/>
<path d="M14577 10333 c-11 -10 -8 -53 3 -53 5 0 7 -7 4 -15 -4 -8 -1 -21 5
-29 8 -10 8 -21 1 -40 -12 -33 -13 -166 -1 -185 5 -7 14 -12 21 -9 13 4 25
261 14 311 -5 26 -31 37 -47 20z"/>
<path d="M8573 10305 c-47 -29 -59 -52 -42 -87 13 -29 88 -77 174 -112 75 -30
81 -50 23 -75 -66 -29 -133 -36 -162 -18 -20 14 -26 14 -42 2 -25 -18 -9 -35
46 -51 76 -23 219 26 240 82 16 41 -4 62 -113 113 -113 53 -137 72 -117 96 7
8 30 20 51 26 31 10 42 9 61 -3 44 -28 68 7 26 36 -34 24 -96 20 -145 -9z"/>
<path d="M13218 10316 c-75 -13 -83 -18 -74 -42 5 -12 13 -15 34 -10 15 3 42
9 61 11 l34 6 -52 -42 c-72 -58 -68 -64 63 -95 85 -20 103 -35 93 -76 -12 -46
-162 -81 -204 -47 -18 15 -43 4 -43 -20 0 -25 18 -31 101 -31 55 0 69 3 69 15
0 18 12 19 27 4 27 -27 103 47 103 99 0 27 -39 74 -57 68 -8 -3 -11 -1 -8 4 3
6 1 11 -4 11 -14 2 -22 4 -41 12 -8 3 -28 9 -44 14 l-30 9 45 31 c63 44 75 59
59 78 -14 17 -40 18 -132 1z"/>
<path d="M11980 10284 c-6 -14 -10 -36 -10 -49 0 -13 -4 -35 -9 -48 -8 -21
-17 -25 -77 -30 -62 -5 -71 -8 -101 -41 -55 -60 -45 -162 22 -214 16 -13 23
-26 19 -36 -6 -15 -181 -16 -1978 -18 l-1971 -3 1967 -5 1966 -5 -74 -120
c-80 -128 -93 -160 -75 -178 14 -14 46 2 47 24 1 23 30 78 92 179 l59 95 1859
5 1859 5 -1852 3 c-1029 1 -1853 6 -1853 11 0 4 25 8 56 7 30 0 58 4 62 9 4 6
14 10 22 10 22 0 61 65 54 89 -6 22 -33 50 -73 77 l-24 15 18 53 c32 96 44
165 33 178 -16 20 -27 16 -38 -13z m-66 -170 c31 -12 15 -24 -24 -18 -36 6
-40 5 -40 -15 0 -16 8 -23 30 -27 17 -4 30 -10 30 -15 0 -5 -12 -33 -27 -63
-23 -47 -29 -53 -45 -45 -24 13 -48 61 -48 97 0 60 69 107 124 86z m79 -119
c15 -13 27 -28 27 -34 0 -19 -53 -51 -86 -51 l-34 0 27 55 c15 30 30 55 33 55
3 0 17 -12 33 -25z"/>
<path d="M9628 10294 c-4 -3 7 -44 24 -91 17 -46 29 -85 27 -86 -2 -1 -17 -9
-34 -17 -33 -17 -48 -60 -20 -60 9 0 23 7 32 15 8 9 22 15 30 13 20 -4 64
-138 52 -159 -10 -19 -3 -29 22 -29 26 0 35 45 19 89 -7 20 -19 55 -26 78
l-13 42 54 12 c32 7 52 16 48 22 -4 6 0 8 10 4 20 -7 29 4 17 22 -6 11 -17 11
-61 1 -30 -7 -59 -17 -65 -21 -11 -9 -27 20 -62 116 -16 46 -38 66 -54 49z"/>
<path d="M12940 10275 c-7 -8 -15 -44 -18 -80 -4 -61 -3 -65 14 -59 18 7 18 7
2 -13 -13 -14 -18 -37 -18 -84 0 -64 10 -89 38 -89 11 0 12 19 6 98 -3 53 -12
103 -18 111 -8 11 -8 13 2 7 8 -5 12 -1 12 11 0 10 6 29 13 43 22 43 -5 88
-33 55z"/>
<path d="M12320 10226 c-65 -9 -75 -14 -75 -31 0 -17 6 -20 45 -17 25 1 56 4
70 7 24 5 24 5 -5 -17 -71 -55 -80 -65 -67 -80 6 -8 36 -20 67 -27 67 -15 100
-39 91 -68 -11 -33 -52 -44 -153 -42 -51 2 -96 0 -99 -4 -30 -30 72 -55 169
-42 90 13 127 42 127 103 0 41 -60 92 -109 92 -29 0 -27 4 19 50 37 37 53 80
31 80 -5 0 -15 2 -23 4 -7 2 -47 -2 -88 -8z"/>
<path d="M9157 10100 c-32 -25 -43 -72 -27 -111 14 -34 45 -45 98 -34 20 4 60
7 87 8 43 2 50 5 50 22 0 15 -6 19 -25 17 -21 -2 -28 4 -35 30 -12 41 -38 43
-45 3 -4 -20 -12 -31 -30 -36 -52 -15 -60 -11 -60 25 0 41 10 49 63 50 25 1
42 6 45 15 3 8 0 11 -7 7 -6 -4 -14 0 -17 8 -9 23 -66 20 -97 -4z"/>
<path d="M9408 10110 c-9 -6 -19 -23 -23 -39 -12 -54 73 -183 91 -138 2 7 -7
33 -20 58 -33 57 -34 84 -3 74 56 -17 67 -17 67 -1 0 18 -55 56 -80 56 -8 0
-23 -5 -32 -10z"/>
<path d="M10361 10079 c-67 -41 -64 -95 9 -148 80 -58 160 -48 160 20 0 27
-35 64 -51 53 -4 -2 -10 0 -14 6 -8 14 -58 13 -72 -1 -6 -6 -9 -19 -5 -28 5
-14 4 -14 -11 -2 -26 21 -20 49 13 66 32 16 39 39 16 48 -7 3 -28 -3 -45 -14z
m110 -119 l24 -19 -28 -1 c-16 0 -38 5 -50 12 -21 11 -21 11 -2 19 29 11 31
11 56 -11z"/>
<path d="M10645 10075 c-8 -14 -22 -36 -30 -50 -19 -31 -19 -61 -1 -68 18 -7
23 -2 46 50 10 24 24 43 30 43 6 0 21 -23 34 -50 26 -57 53 -90 71 -90 20 0
25 27 8 42 -9 7 -22 27 -30 43 -38 80 -59 105 -89 105 -14 0 -29 -10 -39 -25z"/>
<path d="M13513 10003 c-20 -7 -15 -38 10 -61 18 -17 26 -19 35 -10 7 7 12 15
12 18 0 15 -46 57 -57 53z m34 -65 c-3 -8 -6 -5 -6 6 -1 11 2 17 5 13 3 -3 4
-12 1 -19z"/>
<path d="M12612 9941 c-21 -13 -10 -46 17 -49 32 -5 46 11 32 37 -12 22 -28
26 -49 12z"/>
<path d="M9536 9692 c-10 -16 -18 -67 -23 -139 l-5 -73 -54 0 c-41 0 -56 -4
-61 -16 -9 -25 17 -35 75 -28 46 6 52 4 52 -12 0 -42 43 -174 56 -174 24 0 25
22 4 104 -24 96 -24 92 -2 101 59 23 62 21 62 -55 0 -39 5 -80 10 -91 14 -25
48 -24 76 2 l21 20 21 -35 c21 -35 45 -46 57 -26 5 9 -20 58 -37 70 -4 3 -3
12 2 20 13 21 12 57 -2 66 -7 5 -28 -11 -53 -40 l-42 -47 -6 38 c-4 21 -7 66
-7 100 0 34 -3 68 -6 77 -8 20 -34 9 -34 -15 0 -12 -10 -23 -26 -29 -55 -21
-57 -19 -53 87 3 67 0 97 -8 100 -6 2 -14 0 -17 -5z m128 -247 c3 -8 1 -15 -4
-15 -6 0 -10 7 -10 15 0 8 2 15 4 15 2 0 6 -7 10 -15z"/>
<path d="M14824 9656 c-7 -18 12 -47 30 -45 6 1 27 1 46 0 41 -1 33 -13 -38
-52 -48 -26 -61 -54 -32 -70 8 -4 53 -18 98 -31 46 -13 84 -27 85 -33 1 -5
-15 -18 -35 -28 -44 -21 -169 -25 -225 -6 -43 14 -67 -1 -42 -26 17 -17 27
-20 112 -30 48 -6 61 -4 77 10 11 10 20 13 20 7 0 -6 -3 -12 -7 -15 -5 -2 -1
-2 7 0 8 3 27 6 43 8 42 6 85 36 96 67 14 39 -11 62 -86 83 -32 9 -65 19 -73
21 -9 3 16 24 67 57 51 33 82 59 82 70 1 23 -25 33 -44 17 -14 -12 -89 -8
-152 7 -15 3 -25 0 -29 -11z"/>
<path d="M12075 9651 c-35 -9 -103 -50 -126 -77 -54 -62 -18 -106 128 -155
114 -38 196 -74 212 -93 20 -23 -133 -59 -251 -58 -88 1 -98 -1 -98 -18 0 -10
7 -21 16 -24 50 -19 270 8 343 42 96 45 23 118 -189 187 -146 48 -161 61 -117
103 43 40 159 72 206 57 18 -6 21 -12 15 -41 -5 -29 -4 -34 14 -34 38 0 46 79
10 104 -24 17 -108 20 -163 7z"/>
<path d="M14604 9598 c-48 -45 -71 -85 -56 -100 11 -11 42 1 42 17 0 15 59 75
73 75 6 0 7 -21 4 -50 -8 -70 -81 -172 -141 -199 -46 -20 -91 -73 -82 -96 9
-23 29 -18 79 20 45 34 47 35 96 24 28 -6 53 -15 57 -20 10 -17 44 -10 44 10
0 19 -52 51 -83 51 -30 0 -26 16 19 81 25 35 43 71 41 79 -2 9 2 21 10 28 15
15 17 75 3 103 -17 31 -54 23 -106 -23z"/>
<path d="M8640 9616 c-20 -8 -55 -17 -78 -21 -48 -8 -61 -21 -40 -41 12 -12
23 -11 81 5 60 16 66 17 55 2 -23 -31 -108 -112 -109 -104 -5 52 -24 93 -44
93 -21 0 -25 -14 -14 -46 5 -16 20 -100 33 -186 l22 -158 -330 -2 -331 -2 345
-6 c190 -3 1918 -3 3840 0 l3495 5 -3485 5 c-1993 3 -3471 9 -3453 14 37 10
116 73 107 87 -3 5 1 9 9 9 15 0 49 34 66 68 27 52 -22 90 -130 99 l-70 6 45
46 c25 26 46 52 46 58 0 6 9 13 21 16 16 4 20 12 17 34 -2 23 -8 28 -33 30
-16 1 -46 -4 -65 -11z m20 -221 c72 -5 110 -17 110 -36 0 -13 -76 -95 -111
-120 -28 -20 -32 -19 -78 8 -2 2 -9 41 -16 87 -10 79 -10 84 6 75 10 -5 50
-11 89 -14z"/>
<path d="M13174 9606 c-7 -19 12 -46 32 -46 17 0 19 -17 3 -22 -9 -3 -9 -9 0
-25 18 -35 14 -40 -40 -46 -58 -7 -91 -31 -87 -61 4 -28 35 -33 43 -8 4 16 17
21 56 24 l50 3 -5 -75 c-5 -80 5 -110 30 -89 9 7 14 33 14 73 0 74 9 89 49 88
17 0 31 3 31 8 0 5 7 7 16 3 12 -4 15 -2 12 8 -3 8 -27 18 -56 23 -50 8 -51
10 -68 57 -10 27 -21 49 -25 49 -4 0 -9 10 -11 22 -4 27 -35 36 -44 14z"/>
<path d="M10503 9468 c-77 -84 -69 -160 21 -197 42 -17 58 -20 80 -11 33 12
30 34 -5 38 -37 5 -82 24 -101 43 -20 20 -19 20 48 34 59 12 77 58 42 103 -16
20 -63 14 -85 -10z m42 -45 c-28 -20 -41 -16 -20 7 10 11 22 17 28 13 6 -4 3
-12 -8 -20z"/>
<path d="M13561 9466 c-15 -16 -21 -33 -19 -52 3 -25 7 -29 34 -29 17 0 38 -8
48 -17 10 -10 24 -19 32 -19 45 -4 49 -3 49 16 0 12 -9 21 -25 25 -20 5 -26
13 -28 40 -5 60 -52 78 -91 36z"/>
<path d="M10302 9467 c-5 -7 -12 -28 -16 -47 -11 -59 -19 -66 -54 -41 -17 12
-36 35 -44 51 -13 30 -33 44 -48 35 -12 -7 0 -45 23 -79 24 -34 104 -87 122
-80 14 6 35 47 35 71 0 9 7 24 15 33 16 18 10 56 -10 64 -8 3 -18 -1 -23 -7z"/>
<path d="M9250 9463 c-25 -10 -64 -43 -77 -66 -35 -63 2 -99 102 -100 69 -1
81 4 72 28 -5 11 -20 15 -60 14 -30 -1 -62 3 -71 8 -16 9 -16 11 3 34 14 16
19 18 15 7 -13 -36 86 -9 100 27 8 22 8 21 -10 39 -15 16 -46 19 -74 9z"/>
<path d="M9952 9445 c-19 -41 -14 -89 9 -114 19 -20 29 -23 77 -19 119 10 118
107 -1 143 -67 20 -72 19 -85 -10z m101 -44 c47 -18 30 -51 -28 -51 -31 0 -47
22 -39 54 4 19 10 23 22 17 10 -5 29 -14 45 -20z"/>
<path d="M8960 9447 c-28 -22 -60 -69 -60 -88 0 -13 8 -19 23 -20 17 -1 18 -2
4 -6 -10 -3 -17 -12 -15 -20 5 -28 52 -51 116 -57 58 -5 63 -4 71 17 5 12 7
24 5 26 -2 2 -26 3 -53 2 -71 -2 -101 12 -101 47 0 37 10 46 26 25 11 -16 15
-16 39 -3 36 19 52 54 35 75 -15 18 -69 19 -90 2z"/>
<path d="M10814 9439 c-10 -11 -26 -18 -36 -16 -21 6 -32 -23 -26 -69 4 -35
40 -42 46 -9 4 20 40 65 53 65 9 0 41 -48 43 -66 3 -21 37 -54 56 -54 29 0 30
12 5 42 -14 16 -25 35 -25 41 0 21 -60 87 -79 87 -10 0 -26 -9 -37 -21z"/>
<path d="M12692 9400 c-9 -16 -23 -30 -29 -30 -18 0 -16 -31 3 -58 24 -35 47
-29 42 12 -2 19 0 32 4 30 4 -3 8 0 8 5 0 6 5 11 10 11 6 0 9 -19 7 -45 -4
-52 4 -70 27 -62 22 9 22 114 0 145 -21 31 -52 28 -72 -8z"/>
<path d="M12915 9386 c-9 -14 -15 -39 -13 -58 3 -32 4 -33 50 -32 40 0 48 -3
52 -21 7 -26 44 -75 57 -75 13 0 11 37 -3 63 -6 12 -13 39 -14 61 -5 55 -18
64 -51 40 -44 -32 -53 -36 -53 -24 0 6 8 14 18 17 24 9 33 25 20 40 -17 20
-46 15 -63 -11z"/>
<path d="M12447 9393 c-2 -5 -4 -29 -5 -55 -1 -41 2 -50 24 -65 29 -18 99 -19
121 -1 17 14 13 48 -7 59 -8 5 -39 22 -68 39 -58 33 -59 33 -65 23z m79 -91
c-24 -5 -49 6 -41 18 3 6 16 5 32 -3 21 -9 23 -13 9 -15z"/>
<path d="M9572 8941 c-29 -18 -90 -411 -63 -411 6 0 10 -6 9 -12 -2 -7 3 -13
11 -13 11 0 15 19 17 80 2 70 45 312 59 335 8 12 -19 30 -33 21z"/>
<path d="M8965 8787 c-30 -23 -9 -39 40 -31 39 5 47 3 69 -21 26 -28 46 -26
46 5 0 48 -108 80 -155 47z"/>
<path d="M8909 8752 c-72 -50 -90 -90 -49 -112 21 -11 79 -10 86 1 6 10 84
-22 84 -33 0 -38 -52 -68 -120 -68 -44 0 -73 -20 -68 -46 4 -24 34 -30 54 -10
8 9 30 16 47 16 74 0 147 72 127 124 -13 35 -60 56 -126 56 l-56 0 23 25 c13
13 30 25 37 25 16 0 15 15 -1 28 -10 9 -20 7 -38 -6z"/>
<path d="M9717 8746 c-15 -8 -31 -15 -35 -16 -16 -1 -5 -26 16 -35 16 -7 22
-18 22 -40 0 -79 67 -100 127 -40 27 27 34 41 31 66 -6 60 -100 98 -161 65z
m104 -46 c25 -14 24 -26 -6 -55 -35 -36 -45 -31 -45 20 0 48 11 56 51 35z"/>
<path d="M9240 8715 c0 -8 11 -22 25 -31 27 -18 33 -34 12 -34 -19 0 -57 -72
-57 -109 0 -44 26 -54 77 -31 33 14 44 27 58 64 16 41 16 49 2 83 -15 40 -57
71 -94 72 -14 1 -23 -5 -23 -14z m80 -100 c0 -25 -46 -83 -57 -72 -5 6 44 97
52 97 3 0 5 -11 5 -25z"/>
<path d="M9802 7763 c1054 -2 2782 -2 3840 0 1058 1 195 2 -1917 2 -2112 0
-2977 -1 -1923 -2z"/>
<path d="M9797 7073 c1058 -2 2788 -2 3845 0 1058 1 193 2 -1922 2 -2115 0
-2980 -1 -1923 -2z"/>
<path d="M9797 6383 c1057 -2 2789 -2 3850 0 1060 1 196 2 -1922 2 -2117 0
-2985 -1 -1928 -2z"/>
<path d="M9797 5693 c1058 -2 2788 -2 3845 0 1058 1 193 2 -1922 2 -2115 0
-2980 -1 -1923 -2z"/>
<path d="M9802 5003 c1054 -2 2782 -2 3840 0 1058 1 195 2 -1917 2 -2112 0
-2977 -1 -1923 -2z"/>
<path d="M9802 3613 c1054 -2 2782 -2 3840 0 1058 1 195 2 -1917 2 -2112 0
-2977 -1 -1923 -2z"/>
<path d="M9797 2923 c1058 -2 2788 -2 3845 0 1058 1 193 2 -1922 2 -2115 0
-2980 -1 -1923 -2z"/>
<path d="M9797 2233 c1057 -2 2789 -2 3850 0 1060 1 196 2 -1922 2 -2117 0
-2985 -1 -1928 -2z"/>
<path d="M9797 1543 c1058 -2 2788 -2 3845 0 1058 1 193 2 -1922 2 -2115 0
-2980 -1 -1923 -2z"/>
<path d="M9802 853 c1054 -2 2782 -2 3840 0 1058 1 195 2 -1917 2 -2112 0
-2977 -1 -1923 -2z"/>
</g>
</svg>
