<?xml version="1.0" standalone="no"?>
<!DOCTYPE svg PUBLIC "-//W3C//DTD SVG 20010904//EN"
 "http://www.w3.org/TR/2001/REC-SVG-20010904/DTD/svg10.dtd">
<svg version="1.0" xmlns="http://www.w3.org/2000/svg"
 width="1618.000000pt" height="1214.000000pt" viewBox="0 0 1618.000000 1214.000000"
 preserveAspectRatio="xMidYMid meet">

<g transform="translate(0.000000,1214.000000) scale(0.100000,-0.100000)"
fill="#000000" stroke="none">
<path d="M630 6040 l0 -5190 3310 0 3310 0 0 5190 0 5190 -3310 0 -3310 0 0
-5190z m6610 0 l0 -5180 -3300 0 -3300 0 0 5180 0 5180 3300 0 3300 0 0 -5180z"/>
<path d="M4012 10992 c-12 -2 -20 -8 -17 -13 4 -5 -3 -9 -13 -9 -11 0 -38 -20
-60 -44 -83 -90 -96 -252 -27 -334 37 -45 118 -75 179 -69 126 13 151 25 200
95 57 80 33 120 -91 158 -92 28 -116 26 -111 -8 2 -19 10 -23 38 -24 51 -2
144 -36 148 -55 5 -29 -54 -97 -95 -108 -62 -18 -149 -13 -193 9 -54 28 -75
69 -74 150 1 78 25 133 81 180 38 31 58 34 147 17 18 -4 18 31 -1 41 -23 12
-81 19 -111 14z"/>
<path d="M2769 10955 c-100 -17 -121 -24 -112 -38 4 -7 0 -7 -10 1 -14 12 -24
10 -72 -12 -33 -15 -55 -31 -55 -41 0 -25 24 -28 61 -6 19 11 53 24 76 29 l42
10 16 -51 c16 -50 55 -288 55 -340 0 -22 4 -28 18 -25 14 3 17 14 17 63 -1 88
-14 178 -39 276 l-23 87 61 7 c34 3 74 8 89 9 34 4 39 9 31 30 -7 19 -45 20
-155 1z"/>
<path d="M3170 10919 c-14 -26 -9 -50 41 -171 21 -53 39 -99 39 -103 0 -3 -48
37 -107 90 -60 52 -116 95 -125 95 -34 0 -43 -39 -41 -173 2 -129 12 -171 37
-161 12 4 13 30 9 140 -3 74 -2 134 2 134 16 0 171 -139 200 -179 41 -56 69
-53 73 7 2 32 -8 70 -42 156 -49 122 -52 136 -35 153 6 6 8 16 5 22 -12 18
-45 12 -56 -10z"/>
<path d="M5758 10888 c5 -20 4 -21 -11 -10 -14 12 -19 9 -37 -20 -37 -60 -49
-138 -22 -138 15 0 27 21 40 67 7 22 20 51 30 63 27 33 50 16 92 -71 35 -74
45 -85 67 -71 16 10 -58 164 -89 186 -12 9 -35 16 -49 16 -23 0 -26 -3 -21
-22z"/>
<path d="M2275 10881 c-52 -24 -97 -67 -93 -88 2 -11 22 -20 63 -29 78 -16
139 -39 175 -64 15 -11 33 -20 39 -20 7 0 11 -6 10 -12 -1 -7 1 -25 6 -41 12
-44 -12 -87 -61 -108 -48 -21 -186 -50 -178 -37 3 4 -2 8 -11 8 -9 0 -26 5
-38 12 -33 18 -43 17 -44 -3 -4 -52 125 -74 236 -40 78 24 131 59 109 72 -10
7 -9 9 3 9 21 0 29 20 29 69 0 77 -69 140 -200 183 l-75 25 35 18 c19 10 53
19 75 19 33 1 40 4 40 21 0 28 -66 31 -120 6z m235 -281 c0 -5 -5 -10 -11 -10
-5 0 -7 5 -4 10 3 6 8 10 11 10 2 0 4 -4 4 -10z"/>
<path d="M5443 10855 c-49 -21 -80 -94 -51 -123 18 -18 69 -14 106 8 42 26 49
25 56 -4 6 -24 31 -40 47 -31 10 7 0 96 -12 109 -5 6 -18 5 -34 -2 -20 -9 -25
-9 -25 1 0 12 -41 58 -51 57 -2 -1 -18 -7 -36 -15z m42 -60 c0 -12 -10 -21
-27 -26 -32 -8 -37 5 -11 33 20 22 38 19 38 -7z"/>
<path d="M4421 10805 c-29 -28 -35 -42 -39 -88 -4 -49 -1 -57 25 -87 27 -30
36 -33 99 -37 54 -4 73 -2 82 10 19 22 1 30 -71 32 -50 1 -63 5 -79 26 l-20
24 34 8 c40 9 98 58 98 82 0 24 -46 65 -72 64 -13 0 -38 -15 -57 -34z m79 -25
c0 -10 -31 -36 -52 -43 -25 -9 -23 12 3 39 19 20 49 23 49 4z"/>
<path d="M4663 10806 c-25 -22 -27 -30 -27 -87 1 -52 5 -66 24 -81 18 -14 26
-16 37 -7 11 10 11 15 -2 35 -29 45 -15 112 27 126 16 6 2 38 -16 38 -8 0 -27
-11 -43 -24z"/>
<path d="M4902 10814 c-30 -21 -94 -122 -90 -142 7 -36 34 -21 68 38 43 76 61
75 76 -1 13 -66 20 -79 40 -79 17 0 53 73 54 108 0 29 5 28 40 -8 23 -23 38
-30 68 -30 42 0 66 17 53 38 -5 8 -17 11 -32 7 -29 -7 -76 25 -89 61 -17 43
-54 27 -75 -32 l-13 -38 -15 36 c-8 20 -24 41 -35 47 -26 14 -23 14 -50 -5z"/>
<path d="M3475 10726 c-29 -8 -40 -17 -40 -31 0 -16 6 -19 25 -17 14 2 52 6
85 9 62 5 86 16 70 32 -17 15 -98 19 -140 7z"/>
<path d="M4276 10162 c-13 -26 -29 -65 -35 -87 -14 -49 -27 -72 -38 -62 -4 5
-2 12 6 16 33 21 -71 29 -115 9 -33 -15 -64 -84 -64 -141 1 -55 16 -121 30
-125 5 -2 8 -8 4 -13 -3 -5 4 -22 16 -38 l20 -30 -40 -118 c-44 -126 -47 -158
-15 -158 15 0 21 9 27 43 8 46 42 150 64 193 10 21 18 25 46 21 81 -9 169 41
210 121 36 71 13 132 -73 194 -56 40 -56 37 -9 139 20 45 25 65 17 73 -18 18
-26 13 -51 -37z m-69 -167 c3 -9 -8 -54 -25 -100 -22 -59 -27 -85 -19 -89 7
-2 5 -5 -5 -5 -10 -1 -19 -13 -23 -33 l-7 -32 -19 23 c-11 13 -19 30 -19 38 0
8 -3 12 -7 10 -5 -3 -8 28 -8 68 1 52 6 80 19 99 18 29 41 30 41 3 0 -22 21
-41 35 -32 7 4 10 19 6 36 -4 22 -2 29 10 29 8 0 17 -7 21 -15z m113 -63 c38
-37 45 -53 40 -97 -6 -52 -76 -109 -148 -121 -32 -5 -42 -3 -42 7 0 29 86 249
97 249 7 0 30 -17 53 -38z"/>
<path d="M4653 10110 c-75 -15 -123 -49 -123 -86 0 -23 31 -49 44 -37 3 3 6
16 6 29 0 16 10 26 40 38 50 20 99 21 106 2 8 -21 -21 -71 -62 -104 -44 -36
-40 -54 14 -70 37 -11 102 -70 102 -92 0 -15 -66 -23 -142 -18 -62 5 -73 9
-93 34 -19 24 -26 27 -36 16 -11 -10 -10 -17 3 -40 25 -42 61 -54 157 -55 89
-1 134 12 155 45 16 26 -22 86 -78 125 -33 23 -43 34 -33 40 22 14 46 60 52
100 11 65 -27 90 -112 73z"/>
<path d="M2894 9960 c-11 -11 9 -107 35 -173 19 -48 15 -54 -51 -66 -89 -17
-125 -30 -132 -46 -9 -24 12 -27 77 -11 131 32 133 32 141 -4 3 -18 6 -52 6
-76 0 -37 3 -44 20 -44 26 0 35 53 20 111 -9 33 -9 44 0 47 6 2 16 9 22 16 6
7 24 10 40 8 20 -3 30 1 34 13 10 26 -12 33 -64 19 -26 -6 -50 -9 -54 -5 -9 9
-48 139 -48 161 0 27 -33 63 -46 50z m106 -360 c0 -5 -4 -10 -10 -10 -5 0 -10
5 -10 10 0 6 5 10 10 10 6 0 10 -4 10 -10z"/>
<path d="M1745 9925 c-64 -17 -155 -63 -162 -81 -3 -8 -12 -14 -20 -14 -9 0
-13 -6 -10 -14 4 -10 1 -13 -7 -10 -16 6 -46 -53 -39 -75 4 -9 12 -23 20 -33
18 -20 110 -61 122 -53 5 3 11 2 13 -2 1 -5 26 -19 53 -33 38 -19 55 -36 72
-69 l22 -44 -20 -36 c-26 -48 -73 -78 -136 -90 -57 -11 -118 0 -127 24 -9 25
-36 18 -36 -10 0 -35 51 -65 110 -65 105 1 185 43 229 122 24 42 24 48 12 89
-17 55 -74 111 -138 134 -95 35 -153 64 -153 77 0 8 16 29 35 48 19 18 31 38
28 43 -3 6 -1 7 5 4 5 -4 39 6 74 23 76 36 132 39 157 9 15 -19 18 -19 30 -6
18 22 5 56 -26 68 -31 12 -46 11 -108 -6z"/>
<path d="M2414 9789 c-3 -6 -1 -16 5 -22 9 -9 11 -8 6 6 -4 10 -2 17 4 17 6 0
11 -8 11 -17 0 -12 3 -14 11 -6 13 13 4 33 -16 33 -8 0 -17 -5 -21 -11z"/>
<path d="M3465 9745 c-38 -14 -84 -25 -101 -25 -37 0 -60 -20 -42 -38 19 -19
54 -14 152 19 101 35 118 45 96 59 -20 13 -25 12 -105 -15z"/>
<path d="M2044 9699 c-17 -5 -38 -17 -46 -26 -17 -19 -48 -103 -48 -129 0 -8
-8 -26 -17 -41 -16 -24 -16 -26 4 -42 15 -12 26 -46 42 -126 23 -116 30 -131
55 -122 18 7 22 67 6 83 -5 5 -16 39 -23 76 l-14 67 53 26 c64 31 104 79 111
132 9 67 -55 120 -123 102z m64 -55 c26 -18 27 -26 6 -69 -14 -31 -80 -85
-103 -85 -15 0 -18 51 -5 98 19 67 57 88 102 56z"/>
<path d="M2227 9680 c-34 -27 -49 -78 -35 -127 11 -40 44 -83 64 -83 19 0 37
28 29 47 -5 12 -9 14 -12 6 -8 -21 -33 12 -40 51 -6 41 11 76 38 76 19 0 56
27 48 34 -2 2 -18 7 -35 10 -23 5 -37 2 -57 -14z"/>
<path d="M2588 9653 c-38 -44 -56 -119 -35 -148 20 -26 37 -10 37 33 0 20 9
50 19 66 l20 29 31 -66 c31 -66 42 -75 68 -58 11 6 8 16 -12 46 -14 21 -26 43
-26 50 0 23 -41 65 -64 65 -13 0 -30 -8 -38 -17z"/>
<path d="M2445 9578 c-2 -7 -6 -26 -7 -43 -2 -25 1 -31 20 -33 20 -3 22 1 22
42 0 35 -4 46 -15 46 -9 0 -18 -6 -20 -12z"/>
<path d="M5144 8805 c-10 -24 5 -83 22 -89 14 -5 14 -9 3 -22 -10 -13 -10 -17
2 -25 10 -6 10 -9 1 -9 -9 0 -11 -14 -7 -52 4 -29 7 -118 8 -198 2 -121 5
-151 20 -173 18 -27 41 -35 52 -17 3 5 -1 20 -9 33 -12 17 -17 62 -20 177 -3
101 -9 156 -17 160 -8 6 -8 9 2 13 10 4 8 6 -4 6 -10 1 -15 6 -12 11 4 6 11 8
16 5 5 -4 9 12 9 34 0 22 -5 43 -10 46 -6 4 -10 12 -9 18 8 48 -33 119 -47 82z"/>
<path d="M4190 8743 c0 -21 5 -87 11 -148 20 -193 25 -176 -55 -200 -65 -20
-99 -45 -83 -61 4 -4 39 3 79 15 40 11 77 21 81 21 4 0 7 -29 6 -65 -2 -70 2
-81 26 -72 15 6 21 46 16 120 -1 20 1 37 6 38 22 2 51 7 86 14 l38 7 -21 -35
c-12 -20 -20 -48 -18 -64 2 -23 8 -29 35 -31 38 -4 108 30 124 59 14 26 6 56
-25 93 l-24 29 -84 -12 c-46 -6 -93 -14 -104 -17 -19 -5 -22 0 -29 43 -4 26
-9 68 -10 93 -11 177 -16 210 -36 210 -15 0 -19 -7 -19 -37z m290 -379 c0 -8
-2 -14 -4 -14 -2 0 -20 -7 -40 -15 l-37 -16 12 23 c22 43 41 59 56 47 7 -6 13
-18 13 -25z"/>
<path d="M3165 8670 c-6 -9 7 -54 47 -169 10 -30 17 -56 15 -58 -3 -2 -25 -4
-51 -5 -32 0 -49 -6 -56 -17 -8 -14 -9 -14 -10 2 0 20 -20 23 -38 5 -19 -19 4
-38 36 -29 15 4 50 5 79 3 50 -4 53 -5 64 -40 7 -21 14 -66 15 -102 1 -56 4
-65 20 -65 16 0 20 9 22 55 2 30 -2 74 -8 98 -15 59 -6 80 36 88 24 4 34 12
34 25 0 20 -36 25 -75 10 -26 -10 -47 23 -64 104 -7 33 -17 70 -22 83 -9 23
-33 30 -44 12z"/>
<path d="M2023 8629 c-48 -23 -90 -68 -99 -104 -9 -37 23 -91 74 -125 25 -16
51 -30 57 -30 7 0 33 -12 59 -26 39 -22 47 -23 52 -10 9 24 -4 36 -75 68 -141
63 -160 132 -51 189 40 20 104 27 119 12 16 -18 30 -16 38 3 17 45 -100 60
-174 23z"/>
<path d="M2434 8584 c-4 -14 -2 -42 4 -62 26 -85 26 -82 -6 -82 -48 0 -165
-39 -184 -62 -14 -15 -15 -24 -7 -40 12 -22 45 -20 41 3 -2 17 65 43 144 55
41 6 42 6 55 -32 7 -22 14 -46 15 -54 11 -66 28 -130 36 -130 5 0 6 -5 2 -11
-4 -7 -1 -10 7 -7 8 2 15 17 17 32 4 30 -24 157 -40 189 -9 18 -5 19 54 16 71
-4 96 5 77 27 -8 9 -33 14 -75 14 -61 0 -65 1 -75 28 -6 15 -13 43 -16 62 -9
66 -13 80 -28 80 -8 0 -18 -12 -21 -26z"/>
<path d="M5962 8558 c-22 -28 -42 -79 -42 -106 0 -21 -6 -31 -20 -35 -24 -6
-26 -31 -5 -81 27 -65 45 -43 64 84 12 72 31 110 57 110 20 0 28 21 13 31 -20
13 -55 11 -67 -3z"/>
<path d="M5405 8530 c-3 -5 -3 -14 0 -20 3 -5 2 -10 -4 -10 -5 0 -11 5 -13 11
-7 22 -77 -51 -88 -93 -24 -86 9 -129 103 -139 64 -6 107 8 107 36 0 15 -48
26 -56 14 -6 -11 -84 -12 -84 -1 0 4 21 18 47 32 107 56 151 129 101 164 -25
18 -103 22 -113 6z m80 -55 c0 -11 -15 -29 -35 -43 -19 -13 -34 -28 -32 -34 1
-5 -2 -7 -7 -3 -6 3 -24 -1 -41 -10 -30 -15 -30 -15 -30 11 0 15 12 37 29 54
16 16 26 32 22 36 -3 4 -1 5 4 2 6 -3 19 -2 30 3 33 13 60 6 60 -16z"/>
<path d="M5665 8478 c-39 -21 -75 -62 -75 -85 0 -13 9 -32 21 -44 20 -20 39
-22 88 -8 9 2 16 -4 18 -16 11 -58 52 -97 79 -74 13 10 12 15 -4 33 -27 30
-52 84 -40 88 14 5 -2 58 -17 58 -7 0 -12 7 -11 16 2 25 -35 45 -59 32z m45
-58 c0 -16 -31 -40 -51 -40 -25 0 -24 25 2 44 21 14 49 12 49 -4z"/>
<path d="M6176 8460 c-14 -17 -26 -36 -26 -42 0 -6 -9 -3 -21 8 -17 16 -22 16
-29 4 -13 -21 -12 -32 6 -68 21 -43 37 -40 68 13 25 42 27 44 44 27 10 -10 14
-20 9 -23 -16 -11 40 -59 67 -59 13 0 32 7 40 16 18 17 21 28 6 19 -5 -3 -10
-1 -10 4 0 6 -12 11 -26 11 -24 0 -58 22 -49 32 9 8 -24 83 -38 86 -8 2 -26
-11 -41 -28z"/>
<path d="M2745 8410 c-3 -5 -16 -10 -29 -10 -28 0 -86 -59 -86 -88 0 -30 38
-38 107 -23 63 15 69 11 107 -54 29 -49 47 -59 73 -40 16 12 16 17 4 36 -11
19 -11 23 3 31 9 5 16 18 16 29 0 37 19 59 50 59 25 0 30 4 29 23 0 12 -3 16
-6 10 -3 -10 -8 -9 -20 2 -20 21 -28 19 -65 -14 -26 -23 -32 -36 -32 -70 -1
-22 -4 -41 -7 -41 -4 0 -17 15 -30 34 -41 60 -50 62 -164 29 -19 -5 -19 -5 -2
14 21 24 84 44 113 37 26 -7 40 12 24 31 -14 17 -76 20 -85 5z"/>
<path d="M2184 8326 c-4 -10 -3 -31 3 -45 7 -20 6 -30 -5 -40 -21 -20 -99 -41
-179 -48 -58 -5 -77 -3 -98 11 -14 9 -30 14 -35 11 -18 -11 -11 -34 15 -51 20
-13 41 -15 108 -11 99 6 129 12 186 38 35 15 42 23 38 39 -3 11 -1 20 4 20 16
0 9 47 -10 71 -18 23 -20 23 -27 5z"/>
<path d="M2687 7663 c-9 -2 -15 -9 -12 -14 3 -5 -1 -6 -9 -3 -9 3 -16 1 -16
-5 0 -6 -7 -11 -15 -11 -25 0 -93 -69 -106 -107 -14 -44 -6 -150 16 -215 21
-61 85 -133 131 -148 91 -30 230 34 263 122 12 32 -2 84 -28 97 -53 29 -181
19 -181 -14 0 -22 11 -24 77 -16 67 8 93 -2 93 -36 0 -29 -36 -70 -81 -93
-138 -71 -249 28 -251 226 -1 77 14 104 86 148 37 23 59 30 97 29 41 -1 49 2
49 17 0 10 -7 21 -16 24 -17 7 -69 6 -97 -1z"/>
<path d="M4234 7508 c-12 -5 -27 -20 -34 -33 -8 -14 -18 -21 -27 -18 -24 9
-31 -16 -19 -66 15 -56 46 -65 57 -16 17 78 46 109 91 97 27 -7 88 -79 95
-112 7 -39 43 -43 43 -5 0 38 -23 76 -74 123 -48 44 -86 53 -132 30z"/>
<path d="M3295 7481 c-66 -28 -70 -117 -7 -175 26 -23 42 -13 42 25 0 19 -5
29 -15 29 -22 0 -39 48 -24 66 6 8 17 14 25 14 15 0 36 34 27 44 -8 8 -23 7
-48 -3z"/>
<path d="M3041 7454 c-25 -20 -31 -34 -31 -63 0 -72 71 -139 147 -141 44 0 63
9 63 31 0 22 -11 24 -28 7 -9 -9 -12 -9 -12 0 0 7 -13 12 -29 12 -58 0 -63 8
-31 48 44 56 44 94 0 117 -39 20 -43 19 -79 -11z m63 -33 c8 -12 -33 -63 -45
-56 -13 9 -11 39 3 53 14 14 35 16 42 3z"/>
<path d="M3463 7465 c-50 -35 -68 -165 -23 -165 17 0 20 7 20 40 0 40 17 90
31 90 10 0 16 -22 24 -85 3 -27 8 -51 10 -53 12 -12 38 13 57 55 13 26 24 50
25 52 2 2 11 -3 21 -12 22 -20 43 -22 60 -5 9 9 15 9 24 0 15 -15 45 -16 53
-2 9 15 -36 60 -60 60 -12 0 -27 -6 -34 -12 -11 -10 -14 -10 -18 -1 -3 7 -13
23 -23 35 -15 20 -20 21 -35 8 -9 -7 -22 -27 -30 -44 -7 -17 -14 -24 -14 -15
-1 21 -39 69 -55 69 -6 0 -21 -7 -33 -15z"/>
<path d="M3880 7462 c-18 -14 -21 -25 -16 -45 7 -31 40 -43 78 -28 25 9 27 7
42 -30 13 -31 21 -39 41 -39 31 0 31 10 0 60 -14 22 -22 40 -19 40 4 0 1 7 -6
15 -7 8 -19 15 -27 15 -8 0 -21 7 -29 15 -20 20 -37 19 -64 -3z"/>
<path d="M5507 6713 c-3 -4 10 -69 29 -143 18 -74 34 -138 34 -142 0 -5 -28
-8 -62 -8 -69 0 -94 -10 -85 -33 5 -12 20 -14 85 -10 l80 6 7 -56 c5 -35 3
-69 -5 -92 -16 -47 -2 -63 29 -34 21 20 23 29 19 101 -3 76 -2 79 17 74 30 -8
80 8 80 25 0 10 -17 15 -60 19 l-60 5 -25 105 c-14 58 -30 123 -35 145 -9 37
-36 58 -48 38z m63 -143 c0 -5 -2 -10 -4 -10 -3 0 -8 5 -11 10 -3 6 -1 10 4
10 6 0 11 -4 11 -10z"/>
<path d="M4055 6545 c-44 -13 -93 -24 -108 -24 -30 -1 -48 -28 -28 -41 14 -8
63 0 174 29 89 23 97 27 97 47 0 20 -40 17 -135 -11z"/>
<path d="M5060 6486 c0 -29 26 -54 41 -39 6 6 7 22 3 37 -8 34 -44 37 -44 2z"/>
<path d="M3852 6480 c-13 -6 -43 -24 -67 -40 -46 -32 -56 -58 -31 -79 19 -16
106 -41 106 -31 0 5 16 -6 36 -24 22 -20 35 -40 33 -51 -3 -15 -85 -74 -104
-75 -3 0 -21 0 -40 0 -34 0 -57 -21 -41 -38 13 -13 85 -3 136 19 65 28 104 72
95 108 -11 43 -55 80 -115 97 -30 9 -59 20 -63 24 -5 4 10 17 32 28 l41 22 0
-26 c0 -35 31 -28 44 9 17 48 -13 76 -62 57z"/>
<path d="M5886 6440 c-51 -20 -96 -55 -96 -75 0 -27 40 -45 129 -59 51 -9 107
-24 124 -35 l30 -19 -53 -16 c-30 -9 -71 -16 -92 -16 -21 0 -38 -4 -38 -9 0
-4 -19 -5 -42 -1 -49 9 -70 3 -66 -19 3 -14 18 -16 103 -15 55 1 119 6 141 13
51 14 94 46 94 71 0 22 -72 67 -121 75 -97 16 -149 28 -149 35 0 11 98 51 118
48 11 -2 17 4 17 17 0 27 -37 29 -99 5z"/>
<path d="M5239 6356 c-59 -29 -64 -183 -6 -160 15 5 17 14 12 45 -15 91 33
108 74 27 23 -48 44 -61 55 -33 7 19 -1 42 -30 81 -30 40 -73 57 -105 40z"/>
<path d="M4692 6345 c-38 -21 -82 -67 -105 -110 -18 -34 -22 -61 -25 -171 -4
-140 3 -174 38 -174 46 0 66 125 36 223 l-14 47 36 0 c79 0 162 70 162 138 0
54 -69 80 -128 47z m84 -40 c15 -37 -50 -93 -117 -102 -40 -6 -41 -5 -34 18 4
13 8 24 9 25 0 1 23 18 49 38 51 38 84 46 93 21z m-169 -317 c-2 -13 -4 -3 -4
22 0 25 2 35 4 23 2 -13 2 -33 0 -45z"/>
<path d="M4864 6316 c-15 -12 -17 -18 -8 -33 7 -12 8 -27 2 -43 -12 -32 -1
-78 22 -90 28 -15 57 -12 98 9 78 40 74 107 -8 149 -51 26 -79 28 -106 8z m97
-53 c35 -21 34 -38 -3 -66 -47 -35 -72 -5 -48 57 11 31 13 31 51 9z"/>
<path d="M5087 6303 c-3 -5 -2 -37 2 -73 5 -58 9 -65 29 -68 21 -3 29 12 22
43 -1 6 -4 26 -7 45 -7 47 -32 76 -46 53z"/>
<path d="M9802 11223 c1054 -2 2782 -2 3840 0 1058 1 195 2 -1917 2 -2112 0
-2977 -1 -1923 -2z"/>
<path d="M11748 11135 c-3 -4 -4 -32 -1 -63 4 -37 -2 -97 -16 -168 -24 -127
-26 -165 -9 -182 23 -23 41 -14 34 18 -3 17 1 67 10 111 8 45 13 88 10 96 -3
8 -2 12 3 9 12 -8 21 91 13 139 -7 37 -28 56 -44 40z"/>
<path d="M10726 11061 c-13 -24 -13 -31 -2 -40 7 -6 15 -8 18 -5 4 3 8 -19 10
-49 1 -30 0 -53 -4 -50 -5 2 -8 -8 -8 -24 0 -40 -8 -47 -75 -69 -41 -13 -61
-25 -63 -38 -6 -29 14 -42 36 -23 10 9 33 20 52 23 l33 7 -7 -36 c-10 -55 2
-107 25 -107 17 0 19 8 19 63 0 34 4 68 9 76 5 8 32 16 65 19 l55 4 -12 -31
c-17 -45 6 -83 57 -96 51 -12 90 8 94 51 2 25 -4 37 -31 61 -18 16 -37 37 -40
47 -7 17 -16 18 -93 12 l-86 -7 5 33 c17 91 18 138 7 172 -15 45 -43 48 -64 7z
m254 -306 c18 -21 4 -29 -42 -26 -18 1 -26 40 -12 54 8 8 36 -7 54 -28z"/>
<path d="M9522 11038 c-9 -12 -7 -27 12 -74 42 -106 43 -101 -11 -108 -74 -11
-121 -27 -128 -44 -10 -28 11 -35 57 -19 23 9 61 19 82 22 l39 6 -5 -90 c-5
-83 -4 -91 13 -91 25 0 29 11 32 74 2 36 -1 53 -7 49 -6 -3 -5 0 2 8 6 7 12
21 12 31 0 15 9 18 59 18 101 0 95 38 -7 47 -50 5 -62 9 -67 27 -4 11 -7 24
-6 29 1 4 -3 7 -8 7 -5 0 -11 17 -15 39 -3 21 -14 49 -24 61 -15 19 -20 20
-30 8z"/>
<path d="M8431 11027 c-63 -32 -53 -80 30 -144 67 -53 79 -80 56 -129 -12 -25
-26 -36 -57 -45 -37 -11 -43 -10 -71 10 -32 24 -49 21 -49 -8 0 -67 161 -65
205 2 49 75 35 135 -45 193 -67 48 -79 71 -45 84 48 18 105 5 105 -24 0 -15
24 -28 34 -19 15 15 4 53 -20 72 -31 24 -104 28 -143 8z"/>
<path d="M8822 10937 c-6 -6 -13 -24 -16 -40 -3 -15 -8 -38 -11 -52 -5 -24 -9
-25 -76 -25 -54 0 -71 -4 -76 -16 -9 -24 9 -33 52 -25 22 4 53 4 69 1 26 -4
31 -12 48 -75 11 -38 22 -76 24 -82 5 -18 31 -16 38 2 3 8 -3 43 -14 78 -11
34 -20 65 -20 69 0 4 15 8 33 10 20 2 32 8 32 18 0 15 -4 16 -46 19 -23 1 -23
17 -3 104 5 20 3 27 -9 27 -8 0 -19 -6 -25 -13z"/>
<path d="M11920 10889 c-64 -37 -91 -97 -60 -134 18 -22 81 -36 150 -33 48 2
60 5 58 18 -3 11 -25 18 -88 25 -81 10 -85 11 -85 35 0 19 9 30 43 48 23 13
48 20 54 16 6 -4 -8 -14 -33 -23 -32 -12 -45 -23 -47 -39 -4 -27 4 -27 70 -1
76 30 81 35 62 70 -8 16 -19 27 -24 24 -6 -4 -10 -1 -10 4 0 18 -53 12 -90
-10z"/>
<path d="M12517 10897 c-12 -8 -23 -38 -31 -81 -11 -58 -11 -70 1 -82 12 -11
18 -12 29 -3 19 15 18 28 -3 52 -17 19 -17 20 0 14 13 -5 17 -1 17 16 0 29 11
44 35 48 12 3 20 12 20 24 0 25 -41 32 -68 12z"/>
<path d="M12198 10849 c-44 -23 -59 -60 -33 -85 13 -13 27 -15 73 -10 56 6 57
5 74 -24 14 -25 24 -30 53 -30 23 0 38 5 42 16 7 18 -14 35 -34 27 -13 -5 -17
1 -27 50 -6 27 -32 36 -51 18 -16 -14 -59 -21 -75 -11 -11 7 -9 11 13 19 29
11 34 23 15 39 -9 7 -24 4 -50 -9z"/>
<path d="M12673 10830 c-27 -11 -83 -86 -83 -112 0 -31 27 -20 57 25 23 33 36
43 62 45 41 4 52 -6 71 -66 11 -34 21 -48 36 -50 26 -4 38 22 18 38 -8 7 -14
23 -14 36 0 58 -89 109 -147 84z"/>
<path d="M9001 10795 c-45 -41 -56 -69 -34 -90 18 -19 34 -19 103 -1 37 10 56
11 59 4 6 -16 40 -48 51 -48 19 0 23 30 6 49 -9 10 -16 25 -16 35 0 9 -6 19
-14 22 -19 7 -102 -21 -87 -30 6 -4 11 -12 11 -18 0 -6 -8 -4 -18 5 -10 10
-27 17 -38 17 -15 1 -11 8 20 34 22 19 36 38 32 45 -12 19 -35 12 -75 -24z"/>
<path d="M9262 10810 c-49 -12 -75 -39 -68 -72 7 -36 35 -78 52 -78 22 0 27
20 10 45 -30 46 -20 59 54 67 17 2 25 9 25 23 0 23 -22 28 -73 15z"/>
<path d="M9797 10533 c1057 -2 2789 -2 3850 0 1060 1 196 2 -1922 2 -2117 0
-2985 -1 -1928 -2z"/>
<path d="M10683 10416 c-93 -30 -180 -111 -208 -197 -19 -56 -23 -191 -6 -197
6 -2 11 -12 11 -23 0 -11 17 -30 42 -46 36 -24 51 -28 112 -28 116 1 246 65
246 121 0 38 -39 56 -130 59 -97 4 -120 -1 -120 -26 0 -17 9 -19 94 -19 135 0
140 -24 17 -72 -106 -40 -205 -22 -232 44 -7 17 -10 56 -7 98 3 43 1 73 -6 81
-8 9 -7 11 5 6 11 -4 23 6 37 32 27 48 89 103 135 119 43 16 52 12 62 -25 10
-45 53 -103 75 -103 36 0 53 81 28 135 -13 30 -56 55 -90 54 -13 0 -42 -6 -65
-13z m117 -61 c0 -7 3 -20 6 -29 3 -9 2 -16 -4 -16 -6 0 -15 14 -21 31 -14 40
-14 39 4 33 8 -4 15 -12 15 -19z"/>
<path d="M8413 10348 c-24 -5 -43 -13 -43 -19 0 -5 -10 -9 -21 -9 -30 0 -108
-80 -115 -119 -5 -23 -9 -29 -15 -19 -6 10 -11 10 -20 1 -8 -8 -8 -22 4 -55 9
-23 15 -57 15 -73 -2 -52 11 -87 30 -83 14 3 17 17 18 94 2 132 24 185 92 215
17 7 32 16 32 19 0 3 25 6 56 8 53 3 55 2 45 -17 -6 -11 -24 -29 -41 -41 -16
-12 -30 -28 -30 -36 0 -8 -4 -13 -9 -9 -15 9 -61 -17 -61 -34 0 -12 23 -23 83
-39 45 -13 90 -25 100 -26 10 -1 30 -19 44 -39 21 -30 24 -39 14 -51 -27 -33
-165 -44 -253 -21 -24 6 -28 4 -28 -14 0 -32 42 -43 150 -39 70 2 106 8 135
23 38 19 40 22 39 64 -1 37 -7 50 -36 76 -20 19 -64 42 -102 55 l-68 22 28 19
c68 44 103 111 72 137 -21 16 -70 21 -115 10z"/>
<path d="M9243 10203 c-24 -9 -13 -38 18 -52 22 -9 34 -10 41 -3 19 19 -32 65
-59 55z"/>
<path d="M12079 10167 c-42 -19 -109 -80 -109 -99 0 -33 21 -29 71 16 63 56
90 59 107 12 19 -51 50 -86 78 -86 29 0 32 25 6 39 -10 5 -27 29 -37 53 -34
78 -58 92 -116 65z"/>
<path d="M11085 10134 c-41 -21 -71 -51 -85 -84 -23 -55 20 -90 126 -105 42
-5 52 -4 57 10 6 15 -25 35 -56 35 -7 0 -29 5 -49 11 -27 7 -38 15 -38 29 0
22 58 70 84 70 28 0 13 -24 -22 -36 -43 -14 -59 -31 -45 -45 26 -26 133 25
133 63 0 29 -9 42 -37 57 -28 14 -32 14 -68 -5z"/>
<path d="M11291 10131 c-20 -20 -25 -43 -21 -106 2 -48 10 -66 28 -63 14 3 16
14 14 61 -4 62 7 87 40 87 13 0 18 6 16 18 -5 26 -53 27 -77 3z"/>
<path d="M11590 10099 l-45 -41 -3 30 c-5 44 -29 48 -63 10 -21 -21 -29 -39
-27 -57 3 -23 8 -26 48 -28 33 -1 55 5 83 23 36 24 40 24 51 8 8 -10 20 -15
30 -11 16 7 22 38 9 51 -5 4 -8 17 -8 29 0 35 -27 29 -75 -14z"/>
<path d="M11771 10104 c-30 -25 -40 -57 -22 -69 5 -3 28 1 49 8 l40 14 6 -28
c4 -23 11 -29 32 -29 21 0 25 3 18 18 -4 9 -8 35 -8 56 -1 29 -6 41 -21 47
-36 14 -63 9 -94 -17z"/>
<path d="M8930 10100 c-23 -23 -26 -53 -7 -68 6 -6 38 -17 70 -25 33 -9 61
-18 63 -20 7 -6 -77 -26 -101 -24 -14 1 -21 -5 -23 -20 -3 -20 1 -23 33 -23
20 0 61 7 90 16 98 28 81 78 -38 111 -49 14 -56 19 -43 29 9 6 16 19 16 28 0
23 -36 20 -60 -4z"/>
<path d="M9517 10090 c-79 -45 -99 -66 -95 -103 4 -41 40 -59 125 -65 65 -4
93 8 93 42 0 18 -50 22 -66 6 -12 -12 -114 6 -114 19 0 13 44 48 88 71 42 22
54 43 29 53 -7 2 -34 -8 -60 -23z"/>
<path d="M8712 10041 c-18 -16 -32 -38 -32 -49 0 -26 28 -55 47 -48 50 20 59
17 75 -18 18 -36 53 -55 70 -38 7 7 4 18 -11 33 -11 12 -24 38 -27 56 -3 18
-11 37 -18 41 -6 4 -16 16 -22 27 -17 31 -47 29 -82 -4z m38 -41 c-8 -5 -17
-7 -19 -4 -3 3 1 9 9 14 8 5 17 7 19 4 3 -3 -1 -9 -9 -14z"/>
<path d="M9225 10060 c-3 -5 -9 -33 -12 -61 -5 -43 -3 -54 12 -65 13 -9 23
-10 36 -3 23 12 24 23 4 43 -11 11 -13 21 -5 40 5 14 7 33 4 41 -7 17 -30 20
-39 5z"/>
<path d="M12558 9948 c-3 -7 2 -24 9 -39 7 -15 10 -34 7 -43 -6 -15 -201 -16
-2353 -18 l-2346 -3 2340 -5 c1287 -3 2332 -8 2323 -12 -10 -4 -18 -14 -18
-23 0 -24 44 -18 70 10 l23 25 1481 2 1481 3 -1477 2 -1478 3 0 29 c0 46 -17
81 -39 81 -11 0 -21 -5 -23 -12z"/>
<path d="M11338 9740 c-50 -15 -110 -55 -124 -82 -12 -24 -12 -32 0 -61 12
-30 27 -39 162 -97 82 -35 153 -67 158 -72 6 -4 16 -8 23 -8 18 0 73 -50 73
-67 0 -9 -19 -13 -72 -15 -40 0 -80 0 -88 1 -8 1 -51 7 -94 12 -44 6 -95 17
-114 25 -50 20 -68 2 -30 -31 20 -17 45 -25 92 -30 35 -4 69 -4 75 0 6 3 11 2
11 -3 0 -13 181 -23 196 -12 6 6 13 7 17 4 10 -11 57 28 57 48 0 11 -17 38
-39 59 -39 40 -61 49 -62 27 0 -7 -4 -4 -9 8 -6 15 -49 38 -147 79 -154 65
-184 85 -167 113 17 27 86 62 124 62 41 0 53 -7 69 -37 13 -26 39 -30 47 -9 8
22 -26 67 -63 82 -36 15 -55 16 -95 4z"/>
<path d="M11870 9671 c0 -10 6 -34 14 -53 8 -19 18 -57 22 -85 l6 -51 -63 1
c-62 2 -64 1 -64 -23 0 -24 2 -25 63 -21 l63 3 -7 -28 c-4 -16 -11 -39 -15
-52 -13 -34 -11 -52 6 -52 20 0 42 37 50 88 l7 42 44 0 44 0 -6 -38 c-10 -63
38 -90 110 -62 34 13 34 43 -1 85 -16 17 -32 39 -38 48 -8 14 -20 15 -75 8
-36 -5 -67 -7 -69 -5 -2 2 -8 27 -12 56 -13 87 -41 158 -61 158 -11 0 -18 -7
-18 -19z m239 -275 c9 -10 9 -16 1 -21 -17 -11 -40 3 -34 20 8 19 18 19 33 1z"/>
<path d="M8989 9654 c-63 -19 -128 -79 -139 -126 -4 -22 -4 -38 1 -38 5 0 9
-5 9 -11 0 -5 -4 -7 -10 -4 -6 4 -10 -26 -10 -82 0 -88 24 -173 49 -173 16 0
31 36 31 75 0 33 2 35 15 21 9 -8 29 -23 46 -33 17 -10 40 -35 50 -55 21 -41
49 -51 49 -18 0 33 -27 77 -62 101 -54 36 -88 72 -88 90 0 11 28 31 81 59 166
86 213 171 111 200 -48 13 -77 12 -133 -6z m138 -50 c6 -18 -53 -65 -130 -103
-73 -36 -76 -37 -79 -17 -2 12 -9 20 -16 19 -37 -8 11 68 59 92 59 31 157 37
166 9z m-217 -144 c0 -5 -5 -10 -11 -10 -5 0 -7 5 -4 10 3 6 8 10 11 10 2 0 4
-4 4 -10z"/>
<path d="M10128 9633 c0 -15 0 -65 2 -110 3 -92 5 -89 -73 -97 -26 -2 -54 -10
-62 -16 -28 -23 -4 -33 65 -27 l68 6 -5 -42 c-3 -23 -10 -48 -15 -54 -13 -16
-3 -43 15 -43 25 0 37 25 43 87 l7 61 45 6 c24 3 50 6 57 6 13 0 40 -123 40
-184 0 -47 20 -58 36 -22 10 21 9 45 -3 114 -9 50 -12 89 -7 93 5 3 30 6 56 8
26 1 50 4 55 7 4 3 -1 -14 -11 -37 -13 -27 -16 -50 -12 -63 9 -24 58 -46 69
-31 4 6 21 11 38 12 27 2 34 -2 44 -28 15 -36 58 -60 117 -65 37 -4 43 -2 43
15 0 14 -10 20 -41 25 -23 4 -51 17 -65 31 -21 21 -24 33 -22 72 4 57 -18 69
-44 24 -12 -21 -27 -32 -53 -37 -20 -3 -38 -4 -41 -1 -9 9 15 47 48 76 51 46
33 55 -93 47 -81 -5 -109 -4 -115 6 -4 7 -8 37 -9 68 -1 61 -20 75 -41 30 -39
-87 -51 -105 -66 -108 -18 -4 -28 39 -31 138 -2 43 -6 55 -19 58 -14 3 -18 -4
-20 -25z"/>
<path d="M12544 9495 c-13 -13 -24 -31 -24 -40 0 -18 -5 -19 -30 -5 -14 7 -19
5 -23 -10 -6 -23 9 -37 43 -42 18 -2 31 -15 48 -51 22 -48 69 -81 99 -70 23 9
14 34 -16 44 -17 6 -34 22 -41 40 -14 33 -15 31 25 45 56 18 40 80 -27 103
-26 9 -33 7 -54 -14z m50 -31 c22 -8 20 -24 -3 -24 -10 0 -21 7 -25 15 -6 16
3 19 28 9z"/>
<path d="M12285 9478 c-11 -6 -23 -16 -27 -22 -5 -8 -8 -7 -8 2 0 6 -9 12 -20
12 -19 0 -20 -5 -18 -57 2 -46 7 -58 20 -61 12 -2 22 6 29 25 27 71 69 84 69
21 0 -51 12 -73 34 -65 29 11 16 128 -17 149 -17 11 -39 9 -62 -4z"/>
<path d="M9485 9442 c-81 -40 -95 -75 -49 -117 l27 -25 -29 -1 c-64 -1 -80 -9
-70 -35 5 -14 15 -15 59 -10 103 14 164 43 141 66 -6 6 -34 18 -64 28 l-53 18
33 24 c18 13 43 24 54 25 24 2 35 39 14 48 -8 2 -36 -7 -63 -21z"/>
<path d="M9726 9387 c-13 -13 -28 -21 -34 -19 -19 6 -27 -29 -10 -42 8 -6 22
-25 31 -42 20 -38 69 -59 99 -43 15 8 17 13 7 25 -6 8 -19 14 -28 14 -9 0 -23
6 -29 12 -10 10 -6 15 20 24 18 6 35 19 36 28 4 20 -26 58 -39 50 -5 -3 -9 0
-9 5 0 18 -19 12 -44 -12z m91 -133 c-3 -3 -12 -4 -19 -1 -8 3 -5 6 6 6 11 1
17 -2 13 -5z"/>
<path d="M9167 9343 c-25 -13 -27 -18 -21 -51 9 -53 20 -62 75 -62 107 0 139
62 45 86 -16 4 -31 15 -33 25 -6 22 -27 23 -66 2z m83 -69 c0 -2 -11 -4 -25
-4 -14 0 -25 4 -25 9 0 4 11 6 25 3 14 -2 25 -6 25 -8z"/>
<path d="M9802 9153 c1054 -2 2782 -2 3840 0 1058 1 195 2 -1917 2 -2112 0
-2977 -1 -1923 -2z"/>
<path d="M8620 8965 c0 -8 20 -67 45 -131 56 -143 63 -185 41 -219 -20 -30
-35 -31 -70 -4 -32 26 -33 46 -1 89 26 36 25 50 -5 50 -26 0 -74 -82 -66 -114
8 -34 71 -86 104 -86 37 0 71 26 88 66 18 42 15 55 -48 227 -40 109 -55 137
-69 137 -11 0 -19 -7 -19 -15z"/>
<path d="M10212 8958 c-5 -7 -12 -35 -15 -63 -3 -27 -8 -59 -11 -70 -2 -11 -9
-42 -16 -70 -19 -83 10 -174 46 -144 10 8 11 16 3 30 -13 25 -14 74 -1 126 5
23 7 54 4 69 -3 17 -1 25 5 21 12 -7 28 87 18 103 -8 14 -21 12 -33 -2z"/>
<path d="M9454 8952 c3 -5 -8 -6 -25 -4 -17 2 -39 -3 -54 -12 -27 -18 -29 -24
-16 -44 7 -12 13 -11 38 1 49 26 168 32 243 13 104 -26 132 -74 90 -156 -35
-69 -117 -132 -138 -107 -12 13 -12 88 0 81 3 -2 11 10 17 28 9 26 8 35 -4 47
-19 19 -26 11 -49 -57 -12 -34 -17 -68 -13 -93 5 -39 5 -39 -29 -39 -19 0 -34
5 -34 10 0 6 -9 10 -20 10 -15 0 -20 -7 -20 -25 0 -31 30 -40 103 -32 99 11
189 77 233 170 24 53 31 82 15 73 -4 -3 -6 6 -3 19 7 36 -50 89 -118 109 -55
17 -225 23 -216 8z m191 -20 c-3 -3 -11 0 -18 7 -9 10 -8 11 6 5 10 -3 15 -9
12 -12z"/>
<path d="M9884 8885 c-8 -19 13 -45 36 -45 18 0 30 19 30 46 0 20 -59 19 -66
-1z"/>
<path d="M10401 8818 c-5 -13 -7 -26 -4 -30 7 -13 30 -9 43 7 10 12 10 18 0
30 -17 21 -29 19 -39 -7z"/>
<path d="M8201 8811 c-11 -11 -24 -37 -30 -58 -28 -101 1 -139 82 -107 9 3 16
-3 20 -15 3 -13 13 -21 25 -21 27 0 37 17 22 35 -7 8 -9 26 -6 39 7 28 -1 56
-16 56 -5 0 -23 -13 -40 -30 -16 -16 -34 -30 -39 -30 -15 0 -10 64 7 88 18 26
55 22 92 -11 16 -15 25 -18 33 -10 18 18 1 50 -35 67 -46 22 -92 20 -115 -3z"/>
<path d="M8400 8743 c-34 -28 -50 -60 -43 -80 7 -19 33 -16 40 5 3 9 13 25 21
35 15 16 17 14 41 -30 28 -52 44 -60 49 -26 3 23 -33 103 -52 115 -17 12 -22
10 -56 -19z"/>
<path d="M9924 8723 c-9 -20 -22 -43 -30 -51 -17 -16 -15 -53 3 -59 15 -5 61
63 69 103 4 24 2 33 -11 37 -12 5 -20 -3 -31 -30z"/>
<path d="M10825 8732 c-43 -27 -58 -48 -50 -72 6 -20 13 -21 72 -18 72 3 72 3
87 -67 6 -27 4 -30 -18 -31 -71 -4 -102 -51 -84 -123 22 -86 89 -117 142 -65
21 22 26 36 26 76 0 47 1 49 28 46 41 -4 38 33 -4 44 -29 7 -33 14 -54 88 -13
44 -29 84 -35 88 -7 4 -14 16 -16 27 -6 27 -55 31 -94 7z m55 -42 c-14 -4 -32
-8 -40 -9 -13 -1 -13 0 0 9 8 5 26 9 40 9 l25 -1 -25 -8z m75 -236 c6 -40 3
-50 -14 -67 -20 -20 -21 -20 -40 -2 -30 26 -39 85 -16 102 11 7 29 13 41 13
18 0 23 -7 29 -46z"/>
<path d="M11245 8729 c-36 -23 -55 -47 -55 -71 0 -18 56 -89 68 -86 4 1 20 -4
35 -10 78 -33 167 0 167 60 0 53 -61 97 -170 123 -8 2 -28 -5 -45 -16z m109
-49 c29 -10 66 -45 66 -60 0 -21 -53 -32 -100 -20 -52 13 -80 35 -80 63 0 16
5 18 30 15 17 -3 33 -1 36 4 7 10 17 10 48 -2z"/>
<path d="M10540 8699 c-37 -15 -60 -40 -60 -65 0 -36 17 -37 47 -4 38 43 65
37 77 -17 8 -33 15 -43 29 -43 17 0 19 5 14 47 -4 35 -12 53 -32 70 -29 25
-38 27 -75 12z"/>
<path d="M10363 8673 c-4 -10 -7 -38 -8 -63 0 -38 3 -45 20 -45 18 0 20 7 20
59 0 60 -18 87 -32 49z"/>
<path d="M9802 7763 c1054 -2 2782 -2 3840 0 1058 1 195 2 -1917 2 -2112 0
-2977 -1 -1923 -2z"/>
<path d="M8557 7658 c-14 -18 -41 -69 -60 -113 -35 -78 -37 -80 -68 -77 -47 5
-77 -16 -105 -74 -34 -72 -32 -127 6 -165 l30 -30 -30 -60 -30 -59 -213 -2
-212 -3 208 -2 c114 -2 207 -6 207 -9 0 -2 -6 -19 -13 -37 -8 -18 -12 -38 -10
-44 7 -19 43 -16 43 3 0 9 7 31 16 50 l16 34 1098 0 c1089 0 1098 0 1103 -20
3 -11 10 -20 17 -20 7 0 14 9 17 20 5 20 15 20 2497 22 l2491 3 -2491 5 -2492
5 27 75 c20 54 33 76 47 78 41 7 123 45 144 67 36 39 24 74 -35 105 l-51 27
19 73 c12 49 15 76 8 83 -18 18 -38 -10 -51 -73 -7 -34 -17 -63 -23 -67 -5 -3
-19 6 -29 20 -23 32 -56 35 -90 7 -36 -28 -51 -72 -46 -132 4 -41 11 -57 35
-79 17 -14 35 -28 40 -30 6 -2 13 -17 17 -33 6 -23 4 -27 -8 -23 -11 5 -20 -8
-32 -48 l-18 -55 -1093 0 -1093 0 14 33 c36 84 38 87 71 87 90 0 205 77 205
138 0 42 -26 67 -89 83 -51 13 -52 14 -45 43 3 17 12 38 19 46 7 8 23 38 35
67 12 28 30 59 41 69 10 9 19 23 19 31 0 25 -39 13 -63 -19z m2041 -244 c11 4
28 3 40 -1 l21 -8 -20 -54 c-25 -71 -32 -78 -63 -58 -28 19 -41 63 -31 107 5
25 10 29 20 20 8 -7 23 -9 33 -6z m-2158 -9 c0 -3 -14 -41 -31 -85 -21 -55
-34 -77 -44 -74 -30 12 -29 81 4 137 11 19 23 27 43 27 15 0 28 -2 28 -5z
m138 -41 c31 -20 28 -39 -13 -69 -33 -26 -123 -60 -133 -51 -4 5 21 83 41 124
10 20 16 23 47 17 19 -4 45 -13 58 -21z m2170 6 c38 -23 33 -39 -18 -60 -17
-7 -30 -16 -30 -20 0 -4 -9 -10 -20 -13 -24 -6 -25 1 -6 45 8 18 17 41 20 51
7 22 14 21 54 -3z"/>
<path d="M11233 7570 c-39 -38 -74 -79 -78 -90 -6 -20 -7 -20 -36 -3 -34 20
-34 43 -1 58 12 5 22 18 22 27 0 28 -43 22 -74 -11 -37 -39 -30 -72 24 -107
32 -21 40 -33 40 -56 0 -54 22 -118 48 -138 13 -11 28 -20 31 -20 19 0 43 29
50 61 10 44 -5 84 -44 119 -16 14 -25 19 -21 13 4 -7 2 -13 -3 -13 -29 0 16
85 67 126 14 12 22 26 18 32 -4 7 -2 10 7 7 18 -7 51 30 44 50 -4 8 -10 15
-15 15 -4 0 -40 -31 -79 -70z m-13 -256 c0 -12 -4 -25 -9 -29 -14 -8 -31 29
-31 67 l1 33 19 -24 c11 -13 20 -34 20 -47z"/>
<path d="M10865 7533 c9 -61 9 -75 -11 -211 -17 -123 -15 -145 17 -140 18 3
22 11 24 58 1 30 6 107 10 171 9 135 4 169 -27 169 -19 0 -20 -3 -13 -47z"/>
<path d="M10212 7534 c-64 -32 -76 -62 -41 -100 24 -26 53 -31 65 -12 4 6 -2
19 -14 29 -28 22 -28 25 9 44 76 40 120 -8 80 -86 -36 -70 -59 -89 -103 -87
-63 2 -123 -59 -104 -107 8 -23 56 -14 106 19 l36 24 46 -44 c50 -47 65 -53
75 -28 4 11 -10 30 -43 59 l-49 44 27 28 c73 77 87 174 33 220 -34 30 -59 29
-123 -3z m136 -129 c-3 -3 -9 2 -12 12 -6 14 -5 15 5 6 7 -7 10 -15 7 -18z
m-149 -129 c-2 -2 -15 -9 -29 -15 -24 -11 -24 -11 -6 3 16 13 49 24 35 12z"/>
<path d="M9484 7536 c-17 -14 -18 -16 -3 -31 12 -12 22 -14 40 -6 28 10 89
-10 89 -29 0 -13 -33 -46 -75 -76 -25 -18 -28 -24 -17 -36 7 -9 33 -21 57 -28
52 -15 62 -25 44 -46 -33 -40 -99 -55 -172 -39 -37 7 -39 6 -35 -16 1 -13 10
-24 18 -24 8 0 21 -4 28 -8 8 -6 12 -1 13 15 l0 23 10 -23 c8 -22 13 -23 52
-17 54 9 113 39 127 64 24 46 5 90 -48 106 l-23 7 31 35 c23 26 30 43 28 66
-6 60 -112 101 -164 63z"/>
<path d="M8811 7522 c-64 -32 -42 -69 23 -38 40 19 66 21 66 4 0 -18 -94 -105
-140 -128 -57 -29 -52 -56 10 -52 45 2 130 -15 130 -27 0 -10 -102 -59 -140
-67 -19 -4 -48 -8 -65 -8 -23 -1 -30 -6 -30 -21 0 -14 8 -21 28 -23 39 -5 135
25 182 57 22 15 48 30 58 34 9 3 17 17 17 31 0 24 -33 46 -92 61 -28 7 -39 25
-15 25 25 0 107 98 107 129 0 40 -80 54 -139 23z"/>
<path d="M9254 7507 c-3 -8 -11 -67 -18 -133 -13 -121 -9 -164 18 -164 10 0
15 24 21 98 4 53 10 117 14 142 4 25 6 51 3 58 -5 16 -31 15 -38 -1z"/>
<path d="M9815 7186 c-11 -8 -16 -19 -12 -30 9 -22 41 -17 45 8 6 27 -11 38
-33 22z"/>
<path d="M9011 7176 c-16 -19 -8 -46 13 -46 20 0 29 31 13 47 -12 12 -16 12
-26 -1z"/>
<path d="M11187 7022 c-14 -16 -77 -160 -77 -179 0 -4 -8 -18 -18 -30 -18 -24
-62 -22 -62 2 0 21 -110 17 -118 -3 -3 -9 0 -18 6 -20 8 -2 7 -10 -4 -27 -26
-40 -20 -101 13 -148 l30 -42 -28 -60 c-16 -33 -29 -75 -29 -92 l0 -33 -505 0
-504 0 23 35 c20 29 23 45 21 97 -1 35 -4 69 -6 76 -2 9 21 27 61 49 79 42 88
49 73 64 -13 13 -73 -6 -73 -23 0 -5 -4 -7 -8 -4 -5 3 -24 -4 -42 -16 l-34
-20 -23 28 c-31 40 -58 92 -51 99 13 13 44 12 71 -2 32 -16 57 -11 57 11 0 10
-19 21 -52 31 -68 20 -84 19 -109 -6 -26 -26 -20 -52 26 -125 l34 -53 -35 -26
c-80 -61 -93 -104 -55 -178 l19 -37 -87 0 c-57 0 -81 3 -71 10 12 8 12 10 -2
15 -10 4 -21 4 -27 1 -18 -11 -40 6 -64 48 l-24 43 38 40 c87 93 106 322 25
297 -37 -12 -124 -74 -129 -93 -6 -23 10 -51 28 -51 8 0 15 8 15 18 0 20 31
52 67 71 18 9 23 8 28 -10 14 -43 -31 -175 -73 -212 -19 -17 -22 -18 -52 -2
-31 16 -34 16 -59 -3 -34 -25 -49 -66 -31 -86 14 -18 55 -21 65 -6 15 24 44 8
68 -35 l26 -45 -215 0 c-180 0 -214 2 -214 14 0 25 -19 28 -37 6 -17 -19 -28
-20 -316 -20 -295 0 -298 0 -287 20 6 11 8 20 5 20 -2 0 3 9 12 20 10 11 25
20 35 20 9 0 22 8 27 18 6 9 11 12 11 5 0 -16 69 18 97 49 45 48 47 103 4 130
-18 11 -18 14 -5 39 7 15 11 35 8 43 -4 11 -2 15 8 11 16 -6 79 91 71 111 -9
25 -32 15 -53 -23 -47 -85 -89 -148 -99 -147 -6 1 -17 2 -25 3 -8 0 -16 11
-18 23 -4 30 -34 35 -61 10 -12 -11 -35 -24 -51 -29 -37 -12 -45 -32 -16 -40
15 -4 19 -10 14 -22 -4 -9 -9 -41 -11 -71 -4 -44 -1 -60 14 -79 20 -24 20 -24
-4 -68 l-25 -43 -261 -2 -262 -3 259 -2 c240 -3 258 -5 251 -21 -4 -9 -9 -31
-12 -48 -4 -24 -2 -31 12 -31 11 0 25 17 38 49 l20 48 300 0 c257 0 303 -2
318 -15 15 -14 18 -14 32 -1 13 13 383 15 3243 16 1775 0 3230 2 3232 5 3 3
-1032 5 -2300 5 -1901 0 -2307 2 -2317 13 -14 17 -8 45 21 103 22 45 27 48 78
58 70 14 122 46 145 90 25 45 11 77 -45 106 -22 11 -40 23 -40 26 0 3 4 3 9 0
5 -3 28 41 51 99 23 57 48 109 56 116 8 6 14 18 14 25 0 20 -34 17 -53 -4z
m-151 -268 c21 -9 21 -10 -14 -73 l-35 -64 -24 27 c-28 33 -30 75 -2 109 15
20 24 24 37 18 9 -5 27 -13 38 -17z m106 -41 c10 -9 18 -21 18 -28 0 -22 -57
-66 -94 -72 l-37 -6 22 39 c53 94 58 97 91 67z m-2586 -46 c-2 -13 -22 -51
-43 -85 -30 -48 -42 -59 -51 -50 -16 16 -15 34 3 96 15 50 16 51 50 45 23 -4
35 -2 35 6 0 6 2 11 5 11 3 0 4 -10 1 -23z m84 -52 c0 -22 -48 -72 -80 -84
-17 -5 -30 -8 -30 -5 0 2 17 31 37 63 31 50 40 58 55 50 10 -5 18 -16 18 -24z
m1254 -101 c0 -49 -3 -59 -28 -81 -34 -29 -50 -20 -68 40 l-12 40 44 39 c53
47 64 40 64 -38z m-454 6 c-20 -13 -33 -13 -25 0 3 6 14 10 23 10 15 0 15 -2
2 -10z"/>
<path d="M11283 6878 c-14 -18 -77 -393 -69 -413 10 -27 41 -13 44 20 5 55 42
280 54 328 10 40 10 50 -3 63 -13 12 -18 13 -26 2z"/>
<path d="M11624 6867 c4 -18 -6 -36 -47 -81 l-52 -59 -33 17 c-38 20 -39 27
-10 66 16 22 19 33 11 41 -17 17 -36 6 -59 -37 -26 -47 -19 -75 26 -103 20
-12 28 -21 20 -26 -26 -16 -70 -90 -70 -117 0 -44 48 -88 96 -88 30 0 44 8 80
44 38 37 44 49 44 85 0 34 -6 49 -30 73 l-30 30 46 51 c59 65 71 91 54 112 -7
8 -21 15 -32 15 -16 0 -19 -5 -14 -23z m-54 -217 c29 -29 25 -58 -16 -96 -41
-39 -56 -42 -83 -15 -24 24 -19 47 21 95 34 41 50 44 78 16z"/>
<path d="M8923 6819 c-28 -14 -43 -28 -43 -40 0 -24 42 -26 60 -4 15 19 40 20
40 2 0 -21 -66 -93 -108 -118 -53 -32 -82 -60 -82 -80 0 -15 10 -17 66 -17 47
0 71 -4 82 -16 14 -14 13 -17 -21 -31 -20 -8 -72 -18 -114 -22 -93 -7 -123
-17 -123 -39 0 -15 10 -16 88 -10 163 13 217 37 217 97 0 36 -20 52 -79 64
l-29 6 24 16 c65 44 129 126 129 166 0 17 -32 47 -51 47 -8 0 -33 -9 -56 -21z"/>
<path d="M10603 6794 c-28 -16 -43 -32 -43 -45 0 -26 30 -37 42 -16 8 15 58
47 73 47 13 0 22 -46 12 -65 -23 -46 -79 -105 -100 -105 -33 -1 -112 -44 -115
-64 -7 -33 13 -38 65 -18 l51 19 5 -41 c9 -64 65 -96 112 -63 24 18 10 40 -21
34 -29 -5 -39 7 -48 57 -7 36 -4 42 30 77 32 33 35 39 19 40 -16 1 -14 3 5 8
29 8 52 62 44 101 -14 63 -62 76 -131 34z"/>
<path d="M7687 6708 c-6 -18 19 -64 40 -72 20 -8 143 3 143 13 0 3 21 7 47 9
52 3 74 15 56 33 -17 17 -123 1 -124 -20 0 -10 -2 -11 -6 -3 -3 7 -24 12 -53
12 -39 0 -52 4 -60 20 -12 22 -36 27 -43 8z"/>
<path d="M10141 6501 c-12 -21 -5 -31 21 -31 23 0 36 29 17 41 -20 13 -27 11
-38 -10z"/>
<path d="M9797 5693 c1058 -2 2788 -2 3845 0 1058 1 193 2 -1922 2 -2115 0
-2980 -1 -1923 -2z"/>
<path d="M9802 5003 c1054 -2 2782 -2 3840 0 1058 1 195 2 -1917 2 -2112 0
-2977 -1 -1923 -2z"/>
<path d="M9802 3613 c1054 -2 2782 -2 3840 0 1058 1 195 2 -1917 2 -2112 0
-2977 -1 -1923 -2z"/>
<path d="M9797 2923 c1058 -2 2788 -2 3845 0 1058 1 193 2 -1922 2 -2115 0
-2980 -1 -1923 -2z"/>
<path d="M9797 2233 c1057 -2 2789 -2 3850 0 1060 1 196 2 -1922 2 -2117 0
-2985 -1 -1928 -2z"/>
<path d="M9797 1543 c1058 -2 2788 -2 3845 0 1058 1 193 2 -1922 2 -2115 0
-2980 -1 -1923 -2z"/>
<path d="M9802 853 c1054 -2 2782 -2 3840 0 1058 1 195 2 -1917 2 -2112 0
-2977 -1 -1923 -2z"/>
</g>
</svg>
