<?xml version="1.0" standalone="no"?>
<!DOCTYPE svg PUBLIC "-//W3C//DTD SVG 20010904//EN"
 "http://www.w3.org/TR/2001/REC-SVG-20010904/DTD/svg10.dtd">
<svg version="1.0" xmlns="http://www.w3.org/2000/svg"
 width="1618.000000pt" height="1214.000000pt" viewBox="0 0 1618.000000 1214.000000"
 preserveAspectRatio="xMidYMid meet">

<g transform="translate(0.000000,1214.000000) scale(0.100000,-0.100000)"
fill="#000000" stroke="none">
<path d="M630 6040 l0 -5190 3310 0 3310 0 0 5190 0 5190 -3310 0 -3310 0 0
-5190z m6610 4870 c0 -170 -2 -310 -4 -310 -3 0 -12 23 -21 50 -17 50 -47 80
-60 60 -7 -11 29 -116 47 -138 6 -7 17 -11 25 -8 11 5 13 -796 13 -4849 l0
-4855 -3300 0 -3300 0 0 5180 0 5180 3300 0 3300 0 0 -310z"/>
<path d="M4520 11047 c0 -19 13 -85 29 -147 l29 -112 -55 4 c-41 4 -56 1 -60
-9 -10 -25 15 -37 74 -37 l57 -1 23 -65 c12 -36 23 -79 23 -96 0 -39 22 -61
39 -40 14 17 7 64 -21 145 -10 30 -16 56 -14 58 2 2 27 7 55 12 l51 8 0 -28
c0 -40 17 -79 35 -79 8 0 28 21 44 46 l29 46 41 -55 c43 -59 73 -76 97 -56 11
9 12 15 3 25 -6 8 -17 14 -23 14 -6 0 -29 25 -50 55 -51 71 -71 78 -107 34
l-28 -34 -1 44 c0 39 -23 209 -36 269 -3 14 -12 22 -24 22 -25 0 -25 -20 -5
-127 26 -136 23 -143 -60 -143 -51 0 -50 -1 -89 171 -17 76 -27 105 -40 107
-12 3 -16 -4 -16 -31z"/>
<path d="M3633 10917 c-15 -13 -35 -26 -44 -29 -26 -10 -40 -213 -17 -236 9
-9 9 -12 0 -12 -16 0 -15 -54 2 -116 7 -27 14 -60 14 -74 1 -13 9 -30 18 -37
25 -18 99 -16 140 3 63 30 154 158 154 215 0 52 -63 89 -152 89 l-37 0 24 36
c14 20 30 54 35 75 24 90 -65 145 -137 86z m81 -23 c34 -13 9 -93 -53 -164
-30 -35 -30 -35 -32 -10 0 14 -2 47 -4 74 -3 43 1 53 25 78 30 29 38 32 64 22z
m87 -224 c52 -15 61 -28 47 -73 -16 -52 -108 -144 -153 -153 -62 -11 -65 -7
-63 110 l2 105 45 9 c63 13 80 13 122 2z"/>
<path d="M7164 10915 c-8 -19 23 -68 39 -62 23 8 1 77 -25 77 -5 0 -11 -7 -14
-15z"/>
<path d="M6410 10911 c-87 -28 -180 -108 -180 -155 0 -24 71 -96 94 -96 5 0
17 -6 25 -13 9 -7 56 -30 104 -50 89 -38 137 -71 137 -93 0 -19 -79 -45 -155
-50 -38 -3 -96 -6 -128 -8 -64 -4 -89 -18 -69 -38 24 -24 279 0 344 33 58 30
72 91 24 108 -11 5 -19 12 -16 17 6 11 -183 106 -215 108 -13 0 -21 4 -19 8 3
4 -13 16 -34 27 -22 11 -42 27 -46 36 -23 60 180 162 218 110 15 -20 46 -14
46 8 0 37 -76 65 -130 48z"/>
<path d="M5404 10875 c-3 -8 -3 -34 0 -57 4 -24 9 -68 13 -98 l6 -55 -25 23
c-13 12 -28 19 -31 15 -4 -3 -7 0 -7 9 0 22 -46 62 -64 55 -9 -4 -16 -10 -16
-15 0 -5 29 -39 65 -76 99 -105 133 -84 113 71 -5 43 -11 87 -12 98 -3 40 -31
60 -42 30z"/>
<path d="M5616 10869 c-14 -11 -24 -24 -21 -29 3 -4 -2 -11 -11 -14 -26 -10
-46 -75 -39 -123 3 -24 11 -43 16 -43 6 0 8 -4 5 -9 -3 -4 10 -17 29 -27 30
-16 40 -17 81 -6 45 12 83 44 84 70 0 20 -36 13 -64 -13 -21 -19 -34 -24 -54
-19 -41 10 -52 23 -52 64 0 33 4 39 28 48 38 13 92 60 92 81 0 43 -51 54 -94
20z"/>
<path d="M2745 10849 c-4 -6 2 -20 13 -32 66 -73 100 -171 87 -253 -6 -42 -8
-44 -33 -38 -15 4 -45 24 -67 45 -23 22 -49 39 -59 39 -12 0 -16 5 -13 15 4 9
-10 26 -36 47 -23 18 -50 43 -60 55 -10 13 -27 23 -38 23 -26 0 -25 -35 3
-102 15 -38 21 -74 21 -128 0 -75 10 -98 34 -78 16 13 17 118 3 167 -5 19 -8
37 -5 39 2 2 41 -32 87 -77 81 -80 116 -99 164 -89 53 10 59 170 10 268 -44
86 -93 130 -111 99z"/>
<path d="M5813 10849 c-16 -16 -15 -69 0 -129 9 -34 17 -45 32 -45 16 0 23 12
36 64 9 36 20 66 26 68 23 8 73 -79 73 -128 0 -10 4 -29 10 -43 12 -32 40 -24
40 11 0 36 -21 113 -31 113 -5 0 -6 6 -3 13 6 17 -64 87 -88 87 -10 0 -26 -8
-35 -18 -17 -17 -19 -17 -33 1 -12 14 -17 16 -27 6z"/>
<path d="M6797 10804 c-31 -17 -77 -102 -77 -144 0 -14 -7 -35 -15 -48 -14
-19 -14 -25 -2 -49 8 -16 27 -71 42 -123 15 -52 38 -119 51 -148 20 -45 27
-53 46 -50 22 3 23 7 22 83 0 66 -5 91 -29 144 -22 49 -26 66 -16 69 23 8 82
64 97 94 18 36 21 97 5 127 -12 22 -67 61 -86 61 -5 -1 -23 -8 -38 -16z m74
-55 c38 -38 11 -120 -53 -159 l-33 -20 -14 30 c-12 25 -13 39 -3 76 7 25 10
50 6 55 -3 5 -2 8 3 7 5 -2 22 9 38 25 17 16 32 22 34 16 2 -6 12 -20 22 -30z
m-52 -374 c0 -13 -5 -7 -13 15 -23 62 -26 86 -6 45 11 -22 19 -49 19 -60z"/>
<path d="M2183 10787 c-126 -9 -143 -12 -143 -27 0 -23 47 -31 126 -22 53 7
63 6 72 -9 6 -10 7 -19 3 -21 -5 -2 -5 -46 0 -101 13 -141 62 -255 100 -231
14 8 11 40 -5 54 -25 20 -45 100 -53 213 l-9 107 26 1 c38 1 62 7 72 17 15 15
0 32 -25 30 -12 -1 -86 -6 -164 -11z"/>
<path d="M4253 10790 c-43 -17 -56 -80 -29 -144 18 -43 51 -66 97 -66 30 0 41
6 64 36 17 23 24 39 18 45 -14 14 -63 -7 -63 -26 0 -23 -46 -18 -64 7 -24 34
-19 61 14 80 33 19 48 44 34 58 -16 14 -48 19 -71 10z"/>
<path d="M6980 10781 c-5 -11 -10 -32 -10 -48 1 -36 35 -112 55 -119 22 -9 45
14 45 43 0 20 -4 24 -20 20 -28 -7 -47 59 -24 84 9 10 13 23 9 28 -10 18 -44
12 -55 -8z"/>
<path d="M3186 10747 c-35 -23 -66 -33 -105 -37 -48 -4 -56 -8 -56 -25 0 -15
8 -21 32 -23 44 -4 113 16 113 33 0 8 5 17 12 21 8 5 9 2 5 -10 -6 -16 -4 -16
24 1 40 24 62 49 54 62 -10 17 -26 12 -79 -22z"/>
<path d="M3990 10745 c-12 -13 -23 -38 -24 -55 -1 -16 -4 -30 -8 -30 -12 0
-10 -58 3 -101 21 -70 73 -97 147 -77 18 5 32 15 32 24 0 9 5 12 13 8 8 -5 7
-2 -2 10 -8 9 -17 13 -20 8 -3 -5 -28 -9 -56 -8 -56 1 -69 16 -78 91 -6 42 17
105 41 113 19 6 14 -23 -8 -43 -22 -20 -26 -50 -8 -61 13 -8 65 50 74 84 15
55 -63 83 -106 37z"/>
<path d="M5022 10747 c-9 -10 -7 -19 4 -35 11 -16 12 -27 4 -41 -17 -34 -12
-79 11 -91 17 -9 31 -7 74 15 50 24 105 74 105 95 0 5 -12 22 -26 39 -28 33
-67 41 -106 20 -14 -8 -23 -8 -31 0 -14 14 -22 14 -35 -2z m122 -53 c26 -10
19 -21 -27 -49 -64 -37 -71 -33 -37 23 20 32 34 38 64 26z"/>
<path d="M1797 10720 c-67 -26 -77 -37 -77 -81 0 -33 7 -47 43 -83 27 -27 65
-51 101 -65 79 -29 136 -59 136 -72 0 -38 -68 -79 -131 -79 -41 0 -90 27 -88
48 4 48 -23 60 -43 17 -9 -19 -7 -29 6 -50 10 -14 25 -28 34 -31 9 -3 26 -10
37 -14 62 -26 148 -8 195 40 38 39 45 66 26 95 -19 29 -72 59 -88 49 -7 -4 -8
-3 -4 4 4 7 -8 15 -31 21 -53 15 -125 62 -142 95 -13 23 -13 28 0 42 9 8 36
21 61 29 39 11 49 11 65 0 22 -15 55 -14 60 2 5 15 -59 53 -88 53 -13 -1 -46
-9 -72 -20z"/>
<path d="M4053 10078 c-9 -12 -23 -75 -38 -170 -5 -35 -8 -38 -40 -38 -18 0
-46 -5 -62 -11 -15 -7 -40 -11 -54 -10 -31 3 -39 -16 -39 -100 0 -44 6 -64 29
-100 31 -49 75 -89 98 -89 17 0 17 0 -15 -155 -23 -116 -24 -170 -2 -170 8 0
16 9 17 20 1 11 9 53 17 94 12 55 13 78 4 88 -8 10 -7 12 5 8 12 -5 16 4 22
44 8 56 13 63 71 79 97 28 172 119 158 193 -13 68 -40 90 -123 103 -56 9 -63
13 -51 34 14 26 42 171 35 182 -8 14 -21 13 -32 -2z m-56 -283 c-5 -32 -4 -35
18 -35 18 0 24 6 27 28 2 21 9 28 32 30 89 10 132 -50 91 -128 -15 -29 -76
-71 -124 -85 l-24 -7 8 76 c6 72 6 76 -14 76 -16 0 -21 -9 -26 -47 -15 -115
-16 -116 -60 -81 -32 25 -64 91 -65 131 0 36 17 68 33 62 6 -3 26 -1 42 4 59
18 68 15 62 -24z"/>
<path d="M4412 10009 c-44 -22 -85 -65 -79 -83 5 -16 53 -14 49 2 -3 15 51 49
91 58 16 3 34 1 42 -6 13 -11 12 -16 -3 -42 -9 -17 -32 -42 -49 -55 -54 -41
-44 -53 42 -53 73 0 145 -19 145 -38 0 -19 -43 -63 -84 -87 -59 -34 -123 -56
-181 -61 -64 -6 -75 -10 -75 -28 0 -21 35 -24 115 -9 140 26 270 117 263 185
-4 38 -36 63 -104 80 l-50 13 18 30 c55 91 -30 148 -140 94z"/>
<path d="M2975 9960 c-8 -13 25 -153 39 -162 6 -4 8 -8 3 -8 -4 0 -1 -15 7
-34 14 -34 14 -35 -22 -59 -21 -13 -52 -32 -70 -41 -20 -11 -32 -23 -30 -33 5
-28 22 -25 92 18 80 48 80 48 115 -63 17 -51 20 -73 12 -82 -8 -10 -7 -17 4
-26 21 -17 45 4 45 40 0 30 -35 132 -57 165 -18 26 -17 32 7 38 21 5 27 31 10
42 -5 3 -19 1 -29 -5 -17 -9 -23 -6 -35 18 -8 16 -22 59 -30 96 -22 95 -42
126 -61 96z"/>
<path d="M2534 9705 c-8 -21 3 -45 20 -45 19 0 28 14 20 33 -8 22 -34 29 -40
12z"/>
<path d="M1835 9621 c-42 -25 -115 -110 -115 -132 0 -31 34 -41 195 -54 168
-15 222 -94 120 -175 -73 -58 -162 -79 -172 -41 -6 25 -34 36 -45 19 -13 -21
-9 -37 13 -59 40 -40 166 -15 232 47 16 14 26 32 23 40 -3 8 0 11 10 7 9 -3
19 7 30 33 14 34 14 41 0 71 -30 64 -104 93 -273 108 -49 5 -73 11 -73 20 0 7
19 29 43 49 62 54 62 54 78 45 20 -11 43 5 36 25 -9 22 -64 21 -102 -3z m-35
-71 c0 -5 -2 -10 -4 -10 -3 0 -8 5 -11 10 -3 6 -1 10 4 10 6 0 11 -4 11 -10z"/>
<path d="M2724 9582 c-27 -17 -59 -108 -48 -136 10 -25 33 -18 40 12 3 15 10
40 16 55 l11 28 22 -21 c13 -12 30 -41 40 -66 18 -46 42 -57 65 -29 15 18 6
45 -14 45 -7 0 -16 10 -20 23 -6 27 -71 97 -89 97 -7 0 -17 -4 -23 -8z"/>
<path d="M2416 9554 c-38 -38 -27 -98 26 -137 22 -17 30 -18 42 -8 12 10 13
18 5 33 -6 11 -13 17 -16 14 -11 -11 -33 16 -33 40 0 23 3 24 40 18 33 -5 40
-4 40 9 0 17 -48 47 -74 47 -8 0 -22 -7 -30 -16z"/>
<path d="M2571 9511 c-15 -10 3 -94 25 -112 32 -27 44 16 19 74 -17 41 -26 49
-44 38z"/>
<path d="M2212 9494 c-33 -23 -52 -67 -52 -119 0 -25 -4 -45 -10 -45 -17 0
-12 -18 30 -103 21 -45 44 -105 50 -134 12 -53 31 -80 50 -68 18 11 11 56 -25
145 -32 80 -38 129 -14 114 6 -3 28 12 49 34 36 35 40 45 40 89 0 54 -23 98
-47 89 -8 -3 -11 -1 -8 4 10 16 -38 12 -63 -6z m62 -40 c9 -8 16 -28 16 -44 0
-31 -43 -90 -66 -90 -35 0 -28 109 9 135 26 18 22 18 41 -1z"/>
<path d="M9802 11223 c1054 -2 2782 -2 3840 0 1058 1 195 2 -1917 2 -2112 0
-2977 -1 -1923 -2z"/>
<path d="M7750 10720 c0 -36 -4 -41 -45 -66 -54 -31 -95 -27 -95 10 0 34 12
40 31 15 16 -21 49 -22 49 -1 0 24 -43 62 -70 62 -35 0 -56 -43 -46 -95 6 -28
15 -39 43 -53 35 -17 36 -16 93 15 l59 32 15 -47 c15 -42 15 -50 1 -93 -15
-45 -15 -50 4 -87 29 -58 69 -69 96 -28 15 23 15 29 -9 87 -24 60 -24 64 -8
82 25 28 52 40 102 47 56 6 69 35 18 42 -41 6 -88 -6 -123 -34 -36 -28 -40
-23 -71 130 -3 14 -12 22 -24 22 -17 0 -20 -7 -20 -40z m100 -299 c0 -11 -3
-11 -15 -1 -8 7 -15 24 -15 39 l1 26 14 -25 c8 -14 14 -31 15 -39z"/>
<path d="M7352 10715 c-21 -27 -37 -114 -23 -128 16 -16 29 1 42 53 20 78 43
69 83 -32 15 -39 33 -47 54 -26 16 16 15 48 -2 48 -8 0 -19 13 -24 30 -15 41
-56 80 -86 80 -14 0 -33 -10 -44 -25z"/>
<path d="M13105 10550 c-11 -5 -1192 -10 -2625 -12 l-2605 -3 2565 -3 2565 -3
-88 -23 c-143 -38 -197 -70 -168 -99 10 -10 102 29 109 46 2 4 7 5 11 3 4 -3
32 2 62 10 30 8 68 17 84 19 57 8 125 27 131 36 3 5 513 10 1217 11 l1212 3
-1195 2 c-657 2 -1202 6 -1210 9 -25 12 -44 12 -65 4z"/>
<path d="M12935 10339 c-4 -11 1 -54 10 -95 14 -64 15 -86 5 -146 -9 -51 -9
-73 -1 -81 8 -8 11 -8 11 2 0 7 4 10 9 7 25 -16 41 167 20 221 -14 34 -18 73
-7 73 4 0 8 9 8 20 0 28 -46 28 -55 -1z"/>
<path d="M8868 10265 c-62 -35 -43 -88 48 -133 52 -26 64 -36 64 -56 0 -66
-84 -95 -122 -42 -16 21 -23 24 -34 15 -8 -6 -14 -17 -14 -23 0 -24 48 -58 89
-63 53 -7 105 29 122 87 16 52 -2 80 -73 115 -29 15 -57 31 -62 36 -16 15 10
32 51 34 31 1 38 5 38 20 0 16 -8 20 -40 22 -22 2 -52 -4 -67 -12z"/>
<path d="M8552 10223 c-31 -45 -42 -71 -48 -111 -9 -67 33 -96 114 -78 30 7
32 6 32 -19 0 -33 41 -75 75 -75 14 0 25 5 25 11 0 5 5 7 11 3 7 -4 10 1 7 12
-2 13 -13 20 -34 22 -39 4 -54 33 -43 83 6 27 3 50 -11 90 -32 89 -90 116
-128 62z m78 -48 c24 -64 23 -73 -9 -89 -40 -21 -71 -21 -72 2 -2 35 4 58 23
84 24 35 46 36 58 3z"/>
<path d="M9849 10219 c-34 -36 -42 -61 -37 -114 5 -64 26 -67 119 -17 44 23
84 40 90 37 5 -4 9 -18 9 -32 0 -14 10 -41 21 -60 17 -27 27 -33 47 -31 35 4
39 25 8 39 -20 9 -27 22 -32 58 -8 62 -46 116 -95 135 -62 25 -97 21 -130 -15z
m124 -31 c18 -9 23 -28 7 -28 -5 0 -32 -13 -60 -30 -28 -16 -55 -30 -60 -30
-26 0 1 80 34 102 12 8 50 1 79 -14z"/>
<path d="M11231 10211 c-39 -54 -28 -70 72 -101 36 -11 69 -25 72 -29 17 -29
-61 -83 -107 -74 -31 6 -33 1 -18 -28 11 -19 43 -25 74 -13 9 3 13 11 9 17 -4
6 0 8 10 4 24 -9 77 48 77 83 0 36 -33 63 -97 80 -62 17 -71 25 -50 48 9 10
17 24 17 30 0 23 -39 12 -59 -17z"/>
<path d="M10961 10188 c-5 -13 -12 -38 -16 -56 -4 -21 -27 -54 -61 -88 -54
-53 -61 -74 -25 -74 21 0 74 46 67 58 -3 5 1 9 9 9 8 0 15 -6 15 -13 0 -7 9
-18 19 -24 25 -13 64 3 108 44 30 27 33 28 38 10 16 -51 31 -69 61 -72 33 -3
61 19 49 38 -4 7 -18 9 -30 6 -27 -7 -36 10 -41 76 -5 69 -30 78 -64 23 -21
-34 -75 -85 -90 -85 -16 0 -18 42 -4 77 8 19 14 47 12 61 -4 35 -35 42 -47 10z"/>
<path d="M11792 10194 c-27 -19 -72 -104 -72 -136 0 -31 23 -73 39 -73 7 0 19
17 26 37 10 31 10 40 -1 49 -12 10 -10 18 9 51 22 40 22 40 72 35 27 -3 57 -7
65 -9 9 -2 15 4 15 17 0 38 -111 59 -153 29z"/>
<path d="M11515 10149 c-98 -30 -96 -118 3 -168 21 -10 43 -16 50 -14 6 3 12
0 12 -5 0 -6 21 -17 46 -26 48 -16 84 -9 84 17 0 7 -4 6 -10 -3 -8 -13 -10
-12 -10 3 0 12 -6 17 -17 16 -10 -2 -29 3 -42 10 -13 7 -34 11 -46 9 -14 -3
-22 -1 -19 6 2 6 -13 20 -33 31 -45 24 -55 58 -23 75 12 6 29 9 38 7 14 -4 13
-6 -6 -12 -27 -9 -26 -38 2 -43 21 -4 76 44 76 68 0 37 -41 49 -105 29z"/>
<path d="M13144 10030 c-11 -4 -47 -11 -80 -15 -32 -4 -62 -10 -67 -12 -4 -2
-34 -6 -66 -8 -83 -4 -131 -21 -131 -47 0 -17 4 -19 28 -14 15 4 74 13 132 21
130 18 253 46 262 59 17 25 -32 35 -78 16z"/>
<path d="M9797 9843 c1057 -2 2789 -2 3850 0 1060 1 196 2 -1922 2 -2117 0
-2985 -1 -1928 -2z"/>
<path d="M10715 9770 c-4 -6 3 -30 14 -53 20 -41 43 -124 56 -200 6 -35 5 -37
-13 -26 -24 15 -106 4 -123 -17 -22 -26 4 -39 49 -26 55 17 99 15 106 -4 12
-31 6 -107 -10 -125 -9 -10 -13 -23 -9 -28 12 -20 35 -11 56 22 16 26 19 42
13 90 -5 52 -4 57 13 57 10 0 24 5 31 12 9 9 12 9 12 0 0 -7 7 -12 15 -12 14
0 14 -3 0 -31 -42 -80 -8 -134 79 -125 29 3 55 11 62 20 6 9 14 13 17 10 3 -3
13 6 22 19 28 43 -1 77 -75 91 -19 4 -44 18 -55 32 -18 22 -29 26 -82 27 l-62
1 -6 40 c-22 141 -84 268 -110 226z m328 -372 c36 -17 34 -26 -9 -44 -48 -20
-84 -11 -84 20 0 12 3 26 7 29 10 11 57 8 86 -5z"/>
<path d="M9265 9691 c-3 -6 -1 -20 6 -32 6 -12 22 -53 35 -92 13 -39 31 -81
39 -94 9 -14 13 -33 9 -48 -4 -18 -2 -25 9 -25 29 0 36 -73 10 -102 -16 -18
-16 -20 4 -40 13 -12 28 -18 38 -14 13 5 15 19 12 86 l-4 79 43 7 c53 8 71 25
47 45 -15 13 -16 12 -10 -9 5 -22 4 -22 -11 -9 -10 9 -31 14 -53 12 -34 -4
-37 -1 -58 43 -12 26 -34 81 -49 122 -26 71 -50 97 -67 71z"/>
<path d="M13197 9675 c-4 -8 -2 -15 3 -15 5 0 7 -6 4 -14 -3 -7 1 -40 9 -73
l14 -60 -73 -17 c-77 -18 -98 -33 -84 -55 7 -12 17 -12 62 2 29 9 66 19 82 23
l29 7 -6 -46 c-5 -35 -3 -46 9 -51 39 -15 46 -8 42 44 l-3 50 55 0 c30 0 61 4
69 9 20 13 6 45 -16 37 -9 -4 -41 -4 -70 0 l-52 6 -19 82 c-13 54 -24 82 -34
84 -9 2 -18 -4 -21 -13z"/>
<path d="M13422 9558 c2 -25 8 -33 23 -33 15 0 21 8 23 33 3 29 1 32 -23 32
-24 0 -26 -3 -23 -32z"/>
<path d="M14000 9559 c-81 -33 -93 -123 -25 -194 27 -30 39 -35 76 -35 75 0
188 65 161 92 -7 7 -28 1 -73 -21 -62 -31 -95 -38 -114 -23 -17 12 -51 56 -38
48 18 -10 99 28 112 52 15 28 14 57 -2 71 -21 17 -69 22 -97 10z m64 -52 c-4
-13 -94 -60 -94 -50 0 10 24 48 34 55 20 14 66 9 60 -5z"/>
<path d="M12283 9503 c-7 -30 -14 -38 -31 -38 -42 -1 -48 -21 -19 -63 15 -21
27 -45 27 -54 0 -21 28 -44 40 -32 7 8 18 85 20 140 0 14 8 24 23 28 13 4 18
9 11 13 -6 5 -13 16 -17 26 -3 9 -15 17 -26 17 -14 0 -21 -10 -28 -37z"/>
<path d="M8390 9503 c-82 -31 -141 -66 -138 -81 5 -28 36 -25 89 8 27 18 52
30 56 26 3 -3 -6 -32 -21 -65 -28 -64 -35 -145 -13 -154 7 -3 36 3 63 12 46
17 59 17 94 4 8 -4 18 -5 23 -5 4 1 7 -2 7 -7 0 -5 9 -11 21 -14 42 -11 79 63
65 131 -9 37 -69 97 -90 89 -25 -10 -19 -31 14 -55 25 -19 30 -29 30 -66 0
-23 -3 -45 -6 -49 -3 -3 -23 3 -44 14 -39 20 -90 19 -132 -3 -26 -13 -23 11
13 97 17 41 29 84 27 97 -3 23 -28 32 -58 21z"/>
<path d="M12006 9489 c-31 -25 -51 -61 -60 -111 -6 -34 -10 -37 -44 -40 -43
-3 -51 -29 -13 -38 29 -7 61 -63 61 -107 l0 -33 -2032 -3 -2033 -2 2033 -3
2033 -2 -7 -80 c-8 -95 -3 -115 25 -100 24 12 41 67 41 132 l0 48 1778 3 1777
2 -1775 3 -1775 2 -16 52 c-23 71 -14 98 38 113 63 19 110 52 122 86 10 29 8
34 -23 65 -41 41 -89 46 -130 13z m95 -38 c21 -17 22 -21 9 -36 -16 -19 -86
-54 -107 -55 -18 0 -16 23 4 64 22 48 56 58 94 27z"/>
<path d="M8792 9483 c-40 -16 -52 -114 -17 -143 17 -14 58 -3 49 12 -4 7 -2 8
5 4 6 -4 18 -2 26 4 12 10 15 9 15 -7 0 -29 29 -63 54 -63 13 0 31 9 41 20
l18 20 22 -20 c30 -28 60 -25 87 10 l24 31 19 -21 c24 -26 55 -26 55 0 0 11
-5 20 -10 20 -6 0 -20 16 -31 35 -12 19 -27 35 -34 35 -8 0 -24 -18 -36 -40
-22 -39 -49 -54 -49 -26 0 24 -26 38 -40 21 -7 -8 -18 -15 -25 -15 -7 0 -18
-7 -25 -15 -18 -21 -30 -2 -30 47 0 33 -6 42 -42 68 -41 30 -51 33 -76 23z
m37 -86 c-26 -21 -35 -11 -25 30 7 25 7 25 27 7 l21 -19 -23 -18z"/>
<path d="M9182 9469 c5 -33 50 -61 107 -67 48 -4 51 -3 51 18 0 20 -4 22 -34
17 -19 -3 -36 -3 -38 1 -5 11 -66 52 -78 52 -6 0 -10 -10 -8 -21z"/>
<path d="M12805 9464 c-36 -19 -45 -31 -45 -65 0 -51 51 -74 141 -64 54 6 60
9 57 29 -3 20 -8 21 -74 18 -48 -3 -74 0 -79 8 -12 19 21 43 55 42 34 -1 53
24 29 39 -21 13 -50 11 -84 -7z"/>
<path d="M13674 9449 c-38 -11 -57 -32 -52 -56 5 -26 100 -46 125 -27 17 13
17 15 1 27 -13 10 -14 17 -6 25 8 8 8 15 -2 27 -14 17 -21 17 -66 4z m41 -39
c3 -5 1 -10 -4 -10 -6 0 -11 5 -11 10 0 6 2 10 4 10 3 0 8 -4 11 -10z"/>
<path d="M12530 9430 c-20 -20 -40 -61 -40 -80 0 -5 7 -16 16 -25 15 -14 20
-13 61 10 54 30 53 30 53 7 0 -22 30 -52 51 -52 8 0 20 4 28 9 12 8 12 12 -2
25 -8 9 -20 16 -26 16 -6 0 -11 9 -11 20 0 11 -8 28 -18 38 -10 10 -21 26 -25
35 -9 24 -62 22 -87 -3z m69 -23 c-2 -2 -17 -11 -34 -22 l-30 -18 19 21 c11
12 26 22 34 22 9 0 13 -1 11 -3z"/>
<path d="M13429 9418 c-1 -7 0 -17 1 -23 1 -5 2 -25 1 -44 0 -31 1 -33 27 -26
37 9 38 10 21 58 -15 40 -48 63 -50 35z"/>
<path d="M11140 9087 c0 -12 -13 -38 -30 -57 -33 -39 -41 -84 -14 -78 9 2 35
28 56 59 35 48 39 59 29 78 -16 28 -41 27 -41 -2z"/>
<path d="M9497 9020 c-17 -17 -17 -21 18 -94 19 -42 38 -90 42 -106 5 -27 3
-30 -21 -30 -15 0 -37 5 -48 11 -20 11 -37 0 -38 -23 0 -16 64 -40 91 -34 l29
6 1 -78 c1 -42 1 -81 0 -86 -5 -24 12 -46 36 -46 24 0 25 2 19 43 -3 23 -8 74
-11 112 l-6 70 39 32 38 31 13 -75 c25 -149 40 -163 108 -100 l46 42 -6 -57
c-9 -88 18 -154 54 -132 13 7 11 38 -2 51 -7 7 -11 45 -10 96 1 71 -1 86 -15
91 -19 7 -57 -15 -90 -53 l-22 -26 -10 40 c-20 78 -24 168 -9 203 17 41 12 75
-15 99 -19 17 -20 17 -34 -2 -8 -10 -14 -42 -14 -70 0 -45 -4 -55 -35 -85 -19
-18 -36 -32 -38 -29 -6 9 -51 117 -67 162 -21 58 -21 58 -43 37z"/>
<path d="M8682 9003 c-37 -21 -172 -151 -172 -167 -1 -6 -7 4 -15 22 -8 17
-19 32 -25 32 -21 0 -22 -32 -1 -107 11 -43 17 -81 13 -85 -10 -10 5 -174 20
-211 8 -20 17 -27 32 -25 12 2 21 8 21 13 -2 34 -17 160 -25 213 -9 55 -8 68
9 105 29 62 161 191 178 174 3 -4 -8 -31 -25 -61 -22 -38 -28 -56 -19 -59 7
-3 5 -6 -5 -6 -17 -1 -78 -79 -78 -100 0 -16 29 -28 85 -36 98 -15 110 -27 79
-87 -36 -70 -162 -177 -213 -181 -28 -2 -35 -24 -11 -37 13 -7 27 -7 45 0 40
15 115 72 109 82 -3 5 0 7 8 6 7 -2 14 7 16 19 2 13 8 20 17 17 16 -6 67 65
84 118 14 42 3 73 -28 83 -19 6 -31 8 -98 21 -18 3 -33 8 -33 9 0 2 25 43 55
91 30 49 55 93 55 100 0 7 3 19 6 27 6 16 -20 47 -39 47 -7 0 -27 -8 -45 -17z"/>
<path d="M12297 8980 c-98 -16 -157 -67 -134 -117 18 -40 258 -146 288 -127 7
4 9 3 6 -3 -3 -5 10 -15 30 -21 28 -9 40 -8 55 2 11 8 15 17 10 20 -25 15
-136 44 -150 39 -9 -4 -13 -2 -9 4 5 7 -8 16 -30 23 -62 20 -138 57 -151 73
-11 12 -8 19 14 36 15 12 35 21 45 21 11 0 19 3 19 8 0 4 33 6 72 4 86 -3 132
-24 150 -67 19 -48 48 -56 48 -14 0 88 -118 141 -263 119z"/>
<path d="M11119 8831 c-58 -58 -50 -121 16 -121 9 0 29 -10 45 -21 24 -18 27
-25 17 -40 -6 -10 -28 -26 -49 -35 -31 -14 -43 -15 -64 -6 -35 17 -44 15 -44
-8 0 -45 81 -53 147 -15 50 30 79 76 64 103 -9 16 -70 51 -115 66 -18 6 -16
10 14 41 18 19 38 33 44 32 6 -1 12 8 14 21 6 38 -43 29 -89 -17z"/>
<path d="M13393 8854 c-6 -16 15 -37 29 -28 4 3 8 14 8 25 0 23 -28 26 -37 3z"/>
<path d="M10207 8824 c-12 -12 -8 -55 13 -134 11 -41 20 -79 20 -85 0 -12 -58
55 -65 76 -3 9 -15 19 -26 22 -12 3 -18 10 -14 16 3 6 1 11 -5 11 -24 0 -20
-32 8 -72 17 -24 45 -64 63 -90 33 -49 62 -61 73 -32 11 28 6 94 -10 157 -8
33 -16 76 -18 96 -2 34 -22 52 -39 35z"/>
<path d="M9243 8790 c-30 -20 -63 -81 -63 -119 0 -10 10 -31 22 -46 19 -25 26
-27 66 -21 52 7 72 20 72 47 0 20 -24 26 -35 9 -3 -5 -22 -10 -41 -10 -27 0
-34 4 -34 20 0 11 5 20 11 20 6 0 29 14 51 31 30 25 38 37 36 58 -4 34 -41 39
-85 11z"/>
<path d="M10421 8774 c-11 -15 -21 -32 -21 -39 0 -7 -13 -18 -30 -25 -41 -17
-54 -34 -36 -49 11 -9 20 -9 35 -2 26 14 31 14 31 -3 0 -8 12 -28 26 -45 19
-23 34 -31 57 -31 37 0 83 32 73 49 -9 14 -39 14 -53 0 -16 -16 -51 6 -59 38
-6 21 0 31 32 59 33 27 37 35 28 51 -18 29 -58 28 -83 -3z"/>
<path d="M10695 8765 c-14 -13 -25 -19 -25 -14 0 6 -10 9 -22 7 -26 -3 -34
-38 -23 -95 9 -52 37 -43 70 22 17 34 34 55 44 55 23 0 53 -35 76 -88 23 -53
40 -69 59 -53 12 10 9 22 -20 74 -39 71 -85 117 -115 117 -11 0 -31 -11 -44
-25z"/>
<path d="M8975 8754 c-44 -48 -42 -179 3 -203 31 -16 83 -7 103 20 10 13 17
29 15 34 -5 17 -47 17 -66 0 -24 -22 -38 -13 -46 30 -6 35 11 85 33 92 9 3 9
-3 0 -26 -9 -26 -9 -34 5 -47 18 -18 38 -11 38 13 0 9 6 32 12 51 11 30 11 35
-7 48 -29 21 -63 17 -90 -12z m102 -166 c-3 -8 -6 -5 -6 6 -1 11 2 17 5 13 3
-3 4 -12 1 -19z"/>
<path d="M9973 8742 c-3 -14 -11 -18 -29 -14 -28 5 -30 -5 -9 -45 8 -15 17
-39 20 -53 8 -40 19 -51 61 -60 46 -11 80 6 90 44 10 41 -5 67 -51 87 -34 15
-42 23 -38 39 4 16 0 20 -17 20 -13 0 -24 -8 -27 -18z m75 -88 c19 -13 21 -19
11 -30 -20 -24 -54 -13 -57 19 -4 31 12 35 46 11z"/>
<path d="M12884 8714 c-17 -45 -17 -47 1 -60 18 -13 18 -14 1 -14 -16 0 -18
-6 -11 -57 9 -77 39 -151 75 -190 45 -50 78 -44 56 11 -8 17 -18 45 -23 61 -5
17 -15 29 -22 27 -7 -1 -9 2 -6 8 4 7 -3 22 -15 35 -31 32 -23 59 19 65 21 3
41 15 54 32 21 29 17 64 -8 55 -9 -4 -26 9 -45 33 -18 22 -38 40 -45 40 -7 0
-21 -21 -31 -46z m31 -4 c3 -5 1 -10 -4 -10 -6 0 -11 5 -11 10 0 6 2 10 4 10
3 0 8 -4 11 -10z m26 -63 c-15 -15 -41 14 -27 30 9 9 14 8 24 -5 7 -10 8 -20
3 -25z"/>
<path d="M13162 8733 c-6 -2 -10 -9 -7 -14 4 -5 -1 -6 -9 -3 -20 8 -58 -54
-50 -81 6 -20 82 -94 97 -95 4 0 10 7 14 16 4 11 -6 28 -30 51 -21 19 -37 38
-37 43 0 12 29 40 43 42 7 0 17 2 22 2 25 3 36 18 24 32 -11 14 -42 17 -67 7z"/>
<path d="M12556 8711 c-17 -18 -16 -20 21 -31 82 -27 128 -83 103 -129 -26
-49 -218 -107 -322 -96 -35 3 -47 1 -52 -11 -3 -9 1 -18 12 -22 29 -12 178 -8
194 5 8 7 18 10 21 7 11 -11 110 27 148 57 40 31 71 90 52 96 -7 3 -10 10 -7
17 8 21 -44 75 -95 97 -25 12 -49 23 -52 25 -4 2 -14 -5 -23 -15z"/>
<path d="M13733 8690 c-26 -15 -33 -27 -33 -50 0 -44 36 -56 109 -34 l56 16
33 -39 c18 -21 41 -54 52 -74 l18 -35 -66 -25 c-91 -33 -122 -61 -122 -107 0
-49 29 -95 73 -115 66 -32 95 -17 151 77 26 42 36 72 36 100 l0 41 126 30 c69
16 127 33 130 37 3 4 11 5 18 2 18 -7 42 24 29 37 -14 14 -113 -9 -120 -28 -4
-10 -8 -11 -13 -4 -7 13 -150 -16 -150 -30 0 -4 -12 -4 -27 0 -19 5 -36 22
-51 49 -13 24 -45 65 -70 93 l-47 50 -42 -21 c-23 -12 -50 -20 -60 -18 -15 4
-13 7 10 18 30 15 37 50 10 50 -10 0 -33 -9 -50 -20z m267 -280 c0 -49 -70
-150 -104 -150 -47 0 -94 76 -65 105 14 15 134 64 157 65 6 0 12 -9 12 -20z"/>
<path d="M13555 8646 c-14 -10 -19 -25 -18 -56 2 -48 14 -66 38 -56 12 4 14
14 9 41 -7 42 4 45 35 9 13 -15 28 -23 37 -20 9 3 20 6 26 6 6 0 6 6 -2 15 -9
11 -9 15 -1 15 9 0 9 5 0 21 -6 13 -17 19 -28 16 -10 -2 -26 2 -36 9 -24 18
-36 18 -60 0z"/>
<path d="M13405 8608 c-2 -7 -1 -29 3 -48 9 -42 45 -50 50 -12 6 41 -41 93
-53 60z"/>
<path d="M8743 8388 c-22 -26 -53 -89 -53 -110 0 -7 7 -24 16 -36 9 -13 11
-22 4 -22 -6 0 -5 -11 5 -30 9 -16 20 -30 25 -30 6 0 10 -4 10 -9 0 -5 16 -33
35 -62 19 -30 35 -59 35 -66 0 -7 7 -13 16 -13 12 0 14 -8 10 -34 -10 -61 -25
-87 -61 -101 -45 -20 -106 -20 -99 -1 8 20 -23 28 -41 10 -36 -36 -7 -74 56
-74 39 0 109 20 109 32 0 4 5 7 12 6 6 -2 22 12 35 31 44 65 26 140 -71 286
-50 75 -57 114 -31 165 9 16 26 32 40 36 33 8 87 -11 115 -41 25 -27 45 -32
56 -14 9 14 -43 68 -83 85 -51 22 -116 18 -140 -8z"/>
<path d="M9736 8318 c-16 -62 4 -166 59 -300 5 -13 0 -19 -19 -24 -14 -3 -26
-10 -26 -16 0 -5 -4 -7 -9 -3 -16 9 -61 -17 -61 -37 0 -22 16 -23 62 -3 20 8
46 16 59 18 23 5 24 2 24 -47 0 -37 4 -51 14 -51 16 0 22 23 22 77 -1 33 3 38
27 44 52 11 72 23 65 40 -6 15 -38 15 -94 -2 -25 -7 -84 172 -84 256 0 52 -3
65 -16 68 -10 2 -19 -6 -23 -20z"/>
<path d="M9423 8033 c-7 -2 -13 -20 -13 -38 0 -43 29 -66 75 -58 32 5 34 4 45
-36 11 -41 34 -62 58 -54 16 6 15 28 -2 42 -7 6 -16 24 -19 40 -9 45 -34 64
-74 56 -34 -6 -46 8 -17 19 13 5 14 9 4 21 -12 15 -34 18 -57 8z"/>
<path d="M8957 8003 c-32 -36 9 -146 58 -159 32 -8 74 19 88 56 l11 29 18 -30
c26 -43 54 -38 62 10 4 25 15 46 28 55 29 21 38 7 38 -65 0 -59 12 -75 45 -63
17 7 20 30 5 39 -6 3 -9 26 -8 50 3 93 -62 127 -120 61 l-29 -34 -14 32 c-17
39 -45 42 -42 5 l1 -26 -51 28 c-61 34 -69 35 -90 12z m101 -66 c10 -8 9 -14
-4 -28 -10 -11 -23 -19 -30 -19 -11 0 -34 49 -34 71 0 9 45 -8 68 -24z"/>
<path d="M10055 7996 c-56 -25 -94 -90 -75 -127 14 -25 36 -24 88 6 23 13 42
19 42 13 0 -5 9 -23 21 -39 16 -22 28 -29 55 -29 19 0 34 4 34 10 0 5 6 7 13
4 7 -2 21 2 32 10 15 11 17 17 8 27 -9 9 -19 9 -44 0 -50 -17 -60 -14 -76 28
-20 52 -38 57 -85 26 -22 -15 -42 -24 -45 -21 -9 9 44 55 71 62 17 4 26 13 26
25 0 22 -22 24 -65 5z"/>
<path d="M9802 7763 c1054 -2 2782 -2 3840 0 1058 1 195 2 -1917 2 -2112 0
-2977 -1 -1923 -2z"/>
<path d="M9797 7073 c1058 -2 2788 -2 3845 0 1058 1 193 2 -1922 2 -2115 0
-2980 -1 -1923 -2z"/>
<path d="M9797 6383 c1057 -2 2789 -2 3850 0 1060 1 196 2 -1922 2 -2117 0
-2985 -1 -1928 -2z"/>
<path d="M9797 5693 c1058 -2 2788 -2 3845 0 1058 1 193 2 -1922 2 -2115 0
-2980 -1 -1923 -2z"/>
<path d="M9802 5003 c1054 -2 2782 -2 3840 0 1058 1 195 2 -1917 2 -2112 0
-2977 -1 -1923 -2z"/>
<path d="M9802 3613 c1054 -2 2782 -2 3840 0 1058 1 195 2 -1917 2 -2112 0
-2977 -1 -1923 -2z"/>
<path d="M9797 2923 c1058 -2 2788 -2 3845 0 1058 1 193 2 -1922 2 -2115 0
-2980 -1 -1923 -2z"/>
<path d="M9797 2233 c1057 -2 2789 -2 3850 0 1060 1 196 2 -1922 2 -2117 0
-2985 -1 -1928 -2z"/>
<path d="M9797 1543 c1058 -2 2788 -2 3845 0 1058 1 193 2 -1922 2 -2115 0
-2980 -1 -1923 -2z"/>
<path d="M9802 853 c1054 -2 2782 -2 3840 0 1058 1 195 2 -1917 2 -2112 0
-2977 -1 -1923 -2z"/>
</g>
</svg>
