<?xml version="1.0" standalone="no"?>
<!DOCTYPE svg PUBLIC "-//W3C//DTD SVG 20010904//EN"
 "http://www.w3.org/TR/2001/REC-SVG-20010904/DTD/svg10.dtd">
<svg version="1.0" xmlns="http://www.w3.org/2000/svg"
 width="1618.000000pt" height="1214.000000pt" viewBox="0 0 1618.000000 1214.000000"
 preserveAspectRatio="xMidYMid meet">

<g transform="translate(0.000000,1214.000000) scale(0.100000,-0.100000)"
fill="#000000" stroke="none">
<path d="M630 6040 l0 -5190 3310 0 3310 0 0 5190 0 5190 -3310 0 -3310 0 0
-5190z m6610 0 l0 -5180 -3300 0 -3300 0 0 5180 0 5180 3300 0 3300 0 0 -5180z"/>
<path d="M2690 10776 c-92 -39 -215 -103 -229 -120 -7 -9 -11 -23 -7 -31 7
-19 46 -20 46 -1 0 11 135 86 154 86 2 0 4 -32 4 -72 1 -47 5 -74 14 -79 10
-7 10 -11 0 -21 -16 -16 -16 -88 1 -88 9 0 9 -2 -1 -8 -15 -10 -19 -159 -4
-174 26 -26 32 7 32 173 0 144 -2 169 -15 169 -8 0 -15 5 -15 10 0 6 7 10 15
10 14 0 20 32 18 97 0 11 56 30 107 35 14 2 25 9 25 18 0 25 -82 23 -145 -4z"/>
<path d="M3103 10708 c3 -24 13 -77 22 -118 11 -50 15 -98 12 -143 -7 -81 -12
-91 -38 -77 -28 16 -149 160 -165 198 -15 34 -38 42 -48 16 -3 -9 -6 -44 -6
-78 0 -34 -7 -84 -16 -110 -12 -35 -14 -50 -5 -59 17 -17 38 10 52 68 6 28 13
56 15 63 3 10 10 9 28 -5 13 -10 22 -21 20 -24 -2 -4 23 -32 55 -63 107 -101
151 -71 151 101 0 58 -7 112 -20 158 -11 38 -20 80 -20 92 0 17 -6 23 -21 23
-20 0 -21 -4 -16 -42z"/>
<path d="M4766 10710 c-37 -11 -66 -38 -66 -61 0 -30 39 -49 125 -61 23 -3
115 -89 115 -107 0 -19 -64 -41 -118 -41 -36 0 -54 5 -67 20 -21 23 -45 11
-45 -21 0 -23 34 -38 100 -46 49 -5 165 30 155 48 -4 5 -2 9 4 9 5 0 13 9 16
20 5 15 -4 35 -30 69 -37 48 -92 84 -150 96 -16 4 -37 9 -45 12 -28 8 17 24
82 28 67 5 73 7 65 30 -7 17 -90 20 -141 5z"/>
<path d="M4315 10688 c-85 -48 -130 -190 -87 -275 32 -61 76 -84 163 -84 57 0
74 4 85 18 20 27 17 53 -6 53 -13 0 -18 -5 -14 -15 5 -12 -4 -15 -50 -15 -83
0 -120 19 -140 72 -13 34 -15 53 -7 86 9 42 56 122 72 122 4 0 15 3 23 6 11 4
29 -8 54 -35 34 -37 40 -40 51 -27 21 25 -4 74 -47 91 -41 18 -70 18 -97 3z"/>
<path d="M2265 10651 c-49 -22 -88 -63 -90 -93 -1 -13 -5 -21 -9 -18 -4 3 -14
-8 -23 -23 -13 -25 -13 -31 2 -53 8 -13 21 -24 28 -25 190 -11 242 -29 242
-85 0 -22 -7 -32 -29 -43 -33 -15 -113 -19 -169 -8 -36 8 -38 7 -35 -15 3 -20
11 -24 62 -32 72 -12 159 4 192 35 56 52 22 154 -56 164 -3 0 -11 4 -18 9 -8
4 -52 11 -98 14 -46 2 -84 8 -84 11 0 20 63 102 89 115 43 23 98 21 111 -4 13
-24 36 -26 44 -4 8 22 -11 53 -40 64 -38 15 -74 12 -119 -9z"/>
<path d="M3637 10497 c-7 -18 7 -31 56 -52 49 -20 82 -19 84 3 1 16 -10 22
-118 58 -9 3 -19 -1 -22 -9z"/>
<path d="M3593 10033 c-20 -7 -16 -23 26 -109 59 -123 59 -120 9 -128 -50 -8
-88 -30 -88 -51 0 -23 16 -26 48 -9 17 8 47 18 66 21 31 5 36 3 42 -21 3 -15
13 -26 23 -26 13 0 13 -2 2 -9 -18 -12 -7 -119 14 -141 36 -35 41 35 11 148
-15 56 -15 60 7 66 12 3 41 6 65 6 36 0 43 3 40 18 -3 14 -15 17 -76 17 -48 0
-72 4 -72 12 0 6 -16 42 -35 79 -20 37 -39 81 -43 98 -8 31 -18 38 -39 29z"/>
<path d="M4923 10023 c-33 -17 -50 -44 -38 -63 11 -17 37 -11 61 15 24 26 40
30 62 16 12 -7 11 -14 -2 -40 -9 -17 -14 -36 -10 -42 3 -6 -2 -9 -12 -7 -13 2
-20 -4 -22 -18 -3 -18 5 -21 59 -30 68 -10 92 -30 73 -61 -19 -31 -66 -47
-138 -48 -39 -1 -71 -6 -73 -12 -12 -34 86 -48 163 -23 59 19 82 38 94 76 17
51 -3 85 -62 105 -37 12 -45 18 -37 30 13 21 8 81 -9 102 -19 21 -66 21 -109
0z"/>
<path d="M4611 10016 c-7 -8 -14 -21 -15 -28 -2 -7 -8 -26 -14 -41 -7 -16 -12
-35 -12 -43 0 -9 -11 -14 -31 -14 -21 0 -28 -4 -23 -12 4 -7 -2 -5 -14 5 -18
16 -26 17 -55 8 -54 -18 -72 -45 -70 -101 3 -64 22 -107 68 -155 l38 -40 -22
-84 c-20 -75 -20 -86 -7 -99 12 -13 18 -13 31 -2 8 7 14 22 13 34 -1 11 4 46
11 77 13 55 15 57 51 63 47 7 124 62 116 82 -3 9 -1 12 4 9 13 -8 40 55 40 92
0 33 -49 90 -85 99 -30 7 -31 19 -5 86 16 44 18 55 7 66 -11 11 -16 10 -26 -2z
m-84 -172 c14 -4 20 -12 17 -22 -29 -120 -34 -147 -31 -156 3 -7 -4 -13 -14
-13 -34 -3 -89 106 -80 157 6 34 53 49 108 34z m106 -25 c38 -17 47 -40 35
-89 -8 -31 -21 -49 -51 -71 -55 -40 -76 -39 -74 5 1 19 5 32 8 30 4 -2 9 11
13 28 13 66 27 108 36 108 5 0 20 -5 33 -11z"/>
<path d="M2397 9804 c-3 -4 -19 -8 -34 -10 -85 -9 -117 -95 -51 -138 13 -8 59
-24 103 -36 44 -12 90 -28 102 -36 30 -19 55 -68 46 -91 -14 -40 -57 -85 -103
-108 -72 -37 -123 -33 -131 10 -3 12 -12 20 -24 20 -30 0 -21 -44 16 -79 28
-25 37 -27 73 -22 59 10 136 56 174 105 36 48 47 80 38 116 -7 29 -54 83 -76
87 -8 2 -20 8 -27 15 -7 6 -35 16 -63 22 -80 17 -122 38 -118 58 6 34 83 52
178 41 36 -4 40 29 5 42 -29 11 -98 13 -108 4z"/>
<path d="M3135 9780 c-4 -7 2 -22 14 -33 16 -17 23 -19 33 -9 9 9 10 17 2 30
-14 21 -40 27 -49 12z"/>
<path d="M2802 9773 c-24 -10 -55 -87 -60 -153 -2 -36 -9 -70 -14 -77 -5 -6
-5 -28 1 -55 6 -23 15 -85 21 -135 11 -98 23 -143 39 -143 28 0 31 85 7 190
-21 86 -21 84 18 98 19 7 49 29 66 48 28 32 31 42 29 92 -2 64 -18 103 -51
126 -23 16 -34 18 -56 9z m55 -75 c33 -57 0 -146 -58 -161 -16 -4 -19 0 -19
28 0 47 18 136 31 152 17 20 25 16 46 -19z"/>
<path d="M3342 9733 c-24 -9 -42 -62 -42 -120 0 -65 10 -89 34 -80 13 5 15 17
10 64 -4 42 -2 63 8 76 15 20 18 17 62 -95 11 -27 21 -38 35 -38 22 0 29 27
13 46 -5 5 -17 31 -27 59 -17 47 -55 96 -72 94 -4 0 -14 -3 -21 -6z"/>
<path d="M3003 9718 c-6 -7 -13 -33 -17 -57 -6 -36 -2 -54 19 -98 18 -37 32
-53 46 -53 24 0 24 21 -1 62 -29 47 -26 120 4 91 3 -4 13 -8 21 -9 26 -4 16
34 -14 55 -34 24 -45 26 -58 9z"/>
<path d="M3164 9625 c-4 -8 -3 -35 0 -60 6 -37 11 -45 28 -45 19 0 20 4 14 52
-4 28 -9 55 -12 60 -8 13 -24 9 -30 -7z"/>
<path d="M4654 9315 c-4 -10 15 -44 50 -89 31 -40 56 -76 56 -79 0 -3 -23 -13
-50 -22 -53 -18 -75 -41 -60 -66 8 -11 13 -12 27 -1 25 17 63 33 87 35 17 2
22 -6 27 -43 4 -25 3 -76 -1 -115 -9 -76 -7 -85 19 -85 16 0 19 12 25 83 4 45
2 103 -2 130 l-9 47 32 0 c52 0 96 12 102 27 10 27 -12 31 -89 19 -62 -10 -78
-10 -82 0 -3 7 -1 14 4 16 11 4 -107 158 -121 158 -5 0 -12 -7 -15 -15z"/>
<path d="M5125 9144 c-14 -15 -25 -35 -25 -45 0 -20 31 -44 70 -54 14 -3 36
-15 49 -26 22 -18 23 -21 9 -36 -10 -9 -42 -17 -82 -20 -54 -5 -66 -9 -64 -22
2 -12 17 -17 63 -19 72 -3 125 21 140 63 9 25 6 30 -30 61 -22 19 -43 34 -47
34 -4 0 -19 5 -33 10 -22 8 -25 13 -16 24 7 8 20 12 30 9 22 -6 34 9 25 31
-10 26 -61 20 -89 -10z"/>
<path d="M4220 9106 c0 -20 24 -36 39 -26 8 4 11 15 8 24 -8 20 -47 21 -47 2z"/>
<path d="M4473 9058 c-26 -30 -103 -179 -103 -201 0 -10 8 -17 18 -17 12 0 28
21 50 65 18 36 32 70 32 76 0 5 8 19 19 30 24 26 36 12 60 -73 18 -64 43 -85
49 -40 5 35 -25 126 -52 155 -30 33 -46 34 -73 5z"/>
<path d="M3130 9022 c-63 -20 -120 -49 -120 -61 0 -5 10 -16 23 -25 12 -9 17
-14 10 -11 -17 8 -57 -20 -70 -48 -17 -36 1 -64 49 -78 79 -21 98 -31 104 -55
13 -52 -12 -64 -78 -39 -26 10 -24 -31 3 -45 38 -21 81 -15 106 14 27 32 29
56 8 96 -18 34 -40 48 -103 64 -25 6 -47 16 -49 21 -3 11 51 48 59 39 3 -2 11
3 19 12 11 14 11 18 -4 29 -9 7 -17 15 -17 17 0 8 49 25 110 39 59 12 83 26
74 40 -8 14 -63 9 -124 -9z"/>
<path d="M3838 8979 c-10 -5 -18 -17 -18 -25 0 -8 -4 -13 -9 -10 -13 8 -21
-18 -27 -88 -8 -86 -9 -89 -34 -74 -14 9 -23 9 -30 2 -17 -17 -1 -42 34 -55
30 -11 34 -17 49 -88 10 -42 20 -107 24 -144 6 -68 22 -92 44 -70 20 20 11
135 -16 210 -14 40 -25 78 -25 85 0 7 16 26 35 41 70 55 95 149 54 201 -21 27
-51 33 -81 15z m58 -54 c12 -30 -40 -135 -68 -135 -13 0 -5 99 11 128 13 25
49 29 57 7z m15 -68 c-10 -9 -11 -8 -5 6 3 10 9 15 12 12 3 -3 0 -11 -7 -18z"/>
<path d="M4084 8968 c-44 -21 -70 -129 -44 -179 22 -41 107 -6 137 56 13 28
14 39 4 61 -6 14 -20 28 -31 31 -11 3 -20 14 -20 24 0 21 -14 23 -46 7z m61
-81 c11 -12 9 -18 -17 -40 -38 -34 -58 -34 -58 -3 0 45 46 71 75 43z"/>
<path d="M4234 8955 c-6 -16 32 -99 53 -117 10 -8 17 -8 25 0 8 8 3 27 -18 71
-28 60 -49 75 -60 46z"/>
<path d="M2485 8819 c-16 -11 -40 -24 -53 -30 -15 -5 -22 -16 -20 -27 3 -14
15 -17 83 -17 68 0 80 3 83 18 3 14 -4 17 -32 17 -36 0 -36 0 -21 23 14 21 12
37 -4 37 -3 0 -19 -9 -36 -21z"/>
<path d="M5014 8172 c-40 -28 -59 -179 -29 -232 12 -22 11 -27 -2 -42 -17 -19
-10 -38 14 -38 11 0 13 -5 7 -17 -36 -83 5 -185 88 -221 40 -17 74 16 93 88
27 100 12 180 -35 195 -21 7 -20 7 5 31 14 13 24 28 20 33 -3 5 -1 12 5 16 16
10 12 80 -6 119 -18 36 -49 56 -89 56 -14 0 -25 5 -25 10 0 12 -30 13 -46 2z
m113 -75 c9 -8 17 -35 20 -59 5 -40 2 -47 -27 -71 -66 -56 -117 -19 -107 78 3
30 9 60 13 66 9 15 82 5 101 -14z m20 -253 c15 -23 15 -33 4 -87 -7 -34 -17
-69 -22 -78 -20 -38 -79 13 -94 81 -3 14 1 43 10 63 14 33 18 36 35 27 16 -9
22 -8 26 5 9 22 21 19 41 -11z"/>
<path d="M4461 8133 c-9 -24 -18 -74 -20 -123 -2 -31 -17 -43 -38 -30 -16 11
-24 9 -47 -5 -37 -24 -47 -55 -37 -110 11 -57 36 -95 72 -108 34 -13 35 -21
14 -155 -15 -100 -12 -125 14 -120 16 3 22 34 36 188 7 75 9 78 42 91 14 5 21
14 17 21 -4 7 -3 8 4 4 16 -10 58 20 82 59 28 45 26 90 -6 122 -22 22 -32 25
-70 20 -40 -4 -44 -3 -44 17 0 12 7 48 15 80 8 32 13 62 9 67 -11 18 -32 9
-43 -18z m114 -214 c3 -10 2 -27 -4 -37 -12 -23 -78 -82 -91 -82 -23 0 -4 138
19 142 33 7 70 -5 76 -23z m-161 15 c12 -5 16 -21 16 -75 0 -38 -2 -69 -4 -69
-51 0 -91 115 -48 139 21 13 17 12 36 5z"/>
<path d="M4747 8113 c-14 -25 -29 -227 -23 -326 5 -92 10 -115 26 -131 35 -35
61 17 30 59 -16 22 -21 147 -9 246 17 144 17 153 -3 157 -9 2 -18 -1 -21 -5z"/>
<path d="M3284 7976 c-36 -36 -45 -80 -19 -89 15 -6 28 7 31 31 3 20 35 52 51
52 44 0 36 -113 -14 -178 -30 -40 -21 -55 34 -56 34 -1 38 -3 35 -26 -4 -39
-54 -94 -88 -98 -41 -5 -53 -20 -30 -37 53 -39 166 63 166 149 0 16 -10 33
-29 47 -27 20 -28 22 -15 57 49 137 -34 236 -122 148z"/>
<path d="M3051 7986 c-10 -12 -8 -21 10 -45 22 -29 23 -40 22 -186 -1 -119 2
-157 12 -165 8 -7 19 -9 25 -5 14 8 14 262 0 270 -7 4 -7 11 -2 18 14 18 -10
98 -34 114 -18 12 -23 11 -33 -1z"/>
<path d="M3942 7979 c-26 -10 -39 -36 -24 -51 6 -6 20 -5 40 6 41 21 64 20 96
-5 17 -14 26 -30 26 -50 0 -47 -30 -108 -61 -124 -32 -17 -53 -50 -45 -71 7
-18 40 -18 56 1 13 16 40 21 40 8 1 -16 51 -64 70 -68 30 -6 24 18 -18 72
l-39 48 18 40 c20 46 24 91 8 101 -8 4 -7 9 2 15 18 11 -7 56 -41 74 -30 15
-93 17 -128 4z"/>
<path d="M2073 7898 c-9 -18 -32 -63 -50 -100 -23 -50 -38 -68 -52 -68 -11 0
-22 -6 -24 -12 -4 -10 -6 -10 -6 0 -1 8 -17 12 -46 12 -39 0 -46 -4 -59 -28
-35 -68 -32 -193 7 -238 l22 -25 -35 -73 c-55 -112 -66 -152 -49 -172 12 -15
17 -12 50 26 34 39 41 70 18 70 -5 0 -1 17 10 38 10 20 19 39 19 42 0 3 6 17
12 32 11 23 50 43 75 39 12 -3 72 33 98 58 65 60 78 133 31 182 -15 15 -31 26
-36 23 -26 -16 -14 37 26 120 25 52 46 97 46 100 0 3 -9 6 -20 6 -12 0 -26
-13 -37 -32z m-133 -283 c-16 -36 -30 -73 -32 -82 -4 -22 -27 -48 -35 -40 -11
11 -23 99 -17 126 14 62 13 61 64 61 l49 0 -29 -65z m123 37 c9 -8 17 -24 17
-34 0 -49 -64 -119 -122 -133 l-28 -7 42 100 c43 105 49 110 91 74z"/>
<path d="M2370 7908 c-54 -20 -82 -77 -44 -92 21 -8 34 1 34 24 0 20 29 35 42
22 11 -11 -28 -121 -53 -148 -25 -27 -18 -44 20 -44 27 0 61 -26 61 -47 0 -37
-122 -120 -161 -110 -10 3 -24 -2 -31 -10 -10 -12 -9 -18 6 -29 43 -31 175 37
212 108 21 41 17 69 -16 103 l-30 31 20 59 c11 32 20 70 20 85 0 42 -37 64
-80 48z"/>
<path d="M3642 7591 c-22 -13 -11 -66 13 -66 16 0 20 7 20 34 0 36 -11 46 -33
32z"/>
<path d="M5614 7539 c-3 -6 -1 -16 5 -22 6 -6 11 -22 11 -36 0 -29 -46 -111
-63 -111 -7 0 -34 9 -62 19 -35 13 -51 25 -53 40 -2 12 1 21 7 21 6 0 11 9 11
21 0 30 -40 21 -59 -13 -26 -46 -6 -79 61 -103 31 -11 59 -23 63 -27 4 -3 -1
-18 -10 -31 -9 -14 -19 -47 -21 -74 -5 -42 -2 -52 23 -79 33 -37 82 -64 117
-64 15 0 34 12 51 32 24 28 27 39 23 86 -4 47 -10 58 -52 101 l-48 49 25 43
c35 62 42 104 23 134 -17 26 -40 32 -52 14z m19 -267 c20 -20 39 -52 43 -70 9
-42 -16 -80 -50 -78 -13 0 -23 2 -21 4 2 2 -13 18 -33 36 -36 33 -36 34 -23
76 12 40 29 69 41 70 3 0 23 -17 43 -38z"/>
<path d="M2597 7523 c-22 -40 -6 -106 21 -89 18 11 15 96 -2 96 -8 0 -17 -3
-19 -7z"/>
<path d="M5245 7350 c-3 -5 -1 -47 5 -92 20 -156 46 -238 75 -238 22 0 27 17
12 47 -20 40 -35 107 -42 193 -6 71 -17 100 -36 100 -4 0 -11 -4 -14 -10z"/>
<path d="M4997 7334 c-4 -4 -7 -22 -7 -39 0 -18 -3 -47 -6 -64 -5 -24 -9 -29
-20 -20 -19 15 -58 7 -62 -13 -2 -13 3 -18 18 -18 18 0 21 -4 16 -22 -3 -13
-9 -53 -12 -89 -7 -71 3 -104 35 -114 13 -4 20 -19 24 -53 8 -65 26 -102 50
-102 16 0 18 5 13 28 -28 114 -28 116 -4 132 71 48 110 127 88 179 -11 28 -57
61 -84 61 -12 0 -16 14 -18 67 -3 61 -14 84 -31 67z m72 -184 c13 0 18 -10 19
-40 2 -33 -3 -46 -32 -77 l-35 -38 -2 40 c-1 22 -1 43 -1 46 1 4 2 23 4 43 1
26 6 35 16 31 7 -3 21 -5 31 -5z m-78 -35 c7 19 8 19 8 -2 1 -12 -3 -25 -9
-28 -5 -3 -10 -25 -10 -48 -1 -34 -3 -39 -11 -24 -7 11 -8 38 -3 70 4 30 10
44 12 32 l5 -20 8 20z"/>
<path d="M4498 7165 c-37 -25 -55 -56 -43 -75 10 -16 37 -11 42 8 4 18 51 52
71 52 19 0 42 -31 42 -57 0 -14 -23 -83 -51 -153 -42 -106 -49 -132 -39 -149
6 -12 18 -21 28 -21 9 1 73 20 142 43 84 29 125 47 125 57 0 10 -10 15 -30 14
-39 -2 -125 -34 -125 -46 0 -5 -4 -6 -10 -3 -5 3 -26 1 -47 -4 -20 -6 -38 -9
-40 -8 -1 2 18 53 42 114 54 134 59 190 20 228 -32 33 -79 33 -127 0z"/>
<path d="M3693 7089 c-48 -30 -46 -75 5 -132 l39 -42 -13 -70 c-16 -81 -12
-103 21 -111 28 -7 56 12 103 69 44 54 42 72 -13 98 -25 12 -45 24 -45 28 0 3
9 40 20 81 25 94 25 100 0 100 -19 0 -29 -23 -46 -108 -8 -39 -16 -40 -43 -6
-28 36 -27 41 14 65 19 12 35 27 35 35 0 21 -40 17 -77 -7z m110 -223 c24 -18
22 -28 -14 -62 l-32 -29 7 40 c3 22 6 46 6 53 0 15 10 15 33 -2z"/>
<path d="M3315 6949 c-28 -34 -30 -62 -3 -67 10 -2 22 8 30 25 19 40 50 41 82
3 23 -28 26 -40 26 -111 l0 -78 -30 5 c-25 6 -31 3 -40 -20 -11 -31 -13 -76
-4 -100 7 -18 49 -22 59 -6 4 6 16 -4 29 -22 29 -44 65 -48 117 -14 39 26 50
51 27 59 -7 2 -29 -7 -48 -20 -19 -12 -38 -23 -42 -23 -4 0 -17 18 -28 39 -15
31 -18 46 -10 65 17 45 23 149 11 193 -27 98 -121 136 -176 72z m175 -149 c0
-5 -2 -10 -4 -10 -3 0 -8 5 -11 10 -3 6 -1 10 4 10 6 0 11 -4 11 -10z m-79
-153 c-10 -9 -11 -8 -5 6 3 10 9 15 12 12 3 -3 0 -11 -7 -18z"/>
<path d="M2715 6861 c-29 -18 -42 -48 -27 -63 8 -8 21 -3 43 16 63 54 75 12
25 -89 -42 -86 -44 -99 -13 -92 75 19 77 20 77 4 0 -61 -123 -183 -146 -146
-8 14 -34 -10 -34 -32 0 -47 78 -27 146 37 50 47 74 91 74 137 0 39 -15 57
-46 57 l-23 0 20 45 c26 59 28 114 4 131 -23 17 -67 15 -100 -5z"/>
<path d="M2395 6848 c-5 -13 -45 -208 -45 -219 0 -3 -14 -6 -32 -6 -24 0 -39
-8 -60 -33 -63 -76 -73 -170 -24 -240 l22 -33 -30 -99 c-29 -94 -29 -99 -13
-116 17 -16 19 -16 37 8 12 15 15 29 10 35 -6 7 -1 37 12 78 22 67 22 67 59
67 49 0 91 35 123 105 43 89 32 158 -31 196 -25 16 -32 26 -28 42 16 71 45
212 45 219 0 13 -40 9 -45 -4z m-62 -310 c-6 -7 -21 -48 -34 -92 -20 -70 -24
-76 -36 -60 -14 20 -17 101 -5 122 10 14 75 52 81 46 2 -2 -1 -9 -6 -16z m86
-4 c12 -15 21 -37 21 -49 0 -37 -53 -129 -83 -143 -32 -16 -51 -8 -38 16 4 9
11 30 15 46 6 23 4 27 -8 23 -9 -4 -16 -2 -16 3 0 6 9 10 20 10 13 0 20 7 20
20 0 10 4 29 9 42 5 13 12 31 15 41 8 24 21 21 45 -9z"/>
<path d="M4100 6714 c-10 -11 -11 -20 -3 -32 17 -27 38 -20 38 12 0 34 -16 44
-35 20z"/>
<path d="M2999 6483 c-7 -18 -7 -34 -1 -43 13 -21 36 -19 41 5 2 11 10 25 19
31 20 15 7 34 -24 34 -18 0 -27 -8 -35 -27z"/>
<path d="M1775 6309 c-22 -5 -57 -11 -77 -14 -29 -5 -38 -11 -38 -26 0 -23 27
-36 43 -20 6 6 28 11 49 11 47 0 90 19 86 38 -4 20 -14 21 -63 11z"/>
<path d="M2966 5911 c-9 -14 3 -39 21 -46 24 -9 37 9 24 34 -12 22 -36 28 -45
12z"/>
<path d="M3282 5898 c5 -34 38 -37 38 -4 0 20 -5 26 -21 26 -15 0 -20 -5 -17
-22z"/>
<path d="M4213 5913 c-18 -7 -16 -38 2 -53 13 -10 20 -8 41 13 14 14 23 31 19
37 -6 10 -40 12 -62 3z"/>
<path d="M2986 5825 c3 -14 2 -25 -2 -25 -5 0 -69 10 -142 22 -119 19 -141 20
-207 9 -40 -6 -86 -14 -102 -17 -15 -2 -42 -6 -60 -9 -32 -6 -51 -31 -34 -48
6 -6 20 -6 38 1 15 6 54 13 86 17 31 4 57 10 57 13 0 4 21 5 47 3 33 -2 52 -9
61 -22 7 -11 17 -17 21 -15 4 3 16 -33 25 -80 29 -148 58 -193 90 -141 9 14 7
21 -6 31 -15 11 -58 170 -58 212 0 9 17 8 68 -3 37 -8 82 -13 100 -11 30 4 32
2 32 -30 0 -18 4 -31 9 -27 6 3 15 -5 22 -17 11 -20 10 -22 -3 -10 -14 11 -16
3 -20 -80 -6 -131 14 -153 58 -65 15 28 35 63 46 76 11 15 16 32 13 45 -5 17
-4 18 5 6 9 -13 12 -13 24 3 13 16 14 16 21 -10 4 -15 9 -43 11 -62 2 -19 8
-37 13 -40 6 -4 6 -12 1 -21 -12 -20 7 -50 32 -50 17 0 19 4 14 28 -4 15 -12
56 -17 92 -12 76 -28 114 -50 118 -20 4 -64 -32 -100 -81 l-29 -40 0 49 c0 27
-5 84 -12 127 -11 71 -13 77 -35 77 -20 0 -22 -4 -17 -25z"/>
<path d="M3474 5758 c-35 -38 -54 -71 -54 -92 0 -10 -7 -24 -16 -31 -15 -11
-15 -15 4 -57 29 -67 72 -84 131 -53 30 15 55 62 49 91 -4 24 -44 44 -85 44
-18 0 -33 5 -33 10 0 20 34 62 58 71 29 11 24 33 -9 37 -16 2 -32 -5 -45 -20z
m35 -148 c19 0 31 -5 31 -13 0 -42 -70 -51 -88 -12 -17 38 -15 47 7 35 11 -5
33 -10 50 -10z"/>
<path d="M4233 5724 c-6 -16 3 -111 13 -138 3 -9 15 -16 26 -16 18 0 20 4 14
32 -3 18 -9 56 -13 85 -6 53 -26 72 -40 37z m37 -58 c0 -3 -4 -8 -10 -11 -5
-3 -10 -1 -10 4 0 6 5 11 10 11 6 0 10 -2 10 -4z"/>
<path d="M4433 5705 c-53 -23 -82 -106 -43 -126 8 -4 27 -10 42 -13 18 -4 29
-16 37 -38 15 -42 -4 -58 -66 -58 -45 0 -57 -16 -29 -39 30 -25 145 12 147 47
4 60 -30 120 -72 129 -16 3 -29 11 -29 18 0 15 29 41 55 49 26 7 31 46 7 46
-9 -1 -31 -7 -49 -15z"/>
<path d="M3285 5620 c-9 -14 5 -81 21 -107 28 -45 62 -20 37 27 -7 14 -13 34
-13 46 0 32 -31 56 -45 34z"/>
<path d="M4985 5004 c-63 -23 -80 -46 -80 -107 1 -74 13 -124 32 -131 29 -12
35 9 20 80 -17 82 -11 99 41 115 20 6 46 17 57 25 17 13 18 16 5 24 -19 12
-26 12 -75 -6z"/>
<path d="M4707 4949 c-59 -34 -70 -190 -16 -220 30 -15 82 -3 109 26 33 36 15
52 -33 29 -19 -9 -42 -14 -51 -11 -23 9 -20 37 5 37 23 0 60 18 71 34 14 20 8
73 -9 88 -25 22 -55 29 -76 17z m50 -55 c7 -19 -21 -44 -50 -44 -17 0 -17 2 3
30 24 34 38 38 47 14z"/>
<path d="M4502 4929 c-8 -12 -16 -46 -19 -75 -7 -61 -13 -63 -20 -7 -6 44 -16
58 -37 50 -30 -12 17 -159 64 -202 35 -32 44 -7 41 106 -3 98 -2 101 18 94 26
-8 39 18 21 40 -18 22 -53 18 -68 -6z"/>
<path d="M4208 4867 c-35 -40 -37 -91 -5 -138 46 -68 115 -31 124 68 9 94 -63
136 -119 70z m68 -103 c-8 -31 -30 -31 -44 1 -18 39 -15 50 16 61 24 9 27 7
30 -14 2 -14 1 -35 -2 -48z"/>
<path d="M2593 4860 c-43 -26 -63 -68 -63 -131 0 -46 4 -55 35 -85 39 -36 98
-53 125 -36 13 8 21 7 29 -1 8 -8 11 -5 11 11 0 18 -6 22 -34 22 -70 0 -126
39 -126 88 0 40 23 83 52 98 27 14 31 14 48 -1 20 -18 40 -13 40 9 0 20 -34
46 -61 46 -13 0 -38 -9 -56 -20z"/>
<path d="M3253 4845 c-52 -37 -61 -170 -12 -195 25 -14 36 9 19 40 -17 31 -4
90 27 122 38 40 12 65 -34 33z"/>
<path d="M3074 4825 c-31 -48 6 -175 52 -175 25 0 27 27 3 59 -21 28 -24 47
-17 110 4 34 -17 37 -38 6z"/>
<path d="M2889 4823 c-54 -8 -91 -82 -75 -147 8 -32 51 -35 88 -6 l25 19 22
-29 c14 -19 31 -30 46 -30 28 0 35 27 10 37 -36 13 -59 105 -34 130 24 24 -15
36 -82 26z m21 -53 c0 -20 -29 -68 -45 -73 -20 -8 -20 15 0 53 15 29 45 42 45
20z"/>
<path d="M3417 4824 c-9 -10 4 -95 20 -126 9 -19 21 -28 38 -28 24 0 25 -2 19
-42 -3 -24 -14 -80 -24 -125 -15 -71 -16 -84 -3 -94 20 -18 28 -4 46 86 28
131 35 183 33 248 -1 50 -4 62 -18 65 -15 3 -18 -4 -18 -47 0 -38 -4 -51 -14
-51 -20 0 -27 13 -35 68 -6 44 -25 64 -44 46z"/>
<path d="M1873 4788 c-50 -54 -67 -148 -34 -186 40 -47 107 -17 146 64 l17 36
18 -29 c26 -43 70 -74 99 -71 37 5 35 21 -7 43 -28 15 -45 37 -73 90 l-35 69
-55 4 c-47 2 -58 -1 -76 -20z m77 -33 c30 -36 -40 -154 -74 -126 -15 13 -18
71 -3 71 4 0 7 6 7 13 0 19 29 57 44 57 8 0 19 -7 26 -15z"/>
<path d="M9802 11223 c1054 -2 2782 -2 3840 0 1058 1 195 2 -1917 2 -2112 0
-2977 -1 -1923 -2z"/>
<path d="M9797 10533 c1057 -2 2789 -2 3850 0 1060 1 196 2 -1922 2 -2117 0
-2985 -1 -1928 -2z"/>
<path d="M12135 10382 c-33 -8 -61 -19 -63 -23 -2 -4 -9 -6 -16 -3 -16 6 -235
-60 -287 -87 -39 -19 -51 -45 -25 -55 7 -3 28 4 47 14 19 11 66 30 104 42 39
12 77 24 85 27 8 3 22 7 29 9 63 12 151 37 151 43 0 3 16 6 35 7 41 1 48 5 39
28 -7 19 -20 19 -99 -2z"/>
<path d="M8180 10353 c-11 -15 -18 -34 -15 -42 3 -8 3 -12 -1 -8 -4 4 -26 -30
-49 -75 -22 -46 -57 -112 -77 -148 -27 -48 -35 -69 -27 -80 8 -13 13 -11 34
13 14 15 28 40 31 55 4 15 11 32 15 38 10 13 127 40 135 31 3 -3 9 -31 13 -62
4 -31 14 -60 21 -65 10 -6 9 -9 -1 -14 -8 -3 -5 -5 6 -3 21 3 24 24 14 112 -4
39 -3 40 34 46 47 7 66 24 49 41 -8 8 -21 9 -46 1 -19 -6 -38 -8 -44 -4 -5 3
-15 43 -21 89 -6 46 -13 88 -16 93 -11 17 -33 9 -55 -18z m34 -114 l6 -57 -39
-4 c-34 -3 -37 -1 -32 17 8 27 52 108 55 103 2 -1 6 -28 10 -59z"/>
<path d="M13550 10332 c0 -9 5 -33 11 -52 6 -19 10 -69 10 -110 0 -41 2 -83 5
-92 9 -31 32 -19 52 26 11 24 24 46 30 50 6 4 31 -13 55 -36 64 -63 88 -73
123 -56 42 19 38 43 -7 43 -36 0 -82 30 -121 81 -22 27 -50 31 -68 9 -17 -20
-25 -12 -28 27 -4 69 -25 128 -44 128 -10 0 -18 -7 -18 -18z"/>
<path d="M13217 10287 c-3 -8 -2 -20 3 -27 11 -18 42 -4 38 17 -4 22 -34 29
-41 10z"/>
<path d="M8425 10208 c-88 -60 -86 -90 6 -121 30 -10 61 -25 69 -33 13 -14 13
-17 -4 -30 -11 -8 -35 -14 -53 -14 -22 0 -33 -5 -33 -15 0 -21 35 -36 67 -29
52 12 73 32 73 69 0 45 -26 71 -85 86 -25 6 -48 15 -50 19 -3 5 18 22 46 39
48 30 59 53 27 59 -8 1 -36 -12 -63 -30z"/>
<path d="M11978 10223 c-2 -5 -4 -67 -3 -140 l0 -131 -80 -17 c-44 -9 -90 -18
-103 -21 -16 -3 -22 -10 -20 -22 3 -13 13 -16 48 -14 57 3 217 44 310 78 l71
27 -3 36 c-2 25 -8 37 -20 39 -13 2 -18 -3 -18 -17 0 -22 -36 -66 -42 -51 -2
5 -20 0 -42 -11 -21 -10 -42 -16 -46 -14 -14 8 -17 78 -8 145 10 71 0 120 -26
120 -8 0 -16 -3 -18 -7z"/>
<path d="M13383 10198 c-30 -22 -63 -74 -63 -102 0 -19 41 -54 73 -61 43 -11
42 -25 -2 -25 -34 0 -41 -3 -41 -19 0 -36 51 -41 110 -11 30 15 40 26 40 45 0
21 -8 27 -62 43 -35 11 -64 26 -66 34 -4 21 36 68 59 68 15 0 20 6 17 22 -4
31 -27 33 -65 6z"/>
<path d="M10317 10180 c-26 -16 -50 -37 -53 -45 -7 -18 23 -68 36 -60 6 4 10
2 10 -4 0 -5 15 -15 34 -22 63 -23 69 -84 9 -91 -39 -4 -39 -42 0 -46 37 -4
87 45 87 86 0 34 -44 79 -98 101 -18 7 -32 17 -32 20 0 4 18 18 41 30 25 14
39 29 37 39 -5 26 -21 24 -71 -8z"/>
<path d="M10782 10188 c-14 -14 -16 -86 -3 -107 6 -9 5 -23 -1 -36 -13 -29 5
-65 33 -65 35 0 44 41 20 95 -12 26 -21 54 -21 62 0 26 30 25 70 -1 47 -31 70
-33 70 -7 0 43 -136 91 -168 59z"/>
<path d="M9950 10138 c-19 -28 -50 -60 -68 -71 -39 -23 -83 -83 -75 -103 10
-28 42 -13 96 45 l55 60 6 -37 c8 -53 37 -69 79 -44 l32 19 20 -41 c16 -34 26
-42 53 -44 28 -3 32 0 32 22 0 18 -6 25 -22 28 -21 3 -23 8 -22 63 0 33 -4 63
-10 67 -6 4 -33 -14 -60 -40 -48 -45 -50 -46 -59 -24 -8 17 -6 37 6 73 29 93
-8 108 -63 27z"/>
<path d="M10514 10125 c4 -21 2 -42 -6 -54 -13 -21 -9 -31 14 -35 7 -1 29 -19
50 -39 40 -41 53 -45 62 -21 4 10 -5 26 -25 45 -30 28 -31 30 -15 48 21 23 11
49 -28 75 -43 27 -59 22 -52 -19z"/>
<path d="M12851 10144 c-47 -15 -62 -29 -54 -51 6 -16 25 -17 41 -1 6 6 25 13
41 14 l30 4 -21 -55 c-23 -60 -19 -98 12 -115 10 -6 49 -11 85 -11 67 -1 110
15 122 47 8 21 -35 104 -53 104 -23 0 -27 -25 -10 -58 22 -43 4 -56 -68 -47
-65 8 -68 16 -36 90 26 60 26 85 1 85 -11 0 -25 2 -33 4 -7 2 -33 -2 -57 -10z"/>
<path d="M9095 10138 c-28 -16 -40 -30 -64 -69 -28 -46 -27 -77 3 -90 33 -15
64 -6 104 31 40 36 42 36 42 7 0 -27 38 -67 63 -67 28 0 30 20 3 45 -14 13
-26 28 -27 32 -3 30 -11 48 -34 78 -14 19 -30 35 -35 35 -4 0 -14 2 -22 5 -7
2 -22 -1 -33 -7z m41 -49 c7 -12 -44 -69 -63 -69 -21 0 -15 22 14 52 29 30 38
34 49 17z"/>
<path d="M13207 10063 c-4 -3 -7 -30 -7 -59 0 -53 16 -74 39 -51 12 12 15 75
5 101 -6 16 -26 21 -37 9z"/>
<path d="M7982 9983 c-12 -21 -7 -53 8 -53 15 0 34 31 23 38 -5 4 -12 14 -15
22 -4 12 -7 10 -16 -7z"/>
<path d="M9797 9843 c1057 -2 2789 -2 3850 0 1060 1 196 2 -1922 2 -2117 0
-2985 -1 -1928 -2z"/>
<path d="M8364 9715 c-4 -9 -3 -44 0 -78 6 -53 10 -63 27 -63 17 0 19 7 18 61
-1 33 -3 68 -6 78 -5 21 -32 23 -39 2z"/>
<path d="M11215 9710 c-3 -5 1 -43 10 -84 21 -104 21 -105 -24 -123 -43 -17
-60 -40 -36 -50 9 -3 29 0 46 7 16 7 32 10 36 7 3 -4 10 -47 16 -97 6 -49 14
-90 17 -90 4 0 5 -11 2 -25 -5 -30 13 -56 34 -48 11 4 14 13 9 32 -4 14 -9 53
-11 86 -2 33 -9 82 -14 109 -6 27 -7 53 -3 57 5 4 42 18 83 31 52 16 76 29 78
41 2 12 -4 17 -19 17 -27 0 -99 -21 -99 -29 0 -3 -13 -7 -28 -8 -28 -2 -29 0
-41 75 -12 74 -24 102 -42 102 -4 0 -11 -4 -14 -10z"/>
<path d="M10664 9666 c-6 -15 45 -226 73 -301 20 -53 45 -77 64 -58 8 8 7 17
-4 34 -9 13 -28 67 -43 119 -14 52 -29 99 -32 104 -3 5 -6 24 -8 43 -2 19 -6
43 -9 54 -7 22 -33 25 -41 5z"/>
<path d="M8451 9579 c-25 -11 -51 -17 -58 -15 -8 3 -17 -4 -23 -18 -5 -15 -35
-39 -74 -61 -70 -39 -77 -48 -48 -64 13 -7 29 -1 67 25 28 18 53 34 56 34 4 0
17 -37 29 -82 27 -102 35 -118 60 -118 21 0 27 27 12 46 -5 5 -19 46 -32 92
-27 97 -25 101 56 131 56 22 72 51 27 51 -15 0 -48 -9 -72 -21z"/>
<path d="M10466 9538 c-14 -13 -27 -29 -28 -37 -2 -8 -10 -22 -19 -31 -9 -10
-19 -34 -23 -55 -4 -21 -20 -49 -36 -65 -34 -34 -31 -54 11 -69 21 -7 29 -16
29 -34 0 -14 3 -39 6 -56 l7 -32 -492 3 -493 3 -29 33 c-23 26 -29 41 -29 80
0 53 12 72 46 72 16 0 25 -9 33 -31 7 -21 16 -29 28 -27 14 3 17 11 15 38 -5
46 -24 64 -66 64 -82 0 -121 -62 -97 -152 7 -26 19 -55 28 -64 15 -17 -19 -18
-728 -21 l-744 -2 750 -3 c628 -2 754 -5 775 -17 34 -19 114 -19 134 0 12 13
75 15 441 15 l425 0 10 -26 c12 -30 34 -27 38 4 l3 22 2552 3 2552 2 -2550 3
-2551 2 -11 54 c-11 53 -7 109 6 87 5 -8 13 -7 26 2 27 20 10 40 -28 33 l-30
-6 7 47 c7 51 50 133 69 133 17 0 32 -12 44 -35 13 -22 -4 -63 -40 -102 -17
-19 -18 -25 -7 -38 12 -14 17 -12 46 19 61 64 63 136 6 183 -34 28 -55 29 -86
1z"/>
<path d="M8592 9514 c-13 -9 -21 -22 -18 -29 3 -8 0 -15 -7 -18 -15 -5 7 -104
30 -129 25 -28 47 -22 87 22 28 31 36 48 36 79 0 73 -71 115 -128 75z m72 -40
c9 -8 16 -24 16 -33 0 -20 -36 -71 -50 -71 -4 0 -13 21 -19 47 -11 42 -10 49
5 60 23 17 29 16 48 -3z"/>
<path d="M10904 9476 c-19 -19 -34 -44 -34 -57 0 -30 35 -88 58 -96 9 -3 29
-15 44 -25 14 -10 40 -18 58 -18 39 0 90 26 90 45 0 22 -40 19 -41 -2 0 -11
-3 -13 -6 -6 -3 8 -14 11 -27 7 -21 -5 -116 39 -116 55 0 4 12 8 28 9 56 4 96
89 53 112 -37 19 -72 11 -107 -24z m76 -26 c0 -4 -13 -13 -30 -19 -35 -12 -40
1 -8 23 21 15 38 13 38 -4z"/>
<path d="M11575 9460 c-10 -11 -19 -28 -20 -38 -1 -9 -6 -25 -10 -35 -11 -26
2 -88 22 -107 10 -9 40 -25 66 -34 41 -15 57 -16 115 -7 118 20 122 21 122 42
0 23 -15 23 -116 5 -63 -11 -77 -11 -115 4 -24 10 -46 25 -47 35 -3 14 -1 15
17 5 24 -12 54 -1 69 27 20 35 -29 123 -68 123 -9 0 -25 -9 -35 -20z m55 -49
c20 -39 9 -52 -24 -28 -11 8 -15 19 -10 30 8 22 21 22 34 -2z"/>
<path d="M10157 9428 c-8 -13 -21 -36 -29 -52 l-15 -28 -13 31 c-26 63 -77 65
-130 5 -23 -27 -34 -34 -40 -24 -4 7 -14 11 -21 8 -17 -7 -18 -153 -2 -169 17
-17 33 -2 33 30 0 30 56 129 82 145 24 15 38 -2 45 -53 11 -82 45 -77 92 16
l27 54 28 -60 c28 -61 52 -82 63 -55 8 21 -68 168 -89 172 -9 2 -23 -7 -31
-20z"/>
<path d="M9697 9353 c-10 -10 -8 -78 2 -106 11 -29 69 -52 106 -43 29 7 52 65
36 94 -6 10 -37 29 -69 40 -66 25 -66 25 -75 15z m101 -86 c6 -30 -47 -22 -58
9 -14 35 -14 36 23 21 17 -7 33 -21 35 -30z"/>
<path d="M8346 9103 c-3 -4 -6 -13 -6 -21 0 -7 -13 -47 -29 -87 -32 -80 -32
-118 2 -113 15 2 20 12 22 38 1 19 12 54 23 77 25 48 29 98 8 106 -8 3 -17 3
-20 0z"/>
<path d="M8421 9057 c-6 -6 -11 -19 -11 -28 0 -9 -7 -34 -16 -54 -12 -30 -13
-44 -5 -62 15 -32 47 -27 44 7 -1 14 5 45 13 69 8 25 14 50 14 57 0 17 -25 25
-39 11z"/>
<path d="M12616 8941 c-3 -5 -1 -44 4 -87 5 -44 12 -101 15 -129 8 -74 15
-105 36 -151 24 -53 40 -66 81 -62 42 4 45 32 5 36 -48 6 -76 94 -91 295 -7
86 -30 131 -50 98z"/>
<path d="M14028 8904 c-21 -13 -38 -32 -38 -42 0 -26 37 -56 93 -77 79 -30 74
-43 -25 -72 -57 -16 -75 -37 -43 -49 27 -11 155 36 172 62 14 21 14 26 0 47
-8 13 -45 36 -82 51 -68 29 -71 36 -23 60 12 6 23 18 23 26 0 24 -37 21 -77
-6z"/>
<path d="M9049 8910 c-56 -10 -92 -27 -84 -41 4 -5 1 -9 -4 -9 -6 0 -11 5 -11
10 0 15 -88 -47 -100 -71 -11 -20 -6 -39 11 -39 6 0 24 13 40 29 83 84 272
112 368 55 16 -9 40 -35 55 -57 37 -57 35 -108 -6 -177 -36 -58 -127 -140
-158 -140 -21 0 -35 36 -45 116 -7 57 -37 114 -59 114 -23 0 -24 -22 -4 -55
10 -16 18 -43 18 -58 0 -36 20 -118 33 -134 5 -7 14 -10 20 -6 6 3 7 1 3 -5
-8 -13 -97 -47 -148 -56 -39 -7 -58 4 -84 49 -6 11 -15 15 -22 11 -21 -13 -13
-47 19 -78 28 -29 33 -30 87 -25 79 8 221 80 298 151 62 56 121 153 111 180
-3 8 -1 16 4 18 18 6 -2 77 -35 126 -41 62 -101 92 -192 97 -38 2 -90 0 -115
-5z"/>
<path d="M10699 8894 c-11 -14 -10 -18 5 -29 21 -16 46 -9 46 11 0 23 -36 36
-51 18z"/>
<path d="M13441 8850 c-47 -47 -38 -90 24 -110 46 -15 59 -55 25 -82 -28 -22
-48 -23 -71 -2 -20 18 -49 13 -49 -8 0 -7 16 -24 35 -36 30 -21 38 -23 68 -13
54 18 77 46 77 92 0 30 -6 46 -26 64 -15 14 -33 25 -40 25 -7 0 -16 5 -19 10
-10 17 15 40 42 40 20 0 24 4 21 23 -5 36 -49 35 -87 -3z"/>
<path d="M13209 8838 c-59 -41 -47 -111 23 -128 12 -3 23 -10 24 -15 4 -14
-44 -48 -70 -49 -14 -1 -21 -8 -21 -21 0 -54 136 11 143 68 3 27 -28 57 -59
57 -22 0 -40 23 -30 39 5 7 19 18 32 25 27 13 32 39 8 44 -8 1 -31 -8 -50 -20z"/>
<path d="M13723 8839 c-54 -10 -100 -34 -113 -58 -5 -11 -10 -41 -10 -66 0
-40 5 -52 34 -81 28 -28 42 -34 76 -34 24 0 39 4 35 10 -3 6 1 7 9 4 20 -8
106 42 106 61 0 20 -11 19 -82 -11 -71 -30 -98 -26 -128 15 l-20 30 27 -1 c49
-1 115 23 145 52 31 32 33 39 16 62 -18 22 -45 27 -95 17z m57 -45 c0 -11 -92
-45 -107 -40 -20 8 -1 33 30 39 35 7 77 8 77 1z"/>
<path d="M9983 8833 c-19 -7 -16 -31 6 -42 21 -12 31 -5 31 20 0 18 -18 29
-37 22z"/>
<path d="M9798 8788 c-54 -38 -69 -58 -61 -86 7 -27 51 -42 102 -35 22 3 52 2
67 -1 24 -6 25 -8 10 -25 -9 -10 -16 -23 -16 -29 0 -6 -8 -11 -17 -11 -10 0
-36 -4 -58 -8 -31 -6 -40 -13 -40 -28 0 -13 8 -21 23 -23 27 -4 82 16 82 29 0
5 6 9 14 9 8 0 28 11 44 25 l30 25 10 -30 c14 -38 52 -43 52 -6 0 13 -7 26
-15 30 -8 3 -15 9 -14 13 4 23 -6 33 -52 53 -39 16 -64 21 -104 17 -91 -8 -91
1 4 72 24 17 22 41 -2 41 -7 0 -33 -14 -59 -32z"/>
<path d="M11124 8792 c-18 -13 -44 -79 -44 -115 0 -24 9 -46 26 -67 30 -35 48
-35 116 0 l36 19 34 -42 c18 -23 46 -61 61 -84 l27 -42 -38 -11 c-20 -5 -43
-10 -49 -10 -7 0 -13 -5 -13 -11 0 -5 -5 -7 -10 -4 -16 10 -79 -34 -86 -60
-15 -61 77 -145 159 -145 28 0 42 8 71 40 40 45 50 72 44 130 -4 41 0 45 43
41 20 -2 43 25 34 40 -5 7 -24 9 -56 5 -48 -7 -49 -6 -76 34 -77 114 -175 220
-204 220 -23 0 -26 -35 -4 -44 24 -9 17 -36 -12 -47 -35 -13 -49 -7 -57 26 -5
18 0 41 14 71 25 51 17 79 -16 56z m291 -392 c11 -34 -6 -87 -36 -116 l-29
-28 -47 20 c-28 11 -54 30 -63 46 -13 25 -13 29 2 44 9 10 48 25 85 35 86 22
81 23 88 -1z"/>
<path d="M12185 8785 c-42 -21 -93 -82 -107 -127 -15 -52 2 -110 42 -138 51
-36 175 -48 279 -26 30 7 35 12 28 29 -4 11 -28 13 -114 9 -90 -4 -116 -1
-146 13 -67 32 -65 115 5 179 30 28 33 28 110 22 72 -6 78 -5 78 13 0 35 -120
53 -175 26z"/>
<path d="M12883 8773 c-8 -3 -13 -23 -13 -51 0 -86 60 -144 111 -109 16 11 28
13 46 6 43 -16 65 -12 61 14 -2 16 -11 23 -30 25 -22 3 -27 8 -25 25 1 16 -4
23 -20 25 -15 2 -23 -2 -23 -11 0 -16 -31 -47 -47 -47 -16 0 -36 57 -29 84 6
25 -10 46 -31 39z"/>
<path d="M9490 8710 c-31 -29 -32 -32 -26 -91 6 -65 21 -91 68 -115 29 -15 78
-19 78 -6 0 4 13 7 30 8 34 1 60 19 60 41 0 12 -7 14 -27 8 -66 -17 -114 -17
-138 -1 -14 9 -25 23 -25 31 0 8 -8 15 -17 16 -11 0 -13 3 -5 6 6 2 12 15 12
28 0 23 34 65 52 65 13 0 10 -9 -13 -40 -21 -27 -20 -60 0 -60 11 0 71 83 71
99 0 19 -32 41 -60 41 -17 0 -40 -11 -60 -30z"/>
<path d="M10436 8731 c-7 -11 12 -107 26 -133 13 -26 30 -22 63 12 16 17 31
30 34 30 3 0 14 -14 23 -31 14 -24 23 -30 45 -27 37 4 43 35 10 47 -13 5 -30
23 -37 40 -17 42 -50 41 -83 -1 l-25 -32 -8 40 c-9 54 -33 80 -48 55z"/>
<path d="M10871 8704 c-22 -28 -28 -78 -11 -89 16 -10 40 15 40 42 0 25 25 42
41 26 5 -5 12 -33 16 -62 6 -55 12 -64 36 -55 21 8 29 44 10 44 -8 0 -11 5 -8
11 10 16 -4 76 -21 94 -25 25 -79 19 -103 -11z"/>
<path d="M10217 8692 c-35 -22 -41 -41 -27 -92 12 -45 28 -57 58 -41 16 8 25
4 54 -27 37 -40 78 -102 78 -120 0 -7 -21 -11 -54 -10 -65 2 -99 -17 -124 -68
-15 -32 -15 -38 -1 -62 20 -37 97 -77 131 -69 67 17 117 99 105 173 -9 54 -47
125 -93 174 l-45 48 18 36 c13 28 15 41 7 54 -15 23 -72 25 -107 4z m63 -32
c0 -5 -5 -10 -11 -10 -5 0 -7 5 -4 10 3 6 8 10 11 10 2 0 4 -4 4 -10z m110
-329 c0 -38 -35 -81 -66 -81 -38 0 -84 28 -84 50 0 38 35 60 95 60 54 0 55 -1
55 -29z m-40 -95 c0 -3 -4 -8 -10 -11 -5 -3 -10 -1 -10 4 0 6 5 11 10 11 6 0
10 -2 10 -4z"/>
<path d="M10750 8700 c-22 -13 21 -100 50 -100 26 0 25 15 -2 68 -25 46 -26
46 -48 32z"/>
<path d="M12136 8218 c-3 -18 3 -76 14 -128 25 -119 26 -128 35 -220 4 -41 12
-81 17 -87 8 -10 1 -13 -28 -13 -34 0 -46 8 -91 53 -66 67 -147 114 -168 97
-8 -7 -15 -18 -15 -26 0 -17 -40 -55 -51 -48 -5 3 -6 25 -2 49 5 40 4 45 -14
45 -35 0 -46 -97 -14 -129 25 -25 49 -18 96 25 35 31 39 33 63 20 15 -8 43
-30 61 -50 l35 -36 -215 0 -216 0 16 60 c14 55 17 58 32 44 10 -9 23 -29 29
-45 14 -33 44 -39 59 -12 7 13 4 23 -12 39 -12 13 -33 37 -46 54 -18 23 -30
30 -50 28 -23 -3 -29 -12 -49 -73 -12 -38 -20 -75 -17 -82 3 -9 -8 -13 -39
-13 -23 0 -45 2 -48 5 -3 3 1 31 8 63 18 74 17 91 -1 99 -9 3 -18 3 -20 1 -11
-10 -22 -98 -13 -98 5 0 2 -7 -6 -16 -9 -8 -16 -24 -16 -35 0 -17 -8 -19 -75
-19 -74 0 -75 1 -70 23 14 55 -34 103 -135 133 -55 16 -60 30 -18 53 22 13 32
13 66 2 71 -24 86 9 18 39 -50 23 -86 16 -143 -28 -58 -43 -40 -74 68 -111 96
-33 121 -60 83 -92 -13 -10 -22 -10 -51 0 -32 12 -38 11 -48 -3 -11 -15 -68
-16 -631 -14 l-619 3 -18 40 c-48 109 -61 115 -118 59 -36 -35 -39 -36 -39
-16 0 28 37 102 51 102 5 0 24 -7 41 -16 25 -13 32 -14 39 -2 14 21 5 32 -45
53 l-47 19 -25 -27 c-49 -53 -73 -157 -44 -191 15 -19 37 -11 82 32 l37 35 15
-38 c9 -21 16 -41 16 -46 0 -5 -237 -9 -540 -9 l-540 0 0 33 c-1 17 -3 57 -6
88 l-6 55 41 12 c31 10 39 16 35 30 -5 13 -4 14 4 3 5 -7 7 -22 5 -32 -3 -10
-2 -48 2 -84 9 -91 29 -100 89 -44 l45 41 14 -35 c17 -40 34 -54 49 -39 14 14
-19 100 -43 113 -22 11 -70 -10 -92 -41 -7 -11 -16 -18 -18 -16 -5 5 5 157 16
257 6 48 4 68 -5 74 -19 12 -33 -11 -47 -77 -13 -64 -43 -108 -75 -108 -16 0
-18 10 -20 88 -3 143 -2 137 -23 137 -19 0 -20 -6 -16 -122 l3 -123 -27 0
c-17 0 -24 -4 -20 -12 3 -7 -2 -3 -11 10 -18 24 -39 29 -49 11 -13 -20 26 -49
66 -49 44 0 46 -7 41 -107 l-4 -63 -150 0 c-138 0 -149 1 -144 18 12 41 10
134 -4 142 -23 14 -30 2 -30 -51 l0 -50 -26 20 c-37 29 -67 26 -123 -13 l-49
-34 9 38 c5 20 13 50 19 66 6 16 11 30 11 31 0 2 2 9 5 17 3 8 0 24 -6 36 -14
26 -42 22 -107 -16 -51 -29 -75 -53 -68 -65 10 -16 33 -10 81 21 26 16 48 29
50 27 1 -1 -8 -42 -21 -92 l-22 -90 -134 -5 -134 -6 133 -2 c107 -2 134 -5
138 -17 4 -8 14 -15 24 -15 10 0 25 7 34 15 12 13 56 15 266 15 l250 0 10 -26
c12 -30 34 -27 38 4 l3 22 546 0 547 0 25 -30 c20 -23 30 -28 41 -20 12 8 13
13 2 30 l-12 20 632 -4 c777 -6 651 -6 1118 0 217 2 401 1 410 -2 8 -4 19 -6
23 -5 5 1 6 -3 2 -9 -3 -5 -24 -10 -47 -10 -22 0 -54 -7 -72 -15 -45 -22 -108
-75 -103 -89 2 -6 -2 -17 -10 -24 -19 -19 -16 -37 12 -70 30 -36 77 -56 94
-39 8 8 11 7 11 -2 0 -18 79 -8 91 11 5 7 9 9 9 4 0 -17 42 29 56 62 16 40 16
94 -3 146 -7 21 -13 41 -13 43 0 6 317 -4 368 -12 28 -5 48 -3 55 4 8 8 424
12 1507 13 l1495 3 -1487 2 c-1313 3 -1488 5 -1488 18 0 17 -35 21 -45 4 -12
-19 -69 -5 -98 24 -27 27 -41 53 -53 103 l-7 26 32 -17 c43 -22 80 -16 104 17
17 23 19 32 9 52 -23 51 -146 55 -172 6 -24 -45 -6 -139 37 -197 l24 -33 -95
0 c-89 0 -94 1 -89 20 3 11 -2 31 -11 44 -9 15 -12 27 -6 31 5 3 8 18 6 33
-15 119 -19 141 -25 138 -3 -2 -7 10 -8 27 -7 136 -16 187 -33 187 -12 0 -20
-10 -24 -32z m350 -239 c13 -22 -13 -31 -45 -15 -17 9 -31 19 -31 21 0 10 69
5 76 -6z m-436 -143 c0 -3 -4 -8 -10 -11 -5 -3 -10 -1 -10 4 0 6 5 11 10 11 6
0 10 -2 10 -4z m-3771 -32 c23 27 61 21 90 -16 12 -17 9 -18 -53 -18 l-66 0 1
33 c1 28 2 29 8 8 6 -21 8 -22 20 -7z m3841 -134 c14 -21 12 -45 -5 -86 -26
-62 -119 -81 -176 -36 -17 15 -20 24 -15 50 4 17 15 34 24 37 9 3 28 15 42 26
14 11 19 18 13 14 -7 -3 -13 -2 -13 2 0 16 120 9 130 -7z"/>
<path d="M11410 8100 c-11 -7 -12 -14 -4 -27 14 -23 27 -26 49 -9 16 12 17 16
6 30 -15 18 -29 20 -51 6z"/>
<path d="M8467 8026 c-3 -8 0 -20 8 -26 11 -9 16 -7 24 8 6 11 7 22 4 26 -11
11 -31 6 -36 -8z"/>
<path d="M8567 7943 c-3 -5 -7 -33 -11 -63 -7 -60 8 -98 36 -88 11 5 13 22 11
74 -1 38 -3 72 -3 77 0 4 -6 7 -14 7 -8 0 -17 -3 -19 -7z"/>
<path d="M11413 7692 c-9 -6 -10 -25 -2 -79 5 -40 9 -104 7 -144 l-3 -72 -65
-22 c-51 -17 -66 -26 -68 -43 -4 -26 11 -28 59 -8 19 7 45 17 58 21 l24 7 -6
-91 c-6 -85 -5 -91 12 -91 23 0 31 19 31 69 0 21 3 59 6 84 5 37 11 47 31 52
31 7 27 39 -5 43 -23 3 -26 10 -22 50 1 15 -4 22 -17 22 -14 0 -15 2 -4 9 16
11 10 145 -8 180 -13 24 -12 23 -28 13z"/>
<path d="M10431 7627 c-10 -13 3 -97 33 -211 17 -63 23 -206 11 -227 -6 -9
-12 -7 -22 7 -12 17 -14 17 -30 1 -16 -16 -16 -18 4 -38 57 -58 263 -18 263
50 0 10 -9 29 -19 42 -16 20 -28 24 -80 24 l-60 0 -6 45 c-12 90 -32 165 -43
166 -24 3 -27 6 -12 12 13 6 14 18 7 69 -9 61 -26 84 -46 60z m209 -412 c0
-17 -26 -29 -82 -38 -42 -6 -49 5 -21 35 21 24 103 26 103 3z"/>
<path d="M10945 7620 c-8 -12 2 -80 21 -145 7 -27 18 -103 23 -168 11 -125 14
-137 37 -137 21 0 22 49 1 62 -9 6 -8 8 1 8 11 0 12 15 7 68 -8 95 -26 192
-35 192 -4 0 -8 23 -9 52 -2 63 -27 99 -46 68z"/>
<path d="M13681 7602 c-51 -20 -72 -45 -53 -64 9 -9 17 -10 31 -1 16 10 20 6
34 -35 22 -67 28 -132 12 -132 -7 0 -15 -6 -18 -14 -6 -15 11 -36 29 -36 20 0
8 -117 -22 -222 -5 -17 -61 -18 -1000 -18 -547 0 -994 2 -994 5 0 9 76 158
110 215 17 29 29 59 26 66 -12 31 -37 10 -78 -66 l-44 -80 -33 65 c-32 62 -56
80 -67 51 -3 -7 13 -48 35 -90 l41 -76 -22 -45 -22 -45 -1137 0 -1136 0 -7 46
c-9 70 -9 71 27 78 77 14 140 133 110 206 -20 49 -42 70 -74 70 -36 0 -74 -40
-94 -99 -20 -58 -19 -68 5 -74 16 -4 22 4 34 47 9 29 25 61 37 72 21 19 21 19
40 -5 23 -28 24 -59 5 -105 -26 -61 -96 -95 -96 -45 0 13 -7 19 -22 19 -15 0
-29 11 -41 31 -14 26 -20 29 -32 19 -19 -16 -19 -25 1 -45 9 -9 14 -18 11 -21
-3 -3 3 -29 13 -57 10 -29 21 -71 25 -94 l7 -43 -724 -3 -723 -2 728 -3 727
-2 0 -39 c0 -56 16 -93 38 -89 13 3 16 12 14 43 -1 22 -5 50 -7 63 l-5 22
1134 0 1134 0 -35 -81 c-42 -97 -48 -144 -18 -144 15 0 21 8 23 30 2 17 21 67
42 113 l39 82 995 0 996 0 -6 -29 c-4 -17 -1 -32 5 -36 17 -10 43 15 38 36 -7
25 11 29 133 29 l109 0 3 -27 c2 -17 9 -28 18 -28 9 0 16 11 18 28 l3 27 389
0 388 0 -52 -97 c-29 -54 -65 -117 -80 -141 -23 -36 -25 -46 -15 -60 11 -14
11 -15 0 -5 -11 9 -20 2 -46 -35 -29 -41 -31 -49 -19 -62 13 -13 17 -11 39 15
13 17 30 41 37 55 7 14 23 42 36 62 13 20 21 41 18 47 -4 5 -1 13 5 17 8 4 9
3 5 -4 -4 -7 -5 -12 -2 -12 3 0 31 50 61 110 l55 110 373 2 372 3 -367 2
c-203 2 -368 6 -368 9 0 12 65 199 71 204 10 9 29 48 29 62 0 8 -9 14 -20 15
-23 2 -45 -39 -36 -64 3 -8 2 -12 -3 -9 -4 3 -13 -6 -19 -19 -9 -19 -9 -25 1
-25 6 -1 1 -7 -13 -15 -24 -13 -25 -12 -38 30 -13 46 -44 77 -68 68 -21 -8
-17 -50 5 -56 12 -3 22 -18 26 -38 4 -19 12 -45 18 -59 6 -14 11 -42 12 -62
l0 -37 -396 -1 -396 0 -1 35 c-2 60 -78 175 -104 159 -7 -4 -8 -2 -4 4 4 6 -9
21 -29 35 l-35 24 40 18 c53 24 120 97 120 131 0 38 -27 78 -73 108 -35 22
-51 26 -117 25 -45 0 -92 -7 -119 -17z m162 -10 c-9 -5 -1 -12 22 -20 32 -12
85 -63 85 -82 0 -21 -59 -75 -105 -96 -76 -36 -79 -34 -91 45 -6 37 -18 82
-27 99 l-15 31 46 6 c26 3 54 10 62 15 19 11 40 13 23 2z m-5 -314 c26 -18 56
-31 67 -30 16 2 17 1 5 -7 -12 -9 -12 -12 2 -28 25 -29 48 -80 48 -108 l0 -25
-114 0 -114 0 14 39 c7 21 16 73 20 115 4 42 11 76 16 76 5 0 30 -15 56 -32z"/>
<path d="M14344 7433 c-1 -127 3 -190 10 -195 7 -5 6 -8 -4 -8 -10 0 -21 -18
-29 -47 -14 -45 -13 -47 10 -66 29 -23 88 -18 175 15 66 25 89 61 72 110 -27
76 -106 88 -173 27 -20 -18 -20 -17 -20 164 0 174 -1 182 -20 185 -19 3 -20
-3 -21 -185z m26 -133 c0 -5 -2 -10 -4 -10 -3 0 -8 5 -11 10 -3 6 -1 10 4 10
6 0 11 -4 11 -10z m151 -51 c11 -11 19 -28 17 -37 -4 -21 -58 -52 -100 -58
-18 -3 -38 -7 -45 -9 -27 -9 -21 15 17 63 36 44 51 56 83 61 4 0 16 -8 28 -20z"/>
<path d="M10238 7530 c-18 -15 -20 -21 -11 -31 16 -16 63 3 63 25 0 23 -27 26
-52 6z"/>
<path d="M12340 7505 c-5 -14 -13 -44 -16 -66 -6 -35 -4 -39 15 -39 22 0 33
27 35 88 1 43 -20 54 -34 17z"/>
<path d="M12242 7480 c-15 -19 -21 -37 -17 -49 15 -49 61 -21 72 43 5 31 3 36
-13 35 -11 0 -29 -13 -42 -29z"/>
<path d="M12850 7480 c0 -23 26 -38 41 -23 14 14 0 43 -22 43 -12 0 -19 -7
-19 -20z"/>
<path d="M11140 7476 c0 -7 7 -19 15 -26 19 -16 41 1 32 24 -8 20 -47 21 -47
2z"/>
<path d="M10737 7474 c-16 -16 -7 -44 14 -44 15 0 20 5 17 22 -3 22 -19 33
-31 22z"/>
<path d="M9083 7435 c-68 -41 -69 -91 -3 -125 21 -11 42 -25 46 -31 10 -17
-16 -28 -47 -19 -24 7 -29 6 -29 -9 0 -46 66 -56 105 -16 14 13 25 30 25 38 0
22 -25 49 -60 66 -19 9 -35 21 -38 28 -5 16 56 53 86 53 17 0 23 5 20 18 -5
27 -57 26 -105 -3z"/>
<path d="M9636 7427 c-29 -38 -56 -98 -56 -125 0 -31 38 -72 67 -72 30 0 85
54 101 99 13 38 -10 88 -55 114 l-31 18 -26 -34z m62 -39 c7 -7 12 -20 12 -30
0 -22 -59 -90 -71 -82 -16 9 -10 58 11 92 21 35 30 38 48 20z"/>
<path d="M8519 7404 c-10 -27 -4 -137 10 -190 10 -39 37 -43 53 -9 10 23 9 36
-9 87 -28 76 -23 90 28 82 34 -6 39 -4 39 14 0 15 -10 22 -44 31 -62 15 -65
15 -77 -15z"/>
<path d="M9800 7416 c0 -7 7 -27 15 -42 17 -33 19 -75 6 -120 -5 -17 -5 -37
-1 -44 16 -25 37 -1 54 62 17 60 39 98 58 98 16 0 48 -65 48 -96 0 -40 22 -61
40 -39 24 29 -9 129 -52 159 -29 20 -77 21 -84 1 -9 -22 -23 -18 -34 10 -10
27 -50 36 -50 11z"/>
<path d="M8771 7407 c-6 -8 -9 -46 -7 -97 2 -72 6 -86 26 -102 12 -10 31 -18
43 -18 28 0 107 48 107 65 0 27 -18 25 -77 -8 l-58 -33 4 49 c2 41 9 55 32 74
36 30 39 68 7 77 -37 9 -65 7 -77 -7z"/>
<path d="M10188 7407 c-6 -8 -22 -12 -33 -9 -29 5 -85 -43 -85 -72 0 -27 23
-49 81 -79 48 -24 59 -50 35 -82 -9 -13 -26 -20 -48 -20 -26 0 -33 -4 -33 -20
0 -16 8 -21 38 -23 30 -3 43 2 67 27 24 24 30 37 28 70 -1 46 -23 72 -81 96
-51 21 -46 45 13 65 65 22 73 29 59 46 -14 17 -25 18 -41 1z"/>
<path d="M12869 7358 c-1 -2 -2 -47 -4 -100 -2 -88 -1 -98 15 -98 10 0 20 10
24 23 10 36 7 95 -5 103 -8 5 -8 9 1 14 17 11 4 60 -15 60 -8 0 -16 -1 -16 -2z"/>
<path d="M14093 7348 c-6 -7 -18 -35 -27 -62 -20 -61 -9 -112 34 -154 62 -63
92 -48 120 61 11 43 26 87 33 97 9 15 9 22 0 31 -25 25 -55 -26 -84 -141 l-11
-45 -29 33 c-34 38 -38 84 -12 130 24 41 3 84 -24 50z"/>
<path d="M13034 7294 c-35 -37 -50 -73 -40 -99 6 -17 36 -9 36 10 0 22 52 77
62 67 6 -6 13 -34 16 -63 6 -45 10 -54 27 -54 17 0 20 6 17 45 -6 85 -31 130
-73 130 -6 0 -27 -16 -45 -36z"/>
<path d="M10286 7291 c-4 -5 -4 -15 -2 -23 2 -7 7 -25 10 -40 9 -41 46 -39 46
3 0 52 -35 91 -54 60z"/>
<path d="M11133 7254 c9 -55 46 -86 60 -50 9 22 -26 85 -47 86 -16 0 -18 -5
-13 -36z"/>
<path d="M10781 7266 c-17 -20 -10 -91 9 -91 16 0 32 59 24 88 -6 21 -18 22
-33 3z"/>
<path d="M8823 6471 c-17 -11 -42 -34 -54 -50 l-23 -31 -122 0 c-134 0 -123
-5 -138 63 -11 47 -61 26 -95 -40 -12 -23 -14 -23 -264 -25 l-252 -3 248 -2
247 -3 -20 -41 c-12 -22 -18 -44 -14 -50 3 -6 -1 -16 -8 -22 -8 -7 -32 -59
-53 -117 -20 -58 -44 -120 -52 -137 -28 -65 -63 -163 -57 -163 3 0 -2 -7 -10
-16 -9 -8 -16 -24 -16 -35 0 -28 30 -37 43 -13 24 42 66 180 61 199 -4 15 -3
16 4 6 8 -11 11 -10 16 5 5 15 16 19 53 19 27 0 69 4 94 9 l46 8 6 -72 c7 -82
30 -131 52 -109 11 12 11 23 -1 69 -19 72 -18 110 4 126 16 13 16 15 0 27 -14
11 -17 35 -18 143 -1 71 -1 137 -1 147 1 15 14 17 122 17 93 0 120 -3 116 -12
-50 -114 -61 -149 -74 -246 -5 -35 -2 -46 13 -57 19 -15 19 -15 0 -8 -18 6
-19 3 -13 -48 4 -30 11 -55 17 -57 6 -2 8 -7 5 -12 -7 -11 35 -69 67 -93 39
-29 134 -23 231 15 26 10 36 31 19 42 -4 3 -41 -4 -82 -15 -122 -32 -151 -23
-193 54 -19 35 -22 57 -21 137 1 98 16 155 66 258 21 41 23 42 70 42 51 0 60
-11 55 -70 -2 -19 3 -25 18 -25 14 0 23 12 35 47 l15 48 1591 0 1590 0 3 -143
2 -144 -51 -22 c-29 -12 -50 -27 -47 -34 4 -13 52 -15 78 -3 11 5 19 2 22 -8
4 -9 1 -15 -6 -13 -22 4 -47 -252 -28 -282 14 -22 44 -5 38 20 -3 12 1 77 9
145 8 68 13 127 12 131 -5 18 24 53 65 76 57 34 74 54 58 70 -16 16 -67 -16
-63 -40 2 -13 0 -14 -6 -5 -5 7 -15 10 -24 7 -12 -5 -14 1 -13 27 2 18 0 75
-4 125 l-6 93 1695 3 c932 1 209 3 -1607 5 l-3302 2 -10 36 c-18 64 -75 83
-138 45z m82 -35 c11 -8 16 -19 12 -30 -5 -12 -20 -16 -63 -16 l-57 0 19 21
c16 19 47 36 65 38 3 1 14 -5 24 -13z m-455 -31 c0 -8 -4 -15 -10 -15 -5 0 -7
7 -4 15 4 8 8 15 10 15 2 0 4 -7 4 -15z m6 -60 c3 -19 4 -51 2 -70 -2 -20 0
-35 7 -35 5 0 4 -4 -3 -9 -10 -6 -13 -29 -10 -84 l3 -75 -78 -7 c-43 -4 -80
-5 -83 -2 -3 2 7 35 21 73 14 37 23 75 20 83 -3 9 -3 12 2 8 10 -11 54 90 46
108 -3 9 1 15 10 15 8 0 17 7 21 15 10 28 35 16 42 -20z"/>
<path d="M11423 6328 c-5 -7 -18 -78 -28 -158 -10 -80 -21 -155 -26 -167 -6
-15 -23 -27 -56 -36 -50 -15 -68 -41 -34 -50 11 -2 32 1 47 9 14 8 28 14 30
14 2 0 4 -36 4 -79 0 -75 6 -91 36 -91 2 0 4 31 4 69 0 124 1 126 90 156 94
31 120 48 103 66 -10 10 -28 7 -89 -14 -43 -15 -78 -26 -80 -25 -1 2 4 55 12
118 8 63 12 121 9 128 -2 6 0 12 5 12 15 0 12 36 -4 49 -10 8 -16 8 -23 -1z"/>
<path d="M14546 6312 c-2 -4 0 -30 5 -57 10 -53 -3 -234 -23 -314 -9 -35 -8
-45 3 -52 23 -14 26 -11 37 34 22 88 34 210 22 217 -9 5 -9 9 -1 14 12 8 14
51 5 120 -5 35 -11 46 -25 46 -10 0 -20 -3 -23 -8z"/>
<path d="M9994 6248 c18 -90 21 -116 18 -180 l-4 -69 -28 6 c-41 9 -69 -10
-92 -62 -35 -79 1 -173 61 -158 48 12 87 89 60 121 -11 14 -16 10 -34 -28 -11
-23 -27 -43 -35 -43 -20 0 -25 58 -9 97 9 23 17 28 38 26 14 -2 25 -9 24 -15
-2 -7 4 -13 12 -13 8 0 15 -5 15 -12 0 -8 3 -9 10 -2 15 15 32 149 26 201 -18
153 -21 163 -48 163 -18 0 -19 -4 -14 -32z"/>
<path d="M15060 6255 c-10 -12 -8 -33 15 -120 24 -91 26 -108 15 -135 -10 -24
-15 -28 -27 -19 -22 19 -59 -4 -83 -50 -24 -47 -25 -74 -6 -90 30 -25 104 36
146 120 25 48 25 95 0 178 -11 36 -21 76 -23 89 -5 34 -21 46 -37 27z m-29
-348 c-13 -12 -20 -15 -16 -7 14 26 28 41 33 35 3 -3 -5 -16 -17 -28z"/>
<path d="M13523 6206 c-62 -70 -134 -191 -127 -211 4 -10 2 -15 -6 -13 -8 2
-22 -18 -34 -45 -17 -42 -18 -50 -6 -59 13 -8 13 -9 -1 -5 -12 4 -21 -9 -35
-51 -17 -53 -19 -55 -22 -26 -2 17 4 61 12 97 9 37 13 73 10 80 -3 8 1 17 9
20 9 3 20 33 27 77 10 62 10 74 -3 87 -21 21 -40 6 -34 -25 3 -15 -6 -65 -20
-112 -14 -47 -25 -96 -25 -110 0 -14 -5 -31 -11 -39 -7 -8 -12 -48 -11 -92 l0
-79 -2685 -3 c-2467 -2 -2386 -2 989 -5 l3676 -2 17 -30 c37 -62 94 -64 129
-5 l20 35 86 2 87 2 -83 3 c-74 3 -83 6 -77 21 4 9 10 29 14 44 4 19 20 34 52
51 45 24 46 24 70 6 13 -10 35 -19 48 -19 31 0 84 36 105 71 18 30 21 69 6 69
-5 0 -10 -5 -10 -12 0 -6 -3 -8 -7 -5 -3 4 -14 -6 -24 -22 -27 -45 -63 -65
-87 -50 -19 12 -19 13 4 47 25 37 31 92 15 135 -5 14 -30 36 -56 50 -38 22
-50 24 -70 15 -17 -7 -24 -19 -24 -37 1 -14 0 -48 -1 -74 -2 -49 16 -111 29
-102 4 2 8 -2 8 -10 0 -13 -45 -40 -54 -32 -2 3 -10 27 -16 53 -7 27 -17 48
-23 47 -6 -1 -10 8 -10 19 1 29 -57 68 -100 68 -25 0 -45 -10 -74 -37 -74 -66
-31 -113 51 -54 23 17 50 31 60 31 21 0 44 -40 58 -99 10 -45 11 -44 -68 -56
-59 -10 -95 -45 -87 -86 l6 -29 -873 1 c-479 1 -864 3 -855 6 11 3 15 11 12
21 -5 13 -4 14 4 3 7 -10 14 -11 31 -2 20 11 27 31 15 44 -3 3 -29 -3 -57 -14
-45 -18 -52 -18 -66 -5 -13 14 -13 24 -2 83 7 38 14 78 15 90 1 12 7 28 13 35
6 7 28 47 48 88 21 41 53 99 71 128 19 29 34 59 34 67 0 31 -40 13 -87 -39z
m2025 -228 c2 -32 -2 -51 -16 -68 l-19 -24 -17 32 c-18 36 -21 84 -5 113 9 19
13 19 32 6 16 -10 23 -26 25 -59z m-2165 -162 c-5 -66 -3 -76 16 -95 l21 -21
-56 0 c-31 0 -54 3 -52 8 22 43 49 109 59 142 7 22 13 40 15 40 1 0 0 -33 -3
-74z m-106 -51 c-6 -51 -17 -56 -17 -7 0 23 5 42 10 42 6 0 9 -15 7 -35z
m2093 -15 c-13 -46 -18 -50 -66 -50 -42 0 -44 1 -44 30 0 24 5 31 28 36 15 3
32 7 37 9 6 2 20 4 32 4 19 1 21 -2 13 -29z m-25 -70 c7 -11 -39 -25 -54 -15
-6 3 -11 10 -11 16 0 12 57 12 65 -1z"/>
<path d="M9363 6134 c-43 -24 -63 -42 -63 -55 0 -28 23 -23 87 18 61 38 75 52
67 65 -9 14 -27 8 -91 -28z"/>
<path d="M10832 6067 c-16 -19 -64 -186 -57 -197 14 -22 36 -7 60 40 14 28 28
50 31 50 2 0 2 -33 -1 -72 -6 -77 2 -105 29 -95 14 6 16 22 14 109 -3 99 -4
103 -26 106 -20 3 -22 8 -17 32 7 30 -16 49 -33 27z"/>
<path d="M11082 6007 c-40 -41 -40 -63 -2 -85 36 -21 43 -37 28 -65 -9 -17
-12 -19 -16 -7 -9 30 -24 41 -38 29 -17 -14 -18 -53 -1 -66 31 -24 49 -23 78
6 39 40 39 83 -1 121 l-29 27 24 22 c14 11 25 28 25 36 0 26 -35 17 -68 -18z"/>
<path d="M11639 6017 c-35 -29 -68 -96 -76 -152 -5 -41 -4 -45 15 -45 16 0 22
8 27 38 3 20 16 57 29 82 21 41 26 45 64 48 34 3 42 7 42 23 0 11 -7 19 -17
19 -10 0 -27 2 -38 5 -12 3 -31 -4 -46 -18z"/>
<path d="M12375 5965 c-19 -30 -35 -64 -35 -76 0 -33 59 -128 88 -142 32 -15
71 -11 79 9 3 8 9 12 13 9 16 -10 85 98 74 116 -11 18 -33 8 -46 -21 -7 -16
-16 -30 -20 -30 -5 0 -8 -9 -8 -21 0 -11 -4 -18 -10 -14 -5 3 -18 0 -29 -7
-17 -10 -23 -9 -41 7 -46 41 -60 95 -25 95 19 0 54 39 62 68 6 27 -21 62 -49
62 -11 0 -31 -21 -53 -55z"/>
<path d="M14752 6009 c-42 -16 -89 -59 -113 -103 -21 -39 -22 -48 -11 -84 10
-33 19 -43 47 -52 44 -14 105 -4 105 19 0 14 2 14 11 1 8 -12 10 -11 7 5 -3
18 -10 20 -60 17 -60 -4 -81 10 -71 49 4 15 15 19 55 19 41 0 54 5 79 29 31
31 36 56 16 82 -17 22 -38 28 -65 18z m28 -54 c0 -19 -35 -37 -63 -33 -20 3
-19 6 13 26 41 26 50 27 50 7z"/>
<path d="M10113 5998 c-20 -25 -36 -93 -37 -151 -1 -53 2 -61 27 -83 27 -23
57 -32 57 -16 0 4 12 8 27 7 21 0 28 6 35 30 8 32 4 55 -10 55 -11 0 -54 -36
-53 -44 2 -15 0 -16 -19 -6 -15 8 -20 21 -20 54 0 39 2 43 19 39 14 -4 24 3
35 26 21 39 20 64 -2 84 -22 20 -46 22 -59 5z"/>
<path d="M10386 6003 c-4 -4 -20 -8 -34 -8 -34 0 -50 -32 -56 -113 -3 -34 -7
-66 -10 -71 -8 -13 23 -36 34 -25 5 5 25 45 44 89 38 88 55 85 32 -5 -9 -35
-11 -59 -5 -65 13 -13 43 6 48 31 2 10 7 21 11 24 3 3 11 13 17 23 7 13 8 1 5
-42 -4 -53 -2 -60 18 -71 15 -8 20 -8 16 -1 -4 6 -2 11 4 11 7 0 9 8 5 19 -3
10 -1 49 5 86 8 50 8 71 -1 81 -14 17 -55 19 -65 3 -4 -7 -11 -2 -18 13 -12
24 -36 34 -50 21z"/>
<path d="M11827 5979 c-49 -41 -71 -82 -57 -109 15 -29 25 -25 77 26 50 48 60
46 62 -14 1 -25 27 -40 42 -25 15 15 -8 104 -33 130 -29 31 -46 29 -91 -8z"/>
<path d="M10658 5963 c-48 -50 -64 -137 -32 -164 36 -30 113 58 114 132 0 63
-38 78 -82 32z m24 -75 c-17 -37 -20 -39 -21 -18 -1 25 27 76 36 67 2 -3 -4
-25 -15 -49z"/>
<path d="M13715 5950 c3 -5 0 -8 -7 -5 -7 3 -26 -14 -43 -39 -30 -44 -30 -44
-48 -25 -25 26 -50 9 -37 -24 5 -12 11 -39 15 -59 8 -50 34 -50 57 0 10 21 25
46 33 57 16 19 16 19 10 -10 -18 -88 -18 -125 0 -131 17 -7 38 13 29 27 -2 4
4 45 14 91 20 88 16 128 -13 128 -9 0 -13 -4 -10 -10z"/>
<path d="M13864 5945 c-3 -8 -14 -17 -25 -20 -23 -8 -25 -33 -4 -41 9 -4 15
-19 15 -38 0 -51 11 -76 39 -90 32 -17 62 -7 85 29 28 42 18 86 -26 114 -21
14 -38 32 -38 43 0 22 -38 25 -46 3z m66 -84 c22 -18 23 -21 10 -45 -7 -14
-17 -26 -22 -26 -10 0 -28 44 -28 71 0 24 8 24 40 0z"/>
<path d="M14087 5934 c-31 -17 -37 -54 -9 -54 10 0 23 5 29 11 9 9 13 2 18
-27 10 -60 12 -62 51 -79 36 -15 40 -14 91 11 l54 26 -7 46 c-3 26 -11 52 -16
57 -15 16 -40 -26 -34 -56 4 -21 0 -29 -22 -38 -18 -9 -28 -9 -30 -2 -2 6 -12
11 -23 11 -15 0 -19 7 -19 33 0 58 -37 85 -83 61z"/>
<path d="M14496 5825 c-22 -69 -21 -105 2 -105 13 0 21 14 31 53 24 96 24 94
3 99 -16 5 -22 -3 -36 -47z"/>
<path d="M10355 5594 c-82 -42 -139 -137 -153 -254 -5 -41 -6 -82 -1 -91 5 -9
12 -67 15 -128 l7 -111 -1168 0 c-643 0 -1166 -2 -1163 -5 2 -3 571 -5 1264
-5 l1259 -1 20 -32 c22 -35 50 -46 69 -27 8 9 6 16 -11 27 -13 9 -23 19 -23
24 0 12 137 11 145 -1 3 -5 19 -10 35 -10 16 0 32 5 35 10 4 6 110 10 287 10
l280 0 -5 -27 c-3 -16 -11 -63 -18 -105 -11 -68 -10 -79 5 -102 26 -41 41 -16
42 73 1 42 6 95 13 119 l12 42 582 0 c343 0 587 -4 593 -9 5 -5 22 -11 37 -13
27 -3 29 -6 33 -63 2 -33 6 -93 7 -133 3 -75 21 -110 50 -99 22 8 39 126 34
230 l-5 87 109 0 109 0 -6 -27 c-4 -16 -15 -52 -26 -82 -21 -64 -24 -137 -4
-156 20 -20 35 1 29 39 -4 28 19 131 46 199 l11 27 143 0 c95 0 147 -4 155
-12 8 -8 15 -8 25 0 10 9 317 13 1178 15 l1164 2 -1167 3 -1168 2 -1 33 c-2
99 -4 112 -18 112 -8 0 -16 -6 -18 -12 -3 -7 2 -13 11 -13 9 0 16 -5 16 -11 0
-6 -6 -9 -14 -6 -8 3 -17 -1 -20 -9 -8 -21 -8 -20 10 -38 8 -9 11 -16 5 -16
-6 0 -11 -9 -11 -20 0 -19 -7 -20 -144 -20 l-144 0 30 76 c20 51 26 80 19 87
-18 18 -36 0 -54 -54 -14 -46 -20 -54 -42 -55 -19 -2 -29 5 -35 21 -24 64 -59
36 -37 -29 l16 -46 -90 0 c-49 0 -89 3 -89 6 0 3 14 22 30 43 31 37 68 125 64
149 -1 6 -2 18 -3 26 -2 22 -30 46 -53 46 -11 0 -35 -15 -53 -33 -34 -34 -49
-75 -61 -162 -3 -27 -7 -51 -9 -53 -2 -2 -13 1 -24 7 -17 10 -23 8 -33 -9 -13
-20 -21 -20 -594 -20 l-582 0 24 78 c13 42 22 83 19 90 -8 21 -30 13 -49 -20
-17 -28 -20 -30 -32 -14 -17 24 -48 16 -52 -13 -3 -16 6 -31 27 -50 24 -20 30
-31 25 -48 l-6 -23 -279 0 -279 0 14 23 c20 29 46 141 37 156 -14 23 -39 0
-45 -42 -4 -23 -16 -62 -28 -85 -24 -52 -36 -46 -65 33 -20 54 -53 75 -53 34
0 -37 31 -109 44 -102 8 4 8 3 0 -6 -7 -8 -35 -11 -79 -9 l-67 3 -22 61 c-28
77 -57 118 -96 134 -37 15 -38 23 -5 38 35 16 111 88 136 129 12 19 23 49 25
66 1 18 3 34 4 37 7 18 -5 68 -18 84 -16 17 -71 46 -89 46 -4 0 -21 -7 -38
-16z m88 -52 c23 -20 22 -83 -2 -130 -25 -47 -84 -104 -138 -131 l-43 -21 0
81 c0 70 4 89 26 126 30 51 98 105 122 96 9 -3 25 -13 35 -21z m2225 -349 c-3
-21 -16 -55 -28 -76 -19 -32 -25 -36 -32 -23 -5 9 -13 14 -18 11 -11 -7 25 92
41 111 6 8 18 14 27 14 11 0 13 -8 10 -37z m-2365 -14 c24 -13 82 -59 73 -59
-3 0 1 -15 8 -32 33 -81 35 -78 -42 -78 l-69 0 -6 68 c-12 120 -10 125 36 101z
m2305 -196 c-9 -10 -18 -25 -21 -33 -4 -11 -6 -9 -6 6 -1 21 16 44 33 44 5 0
2 -8 -6 -17z m-9 -115 c-1 -24 -3 -35 -6 -25 -3 10 -10 14 -16 11 -8 -5 -8 -2
1 7 6 7 12 21 12 31 0 10 2 18 5 18 3 0 4 -19 4 -42z"/>
<path d="M13175 5550 c-14 -16 -16 -29 -11 -67 3 -27 9 -78 12 -114 l6 -67
-37 -12 c-20 -7 -53 -10 -72 -7 -25 5 -36 2 -40 -10 -15 -38 59 -50 135 -22
21 8 22 6 22 -35 0 -35 4 -45 20 -49 19 -5 20 -1 18 55 -2 53 0 62 22 78 14
11 28 16 32 12 9 -9 16 -46 17 -84 1 -15 7 -33 14 -40 8 -7 12 -19 10 -25 -6
-16 15 -53 29 -53 6 0 28 16 50 36 48 43 72 42 76 -6 3 -38 27 -95 43 -106 24
-14 33 15 16 51 -9 20 -17 51 -17 69 0 20 -8 40 -20 51 -11 10 -20 15 -20 10
0 -4 -6 -3 -13 3 -10 9 -24 6 -55 -9 -23 -12 -42 -25 -42 -31 0 -5 -4 -7 -9
-4 -11 7 -32 135 -34 211 -2 53 -4 60 -22 60 -15 0 -21 -8 -23 -31 -3 -29 -46
-84 -57 -73 -2 3 -7 55 -11 117 -4 62 -10 112 -14 112 -4 0 -15 -9 -25 -20z
m320 -350 c3 -5 1 -10 -4 -10 -6 0 -11 5 -11 10 0 6 2 10 4 10 3 0 8 -4 11
-10z"/>
<path d="M8495 5521 c-3 -5 2 -16 10 -24 8 -9 15 -23 15 -32 0 -26 44 -15 48
12 5 32 -57 70 -73 44z"/>
<path d="M10903 5488 c2 -13 12 -50 21 -83 12 -42 17 -99 17 -192 0 -73 4
-133 9 -133 5 0 18 -9 28 -21 31 -32 112 -27 131 9 5 9 12 37 16 61 7 39 5 43
-10 37 -15 -5 -16 -4 -6 8 10 11 7 17 -11 30 -28 20 -57 20 -86 0 -22 -15 -22
-15 -22 39 0 63 -15 153 -36 220 -12 36 -20 47 -36 47 -16 0 -19 -5 -15 -22z
m177 -344 c0 -59 -40 -83 -75 -44 -18 20 -18 21 5 45 32 34 70 34 70 -1z"/>
<path d="M8518 5335 c-8 -18 -8 -28 0 -38 6 -7 9 -29 6 -48 -4 -25 -1 -39 10
-48 27 -22 36 -2 36 80 0 73 -2 79 -20 79 -12 0 -25 -10 -32 -25z"/>
<path d="M8740 5311 c-36 -38 -48 -67 -67 -164 -5 -26 -3 -28 18 -25 16 2 24
10 25 23 3 53 52 155 75 155 5 0 8 -35 6 -77 -2 -73 -1 -78 19 -81 25 -3 40
24 24 43 -6 8 -7 29 -1 61 19 100 -33 135 -99 65z"/>
<path d="M11866 5314 c-23 -60 16 -101 84 -89 31 5 40 11 36 22 -3 8 -6 17 -6
19 0 2 -18 4 -40 4 -39 0 -39 1 -33 30 5 25 2 30 -15 30 -11 0 -23 -7 -26 -16z"/>
<path d="M12013 5283 c-23 -4 -29 -19 -15 -40 8 -13 62 -6 62 9 0 5 5 6 10 3
6 -3 10 3 10 14 0 21 -14 24 -67 14z"/>
<path d="M13595 5280 c-7 -12 5 -60 15 -60 5 0 4 -15 -2 -33 -6 -20 -7 -50 -1
-77 7 -38 13 -45 34 -48 36 -4 70 36 76 93 6 52 -6 71 -69 111 -42 27 -45 28
-53 14z m85 -114 c0 -12 -7 -31 -15 -42 -13 -18 -14 -16 -15 22 0 22 3 44 6
47 11 11 24 -3 24 -27z"/>
<path d="M13830 5238 c-13 -22 -20 -27 -20 -15 0 22 -29 22 -37 1 -3 -9 -1
-24 5 -34 6 -10 14 -34 17 -53 13 -67 48 -54 58 22 8 62 18 69 70 43 54 -27
107 -28 138 -4 30 25 20 59 -12 41 -32 -17 -79 -13 -124 10 -54 29 -72 26 -95
-11z"/>
<path d="M8835 4929 c-21 -34 34 -88 92 -90 27 -1 27 -1 4 -8 -14 -4 -26 -12
-28 -18 -2 -6 26 -44 62 -85 105 -116 180 -285 147 -334 -34 -52 -171 -42
-212 15 -11 16 -20 39 -20 50 0 27 -26 27 -40 0 -10 -17 -7 -28 14 -60 28 -42
66 -72 88 -68 7 1 26 -3 43 -10 33 -14 83 -8 127 15 32 17 38 26 48 70 8 35
-10 121 -22 108 -4 -3 -6 2 -6 13 4 45 -136 266 -156 246 -3 -4 -6 -2 -6 4 0
5 26 15 58 21 139 28 192 52 192 84 0 19 -4 20 -47 14 -112 -17 -161 -21 -217
-16 -48 5 -62 10 -80 33 -24 29 -31 33 -41 16z"/>
<path d="M13300 4783 c-36 -9 -83 -15 -105 -13 -90 7 -138 5 -142 -7 -5 -15
26 -32 66 -36 18 -2 39 -16 56 -35 15 -18 31 -29 36 -26 5 3 8 2 7 -3 -1 -4
31 -39 71 -78 80 -77 115 -124 125 -172 10 -44 -20 -63 -97 -63 -94 0 -148 32
-162 98 -8 38 -32 43 -41 8 -10 -40 35 -106 91 -133 63 -32 189 -25 230 13 42
38 25 127 -36 199 -33 38 -133 134 -160 153 -19 13 -20 16 -5 24 22 13 188 38
249 38 39 0 47 3 47 19 0 11 -9 21 -22 25 -40 10 -141 5 -208 -11z"/>
<path d="M13697 4780 c-103 -13 -140 -81 -77 -140 31 -29 66 -44 172 -76 108
-31 114 -81 16 -127 -79 -37 -151 -51 -224 -43 -53 5 -64 4 -64 -8 0 -69 280
-32 365 48 44 42 48 93 11 131 -25 25 -129 61 -146 50 -5 -3 -10 -3 -10 2 0 4
-20 16 -45 27 -46 18 -71 47 -59 67 11 19 52 28 138 30 94 3 112 9 103 33 -7
18 -72 20 -180 6z"/>
<path d="M11353 4744 c-4 -11 1 -22 12 -30 13 -10 21 -32 25 -69 7 -60 -17
-147 -59 -217 -25 -41 -51 -50 -51 -18 0 33 22 70 42 70 14 0 19 6 16 23 -2
16 -10 22 -28 22 -53 0 -93 -123 -54 -166 36 -39 75 -18 122 64 23 41 28 62
12 52 -5 -3 -10 -1 -10 4 0 6 6 11 14 11 18 0 35 49 43 121 7 70 -23 149 -57
149 -11 0 -23 -7 -27 -16z"/>
<path d="M9640 4580 c-5 -10 -10 -48 -10 -84 0 -36 -4 -67 -9 -70 -4 -3 -20
17 -35 44 -30 56 -43 67 -59 51 -25 -25 60 -151 102 -151 29 0 42 38 47 137 3
64 0 82 -11 87 -8 3 -19 -3 -25 -14z"/>
<path d="M9773 4562 c-19 -12 -43 -78 -43 -117 0 -27 4 -35 18 -35 21 0 43 16
64 48 15 22 15 22 28 -23 15 -54 30 -64 99 -66 56 -2 66 2 58 26 -4 10 -20 15
-46 15 -51 0 -67 17 -82 86 -10 44 -18 58 -36 65 -29 11 -44 11 -60 1z"/>
<path d="M9260 4525 c-16 -19 -16 -116 0 -145 19 -35 59 -23 94 29 19 29 31
40 34 30 15 -50 77 -74 117 -46 25 19 11 37 -30 37 -30 0 -37 5 -49 35 -10 24
-22 35 -35 35 -12 0 -21 4 -21 8 0 9 -59 32 -82 32 -9 0 -21 -7 -28 -15z m75
-45 c7 -11 -23 -60 -36 -60 -5 0 -9 16 -9 35 0 28 4 35 19 35 11 0 23 -4 26
-10z"/>
<path d="M10793 4530 c-30 -12 -54 -61 -60 -124 -4 -43 -2 -54 16 -70 28 -26
63 -10 130 59 30 30 57 52 62 49 5 -3 16 -21 24 -40 8 -19 19 -34 25 -34 6 0
30 18 55 41 l44 40 10 -38 c6 -21 11 -45 11 -54 0 -9 9 -24 20 -34 29 -26 47
-7 32 32 -6 15 -18 54 -28 85 -27 91 -48 97 -97 26 l-29 -41 -18 28 c-36 55
-68 53 -118 -7 -31 -36 -37 -31 -17 15 14 34 12 67 -5 67 -5 0 -14 2 -22 4 -7
3 -23 1 -35 -4z m11 -76 c-8 -20 -14 -43 -12 -52 1 -10 -2 -17 -7 -17 -14 0
-6 55 11 83 21 33 25 27 8 -14z"/>
<path d="M12201 4291 c-9 -6 -8 -25 4 -82 30 -143 73 -300 89 -324 31 -48 56
-22 33 33 -8 21 -23 67 -32 105 -10 37 -21 67 -27 67 -5 0 -7 4 -3 9 8 14 -28
190 -41 195 -6 2 -16 1 -23 -3z"/>
<path d="M11946 4271 c-7 -10 35 -283 44 -291 3 -3 6 -31 7 -62 1 -45 -1 -58
-13 -58 -7 0 -14 -9 -14 -20 0 -48 128 -69 174 -27 49 42 50 137 3 176 -27 21
-68 16 -92 -11 l-21 -25 -24 151 c-24 153 -43 202 -64 167z m184 -291 c12 -8
11 -10 -7 -10 -13 0 -23 5 -23 10 0 13 11 13 30 0z m0 -35 c17 -20 6 -86 -17
-103 -30 -22 -65 -11 -69 21 -1 15 1 27 6 27 5 0 12 9 15 20 7 22 32 50 44 50
5 0 14 -7 21 -15z"/>
<path d="M11707 4244 c-16 -16 -7 -44 14 -44 15 0 20 5 17 22 -3 22 -19 33
-31 22z"/>
<path d="M10028 4130 c-42 -32 -53 -95 -39 -218 7 -71 8 -108 1 -110 -17 -6
-11 -40 9 -47 11 -3 21 -19 25 -37 8 -39 23 -58 47 -58 22 0 24 16 4 50 -20
36 -20 37 26 43 79 10 78 47 -1 47 -57 0 -57 -1 -69 126 -12 129 12 199 61
173 21 -11 38 -4 38 16 0 17 -30 35 -58 35 -11 0 -31 -9 -44 -20z"/>
<path d="M12482 4102 c-53 -49 -56 -144 -7 -208 43 -56 133 -92 184 -73 36 14
71 49 71 71 0 25 -22 22 -50 -7 -65 -70 -215 29 -196 129 6 34 46 82 46 56 0
-7 -7 -21 -15 -30 -13 -15 -13 -19 -2 -29 19 -15 42 -5 56 25 16 35 14 58 -7
77 -26 24 -45 21 -80 -11z"/>
<path d="M11590 4059 c-64 -35 -92 -66 -88 -96 2 -20 9 -29 26 -31 13 -2 28 1
35 6 8 7 16 5 25 -4 10 -11 6 -21 -24 -54 -36 -39 -40 -70 -10 -70 17 0 71 66
86 105 13 35 -3 57 -39 55 -50 -4 -55 -2 -40 16 7 8 30 24 51 35 25 13 38 26
38 39 0 25 -15 24 -60 -1z"/>
<path d="M9773 4044 c-7 -18 11 -39 26 -30 17 11 13 46 -4 46 -9 0 -18 -7 -22
-16z"/>
<path d="M11291 3988 c-85 -85 -80 -123 15 -112 72 8 77 -9 15 -48 -49 -30
-62 -50 -41 -63 15 -9 85 31 114 65 46 55 31 81 -49 88 l-57 5 43 43 c27 27
40 48 36 58 -10 25 -20 20 -76 -36z"/>
<path d="M11725 3928 c3 -29 8 -66 9 -82 3 -28 23 -49 38 -40 12 8 9 94 -5
134 -7 20 -20 36 -30 38 -17 3 -18 -1 -12 -50z"/>
<path d="M10847 3901 c-24 -26 -38 -55 -46 -92 -6 -29 -17 -59 -23 -66 -7 -8
-8 -33 -4 -68 l6 -55 -1447 -2 -1448 -3 1233 -2 c850 -2 1231 -6 1227 -13 -4
-6 -2 -16 4 -23 5 -7 32 -77 60 -155 l49 -143 -54 -40 c-39 -30 -54 -48 -54
-65 0 -17 6 -24 20 -24 18 0 25 10 21 33 0 4 6 7 14 7 8 0 15 5 15 12 0 6 3 8
7 5 3 -4 16 2 29 14 l22 20 22 -55 c17 -40 27 -53 39 -49 13 4 13 3 2 -5 -11
-8 -7 -21 20 -73 19 -34 40 -65 46 -67 31 -9 20 35 -33 143 -64 128 -64 125 9
145 33 10 47 27 32 42 -6 6 -70 -5 -97 -17 -13 -5 -20 0 -28 20 -5 14 -14 23
-20 20 -5 -3 -9 8 -9 27 1 35 -53 201 -72 224 -10 12 19 14 197 12 l208 -3 2
-35 c3 -37 36 -124 51 -133 5 -3 14 -2 21 2 10 6 9 23 -3 80 -8 40 -15 77 -15
82 0 5 908 10 2358 12 l2357 2 -2357 3 -2357 2 -6 48 c-3 26 -7 57 -9 70 -2
13 2 22 10 22 16 0 83 76 99 114 19 44 9 66 -30 66 -25 0 -41 -9 -68 -39z m54
-18 c-19 -33 -51 -68 -51 -56 0 11 47 73 56 73 3 0 0 -8 -5 -17z"/>
<path d="M11045 3881 c-8 -15 1 -120 14 -153 15 -41 60 -39 96 4 53 63 52 104
-3 132 -38 19 -99 29 -107 17z m35 -61 c0 -5 -2 -10 -4 -10 -3 0 -8 5 -11 10
-3 6 -1 10 4 10 6 0 11 -4 11 -10z m54 4 c21 -8 20 -20 -5 -56 -25 -35 -39
-24 -39 30 0 32 11 39 44 26z"/>
<path d="M9807 3834 c-4 -4 -7 -38 -7 -76 0 -53 4 -70 16 -75 26 -10 32 9 25
81 -6 64 -17 87 -34 70z"/>
<path d="M10016 3455 c-3 -8 1 -18 8 -22 17 -11 67 -86 99 -149 l26 -51 -65
-41 c-60 -39 -77 -63 -54 -77 5 -3 37 13 70 36 34 23 65 38 69 33 14 -15 81
-170 81 -187 0 -24 20 -31 38 -13 12 12 13 20 5 38 -6 13 -27 58 -47 101 -20
43 -34 82 -31 86 2 5 21 12 40 15 36 7 55 30 39 46 -6 6 -29 3 -58 -5 -27 -8
-50 -14 -51 -13 -20 43 -67 125 -92 166 -34 52 -65 68 -77 37z m204 -301 c0
-8 -5 -12 -10 -9 -6 4 -8 11 -5 16 9 14 15 11 15 -7z"/>
<path d="M9475 3370 c-6 -10 -1 -31 36 -135 11 -33 35 -107 53 -165 18 -58 37
-113 41 -122 7 -17 -24 -18 -564 -18 l-570 0 5 29 c5 24 1 33 -28 55 -19 14
-41 26 -49 26 -8 0 -22 9 -32 20 -19 23 -47 26 -65 8 -19 -19 -14 -82 9 -112
l20 -26 -228 -2 -228 -2 260 -7 c143 -4 265 -7 270 -7 6 1 282 3 614 5 404 2
608 0 615 -7 13 -13 46 -13 46 0 0 7 989 11 2943 12 l2942 3 -2787 2 c-2780 3
-2788 3 -2788 23 0 11 -4 20 -8 20 -5 0 -24 23 -43 50 -19 28 -44 53 -55 56
-15 4 -20 11 -17 24 13 51 -59 21 -82 -33 -17 -42 -14 -77 7 -91 15 -9 23 -5
47 24 33 40 43 36 79 -29 l23 -41 -119 0 c-85 0 -128 4 -148 14 -15 8 -32 12
-37 9 -6 -4 -8 1 -4 10 3 9 0 36 -8 59 -56 171 -90 263 -96 266 -4 2 -5 12 -2
22 3 12 0 20 -6 20 -7 0 -11 6 -10 13 3 26 -1 37 -15 37 -8 0 -18 -5 -21 -10z
m-1048 -404 c-2 -6 -13 -12 -25 -14 -24 -4 -72 38 -72 62 0 12 11 10 50 -11
28 -14 49 -31 47 -37z"/>
<path d="M11024 3320 c-38 -15 -66 -61 -61 -98 8 -46 57 -113 82 -110 16 3 19
11 20 50 0 27 -4 48 -8 48 -5 0 -5 5 -2 10 3 6 -1 10 -9 10 -8 0 -20 -8 -25
-17 -9 -15 -10 -13 -11 13 0 33 15 54 41 54 16 0 29 19 29 41 0 11 -28 11 -56
-1z"/>
<path d="M10743 3256 c-23 -20 -28 -32 -27 -68 2 -112 82 -162 194 -123 49 17
74 44 58 62 -7 9 -18 8 -46 -7 -20 -11 -49 -20 -64 -20 -32 0 -35 14 -13 75
20 55 19 71 -7 89 -32 23 -63 20 -95 -8z m63 -48 c-4 -13 -9 -38 -13 -56 -4
-26 -8 -30 -19 -21 -14 12 -19 80 -7 92 3 4 15 7 26 7 15 0 18 -5 13 -22z"/>
<path d="M8621 3086 c-13 -16 -18 -77 -7 -94 4 -7 16 -12 27 -12 14 0 19 7 19
28 l0 27 35 -37 c35 -39 62 -48 71 -24 6 16 -97 126 -118 126 -9 0 -21 -6 -27
-14z"/>
<path d="M11238 3035 c-8 -19 -9 -28 0 -37 15 -15 45 9 38 29 -4 9 -1 11 5 7
7 -4 10 -1 7 7 -8 25 -37 22 -50 -6z"/>
<path d="M9797 2233 c1057 -2 2789 -2 3850 0 1060 1 196 2 -1922 2 -2117 0
-2985 -1 -1928 -2z"/>
<path d="M9797 1543 c1058 -2 2788 -2 3845 0 1058 1 193 2 -1922 2 -2115 0
-2980 -1 -1923 -2z"/>
<path d="M9802 853 c1054 -2 2782 -2 3840 0 1058 1 195 2 -1917 2 -2112 0
-2977 -1 -1923 -2z"/>
</g>
</svg>
